<?xml version="1.0" standalone="no"?>
<!DOCTYPE svg PUBLIC "-//W3C//DTD SVG 1.1//EN" "http://www.w3.org/Graphics/SVG/1.1/DTD/svg11.dtd" >
<svg>
<metadata>
Created by FontForge 20090622 at Fri Oct 30 23:28:24 2015
 By deploy user
&#194;&#169; 1991, 2002 Adobe Systems Incorporated. All rights reserved.
</metadata>
<defs>
<font id="FrutigerLTStd-BoldCn" horiz-adv-x="500" >
  <font-face 
    font-family="Frutiger LT Std 47 Light Cn"
    font-weight="700"
    font-stretch="condensed"
    units-per-em="1000"
    panose-1="2 11 7 6 3 5 4 2 2 4"
    ascent="750"
    descent="-250"
    x-height="515"
    cap-height="698"
    bbox="-112 -250 1000 940"
    underline-thickness="50"
    underline-position="-50"
    unicode-range="U+0020-U+FB02"
  />
<missing-glyph 
d="M0 0v700h500v-700h-500zM250 395l170 255h-340zM280 350l170 -255v510zM80 50h340l-170 255zM50 605v-510l170 255z" />
    <glyph glyph-name="f_i" unicode="fi" horiz-adv-x="574" 
d="M382 0v515h124v-515h-124zM380 612v122h128v-122h-128zM96 0v424h-86v91h86v105q0 62 34.5 102t113.5 40q31 0 89 -12l-5 -90q-30 8 -49 8q-27 0 -43 -17.5t-16 -46.5v-89h94v-91h-94v-424h-124z" />
    <glyph glyph-name="f_l" unicode="fl" horiz-adv-x="574" 
d="M382 0v750h124v-750h-124zM96 0v424h-86v91h86v105q0 62 34.5 102t113.5 40q31 0 89 -12l-5 -90q-30 8 -49 8q-27 0 -43 -17.5t-16 -46.5v-89h94v-91h-94v-424h-124z" />
    <glyph glyph-name=".notdef" 
d="M0 0v700h500v-700h-500zM250 395l170 255h-340zM280 350l170 -255v510zM80 50h340l-170 255zM50 605v-510l170 255z" />
    <glyph glyph-name=".null" horiz-adv-x="0" 
 />
    <glyph glyph-name="nonmarkingreturn" horiz-adv-x="333" 
 />
    <glyph glyph-name="space" unicode=" " horiz-adv-x="260" 
 />
    <glyph glyph-name="exclam" unicode="!" horiz-adv-x="370" 
d="M137 206l-16 492h128l-16 -492h-96zM125 0v126h120v-126h-120z" />
    <glyph glyph-name="quotedbl" unicode="&#x22;" horiz-adv-x="519" 
d="M291 502v248h100v-248h-100zM128 502v248h100v-248h-100z" />
    <glyph glyph-name="numbersign" unicode="#" horiz-adv-x="520" 
d="M270 0l29 206h-118l-29 -206h-78l29 206h-93v78h104l18 130h-94v78h105l29 206h78l-29 -206h118l29 206h78l-29 -206h93v-78h-104l-18 -130h93v-78h-104l-29 -206h-78zM310 284l18 130h-118l-18 -130h118z" />
    <glyph glyph-name="dollar" unicode="$" horiz-adv-x="520" 
d="M279 298v-215q40 6 61.5 34.5t21.5 68.5q0 49 -15.5 70t-59.5 39zM233 -95v85q-102 4 -167 31l8 114q72 -50 159 -54v236l-40 16q-143 59 -143 175q0 88 53 139.5t135 58.5v81h46v-79q87 -1 150 -30l-7 -105q-63 43 -143 44v-207l60 -23q126 -48 126 -171
q0 -106 -51 -162.5t-140 -61.5v-87h-46zM238 429v186q-40 -5 -58 -30t-18 -55q0 -67 76 -101z" />
    <glyph glyph-name="percent" unicode="%" horiz-adv-x="833" 
d="M140 510q0 -128 57 -128t57 128t-57 128t-57 -128zM52 510q0 95 37.5 146.5t107.5 51.5t107.5 -51.5t37.5 -146.5t-37.5 -146.5t-107.5 -51.5t-107.5 51.5t-37.5 146.5zM579 188q0 -128 57 -128t57 128t-57 128t-57 -128zM491 188q0 95 37.5 146.5t107.5 51.5
t107.5 -51.5t37.5 -146.5t-37.5 -146.5t-107.5 -51.5t-107.5 51.5t-37.5 146.5zM221 -34l316 766h78l-316 -766h-78z" />
    <glyph glyph-name="ampersand" unicode="&#x26;" horiz-adv-x="648" 
d="M362 560q0 33 -21 51.5t-54 18.5t-55 -21t-22 -55q0 -9 2 -18.5t4 -16.5t7.5 -17t8.5 -14.5t11 -14.5l10 -12.5t11.5 -12.5t9.5 -11q88 59 88 123zM384 137l-141 184q-73 -46 -73 -123q0 -53 35 -83.5t75 -30.5q62 0 104 53zM492 0l-50 64q-38 -39 -72 -56.5t-95 -17.5
q-112 0 -170.5 58.5t-58.5 144.5q0 137 130 201q-2 2 -13 15.5t-13.5 17t-12 16t-12 18.5t-9 18.5t-8.5 21.5t-4 22t-2 26q0 59 48 109t143 50q89 0 133 -45.5t44 -106.5q0 -33 -12 -62.5t-35.5 -53.5t-40 -37.5t-41.5 -30.5l110 -143q38 58 38 159h112q0 -61 -20.5 -130
t-62.5 -118l110 -140h-136z" />
    <glyph glyph-name="quotesingle" unicode="'" horiz-adv-x="260" 
d="M80 502v248h100v-248h-100z" />
    <glyph glyph-name="parenleft" unicode="(" horiz-adv-x="296" 
d="M278 -168h-96q-75 146 -98 212q-40 115 -40 236q0 55 9.5 110.5t18 89t34.5 92t34 74.5l42 82h96q-126 -231 -126 -448t126 -448z" />
    <glyph glyph-name="parenright" unicode=")" horiz-adv-x="296" 
d="M18 728h96q75 -146 98 -212q40 -115 40 -236q0 -55 -9.5 -110.5t-18 -89t-34.5 -92t-34 -74.5l-42 -82h-96q126 231 126 448t-126 448z" />
    <glyph glyph-name="asterisk" unicode="*" horiz-adv-x="519" 
d="M123 403l86 103l-126 30l31 89l116 -58l-17 131h96l-16 -131l114 58l30 -89l-125 -30l87 -103l-78 -53l-60 118l-60 -118z" />
    <glyph glyph-name="plus" unicode="+" horiz-adv-x="600" 
d="M256 0v209h-209v88h209v209h88v-209h209v-88h-209v-209h-88z" />
    <glyph glyph-name="comma" unicode="," horiz-adv-x="260" 
d="M70 128h120l-76 -248h-96z" />
    <glyph glyph-name="hyphen" unicode="-" horiz-adv-x="315" 
d="M42 233v102h231v-102h-231z" />
    <glyph glyph-name="period" unicode="." horiz-adv-x="260" 
d="M70 0v130h120v-130h-120z" />
    <glyph glyph-name="slash" unicode="/" horiz-adv-x="278" 
d="M8 -10l174 718h88l-178 -718h-84z" />
    <glyph glyph-name="zero" unicode="0" horiz-adv-x="520" 
d="M164 349q0 -62 4 -107t14.5 -82.5t30 -56.5t47.5 -19q55 0 75.5 68t20.5 197t-20.5 197t-75.5 68q-28 0 -47.5 -19t-30 -56.5t-14.5 -82.5t-4 -107zM40 349q0 359 220 359t220 -359t-220 -359t-220 359z" />
    <glyph glyph-name="one" unicode="1" horiz-adv-x="520" 
d="M234 0v551l-93 -87l-59 86l170 148h106v-698h-124z" />
    <glyph glyph-name="two" unicode="2" horiz-adv-x="520" 
d="M62 0v103l52 59l62.5 71.5t53.5 66.5t50.5 72.5t29 63.5t13.5 66q0 48 -26.5 76t-68.5 28q-35 0 -66 -11t-43 -19t-31 -23l-11 115q67 40 173 40q104 0 152.5 -51.5t48.5 -134.5q0 -152 -222 -393l-25 -27h254v-102h-396z" />
    <glyph glyph-name="three" unicode="3" horiz-adv-x="520" 
d="M50 20l7 107q73 -35 141 -35q56 0 92 31t36 85q0 56 -39.5 80.5t-95.5 24.5q-30 0 -51 -3v97h21q162 0 162 106q0 45 -33 69t-80 24q-60 0 -133 -34l-7 107q92 29 168 29q95 0 152 -46t57 -130q0 -44 -14 -76.5t-37 -49.5t-43.5 -25t-40.5 -11v-2q32 -9 51 -17
t44.5 -26.5t38 -50t12.5 -75.5q0 -100 -70 -154.5t-172 -54.5q-78 0 -166 30z" />
    <glyph glyph-name="four" unicode="4" horiz-adv-x="520" 
d="M296 239v331h-2l-172 -331h174zM296 0v145h-266v116l242 437h140v-459h78v-94h-78v-145h-116z" />
    <glyph glyph-name="five" unicode="5" horiz-adv-x="520" 
d="M79 698h353v-98h-241v-160q31 9 79 9q83 0 138.5 -57.5t55.5 -157.5q0 -114 -64 -179t-173 -65q-65 0 -161 29l8 107q66 -34 130 -34q62 0 97 37.5t35 98.5q0 56 -35.5 93t-105.5 37q-50 0 -116 -22v362z" />
    <glyph glyph-name="six" unicode="6" horiz-adv-x="520" 
d="M172 216q0 -132 90 -132t90 132q0 131 -90 131q-43 0 -66.5 -35t-23.5 -96zM444 684l-7 -104q-2 1 -15.5 7t-20.5 8.5t-21 6.5t-28 6t-30 2q-151 0 -162 -233l2 -2q43 70 128 70q78 0 132 -59t54 -168q0 -105 -53.5 -166.5t-151.5 -61.5q-227 0 -227 326q0 392 271 392
q65 0 129 -24z" />
    <glyph glyph-name="seven" unicode="7" horiz-adv-x="520" 
d="M111 0l227 596h-276v102h396v-112l-209 -586h-138z" />
    <glyph glyph-name="eight" unicode="8" horiz-adv-x="520" 
d="M164 185q0 -46 25.5 -75t70.5 -29q46 0 71 29.5t25 78.5q0 40 -17.5 64.5t-59.5 49.5l-26 16l-24 -17q-65 -46 -65 -117zM40 184q0 55 26.5 97.5t69.5 62.5l35 17q-111 55 -111 162q0 87 55.5 136t146.5 49q82 0 140 -45.5t58 -124.5q0 -112 -114 -169l26 -14
q108 -58 108 -167q0 -97 -61.5 -147.5t-160.5 -50.5t-158.5 55t-59.5 139zM176 521q0 -27 15.5 -50.5t32 -36t45.5 -29.5q25 21 35.5 31t25 36t14.5 54q0 91 -82 91q-38 0 -62 -26t-24 -70z" />
    <glyph glyph-name="nine" unicode="9" horiz-adv-x="520" 
d="M168 482q0 -131 90 -131q43 0 66.5 35t23.5 96q0 132 -90 132t-90 -132zM76 14l7 104q2 -1 15.5 -7t20.5 -8.5t21 -6.5t28 -6t30 -2q151 0 162 233l-2 2q-43 -70 -128 -70q-78 0 -132 59t-54 168q0 105 53.5 166.5t151.5 61.5q227 0 227 -326q0 -392 -271 -392
q-65 0 -129 24z" />
    <glyph glyph-name="colon" unicode=":" horiz-adv-x="260" 
d="M70 0v130h120v-130h-120zM70 385v130h120v-130h-120z" />
    <glyph glyph-name="semicolon" unicode=";" horiz-adv-x="260" 
d="M18 -120l52 248h120l-76 -248h-96zM70 385v130h120v-130h-120z" />
    <glyph glyph-name="less" unicode="&#x3c;" horiz-adv-x="600" 
d="M553 515v-88l-394 -174l394 -173v-88l-506 222v78z" />
    <glyph glyph-name="equal" unicode="=" horiz-adv-x="600" 
d="M47 314v88h506v-88h-506zM47 104v88h506v-88h-506z" />
    <glyph glyph-name="greater" unicode="&#x3e;" horiz-adv-x="600" 
d="M47 -8v88l394 173l-394 174v88l506 -223v-78z" />
    <glyph glyph-name="question" unicode="?" horiz-adv-x="463" 
d="M173 204v40q0 22 10 47.5t20 41t30 43.5q58 82 58 129q0 48 -29 74.5t-73 26.5q-63 0 -115 -34l-6 109q68 27 150 27q94 0 147.5 -46t53.5 -122q0 -30 -11.5 -63t-23.5 -54t-34 -54q-52 -77 -62 -110q-7 -21 -7 -41v-14h-108zM167 0v126h120v-126h-120z" />
    <glyph glyph-name="at" unicode="@" horiz-adv-x="800" 
d="M280 308q0 -39 22 -63.5t57 -24.5q56 0 94.5 51.5t38.5 108.5q0 37 -24 60t-66 23q-49 0 -85.5 -46.5t-36.5 -108.5zM646 148h74q-49 -74 -129 -116t-172 -42q-165 0 -271.5 96t-106.5 263q0 160 107.5 259.5t266.5 99.5q145 0 244.5 -82t99.5 -213q0 -67 -27 -122.5
t-66.5 -87.5t-80 -49.5t-71.5 -17.5q-25 0 -42 14.5t-18 41.5h-2q-56 -56 -128 -56q-59 0 -95.5 45t-36.5 114q0 109 65 180.5t152 71.5q80 0 117 -68l16 52h74l-67 -247q-10 -35 -10 -47q0 -25 26 -25q42 0 81 56.5t39 129.5q0 112 -77.5 176t-193.5 64q-127 0 -208 -83.5
t-81 -207.5q0 -137 82.5 -212t215.5 -75q68 0 127 23.5t96 64.5z" />
    <glyph glyph-name="A" unicode="A" horiz-adv-x="611" 
d="M211 266h186l-88 326h-2zM473 0l-49 168h-240l-50 -168h-128l234 698h140l225 -698h-132z" />
    <glyph glyph-name="B" unicode="B" horiz-adv-x="556" 
d="M198 604v-198h66q46 0 73 30t27 74t-28.5 69t-74.5 25h-63zM198 312v-214h71q51 0 79 29t28 78t-27 78t-84 29h-67zM74 0v698h204q108 0 159 -42t51 -130q0 -39 -11 -69t-30.5 -47.5t-36 -27t-38.5 -17.5v-2q53 -12 92.5 -50.5t39.5 -116.5q0 -93 -60.5 -144.5
t-156.5 -51.5h-213z" />
    <glyph glyph-name="C" unicode="C" horiz-adv-x="556" 
d="M511 132l7 -117q-46 -25 -151 -25q-154 0 -237.5 100t-83.5 259t83 259t234 100q80 0 155 -29l-7 -115q-1 1 -11.5 6l-15 7l-15.5 7t-19.5 7.5t-20 5.5t-24.5 4t-26 1q-86 0 -141.5 -62.5t-55.5 -190.5t55.5 -190.5t141.5 -62.5q82 0 132 36z" />
    <glyph glyph-name="D" unicode="D" horiz-adv-x="630" 
d="M68 0v698h182q164 0 249 -88t85 -261q0 -171 -91.5 -260t-242.5 -89h-182zM196 600v-502h43q105 0 157 66t52 185t-52 185t-157 66h-43z" />
    <glyph glyph-name="E" unicode="E" 
d="M74 0v698h367v-102h-239v-186h226v-102h-226v-206h249v-102h-377z" />
    <glyph glyph-name="F" unicode="F" horiz-adv-x="463" 
d="M74 0v698h353v-102h-225v-190h215v-102h-215v-304h-128z" />
    <glyph glyph-name="G" unicode="G" horiz-adv-x="648" 
d="M352 293v98h226v-365q-68 -36 -189 -36q-163 0 -253 99.5t-90 259.5t90 259.5t253 99.5q103 0 170 -30l-7 -115q-71 43 -161 43q-99 0 -154 -72t-55 -185q0 -120 52.5 -188.5t149.5 -68.5q42 0 74 13v188h-106z" />
    <glyph glyph-name="H" unicode="H" horiz-adv-x="611" 
d="M74 0v698h128v-284h207v284h128v-698h-128v308h-207v-308h-128z" />
    <glyph glyph-name="I" unicode="I" horiz-adv-x="278" 
d="M75 0v698h128v-698h-128z" />
    <glyph glyph-name="J" unicode="J" horiz-adv-x="352" 
d="M158 698h128v-494q0 -108 -49 -161t-125 -53q-53 0 -92 17v110q32 -13 59 -13q79 0 79 101v493z" />
    <glyph glyph-name="K" unicode="K" horiz-adv-x="574" 
d="M74 0v698h128v-296h3l199 296h147l-237 -329l256 -369h-155l-210 328h-3v-328h-128z" />
    <glyph glyph-name="L" unicode="L" horiz-adv-x="444" 
d="M68 0v698h128v-596h230v-102h-358z" />
    <glyph glyph-name="M" unicode="M" horiz-adv-x="815" 
d="M626 0v582h-2l-175 -582h-91l-167 582h-2v-582h-116v698h191l144 -521h2l147 521h185v-698h-116z" />
    <glyph glyph-name="N" unicode="N" horiz-adv-x="648" 
d="M73 0v698h152l232 -548h2v548h116v-698h-153l-231 544h-2v-544h-116z" />
    <glyph glyph-name="O" unicode="O" horiz-adv-x="648" 
d="M178 349q0 -136 40 -198.5t106 -62.5t106 62.5t40 198.5t-40 198.5t-106 62.5t-106 -62.5t-40 -198.5zM46 349q0 177 80 268t198 91t198 -91t80 -268t-80 -268t-198 -91t-198 91t-80 268z" />
    <glyph glyph-name="P" unicode="P" horiz-adv-x="519" 
d="M196 371h48q115 0 115 115q0 58 -28 86t-87 28h-48v-229zM68 0v698h200q107 0 163 -56t56 -156t-56.5 -156.5t-162.5 -56.5h-72v-273h-128z" />
    <glyph glyph-name="Q" unicode="Q" horiz-adv-x="648" 
d="M178 349q0 -136 40 -198.5t106 -62.5t106 62.5t40 198.5t-40 198.5t-106 62.5t-106 -62.5t-40 -198.5zM444 -133l-98 123h-22q-118 0 -198 91t-80 268t80 268t198 91t198 -91t80 -268q0 -124 -40.5 -206t-108.5 -120l138 -156h-147z" />
    <glyph glyph-name="R" unicode="R" horiz-adv-x="556" 
d="M68 0v698h218q97 0 152.5 -45.5t55.5 -138.5q0 -67 -37.5 -111t-97.5 -53v-3q24 -4 43 -20.5t34 -60.5l91 -266h-136l-69 227q-23 73 -97 73h-29v-300h-128zM196 394h52q53 0 83.5 27t30.5 79q0 57 -28 78.5t-86 21.5h-52v-206z" />
    <glyph glyph-name="S" unicode="S" 
d="M58 21l7 114q67 -43 148 -43q45 0 75.5 25.5t30.5 75.5q0 35 -20 56.5t-71 49.5l-65 36q-114 63 -114 183q0 90 63.5 140t156.5 50q63 0 146 -25l-6 -107q-78 30 -131 30q-47 0 -72 -22.5t-25 -59.5q0 -24 12 -43t24.5 -28t37.5 -23l75 -42q65 -36 93 -77t28 -111
q0 -103 -64.5 -156.5t-169.5 -53.5q-107 0 -159 31z" />
    <glyph glyph-name="T" unicode="T" horiz-adv-x="481" 
d="M177 0v596h-156v102h439v-102h-155v-596h-128z" />
    <glyph glyph-name="U" unicode="U" horiz-adv-x="611" 
d="M68 698h128v-452q0 -85 26 -119.5t84 -34.5q57 0 83 34.5t26 119.5v452h128v-452q0 -131 -65.5 -193.5t-171.5 -62.5q-107 0 -172.5 62.5t-65.5 193.5v452z" />
    <glyph glyph-name="V" unicode="V" horiz-adv-x="574" 
d="M218 0l-210 698h138l141 -538h2l145 538h132l-213 -698h-135z" />
    <glyph glyph-name="W" unicode="W" horiz-adv-x="833" 
d="M522 0l-104 572h-2l-110 -572h-151l-141 698h120l98 -538h2l105 538h156l104 -538h2l102 538h116l-144 -698h-153z" />
    <glyph glyph-name="X" unicode="X" horiz-adv-x="574" 
d="M422 0l-130 260l-145 -260h-141l208 370l-183 328h147l110 -225l129 225h137l-188 -328l202 -370h-146z" />
    <glyph glyph-name="Y" unicode="Y" horiz-adv-x="556" 
d="M214 0v280l-206 418h138l136 -279l128 279h138l-206 -421v-277h-128z" />
    <glyph glyph-name="Z" unicode="Z" 
d="M36 0v112l275 484h-267v102h416v-106l-278 -490h282v-102h-428z" />
    <glyph glyph-name="bracketleft" unicode="[" horiz-adv-x="296" 
d="M74 -168v896h182v-78h-86v-740h86v-78h-182z" />
    <glyph glyph-name="backslash" unicode="\" horiz-adv-x="278" 
d="M186 -10l-178 718h88l174 -718h-84z" />
    <glyph glyph-name="bracketright" unicode="]" horiz-adv-x="296" 
d="M40 -168v78h86v740h-86v78h182v-896h-182z" />
    <glyph glyph-name="asciicircum" unicode="^" horiz-adv-x="600" 
d="M60 294l198 404h84l198 -404h-88l-152 313l-152 -313h-88z" />
    <glyph glyph-name="underscore" unicode="_" 
d="M0 -125v50h500v-50h-500z" />
    <glyph glyph-name="grave" unicode="`" horiz-adv-x="222" 
d="M-10 716h116l64 -144h-78z" />
    <glyph glyph-name="a" unicode="a" 
d="M88 385l-7 100q83 38 163 38q113 0 155 -51t42 -156v-225q0 -44 7 -91h-112q-7 23 -7 70h-2q-27 -37 -60 -57.5t-84 -20.5q-63 0 -108.5 41t-45.5 110q0 98 70.5 136.5t200.5 38.5h25v19q0 43 -23 70.5t-73 27.5q-42 0 -80.5 -15.5t-60.5 -34.5zM325 223v29h-11
q-85 0 -127 -21.5t-42 -75.5q0 -35 21.5 -57t57.5 -22q101 0 101 147z" />
    <glyph glyph-name="b" unicode="b" horiz-adv-x="537" 
d="M58 750h124v-309h2q37 82 133 82q84 0 131 -70t47 -196q0 -116 -45 -190.5t-136 -74.5q-97 0 -137 88h-3q0 -50 -4 -80h-116q4 25 4 88v662zM182 259q0 -176 98 -176q52 0 71.5 42.5t19.5 136.5q0 170 -93 170q-49 0 -72.5 -47t-23.5 -126z" />
    <glyph glyph-name="c" unicode="c" horiz-adv-x="426" 
d="M399 111l7 -98q-55 -21 -122 -21q-121 0 -181.5 74t-60.5 191t62.5 191.5t186.5 74.5q54 0 108 -21l-7 -98q-50 25 -87 25q-135 0 -135 -173q0 -75 36 -122.5t105 -47.5q49 0 88 25z" />
    <glyph glyph-name="d" unicode="d" horiz-adv-x="537" 
d="M355 750h124v-662q0 -63 4 -88h-116q-4 30 -4 80h-3q-40 -88 -137 -88q-91 0 -136 74.5t-45 190.5q0 126 47 196t131 70q96 0 133 -82h2v309zM166 262q0 -94 19.5 -136.5t71.5 -42.5q98 0 98 176q0 79 -23.5 126t-72.5 47q-93 0 -93 -170z" />
    <glyph glyph-name="e" unicode="e" 
d="M428 123l6 -98q-78 -33 -154 -33q-118 0 -178 73t-60 185q0 118 58 195.5t154 77.5q93 0 149.5 -64t56.5 -211v-24h-298q0 -141 131 -141q81 0 135 40zM162 302h178q0 137 -86 137q-46 0 -69 -40t-23 -97z" />
    <glyph glyph-name="f" unicode="f" horiz-adv-x="333" 
d="M96 0v424h-86v91h86v105q0 62 34.5 102t113.5 40q31 0 89 -12l-5 -90q-30 8 -49 8q-27 0 -43 -17.5t-16 -46.5v-89h94v-91h-94v-424h-124z" />
    <glyph glyph-name="g" unicode="g" horiz-adv-x="537" 
d="M170 263q0 -85 23.5 -128.5t57.5 -43.5q58 0 83.5 42t25.5 131q0 79 -27.5 122.5t-72.5 42.5q-90 -1 -90 -166zM65 -190l7 110q80 -44 152 -44q42 0 70.5 13.5t42 38t18.5 50.5t5 60v49h-2q-44 -87 -136 -87q-30 0 -59 11.5t-57.5 38t-46 79.5t-17.5 127q0 117 45.5 192
t140.5 75q51 0 81.5 -23.5t54.5 -64.5h4q0 15 2 43t2 37h112q-4 -54 -4 -81v-380q0 -133 -52.5 -204.5t-185.5 -71.5q-90 0 -177 32z" />
    <glyph glyph-name="h" unicode="h" horiz-adv-x="519" 
d="M56 0v750h124v-301h3q15 22 26 34.5t38.5 26t63.5 13.5q152 0 152 -191v-332h-124v309q0 60 -16.5 86t-54.5 26q-46 0 -67 -33.5t-21 -87.5v-300h-124z" />
    <glyph glyph-name="i" unicode="i" horiz-adv-x="260" 
d="M68 0v515h124v-515h-124zM66 612v122h128v-122h-128z" />
    <glyph glyph-name="j" unicode="j" horiz-adv-x="260" 
d="M68 515h124v-536q0 -108 -28.5 -154.5t-105.5 -46.5q-16 0 -76 6l4 94q22 -6 37 -6q24 0 34.5 16t10.5 71v556zM66 612v122h128v-122h-128z" />
    <glyph glyph-name="k" unicode="k" 
d="M56 0v750h124v-441h3l151 206h132l-181 -233l198 -282h-144l-156 251h-3v-251h-124z" />
    <glyph glyph-name="l" unicode="l" horiz-adv-x="260" 
d="M68 0v750h124v-750h-124z" />
    <glyph glyph-name="m" unicode="m" horiz-adv-x="778" 
d="M53 0v431q0 46 -4 84h124q0 -9 2 -37.5t2 -43.5h2q42 89 130 89q40 0 69.5 -16.5t39 -30t21.5 -35.5q16 23 30.5 38t43.5 29.5t64 14.5q80 0 114 -52.5t34 -152.5v-318h-124v325q0 96 -66 96q-39 0 -61.5 -32t-22.5 -77v-312h-124v325q0 96 -66 96q-39 0 -61.5 -32
t-22.5 -77v-312h-124z" />
    <glyph glyph-name="n" unicode="n" horiz-adv-x="519" 
d="M56 0v430q0 54 -4 85h116q0 -8 2 -36t2 -43h2q13 22 25 37.5t42.5 32.5t69.5 17q152 0 152 -191v-332h-124v309q0 60 -16.5 86t-54.5 26q-46 0 -67 -33.5t-21 -87.5v-300h-124z" />
    <glyph glyph-name="o" unicode="o" horiz-adv-x="537" 
d="M170 258q0 -178 99 -178q98 0 98 178q0 177 -98 177q-99 0 -99 -177zM42 258q0 75 20 129.5t54.5 82.5t72 40.5t80.5 12.5t80.5 -12.5t71.5 -40.5t54 -82.5t20 -129.5q0 -77 -20 -132t-54.5 -82.5t-71.5 -39.5t-80 -12q-34 0 -64 6.5t-61 25t-52.5 47.5t-35.5 77t-14 110
z" />
    <glyph glyph-name="p" unicode="p" horiz-adv-x="537" 
d="M58 -216v643q0 63 -4 88h116q4 -30 4 -80h3q40 88 137 88q91 0 136 -74.5t45 -190.5q0 -126 -47 -196t-131 -70q-96 0 -133 82h-2v-290h-124zM182 256q0 -79 23.5 -126t72.5 -47q93 0 93 170q0 94 -19.5 136.5t-71.5 42.5q-98 0 -98 -176z" />
    <glyph glyph-name="q" unicode="q" horiz-adv-x="537" 
d="M355 -216v290h-2q-37 -82 -133 -82q-84 0 -131 70t-47 196q0 116 45 190.5t136 74.5q97 0 137 -88h3q0 50 4 80h116q-4 -25 -4 -88v-643h-124zM166 253q0 -170 93 -170q49 0 72.5 47t23.5 126q0 176 -98 176q-52 0 -71.5 -42.5t-19.5 -136.5z" />
    <glyph glyph-name="r" unicode="r" horiz-adv-x="352" 
d="M60 0v430q0 54 -4 85h112q0 -10 2 -43t2 -51h2q15 40 47.5 71t83.5 31q4 0 7.5 -0.5t7.5 -1.5t6 -1v-116q-18 5 -35 5q-44 0 -75.5 -30.5t-31.5 -96.5v-282h-124z" />
    <glyph glyph-name="s" unicode="s" horiz-adv-x="407" 
d="M36 17l6 103q1 0 14.5 -6t23.5 -9.5l25.5 -8.5t32.5 -7.5t33 -2.5q80 0 80 51q0 33 -55 65l-51 30q-27 16 -40 25.5t-32.5 27.5t-28 40.5t-8.5 51.5q0 57 50 101.5t128 44.5q66 0 129 -21l-7 -96q-59 23 -109 23q-71 0 -71 -50q0 -19 13 -32.5t45 -33.5l61 -39
q52 -34 74 -61t22 -69q0 -70 -53.5 -111t-138.5 -41q-78 0 -143 25z" />
    <glyph glyph-name="t" unicode="t" horiz-adv-x="352" 
d="M102 515v106l124 38v-144h103v-91h-103v-267q0 -40 13.5 -55.5t42.5 -15.5q27 0 47 11v-88q-36 -17 -83 -17q-71 0 -107.5 35.5t-36.5 114.5v282h-82v91h82z" />
    <glyph glyph-name="u" unicode="u" horiz-adv-x="519" 
d="M463 515v-430q0 -54 4 -85h-116q0 8 -2 36t-2 43l-3 1l1 -1q-16 -26 -28.5 -41t-42 -30.5t-66.5 -15.5q-152 0 -152 191v332h124v-309q0 -59 17.5 -85.5t56.5 -26.5q85 0 85 126v295h124z" />
    <glyph glyph-name="v" unicode="v" horiz-adv-x="481" 
d="M167 0l-157 515h128l105 -397h2l106 397h120l-158 -515h-146z" />
    <glyph glyph-name="w" unicode="w" horiz-adv-x="741" 
d="M464 0l-92 401h-2l-90 -401h-136l-139 515h128l83 -401h2l87 401h141l85 -401h2l83 401h120l-137 -515h-135z" />
    <glyph glyph-name="x" unicode="x" horiz-adv-x="463" 
d="M2 0l155 278l-142 237h140l81 -165l85 165h128l-143 -237l155 -278h-137l-95 191l-95 -191h-132z" />
    <glyph glyph-name="y" unicode="y" horiz-adv-x="463" 
d="M133 515l104 -389h2l99 389h120l-188 -613q-38 -124 -147 -124q-40 0 -79 13l7 95q28 -10 47 -10q27 -1 41.5 16.5t27.5 58.5l9 44l-171 520h128z" />
    <glyph glyph-name="z" unicode="z" horiz-adv-x="407" 
d="M28 0v107l220 314h-213v94h337v-106l-216 -315h223v-94h-351z" />
    <glyph glyph-name="braceleft" unicode="{" horiz-adv-x="333" 
d="M313 -168h-78q-45 0 -79 33.5t-34 92.5v182q0 48 -27 76.5t-61 28.5v70q34 0 61 27.5t27 72.5v187q0 59 34 92.5t79 33.5h78v-70h-45q-50 0 -50 -76v-181q0 -58 -29 -86t-59 -34v-2q12 -1 25 -7t28.5 -18.5t25 -38t9.5 -59.5v-178q0 -76 50 -76h45v-70z" />
    <glyph glyph-name="bar" unicode="|" horiz-adv-x="222" 
d="M67 -250v1000h88v-1000h-88z" />
    <glyph glyph-name="braceright" unicode="}" horiz-adv-x="333" 
d="M20 -168v70h45q50 0 50 76v181q0 58 29 86t59 34v2q-12 1 -25 7t-28.5 18.5t-25 38t-9.5 59.5v178q0 76 -50 76h-45v70h78q45 0 79 -33.5t34 -92.5v-182q0 -48 27 -76.5t61 -28.5v-70q-34 0 -61 -27.5t-27 -72.5v-187q0 -59 -34 -92.5t-79 -33.5h-78z" />
    <glyph glyph-name="asciitilde" unicode="~" horiz-adv-x="600" 
d="M495 333l36 -70q-17 -25 -28.5 -38.5t-38.5 -30t-58 -16.5q-35 0 -109 33q-70 33 -104 33q-19 0 -36 -11.5t-27 -24t-25 -35.5l-36 70q50 85 125 85q35 0 107 -33q76 -33 106 -33q19 0 36 11.5t27 24t25 35.5z" />
    <glyph glyph-name="uni00A0" unicode="&#xa0;" horiz-adv-x="260" 
 />
    <glyph glyph-name="exclamdown" unicode="&#xa1;" horiz-adv-x="370" 
d="M233 309l16 -492h-128l16 492h96zM245 515v-126h-120v126h120z" />
    <glyph glyph-name="cent" unicode="&#xa2;" horiz-adv-x="520" 
d="M267 110l48 319q-109 -16 -109 -173q0 -103 61 -146zM231 -128l19 128q-86 20 -129 89.5t-43 167.5q0 117 62.5 191.5t186.5 74.5h2l17 114h50l-18 -118q23 -4 57 -17l-7 -98q-41 19 -63 23l-51 -337q15 -4 33 -4q49 0 88 25l7 -98q-59 -21 -143 -21l-18 -120h-50z" />
    <glyph glyph-name="sterling" unicode="&#xa3;" horiz-adv-x="520" 
d="M54 0v98h71v234h-71v78h71v56q0 242 216 242q47 0 125 -18l-8 -99q-56 23 -109 23q-62 0 -85 -39t-23 -110v-55h155v-78h-155v-234h225v-98h-412z" />
    <glyph glyph-name="currency" unicode="&#xa4;" horiz-adv-x="520" 
d="M20 159l52 52q-46 62 -46 138q0 79 46 138l-52 52l50 50l52 -52q62 46 138 46q78 0 138 -46l52 52l50 -50l-52 -52q46 -60 46 -138t-46 -138l52 -52l-50 -50l-52 52q-60 -46 -138 -46q-76 0 -138 46l-52 -52zM260 189q66 0 111 47t45 113t-45 113t-111 47t-111 -47
t-45 -113t45 -113t111 -47z" />
    <glyph glyph-name="yen" unicode="&#xa5;" horiz-adv-x="520" 
d="M200 0v146h-152v74h152v76h-152v74h118l-157 328h128l123 -279l123 279h128l-155 -328h116v-74h-152v-76h152v-74h-152v-146h-120z" />
    <glyph glyph-name="brokenbar" unicode="&#xa6;" horiz-adv-x="222" 
d="M67 -175v350h88v-350h-88zM67 325v350h88v-350h-88z" />
    <glyph glyph-name="section" unicode="&#xa7;" horiz-adv-x="519" 
d="M418 679l-11 -96q-75 34 -127 34q-33 0 -53 -16.5t-20 -42.5q0 -41 74 -84l53 -31q28 -16 43.5 -26.5t35 -28.5t28.5 -40t9 -50q0 -73 -78 -147q63 -46 63 -117q0 -69 -51.5 -116t-150.5 -47q-82 0 -161 36l11 98l13.5 -6.5t17.5 -8l18.5 -7.5t22 -8t22 -6.5t25 -5
t24.5 -1.5q36 0 60.5 18t24.5 50q0 28 -17.5 47t-59.5 44l-67 41q-98 61 -98 143q0 42 28.5 77t60.5 53q-67 54 -67 131q0 60 47.5 101t129.5 41q86 0 150 -29zM264 374l-46 26q-13 -12 -20 -20t-14 -25t-7 -37q0 -53 75 -95l55 -30q13 16 18 23.5t11 23.5t6 34
q0 33 -17 53.5t-61 46.5z" />
    <glyph glyph-name="dieresis" unicode="&#xa8;" horiz-adv-x="222" 
d="M-21 603v110h96v-110h-96zM147 603v110h96v-110h-96z" />
    <glyph glyph-name="copyright" unicode="&#xa9;" horiz-adv-x="800" 
d="M508 285h74q-7 -73 -56.5 -114t-116.5 -41q-96 0 -150 61.5t-54 157.5t53.5 156.5t147.5 60.5q70 0 119.5 -38t56.5 -111h-74q-8 36 -35 57.5t-66 21.5q-59 0 -91.5 -40.5t-32.5 -104.5q0 -67 33.5 -109t92.5 -42q41 0 67.5 22.5t31.5 62.5zM41 349q0 149 105.5 254
t253.5 105t253.5 -105t105.5 -254t-105.5 -254t-253.5 -105t-253.5 105t-105.5 254zM125 349q0 -118 80 -201.5t195 -83.5t195 83.5t80 201.5t-80 201.5t-195 83.5t-195 -83.5t-80 -201.5z" />
    <glyph glyph-name="ordfeminine" unicode="&#xaa;" horiz-adv-x="352" 
d="M79 625l-5 60q53 23 112 23q72 0 100 -31t28 -93v-135q0 -30 5 -53h-78q-4 20 -4 40h-3q-35 -44 -94 -44q-45 0 -76 23.5t-31 64.5q0 108 183 108h14v11q0 51 -60 51t-91 -25zM230 528v14h-7q-44 0 -75 -13t-31 -40q0 -43 50 -43q63 0 63 82z" />
    <glyph glyph-name="guillemotleft" unicode="&#xab;" horiz-adv-x="519" 
d="M345 52l-106 207l106 207h100l-98 -207l98 -207h-100zM168 52l-106 207l106 207h100l-98 -207l98 -207h-100z" />
    <glyph glyph-name="logicalnot" unicode="&#xac;" horiz-adv-x="600" 
d="M465 104v210h-418v88h506v-298h-88z" />
    <glyph glyph-name="uni00AD" unicode="&#xad;" horiz-adv-x="315" 
d="M42 233v102h231v-102h-231z" />
    <glyph glyph-name="registered" unicode="&#xae;" horiz-adv-x="800" 
d="M482 147l-103 163h-42v-163h-78v409h144q90 0 126.5 -27.5t36.5 -94.5q0 -105 -105 -121l109 -166h-88zM337 490v-114h78q37 0 55 12.5t18 48.5q0 31 -18 42t-57 11h-76zM41 349q0 149 105.5 254t253.5 105t253.5 -105t105.5 -254t-105.5 -254t-253.5 -105t-253.5 105
t-105.5 254zM125 349q0 -118 80 -201.5t195 -83.5t195 83.5t80 201.5t-80 201.5t-195 83.5t-195 -83.5t-80 -201.5z" />
    <glyph glyph-name="macron" unicode="&#xaf;" horiz-adv-x="222" 
d="M-28 609v74h278v-74h-278z" />
    <glyph glyph-name="degree" unicode="&#xb0;" horiz-adv-x="400" 
d="M57 565q0 59 42 101t101 42t101 -42t42 -101t-42 -101t-101 -42t-101 42t-42 101zM127 565q0 -30 21.5 -51.5t51.5 -21.5t51.5 21.5t21.5 51.5t-21.5 51.5t-51.5 21.5t-51.5 -21.5t-21.5 -51.5z" />
    <glyph glyph-name="plusminus" unicode="&#xb1;" horiz-adv-x="600" 
d="M256 124v147h-209v88h209v147h88v-147h209v-88h-209v-147h-88zM47 0v88h506v-88h-506z" />
    <glyph glyph-name="twosuperior" unicode="&#xb2;" horiz-adv-x="338" 
d="M37 282v67l32 34q7 8 27.5 29.5t28.5 30.5l24 27.5t23.5 29t16.5 25.5t12.5 27t3.5 23q0 30 -16.5 46.5t-43.5 16.5q-13 0 -25 -1.5t-22 -6t-15 -6.5t-14.5 -8t-10.5 -6l-7 74q46 24 117 24q70 0 101.5 -31t31.5 -81q0 -94 -144 -232l-7 -8h149v-74h-262z" />
    <glyph glyph-name="threesuperior" unicode="&#xb3;" horiz-adv-x="338" 
d="M30 296l5 69q53 -21 94 -21q35 0 57 18t22 47q0 60 -82 60q-23 0 -35 -4v67q13 -5 35 -5q28 0 54.5 15t26.5 49q0 25 -19.5 38t-49.5 13q-39 0 -88 -21l-6 69q62 18 115 18q62 0 99 -27.5t37 -78.5q0 -49 -28 -71t-60 -26v-2q21 -5 34.5 -10t29.5 -15.5t24.5 -29.5
t8.5 -45q0 -60 -46 -92.5t-114 -32.5q-52 0 -114 18z" />
    <glyph glyph-name="acute" unicode="&#xb4;" horiz-adv-x="222" 
d="M52 572l64 144h116l-102 -144h-78z" />
    <glyph glyph-name="mu" unicode="&#xb5;" horiz-adv-x="519" 
d="M56 -216v731h124v-309q0 -59 17.5 -85.5t56.5 -26.5q85 0 85 126v295h124v-430q0 -54 4 -85h-116q0 8 -2 36t-2 43l-3 1l1 -1q-52 -87 -128 -87q-22 0 -37 12v-220h-124z" />
    <glyph glyph-name="paragraph" unicode="&#xb6;" horiz-adv-x="600" 
d="M416 -119v743h-106v-743h-96v452q-69 0 -120 46.5t-51 132.5q0 95 60 140.5t151 45.5h258v-817h-96z" />
    <glyph glyph-name="periodcentered" unicode="&#xb7;" horiz-adv-x="259" 
d="M53 284q0 32 22.5 54.5t54.5 22.5t54.5 -22.5t22.5 -54.5t-22.5 -54.5t-54.5 -22.5t-54.5 22.5t-22.5 54.5z" />
    <glyph glyph-name="cedilla" unicode="&#xb8;" horiz-adv-x="222" 
d="M6 -202l16 40q40 -14 70 -14q24 0 38 11.5t14 29.5q0 17 -12.5 27t-33.5 10q-23 0 -39 -7l-18 17l31 88h44l-20 -62q20 6 39 6q40 0 63.5 -20.5t23.5 -53.5q0 -44 -34.5 -68t-76.5 -24q-65 0 -105 20z" />
    <glyph glyph-name="onesuperior" unicode="&#xb9;" horiz-adv-x="338" 
d="M152 282v327l-60 -53l-44 56l112 89h80v-419h-88z" />
    <glyph glyph-name="ordmasculine" unicode="&#xba;" horiz-adv-x="352" 
d="M112 550q0 -100 64 -100t64 100t-64 100t-64 -100zM24 550q0 85 44.5 121.5t107.5 36.5t107.5 -36.5t44.5 -121.5t-44.5 -121.5t-107.5 -36.5t-107.5 36.5t-44.5 121.5z" />
    <glyph glyph-name="guillemotright" unicode="&#xbb;" horiz-adv-x="519" 
d="M351 466l106 -207l-106 -207h-100l98 207l-98 207h100zM174 466l106 -207l-106 -207h-100l98 207l-98 207h100z" />
    <glyph glyph-name="onequarter" unicode="&#xbc;" horiz-adv-x="778" 
d="M613 149v192h-2l-111 -192h113zM613 0v83h-179v74l155 262h108v-270h51v-66h-51v-83h-84zM176 -34l313 766h78l-313 -766h-78zM134 282v327l-60 -53l-44 56l112 89h80v-419h-88z" />
    <glyph glyph-name="onehalf" unicode="&#xbd;" horiz-adv-x="778" 
d="M171 -34l313 766h78l-313 -766h-78zM134 282v327l-60 -53l-44 56l112 89h80v-419h-88zM484 -1v67l32 34q7 8 27.5 29.5t28.5 30.5l24 27.5t23.5 29t16.5 25.5t12.5 27t3.5 23q0 30 -16.5 46.5t-43.5 16.5q-13 0 -25 -1.5t-22 -6t-15 -6.5t-14.5 -8t-10.5 -6l-7 74
q46 24 117 24q70 0 101.5 -31t31.5 -81q0 -94 -144 -232l-7 -8h149v-74h-262z" />
    <glyph glyph-name="threequarters" unicode="&#xbe;" horiz-adv-x="778" 
d="M613 149v192h-2l-111 -192h113zM613 0v83h-179v74l155 262h108v-270h51v-66h-51v-83h-84zM199 -34l313 766h78l-313 -766h-78zM30 296l5 69q53 -21 94 -21q35 0 57 18t22 47q0 60 -82 60q-23 0 -35 -4v67q13 -5 35 -5q28 0 54.5 15t26.5 49q0 25 -19.5 38t-49.5 13
q-39 0 -88 -21l-6 69q62 18 115 18q62 0 99 -27.5t37 -78.5q0 -49 -28 -71t-60 -26v-2q21 -5 34.5 -10t29.5 -15.5t24.5 -29.5t8.5 -45q0 -60 -46 -92.5t-114 -32.5q-52 0 -114 18z" />
    <glyph glyph-name="questiondown" unicode="&#xbf;" horiz-adv-x="463" 
d="M290 311v-40q0 -22 -10 -47.5t-20 -41t-30 -43.5q-58 -82 -58 -129q0 -48 29 -74.5t73 -26.5q63 0 115 34l6 -109q-67 -27 -150 -27q-94 0 -147.5 46t-53.5 122q0 30 11.5 63t23.5 54t34 54q52 77 62 110q7 21 7 41v14h108zM296 515v-126h-120v126h120z" />
    <glyph glyph-name="Agrave" unicode="&#xc0;" horiz-adv-x="611" 
d="M211 266h186l-88 326h-2zM473 0l-49 168h-240l-50 -168h-128l234 698h140l225 -698h-132zM185 875h116l64 -144h-78z" />
    <glyph glyph-name="Aacute" unicode="&#xc1;" horiz-adv-x="611" 
d="M211 266h186l-88 326h-2zM473 0l-49 168h-240l-50 -168h-128l234 698h140l225 -698h-132zM247 731l64 144h116l-102 -144h-78z" />
    <glyph glyph-name="Acircumflex" unicode="&#xc2;" horiz-adv-x="611" 
d="M211 266h186l-88 326h-2zM473 0l-49 168h-240l-50 -168h-128l234 698h140l225 -698h-132zM162 731l91 144h108l89 -144h-91l-54 87l-55 -87h-88z" />
    <glyph glyph-name="Atilde" unicode="&#xc3;" horiz-adv-x="611" 
d="M211 266h186l-88 326h-2zM473 0l-49 168h-240l-50 -168h-128l234 698h140l225 -698h-132zM214 742h-58q0 38 22.5 77t71.5 40q25 0 63.5 -17t51.5 -17q29 0 29 39h62q0 -19 -7 -43.5t-29.5 -49t-56.5 -24.5q-20 0 -57 17t-55 17t-27.5 -11t-9.5 -28z" />
    <glyph glyph-name="Adieresis" unicode="&#xc4;" horiz-adv-x="611" 
d="M211 266h186l-88 326h-2zM473 0l-49 168h-240l-50 -168h-128l234 698h140l225 -698h-132zM174 762v110h96v-110h-96zM342 762v110h96v-110h-96z" />
    <glyph glyph-name="Aring" unicode="&#xc5;" horiz-adv-x="611" 
d="M211 266h186l-88 326h-2zM473 0l-49 168h-240l-50 -168h-128l234 698h140l225 -698h-132zM207 833q0 44 31.5 75.5t75.5 31.5t75.5 -31.5t31.5 -75.5t-31.5 -75.5t-75.5 -31.5t-75.5 31.5t-31.5 75.5zM257 833q0 -23 17 -40t40 -17t40 17t17 40t-17 40t-40 17t-40 -17
t-17 -40z" />
    <glyph glyph-name="AE" unicode="&#xc6;" horiz-adv-x="833" 
d="M425 266v344h-3l-159 -344h162zM425 0v168h-204l-77 -168h-136l333 698h429v-102h-225v-186h212v-102h-212v-206h234v-102h-354z" />
    <glyph glyph-name="Ccedilla" unicode="&#xc7;" horiz-adv-x="556" 
d="M511 132l7 -117q-46 -25 -151 -25q-17 0 -25 1l-17 -53q20 6 39 6q40 0 63.5 -20.5t23.5 -53.5q0 -44 -34.5 -68t-76.5 -24q-65 0 -105 20l16 40q40 -14 70 -14q24 0 38 11.5t14 29.5q0 17 -12.5 27t-33.5 10q-23 0 -39 -7l-18 17l30 84q-122 21 -188 117t-66 236
q0 159 83 259t234 100q80 0 155 -29l-7 -115q-1 1 -11.5 6l-15 7l-15.5 7t-19.5 7.5t-20 5.5t-24.5 4t-26 1q-86 0 -141.5 -62.5t-55.5 -190.5t55.5 -190.5t141.5 -62.5q82 0 132 36z" />
    <glyph glyph-name="Egrave" unicode="&#xc8;" 
d="M74 0v698h367v-102h-239v-186h226v-102h-226v-206h249v-102h-377zM139 875h116l64 -144h-78z" />
    <glyph glyph-name="Eacute" unicode="&#xc9;" 
d="M74 0v698h367v-102h-239v-186h226v-102h-226v-206h249v-102h-377zM201 731l64 144h116l-102 -144h-78z" />
    <glyph glyph-name="Ecircumflex" unicode="&#xca;" 
d="M74 0v698h367v-102h-239v-186h226v-102h-226v-206h249v-102h-377zM116 731l91 144h108l89 -144h-91l-54 87l-55 -87h-88z" />
    <glyph glyph-name="Edieresis" unicode="&#xcb;" 
d="M74 0v698h367v-102h-239v-186h226v-102h-226v-206h249v-102h-377zM128 762v110h96v-110h-96zM296 762v110h96v-110h-96z" />
    <glyph glyph-name="Igrave" unicode="&#xcc;" horiz-adv-x="278" 
d="M75 0v698h128v-698h-128zM18 875h116l64 -144h-78z" />
    <glyph glyph-name="Iacute" unicode="&#xcd;" horiz-adv-x="278" 
d="M75 0v698h128v-698h-128zM80 731l64 144h116l-102 -144h-78z" />
    <glyph glyph-name="Icircumflex" unicode="&#xce;" horiz-adv-x="278" 
d="M75 0v698h128v-698h-128zM-5 731l91 144h108l89 -144h-91l-54 87l-55 -87h-88z" />
    <glyph glyph-name="Idieresis" unicode="&#xcf;" horiz-adv-x="278" 
d="M75 0v698h128v-698h-128zM7 762v110h96v-110h-96zM175 762v110h96v-110h-96z" />
    <glyph glyph-name="Eth" unicode="&#xd0;" horiz-adv-x="630" 
d="M68 0v318h-68v84h68v296h182q164 0 249 -88t85 -261q0 -171 -91.5 -260t-242.5 -89h-182zM196 600v-198h130v-84h-130v-220h43q105 0 157 66t52 185t-52 185t-157 66h-43z" />
    <glyph glyph-name="Ntilde" unicode="&#xd1;" horiz-adv-x="648" 
d="M73 0v698h152l232 -548h2v548h116v-698h-153l-231 544h-2v-544h-116zM232 742h-58q0 38 22.5 77t71.5 40q25 0 63.5 -17t51.5 -17q29 0 29 39h62q0 -19 -7 -43.5t-29.5 -49t-56.5 -24.5q-20 0 -57 17t-55 17t-27.5 -11t-9.5 -28z" />
    <glyph glyph-name="Ograve" unicode="&#xd2;" horiz-adv-x="648" 
d="M178 349q0 -136 40 -198.5t106 -62.5t106 62.5t40 198.5t-40 198.5t-106 62.5t-106 -62.5t-40 -198.5zM46 349q0 177 80 268t198 91t198 -91t80 -268t-80 -268t-198 -91t-198 91t-80 268zM203 875h116l64 -144h-78z" />
    <glyph glyph-name="Oacute" unicode="&#xd3;" horiz-adv-x="648" 
d="M178 349q0 -136 40 -198.5t106 -62.5t106 62.5t40 198.5t-40 198.5t-106 62.5t-106 -62.5t-40 -198.5zM46 349q0 177 80 268t198 91t198 -91t80 -268t-80 -268t-198 -91t-198 91t-80 268zM265 731l64 144h116l-102 -144h-78z" />
    <glyph glyph-name="Ocircumflex" unicode="&#xd4;" horiz-adv-x="648" 
d="M178 349q0 -136 40 -198.5t106 -62.5t106 62.5t40 198.5t-40 198.5t-106 62.5t-106 -62.5t-40 -198.5zM46 349q0 177 80 268t198 91t198 -91t80 -268t-80 -268t-198 -91t-198 91t-80 268zM180 731l91 144h108l89 -144h-91l-54 87l-55 -87h-88z" />
    <glyph glyph-name="Otilde" unicode="&#xd5;" horiz-adv-x="648" 
d="M178 349q0 -136 40 -198.5t106 -62.5t106 62.5t40 198.5t-40 198.5t-106 62.5t-106 -62.5t-40 -198.5zM46 349q0 177 80 268t198 91t198 -91t80 -268t-80 -268t-198 -91t-198 91t-80 268zM232 742h-58q0 38 22.5 77t71.5 40q25 0 63.5 -17t51.5 -17q29 0 29 39h62
q0 -19 -7 -43.5t-29.5 -49t-56.5 -24.5q-20 0 -57 17t-55 17t-27.5 -11t-9.5 -28z" />
    <glyph glyph-name="Odieresis" unicode="&#xd6;" horiz-adv-x="648" 
d="M178 349q0 -136 40 -198.5t106 -62.5t106 62.5t40 198.5t-40 198.5t-106 62.5t-106 -62.5t-40 -198.5zM46 349q0 177 80 268t198 91t198 -91t80 -268t-80 -268t-198 -91t-198 91t-80 268zM192 762v110h96v-110h-96zM360 762v110h96v-110h-96z" />
    <glyph glyph-name="multiply" unicode="&#xd7;" horiz-adv-x="600" 
d="M238 253l-170 170l62 62l170 -170l170 170l62 -62l-170 -170l170 -170l-62 -62l-170 171l-170 -171l-62 62z" />
    <glyph glyph-name="Oslash" unicode="&#xd8;" horiz-adv-x="648" 
d="M191 222l246 311q-36 77 -113 77q-66 0 -106 -62.5t-40 -198.5q0 -73 13 -127zM25 13l79 99q-58 92 -58 237q0 177 80 268t198 91q116 0 188 -81l71 89l40 -31l-79 -99q58 -93 58 -237q0 -177 -80 -268t-198 -91q-114 0 -188 81l-71 -89zM457 476l-246 -310
q36 -78 113 -78q66 0 106 62.5t40 198.5q0 76 -13 127z" />
    <glyph glyph-name="Ugrave" unicode="&#xd9;" horiz-adv-x="611" 
d="M68 698h128v-452q0 -85 26 -119.5t84 -34.5q57 0 83 34.5t26 119.5v452h128v-452q0 -131 -65.5 -193.5t-171.5 -62.5q-107 0 -172.5 62.5t-65.5 193.5v452zM185 875h116l64 -144h-78z" />
    <glyph glyph-name="Uacute" unicode="&#xda;" horiz-adv-x="611" 
d="M68 698h128v-452q0 -85 26 -119.5t84 -34.5q57 0 83 34.5t26 119.5v452h128v-452q0 -131 -65.5 -193.5t-171.5 -62.5q-107 0 -172.5 62.5t-65.5 193.5v452zM247 731l64 144h116l-102 -144h-78z" />
    <glyph glyph-name="Ucircumflex" unicode="&#xdb;" horiz-adv-x="611" 
d="M68 698h128v-452q0 -85 26 -119.5t84 -34.5q57 0 83 34.5t26 119.5v452h128v-452q0 -131 -65.5 -193.5t-171.5 -62.5q-107 0 -172.5 62.5t-65.5 193.5v452zM162 731l91 144h108l89 -144h-91l-54 87l-55 -87h-88z" />
    <glyph glyph-name="Udieresis" unicode="&#xdc;" horiz-adv-x="611" 
d="M68 698h128v-452q0 -85 26 -119.5t84 -34.5q57 0 83 34.5t26 119.5v452h128v-452q0 -131 -65.5 -193.5t-171.5 -62.5q-107 0 -172.5 62.5t-65.5 193.5v452zM174 762v110h96v-110h-96zM342 762v110h96v-110h-96z" />
    <glyph glyph-name="Yacute" unicode="&#xdd;" horiz-adv-x="556" 
d="M214 0v280l-206 418h138l136 -279l128 279h138l-206 -421v-277h-128zM219 731l64 144h116l-102 -144h-78z" />
    <glyph glyph-name="Thorn" unicode="&#xde;" horiz-adv-x="519" 
d="M196 489v-229h48q115 0 115 115q0 58 -28 86t-87 28h-48zM68 0v698h128v-111h72q107 0 163 -56t56 -156q0 -101 -56.5 -157t-162.5 -56h-72v-162h-128z" />
    <glyph glyph-name="germandbls" unicode="&#xdf;" horiz-adv-x="537" 
d="M56 0v540q0 111 55.5 166.5t154.5 55.5q96 0 147 -52.5t51 -137.5q0 -37 -8.5 -66t-19 -45.5t-29 -30t-30 -18.5t-29.5 -12v-2q63 -6 103 -58t40 -125q0 -104 -51 -163.5t-152 -59.5q-44 0 -60 11l6 91q14 -8 35 -8q94 0 94 123q0 45 -12.5 75t-34 42t-38.5 16t-38 4v94
q104 0 104 124q0 49 -21.5 78t-62.5 29q-84 0 -84 -110v-561h-120z" />
    <glyph glyph-name="agrave" unicode="&#xe0;" 
d="M88 385l-7 100q83 38 163 38q113 0 155 -51t42 -156v-225q0 -44 7 -91h-112q-7 23 -7 70h-2q-27 -37 -60 -57.5t-84 -20.5q-63 0 -108.5 41t-45.5 110q0 98 70.5 136.5t200.5 38.5h25v19q0 43 -23 70.5t-73 27.5q-42 0 -80.5 -15.5t-60.5 -34.5zM325 223v29h-11
q-85 0 -127 -21.5t-42 -75.5q0 -35 21.5 -57t57.5 -22q101 0 101 147zM129 716h116l64 -144h-78z" />
    <glyph glyph-name="aacute" unicode="&#xe1;" 
d="M88 385l-7 100q83 38 163 38q113 0 155 -51t42 -156v-225q0 -44 7 -91h-112q-7 23 -7 70h-2q-27 -37 -60 -57.5t-84 -20.5q-63 0 -108.5 41t-45.5 110q0 98 70.5 136.5t200.5 38.5h25v19q0 43 -23 70.5t-73 27.5q-42 0 -80.5 -15.5t-60.5 -34.5zM325 223v29h-11
q-85 0 -127 -21.5t-42 -75.5q0 -35 21.5 -57t57.5 -22q101 0 101 147zM191 572l64 144h116l-102 -144h-78z" />
    <glyph glyph-name="acircumflex" unicode="&#xe2;" 
d="M88 385l-7 100q83 38 163 38q113 0 155 -51t42 -156v-225q0 -44 7 -91h-112q-7 23 -7 70h-2q-27 -37 -60 -57.5t-84 -20.5q-63 0 -108.5 41t-45.5 110q0 98 70.5 136.5t200.5 38.5h25v19q0 43 -23 70.5t-73 27.5q-42 0 -80.5 -15.5t-60.5 -34.5zM325 223v29h-11
q-85 0 -127 -21.5t-42 -75.5q0 -35 21.5 -57t57.5 -22q101 0 101 147zM106 572l91 144h108l89 -144h-91l-54 87l-55 -87h-88z" />
    <glyph glyph-name="atilde" unicode="&#xe3;" 
d="M88 385l-7 100q83 38 163 38q113 0 155 -51t42 -156v-225q0 -44 7 -91h-112q-7 23 -7 70h-2q-27 -37 -60 -57.5t-84 -20.5q-63 0 -108.5 41t-45.5 110q0 98 70.5 136.5t200.5 38.5h25v19q0 43 -23 70.5t-73 27.5q-42 0 -80.5 -15.5t-60.5 -34.5zM325 223v29h-11
q-85 0 -127 -21.5t-42 -75.5q0 -35 21.5 -57t57.5 -22q101 0 101 147zM158 583h-58q0 38 22.5 77t71.5 40q25 0 63.5 -17t51.5 -17q29 0 29 39h62q0 -19 -7 -43.5t-29.5 -49t-56.5 -24.5q-20 0 -57 17t-55 17t-27.5 -11t-9.5 -28z" />
    <glyph glyph-name="adieresis" unicode="&#xe4;" 
d="M88 385l-7 100q83 38 163 38q113 0 155 -51t42 -156v-225q0 -44 7 -91h-112q-7 23 -7 70h-2q-27 -37 -60 -57.5t-84 -20.5q-63 0 -108.5 41t-45.5 110q0 98 70.5 136.5t200.5 38.5h25v19q0 43 -23 70.5t-73 27.5q-42 0 -80.5 -15.5t-60.5 -34.5zM325 223v29h-11
q-85 0 -127 -21.5t-42 -75.5q0 -35 21.5 -57t57.5 -22q101 0 101 147zM118 603v110h96v-110h-96zM286 603v110h96v-110h-96z" />
    <glyph glyph-name="aring" unicode="&#xe5;" 
d="M88 385l-7 100q83 38 163 38q113 0 155 -51t42 -156v-225q0 -44 7 -91h-112q-7 23 -7 70h-2q-27 -37 -60 -57.5t-84 -20.5q-63 0 -108.5 41t-45.5 110q0 98 70.5 136.5t200.5 38.5h25v19q0 43 -23 70.5t-73 27.5q-42 0 -80.5 -15.5t-60.5 -34.5zM325 223v29h-11
q-85 0 -127 -21.5t-42 -75.5q0 -35 21.5 -57t57.5 -22q101 0 101 147zM163 664q0 44 31.5 75.5t75.5 31.5t75.5 -31.5t31.5 -75.5t-31.5 -75.5t-75.5 -31.5t-75.5 31.5t-31.5 75.5zM213 664q0 -23 17 -40t40 -17t40 17t17 40t-17 40t-40 17t-40 -17t-17 -40z" />
    <glyph glyph-name="ae" unicode="&#xe6;" horiz-adv-x="776" 
d="M440 302h177q0 137 -86 137q-45 0 -68 -40t-23 -97zM99 385l-7 100q83 38 163 38q101 0 139 -70q46 70 137 70q93 0 149.5 -64t56.5 -211v-24h-297q2 -141 128 -141q81 0 135 40l6 -98q-78 -33 -154 -33q-147 0 -185 100h-2q-33 -51 -72.5 -75.5t-102.5 -24.5t-108.5 41
t-45.5 110q0 51 19.5 86t56.5 54t82 27t104 8h23v22q0 40 -21.5 67.5t-64.5 27.5q-41 0 -79 -15.5t-60 -34.5zM324 223v29h-18q-151 0 -151 -97q0 -35 21.5 -57t56.5 -22q91 0 91 147z" />
    <glyph glyph-name="ccedilla" unicode="&#xe7;" horiz-adv-x="426" 
d="M399 111l7 -98q-55 -21 -122 -21h-6l-18 -54q20 6 39 6q40 0 63.5 -20.5t23.5 -53.5q0 -44 -34.5 -68t-76.5 -24q-65 0 -105 20l16 40q40 -14 70 -14q24 0 38 11.5t14 29.5q0 17 -12.5 27t-33.5 10q-23 0 -39 -7l-18 17l30 84q-97 16 -145 86.5t-48 174.5
q0 117 62.5 191.5t186.5 74.5q54 0 108 -21l-7 -98q-50 25 -87 25q-135 0 -135 -173q0 -75 36 -122.5t105 -47.5q49 0 88 25z" />
    <glyph glyph-name="egrave" unicode="&#xe8;" 
d="M428 123l6 -98q-78 -33 -154 -33q-118 0 -178 73t-60 185q0 118 58 195.5t154 77.5q93 0 149.5 -64t56.5 -211v-24h-298q0 -141 131 -141q81 0 135 40zM162 302h178q0 137 -86 137q-46 0 -69 -40t-23 -97zM129 716h116l64 -144h-78z" />
    <glyph glyph-name="eacute" unicode="&#xe9;" 
d="M428 123l6 -98q-78 -33 -154 -33q-118 0 -178 73t-60 185q0 118 58 195.5t154 77.5q93 0 149.5 -64t56.5 -211v-24h-298q0 -141 131 -141q81 0 135 40zM162 302h178q0 137 -86 137q-46 0 -69 -40t-23 -97zM191 572l64 144h116l-102 -144h-78z" />
    <glyph glyph-name="ecircumflex" unicode="&#xea;" 
d="M428 123l6 -98q-78 -33 -154 -33q-118 0 -178 73t-60 185q0 118 58 195.5t154 77.5q93 0 149.5 -64t56.5 -211v-24h-298q0 -141 131 -141q81 0 135 40zM162 302h178q0 137 -86 137q-46 0 -69 -40t-23 -97zM106 572l91 144h108l89 -144h-91l-54 87l-55 -87h-88z" />
    <glyph glyph-name="edieresis" unicode="&#xeb;" 
d="M428 123l6 -98q-78 -33 -154 -33q-118 0 -178 73t-60 185q0 118 58 195.5t154 77.5q93 0 149.5 -64t56.5 -211v-24h-298q0 -141 131 -141q81 0 135 40zM162 302h178q0 137 -86 137q-46 0 -69 -40t-23 -97zM118 603v110h96v-110h-96zM286 603v110h96v-110h-96z" />
    <glyph glyph-name="igrave" unicode="&#xec;" horiz-adv-x="260" 
d="M68 0v515h124v-515h-124zM9 716h116l64 -144h-78z" />
    <glyph glyph-name="iacute" unicode="&#xed;" horiz-adv-x="260" 
d="M68 0v515h124v-515h-124zM71 572l64 144h116l-102 -144h-78z" />
    <glyph glyph-name="icircumflex" unicode="&#xee;" horiz-adv-x="260" 
d="M68 0v515h124v-515h-124zM-14 572l91 144h108l89 -144h-91l-54 87l-55 -87h-88z" />
    <glyph glyph-name="idieresis" unicode="&#xef;" horiz-adv-x="260" 
d="M68 0v515h124v-515h-124zM-2 603v110h96v-110h-96zM166 603v110h96v-110h-96z" />
    <glyph glyph-name="eth" unicode="&#xf0;" horiz-adv-x="537" 
d="M170 258q0 -178 99 -178q98 0 98 178q0 177 -98 177q-99 0 -99 -177zM143 634l77 40q-33 24 -77 39l79 49q41 -12 85 -43l84 43l33 -38l-74 -38q145 -131 145 -404q0 -290 -226 -290q-34 0 -64 6.5t-61 25t-52.5 47.5t-35.5 77t-14 110q0 75 20 129.5t53.5 82.5t69 40.5
t74.5 12.5q61 0 95 -47l2 2q-10 42 -40 92.5t-54 69.5l-86 -44z" />
    <glyph glyph-name="ntilde" unicode="&#xf1;" horiz-adv-x="519" 
d="M56 0v430q0 54 -4 85h116q0 -8 2 -36t2 -43h2q13 22 25 37.5t42.5 32.5t69.5 17q152 0 152 -191v-332h-124v309q0 60 -16.5 86t-54.5 26q-46 0 -67 -33.5t-21 -87.5v-300h-124zM168 583h-58q0 38 22.5 77t71.5 40q25 0 63.5 -17t51.5 -17q29 0 29 39h62q0 -19 -7 -43.5
t-29.5 -49t-56.5 -24.5q-20 0 -57 17t-55 17t-27.5 -11t-9.5 -28z" />
    <glyph glyph-name="ograve" unicode="&#xf2;" horiz-adv-x="537" 
d="M170 258q0 -178 99 -178q98 0 98 178q0 177 -98 177q-99 0 -99 -177zM42 258q0 75 20 129.5t54.5 82.5t72 40.5t80.5 12.5t80.5 -12.5t71.5 -40.5t54 -82.5t20 -129.5q0 -77 -20 -132t-54.5 -82.5t-71.5 -39.5t-80 -12q-34 0 -64 6.5t-61 25t-52.5 47.5t-35.5 77t-14 110
zM148 716h116l64 -144h-78z" />
    <glyph glyph-name="oacute" unicode="&#xf3;" horiz-adv-x="537" 
d="M170 258q0 -178 99 -178q98 0 98 178q0 177 -98 177q-99 0 -99 -177zM42 258q0 75 20 129.5t54.5 82.5t72 40.5t80.5 12.5t80.5 -12.5t71.5 -40.5t54 -82.5t20 -129.5q0 -77 -20 -132t-54.5 -82.5t-71.5 -39.5t-80 -12q-34 0 -64 6.5t-61 25t-52.5 47.5t-35.5 77t-14 110
zM210 572l64 144h116l-102 -144h-78z" />
    <glyph glyph-name="ocircumflex" unicode="&#xf4;" horiz-adv-x="537" 
d="M170 258q0 -178 99 -178q98 0 98 178q0 177 -98 177q-99 0 -99 -177zM42 258q0 75 20 129.5t54.5 82.5t72 40.5t80.5 12.5t80.5 -12.5t71.5 -40.5t54 -82.5t20 -129.5q0 -77 -20 -132t-54.5 -82.5t-71.5 -39.5t-80 -12q-34 0 -64 6.5t-61 25t-52.5 47.5t-35.5 77t-14 110
zM125 572l91 144h108l89 -144h-91l-54 87l-55 -87h-88z" />
    <glyph glyph-name="otilde" unicode="&#xf5;" horiz-adv-x="537" 
d="M170 258q0 -178 99 -178q98 0 98 178q0 177 -98 177q-99 0 -99 -177zM42 258q0 75 20 129.5t54.5 82.5t72 40.5t80.5 12.5t80.5 -12.5t71.5 -40.5t54 -82.5t20 -129.5q0 -77 -20 -132t-54.5 -82.5t-71.5 -39.5t-80 -12q-34 0 -64 6.5t-61 25t-52.5 47.5t-35.5 77t-14 110
zM177 583h-58q0 38 22.5 77t71.5 40q25 0 63.5 -17t51.5 -17q29 0 29 39h62q0 -19 -7 -43.5t-29.5 -49t-56.5 -24.5q-20 0 -57 17t-55 17t-27.5 -11t-9.5 -28z" />
    <glyph glyph-name="odieresis" unicode="&#xf6;" horiz-adv-x="537" 
d="M170 258q0 -178 99 -178q98 0 98 178q0 177 -98 177q-99 0 -99 -177zM42 258q0 75 20 129.5t54.5 82.5t72 40.5t80.5 12.5t80.5 -12.5t71.5 -40.5t54 -82.5t20 -129.5q0 -77 -20 -132t-54.5 -82.5t-71.5 -39.5t-80 -12q-34 0 -64 6.5t-61 25t-52.5 47.5t-35.5 77t-14 110
zM137 603v110h96v-110h-96zM305 603v110h96v-110h-96z" />
    <glyph glyph-name="divide" unicode="&#xf7;" horiz-adv-x="600" 
d="M47 209v88h506v-88h-506zM223 460q0 32 22.5 54.5t54.5 22.5t54.5 -22.5t22.5 -54.5t-22.5 -54.5t-54.5 -22.5t-54.5 22.5t-22.5 54.5zM223 46q0 32 22.5 54.5t54.5 22.5t54.5 -22.5t22.5 -54.5t-22.5 -54.5t-54.5 -22.5t-54.5 22.5t-22.5 54.5z" />
    <glyph glyph-name="oslash" unicode="&#xf8;" horiz-adv-x="537" 
d="M177 179l166 209q-23 47 -74 47q-99 0 -99 -177q0 -44 7 -79zM42 8l50 63q-50 68 -50 187q0 75 20 129.5t54.5 82.5t72 40.5t80.5 12.5q87 0 143 -47l47 59l36 -28l-51 -64q51 -66 51 -185q0 -77 -20 -132t-54.5 -82.5t-71.5 -39.5t-80 -12q-91 0 -145 46l-46 -58z
M360 336l-165 -209q23 -47 74 -47q98 0 98 178q0 44 -7 78z" />
    <glyph glyph-name="ugrave" unicode="&#xf9;" horiz-adv-x="519" 
d="M463 515v-430q0 -54 4 -85h-116q0 8 -2 36t-2 43l-3 1l1 -1q-16 -26 -28.5 -41t-42 -30.5t-66.5 -15.5q-152 0 -152 191v332h124v-309q0 -59 17.5 -85.5t56.5 -26.5q85 0 85 126v295h124zM139 716h116l64 -144h-78z" />
    <glyph glyph-name="uacute" unicode="&#xfa;" horiz-adv-x="519" 
d="M463 515v-430q0 -54 4 -85h-116q0 8 -2 36t-2 43l-3 1l1 -1q-16 -26 -28.5 -41t-42 -30.5t-66.5 -15.5q-152 0 -152 191v332h124v-309q0 -59 17.5 -85.5t56.5 -26.5q85 0 85 126v295h124zM201 572l64 144h116l-102 -144h-78z" />
    <glyph glyph-name="ucircumflex" unicode="&#xfb;" horiz-adv-x="519" 
d="M463 515v-430q0 -54 4 -85h-116q0 8 -2 36t-2 43l-3 1l1 -1q-16 -26 -28.5 -41t-42 -30.5t-66.5 -15.5q-152 0 -152 191v332h124v-309q0 -59 17.5 -85.5t56.5 -26.5q85 0 85 126v295h124zM116 572l91 144h108l89 -144h-91l-54 87l-55 -87h-88z" />
    <glyph glyph-name="udieresis" unicode="&#xfc;" horiz-adv-x="519" 
d="M463 515v-430q0 -54 4 -85h-116q0 8 -2 36t-2 43l-3 1l1 -1q-16 -26 -28.5 -41t-42 -30.5t-66.5 -15.5q-152 0 -152 191v332h124v-309q0 -59 17.5 -85.5t56.5 -26.5q85 0 85 126v295h124zM128 603v110h96v-110h-96zM296 603v110h96v-110h-96z" />
    <glyph glyph-name="yacute" unicode="&#xfd;" horiz-adv-x="463" 
d="M133 515l104 -389h2l99 389h120l-188 -613q-38 -124 -147 -124q-40 0 -79 13l7 95q28 -10 47 -10q27 -1 41.5 16.5t27.5 58.5l9 44l-171 520h128zM173 572l64 144h116l-102 -144h-78z" />
    <glyph glyph-name="thorn" unicode="&#xfe;" horiz-adv-x="537" 
d="M58 -216v966h124v-315h2q40 88 130 88q91 0 136 -74.5t45 -190.5q0 -126 -47 -196t-131 -70q-96 0 -133 82h-2v-290h-124zM182 256q0 -79 23.5 -126t72.5 -47q93 0 93 170q0 94 -19.5 136.5t-71.5 42.5q-98 0 -98 -176z" />
    <glyph glyph-name="ydieresis" unicode="&#xff;" horiz-adv-x="463" 
d="M133 515l104 -389h2l99 389h120l-188 -613q-38 -124 -147 -124q-40 0 -79 13l7 95q28 -10 47 -10q27 -1 41.5 16.5t27.5 58.5l9 44l-171 520h128zM100 603v110h96v-110h-96zM268 603v110h96v-110h-96z" />
    <glyph glyph-name="dotlessi" unicode="&#x131;" horiz-adv-x="260" 
d="M68 0v515h124v-515h-124z" />
    <glyph glyph-name="Lslash" unicode="&#x141;" horiz-adv-x="444" 
d="M68 0v242l-68 -62v94l68 62v362h128v-245l126 115v-94l-126 -115v-257h230v-102h-358z" />
    <glyph glyph-name="lslash" unicode="&#x142;" horiz-adv-x="278" 
d="M77 0v258l-77 -84v98l77 84v394h124v-258l77 84v-98l-77 -84v-394h-124z" />
    <glyph glyph-name="OE" unicode="&#x152;" horiz-adv-x="833" 
d="M551 102h238v-102h-330q-30 0 -63 -3q-63 -3 -64 -3q-79 0 -137 29.5t-89 81t-45.5 111.5t-14.5 132q0 161 78 258.5t227 97.5q35 0 71 -3q69 -3 70 -3h287v-102h-228v-186h214v-102h-214v-206zM423 102v494q-42 10 -78 10q-39 0 -68 -14t-47 -37t-29 -57t-15 -69.5
t-4 -79.5t4.5 -79.5t16 -69.5t30.5 -57t49.5 -37t71.5 -14q40 0 69 10z" />
    <glyph glyph-name="oe" unicode="&#x153;" horiz-adv-x="815" 
d="M749 123l6 -98q-78 -33 -154 -33q-121 0 -172 91q-17 -41 -62.5 -66t-97.5 -25q-34 0 -64 6.5t-61 25t-52.5 47.5t-35.5 77t-14 110q0 75 20 129.5t54.5 82.5t72 40.5t80.5 12.5q49 0 91.5 -21.5t64.5 -71.5q47 93 150 93q93 0 149.5 -64t56.5 -211v-24h-298
q0 -141 131 -141q81 0 135 40zM483 302h178q0 137 -86 137q-46 0 -69 -40t-23 -97zM170 258q0 -178 99 -178q98 0 98 178q0 177 -98 177q-99 0 -99 -177z" />
    <glyph glyph-name="Scaron" unicode="&#x160;" 
d="M58 21l7 114q67 -43 148 -43q45 0 75.5 25.5t30.5 75.5q0 35 -20 56.5t-71 49.5l-65 36q-114 63 -114 183q0 90 63.5 140t156.5 50q63 0 146 -25l-6 -107q-78 30 -131 30q-47 0 -72 -22.5t-25 -59.5q0 -24 12 -43t24.5 -28t37.5 -23l75 -42q65 -36 93 -77t28 -111
q0 -103 -64.5 -156.5t-169.5 -53.5q-107 0 -159 31zM195 731l-89 144h91l54 -87l55 87h88l-91 -144h-108z" />
    <glyph glyph-name="scaron" unicode="&#x161;" horiz-adv-x="407" 
d="M36 17l6 103q1 0 14.5 -6t23.5 -9.5l25.5 -8.5t32.5 -7.5t33 -2.5q80 0 80 51q0 33 -55 65l-51 30q-27 16 -40 25.5t-32.5 27.5t-28 40.5t-8.5 51.5q0 57 50 101.5t128 44.5q66 0 129 -21l-7 -96q-59 23 -109 23q-71 0 -71 -50q0 -19 13 -32.5t45 -33.5l61 -39
q52 -34 74 -61t22 -69q0 -70 -53.5 -111t-138.5 -41q-78 0 -143 25zM149 572l-89 144h91l54 -87l55 87h88l-91 -144h-108z" />
    <glyph glyph-name="Ydieresis" unicode="&#x178;" horiz-adv-x="556" 
d="M214 0v280l-206 418h138l136 -279l128 279h138l-206 -421v-277h-128zM146 762v110h96v-110h-96zM314 762v110h96v-110h-96z" />
    <glyph glyph-name="Zcaron" unicode="&#x17d;" 
d="M36 0v112l275 484h-267v102h416v-106l-278 -490h282v-102h-428zM195 731l-89 144h91l54 -87l55 87h88l-91 -144h-108z" />
    <glyph glyph-name="zcaron" unicode="&#x17e;" horiz-adv-x="407" 
d="M28 0v107l220 314h-213v94h337v-106l-216 -315h223v-94h-351zM149 572l-89 144h91l54 -87l55 87h88l-91 -144h-108z" />
    <glyph glyph-name="florin" unicode="&#x192;" horiz-adv-x="520" 
d="M112 331l11 78h92l21 118q15 84 49 132.5t104 48.5q49 0 91 -18l-12 -87q-24 17 -47 17q-28 0 -42.5 -23t-24.5 -75l-19 -113h90l-11 -78h-91l-55 -342q-17 -105 -57 -158t-111 -53q-42 0 -82 18l11 90q30 -14 47 -14q14 0 25 6t17 13.5t11 23.5t7 26l6 31l61 359h-91z
" />
    <glyph glyph-name="circumflex" unicode="&#x2c6;" horiz-adv-x="222" 
d="M-33 572l91 144h108l89 -144h-91l-54 87l-55 -87h-88z" />
    <glyph glyph-name="caron" unicode="&#x2c7;" horiz-adv-x="222" 
d="M56 572l-89 144h91l54 -87l55 87h88l-91 -144h-108z" />
    <glyph glyph-name="uni02C9" unicode="&#x2c9;" horiz-adv-x="222" 
d="M-28 609v74h278v-74h-278z" />
    <glyph glyph-name="breve" unicode="&#x2d8;" horiz-adv-x="222" 
d="M-20 708h58q0 -22 18 -43q21 -25 55 -25q33 0 53 23t20 45h58q0 -18 -4 -36t-15.5 -42.5t-40.5 -40t-71 -15.5t-71 15.5t-40.5 40t-15.5 42.5t-4 36z" />
    <glyph glyph-name="dotaccent" unicode="&#x2d9;" horiz-adv-x="222" 
d="M63 603v110h96v-110h-96z" />
    <glyph glyph-name="ring" unicode="&#x2da;" horiz-adv-x="222" 
d="M4 664q0 44 31.5 75.5t75.5 31.5t75.5 -31.5t31.5 -75.5t-31.5 -75.5t-75.5 -31.5t-75.5 31.5t-31.5 75.5zM54 664q0 -23 17 -40t40 -17t40 17t17 40t-17 40t-40 17t-40 -17t-17 -40z" />
    <glyph glyph-name="ogonek" unicode="&#x2db;" horiz-adv-x="222" 
d="M237 -169l10 -39q-37 -14 -77 -14q-43 0 -71.5 24.5t-28.5 73.5q0 63 94 124h42q-62 -65 -62 -121q0 -25 15 -40t37 -15t41 7z" />
    <glyph glyph-name="tilde" unicode="&#x2dc;" horiz-adv-x="222" 
d="M19 583h-58q0 38 22.5 77t71.5 40q25 0 63.5 -17t51.5 -17q29 0 29 39h62q0 -19 -7 -43.5t-29.5 -49t-56.5 -24.5q-20 0 -57 17t-55 17t-27.5 -11t-9.5 -28z" />
    <glyph glyph-name="hungarumlaut" unicode="&#x2dd;" horiz-adv-x="222" 
d="M-48 572l64 144h116l-102 -144h-78zM120 572l64 144h116l-102 -144h-78z" />
    <glyph glyph-name="uni03A9" unicode="&#x3a9;" horiz-adv-x="660" 
d="M167 88v3q-50 51 -83 125.5t-33 164.5q0 137 79.5 229.5t202.5 92.5q125 0 199.5 -96t74.5 -220q0 -92 -34.5 -170t-83.5 -126v-3h131v-88h-238v65q50 35 84 112t34 187q-1 101 -45.5 174t-123.5 73q-78 0 -125.5 -71t-47.5 -180q0 -103 34.5 -182.5t83.5 -112.5v-65
h-238v88h129z" />
    <glyph glyph-name="uni03BC" unicode="&#x3bc;" horiz-adv-x="519" 
d="M56 -216v731h124v-309q0 -59 17.5 -85.5t56.5 -26.5q85 0 85 126v295h124v-430q0 -54 4 -85h-116q0 8 -2 36t-2 43l-3 1l1 -1q-52 -87 -128 -87q-22 0 -37 12v-220h-124z" />
    <glyph glyph-name="pi" unicode="&#x3c0;" horiz-adv-x="555" 
d="M533 426h-69v-283q0 -89 13 -143h-102q-17 31 -17 138v288h-140q-4 -97 -22 -225.5t-41 -200.5h-103q24 83 42 208.5t20 217.5q-62 0 -95 -10l-13 72q44 31 149 31h386z" />
    <glyph glyph-name="uni2010" unicode="&#x2010;" horiz-adv-x="315" 
d="M42 233v102h231v-102h-231z" />
    <glyph glyph-name="endash" unicode="&#x2013;" 
d="M0 240v88h500v-88h-500z" />
    <glyph glyph-name="emdash" unicode="&#x2014;" horiz-adv-x="1000" 
d="M0 240v88h1000v-88h-1000z" />
    <glyph glyph-name="quoteleft" unicode="&#x2018;" horiz-adv-x="260" 
d="M44 502l76 248h96l-52 -248h-120z" />
    <glyph glyph-name="quoteright" unicode="&#x2019;" horiz-adv-x="260" 
d="M96 750h120l-76 -248h-96z" />
    <glyph glyph-name="quotesinglbase" unicode="&#x201a;" horiz-adv-x="260" 
d="M84 128h120l-76 -248h-96z" />
    <glyph glyph-name="quotedblleft" unicode="&#x201c;" horiz-adv-x="519" 
d="M85 502l76 248h96l-52 -248h-120zM262 502l76 248h96l-52 -248h-120z" />
    <glyph glyph-name="quotedblright" unicode="&#x201d;" horiz-adv-x="519" 
d="M314 750h120l-76 -248h-96zM137 750h120l-76 -248h-96z" />
    <glyph glyph-name="quotedblbase" unicode="&#x201e;" horiz-adv-x="519" 
d="M314 128h120l-76 -248h-96zM137 128h120l-76 -248h-96z" />
    <glyph glyph-name="dagger" unicode="&#x2020;" horiz-adv-x="520" 
d="M206 0v429h-139v94h139v175h108v-175h139v-94h-139v-429h-108z" />
    <glyph glyph-name="daggerdbl" unicode="&#x2021;" horiz-adv-x="520" 
d="M209 0v155h-142v88h142v212h-142v88h142v155h102v-155h142v-88h-142v-212h142v-88h-142v-155h-102z" />
    <glyph glyph-name="bullet" unicode="&#x2022;" 
d="M75 349q0 73 51 124t124 51t124 -51t51 -124t-51 -124t-124 -51t-124 51t-51 124z" />
    <glyph glyph-name="ellipsis" unicode="&#x2026;" horiz-adv-x="1000" 
d="M107 0v130h120v-130h-120zM440 0v130h120v-130h-120zM773 0v130h120v-130h-120z" />
    <glyph glyph-name="perthousand" unicode="&#x2030;" horiz-adv-x="926" 
d="M771 60q28 0 37.5 27t9.5 91t-9.5 91t-37.5 27t-37.5 -27t-9.5 -91t9.5 -91t37.5 -27zM771 -10q-121 0 -121 188t121 188t121 -188t-121 -188zM481 60q28 0 37.5 27t9.5 91t-9.5 91t-37.5 27t-37.5 -27t-9.5 -91t9.5 -91t37.5 -27zM481 -10q-121 0 -121 188t121 188
t121 -188t-121 -188zM155 402q28 0 37.5 27t9.5 91t-9.5 91t-37.5 27t-37.5 -27t-9.5 -91t9.5 -91t37.5 -27zM155 332q-121 0 -121 188t121 188t121 -188t-121 -188zM149 -22l276 742h62l-276 -742h-62z" />
    <glyph glyph-name="guilsinglleft" unicode="&#x2039;" horiz-adv-x="296" 
d="M144 52l-106 207l106 207h100l-98 -207l98 -207h-100z" />
    <glyph glyph-name="guilsinglright" unicode="&#x203a;" horiz-adv-x="296" 
d="M152 466l106 -207l-106 -207h-100l98 207l-98 207h100z" />
    <glyph glyph-name="fraction" unicode="&#x2044;" horiz-adv-x="167" 
d="M-112 -34l313 766h78l-313 -766h-78z" />
    <glyph glyph-name="Euro" unicode="&#x20ac;" horiz-adv-x="520" 
d="M521 676l-23 -105q-39 28 -103 28q-63 0 -103.5 -41.5t-58.5 -109.5h240l-14 -60h-236q-4 -47 0 -78h222l-13 -60h-198q19 -65 60.5 -106.5t102.5 -41.5t101 23l6 -117q-58 -18 -126 -18q-114 0 -186.5 72t-94.5 188h-87l14 60h66q-3 39 0 78h-80l14 60h73q21 112 93 186
t181 74q83 0 150 -32z" />
    <glyph glyph-name="afii61289" unicode="&#x2113;" horiz-adv-x="474" 
d="M411 169l44 -45q-64 -130 -187 -130q-81 0 -121 47.5t-46 123.5v11q-7 -5 -24 -19.5t-27 -21.5l-27 58l35.5 30.5t41.5 37.5v259q0 123 46 183.5t116 60.5q62 0 94 -47.5t32 -122.5q0 -158 -186 -347v-43q1 -62 25.5 -93.5t63.5 -31.5q69 0 120 90zM202 518v-170
q120 143 120 250q0 87 -56 87q-26 0 -45 -39.5t-19 -127.5z" />
    <glyph glyph-name="trademark" unicode="&#x2122;" horiz-adv-x="1000" 
d="M179 282v342h-127v74h332v-74h-127v-342h-78zM860 282v318h-2l-117 -318h-62l-117 318h-2v-318h-78v416h120l109 -281l107 281h120v-416h-78z" />
    <glyph glyph-name="Omega" unicode="&#x2126;" horiz-adv-x="660" 
d="M167 88v3q-50 51 -83 125.5t-33 164.5q0 137 79.5 229.5t202.5 92.5q125 0 199.5 -96t74.5 -220q0 -92 -34.5 -170t-83.5 -126v-3h131v-88h-238v65q50 35 84 112t34 187q-1 101 -45.5 174t-123.5 73q-78 0 -125.5 -71t-47.5 -180q0 -103 34.5 -182.5t83.5 -112.5v-65
h-238v88h129z" />
    <glyph glyph-name="estimated" unicode="&#x212e;" horiz-adv-x="866" 
d="M831 339h-646q-5 0 -5 -4v-196q0 -13 9 -22q101 -106 244 -106q154 0 257 119h57q-54 -64 -137.5 -101.5t-177.5 -37.5q-165 0 -282 105t-117 253t117 253.5t282 105.5q166 0 282.5 -105t116.5 -254v-10zM685 364v197q0 13 -10 23q-104 102 -242 102q-141 0 -243 -105
q-10 -9 -10 -24v-193q0 -6 5 -6h495q5 0 5 6z" />
    <glyph glyph-name="partialdiff" unicode="&#x2202;" horiz-adv-x="533" 
d="M98 646l-31 81q70 56 167 56q106 0 179 -97.5t73 -278.5q0 -188 -68 -300t-190 -112q-90 0 -140 69.5t-50 161.5q0 116 59 187.5t143 71.5q52 0 88.5 -25.5t52.5 -53.5h1v35q0 105 -46 178.5t-116 73.5q-69 0 -122 -47zM238 85h1q53 0 88.5 67.5t44.5 158.5
q-10 31 -40.5 58.5t-71.5 27.5q-50 0 -84 -52t-34 -122q0 -60 26.5 -99t69.5 -39z" />
    <glyph glyph-name="uni2206" unicode="&#x2206;" horiz-adv-x="612" 
d="M27 0v65l219 643h125l213 -641v-67h-557zM135 87h337l-110 315q-7 25 -28.5 91.5t-27.5 89.5h-3q-4 -20 -24 -80.5t-27 -85.5z" />
    <glyph glyph-name="product" unicode="&#x220f;" horiz-adv-x="672" 
d="M647 594h-96v-690h-105v690h-220v-690h-105v690h-97v98h623v-98z" />
    <glyph glyph-name="summation" unicode="&#x2211;" horiz-adv-x="523" 
d="M503 -96h-481v71l235 324l-226 317v76h457v-91h-315v-4l203 -280l-225 -309v-3h352v-101z" />
    <glyph glyph-name="minus" unicode="&#x2212;" horiz-adv-x="600" 
d="M47 209v88h506v-88h-506z" />
    <glyph glyph-name="uni2215" unicode="&#x2215;" horiz-adv-x="167" 
d="M-112 -34l313 766h78l-313 -766h-78z" />
    <glyph glyph-name="uni2219" unicode="&#x2219;" horiz-adv-x="259" 
d="M53 284q0 32 22.5 54.5t54.5 22.5t54.5 -22.5t22.5 -54.5t-22.5 -54.5t-54.5 -22.5t-54.5 22.5t-22.5 54.5z" />
    <glyph glyph-name="radical" unicode="&#x221a;" horiz-adv-x="554" 
d="M558 829l-210 -969h-86l-143 441l-70 -27l-18 62l153 61l102 -326q3 -17 9.5 -46t8.5 -37l1 -1q2 10 6.5 40.5t7.5 47.5l165 754h74z" />
    <glyph glyph-name="infinity" unicode="&#x221e;" horiz-adv-x="747" 
d="M699 287v-1q0 -73 -45 -118t-107 -45q-44 0 -85 25.5t-88 85.5q-43 -54 -84 -82.5t-95 -28.5q-60 0 -104.5 45.5t-44.5 113.5q0 70 45 115.5t112 45.5q50 0 91 -28t83 -81q53 59 79 77q46 32 97 32q64 0 105 -43.5t41 -112.5zM203 184h2q26 0 53.5 17t41 31.5l41.5 46.5
q-48 63 -72 80q-32 25 -70 25q-42 0 -66 -29.5t-24 -74.5q0 -40 27 -68t67 -28zM547 384h-1q-17 0 -33.5 -6t-32.5 -19.5t-26 -23t-26 -28t-20 -22.5q48 -57 77 -79t65 -22q39 0 63 30t24 67q0 46 -25 74.5t-65 28.5z" />
    <glyph glyph-name="integral" unicode="&#x222b;" horiz-adv-x="370" 
d="M347 841l-12 -75q-16 9 -34 9q-28 0 -47 -25q-27 -36 -27 -170q0 -78 6.5 -236.5t6.5 -246.5q0 -133 -36 -200q-35 -64 -115 -64q-43 0 -69 15l14 78q22 -10 41 -10q28 0 42 20q27 38 27 159q0 89 -6.5 251.5t-6.5 243.5q0 85 12.5 136t42.5 83q38 44 105 44q32 0 56 -12
z" />
    <glyph glyph-name="approxequal" unicode="&#x2248;" horiz-adv-x="523" 
d="M444 437l39 -35q-21 -44 -54 -71t-72 -27q-43 0 -107 39q-53 33 -84 33q-20 0 -37 -11.5t-26.5 -24t-24.5 -35.5l-40 35q22 44 57.5 70.5t77.5 26.5q13 0 25 -2t24.5 -7t19 -8t19 -10.5t14.5 -8.5q3 -2 11.5 -7t11.5 -7t10 -6t10.5 -5.5l9.5 -4t10 -3t9.5 -1.5t11.5 -1
q26 0 45 17.5t40 53.5zM444 262l39 -35q-48 -97 -127 -97q-42 0 -106 39q-55 33 -83 33q-20 0 -38 -12t-26.5 -23.5t-24.5 -35.5l-40 34q22 44 57.5 71t77.5 27q16 0 33 -4.5t25 -8t25 -13t19 -10.5q3 -2 14 -8.5l14.5 -8.5l12.5 -7t14.5 -6.5t13 -3t15.5 -1.5q26 0 44.5 17
t40.5 53z" />
    <glyph glyph-name="notequal" unicode="&#x2260;" horiz-adv-x="523" 
d="M380 499l-38 -88h134v-64h-158l-58 -133h216v-63h-240l-48 -110l-49 21l39 89h-132v63h156l58 133h-214v64h237l48 108z" />
    <glyph glyph-name="lessequal" unicode="&#x2264;" horiz-adv-x="523" 
d="M473 98l-421 217v68l421 217v-75l-358 -174v-2l358 -175v-76zM477 -4h-430v65h430v-65z" />
    <glyph glyph-name="greaterequal" unicode="&#x2265;" horiz-adv-x="523" 
d="M53 600l422 -217v-68l-422 -217v76l358 174v2l-358 175v75zM476 -4h-428v65h428v-65z" />
    <glyph glyph-name="lozenge" unicode="&#x25ca;" horiz-adv-x="554" 
d="M505 346l-188 -392h-85l-183 392l187 392h86zM410 343l-113 245q-11 29 -18 60h-3q-5 -23 -18 -60l-115 -240l115 -249q13 -38 16 -57h4q11 43 17 55z" />
    <glyph glyph-name="fi" unicode="&#xfb01;" horiz-adv-x="574" 
d="M382 0v515h124v-515h-124zM380 612v122h128v-122h-128zM96 0v424h-86v91h86v105q0 62 34.5 102t113.5 40q31 0 89 -12l-5 -90q-30 8 -49 8q-27 0 -43 -17.5t-16 -46.5v-89h94v-91h-94v-424h-124z" />
    <glyph glyph-name="fl" unicode="&#xfb02;" horiz-adv-x="574" 
d="M382 0v750h124v-750h-124zM96 0v424h-86v91h86v105q0 62 34.5 102t113.5 40q31 0 89 -12l-5 -90q-30 8 -49 8q-27 0 -43 -17.5t-16 -46.5v-89h94v-91h-94v-424h-124z" />
    <glyph glyph-name="a.superior" horiz-adv-x="352" 
d="M79 625l-5 60q53 23 112 23q72 0 100 -31t28 -93v-135q0 -30 5 -53h-78q-4 20 -4 40h-3q-35 -44 -94 -44q-45 0 -76 23.5t-31 64.5q0 108 183 108h14v11q0 51 -60 51t-91 -25zM230 528v14h-7q-44 0 -75 -13t-31 -40q0 -43 50 -43q63 0 63 82z" />
    <glyph glyph-name="o.superior" horiz-adv-x="352" 
d="M112 550q0 -100 64 -100t64 100t-64 100t-64 -100zM24 550q0 85 44.5 121.5t107.5 36.5t107.5 -36.5t44.5 -121.5t-44.5 -121.5t-107.5 -36.5t-107.5 36.5t-44.5 121.5z" />
    <glyph glyph-name="one.superior" horiz-adv-x="338" 
d="M152 282v327l-60 -53l-44 56l112 89h80v-419h-88z" />
    <glyph glyph-name="two.superior" horiz-adv-x="338" 
d="M37 282v67l32 34q7 8 27.5 29.5t28.5 30.5l24 27.5t23.5 29t16.5 25.5t12.5 27t3.5 23q0 30 -16.5 46.5t-43.5 16.5q-13 0 -25 -1.5t-22 -6t-15 -6.5t-14.5 -8t-10.5 -6l-7 74q46 24 117 24q70 0 101.5 -31t31.5 -81q0 -94 -144 -232l-7 -8h149v-74h-262z" />
    <glyph glyph-name="three.superior" horiz-adv-x="338" 
d="M30 296l5 69q53 -21 94 -21q35 0 57 18t22 47q0 60 -82 60q-23 0 -35 -4v67q13 -5 35 -5q28 0 54.5 15t26.5 49q0 25 -19.5 38t-49.5 13q-39 0 -88 -21l-6 69q62 18 115 18q62 0 99 -27.5t37 -78.5q0 -49 -28 -71t-60 -26v-2q21 -5 34.5 -10t29.5 -15.5t24.5 -29.5
t8.5 -45q0 -60 -46 -92.5t-114 -32.5q-52 0 -114 18z" />
    </font>
</defs>
</svg>
