<?xml version="1.0" standalone="no"?>
<!DOCTYPE svg PUBLIC "-//W3C//DTD SVG 1.1//EN" "http://www.w3.org/Graphics/SVG/1.1/DTD/svg11.dtd" >
<svg>
<metadata>
Created by FontForge 20090622 at Fri Oct 30 23:29:12 2015
 By deploy user
Copyright (c) 1987, 1991, 1998 Adobe Systems Incorporated. All Rights Reserved.Univers is a trademark of Linotype-Hell AG and/or its subsidiaries.
</metadata>
<defs>
<font id="UniversLT-CondensedBold" horiz-adv-x="500" >
  <font-face 
    font-family="Univers LT 67 CondensedBold"
    font-weight="700"
    font-stretch="normal"
    units-per-em="1000"
    panose-1="2 0 8 3 6 0 0 2 0 3"
    ascent="800"
    descent="-200"
    x-height="505"
    cap-height="722"
    bbox="-83 -250 1000 969"
    underline-thickness="50"
    underline-position="-75"
    unicode-range="U+0020-U+FB02"
  />
<missing-glyph horiz-adv-x="222" 
 />
    <glyph glyph-name=".notdef" horiz-adv-x="222" 
 />
    <glyph glyph-name="exclam" unicode="!" horiz-adv-x="333" 
d="M226 120v-120h-120v120h120zM214 193h-96l-22 529h140z" />
    <glyph glyph-name="quotedbl" unicode="&#x22;" horiz-adv-x="333" 
d="M15 463v259h120v-259h-120zM198 463v259h120v-259h-120z" />
    <glyph glyph-name="numbersign" unicode="#" horiz-adv-x="444" 
d="M172 295h86l14 108h-86zM73 193h-75v102h88l14 108h-73v102h86l25 193h86l-25 -193h86l25 193h86l-25 -193h75v-102h-88l-14 -108h73v-102h-86l-25 -193h-86l25 193h-86l-25 -193h-86z" />
    <glyph glyph-name="dollar" unicode="$" horiz-adv-x="444" 
d="M200 603q-22 -7 -32.5 -22.5t-10.5 -45.5q0 -23 11.5 -45.5t31.5 -38.5v152zM243 95q24 5 38 22t14 52q0 33 -14.5 54t-37.5 38v-166zM200 289l-62 39t-58.5 49t-43.5 64.5t-17 84.5q0 44 14 76.5t38.5 54.5t57.5 34t71 16v77h43v-77q52 -1 86.5 -14t55 -38.5t29 -63
t8.5 -86.5h-132q1 15 -0.5 31t-6.5 30t-15 24t-25 13v-180l63.5 -38t61.5 -47t46.5 -64t18.5 -91q0 -53 -15 -88.5t-40.5 -57.5t-60.5 -32.5t-74 -13.5v-86h-43v86q-61 0 -98 16t-57.5 44.5t-27.5 69t-7 90.5h138q0 -18 1 -37t5.5 -35.5t15 -28.5t30.5 -15v194z" />
    <glyph glyph-name="percent" unicode="%" horiz-adv-x="778" 
d="M176 408q33 0 41 25t8 87q0 13 -0.5 30t-5 32.5t-14.5 26t-29 10.5t-29 -10.5t-14.5 -26t-5 -32.5t-0.5 -30q0 -62 8 -87t41 -25zM602 79q33 0 41 25t8 87q0 13 -0.5 30t-5 32.5t-14.5 26t-29 10.5t-29 -10.5t-14.5 -26t-5 -32.5t-0.5 -30q0 -62 8 -87t41 -25zM277 -21
h-74l292 732h74zM176 329q-42 0 -70 11.5t-44.5 34t-23 56.5t-6.5 78q0 39 5.5 73.5t21 60t44 40.5t73.5 15t73.5 -15t44 -40.5t21 -60t5.5 -73.5q0 -44 -7 -78t-23.5 -56.5t-44 -34t-69.5 -11.5zM602 0q-42 0 -70 11.5t-44.5 34t-23 56.5t-6.5 78q0 39 5.5 73.5t21 60
t44 40.5t73.5 15t73.5 -15t44 -40.5t21 -60t5.5 -73.5q0 -44 -7 -78t-23.5 -56.5t-44 -34t-69.5 -11.5z" />
    <glyph glyph-name="ampersand" unicode="&#x26;" horiz-adv-x="667" 
d="M265 483q13 8 26 18.5t23 22.5t16.5 26.5t6.5 31.5q0 29 -16.5 45.5t-45.5 16.5q-24 0 -43.5 -15.5t-19.5 -41.5q0 -31 16.5 -56t36.5 -48zM236 324q-27 -21 -50 -51t-23 -66q0 -52 29 -81.5t81 -29.5q32 0 61 11t49 37zM471 57q-43 -42 -93 -55.5t-108 -13.5
q-125 0 -191.5 56.5t-66.5 162.5q0 36 11.5 66t31 55t45.5 46t54 39l-28.5 38t-26 42.5t-18.5 47.5t-7 53q0 30 17 55.5t46 44.5t69 29.5t86 10.5q26 0 58 -6.5t59.5 -23t46.5 -43.5t19 -68q0 -35 -11 -62.5t-28.5 -50t-39.5 -42.5l-44 -39l113 -148q5 18 8 32.5t5 30.5
t2.5 35.5t0.5 45.5h122q0 -28 -1 -59t-5.5 -63t-14.5 -64t-28 -61l109 -148h-148z" />
    <glyph glyph-name="quoteright" unicode="&#x2019;" horiz-adv-x="222" 
d="M61 722h134l-73 -197h-96z" />
    <glyph glyph-name="parenleft" unicode="(" horiz-adv-x="278" 
d="M218 755l-22.5 -96.5t-21 -105.5t-15.5 -112.5t-6 -116.5q0 -67 7 -127t16.5 -114.5t21 -105t20.5 -98.5h-79l-36.5 108t-34 112.5t-25.5 113.5t-10 112q0 56 11 116t27 117t34.5 108l33.5 89h79z" />
    <glyph glyph-name="parenright" unicode=")" horiz-adv-x="278" 
d="M60 -121l22.5 96.5t21 105.5t15.5 112.5t6 116.5q0 67 -7 127t-16.5 114.5t-21 105t-20.5 98.5h79l36.5 -108.5t34 -112t25.5 -113.5t10 -112q0 -56 -11 -116t-27 -117t-34.5 -108l-33.5 -89h-79z" />
    <glyph glyph-name="asterisk" unicode="*" horiz-adv-x="444" 
d="M165 353l-85 52l89 113l-137 -18v97l137 -17l-81 108l84 46l50 -124l50 124l84 -46l-81 -108l137 17v-97l-137 18l89 -113l-85 -52l-57 137z" />
    <glyph glyph-name="plus" unicode="+" 
d="M195 505h111v-197h169v-111h-169v-197h-111v197h-170v111h170v197z" />
    <glyph glyph-name="comma" unicode="," horiz-adv-x="222" 
d="M66 132h131l-76 -229h-96z" />
    <glyph glyph-name="hyphen" unicode="-" horiz-adv-x="333" 
d="M289 321v-102h-245v102h245z" />
    <glyph glyph-name="hyphen" unicode="&#xad;" horiz-adv-x="333" 
d="M289 321v-102h-245v102h245z" />
    <glyph glyph-name="period" unicode="." horiz-adv-x="222" 
d="M171 132v-132h-120v132h120z" />
    <glyph glyph-name="slash" unicode="/" horiz-adv-x="278" 
d="M-32 -96l239 818h102l-238 -818h-103z" />
    <glyph glyph-name="zero" unicode="0" horiz-adv-x="444" 
d="M222 605q-23 0 -35 -10t-18 -37.5t-7 -77.5t-1 -131q0 -79 1.5 -129t8 -78t18.5 -38.5t33 -10.5t33 10.5t18.5 38.5t8 78t1.5 129q0 81 -1 131t-7 77.5t-18.5 37.5t-34.5 10zM222 707q64 0 104 -18t61.5 -60t29 -110t7.5 -168q0 -82 -5 -148.5t-25.5 -113.5t-61 -72.5
t-110.5 -25.5q-71 0 -111 25.5t-60.5 72.5t-25.5 113.5t-5 148.5q0 100 7.5 168t29 110t61 60t104.5 18z" />
    <glyph glyph-name="one" unicode="1" horiz-adv-x="444" 
d="M49 590q38 21 73 47t62 61h134v-698h-151v537q-27 -23 -57 -42t-61 -36v131z" />
    <glyph glyph-name="two" unicode="2" horiz-adv-x="444" 
d="M12 0v123l96 126l70.5 92l49 66.5t30.5 49t15.5 40t4.5 40.5q0 26 -11.5 47t-41.5 21q-22 0 -34 -9.5t-18 -24t-7.5 -32t-1.5 -34.5h-141q-8 98 43.5 150t148.5 52q45 0 82.5 -9.5t64.5 -31t42 -56t15 -83.5q0 -39 -14 -79.5t-36.5 -80t-50.5 -77t-57 -71l-55.5 -62
l-45.5 -49.5h266v-108h-414z" />
    <glyph glyph-name="three" unicode="3" horiz-adv-x="444" 
d="M20 524q0 54 12 89.5t36 56.5q24 20 61.5 28.5t90.5 8.5q98 0 144.5 -43t46.5 -143q0 -25 -4 -50.5t-15 -47.5t-29.5 -37.5t-46.5 -19.5v-2q34 -6 55 -22t32 -39t15 -51t4 -58q0 -108 -56 -155.5t-162 -47.5q-52 0 -88.5 10t-59.5 33t-33.5 61t-10.5 94h141
q0 -17 0.5 -34.5t6 -31t17.5 -22t35 -8.5q24 0 38 10t20.5 25.5t8.5 35t2 37.5q0 38 -6.5 59.5t-22 32t-40.5 13t-62 2.5v111q34 -2 57.5 0.5t37 13t19.5 32t6 57.5q0 14 -1.5 29t-7.5 27t-16.5 19.5t-28.5 7.5q-19 0 -30 -7t-16.5 -18.5t-7 -26t-1.5 -29.5h-141z" />
    <glyph glyph-name="four" unicode="4" horiz-adv-x="444" 
d="M250 267l9 333h-2l-127 -333h120zM22 300l71 166.5l47.5 112l28.5 68.5t15 35t6 13.5l1 2.5h185v-431h55v-108h-55v-159h-138v159h-216v141z" />
    <glyph glyph-name="five" unicode="5" horiz-adv-x="444" 
d="M175 416l2 -2q17 25 43.5 36t57.5 11q43 0 71.5 -14.5t46 -43.5t24.5 -72t7 -100q0 -70 -13 -116.5t-39.5 -74t-66.5 -38.5t-94 -11q-44 0 -78.5 9.5t-59 30t-37 53.5t-10.5 80h141q0 -14 2 -27t8 -23t16 -15.5t27 -5.5q42 0 52.5 33.5t10.5 104.5q0 17 -0.5 41t-5.5 46
t-17.5 37.5t-36.5 15.5q-15 0 -25.5 -7.5t-16.5 -19.5t-8.5 -25.5t-2.5 -25.5h-136v405h365v-108h-227v-174z" />
    <glyph glyph-name="six" unicode="6" horiz-adv-x="444" 
d="M218 93q18 0 30.5 6t20 21t11 41t3.5 67q0 66 -12 96.5t-52 30.5q-21 0 -32.5 -9.5t-17.5 -27t-7.5 -43.5t-1.5 -59q0 -15 1 -36.5t6.5 -40.5t17 -32.5t33.5 -13.5zM270 547q2 28 -9 45q-6 9 -15.5 14t-24.5 5q-23 0 -36 -7.5t-19 -30t-7.5 -63.5t-1.5 -107q15 13 27 22
t24.5 15t26.5 8.5t34 2.5q49 0 79 -19.5t47 -51t23 -71.5t6 -80q0 -54 -10.5 -98t-35.5 -75t-65 -48t-99 -17q-68 0 -107 26.5t-58.5 69.5t-24.5 96t-5 107q0 104 5.5 182.5t27 130.5t64 78t117.5 26q40 0 73.5 -9t58.5 -28t38.5 -49.5t13.5 -73.5h-147z" />
    <glyph glyph-name="seven" unicode="7" horiz-adv-x="444" 
d="M406 565l-170 -565h-157l191 590h-239v108h375v-133z" />
    <glyph glyph-name="eight" unicode="8" horiz-adv-x="444" 
d="M222 605q-18 0 -29 -9.5t-17 -23.5t-7.5 -29.5t-1.5 -28.5q0 -14 1.5 -30t7 -30.5t16.5 -24t30 -9.5t30 9.5t16.5 24t7 30.5t1.5 30q0 13 -1.5 28.5t-7.5 29.5t-17 23.5t-29 9.5zM222 312q-24 0 -36.5 -13.5t-18 -33t-6 -40.5t-0.5 -37q0 -15 2 -31.5t8.5 -31t18.5 -23.5
t32 -9t32 9t18.5 23.5t8.5 31t2 31.5q0 16 -0.5 37t-6 40.5t-18 33t-36.5 13.5zM222 -9q-100 0 -151 44.5t-51 143.5q0 32 3.5 61t14.5 53.5t31 43.5t54 31v2q-30 7 -48.5 21.5t-29.5 34t-15 44t-4 52.5q0 96 49.5 140.5t146.5 44.5t146.5 -44.5t49.5 -140.5q0 -28 -4 -52.5
t-15 -44t-29.5 -34t-48.5 -21.5v-2q34 -12 54 -31t31 -43.5t14.5 -53.5t3.5 -61q0 -99 -51 -143.5t-151 -44.5z" />
    <glyph glyph-name="nine" unicode="9" horiz-adv-x="444" 
d="M160 487q0 -16 1 -37t6.5 -39.5t17.5 -31.5t35 -13q22 0 35 13.5t19 32.5t7.5 40.5t1.5 37.5t-1.5 37t-7.5 40t-18.5 31.5t-34.5 12.5q-23 0 -35.5 -13.5t-18 -32.5t-6.5 -40.5t-1 -37.5zM169 164q0 -14 2 -26.5t8 -22.5t16 -16t26 -6q26 0 39 11.5t18 37.5t5 69v105
q-46 -46 -116 -46q-40 0 -68 16.5t-46 43t-26 60.5t-8 69q0 51 9 96.5t31.5 79t61 53t97.5 19.5q78 0 119.5 -29t61 -78t22.5 -115t3 -139q0 -43 -1 -86t-7 -82.5t-19 -73.5t-36 -59t-58 -39.5t-86 -14.5q-45 0 -80.5 8.5t-60 28.5t-36.5 53t-11 83h140z" />
    <glyph glyph-name="colon" unicode=":" horiz-adv-x="222" 
d="M171 0h-120v132h120v-132zM171 505v-132h-120v132h120z" />
    <glyph glyph-name="semicolon" unicode=";" horiz-adv-x="222" 
d="M51 375v130h120v-130h-120zM53 132h131l-76 -229h-96z" />
    <glyph glyph-name="less" unicode="&#x3c;" 
d="M459 87v-111l-417 225v99l417 227v-111l-297 -167z" />
    <glyph glyph-name="equal" unicode="=" 
d="M475 99h-450v111h450v-111zM475 295h-450v111h450v-111z" />
    <glyph glyph-name="greater" unicode="&#x3e;" 
d="M338 249l-297 167v111l417 -227v-99l-417 -225v111z" />
    <glyph glyph-name="question" unicode="?" horiz-adv-x="444" 
d="M155 0v120h120v-120h-120zM162 193v103q0 33 17 66t37 66t36.5 66t16.5 66q0 30 -11.5 51t-46.5 21q-20 0 -31 -9.5t-16 -24.5t-6 -33.5t-1 -35.5h-120q0 27 2.5 62t20 67t55.5 54t110 22q38 0 71.5 -10.5t58 -31t38.5 -51t14 -70.5q0 -62 -22 -104.5t-49 -74.5
q-13 -17 -26 -32t-23 -30t-16 -31t-6 -34v-72h-103z" />
    <glyph glyph-name="at" unicode="@" horiz-adv-x="795" 
d="M420 483q-22 0 -40.5 -13t-31.5 -35t-20 -52t-7 -64q0 -17 3 -32.5t9.5 -28t17.5 -20t27 -7.5q20 0 39.5 8t34.5 28t24 53.5t9 85.5q0 35 -17.5 56t-47.5 21zM576 345q-2 -10 -4.5 -26l-5 -31l-4.5 -27t-2 -14q0 -6 4 -11t15 -5q18 0 36.5 15t33 39.5t24 56t9.5 65.5
q1 58 -13.5 99.5t-38.5 70t-54.5 45.5t-60.5 26.5t-56.5 12.5t-42.5 3q-63 0 -118 -23.5t-96.5 -64.5t-65 -96t-23.5 -118t23.5 -118t65 -96.5t96.5 -65.5t118 -24t119 25t93 63h91q-24 -36 -57.5 -65.5t-73 -50t-83.5 -31.5t-89 -11q-78 0 -146 29.5t-118.5 80t-79.5 118.5
t-29 146t29 145.5t79.5 118t118.5 79.5t146 29q95 0 159.5 -32t103.5 -78.5t56 -98t17 -91.5q0 -59 -18 -110t-48.5 -89.5t-70 -60.5t-82.5 -22q-21 0 -42 14t-26 42l-2 2q-23 -29 -55 -43.5t-61 -14.5q-34 0 -58 16.5t-39 42t-22 56t-7 59.5q0 43 12 84t35.5 73t58.5 51
t81 19q38 0 62 -13.5t37 -44.5h2l9 45h93z" />
    <glyph glyph-name="A" unicode="A" horiz-adv-x="611" 
d="M299 583h-2l-69 -312h144zM8 0l200 722h199l196 -722h-159l-40 160h-206l-41 -160h-149z" />
    <glyph glyph-name="B" unicode="B" horiz-adv-x="611" 
d="M216 427h101q12 0 26 4.5t26 15t19.5 28.5t7.5 44q0 40 -24.5 66t-62.5 26h-93v-184zM216 111h84q12 0 29.5 1.5t34 11.5t28.5 30.5t12 58.5q0 48 -21.5 75.5t-78.5 27.5h-88v-205zM65 0v722h268q43 0 81.5 -7.5t67 -28t45 -57t16.5 -94.5q0 -63 -30.5 -105t-92.5 -54v-2
q40 -6 66 -21t41.5 -39t21.5 -55t6 -68q0 -46 -12 -78t-31.5 -53t-44 -33t-49.5 -18t-47.5 -7.5t-38.5 -1.5h-267z" />
    <glyph glyph-name="C" unicode="C" horiz-adv-x="556" 
d="M305 -12q-93 0 -144 31.5t-74 84t-27 119.5t-4 138q0 72 4 139t27 119t74 83.5t144 31.5q116 0 165.5 -61.5t44.5 -178.5h-148q0 72 -14 102t-48 30q-32 0 -51 -15.5t-29 -47.5t-13 -82.5t-3 -119.5t3 -119.5t13 -82.5t29 -47.5t51 -15.5q26 0 40 15t20 37t7 48t2 47h149
q0 -72 -14 -121t-42 -79t-68.5 -42.5t-93.5 -12.5z" />
    <glyph glyph-name="D" unicode="D" horiz-adv-x="611" 
d="M217 111h73q34 0 55.5 13.5t33.5 43.5t16.5 77.5t4.5 115.5q0 50 -1.5 95t-11.5 79.5t-31.5 55t-60.5 20.5h-78v-500zM66 722h252q74 0 120 -24t71.5 -70t34.5 -112.5t9 -150.5v-66q0 -37 -5 -78t-18.5 -80.5t-40.5 -70.5t-70 -50.5t-107 -19.5h-246v722z" />
    <glyph glyph-name="E" unicode="E" 
d="M63 0v722h394v-111h-243v-178h224v-111h-224v-211h251v-111h-402z" />
    <glyph glyph-name="F" unicode="F" horiz-adv-x="444" 
d="M60 0v722h375v-111h-224v-185h214v-111h-214v-315h-151z" />
    <glyph glyph-name="G" unicode="G" horiz-adv-x="611" 
d="M393 500q0 25 -2.5 48t-12 40t-27.5 27.5t-48 10.5q-35 0 -54 -22t-28 -59t-10.5 -85.5t-1.5 -100.5q0 -85 5 -137t17 -80.5t33 -38.5t53 -10q19 0 38.5 4t36.5 10v160h-82v111h233v-366q-15 -3 -40.5 -7t-54.5 -8t-58 -6.5t-51 -2.5q-95 0 -151.5 20.5t-85.5 66
t-37.5 117.5t-8.5 175q0 68 5.5 134t30 117.5t76 83.5t144.5 32q55 0 99.5 -15.5t75 -45t45 -73t11.5 -100.5h-150z" />
    <glyph glyph-name="H" unicode="H" horiz-adv-x="611" 
d="M392 433v289h151v-722h-151v322h-173v-322h-151v722h151v-289h173z" />
    <glyph glyph-name="I" unicode="I" horiz-adv-x="278" 
d="M63 0v722h151v-722h-151z" />
    <glyph glyph-name="J" unicode="J" 
d="M444 722v-554q0 -47 -17.5 -81t-47 -56t-67 -32.5t-77.5 -10.5q-79 0 -123.5 16.5t-66 48t-26 78.5t-4.5 109h154q0 -22 -1 -47t4 -46.5t19 -36t44 -14.5q26 0 42 19.5t16 42.5v564h151z" />
    <glyph glyph-name="K" unicode="K" horiz-adv-x="556" 
d="M384 722h166l-202 -324l202 -398h-170l-173 370h-2v-370h-151v722h151v-309h2z" />
    <glyph glyph-name="L" unicode="L" horiz-adv-x="444" 
d="M64 0v722h151v-602h226v-120h-377z" />
    <glyph glyph-name="M" unicode="M" horiz-adv-x="833" 
d="M60 0v722h243l113 -491h2l120 491h235v-722h-147v557h-2l-139 -557h-144l-132 557h-2v-557h-147z" />
    <glyph glyph-name="N" unicode="N" horiz-adv-x="667" 
d="M64 0v722h204l192 -500h2v500h141v-722h-199l-197 528h-2v-528h-141z" />
    <glyph glyph-name="O" unicode="O" horiz-adv-x="611" 
d="M305 96q32 0 51 15.5t29 47.5t13 82.5t3 119.5t-3 119.5t-13 82.5t-29 47.5t-51 15.5t-51 -15.5t-29 -47.5t-13 -82.5t-3 -119.5t3 -119.5t13 -82.5t29 -47.5t51 -15.5zM305 -12q-93 0 -144 31.5t-74 84t-27 119.5t-4 138q0 72 4 139t27 119t74 83.5t144 31.5t144 -31.5
t74 -83.5t27 -119t4 -139q0 -71 -4 -138t-27 -119.5t-74 -84t-144 -31.5z" />
    <glyph glyph-name="P" unicode="P" horiz-adv-x="556" 
d="M215 405h84q17 0 31 8.5t24 22t15.5 31t5.5 35.5q0 22 -3.5 42t-13 35t-26 23.5t-41.5 8.5h-76v-206zM64 722h272q52 0 88.5 -15t59.5 -43.5t33.5 -68.5t10.5 -89q0 -31 -6.5 -68t-27.5 -69t-61 -53.5t-106 -21.5h-112v-294h-151v722z" />
    <glyph glyph-name="Q" unicode="Q" horiz-adv-x="611" 
d="M305 101q32 0 51 15.5t29 47t13 80.5t3 117q0 69 -3 119.5t-13 82.5t-29 47.5t-51 15.5t-51 -15.5t-29 -47.5t-13 -82.5t-3 -119.5q0 -68 3 -117t13 -80.5t29 -47t51 -15.5zM607 0h-213q-10 0 -21 -1l-22 -2q-11 -2 -22 -3t-22 -1q-84 0 -133.5 22t-75.5 67.5t-34 115
t-8 163.5q0 72 4 139t27 119t74 83.5t144 31.5t144 -31.5t74 -83.5t27 -119t4 -139q0 -58 -5.5 -101t-16 -75t-27.5 -55t-39 -42l2 -2q8 2 19 6.5l21.5 8.5t20 7t15.5 3h63v-111z" />
    <glyph glyph-name="R" unicode="R" horiz-adv-x="556" 
d="M211 410h67q22 0 37 10t24 25.5t12.5 34.5t3.5 36q0 52 -20.5 73.5t-56.5 21.5h-67v-201zM211 0h-151v722h279q78 0 123.5 -48t45.5 -141q0 -69 -30.5 -117t-103.5 -60v-2q12 -2 34 -6t43.5 -18t37.5 -41.5t16 -76.5q0 -17 0.5 -48t2.5 -64t5.5 -61t8.5 -39h-148
q-15 33 -15.5 69t-0.5 71q0 32 -0.5 61t-10 50.5t-32 34.5t-65.5 13h-39v-299z" />
    <glyph glyph-name="S" unicode="S" horiz-adv-x="556" 
d="M511 197q0 -70 -23 -111.5t-59.5 -63t-81.5 -28t-88 -6.5q-70 0 -113.5 19t-66.5 51.5t-30 75t-4 89.5h151q0 -26 2 -49t10 -40.5t25.5 -27.5t48.5 -10q38 0 57 22.5t19 59.5q0 32 -22.5 56t-56.5 45.5t-73 43t-73 50t-56.5 66.5t-22.5 92q0 42 11.5 79t38.5 64.5
t73 43.5t115 16q110 0 163.5 -52t46.5 -165h-147q0 20 -2.5 39.5t-10 35t-21 25t-36.5 9.5q-37 0 -57.5 -19.5t-20.5 -57.5q0 -34 22.5 -58t56.5 -44t73 -40.5t73 -48t56.5 -66t22.5 -95.5z" />
    <glyph glyph-name="T" unicode="T" 
d="M493 722v-120h-168v-602h-151v602h-168v120h487z" />
    <glyph glyph-name="U" unicode="U" horiz-adv-x="611" 
d="M551 722v-512q0 -41 -12.5 -80.5t-41 -71t-75.5 -51t-116 -19.5q-125 0 -185.5 60t-60.5 162v512h151v-502q0 -67 25.5 -95.5t67.5 -28.5q50 0 73 32t23 92v502h151z" />
    <glyph glyph-name="V" unicode="V" horiz-adv-x="556" 
d="M5 722h157l112 -525h2l126 525h149l-191 -722h-177z" />
    <glyph glyph-name="W" unicode="W" horiz-adv-x="889" 
d="M-1 722h155l94 -507h2l114 507h178l108 -507h2l90 507h148l-160 -722h-167l-113 528h-2l-125 -528h-164z" />
    <glyph glyph-name="X" unicode="X" horiz-adv-x="556" 
d="M16 722h172l103 -237l101 237h157l-180 -357l183 -365h-171l-111 249l-111 -249h-156l187 378z" />
    <glyph glyph-name="Y" unicode="Y" horiz-adv-x="556" 
d="M196 250l-189 472h165l108 -305l115 305h154l-202 -472v-250h-151v250z" />
    <glyph glyph-name="Z" unicode="Z" 
d="M36 722h435v-131l-304 -480h311v-111h-456v132l303 479h-289v111z" />
    <glyph glyph-name="bracketleft" unicode="[" horiz-adv-x="278" 
d="M44 755h212v-87h-101v-702h101v-87h-212v876z" />
    <glyph glyph-name="backslash" unicode="\" horiz-adv-x="250" 
d="M24 722l308 -722h-107l-308 722h107z" />
    <glyph glyph-name="bracketright" unicode="]" horiz-adv-x="278" 
d="M234 -121h-212v87h101v702h-101v87h212v-876z" />
    <glyph glyph-name="asciicircum" unicode="^" 
d="M3 274l182 424h130l182 -424h-126l-121 299l-121 -299h-126z" />
    <glyph glyph-name="underscore" unicode="_" 
d="M0 -125v50h500v-50h-500z" />
    <glyph glyph-name="quoteleft" unicode="&#x2018;" horiz-adv-x="222" 
d="M160 525h-134l73 197h96z" />
    <glyph glyph-name="a" unicode="a" 
d="M301 244q-26 -1 -48.5 -2t-39 -8.5t-25.5 -25t-9 -51.5q0 -14 1.5 -28t7 -25.5t16 -19t27.5 -7.5q31 0 46 18.5t20 44.5t4.5 54.5t-0.5 49.5zM439 94q0 -23 2.5 -47t4.5 -47h-131l-6 67h-2q-23 -39 -54.5 -58t-77.5 -19q-37 0 -62.5 13t-41.5 34.5t-23 51t-7 62.5
q0 63 22 98t58.5 51.5t83.5 20t96 2.5v39q0 16 -1.5 29.5t-7.5 23.5t-17.5 15.5t-30.5 5.5q-18 0 -29 -6.5t-16 -17t-6.5 -24.5t-1.5 -29h-138q0 46 13.5 76t38.5 47q24 18 57.5 25.5t74.5 7.5q67 0 107 -13.5t61 -36.5t27.5 -54t6.5 -65v-252z" />
    <glyph glyph-name="b" unicode="b" 
d="M254 77q38 0 49 42.5t11 137.5q0 38 -1 69.5t-6.5 54t-17.5 35t-35 12.5q-22 0 -33.5 -12.5t-17 -35t-6 -54t-0.5 -69.5q0 -95 10.5 -137.5t46.5 -42.5zM56 722h141v-265h2q22 32 49.5 45t65.5 13q53 0 81.5 -26t41 -65t14 -84.5t1.5 -83.5q0 -39 -1.5 -85.5t-14.5 -86.5
t-41.5 -67t-83.5 -27q-41 0 -70 14.5t-49 51.5h-2v-56h-134v722z" />
    <glyph glyph-name="c" unicode="c" 
d="M313 325q0 57 -15 78.5t-48 21.5q-23 0 -35.5 -10t-19.5 -29.5t-8.5 -49.5t-1.5 -69q0 -58 3 -94.5t10 -57t19.5 -28t32.5 -7.5q33 0 49 28t16 78h141q0 -103 -53 -149.5t-153 -46.5q-68 0 -109 20t-62.5 55.5t-28 85t-6.5 108.5q0 52 6 98.5t27 81.5t62 55.5t111 20.5
q97 0 150.5 -45.5t53.5 -144.5h-141z" />
    <glyph glyph-name="d" unicode="d" 
d="M244 77q36 0 46.5 42.5t10.5 137.5q0 38 -1 69.5t-6 54t-16.5 35t-33.5 12.5q-23 0 -35 -12.5t-17.5 -35t-6.5 -54t-1 -69.5q0 -95 11 -137.5t49 -42.5zM308 0v56h-2q-20 -37 -49 -51.5t-70 -14.5q-55 0 -84 27t-41.5 67t-14 86.5t-1.5 85.5q0 38 1.5 83.5t14 84.5t41 65
t81.5 26q38 0 65.5 -13t49.5 -45h2v265h141v-722h-134z" />
    <glyph glyph-name="e" unicode="e" 
d="M315 309q0 18 -0.5 39t-6.5 39t-19.5 29.5t-38.5 11.5q-24 0 -37 -12.5t-19 -31t-7 -39t-1 -36.5h129zM186 230q0 -23 1.5 -49t7.5 -48.5t19 -37.5t36 -15q19 0 30.5 8t18 21t9 29t2.5 32h143q-3 -85 -54 -131q-25 -23 -62 -36t-87 -13q-68 0 -109 20t-62.5 55.5t-28 85
t-6.5 108.5q0 52 6 98.5t27 81.5t62 55.5t111 20.5q71 0 113 -22t63 -60t26.5 -90t3.5 -113h-270z" />
    <glyph glyph-name="f" unicode="f" horiz-adv-x="278" 
d="M273 635q-43 3 -56 -14t-13 -55v-61h66v-87h-66v-418h-141v418h-63v87h64q0 54 0.5 95.5t14 69.5t46.5 42.5t98 14.5q13 0 25 -0.5t25 -1.5v-90z" />
    <glyph glyph-name="g" unicode="g" 
d="M182 237v-43q0 -24 5 -46.5t17.5 -38t38.5 -15.5q38 0 48 39.5t10 120.5q0 42 -1.5 74t-7.5 54.5t-17.5 34t-30.5 11.5q-20 0 -32 -8t-19 -29.5t-9 -58.5t-2 -95zM442 505v-526q0 -13 -2.5 -41.5t-20.5 -58t-57 -51.5t-112 -22q-39 0 -74.5 6t-62.5 22.5t-43.5 46
t-17.5 75.5h138q0 -16 2.5 -29t9.5 -22q14 -20 47 -20q26 0 39 23t13 61v97h-2q-16 -29 -44 -44t-63 -15q-58 0 -88.5 24t-43.5 61.5t-14.5 82.5t-1.5 88q0 42 2.5 86.5t17 81t44.5 60.5t85 24q38 0 68 -17t45 -52h2v59h134z" />
    <glyph glyph-name="h" unicode="h" 
d="M303 0v348q0 34 -9.5 57t-43.5 23t-43.5 -23t-9.5 -57v-348h-141v722h141v-268h2q20 33 50 47q28 14 69 14q25 0 48 -7.5t40 -21.5t27.5 -34.5t10.5 -46.5v-405h-141z" />
    <glyph glyph-name="i" unicode="i" horiz-adv-x="278" 
d="M209 722v-111h-141v111h141zM209 0h-141v505h141v-505z" />
    <glyph glyph-name="j" unicode="j" horiz-adv-x="278" 
d="M209 722v-111h-141v111h141zM209 505v-551q0 -79 -33 -112t-98 -33q-23 0 -47 3v89q12 0 24.5 6t12.5 33v565h141z" />
    <glyph glyph-name="k" unicode="k" 
d="M53 0v722h141v-430h2l127 213h147l-143 -225l159 -280h-159l-131 275h-2v-275h-141z" />
    <glyph glyph-name="l" unicode="l" horiz-adv-x="278" 
d="M209 722v-722h-141v722h141z" />
    <glyph glyph-name="m" unicode="m" horiz-adv-x="722" 
d="M186 454h2q21 34 50 47.5t69 13.5q38 0 67 -17t46 -47q25 33 56 48.5t75 15.5q25 0 48 -7.5t40 -21.5t27.5 -34.5t10.5 -46.5v-405h-141v348q0 34 -9.5 57t-43.5 23t-43.5 -23t-9.5 -57v-348h-138v348q0 34 -9.5 57t-43.5 23t-43.5 -23t-9.5 -57v-348h-141v505h141v-51z
" />
    <glyph glyph-name="n" unicode="n" 
d="M197 454h2q20 33 50 47q28 14 69 14q25 0 48 -7.5t40 -21.5t27.5 -34.5t10.5 -46.5v-405h-141v348q0 34 -9.5 57t-43.5 23t-43.5 -23t-9.5 -57v-348h-141v505h141v-51z" />
    <glyph glyph-name="o" unicode="o" 
d="M250 80q19 0 32 7.5t20 28t10 57t3 94.5q0 39 -1.5 69t-8.5 49.5t-20 29.5t-35 10q-23 0 -35.5 -10t-19.5 -29.5t-8.5 -49.5t-1.5 -69q0 -58 3 -94.5t10 -57t19.5 -28t32.5 -7.5zM250 -10q-68 0 -109 20t-62.5 55.5t-28 85t-6.5 108.5q0 52 6 98.5t27 81.5t62 55.5
t111 20.5t111 -20.5t62 -55.5t27 -81.5t6 -98.5q0 -59 -6.5 -108.5t-28 -85t-62.5 -55.5t-109 -20z" />
    <glyph glyph-name="p" unicode="p" 
d="M254 77q38 0 49 42.5t11 137.5q0 38 -1 69.5t-6.5 54t-17.5 35t-35 12.5q-22 0 -33.5 -12.5t-17 -35t-6 -54t-0.5 -69.5q0 -95 10.5 -137.5t46.5 -42.5zM190 505v-56h2q20 37 49 51.5t70 14.5q55 0 83.5 -27t41.5 -67t14.5 -86.5t1.5 -85.5q0 -38 -1.5 -83.5t-14 -84.5
t-41 -65t-81.5 -26q-38 0 -65.5 13t-49.5 45h-2v-265h-141v722h134z" />
    <glyph glyph-name="q" unicode="q" 
d="M246 77q36 0 46.5 42.5t10.5 137.5q0 38 -1 69.5t-6 54t-16.5 35t-33.5 12.5q-23 0 -35 -12.5t-17.5 -35t-6.5 -54t-1 -69.5q0 -95 11 -137.5t49 -42.5zM444 -217h-141v265h-2q-22 -32 -49.5 -45t-65.5 -13q-53 0 -81.5 26t-41 65t-14 84.5t-1.5 83.5q0 39 1.5 85.5
t14 86.5t41.5 67t84 27q41 0 70 -14.5t49 -51.5h2v56h134v-722z" />
    <glyph glyph-name="r" unicode="r" horiz-adv-x="333" 
d="M190 505v-65h2q20 44 54 59.5t77 15.5v-126q-47 3 -72.5 -7.5t-37.5 -28t-14 -38.5t-2 -40v-275h-141v505h134z" />
    <glyph glyph-name="s" unicode="s" horiz-adv-x="444" 
d="M167 162q-1 -17 0.5 -33t6.5 -28q6 -12 18 -18t33 -6t36.5 13t15.5 39q0 27 -18.5 44t-46 31t-59.5 27t-59.5 31t-46 44.5t-18.5 66.5q0 41 18.5 68t47 43.5t64 23.5t69.5 7q36 0 69 -9t57.5 -27.5t38 -48t10.5 -70.5h-138q0 52 -14 65q-7 7 -16 9t-20 2q-23 0 -35.5 -14
t-12.5 -40q0 -20 18.5 -34t46 -27l59.5 -27t59.5 -34t46 -48t18.5 -68q0 -33 -13 -61t-37.5 -49t-59.5 -32.5t-79 -11.5q-46 0 -83.5 7t-64 26t-39.5 52.5t-10 86.5h138z" />
    <glyph glyph-name="t" unicode="t" horiz-adv-x="278" 
d="M-1 505h57v80l141 63v-143h73v-87h-73v-270q0 -14 0.5 -26t4.5 -20t13.5 -12.5t26.5 -4.5h13q7 0 12 2v-87q-14 -2 -30.5 -3.5t-42.5 -1.5q-46 0 -73 13t-41.5 31t-19 37t-4.5 31v311h-57v87z" />
    <glyph glyph-name="u" unicode="u" 
d="M303 51h-2q-21 -34 -50 -47.5t-69 -13.5q-25 0 -48 7.5t-40 21.5t-27.5 34.5t-10.5 46.5v405h141v-350q0 -34 9.5 -56t43.5 -22t43.5 22t9.5 56v350h141v-405q0 -25 1.5 -50t3.5 -50h-146v51z" />
    <glyph glyph-name="v" unicode="v" horiz-adv-x="444" 
d="M8 505h143l71 -379h2l74 379h138l-139 -505h-155z" />
    <glyph glyph-name="w" unicode="w" horiz-adv-x="778" 
d="M11 505h140l69 -380h2l97 380h146l89 -380h2l76 380h135l-137 -505h-148l-91 345h-2l-102 -345h-150z" />
    <glyph glyph-name="x" unicode="x" 
d="M145 0h-140l149 265l-137 240h158l74 -153l85 153h141l-135 -242l145 -263h-159l-88 177z" />
    <glyph glyph-name="y" unicode="y" horiz-adv-x="444" 
d="M146 -4l-137 509h140l72 -355h2l76 355h136l-195 -696h-148z" />
    <glyph glyph-name="z" unicode="z" horiz-adv-x="389" 
d="M363 405l-201 -315h204v-90h-343v100l198 315h-191v90h333v-100z" />
    <glyph glyph-name="braceleft" unicode="{" horiz-adv-x="274" 
d="M50 625q0 66 25.5 98t90.5 32h74v-79q-25 0 -40.5 -9.5t-24 -24.5t-11.5 -35t-3 -41v-112q0 -53 -15.5 -84t-66.5 -42v-2q27 -4 43 -16.5t24.5 -31t11.5 -41t3 -46.5v-124q0 -19 3 -38.5t11.5 -35t24 -25.5t40.5 -10v-79h-65q-38 0 -62.5 9t-38.5 27.5t-19 46.5t-5 65
v156q0 22 -4 40t-13.5 31.5t-25 21t-39.5 7.5v87q24 0 39.5 8.5t25 23t13.5 32.5t4 37v154z" />
    <glyph glyph-name="bar" unicode="|" horiz-adv-x="250" 
d="M69 750h111v-1000h-111v1000z" />
    <glyph glyph-name="braceright" unicode="}" horiz-adv-x="274" 
d="M229 471q0 -19 4 -37t13.5 -32.5t25 -23t39.5 -8.5v-87q-24 0 -39.5 -7.5t-25 -21t-13.5 -31.5t-4 -40v-156q0 -37 -5 -65t-19 -46.5t-38.5 -27.5t-62.5 -9h-65v79q25 0 40.5 10t24 25.5t11.5 35t3 38.5v124q0 24 3 46.5t11.5 41t24.5 31t43 16.5v2q-51 11 -66.5 42
t-15.5 84v112q0 21 -3 41t-11.5 35t-24 24.5t-40.5 9.5v79h74q65 0 90.5 -32t25.5 -98v-154z" />
    <glyph glyph-name="asciitilde" unicode="~" 
d="M475 283l-24 -41t-27 -38t-34 -27.5t-44 -10.5q-23 0 -50 10.5t-53.5 22.5l-48.5 22.5t-34 10.5q-15 0 -26.5 -8t-20.5 -20t-16 -26.5t-14 -27.5l-58 74q11 21 24 43t29.5 40t36.5 29.5t44 11.5t50.5 -10.5t51.5 -22.5l47 -22.5t38 -10.5q14 0 24.5 7.5t18.5 18.5t15 24
t14 24z" />
    <glyph glyph-name="exclamdown" unicode="&#xa1;" horiz-adv-x="333" 
d="M226 395h-120v120h120v-120zM236 -207h-140l22 529h96z" />
    <glyph glyph-name="cent" unicode="&#xa2;" horiz-adv-x="444" 
d="M244 422q-9 3 -22 3q-23 0 -35.5 -10t-19.5 -29.5t-8.5 -49.5t-1.5 -69v-29h2zM165 137q6 -32 19.5 -44t37.5 -12q33 0 49 29t16 79h141q0 -103 -53 -150.5t-153 -47.5q-75 0 -115 24l-39 -78l-44 24l43 84q-32 35 -41.5 90.5t-9.5 123.5q0 52 6 98.5t27 81.5t62 55.5
t111 20.5q35 0 62 -6l38 82l44 -22l-35 -75q95 -38 95 -169h-141q0 36 -6 57z" />
    <glyph glyph-name="sterling" unicode="&#xa3;" horiz-adv-x="444" 
d="M199 332v-230h220v-102h-417v102h56v230h-58v102h58v87q0 92 44.5 139t138.5 47q100 0 142 -46t41 -135h-118q0 14 -2.5 28t-8.5 25.5t-16 18.5t-25 7q-30 0 -42.5 -23t-12.5 -55v-93h119v-102h-119z" />
    <glyph glyph-name="fraction" unicode="&#x2044;" horiz-adv-x="167" 
d="M-18 -28h-62l263 761h65z" />
    <glyph glyph-name="fraction" unicode="&#x2215;" horiz-adv-x="167" 
d="M-18 -28h-62l263 761h65z" />
    <glyph glyph-name="yen" unicode="&#xa5;" horiz-adv-x="444" 
d="M10 187h135v79h-135v90h103l-153 342h164l100 -271l106 271h153l-163 -342h114v-90h-148v-79h148v-90h-148v-97h-141v97h-135v90z" />
    <glyph glyph-name="florin" unicode="&#x192;" horiz-adv-x="444" 
d="M83 366l15 87h67q7 49 14.5 95t26.5 81.5t56.5 56.5t105.5 21q26 0 59 -3l-19 -106q-14 7 -28 7q-26 0 -38 -18t-17.5 -42.5t-8 -50.5t-7.5 -41h81l-14 -87h-80l-56 -370q-7 -47 -24 -78.5t-41 -50t-53.5 -26.5t-61.5 -8q-20 0 -35 0.5t-26 3.5l17 101q7 -3 16 -3
q17 0 28 6.5t18 17.5t11 24.5t6 28.5l54 354h-66z" />
    <glyph glyph-name="section" unicode="&#xa7;" horiz-adv-x="444" 
d="M229 291q11 6 23 13.5t21.5 16.5t16 20t6.5 25q0 16 -7 27t-18 19t-24.5 13l-27.5 10q-6 -2 -18 -7t-24 -13t-21 -20t-9 -28q0 -15 8 -27.5t20.5 -21.5t27 -16t26.5 -11zM391 591q-32 14 -70 27.5t-74 13.5q-20 0 -39 -9t-19 -33q0 -19 17 -31.5t42 -23l54.5 -22
t54.5 -28.5t42 -42.5t17 -64.5q0 -45 -26 -76.5t-62 -52.5q37 -17 57.5 -44t20.5 -69q0 -45 -19.5 -73.5t-50.5 -45t-68.5 -23t-74.5 -6.5q-45 0 -88 9.5t-68 19.5v117q36 -16 74.5 -30t79.5 -14q25 0 44.5 10t19.5 39q0 19 -17 31t-42 22t-55 20.5t-55 27t-42 42t-17 65.5
q0 44 28.5 77t66.5 51q-39 23 -56.5 50t-17.5 72q0 28 11.5 53t35 43.5t59 29.5t83.5 11q40 0 78.5 -9t75.5 -22v-112z" />
    <glyph glyph-name="currency" unicode="&#xa4;" horiz-adv-x="444" 
d="M223 447q-27 0 -48.5 -12.5t-37 -32t-24 -44t-8.5 -48.5t8.5 -49t24 -45t37 -32.5t48.5 -12.5t48.5 12.5t37 32.5t23.5 45t8 49t-8 48.5t-23.5 44t-37 32t-48.5 12.5zM22 181q-17 32 -26 61t-9 67q0 37 8.5 67.5t26.5 61.5l-42 42l76 80l42 -43q27 17 59.5 27.5
t63.5 10.5q33 0 65.5 -10t61.5 -28l43 43l72 -80l-41 -42q18 -30 27 -61t9 -67q0 -34 -8.5 -67.5t-27.5 -61.5l41 -44l-72 -79l-43 43q-29 -17 -59.5 -27.5t-63.5 -10.5q-69 0 -127 38l-42 -43l-76 79z" />
    <glyph glyph-name="quotesingle" unicode="'" horiz-adv-x="250" 
d="M65 463v259h120v-259h-120z" />
    <glyph glyph-name="quotedblleft" unicode="&#x201c;" horiz-adv-x="444" 
d="M182 525h-134l73 197h96zM360 525h-134l73 197h96z" />
    <glyph glyph-name="guillemotleft" unicode="&#xab;" horiz-adv-x="444" 
d="M207 272l92 192h116l-88 -192l86 -197h-115zM29 272l92 192h116l-88 -192l86 -197h-115z" />
    <glyph glyph-name="guilsinglleft" unicode="&#x2039;" horiz-adv-x="222" 
d="M7 272l92 192h116l-88 -192l86 -197h-115z" />
    <glyph glyph-name="guilsinglright" unicode="&#x203a;" horiz-adv-x="222" 
d="M215 267l-92 -192h-116l88 192l-86 197h115z" />
    <glyph glyph-name="fi" unicode="&#xfb01;" 
d="M444 722v-111h-141v111h141zM444 0h-141v505h141v-505zM273 635q-43 3 -56 -14t-13 -55v-61h66v-87h-66v-418h-141v418h-63v87h64q0 54 0.5 95.5t14 69.5t46.5 42.5t98 14.5q13 0 25 -0.5t25 -1.5v-90z" />
    <glyph glyph-name="fl" unicode="&#xfb02;" 
d="M444 722v-722h-141v722h141zM273 635q-43 3 -56 -14t-13 -55v-61h66v-87h-66v-418h-141v418h-63v87h64q0 54 0.5 95.5t14 69.5t46.5 42.5t98 14.5q13 0 25 -0.5t25 -1.5v-90z" />
    <glyph glyph-name="endash" unicode="&#x2013;" 
d="M500 230h-500v79h500v-79z" />
    <glyph glyph-name="dagger" unicode="&#x2020;" horiz-adv-x="444" 
d="M162 568v154h120v-154h157v-97h-157v-471h-120v471h-157v97h157z" />
    <glyph glyph-name="daggerdbl" unicode="&#x2021;" horiz-adv-x="444" 
d="M162 148h-157v97h157v232h-157v97h157v148h120v-148h157v-97h-157v-232h157v-97h-157v-148h-120v148z" />
    <glyph glyph-name="periodcentered" unicode="&#xb7;" horiz-adv-x="222" 
d="M171 289v-132h-120v132h120z" />
    <glyph glyph-name="periodcentered" unicode="&#x2219;" horiz-adv-x="222" 
d="M171 289v-132h-120v132h120z" />
    <glyph glyph-name="paragraph" unicode="&#xb6;" horiz-adv-x="550" 
d="M365 602h-68v-698h-120v469q-78 0 -117.5 48t-39.5 123q0 51 13.5 85t39.5 54.5t63 29.5t84 9h309v-120h-44v-698h-120v698z" />
    <glyph glyph-name="bullet" unicode="&#x2022;" horiz-adv-x="420" 
d="M390 361q0 -37 -14 -70t-38 -57.5t-57 -38.5t-71 -14t-71 14t-57 38.5t-38 57.5t-14 70t14 70t38 57.5t57 38.5t71 14t71 -14t57 -38.5t38 -57.5t14 -70z" />
    <glyph glyph-name="quotesinglbase" unicode="&#x201a;" horiz-adv-x="222" 
d="M61 100h134l-73 -197h-96z" />
    <glyph glyph-name="quotedblbase" unicode="&#x201e;" horiz-adv-x="444" 
d="M261 100h134l-73 -197h-96zM83 100h134l-73 -197h-96z" />
    <glyph glyph-name="quotedblright" unicode="&#x201d;" horiz-adv-x="444" 
d="M261 722h134l-73 -197h-96zM83 722h134l-73 -197h-96z" />
    <glyph glyph-name="guillemotright" unicode="&#xbb;" horiz-adv-x="444" 
d="M237 267l-92 -192h-116l88 192l-86 197h115zM415 267l-92 -192h-116l88 192l-86 197h115z" />
    <glyph glyph-name="ellipsis" unicode="&#x2026;" horiz-adv-x="1000" 
d="M560 132v-132h-120v132h120zM893 132v-132h-120v132h120zM227 132v-132h-120v132h120z" />
    <glyph glyph-name="perthousand" unicode="&#x2030;" horiz-adv-x="1000" 
d="M186 433q15 0 23.5 7.5t12.5 23t5 40t1 58.5q0 12 -0.5 27t-4 29t-12.5 23.5t-25 9.5q-17 0 -25.5 -9.5t-12 -23.5t-4 -29t-0.5 -27q0 -34 1 -58.5t5 -40t12.5 -23t23.5 -7.5zM517 44q15 0 23.5 7.5t12.5 23t5 40t1 58.5q0 12 -0.5 27t-4 29t-12.5 23.5t-25 9.5
q-17 0 -25.5 -9.5t-12 -23.5t-4 -29t-0.5 -27q0 -34 1 -58.5t5 -40t12.5 -23t23.5 -7.5zM814 44q15 0 23.5 7.5t12.5 23t5 40t1 58.5q0 12 -0.5 27t-4 29t-12.5 23.5t-25 9.5q-17 0 -25.5 -9.5t-12 -23.5t-4 -29t-0.5 -27q0 -34 1 -58.5t5 -40t12.5 -23t23.5 -7.5zM186 707
q39 0 62 -14t36 -37.5t17 -53.5t4 -62q0 -34 -3 -63.5t-15 -51.5t-36 -35t-65 -13t-65 13t-36 35t-15 51.5t-3 63.5q0 32 4 62t17 53.5t36 37.5t62 14zM517 318q39 0 62 -14t36 -37.5t17 -53.5t4 -62q0 -34 -3 -63.5t-15 -51.5t-36 -35t-65 -13t-65 13t-36 35t-15 51.5
t-3 63.5q0 32 4 62t17 53.5t36 37.5t62 14zM814 318q39 0 62 -14t36 -37.5t17 -53.5t4 -62q0 -34 -3 -63.5t-15 -51.5t-36 -35t-65 -13t-65 13t-36 35t-15 51.5t-3 63.5q0 32 4 62t17 53.5t36 37.5t62 14zM480 750h86l-339 -795h-85z" />
    <glyph glyph-name="questiondown" unicode="&#xbf;" horiz-adv-x="444" 
d="M289 515v-120h-120v120h120zM282 322v-103q0 -33 -17 -66t-37 -66t-36.5 -66t-16.5 -66q0 -30 11.5 -51t46.5 -21q20 0 31 9.5t16 24.5t6 33.5t1 35.5h120q0 -27 -2.5 -62t-20 -67t-55.5 -54t-110 -22q-38 0 -71.5 10.5t-58 31t-38.5 51t-14 70.5q0 62 22 104.5t49 74.5
l26 31.5t23 30.5t16 31t6 34v72h103z" />
    <glyph glyph-name="grave" unicode="`" horiz-adv-x="278" 
d="M135 722l90 -143h-65l-160 143h135z" />
    <glyph glyph-name="acute" unicode="&#xb4;" horiz-adv-x="278" 
d="M278 722l-160 -143h-65l90 143h135z" />
    <glyph glyph-name="circumflex" unicode="&#x2c6;" horiz-adv-x="278" 
d="M138 668l-71 -89h-91l106 143h111l108 -143h-93z" />
    <glyph glyph-name="tilde" unicode="&#x2dc;" horiz-adv-x="278" 
d="M314 707q-4 -23 -11.5 -44t-20.5 -38q-12 -17 -30 -30.5t-43 -13.5q-21 0 -41 6.5t-39 16.5t-36.5 15.5t-33.5 5.5q-19 0 -27.5 -14t-11.5 -30h-59q3 20 10.5 42.5t20.5 41t31.5 30.5t41.5 12q22 0 42 -9l38 -17l34 -15t28 -7q21 0 32.5 12.5t13.5 35.5h61z" />
    <glyph glyph-name="macron" unicode="&#xaf;" horiz-adv-x="278" 
d="M-6 677h289v-72h-289v72z" />
    <glyph glyph-name="macron" unicode="&#x2c9;" horiz-adv-x="278" 
d="M-6 677h289v-72h-289v72z" />
    <glyph glyph-name="breve" unicode="&#x2d8;" horiz-adv-x="278" 
d="M35 722q8 -43 37.5 -58.5t69.5 -15.5q39 0 65.5 17t35.5 57h57q-7 -71 -52 -108.5t-114 -37.5t-110 38t-46 108h57z" />
    <glyph glyph-name="dotaccent" unicode="&#x2d9;" horiz-adv-x="278" 
d="M194 698v-108h-111v108h111z" />
    <glyph glyph-name="dieresis" unicode="&#xa8;" horiz-adv-x="278" 
d="M106 698v-108h-111v108h111zM283 698v-108h-111v108h111z" />
    <glyph glyph-name="ring" unicode="&#x2da;" horiz-adv-x="278" 
d="M80 648q0 -25 17 -42t42 -17q24 0 41.5 17t17.5 42q0 24 -17.5 41.5t-41.5 17.5q-25 0 -42 -17.5t-17 -41.5zM243 648q0 -21 -8 -40t-22.5 -33.5t-33.5 -22.5t-40 -8t-40 8t-33.5 22.5t-22.5 33.5t-8 40t8 40t22.5 33t33.5 22.5t40 8.5t40 -8.5t33.5 -22.5t22.5 -33
t8 -40z" />
    <glyph glyph-name="cedilla" unicode="&#xb8;" horiz-adv-x="278" 
d="M35 -160q16 -6 32 -11t33 -5q10 0 21 2t20 6.5t14.5 12.5t5.5 20q0 15 -10 23t-23.5 10.5t-28 0.5t-24.5 -6l-22 19l66 88h49l-44 -58l2 -2q5 2 10.5 3t11.5 1q17 0 33.5 -4.5t29.5 -14t21 -23.5t8 -33q0 -25 -10.5 -43t-28 -29.5t-39 -17t-43.5 -5.5q-26 0 -52.5 7.5
t-50.5 18.5z" />
    <glyph glyph-name="hungarumlaut" unicode="&#x2dd;" horiz-adv-x="445" 
d="M445 722l-160 -143h-65l90 143h135zM278 722l-160 -143h-65l90 143h135z" />
    <glyph glyph-name="ogonek" unicode="&#x2db;" horiz-adv-x="278" 
d="M190 2v-4q-14 -6 -28 -14t-25.5 -18.5t-19 -22.5t-7.5 -25q0 -21 12.5 -28.5t32.5 -7.5q17 0 38.5 5t40.5 11v-50q-24 -11 -47 -18.5t-61 -7.5q-44 0 -75 16t-31 59q0 21 9 38.5t22 31t27 22t24 11.5z" />
    <glyph glyph-name="caron" unicode="&#x2c7;" horiz-adv-x="278" 
d="M208 722h93l-108 -143h-111l-106 143h91l71 -89z" />
    <glyph glyph-name="emdash" unicode="&#x2014;" horiz-adv-x="1000" 
d="M0 309h1000v-79h-1000v79z" />
    <glyph glyph-name="AE" unicode="&#xc6;" horiz-adv-x="833" 
d="M409 271l-62 356h-2l-105 -356h169zM8 0l238 722h537v-111h-289l33 -178h242v-111h-223l40 -211h216v-111h-346l-27 160h-225l-48 -160h-148z" />
    <glyph glyph-name="ordfeminine" unicode="&#xaa;" horiz-adv-x="300" 
d="M185 571q-17 0 -31.5 -1t-25 -5.5t-16.5 -15t-6 -30.5q0 -8 1 -16.5t4.5 -16t10 -12t17.5 -4.5q20 0 30 11t13.5 27t3 33.5t-0.5 29.5zM190 465h-2q-29 -47 -85 -47q-48 0 -67.5 29t-19.5 69q0 37 14.5 58t38 31t54 11.5t62.5 1.5v24q0 20 -6 32.5t-31 12.5
q-24 0 -29 -14.5t-5 -32.5h-90q0 28 8.5 45.5t24.5 28.5t38 15.5t48 4.5q43 0 69.5 -8t40 -22t18 -32t4.5 -39v-152q0 -14 1 -28t3 -28h-85z" />
    <glyph glyph-name="Oslash" unicode="&#xd8;" horiz-adv-x="611" 
d="M221 175q9 -41 29 -60t55 -19q32 0 51 15.5t29 47.5t13 82.5t3 119.5v43t-1 36h-2zM389 540q-8 45 -27.5 65.5t-56.5 20.5q-32 0 -51 -15.5t-29 -47.5t-13 -82.5t-3 -119.5v-47t1 -39h2zM80 -35l-52 37l63 94q-26 53 -30.5 122t-4.5 143q0 72 4 139t27 119t74 83.5
t144 31.5q65 0 108 -15.5t69 -41.5l53 78l52 -36l-66 -98q25 -52 29 -119.5t4 -140.5q0 -71 -4 -138t-27 -119.5t-74 -84t-144 -31.5q-61 0 -103 14t-70 40z" />
    <glyph glyph-name="OE" unicode="&#x152;" horiz-adv-x="833" 
d="M417 611h-87q-37 0 -61.5 -9t-38.5 -34.5t-20 -71.5t-6 -120q0 -64 2 -113.5t12 -83t31.5 -51t61.5 -17.5h106v500zM286 0q-60 0 -100.5 16t-66 44t-38.5 65t-18.5 80t-6 89t-0.5 91q0 88 9 151.5t36 105t77 61t133 19.5h490v-111h-243v-178h224v-111h-224v-211h251v-111
h-523z" />
    <glyph glyph-name="ordmasculine" unicode="&#xba;" horiz-adv-x="300" 
d="M150 472q13 0 21 4.5t12.5 17.5t6.5 34.5t2 56.5q0 48 -6.5 71.5t-35.5 23.5t-35.5 -23.5t-6.5 -71.5q0 -35 2 -56.5t6.5 -34.5t12.5 -17.5t21 -4.5zM150 418q-44 0 -70.5 12t-40.5 33.5t-18.5 51.5t-4.5 65q0 31 4 59t17.5 49t40.5 33.5t72 12.5t72 -12.5t40.5 -33.5
t17.5 -49t4 -59q0 -35 -4.5 -65t-18.5 -51.5t-40.5 -33.5t-70.5 -12z" />
    <glyph glyph-name="ae" unicode="&#xe6;" horiz-adv-x="778" 
d="M595 314q0 16 -0.5 37.5t-6.5 40t-19.5 31.5t-38.5 13q-26 0 -40 -13.5t-20.5 -33t-7.5 -40.5t-1 -35h134zM243 80q35 0 52 15.5t23 38.5t5.5 50.5t-0.5 50.5q-35 2 -62 1t-45 -9.5t-27.5 -27.5t-9.5 -54q0 -30 16 -47.5t48 -17.5zM461 235q0 -24 1.5 -51.5t8 -50.5
t20.5 -38t39 -15q19 0 30.5 8t18 21t9 29t2.5 32h143q-4 -83 -53.5 -131.5t-149.5 -48.5q-21 0 -44 3.5t-44 13t-38.5 27t-26.5 44.5q-29 -52 -71.5 -70t-97.5 -18q-77 0 -122 39.5t-45 119.5q0 55 18 88.5t53.5 51.5t88.5 22.5t122 2.5q0 21 0.5 43t-4.5 39.5t-19.5 28.5
t-44.5 11q-37 0 -50 -22.5t-13 -55.5h-138q0 48 15.5 78.5t42 48t62.5 24t77 6.5q21 0 43 -3t41.5 -11t35.5 -22t25 -35q25 42 59 56.5t75 14.5q71 0 113 -21.5t63 -59.5t26.5 -89t3.5 -110h-275z" />
    <glyph glyph-name="dotlessi" unicode="&#x131;" horiz-adv-x="278" 
d="M209 0h-141v505h141v-505z" />
    <glyph glyph-name="oslash" unicode="&#xf8;" 
d="M191 143q6 -38 20 -50.5t39 -12.5q19 0 32 7.5t20 28t10 57t3 94.5v17t-1 14zM309 363q-5 32 -18 47t-41 15q-23 0 -35.5 -10t-19.5 -29.5t-8.5 -49.5t-1.5 -69v-32t1 -27zM42 -44l-35 27l69 87q-20 35 -26 83t-6 106q0 52 6 98.5t27 81.5t62 55.5t111 20.5
q51 0 86.5 -11.5t59.5 -32.5l63 78l34 -27l-69 -86q20 -35 26 -80.5t6 -96.5q0 -59 -6.5 -108.5t-28 -85t-62.5 -55.5t-109 -20q-53 0 -88 11.5t-58 32.5z" />
    <glyph glyph-name="oe" unicode="&#x153;" horiz-adv-x="778" 
d="M602 309q0 18 -0.5 39t-6.5 39t-19.5 29.5t-38.5 11.5q-24 0 -37 -12.5t-19 -31t-7 -39t-1 -36.5h129zM250 80q26 0 42 7.5t25 28t12 57t3 94.5q0 39 -2 69t-10 49.5t-24.5 29.5t-45.5 10q-23 0 -35.5 -10t-19.5 -29.5t-8.5 -49.5t-1.5 -69q0 -58 3 -94.5t10 -57
t19.5 -28t32.5 -7.5zM473 230q0 -23 1.5 -49t7.5 -48.5t19 -37.5t36 -15q19 0 30.5 8t18 21t9 29t2.5 32h143q-4 -83 -53.5 -131.5t-149.5 -48.5q-23 0 -44.5 3t-41 12.5t-36 27t-28.5 45.5q-11 -23 -27 -40t-34.5 -27.5t-38 -15.5t-37.5 -5q-68 0 -109 20t-62.5 55.5
t-28 85t-6.5 108.5q0 52 6 98.5t27 81.5t62 55.5t111 20.5q21 0 43.5 -3t43.5 -11t39 -22t30 -37q11 22 26.5 36.5t33.5 22.5t36 11t35 3q71 0 113 -22t63 -60t26.5 -90t3.5 -113h-270z" />
    <glyph glyph-name="germandbls" unicode="&#xdf;" horiz-adv-x="556" 
d="M56 549q0 53 16.5 88.5t46 57t70 30.5t87.5 9q39 0 75.5 -6.5t65 -23.5t45.5 -46t17 -75q0 -41 -14 -63.5t-30 -39.5l-32 -32.5t-15 -41.5t21 -49l47 -50q13 -14 25 -29.5t21.5 -33.5t15.5 -39t6 -46q0 -79 -53.5 -124t-147.5 -45q-17 0 -33 2.5t-33 7.5v103q11 -3 22 -4
t22 -1q16 0 31.5 2t27.5 8t19 17t7 30q0 29 -21 57.5t-47 57.5q-26 30 -47 60.5t-21 63.5q0 28 14.5 45t31.5 34t31 39t14 59q0 32 -15 53t-50 21q-26 0 -42 -10.5t-25 -24t-12 -26.5t-3 -19v-565h-138v549z" />
    <glyph glyph-name="degree" unicode="&#xb0;" horiz-adv-x="400" 
d="M129 557q0 -30 21 -50.5t51 -20.5q29 0 49.5 20.5t20.5 50.5q0 29 -20.5 50t-50.5 21q-29 0 -50.5 -21t-20.5 -50zM350 557q0 -31 -12 -58.5t-32.5 -47.5t-47.5 -32t-58 -12t-58.5 12t-47.5 32t-32 47.5t-12 58.5t11.5 58t32 47.5t48 32.5t58.5 12t58 -12t47.5 -32.5
t32.5 -47.5t12 -58z" />
    <glyph glyph-name="oacute" unicode="&#xf3;" 
d="M389 722l-160 -143h-65l90 143h135zM250 80q19 0 32 7.5t20 28t10 57t3 94.5q0 39 -1.5 69t-8.5 49.5t-20 29.5t-35 10q-23 0 -35.5 -10t-19.5 -29.5t-8.5 -49.5t-1.5 -69q0 -58 3 -94.5t10 -57t19.5 -28t32.5 -7.5zM250 -10q-68 0 -109 20t-62.5 55.5t-28 85t-6.5 108.5
q0 52 6 98.5t27 81.5t62 55.5t111 20.5t111 -20.5t62 -55.5t27 -81.5t6 -98.5q0 -59 -6.5 -108.5t-28 -85t-62.5 -55.5t-109 -20z" />
    <glyph glyph-name="Odieresis" unicode="&#xd6;" horiz-adv-x="611" 
d="M273 915v-108h-111v108h111zM450 915v-108h-111v108h111zM305 96q32 0 51 15.5t29 47.5t13 82.5t3 119.5t-3 119.5t-13 82.5t-29 47.5t-51 15.5t-51 -15.5t-29 -47.5t-13 -82.5t-3 -119.5t3 -119.5t13 -82.5t29 -47.5t51 -15.5zM305 -12q-93 0 -144 31.5t-74 84
t-27 119.5t-4 138q0 72 4 139t27 119t74 83.5t144 31.5t144 -31.5t74 -83.5t27 -119t4 -139q0 -71 -4 -138t-27 -119.5t-74 -84t-144 -31.5z" />
    <glyph glyph-name="odieresis" unicode="&#xf6;" 
d="M217 698v-108h-111v108h111zM394 698v-108h-111v108h111zM250 80q19 0 32 7.5t20 28t10 57t3 94.5q0 39 -1.5 69t-8.5 49.5t-20 29.5t-35 10q-23 0 -35.5 -10t-19.5 -29.5t-8.5 -49.5t-1.5 -69q0 -58 3 -94.5t10 -57t19.5 -28t32.5 -7.5zM250 -10q-68 0 -109 20
t-62.5 55.5t-28 85t-6.5 108.5q0 52 6 98.5t27 81.5t62 55.5t111 20.5t111 -20.5t62 -55.5t27 -81.5t6 -98.5q0 -59 -6.5 -108.5t-28 -85t-62.5 -55.5t-109 -20z" />
    <glyph glyph-name="Ecircumflex" unicode="&#xca;" 
d="M249 885l-71 -89h-91l106 143h111l108 -143h-93zM63 0v722h394v-111h-243v-178h224v-111h-224v-211h251v-111h-402z" />
    <glyph glyph-name="ucircumflex" unicode="&#xfb;" 
d="M249 668l-71 -89h-91l106 143h111l108 -143h-93zM303 51h-2q-22 -34 -50 -47q-28 -14 -69 -14q-25 0 -48 7.5t-40 21.5t-27.5 34.5t-10.5 46.5v405h141v-350q0 -34 9.5 -56t43.5 -22t43.5 22t9.5 56v350h141v-405q0 -25 1.5 -50t3.5 -50h-146v51z" />
    <glyph glyph-name="logicalnot" unicode="&#xac;" 
d="M364 295h-339v111h450v-301h-111v190z" />
    <glyph glyph-name="Edieresis" unicode="&#xcb;" 
d="M394 915v-108h-111v108h111zM217 915v-108h-111v108h111zM63 0v722h394v-111h-243v-178h224v-111h-224v-211h251v-111h-402z" />
    <glyph glyph-name="Otilde" unicode="&#xd5;" horiz-adv-x="611" 
d="M481 924q-4 -23 -11.5 -44t-20.5 -38q-12 -17 -30 -30.5t-43 -13.5q-21 0 -41 6.5t-39 16.5t-36.5 15.5t-33.5 5.5q-19 0 -27.5 -14t-11.5 -30h-59q3 20 10.5 42.5t20.5 41t31.5 30.5t41.5 12q22 0 42 -9l38 -17l34 -15t28 -7q21 0 32.5 12.5t13.5 35.5h61zM305 96
q32 0 51 15.5t29 47.5t13 82.5t3 119.5t-3 119.5t-13 82.5t-29 47.5t-51 15.5t-51 -15.5t-29 -47.5t-13 -82.5t-3 -119.5t3 -119.5t13 -82.5t29 -47.5t51 -15.5zM305 -12q-93 0 -144 31.5t-74 84t-27 119.5t-4 138q0 72 4 139t27 119t74 83.5t144 31.5t144 -31.5t74 -83.5
t27 -119t4 -139q0 -71 -4 -138t-27 -119.5t-74 -84t-144 -31.5z" />
    <glyph glyph-name="uacute" unicode="&#xfa;" 
d="M389 722l-160 -143h-65l90 143h135zM303 51h-2q-22 -34 -50 -47q-28 -14 -69 -14q-25 0 -48 7.5t-40 21.5t-27.5 34.5t-10.5 46.5v405h141v-350q0 -34 9.5 -56t43.5 -22t43.5 22t9.5 56v350h141v-405q0 -25 1.5 -50t3.5 -50h-146v51z" />
    <glyph glyph-name="eacute" unicode="&#xe9;" 
d="M315 309q0 18 -0.5 39t-6.5 39t-19.5 29.5t-38.5 11.5q-24 0 -37 -12.5t-19 -31t-7 -39t-1 -36.5h129zM389 722l-160 -143h-65l90 143h135zM186 230q0 -23 1.5 -49t7.5 -48.5t19 -37.5t36 -15q19 0 30.5 8t18 21t9 29t2.5 32h143q-3 -85 -54 -131q-25 -23 -62 -36
t-87 -13q-68 0 -109 20t-62.5 55.5t-28 85t-6.5 108.5q0 52 6 98.5t27 81.5t62 55.5t111 20.5q71 0 113 -22t63 -60t26.5 -90t3.5 -113h-270z" />
    <glyph glyph-name="iacute" unicode="&#xed;" horiz-adv-x="278" 
d="M278 722l-160 -143h-65l90 143h135zM209 0h-141v505h141v-505z" />
    <glyph glyph-name="icircumflex" unicode="&#xee;" horiz-adv-x="278" 
d="M138 668l-71 -89h-91l106 143h111l108 -143h-93zM209 0h-141v505h141v-505z" />
    <glyph glyph-name="registered" unicode="&#xae;" horiz-adv-x="830" 
d="M369 387h44q15 0 24.5 6t15.5 15.5t8.5 20.5t2.5 22q0 31 -14 44t-37 13h-44v-121zM369 147h-98v433h181q51 0 80.5 -29t29.5 -85q0 -42 -19.5 -70t-67.5 -36v-2q8 0 22 -2.5t28 -10.5t24.5 -25t10.5 -46q0 -11 0.5 -29.5t1.5 -38t3.5 -36t5.5 -23.5h-96q-10 20 -11.5 41
t-1.5 43v36q0 18 -5.5 31t-20 20.5t-42.5 7.5h-25v-179zM416 58q62 0 116.5 24t95.5 65.5t65 96.5t24 118t-24 118t-65 96t-95.5 64.5t-116.5 23.5q-63 0 -118 -23.5t-96.5 -64.5t-65 -96t-23.5 -118t23.5 -118t65 -96.5t96.5 -65.5t118 -24zM416 734q77 0 144.5 -29
t118 -79.5t79.5 -118t29 -145.5t-29 -146t-79.5 -118.5t-118 -80t-144.5 -29.5q-78 0 -146 29.5t-118.5 80t-79.5 118.5t-29 146t29 145.5t79.5 118t118.5 79.5t146 29z" />
    <glyph glyph-name="Atilde" unicode="&#xc3;" horiz-adv-x="611" 
d="M299 583h-2l-69 -312h144zM481 924q-4 -23 -11.5 -44t-20.5 -38q-12 -17 -30 -30.5t-43 -13.5q-21 0 -41 6.5t-39 16.5t-36.5 15.5t-33.5 5.5q-19 0 -27.5 -14t-11.5 -30h-59q3 20 10.5 42.5t20.5 41t31.5 30.5t41.5 12q22 0 42 -9l38 -17l34 -15t28 -7q21 0 32.5 12.5
t13.5 35.5h61zM8 0l200 722h199l196 -722h-159l-40 160h-206l-41 -160h-149z" />
    <glyph glyph-name="Aacute" unicode="&#xc1;" horiz-adv-x="611" 
d="M445 939l-160 -143h-65l90 143h135zM299 583h-2l-69 -312h144zM8 0l200 722h199l196 -722h-159l-40 160h-206l-41 -160h-149z" />
    <glyph glyph-name="Ccedilla" unicode="&#xc7;" horiz-adv-x="556" 
d="M367 494q0 72 -14 102t-48 30q-32 0 -51 -15.5t-29 -47.5t-13 -82.5t-3 -119.5t3 -119.5t13 -82.5t29 -47.5t51 -15.5q26 0 40 15t20 37t7 48t2 47h149q0 -72 -14 -121t-42 -79t-68.5 -42.5t-93.5 -12.5h-7l-35 -46l2 -2q5 2 10.5 3t11.5 1q17 0 33.5 -4.5t29.5 -14
t21 -23.5t8 -33q0 -25 -10.5 -43t-28 -29.5t-39 -17t-43.5 -5.5q-26 0 -52.5 7.5t-50.5 18.5l19 40q16 -6 32 -11t33 -5q10 0 21 2t20 6.5t14.5 12.5t5.5 20q0 15 -10 23t-23.5 10.5t-28 0.5t-24.5 -6l-22 19l60 79q-49 6 -82.5 24t-55.5 44.5t-33.5 60.5t-17 73t-6.5 81.5
t-1 86.5q0 72 4 139t27 119t74 83.5t144 31.5q116 0 165.5 -61.5t44.5 -178.5h-148z" />
    <glyph glyph-name="ntilde" unicode="&#xf1;" 
d="M425 707q-4 -23 -11.5 -44t-20.5 -38q-12 -17 -30 -30.5t-43 -13.5q-21 0 -41 6.5t-39 16.5t-36.5 15.5t-33.5 5.5q-19 0 -27.5 -14t-11.5 -30h-59q3 20 10.5 42.5t20.5 41t31.5 30.5t41.5 12q22 0 42 -9l38 -17l34 -15t28 -7q21 0 32.5 12.5t13.5 35.5h61zM197 454h2
q20 33 50 47q28 14 69 14q25 0 48 -7.5t40 -21.5t27.5 -34.5t10.5 -46.5v-405h-141v348q0 34 -9.5 57t-43.5 23t-43.5 -23t-9.5 -57v-348h-141v505h141v-51z" />
    <glyph glyph-name="Aring" unicode="&#xc5;" horiz-adv-x="611" 
d="M247 865q0 -25 17 -42t42 -17q24 0 41.5 17t17.5 42q0 24 -17.5 41.5t-41.5 17.5q-25 0 -42 -17.5t-17 -41.5zM299 583h-2l-69 -312h144zM410 865q0 -21 -8 -40t-22.5 -33.5t-33.5 -22.5t-40 -8t-40 8t-33.5 22.5t-22.5 33.5t-8 40t8 40t22.5 33t33.5 22.5t40 8.5
t40 -8.5t33.5 -22.5t22.5 -33t8 -40zM8 0l200 722h199l196 -722h-159l-40 160h-206l-41 -160h-149z" />
    <glyph glyph-name="mu" unicode="&#xb5;" 
d="M303 51h-2q-19 -31 -44.5 -45.5t-59.5 -15.5v-181h-141v696h141v-350q0 -34 9.5 -56t43.5 -22t43.5 22t9.5 56v350h141v-505h-141v51z" />
    <glyph glyph-name="mu" unicode="&#x3bc;" 
d="M303 51h-2q-19 -31 -44.5 -45.5t-59.5 -15.5v-181h-141v696h141v-350q0 -34 9.5 -56t43.5 -22t43.5 22t9.5 56v350h141v-505h-141v51z" />
    <glyph glyph-name="Ugrave" unicode="&#xd9;" horiz-adv-x="611" 
d="M302 939l90 -143h-65l-160 143h135zM551 722v-512q0 -41 -12.5 -80.5t-41 -71t-75.5 -51t-116 -19.5q-125 0 -185.5 60t-60.5 162v512h151v-502q0 -67 25.5 -95.5t67.5 -28.5q50 0 73 32t23 92v502h151z" />
    <glyph glyph-name="Egrave" unicode="&#xc8;" 
d="M246 939l90 -143h-65l-160 143h135zM63 0v722h394v-111h-243v-178h224v-111h-224v-211h251v-111h-402z" />
    <glyph glyph-name="otilde" unicode="&#xf5;" 
d="M425 707q-4 -23 -11.5 -44t-20.5 -38q-12 -17 -30 -30.5t-43 -13.5q-21 0 -41 6.5t-39 16.5t-36.5 15.5t-33.5 5.5q-19 0 -27.5 -14t-11.5 -30h-59q3 20 10.5 42.5t20.5 41t31.5 30.5t41.5 12q22 0 42 -9l38 -17l34 -15t28 -7q21 0 32.5 12.5t13.5 35.5h61zM250 80
q19 0 32 7.5t20 28t10 57t3 94.5q0 39 -1.5 69t-8.5 49.5t-20 29.5t-35 10q-23 0 -35.5 -10t-19.5 -29.5t-8.5 -49.5t-1.5 -69q0 -58 3 -94.5t10 -57t19.5 -28t32.5 -7.5zM250 -10q-68 0 -109 20t-62.5 55.5t-28 85t-6.5 108.5q0 52 6 98.5t27 81.5t62 55.5t111 20.5
t111 -20.5t62 -55.5t27 -81.5t6 -98.5q0 -59 -6.5 -108.5t-28 -85t-62.5 -55.5t-109 -20z" />
    <glyph glyph-name="Ntilde" unicode="&#xd1;" horiz-adv-x="667" 
d="M509 924q-4 -23 -11.5 -44t-20.5 -38q-12 -17 -30 -30.5t-43 -13.5q-21 0 -41 6.5t-39 16.5t-36.5 15.5t-33.5 5.5q-19 0 -27.5 -14t-11.5 -30h-59q3 20 10.5 42.5t20.5 41t31.5 30.5t41.5 12q22 0 42 -9l38 -17l34 -15t28 -7q21 0 32.5 12.5t13.5 35.5h61zM64 0v722h204
l192 -500h2v500h141v-722h-199l-197 528h-2v-528h-141z" />
    <glyph glyph-name="Uacute" unicode="&#xda;" horiz-adv-x="611" 
d="M445 939l-160 -143h-65l90 143h135zM551 722v-512q0 -41 -12.5 -80.5t-41 -71t-75.5 -51t-116 -19.5q-125 0 -185.5 60t-60.5 162v512h151v-502q0 -67 25.5 -95.5t67.5 -28.5q50 0 73 32t23 92v502h151z" />
    <glyph glyph-name="Acircumflex" unicode="&#xc2;" horiz-adv-x="611" 
d="M299 583h-2l-69 -312h144zM305 885l-71 -89h-91l106 143h111l108 -143h-93zM8 0l200 722h199l196 -722h-159l-40 160h-206l-41 -160h-149z" />
    <glyph glyph-name="ocircumflex" unicode="&#xf4;" 
d="M249 668l-71 -89h-91l106 143h111l108 -143h-93zM250 80q19 0 32 7.5t20 28t10 57t3 94.5q0 39 -1.5 69t-8.5 49.5t-20 29.5t-35 10q-23 0 -35.5 -10t-19.5 -29.5t-8.5 -49.5t-1.5 -69q0 -58 3 -94.5t10 -57t19.5 -28t32.5 -7.5zM250 -10q-68 0 -109 20t-62.5 55.5
t-28 85t-6.5 108.5q0 52 6 98.5t27 81.5t62 55.5t111 20.5t111 -20.5t62 -55.5t27 -81.5t6 -98.5q0 -59 -6.5 -108.5t-28 -85t-62.5 -55.5t-109 -20z" />
    <glyph glyph-name="ydieresis" unicode="&#xff;" horiz-adv-x="444" 
d="M366 698v-108h-111v108h111zM189 698v-108h-111v108h111zM146 -4l-137 509h140l72 -355h2l76 355h136l-195 -696h-148z" />
    <glyph glyph-name="Eacute" unicode="&#xc9;" 
d="M389 939l-160 -143h-65l90 143h135zM63 0v722h394v-111h-243v-178h224v-111h-224v-211h251v-111h-402z" />
    <glyph glyph-name="Ograve" unicode="&#xd2;" horiz-adv-x="611" 
d="M302 939l90 -143h-65l-160 143h135zM305 96q32 0 51 15.5t29 47.5t13 82.5t3 119.5t-3 119.5t-13 82.5t-29 47.5t-51 15.5t-51 -15.5t-29 -47.5t-13 -82.5t-3 -119.5t3 -119.5t13 -82.5t29 -47.5t51 -15.5zM305 -12q-93 0 -144 31.5t-74 84t-27 119.5t-4 138q0 72 4 139
t27 119t74 83.5t144 31.5t144 -31.5t74 -83.5t27 -119t4 -139q0 -71 -4 -138t-27 -119.5t-74 -84t-144 -31.5z" />
    <glyph glyph-name="acircumflex" unicode="&#xe2;" 
d="M301 244q-26 -1 -48.5 -2t-39 -8.5t-25.5 -25t-9 -51.5q0 -14 1.5 -28t7 -25.5t16 -19t27.5 -7.5q31 0 46 18.5t20 44.5t4.5 54.5t-0.5 49.5zM249 668l-71 -89h-91l106 143h111l108 -143h-93zM439 94q0 -23 2.5 -47t4.5 -47h-131l-6 67h-2q-23 -39 -54.5 -58t-77.5 -19
q-37 0 -62.5 13t-41.5 34.5t-23 51t-7 62.5q0 63 22 98t58.5 51.5t83.5 20t96 2.5v39q0 16 -1.5 29.5t-7.5 23.5t-17.5 15.5t-30.5 5.5q-18 0 -29 -6.5t-16 -17t-6.5 -24.5t-1.5 -29h-138q0 46 13.5 76t38.5 47q24 18 57.5 25.5t74.5 7.5q67 0 107 -13.5t61 -36.5t27.5 -54
t6.5 -65v-252z" />
    <glyph glyph-name="divide" unicode="&#xf7;" 
d="M186 385v120h128v-120h-128zM186 0v120h128v-120h-128zM25 308h450v-111h-450v111z" />
    <glyph glyph-name="ccedilla" unicode="&#xe7;" 
d="M313 325q0 57 -15 78.5t-48 21.5q-23 0 -35.5 -10t-19.5 -29.5t-8.5 -49.5t-1.5 -69q0 -58 3 -94.5t10 -57t19.5 -28t32.5 -7.5q33 0 49 28t16 78h141q0 -97 -47 -143.5t-136 -51.5l-38 -49l2 -2q5 2 10.5 3t11.5 1q17 0 33.5 -4.5t29.5 -14t21 -23.5t8 -33
q0 -25 -10.5 -43t-28 -29.5t-39 -17t-43.5 -5.5q-26 0 -52.5 7.5t-50.5 18.5l19 40q16 -6 32 -11t33 -5q10 0 21 2t20 6.5t14.5 12.5t5.5 20q0 15 -10 23t-23.5 10.5t-28 0.5t-24.5 -6l-22 19l60 80q-59 4 -94.5 25t-54.5 56t-25 82.5t-6 103.5q0 52 6 98.5t27 81.5t62 55.5
t111 20.5q97 0 150.5 -45.5t53.5 -144.5h-141z" />
    <glyph glyph-name="ugrave" unicode="&#xf9;" 
d="M246 722l90 -143h-65l-160 143h135zM303 51h-2q-22 -34 -50 -47q-28 -14 -69 -14q-25 0 -48 7.5t-40 21.5t-27.5 34.5t-10.5 46.5v405h141v-350q0 -34 9.5 -56t43.5 -22t43.5 22t9.5 56v350h141v-405q0 -25 1.5 -50t3.5 -50h-146v51z" />
    <glyph glyph-name="Agrave" unicode="&#xc0;" horiz-adv-x="611" 
d="M302 939l90 -143h-65l-160 143h135zM299 583h-2l-69 -312h144zM8 0l200 722h199l196 -722h-159l-40 160h-206l-41 -160h-149z" />
    <glyph glyph-name="Ucircumflex" unicode="&#xdb;" horiz-adv-x="611" 
d="M305 885l-71 -89h-91l106 143h111l108 -143h-93zM551 722v-512q0 -41 -12.5 -80.5t-41 -71t-75.5 -51t-116 -19.5q-125 0 -185.5 60t-60.5 162v512h151v-502q0 -67 25.5 -95.5t67.5 -28.5q50 0 73 32t23 92v502h151z" />
    <glyph glyph-name="Ydieresis" unicode="&#x178;" horiz-adv-x="556" 
d="M422 915v-108h-111v108h111zM245 915v-108h-111v108h111zM196 250l-189 472h165l108 -305l115 305h154l-202 -472v-250h-151v250z" />
    <glyph glyph-name="Adieresis" unicode="&#xc4;" horiz-adv-x="611" 
d="M273 915v-108h-111v108h111zM450 915v-108h-111v108h111zM299 583h-2l-69 -312h144zM8 0l200 722h199l196 -722h-159l-40 160h-206l-41 -160h-149z" />
    <glyph glyph-name="Icircumflex" unicode="&#xce;" horiz-adv-x="278" 
d="M138 885l-71 -89h-91l106 143h111l108 -143h-93zM63 0v722h151v-722h-151z" />
    <glyph glyph-name="idieresis" unicode="&#xef;" horiz-adv-x="278" 
d="M283 698v-108h-111v108h111zM106 698v-108h-111v108h111zM209 0h-141v505h141v-505z" />
    <glyph glyph-name="Oacute" unicode="&#xd3;" horiz-adv-x="611" 
d="M445 939l-160 -143h-65l90 143h135zM305 96q32 0 51 15.5t29 47.5t13 82.5t3 119.5t-3 119.5t-13 82.5t-29 47.5t-51 15.5t-51 -15.5t-29 -47.5t-13 -82.5t-3 -119.5t3 -119.5t13 -82.5t29 -47.5t51 -15.5zM305 -12q-93 0 -144 31.5t-74 84t-27 119.5t-4 138q0 72 4 139
t27 119t74 83.5t144 31.5t144 -31.5t74 -83.5t27 -119t4 -139q0 -71 -4 -138t-27 -119.5t-74 -84t-144 -31.5z" />
    <glyph glyph-name="aring" unicode="&#xe5;" 
d="M191 648q0 -25 17 -42t42 -17q24 0 41.5 17t17.5 42q0 24 -17.5 41.5t-41.5 17.5q-25 0 -42 -17.5t-17 -41.5zM301 244q-26 -1 -48.5 -2t-39 -8.5t-25.5 -25t-9 -51.5q0 -14 1.5 -28t7 -25.5t16 -19t27.5 -7.5q31 0 46 18.5t20 44.5t4.5 54.5t-0.5 49.5zM354 648
q0 -21 -8 -40t-22.5 -33.5t-33.5 -22.5t-40 -8t-40 8t-33.5 22.5t-22.5 33.5t-8 40t8 40t22.5 33t33.5 22.5t40 8.5t40 -8.5t33.5 -22.5t22.5 -33t8 -40zM439 94q0 -23 2.5 -47t4.5 -47h-131l-6 67h-2q-23 -39 -54.5 -58t-77.5 -19q-37 0 -62.5 13t-41.5 34.5t-23 51
t-7 62.5q0 63 22 98t58.5 51.5t83.5 20t96 2.5v39q0 16 -1.5 29.5t-7.5 23.5t-17.5 15.5t-30.5 5.5q-18 0 -29 -6.5t-16 -17t-6.5 -24.5t-1.5 -29h-138q0 46 13.5 76t38.5 47q24 18 57.5 25.5t74.5 7.5q67 0 107 -13.5t61 -36.5t27.5 -54t6.5 -65v-252z" />
    <glyph glyph-name="trademark" unicode="&#x2122;" horiz-adv-x="860" 
d="M320 722v-72h-111v-361h-96v361h-110v72h317zM820 289h-96v334h-2l-89 -334h-94l-85 334h-2v-334h-96v433h159l73 -295h2l77 295h153v-433z" />
    <glyph glyph-name="ograve" unicode="&#xf2;" 
d="M246 722l90 -143h-65l-160 143h135zM250 80q19 0 32 7.5t20 28t10 57t3 94.5q0 39 -1.5 69t-8.5 49.5t-20 29.5t-35 10q-23 0 -35.5 -10t-19.5 -29.5t-8.5 -49.5t-1.5 -69q0 -58 3 -94.5t10 -57t19.5 -28t32.5 -7.5zM250 -10q-68 0 -109 20t-62.5 55.5t-28 85t-6.5 108.5
q0 52 6 98.5t27 81.5t62 55.5t111 20.5t111 -20.5t62 -55.5t27 -81.5t6 -98.5q0 -59 -6.5 -108.5t-28 -85t-62.5 -55.5t-109 -20z" />
    <glyph glyph-name="udieresis" unicode="&#xfc;" 
d="M394 698v-108h-111v108h111zM217 698v-108h-111v108h111zM303 51h-2q-22 -34 -50 -47q-28 -14 -69 -14q-25 0 -48 7.5t-40 21.5t-27.5 34.5t-10.5 46.5v405h141v-350q0 -34 9.5 -56t43.5 -22t43.5 22t9.5 56v350h141v-405q0 -25 1.5 -50t3.5 -50h-146v51z" />
    <glyph glyph-name="edieresis" unicode="&#xeb;" 
d="M217 698v-108h-111v108h111zM394 698v-108h-111v108h111zM315 309q0 18 -0.5 39t-6.5 39t-19.5 29.5t-38.5 11.5q-24 0 -37 -12.5t-19 -31t-7 -39t-1 -36.5h129zM186 230q0 -23 1.5 -49t7.5 -48.5t19 -37.5t36 -15q19 0 30.5 8t18 21t9 29t2.5 32h143q-3 -85 -54 -131
q-25 -23 -62 -36t-87 -13q-68 0 -109 20t-62.5 55.5t-28 85t-6.5 108.5q0 52 6 98.5t27 81.5t62 55.5t111 20.5q71 0 113 -22t63 -60t26.5 -90t3.5 -113h-270z" />
    <glyph glyph-name="plusminus" unicode="&#xb1;" 
d="M25 99h450v-111h-450v111zM195 515h111v-133h169v-111h-169v-133h-111v133h-170v111h170v133z" />
    <glyph glyph-name="aacute" unicode="&#xe1;" 
d="M389 722l-160 -143h-65l90 143h135zM301 244q-26 -1 -48.5 -2t-39 -8.5t-25.5 -25t-9 -51.5q0 -14 1.5 -28t7 -25.5t16 -19t27.5 -7.5q31 0 46 18.5t20 44.5t4.5 54.5t-0.5 49.5zM439 94q0 -23 2.5 -47t4.5 -47h-131l-6 67h-2q-23 -39 -54.5 -58t-77.5 -19
q-37 0 -62.5 13t-41.5 34.5t-23 51t-7 62.5q0 63 22 98t58.5 51.5t83.5 20t96 2.5v39q0 16 -1.5 29.5t-7.5 23.5t-17.5 15.5t-30.5 5.5q-18 0 -29 -6.5t-16 -17t-6.5 -24.5t-1.5 -29h-138q0 46 13.5 76t38.5 47q24 18 57.5 25.5t74.5 7.5q67 0 107 -13.5t61 -36.5t27.5 -54
t6.5 -65v-252z" />
    <glyph glyph-name="Idieresis" unicode="&#xcf;" horiz-adv-x="278" 
d="M283 915v-108h-111v108h111zM106 915v-108h-111v108h111zM63 0v722h151v-722h-151z" />
    <glyph glyph-name="igrave" unicode="&#xec;" horiz-adv-x="278" 
d="M135 722l90 -143h-65l-160 143h135zM209 0h-141v505h141v-505z" />
    <glyph glyph-name="Iacute" unicode="&#xcd;" horiz-adv-x="278" 
d="M278 939l-160 -143h-65l90 143h135zM63 0v722h151v-722h-151z" />
    <glyph glyph-name="copyright" unicode="&#xa9;" horiz-adv-x="830" 
d="M416 138q-60 0 -93 19t-48 50.5t-17.5 71.5t-2.5 83t2.5 83t17.5 71t48 50t93 19q77 0 109 -37t29 -107h-98q0 44 -11 61t-38 17q-35 0 -44.5 -39t-9.5 -113q0 -51 2 -83t8 -49.5t17 -24t29 -6.5q19 0 29.5 9t15 22t5.5 28t1 28h98q0 -87 -36.5 -120t-105.5 -33zM416 58
q62 0 116.5 24t95.5 65.5t65 96.5t24 118t-24 118t-65 96t-95.5 64.5t-116.5 23.5q-63 0 -118 -23.5t-96.5 -64.5t-65 -96t-23.5 -118t23.5 -118t65 -96.5t96.5 -65.5t118 -24zM416 734q77 0 144.5 -29t118 -79.5t79.5 -118t29 -145.5t-29 -146t-79.5 -118.5t-118 -80
t-144.5 -29.5q-78 0 -146 29.5t-118.5 80t-79.5 118.5t-29 146t29 145.5t79.5 118t118.5 79.5t146 29z" />
    <glyph glyph-name="adieresis" unicode="&#xe4;" 
d="M217 698v-108h-111v108h111zM394 698v-108h-111v108h111zM301 244q-26 -1 -48.5 -2t-39 -8.5t-25.5 -25t-9 -51.5q0 -14 1.5 -28t7 -25.5t16 -19t27.5 -7.5q31 0 46 18.5t20 44.5t4.5 54.5t-0.5 49.5zM439 94q0 -23 2.5 -47t4.5 -47h-131l-6 67h-2q-23 -39 -54.5 -58
t-77.5 -19q-37 0 -62.5 13t-41.5 34.5t-23 51t-7 62.5q0 63 22 98t58.5 51.5t83.5 20t96 2.5v39q0 16 -1.5 29.5t-7.5 23.5t-17.5 15.5t-30.5 5.5q-18 0 -29 -6.5t-16 -17t-6.5 -24.5t-1.5 -29h-138q0 46 13.5 76t38.5 47q24 18 57.5 25.5t74.5 7.5q67 0 107 -13.5t61 -36.5
t27.5 -54t6.5 -65v-252z" />
    <glyph glyph-name="agrave" unicode="&#xe0;" 
d="M246 722l90 -143h-65l-160 143h135zM301 244q-26 -1 -48.5 -2t-39 -8.5t-25.5 -25t-9 -51.5q0 -14 1.5 -28t7 -25.5t16 -19t27.5 -7.5q31 0 46 18.5t20 44.5t4.5 54.5t-0.5 49.5zM439 94q0 -23 2.5 -47t4.5 -47h-131l-6 67h-2q-23 -39 -54.5 -58t-77.5 -19
q-37 0 -62.5 13t-41.5 34.5t-23 51t-7 62.5q0 63 22 98t58.5 51.5t83.5 20t96 2.5v39q0 16 -1.5 29.5t-7.5 23.5t-17.5 15.5t-30.5 5.5q-18 0 -29 -6.5t-16 -17t-6.5 -24.5t-1.5 -29h-138q0 46 13.5 76t38.5 47q24 18 57.5 25.5t74.5 7.5q67 0 107 -13.5t61 -36.5t27.5 -54
t6.5 -65v-252z" />
    <glyph glyph-name="Igrave" unicode="&#xcc;" horiz-adv-x="278" 
d="M135 939l90 -143h-65l-160 143h135zM63 0v722h151v-722h-151z" />
    <glyph glyph-name="Ocircumflex" unicode="&#xd4;" horiz-adv-x="611" 
d="M305 885l-71 -89h-91l106 143h111l108 -143h-93zM305 96q32 0 51 15.5t29 47.5t13 82.5t3 119.5t-3 119.5t-13 82.5t-29 47.5t-51 15.5t-51 -15.5t-29 -47.5t-13 -82.5t-3 -119.5t3 -119.5t13 -82.5t29 -47.5t51 -15.5zM305 -12q-93 0 -144 31.5t-74 84t-27 119.5t-4 138
q0 72 4 139t27 119t74 83.5t144 31.5t144 -31.5t74 -83.5t27 -119t4 -139q0 -71 -4 -138t-27 -119.5t-74 -84t-144 -31.5z" />
    <glyph glyph-name="egrave" unicode="&#xe8;" 
d="M315 309q0 18 -0.5 39t-6.5 39t-19.5 29.5t-38.5 11.5q-24 0 -37 -12.5t-19 -31t-7 -39t-1 -36.5h129zM246 722l90 -143h-65l-160 143h135zM186 230q0 -23 1.5 -49t7.5 -48.5t19 -37.5t36 -15q19 0 30.5 8t18 21t9 29t2.5 32h143q-3 -85 -54 -131q-25 -23 -62 -36
t-87 -13q-68 0 -109 20t-62.5 55.5t-28 85t-6.5 108.5q0 52 6 98.5t27 81.5t62 55.5t111 20.5q71 0 113 -22t63 -60t26.5 -90t3.5 -113h-270z" />
    <glyph glyph-name="atilde" unicode="&#xe3;" 
d="M301 244q-26 -1 -48.5 -2t-39 -8.5t-25.5 -25t-9 -51.5q0 -14 1.5 -28t7 -25.5t16 -19t27.5 -7.5q31 0 46 18.5t20 44.5t4.5 54.5t-0.5 49.5zM425 707q-4 -23 -11.5 -44t-20.5 -38q-12 -17 -30 -30.5t-43 -13.5q-21 0 -41 6.5t-39 16.5t-36.5 15.5t-33.5 5.5
q-19 0 -27.5 -14t-11.5 -30h-59q3 20 10.5 42.5t20.5 41t31.5 30.5t41.5 12q22 0 42 -9l38 -17l34 -15t28 -7q21 0 32.5 12.5t13.5 35.5h61zM439 94q0 -23 2.5 -47t4.5 -47h-131l-6 67h-2q-23 -39 -54.5 -58t-77.5 -19q-37 0 -62.5 13t-41.5 34.5t-23 51t-7 62.5q0 63 22 98
t58.5 51.5t83.5 20t96 2.5v39q0 16 -1.5 29.5t-7.5 23.5t-17.5 15.5t-30.5 5.5q-18 0 -29 -6.5t-16 -17t-6.5 -24.5t-1.5 -29h-138q0 46 13.5 76t38.5 47q24 18 57.5 25.5t74.5 7.5q67 0 107 -13.5t61 -36.5t27.5 -54t6.5 -65v-252z" />
    <glyph glyph-name="Udieresis" unicode="&#xdc;" horiz-adv-x="611" 
d="M450 915v-108h-111v108h111zM273 915v-108h-111v108h111zM551 722v-512q0 -41 -12.5 -80.5t-41 -71t-75.5 -51t-116 -19.5q-125 0 -185.5 60t-60.5 162v512h151v-502q0 -67 25.5 -95.5t67.5 -28.5q50 0 73 32t23 92v502h151z" />
    <glyph glyph-name="ecircumflex" unicode="&#xea;" 
d="M315 309q0 18 -0.5 39t-6.5 39t-19.5 29.5t-38.5 11.5q-24 0 -37 -12.5t-19 -31t-7 -39t-1 -36.5h129zM249 668l-71 -89h-91l106 143h111l108 -143h-93zM186 230q0 -23 1.5 -49t7.5 -48.5t19 -37.5t36 -15q19 0 30.5 8t18 21t9 29t2.5 32h143q-3 -85 -54 -131
q-25 -23 -62 -36t-87 -13q-68 0 -109 20t-62.5 55.5t-28 85t-6.5 108.5q0 52 6 98.5t27 81.5t62 55.5t111 20.5q71 0 113 -22t63 -60t26.5 -90t3.5 -113h-270z" />
    <glyph glyph-name="space" unicode=" " horiz-adv-x="222" 
 />
    <glyph glyph-name="space" unicode="&#xa0;" horiz-adv-x="222" 
 />
    <glyph glyph-name="Lslash" unicode="&#x141;" horiz-adv-x="444" 
d="M64 282l-54 -31l-40 69l94 55v347h151v-260l93 53l40 -69l-133 -77v-249h226v-120h-377v282z" />
    <glyph glyph-name="lslash" unicode="&#x142;" horiz-adv-x="278" 
d="M68 300l-71 -41l-40 69l111 64v330h141v-249l72 42l40 -70l-112 -64v-381h-141v300z" />
    <glyph glyph-name="onesuperior" unicode="&#xb9;" horiz-adv-x="266" 
d="M25 637q25 13 48 29t40 41h87v-424h-98v322q-17 -14 -37 -25l-40 -21v78z" />
    <glyph glyph-name="minus" unicode="&#x2212;" 
d="M25 308h450v-111h-450v111z" />
    <glyph glyph-name="onequarter" unicode="&#xbc;" horiz-adv-x="666" 
d="M514 160l6 200h-2l-82 -200h78zM25 637q25 13 48 29t40 41h87v-424h-98v322q-17 -14 -37 -25l-40 -21v78zM202 -28h-62l263 761h65zM506 0v95h-140v85l63 137l32.5 70.5l12.5 27l2 4.5h120v-259h36v-65h-36v-95h-90z" />
    <glyph glyph-name="onehalf" unicode="&#xbd;" horiz-adv-x="666" 
d="M25 637q25 13 48 29t40 41h87v-424h-98v322q-17 -14 -37 -25l-40 -21v78zM197 -28h-62l263 761h65zM651 65v-65h-269v74l87.5 105.5t52.5 64.5t26 41.5t7 36.5q0 16 -7.5 26.5t-27.5 10.5q-14 0 -22 -5t-11.5 -13t-4.5 -18t-1 -20h-92q-4 58 29 90q33 31 96 31
q59 0 95.5 -24.5t36.5 -83.5q0 -35 -19 -71.5t-46 -70.5t-55.5 -62l-47.5 -47h173z" />
    <glyph glyph-name="Eth" unicode="&#xd0;" horiz-adv-x="611" 
d="M217 111h73q34 0 55.5 13.5t33.5 43.5t16.5 77.5t4.5 115.5q0 50 -1.5 95t-11.5 79.5t-31.5 55t-60.5 20.5h-78v-178h97v-79h-97v-243zM66 354h-59v79h59v289h252q74 0 120 -24t71.5 -70t34.5 -112.5t9 -150.5v-66q0 -37 -5 -78t-18.5 -80.5t-40.5 -70.5t-70 -50.5
t-107 -19.5h-246v354z" />
    <glyph glyph-name="brokenbar" unicode="&#xa6;" horiz-adv-x="250" 
d="M180 325h-111v350h111v-350zM69 175h111v-350h-111v350z" />
    <glyph glyph-name="thorn" unicode="&#xfe;" 
d="M254 77q38 0 49 42.5t11 137.5q0 38 -1 69.5t-6.5 54t-17.5 35t-35 12.5q-22 0 -33.5 -12.5t-17 -35t-6 -54t-0.5 -69.5q0 -95 10.5 -137.5t46.5 -42.5zM56 722h141v-273h2q14 36 43 51q14 8 31.5 11.5t37.5 3.5q55 0 83.5 -27t41.5 -67t14.5 -86.5t1.5 -85.5
q0 -38 -1.5 -83.5t-14 -84.5t-41 -65t-81.5 -26q-38 0 -65.5 13t-49.5 45h-2v-265h-141v939z" />
    <glyph glyph-name="yacute" unicode="&#xfd;" horiz-adv-x="444" 
d="M361 722l-160 -143h-65l90 143h135zM146 -4l-137 509h140l72 -355h2l76 355h136l-195 -696h-148z" />
    <glyph glyph-name="eth" unicode="&#xf0;" 
d="M185 262q0 -56 3 -91.5t10 -55.5t19.5 -27.5t32.5 -7.5q19 0 32 7.5t20 27.5t10 55.5t3 91.5q0 38 -1.5 66.5t-8.5 48t-20 29t-35 9.5q-23 0 -35.5 -9.5t-19.5 -29t-8.5 -48t-1.5 -66.5zM170 751q13 -4 28.5 -10.5t30.5 -14.5t27.5 -15.5t19.5 -12.5l82 53l37 -37
l-72 -47q36 -42 61.5 -77.5t41.5 -80t23 -104.5t7 -151q0 -58 -6.5 -106.5t-28 -83.5t-62.5 -54.5t-109 -19.5t-109 19.5t-62.5 54.5t-28 83.5t-6.5 106.5q0 51 7.5 96.5t27 80t53.5 54.5t87 20q33 0 54.5 -10t47.5 -36l2 2q-19 48 -49.5 84t-57.5 53l-86 -55l-40 35l77 50
q-12 8 -20.5 13t-16 9t-16 6.5t-20.5 6.5v4z" />
    <glyph glyph-name="Scaron" unicode="&#x160;" horiz-adv-x="556" 
d="M347 939h93l-108 -143h-111l-106 143h91l71 -89zM511 197q0 -70 -23 -111.5t-59.5 -63t-81.5 -28t-88 -6.5q-70 0 -113.5 19t-66.5 51.5t-30 75t-4 89.5h151q0 -26 2 -49t10 -40.5t25.5 -27.5t48.5 -10q38 0 57 22.5t19 59.5q0 32 -22.5 56t-56.5 45.5t-73 43t-73 50
t-56.5 66.5t-22.5 92q0 42 11.5 79t38.5 64.5t73 43.5t115 16q110 0 163.5 -52t46.5 -165h-147q0 20 -2.5 39.5t-10 35t-21 25t-36.5 9.5q-37 0 -57.5 -19.5t-20.5 -57.5q0 -34 22.5 -58t56.5 -44t73 -40.5t73 -48t56.5 -66t22.5 -95.5z" />
    <glyph glyph-name="multiply" unicode="&#xd7;" 
d="M25 400l78 78l147 -147l147 147l78 -78l-147 -147l147 -147l-78 -78l-147 147l-147 -147l-78 78l147 147z" />
    <glyph glyph-name="twosuperior" unicode="&#xb2;" horiz-adv-x="266" 
d="M267 348v-65h-269v74l87.5 105.5t52.5 64.5t26 41.5t7 36.5q0 16 -7.5 26.5t-27.5 10.5q-14 0 -22 -5t-11.5 -13t-4.5 -18t-1 -20h-92q-4 58 29 90q33 31 96 31q59 0 95.5 -24.5t36.5 -83.5q0 -35 -19 -71.5t-46 -70.5t-55.5 -62l-47.5 -47h173z" />
    <glyph glyph-name="zcaron" unicode="&#x17e;" horiz-adv-x="389" 
d="M264 722h93l-108 -143h-111l-106 143h91l71 -89zM363 405l-201 -315h204v-90h-343v100l198 315h-191v90h333v-100z" />
    <glyph glyph-name="Yacute" unicode="&#xdd;" horiz-adv-x="556" 
d="M417 939l-160 -143h-65l90 143h135zM196 250l-189 472h165l108 -305l115 305h154l-202 -472v-250h-151v250z" />
    <glyph glyph-name="threesuperior" unicode="&#xb3;" horiz-adv-x="266" 
d="M5 597q0 63 31 88q16 12 40 17t59 5q63 0 93.5 -26t30.5 -86q0 -15 -3 -30t-10 -28.5t-19 -22.5t-30 -12v-2q22 -3 35.5 -12.5t21 -23t10 -30.5t2.5 -35q0 -66 -36.5 -94.5t-105.5 -28.5q-68 0 -96.5 26.5t-28.5 93.5h92q0 -10 0.5 -20.5t3.5 -19.5q4 -8 12 -13.5
t22 -5.5q16 0 25 6t13.5 16t5.5 21.5t1 22.5q0 23 -4.5 36t-14 19.5t-26 8t-40.5 1.5v66q22 -1 37 0.5t24 8t13 19t4 34.5q0 17 -6 33.5t-29 16.5q-25 0 -30.5 -15.5t-5.5 -33.5h-91z" />
    <glyph glyph-name="Zcaron" unicode="&#x17d;" 
d="M319 939h93l-108 -143h-111l-106 143h91l71 -89zM36 722h435v-131l-304 -480h311v-111h-456v132l303 479h-289v111z" />
    <glyph glyph-name="threequarters" unicode="&#xbe;" horiz-adv-x="666" 
d="M536 160l6 200h-2l-82 -200h78zM244 -28h-62l263 761h65zM7 597q0 63 31 88q16 12 40 17t59 5q63 0 93.5 -26t30.5 -86q0 -15 -3 -30t-10 -28.5t-19 -22.5t-30 -12v-2q22 -3 35.5 -12.5t21 -23t10 -30.5t2.5 -35q0 -66 -36.5 -94.5t-105.5 -28.5q-68 0 -96.5 26.5
t-28.5 93.5h92q0 -10 0.5 -20.5t3.5 -19.5q4 -8 12 -13.5t22 -5.5q16 0 25 6t13.5 16t5.5 21.5t1 22.5q0 23 -4.5 36t-14 19.5t-26 8t-40.5 1.5v66q22 -1 37 0.5t24 8t13 19t4 34.5q0 17 -6 33.5t-29 16.5q-25 0 -30.5 -15.5t-5.5 -33.5h-91zM528 0v95h-140v85l63 137
l32.5 70.5l12.5 27l2 4.5h120v-259h36v-65h-36v-95h-90z" />
    <glyph glyph-name="Euro" unicode="&#x20ac;" horiz-adv-x="444" 
d="M54 307v75h-49l19 82l32 1v21q0 115 48 169t145 54q52 0 87 -12t56.5 -35t31 -58t9.5 -81h-123q0 38 -12 57t-47 19q-41 0 -52.5 -27t-11.5 -74v-33h160l-19 -83h-142v-75h125l-19 -84h-105v-25q0 -57 13 -82t54 -25q35 0 47 18t12 61h121q0 -96 -44 -140.5t-141 -44.5
q-55 0 -92 12.5t-59.5 38.5t-32.5 66t-10 95v26h-50l19 84h30z" />
    <glyph glyph-name="scaron" unicode="&#x161;" horiz-adv-x="444" 
d="M291 722h93l-108 -143h-111l-106 143h91l71 -89zM167 162q-1 -17 0.5 -33t6.5 -28q6 -12 18 -18t33 -6t36.5 13t15.5 39q0 27 -18.5 44t-46 31t-59.5 27t-59.5 31t-46 44.5t-18.5 66.5q0 41 18.5 68t47 43.5t64 23.5t69.5 7q36 0 69 -9t57.5 -27.5t38 -48t10.5 -70.5
h-138q0 52 -14 65q-7 7 -16 9t-20 2q-23 0 -35.5 -14t-12.5 -40q0 -20 18.5 -34t46 -27l59.5 -27t59.5 -34t46 -48t18.5 -68q0 -33 -13 -61t-37.5 -49t-59.5 -32.5t-79 -11.5q-46 0 -83.5 7t-64 26t-39.5 52.5t-10 86.5h138z" />
    <glyph glyph-name="Thorn" unicode="&#xde;" horiz-adv-x="556" 
d="M215 276h84q17 0 31 8.5t24 22t15.5 31t5.5 35.5q0 22 -3.5 42t-13 35t-26 23.5t-41.5 8.5h-76v-206zM64 722h151v-129h121q52 0 88.5 -15t59.5 -43.5t33.5 -68.5t10.5 -89q0 -31 -6.5 -68t-27.5 -69t-61 -53.5t-106 -21.5h-112v-165h-151v722z" />
    <glyph glyph-name="nonbreakingspace" horiz-adv-x="222" 
 />
    </font>
</defs>
</svg>
