<?xml version="1.0" standalone="no"?>
<!DOCTYPE svg PUBLIC "-//W3C//DTD SVG 1.1//EN" "http://www.w3.org/Graphics/SVG/1.1/DTD/svg11.dtd" >
<svg>
<metadata>
Created by FontForge 20090622 at Thu Feb 22 00:04:05 2018
 By deploy user
Copyright &#194;&#169; 2017 by Klarna AB. All rights reserved.
</metadata>
<defs>
<font id="KlarnaHeadline-Bold" horiz-adv-x="0" >
  <font-face 
    font-family="Klarna Headline Bold"
    font-weight="700"
    font-stretch="normal"
    units-per-em="1000"
    panose-1="0 0 8 0 0 0 0 0 0 0"
    ascent="750"
    descent="-250"
    x-height="484"
    cap-height="700"
    bbox="-473 -258 1247 962"
    underline-thickness="100"
    underline-position="-30"
    unicode-range="U+0020-U+2265"
  />
<missing-glyph horiz-adv-x="580" 
d="M150 800h280v-970h-280v970zM404 -146v922h-228v-922h228z" />
    <glyph glyph-name=".notdef" horiz-adv-x="580" 
d="M150 800h280v-970h-280v970zM404 -146v922h-228v-922h228z" />
    <glyph glyph-name="space" unicode=" " horiz-adv-x="250" 
 />
    <glyph glyph-name="A" unicode="A" horiz-adv-x="700" 
d="M542 0l-67 181q-39 -20 -110 -33l-57 -10q-63 -11 -93 -33.5t-50 -75.5l-11 -29h-141l258 700h158l258 -700h-145zM431 301l-83 226l-102 -276q30 9 53 13l41 7q62 11 91 30z" />
    <glyph glyph-name="Aacute" unicode="&#xc1;" horiz-adv-x="700" 
d="M542 0l-67 181q-39 -20 -110 -33l-57 -10q-63 -11 -93 -33.5t-50 -75.5l-11 -29h-141l258 700h158l258 -700h-145zM431 301l-83 226l-102 -276q30 9 53 13l41 7q62 11 91 30zM254 819l176 142l77 -94l-186 -125z" />
    <glyph glyph-name="Abreve" unicode="&#x102;" horiz-adv-x="700" 
d="M542 0l-67 181q-39 -20 -110 -33l-57 -10q-63 -11 -93 -33.5t-50 -75.5l-11 -29h-141l258 700h158l258 -700h-145zM431 301l-83 226l-102 -276q30 9 53 13l41 7q62 11 91 30zM225.5 788q-49.5 44 -51.5 114h95q5 -26 27 -42t54 -16t54 16t27 42h95q-2 -70 -51.5 -114
t-124.5 -44t-124.5 44z" />
    <glyph glyph-name="Acircumflex" unicode="&#xc2;" horiz-adv-x="700" 
d="M542 0l-67 181q-39 -20 -110 -33l-57 -10q-63 -11 -93 -33.5t-50 -75.5l-11 -29h-141l258 700h158l258 -700h-145zM431 301l-83 226l-102 -276q30 9 53 13l41 7q62 11 91 30zM167 815l184 134l184 -134l-61 -73l-123 79l-123 -79z" />
    <glyph glyph-name="Adieresis" unicode="&#xc4;" horiz-adv-x="700" 
d="M542 0l-67 181q-39 -20 -110 -33l-57 -10q-63 -11 -93 -33.5t-50 -75.5l-11 -29h-141l258 700h158l258 -700h-145zM431 301l-83 226l-102 -276q30 9 53 13l41 7q62 11 91 30zM172.5 774q-24.5 25 -24.5 59t25 59t59 25t59 -25t25 -59t-25 -59t-59 -25q-35 0 -59.5 25z
M408.5 774q-24.5 25 -24.5 59t25 59t59 25t59 -25t25 -59t-25 -59t-59 -25q-35 0 -59.5 25z" />
    <glyph glyph-name="Agrave" unicode="&#xc0;" horiz-adv-x="700" 
d="M542 0l-67 181q-39 -20 -110 -33l-57 -10q-63 -11 -93 -33.5t-50 -75.5l-11 -29h-141l258 700h158l258 -700h-145zM431 301l-83 226l-102 -276q30 9 53 13l41 7q62 11 91 30zM193 867l77 94l176 -142l-67 -77z" />
    <glyph glyph-name="Amacron" unicode="&#x100;" horiz-adv-x="700" 
d="M542 0l-67 181q-39 -20 -110 -33l-57 -10q-63 -11 -93 -33.5t-50 -75.5l-11 -29h-141l258 700h158l258 -700h-145zM431 301l-83 226l-102 -276q30 9 53 13l41 7q62 11 91 30zM198 887h303v-110h-303v110z" />
    <glyph glyph-name="Aogonek" unicode="&#x104;" horiz-adv-x="700" 
d="M609.5 -107.5q16.5 -11.5 44.5 -11.5q12 0 28 2v-101q-23 -7 -52 -7q-63 0 -101.5 33t-38.5 86q0 30 13.5 57.5t38.5 48.5l-67 181q-39 -20 -110 -33l-57 -10q-63 -11 -93 -33.5t-50 -75.5l-11 -29h-141l258 700h158l258 -700q-44 -12 -69 -32.5t-25 -43.5
q0 -20 16.5 -31.5zM431 301l-83 226l-102 -276q30 9 53 13l41 7q62 11 91 30z" />
    <glyph glyph-name="Aring" unicode="&#xc5;" horiz-adv-x="700" 
d="M687 0h-145l-67 181q-39 -20 -110 -33l-57 -10q-63 -11 -93 -33.5t-50 -75.5l-11 -29h-141l253 686q-25 18 -39.5 46t-14.5 61q0 38 19 69t50.5 48.5t68.5 17.5t68.5 -17.5t50.5 -48.5t19 -69q0 -33 -14.5 -61t-39.5 -46zM308 834.5q-17 -16.5 -17 -41.5t17 -41.5
t42 -16.5t42 16.5t17 41.5t-17 41.5t-42 16.5t-42 -16.5zM431 301l-83 226l-102 -276q30 9 53 13l41 7q62 11 91 30z" />
    <glyph glyph-name="Atilde" unicode="&#xc3;" horiz-adv-x="700" 
d="M542 0l-67 181q-39 -20 -110 -33l-57 -10q-63 -11 -93 -33.5t-50 -75.5l-11 -29h-141l258 700h158l258 -700h-145zM431 301l-83 226l-102 -276q30 9 53 13l41 7q62 11 91 30zM138 829q37 38 69.5 55t67.5 17q23 0 42 -5.5t42 -16.5q19 -8 32 -12.5t27 -4.5q36 0 80 41
l63 -76q-32 -35 -68 -53.5t-70 -18.5q-20 0 -38.5 5.5t-41.5 16.5q-23 10 -35 14t-26 4q-19 0 -37.5 -9.5t-43.5 -32.5z" />
    <glyph glyph-name="AE" unicode="&#xc6;" horiz-adv-x="976" 
d="M921 132v-132h-443v241q-111 -19 -182 -69t-121 -141l-17 -31h-145l378 700h526v-132h-295v-183h195v-128h-195v-125h299zM478 376v208l-138 -252q63 33 138 44z" />
    <glyph glyph-name="B" unicode="B" horiz-adv-x="663" 
d="M619 193q0 -89 -65 -141t-176 -52h-294v700h277q67 0 117.5 -23t78 -64t27.5 -96q0 -86 -68 -139q103 -79 103 -185zM226 572v-197q35 28 106 50l35 11q40 13 58 30.5t18 43.5q0 62 -98 62h-119zM444.5 149q31.5 21 31.5 59q0 33 -23.5 61.5t-65.5 48.5l-22 -7
q-58 -18 -87 -36.5t-40.5 -46.5t-11.5 -76v-24h130q57 0 88.5 21z" />
    <glyph glyph-name="C" unicode="C" horiz-adv-x="768" 
d="M219 35q-84 48 -132 131.5t-48 183.5t48 183.5t132 131.5t187 48q111 0 201 -56t127 -152l-139 -48q-26 53 -78 84.5t-114 31.5q-60 0 -109.5 -29.5t-78 -80.5t-28.5 -113t28.5 -113t78 -80.5t109.5 -29.5q62 0 114 31.5t78 84.5l139 -48q-37 -96 -127 -152t-201 -56
q-103 0 -187 48z" />
    <glyph glyph-name="Cacute" unicode="&#x106;" horiz-adv-x="768" 
d="M219 35q-84 48 -132 131.5t-48 183.5t48 183.5t132 131.5t187 48q111 0 201 -56t127 -152l-139 -48q-26 53 -78 84.5t-114 31.5q-60 0 -109.5 -29.5t-78 -80.5t-28.5 -113t28.5 -113t78 -80.5t109.5 -29.5q62 0 114 31.5t78 84.5l139 -48q-37 -96 -127 -152t-201 -56
q-103 0 -187 48zM322 819l176 142l77 -94l-186 -125z" />
    <glyph glyph-name="Ccaron" unicode="&#x10c;" horiz-adv-x="768" 
d="M219 35q-84 48 -132 131.5t-48 183.5t48 183.5t132 131.5t187 48q111 0 201 -56t127 -152l-139 -48q-26 53 -78 84.5t-114 31.5q-60 0 -109.5 -29.5t-78 -80.5t-28.5 -113t28.5 -113t78 -80.5t109.5 -29.5q62 0 114 31.5t78 84.5l139 -48q-37 -96 -127 -152t-201 -56
q-103 0 -187 48zM415 870l123 79l61 -73l-184 -134l-184 134l61 73z" />
    <glyph glyph-name="Ccedilla" unicode="&#xc7;" horiz-adv-x="768" 
d="M517 158.5q52 31.5 78 84.5l139 -48q-36 -94 -123 -150t-196 -58l-13 -25q44 -3 73.5 -34.5t29.5 -74.5q0 -47 -34 -79t-84 -32q-42 0 -73 22.5t-41 58.5l68 21q5 -15 17.5 -24.5t28.5 -9.5q19 0 31 12.5t12 30.5t-12 30t-30 12q-16 0 -28 -10l-51 34l39 72
q-89 13 -159.5 63.5t-110 127.5t-39.5 168q0 100 48 183.5t132 131.5t187 48q111 0 201 -56t127 -152l-139 -48q-26 53 -78 84.5t-114 31.5q-60 0 -109.5 -29.5t-78 -80.5t-28.5 -113t28.5 -113t78 -80.5t109.5 -29.5q62 0 114 31.5z" />
    <glyph glyph-name="Cdotaccent" unicode="&#x10a;" horiz-adv-x="768" 
d="M219 35q-84 48 -132 131.5t-48 183.5t48 183.5t132 131.5t187 48q111 0 201 -56t127 -152l-139 -48q-26 53 -78 84.5t-114 31.5q-60 0 -109.5 -29.5t-78 -80.5t-28.5 -113t28.5 -113t78 -80.5t109.5 -29.5q62 0 114 31.5t78 84.5l139 -48q-37 -96 -127 -152t-201 -56
q-103 0 -187 48zM357.5 779.5q-25.5 25.5 -25.5 60.5t25.5 60t60.5 25q34 0 59.5 -25t25.5 -60t-25 -60.5t-60 -25.5t-60.5 25.5z" />
    <glyph glyph-name="D" unicode="D" horiz-adv-x="718" 
d="M503 655q83 -45 129.5 -125t46.5 -180q0 -99 -46.5 -179t-129.5 -125.5t-188 -45.5h-231v700h231q105 0 188 -45zM429 163q49 27 75.5 75.5t26.5 111.5t-26.5 111.5t-75.5 75.5t-114 27h-87v-428h87q65 0 114 27z" />
    <glyph glyph-name="Eth" unicode="&#xd0;" horiz-adv-x="744" 
d="M529 655q83 -45 129.5 -125t46.5 -180q0 -99 -46.5 -179t-129.5 -125.5t-188 -45.5h-231v297h-71v122h71v281h231q105 0 188 -45zM455 163q49 27 75.5 75.5t26.5 111.5t-26.5 111.5t-75.5 75.5t-114 27h-87v-145h159v-122h-159v-161h87q65 0 114 27z" />
    <glyph glyph-name="Dcaron" unicode="&#x10e;" horiz-adv-x="718" 
d="M503 655q83 -45 129.5 -125t46.5 -180q0 -99 -46.5 -179t-129.5 -125.5t-188 -45.5h-231v700h231q105 0 188 -45zM429 163q49 27 75.5 75.5t26.5 111.5t-26.5 111.5t-75.5 75.5t-114 27h-87v-428h87q65 0 114 27zM348 870l123 79l61 -73l-184 -134l-184 134l61 73z" />
    <glyph glyph-name="Dcroat" unicode="&#x110;" horiz-adv-x="744" 
d="M529 655q83 -45 129.5 -125t46.5 -180q0 -99 -46.5 -179t-129.5 -125.5t-188 -45.5h-231v297h-71v122h71v281h231q105 0 188 -45zM455 163q49 27 75.5 75.5t26.5 111.5t-26.5 111.5t-75.5 75.5t-114 27h-87v-145h159v-122h-159v-161h87q65 0 114 27z" />
    <glyph glyph-name="E" unicode="E" horiz-adv-x="582" 
d="M527 132v-132h-443v700h439v-132h-295v-172q62 35 148 35h47v-134h-41q-154 0 -154 -131v-34h299z" />
    <glyph glyph-name="Eacute" unicode="&#xc9;" horiz-adv-x="582" 
d="M527 132v-132h-443v700h439v-132h-295v-172q62 35 148 35h47v-134h-41q-154 0 -154 -131v-34h299zM204 819l176 142l77 -94l-186 -125z" />
    <glyph glyph-name="Ecaron" unicode="&#x11a;" horiz-adv-x="582" 
d="M527 132v-132h-443v700h439v-132h-295v-172q62 35 148 35h47v-134h-41q-154 0 -154 -131v-34h299zM297 870l123 79l61 -73l-184 -134l-184 134l61 73z" />
    <glyph glyph-name="Ecircumflex" unicode="&#xca;" horiz-adv-x="582" 
d="M527 132v-132h-443v700h439v-132h-295v-172q62 35 148 35h47v-134h-41q-154 0 -154 -131v-34h299zM117 815l184 134l184 -134l-61 -73l-123 79l-123 -79z" />
    <glyph glyph-name="Edieresis" unicode="&#xcb;" horiz-adv-x="582" 
d="M527 132v-132h-443v700h439v-132h-295v-172q62 35 148 35h47v-134h-41q-154 0 -154 -131v-34h299zM122.5 774q-24.5 25 -24.5 59t25 59t59 25t59 -25t25 -59t-25 -59t-59 -25q-35 0 -59.5 25zM358.5 774q-24.5 25 -24.5 59t25 59t59 25t59 -25t25 -59t-25 -59t-59 -25
q-35 0 -59.5 25z" />
    <glyph glyph-name="Edotaccent" unicode="&#x116;" horiz-adv-x="582" 
d="M527 132v-132h-443v700h439v-132h-295v-172q62 35 148 35h47v-134h-41q-154 0 -154 -131v-34h299zM239.5 779.5q-25.5 25.5 -25.5 60.5t25.5 60t60.5 25q34 0 59.5 -25t25.5 -60t-25 -60.5t-60 -25.5t-60.5 25.5z" />
    <glyph glyph-name="Egrave" unicode="&#xc8;" horiz-adv-x="582" 
d="M527 132v-132h-443v700h439v-132h-295v-172q62 35 148 35h47v-134h-41q-154 0 -154 -131v-34h299zM143 867l77 94l176 -142l-67 -77z" />
    <glyph glyph-name="Emacron" unicode="&#x112;" horiz-adv-x="582" 
d="M527 132v-132h-443v700h439v-132h-295v-172q62 35 148 35h47v-134h-41q-154 0 -154 -131v-34h299zM148 887h303v-110h-303v110z" />
    <glyph glyph-name="Eogonek" unicode="&#x118;" horiz-adv-x="582" 
d="M458 -32.5q-25 -20.5 -25 -43.5q0 -20 16.5 -31.5t44.5 -11.5q12 0 28 2v-101q-23 -7 -52 -7q-63 0 -101.5 33t-38.5 86q0 30 13.5 57.5t38.5 48.5h-298v700h439v-132h-295v-172q62 35 148 35h47v-134h-41q-154 0 -154 -131v-34h299v-132q-44 -12 -69 -32.5z" />
    <glyph glyph-name="F" unicode="F" horiz-adv-x="568" 
d="M228 568v-172q62 35 148 35h47v-134h-41q-154 0 -154 -131v-166h-144v700h439v-132h-295z" />
    <glyph glyph-name="G" unicode="G" horiz-adv-x="792" 
d="M767 389v-20q0 -110 -46 -197t-127.5 -136t-184.5 -49t-187.5 48t-133.5 131t-49 184q0 100 49 183.5t133.5 131.5t186.5 48q81 0 153.5 -31t118.5 -85l-110 -99q-67 75 -164 75q-61 0 -111 -29t-79 -80t-29 -114q0 -62 29 -113t78.5 -80.5t110.5 -29.5q69 0 123.5 36.5
t71.5 93.5h-201v132h368z" />
    <glyph glyph-name="Gbreve" unicode="&#x11e;" horiz-adv-x="792" 
d="M767 389v-20q0 -110 -46 -197t-127.5 -136t-184.5 -49t-187.5 48t-133.5 131t-49 184q0 100 49 183.5t133.5 131.5t186.5 48q81 0 153.5 -31t118.5 -85l-110 -99q-67 75 -164 75q-61 0 -111 -29t-79 -80t-29 -114q0 -62 29 -113t78.5 -80.5t110.5 -29.5q69 0 123.5 36.5
t71.5 93.5h-201v132h368zM278.5 788q-49.5 44 -51.5 114h95q5 -26 27 -42t54 -16t54 16t27 42h95q-2 -70 -51.5 -114t-124.5 -44t-124.5 44z" />
    <glyph glyph-name="Gcommaaccent" unicode="&#x122;" horiz-adv-x="792" 
d="M767 389v-20q0 -110 -46 -197t-127.5 -136t-184.5 -49t-187.5 48t-133.5 131t-49 184q0 100 49 183.5t133.5 131.5t186.5 48q81 0 153.5 -31t118.5 -85l-110 -99q-67 75 -164 75q-61 0 -111 -29t-79 -80t-29 -114q0 -62 29 -113t78.5 -80.5t110.5 -29.5q69 0 123.5 36.5
t71.5 93.5h-201v132h368zM305 -236l34 175l128 -21l-61 -172z" />
    <glyph glyph-name="Gdotaccent" unicode="&#x120;" horiz-adv-x="792" 
d="M767 389v-20q0 -110 -46 -197t-127.5 -136t-184.5 -49t-187.5 48t-133.5 131t-49 184q0 100 49 183.5t133.5 131.5t186.5 48q81 0 153.5 -31t118.5 -85l-110 -99q-67 75 -164 75q-61 0 -111 -29t-79 -80t-29 -114q0 -62 29 -113t78.5 -80.5t110.5 -29.5q69 0 123.5 36.5
t71.5 93.5h-201v132h368zM342.5 779.5q-25.5 25.5 -25.5 60.5t25.5 60t60.5 25q34 0 59.5 -25t25.5 -60t-25 -60.5t-60 -25.5t-60.5 25.5z" />
    <glyph glyph-name="H" unicode="H" horiz-adv-x="701" 
d="M617 700v-700h-144v341q-39 -19 -72 -32l-70 -28q-59 -24 -81 -44t-22 -59v-178h-144v700h144v-319q39 19 72 32l70 28q59 24 81 44t22 59v156h144z" />
    <glyph glyph-name="Hbar" unicode="&#x126;" horiz-adv-x="710" 
d="M674 502h-52v-502h-144v289q-39 -19 -72 -32l-70 -28q-59 -24 -81 -44t-22 -59v-126h-144v502h-53v121h53v77h144v-77h245v77h144v-77h52v-121zM456 433q22 20 22 59v10h-245v-173q39 19 72 32l70 28q59 24 81 44z" />
    <glyph glyph-name="I" unicode="I" horiz-adv-x="312" 
d="M84 700h144v-700h-144v700z" />
    <glyph glyph-name="Iacute" unicode="&#xcd;" horiz-adv-x="312" 
d="M84 700h144v-700h-144v700zM60 819l176 142l77 -94l-186 -125z" />
    <glyph glyph-name="Icircumflex" unicode="&#xce;" horiz-adv-x="312" 
d="M84 700h144v-700h-144v700zM-27 815l184 134l184 -134l-61 -73l-123 79l-123 -79z" />
    <glyph glyph-name="Idieresis" unicode="&#xcf;" horiz-adv-x="312" 
d="M84 700h144v-700h-144v700zM-21.5 774q-24.5 25 -24.5 59t25 59t59 25t59 -25t25 -59t-25 -59t-59 -25q-35 0 -59.5 25zM214.5 774q-24.5 25 -24.5 59t25 59t59 25t59 -25t25 -59t-25 -59t-59 -25q-35 0 -59.5 25z" />
    <glyph glyph-name="Idotaccent" unicode="&#x130;" horiz-adv-x="312" 
d="M84 700h144v-700h-144v700zM95.5 779.5q-25.5 25.5 -25.5 60.5t25.5 60t60.5 25q34 0 59.5 -25t25.5 -60t-25 -60.5t-60 -25.5t-60.5 25.5z" />
    <glyph glyph-name="Igrave" unicode="&#xcc;" horiz-adv-x="312" 
d="M84 700h144v-700h-144v700zM-1 867l77 94l176 -142l-67 -77z" />
    <glyph glyph-name="Imacron" unicode="&#x12a;" horiz-adv-x="312" 
d="M84 700h144v-700h-144v700zM4 887h303v-110h-303v110z" />
    <glyph glyph-name="Iogonek" unicode="&#x12e;" horiz-adv-x="312" 
d="M159 -32.5q-25 -20.5 -25 -43.5q0 -20 16.5 -31.5t44.5 -11.5q12 0 28 2v-101q-23 -7 -52 -7q-63 0 -101.5 33t-38.5 86q0 31 13.5 58.5t39.5 48.5v699h144v-700q-44 -12 -69 -32.5z" />
    <glyph glyph-name="J" unicode="J" horiz-adv-x="554" 
d="M96.5 26q-60.5 37 -89.5 102l125 68q13 -33 40 -52t62 -19q43 0 69 28t26 75v472h144v-480q0 -66 -31 -118.5t-86 -82.5t-123 -30q-76 0 -136.5 37z" />
    <glyph glyph-name="K" unicode="K" horiz-adv-x="672" 
d="M322 230q-48 -25 -94 -41v-189h-144v700h144v-362q82 35 137.5 93t82 127.5t26.5 141.5h143q0 -99 -41 -203t-136 -188l227 -309h-177z" />
    <glyph glyph-name="Kcommaaccent" unicode="&#x136;" horiz-adv-x="672" 
d="M322 230q-48 -25 -94 -41v-189h-144v700h144v-362q82 35 137.5 93t82 127.5t26.5 141.5h143q0 -99 -41 -203t-136 -188l227 -309h-177zM270 -236l34 175l128 -21l-61 -172z" />
    <glyph glyph-name="L" unicode="L" horiz-adv-x="535" 
d="M493 132v-132h-409v700h144v-568h265z" />
    <glyph glyph-name="Lacute" unicode="&#x139;" horiz-adv-x="535" 
d="M493 132v-132h-409v700h144v-568h265zM62 819l176 142l77 -94l-186 -125z" />
    <glyph glyph-name="Lcaron" unicode="&#x13d;" horiz-adv-x="535" 
d="M493 132v-132h-409v700h144v-568h265zM292 512l32 201l111 -14l-58 -198z" />
    <glyph glyph-name="Lcommaaccent" unicode="&#x13b;" horiz-adv-x="535" 
d="M493 132v-132h-409v700h144v-568h265zM208 -236l34 175l128 -21l-61 -172z" />
    <glyph glyph-name="Lslash" unicode="&#x141;" horiz-adv-x="558" 
d="M516 132v-132h-409v253l-68 -32v128l68 32v319h144v-252l152 71v-128l-152 -71v-188h265z" />
    <glyph glyph-name="M" unicode="M" horiz-adv-x="922" 
d="M718 0l-41 457q-46 -65 -95 -203t-66 -254h-110q-17 116 -66 254t-95 203l-41 -457h-146l73 700h16q56 0 115.5 -49.5t111.5 -136.5t87 -197q36 110 88.5 197.5t111.5 136.5t114 49h16l73 -700h-146z" />
    <glyph glyph-name="N" unicode="N" horiz-adv-x="733" 
d="M649 700v-700h-126q-20 87 -65.5 179.5t-105.5 172t-124 129.5v-481h-144v700h24q61 0 130.5 -39.5t138.5 -111t128 -166.5v317h144z" />
    <glyph glyph-name="Nacute" unicode="&#x143;" horiz-adv-x="733" 
d="M649 700v-700h-126q-20 87 -65.5 179.5t-105.5 172t-124 129.5v-481h-144v700h24q61 0 130.5 -39.5t138.5 -111t128 -166.5v317h144zM271 819l176 142l77 -94l-186 -125z" />
    <glyph glyph-name="Ncaron" unicode="&#x147;" horiz-adv-x="733" 
d="M649 700v-700h-126q-20 87 -65.5 179.5t-105.5 172t-124 129.5v-481h-144v700h24q61 0 130.5 -39.5t138.5 -111t128 -166.5v317h144zM364 870l123 79l61 -73l-184 -134l-184 134l61 73z" />
    <glyph glyph-name="Ncommaaccent" unicode="&#x145;" horiz-adv-x="733" 
d="M649 700v-700h-126q-20 87 -65.5 179.5t-105.5 172t-124 129.5v-481h-144v700h24q61 0 130.5 -39.5t138.5 -111t128 -166.5v317h144zM269 -236l34 175l128 -21l-61 -172z" />
    <glyph glyph-name="Eng" unicode="&#x14a;" horiz-adv-x="733" 
d="M649 700v-630q0 -111 -69 -175.5t-189 -64.5v128q51 0 80 24t29 65q0 51 -41.5 135.5t-105.5 167.5t-125 131v-481h-144v700h24q61 0 131.5 -40.5t140 -113t125.5 -165.5v319h144z" />
    <glyph glyph-name="Ntilde" unicode="&#xd1;" horiz-adv-x="733" 
d="M649 700v-700h-126q-20 87 -65.5 179.5t-105.5 172t-124 129.5v-481h-144v700h24q61 0 130.5 -39.5t138.5 -111t128 -166.5v317h144zM155 829q37 38 69.5 55t67.5 17q23 0 42 -5.5t42 -16.5q19 -8 32 -12.5t27 -4.5q36 0 80 41l63 -76q-32 -35 -68 -53.5t-70 -18.5
q-20 0 -38.5 5.5t-41.5 16.5q-23 10 -35 14t-26 4q-19 0 -37.5 -9.5t-43.5 -32.5z" />
    <glyph glyph-name="O" unicode="O" horiz-adv-x="808" 
d="M220.5 35.5q-83.5 48.5 -132.5 132t-49 182.5t49 182.5t132.5 132t183.5 48.5t183.5 -48.5t132.5 -132t49 -182.5t-49 -182.5t-132.5 -132t-183.5 -48.5t-183.5 48.5zM514 157q50 30 78.5 81t28.5 112t-28.5 112t-78.5 81t-110 30t-110 -30t-78.5 -81t-28.5 -112
t28.5 -112t78.5 -81t110 -30t110 30z" />
    <glyph glyph-name="Oacute" unicode="&#xd3;" horiz-adv-x="808" 
d="M220.5 35.5q-83.5 48.5 -132.5 132t-49 182.5t49 182.5t132.5 132t183.5 48.5t183.5 -48.5t132.5 -132t49 -182.5t-49 -182.5t-132.5 -132t-183.5 -48.5t-183.5 48.5zM514 157q50 30 78.5 81t28.5 112t-28.5 112t-78.5 81t-110 30t-110 -30t-78.5 -81t-28.5 -112
t28.5 -112t78.5 -81t110 -30t110 30zM308 819l176 142l77 -94l-186 -125z" />
    <glyph glyph-name="Ocircumflex" unicode="&#xd4;" horiz-adv-x="808" 
d="M220.5 35.5q-83.5 48.5 -132.5 132t-49 182.5t49 182.5t132.5 132t183.5 48.5t183.5 -48.5t132.5 -132t49 -182.5t-49 -182.5t-132.5 -132t-183.5 -48.5t-183.5 48.5zM514 157q50 30 78.5 81t28.5 112t-28.5 112t-78.5 81t-110 30t-110 -30t-78.5 -81t-28.5 -112
t28.5 -112t78.5 -81t110 -30t110 30zM221 815l184 134l184 -134l-61 -73l-123 79l-123 -79z" />
    <glyph glyph-name="Odieresis" unicode="&#xd6;" horiz-adv-x="808" 
d="M220.5 35.5q-83.5 48.5 -132.5 132t-49 182.5t49 182.5t132.5 132t183.5 48.5t183.5 -48.5t132.5 -132t49 -182.5t-49 -182.5t-132.5 -132t-183.5 -48.5t-183.5 48.5zM514 157q50 30 78.5 81t28.5 112t-28.5 112t-78.5 81t-110 30t-110 -30t-78.5 -81t-28.5 -112
t28.5 -112t78.5 -81t110 -30t110 30zM226.5 774q-24.5 25 -24.5 59t25 59t59 25t59 -25t25 -59t-25 -59t-59 -25q-35 0 -59.5 25zM462.5 774q-24.5 25 -24.5 59t25 59t59 25t59 -25t25 -59t-25 -59t-59 -25q-35 0 -59.5 25z" />
    <glyph glyph-name="Ograve" unicode="&#xd2;" horiz-adv-x="808" 
d="M220.5 35.5q-83.5 48.5 -132.5 132t-49 182.5t49 182.5t132.5 132t183.5 48.5t183.5 -48.5t132.5 -132t49 -182.5t-49 -182.5t-132.5 -132t-183.5 -48.5t-183.5 48.5zM514 157q50 30 78.5 81t28.5 112t-28.5 112t-78.5 81t-110 30t-110 -30t-78.5 -81t-28.5 -112
t28.5 -112t78.5 -81t110 -30t110 30zM247 867l77 94l176 -142l-67 -77z" />
    <glyph glyph-name="Ohungarumlaut" unicode="&#x150;" horiz-adv-x="808" 
d="M220.5 35.5q-83.5 48.5 -132.5 132t-49 182.5t49 182.5t132.5 132t183.5 48.5t183.5 -48.5t132.5 -132t49 -182.5t-49 -182.5t-132.5 -132t-183.5 -48.5t-183.5 48.5zM514 157q50 30 78.5 81t28.5 112t-28.5 112t-78.5 81t-110 30t-110 -30t-78.5 -81t-28.5 -112
t28.5 -112t78.5 -81t110 -30t110 30zM247 791l111 149l91 -72l-119 -133zM447 791l111 149l91 -72l-119 -133z" />
    <glyph glyph-name="Omacron" unicode="&#x14c;" horiz-adv-x="808" 
d="M220.5 35.5q-83.5 48.5 -132.5 132t-49 182.5t49 182.5t132.5 132t183.5 48.5t183.5 -48.5t132.5 -132t49 -182.5t-49 -182.5t-132.5 -132t-183.5 -48.5t-183.5 48.5zM514 157q50 30 78.5 81t28.5 112t-28.5 112t-78.5 81t-110 30t-110 -30t-78.5 -81t-28.5 -112
t28.5 -112t78.5 -81t110 -30t110 30zM252 887h303v-110h-303v110z" />
    <glyph glyph-name="Oslash" unicode="&#xd8;" horiz-adv-x="808" 
d="M745 481q24 -62 24 -131q0 -99 -49 -182.5t-132.5 -132t-183.5 -48.5q-69 0 -131 24l-6 -24h-115q7 39 20 82q-62 50 -97.5 123.5t-35.5 157.5q0 99 49 182.5t132.5 132t183.5 48.5q98 0 181 -47q11 26 17 47h117q-14 -66 -42 -121q44 -49 68 -111zM235 208q32 52 71 98
t96 106q79 85 113 131q-51 30 -111 30t-110 -30t-78.5 -81t-28.5 -112q0 -80 48 -142zM514 157q50 30 78.5 81t28.5 112q0 58 -27 109q-36 -48 -116 -134q-49 -54 -84 -97t-63 -89q35 -12 73 -12q60 0 110 30z" />
    <glyph glyph-name="Otilde" unicode="&#xd5;" horiz-adv-x="808" 
d="M220.5 35.5q-83.5 48.5 -132.5 132t-49 182.5t49 182.5t132.5 132t183.5 48.5t183.5 -48.5t132.5 -132t49 -182.5t-49 -182.5t-132.5 -132t-183.5 -48.5t-183.5 48.5zM514 157q50 30 78.5 81t28.5 112t-28.5 112t-78.5 81t-110 30t-110 -30t-78.5 -81t-28.5 -112
t28.5 -112t78.5 -81t110 -30t110 30zM192 829q37 38 69.5 55t67.5 17q23 0 42 -5.5t42 -16.5q19 -8 32 -12.5t27 -4.5q36 0 80 41l63 -76q-32 -35 -68 -53.5t-70 -18.5q-20 0 -38.5 5.5t-41.5 16.5q-23 10 -35 14t-26 4q-19 0 -37.5 -9.5t-43.5 -32.5z" />
    <glyph glyph-name="OE" unicode="&#x152;" horiz-adv-x="1123" 
d="M1068 132v-132h-443v60q-46 -35 -103 -54t-118 -19q-100 0 -183.5 48.5t-132.5 132t-49 182.5t49 182.5t132.5 132t183.5 48.5q61 0 118 -19t103 -54v60h439v-132h-295v-172q62 35 148 35h47v-134h-41q-154 0 -154 -131v-34h299zM514 157q50 30 78.5 81t28.5 112
t-28.5 112t-78.5 81t-110 30t-110 -30t-78.5 -81t-28.5 -112t28.5 -112t78.5 -81t110 -30t110 30z" />
    <glyph glyph-name="P" unicode="P" horiz-adv-x="627" 
d="M528 642q65 -58 65 -157q0 -84 -44.5 -134.5t-136.5 -82.5l-43 -15q-57 -20 -85 -36.5t-42 -46.5t-14 -84v-86h-144v700h260q119 0 184 -58zM428 427q22 24 22 60q0 39 -27.5 60t-81.5 21h-113v-234q33 26 98 45l30 9q50 15 72 39z" />
    <glyph glyph-name="Thorn" unicode="&#xde;" horiz-adv-x="627" 
d="M528 558q65 -58 65 -157q0 -84 -44.5 -134.5t-136.5 -82.5l-43 -15q-54 -19 -83.5 -38t-43.5 -49.5t-14 -81.5h-144v700h144v-84h116q119 0 184 -58zM428 343q22 24 22 60q0 39 -27.5 60t-81.5 21h-113v-234q33 26 98 45l30 9q50 15 72 39z" />
    <glyph glyph-name="Q" unicode="Q" horiz-adv-x="808" 
d="M747.5 225.5q-21.5 -59.5 -61.5 -107.5q60 -96 60 -204h-136q0 65 -28 118q-82 -45 -178 -45q-100 0 -183.5 48.5t-132.5 132t-49 182.5t49 182.5t132.5 132t183.5 48.5t183.5 -48.5t132.5 -132t49 -182.5q0 -65 -21.5 -124.5zM215.5 238q28.5 -51 78.5 -81t110 -30
q48 0 87 18q-22 22 -35 33l-79 72l91 99l87 -80l36 -34q30 52 30 115q0 61 -28.5 112t-78.5 81t-110 30t-110 -30t-78.5 -81t-28.5 -112t28.5 -112z" />
    <glyph glyph-name="R" unicode="R" horiz-adv-x="663" 
d="M474 0l-127 243q-49 -18 -74.5 -36.5t-35 -45t-9.5 -70.5v-91h-144v700h267q118 0 183.5 -57t65.5 -160q0 -66 -29.5 -113t-91.5 -78l154 -292h-159zM332 377l30 10q50 17 72.5 40t22.5 58q0 41 -28 62t-81 21h-120v-239q31 23 104 48z" />
    <glyph glyph-name="Racute" unicode="&#x154;" horiz-adv-x="663" 
d="M474 0l-127 243q-49 -18 -74.5 -36.5t-35 -45t-9.5 -70.5v-91h-144v700h267q118 0 183.5 -57t65.5 -160q0 -66 -29.5 -113t-91.5 -78l154 -292h-159zM332 377l30 10q50 17 72.5 40t22.5 58q0 41 -28 62t-81 21h-120v-239q31 23 104 48zM236 819l176 142l77 -94l-186 -125
z" />
    <glyph glyph-name="Rcaron" unicode="&#x158;" horiz-adv-x="663" 
d="M474 0l-127 243q-49 -18 -74.5 -36.5t-35 -45t-9.5 -70.5v-91h-144v700h267q118 0 183.5 -57t65.5 -160q0 -66 -29.5 -113t-91.5 -78l154 -292h-159zM332 377l30 10q50 17 72.5 40t22.5 58q0 41 -28 62t-81 21h-120v-239q31 23 104 48zM329 870l123 79l61 -73l-184 -134
l-184 134l61 73z" />
    <glyph glyph-name="Rcommaaccent" unicode="&#x156;" horiz-adv-x="663" 
d="M474 0l-127 243q-49 -18 -74.5 -36.5t-35 -45t-9.5 -70.5v-91h-144v700h267q118 0 183.5 -57t65.5 -160q0 -66 -29.5 -113t-91.5 -78l154 -292h-159zM332 377l30 10q50 17 72.5 40t22.5 58q0 41 -28 62t-81 21h-120v-239q31 23 104 48zM255 -236l34 175l128 -21l-61 -172
z" />
    <glyph glyph-name="S" unicode="S" horiz-adv-x="548" 
d="M130.5 17q-59.5 30 -97.5 82l94 95q25 -32 59 -53.5t76 -21.5q43 0 69.5 24t26.5 64q0 28 -14 44.5t-37 26t-68 22.5q-188 55 -188 199q0 57 27.5 105.5t78 77t116.5 28.5q67 0 120.5 -30.5t79.5 -87.5l-113 -71q-35 58 -91 58q-35 0 -56 -21t-21 -52q0 -34 25.5 -50
t86.5 -34q92 -27 144 -75.5t52 -134.5q0 -66 -31.5 -117t-86 -79.5t-122.5 -28.5q-70 0 -129.5 30z" />
    <glyph glyph-name="Sacute" unicode="&#x15a;" horiz-adv-x="548" 
d="M130.5 17q-59.5 30 -97.5 82l94 95q25 -32 59 -53.5t76 -21.5q43 0 69.5 24t26.5 64q0 28 -14 44.5t-37 26t-68 22.5q-188 55 -188 199q0 57 27.5 105.5t78 77t116.5 28.5q67 0 120.5 -30.5t79.5 -87.5l-113 -71q-35 58 -91 58q-35 0 -56 -21t-21 -52q0 -34 25.5 -50
t86.5 -34q92 -27 144 -75.5t52 -134.5q0 -66 -31.5 -117t-86 -79.5t-122.5 -28.5q-70 0 -129.5 30zM180 819l176 142l77 -94l-186 -125z" />
    <glyph glyph-name="Scaron" unicode="&#x160;" horiz-adv-x="548" 
d="M130.5 17q-59.5 30 -97.5 82l94 95q25 -32 59 -53.5t76 -21.5q43 0 69.5 24t26.5 64q0 28 -14 44.5t-37 26t-68 22.5q-188 55 -188 199q0 57 27.5 105.5t78 77t116.5 28.5q67 0 120.5 -30.5t79.5 -87.5l-113 -71q-35 58 -91 58q-35 0 -56 -21t-21 -52q0 -34 25.5 -50
t86.5 -34q92 -27 144 -75.5t52 -134.5q0 -66 -31.5 -117t-86 -79.5t-122.5 -28.5q-70 0 -129.5 30zM273 870l123 79l61 -73l-184 -134l-184 134l61 73z" />
    <glyph glyph-name="Scedilla" unicode="&#x15e;" horiz-adv-x="548" 
d="M473.5 104q-26.5 -48 -73.5 -78t-106 -37l-14 -27q44 -3 73.5 -34.5t29.5 -74.5q0 -47 -34 -79t-84 -32q-42 0 -73 22.5t-41 58.5l68 21q5 -15 17.5 -24.5t28.5 -9.5q19 0 31 12.5t12 30.5t-12 30t-30 12q-16 0 -28 -10l-51 34l37 70q-59 7 -108.5 36t-82.5 74l94 95
q25 -32 59 -53.5t76 -21.5q43 0 69.5 24t26.5 64q0 28 -14 44.5t-37 26t-68 22.5q-188 55 -188 199q0 57 27.5 105.5t78 77t116.5 28.5q67 0 120.5 -30.5t79.5 -87.5l-113 -71q-35 58 -91 58q-35 0 -56 -21t-21 -52q0 -34 25.5 -50t86.5 -34q92 -27 144 -75.5t52 -134.5
q0 -60 -26.5 -108z" />
    <glyph glyph-name="Scommaaccent" unicode="&#x218;" horiz-adv-x="548" 
d="M130.5 17q-59.5 30 -97.5 82l94 95q25 -32 59 -53.5t76 -21.5q43 0 69.5 24t26.5 64q0 28 -14 44.5t-37 26t-68 22.5q-188 55 -188 199q0 57 27.5 105.5t78 77t116.5 28.5q67 0 120.5 -30.5t79.5 -87.5l-113 -71q-35 58 -91 58q-35 0 -56 -21t-21 -52q0 -34 25.5 -50
t86.5 -34q92 -27 144 -75.5t52 -134.5q0 -66 -31.5 -117t-86 -79.5t-122.5 -28.5q-70 0 -129.5 30zM169 -236l34 175l128 -21l-61 -172z" />
    <glyph glyph-name="T" unicode="T" horiz-adv-x="574" 
d="M215 568h-175v132h494v-132h-175v-568h-144v568z" />
    <glyph glyph-name="Tbar" unicode="&#x166;" horiz-adv-x="574" 
d="M359 568v-168h103v-122h-103v-278h-144v278h-87v122h87v168h-175v132h494v-132h-175z" />
    <glyph glyph-name="Tcaron" unicode="&#x164;" horiz-adv-x="574" 
d="M215 568h-175v132h494v-132h-175v-568h-144v568zM284 870l123 79l61 -73l-184 -134l-184 134l61 73z" />
    <glyph glyph-name="uni0162" unicode="&#x162;" horiz-adv-x="574" 
d="M320 0l-20 -38q44 -3 73.5 -34.5t29.5 -74.5q0 -47 -34 -79t-84 -32q-42 0 -73 22.5t-41 58.5l68 21q5 -15 17.5 -24.5t28.5 -9.5q19 0 31 12.5t12 30.5t-12 30t-30 12q-16 0 -28 -10l-51 34l43 81h-35v568h-175v132h494v-132h-175v-568h-39z" />
    <glyph glyph-name="uni021A" unicode="&#x21a;" horiz-adv-x="574" 
d="M215 568h-175v132h494v-132h-175v-568h-144v568zM189 -236l34 175l128 -21l-61 -172z" />
    <glyph glyph-name="U" unicode="U" horiz-adv-x="704" 
d="M211.5 19.5q-61.5 32.5 -96 94t-34.5 145.5v441h144v-440q0 -68 35.5 -102.5t91.5 -34.5t91.5 34.5t35.5 102.5v440h144v-441q0 -84 -34.5 -145.5t-96 -94t-140.5 -32.5t-140.5 32.5z" />
    <glyph glyph-name="Uacute" unicode="&#xda;" horiz-adv-x="704" 
d="M211.5 19.5q-61.5 32.5 -96 94t-34.5 145.5v441h144v-440q0 -68 35.5 -102.5t91.5 -34.5t91.5 34.5t35.5 102.5v440h144v-441q0 -84 -34.5 -145.5t-96 -94t-140.5 -32.5t-140.5 32.5zM255 819l176 142l77 -94l-186 -125z" />
    <glyph glyph-name="Ucircumflex" unicode="&#xdb;" horiz-adv-x="704" 
d="M211.5 19.5q-61.5 32.5 -96 94t-34.5 145.5v441h144v-440q0 -68 35.5 -102.5t91.5 -34.5t91.5 34.5t35.5 102.5v440h144v-441q0 -84 -34.5 -145.5t-96 -94t-140.5 -32.5t-140.5 32.5zM168 815l184 134l184 -134l-61 -73l-123 79l-123 -79z" />
    <glyph glyph-name="Udieresis" unicode="&#xdc;" horiz-adv-x="704" 
d="M211.5 19.5q-61.5 32.5 -96 94t-34.5 145.5v441h144v-440q0 -68 35.5 -102.5t91.5 -34.5t91.5 34.5t35.5 102.5v440h144v-441q0 -84 -34.5 -145.5t-96 -94t-140.5 -32.5t-140.5 32.5zM173.5 774q-24.5 25 -24.5 59t25 59t59 25t59 -25t25 -59t-25 -59t-59 -25
q-35 0 -59.5 25zM409.5 774q-24.5 25 -24.5 59t25 59t59 25t59 -25t25 -59t-25 -59t-59 -25q-35 0 -59.5 25z" />
    <glyph glyph-name="Ugrave" unicode="&#xd9;" horiz-adv-x="704" 
d="M211.5 19.5q-61.5 32.5 -96 94t-34.5 145.5v441h144v-440q0 -68 35.5 -102.5t91.5 -34.5t91.5 34.5t35.5 102.5v440h144v-441q0 -84 -34.5 -145.5t-96 -94t-140.5 -32.5t-140.5 32.5zM194 867l77 94l176 -142l-67 -77z" />
    <glyph glyph-name="Uhungarumlaut" unicode="&#x170;" horiz-adv-x="704" 
d="M211.5 19.5q-61.5 32.5 -96 94t-34.5 145.5v441h144v-440q0 -68 35.5 -102.5t91.5 -34.5t91.5 34.5t35.5 102.5v440h144v-441q0 -84 -34.5 -145.5t-96 -94t-140.5 -32.5t-140.5 32.5zM194 791l111 149l91 -72l-119 -133zM394 791l111 149l91 -72l-119 -133z" />
    <glyph glyph-name="Umacron" unicode="&#x16a;" horiz-adv-x="704" 
d="M211.5 19.5q-61.5 32.5 -96 94t-34.5 145.5v441h144v-440q0 -68 35.5 -102.5t91.5 -34.5t91.5 34.5t35.5 102.5v440h144v-441q0 -84 -34.5 -145.5t-96 -94t-140.5 -32.5t-140.5 32.5zM199 887h303v-110h-303v110z" />
    <glyph glyph-name="Uogonek" unicode="&#x172;" horiz-adv-x="704" 
d="M623 259q0 -58 -15 -100.5t-36 -70t-53 -59.5q-30 -31 -44 -51.5t-14 -46.5q0 -50 60 -50q13 0 29 2v-101q-23 -7 -52 -7q-63 0 -101.5 33t-38.5 83q0 24 9 50.5t23 47.5q-16 -2 -37 -2q-80 0 -141.5 32.5t-96 94t-34.5 145.5v441h144v-440q0 -68 35.5 -102.5t91.5 -34.5
t91.5 34.5t35.5 102.5v440h144v-441z" />
    <glyph glyph-name="Uring" unicode="&#x16e;" horiz-adv-x="704" 
d="M211.5 19.5q-61.5 32.5 -96 94t-34.5 145.5v441h144v-440q0 -68 35.5 -102.5t91.5 -34.5t91.5 34.5t35.5 102.5v440h144v-441q0 -84 -34.5 -145.5t-96 -94t-140.5 -32.5t-140.5 32.5zM282.5 675.5q-31.5 17.5 -50.5 48.5t-19 69t19 69t50.5 48.5t68.5 17.5t68.5 -17.5
t50.5 -48.5t19 -69t-19 -69t-50.5 -48.5t-68.5 -17.5t-68.5 17.5zM393 751.5q17 16.5 17 41.5t-17 41.5t-42 16.5t-42 -16.5t-17 -41.5t17 -41.5t42 -16.5t42 16.5z" />
    <glyph glyph-name="V" unicode="V" horiz-adv-x="700" 
d="M687 700l-258 -700h-158l-258 700h158l181 -506l181 506h154z" />
    <glyph glyph-name="W" unicode="W" horiz-adv-x="1045" 
d="M1022 700l-202 -700h-157q-94 208 -142 380q-45 -159 -140 -380h-155l-203 700h155l141 -506q50 124 86 256t51 250h137q15 -119 50.5 -253t85.5 -260l142 513h151z" />
    <glyph glyph-name="Wacute" unicode="&#x1e82;" horiz-adv-x="1045" 
d="M1022 700l-202 -700h-157q-94 208 -142 380q-45 -159 -140 -380h-155l-203 700h155l141 -506q50 124 86 256t51 250h137q15 -119 50.5 -253t85.5 -260l142 513h151zM427 819l176 142l77 -94l-186 -125z" />
    <glyph glyph-name="Wcircumflex" unicode="&#x174;" horiz-adv-x="1045" 
d="M1022 700l-202 -700h-157q-94 208 -142 380q-45 -159 -140 -380h-155l-203 700h155l141 -506q50 124 86 256t51 250h137q15 -119 50.5 -253t85.5 -260l142 513h151zM340 815l184 134l184 -134l-61 -73l-123 79l-123 -79z" />
    <glyph glyph-name="Wdieresis" unicode="&#x1e84;" horiz-adv-x="1045" 
d="M1022 700l-202 -700h-157q-94 208 -142 380q-45 -159 -140 -380h-155l-203 700h155l141 -506q50 124 86 256t51 250h137q15 -119 50.5 -253t85.5 -260l142 513h151zM345.5 774q-24.5 25 -24.5 59t25 59t59 25t59 -25t25 -59t-25 -59t-59 -25q-35 0 -59.5 25zM581.5 774
q-24.5 25 -24.5 59t25 59t59 25t59 -25t25 -59t-25 -59t-59 -25q-35 0 -59.5 25z" />
    <glyph glyph-name="Wgrave" unicode="&#x1e80;" horiz-adv-x="1045" 
d="M1022 700l-202 -700h-157q-94 208 -142 380q-45 -159 -140 -380h-155l-203 700h155l141 -506q50 124 86 256t51 250h137q15 -119 50.5 -253t85.5 -260l142 513h151zM366 867l77 94l176 -142l-67 -77z" />
    <glyph glyph-name="X" unicode="X" horiz-adv-x="698" 
d="M444 350l222 -350h-167l-150 243l-150 -243h-167l222 350l-223 350h168l150 -243l150 243h168z" />
    <glyph glyph-name="Y" unicode="Y" horiz-adv-x="650" 
d="M396 282v-282h-144v285l-244 415h167l152 -258l152 258h163z" />
    <glyph glyph-name="Yacute" unicode="&#xdd;" horiz-adv-x="650" 
d="M396 282v-282h-144v285l-244 415h167l152 -258l152 258h163zM229 819l176 142l77 -94l-186 -125z" />
    <glyph glyph-name="Ycircumflex" unicode="&#x176;" horiz-adv-x="650" 
d="M396 282v-282h-144v285l-244 415h167l152 -258l152 258h163zM142 815l184 134l184 -134l-61 -73l-123 79l-123 -79z" />
    <glyph glyph-name="Ydieresis" unicode="&#x178;" horiz-adv-x="650" 
d="M396 282v-282h-144v285l-244 415h167l152 -258l152 258h163zM147.5 774q-24.5 25 -24.5 59t25 59t59 25t59 -25t25 -59t-25 -59t-59 -25q-35 0 -59.5 25zM383.5 774q-24.5 25 -24.5 59t25 59t59 25t59 -25t25 -59t-25 -59t-59 -25q-35 0 -59.5 25z" />
    <glyph glyph-name="Ygrave" unicode="&#x1ef2;" horiz-adv-x="650" 
d="M396 282v-282h-144v285l-244 415h167l152 -258l152 258h163zM168 867l77 94l176 -142l-67 -77z" />
    <glyph glyph-name="Z" unicode="Z" horiz-adv-x="656" 
d="M374.5 345q-93.5 -117 -129.5 -213h353v-132h-540v9q0 68 46 168.5t123.5 205.5t166.5 185h-326v132h530v-126q-130 -112 -223.5 -229z" />
    <glyph glyph-name="Zacute" unicode="&#x179;" horiz-adv-x="656" 
d="M374.5 345q-93.5 -117 -129.5 -213h353v-132h-540v9q0 68 46 168.5t123.5 205.5t166.5 185h-326v132h530v-126q-130 -112 -223.5 -229zM232 819l176 142l77 -94l-186 -125z" />
    <glyph glyph-name="Zcaron" unicode="&#x17d;" horiz-adv-x="656" 
d="M374.5 345q-93.5 -117 -129.5 -213h353v-132h-540v9q0 68 46 168.5t123.5 205.5t166.5 185h-326v132h530v-126q-130 -112 -223.5 -229zM325 870l123 79l61 -73l-184 -134l-184 134l61 73z" />
    <glyph glyph-name="Zdotaccent" unicode="&#x17b;" horiz-adv-x="656" 
d="M374.5 345q-93.5 -117 -129.5 -213h353v-132h-540v9q0 68 46 168.5t123.5 205.5t166.5 185h-326v132h530v-126q-130 -112 -223.5 -229zM267.5 779.5q-25.5 25.5 -25.5 60.5t25.5 60t60.5 25q34 0 59.5 -25t25.5 -60t-25 -60.5t-60 -25.5t-60.5 25.5z" />
    <glyph glyph-name="a" unicode="a" horiz-adv-x="633" 
d="M560 484v-484h-132v47q-54 -57 -143 -57q-69 0 -126.5 33.5t-91 91.5t-33.5 127t33.5 127t91 91.5t126.5 33.5q89 0 143 -57v47h132zM390.5 153.5q37.5 36.5 37.5 88.5t-37.5 88.5t-91.5 36.5t-91.5 -36.5t-37.5 -88.5t37.5 -88.5t91.5 -36.5t91.5 36.5z" />
    <glyph glyph-name="aacute" unicode="&#xe1;" horiz-adv-x="633" 
d="M560 484v-484h-132v47q-54 -57 -143 -57q-69 0 -126.5 33.5t-91 91.5t-33.5 127t33.5 127t91 91.5t126.5 33.5q89 0 143 -57v47h132zM390.5 153.5q37.5 36.5 37.5 88.5t-37.5 88.5t-91.5 36.5t-91.5 -36.5t-37.5 -88.5t37.5 -88.5t91.5 -36.5t91.5 36.5zM214 623l176 142
l77 -94l-186 -125z" />
    <glyph glyph-name="abreve" unicode="&#x103;" horiz-adv-x="633" 
d="M560 484v-484h-132v47q-54 -57 -143 -57q-69 0 -126.5 33.5t-91 91.5t-33.5 127t33.5 127t91 91.5t126.5 33.5q89 0 143 -57v47h132zM390.5 153.5q37.5 36.5 37.5 88.5t-37.5 88.5t-91.5 36.5t-91.5 -36.5t-37.5 -88.5t37.5 -88.5t91.5 -36.5t91.5 36.5zM185.5 592
q-49.5 44 -51.5 114h95q5 -26 27 -42t54 -16t54 16t27 42h95q-2 -70 -51.5 -114t-124.5 -44t-124.5 44z" />
    <glyph glyph-name="acircumflex" unicode="&#xe2;" horiz-adv-x="633" 
d="M560 484v-484h-132v47q-54 -57 -143 -57q-69 0 -126.5 33.5t-91 91.5t-33.5 127t33.5 127t91 91.5t126.5 33.5q89 0 143 -57v47h132zM390.5 153.5q37.5 36.5 37.5 88.5t-37.5 88.5t-91.5 36.5t-91.5 -36.5t-37.5 -88.5t37.5 -88.5t91.5 -36.5t91.5 36.5zM127 619l184 134
l184 -134l-61 -73l-123 79l-123 -79z" />
    <glyph glyph-name="adieresis" unicode="&#xe4;" horiz-adv-x="633" 
d="M560 484v-484h-132v47q-54 -57 -143 -57q-69 0 -126.5 33.5t-91 91.5t-33.5 127t33.5 127t91 91.5t126.5 33.5q89 0 143 -57v47h132zM390.5 153.5q37.5 36.5 37.5 88.5t-37.5 88.5t-91.5 36.5t-91.5 -36.5t-37.5 -88.5t37.5 -88.5t91.5 -36.5t91.5 36.5zM135.5 585
q-24.5 25 -24.5 59t25 59t59 25t59 -25t25 -59t-25 -59t-59 -25q-35 0 -59.5 25zM365.5 585q-24.5 25 -24.5 59t25 59t59 25t59 -25t25 -59t-25 -59t-59 -25q-35 0 -59.5 25z" />
    <glyph glyph-name="agrave" unicode="&#xe0;" horiz-adv-x="633" 
d="M560 484v-484h-132v47q-54 -57 -143 -57q-69 0 -126.5 33.5t-91 91.5t-33.5 127t33.5 127t91 91.5t126.5 33.5q89 0 143 -57v47h132zM390.5 153.5q37.5 36.5 37.5 88.5t-37.5 88.5t-91.5 36.5t-91.5 -36.5t-37.5 -88.5t37.5 -88.5t91.5 -36.5t91.5 36.5zM153 671l77 94
l176 -142l-67 -77z" />
    <glyph glyph-name="amacron" unicode="&#x101;" horiz-adv-x="633" 
d="M560 484v-484h-132v47q-54 -57 -143 -57q-69 0 -126.5 33.5t-91 91.5t-33.5 127t33.5 127t91 91.5t126.5 33.5q89 0 143 -57v47h132zM390.5 153.5q37.5 36.5 37.5 88.5t-37.5 88.5t-91.5 36.5t-91.5 -36.5t-37.5 -88.5t37.5 -88.5t91.5 -36.5t91.5 36.5zM158 691h303
v-110h-303v110z" />
    <glyph glyph-name="aogonek" unicode="&#x105;" horiz-adv-x="633" 
d="M491 -32.5q-25 -20.5 -25 -43.5q0 -20 16.5 -31.5t44.5 -11.5q12 0 28 2v-101q-23 -7 -52 -7q-63 0 -101.5 33t-38.5 86q0 34 17 64t48 52v37q-54 -57 -143 -57q-69 0 -126.5 33.5t-91 91.5t-33.5 127t33.5 127t91 91.5t126.5 33.5q89 0 143 -57v47h132v-484
q-44 -12 -69 -32.5zM390.5 153.5q37.5 36.5 37.5 88.5t-37.5 88.5t-91.5 36.5t-91.5 -36.5t-37.5 -88.5t37.5 -88.5t91.5 -36.5t91.5 36.5z" />
    <glyph glyph-name="aring" unicode="&#xe5;" horiz-adv-x="633" 
d="M560 484v-484h-132v47q-54 -57 -143 -57q-69 0 -126.5 33.5t-91 91.5t-33.5 127t33.5 127t91 91.5t126.5 33.5q89 0 143 -57v47h132zM390.5 153.5q37.5 36.5 37.5 88.5t-37.5 88.5t-91.5 36.5t-91.5 -36.5t-37.5 -88.5t37.5 -88.5t91.5 -36.5t91.5 36.5zM244.5 557
q-30.5 17 -49 46.5t-18.5 66.5t18.5 66.5t49 46.5t65.5 17t65.5 -17t49 -46.5t18.5 -66.5t-18.5 -66.5t-49 -46.5t-65.5 -17t-65.5 17zM349 631.5q16 15.5 16 38.5t-16 38.5t-39 15.5t-39 -15.5t-16 -38.5t16 -38.5t39 -15.5t39 15.5z" />
    <glyph glyph-name="atilde" unicode="&#xe3;" horiz-adv-x="633" 
d="M560 484v-484h-132v47q-54 -57 -143 -57q-69 0 -126.5 33.5t-91 91.5t-33.5 127t33.5 127t91 91.5t126.5 33.5q89 0 143 -57v47h132zM390.5 153.5q37.5 36.5 37.5 88.5t-37.5 88.5t-91.5 36.5t-91.5 -36.5t-37.5 -88.5t37.5 -88.5t91.5 -36.5t91.5 36.5zM98 633
q37 38 69.5 55t67.5 17q23 0 42 -5.5t42 -16.5q19 -8 32 -12.5t27 -4.5q36 0 80 41l63 -76q-32 -35 -68 -53.5t-70 -18.5q-20 0 -38.5 5.5t-41.5 16.5q-23 10 -35 14t-26 4q-19 0 -37.5 -9.5t-43.5 -32.5z" />
    <glyph glyph-name="ae" unicode="&#xe6;" horiz-adv-x="908" 
d="M870 212h-353q8 -47 42.5 -75t85.5 -28q36 0 69.5 14t59.5 40l71 -93q-37 -40 -89 -61.5t-111 -21.5q-61 0 -113.5 23.5t-88.5 65.5q-37 -42 -90.5 -65.5t-119.5 -23.5q-87 0 -140 43t-53 112q0 88 73 125t176 37h83q-12 32 -41 52t-72 20q-87 0 -138 -55l-71 93
q36 39 93 61t118 22q60 0 109 -20t81 -58q34 37 82 57.5t103 20.5q69 0 122.5 -31.5t83.5 -88.5t30 -131q0 -19 -2 -34zM567 356q-28 -19 -42 -52h209q-11 33 -37.5 52t-64.5 19q-37 0 -65 -19zM343.5 134.5q32.5 28.5 37.5 77.5h-89q-54 0 -85 -15t-31 -44q0 -22 21 -34.5
t52 -12.5q62 0 94.5 28.5z" />
    <glyph glyph-name="b" unicode="b" horiz-adv-x="633" 
d="M474.5 460.5q57.5 -33.5 91 -91.5t33.5 -127t-33.5 -127t-91 -91.5t-126.5 -33.5q-89 0 -143 57v-47h-132v700h136v-259q53 53 139 53q69 0 126.5 -33.5zM425.5 153.5q37.5 36.5 37.5 88.5t-37.5 88.5t-91.5 36.5t-91.5 -36.5t-37.5 -88.5t37.5 -88.5t91.5 -36.5
t91.5 36.5z" />
    <glyph glyph-name="c" unicode="c" horiz-adv-x="548" 
d="M164 21.5q-60 34.5 -95 93t-35 127.5t35 127.5t95 93t131 34.5q75 0 137.5 -34t88.5 -94l-119 -61q-16 27 -44 43t-63 16q-54 0 -89.5 -36t-35.5 -89t35.5 -89t89.5 -36q35 0 63 16t44 43l119 -61q-26 -60 -88.5 -94t-137.5 -34q-71 0 -131 34.5z" />
    <glyph glyph-name="cacute" unicode="&#x107;" horiz-adv-x="548" 
d="M164 21.5q-60 34.5 -95 93t-35 127.5t35 127.5t95 93t131 34.5q75 0 137.5 -34t88.5 -94l-119 -61q-16 27 -44 43t-63 16q-54 0 -89.5 -36t-35.5 -89t35.5 -89t89.5 -36q35 0 63 16t44 43l119 -61q-26 -60 -88.5 -94t-137.5 -34q-71 0 -131 34.5zM203 623l176 142l77 -94
l-186 -125z" />
    <glyph glyph-name="ccaron" unicode="&#x10d;" horiz-adv-x="548" 
d="M164 21.5q-60 34.5 -95 93t-35 127.5t35 127.5t95 93t131 34.5q75 0 137.5 -34t88.5 -94l-119 -61q-16 27 -44 43t-63 16q-54 0 -89.5 -36t-35.5 -89t35.5 -89t89.5 -36q35 0 63 16t44 43l119 -61q-26 -60 -88.5 -94t-137.5 -34q-71 0 -131 34.5zM296 674l123 79l61 -73
l-184 -134l-184 134l61 73z" />
    <glyph glyph-name="ccedilla" unicode="&#xe7;" horiz-adv-x="548" 
d="M358 133q28 16 44 43l119 -61q-26 -59 -86 -92.5t-133 -35.5l-13 -25q44 -3 73.5 -34.5t29.5 -74.5q0 -47 -34 -79t-84 -32q-42 0 -73 22.5t-41 58.5l68 21q5 -15 17.5 -24.5t28.5 -9.5q19 0 31 12.5t12 30.5t-12 30t-30 12q-16 0 -28 -10l-51 34l40 75q-57 13 -103.5 49
t-72.5 88t-26 111q0 69 35 127.5t95 93t131 34.5q75 0 137.5 -34t88.5 -94l-119 -61q-16 27 -44 43t-63 16q-54 0 -89.5 -36t-35.5 -89t35.5 -89t89.5 -36q35 0 63 16z" />
    <glyph glyph-name="cdotaccent" unicode="&#x10b;" horiz-adv-x="548" 
d="M164 21.5q-60 34.5 -95 93t-35 127.5t35 127.5t95 93t131 34.5q75 0 137.5 -34t88.5 -94l-119 -61q-16 27 -44 43t-63 16q-54 0 -89.5 -36t-35.5 -89t35.5 -89t89.5 -36q35 0 63 16t44 43l119 -61q-26 -60 -88.5 -94t-137.5 -34q-71 0 -131 34.5zM238.5 583.5
q-25.5 25.5 -25.5 60.5t25.5 60t60.5 25q34 0 59.5 -25t25.5 -60t-25 -60.5t-60 -25.5t-60.5 25.5z" />
    <glyph glyph-name="d" unicode="d" horiz-adv-x="633" 
d="M560 700v-700h-132v47q-54 -57 -143 -57q-69 0 -126.5 33.5t-91 91.5t-33.5 127t33.5 127t91 91.5t126.5 33.5q86 0 139 -53v259h136zM390.5 153.5q37.5 36.5 37.5 88.5t-37.5 88.5t-91.5 36.5t-91.5 -36.5t-37.5 -88.5t37.5 -88.5t91.5 -36.5t91.5 36.5z" />
    <glyph glyph-name="eth" unicode="&#xf0;" horiz-adv-x="584" 
d="M524 440q26 -78 26 -157q0 -88 -32.5 -155t-90.5 -104t-134 -37q-72 0 -131.5 32.5t-93.5 89.5t-34 126q0 68 33 125t89 90.5t122 33.5q55 0 101 -26q-20 40 -54 80l-103 -38l-24 65l74 27q-32 28 -67 49l108 72q47 -29 89 -73l73 27l24 -65l-49 -18q48 -66 74 -144z
M375 150q35 35 35 87t-35 87t-85 35t-85 -35t-35 -87t35 -87t85 -35t85 35z" />
    <glyph glyph-name="dcaron" unicode="&#x10f;" horiz-adv-x="723" 
d="M560 700v-700h-132v47q-54 -57 -143 -57q-69 0 -126.5 33.5t-91 91.5t-33.5 127t33.5 127t91 91.5t126.5 33.5q86 0 139 -53v259h136zM390.5 153.5q37.5 36.5 37.5 88.5t-37.5 88.5t-91.5 36.5t-91.5 -36.5t-37.5 -88.5t37.5 -88.5t91.5 -36.5t91.5 36.5zM607 512l32 201
l111 -14l-58 -198z" />
    <glyph glyph-name="dcroat" unicode="&#x111;" horiz-adv-x="668" 
d="M648 537h-88v-537h-132v47q-54 -57 -143 -57q-69 0 -126.5 33.5t-91 91.5t-33.5 127t33.5 127t91 91.5t126.5 33.5q86 0 139 -53v96h-144v98h144v65h136v-65h88v-98zM390.5 153.5q37.5 36.5 37.5 88.5t-37.5 88.5t-91.5 36.5t-91.5 -36.5t-37.5 -88.5t37.5 -88.5
t91.5 -36.5t91.5 36.5z" />
    <glyph glyph-name="e" unicode="e" horiz-adv-x="559" 
d="M521 212q-97 -1 -186 -11.5t-154 -28.5q17 -30 46.5 -46.5t68.5 -16.5q36 0 69.5 14t59.5 40l71 -93q-37 -40 -89 -61.5t-111 -21.5q-74 0 -134 33.5t-94 92t-34 130.5q0 71 33 129t91 91.5t129 33.5q69 0 122.5 -31.5t83.5 -88.5t30 -131q0 -19 -2 -34zM206 346.5
q-31 -28.5 -39 -76.5q102 29 218 34q-10 33 -37 52t-65 19q-46 0 -77 -28.5z" />
    <glyph glyph-name="eacute" unicode="&#xe9;" horiz-adv-x="559" 
d="M521 212q-97 -1 -186 -11.5t-154 -28.5q17 -30 46.5 -46.5t68.5 -16.5q36 0 69.5 14t59.5 40l71 -93q-37 -40 -89 -61.5t-111 -21.5q-74 0 -134 33.5t-94 92t-34 130.5q0 71 33 129t91 91.5t129 33.5q69 0 122.5 -31.5t83.5 -88.5t30 -131q0 -19 -2 -34zM206 346.5
q-31 -28.5 -39 -76.5q102 29 218 34q-10 33 -37 52t-65 19q-46 0 -77 -28.5zM188 623l176 142l77 -94l-186 -125z" />
    <glyph glyph-name="ecaron" unicode="&#x11b;" horiz-adv-x="559" 
d="M521 212q-97 -1 -186 -11.5t-154 -28.5q17 -30 46.5 -46.5t68.5 -16.5q36 0 69.5 14t59.5 40l71 -93q-37 -40 -89 -61.5t-111 -21.5q-74 0 -134 33.5t-94 92t-34 130.5q0 71 33 129t91 91.5t129 33.5q69 0 122.5 -31.5t83.5 -88.5t30 -131q0 -19 -2 -34zM206 346.5
q-31 -28.5 -39 -76.5q102 29 218 34q-10 33 -37 52t-65 19q-46 0 -77 -28.5zM281 674l123 79l61 -73l-184 -134l-184 134l61 73z" />
    <glyph glyph-name="ecircumflex" unicode="&#xea;" horiz-adv-x="559" 
d="M521 212q-97 -1 -186 -11.5t-154 -28.5q17 -30 46.5 -46.5t68.5 -16.5q36 0 69.5 14t59.5 40l71 -93q-37 -40 -89 -61.5t-111 -21.5q-74 0 -134 33.5t-94 92t-34 130.5q0 71 33 129t91 91.5t129 33.5q69 0 122.5 -31.5t83.5 -88.5t30 -131q0 -19 -2 -34zM206 346.5
q-31 -28.5 -39 -76.5q102 29 218 34q-10 33 -37 52t-65 19q-46 0 -77 -28.5zM101 619l184 134l184 -134l-61 -73l-123 79l-123 -79z" />
    <glyph glyph-name="edieresis" unicode="&#xeb;" horiz-adv-x="559" 
d="M521 212q-97 -1 -186 -11.5t-154 -28.5q17 -30 46.5 -46.5t68.5 -16.5q36 0 69.5 14t59.5 40l71 -93q-37 -40 -89 -61.5t-111 -21.5q-74 0 -134 33.5t-94 92t-34 130.5q0 71 33 129t91 91.5t129 33.5q69 0 122.5 -31.5t83.5 -88.5t30 -131q0 -19 -2 -34zM206 346.5
q-31 -28.5 -39 -76.5q102 29 218 34q-10 33 -37 52t-65 19q-46 0 -77 -28.5zM109.5 585q-24.5 25 -24.5 59t25 59t59 25t59 -25t25 -59t-25 -59t-59 -25q-35 0 -59.5 25zM339.5 585q-24.5 25 -24.5 59t25 59t59 25t59 -25t25 -59t-25 -59t-59 -25q-35 0 -59.5 25z" />
    <glyph glyph-name="edotaccent" unicode="&#x117;" horiz-adv-x="559" 
d="M521 212q-97 -1 -186 -11.5t-154 -28.5q17 -30 46.5 -46.5t68.5 -16.5q36 0 69.5 14t59.5 40l71 -93q-37 -40 -89 -61.5t-111 -21.5q-74 0 -134 33.5t-94 92t-34 130.5q0 71 33 129t91 91.5t129 33.5q69 0 122.5 -31.5t83.5 -88.5t30 -131q0 -19 -2 -34zM206 346.5
q-31 -28.5 -39 -76.5q102 29 218 34q-10 33 -37 52t-65 19q-46 0 -77 -28.5zM223.5 583.5q-25.5 25.5 -25.5 60.5t25.5 60t60.5 25q34 0 59.5 -25t25.5 -60t-25 -60.5t-60 -25.5t-60.5 25.5z" />
    <glyph glyph-name="egrave" unicode="&#xe8;" horiz-adv-x="559" 
d="M521 212q-97 -1 -186 -11.5t-154 -28.5q17 -30 46.5 -46.5t68.5 -16.5q36 0 69.5 14t59.5 40l71 -93q-37 -40 -89 -61.5t-111 -21.5q-74 0 -134 33.5t-94 92t-34 130.5q0 71 33 129t91 91.5t129 33.5q69 0 122.5 -31.5t83.5 -88.5t30 -131q0 -19 -2 -34zM206 346.5
q-31 -28.5 -39 -76.5q102 29 218 34q-10 33 -37 52t-65 19q-46 0 -77 -28.5zM127 671l77 94l176 -142l-67 -77z" />
    <glyph glyph-name="emacron" unicode="&#x113;" horiz-adv-x="559" 
d="M521 212q-97 -1 -186 -11.5t-154 -28.5q17 -30 46.5 -46.5t68.5 -16.5q36 0 69.5 14t59.5 40l71 -93q-37 -40 -89 -61.5t-111 -21.5q-74 0 -134 33.5t-94 92t-34 130.5q0 71 33 129t91 91.5t129 33.5q69 0 122.5 -31.5t83.5 -88.5t30 -131q0 -19 -2 -34zM206 346.5
q-31 -28.5 -39 -76.5q102 29 218 34q-10 33 -37 52t-65 19q-46 0 -77 -28.5zM132 691h303v-110h-303v110z" />
    <glyph glyph-name="eogonek" unicode="&#x119;" horiz-adv-x="559" 
d="M521 212q-97 -1 -186 -11.5t-154 -28.5q17 -30 46.5 -46.5t68.5 -16.5q36 0 69.5 14t59.5 40l71 -92q-109 -87 -109 -144q0 -46 61 -46q13 0 28 2v-101q-23 -7 -52 -7q-63 0 -101.5 33t-38.5 87q0 52 35 93q-8 -1 -23 -1q-74 0 -134 33.5t-94 92t-34 130.5q0 71 33 129
t91 91.5t129 33.5q69 0 122.5 -31.5t83.5 -88.5t30 -131q0 -19 -2 -34zM206 346.5q-31 -28.5 -39 -76.5q102 29 218 34q-10 33 -37 52t-65 19q-46 0 -77 -28.5z" />
    <glyph glyph-name="f" unicode="f" horiz-adv-x="386" 
d="M241 544q-36 -30 -36 -91v-52q45 48 127 48v-130q-56 -1 -91.5 -34t-35.5 -83v-202h-136v460q0 67 28 121.5t83.5 86.5t135.5 32h20v-128q-59 2 -95 -28z" />
    <glyph glyph-name="g" unicode="g" horiz-adv-x="626" 
d="M569 425q-18 -46 -53 -87q26 -64 26 -153q0 -93 -30 -176t-101 -137.5t-186 -54.5q-54 0 -90 10v126q37 -10 85 -10q67 0 112.5 25.5t63.5 87.5q-21 -20 -52.5 -30t-68.5 -10q-68 0 -123 31t-86.5 85t-31.5 119q0 67 33 122.5t91 88t129 32.5q85 0 147 -46q20 33 20 82
h133q0 -59 -18 -105zM368 170.5q33 33.5 33 82.5t-33 82.5t-84 33.5t-84 -33.5t-33 -82.5t33 -82.5t84 -33.5t84 33.5z" />
    <glyph glyph-name="gbreve" unicode="&#x11f;" horiz-adv-x="626" 
d="M569 425q-18 -46 -53 -87q26 -64 26 -153q0 -93 -30 -176t-101 -137.5t-186 -54.5q-54 0 -90 10v126q37 -10 85 -10q67 0 112.5 25.5t63.5 87.5q-21 -20 -52.5 -30t-68.5 -10q-68 0 -123 31t-86.5 85t-31.5 119q0 67 33 122.5t91 88t129 32.5q85 0 147 -46q20 33 20 82
h133q0 -59 -18 -105zM368 170.5q33 33.5 33 82.5t-33 82.5t-84 33.5t-84 -33.5t-33 -82.5t33 -82.5t84 -33.5t84 33.5zM179.5 592q-49.5 44 -51.5 114h95q5 -26 27 -42t54 -16t54 16t27 42h95q-2 -70 -51.5 -114t-124.5 -44t-124.5 44z" />
    <glyph glyph-name="gcommaaccent" unicode="&#x123;" horiz-adv-x="626" 
d="M368 545l-128 21l61 172l101 -18zM569 425q-18 -46 -53 -87q26 -64 26 -153q0 -93 -30 -176t-101 -137.5t-186 -54.5q-54 0 -90 10v126q37 -10 85 -10q67 0 112.5 25.5t63.5 87.5q-21 -20 -52.5 -30t-68.5 -10q-68 0 -123 31t-86.5 85t-31.5 119q0 67 33 122.5t91 88
t129 32.5q85 0 147 -46q20 33 20 82h133q0 -59 -18 -105zM368 170.5q33 33.5 33 82.5t-33 82.5t-84 33.5t-84 -33.5t-33 -82.5t33 -82.5t84 -33.5t84 33.5z" />
    <glyph glyph-name="gdotaccent" unicode="&#x121;" horiz-adv-x="626" 
d="M569 425q-18 -46 -53 -87q26 -64 26 -153q0 -93 -30 -176t-101 -137.5t-186 -54.5q-54 0 -90 10v126q37 -10 85 -10q67 0 112.5 25.5t63.5 87.5q-21 -20 -52.5 -30t-68.5 -10q-68 0 -123 31t-86.5 85t-31.5 119q0 67 33 122.5t91 88t129 32.5q85 0 147 -46q20 33 20 82
h133q0 -59 -18 -105zM368 170.5q33 33.5 33 82.5t-33 82.5t-84 33.5t-84 -33.5t-33 -82.5t33 -82.5t84 -33.5t84 33.5zM243.5 583.5q-25.5 25.5 -25.5 60.5t25.5 60t60.5 25q34 0 59.5 -25t25.5 -60t-25 -60.5t-60 -25.5t-60.5 25.5z" />
    <glyph glyph-name="h" unicode="h" horiz-adv-x="630" 
d="M463.5 467.5q48.5 -27.5 75 -76.5t26.5 -112v-279h-136v254q0 53 -30 85t-80 32t-80 -32t-30 -85v-254h-136v700h136v-262q54 57 143 57q63 0 111.5 -27.5z" />
    <glyph glyph-name="hbar" unicode="&#x127;" horiz-adv-x="650" 
d="M483.5 467.5q48.5 -27.5 75 -76.5t26.5 -112v-279h-136v254q0 53 -30 85t-80 32t-80 -32t-30 -85v-254h-136v537h-73v98h73v65h136v-65h159v-98h-159v-99q54 57 143 57q63 0 111.5 -27.5z" />
    <glyph glyph-name="i" unicode="i" horiz-adv-x="286" 
d="M75 484h136v-484h-136v484zM82.5 583.5q-25.5 25.5 -25.5 60.5t25.5 60t60.5 25q34 0 59.5 -25t25.5 -60t-25 -60.5t-60 -25.5t-60.5 25.5z" />
    <glyph glyph-name="dotlessi" unicode="&#x131;" horiz-adv-x="286" 
d="M75 484h136v-484h-136v484z" />
    <glyph glyph-name="iacute" unicode="&#xed;" horiz-adv-x="286" 
d="M75 484h136v-484h-136v484zM47 623l176 142l77 -94l-186 -125z" />
    <glyph glyph-name="icircumflex" unicode="&#xee;" horiz-adv-x="286" 
d="M75 484h136v-484h-136v484zM-40 619l184 134l184 -134l-61 -73l-123 79l-123 -79z" />
    <glyph glyph-name="idieresis" unicode="&#xef;" horiz-adv-x="286" 
d="M75 484h136v-484h-136v484zM-31.5 585q-24.5 25 -24.5 59t25 59t59 25t59 -25t25 -59t-25 -59t-59 -25q-35 0 -59.5 25zM198.5 585q-24.5 25 -24.5 59t25 59t59 25t59 -25t25 -59t-25 -59t-59 -25q-35 0 -59.5 25z" />
    <glyph glyph-name="i.loclTRK" horiz-adv-x="286" 
d="M75 484h136v-484h-136v484zM82.5 583.5q-25.5 25.5 -25.5 60.5t25.5 60t60.5 25q34 0 59.5 -25t25.5 -60t-25 -60.5t-60 -25.5t-60.5 25.5z" />
    <glyph glyph-name="igrave" unicode="&#xec;" horiz-adv-x="286" 
d="M75 484h136v-484h-136v484zM-14 671l77 94l176 -142l-67 -77z" />
    <glyph glyph-name="imacron" unicode="&#x12b;" horiz-adv-x="286" 
d="M75 484h136v-484h-136v484zM-9 691h303v-110h-303v110z" />
    <glyph glyph-name="iogonek" unicode="&#x12f;" horiz-adv-x="286" 
d="M82.5 583.5q-25.5 25.5 -25.5 60.5t25.5 60t60.5 25t60 -25t25 -60t-25 -60.5t-60 -25.5t-60.5 25.5zM75 484h136v-484q-44 -12 -69 -32.5t-25 -43.5q0 -20 16.5 -31.5t44.5 -11.5q12 0 28 2v-101q-23 -7 -52 -7q-63 0 -101.5 33t-38.5 86q0 68 61 113v477z" />
    <glyph glyph-name="j" unicode="j" horiz-adv-x="286" 
d="M82.5 583.5q-25.5 25.5 -25.5 60.5t25.5 60t60.5 25t60 -25t25 -60t-25 -60.5t-60 -25.5t-60.5 25.5zM-46 -53q55 -2 88 28t33 91v418h136v-425q0 -67 -28 -121.5t-83.5 -86.5t-135.5 -32h-10v128z" />
    <glyph glyph-name="k" unicode="k" horiz-adv-x="570" 
d="M270 197l-61 -61v-136h-136v700h136v-408l185 192h167l-198 -200l211 -284h-159z" />
    <glyph glyph-name="kcommaaccent" unicode="&#x137;" horiz-adv-x="570" 
d="M270 197l-61 -61v-136h-136v700h136v-408l185 192h167l-198 -200l211 -284h-159zM215 -236l34 175l128 -21l-61 -172z" />
    <glyph glyph-name="l" unicode="l" horiz-adv-x="284" 
d="M73 700h138v-700h-138v700z" />
    <glyph glyph-name="lacute" unicode="&#x13a;" horiz-adv-x="284" 
d="M73 700h138v-700h-138v700zM46 820l176 142l77 -94l-186 -125z" />
    <glyph glyph-name="lcaron" unicode="&#x13e;" horiz-adv-x="374" 
d="M73 700h138v-700h-138v700zM258 512l32 201l111 -14l-58 -198z" />
    <glyph glyph-name="lcommaaccent" unicode="&#x13c;" horiz-adv-x="284" 
d="M73 700h138v-700h-138v700zM44 -236l34 175l128 -21l-61 -172z" />
    <glyph glyph-name="lslash" unicode="&#x142;" horiz-adv-x="360" 
d="M326 357l-84 -39v-318h-138v254l-70 -33v128l70 33v318h138v-254l84 39v-128z" />
    <glyph glyph-name="m" unicode="m" horiz-adv-x="946" 
d="M825 438.5q56 -56.5 56 -149.5v-289h-136v264q0 49 -27 78t-73 29t-73 -29t-27 -78v-264h-136v264q0 49 -27 78t-73 29t-73 -29t-27 -78v-264h-136v484h132v-53q53 64 144 64q52 0 93.5 -20.5t66.5 -58.5q29 39 71 59t96 20q93 0 149 -56.5z" />
    <glyph glyph-name="n" unicode="n" horiz-adv-x="630" 
d="M466.5 466.5q47.5 -28.5 73 -77.5t25.5 -110v-279h-136v254q0 55 -30.5 86t-79.5 31t-79.5 -31t-30.5 -86v-254h-136v484h132v-52q55 63 149 63q65 0 112.5 -28.5z" />
    <glyph glyph-name="nacute" unicode="&#x144;" horiz-adv-x="630" 
d="M466.5 466.5q47.5 -28.5 73 -77.5t25.5 -110v-279h-136v254q0 55 -30.5 86t-79.5 31t-79.5 -31t-30.5 -86v-254h-136v484h132v-52q55 63 149 63q65 0 112.5 -28.5zM225 623l176 142l77 -94l-186 -125z" />
    <glyph glyph-name="ncaron" unicode="&#x148;" horiz-adv-x="630" 
d="M466.5 466.5q47.5 -28.5 73 -77.5t25.5 -110v-279h-136v254q0 55 -30.5 86t-79.5 31t-79.5 -31t-30.5 -86v-254h-136v484h132v-52q55 63 149 63q65 0 112.5 -28.5zM318 674l123 79l61 -73l-184 -134l-184 134l61 73z" />
    <glyph glyph-name="ncommaaccent" unicode="&#x146;" horiz-adv-x="630" 
d="M466.5 466.5q47.5 -28.5 73 -77.5t25.5 -110v-279h-136v254q0 55 -30.5 86t-79.5 31t-79.5 -31t-30.5 -86v-254h-136v484h132v-52q55 63 149 63q65 0 112.5 -28.5zM238 -236l34 175l128 -21l-61 -172z" />
    <glyph glyph-name="eng" unicode="&#x14b;" horiz-adv-x="630" 
d="M466.5 466.5q47.5 -28.5 73 -77.5t25.5 -110v-209q0 -67 -28.5 -121.5t-84.5 -86.5t-136 -32h-12v128q59 0 92 28.5t33 86.5v181q0 55 -30.5 86t-79.5 31t-79.5 -31t-30.5 -86v-254h-136v484h132v-52q55 63 149 63q65 0 112.5 -28.5z" />
    <glyph glyph-name="ntilde" unicode="&#xf1;" horiz-adv-x="630" 
d="M466.5 466.5q47.5 -28.5 73 -77.5t25.5 -110v-279h-136v254q0 55 -30.5 86t-79.5 31t-79.5 -31t-30.5 -86v-254h-136v484h132v-52q55 63 149 63q65 0 112.5 -28.5zM109 633q37 38 69.5 55t67.5 17q23 0 42 -5.5t42 -16.5q19 -8 32 -12.5t27 -4.5q36 0 80 41l63 -76
q-32 -35 -68 -53.5t-70 -18.5q-20 0 -38.5 5.5t-41.5 16.5q-23 10 -35 14t-26 4q-19 0 -37.5 -9.5t-43.5 -32.5z" />
    <glyph glyph-name="o" unicode="o" horiz-adv-x="590" 
d="M164 21.5q-60 34.5 -95 93t-35 127.5t35 127.5t95 93t131 34.5t131 -34.5t95 -93t35 -127.5t-35 -127.5t-95 -93t-131 -34.5t-131 34.5zM384 151.5q36 36.5 36 90.5t-36 90.5t-89 36.5t-89 -36.5t-36 -90.5t36 -90.5t89 -36.5t89 36.5z" />
    <glyph glyph-name="oacute" unicode="&#xf3;" horiz-adv-x="590" 
d="M164 21.5q-60 34.5 -95 93t-35 127.5t35 127.5t95 93t131 34.5t131 -34.5t95 -93t35 -127.5t-35 -127.5t-95 -93t-131 -34.5t-131 34.5zM384 151.5q36 36.5 36 90.5t-36 90.5t-89 36.5t-89 -36.5t-36 -90.5t36 -90.5t89 -36.5t89 36.5zM199 623l176 142l77 -94l-186 -125
z" />
    <glyph glyph-name="ocircumflex" unicode="&#xf4;" horiz-adv-x="590" 
d="M164 21.5q-60 34.5 -95 93t-35 127.5t35 127.5t95 93t131 34.5t131 -34.5t95 -93t35 -127.5t-35 -127.5t-95 -93t-131 -34.5t-131 34.5zM384 151.5q36 36.5 36 90.5t-36 90.5t-89 36.5t-89 -36.5t-36 -90.5t36 -90.5t89 -36.5t89 36.5zM112 619l184 134l184 -134l-61 -73
l-123 79l-123 -79z" />
    <glyph glyph-name="odieresis" unicode="&#xf6;" horiz-adv-x="590" 
d="M164 21.5q-60 34.5 -95 93t-35 127.5t35 127.5t95 93t131 34.5t131 -34.5t95 -93t35 -127.5t-35 -127.5t-95 -93t-131 -34.5t-131 34.5zM384 151.5q36 36.5 36 90.5t-36 90.5t-89 36.5t-89 -36.5t-36 -90.5t36 -90.5t89 -36.5t89 36.5zM120.5 585q-24.5 25 -24.5 59
t25 59t59 25t59 -25t25 -59t-25 -59t-59 -25q-35 0 -59.5 25zM350.5 585q-24.5 25 -24.5 59t25 59t59 25t59 -25t25 -59t-25 -59t-59 -25q-35 0 -59.5 25z" />
    <glyph glyph-name="ograve" unicode="&#xf2;" horiz-adv-x="590" 
d="M164 21.5q-60 34.5 -95 93t-35 127.5t35 127.5t95 93t131 34.5t131 -34.5t95 -93t35 -127.5t-35 -127.5t-95 -93t-131 -34.5t-131 34.5zM384 151.5q36 36.5 36 90.5t-36 90.5t-89 36.5t-89 -36.5t-36 -90.5t36 -90.5t89 -36.5t89 36.5zM138 671l77 94l176 -142l-67 -77z
" />
    <glyph glyph-name="ohungarumlaut" unicode="&#x151;" horiz-adv-x="590" 
d="M164 21.5q-60 34.5 -95 93t-35 127.5t35 127.5t95 93t131 34.5t131 -34.5t95 -93t35 -127.5t-35 -127.5t-95 -93t-131 -34.5t-131 34.5zM384 151.5q36 36.5 36 90.5t-36 90.5t-89 36.5t-89 -36.5t-36 -90.5t36 -90.5t89 -36.5t89 36.5zM138 595l111 149l91 -72l-119 -133
zM338 595l111 149l91 -72l-119 -133z" />
    <glyph glyph-name="omacron" unicode="&#x14d;" horiz-adv-x="590" 
d="M164 21.5q-60 34.5 -95 93t-35 127.5t35 127.5t95 93t131 34.5t131 -34.5t95 -93t35 -127.5t-35 -127.5t-95 -93t-131 -34.5t-131 34.5zM384 151.5q36 36.5 36 90.5t-36 90.5t-89 36.5t-89 -36.5t-36 -90.5t36 -90.5t89 -36.5t89 36.5zM143 691h303v-110h-303v110z" />
    <glyph glyph-name="oslash" unicode="&#xf8;" horiz-adv-x="590" 
d="M537.5 336q18.5 -45 18.5 -94q0 -69 -35 -127.5t-95 -93t-131 -34.5q-51 0 -95 18q-4 -13 -5 -17h-100q6 38 18 71q-37 36 -58 83.5t-21 99.5q0 69 35 127.5t95 93t131 34.5q57 0 108 -23q2 5 7 22h102q-9 -43 -27 -80q34 -35 52.5 -80zM183 185q26 35 87 100
q38 39 67 77q-18 7 -42 7q-53 0 -89 -36.5t-36 -90.5q0 -29 13 -57zM384 151.5q36 36.5 36 90.5q0 31 -12 56q-21 -25 -65 -73q-56 -60 -86 -104q18 -6 38 -6q53 0 89 36.5z" />
    <glyph glyph-name="otilde" unicode="&#xf5;" horiz-adv-x="590" 
d="M164 21.5q-60 34.5 -95 93t-35 127.5t35 127.5t95 93t131 34.5t131 -34.5t95 -93t35 -127.5t-35 -127.5t-95 -93t-131 -34.5t-131 34.5zM384 151.5q36 36.5 36 90.5t-36 90.5t-89 36.5t-89 -36.5t-36 -90.5t36 -90.5t89 -36.5t89 36.5zM83 633q37 38 69.5 55t67.5 17
q23 0 42 -5.5t42 -16.5q19 -8 32 -12.5t27 -4.5q36 0 80 41l63 -76q-32 -35 -68 -53.5t-70 -18.5q-20 0 -38.5 5.5t-41.5 16.5q-23 10 -35 14t-26 4q-19 0 -37.5 -9.5t-43.5 -32.5z" />
    <glyph glyph-name="oe" unicode="&#x153;" horiz-adv-x="946" 
d="M908 212q-95 -1 -184 -11t-154 -28q16 -30 45 -47t68 -17q36 0 69.5 14t59.5 40l71 -93q-37 -40 -89 -61.5t-111 -21.5q-60 0 -111 22.5t-87 63.5q-35 -40 -84.5 -63t-105.5 -23q-71 0 -131 34.5t-95 93t-35 127.5t35 127.5t95 93t131 34.5q55 0 104.5 -22.5t84.5 -61.5
q35 40 84 62t106 22q69 0 122.5 -31.5t83.5 -88.5t30 -131q0 -19 -2 -34zM594.5 346.5q-30.5 -28.5 -38.5 -76.5q102 29 216 34q-10 33 -37 52t-65 19q-45 0 -75.5 -28.5zM384 151.5q36 36.5 36 90.5t-36 90.5t-89 36.5t-89 -36.5t-36 -90.5t36 -90.5t89 -36.5t89 36.5z" />
    <glyph glyph-name="p" unicode="p" horiz-adv-x="633" 
d="M474.5 460.5q57.5 -33.5 91 -91.5t33.5 -127t-33.5 -127t-91 -91.5t-126.5 -33.5q-86 0 -139 53v-213h-136v654h132v-47q54 57 143 57q69 0 126.5 -33.5zM425.5 153.5q37.5 36.5 37.5 88.5t-37.5 88.5t-91.5 36.5t-91.5 -36.5t-37.5 -88.5t37.5 -88.5t91.5 -36.5
t91.5 36.5z" />
    <glyph glyph-name="thorn" unicode="&#xfe;" horiz-adv-x="633" 
d="M474.5 460.5q57.5 -33.5 91 -91.5t33.5 -127t-33.5 -127t-91 -91.5t-126.5 -33.5q-86 0 -139 53v-213h-136v870h136v-259q53 53 139 53q69 0 126.5 -33.5zM425.5 153.5q37.5 36.5 37.5 88.5t-37.5 88.5t-91.5 36.5t-91.5 -36.5t-37.5 -88.5t37.5 -88.5t91.5 -36.5
t91.5 36.5z" />
    <glyph glyph-name="q" unicode="q" horiz-adv-x="633" 
d="M560 484v-654h-136v213q-53 -53 -139 -53q-69 0 -126.5 33.5t-91 91.5t-33.5 127t33.5 127t91 91.5t126.5 33.5q89 0 143 -57v47h132zM390.5 153.5q37.5 36.5 37.5 88.5t-37.5 88.5t-91.5 36.5t-91.5 -36.5t-37.5 -88.5t37.5 -88.5t91.5 -36.5t91.5 36.5z" />
    <glyph glyph-name="r" unicode="r" horiz-adv-x="380" 
d="M338 492v-146q-62 0 -95.5 -32.5t-33.5 -92.5v-221h-136v484h132v-55q40 66 133 63z" />
    <glyph glyph-name="racute" unicode="&#x155;" horiz-adv-x="380" 
d="M338 492v-146q-62 0 -95.5 -32.5t-33.5 -92.5v-221h-136v484h132v-55q40 66 133 63zM124 623l176 142l77 -94l-186 -125z" />
    <glyph glyph-name="rcaron" unicode="&#x159;" horiz-adv-x="380" 
d="M338 492v-146q-62 0 -95.5 -32.5t-33.5 -92.5v-221h-136v484h132v-55q40 66 133 63zM217 674l123 79l61 -73l-184 -134l-184 134l61 73z" />
    <glyph glyph-name="rcommaaccent" unicode="&#x157;" horiz-adv-x="380" 
d="M338 492v-146q-62 0 -95.5 -32.5t-33.5 -92.5v-221h-136v484h132v-55q40 66 133 63zM43 -236l34 175l128 -21l-61 -172z" />
    <glyph glyph-name="s" unicode="s" horiz-adv-x="449" 
d="M120.5 4.5q-47.5 17.5 -84.5 57.5l79 86q20 -23 47 -36t57 -13q29 0 46 12.5t17 33.5q0 20 -18 29.5t-58 18.5q-64 15 -111.5 46t-47.5 102q0 44 22 79.5t63 56t96 20.5q59 0 102.5 -24t64.5 -66l-101 -55q-23 31 -63 31q-25 0 -39 -11.5t-14 -27.5q0 -19 19.5 -27.5
t62.5 -17.5q67 -13 108.5 -50t41.5 -100q0 -74 -54 -118t-138 -44q-50 0 -97.5 17.5z" />
    <glyph glyph-name="sacute" unicode="&#x15b;" horiz-adv-x="449" 
d="M120.5 4.5q-47.5 17.5 -84.5 57.5l79 86q20 -23 47 -36t57 -13q29 0 46 12.5t17 33.5q0 20 -18 29.5t-58 18.5q-64 15 -111.5 46t-47.5 102q0 44 22 79.5t63 56t96 20.5q59 0 102.5 -24t64.5 -66l-101 -55q-23 31 -63 31q-25 0 -39 -11.5t-14 -27.5q0 -19 19.5 -27.5
t62.5 -17.5q67 -13 108.5 -50t41.5 -100q0 -74 -54 -118t-138 -44q-50 0 -97.5 17.5zM135 623l176 142l77 -94l-186 -125z" />
    <glyph glyph-name="scaron" unicode="&#x161;" horiz-adv-x="449" 
d="M120.5 4.5q-47.5 17.5 -84.5 57.5l79 86q20 -23 47 -36t57 -13q29 0 46 12.5t17 33.5q0 20 -18 29.5t-58 18.5q-64 15 -111.5 46t-47.5 102q0 44 22 79.5t63 56t96 20.5q59 0 102.5 -24t64.5 -66l-101 -55q-23 31 -63 31q-25 0 -39 -11.5t-14 -27.5q0 -19 19.5 -27.5
t62.5 -17.5q67 -13 108.5 -50t41.5 -100q0 -74 -54 -118t-138 -44q-50 0 -97.5 17.5zM228 674l123 79l61 -73l-184 -134l-184 134l61 73z" />
    <glyph glyph-name="scedilla" unicode="&#x15f;" horiz-adv-x="449" 
d="M366 40q-44 -43 -115 -51l-14 -27q44 -3 73.5 -34.5t29.5 -74.5q0 -47 -34 -79t-84 -32q-42 0 -73 22.5t-41 58.5l68 21q5 -15 17.5 -24.5t28.5 -9.5q19 0 31 12.5t12 30.5t-12 30t-30 12q-16 0 -28 -10l-51 34l38 70q-91 13 -146 73l79 86q20 -23 47 -36t57 -13
q29 0 46 12.5t17 33.5q0 20 -18 29.5t-58 18.5q-64 15 -111.5 46t-47.5 102q0 44 22 79.5t63 56t96 20.5q59 0 102.5 -24t64.5 -66l-101 -55q-23 31 -63 31q-25 0 -39 -11.5t-14 -27.5q0 -19 19.5 -27.5t62.5 -17.5q67 -13 108.5 -50t41.5 -100q0 -66 -44 -109z" />
    <glyph glyph-name="scommaaccent" unicode="&#x219;" horiz-adv-x="449" 
d="M120.5 4.5q-47.5 17.5 -84.5 57.5l79 86q20 -23 47 -36t57 -13q29 0 46 12.5t17 33.5q0 20 -18 29.5t-58 18.5q-64 15 -111.5 46t-47.5 102q0 44 22 79.5t63 56t96 20.5q59 0 102.5 -24t64.5 -66l-101 -55q-23 31 -63 31q-25 0 -39 -11.5t-14 -27.5q0 -19 19.5 -27.5
t62.5 -17.5q67 -13 108.5 -50t41.5 -100q0 -74 -54 -118t-138 -44q-50 0 -97.5 17.5zM126 -236l34 175l128 -21l-61 -172z" />
    <glyph glyph-name="germandbls" unicode="&#xdf;" horiz-adv-x="579" 
d="M516 318.5q24 -43.5 24 -96.5q0 -60 -30.5 -111t-82 -81t-112.5 -30h-46v128h41q42 0 68 26t26 67q0 40 -26 65.5t-66 25.5h-21v121h14q31 0 50.5 20t19.5 52q0 34 -22 54.5t-59 20.5q-43 0 -66 -28.5t-23 -80.5v-471h-136v474q0 69 28.5 122t79.5 82.5t117 29.5
q61 0 109.5 -25t76 -68.5t27.5 -97.5q0 -40 -15.5 -73.5t-43.5 -54.5q44 -27 68 -70.5z" />
    <glyph glyph-name="t" unicode="t" horiz-adv-x="391" 
d="M241 156q36 -30 95 -28v-128h-20q-80 0 -135.5 32t-83.5 86.5t-28 121.5v400h136v-76q0 -50 36 -83t91 -34v-130q-82 0 -127 48v-118q0 -61 36 -91z" />
    <glyph glyph-name="tbar" unicode="&#x167;" horiz-adv-x="391" 
d="M263 141.5q31 -15.5 73 -13.5v-128h-20q-103 0 -165 52t-77 136h-51v92h46v360h136v-76q0 -50 36 -83t91 -34v-130q-82 0 -127 48v-85h125v-92h-113q15 -31 46 -46.5z" />
    <glyph glyph-name="tcaron" unicode="&#x165;" horiz-adv-x="391" 
d="M241 156q36 -30 95 -28v-128h-20q-80 0 -135.5 32t-83.5 86.5t-28 121.5v400h136v-76q0 -50 36 -83t91 -34v-130q-82 0 -127 48v-118q0 -61 36 -91zM264 512l32 201l111 -14l-58 -198z" />
    <glyph glyph-name="uni0163" unicode="&#x163;" horiz-adv-x="391" 
d="M311.5 -72.5q29.5 -31.5 29.5 -74.5q0 -47 -34 -79t-84 -32q-42 0 -73 22.5t-41 58.5l68 21q5 -15 17.5 -24.5t28.5 -9.5q19 0 31 12.5t12 30.5t-12 30t-30 12q-16 0 -28 -10l-51 34l55 103q-64 28 -97.5 86t-33.5 132v400h136v-76q0 -50 36 -83t91 -34v-130
q-82 0 -127 48v-118q0 -61 36 -91t95 -28v-128h-20q-21 0 -55 4l-23 -42q44 -3 73.5 -34.5z" />
    <glyph glyph-name="uni021B" unicode="&#x21b;" horiz-adv-x="391" 
d="M241 156q36 -30 95 -28v-128h-20q-80 0 -135.5 32t-83.5 86.5t-28 121.5v400h136v-76q0 -50 36 -83t91 -34v-130q-82 0 -127 48v-118q0 -61 36 -91zM127 -236l34 175l128 -21l-61 -172z" />
    <glyph glyph-name="u" unicode="u" horiz-adv-x="620" 
d="M547 484v-484h-132v48q-51 -59 -141 -59q-61 0 -108.5 26.5t-74 74t-26.5 110.5v284h136v-259q0 -51 28.5 -81.5t76.5 -30.5t76.5 30.5t28.5 81.5v259h136z" />
    <glyph glyph-name="uacute" unicode="&#xfa;" horiz-adv-x="620" 
d="M547 484v-484h-132v48q-51 -59 -141 -59q-61 0 -108.5 26.5t-74 74t-26.5 110.5v284h136v-259q0 -51 28.5 -81.5t76.5 -30.5t76.5 30.5t28.5 81.5v259h136zM208 623l176 142l77 -94l-186 -125z" />
    <glyph glyph-name="ucircumflex" unicode="&#xfb;" horiz-adv-x="620" 
d="M547 484v-484h-132v48q-51 -59 -141 -59q-61 0 -108.5 26.5t-74 74t-26.5 110.5v284h136v-259q0 -51 28.5 -81.5t76.5 -30.5t76.5 30.5t28.5 81.5v259h136zM121 619l184 134l184 -134l-61 -73l-123 79l-123 -79z" />
    <glyph glyph-name="udieresis" unicode="&#xfc;" horiz-adv-x="620" 
d="M547 484v-484h-132v48q-51 -59 -141 -59q-61 0 -108.5 26.5t-74 74t-26.5 110.5v284h136v-259q0 -51 28.5 -81.5t76.5 -30.5t76.5 30.5t28.5 81.5v259h136zM129.5 585q-24.5 25 -24.5 59t25 59t59 25t59 -25t25 -59t-25 -59t-59 -25q-35 0 -59.5 25zM359.5 585
q-24.5 25 -24.5 59t25 59t59 25t59 -25t25 -59t-25 -59t-59 -25q-35 0 -59.5 25z" />
    <glyph glyph-name="ugrave" unicode="&#xf9;" horiz-adv-x="620" 
d="M547 484v-484h-132v48q-51 -59 -141 -59q-61 0 -108.5 26.5t-74 74t-26.5 110.5v284h136v-259q0 -51 28.5 -81.5t76.5 -30.5t76.5 30.5t28.5 81.5v259h136zM147 671l77 94l176 -142l-67 -77z" />
    <glyph glyph-name="uhungarumlaut" unicode="&#x171;" horiz-adv-x="620" 
d="M547 484v-484h-132v48q-51 -59 -141 -59q-61 0 -108.5 26.5t-74 74t-26.5 110.5v284h136v-259q0 -51 28.5 -81.5t76.5 -30.5t76.5 30.5t28.5 81.5v259h136zM147 595l111 149l91 -72l-119 -133zM347 595l111 149l91 -72l-119 -133z" />
    <glyph glyph-name="umacron" unicode="&#x16b;" horiz-adv-x="620" 
d="M547 484v-484h-132v48q-51 -59 -141 -59q-61 0 -108.5 26.5t-74 74t-26.5 110.5v284h136v-259q0 -51 28.5 -81.5t76.5 -30.5t76.5 30.5t28.5 81.5v259h136zM152 691h303v-110h-303v110z" />
    <glyph glyph-name="uogonek" unicode="&#x173;" horiz-adv-x="620" 
d="M478 -32.5q-25 -20.5 -25 -43.5q0 -20 16.5 -31.5t44.5 -11.5q12 0 28 2v-101q-23 -7 -52 -7q-63 0 -101.5 33t-38.5 86q0 34 17 64t48 52v38q-51 -59 -141 -59q-61 0 -108.5 26.5t-74 74t-26.5 110.5v284h136v-259q0 -51 28.5 -81.5t76.5 -30.5t76.5 30.5t28.5 81.5v259
h136v-484q-44 -12 -69 -32.5z" />
    <glyph glyph-name="uring" unicode="&#x16f;" horiz-adv-x="620" 
d="M547 484v-484h-132v48q-51 -59 -141 -59q-61 0 -108.5 26.5t-74 74t-26.5 110.5v284h136v-259q0 -51 28.5 -81.5t76.5 -30.5t76.5 30.5t28.5 81.5v259h136zM238.5 557q-30.5 17 -49 46.5t-18.5 66.5t18.5 66.5t49 46.5t65.5 17t65.5 -17t49 -46.5t18.5 -66.5t-18.5 -66.5
t-49 -46.5t-65.5 -17t-65.5 17zM343 631.5q16 15.5 16 38.5t-16 38.5t-39 15.5t-39 -15.5t-16 -38.5t16 -38.5t39 -15.5t39 15.5z" />
    <glyph glyph-name="v" unicode="v" horiz-adv-x="579" 
d="M561 484l-192 -484h-159l-192 484h151l122 -327l122 327h148z" />
    <glyph glyph-name="w" unicode="w" horiz-adv-x="877" 
d="M851 484l-149 -484h-155q-30 55 -60 122t-51 128q-21 -62 -50 -129t-59 -121h-152l-149 484h144l99 -341q35 68 66 165.5t41 175.5h125q10 -80 41 -175.5t67 -163.5l98 339h144z" />
    <glyph glyph-name="wacute" unicode="&#x1e83;" horiz-adv-x="877" 
d="M851 484l-149 -484h-155q-30 55 -60 122t-51 128q-21 -62 -50 -129t-59 -121h-152l-149 484h144l99 -341q35 68 66 165.5t41 175.5h125q10 -80 41 -175.5t67 -163.5l98 339h144zM343 623l176 142l77 -94l-186 -125z" />
    <glyph glyph-name="wcircumflex" unicode="&#x175;" horiz-adv-x="877" 
d="M851 484l-149 -484h-155q-30 55 -60 122t-51 128q-21 -62 -50 -129t-59 -121h-152l-149 484h144l99 -341q35 68 66 165.5t41 175.5h125q10 -80 41 -175.5t67 -163.5l98 339h144zM256 619l184 134l184 -134l-61 -73l-123 79l-123 -79z" />
    <glyph glyph-name="wdieresis" unicode="&#x1e85;" horiz-adv-x="877" 
d="M851 484l-149 -484h-155q-30 55 -60 122t-51 128q-21 -62 -50 -129t-59 -121h-152l-149 484h144l99 -341q35 68 66 165.5t41 175.5h125q10 -80 41 -175.5t67 -163.5l98 339h144zM264.5 585q-24.5 25 -24.5 59t25 59t59 25t59 -25t25 -59t-25 -59t-59 -25q-35 0 -59.5 25z
M494.5 585q-24.5 25 -24.5 59t25 59t59 25t59 -25t25 -59t-25 -59t-59 -25q-35 0 -59.5 25z" />
    <glyph glyph-name="wgrave" unicode="&#x1e81;" horiz-adv-x="877" 
d="M851 484l-149 -484h-155q-30 55 -60 122t-51 128q-21 -62 -50 -129t-59 -121h-152l-149 484h144l99 -341q35 68 66 165.5t41 175.5h125q10 -80 41 -175.5t67 -163.5l98 339h144zM282 671l77 94l176 -142l-67 -77z" />
    <glyph glyph-name="x" unicode="x" horiz-adv-x="570" 
d="M389 0l-108 152l-104 -152h-157l176 249l-171 235h162l101 -147l101 147h159l-173 -236l175 -248h-161z" />
    <glyph glyph-name="y" unicode="y" horiz-adv-x="551" 
d="M533 484l-141 -359q-46 -116 -77.5 -174.5t-83 -92.5t-135.5 -34q-29 0 -44 4v128q18 -2 31 -2q47 0 76 17.5t50 54.5l-189 458h152l110 -279l104 279h147z" />
    <glyph glyph-name="yacute" unicode="&#xfd;" horiz-adv-x="551" 
d="M533 484l-141 -359q-46 -116 -77.5 -174.5t-83 -92.5t-135.5 -34q-29 0 -44 4v128q18 -2 31 -2q47 0 76 17.5t50 54.5l-189 458h152l110 -279l104 279h147zM180 623l176 142l77 -94l-186 -125z" />
    <glyph glyph-name="ycircumflex" unicode="&#x177;" horiz-adv-x="551" 
d="M533 484l-141 -359q-46 -116 -77.5 -174.5t-83 -92.5t-135.5 -34q-29 0 -44 4v128q18 -2 31 -2q47 0 76 17.5t50 54.5l-189 458h152l110 -279l104 279h147zM93 619l184 134l184 -134l-61 -73l-123 79l-123 -79z" />
    <glyph glyph-name="ydieresis" unicode="&#xff;" horiz-adv-x="551" 
d="M533 484l-141 -359q-46 -116 -77.5 -174.5t-83 -92.5t-135.5 -34q-29 0 -44 4v128q18 -2 31 -2q47 0 76 17.5t50 54.5l-189 458h152l110 -279l104 279h147zM101.5 585q-24.5 25 -24.5 59t25 59t59 25t59 -25t25 -59t-25 -59t-59 -25q-35 0 -59.5 25zM331.5 585
q-24.5 25 -24.5 59t25 59t59 25t59 -25t25 -59t-25 -59t-59 -25q-35 0 -59.5 25z" />
    <glyph glyph-name="ygrave" unicode="&#x1ef3;" horiz-adv-x="551" 
d="M533 484l-141 -359q-46 -116 -77.5 -174.5t-83 -92.5t-135.5 -34q-29 0 -44 4v128q18 -2 31 -2q47 0 76 17.5t50 54.5l-189 458h152l110 -279l104 279h147zM119 671l77 94l176 -142l-67 -77z" />
    <glyph glyph-name="z" unicode="z" horiz-adv-x="516" 
d="M323 256q-71 -71 -104 -134h248v-122h-417v9q0 81 59 178t155 175h-205v122h408v-112q-73 -45 -144 -116z" />
    <glyph glyph-name="zacute" unicode="&#x17a;" horiz-adv-x="516" 
d="M323 256q-71 -71 -104 -134h248v-122h-417v9q0 81 59 178t155 175h-205v122h408v-112q-73 -45 -144 -116zM171 623l176 142l77 -94l-186 -125z" />
    <glyph glyph-name="zcaron" unicode="&#x17e;" horiz-adv-x="516" 
d="M323 256q-71 -71 -104 -134h248v-122h-417v9q0 81 59 178t155 175h-205v122h408v-112q-73 -45 -144 -116zM264 674l123 79l61 -73l-184 -134l-184 134l61 73z" />
    <glyph glyph-name="zdotaccent" unicode="&#x17c;" horiz-adv-x="516" 
d="M323 256q-71 -71 -104 -134h248v-122h-417v9q0 81 59 178t155 175h-205v122h408v-112q-73 -45 -144 -116zM206.5 583.5q-25.5 25.5 -25.5 60.5t25.5 60t60.5 25q34 0 59.5 -25t25.5 -60t-25 -60.5t-60 -25.5t-60.5 25.5z" />
    <glyph glyph-name="zero" unicode="0" horiz-adv-x="630" 
d="M173.5 31.5q-60.5 44.5 -93 126.5t-32.5 192t32.5 192t93 126.5t141.5 44.5t141.5 -44.5t93 -126.5t32.5 -192t-32.5 -192t-93 -126.5t-141.5 -44.5t-141.5 44.5zM410.5 183q35.5 62 35.5 167t-35.5 167t-95.5 62t-95.5 -62t-35.5 -167t35.5 -167t95.5 -62t95.5 62z" />
    <glyph glyph-name="one" unicode="1" horiz-adv-x="453" 
d="M330 700v-700h-136v492q-46 -38 -125 -38v129q54 0 89.5 33t35.5 84h136z" />
    <glyph glyph-name="two" unicode="2" horiz-adv-x="603" 
d="M257.5 170q-26.5 -21 -34.5 -42h302v-128h-458v63q0 68 27 115t66.5 76t113.5 73q75 44 105 75t30 77q0 47 -30.5 76.5t-75.5 29.5t-76.5 -31t-31.5 -76v-15l-131 -17q-3 17 -3 33q0 64 32 117.5t88 85t123 31.5q65 0 120 -30t87 -83t32 -119q0 -67 -32 -116t-72.5 -79
t-101.5 -65q-53 -30 -79.5 -51z" />
    <glyph glyph-name="three" unicode="3" horiz-adv-x="570" 
d="M477 378q50 -63 50 -146q0 -66 -33.5 -122t-90 -89t-123.5 -33t-124 33t-90 88.5t-33 121.5h134q0 -49 32 -82t81 -33q48 0 80.5 33t32.5 82q0 48 -32.5 80.5t-80.5 32.5q-39 0 -70 -23l-68 95q41 33 85.5 75.5t70.5 78.5h-192v130h339v-129q-16 -25 -44 -57t-56 -57
q82 -16 132 -79z" />
    <glyph glyph-name="four" unicode="4" horiz-adv-x="575" 
d="M531 270v-122h-60v-148h-136v148h-288v119q42 52 79.5 130t60 160t22.5 143h140q0 -102 -42 -224t-106 -206h134v118h136v-118h60z" />
    <glyph glyph-name="five" unicode="5" horiz-adv-x="576" 
d="M407.5 445q55.5 -31 87 -85t31.5 -122q0 -70 -33.5 -127.5t-91.5 -90.5t-129 -33q-77 0 -138.5 39.5t-92.5 108.5l117 60q14 -38 43.5 -59t69.5 -21q53 0 87 34.5t34 86.5t-34 85.5t-87 33.5q-66 0 -101 -53l-104 70q23 49 37.5 125t14.5 150v53h321v-130h-204
q-2 -55 -19 -104q28 10 67 10q69 0 124.5 -31z" />
    <glyph glyph-name="six" unicode="6" horiz-adv-x="602" 
d="M438.5 444q53.5 -32 84.5 -87t31 -121q0 -67 -34 -124.5t-92 -91t-127 -33.5t-127 33.5t-92 91t-34 124.5q0 54 18.5 103.5t44.5 89.5t69 95q46 61 69 99t29 77h138q-5 -64 -34.5 -116.5t-79.5 -108.5q7 1 19 1q64 0 117.5 -32zM386 150q34 35 34 86t-34 85t-85 34
t-85 -34t-34 -85t34 -86t85 -35t85 35z" />
    <glyph glyph-name="seven" unicode="7" horiz-adv-x="539" 
d="M522 700q0 -65 -13.5 -112.5t-42 -93.5t-89.5 -130q-44 -60 -72 -108.5t-48 -111.5t-27 -144h-136q5 101 33 183.5t65 142t88 124.5q37 47 53.5 71.5t24.5 48.5h-305v130h469z" />
    <glyph glyph-name="eight" unicode="8" horiz-adv-x="570" 
d="M498 315.5q24 -44.5 24 -95.5q0 -63 -32 -116.5t-86.5 -85t-118.5 -31.5t-118.5 31.5t-86.5 85t-32 116.5q0 51 24 95.5t65 75.5q-58 55 -58 131q0 53 27 97t74.5 69t104.5 25t104.5 -25t74.5 -69t27 -97q0 -38 -15.5 -72t-43.5 -59q42 -31 66 -75.5zM231 575.5
q-22 -21.5 -22 -53.5t22 -54.5t54 -22.5t54 22.5t22 54.5t-22 53.5t-54 21.5t-54 -21.5zM358 145.5q30 30.5 30 74.5t-29.5 73.5t-73.5 29.5t-73.5 -29.5t-29.5 -73.5t30 -74.5t73 -30.5t73 30.5z" />
    <glyph glyph-name="nine" unicode="9" horiz-adv-x="590" 
d="M419 680q57 -33 90 -88.5t33 -121.5q0 -69 -29.5 -126t-87.5 -132q-48 -64 -75.5 -111t-37.5 -101h-132q5 66 35 120.5t83 117.5q-8 -1 -23 -1q-62 0 -114 31t-82.5 84.5t-30.5 117.5q0 66 33 121.5t90 88.5t124 33t124 -33zM375.5 389.5q32.5 32.5 32.5 80.5t-32.5 81.5
t-80.5 33.5t-80.5 -33.5t-32.5 -81.5t32.5 -80.5t80.5 -32.5t80.5 32.5z" />
    <glyph glyph-name="zero.pcnt" horiz-adv-x="446" 
d="M137 395.5q-40 22.5 -63.5 61.5t-23.5 86t23.5 86t63.5 61.5t86 22.5t86 -22.5t63.5 -61.5t23.5 -86t-23.5 -86t-63.5 -61.5t-86 -22.5t-86 22.5zM267.5 497.5q18.5 18.5 18.5 45.5t-18.5 45.5t-44.5 18.5t-44.5 -18.5t-18.5 -45.5t18.5 -45.5t44.5 -18.5t44.5 18.5z" />
    <glyph glyph-name="one.dnom" horiz-adv-x="309" 
d="M227 0h-105v270q-29 -20 -75 -20v100q32 0 53.5 20t21.5 50h105v-420z" />
    <glyph glyph-name="two.dnom" horiz-adv-x="395" 
d="M183 99h152v-99h-282v52q0 43 18 72t42.5 46t63.5 36q5 3 29 14.5t33.5 24t9.5 28.5q0 22 -15.5 39t-35.5 17q-21 0 -37 -16.5t-16 -39.5v-10l-101 -12q-2 16 -2 24q0 41 21.5 76t57.5 56t77 21t76.5 -20.5t56.5 -56t21 -76.5q0 -62 -38.5 -97t-85.5 -56q-29 -13 -45 -23
z" />
    <glyph glyph-name="three.dnom" horiz-adv-x="377" 
d="M311.5 230.5q27.5 -37.5 27.5 -85.5q0 -42 -20.5 -76.5t-56 -55t-77.5 -20.5t-77 20.5t-55.5 55t-20.5 75.5h103q0 -22 14.5 -36.5t36.5 -14.5q21 0 35 14.5t14 36.5t-14 36t-36 14q-13 0 -22 -4t-19 -10l-55 74q8 6 35 28t41 37h-88v101h204v-100q-10 -11 -42 -41
q45 -11 72.5 -48.5z" />
    <glyph glyph-name="four.dnom" horiz-adv-x="378" 
d="M360 172v-93h-30v-79h-105v79h-186v92q35 41 64.5 118.5t29.5 130.5h110q0 -61 -24 -131t-61 -117h67v61h105v-61h30z" />
    <glyph glyph-name="one.numr" horiz-adv-x="309" 
d="M227 280h-105v270q-29 -20 -75 -20v100q32 0 53.5 20t21.5 50h105v-420z" />
    <glyph glyph-name="two.numr" horiz-adv-x="395" 
d="M183 379h152v-99h-282v52q0 43 18 72t42.5 46t63.5 36q5 3 29 14.5t33.5 24t9.5 28.5q0 22 -15.5 39t-35.5 17q-21 0 -37 -16.5t-16 -39.5v-10l-101 -12q-2 16 -2 24q0 41 21.5 76t57.5 56t77 21t76.5 -20.5t56.5 -56t21 -76.5q0 -62 -38.5 -97t-85.5 -56
q-29 -13 -45 -23z" />
    <glyph glyph-name="three.numr" horiz-adv-x="377" 
d="M311.5 510.5q27.5 -37.5 27.5 -85.5q0 -42 -20.5 -76.5t-56 -55t-77.5 -20.5t-77 20.5t-55.5 55t-20.5 75.5h103q0 -22 14.5 -36.5t36.5 -14.5q21 0 35 14.5t14 36.5t-14 36t-36 14q-13 0 -22 -4t-19 -10l-55 74q8 6 35 28t41 37h-88v101h204v-100q-10 -11 -42 -41
q45 -11 72.5 -48.5z" />
    <glyph glyph-name="four.numr" horiz-adv-x="378" 
d="M360 452v-93h-30v-79h-105v79h-186v92q35 41 64.5 118.5t29.5 130.5h110q0 -61 -24 -131t-61 -117h67v61h105v-61h30z" />
    <glyph glyph-name="fraction" unicode="&#x2044;" horiz-adv-x="305" 
d="M-57 157.5q33 71.5 71.5 121.5t102.5 122q75 84 115.5 149.5t58.5 149.5h114q-10 -73 -41.5 -138t-69.5 -115t-96 -116q-55 -63 -89.5 -110t-60 -102t-36.5 -119h-112q10 86 43 157.5z" />
    <glyph glyph-name="onehalf" unicode="&#xbd;" horiz-adv-x="988" 
d="M227 280h-105v270q-29 -20 -75 -20v100q32 0 53.5 20t21.5 50h105v-420zM252 157.5q33 71.5 71.5 121.5t102.5 122q75 84 115.5 149.5t58.5 149.5h114q-10 -73 -41.5 -138t-69.5 -115t-96 -116q-55 -63 -89.5 -110t-60 -102t-36.5 -119h-112q10 86 43 157.5zM776 99h152
v-99h-282v52q0 43 18 72t42.5 46t63.5 36q5 3 29 14.5t33.5 24t9.5 28.5q0 22 -15.5 39t-35.5 17q-21 0 -37 -16.5t-16 -39.5v-10l-101 -12q-2 16 -2 24q0 41 21.5 76t57.5 56t77 21t76.5 -20.5t56.5 -56t21 -76.5q0 -62 -38.5 -97t-85.5 -56q-29 -13 -45 -23z" />
    <glyph glyph-name="onequarter" unicode="&#xbc;" horiz-adv-x="932" 
d="M227 280h-105v270q-29 -20 -75 -20v100q32 0 53.5 20t21.5 50h105v-420zM252 157.5q33 71.5 71.5 121.5t102.5 122q75 84 115.5 149.5t58.5 149.5h114q-10 -73 -41.5 -138t-69.5 -115t-96 -116q-55 -63 -89.5 -110t-60 -102t-36.5 -119h-112q10 86 43 157.5zM914 172v-93
h-30v-79h-105v79h-186v92q35 41 64.5 118.5t29.5 130.5h110q0 -61 -24 -131t-61 -117h67v61h105v-61h30z" />
    <glyph glyph-name="threequarters" unicode="&#xbe;" horiz-adv-x="990" 
d="M311.5 510.5q27.5 -37.5 27.5 -85.5q0 -42 -20.5 -76.5t-56 -55t-77.5 -20.5t-77 20.5t-55.5 55t-20.5 75.5h103q0 -22 14.5 -36.5t36.5 -14.5q21 0 35 14.5t14 36.5t-14 36t-36 14q-13 0 -22 -4t-19 -10l-55 74q8 6 35 28t41 37h-88v101h204v-100q-10 -11 -42 -41
q45 -11 72.5 -48.5zM310 157.5q33 71.5 71.5 121.5t102.5 122q75 84 115.5 149.5t58.5 149.5h114q-10 -73 -41.5 -138t-69.5 -115t-96 -116q-55 -63 -89.5 -110t-60 -102t-36.5 -119h-112q10 86 43 157.5zM972 172v-93h-30v-79h-105v79h-186v92q35 41 64.5 118.5t29.5 130.5
h110q0 -61 -24 -131t-61 -117h67v61h105v-61h30z" />
    <glyph glyph-name="asterisk" unicode="*" horiz-adv-x="486" 
d="M313 609l113 -65l-35 -61l-113 65v-130h-70v130l-113 -65l-35 61l113 65l-113 65l35 61l113 -66v131h70v-131l113 66l35 -61z" />
    <glyph glyph-name="backslash" unicode="\" horiz-adv-x="499" 
d="M341 0l-331 700h149l330 -700h-148z" />
    <glyph glyph-name="periodcentered" unicode="&#xb7;" horiz-adv-x="282" 
d="M77 269q-27 27 -27 64q0 38 27 64.5t64 26.5q38 0 64.5 -26.5t26.5 -64.5q0 -37 -26.5 -64t-64.5 -27q-37 0 -64 27z" />
    <glyph glyph-name="bullet" unicode="&#x2022;" horiz-adv-x="373" 
d="M118.5 218.5q-31.5 18.5 -50 50t-18.5 68.5t18.5 68t50 49.5t68.5 18.5t68 -18.5t49.5 -49.5t18.5 -68t-18.5 -68.5t-49.5 -50t-68 -18.5t-68.5 18.5z" />
    <glyph glyph-name="colon" unicode=":" horiz-adv-x="302" 
d="M87 19q-27 27 -27 64q0 38 27 64.5t64 26.5q38 0 64.5 -26.5t26.5 -64.5q0 -37 -26.5 -64t-64.5 -27q-37 0 -64 27zM87 343q-27 27 -27 64q0 38 27 64.5t64 26.5q38 0 64.5 -26.5t26.5 -64.5q0 -37 -26.5 -64t-64.5 -27q-37 0 -64 27z" />
    <glyph glyph-name="comma" unicode="," horiz-adv-x="282" 
d="M216.5 145.5q26.5 -28.5 26.5 -69.5q0 -44 -33 -100.5t-91 -108.5l-51 36q41 52 63 91q-30 6 -50.5 31.5t-20.5 57.5q0 38 27 64.5t64 26.5q39 0 65.5 -28.5z" />
    <glyph glyph-name="ellipsis" unicode="&#x2026;" horiz-adv-x="862" 
d="M657 19q-27 27 -27 64q0 38 27 64.5t64 26.5q38 0 64.5 -26.5t26.5 -64.5q0 -37 -26.5 -64t-64.5 -27q-37 0 -64 27zM367 19q-27 27 -27 64q0 38 27 64.5t64 26.5q38 0 64.5 -26.5t26.5 -64.5q0 -37 -26.5 -64t-64.5 -27q-37 0 -64 27zM77 19q-27 27 -27 64q0 38 27 64.5
t64 26.5q38 0 64.5 -26.5t26.5 -64.5q0 -37 -26.5 -64t-64.5 -27q-37 0 -64 27z" />
    <glyph glyph-name="exclam" unicode="!" horiz-adv-x="330" 
d="M93 700h144v-456h-144v456zM101 19q-27 27 -27 64q0 38 27 64.5t64 26.5q38 0 64.5 -26.5t26.5 -64.5q0 -37 -26.5 -64t-64.5 -27q-37 0 -64 27z" />
    <glyph glyph-name="exclamdown" unicode="&#xa1;" horiz-adv-x="330" 
d="M229.5 469.5q26.5 -26.5 26.5 -64.5q0 -37 -26.5 -64t-64.5 -27q-37 0 -64 27t-27 64q0 38 27 64.5t64 26.5q38 0 64.5 -26.5zM237 -212h-144v456h144v-456z" />
    <glyph glyph-name="numbersign" unicode="#" horiz-adv-x="709" 
d="M539 407l-24 -112h103v-101h-124l-42 -194h-107l42 194h-127l-42 -194h-108l42 194h-102v101h124l24 112h-107v102h129l41 191h107l-41 -191h127l41 191h107l-41 -191h98v-102h-120zM432 407h-127l-24 -112h127z" />
    <glyph glyph-name="period" unicode="." horiz-adv-x="282" 
d="M77 19q-27 27 -27 64q0 38 27 64.5t64 26.5q38 0 64.5 -26.5t26.5 -64.5q0 -37 -26.5 -64t-64.5 -27q-37 0 -64 27z" />
    <glyph glyph-name="question" unicode="?" horiz-adv-x="537" 
d="M220 364q69 -4 114 26t45 91q0 44 -27.5 71.5t-74.5 27.5q-44 0 -74.5 -30t-32.5 -74l-130 25q2 53 33 102t84.5 79.5t119.5 30.5q68 0 122.5 -30t86 -82t31.5 -116q0 -67 -32.5 -125t-94.5 -93.5t-147 -35.5l-23 1v132zM196 19q-27 27 -27 64q0 38 27 64.5t64 26.5
q38 0 64.5 -26.5t26.5 -64.5q0 -37 -26.5 -64t-64.5 -27q-37 0 -64 27z" />
    <glyph glyph-name="questiondown" unicode="&#xbf;" horiz-adv-x="537" 
d="M341.5 469.5q26.5 -26.5 26.5 -64.5q0 -37 -26.5 -64t-64.5 -27q-37 0 -64 27t-27 64q0 38 27 64.5t64 26.5q38 0 64.5 -26.5zM317 124q-69 4 -114 -26t-45 -91q0 -44 27.5 -71.5t74.5 -27.5q44 0 74.5 30t32.5 74l130 -25q-2 -53 -33 -102t-84.5 -79.5t-119.5 -30.5
q-68 0 -122.5 30t-86 82t-31.5 116q0 67 32.5 125t94.5 93.5t147 35.5l23 -1v-132z" />
    <glyph glyph-name="quotedbl" unicode="&#x22;" horiz-adv-x="436" 
d="M50 700h126v-260h-126v260zM260 700h126v-260h-126v260z" />
    <glyph glyph-name="quotesingle" unicode="'" horiz-adv-x="226" 
d="M50 700h126v-260h-126v260z" />
    <glyph glyph-name="semicolon" unicode=";" horiz-adv-x="302" 
d="M226.5 145.5q26.5 -28.5 26.5 -69.5q0 -44 -33 -100.5t-91 -108.5l-51 36q41 52 63 91q-30 6 -50.5 31.5t-20.5 57.5q0 38 27 64.5t64 26.5q39 0 65.5 -28.5zM87 343q-27 27 -27 64q0 38 27 64.5t64 26.5q38 0 64.5 -26.5t26.5 -64.5q0 -37 -26.5 -64t-64.5 -27
q-37 0 -64 27z" />
    <glyph glyph-name="slash" unicode="/" horiz-adv-x="499" 
d="M340 700h149l-331 -700h-148z" />
    <glyph glyph-name="underscore" unicode="_" horiz-adv-x="555" 
d="M-5 -80h565v-100h-565v100z" />
    <glyph glyph-name="braceleft" unicode="{" horiz-adv-x="478" 
d="M185 -90.5q-45 31.5 -45 118.5v144q0 53 -20 73t-60 20v116q40 0 60 20t20 73v144q0 87 45 118.5t119 31.5h114v-122h-74q-36 0 -53 -12.5t-17 -48.5v-140q0 -51 -16 -80t-53 -42q37 -13 53 -42t16 -80v-140q0 -36 17 -48.5t53 -12.5h74v-122h-114q-74 0 -119 31.5z" />
    <glyph glyph-name="braceright" unicode="}" horiz-adv-x="478" 
d="M293 736.5q45 -31.5 45 -118.5v-144q0 -53 20 -73t60 -20v-116q-40 0 -60 -20t-20 -73v-144q0 -87 -45 -118.5t-119 -31.5h-114v122h74q36 0 53 12.5t17 48.5v140q0 51 16 80t53 42q-37 13 -53 42t-16 80v140q0 36 -17 48.5t-53 12.5h-74v122h114q74 0 119 -31.5z" />
    <glyph glyph-name="bracketleft" unicode="[" horiz-adv-x="427" 
d="M84 768h279v-122h-145v-646h149v-122h-283v890z" />
    <glyph glyph-name="bracketright" unicode="]" horiz-adv-x="427" 
d="M343 -122h-279v122h145v646h-149v122h283v-890z" />
    <glyph glyph-name="parenleft" unicode="(" horiz-adv-x="438" 
d="M142.5 70q-52.5 115 -52.5 253t52.5 253t141.5 205l104 -69q-79 -92 -118.5 -185.5t-39.5 -203.5t39.5 -203.5t118.5 -185.5l-104 -69q-89 90 -141.5 205z" />
    <glyph glyph-name="parenright" unicode=")" horiz-adv-x="438" 
d="M295.5 576q52.5 -115 52.5 -253t-52.5 -253t-141.5 -205l-104 69q79 92 118.5 185.5t39.5 203.5t-39.5 203.5t-118.5 185.5l104 69q89 -90 141.5 -205z" />
    <glyph glyph-name="emdash" unicode="&#x2014;" horiz-adv-x="1089" 
d="M70 353h949v-124h-949v124z" />
    <glyph glyph-name="endash" unicode="&#x2013;" horiz-adv-x="739" 
d="M70 353h599v-124h-599v124z" />
    <glyph glyph-name="hyphen" unicode="-" horiz-adv-x="469" 
d="M60 355h349v-128h-349v128z" />
    <glyph glyph-name="guillemotleft" unicode="&#xab;" horiz-adv-x="742" 
d="M50 261l175 209h167l-178 -209l178 -210h-167zM350 261l175 209h167l-178 -209l178 -210h-167z" />
    <glyph glyph-name="guillemotright" unicode="&#xbb;" horiz-adv-x="742" 
d="M50 51l178 210l-178 209h167l175 -209l-175 -210h-167zM350 51l178 210l-178 209h167l175 -209l-175 -210h-167z" />
    <glyph glyph-name="guilsinglleft" unicode="&#x2039;" horiz-adv-x="442" 
d="M50 261l175 209h167l-178 -209l178 -210h-167z" />
    <glyph glyph-name="guilsinglright" unicode="&#x203a;" horiz-adv-x="442" 
d="M50 51l178 210l-178 209h167l175 -209l-175 -210h-167z" />
    <glyph glyph-name="quotedblbase" unicode="&#x201e;" horiz-adv-x="527" 
d="M461.5 145.5q26.5 -28.5 26.5 -69.5q0 -44 -33 -100.5t-91 -108.5l-51 36q41 52 63 91q-30 6 -50.5 31.5t-20.5 57.5q0 38 27 64.5t64 26.5q39 0 65.5 -28.5zM216.5 145.5q26.5 -28.5 26.5 -69.5q0 -44 -33 -100.5t-91 -108.5l-51 36q41 52 63 91q-30 6 -50.5 31.5
t-20.5 57.5q0 38 27 64.5t64 26.5q39 0 65.5 -28.5z" />
    <glyph glyph-name="quotedblleft" unicode="&#x201c;" horiz-adv-x="528" 
d="M212.5 552.5q20.5 -25.5 20.5 -57.5q0 -37 -26.5 -64t-64.5 -27q-39 0 -65.5 28.5t-26.5 69.5q0 44 33 100.5t91 108.5l51 -36q-41 -52 -63 -91q30 -6 50.5 -31.5zM457.5 552.5q20.5 -25.5 20.5 -57.5q0 -37 -26.5 -64t-64.5 -27q-39 0 -65.5 28.5t-26.5 69.5
q0 44 33 100.5t91 108.5l51 -36q-41 -52 -63 -91q30 -6 50.5 -31.5z" />
    <glyph glyph-name="quotedblright" unicode="&#x201d;" horiz-adv-x="528" 
d="M206.5 680.5q26.5 -28.5 26.5 -69.5q0 -44 -33 -100.5t-91 -108.5l-51 36q41 52 63 91q-30 6 -50.5 31.5t-20.5 57.5q0 38 27 64.5t64 26.5q39 0 65.5 -28.5zM451.5 680.5q26.5 -28.5 26.5 -69.5q0 -44 -33 -100.5t-91 -108.5l-51 36q41 52 63 91q-30 6 -50.5 31.5
t-20.5 57.5q0 38 27 64.5t64 26.5q39 0 65.5 -28.5z" />
    <glyph glyph-name="quoteleft" unicode="&#x2018;" horiz-adv-x="283" 
d="M212.5 552.5q20.5 -25.5 20.5 -57.5q0 -37 -26.5 -64t-64.5 -27q-39 0 -65.5 28.5t-26.5 69.5q0 44 33 100.5t91 108.5l51 -36q-41 -52 -63 -91q30 -6 50.5 -31.5z" />
    <glyph glyph-name="quoteright" unicode="&#x2019;" horiz-adv-x="283" 
d="M206.5 680.5q26.5 -28.5 26.5 -69.5q0 -44 -33 -100.5t-91 -108.5l-51 36q41 52 63 91q-30 6 -50.5 31.5t-20.5 57.5q0 38 27 64.5t64 26.5q39 0 65.5 -28.5z" />
    <glyph glyph-name="quotesinglbase" unicode="&#x201a;" horiz-adv-x="282" 
d="M216.5 145.5q26.5 -28.5 26.5 -69.5q0 -44 -33 -100.5t-91 -108.5l-51 36q41 52 63 91q-30 6 -50.5 31.5t-20.5 57.5q0 38 27 64.5t64 26.5q39 0 65.5 -28.5z" />
    <glyph glyph-name="cent" unicode="&#xa2;" horiz-adv-x="560" 
d="M358 236q28 16 44 43l119 -61q-20 -47 -63.5 -78t-98.5 -43v-97h-106v93q-62 10 -112 46t-78.5 90t-28.5 116t28.5 116t78.5 90t112 46v103h106v-107q56 -12 99 -43t63 -78l-119 -61q-16 27 -44 43t-63 16q-54 0 -89.5 -36t-35.5 -89t35.5 -89t89.5 -36q35 0 63 16z" />
    <glyph glyph-name="dollar" unicode="$" horiz-adv-x="579" 
d="M462 74q-46 -58 -122 -78v-99h-106v92q-59 7 -109.5 35.5t-83.5 74.5l94 95q25 -32 59 -53.5t76 -21.5q43 0 69.5 24t26.5 64q0 28 -14 44.5t-37 26t-68 22.5q-188 55 -188 199q0 76 47.5 134t127.5 73v88h106v-91q48 -11 84.5 -39t56.5 -72l-113 -71q-35 58 -91 58
q-35 0 -56 -21t-21 -52q0 -34 25.5 -50t86.5 -34q92 -27 144 -75.5t52 -134.5q0 -80 -46 -138z" />
    <glyph glyph-name="Euro" unicode="&#x20ac;" horiz-adv-x="632" 
d="M497 166l108 -85q-32 -46 -80 -70t-109 -24q-99 0 -166.5 63t-91.5 177h-92v96h81q-1 9 -1 27q0 22 1 32h-81v96h93q25 112 92 173.5t165 61.5q61 0 109 -24t80 -70l-108 -85q-31 45 -83 45q-39 0 -68 -26.5t-46 -74.5h128v-96h-145q-1 -10 -1 -32q0 -18 1 -27h145v-96
h-129q16 -51 45.5 -78.5t69.5 -27.5q52 0 83 45z" />
    <glyph glyph-name="sterling" unicode="&#xa3;" horiz-adv-x="600" 
d="M544 128v-128h-444v128q86 24 86 107q0 17 -3 32h-103v106h61q-15 32 -23.5 61t-8.5 62q0 59 29.5 108t81 77.5t113.5 28.5q74 0 132 -40t77 -105l-125 -51q-26 65 -87 65q-35 0 -57.5 -22t-22.5 -59q0 -22 6 -42t22 -60q4 -7 10 -23h154v-106h-125q1 -7 1 -22
q0 -69 -36 -117h262z" />
    <glyph glyph-name="yen" unicode="&#xa5;" horiz-adv-x="664" 
d="M451 408h108v-96h-156v-59h156v-96h-156v-157h-144v157h-154v96h154v59h-154v96h108l-170 292h161l130 -231l130 231h157z" />
    <glyph glyph-name="plus" unicode="+" horiz-adv-x="600" 
d="M520 254h-162v-162h-115v162h-163v115h163v163h115v-163h162v-115z" />
    <glyph glyph-name="minus" unicode="&#x2212;" horiz-adv-x="600" 
d="M80 369h440v-115h-440v115z" />
    <glyph glyph-name="multiply" unicode="&#xd7;" horiz-adv-x="600" 
d="M382 312l138 -139l-81 -82l-139 139l-139 -139l-81 82l139 139l-139 138l82 81l138 -138l138 138l82 -81z" />
    <glyph glyph-name="divide" unicode="&#xf7;" horiz-adv-x="600" 
d="M80 369h440v-115h-440v115zM240.5 454.5q-25.5 25.5 -25.5 60.5t25.5 60t60.5 25q34 0 59.5 -25t25.5 -60t-25 -60.5t-60 -25.5t-60.5 25.5zM240.5 49.5q-25.5 25.5 -25.5 60.5t25.5 60t60.5 25q34 0 59.5 -25t25.5 -60t-25 -60.5t-60 -25.5t-60.5 25.5z" />
    <glyph glyph-name="equal" unicode="=" horiz-adv-x="600" 
d="M80 269h440v-115h-440v115zM80 469h440v-115h-440v115z" />
    <glyph glyph-name="notequal" unicode="&#x2260;" horiz-adv-x="600" 
d="M371 354l-36 -85h185v-115h-233l-34 -82h-105l34 82h-102v115h150l36 85h-186v115h233l35 83h105l-35 -83h102v-115h-149z" />
    <glyph glyph-name="greater" unicode="&#x3e;" horiz-adv-x="600" 
d="M80 209l300 98l-300 97v115l440 -160v-105l-440 -160v115z" />
    <glyph glyph-name="less" unicode="&#x3c;" horiz-adv-x="600" 
d="M80 254v105l440 160v-115l-300 -97l300 -98v-115z" />
    <glyph glyph-name="greaterequal" unicode="&#x2265;" horiz-adv-x="600" 
d="M80 277l300 98l-300 97v115l440 -160v-105l-440 -160v115zM80 139h440v-115h-440v115z" />
    <glyph glyph-name="lessequal" unicode="&#x2264;" horiz-adv-x="600" 
d="M80 322v105l440 160v-115l-300 -97l300 -98v-115zM80 24v115h440v-115h-440z" />
    <glyph glyph-name="plusminus" unicode="&#xb1;" horiz-adv-x="600" 
d="M520 437v-115h-162v-142h-115v142h-163v115h163v143h115v-143h162zM80 139h440v-115h-440v115z" />
    <glyph glyph-name="approxequal" unicode="&#x2248;" horiz-adv-x="600" 
d="M80 400q27 39 57.5 59t71.5 20q22 0 44 -5.5t52 -16.5q29 -10 46 -15t34 -5q43 0 79 42l56 -69q-27 -40 -58 -59.5t-71 -19.5q-22 0 -44 5.5t-51 16.5q-29 10 -46 15t-34 5q-44 0 -80 -42zM80 211q27 39 57.5 59t71.5 20q22 0 44 -5.5t52 -16.5q29 -10 46 -15t34 -5
q43 0 79 42l56 -69q-27 -40 -58 -59.5t-71 -19.5q-22 0 -44 5.5t-51 16.5q-29 10 -46 15t-34 5q-44 0 -80 -42z" />
    <glyph glyph-name="asciitilde" unicode="~" horiz-adv-x="600" 
d="M80 308q27 39 57.5 59t71.5 20q22 0 44 -5.5t52 -16.5q29 -10 46 -15t34 -5q43 0 79 42l56 -69q-27 -40 -58 -59.5t-71 -19.5q-22 0 -44 5.5t-51 16.5q-29 10 -46 15t-34 5q-44 0 -80 -42z" />
    <glyph glyph-name="infinity" unicode="&#x221e;" horiz-adv-x="817" 
d="M679 446.5q41 -23.5 64.5 -64.5t23.5 -92t-23.5 -91.5t-63.5 -64t-89 -23.5q-47 0 -96 26t-90 74q-45 -54 -89 -77t-90 -23q-48 0 -88.5 23.5t-64 64.5t-23.5 91q0 51 23.5 92t64.5 64.5t90 23.5q101 0 186 -102q83 102 176 102q48 0 89 -23.5zM286 229.5
q28 16.5 59 52.5q-38 46 -61.5 64.5t-54.5 18.5q-28 0 -50 -21.5t-22 -54.5t21.5 -54.5t50.5 -21.5t57 16.5zM639.5 234q20.5 21 20.5 55q0 33 -21 54.5t-50 21.5q-31 0 -58 -17t-57 -54q34 -42 59.5 -61.5t57.5 -19.5q28 0 48.5 21z" />
    <glyph glyph-name="percent" unicode="%" horiz-adv-x="908" 
d="M137 395.5q-40 22.5 -63.5 61.5t-23.5 86t23.5 86t63.5 61.5t86 22.5t86 -22.5t63.5 -61.5t23.5 -86t-23.5 -86t-63.5 -61.5t-86 -22.5t-86 22.5zM267.5 497.5q18.5 18.5 18.5 45.5t-18.5 45.5t-44.5 18.5t-44.5 -18.5t-18.5 -45.5t18.5 -45.5t44.5 -18.5t44.5 18.5z
M599 9.5q-40 22.5 -63.5 61.5t-23.5 86t23.5 86t63.5 61.5t86 22.5t86 -22.5t63.5 -61.5t23.5 -86t-23.5 -86t-63.5 -61.5t-86 -22.5t-86 22.5zM729.5 111.5q18.5 18.5 18.5 45.5t-18.5 45.5t-44.5 18.5t-44.5 -18.5t-18.5 -45.5t18.5 -45.5t44.5 -18.5t44.5 18.5z
M253 157.5q33 71.5 71.5 121.5t102.5 122q75 84 115.5 149.5t58.5 149.5h114q-10 -73 -41.5 -138t-69.5 -115t-96 -116q-55 -63 -89.5 -110t-60 -102t-36.5 -119h-112q10 86 43 157.5z" />
    <glyph glyph-name="perthousand" unicode="&#x2030;" horiz-adv-x="1297" 
d="M137 395.5q-40 22.5 -63.5 61.5t-23.5 86t23.5 86t63.5 61.5t86 22.5t86 -22.5t63.5 -61.5t23.5 -86t-23.5 -86t-63.5 -61.5t-86 -22.5t-86 22.5zM267.5 497.5q18.5 18.5 18.5 45.5t-18.5 45.5t-44.5 18.5t-44.5 -18.5t-18.5 -45.5t18.5 -45.5t44.5 -18.5t44.5 18.5z
M599 9.5q-40 22.5 -63.5 61.5t-23.5 86t23.5 86t63.5 61.5t86 22.5t86 -22.5t63.5 -61.5t23.5 -86t-23.5 -86t-63.5 -61.5t-86 -22.5t-86 22.5zM729.5 111.5q18.5 18.5 18.5 45.5t-18.5 45.5t-44.5 18.5t-44.5 -18.5t-18.5 -45.5t18.5 -45.5t44.5 -18.5t44.5 18.5z
M253 157.5q33 71.5 71.5 121.5t102.5 122q75 84 115.5 149.5t58.5 149.5h114q-10 -73 -41.5 -138t-69.5 -115t-96 -116q-55 -63 -89.5 -110t-60 -102t-36.5 -119h-112q10 86 43 157.5zM988 9.5q-40 22.5 -63.5 61.5t-23.5 86t23.5 86t63.5 61.5t86 22.5t86 -22.5t63.5 -61.5
t23.5 -86t-23.5 -86t-63.5 -61.5t-86 -22.5t-86 22.5zM1118.5 111.5q18.5 18.5 18.5 45.5t-18.5 45.5t-44.5 18.5t-44.5 -18.5t-18.5 -45.5t18.5 -45.5t44.5 -18.5t44.5 18.5z" />
    <glyph glyph-name="arrowright" unicode="&#x2192;" horiz-adv-x="963" 
d="M913 338l-342 -344l-84 85l201 198h-638v120h639l-202 199l84 84z" />
    <glyph glyph-name="arrowleft" unicode="&#x2190;" horiz-adv-x="963" 
d="M913 277h-638l201 -198l-84 -85l-342 344l342 342l84 -84l-202 -199h639v-120z" />
    <glyph glyph-name="at" unicode="@" horiz-adv-x="839" 
d="M613 578q86 -45 136.5 -126t50.5 -183q0 -67 -22 -115t-59.5 -72.5t-83.5 -24.5q-36 0 -63 15t-44 40q-21 -28 -52.5 -41.5t-68.5 -13.5q-51 0 -93.5 25.5t-67 69t-24.5 94.5t24.5 94t67 68.5t93.5 25.5q57 0 91 -29v20h99v-216q0 -26 12.5 -41t33.5 -15q28 0 41.5 27.5
t13.5 76.5q0 84 -37.5 145t-99.5 92t-136 31q-79 0 -144 -35t-102.5 -97t-37.5 -141t37.5 -142t103 -98.5t144.5 -35.5q69 0 117 22l33 -89q-71 -31 -156 -31q-102 0 -189.5 48.5t-139.5 133.5t-52 191q0 105 52 190t140.5 133.5t193.5 48.5q102 0 188 -45zM472 182.5
q26 25.5 26 62.5q0 36 -26 62.5t-62 26.5q-37 0 -62.5 -26.5t-25.5 -62.5q0 -37 25.5 -62.5t62.5 -25.5q36 0 62 25.5z" />
    <glyph glyph-name="ampersand" unicode="&#x26;" horiz-adv-x="670" 
d="M569 167q53 -80 65 -167h-125q-6 33 -22 65q-84 -76 -193 -76q-70 0 -123 28t-82 76t-29 105q0 64 33 112.5t87 88.5q-28 36 -42 70t-14 71q0 48 22.5 85.5t61 59t86.5 21.5q46 0 84.5 -20t61 -56t22.5 -83q0 -89 -92 -161l96 -96l16 -16l53 96l115 -59l-59 -107
q-11 -21 -22 -37zM259.5 577q-13.5 -15 -13.5 -36q0 -16 10 -32.5t31 -38.5q29 20 41 37t12 35q0 22 -13 36t-33 14q-21 0 -34.5 -15zM409 165l-22 22l-123 124q-33 -25 -49 -50t-16 -55q0 -41 28.5 -66.5t74.5 -25.5q59 0 107 51z" />
    <glyph glyph-name="paragraph" unicode="&#xb6;" horiz-adv-x="649" 
d="M319 214q0 43 -11 67t-33 37.5t-67 29.5l-31 11q-69 24 -106 65.5t-37 104.5q0 78 53 124.5t141 46.5h181v-797h-90v311zM475 700h90v-797h-90v797z" />
    <glyph glyph-name="section" unicode="&#xa7;" horiz-adv-x="556" 
d="M454.5 234q-17.5 -34 -48.5 -58q42 -42 42 -107q0 -42 -22.5 -79.5t-62.5 -60.5t-92 -23q-61 0 -107.5 31.5t-62.5 84.5l100 41q21 -52 73 -52q26 0 43.5 16.5t17.5 39.5q0 28 -22 42.5t-68 26.5q-70 18 -115.5 59t-45.5 111q0 42 17.5 76t48.5 58q-42 42 -42 107
q0 42 22.5 79.5t62.5 60.5t92 23q61 0 107.5 -31.5t62.5 -84.5l-100 -41q-21 52 -73 52q-26 0 -43.5 -16.5t-17.5 -39.5q0 -28 22 -42.5t68 -26.5q70 -18 115.5 -59t45.5 -111q0 -42 -17.5 -76zM220.5 263q23.5 -15 70.5 -27q28 3 48 22t20 48q0 32 -23.5 47t-70.5 27
q-28 -3 -48 -22t-20 -48q0 -32 23.5 -47z" />
    <glyph glyph-name="copyright" unicode="&#xa9;" horiz-adv-x="803" 
d="M219.5 36.5q-83.5 48.5 -132 132t-48.5 182.5q0 98 48.5 181.5t132 132t182.5 48.5q98 0 181.5 -48.5t132 -132t48.5 -181.5q0 -99 -48.5 -182.5t-132 -132t-181.5 -48.5q-99 0 -182.5 48.5zM547 99.5q66 39.5 104 106t38 145.5t-37 145.5t-102.5 105.5t-147.5 39
t-147.5 -39t-103 -106t-37.5 -145q0 -79 37.5 -145.5t103.5 -106t147 -39.5q79 0 145 39.5zM301 175.5q-48 27.5 -75.5 74t-27.5 101.5t28 101.5t75.5 74t103.5 27.5q59 0 109 -27t71 -75l-95 -48q-12 21 -34.5 33.5t-50.5 12.5q-43 0 -71 -28.5t-28 -70.5t28 -70.5
t71 -28.5q28 0 50.5 12.5t34.5 33.5l95 -48q-21 -48 -71 -75t-109 -27q-56 0 -104 27.5z" />
    <glyph glyph-name="registered" unicode="&#xae;" horiz-adv-x="511" 
d="M364.5 684q49.5 -29 78.5 -78.5t29 -108.5t-29 -109t-78.5 -79t-108.5 -29t-109 29t-79 79t-29 109t29 108.5t79 78.5t109 29t108.5 -29zM343 346.5q39 23.5 61.5 63.5t22.5 87t-22 86.5t-61 63t-88 23.5t-88 -23.5t-61.5 -63t-22.5 -86.5t22.5 -87t62 -63.5t87.5 -23.5
t87 23.5zM307 476l51 -88h-57l-41 70q-20 -7 -28.5 -17.5t-8.5 -31.5v-21h-51v222h92q40 0 63 -19t23 -51q0 -43 -43 -64zM255 505l10 3q18 5 25.5 11.5t7.5 18.5q0 24 -35 24h-40v-71q11 9 32 14z" />
    <glyph glyph-name="trademark" unicode="&#x2122;" horiz-adv-x="848" 
d="M27 700h281v-88h-93v-290h-96v290h-92v88zM716 322l-19 221q-26 -35 -50.5 -104.5t-28.5 -116.5h-73q-4 47 -28.5 117.5t-50.5 104.5l-19 -222h-98l40 378h10q58 0 106.5 -51.5t75.5 -126.5q28 75 76 126.5t106 51.5h10l41 -378h-98z" />
    <glyph glyph-name="degree" unicode="&#xb0;" horiz-adv-x="406" 
d="M127 432.5q-35 19.5 -56 54t-21 76.5t21 76.5t56 54t76 19.5t76 -19.5t56 -54t21 -76.5t-21 -76.5t-56 -54t-76 -19.5t-76 19.5zM256.5 510.5q21.5 21.5 21.5 52.5t-21.5 52.5t-53.5 21.5t-53.5 -21.5t-21.5 -52.5t21.5 -52.5t53.5 -21.5t53.5 21.5z" />
    <glyph glyph-name="bar" unicode="|" horiz-adv-x="304" 
d="M90 768h124v-890h-124v890z" />
    <glyph glyph-name="brokenbar" unicode="&#xa6;" horiz-adv-x="304" 
d="M90 768h124v-370h-124v370zM90 248h124v-370h-124v370z" />
    <glyph glyph-name="asciicircum" unicode="^" horiz-adv-x="632" 
d="M455 270l-139 301l-139 -301h-127l200 430h133l199 -430h-127z" />
    <glyph glyph-name="uni0308" unicode="&#x308;" 
d="M-423.5 585q-24.5 25 -24.5 59t25 59t59 25t59 -25t25 -59t-25 -59t-59 -25q-35 0 -59.5 25zM-193.5 585q-24.5 25 -24.5 59t25 59t59 25t59 -25t25 -59t-25 -59t-59 -25q-35 0 -59.5 25z" />
    <glyph glyph-name="uni0307" unicode="&#x307;" 
d="M-195.5 583.5q-25.5 25.5 -25.5 60.5t25.5 60t60.5 25q34 0 59.5 -25t25.5 -60t-25 -60.5t-60 -25.5t-60.5 25.5z" />
    <glyph glyph-name="gravecomb" unicode="&#x300;" 
d="M-303 671l77 94l176 -142l-67 -77z" />
    <glyph glyph-name="acutecomb" unicode="&#x301;" 
d="M-303 623l176 142l77 -94l-186 -125z" />
    <glyph glyph-name="uni030B" unicode="&#x30b;" 
d="M-452 595l111 149l91 -72l-119 -133zM-252 595l111 149l91 -72l-119 -133z" />
    <glyph glyph-name="caroncomb.alt" 
d="M-193 512l32 201l111 -14l-58 -198z" />
    <glyph glyph-name="uni0302" unicode="&#x302;" 
d="M-418 619l184 134l184 -134l-61 -73l-123 79l-123 -79z" />
    <glyph glyph-name="uni030C" unicode="&#x30c;" 
d="M-234 674l123 79l61 -73l-184 -134l-184 134l61 73z" />
    <glyph glyph-name="uni0306" unicode="&#x306;" 
d="M-350.5 592q-49.5 44 -51.5 114h95q5 -26 27 -42t54 -16t54 16t27 42h95q-2 -70 -51.5 -114t-124.5 -44t-124.5 44z" />
    <glyph glyph-name="uni030A" unicode="&#x30a;" 
d="M-248.5 557q-30.5 17 -49 46.5t-18.5 66.5t18.5 66.5t49 46.5t65.5 17t65.5 -17t49 -46.5t18.5 -66.5t-18.5 -66.5t-49 -46.5t-65.5 -17t-65.5 17zM-144 631.5q16 15.5 16 38.5t-16 38.5t-39 15.5t-39 -15.5t-16 -38.5t16 -38.5t39 -15.5t39 15.5z" />
    <glyph glyph-name="tildecomb" unicode="&#x303;" 
d="M-473 633q37 38 69.5 55t67.5 17q23 0 42 -5.5t42 -16.5q19 -8 32 -12.5t27 -4.5q36 0 80 41l63 -76q-32 -35 -68 -53.5t-70 -18.5q-20 0 -38.5 5.5t-41.5 16.5q-23 10 -35 14t-26 4q-19 0 -37.5 -9.5t-43.5 -32.5z" />
    <glyph glyph-name="uni0304" unicode="&#x304;" 
d="M-353 691h303v-110h-303v110z" />
    <glyph glyph-name="uni0326" unicode="&#x326;" 
d="M-212 -236l34 175l128 -21l-61 -172z" />
    <glyph glyph-name="uni0327" unicode="&#x327;" 
d="M-79.5 -72.5q29.5 -31.5 29.5 -74.5q0 -47 -34 -79t-84 -32q-42 0 -73 22.5t-41 58.5l68 21q5 -15 17.5 -24.5t28.5 -9.5q19 0 31 12.5t12 30.5t-12 30t-30 12q-16 0 -28 -10l-51 34l64 120l57 -25l-28 -52q44 -3 73.5 -34.5z" />
    <glyph glyph-name="uni0328" unicode="&#x328;" 
d="M-208.5 -192q-38.5 33 -38.5 86q0 52 38.5 92.5t103.5 57.5l55 -44q-44 -12 -69 -32.5t-25 -43.5q0 -20 16.5 -31.5t44.5 -11.5q12 0 28 2v-101q-23 -7 -52 -7q-63 0 -101.5 33z" />
    <glyph glyph-name="uni0308.case" 
d="M-429.5 794q-24.5 25 -24.5 59t25 59t59 25t59 -25t25 -59t-25 -59t-59 -25q-35 0 -59.5 25zM-193.5 794q-24.5 25 -24.5 59t25 59t59 25t59 -25t25 -59t-25 -59t-59 -25q-35 0 -59.5 25z" />
    <glyph glyph-name="uni030A.case" 
d="M-256.5 695.5q-31.5 17.5 -50.5 48.5t-19 69t19 69t50.5 48.5t68.5 17.5t68.5 -17.5t50.5 -48.5t19 -69t-19 -69t-50.5 -48.5t-68.5 -17.5t-68.5 17.5zM-146 771.5q17 16.5 17 41.5t-17 41.5t-42 16.5t-42 -16.5t-17 -41.5t17 -41.5t42 -16.5t42 16.5z" />
    <glyph glyph-name="acute" unicode="&#xb4;" horiz-adv-x="353" 
d="M50 623l176 142l77 -94l-186 -125z" />
    <glyph glyph-name="breve" unicode="&#x2d8;" horiz-adv-x="452" 
d="M101.5 592q-49.5 44 -51.5 114h95q5 -26 27 -42t54 -16t54 16t27 42h95q-2 -70 -51.5 -114t-124.5 -44t-124.5 44z" />
    <glyph glyph-name="caron" unicode="&#x2c7;" horiz-adv-x="468" 
d="M234 674l123 79l61 -73l-184 -134l-184 134l61 73z" />
    <glyph glyph-name="cedilla" unicode="&#xb8;" horiz-adv-x="332" 
d="M252.5 -72.5q29.5 -31.5 29.5 -74.5q0 -47 -34 -79t-84 -32q-42 0 -73 22.5t-41 58.5l68 21q5 -15 17.5 -24.5t28.5 -9.5q19 0 31 12.5t12 30.5t-12 30t-30 12q-16 0 -28 -10l-51 34l64 120l57 -25l-28 -52q44 -3 73.5 -34.5z" />
    <glyph glyph-name="circumflex" unicode="&#x2c6;" horiz-adv-x="468" 
d="M50 619l184 134l184 -134l-61 -73l-123 79l-123 -79z" />
    <glyph glyph-name="dieresis" unicode="&#xa8;" horiz-adv-x="498" 
d="M74.5 585q-24.5 25 -24.5 59t25 59t59 25t59 -25t25 -59t-25 -59t-59 -25q-35 0 -59.5 25zM304.5 585q-24.5 25 -24.5 59t25 59t59 25t59 -25t25 -59t-25 -59t-59 -25q-35 0 -59.5 25z" />
    <glyph glyph-name="dotaccent" unicode="&#x2d9;" horiz-adv-x="271" 
d="M75.5 583.5q-25.5 25.5 -25.5 60.5t25.5 60t60.5 25q34 0 59.5 -25t25.5 -60t-25 -60.5t-60 -25.5t-60.5 25.5z" />
    <glyph glyph-name="grave" unicode="`" horiz-adv-x="353" 
d="M50 671l77 94l176 -142l-67 -77z" />
    <glyph glyph-name="hungarumlaut" unicode="&#x2dd;" horiz-adv-x="502" 
d="M50 595l111 149l91 -72l-119 -133zM250 595l111 149l91 -72l-119 -133z" />
    <glyph glyph-name="macron" unicode="&#xaf;" horiz-adv-x="403" 
d="M50 691h303v-110h-303v110z" />
    <glyph glyph-name="ogonek" unicode="&#x2db;" horiz-adv-x="297" 
d="M88.5 -192q-38.5 33 -38.5 86q0 52 38.5 92.5t103.5 57.5l55 -44q-44 -12 -69 -32.5t-25 -43.5q0 -20 16.5 -31.5t44.5 -11.5q12 0 28 2v-101q-23 -7 -52 -7q-63 0 -101.5 33z" />
    <glyph glyph-name="ring" unicode="&#x2da;" horiz-adv-x="366" 
d="M117.5 557q-30.5 17 -49 46.5t-18.5 66.5t18.5 66.5t49 46.5t65.5 17t65.5 -17t49 -46.5t18.5 -66.5t-18.5 -66.5t-49 -46.5t-65.5 -17t-65.5 17zM222 631.5q16 15.5 16 38.5t-16 38.5t-39 15.5t-39 -15.5t-16 -38.5t16 -38.5t39 -15.5t39 15.5z" />
    <glyph glyph-name="tilde" unicode="&#x2dc;" horiz-adv-x="523" 
d="M50 633q37 38 69.5 55t67.5 17q23 0 42 -5.5t42 -16.5q19 -8 32 -12.5t27 -4.5q36 0 80 41l63 -76q-32 -35 -68 -53.5t-70 -18.5q-20 0 -38.5 5.5t-41.5 16.5q-23 10 -35 14t-26 4q-19 0 -37.5 -9.5t-43.5 -32.5z" />
    </font>
</defs>
</svg>
