<?xml version="1.0" standalone="no"?>
<!DOCTYPE svg PUBLIC "-//W3C//DTD SVG 1.1//EN" "http://www.w3.org/Graphics/SVG/1.1/DTD/svg11.dtd" >
<svg>
<metadata>
Created by FontForge 20090622 at Mon Aug 21 23:30:58 2017
 By deploy user
 Copyright (c)2012 Talbot Type. All Rights Reserved
</metadata>
<defs>
<font id="Kessel105-Heavy" horiz-adv-x="700" >
  <font-face 
    font-family="Kessel 105"
    font-weight="900"
    font-stretch="normal"
    units-per-em="1000"
    panose-1="0 0 0 0 0 0 0 0 0 0"
    ascent="750"
    descent="-250"
    x-height="579"
    cap-height="750"
    bbox="-36 -188 1219 935"
    underline-thickness="28"
    underline-position="-72"
    unicode-range="U+0020-U+FB02"
  />
<missing-glyph horiz-adv-x="191" 
 />
    <glyph glyph-name=".notdef" horiz-adv-x="191" 
 />
    <glyph glyph-name=".null" horiz-adv-x="0" 
 />
    <glyph glyph-name="nonmarkingreturn" horiz-adv-x="333" 
 />
    <glyph glyph-name="space" unicode=" " horiz-adv-x="270" 
 />
    <glyph glyph-name="exclam" unicode="!" horiz-adv-x="324" 
d="M273 96q0 -46 -32.5 -78.5t-79.5 -32.5q-45 0 -77.5 32.5t-32.5 78.5t32.5 78t77.5 32q47 0 79.5 -32t32.5 -78zM244 231h-164l-20 519h204z" />
    <glyph glyph-name="quotedbl" unicode="&#x22;" horiz-adv-x="341" 
d="M134 445h-84v305h84v-305zM208 750h83v-305h-83v305z" />
    <glyph glyph-name="numbersign" unicode="#" horiz-adv-x="620" 
d="M373 426h-103l-21 -103h102zM440 426l-22 -103h182v-67h-196l-54 -256h-69l56 256h-103l-55 -256h-67l54 256h-146v67h160l22 103h-182v68h196l54 256h69l-54 -256h102l54 256h69l-54 -256h144v-68h-160z" />
    <glyph glyph-name="dollar" unicode="$" horiz-adv-x="677" 
d="M274 -69v56q-144 14 -234 78l109 155q25 -27 78.5 -43.5t114.5 -17.5q40 0 68 22.5t20 50.5t-59 40q-168 38 -243 96t-75 162q0 81 63.5 145t157.5 84v58h137v-54q127 -15 210 -74l-102 -147q-66 47 -177 47q-35 0 -56 -21.5t-12.5 -47.5t48.5 -38q169 -36 242 -92.5
t73 -163.5q0 -95 -63 -157.5t-163 -79.5v-58h-137z" />
    <glyph glyph-name="percent" unicode="%" horiz-adv-x="694" 
d="M235 -17l-87 36l225 544q-11 0 -33 4q-14 -47 -54.5 -77t-91.5 -30q-64 0 -109 45t-45 108q0 64 45 109t109 45q42 0 77.5 -22t56.5 -57q15 -28 49 -28q37 0 52 35l30 72l88 -37zM654 136q0 -63 -45 -108t-108 -45q-64 0 -109 45t-45 108q0 64 45 109t109 45
q63 0 108 -45t45 -109zM557 136q0 23 -16.5 39.5t-39.5 16.5t-40 -16.5t-17 -39.5t17 -40t40 -17t39.5 17t16.5 40zM250 613q0 23 -16 39.5t-40 16.5q-23 0 -39.5 -16.5t-16.5 -39.5t16.5 -39.5t39.5 -16.5q24 0 40 16.5t16 39.5z" />
    <glyph glyph-name="ampersand" unicode="&#x26;" horiz-adv-x="676" 
d="M615 174h33v-174h-33q-70 0 -124 40q-73 -57 -168 -57q-120 0 -201.5 75.5t-81.5 189.5q0 118 111 204q-41 61 -41 111q0 87 62 145.5t151 58.5t150.5 -58.5t61.5 -145.5t-62 -146t-150 -59q-35 0 -60.5 -25t-25.5 -60q0 -36 25.5 -64.5t60.5 -28.5q37 0 62 21t26 54
q16 74 72 122.5t132 48.5h33v-175h-33q-15 0 -27 -10.5t-12 -27.5t11.5 -28t27.5 -11zM323 497q20 0 37.5 17.5t17.5 39.5q0 21 -17.5 38.5t-37.5 17.5q-22 0 -39.5 -17.5t-17.5 -38.5q0 -22 17.5 -39.5t39.5 -17.5z" />
    <glyph glyph-name="quotesingle" unicode="'" horiz-adv-x="184" 
d="M134 445h-84v305h84v-305z" />
    <glyph glyph-name="parenleft" unicode="(" horiz-adv-x="336" 
d="M182 287q0 -289 124 -475h-108q-56 102 -87 226t-31 249q0 266 118 480h108q-124 -187 -124 -480z" />
    <glyph glyph-name="parenright" unicode=")" horiz-adv-x="336" 
d="M154 287q0 293 -124 480h108q118 -214 118 -480q0 -125 -31 -249t-87 -226h-108q124 186 124 475z" />
    <glyph glyph-name="asterisk" unicode="*" horiz-adv-x="385" 
d="M139 647l-59 26l34 57l52 -38l-6 65h66l-6 -65l53 38l32 -57l-59 -26l59 -28l-32 -56l-53 37l6 -65h-66l6 65l-52 -37l-34 56z" />
    <glyph glyph-name="plus" unicode="+" horiz-adv-x="680" 
d="M50 358h223v221h135v-221h222v-137h-222v-221h-135v221h-223v137z" />
    <glyph glyph-name="comma" unicode="," horiz-adv-x="314" 
d="M229 -5q0 -60 -42.5 -102.5t-103.5 -42.5h-19v81h19q27 0 45.5 18t19.5 44q-5 -1 -17 -1q-39 0 -67.5 28t-28.5 68t28.5 68.5t67.5 28.5q41 0 69.5 -28.5t28.5 -68.5v-93z" />
    <glyph glyph-name="hyphen" unicode="-" horiz-adv-x="465" 
d="M70 358h325v-137h-325v137z" />
    <glyph glyph-name="period" unicode="." horiz-adv-x="314" 
d="M131 -8q-39 0 -67.5 28t-28.5 68t28.5 68.5t67.5 28.5q41 0 69.5 -28.5t28.5 -68.5t-28.5 -68t-69.5 -28z" />
    <glyph glyph-name="slash" unicode="/" horiz-adv-x="513" 
d="M60 13l315 754l78 -29l-315 -755z" />
    <glyph glyph-name="zero" unicode="0" horiz-adv-x="674" 
d="M622 494v-238q0 -116 -82.5 -194.5t-202.5 -78.5t-202.5 78.5t-82.5 194.5v238q0 117 82 195t203 78t203 -78t82 -195zM414 264v222q0 32 -22.5 54.5t-54.5 22.5t-54.5 -22.5t-22.5 -54.5v-222q0 -32 23 -54.5t54 -22.5t54 22.5t23 54.5z" />
    <glyph glyph-name="one" unicode="1" horiz-adv-x="422" 
d="M55 404v204l307 178v-786h-204l1 461h-5z" />
    <glyph glyph-name="two" unicode="2" horiz-adv-x="641" 
d="M540 349l-126 -163l2 -2h155v-184h-527l331 454q12 19 12 40q0 28 -20 48t-48 20t-48 -20t-20 -48q0 -33 23 -51l-113 -156q-55 37 -88 93.5t-33 121.5q0 112 81 188.5t198 76.5q120 0 201 -75.5t81 -189.5q0 -75 -61 -153z" />
    <glyph glyph-name="three" unicode="3" horiz-adv-x="640" 
d="M387 256q0 28 -19.5 48t-48.5 20t-49 -20l-132 133l16 20l74 102h-148v191h518l-185 -254q82 -30 134.5 -96t52.5 -153q0 -114 -81 -189t-200 -75q-118 0 -198.5 75.5t-80.5 188.5v9h211q0 -28 19.5 -48t48.5 -20t48.5 20t19.5 48z" />
    <glyph glyph-name="four" unicode="4" horiz-adv-x="620" 
d="M20 136v187l325 427h179v-427h76v-187h-68v-136h-204v136h-308zM343 494l-109 -171h111v171h-2z" />
    <glyph glyph-name="five" unicode="5" horiz-adv-x="656" 
d="M616 255q0 -117 -84 -194.5t-207 -77.5q-122 0 -204.5 78.5t-82.5 193.5h210q0 -31 23 -54t54 -23t54 23t23 54t-23 54t-54 23q-35 0 -59 -27l-187 32l72 412h401v-191h-241l-9 -50q13 2 40 2q115 0 194.5 -72.5t79.5 -182.5z" />
    <glyph glyph-name="six" unicode="6" horiz-adv-x="655" 
d="M306 750h221l-142 -228q98 -19 164 -92t66 -174q0 -118 -83.5 -195.5t-205.5 -77.5t-204 77.5t-82 195.5q0 79 41 141zM249 256q0 -32 22.5 -54.5t54.5 -22.5t54.5 22.5t22.5 54.5q0 31 -22.5 53.5t-54.5 22.5t-54.5 -22.5t-22.5 -53.5z" />
    <glyph glyph-name="seven" unicode="7" horiz-adv-x="624" 
d="M97 0l223 555v5l-294 -1v191h586l-296 -750h-219z" />
    <glyph glyph-name="eight" unicode="8" horiz-adv-x="649" 
d="M505 439q46 -30 75 -80.5t29 -110.5q0 -116 -81.5 -190.5t-202.5 -74.5q-122 0 -203.5 74.5t-81.5 190.5q0 118 103 191q-48 46 -48 115q0 93 66 153t164 60t163.5 -60t65.5 -153q0 -33 -14 -64t-35 -51zM243 246q0 -34 23.5 -57.5t57.5 -23.5t58 23.5t24 57.5t-24 58
t-58 24t-57.5 -24t-23.5 -58zM268 545q0 -23 16.5 -39.5t39.5 -16.5t39.5 16.5t16.5 39.5t-16.5 39.5t-39.5 16.5t-39.5 -16.5t-16.5 -39.5z" />
    <glyph glyph-name="nine" unicode="9" horiz-adv-x="655" 
d="M349 0h-221l142 228q-98 19 -164 92t-66 174q0 118 83.5 195.5t205.5 77.5t204 -77.5t82 -195.5q0 -79 -41 -141zM406 494q0 32 -22.5 54.5t-54.5 22.5t-54.5 -22.5t-22.5 -54.5q0 -31 22.5 -53.5t54.5 -22.5t54.5 22.5t22.5 53.5z" />
    <glyph glyph-name="colon" unicode=":" horiz-adv-x="314" 
d="M131 -8q-39 0 -67.5 28t-28.5 68t28.5 68.5t67.5 28.5q41 0 69.5 -28.5t28.5 -68.5t-28.5 -68t-69.5 -28zM131 394q-39 0 -67.5 28t-28.5 68t28.5 68.5t67.5 28.5q41 0 69.5 -28.5t28.5 -68.5t-28.5 -68t-69.5 -28z" />
    <glyph glyph-name="semicolon" unicode=";" horiz-adv-x="314" 
d="M131 394q-39 0 -67.5 28t-28.5 68t28.5 68.5t67.5 28.5q41 0 69.5 -28.5t28.5 -68.5t-28.5 -68t-69.5 -28zM229 -5q0 -60 -42.5 -102.5t-103.5 -42.5h-19v81h19q27 0 45.5 18t19.5 44q-5 -1 -17 -1q-39 0 -67.5 28t-28.5 68t28.5 68.5t67.5 28.5q41 0 69.5 -28.5
t28.5 -68.5v-93z" />
    <glyph glyph-name="less" unicode="&#x3c;" horiz-adv-x="422" 
d="M382 162v-162l-342 221v137l342 221v-162l-204 -125v-4z" />
    <glyph glyph-name="equal" unicode="=" horiz-adv-x="679" 
d="M50 256h579v-137h-579v137zM629 323h-579v137h579v-137z" />
    <glyph glyph-name="greater" unicode="&#x3e;" horiz-adv-x="421" 
d="M40 0v162l204 126v4l-204 125v162l342 -221v-137z" />
    <glyph glyph-name="question" unicode="?" horiz-adv-x="619" 
d="M194 100q0 46 32.5 77.5t78.5 31.5t78.5 -31.5t32.5 -77.5q0 -45 -32.5 -76.5t-78.5 -31.5t-78.5 31.5t-32.5 76.5zM579 562q0 -62 -31 -102.5t-75 -57t-88 -25.5t-75 -18.5t-31 -27.5t30 -18.5t44 10.5l45 -76q-41 -19 -93 -19q-84 0 -132 33t-48 98q0 47 24.5 75
t59.5 37t70.5 15t60 19t24.5 38q0 23 -17 37.5t-42 14.5q-23 0 -39 -13t-19 -34l-207 28q10 81 82.5 136t182.5 55q122 0 198 -55t76 -150z" />
    <glyph glyph-name="at" unicode="@" horiz-adv-x="874" 
d="M699 328v47q0 109 -79 188t-188 79t-188.5 -79t-79.5 -188t79.5 -188t188.5 -79q65 0 119 28l56 -112q-84 -41 -175 -41q-163 0 -277.5 115t-114.5 277t114.5 277t277.5 115q162 0 277 -115t115 -277v-47q0 -66 -46 -111.5t-112 -45.5q-65 0 -108 43q-54 -43 -126 -43
q-85 0 -145 59.5t-60 144.5t60 144.5t145 59.5t144.5 -59.5t59.5 -144.5v-47q0 -13 8.5 -22.5t21.5 -9.5t23 9.5t10 22.5zM485 375q0 21 -15.5 37t-37.5 16q-21 0 -37 -16t-16 -37q0 -22 16 -38t37 -16q22 0 37.5 16t15.5 38z" />
    <glyph glyph-name="A" unicode="A" horiz-adv-x="774" 
d="M436 750l326 -750h-220l-34 85h-242l-34 -85h-220l327 750h97zM449 263l-60 146h-4l-60 -146h124z" />
    <glyph glyph-name="B" unicode="B" horiz-adv-x="704" 
d="M664 225q0 -96 -69.5 -160.5t-171.5 -64.5h-363v750h328q94 0 159 -58.5t65 -145.5q0 -35 -14 -63.5t-27 -41t-37 -30.5q130 -61 130 -186zM454 240q0 31 -19 51t-47 20h-124v-142h124q27 0 46.5 21.5t19.5 49.5zM264 581v-109h99q19 0 34 17t15 38t-15 37.5t-34 16.5
h-99z" />
    <glyph glyph-name="C" unicode="C" horiz-adv-x="808" 
d="M773 576l-175 -105q-25 42 -68 67t-93 25q-78 0 -133 -55.5t-55 -132.5t55 -132.5t133 -55.5q50 0 93 25t68 67l175 -105q-52 -87 -141.5 -139t-194.5 -52q-169 0 -285.5 113t-116.5 279t116.5 279t285.5 113q105 0 194.5 -52t141.5 -139z" />
    <glyph glyph-name="D" unicode="D" horiz-adv-x="768" 
d="M733 375q0 -160 -110 -267.5t-273 -107.5h-290v750h290q163 0 273 -107.5t110 -267.5zM520 375q0 73 -50 131t-120 58h-86v-378h86q70 0 120 58t50 131z" />
    <glyph glyph-name="E" unicode="E" horiz-adv-x="658" 
d="M264 184h359v-184h-563v750h563v-184h-359v-100h290v-182h-290v-100z" />
    <glyph glyph-name="F" unicode="F" horiz-adv-x="620" 
d="M605 566h-341v-100h273v-181h-273v-285h-204v750h545v-184z" />
    <glyph glyph-name="G" unicode="G" horiz-adv-x="791" 
d="M735 120q-55 -64 -132.5 -100.5t-165.5 -36.5q-168 0 -285 113t-117 279t117 279t285 113q162 0 278 -116l-140 -139q-61 61 -138 61q-82 0 -134.5 -59t-52.5 -139t52.5 -138.5t134.5 -58.5q24 0 46 8t32.5 15t32.5 23v61h-111v174h298v-339z" />
    <glyph glyph-name="H" unicode="H" horiz-adv-x="744" 
d="M684 0h-205v284h-215v-284h-204v750h204v-284h215v284h205v-750z" />
    <glyph glyph-name="I" unicode="I" horiz-adv-x="324" 
d="M60 0v750h204v-750h-204z" />
    <glyph glyph-name="J" unicode="J" horiz-adv-x="556" 
d="M232 -17q-64 0 -119.5 27.5t-92.5 74.5l166 120q18 -18 46 -18q24 0 42 15t18 37v511h204v-511q0 -106 -77.5 -181t-186.5 -75z" />
    <glyph glyph-name="K" unicode="K" horiz-adv-x="746" 
d="M734 0h-260l-162 209l-47 -59v-150h-205v750h205v-267l3 -1l206 268h260l-293 -375z" />
    <glyph glyph-name="L" unicode="L" horiz-adv-x="620" 
d="M605 185v-185h-545v750h204v-565h341z" />
    <glyph glyph-name="M" unicode="M" horiz-adv-x="908" 
d="M60 786l394 -308l394 308v-786h-204v369h-6l-184 -151l-184 151h-6v-369h-204v786z" />
    <glyph glyph-name="N" unicode="N" horiz-adv-x="754" 
d="M694 -36l-425 365h-5v-329h-204v786l424 -365h5v329h205v-786z" />
    <glyph glyph-name="O" unicode="O" horiz-adv-x="874" 
d="M625 375q0 77 -55.5 132.5t-132.5 55.5t-132.5 -55.5t-55.5 -132.5t55.5 -132.5t132.5 -55.5t132.5 55.5t55.5 132.5zM839 375q0 -166 -117 -279t-285 -113t-285 113t-117 279t117 279t285 113t285 -113t117 -279z" />
    <glyph glyph-name="P" unicode="P" horiz-adv-x="719" 
d="M684 477q0 -117 -82 -195t-201 -78h-137v-204h-204v750h341q119 0 201 -78t82 -195zM477 477q0 31 -22 60t-54 29h-137v-177h137q32 0 54 28.5t22 59.5z" />
    <glyph glyph-name="Q" unicode="Q" horiz-adv-x="875" 
d="M835 375q0 -86 -47 -178l31 -26v-217l-139 111q-107 -82 -242 -82q-163 0 -280.5 115.5t-117.5 276.5t117.5 276.5t280.5 115.5q164 0 280.5 -115t116.5 -277zM627 375q0 77 -55.5 132.5t-133.5 55.5q-77 0 -132 -55.5t-55 -132.5q0 -27 8 -54q27 49 74.5 77.5
t104.5 28.5q76 0 131 -47l53 -45q5 22 5 40zM385 220q0 -22 15.5 -36.5t37.5 -14.5q62 0 105 30l-71 61q-17 12 -34 12q-22 0 -37.5 -15t-15.5 -37z" />
    <glyph glyph-name="R" unicode="R" horiz-adv-x="724" 
d="M684 477q0 -135 -129 -225l127 -252h-229l-93 204h-96v-204h-204v750h341q119 0 201 -78t82 -195zM477 477q0 31 -22 60t-54 29h-137v-177h137q32 0 54 28.5t22 59.5z" />
    <glyph glyph-name="S" unicode="S" horiz-adv-x="677" 
d="M621 689l-102 -147q-66 47 -177 47q-35 0 -56 -21.5t-12.5 -47.5t48.5 -38q169 -36 242 -92.5t73 -163.5q0 -111 -85 -177t-210 -66q-87 0 -167.5 22t-134.5 60l109 155q25 -27 78.5 -43.5t114.5 -17.5q40 0 68 22.5t20 50.5t-59 40q-168 38 -243 96t-75 162
q0 97 87.5 167t201.5 70q169 0 279 -78z" />
    <glyph glyph-name="T" unicode="T" horiz-adv-x="644" 
d="M629 566h-205v-566h-204v566h-205v184h614v-184z" />
    <glyph glyph-name="U" unicode="U" horiz-adv-x="762" 
d="M702 750v-472q0 -134 -89.5 -214.5t-232.5 -80.5q-142 0 -231 80.5t-89 214.5v472h208v-472q0 -48 29 -76.5t83 -28.5t83.5 28.5t29.5 76.5v472h209z" />
    <glyph glyph-name="V" unicode="V" horiz-adv-x="753" 
d="M738 750l-312 -750h-98l-313 750h220l140 -349h4l140 349h219z" />
    <glyph glyph-name="W" unicode="W" horiz-adv-x="1077" 
d="M1062 750l-273 -750h-98l-150 325h-4l-151 -325h-98l-273 750h218l121 -351h4l181 387l180 -387h4l121 351h218z" />
    <glyph glyph-name="X" unicode="X" horiz-adv-x="732" 
d="M240 375l-225 375h244l106 -228h4l105 228h243l-224 -375l224 -375h-243l-105 228h-4l-106 -228h-244z" />
    <glyph glyph-name="Y" unicode="Y" horiz-adv-x="754" 
d="M252 750l123 -246h4l122 246h238l-260 -443v-307h-204v307l-260 443h237z" />
    <glyph glyph-name="Z" unicode="Z" horiz-adv-x="740" 
d="M63 563v187h672l-357 -554v-5l299 1v-192h-672l358 559v5z" />
    <glyph glyph-name="bracketleft" unicode="[" horiz-adv-x="314" 
d="M182 -69h102v-102h-204v921h204v-102h-102v-717z" />
    <glyph glyph-name="backslash" unicode="\" horiz-adv-x="513" 
d="M138 767l315 -754l-78 -30l-315 755z" />
    <glyph glyph-name="bracketright" unicode="]" horiz-adv-x="314" 
d="M30 -69h102v717h-102v102h204v-921h-204v102z" />
    <glyph glyph-name="asciicircum" unicode="^" horiz-adv-x="597" 
d="M231 750h136l170 -375h-149l-87 200h-4l-87 -200h-150z" />
    <glyph glyph-name="underscore" unicode="_" horiz-adv-x="519" 
d="M0 -91h579v-25h-579v25z" />
    <glyph glyph-name="grave" unicode="`" horiz-adv-x="351" 
d="M90 794l171 -59v-91l-171 42v108z" />
    <glyph glyph-name="a" unicode="a" horiz-adv-x="728" 
d="M480 0v82h-4q-21 -41 -68.5 -69.5t-108.5 -28.5q-116 0 -187.5 87.5t-71.5 218.5q0 132 71.5 219.5t187.5 87.5q54 0 97.5 -24.5t62.5 -57.5h4v64h205v-579h-188zM469 290q0 43 -31.5 75.5t-76.5 32.5q-44 0 -76 -32.5t-32 -75.5t32 -75.5t76 -32.5q45 0 76.5 32.5
t31.5 75.5z" />
    <glyph glyph-name="b" unicode="b" horiz-adv-x="728" 
d="M248 82v-82h-188v750h205v-235h4q19 33 62.5 57.5t97.5 24.5q121 0 190 -84.5t69 -222.5q0 -137 -69 -221.5t-190 -84.5q-61 0 -108.5 28.5t-68.5 69.5h-4zM259 290q0 -43 31.5 -75.5t76.5 -32.5q44 0 76 32.5t32 75.5t-32 75.5t-76 32.5q-45 0 -76.5 -32.5t-31.5 -75.5z
" />
    <glyph glyph-name="c" unicode="c" horiz-adv-x="671" 
d="M245 290q0 -45 33 -78t78 -33q29 0 54.5 15.5t40.5 40.5l184 -70q-37 -83 -110 -132.5t-169 -49.5q-133 0 -224.5 88t-91.5 219t91.5 219t224.5 88q96 0 169 -49t110 -132l-184 -72q-15 25 -40.5 41t-54.5 16q-45 0 -78 -33t-33 -78z" />
    <glyph glyph-name="d" unicode="d" horiz-adv-x="728" 
d="M480 0v82h-4q-21 -41 -68.5 -69.5t-108.5 -28.5q-121 0 -190 84.5t-69 221.5q0 138 69 222.5t190 84.5q54 0 97.5 -24.5t62.5 -57.5h4v235h205v-750h-188zM469 290q0 43 -31.5 75.5t-76.5 32.5q-44 0 -76 -32.5t-32 -75.5t32 -75.5t76 -32.5q45 0 76.5 32.5t31.5 75.5z
" />
    <glyph glyph-name="e" unicode="e" horiz-adv-x="704" 
d="M664 290q0 -32 -8 -69h-414q16 -30 49 -48t74 -18q92 0 154 40l96 -137q-107 -75 -245 -75q-141 3 -235.5 90t-94.5 217q0 132 89.5 219.5t222.5 87.5t222.5 -87.5t89.5 -219.5zM242 359h222q-40 70 -112 70q-70 0 -110 -70z" />
    <glyph glyph-name="f" unicode="f" horiz-adv-x="462" 
d="M450 719l-62 -108q-23 19 -56 19q-22 0 -38 -15t-16 -36h93v-162h-85v-417h-204v417h-52v162h52q0 78 64.5 133t156.5 55q85 0 147 -48z" />
    <glyph glyph-name="g" unicode="g" horiz-adv-x="723" 
d="M335 -188q-138 0 -252 70l90 138q96 -47 162 -47q68 0 107.5 38t43.5 93q0 2 -2 4q-63 -76 -157 -76q-124 0 -208 76t-84 198q0 125 80.5 208t201.5 83q52 0 92 -24.5t55 -55.5h4v62h195v-452q0 -130 -96 -222.5t-232 -92.5zM250 298q0 -41 30 -70t73 -29t73 29t30 70
t-30 70t-73 29t-73 -29t-30 -70z" />
    <glyph glyph-name="h" unicode="h" 
d="M265 0h-205v750h205v-224h4q16 27 56.5 48.5t90.5 21.5q224 0 224 -290v-306h-205v306q0 39 -21.5 66.5t-63.5 27.5t-63.5 -27.5t-21.5 -66.5v-306z" />
    <glyph glyph-name="i" unicode="i" horiz-adv-x="327" 
d="M61 0v579h204v-579h-204zM52 716q0 45 33 76t78 31q46 0 79 -31t33 -76q0 -44 -33 -75.5t-79 -31.5q-45 0 -78 31.5t-33 75.5z" />
    <glyph glyph-name="j" unicode="j" horiz-adv-x="396" 
d="M-36 -144l83 145q18 -10 41 -10q18 0 30.5 15t12.5 37v536h205v-553q0 -88 -68 -151t-163 -63q-76 0 -141 44zM122 716q0 45 33 76t78 31q46 0 79 -31t33 -76q0 -44 -33 -75.5t-79 -31.5q-45 0 -78 31.5t-33 75.5z" />
    <glyph glyph-name="k" unicode="k" horiz-adv-x="701" 
d="M418 579h271l-261 -289l261 -290h-273l-122 143l-29 -28v-115h-205v750h205v-349h4z" />
    <glyph glyph-name="l" unicode="l" horiz-adv-x="324" 
d="M60 0v750h204v-750h-204z" />
    <glyph glyph-name="m" unicode="m" horiz-adv-x="1023" 
d="M264 0h-204v579h178v-88h4q60 105 160 105q88 0 145 -80q66 80 169 80q108 0 177.5 -69t69.5 -169v-358h-204v320q0 32 -19.5 56t-53.5 24q-33 0 -52.5 -24t-19.5 -56v-320h-204v320q0 32 -19.5 56t-52.5 24q-35 0 -54.5 -24t-19.5 -56v-320z" />
    <glyph glyph-name="n" unicode="n" 
d="M350 400q-39 0 -62 -28t-23 -66v-306h-205v579h178v-81h4q28 45 65.5 71.5t97.5 26.5q235 0 235 -290v-306h-205v306q0 38 -23 66t-62 28z" />
    <glyph glyph-name="o" unicode="o" horiz-adv-x="714" 
d="M674 290q0 -131 -92 -219t-225 -88t-225 88t-92 219t92 219t225 88t225 -88t92 -219zM243 290q0 -47 33.5 -80.5t80.5 -33.5t80.5 33.5t33.5 80.5t-33.5 80.5t-80.5 33.5t-80.5 -33.5t-33.5 -80.5z" />
    <glyph glyph-name="p" unicode="p" horiz-adv-x="728" 
d="M248 579v-81h4q21 41 68.5 70t108.5 29q121 0 190 -85t69 -222q0 -138 -69 -222.5t-190 -84.5q-95 0 -160 82h-4v-236h-205v750h188zM259 290q0 -43 31.5 -75.5t76.5 -32.5q44 0 76 32.5t32 75.5t-32 75.5t-76 32.5q-45 0 -76.5 -32.5t-31.5 -75.5z" />
    <glyph glyph-name="q" unicode="q" horiz-adv-x="728" 
d="M480 498v81h188v-750h-205v236h-4q-65 -82 -160 -82q-121 0 -190 84.5t-69 222.5q0 137 69 222t190 85q61 0 108.5 -29t68.5 -70h4zM469 290q0 43 -31.5 75.5t-76.5 32.5q-44 0 -76 -32.5t-32 -75.5t32 -75.5t76 -32.5q45 0 76.5 32.5t31.5 75.5z" />
    <glyph glyph-name="r" unicode="r" horiz-adv-x="546" 
d="M389 597q76 0 149 -45l-102 -178q-23 18 -53 18q-56 0 -87.5 -32t-31.5 -87v-273h-204v579h176v-93l3 -2q59 113 150 113z" />
    <glyph glyph-name="s" unicode="s" horiz-adv-x="617" 
d="M549 536l-78 -129q-85 45 -163 45q-29 0 -43.5 -14t-6 -29.5t34.5 -19.5q92 -13 151.5 -34t87 -50.5t36.5 -57.5t9 -69q0 -88 -75.5 -141t-193.5 -53q-158 0 -268 69l81 131q30 -19 84 -34.5t103 -15.5q27 0 41 14t7 30.5t-34 24.5q-145 28 -206.5 69t-61.5 135
q0 84 74 136.5t180 52.5q139 0 241 -60z" />
    <glyph glyph-name="t" unicode="t" horiz-adv-x="427" 
d="M286 417v-197q0 -38 25 -38h86v-182h-111q-85 0 -144.5 59.5t-59.5 144.5v213h-52v162h52v131h204v-131h86v-162h-86z" />
    <glyph glyph-name="u" unicode="u" 
d="M350 179q39 0 62 28t23 66v306h205v-579h-178v81h-4q-62 -98 -173 -98q-225 0 -225 290v306h205v-306q0 -38 23 -66t62 -28z" />
    <glyph glyph-name="v" unicode="v" 
d="M685 579l-306 -579h-59l-305 579h232l101 -197h4l101 197h232z" />
    <glyph glyph-name="w" unicode="w" horiz-adv-x="944" 
d="M471 224l-129 -224h-57l-280 579h226l98 -199h4l140 235l138 -235h4l98 199h226l-280 -579h-57l-127 224h-4z" />
    <glyph glyph-name="x" unicode="x" horiz-adv-x="705" 
d="M690 579l-185 -289l185 -290h-254l-82 171h-4l-81 -171h-254l185 290l-185 289h254l81 -171h4l82 171h254z" />
    <glyph glyph-name="y" unicode="y" 
d="M685 579l-298 -750h-219l74 190l-227 560h228l105 -355h4l105 355h228z" />
    <glyph glyph-name="z" unicode="z" horiz-adv-x="621" 
d="M596 579l-221 -378v-4h197v-197h-547l220 380v4h-197v195h548z" />
    <glyph glyph-name="braceleft" unicode="{" horiz-adv-x="383" 
d="M353 -171h-34q-64 0 -109 45t-45 109v205q0 20 -14.5 35t-35.5 15h-35v102h35q21 0 35.5 15.5t14.5 36.5v204q0 64 45 109t109 45h34v-102h-34q-22 0 -36.5 -15t-14.5 -37v-204q0 -42 -53 -102q53 -62 53 -102v-205q0 -22 14.5 -37t36.5 -15h34v-102z" />
    <glyph glyph-name="bar" unicode="|" horiz-adv-x="323" 
d="M203 -171h-83v921h83v-921z" />
    <glyph glyph-name="braceright" unicode="}" horiz-adv-x="383" 
d="M64 -171h-34v102h34q22 0 36.5 15t14.5 37v205q0 40 53 102q-53 60 -53 102v204q0 22 -14.5 37t-36.5 15h-34v102h34q64 0 109 -45t45 -109v-204q0 -21 14.5 -36.5t35.5 -15.5h35v-102h-35q-21 0 -35.5 -15t-14.5 -35v-205q0 -64 -45 -109t-109 -45z" />
    <glyph glyph-name="asciitilde" unicode="~" horiz-adv-x="470" 
d="M159 238h-99q0 50 36.5 86.5t86.5 36.5q49 0 88 -36q5 -8 16 -8q10 0 17 7t7 17h99q0 -50 -36 -86t-87 -36q-52 0 -86 36q-7 7 -18 7q-10 0 -17 -7t-7 -17z" />
    <glyph glyph-name="uni00A0" unicode="&#xa0;" horiz-adv-x="500" 
 />
    <glyph glyph-name="exclamdown" unicode="&#xa1;" horiz-adv-x="324" 
d="M273 654q0 -46 -32.5 -78t-79.5 -32q-45 0 -77.5 32t-32.5 78t32.5 78.5t77.5 32.5q47 0 79.5 -32.5t32.5 -78.5zM80 519h164l20 -519h-204z" />
    <glyph glyph-name="cent" unicode="&#xa2;" horiz-adv-x="671" 
d="M245 290q0 -45 33 -78t78 -33q29 0 54.5 15.5t40.5 40.5l184 -70q-31 -68 -86 -114t-127 -61v-75h-136v75q-108 22 -177 104.5t-69 195.5q0 112 69 194.5t177 105.5v75h136v-75q72 -15 127 -61t86 -113l-184 -72q-15 25 -40.5 41t-54.5 16q-45 0 -78 -33t-33 -78z" />
    <glyph glyph-name="sterling" unicode="&#xa3;" horiz-adv-x="657" 
d="M313 518v-49h171v-171h-171v-80q11 0 22 -4t17 -7.5t17.5 -11.5t15.5 -11q11 -7 26.5 -5.5t23.5 9.5l41 40l141 -131q-64 -86 -161 -108.5t-187 37.5q-24 16 -45 -3l-53 -40l-131 153l56 46q13 11 13 31v85h-69v171h69v42q0 114 75.5 185t192.5 71q66 0 131 -34t98 -89
l-171 -105q-21 32 -59 32q-26 0 -44.5 -15.5t-18.5 -37.5z" />
    <glyph glyph-name="currency" unicode="&#xa4;" horiz-adv-x="694" 
d="M654 290q0 -88 -48 -163l48 -48l-95 -96l-48 48q-77 -48 -164 -48q-89 0 -164 48l-47 -47l-96 95l47 48q-47 74 -47 163t47 163l-47 48l96 95l47 -47q75 48 164 48q87 0 164 -48l48 48l95 -96l-48 -48q48 -75 48 -163zM230 290q0 -49 34.5 -84t82.5 -35t82.5 35t34.5 84
t-34.5 84t-82.5 35t-82.5 -35t-34.5 -84z" />
    <glyph glyph-name="yen" unicode="&#xa5;" horiz-adv-x="723" 
d="M15 750h239l106 -191h4l105 191h239l-133 -222h75v-102h-138l-20 -34h158v-102h-186v-290h-204v290h-185v102h157l-21 34h-136v102h74z" />
    <glyph glyph-name="brokenbar" unicode="&#xa6;" horiz-adv-x="257" 
d="M197 341h-137v290h137v-290zM197 -50h-137v289h137v-289z" />
    <glyph glyph-name="section" unicode="&#xa7;" horiz-adv-x="620" 
d="M247 546q0 -25 18 -40t44 -15q109 0 185 -58t76 -143q0 -72 -58 -130q58 -58 58 -135q0 -89 -76 -151t-185 -62q-87 0 -155.5 42.5t-92.5 108.5l187 62q3 -19 20 -33t41 -14q28 0 46 15.5t18 40.5q0 24 -19 39t-45 15q-108 0 -183.5 59t-75.5 143q0 72 59 129
q-59 59 -59 135q0 88 76 150.5t183 62.5q87 0 155.5 -42t93.5 -108l-186 -63q-3 19 -20 33t-43 14q-27 0 -44.5 -15.5t-17.5 -39.5zM247 290q0 -26 17.5 -43.5t44.5 -17.5q28 0 46 17.5t18 43.5q0 25 -18 42t-46 17q-27 0 -44.5 -17.5t-17.5 -41.5z" />
    <glyph glyph-name="dieresis" unicode="&#xa8;" horiz-adv-x="364" 
d="M152 712q0 -28 -20.5 -48.5t-48.5 -20.5t-48 20.5t-20 48.5t20 48t48 20t48.5 -20t20.5 -48zM349 712q0 -28 -20 -48.5t-49 -20.5q-28 0 -47.5 20.5t-19.5 48.5t19.5 48t47.5 20q29 0 49 -20t20 -48z" />
    <glyph glyph-name="copyright" unicode="&#xa9;" horiz-adv-x="693" 
d="M215 290q0 -54 38.5 -92.5t92.5 -38.5q57 0 93 38l53 -53q-60 -60 -146 -60q-85 0 -145 60t-60 146q0 85 60 145t145 60q86 0 146 -60l-53 -53q-37 39 -93 39q-54 0 -92.5 -38.5t-38.5 -92.5zM617 290q0 112 -79 191t-192 79q-112 0 -191 -79t-79 -191t79 -191.5
t191 -79.5q113 0 192 79.5t79 191.5zM653 290q0 -128 -89.5 -217.5t-217.5 -89.5q-127 0 -216.5 90t-89.5 217t89.5 216.5t216.5 89.5t217 -89.5t90 -216.5z" />
    <glyph glyph-name="ordfeminine" unicode="&#xaa;" horiz-adv-x="414" 
d="M260 468v41h-2q-11 -20 -34.5 -34.5t-54.5 -14.5q-57 0 -93 44t-36 109q0 66 36 110t93 44q27 0 49 -12.5t31 -28.5h2v32h103v-290h-94zM254 613q0 22 -15.5 38t-38.5 16q-22 0 -38 -16t-16 -38q0 -21 16 -37.5t38 -16.5q23 0 38.5 16t15.5 38z" />
    <glyph glyph-name="guillemotleft" unicode="&#xab;" horiz-adv-x="602" 
d="M296 546v-194l-73 -60v-4l73 -61v-193l-256 256zM562 546v-194l-73 -60v-4l73 -61v-193l-256 256z" />
    <glyph glyph-name="logicalnot" unicode="&#xac;" horiz-adv-x="444" 
d="M384 172h-102v67h-222v102h324v-169z" />
    <glyph glyph-name="registered" unicode="&#xae;" horiz-adv-x="319" 
d="M279 648q0 -49 -35 -84.5t-84 -35.5q-50 0 -85 35t-35 85q0 49 35.5 84t84.5 35t84 -35t35 -84zM265 648q0 43 -30.5 73.5t-74.5 30.5t-75 -30.5t-31 -73.5q0 -44 31 -75t75 -31t74.5 31t30.5 75zM224 573h-31l-28 56h-33v-56h-27v153h69q21 0 35.5 -14t14.5 -34
q0 -31 -30 -46zM132 656h42q10 0 16 6.5t6 15.5q0 8 -6 14t-16 6h-42v-42z" />
    <glyph glyph-name="macron" unicode="&#xaf;" horiz-adv-x="345" 
d="M285 750v-83h-225v83h225z" />
    <glyph glyph-name="degree" unicode="&#xb0;" horiz-adv-x="304" 
d="M187 665q0 14 -10.5 24t-24.5 10t-24 -10.5t-10 -23.5q0 -14 10 -24.5t24 -10.5t24.5 10.5t10.5 24.5zM254 665q0 -42 -29.5 -72t-72.5 -30q-42 0 -72 30t-30 72q0 43 30 72.5t72 29.5q43 0 72.5 -29.5t29.5 -72.5z" />
    <glyph glyph-name="plusminus" unicode="&#xb1;" horiz-adv-x="680" 
d="M273 307h-223v137h223v135h135v-135h222v-137h-222v-136h-135v136zM50 136h580v-136h-580v136z" />
    <glyph glyph-name="twosuperior" unicode="&#xb2;" horiz-adv-x="361" 
d="M290 549l-63 -81l1 -1h78v-92h-264l166 227q6 10 6 20q0 14 -10 24t-24 10t-24 -10t-10 -24q0 -17 11 -26l-56 -78q-61 42 -61 108q0 56 40.5 94t99.5 38q60 0 100.5 -37.5t40.5 -94.5q0 -39 -31 -77z" />
    <glyph glyph-name="threesuperior" unicode="&#xb3;" horiz-adv-x="360" 
d="M213 503q0 14 -10 24t-24 10q-15 0 -24 -10l-66 67l8 10l37 51h-74v95h259l-93 -127q41 -15 67.5 -48t26.5 -76q0 -57 -40.5 -94.5t-100.5 -37.5q-59 0 -99 37.5t-40 94.5v4h105q0 -14 10 -24t24 -10t24 10t10 24z" />
    <glyph glyph-name="acute" unicode="&#xb4;" horiz-adv-x="351" 
d="M90 735l171 59v-108l-171 -42v91z" />
    <glyph glyph-name="mu" unicode="&#xb5;" 
d="M60 -170v749h205v-306q0 -38 23 -66t62 -28t62 28t23 66v306h205v-579h-178v81h-4q-14 -31 -26 -48.5t-41 -33.5t-70 -16q-40 0 -65 25v-178h-196z" />
    <glyph glyph-name="mu" unicode="&#x3bc;" 
d="M60 -170v749h205v-306q0 -38 23 -66t62 -28t62 28t23 66v306h205v-579h-178v81h-4q-14 -31 -26 -48.5t-41 -33.5t-70 -16q-40 0 -65 25v-178h-196z" />
    <glyph glyph-name="paragraph" unicode="&#xb6;" horiz-adv-x="630" 
d="M25 528q0 92 65 157t157 65h323v-750h-102v584h-68v-584h-103v307h-50q-92 0 -157 64.5t-65 156.5zM190 528q0 -24 16.5 -40t40.5 -16h50v112h-50q-24 0 -40.5 -15.5t-16.5 -40.5z" />
    <glyph glyph-name="periodcentered" unicode="&#xb7;" horiz-adv-x="314" 
d="M131 194q-39 0 -67.5 28t-28.5 68t28.5 68.5t67.5 28.5q41 0 69.5 -28.5t28.5 -68.5t-28.5 -68t-69.5 -28z" />
    <glyph glyph-name="cedilla" unicode="&#xb8;" horiz-adv-x="326" 
d="M100 -153l39 23q5 -8 13.5 -10t15.5 2q18 9 7 28q-3 8 -11.5 10.5t-15.5 -2.5l-23 40l23 85l45 -12l-18 -67q29 -9 41 -31q14 -23 6.5 -50t-31.5 -40q-23 -14 -50 -7.5t-41 31.5z" />
    <glyph glyph-name="onesuperior" unicode="&#xb9;" horiz-adv-x="268" 
d="M55 577v102l153 89v-393h-102l1 231h-3z" />
    <glyph glyph-name="ordmasculine" unicode="&#xba;" horiz-adv-x="397" 
d="M357 614q0 -66 -46 -110t-112 -44q-67 0 -113 44t-46 110q0 65 46 109t113 44t112.5 -43.5t45.5 -109.5zM141 614q0 -23 17.5 -40.5t40.5 -17.5q24 0 40.5 17t16.5 41t-16.5 40.5t-40.5 16.5t-41 -16.5t-17 -40.5z" />
    <glyph glyph-name="guillemotright" unicode="&#xbb;" horiz-adv-x="602" 
d="M306 352v194l256 -256l-256 -256v193l73 61v4zM40 352v194l256 -256l-256 -256v193l73 61v4z" />
    <glyph glyph-name="onequarter" unicode="&#xbc;" horiz-adv-x="650" 
d="M123 12l313 755l71 -30l-313 -754zM340 68v94l162 213h90v-213h38v-94h-34v-68h-102v68h-154zM501 247l-54 -85h55v85h-1zM55 577v102l153 89v-393h-102l1 231h-3z" />
    <glyph glyph-name="onehalf" unicode="&#xbd;" horiz-adv-x="707" 
d="M123 12l313 755l71 -30l-313 -754zM636 174l-63 -81l1 -1h78v-92h-264l166 227q6 10 6 20q0 14 -10 24t-24 10t-24 -10t-10 -24q0 -17 11 -26l-56 -78q-61 42 -61 108q0 56 40.5 94t99.5 38q60 0 100.5 -37.5t40.5 -94.5q0 -39 -31 -77zM55 577v102l153 89v-393h-102
l1 231h-3z" />
    <glyph glyph-name="threequarters" unicode="&#xbe;" horiz-adv-x="725" 
d="M198 12l313 755l71 -30l-313 -754zM415 68v94l162 213h90v-213h38v-94h-34v-68h-102v68h-154zM576 247l-54 -85h55v85h-1zM213 503q0 14 -10 24t-24 10q-15 0 -24 -10l-66 67l8 10l37 51h-74v95h259l-93 -127q41 -15 67.5 -48t26.5 -76q0 -57 -40.5 -94.5t-100.5 -37.5
q-59 0 -99 37.5t-40 94.5v4h105q0 -14 10 -24t24 -10t24 10t10 24z" />
    <glyph glyph-name="questiondown" unicode="&#xbf;" horiz-adv-x="619" 
d="M425 650q0 -46 -32.5 -77.5t-78.5 -31.5t-78.5 31.5t-32.5 77.5q0 45 32.5 76.5t78.5 31.5t78.5 -31.5t32.5 -76.5zM40 188q0 62 31 102.5t75 57t88 25.5t75 18.5t31 27.5t-30 18.5t-44 -10.5l-45 76q41 19 93 19q84 0 132 -33t48 -98q0 -47 -24.5 -75t-60 -37t-70.5 -15
t-59.5 -19t-24.5 -38q0 -23 17 -37.5t42 -14.5q23 0 39 13t19 34l207 -28q-10 -81 -82.5 -136t-182.5 -55q-122 0 -198 55t-76 150z" />
    <glyph glyph-name="Agrave" unicode="&#xc0;" horiz-adv-x="774" 
d="M302 935l171 -59v-91l-171 42v108zM436 750l326 -750h-220l-34 85h-242l-34 -85h-220l327 750h97zM449 263l-60 146h-4l-60 -146h124z" />
    <glyph glyph-name="Aacute" unicode="&#xc1;" horiz-adv-x="774" 
d="M302 876l171 59v-108l-171 -42v91zM436 750l326 -750h-220l-34 85h-242l-34 -85h-220l327 750h97zM449 263l-60 146h-4l-60 -146h124z" />
    <glyph glyph-name="Acircumflex" unicode="&#xc2;" horiz-adv-x="774" 
d="M436 750l326 -750h-220l-34 85h-242l-34 -85h-220l327 750h97zM449 263l-60 146h-4l-60 -146h124zM321 776l-53 51l119 105l118 -105l-53 -51l-65 61z" />
    <glyph glyph-name="Atilde" unicode="&#xc3;" horiz-adv-x="774" 
d="M328 805h-73q0 37 27 63.5t64 26.5q24 0 47.5 -15.5t30.5 -15.5q18 0 18 18h75q0 -38 -27.5 -65t-65.5 -27q-25 0 -47.5 16t-30.5 16q-18 0 -18 -17zM436 750l326 -750h-220l-34 85h-242l-34 -85h-220l327 750h97zM449 263l-60 146h-4l-60 -146h124z" />
    <glyph glyph-name="Adieresis" unicode="&#xc4;" horiz-adv-x="774" 
d="M357 852q0 -28 -20.5 -48.5t-48.5 -20.5t-48 20.5t-20 48.5t20 48t48 20t48.5 -20t20.5 -48zM554 852q0 -28 -20 -48.5t-49 -20.5q-28 0 -47.5 20.5t-19.5 48.5t19.5 48t47.5 20q29 0 49 -20t20 -48zM436 750l326 -750h-220l-34 85h-242l-34 -85h-220l327 750h97z
M449 263l-60 146h-4l-60 -146h124z" />
    <glyph glyph-name="Aring" unicode="&#xc5;" horiz-adv-x="774" 
d="M410 851q0 10 -7 16.5t-16 6.5q-10 0 -17 -6.5t-7 -16.5t7 -17t17 -7q9 0 16 7t7 17zM460 851q0 -31 -21.5 -53t-51.5 -22q-31 0 -52.5 22t-21.5 53q0 30 21.5 51.5t52.5 21.5q30 0 51.5 -21.5t21.5 -51.5zM436 750l326 -750h-220l-34 85h-242l-34 -85h-220l327 750h97z
M449 263l-60 146h-4l-60 -146h124z" />
    <glyph glyph-name="AE" unicode="&#xc6;" horiz-adv-x="1106" 
d="M713 184h358v-184h-562v111h-195l-69 -111h-230l494 750h562v-185h-358v-99h290v-182h-290v-100zM509 284v156h-4l-89 -156h93z" />
    <glyph glyph-name="Ccedilla" unicode="&#xc7;" horiz-adv-x="808" 
d="M366 -153l39 23q5 -8 13.5 -10t15.5 2q18 9 7 28q-3 8 -11.5 10.5t-15.5 -2.5l-23 40l12 47q-157 11 -262.5 121.5t-105.5 268.5q0 166 116.5 279t285.5 113q105 0 194.5 -52t141.5 -139l-175 -105q-25 42 -68 67t-93 25q-78 0 -133 -55.5t-55 -132.5t55 -132.5
t133 -55.5q50 0 93 25t68 67l175 -105q-50 -84 -135.5 -135.5t-186.5 -55.5l-10 -39q29 -9 41 -31q14 -23 6.5 -50t-31.5 -40q-23 -14 -50 -7.5t-41 31.5z" />
    <glyph glyph-name="Egrave" unicode="&#xc8;" horiz-adv-x="658" 
d="M256 935l171 -59v-91l-171 42v108zM264 184h359v-184h-563v750h563v-184h-359v-100h290v-182h-290v-100z" />
    <glyph glyph-name="Eacute" unicode="&#xc9;" horiz-adv-x="658" 
d="M256 876l171 59v-108l-171 -42v91zM264 184h359v-184h-563v750h563v-184h-359v-100h290v-182h-290v-100z" />
    <glyph glyph-name="Ecircumflex" unicode="&#xca;" horiz-adv-x="658" 
d="M264 184h359v-184h-563v750h563v-184h-359v-100h290v-182h-290v-100zM267 776l-53 51l119 105l118 -105l-53 -51l-65 61z" />
    <glyph glyph-name="Edieresis" unicode="&#xcb;" horiz-adv-x="658" 
d="M310 852q0 -28 -20.5 -48.5t-48.5 -20.5t-48 20.5t-20 48.5t20 48t48 20t48.5 -20t20.5 -48zM507 852q0 -28 -20 -48.5t-49 -20.5q-28 0 -47.5 20.5t-19.5 48.5t19.5 48t47.5 20q29 0 49 -20t20 -48zM264 184h359v-184h-563v750h563v-184h-359v-100h290v-182h-290v-100z
" />
    <glyph glyph-name="Igrave" unicode="&#xcc;" horiz-adv-x="324" 
d="M60 0v750h204v-750h-204zM77 935l171 -59v-91l-171 42v108z" />
    <glyph glyph-name="Iacute" unicode="&#xcd;" horiz-adv-x="324" 
d="M60 0v750h204v-750h-204zM77 876l171 59v-108l-171 -42v91z" />
    <glyph glyph-name="Icircumflex" unicode="&#xce;" horiz-adv-x="324" 
d="M60 0v750h204v-750h-204zM97 776l-53 51l119 105l118 -105l-53 -51l-65 61z" />
    <glyph glyph-name="Idieresis" unicode="&#xcf;" horiz-adv-x="324" 
d="M60 0v750h204v-750h-204zM132 852q0 -28 -20.5 -48.5t-48.5 -20.5t-48 20.5t-20 48.5t20 48t48 20t48.5 -20t20.5 -48zM329 852q0 -28 -20 -48.5t-49 -20.5q-28 0 -47.5 20.5t-19.5 48.5t19.5 48t47.5 20q29 0 49 -20t20 -48z" />
    <glyph glyph-name="Eth" unicode="&#xd0;" horiz-adv-x="780" 
d="M30 307v137h40v306h290q161 0 273 -107.5t112 -267.5t-112 -267.5t-273 -107.5h-290v307h-40zM530 375q0 73 -50 131t-120 58h-86v-120h148v-137h-148v-121h86q70 0 120 58t50 131z" />
    <glyph glyph-name="Ntilde" unicode="&#xd1;" horiz-adv-x="754" 
d="M320 805h-73q0 37 27 63.5t64 26.5q24 0 47.5 -15.5t30.5 -15.5q18 0 18 18h75q0 -38 -27.5 -65t-65.5 -27q-25 0 -47.5 16t-30.5 16q-18 0 -18 -17zM694 -36l-425 365h-5v-329h-204v786l424 -365h5v329h205v-786z" />
    <glyph glyph-name="Ograve" unicode="&#xd2;" horiz-adv-x="874" 
d="M352 935l171 -59v-91l-171 42v108zM625 375q0 77 -55.5 132.5t-132.5 55.5t-132.5 -55.5t-55.5 -132.5t55.5 -132.5t132.5 -55.5t132.5 55.5t55.5 132.5zM839 375q0 -166 -117 -279t-285 -113t-285 113t-117 279t117 279t285 113t285 -113t117 -279z" />
    <glyph glyph-name="Oacute" unicode="&#xd3;" horiz-adv-x="874" 
d="M352 876l171 59v-108l-171 -42v91zM625 375q0 77 -55.5 132.5t-132.5 55.5t-132.5 -55.5t-55.5 -132.5t55.5 -132.5t132.5 -55.5t132.5 55.5t55.5 132.5zM839 375q0 -166 -117 -279t-285 -113t-285 113t-117 279t117 279t285 113t285 -113t117 -279z" />
    <glyph glyph-name="Ocircumflex" unicode="&#xd4;" horiz-adv-x="874" 
d="M625 375q0 77 -55.5 132.5t-132.5 55.5t-132.5 -55.5t-55.5 -132.5t55.5 -132.5t132.5 -55.5t132.5 55.5t55.5 132.5zM839 375q0 -166 -117 -279t-285 -113t-285 113t-117 279t117 279t285 113t285 -113t117 -279zM371 776l-53 51l119 105l118 -105l-53 -51l-65 61z" />
    <glyph glyph-name="Otilde" unicode="&#xd5;" horiz-adv-x="874" 
d="M625 375q0 77 -55.5 132.5t-132.5 55.5t-132.5 -55.5t-55.5 -132.5t55.5 -132.5t132.5 -55.5t132.5 55.5t55.5 132.5zM839 375q0 -166 -117 -279t-285 -113t-285 113t-117 279t117 279t285 113t285 -113t117 -279zM381 805h-73q0 37 27 63.5t64 26.5q24 0 47.5 -15.5
t30.5 -15.5q18 0 18 18h75q0 -38 -27.5 -65t-65.5 -27q-25 0 -47.5 16t-30.5 16q-18 0 -18 -17z" />
    <glyph glyph-name="Odieresis" unicode="&#xd6;" horiz-adv-x="874" 
d="M406 852q0 -28 -20.5 -48.5t-48.5 -20.5t-48 20.5t-20 48.5t20 48t48 20t48.5 -20t20.5 -48zM603 852q0 -28 -20 -48.5t-49 -20.5q-28 0 -47.5 20.5t-19.5 48.5t19.5 48t47.5 20q29 0 49 -20t20 -48zM625 375q0 77 -55.5 132.5t-132.5 55.5t-132.5 -55.5t-55.5 -132.5
t55.5 -132.5t132.5 -55.5t132.5 55.5t55.5 132.5zM839 375q0 -166 -117 -279t-285 -113t-285 113t-117 279t117 279t285 113t285 -113t117 -279z" />
    <glyph glyph-name="multiply" unicode="&#xd7;" horiz-adv-x="659" 
d="M426 290l193 -194l-96 -96l-194 194l-193 -194l-96 96l193 194l-193 193l96 96l193 -193l194 193l96 -96z" />
    <glyph glyph-name="Oslash" unicode="&#xd8;" horiz-adv-x="884" 
d="M844 375q0 -166 -117 -279t-285 -113q-131 0 -236 73l-73 -73l-83 83l70 70q-80 104 -80 239q0 166 117 279t285 113q131 0 236 -73l73 73l83 -83l-71 -71q81 -103 81 -238zM630 375q0 44 -21 84l-252 -252q40 -20 85 -20q77 0 132.5 55.5t55.5 132.5zM254 375
q0 -45 20 -85l252 252q-40 21 -84 21q-77 0 -132.5 -55.5t-55.5 -132.5z" />
    <glyph glyph-name="Ugrave" unicode="&#xd9;" horiz-adv-x="762" 
d="M295 935l171 -59v-91l-171 42v108zM702 750v-472q0 -134 -89.5 -214.5t-232.5 -80.5q-142 0 -231 80.5t-89 214.5v472h208v-472q0 -48 29 -76.5t83 -28.5t83.5 28.5t29.5 76.5v472h209z" />
    <glyph glyph-name="Uacute" unicode="&#xda;" horiz-adv-x="762" 
d="M295 876l171 59v-108l-171 -42v91zM702 750v-472q0 -134 -89.5 -214.5t-232.5 -80.5q-142 0 -231 80.5t-89 214.5v472h208v-472q0 -48 29 -76.5t83 -28.5t83.5 28.5t29.5 76.5v472h209z" />
    <glyph glyph-name="Ucircumflex" unicode="&#xdb;" horiz-adv-x="762" 
d="M702 750v-472q0 -134 -89.5 -214.5t-232.5 -80.5q-142 0 -231 80.5t-89 214.5v472h208v-472q0 -48 29 -76.5t83 -28.5t83.5 28.5t29.5 76.5v472h209zM315 776l-53 51l119 105l118 -105l-53 -51l-65 61z" />
    <glyph glyph-name="Udieresis" unicode="&#xdc;" horiz-adv-x="762" 
d="M349 852q0 -28 -20.5 -48.5t-48.5 -20.5t-48 20.5t-20 48.5t20 48t48 20t48.5 -20t20.5 -48zM546 852q0 -28 -20 -48.5t-49 -20.5q-28 0 -47.5 20.5t-19.5 48.5t19.5 48t47.5 20q29 0 49 -20t20 -48zM702 750v-472q0 -134 -89.5 -214.5t-232.5 -80.5q-142 0 -231 80.5
t-89 214.5v472h208v-472q0 -48 29 -76.5t83 -28.5t83.5 28.5t29.5 76.5v472h209z" />
    <glyph glyph-name="Yacute" unicode="&#xdd;" horiz-adv-x="754" 
d="M292 876l171 59v-108l-171 -42v91zM252 750l123 -246h4l122 246h238l-260 -443v-307h-204v307l-260 443h237z" />
    <glyph glyph-name="Thorn" unicode="&#xde;" horiz-adv-x="719" 
d="M684 383q0 -117 -82 -195t-201 -78h-137v-110h-204v750h204v-94h137q119 0 201 -78t82 -195zM477 383q0 31 -22 60t-54 29h-137v-177h137q32 0 54 28.5t22 59.5z" />
    <glyph glyph-name="germandbls" unicode="&#xdf;" horiz-adv-x="690" 
d="M650 248q0 -114 -69 -181t-188 -67h-77v174h51q32 0 52.5 20.5t20.5 53.5q0 32 -20.5 52t-52.5 20h-51v169q25 0 40.5 16t15.5 41q0 24 -15.5 39.5t-40.5 15.5t-40.5 -15.5t-15.5 -39.5v-546h-200v528q0 101 71.5 170t184.5 69q117 0 191 -66t74 -173q0 -37 -36 -92
q105 -77 105 -188z" />
    <glyph glyph-name="agrave" unicode="&#xe0;" horiz-adv-x="728" 
d="M288 794l171 -59v-91l-171 42v108zM480 0v82h-4q-21 -41 -68.5 -69.5t-108.5 -28.5q-116 0 -187.5 87.5t-71.5 218.5q0 132 71.5 219.5t187.5 87.5q54 0 97.5 -24.5t62.5 -57.5h4v64h205v-579h-188zM469 290q0 43 -31.5 75.5t-76.5 32.5q-44 0 -76 -32.5t-32 -75.5
t32 -75.5t76 -32.5q45 0 76.5 32.5t31.5 75.5z" />
    <glyph glyph-name="aacute" unicode="&#xe1;" horiz-adv-x="728" 
d="M288 735l171 59v-108l-171 -42v91zM480 0v82h-4q-21 -41 -68.5 -69.5t-108.5 -28.5q-116 0 -187.5 87.5t-71.5 218.5q0 132 71.5 219.5t187.5 87.5q54 0 97.5 -24.5t62.5 -57.5h4v64h205v-579h-188zM469 290q0 43 -31.5 75.5t-76.5 32.5q-44 0 -76 -32.5t-32 -75.5
t32 -75.5t76 -32.5q45 0 76.5 32.5t31.5 75.5z" />
    <glyph glyph-name="acircumflex" unicode="&#xe2;" horiz-adv-x="728" 
d="M295 665l-53 51l119 105l118 -105l-53 -51l-65 61zM480 0v82h-4q-21 -41 -68.5 -69.5t-108.5 -28.5q-116 0 -187.5 87.5t-71.5 218.5q0 132 71.5 219.5t187.5 87.5q54 0 97.5 -24.5t62.5 -57.5h4v64h205v-579h-188zM469 290q0 43 -31.5 75.5t-76.5 32.5q-44 0 -76 -32.5
t-32 -75.5t32 -75.5t76 -32.5q45 0 76.5 32.5t31.5 75.5z" />
    <glyph glyph-name="atilde" unicode="&#xe3;" horiz-adv-x="728" 
d="M303 690h-73q0 37 27 63.5t64 26.5q24 0 47.5 -15.5t30.5 -15.5q18 0 18 18h75q0 -38 -27.5 -65t-65.5 -27q-25 0 -47.5 16t-30.5 16q-18 0 -18 -17zM480 0v82h-4q-21 -41 -68.5 -69.5t-108.5 -28.5q-116 0 -187.5 87.5t-71.5 218.5q0 132 71.5 219.5t187.5 87.5
q54 0 97.5 -24.5t62.5 -57.5h4v64h205v-579h-188zM469 290q0 43 -31.5 75.5t-76.5 32.5q-44 0 -76 -32.5t-32 -75.5t32 -75.5t76 -32.5q45 0 76.5 32.5t31.5 75.5z" />
    <glyph glyph-name="adieresis" unicode="&#xe4;" horiz-adv-x="728" 
d="M330 712q0 -28 -20.5 -48.5t-48.5 -20.5t-48 20.5t-20 48.5t20 48t48 20t48.5 -20t20.5 -48zM527 712q0 -28 -20 -48.5t-49 -20.5q-28 0 -47.5 20.5t-19.5 48.5t19.5 48t47.5 20q29 0 49 -20t20 -48zM480 0v82h-4q-21 -41 -68.5 -69.5t-108.5 -28.5q-116 0 -187.5 87.5
t-71.5 218.5q0 132 71.5 219.5t187.5 87.5q54 0 97.5 -24.5t62.5 -57.5h4v64h205v-579h-188zM469 290q0 43 -31.5 75.5t-76.5 32.5q-44 0 -76 -32.5t-32 -75.5t32 -75.5t76 -32.5q45 0 76.5 32.5t31.5 75.5z" />
    <glyph glyph-name="aring" unicode="&#xe5;" horiz-adv-x="728" 
d="M384 727q0 10 -7 16.5t-16 6.5q-10 0 -17 -6.5t-7 -16.5t7 -17t17 -7q9 0 16 7t7 17zM434 727q0 -31 -21.5 -53t-51.5 -22q-31 0 -52.5 22t-21.5 53q0 30 21.5 51.5t52.5 21.5q30 0 51.5 -21.5t21.5 -51.5zM480 0v82h-4q-21 -41 -68.5 -69.5t-108.5 -28.5
q-116 0 -187.5 87.5t-71.5 218.5q0 132 71.5 219.5t187.5 87.5q54 0 97.5 -24.5t62.5 -57.5h4v64h205v-579h-188zM469 290q0 43 -31.5 75.5t-76.5 32.5q-44 0 -76 -32.5t-32 -75.5t32 -75.5t76 -32.5q45 0 76.5 32.5t31.5 75.5z" />
    <glyph glyph-name="ae" unicode="&#xe6;" horiz-adv-x="1221" 
d="M1181 290q0 -32 -8 -69h-414q16 -30 49 -48t74 -18q92 0 154 40l96 -137q-107 -75 -245 -75q-129 2 -225 104h-4v-87h-178v82h-4q-33 -46 -70.5 -72t-96.5 -26q-117 0 -193 88t-76 218q0 132 71.5 219.5t187.5 87.5q55 0 105 -29t65 -63h4v74h185v-80h4q41 45 89 71.5
t118 26.5q133 0 222.5 -87.5t89.5 -219.5zM469 290q0 43 -31.5 75.5t-76.5 32.5q-44 0 -76 -32.5t-32 -75.5t32 -75.5t76 -32.5q45 0 76.5 32.5t31.5 75.5zM759 359h222q-40 70 -112 70q-70 0 -110 -70z" />
    <glyph glyph-name="ccedilla" unicode="&#xe7;" horiz-adv-x="671" 
d="M292 -153l39 23q5 -8 13.5 -10t15.5 2q18 9 7 28q-3 8 -11.5 10.5t-15.5 -2.5l-23 40l12 46q-124 10 -206.5 96t-82.5 210q0 131 91.5 219t224.5 88q96 0 169 -49t110 -132l-184 -72q-15 25 -40.5 41t-54.5 16q-45 0 -78 -33t-33 -78t33 -78t78 -33q29 0 54.5 15.5
t40.5 40.5l184 -70q-36 -78 -103 -127t-155 -54l-10 -40q29 -9 41 -31q14 -23 6.5 -50t-31.5 -40q-23 -14 -50 -7.5t-41 31.5z" />
    <glyph glyph-name="egrave" unicode="&#xe8;" horiz-adv-x="704" 
d="M664 290q0 -32 -8 -69h-414q16 -30 49 -48t74 -18q92 0 154 40l96 -137q-107 -75 -245 -75q-141 3 -235.5 90t-94.5 217q0 132 89.5 219.5t222.5 87.5t222.5 -87.5t89.5 -219.5zM242 359h222q-40 70 -112 70q-70 0 -110 -70zM267 794l171 -59v-91l-171 42v108z" />
    <glyph glyph-name="eacute" unicode="&#xe9;" horiz-adv-x="704" 
d="M267 735l171 59v-108l-171 -42v91zM664 290q0 -32 -8 -69h-414q16 -30 49 -48t74 -18q92 0 154 40l96 -137q-107 -75 -245 -75q-141 3 -235.5 90t-94.5 217q0 132 89.5 219.5t222.5 87.5t222.5 -87.5t89.5 -219.5zM242 359h222q-40 70 -112 70q-70 0 -110 -70z" />
    <glyph glyph-name="ecircumflex" unicode="&#xea;" horiz-adv-x="704" 
d="M664 290q0 -32 -8 -69h-414q16 -30 49 -48t74 -18q92 0 154 40l96 -137q-107 -75 -245 -75q-141 3 -235.5 90t-94.5 217q0 132 89.5 219.5t222.5 87.5t222.5 -87.5t89.5 -219.5zM242 359h222q-40 70 -112 70q-70 0 -110 -70zM286 665l-53 51l119 105l118 -105l-53 -51
l-65 61z" />
    <glyph glyph-name="edieresis" unicode="&#xeb;" horiz-adv-x="704" 
d="M322 712q0 -28 -20.5 -48.5t-48.5 -20.5t-48 20.5t-20 48.5t20 48t48 20t48.5 -20t20.5 -48zM519 712q0 -28 -20 -48.5t-49 -20.5q-28 0 -47.5 20.5t-19.5 48.5t19.5 48t47.5 20q29 0 49 -20t20 -48zM664 290q0 -32 -8 -69h-414q16 -30 49 -48t74 -18q92 0 154 40
l96 -137q-107 -75 -245 -75q-141 3 -235.5 90t-94.5 217q0 132 89.5 219.5t222.5 87.5t222.5 -87.5t89.5 -219.5zM242 359h222q-40 70 -112 70q-70 0 -110 -70z" />
    <glyph glyph-name="igrave" unicode="&#xec;" horiz-adv-x="324" 
d="M60 0v579h204v-579h-204zM77 794l171 -59v-91l-171 42v108z" />
    <glyph glyph-name="iacute" unicode="&#xed;" horiz-adv-x="324" 
d="M60 0v579h204v-579h-204zM77 735l171 59v-108l-171 -42v91z" />
    <glyph glyph-name="icircumflex" unicode="&#xee;" horiz-adv-x="324" 
d="M60 0v579h204v-579h-204zM96 665l-53 51l119 105l118 -105l-53 -51l-65 61z" />
    <glyph glyph-name="idieresis" unicode="&#xef;" horiz-adv-x="324" 
d="M60 0v579h204v-579h-204zM132 712q0 -28 -20.5 -48.5t-48.5 -20.5t-48 20.5t-20 48.5t20 48t48 20t48.5 -20t20.5 -48zM329 712q0 -28 -20 -48.5t-49 -20.5q-28 0 -47.5 20.5t-19.5 48.5t19.5 48t47.5 20q29 0 49 -20t20 -48z" />
    <glyph glyph-name="eth" unicode="&#xf0;" horiz-adv-x="695" 
d="M434 677l108 -110q113 -133 113 -269q0 -128 -91.5 -219.5t-225.5 -94.5q-109 0 -203.5 71.5t-94.5 182.5q0 106 75 181t181 75q33 0 68 -8l-87 87l-55 -37l-28 43l46 30l-141 141h253l42 -36l57 36l28 -43zM449 276q0 42 -30 72t-72 30q-43 0 -72.5 -30t-29.5 -72
q0 -43 29.5 -73t72.5 -30q42 0 72 30t30 73z" />
    <glyph glyph-name="ntilde" unicode="&#xf1;" 
d="M301 690h-73q0 37 27 63.5t64 26.5q24 0 47.5 -15.5t30.5 -15.5q18 0 18 18h75q0 -38 -27.5 -65t-65.5 -27q-25 0 -47.5 16t-30.5 16q-18 0 -18 -17zM350 400q-39 0 -62 -28t-23 -66v-306h-205v579h178v-81h4q28 45 65.5 71.5t97.5 26.5q235 0 235 -290v-306h-205v306
q0 38 -23 66t-62 28z" />
    <glyph glyph-name="ograve" unicode="&#xf2;" horiz-adv-x="714" 
d="M271 794l171 -59v-91l-171 42v108zM674 290q0 -131 -92 -219t-225 -88t-225 88t-92 219t92 219t225 88t225 -88t92 -219zM243 290q0 -47 33.5 -80.5t80.5 -33.5t80.5 33.5t33.5 80.5t-33.5 80.5t-80.5 33.5t-80.5 -33.5t-33.5 -80.5z" />
    <glyph glyph-name="oacute" unicode="&#xf3;" horiz-adv-x="714" 
d="M271 735l171 59v-108l-171 -42v91zM674 290q0 -131 -92 -219t-225 -88t-225 88t-92 219t92 219t225 88t225 -88t92 -219zM243 290q0 -47 33.5 -80.5t80.5 -33.5t80.5 33.5t33.5 80.5t-33.5 80.5t-80.5 33.5t-80.5 -33.5t-33.5 -80.5z" />
    <glyph glyph-name="ocircumflex" unicode="&#xf4;" horiz-adv-x="714" 
d="M291 665l-53 51l119 105l118 -105l-53 -51l-65 61zM674 290q0 -131 -92 -219t-225 -88t-225 88t-92 219t92 219t225 88t225 -88t92 -219zM243 290q0 -47 33.5 -80.5t80.5 -33.5t80.5 33.5t33.5 80.5t-33.5 80.5t-80.5 33.5t-80.5 -33.5t-33.5 -80.5z" />
    <glyph glyph-name="otilde" unicode="&#xf5;" horiz-adv-x="714" 
d="M300 690h-73q0 37 27 63.5t64 26.5q24 0 47.5 -15.5t30.5 -15.5q18 0 18 18h75q0 -38 -27.5 -65t-65.5 -27q-25 0 -47.5 16t-30.5 16q-18 0 -18 -17zM674 290q0 -131 -92 -219t-225 -88t-225 88t-92 219t92 219t225 88t225 -88t92 -219zM243 290q0 -47 33.5 -80.5
t80.5 -33.5t80.5 33.5t33.5 80.5t-33.5 80.5t-80.5 33.5t-80.5 -33.5t-33.5 -80.5z" />
    <glyph glyph-name="odieresis" unicode="&#xf6;" horiz-adv-x="714" 
d="M326 712q0 -28 -20.5 -48.5t-48.5 -20.5t-48 20.5t-20 48.5t20 48t48 20t48.5 -20t20.5 -48zM523 712q0 -28 -20 -48.5t-49 -20.5q-28 0 -47.5 20.5t-19.5 48.5t19.5 48t47.5 20q29 0 49 -20t20 -48zM674 290q0 -131 -92 -219t-225 -88t-225 88t-92 219t92 219t225 88
t225 -88t92 -219zM243 290q0 -47 33.5 -80.5t80.5 -33.5t80.5 33.5t33.5 80.5t-33.5 80.5t-80.5 33.5t-80.5 -33.5t-33.5 -80.5z" />
    <glyph glyph-name="divide" unicode="&#xf7;" horiz-adv-x="679" 
d="M433 86q0 -39 -27.5 -66.5t-66.5 -27.5q-38 0 -65.5 27.5t-27.5 66.5q0 38 27.5 65.5t65.5 27.5q39 0 66.5 -27.5t27.5 -65.5zM246 493q0 39 27.5 66.5t65.5 27.5q39 0 66.5 -27.5t27.5 -66.5t-27.5 -66.5t-66.5 -27.5q-38 0 -65.5 27.5t-27.5 66.5zM50 358h579v-137
h-579v137z" />
    <glyph glyph-name="oslash" unicode="&#xf8;" horiz-adv-x="714" 
d="M674 290q0 -131 -92 -219t-225 -88q-101 0 -181 53l-53 -53l-73 73l50 51q-60 79 -60 183q0 131 92 219t225 88q97 0 175 -50l49 50l83 -73l-51 -51q61 -80 61 -183zM477 290q0 4 -8 36l-148 -148q18 -8 36 -8q55 0 87.5 32.5t32.5 87.5zM237 290q0 -14 7 -33l143 146
q-16 7 -30 7q-55 0 -87.5 -32.5t-32.5 -87.5z" />
    <glyph glyph-name="ugrave" unicode="&#xf9;" 
d="M264 794l171 -59v-91l-171 42v108zM350 179q39 0 62 28t23 66v306h205v-579h-178v81h-4q-62 -98 -173 -98q-225 0 -225 290v306h205v-306q0 -38 23 -66t62 -28z" />
    <glyph glyph-name="uacute" unicode="&#xfa;" 
d="M264 735l171 59v-108l-171 -42v91zM350 179q39 0 62 28t23 66v306h205v-579h-178v81h-4q-62 -98 -173 -98q-225 0 -225 290v306h205v-306q0 -38 23 -66t62 -28z" />
    <glyph glyph-name="ucircumflex" unicode="&#xfb;" 
d="M284 665l-53 51l119 105l118 -105l-53 -51l-65 61zM350 179q39 0 62 28t23 66v306h205v-579h-178v81h-4q-62 -98 -173 -98q-225 0 -225 290v306h205v-306q0 -38 23 -66t62 -28z" />
    <glyph glyph-name="udieresis" unicode="&#xfc;" 
d="M319 712q0 -28 -20.5 -48.5t-48.5 -20.5t-48 20.5t-20 48.5t20 48t48 20t48.5 -20t20.5 -48zM516 712q0 -28 -20 -48.5t-49 -20.5q-28 0 -47.5 20.5t-19.5 48.5t19.5 48t47.5 20q29 0 49 -20t20 -48zM350 179q39 0 62 28t23 66v306h205v-579h-178v81h-4q-62 -98 -173 -98
q-225 0 -225 290v306h205v-306q0 -38 23 -66t62 -28z" />
    <glyph glyph-name="yacute" unicode="&#xfd;" 
d="M266 735l171 59v-108l-171 -42v91zM685 579l-298 -750h-219l74 190l-227 560h228l105 -355h4l105 355h228z" />
    <glyph glyph-name="thorn" unicode="&#xfe;" horiz-adv-x="728" 
d="M429 597q121 0 190 -84.5t69 -222.5t-69 -222.5t-190 -84.5q-54 0 -97.5 24.5t-62.5 57.5h-4v-236h-205v461v460h205v-235h4q19 33 62.5 57.5t97.5 24.5zM259 290q0 -43 31.5 -75.5t76.5 -32.5q44 0 76 32.5t32 75.5t-32 75.5t-76 32.5q-45 0 -76.5 -32.5t-31.5 -75.5z
" />
    <glyph glyph-name="ydieresis" unicode="&#xff;" 
d="M320 712q0 -28 -20.5 -48.5t-48.5 -20.5t-48 20.5t-20 48.5t20 48t48 20t48.5 -20t20.5 -48zM517 712q0 -28 -20 -48.5t-49 -20.5q-28 0 -47.5 20.5t-19.5 48.5t19.5 48t47.5 20q29 0 49 -20t20 -48zM685 579l-298 -750h-219l74 190l-227 560h228l105 -355h4l105 355h228
z" />
    <glyph glyph-name="dotlessi" unicode="&#x131;" horiz-adv-x="324" 
d="M60 0v579h204v-579h-204z" />
    <glyph glyph-name="Lslash" unicode="&#x141;" horiz-adv-x="638" 
d="M283 185h340v-185h-544v285l-59 -12v136l59 13v328h204v-286l112 24v-137l-112 -23v-143z" />
    <glyph glyph-name="lslash" unicode="&#x142;" horiz-adv-x="373" 
d="M348 477v-137l-59 -12v-328h-205v285l-59 -12v136l59 13v328h205v-286z" />
    <glyph glyph-name="OE" unicode="&#x152;" horiz-adv-x="1254" 
d="M860 184h359v-184h-563v54h-3q-92 -71 -216 -71q-168 0 -285 113t-117 279t117 279t285 113q125 0 216 -72h3v55h563v-184h-359v-100h290v-182h-290v-100zM625 375q0 77 -55.5 132.5t-132.5 55.5t-132.5 -55.5t-55.5 -132.5t55.5 -132.5t132.5 -55.5t132.5 55.5
t55.5 132.5z" />
    <glyph glyph-name="oe" unicode="&#x153;" horiz-adv-x="1130" 
d="M1090 290q0 -32 -8 -69h-414q16 -30 49 -48t74 -18q92 0 154 40l96 -137q-107 -75 -245 -75q-132 3 -224 79q-88 -79 -215 -79q-133 0 -225 88t-92 219t92 219t225 88q122 0 211 -76q87 76 210 76q133 0 222.5 -87.5t89.5 -219.5zM243 290q0 -47 33.5 -80.5t80.5 -33.5
t80.5 33.5t33.5 80.5t-33.5 80.5t-80.5 33.5t-80.5 -33.5t-33.5 -80.5zM668 359h222q-40 70 -112 70q-70 0 -110 -70z" />
    <glyph glyph-name="Scaron" unicode="&#x160;" horiz-adv-x="677" 
d="M621 689l-102 -147q-66 47 -177 47q-35 0 -56 -21.5t-12.5 -47.5t48.5 -38q169 -36 242 -92.5t73 -163.5q0 -111 -85 -177t-210 -66q-87 0 -167.5 22t-134.5 60l109 155q25 -27 78.5 -43.5t114.5 -17.5q40 0 68 22.5t20 50.5t-59 40q-168 38 -243 96t-75 162
q0 97 87.5 167t201.5 70q169 0 279 -78zM223 881l53 51l66 -61l65 61l53 -51l-118 -105z" />
    <glyph glyph-name="scaron" unicode="&#x161;" horiz-adv-x="617" 
d="M549 536l-78 -129q-85 45 -163 45q-29 0 -43.5 -14t-6 -29.5t34.5 -19.5q92 -13 151.5 -34t87 -50.5t36.5 -57.5t9 -69q0 -88 -75.5 -141t-193.5 -53q-158 0 -268 69l81 131q30 -19 84 -34.5t103 -15.5q27 0 41 14t7 30.5t-34 24.5q-145 28 -206.5 69t-61.5 135
q0 84 74 136.5t180 52.5q139 0 241 -60zM189 770l53 51l66 -61l65 61l53 -51l-118 -105z" />
    <glyph glyph-name="Ydieresis" unicode="&#x178;" horiz-adv-x="754" 
d="M346 852q0 -28 -20.5 -48.5t-48.5 -20.5t-48 20.5t-20 48.5t20 48t48 20t48.5 -20t20.5 -48zM543 852q0 -28 -20 -48.5t-49 -20.5q-28 0 -47.5 20.5t-19.5 48.5t19.5 48t47.5 20q29 0 49 -20t20 -48zM252 750l123 -246h4l122 246h238l-260 -443v-307h-204v307l-260 443
h237z" />
    <glyph glyph-name="Zcaron" unicode="&#x17d;" horiz-adv-x="740" 
d="M63 563v187h672l-357 -554v-5l299 1v-192h-672l358 559v5zM251 881l53 51l66 -61l65 61l53 -51l-118 -105z" />
    <glyph glyph-name="zcaron" unicode="&#x17e;" horiz-adv-x="621" 
d="M596 579l-221 -378v-4h197v-197h-547l220 380v4h-197v195h548zM191 770l53 51l66 -61l65 61l53 -51l-118 -105z" />
    <glyph glyph-name="florin" unicode="&#x192;" horiz-adv-x="467" 
d="M144 375h-52l24 171h53q26 87 101.5 145.5t164.5 58.5h17l-24 -171h-17q-15 0 -26 -9.5t-13 -23.5h51l-24 -171h-51l-43 -306q-14 -100 -94 -170t-179 -70h-17l24 171h17q14 0 26 10t14 24l5 35z" />
    <glyph glyph-name="circumflex" unicode="&#x2c6;" horiz-adv-x="437" 
d="M153 665l-53 51l119 105l118 -105l-53 -51l-65 61z" />
    <glyph glyph-name="caron" unicode="&#x2c7;" horiz-adv-x="437" 
d="M100 770l53 51l66 -61l65 61l53 -51l-118 -105z" />
    <glyph glyph-name="breve" unicode="&#x2d8;" horiz-adv-x="345" 
d="M60 750h87q9 -16 26 -16q16 0 25 16h87q-6 -42 -38 -70.5t-74 -28.5q-43 0 -75 28.5t-38 70.5z" />
    <glyph glyph-name="dotaccent" unicode="&#x2d9;" horiz-adv-x="267" 
d="M207 727q0 -31 -21.5 -53t-51.5 -22q-31 0 -52.5 22t-21.5 53q0 30 21.5 51.5t52.5 21.5q30 0 51.5 -21.5t21.5 -51.5z" />
    <glyph glyph-name="ring" unicode="&#x2da;" horiz-adv-x="348" 
d="M197 727q0 10 -7 16.5t-16 6.5q-10 0 -17 -6.5t-7 -16.5t7 -17t17 -7q9 0 16 7t7 17zM247 727q0 -31 -21.5 -53t-51.5 -22q-31 0 -52.5 22t-21.5 53q0 30 21.5 51.5t52.5 21.5q30 0 51.5 -21.5t21.5 -51.5z" />
    <glyph glyph-name="ogonek" unicode="&#x2db;" horiz-adv-x="305" 
d="M67 0h132q-16 -2 -26.5 -14t-10.5 -28q0 -18 12.5 -30.5t31.5 -12.5q29 0 39 29v-126q-24 -6 -39 -6q-61 0 -103.5 42.5t-42.5 103.5q0 24 7 42z" />
    <glyph glyph-name="tilde" unicode="&#x2dc;" horiz-adv-x="462" 
d="M173 690h-73q0 37 27 63.5t64 26.5q24 0 47.5 -15.5t30.5 -15.5q18 0 18 18h75q0 -38 -27.5 -65t-65.5 -27q-25 0 -47.5 16t-30.5 16q-18 0 -18 -17z" />
    <glyph glyph-name="hungarumlaut" unicode="&#x2dd;" horiz-adv-x="411" 
d="M121 750h89l-61 -138h-89zM262 750h89l-61 -138h-89z" />
    <glyph glyph-name="Omega" unicode="&#x3a9;" horiz-adv-x="884" 
d="M844 385q0 -116 -116 -204v-3h89v-178h-324v195q59 14 98 67t39 121q0 85 -51.5 137.5t-136.5 52.5t-136.5 -52.5t-51.5 -137.5q0 -68 39 -121t98 -67v-195h-324v178h89v3q-116 88 -116 204q0 171 113.5 276.5t288.5 105.5t288.5 -105.5t113.5 -276.5z" />
    <glyph glyph-name="pi" unicode="&#x3c0;" horiz-adv-x="619" 
d="M599 536v-196h-59v-340h-204v334q-42 -2 -60 -2q-18 -332 -22 -332h-204q8 0 21 314q-48 -10 -51 -20v197q0 18 145 29.5t289 13.5z" />
    <glyph glyph-name="endash" unicode="&#x2013;" horiz-adv-x="669" 
d="M45 358h579v-137h-579v137z" />
    <glyph glyph-name="emdash" unicode="&#x2014;" horiz-adv-x="993" 
d="M45 358h903v-137h-903v137z" />
    <glyph glyph-name="quoteleft" unicode="&#x2018;" horiz-adv-x="274" 
d="M50 518v94q0 60 42.5 102.5t102.5 42.5h20v-80h-20q-26 0 -44.5 -18.5t-19.5 -44.5q10 2 16 2q40 0 68.5 -29t28.5 -69q0 -39 -28.5 -68t-68.5 -29t-68.5 29t-28.5 68z" />
    <glyph glyph-name="quoteright" unicode="&#x2019;" horiz-adv-x="274" 
d="M224 660v-94q0 -60 -42.5 -102.5t-103.5 -42.5h-19v80h19q27 0 45.5 18.5t19.5 44.5q-10 -2 -17 -2q-39 0 -67.5 29t-28.5 69q0 39 28.5 68t67.5 29q40 0 69 -29t29 -68z" />
    <glyph glyph-name="quotesinglbase" unicode="&#x201a;" horiz-adv-x="274" 
d="M244 90v-94q0 -60 -42.5 -102.5t-103.5 -42.5h-19v80h19q27 0 45.5 18.5t19.5 44.5q-10 -2 -17 -2q-39 0 -67.5 29t-28.5 69q0 39 28.5 68t67.5 29q40 0 69 -29t29 -68z" />
    <glyph glyph-name="quotedblleft" unicode="&#x201c;" horiz-adv-x="506" 
d="M282 518v94q0 60 42.5 102.5t103.5 42.5h19v-80h-19q-27 0 -45.5 -18.5t-19.5 -44.5q10 2 17 2q39 0 67.5 -29t28.5 -69q0 -39 -28.5 -68t-67.5 -29q-40 0 -69 29t-29 68zM50 518v94q0 60 42.5 102.5t102.5 42.5h20v-80h-20q-26 0 -44.5 -18.5t-19.5 -44.5q10 2 16 2
q40 0 68.5 -29t28.5 -69q0 -39 -28.5 -68t-68.5 -29t-68.5 29t-28.5 68z" />
    <glyph glyph-name="quotedblright" unicode="&#x201d;" horiz-adv-x="506" 
d="M224 660v-94q0 -60 -42.5 -102.5t-103.5 -42.5h-19v80h19q27 0 45.5 18.5t19.5 44.5q-10 -2 -17 -2q-39 0 -67.5 29t-28.5 69q0 39 28.5 68t67.5 29q40 0 69 -29t29 -68zM456 660v-94q0 -60 -42.5 -102.5t-102.5 -42.5h-20v80h20q26 0 44.5 18.5t19.5 44.5q-10 -2 -16 -2
q-40 0 -68.5 29t-28.5 69q0 39 28.5 68t68.5 29t68.5 -29t28.5 -68z" />
    <glyph glyph-name="quotedblbase" unicode="&#x201e;" horiz-adv-x="506" 
d="M224 90v-94q0 -60 -42.5 -102.5t-103.5 -42.5h-19v80h19q27 0 45.5 18.5t19.5 44.5q-10 -2 -17 -2q-39 0 -67.5 29t-28.5 69q0 39 28.5 68t67.5 29q40 0 69 -29t29 -68zM456 90v-94q0 -60 -42.5 -102.5t-102.5 -42.5h-20v80h20q26 0 44.5 18.5t19.5 44.5q-10 -2 -16 -2
q-40 0 -68.5 29t-28.5 69q0 39 28.5 68t68.5 29t68.5 -29t28.5 -68z" />
    <glyph glyph-name="dagger" unicode="&#x2020;" horiz-adv-x="540" 
d="M60 579h161v171h102v-171h157v-102h-157v-563h-102v563h-161v102z" />
    <glyph glyph-name="daggerdbl" unicode="&#x2021;" horiz-adv-x="540" 
d="M60 85v102h161v290h-161v102h161v171h102v-171h157v-102h-157v-290h157v-102h-157v-171h-102v171h-161z" />
    <glyph glyph-name="bullet" unicode="&#x2022;" horiz-adv-x="473" 
d="M237 154q-57 0 -97 39.5t-40 96.5q0 56 40 96t97 40q56 0 96 -40t40 -96q0 -57 -40 -96.5t-96 -39.5z" />
    <glyph glyph-name="ellipsis" unicode="&#x2026;" horiz-adv-x="1234" 
d="M1005 89q0 41 28.5 69t68.5 28t68.5 -28t28.5 -69t-28.5 -69t-68.5 -28t-68.5 28t-28.5 69zM520 89q0 40 28.5 68.5t69.5 28.5q40 0 68.5 -28.5t28.5 -68.5t-28.5 -68.5t-68.5 -28.5q-41 0 -69.5 28.5t-28.5 68.5zM35 89q0 40 28.5 68.5t68.5 28.5q41 0 69.5 -28.5
t28.5 -68.5t-28.5 -68.5t-69.5 -28.5q-40 0 -68.5 28.5t-28.5 68.5z" />
    <glyph glyph-name="perthousand" unicode="&#x2030;" horiz-adv-x="1034" 
d="M994 136q0 -63 -45 -108t-108 -45q-64 0 -109 45t-45 108q0 64 45 109t109 45q63 0 108 -45t45 -109zM897 136q0 23 -16.5 39.5t-39.5 16.5t-40 -16.5t-17 -39.5t17 -40t40 -17t39.5 17t16.5 40zM235 -17l-87 36l225 544q-11 0 -33 4q-14 -47 -54.5 -77t-91.5 -30
q-64 0 -109 45t-45 108q0 64 45 109t109 45q42 0 77.5 -22t56.5 -57q15 -28 49 -28q37 0 52 35l30 72l88 -37zM654 136q0 -63 -45 -108t-108 -45q-64 0 -109 45t-45 108q0 64 45 109t109 45q63 0 108 -45t45 -109zM557 136q0 23 -16.5 39.5t-39.5 16.5t-40 -16.5t-17 -39.5
t17 -40t40 -17t39.5 17t16.5 40zM250 613q0 23 -16 39.5t-40 16.5q-23 0 -39.5 -16.5t-16.5 -39.5t16.5 -39.5t39.5 -16.5q24 0 40 16.5t16 39.5z" />
    <glyph glyph-name="guilsinglleft" unicode="&#x2039;" horiz-adv-x="336" 
d="M296 546v-194l-73 -60v-4l73 -61v-193l-256 256z" />
    <glyph glyph-name="guilsinglright" unicode="&#x203a;" horiz-adv-x="336" 
d="M40 352v194l256 -256l-256 -256v193l73 61v4z" />
    <glyph glyph-name="fraction" unicode="&#x2044;" horiz-adv-x="504" 
d="M60 12l313 755l71 -30l-313 -754z" />
    <glyph glyph-name="Euro" unicode="&#x20ac;" horiz-adv-x="723" 
d="M499 222l184 -57q-36 -92 -105 -137t-158 -45q-127 0 -204.5 75t-92.5 198h-88v102h73v34h-73v102h88q15 114 94 193.5t203 79.5q89 0 161 -47t102 -135l-183 -61q-24 63 -80 63q-36 0 -58.5 -24.5t-26.5 -68.5h257v-102h-277q-1 -6 -1 -17q0 -12 1 -17h195v-102h-175
q4 -40 27.5 -66.5t57.5 -26.5q63 0 79 59z" />
    <glyph glyph-name="trademark" unicode="&#x2122;" horiz-adv-x="363" 
d="M323 750v-150h-28v82h-1l-32 -82h-28l-33 82h-1v-82h-27v150h27l47 -113h2l46 113h28zM40 750h117v-28h-44v-122h-28v122h-45v28z" />
    <glyph glyph-name="partialdiff" unicode="&#x2202;" horiz-adv-x="695" 
d="M655 304q0 -132 -89.5 -225t-218.5 -96q-126 0 -216.5 74.5t-90.5 179.5q0 106 75 181t181 75q85 0 153 -50q-18 70 -47 115.5t-64 45.5t-66 -43l-138 97q87 108 204 108q86 0 159 -63t115.5 -169.5t42.5 -229.5zM449 275q0 42 -30 72t-72 30q-43 0 -72.5 -30t-29.5 -72
q0 -43 29.5 -73t72.5 -30q42 0 72 30t30 73z" />
    <glyph glyph-name="Delta" unicode="&#x2206;" horiz-adv-x="591" 
d="M20 0l208 750h135l208 -750h-551zM199 136h193l-95 364h-4z" />
    <glyph glyph-name="product" unicode="&#x220f;" horiz-adv-x="630" 
d="M605 556h-59v-556h-204v556h-52v-556h-204v556h-61v194h580v-194z" />
    <glyph glyph-name="summation" unicode="&#x2211;" horiz-adv-x="561" 
d="M536 184v-184h-511v204l186 171l-186 171v204h511v-184h-235v-4l184 -187l-184 -187v-4h235z" />
    <glyph glyph-name="minus" unicode="&#x2212;" horiz-adv-x="679" 
d="M50 222v137h579v-137h-579z" />
    <glyph glyph-name="radical" unicode="&#x221a;" horiz-adv-x="702" 
d="M238 308l52 -125h4l230 567h148l-313 -750h-136l-46 125h-4l-19 -53l-124 52l87 184h121z" />
    <glyph glyph-name="infinity" unicode="&#x221e;" horiz-adv-x="556" 
d="M50 290q0 49 35.5 84t85.5 35q55 0 84 -35l24 -29l24 29q29 35 84 35q49 0 84 -34.5t35 -84.5t-35 -84.5t-84 -34.5q-55 0 -84 35l-24 29l-24 -29q-29 -35 -84 -35q-50 0 -85.5 35t-35.5 84zM136 290q0 -15 10 -24.5t25 -9.5q14 0 28 12l28 22l-28 22q-13 11 -28 11
t-25 -9.5t-10 -23.5zM331 290l28 -22q14 -12 28 -12t24 9.5t10 24.5q0 14 -10 23.5t-24 9.5q-15 0 -28 -11z" />
    <glyph glyph-name="integral" unicode="&#x222b;" horiz-adv-x="347" 
d="M20 0h17q14 0 24.5 10t10.5 24v477q0 99 70 169t168 70h17v-171h-17q-14 0 -24 -10t-10 -23v-477q0 -100 -70 -170t-169 -70h-17v171z" />
    <glyph glyph-name="approxequal" unicode="&#x2248;" horiz-adv-x="680" 
d="M50 137v137l22.5 8.5t54.5 15.5t75 13t74.5 -5t63.5 -32t62.5 -32.5t76.5 -4t73 12.5t56 16l22 8v-137l-22.5 -8.5t-54.5 -15.5t-75 -13t-74 5t-63 32t-62.5 32.5t-77 4t-73.5 -12.5t-56 -16zM50 308v137l22.5 8.5t54.5 15.5t75 13t74.5 -5t63.5 -32t62.5 -33t76.5 -4.5
t73 12.5t56 16l22 9v-137l-22.5 -8.5t-54.5 -15.5t-75 -13.5t-74 5t-63 32.5t-62.5 32.5t-77 4t-73.5 -12.5t-56 -16z" />
    <glyph glyph-name="notequal" unicode="&#x2260;" horiz-adv-x="679" 
d="M436 323l-58 -64v-4h251v-136h-365l-114 -136l-78 65l59 67v4h-81v136h195l57 64v4h-252v136h367l111 135l80 -65l-58 -66v-4h79v-136h-193z" />
    <glyph glyph-name="lessequal" unicode="&#x2264;" horiz-adv-x="422" 
d="M382 171l-342 136v137l342 135v-146l-170 -56v-4l170 -56v-146zM40 136h342v-136h-342v136z" />
    <glyph glyph-name="greaterequal" unicode="&#x2265;" horiz-adv-x="422" 
d="M382 307l-342 -136v146l170 56v4l-170 56v146l342 -135v-137zM40 136h342v-136h-342v136z" />
    <glyph glyph-name="lozenge" unicode="&#x25ca;" horiz-adv-x="557" 
d="M517 375l-171 -375h-136l-170 375l170 375h136zM190 375l87 -208h4l87 208l-87 208h-4z" />
    <glyph glyph-name="uniF8FF" unicode="&#xf8ff;" horiz-adv-x="500" 
 />
    <glyph glyph-name="fi" unicode="&#xfb01;" horiz-adv-x="785" 
d="M450 719l-62 -108q-23 19 -56 19q-22 0 -38 -15t-16 -36h445v-579h-204v417h-233v-417h-204v417h-52v162h52q0 78 64.5 133t156.5 55q85 0 147 -48zM510 716q0 45 33 76t78 31q46 0 79 -31t33 -76q0 -44 -33 -75.5t-79 -31.5q-45 0 -78 31.5t-33 75.5z" />
    <glyph glyph-name="fl" unicode="&#xfb02;" horiz-adv-x="785" 
d="M83 579v27q0 67 38 105.5t105 38.5h499v-750h-206v621h-195q-38 0 -38 -38v-4h86v-161h-86v-418h-204v418h-52v161h53z" />
    <glyph glyph-name="Publisher" horiz-adv-x="693" 
d="M653 290q0 -128 -89.5 -217.5t-217.5 -89.5q-127 0 -216.5 90t-89.5 217t89.5 216.5t216.5 89.5t217 -89.5t90 -216.5zM617 290q0 112 -79 191t-192 79q-112 0 -191 -79t-79 -191t79 -191.5t191 -79.5q113 0 192 79.5t79 191.5zM529 341q0 -64 -45 -109.5t-109 -45.5h-89
v-102h-74v411h163q65 0 109.5 -44.5t44.5 -109.5zM455 341q0 33 -24 56.5t-56 23.5h-89v-159h89q33 0 56.5 23t23.5 56z" />
    <glyph glyph-name="tt" horiz-adv-x="863" 
d="M722 417v-197q0 -38 25 -38h86v-182h-111q-86 0 -145 55t-59 139v223h-232v-197q0 -38 25 -38h86v-182h-111q-85 0 -144.5 59.5t-59.5 144.5v213h-52v162h52v131h204v-131h232v131h204v-131h86v-162h-86z" />
    <glyph glyph-name="ft" horiz-adv-x="864" 
d="M723 417v-197q0 -38 25 -38h86v-182h-111q-85 0 -144.5 59.5t-59.5 144.5v213h-233v-417h-204v417h-52v162h52q0 78 64.5 133t156.5 55q85 0 147 -48l-62 -108q-23 19 -56 19q-22 0 -38 -15t-16 -36h241v131h204v-131h86v-162h-86z" />
    <glyph glyph-name="ffi" horiz-adv-x="1223" 
d="M450 719l-62 -108q-23 19 -56 19q-22 0 -38 -15t-16 -36h240q0 78 64.5 133t156.5 55q85 0 147 -48l-62 -108q-23 19 -56 19q-22 0 -38 -15t-16 -36h445v-579h-204v417h-233v-417h-204v417h-232v-417h-204v417h-52v162h52q0 78 64.5 133t156.5 55q85 0 147 -48zM946 716
q0 45 33 76t78 31q46 0 79 -31t33 -76q0 -44 -33 -75.5t-79 -31.5q-45 0 -78 31.5t-33 75.5z" />
    <glyph glyph-name="ffl" horiz-adv-x="1223" 
d="M450 719l-62 -108q-23 19 -56 19q-22 0 -38 -15t-16 -36h242v27q0 67 38 105.5t105 38.5h499v-750h-206v621h-195q-38 0 -38 -38v-4h86v-162h-86v-417h-204v417h-233v-417h-204v417h-52v162h52q0 78 64.5 133t156.5 55q85 0 147 -48z" />
    <glyph glyph-name="_0000" horiz-adv-x="501" 
 />
    </font>
</defs>
</svg>
