<?xml version="1.0" standalone="no"?>
<!DOCTYPE svg PUBLIC "-//W3C//DTD SVG 1.1//EN" "http://www.w3.org/Graphics/SVG/1.1/DTD/svg11.dtd" >
<svg>
<metadata>
Created by FontForge 20090622 at Mon Aug 21 23:30:30 2017
 By deploy user
 Copyright (c)2012 Talbot Type. All Rights Reserved
</metadata>
<defs>
<font id="Kessel105-Bold" horiz-adv-x="655" >
  <font-face 
    font-family="Kessel 105"
    font-weight="700"
    font-stretch="normal"
    units-per-em="1000"
    panose-1="0 0 0 0 0 0 0 0 0 0"
    ascent="750"
    descent="-250"
    x-height="579"
    cap-height="750"
    bbox="-36 -188 1244 960"
    underline-thickness="28"
    underline-position="-72"
    unicode-range="U+0020-U+FB02"
  />
<missing-glyph horiz-adv-x="191" 
 />
    <glyph glyph-name=".notdef" horiz-adv-x="191" 
 />
    <glyph glyph-name=".null" horiz-adv-x="0" 
 />
    <glyph glyph-name="nonmarkingreturn" horiz-adv-x="333" 
 />
    <glyph glyph-name="space" unicode=" " horiz-adv-x="270" 
 />
    <glyph glyph-name="exclam" unicode="!" horiz-adv-x="257" 
d="M206 70q0 -33 -22.5 -55t-54.5 -22t-54.5 22t-22.5 55q0 31 22.5 53t54.5 22t54.5 -22t22.5 -53zM182 204h-107l-15 546h137z" />
    <glyph glyph-name="quotedbl" unicode="&#x22;" horiz-adv-x="309" 
d="M123 477h-73v273h73v-273zM187 750h72v-273h-72v273z" />
    <glyph glyph-name="numbersign" unicode="#" horiz-adv-x="620" 
d="M373 426h-103l-21 -103h102zM440 426l-22 -103h182v-67h-196l-54 -256h-69l56 256h-103l-55 -256h-67l54 256h-146v67h160l22 103h-182v68h196l54 256h69l-54 -256h102l54 256h69l-54 -256h144v-68h-160z" />
    <glyph glyph-name="dollar" unicode="$" horiz-adv-x="641" 
d="M250 -76v64q-124 18 -210 92l80 113q77 -75 197 -75q50 0 87 24t48 56t-10.5 64t-76.5 47l-128 33q-82 22 -133 75.5t-51 132.5q0 75 56.5 132.5t140.5 76.5v51h135v-48q106 -16 188 -79l-79 -112q-72 59 -177 59q-34 0 -62.5 -12.5t-42 -32t-15 -41t18 -41t57.5 -30.5
l120 -31q92 -22 150 -80t58 -145q0 -83 -61.5 -145.5t-154.5 -81.5v-66h-135z" />
    <glyph glyph-name="percent" unicode="%" horiz-adv-x="620" 
d="M185 -17l-69 29l243 582h-11q-21 0 -39 6q-11 -46 -48.5 -75.5t-85.5 -29.5q-56 0 -95.5 39.5t-39.5 96.5t39.5 96.5t95.5 39.5q38 0 69.5 -18t49.5 -49q18 -32 54 -32q19 0 35 11t23 28l25 60l69 -29zM580 120q0 -57 -40 -97t-97 -40q-56 0 -95.5 40t-39.5 97
q0 56 39.5 96t95.5 40q57 0 97 -40t40 -96zM238 631q0 26 -18.5 44.5t-44.5 18.5q-25 0 -43.5 -18.5t-18.5 -44.5t18.5 -44t43.5 -18q26 0 44.5 18t18.5 44zM506 120q0 26 -18.5 44.5t-44.5 18.5q-25 0 -43.5 -19t-18.5 -44q0 -26 18.5 -44t43.5 -18q26 0 44.5 18t18.5 44z
" />
    <glyph glyph-name="ampersand" unicode="&#x26;" horiz-adv-x="667" 
d="M637 136v-136h-42q-65 0 -109 46q-72 -63 -172 -63q-116 0 -195 73t-79 182q0 126 121 209q-48 60 -48 124q0 83 58.5 139.5t142.5 56.5t142.5 -56.5t58.5 -139.5q0 -81 -60 -138.5t-141 -57.5q-53 0 -90 -37.5t-37 -89.5q0 -53 37 -91t90 -38t90.5 38t37.5 91v42
q0 63 45 108.5t108 45.5h42v-137h-42q-7 0 -12.5 -5t-5.5 -12v-136q0 -7 5.5 -12.5t12.5 -5.5h42zM246 563q0 -29 19.5 -49t48.5 -20q28 0 48.5 20t20.5 49q0 28 -20.5 47.5t-48.5 19.5t-48 -19.5t-20 -47.5z" />
    <glyph glyph-name="quotesingle" unicode="'" horiz-adv-x="173" 
d="M50 477v273h73v-273h-73z" />
    <glyph glyph-name="parenleft" unicode="(" horiz-adv-x="337" 
d="M182 287q0 -288 125 -475h-109q-56 102 -87 226t-31 249q0 266 118 480h109q-125 -188 -125 -480z" />
    <glyph glyph-name="parenright" unicode=")" horiz-adv-x="337" 
d="M155 287q0 292 -125 480h109q118 -214 118 -480q0 -125 -31 -249t-87 -226h-109q125 187 125 475z" />
    <glyph glyph-name="asterisk" unicode="*" horiz-adv-x="385" 
d="M139 647l-59 26l34 57l52 -38l-6 65h66l-6 -65l53 38l32 -57l-59 -26l59 -28l-32 -56l-53 37l6 -65h-66l6 65l-52 -37l-34 56z" />
    <glyph glyph-name="plus" unicode="+" horiz-adv-x="680" 
d="M50 340h240v239h102v-239h238v-102h-238v-238h-102v238h-240v102z" />
    <glyph glyph-name="comma" unicode="," horiz-adv-x="274" 
d="M189 -5q0 -48 -34 -82t-81 -34v65q20 0 35 14.5t16 35.5q-5 -2 -13 -2q-32 0 -54.5 23t-22.5 54t22.5 54t54.5 23t54.5 -23t22.5 -54v-74z" />
    <glyph glyph-name="hyphen" unicode="-" horiz-adv-x="465" 
d="M70 340h325v-102h-325v102z" />
    <glyph glyph-name="period" unicode="." horiz-adv-x="274" 
d="M112 -8q-32 0 -54.5 23t-22.5 54t22.5 54t54.5 23t54.5 -23t22.5 -54t-22.5 -54t-54.5 -23z" />
    <glyph glyph-name="slash" unicode="/" horiz-adv-x="502" 
d="M60 12l314 755l68 -29l-314 -755z" />
    <glyph glyph-name="zero" unicode="0" horiz-adv-x="641" 
d="M589 503v-257q0 -108 -79 -185.5t-189 -77.5t-189.5 77t-79.5 186v257q0 109 79.5 186.5t189.5 77.5t189 -77.5t79 -186.5zM449 246v257q0 52 -37.5 89.5t-90.5 37.5t-91 -37.5t-38 -89.5v-257q0 -52 38 -89.5t91 -37.5t90.5 37.5t37.5 89.5z" />
    <glyph glyph-name="one" unicode="1" horiz-adv-x="383" 
d="M50 479v150l273 157v-786h-136v557z" />
    <glyph glyph-name="two" unicode="2" horiz-adv-x="591" 
d="M494 352l-173 -215h198v-137h-483l352 437q26 31 26 76q0 49 -35 84t-84 35t-84 -35t-35 -84q0 -57 45 -94l-87 -106q-94 78 -94 200q0 105 75 179.5t180 74.5q106 0 181 -74.5t75 -179.5q0 -93 -57 -161z" />
    <glyph glyph-name="three" unicode="3" horiz-adv-x="599" 
d="M94 399l173 216h-179v135h465l-210 -261q90 -18 153 -89t63 -163q0 -104 -80 -179t-187 -75q-105 0 -179.5 74.5t-74.5 179.5h135q0 -49 35.5 -84t83.5 -35q50 0 85.5 35t35.5 84q0 50 -35.5 84.5t-85.5 34.5q-57 0 -92 -43z" />
    <glyph glyph-name="four" unicode="4" horiz-adv-x="615" 
d="M260 273h113v152h-4l-109 -148v-4zM4 136l506 650v-513h85v-137h-85v-136h-137v136h-369z" />
    <glyph glyph-name="five" unicode="5" horiz-adv-x="622" 
d="M210 329l-134 23l70 396h359v-135h-245l-19 -111q32 8 66 8q123 0 199 -74t76 -190q0 -113 -79.5 -188t-195.5 -75q-115 0 -192 75t-77 188h141q0 -53 37.5 -90.5t90.5 -37.5t91 37.5t38 90.5t-38 90t-91 37q-58 0 -97 -44z" />
    <glyph glyph-name="six" unicode="6" horiz-adv-x="629" 
d="M457 750l-138 -238v-3q110 -2 190 -76.5t80 -184.5q0 -114 -80 -189.5t-195 -75.5t-194.5 75.5t-79.5 189.5q0 69 36 132l224 370h157zM441 248q0 52 -37 89.5t-90 37.5t-90 -37.5t-37 -89.5q0 -53 37 -91t90 -38t90 38t37 91z" />
    <glyph glyph-name="seven" unicode="7" horiz-adv-x="591" 
d="M368 614h-342v136h545l-301 -750h-147z" />
    <glyph glyph-name="eight" unicode="8" horiz-adv-x="628" 
d="M442 248q0 52 -37 89.5t-90 37.5t-90.5 -37.5t-37.5 -89.5q0 -53 37.5 -91t90.5 -38t90 38t37 91zM388 563q0 29 -22 51t-51 22q-31 0 -52.5 -22t-21.5 -51q0 -31 21.5 -52.5t52.5 -21.5q29 0 51 21.5t22 52.5zM470 448q118 -78 118 -210q0 -110 -79 -182.5t-194 -72.5
q-116 0 -195.5 72.5t-79.5 182.5q0 131 119 210q-55 60 -55 127q0 83 61 137.5t150 54.5t149 -54.5t60 -137.5q0 -68 -54 -127z" />
    <glyph glyph-name="nine" unicode="9" horiz-adv-x="629" 
d="M172 0l138 238v3q-110 2 -190 76.5t-80 184.5q0 114 80 189.5t195 75.5t194.5 -75.5t79.5 -189.5q0 -69 -36 -132l-224 -370h-157zM188 502q0 -52 37 -89.5t90 -37.5t90 37.5t37 89.5q0 53 -37 91t-90 38t-90 -38t-37 -91z" />
    <glyph glyph-name="colon" unicode=":" horiz-adv-x="274" 
d="M189 69q0 -31 -22.5 -54t-54.5 -23t-54.5 23t-22.5 54t22.5 54t54.5 23t54.5 -23t22.5 -54zM35 510q0 32 22.5 54.5t54.5 22.5t54.5 -22.5t22.5 -54.5t-22.5 -54.5t-54.5 -22.5t-54.5 22.5t-22.5 54.5z" />
    <glyph glyph-name="semicolon" unicode=";" horiz-adv-x="274" 
d="M35 510q0 32 22.5 54.5t54.5 22.5t54.5 -22.5t22.5 -54.5t-22.5 -54.5t-54.5 -22.5t-54.5 22.5t-22.5 54.5zM189 -5q0 -48 -34 -82t-81 -34v65q20 0 35 14.5t16 35.5q-5 -2 -13 -2q-32 0 -54.5 23t-22.5 54t22.5 54t54.5 23t54.5 -23t22.5 -54v-74z" />
    <glyph glyph-name="less" unicode="&#x3c;" horiz-adv-x="421" 
d="M381 579v-125l-243 -162v-5l243 -162v-125l-341 238v102z" />
    <glyph glyph-name="equal" unicode="=" horiz-adv-x="679" 
d="M50 256h579v-102h-579v102zM629 323h-579v103h579v-103z" />
    <glyph glyph-name="greater" unicode="&#x3e;" horiz-adv-x="421" 
d="M40 454v125l341 -239v-102l-341 -238v125l243 162v5z" />
    <glyph glyph-name="question" unicode="?" horiz-adv-x="523" 
d="M175 567l-135 24q14 75 75 125.5t140 50.5q95 0 161.5 -60.5t66.5 -152.5t-66.5 -152.5t-161.5 -60.5q-14 0 -24 -10t-10 -24t10 -24t24 -10q17 0 27 13l61 -88q-37 -27 -88 -27q-70 0 -116.5 42.5t-46.5 109.5q0 69 46.5 111.5t116.5 42.5q32 0 56.5 23t24.5 54
t-24.5 54t-56.5 23q-29 0 -52.5 -18.5t-27.5 -45.5zM331 69q0 -32 -22.5 -54.5t-53.5 -22.5q-32 0 -54.5 22.5t-22.5 54.5t22.5 54.5t54.5 22.5q31 0 53.5 -22.5t22.5 -54.5z" />
    <glyph glyph-name="at" unicode="@" horiz-adv-x="874" 
d="M705 337v38q0 113 -80.5 193t-192.5 80q-113 0 -193 -80t-80 -193t80 -193t193 -80q62 0 122 29l53 -107q-84 -41 -175 -41q-163 0 -277.5 115t-114.5 277t114.5 277t277.5 115q162 0 277 -115t115 -277v-38q0 -65 -46.5 -111.5t-111.5 -46.5q-66 0 -109 45
q-56 -45 -125 -45q-81 0 -138.5 57.5t-57.5 138.5t57.5 138.5t138.5 57.5t138.5 -57.5t57.5 -138.5v-42q2 -14 12.5 -24.5t25.5 -10.5q16 0 27.5 11t11.5 28zM509 375q0 31 -22.5 54t-54.5 23t-54.5 -23t-22.5 -54t22.5 -54t54.5 -23t54.5 23t22.5 54z" />
    <glyph glyph-name="A" unicode="A" horiz-adv-x="747" 
d="M574 0l-46 106h-309l-46 -106h-163l364 786l363 -786h-163zM372 457l-95 -218h193l-94 218h-4z" />
    <glyph glyph-name="B" unicode="B" horiz-adv-x="694" 
d="M654 221q0 -94 -70 -157.5t-170 -63.5h-354v750h337q93 0 158 -58t65 -146q0 -89 -88 -145q51 -23 86.5 -69t35.5 -111zM508 230q0 38 -27.5 65.5t-66.5 27.5h-212v-187h212q39 0 66.5 27.5t27.5 66.5zM202 613v-153h195q31 0 53.5 22t22.5 54t-22 54.5t-54 22.5h-195z
" />
    <glyph glyph-name="C" unicode="C" horiz-adv-x="804" 
d="M769 584l-116 -73q-34 55 -91.5 87t-124.5 32q-106 0 -180.5 -74.5t-74.5 -180.5t74.5 -181t180.5 -75q67 0 124.5 32.5t91.5 86.5l116 -72q-53 -84 -141 -133.5t-191 -49.5q-167 0 -284.5 113t-117.5 279t117.5 279t284.5 113q103 0 191 -49.5t141 -133.5z" />
    <glyph glyph-name="D" unicode="D" horiz-adv-x="741" 
d="M60 750h261q164 0 274.5 -106.5t110.5 -268.5t-110.5 -268.5t-274.5 -106.5h-261v750zM559 375q0 98 -70 168t-168 70h-119v-477h119q98 0 168 70t70 169z" />
    <glyph glyph-name="E" unicode="E" horiz-adv-x="646" 
d="M202 136h409v-136h-551v750h551v-137h-409v-169h340v-137h-340v-171z" />
    <glyph glyph-name="F" unicode="F" horiz-adv-x="608" 
d="M593 613h-391v-169h323v-138h-323v-306h-142v750h533v-137z" />
    <glyph glyph-name="G" unicode="G" horiz-adv-x="791" 
d="M735 120q-55 -64 -132.5 -100.5t-165.5 -36.5q-167 0 -284.5 113t-117.5 279t117.5 279t284.5 113q162 0 278 -116l-97 -96q-73 75 -181 75q-105 0 -180 -74.5t-75 -180.5t75 -181t180 -75q91 0 163 58v130h-163v137h298v-324z" />
    <glyph glyph-name="H" unicode="H" horiz-adv-x="709" 
d="M649 0h-140v307h-307v-307h-142v750h142v-306h307v306h140v-750z" />
    <glyph glyph-name="I" unicode="I" horiz-adv-x="262" 
d="M60 0v750h142v-750h-142z" />
    <glyph glyph-name="J" unicode="J" horiz-adv-x="516" 
d="M212 -17q-58 0 -108.5 26t-83.5 72l110 81q28 -42 82 -42q43 0 72.5 29.5t29.5 72.5v528h142v-528q0 -104 -70.5 -171.5t-173.5 -67.5z" />
    <glyph glyph-name="K" unicode="K" horiz-adv-x="694" 
d="M353 375l326 -375h-180l-236 270l-66 -75v-195h-137v750h137v-347l302 347h180z" />
    <glyph glyph-name="L" unicode="L" horiz-adv-x="591" 
d="M576 136v-136h-516v750h142v-614h374z" />
    <glyph glyph-name="M" unicode="M" horiz-adv-x="880" 
d="M60 0v786l379 -375h2l379 375v-786h-136l1 457h-4l-241 -238l-240 238h-4l1 -457h-137z" />
    <glyph glyph-name="N" unicode="N" horiz-adv-x="709" 
d="M649 -36l-444 471h-4l1 -435h-142v786l446 -471h4l-1 435h140v-786z" />
    <glyph glyph-name="O" unicode="O" horiz-adv-x="874" 
d="M693 375q0 106 -75 180.5t-181 74.5t-180.5 -74.5t-74.5 -180.5t74.5 -181t180.5 -75q107 0 181.5 74.5t74.5 181.5zM839 375q0 -166 -117.5 -279t-284.5 -113q-168 0 -285 113t-117 279t117 279t285 113q167 0 284.5 -113t117.5 -279z" />
    <glyph glyph-name="P" unicode="P" horiz-adv-x="689" 
d="M654 494q0 -109 -77 -182.5t-187 -73.5h-188v-238h-142v750h330q110 0 187 -73.5t77 -182.5zM509 494q0 49 -35 84t-84 35h-188v-238h188q49 0 84 35t35 84z" />
    <glyph glyph-name="Q" unicode="Q" horiz-adv-x="879" 
d="M830 115v-184l-152 136q-107 -84 -240 -84q-164 0 -283.5 115.5t-119.5 276.5q0 162 119.5 277t283.5 115q163 0 282 -115t119 -277q0 -94 -69 -208zM693 375q0 106 -74.5 180.5t-180.5 74.5t-181 -74.5t-75 -180.5q0 -88 54 -158q8 77 66 128.5t136 51.5q80 0 137 -54
l91 -82q27 54 27 114zM575 160l-90 82q-21 18 -47 18q-30 0 -50.5 -20.5t-20.5 -50.5q0 -29 20.5 -49.5t49.5 -20.5h1q74 0 137 41z" />
    <glyph glyph-name="R" unicode="R" horiz-adv-x="694" 
d="M654 494q0 -79 -41.5 -140.5t-110.5 -91.5l131 -262h-158l-119 238h-154v-238h-142v750h330q110 0 187 -73.5t77 -182.5zM509 494q0 49 -35 84t-84 35h-188v-238h188q49 0 84 35t35 84z" />
    <glyph glyph-name="S" unicode="S" horiz-adv-x="641" 
d="M573 683l-79 -112q-72 59 -177 59q-34 0 -62.5 -12.5t-42 -32t-15 -41t18 -41t57.5 -30.5l120 -31q92 -22 150 -80t58 -145q0 -99 -82.5 -166.5t-201.5 -67.5q-162 0 -277 97l80 113q77 -75 197 -75q50 0 87 24t48 56t-10.5 64t-76.5 47l-128 33q-82 22 -133 75.5
t-51 132.5q0 91 77.5 154t186.5 63q148 0 256 -84z" />
    <glyph glyph-name="T" unicode="T" horiz-adv-x="615" 
d="M600 613h-221v-613h-141v613h-223v137h585v-137z" />
    <glyph glyph-name="U" unicode="U" horiz-adv-x="717" 
d="M657 750v-489q0 -128 -83.5 -203t-214.5 -75q-132 0 -215.5 75t-83.5 203v489h142v-489q0 -66 44.5 -105.5t112.5 -39.5t112.5 39.5t44.5 105.5v489h141z" />
    <glyph glyph-name="V" unicode="V" horiz-adv-x="727" 
d="M564 750h163l-363 -786l-364 786h164l198 -457h4z" />
    <glyph glyph-name="W" unicode="W" horiz-adv-x="1055" 
d="M719 -36l-190 452h-4l-188 -452l-337 786h160l169 -416h4l194 452l196 -452h4l168 416h160z" />
    <glyph glyph-name="X" unicode="X" horiz-adv-x="695" 
d="M437 375l248 -375h-170l-165 253h-4l-166 -253h-170l248 375l-248 375h170l166 -254h4l165 254h170z" />
    <glyph glyph-name="Y" unicode="Y" horiz-adv-x="715" 
d="M532 750h168l-271 -435v-315h-140v315l-274 435h168l174 -286h4z" />
    <glyph glyph-name="Z" unicode="Z" horiz-adv-x="695" 
d="M58 613v137h625l-413 -613v-2l367 1v-136h-625l414 612v2z" />
    <glyph glyph-name="bracketleft" unicode="[" horiz-adv-x="314" 
d="M182 -69h102v-102h-204v921h204v-102h-102v-717z" />
    <glyph glyph-name="backslash" unicode="\" horiz-adv-x="502" 
d="M128 767l314 -755l-68 -29l-314 755z" />
    <glyph glyph-name="bracketright" unicode="]" horiz-adv-x="314" 
d="M30 -69h102v717h-102v102h204v-921h-204v102z" />
    <glyph glyph-name="asciicircum" unicode="^" horiz-adv-x="598" 
d="M248 750h102l188 -375h-115l-122 249h-2l-124 -249h-115z" />
    <glyph glyph-name="underscore" unicode="_" horiz-adv-x="519" 
d="M0 -91h579v-25h-579v25z" />
    <glyph glyph-name="grave" unicode="`" horiz-adv-x="351" 
d="M90 684v83l171 -59v-66z" />
    <glyph glyph-name="a" unicode="a" horiz-adv-x="726" 
d="M527 290q0 70 -49.5 120t-120.5 50q-70 0 -120 -50t-50 -120q0 -71 50 -121t120 -50q71 0 120.5 50t49.5 121zM527 0v85h-2q-76 -102 -194 -102q-122 0 -206.5 88t-84.5 219q0 130 84.5 218t206.5 88q119 0 194 -101h2v84h139v-579h-139z" />
    <glyph glyph-name="b" unicode="b" horiz-adv-x="727" 
d="M189 97v-97h-129v750h140v-255h2q77 101 194 101q122 0 206.5 -88t84.5 -218q0 -131 -84.5 -219t-206.5 -88q-128 0 -205 114h-2zM200 290q0 -71 50 -121t120 -50q71 0 120.5 50t49.5 121q0 70 -49.5 120t-120.5 50q-70 0 -120 -50t-50 -120z" />
    <glyph glyph-name="c" unicode="c" horiz-adv-x="611" 
d="M575 506l-98 -96q-48 50 -120 50q-70 0 -120 -50t-50 -120q0 -71 50 -121t120 -50q72 0 120 50l98 -96q-92 -90 -218 -90q-133 0 -225 88t-92 219q0 130 92 218t225 88q128 0 218 -90z" />
    <glyph glyph-name="d" unicode="d" horiz-adv-x="727" 
d="M538 0v97h-2q-77 -114 -205 -114q-122 0 -206.5 88t-84.5 219q0 130 84.5 218t206.5 88q117 0 194 -101h2v255h140v-750h-129zM527 290q0 70 -50 120t-120 50q-71 0 -120.5 -50t-49.5 -120q0 -71 49.5 -121t120.5 -50q70 0 120 50t50 121z" />
    <glyph glyph-name="e" unicode="e" horiz-adv-x="707" 
d="M667 290q0 -30 -8 -65h-461q18 -52 61 -83.5t97 -31.5q50 0 94.5 22t66.5 59l108 -70q-44 -63 -115 -100.5t-154 -37.5q-132 0 -224 88.5t-92 218.5t92 218t224 88q129 0 220 -89t91 -217zM198 348h317q-18 53 -61 84t-98 31q-54 0 -97 -31.5t-61 -83.5z" />
    <glyph glyph-name="f" unicode="f" horiz-adv-x="382" 
d="M370 720l-85 -101q-11 11 -31 11q-14 0 -24 -10t-10 -24v-17h85v-124h-85v-455h-140v455h-50v124h50v17q0 70 51.5 120.5t122.5 50.5q66 0 116 -47z" />
    <glyph glyph-name="g" unicode="g" horiz-adv-x="709" 
d="M510 298q0 67 -47.5 114.5t-114.5 47.5t-114 -47.5t-47 -114.5t47 -114.5t114 -47.5t114.5 47.5t47.5 114.5zM649 579v-452q0 -130 -93.5 -222.5t-224.5 -92.5t-244 70l69 118q87 -59 175 -59q64 0 119 44.5t62 109.5l-2 2q-81 -89 -179 -89q-122 0 -206.5 85t-84.5 210
t84.5 209t206.5 84q111 0 187 -91h2v74h129z" />
    <glyph glyph-name="h" unicode="h" 
d="M200 0h-140v750h140v-243h3q26 37 70.5 63t97.5 26q101 0 162.5 -68t61.5 -178v-350h-140v332q0 53 -37 90.5t-90 37.5t-90.5 -37.5t-37.5 -90.5v-332z" />
    <glyph glyph-name="i" unicode="i" horiz-adv-x="260" 
d="M60 579h140v-579h-140v579zM51 692q0 33 23 56t56 23t56 -23t23 -56t-23 -56t-56 -23t-56 23t-23 56z" />
    <glyph glyph-name="j" unicode="j" horiz-adv-x="315" 
d="M-36 -142l84 101q16 -11 32 -11q14 0 24 10t10 25v596h140v-596q0 -71 -52 -121t-122 -50q-68 0 -116 46zM105 692q0 33 23 56t56 23t56 -23t23 -56t-23 -56t-56 -23t-56 23t-23 56z" />
    <glyph glyph-name="k" unicode="k" horiz-adv-x="628" 
d="M427 579h189l-260 -269l260 -310h-178l-177 212l-65 -68v-144h-136v750h136v-410z" />
    <glyph glyph-name="l" unicode="l" horiz-adv-x="260" 
d="M60 0v750h140v-750h-140z" />
    <glyph glyph-name="m" unicode="m" horiz-adv-x="948" 
d="M200 0h-140v579h129v-79h2q56 96 152 96q98 0 161 -100q73 100 166 100q96 0 157 -67t61 -171v-358h-140v358q0 43 -30 72.5t-73 29.5q-42 0 -72 -29.5t-30 -72.5v-358h-139v358q0 43 -29.5 72.5t-72.5 29.5q-42 0 -72 -29.5t-30 -72.5v-358z" />
    <glyph glyph-name="n" unicode="n" 
d="M200 0h-140v579h129v-83h2q24 44 70.5 72t109.5 28q100 0 162 -68.5t62 -177.5v-350h-140v332q0 53 -37 90.5t-90 37.5t-90.5 -37.5t-37.5 -90.5v-332z" />
    <glyph glyph-name="o" unicode="o" horiz-adv-x="713" 
d="M527 290q0 70 -50 120t-121 50q-70 0 -119.5 -50t-49.5 -120q0 -71 49.5 -121t119.5 -50q71 0 121 50t50 121zM673 290q0 -131 -92 -219t-225 -88q-132 0 -224 88t-92 219q0 130 92 218t224 88q133 0 225 -88t92 -218z" />
    <glyph glyph-name="p" unicode="p" horiz-adv-x="727" 
d="M189 579v-97h2q77 114 205 114q122 0 206.5 -88t84.5 -219t-84.5 -218.5t-206.5 -87.5q-117 0 -194 101h-2v-255h-140v750h129zM200 289q0 -70 50 -120t120 -50q71 0 120.5 50t49.5 120q0 71 -49.5 121t-120.5 50q-70 0 -120 -50t-50 -121z" />
    <glyph glyph-name="q" unicode="q" horiz-adv-x="727" 
d="M538 482v97h129v-750h-140v255h-2q-77 -101 -194 -101q-122 0 -206.5 87.5t-84.5 218.5t84.5 219t206.5 88q128 0 205 -114h2zM527 289q0 71 -50 121t-120 50q-71 0 -120.5 -50t-49.5 -121q0 -70 49.5 -120t120.5 -50q70 0 120 50t50 120z" />
    <glyph glyph-name="r" unicode="r" horiz-adv-x="500" 
d="M492 558l-69 -118q-33 19 -74 19q-62 0 -105.5 -43.5t-43.5 -105.5v-310h-140v579h130v-80q57 97 159 97q77 0 143 -38z" />
    <glyph glyph-name="s" unicode="s" horiz-adv-x="574" 
d="M285 105q67 -4 96 35q23 32 -2 60q-15 16 -45 22l-122 18q-74 11 -117 56t-43 118q0 82 65 132.5t168 50.5q131 0 231 -68l-62 -103q-64 49 -169 49q-76 0 -93 -40q-13 -28 15 -50q14 -10 33 -13l124 -19q71 -12 121.5 -58t50.5 -129q0 -84 -72.5 -133.5t-178.5 -49.5
q-141 0 -245 68l69 109q66 -49 176 -55z" />
    <glyph glyph-name="t" unicode="t" horiz-adv-x="344" 
d="M319 136v-136h-68q-72 0 -123 50t-51 121v284h-52v124h52v131h140v-131h85v-124h-85v-284q0 -15 10 -25t24 -10h68z" />
    <glyph glyph-name="u" unicode="u" 
d="M455 579h140v-579h-129v83h-2q-24 -44 -70.5 -72t-109.5 -28q-100 0 -162 68.5t-62 177.5v350h140v-332q0 -53 37 -90.5t90 -37.5t90.5 37.5t37.5 90.5v332z" />
    <glyph glyph-name="v" unicode="v" horiz-adv-x="635" 
d="M620 579l-303 -615l-302 615h152l148 -309h4l148 309h153z" />
    <glyph glyph-name="w" unicode="w" horiz-adv-x="956" 
d="M15 579h151l147 -304h4l161 340l161 -340h4l147 304h151l-300 -615l-161 340h-4l-161 -340z" />
    <glyph glyph-name="x" unicode="x" horiz-adv-x="620" 
d="M226 290l-211 289h169l125 -174h2l125 174h169l-210 -289l210 -290h-169l-125 175h-2l-125 -175h-169z" />
    <glyph glyph-name="y" unicode="y" horiz-adv-x="615" 
d="M600 579l-290 -750h-146l71 184l-220 566h147l145 -377h2l145 377h146z" />
    <glyph glyph-name="z" unicode="z" horiz-adv-x="571" 
d="M265 136h267v-136h-520l293 441v3h-267v135h521l-294 -440v-3z" />
    <glyph glyph-name="braceleft" unicode="{" horiz-adv-x="383" 
d="M353 -171h-34q-64 0 -109 45t-45 109v205q0 20 -14.5 35t-35.5 15h-35v102h35q21 0 35.5 15.5t14.5 36.5v204q0 64 45 109t109 45h34v-102h-34q-22 0 -36.5 -15t-14.5 -37v-204q0 -52 -44 -102q44 -51 44 -102v-205q0 -22 14.5 -37t36.5 -15h34v-102z" />
    <glyph glyph-name="bar" unicode="|" horiz-adv-x="310" 
d="M190 -171h-70v921h70v-921z" />
    <glyph glyph-name="braceright" unicode="}" horiz-adv-x="383" 
d="M64 -171h-34v102h34q22 0 36.5 15t14.5 37v205q0 51 44 102q-44 50 -44 102v204q0 22 -14.5 37t-36.5 15h-34v102h34q64 0 109 -45t45 -109v-204q0 -21 14.5 -36.5t35.5 -15.5h35v-102h-35q-21 0 -35.5 -15t-14.5 -35v-205q0 -64 -45 -109t-109 -45z" />
    <glyph glyph-name="asciitilde" unicode="~" horiz-adv-x="470" 
d="M327 324h83q0 -47 -33 -80t-79 -33q-67 0 -99 59q-8 16 -26 16q-11 0 -19.5 -8.5t-8.5 -20.5h-85q0 47 33 80t80 33q67 0 99 -59q8 -16 26 -16q12 0 20.5 8.5t8.5 20.5z" />
    <glyph glyph-name="uni00A0" unicode="&#xa0;" horiz-adv-x="500" 
 />
    <glyph glyph-name="exclamdown" unicode="&#xa1;" horiz-adv-x="257" 
d="M206 680q0 -31 -22.5 -53t-54.5 -22t-54.5 22t-22.5 53q0 33 22.5 55t54.5 22t54.5 -22t22.5 -55zM75 546h107l15 -546h-137z" />
    <glyph glyph-name="cent" unicode="&#xa2;" horiz-adv-x="611" 
d="M288 -85v75q-109 22 -178.5 104.5t-69.5 195.5q0 112 69.5 194.5t178.5 104.5v76h138v-77q87 -20 149 -82l-98 -96q-48 50 -120 50q-70 0 -120 -50t-50 -120q0 -71 50 -121t120 -50q72 0 120 50l98 -96q-64 -64 -149 -82v-76h-138z" />
    <glyph glyph-name="sterling" unicode="&#xa3;" horiz-adv-x="624" 
d="M120 317h-80v137h80v65q0 103 74 175.5t181 72.5q108 0 182 -72l-96 -98q-31 33 -86 33q-53 0 -86 -29.5t-33 -81.5v-65h192v-137h-192v-128q67 -8 114 -54q14 -16 35.5 -16t36.5 16l46 45l96 -96l-46 -46q-55 -55 -132.5 -55t-132.5 55q-14 15 -35.5 15t-36.5 -15
l-50 -50l-96 96l50 51q15 15 15 36v146z" />
    <glyph glyph-name="currency" unicode="&#xa4;" horiz-adv-x="709" 
d="M525 290q0 70 -49.5 120t-120.5 50q-70 0 -120 -50t-50 -120q0 -71 50 -121t120 -50q71 0 120.5 50t49.5 121zM644 483l-30 -30q47 -75 47 -163q0 -90 -47 -164l30 -30l-96 -96l-30 30q-74 -47 -163 -47t-164 47l-30 -30l-96 96l30 30q-47 74 -47 164q0 88 47 163l-30 30
l96 96l30 -30q75 47 164 47t163 -47l30 30z" />
    <glyph glyph-name="yen" unicode="&#xa5;" horiz-adv-x="650" 
d="M396 0h-142v298h-179v85h163l-32 51h-131v85h83l-143 231h163l146 -244h2l147 244h162l-139 -231h79v-85h-131l-31 -51h162v-85h-179v-298z" />
    <glyph glyph-name="brokenbar" unicode="&#xa6;" horiz-adv-x="222" 
d="M162 341h-102v290h102v-290zM162 -50h-102v289h102v-289z" />
    <glyph glyph-name="section" unicode="&#xa7;" horiz-adv-x="576" 
d="M195 563q0 -29 27 -49t65 -20q103 0 171 -56.5t68 -147.5q0 -78 -74 -143q74 -65 74 -139q0 -82 -68.5 -139t-170.5 -57q-79 0 -141 42t-81 106l130 48q4 -25 30.5 -41.5t61.5 -16.5q40 0 67 19.5t27 47.5q0 29 -27 48.5t-67 19.5q-102 0 -169.5 57.5t-67.5 147.5
q0 78 74 143q-74 65 -74 138q0 85 67.5 140.5t169.5 55.5q79 0 140.5 -40.5t82.5 -103.5l-129 -52q-5 26 -31 42.5t-63 16.5q-38 0 -65 -19.5t-27 -47.5zM195 290q0 -32 27 -54.5t65 -22.5q39 0 66.5 22.5t27.5 54.5t-27.5 54.5t-66.5 22.5q-38 0 -65 -22.5t-27 -54.5z" />
    <glyph glyph-name="dieresis" unicode="&#xa8;" horiz-adv-x="330" 
d="M117 716q0 -21 -15 -36t-35 -15q-22 0 -37 15t-15 36t15 36t37 15q20 0 35 -15t15 -36zM315 716q0 -21 -14.5 -36t-36.5 -15q-21 0 -36 15t-15 36t15 36t36 15q22 0 36.5 -15t14.5 -36z" />
    <glyph glyph-name="copyright" unicode="&#xa9;" horiz-adv-x="693" 
d="M215 290q0 -54 38.5 -92.5t92.5 -38.5q57 0 93 38l53 -53q-60 -60 -146 -60q-85 0 -145 60t-60 146q0 85 60 145t145 60q86 0 146 -60l-53 -53q-37 39 -93 39q-54 0 -92.5 -38.5t-38.5 -92.5zM617 290q0 112 -79 191t-192 79q-112 0 -191 -79t-79 -191t79 -191.5
t191 -79.5q113 0 192 79.5t79 191.5zM653 290q0 -128 -89.5 -217.5t-217.5 -89.5q-127 0 -216.5 90t-89.5 217t89.5 216.5t216.5 89.5t217 -89.5t90 -216.5z" />
    <glyph glyph-name="ordfeminine" unicode="&#xaa;" horiz-adv-x="403" 
d="M283 614q0 35 -24.5 60t-60.5 25q-35 0 -60 -25t-25 -60t25 -60.5t60 -25.5q36 0 60.5 25t24.5 61zM283 469v42h-1q-38 -51 -97 -51q-61 0 -103 44.5t-42 109.5t42.5 109t102.5 44q59 0 97 -51h1v42h70v-289h-70z" />
    <glyph glyph-name="guillemotleft" unicode="&#xab;" horiz-adv-x="507" 
d="M40 290l213 212v-144l-75 -66v-4l75 -67v-144zM254 290l213 212v-144l-75 -66v-4l75 -67v-144z" />
    <glyph glyph-name="logicalnot" unicode="&#xac;" horiz-adv-x="444" 
d="M384 171h-102v67h-222v102h324v-169z" />
    <glyph glyph-name="registered" unicode="&#xae;" horiz-adv-x="319" 
d="M279 648q0 -49 -35 -84.5t-84 -35.5q-50 0 -85 35t-35 85q0 49 35.5 84t84.5 35t84 -35t35 -84zM265 648q0 43 -30.5 73.5t-74.5 30.5t-75 -30.5t-31 -73.5q0 -44 31 -75t75 -31t74.5 31t30.5 75zM224 573h-31l-28 56h-33v-56h-27v153h69q21 0 35.5 -14t14.5 -34
q0 -31 -30 -46zM132 656h42q10 0 16 6.5t6 15.5q0 8 -6 14t-16 6h-42v-42z" />
    <glyph glyph-name="macron" unicode="&#xaf;" horiz-adv-x="307" 
d="M247 750v-78h-187v78h187z" />
    <glyph glyph-name="degree" unicode="&#xb0;" horiz-adv-x="304" 
d="M195 665q0 17 -12.5 29.5t-30.5 12.5q-17 0 -29.5 -12.5t-12.5 -29.5q0 -18 12.5 -30.5t29.5 -12.5q18 0 30.5 12.5t12.5 30.5zM254 665q0 -42 -29.5 -72t-72.5 -30q-42 0 -72 30t-30 72q0 43 30 72.5t72 29.5q43 0 72.5 -29.5t29.5 -72.5z" />
    <glyph glyph-name="plusminus" unicode="&#xb1;" horiz-adv-x="680" 
d="M290 323h-240v103h240v153h102v-153h238v-103h-238v-152h-102v152zM50 102h580v-102h-580v102z" />
    <glyph glyph-name="twosuperior" unicode="&#xb2;" horiz-adv-x="335" 
d="M267 550l-87 -108h99v-68h-241l176 218q13 16 13 38q0 25 -17.5 42.5t-42.5 17.5t-42 -17.5t-17 -42.5q0 -28 22 -47l-43 -53q-47 39 -47 100q0 52 37 89.5t90 37.5t90.5 -37t37.5 -90q0 -47 -28 -80z" />
    <glyph glyph-name="threesuperior" unicode="&#xb3;" horiz-adv-x="341" 
d="M68 575l87 108h-90v67h233l-105 -130q45 -9 76.5 -45t31.5 -81q0 -52 -40 -89.5t-94 -37.5q-53 0 -90 37.5t-37 89.5h68q0 -25 17.5 -42.5t41.5 -17.5q25 0 43 17.5t18 42.5t-17.5 42t-43.5 17q-28 0 -46 -21z" />
    <glyph glyph-name="acute" unicode="&#xb4;" horiz-adv-x="351" 
d="M261 767v-83l-171 -42v66z" />
    <glyph glyph-name="mu" unicode="&#xb5;" 
d="M455 579h140v-579h-129v79h-2q-58 -96 -154 -96q-61 0 -110 37v-191h-140v750h140v-331q0 -53 37 -91t90 -38t90.5 38t37.5 91v331z" />
    <glyph glyph-name="mu" unicode="&#x3bc;" 
d="M455 579h140v-579h-129v79h-2q-58 -96 -154 -96q-61 0 -110 37v-191h-140v750h140v-331q0 -53 37 -91t90 -38t90.5 38t37.5 91v331z" />
    <glyph glyph-name="paragraph" unicode="&#xb6;" horiz-adv-x="606" 
d="M25 546q0 88 62.5 146t152.5 58h306v-750h-102v613h-67v-613h-102v340h-35q-90 0 -152.5 59t-62.5 147zM172 546q0 -29 20 -49t48 -20h35v136h-35q-28 0 -48 -19.5t-20 -47.5z" />
    <glyph glyph-name="periodcentered" unicode="&#xb7;" horiz-adv-x="274" 
d="M112 213q-32 0 -54.5 22.5t-22.5 54.5t22.5 54.5t54.5 22.5t54.5 -22.5t22.5 -54.5t-22.5 -54.5t-54.5 -22.5z" />
    <glyph glyph-name="cedilla" unicode="&#xb8;" horiz-adv-x="326" 
d="M100 -154l33 18q6 -11 18 -14t23 3q11 7 14 18.5t-4 22.5q-6 11 -18 14t-22 -3l-19 32l23 86l35 -10l-18 -67q32 -3 52 -34q14 -23 6.5 -50t-31.5 -40q-24 -14 -51 -7t-41 31z" />
    <glyph glyph-name="onesuperior" unicode="&#xb9;" horiz-adv-x="217" 
d="M30 622v75l137 78v-401h-68v287z" />
    <glyph glyph-name="ordmasculine" unicode="&#xba;" horiz-adv-x="397" 
d="M284 615q0 35 -25 60t-61 25q-34 0 -59 -25t-25 -60t25 -60.5t59 -25.5q36 0 61 25.5t25 60.5zM357 615q0 -66 -46.5 -110t-112.5 -44t-112 44.5t-46 109.5t46 109t112 44t112.5 -44t46.5 -109z" />
    <glyph glyph-name="guillemotright" unicode="&#xbb;" horiz-adv-x="507" 
d="M254 502l213 -212l-213 -213v144l75 67v4l-75 66v144zM40 502l213 -212l-213 -213v144l75 67v4l-75 66v144z" />
    <glyph glyph-name="onequarter" unicode="&#xbc;" horiz-adv-x="605" 
d="M109 5l317 763l55 -21l-319 -763zM30 622v75l137 78v-401h-68v287zM418 137h56v76h-2l-54 -74v-2zM290 68l253 325v-256h42v-69h-42v-68h-69v68h-184z" />
    <glyph glyph-name="onehalf" unicode="&#xbd;" horiz-adv-x="665" 
d="M109 5l317 763l55 -21l-319 -763zM30 622v75l137 78v-401h-68v287zM597 176l-87 -108h99v-68h-241l176 218q13 16 13 38q0 25 -17.5 42.5t-42.5 17.5t-42 -17.5t-17 -42.5q0 -28 22 -47l-43 -53q-47 39 -47 100q0 52 37 89.5t90 37.5t90.5 -37t37.5 -90q0 -47 -28 -80z
" />
    <glyph glyph-name="threequarters" unicode="&#xbe;" horiz-adv-x="695" 
d="M203 5l317 763l55 -21l-319 -763zM68 575l87 108h-90v67h233l-105 -130q45 -9 76.5 -45t31.5 -81q0 -52 -40 -89.5t-94 -37.5q-53 0 -90 37.5t-37 89.5h68q0 -25 17.5 -42.5t41.5 -17.5q25 0 43 17.5t18 42.5t-17.5 42t-43.5 17q-28 0 -46 -21zM508 137h56v76h-2l-54 -74
v-2zM380 68l253 325v-256h42v-69h-42v-68h-69v68h-184z" />
    <glyph glyph-name="questiondown" unicode="&#xbf;" horiz-adv-x="523" 
d="M348 183l135 -24q-14 -75 -75 -125.5t-140 -50.5q-95 0 -161.5 60.5t-66.5 152.5t66.5 152.5t161.5 60.5q14 0 24 10t10 24t-10 24t-24 10q-17 0 -27 -13l-61 88q38 27 88 27q70 0 116.5 -42.5t46.5 -109.5q0 -69 -46.5 -111.5t-116.5 -42.5q-32 0 -56.5 -23t-24.5 -54
t24.5 -54t56.5 -23q29 0 52.5 18.5t27.5 45.5zM192 681q0 32 22.5 54.5t53.5 22.5q32 0 54.5 -22.5t22.5 -54.5t-22.5 -54.5t-54.5 -22.5q-31 0 -53.5 22.5t-22.5 54.5z" />
    <glyph glyph-name="Agrave" unicode="&#xc0;" horiz-adv-x="747" 
d="M289 827v83l171 -59v-66zM574 0l-46 106h-309l-46 -106h-163l364 786l363 -786h-163zM372 457l-95 -218h193l-94 218h-4z" />
    <glyph glyph-name="Aacute" unicode="&#xc1;" horiz-adv-x="747" 
d="M460 910v-83l-171 -42v66zM574 0l-46 106h-309l-46 -106h-163l364 786l363 -786h-163zM372 457l-95 -218h193l-94 218h-4z" />
    <glyph glyph-name="Acircumflex" unicode="&#xc2;" horiz-adv-x="747" 
d="M475 824l-41 -42l-60 61l-60 -60l-42 42l102 101zM574 0l-46 106h-309l-46 -106h-163l364 786l363 -786h-163zM372 457l-95 -218h193l-94 218h-4z" />
    <glyph glyph-name="Atilde" unicode="&#xc3;" horiz-adv-x="747" 
d="M433 880h54q0 -30 -21.5 -52t-51.5 -22q-43 0 -65 38q-4 11 -16 11q-19 0 -19 -19h-54q0 30 21.5 52t51.5 22q44 0 63 -39q6 -10 18 -10q19 0 19 19zM574 0l-46 106h-309l-46 -106h-163l364 786l363 -786h-163zM372 457l-95 -218h193l-94 218h-4z" />
    <glyph glyph-name="Adieresis" unicode="&#xc4;" horiz-adv-x="747" 
d="M326 839q0 -21 -15 -36t-35 -15q-22 0 -37 15t-15 36q0 22 15 36.5t37 14.5q20 0 35 -15t15 -36zM525 839q0 -21 -15 -36t-37 -15q-21 0 -36 15t-15 36q0 22 15 36.5t36 14.5q22 0 37 -14.5t15 -36.5zM574 0l-46 106h-309l-46 -106h-163l364 786l363 -786h-163zM372 457
l-95 -218h193l-94 218h-4z" />
    <glyph glyph-name="Aring" unicode="&#xc5;" horiz-adv-x="747" 
d="M401 887q0 11 -8 18.5t-19 7.5t-19 -7.5t-8 -18.5q0 -12 8 -20t19 -8t19 8t8 20zM448 887q0 -31 -22 -53t-52 -22t-52 22t-22 53q0 30 22 51.5t52 21.5t52 -21.5t22 -51.5zM574 0l-46 106h-309l-46 -106h-163l364 786l363 -786h-163zM372 457l-95 -218h193l-94 218h-4z
" />
    <glyph glyph-name="AE" unicode="&#xc6;" horiz-adv-x="1104" 
d="M660 307v-171h409v-136h-551v136h-240l-90 -136h-173l487 750h567v-137h-409v-169h341v-137h-341zM518 273v249h-4l-146 -249h150z" />
    <glyph glyph-name="Ccedilla" unicode="&#xc7;" horiz-adv-x="804" 
d="M361 -154l33 18q6 -11 18 -14t23 3q11 7 14 18.5t-4 22.5q-6 11 -18 14t-22 -3l-19 32l13 48q-155 14 -259.5 124.5t-104.5 265.5q0 166 117.5 279t284.5 113q103 0 191 -49.5t141 -133.5l-116 -73q-34 55 -91.5 87t-124.5 32q-106 0 -180.5 -74.5t-74.5 -180.5
t74.5 -181t180.5 -75q67 0 124.5 32.5t91.5 86.5l116 -72q-53 -84 -141 -133.5t-191 -49.5h-1l-10 -37q32 -3 52 -34q14 -23 6.5 -50t-31.5 -40q-24 -14 -51 -7t-41 31z" />
    <glyph glyph-name="Egrave" unicode="&#xc8;" horiz-adv-x="646" 
d="M252 827v83l171 -59v-66zM202 136h409v-136h-551v750h551v-137h-409v-169h340v-137h-340v-171z" />
    <glyph glyph-name="Eacute" unicode="&#xc9;" horiz-adv-x="646" 
d="M423 910v-83l-171 -42v66zM202 136h409v-136h-551v750h551v-137h-409v-169h340v-137h-340v-171z" />
    <glyph glyph-name="Ecircumflex" unicode="&#xca;" horiz-adv-x="646" 
d="M202 136h409v-136h-551v750h551v-137h-409v-169h340v-137h-340v-171zM436 824l-41 -42l-60 61l-60 -60l-42 42l102 101z" />
    <glyph glyph-name="Edieresis" unicode="&#xcb;" horiz-adv-x="646" 
d="M278 839q0 -21 -15 -36t-35 -15q-22 0 -37 15t-15 36q0 22 15 36.5t37 14.5q20 0 35 -15t15 -36zM477 839q0 -21 -15 -36t-37 -15q-21 0 -36 15t-15 36q0 22 15 36.5t36 14.5q22 0 37 -14.5t15 -36.5zM202 136h409v-136h-551v750h551v-137h-409v-169h340v-137h-340v-171z
" />
    <glyph glyph-name="Igrave" unicode="&#xcc;" horiz-adv-x="262" 
d="M60 0v750h142v-750h-142zM46 827v83l171 -59v-66z" />
    <glyph glyph-name="Iacute" unicode="&#xcd;" horiz-adv-x="262" 
d="M60 0v750h142v-750h-142zM217 910v-83l-171 -42v66z" />
    <glyph glyph-name="Icircumflex" unicode="&#xce;" horiz-adv-x="262" 
d="M60 0v750h142v-750h-142zM233 824l-41 -42l-60 61l-60 -60l-42 42l102 101z" />
    <glyph glyph-name="Idieresis" unicode="&#xcf;" horiz-adv-x="262" 
d="M60 0v750h142v-750h-142zM89 838q0 -20 -14.5 -35t-35.5 -15q-22 0 -37 15t-15 35q0 22 15 37t37 15q21 0 35.5 -15t14.5 -37zM275 838q0 -20 -15 -35t-37 -15q-21 0 -35.5 15t-14.5 35q0 22 14.5 37t35.5 15q22 0 37 -15t15 -37z" />
    <glyph glyph-name="Eth" unicode="&#xd0;" horiz-adv-x="755" 
d="M335 0h-256v307h-59v137h59v306h256q162 0 273.5 -107.5t111.5 -267.5t-111.5 -267.5t-273.5 -107.5zM573 375q0 98 -69.5 168t-168.5 70h-119v-169h162v-137h-162v-171h119q99 0 168.5 70t69.5 169z" />
    <glyph glyph-name="Ntilde" unicode="&#xd1;" horiz-adv-x="709" 
d="M415 830h54q0 -30 -21.5 -52t-51.5 -22q-43 0 -65 38q-4 11 -16 11q-19 0 -19 -19h-54q0 30 21.5 52t51.5 22q44 0 63 -39q6 -10 18 -10q19 0 19 19zM649 -36l-444 471h-4l1 -435h-142v786l446 -471h4l-1 435h140v-786z" />
    <glyph glyph-name="Ograve" unicode="&#xd2;" horiz-adv-x="874" 
d="M351 827v83l171 -59v-66zM693 375q0 106 -75 180.5t-181 74.5t-180.5 -74.5t-74.5 -180.5t74.5 -181t180.5 -75q107 0 181.5 74.5t74.5 181.5zM839 375q0 -166 -117.5 -279t-284.5 -113q-168 0 -285 113t-117 279t117 279t285 113q167 0 284.5 -113t117.5 -279z" />
    <glyph glyph-name="Oacute" unicode="&#xd3;" horiz-adv-x="874" 
d="M522 910v-83l-171 -42v66zM693 375q0 106 -75 180.5t-181 74.5t-180.5 -74.5t-74.5 -180.5t74.5 -181t180.5 -75q107 0 181.5 74.5t74.5 181.5zM839 375q0 -166 -117.5 -279t-284.5 -113q-168 0 -285 113t-117 279t117 279t285 113q167 0 284.5 -113t117.5 -279z" />
    <glyph glyph-name="Ocircumflex" unicode="&#xd4;" horiz-adv-x="874" 
d="M693 375q0 106 -75 180.5t-181 74.5t-180.5 -74.5t-74.5 -180.5t74.5 -181t180.5 -75q107 0 181.5 74.5t74.5 181.5zM839 375q0 -166 -117.5 -279t-284.5 -113q-168 0 -285 113t-117 279t117 279t285 113q167 0 284.5 -113t117.5 -279zM538 824l-41 -42l-60 61l-60 -60
l-42 42l102 101z" />
    <glyph glyph-name="Otilde" unicode="&#xd5;" horiz-adv-x="874" 
d="M693 375q0 106 -75 180.5t-181 74.5t-180.5 -74.5t-74.5 -180.5t74.5 -181t180.5 -75q107 0 181.5 74.5t74.5 181.5zM839 375q0 -166 -117.5 -279t-284.5 -113q-168 0 -285 113t-117 279t117 279t285 113q167 0 284.5 -113t117.5 -279zM496 880h54q0 -30 -21.5 -52
t-51.5 -22q-43 0 -65 38q-4 11 -16 11q-19 0 -19 -19h-54q0 30 21.5 52t51.5 22q44 0 63 -39q6 -10 18 -10q19 0 19 19z" />
    <glyph glyph-name="Odieresis" unicode="&#xd6;" horiz-adv-x="874" 
d="M389 839q0 -21 -15 -36t-36 -15q-22 0 -37 15t-15 36t15 36t37 15q21 0 36 -15t15 -36zM587 839q0 -21 -15 -36t-37 -15q-20 0 -35 15t-15 36t15 36t35 15q22 0 37 -15t15 -36zM693 375q0 106 -75 180.5t-181 74.5t-180.5 -74.5t-74.5 -180.5t74.5 -181t180.5 -75
q107 0 181.5 74.5t74.5 181.5zM839 375q0 -166 -117.5 -279t-284.5 -113q-168 0 -285 113t-117 279t117 279t285 113q167 0 284.5 -113t117.5 -279z" />
    <glyph glyph-name="multiply" unicode="&#xd7;" horiz-adv-x="659" 
d="M426 290l193 -194l-96 -96l-194 194l-193 -194l-96 96l193 194l-193 193l96 96l193 -193l194 193l96 -96z" />
    <glyph glyph-name="Oslash" unicode="&#xd8;" horiz-adv-x="884" 
d="M50 55l75 75q-85 107 -85 245q0 166 117 279t285 113q135 0 242 -78l78 78l72 -72l-76 -76q86 -105 86 -244q0 -166 -117.5 -279t-284.5 -113q-136 0 -243 77l-77 -77zM698 375q0 77 -43 141l-355 -355q64 -42 142 -42q106 0 181 74.5t75 181.5zM187 375q0 -79 42 -141
l354 354q-66 42 -141 42q-106 0 -180.5 -74.5t-74.5 -180.5z" />
    <glyph glyph-name="Ugrave" unicode="&#xd9;" horiz-adv-x="717" 
d="M274 827v83l171 -59v-66zM657 750v-489q0 -128 -83.5 -203t-214.5 -75q-132 0 -215.5 75t-83.5 203v489h142v-489q0 -66 44.5 -105.5t112.5 -39.5t112.5 39.5t44.5 105.5v489h141z" />
    <glyph glyph-name="Uacute" unicode="&#xda;" horiz-adv-x="717" 
d="M445 910v-83l-171 -42v66zM657 750v-489q0 -128 -83.5 -203t-214.5 -75q-132 0 -215.5 75t-83.5 203v489h142v-489q0 -66 44.5 -105.5t112.5 -39.5t112.5 39.5t44.5 105.5v489h141z" />
    <glyph glyph-name="Ucircumflex" unicode="&#xdb;" horiz-adv-x="717" 
d="M657 750v-489q0 -128 -83.5 -203t-214.5 -75q-132 0 -215.5 75t-83.5 203v489h142v-489q0 -66 44.5 -105.5t112.5 -39.5t112.5 39.5t44.5 105.5v489h141zM460 824l-41 -42l-60 61l-60 -60l-42 42l102 101z" />
    <glyph glyph-name="Udieresis" unicode="&#xdc;" horiz-adv-x="717" 
d="M309 839q0 -21 -15 -36t-35 -15q-22 0 -37 15t-15 36q0 22 15 36.5t37 14.5q21 0 35.5 -15t14.5 -36zM508 839q0 -21 -15 -36t-37 -15q-21 0 -36 15t-15 36q0 22 15 36.5t36 14.5q22 0 37 -14.5t15 -36.5zM657 750v-489q0 -128 -83.5 -203t-214.5 -75q-132 0 -215.5 75
t-83.5 203v489h142v-489q0 -66 44.5 -105.5t112.5 -39.5t112.5 39.5t44.5 105.5v489h141z" />
    <glyph glyph-name="Yacute" unicode="&#xdd;" horiz-adv-x="715" 
d="M441 910v-83l-170 -42v66zM532 750h168l-271 -435v-315h-140v315l-274 435h168l174 -286h4z" />
    <glyph glyph-name="Thorn" unicode="&#xde;" horiz-adv-x="689" 
d="M654 447q0 -89 -64 -148.5t-154 -59.5h-234v-239h-142v750h142v-94h234q90 0 154 -59t64 -150zM436 375q30 0 51.5 21.5t21.5 50.5q0 31 -21 52.5t-52 21.5h-234v-146h234z" />
    <glyph glyph-name="germandbls" unicode="&#xdf;" horiz-adv-x="610" 
d="M570 230q0 -100 -71.5 -165t-176.5 -65h-69v136h69q42 0 72 30t30 72t-30 72t-72 30h-69v137h25q33 0 55 22.5t22 54.5t-22 54t-55 22q-29 0 -50.5 -19.5t-24.5 -47.5v-563h-143v563q0 84 65 144t153 60q95 0 159.5 -57t64.5 -147q0 -65 -61 -134q129 -74 129 -199z" />
    <glyph glyph-name="agrave" unicode="&#xe0;" horiz-adv-x="726" 
d="M262 684v83l171 -59v-66zM527 290q0 70 -49.5 120t-120.5 50q-70 0 -120 -50t-50 -120q0 -71 50 -121t120 -50q71 0 120.5 50t49.5 121zM527 0v85h-2q-76 -102 -194 -102q-122 0 -206.5 88t-84.5 219q0 130 84.5 218t206.5 88q119 0 194 -101h2v84h139v-579h-139z" />
    <glyph glyph-name="aacute" unicode="&#xe1;" horiz-adv-x="726" 
d="M433 767v-83l-171 -42v66zM527 290q0 70 -49.5 120t-120.5 50q-70 0 -120 -50t-50 -120q0 -71 50 -121t120 -50q71 0 120.5 50t49.5 121zM527 0v85h-2q-76 -102 -194 -102q-122 0 -206.5 88t-84.5 219q0 130 84.5 218t206.5 88q119 0 194 -101h2v84h139v-579h-139z" />
    <glyph glyph-name="acircumflex" unicode="&#xe2;" horiz-adv-x="726" 
d="M441 718l-41 -42l-60 61l-60 -60l-42 42l102 101zM527 290q0 70 -49.5 120t-120.5 50q-70 0 -120 -50t-50 -120q0 -71 50 -121t120 -50q71 0 120.5 50t49.5 121zM527 0v85h-2q-76 -102 -194 -102q-122 0 -206.5 88t-84.5 219q0 130 84.5 218t206.5 88q119 0 194 -101h2
v84h139v-579h-139z" />
    <glyph glyph-name="atilde" unicode="&#xe3;" horiz-adv-x="726" 
d="M404 737h54q0 -30 -21.5 -52t-51.5 -22q-43 0 -65 38q-4 11 -16 11q-19 0 -19 -19h-54q0 30 21.5 52t51.5 22q44 0 63 -39q6 -10 18 -10q19 0 19 19zM527 290q0 70 -49.5 120t-120.5 50q-70 0 -120 -50t-50 -120q0 -71 50 -121t120 -50q71 0 120.5 50t49.5 121zM527 0v85
h-2q-76 -102 -194 -102q-122 0 -206.5 88t-84.5 219q0 130 84.5 218t206.5 88q119 0 194 -101h2v84h139v-579h-139z" />
    <glyph glyph-name="adieresis" unicode="&#xe4;" horiz-adv-x="726" 
d="M297 716q0 -21 -14.5 -36t-35.5 -15q-22 0 -37 15t-15 36t15 36t37 15q21 0 35.5 -15t14.5 -36zM496 716q0 -21 -15 -36t-37 -15q-21 0 -35.5 15t-14.5 36t14.5 36t35.5 15q22 0 37 -15t15 -36zM527 290q0 70 -49.5 120t-120.5 50q-70 0 -120 -50t-50 -120q0 -71 50 -121
t120 -50q71 0 120.5 50t49.5 121zM527 0v85h-2q-76 -102 -194 -102q-122 0 -206.5 88t-84.5 219q0 130 84.5 218t206.5 88q119 0 194 -101h2v84h139v-579h-139z" />
    <glyph glyph-name="aring" unicode="&#xe5;" horiz-adv-x="726" 
d="M374 727q0 11 -8 18.5t-18 7.5q-12 0 -20 -7.5t-8 -18.5q0 -12 8 -20t20 -8q11 0 18.5 8t7.5 20zM421 727q0 -31 -22 -53t-51 -22q-31 0 -53 22t-22 53q0 30 22 51.5t53 21.5q29 0 51 -21.5t22 -51.5zM527 290q0 70 -49.5 120t-120.5 50q-70 0 -120 -50t-50 -120
q0 -71 50 -121t120 -50q71 0 120.5 50t49.5 121zM527 0v85h-2q-76 -102 -194 -102q-122 0 -206.5 88t-84.5 219q0 130 84.5 218t206.5 88q119 0 194 -101h2v84h139v-579h-139z" />
    <glyph glyph-name="ae" unicode="&#xe6;" horiz-adv-x="1220" 
d="M527 0v85h-2q-76 -102 -194 -102q-122 0 -206.5 88t-84.5 219q0 130 84.5 218t206.5 88q119 0 194 -101h2v84h139v-84q71 101 203 101q129 0 220 -89t91 -217q0 -30 -8 -65h-461q18 -52 61 -83.5t97 -31.5q50 0 94.5 22t66.5 59l108 -70q-44 -63 -115 -100.5t-154 -37.5
q-132 0 -203 101v-84h-139zM527 290q0 70 -49.5 120t-120.5 50q-70 0 -120 -50t-50 -120q0 -71 50 -121t120 -50q71 0 120.5 50t49.5 121zM711 348h317q-18 53 -61 84t-98 31q-54 0 -97 -31.5t-61 -83.5z" />
    <glyph glyph-name="ccedilla" unicode="&#xe7;" horiz-adv-x="611" 
d="M281 -154l33 18q6 -11 18 -14t23 3q11 7 14 18.5t-4 22.5q-6 11 -18 14t-22 -3l-19 32l13 48q-120 13 -199.5 98.5t-79.5 206.5q0 130 92 218t225 88q128 0 218 -90l-98 -96q-48 50 -120 50q-70 0 -120 -50t-50 -120q0 -71 50 -121t120 -50q72 0 120 50l98 -96
q-92 -90 -218 -90h-1l-10 -37q32 -3 52 -34q14 -23 6.5 -50t-31.5 -40q-24 -14 -51 -7t-41 31z" />
    <glyph glyph-name="egrave" unicode="&#xe8;" horiz-adv-x="707" 
d="M269 684v83l171 -59v-66zM667 290q0 -30 -8 -65h-461q18 -52 61 -83.5t97 -31.5q50 0 94.5 22t66.5 59l108 -70q-44 -63 -115 -100.5t-154 -37.5q-132 0 -224 88.5t-92 218.5t92 218t224 88q129 0 220 -89t91 -217zM198 348h317q-18 53 -61 84t-98 31q-54 0 -97 -31.5
t-61 -83.5z" />
    <glyph glyph-name="eacute" unicode="&#xe9;" horiz-adv-x="707" 
d="M439 767v-83l-171 -42v66zM667 290q0 -30 -8 -65h-461q18 -52 61 -83.5t97 -31.5q50 0 94.5 22t66.5 59l108 -70q-44 -63 -115 -100.5t-154 -37.5q-132 0 -224 88.5t-92 218.5t92 218t224 88q129 0 220 -89t91 -217zM198 348h317q-18 53 -61 84t-98 31q-54 0 -97 -31.5
t-61 -83.5z" />
    <glyph glyph-name="ecircumflex" unicode="&#xea;" horiz-adv-x="707" 
d="M667 290q0 -30 -8 -65h-461q18 -52 61 -83.5t97 -31.5q50 0 94.5 22t66.5 59l108 -70q-44 -63 -115 -100.5t-154 -37.5q-132 0 -224 88.5t-92 218.5t92 218t224 88q129 0 220 -89t91 -217zM198 348h317q-18 53 -61 84t-98 31q-54 0 -97 -31.5t-61 -83.5zM457 718l-41 -42
l-60 61l-60 -60l-42 42l102 101z" />
    <glyph glyph-name="edieresis" unicode="&#xeb;" horiz-adv-x="707" 
d="M308 716q0 -21 -15 -36t-35 -15q-22 0 -37 15t-15 36t15 36t37 15q20 0 35 -15t15 -36zM507 716q0 -21 -15 -36t-37 -15q-21 0 -36 15t-15 36t15 36t36 15q22 0 37 -15t15 -36zM667 290q0 -30 -8 -65h-461q18 -52 61 -83.5t97 -31.5q50 0 94.5 22t66.5 59l108 -70
q-44 -63 -115 -100.5t-154 -37.5q-132 0 -224 88.5t-92 218.5t92 218t224 88q129 0 220 -89t91 -217zM198 348h317q-18 53 -61 84t-98 31q-54 0 -97 -31.5t-61 -83.5z" />
    <glyph glyph-name="igrave" unicode="&#xec;" horiz-adv-x="257" 
d="M60 0v579h137v-579h-137zM43 684v83l171 -59v-66z" />
    <glyph glyph-name="iacute" unicode="&#xed;" horiz-adv-x="258" 
d="M60 0v579h138v-579h-138zM214 767v-83l-170 -42v66z" />
    <glyph glyph-name="icircumflex" unicode="&#xee;" horiz-adv-x="257" 
d="M60 0v579h137v-579h-137zM230 718l-41 -42l-60 61l-60 -60l-42 42l102 101z" />
    <glyph glyph-name="idieresis" unicode="&#xef;" horiz-adv-x="257" 
d="M60 0v579h137v-579h-137zM86 716q0 -21 -15 -36t-35 -15q-22 0 -37 15t-15 36t15 36t37 15q20 0 35 -15t15 -36zM273 716q0 -21 -15 -36t-36 -15t-36 15t-15 36t15 36t36 15t36 -15t15 -36z" />
    <glyph glyph-name="eth" unicode="&#xf0;" horiz-adv-x="676" 
d="M636 281q0 -124 -87 -211t-211 -87q-122 0 -208.5 86t-89.5 212q0 105 72.5 179.5t175.5 74.5q53 0 107 -28h3l-18 19l-76 76l-59 -40l-27 43l49 33l-111 112h193l33 -35l52 34l28 -43l-42 -27l87 -101q48 -56 88.5 -137t40.5 -160zM500 281q0 67 -47.5 114.5
t-114.5 47.5t-114 -47.5t-47 -114.5t47 -115t114 -48t114.5 48t47.5 115z" />
    <glyph glyph-name="ntilde" unicode="&#xf1;" 
d="M200 0h-140v579h129v-83h2q24 44 70.5 72t109.5 28q100 0 162 -68.5t62 -177.5v-350h-140v332q0 53 -37 90.5t-90 37.5t-90.5 -37.5t-37.5 -90.5v-332z" />
    <glyph glyph-name="ograve" unicode="&#xf2;" horiz-adv-x="713" 
d="M272 684v83l171 -59v-66zM527 290q0 70 -50 120t-121 50q-70 0 -119.5 -50t-49.5 -120q0 -71 49.5 -121t119.5 -50q71 0 121 50t50 121zM673 290q0 -131 -92 -219t-225 -88q-132 0 -224 88t-92 219q0 130 92 218t224 88q133 0 225 -88t92 -218z" />
    <glyph glyph-name="oacute" unicode="&#xf3;" horiz-adv-x="713" 
d="M443 767v-83l-171 -42v66zM527 290q0 70 -50 120t-121 50q-70 0 -119.5 -50t-49.5 -120q0 -71 49.5 -121t119.5 -50q71 0 121 50t50 121zM673 290q0 -131 -92 -219t-225 -88q-132 0 -224 88t-92 219q0 130 92 218t224 88q133 0 225 -88t92 -218z" />
    <glyph glyph-name="ocircumflex" unicode="&#xf4;" horiz-adv-x="713" 
d="M527 290q0 70 -50 120t-121 50q-70 0 -119.5 -50t-49.5 -120q0 -71 49.5 -121t119.5 -50q71 0 121 50t50 121zM673 290q0 -131 -92 -219t-225 -88q-132 0 -224 88t-92 219q0 130 92 218t224 88q133 0 225 -88t92 -218zM457 718l-41 -42l-60 61l-60 -60l-42 42l102 101z
" />
    <glyph glyph-name="otilde" unicode="&#xf5;" horiz-adv-x="713" 
d="M527 290q0 70 -50 120t-121 50q-70 0 -119.5 -50t-49.5 -120q0 -71 49.5 -121t119.5 -50q71 0 121 50t50 121zM673 290q0 -131 -92 -219t-225 -88q-132 0 -224 88t-92 219q0 130 92 218t224 88q133 0 225 -88t92 -218zM416 737h54q0 -30 -21.5 -52t-51.5 -22
q-43 0 -65 38q-4 11 -16 11q-19 0 -19 -19h-54q0 30 21.5 52t51.5 22q44 0 63 -39q6 -10 18 -10q19 0 19 19z" />
    <glyph glyph-name="odieresis" unicode="&#xf6;" horiz-adv-x="713" 
d="M308 716q0 -21 -15 -36t-35 -15q-22 0 -37 15t-15 36t15 36t37 15q20 0 35 -15t15 -36zM507 716q0 -21 -15 -36t-37 -15q-21 0 -36 15t-15 36t15 36t36 15q22 0 37 -15t15 -36zM527 290q0 70 -50 120t-121 50q-70 0 -119.5 -50t-49.5 -120q0 -71 49.5 -121t119.5 -50
q71 0 121 50t50 121zM673 290q0 -131 -92 -219t-225 -88q-132 0 -224 88t-92 219q0 130 92 218t224 88q133 0 225 -88t92 -218z" />
    <glyph glyph-name="divide" unicode="&#xf7;" horiz-adv-x="679" 
d="M408 60q0 -29 -20 -48.5t-49 -19.5q-28 0 -47.5 20t-19.5 48t19.5 48t47.5 20q29 0 49 -19.5t20 -48.5zM272 518q0 29 19.5 49t47.5 20q29 0 49 -20t20 -49q0 -28 -20 -47.5t-49 -19.5q-28 0 -47.5 19.5t-19.5 47.5zM50 340h579v-102h-579v102z" />
    <glyph glyph-name="oslash" unicode="&#xf8;" horiz-adv-x="721" 
d="M55 56l50 50q-61 78 -61 184q0 130 92 218t224 88q100 0 181 -54l54 54l72 -73l-51 -51q61 -80 61 -182q0 -131 -92 -219t-225 -88q-100 0 -180 53l-53 -53zM191 290q0 -43 19 -79l229 229q-35 20 -79 20q-70 0 -119.5 -50t-49.5 -120zM531 290q0 40 -19 78l-230 -230
q34 -19 78 -19q71 0 121 50t50 121z" />
    <glyph glyph-name="ugrave" unicode="&#xf9;" 
d="M244 684v83l171 -59v-66zM455 579h140v-579h-129v83h-2q-24 -44 -70.5 -72t-109.5 -28q-100 0 -162 68.5t-62 177.5v350h140v-332q0 -53 37 -90.5t90 -37.5t90.5 37.5t37.5 90.5v332z" />
    <glyph glyph-name="uacute" unicode="&#xfa;" 
d="M415 767v-83l-171 -42v66zM455 579h140v-579h-129v83h-2q-24 -44 -70.5 -72t-109.5 -28q-100 0 -162 68.5t-62 177.5v350h140v-332q0 -53 37 -90.5t90 -37.5t90.5 37.5t37.5 90.5v332z" />
    <glyph glyph-name="ucircumflex" unicode="&#xfb;" 
d="M428 718l-41 -42l-60 61l-60 -60l-42 42l102 101zM455 579h140v-579h-129v83h-2q-24 -44 -70.5 -72t-109.5 -28q-100 0 -162 68.5t-62 177.5v350h140v-332q0 -53 37 -90.5t90 -37.5t90.5 37.5t37.5 90.5v332z" />
    <glyph glyph-name="udieresis" unicode="&#xfc;" 
d="M279 716q0 -21 -15 -36t-35 -15q-22 0 -37 15t-15 36t15 36t37 15q20 0 35 -15t15 -36zM478 716q0 -21 -15 -36t-37 -15q-21 0 -36 15t-15 36t15 36t36 15q22 0 37 -15t15 -36zM455 579h140v-579h-129v83h-2q-24 -44 -70.5 -72t-109.5 -28q-100 0 -162 68.5t-62 177.5
v350h140v-332q0 -53 37 -90.5t90 -37.5t90.5 37.5t37.5 90.5v332z" />
    <glyph glyph-name="yacute" unicode="&#xfd;" horiz-adv-x="615" 
d="M394 767v-83l-171 -42v66zM600 579l-290 -750h-146l71 184l-220 566h147l145 -377h2l145 377h146z" />
    <glyph glyph-name="thorn" unicode="&#xfe;" horiz-adv-x="727" 
d="M200 750v-268h2q77 114 194 114q122 0 206.5 -88t84.5 -219t-84.5 -218.5t-206.5 -87.5q-117 0 -194 101h-2v-255h-140v921h140zM200 289q0 -70 50 -120t120 -50q71 0 120.5 50t49.5 120q0 71 -49.5 121t-120.5 50q-70 0 -120 -50t-50 -121z" />
    <glyph glyph-name="ydieresis" unicode="&#xff;" horiz-adv-x="615" 
d="M459 706q0 -21 -15 -36t-37 -15q-21 0 -36 15t-15 36t15 36t36 15q22 0 37 -15t15 -36zM260 706q0 -21 -15 -36t-35 -15q-22 0 -37 15t-15 36t15 36t37 15q20 0 35 -15t15 -36zM600 579l-290 -750h-146l71 184l-220 566h147l145 -377h2l145 377h146z" />
    <glyph glyph-name="dotlessi" unicode="&#x131;" horiz-adv-x="260" 
d="M60 579h140v-579h-140v579z" />
    <glyph glyph-name="Lslash" unicode="&#x141;" horiz-adv-x="611" 
d="M221 136h375v-136h-517v285l-59 -12v136l59 13v328h142v-300l179 38v-137l-179 -37v-178z" />
    <glyph glyph-name="lslash" unicode="&#x142;" horiz-adv-x="297" 
d="M277 463v-137l-58 -12v-314h-140v285l-59 -12v136l59 13v328h140v-300z" />
    <glyph glyph-name="OE" unicode="&#x152;" horiz-adv-x="1279" 
d="M835 136h409v-136h-551v77q-107 -94 -256 -94q-168 0 -285 113t-117 279t117 279t285 113q148 0 256 -95v78h551v-137h-409v-169h340v-137h-340v-171zM693 375q0 106 -75 180.5t-181 74.5t-180.5 -74.5t-74.5 -180.5t74.5 -181t180.5 -75q107 0 181.5 74.5t74.5 181.5z
" />
    <glyph glyph-name="oe" unicode="&#x153;" horiz-adv-x="1185" 
d="M1145 290q0 -30 -8 -65h-461q18 -52 61 -83.5t97 -31.5q50 0 94.5 22t66.5 59l108 -70q-44 -63 -115 -100.5t-154 -37.5q-147 0 -236 107q-43 -50 -106.5 -78.5t-135.5 -28.5q-132 0 -224 88t-92 219q0 130 92 218t224 88q72 0 135 -28.5t106 -78.5q91 107 237 107
q129 0 220 -89t91 -217zM527 290q0 70 -50 120t-121 50q-70 0 -119.5 -50t-49.5 -120q0 -71 49.5 -121t119.5 -50q71 0 121 50t50 121zM676 348h317q-18 53 -61 84t-98 31q-54 0 -97 -31.5t-61 -83.5z" />
    <glyph glyph-name="Scaron" unicode="&#x160;" horiz-adv-x="641" 
d="M573 683l-79 -112q-72 59 -177 59q-34 0 -62.5 -12.5t-42 -32t-15 -41t18 -41t57.5 -30.5l120 -31q92 -22 150 -80t58 -145q0 -99 -82.5 -166.5t-201.5 -67.5q-162 0 -277 97l80 113q77 -75 197 -75q50 0 87 24t48 56t-10.5 64t-76.5 47l-128 33q-82 22 -133 75.5
t-51 132.5q0 91 77.5 154t186.5 63q148 0 256 -84zM377 926l41 -42l-101 -102l-102 101l42 42l60 -60z" />
    <glyph glyph-name="scaron" unicode="&#x161;" horiz-adv-x="576" 
d="M285 105q67 -4 96 35q23 32 -2 60q-15 16 -45 22l-122 18q-74 11 -117 56t-43 118q0 82 65 132.5t168 50.5q131 0 231 -68l-62 -103q-64 49 -169 49q-76 0 -93 -40q-13 -28 15 -50q14 -10 33 -13l124 -19q71 -12 121.5 -58t50.5 -129q0 -84 -72.5 -133.5t-178.5 -49.5
q-141 0 -245 68l69 109q66 -49 176 -55zM345 820l41 -42l-101 -102l-102 101l42 42l60 -60z" />
    <glyph glyph-name="Ydieresis" unicode="&#x178;" horiz-adv-x="715" 
d="M310 839q0 -21 -15 -36t-35 -15q-22 0 -37 15t-15 36q0 22 15 36.5t37 14.5q20 0 35 -15t15 -36zM508 839q0 -21 -14.5 -36t-36.5 -15q-21 0 -36 15t-15 36q0 22 15 36.5t36 14.5q22 0 36.5 -14.5t14.5 -36.5zM532 750h168l-271 -435v-315h-140v315l-274 435h168
l174 -286h4z" />
    <glyph glyph-name="Zcaron" unicode="&#x17d;" horiz-adv-x="695" 
d="M58 613v137h625l-413 -613v-2l367 1v-136h-625l414 612v2zM408 926l41 -42l-101 -102l-102 101l42 42l60 -60z" />
    <glyph glyph-name="zcaron" unicode="&#x17e;" horiz-adv-x="571" 
d="M265 136h267v-136h-520l293 441v3h-267v135h521l-294 -440v-3zM345 820l41 -42l-101 -102l-102 101l42 42l60 -60z" />
    <glyph glyph-name="florin" unicode="&#x192;" horiz-adv-x="414" 
d="M161 444h-60l18 127h61l1 16q13 68 69 115.5t124 47.5h25l-9 -68l-9 -62h-25q-14 0 -25 -9.5t-13 -23.5l-3 -16h60l-18 -127h-60l-63 -451q-12 -68 -68 -116t-125 -48h-26l18 130h26q13 0 25 10t14 24z" />
    <glyph glyph-name="circumflex" unicode="&#x2c6;" horiz-adv-x="403" 
d="M303 718l-41 -42l-60 61l-60 -60l-42 42l102 101z" />
    <glyph glyph-name="caron" unicode="&#x2c7;" horiz-adv-x="403" 
d="M262 820l41 -42l-101 -102l-102 101l42 42l60 -60z" />
    <glyph glyph-name="breve" unicode="&#x2d8;" horiz-adv-x="322" 
d="M60 750h75q8 -15 25 -15t27 15h75q-6 -37 -34.5 -61.5t-67.5 -24.5q-37 0 -65.5 24.5t-34.5 61.5z" />
    <glyph glyph-name="dotaccent" unicode="&#x2d9;" horiz-adv-x="274" 
d="M137 652q-31 0 -54 23t-23 54t23 54t54 23t54 -23t23 -54t-23 -54t-54 -23z" />
    <glyph glyph-name="ring" unicode="&#x2da;" horiz-adv-x="348" 
d="M201 727q0 11 -7.5 18.5t-18.5 7.5q-12 0 -20 -7.5t-8 -18.5q0 -12 8 -20t20 -8q11 0 18.5 8t7.5 20zM248 727q0 -31 -22 -53t-51 -22q-31 0 -53 22t-22 53q0 30 22 51.5t53 21.5q29 0 51 -21.5t22 -51.5z" />
    <glyph glyph-name="ogonek" unicode="&#x2db;" horiz-adv-x="305" 
d="M67 0h132q-16 -2 -26.5 -14t-10.5 -28q0 -18 12.5 -30.5t31.5 -12.5q29 0 39 29v-126q-24 -6 -39 -6q-61 0 -103.5 42.5t-42.5 103.5q0 24 7 42z" />
    <glyph glyph-name="tilde" unicode="&#x2dc;" horiz-adv-x="427" 
d="M273 737h54q0 -30 -21.5 -52t-51.5 -22q-43 0 -65 38q-4 11 -16 11q-19 0 -19 -19h-54q0 30 21.5 52t51.5 22q44 0 63 -39q6 -10 18 -10q19 0 19 19z" />
    <glyph glyph-name="hungarumlaut" unicode="&#x2dd;" horiz-adv-x="362" 
d="M113 750h74l-53 -118h-74zM230 750h72l-53 -118h-72z" />
    <glyph glyph-name="Omega" unicode="&#x3a9;" horiz-adv-x="884" 
d="M844 375q0 -33 -8.5 -64.5t-16.5 -51t-29 -48t-29 -37.5l-33 -36v-2h89v-136h-283v136q73 28 118.5 93.5t45.5 145.5q0 106 -75 180.5t-181 74.5t-180.5 -74.5t-74.5 -180.5q0 -81 45 -146t119 -93v-136h-284v136h90v2q-29 31 -41.5 46.5t-34.5 48t-31.5 67t-9.5 75.5
q0 167 116.5 279.5t285.5 112.5t285.5 -112.5t116.5 -279.5z" />
    <glyph glyph-name="pi" unicode="&#x3c0;" horiz-adv-x="620" 
d="M600 546v-137q-37 0 -94 -2v-407h-136v404l-125 -6q-18 -398 -24 -398h-137q10 0 25 387q-85 -12 -89 -24v138q0 18 145 29.5t290 13.5z" />
    <glyph glyph-name="endash" unicode="&#x2013;" horiz-adv-x="619" 
d="M45 340h529v-102h-529v102z" />
    <glyph glyph-name="emdash" unicode="&#x2014;" horiz-adv-x="909" 
d="M45 341h819v-102h-819v102z" />
    <glyph glyph-name="quoteleft" unicode="&#x2018;" horiz-adv-x="234" 
d="M50 567v75q0 48 34 81.5t81 33.5h16v-65h-16q-20 0 -35 -14t-16 -35q4 1 13 1q32 0 54.5 -22t22.5 -55q0 -31 -22.5 -53t-54.5 -22t-54.5 22t-22.5 53z" />
    <glyph glyph-name="quoteright" unicode="&#x2019;" horiz-adv-x="234" 
d="M184 682v-75q0 -48 -33.5 -81.5t-81.5 -33.5h-16v65h16q21 0 35.5 14t14.5 35q-3 -1 -12 -1q-32 0 -54.5 22t-22.5 55q0 31 22.5 53t54.5 22t54.5 -22t22.5 -53z" />
    <glyph glyph-name="quotesinglbase" unicode="&#x201a;" horiz-adv-x="234" 
d="M204 -5q0 -48 -34 -82t-81 -34v65q20 0 35 14.5t16 35.5q-5 -2 -13 -2q-31 0 -54 23t-23 54t23 54t54 23t54 -23t23 -54v-74z" />
    <glyph glyph-name="quotedblleft" unicode="&#x201c;" horiz-adv-x="418" 
d="M234 567v75q0 48 33.5 81.5t81.5 33.5h16v-65h-16q-21 0 -35.5 -14t-14.5 -35q3 1 12 1q32 0 54.5 -22t22.5 -55q0 -31 -22.5 -53t-54.5 -22t-54.5 22t-22.5 53zM50 567v75q0 48 34 81.5t81 33.5h16v-65h-16q-20 0 -35 -14t-16 -35q4 1 13 1q32 0 54.5 -22t22.5 -55
q0 -31 -22.5 -53t-54.5 -22t-54.5 22t-22.5 53z" />
    <glyph glyph-name="quotedblright" unicode="&#x201d;" horiz-adv-x="418" 
d="M184 682v-75q0 -48 -33.5 -81.5t-81.5 -33.5h-16v65h16q21 0 35.5 14t14.5 35q-3 -1 -12 -1q-32 0 -54.5 22t-22.5 55q0 31 22.5 53t54.5 22t54.5 -22t22.5 -53zM368 682v-75q0 -48 -34 -81.5t-81 -33.5h-16v65h16q20 0 35 14t16 35q-4 -1 -13 -1q-32 0 -54.5 22
t-22.5 55q0 31 22.5 53t54.5 22t54.5 -22t22.5 -53z" />
    <glyph glyph-name="quotedblbase" unicode="&#x201e;" horiz-adv-x="418" 
d="M184 69v-75q0 -48 -33.5 -81.5t-81.5 -33.5h-16v65h16q21 0 35.5 14t14.5 35q-3 -1 -12 -1q-32 0 -54.5 22t-22.5 55q0 31 22.5 53t54.5 22t54.5 -22t22.5 -53zM368 69v-75q0 -48 -34 -81.5t-81 -33.5h-16v65h16q20 0 35 14t16 35q-4 -1 -13 -1q-32 0 -54.5 22t-22.5 55
q0 31 22.5 53t54.5 22t54.5 -22t22.5 -53z" />
    <glyph glyph-name="dagger" unicode="&#x2020;" horiz-adv-x="506" 
d="M60 579h144v171h102v-171h140v-102h-140v-563h-102v563h-144v102z" />
    <glyph glyph-name="daggerdbl" unicode="&#x2021;" horiz-adv-x="540" 
d="M60 85v102h144v290h-144v102h144v171h102v-171h140v-102h-140v-290h140v-102h-140v-171h-102v171h-144z" />
    <glyph glyph-name="bullet" unicode="&#x2022;" horiz-adv-x="439" 
d="M220 171q-50 0 -85 35t-35 84t35 84t85 35q49 0 84 -35t35 -84t-35 -84t-84 -35z" />
    <glyph glyph-name="ellipsis" unicode="&#x2026;" horiz-adv-x="995" 
d="M807 69q0 32 22.5 54.5t54.5 22.5t54 -22.5t22 -54.5t-22 -54.5t-54 -22.5t-54.5 22.5t-22.5 54.5zM421 69q0 31 22.5 54t54.5 23t54.5 -23t22.5 -54t-22.5 -54t-54.5 -23t-54.5 23t-22.5 54zM35 69q0 31 22.5 54t54.5 23t54.5 -23t22.5 -54t-22.5 -54t-54.5 -23
t-54.5 23t-22.5 54z" />
    <glyph glyph-name="perthousand" unicode="&#x2030;" horiz-adv-x="929" 
d="M185 -17l-69 29l243 582h-11q-21 0 -39 6q-11 -46 -48.5 -75.5t-85.5 -29.5q-56 0 -95.5 39.5t-39.5 96.5t39.5 96.5t95.5 39.5q38 0 69.5 -18t49.5 -49q18 -32 54 -32q19 0 35 11t23 28l25 60l69 -29zM580 118q0 -57 -40 -96t-97 -39q-56 0 -95.5 39t-39.5 96
q0 56 39.5 96t95.5 40q57 0 97 -40t40 -96zM238 631q0 26 -18.5 44.5t-44.5 18.5q-25 0 -43.5 -18.5t-18.5 -44.5t18.5 -44t43.5 -18q26 0 44.5 18t18.5 44zM506 118q0 26 -18.5 44.5t-44.5 18.5q-25 0 -43.5 -19t-18.5 -44q0 -26 18.5 -44t43.5 -18q26 0 44.5 18t18.5 44z
M889 118q0 -57 -40 -96t-97 -39q-56 0 -95.5 39t-39.5 96q0 56 39.5 96t95.5 40q57 0 97 -40t40 -96zM815 118q0 26 -18.5 44.5t-44.5 18.5q-25 0 -43.5 -19t-18.5 -44q0 -26 18.5 -44t43.5 -18q26 0 44.5 18t18.5 44z" />
    <glyph glyph-name="guilsinglleft" unicode="&#x2039;" horiz-adv-x="293" 
d="M40 290l213 212v-144l-75 -66v-4l75 -67v-144z" />
    <glyph glyph-name="guilsinglright" unicode="&#x203a;" horiz-adv-x="293" 
d="M40 502l213 -212l-213 -213v144l75 67v4l-75 66v144z" />
    <glyph glyph-name="fraction" unicode="&#x2044;" horiz-adv-x="492" 
d="M60 5l317 763l55 -21l-319 -763z" />
    <glyph glyph-name="Euro" unicode="&#x20ac;" horiz-adv-x="723" 
d="M567 200l116 -68q-47 -74 -104 -111.5t-143 -37.5q-120 0 -201 77t-111 204h-89v86h77q-1 8 -1 25t1 25h-77v86h89q30 127 111 204t201 77q86 0 142.5 -37.5t104.5 -111.5l-116 -69q-52 81 -131 81q-57 0 -99.5 -38.5t-62.5 -105.5h341v-86h-357v-50h271v-86h-255
q20 -68 62.5 -106.5t99.5 -38.5q78 0 131 81z" />
    <glyph glyph-name="trademark" unicode="&#x2122;" horiz-adv-x="363" 
d="M323 750v-150h-28v82h-1l-32 -82h-28l-33 82h-1v-82h-27v150h27l47 -113h2l46 113h28zM40 750h117v-28h-44v-122h-28v122h-45v28z" />
    <glyph glyph-name="partialdiff" unicode="&#x2202;" horiz-adv-x="696" 
d="M510 281q0 67 -47.5 114.5t-114.5 47.5t-114 -47.5t-47 -114.5t47 -115t114 -48t114.5 48t47.5 115zM656 289q0 -133 -89 -219.5t-219 -86.5t-219 85t-89 213q0 109 74.5 182.5t183.5 73.5q61 0 113.5 -30.5t87.5 -81.5h2q-23 91 -69 152.5t-101 61.5q-50 0 -94 -47
l-102 72q86 102 196 102q98 0 173 -64.5t113.5 -172t38.5 -240.5z" />
    <glyph glyph-name="Delta" unicode="&#x2206;" horiz-adv-x="592" 
d="M20 0l225 750h102l225 -750h-552zM158 102h276l-137 466h-4z" />
    <glyph glyph-name="product" unicode="&#x220f;" horiz-adv-x="630" 
d="M605 613h-94v-613h-136v613h-119v-613h-137v613h-94v137h580v-137z" />
    <glyph glyph-name="summation" unicode="&#x2211;" horiz-adv-x="561" 
d="M536 136v-136h-511v136l239 239l-239 238v137h511v-137h-317v-2l238 -236l-238 -237v-2h317z" />
    <glyph glyph-name="minus" unicode="&#x2212;" horiz-adv-x="679" 
d="M50 340h579v-102h-579v102z" />
    <glyph glyph-name="radical" unicode="&#x221a;" horiz-adv-x="662" 
d="M200 308l68 -165h2l251 607h111l-312 -750h-102l-67 165h-2l-24 -62l-95 40l68 165h102z" />
    <glyph glyph-name="infinity" unicode="&#x221e;" horiz-adv-x="539" 
d="M50 290q0 45 33 77.5t78 32.5q47 0 79 -32l30 -30l30 30q32 32 79 32q46 0 78 -32t32 -78t-32 -78.5t-78 -32.5q-48 0 -79 33l-30 30l-30 -30q-31 -33 -79 -33q-45 0 -78 32.5t-33 78.5zM119 290q0 -18 12.5 -30t29.5 -12q19 0 30 12l31 30l-31 30q-12 12 -30 12
q-17 0 -29.5 -12t-12.5 -30zM319 290l30 -30q11 -12 30 -12q17 0 29.5 12t12.5 30t-12.5 30t-29.5 12q-18 0 -30 -12z" />
    <glyph glyph-name="integral" unicode="&#x222b;" horiz-adv-x="296" 
d="M20 -41h26q14 0 24 10.5t10 23.5v594q2 68 51.5 115.5t118.5 47.5h26v-130h-26q-14 0 -24 -9.5t-10 -23.5v-594q-3 -68 -52.5 -116t-117.5 -48h-26v130z" />
    <glyph glyph-name="approxequal" unicode="&#x2248;" horiz-adv-x="679" 
d="M50 154v102l22.5 8.5t54 15.5t74.5 13t75 -5t64 -32t62.5 -32.5t76.5 -4t72.5 12.5t56.5 16l21 8v-102l-22.5 -8.5t-54 -15.5t-74.5 -13t-74 5t-63 32t-63 32.5t-77 4t-73 -12.5t-56 -16zM50 323v103l22.5 8.5t54 15.5t74.5 13t75 -5t64 -32t62.5 -33t76.5 -4.5
t72.5 12.5t56.5 17l21 8v-103l-22.5 -8.5t-54 -15.5t-74.5 -13t-74 5t-63 32t-63 33t-77 4.5t-73 -12.5t-56 -16z" />
    <glyph glyph-name="notequal" unicode="&#x2260;" horiz-adv-x="680" 
d="M447 325l-68 -69h251v-102h-354l-116 -116l-72 73l44 43h-82v102h184l68 69h-252v102h354l118 116l72 -72l-45 -44h81v-102h-183z" />
    <glyph glyph-name="lessequal" unicode="&#x2264;" horiz-adv-x="422" 
d="M40 102h342v-102h-342v102zM40 426l342 153v-111l-214 -91v-4l214 -91v-111l-342 152v103z" />
    <glyph glyph-name="greaterequal" unicode="&#x2265;" horiz-adv-x="422" 
d="M40 102h342v-102h-342v102zM40 579l342 -153v-103l-342 -152v111l214 91v4l-214 91v111z" />
    <glyph glyph-name="lozenge" unicode="&#x25ca;" horiz-adv-x="557" 
d="M517 375l-187 -375h-102l-188 375l188 375h102zM154 375l124 -249h2l123 249l-123 249h-2z" />
    <glyph glyph-name="uniF8FF" unicode="&#xf8ff;" horiz-adv-x="500" 
 />
    <glyph glyph-name="fi" unicode="&#xfb01;" horiz-adv-x="622" 
d="M370 720l-85 -101q-11 11 -31 11q-14 0 -24 -10t-10 -24v-17h342v-579h-136v455h-206v-455h-140v455h-50v124h50v17q0 70 51.5 120.5t122.5 50.5q66 0 116 -47zM418 690q0 32 22 54.5t54 22.5t54 -22.5t22 -54.5t-22 -54.5t-54 -22.5t-54 22.5t-22 54.5z" />
    <glyph glyph-name="fl" unicode="&#xfb02;" horiz-adv-x="627" 
d="M306 579v-124h-86v-455h-138v455h-52v124h52v10q0 67 49.5 114t120.5 47h315v-750h-138v624h-174q-14 0 -24.5 -10.5t-10.5 -24.5v-10h86z" />
    <glyph glyph-name="Publisher" horiz-adv-x="693" 
d="M653 290q0 -128 -89.5 -217.5t-217.5 -89.5q-127 0 -216.5 90t-89.5 217t89.5 216.5t216.5 89.5t217 -89.5t90 -216.5zM617 290q0 112 -79 191t-192 79q-112 0 -191 -79t-79 -191t79 -191.5t191 -79.5q113 0 192 79.5t79 191.5zM529 341q0 -64 -45 -109.5t-109 -45.5h-89
v-102h-74v411h163q65 0 109.5 -44.5t44.5 -109.5zM455 341q0 33 -24 56.5t-56 23.5h-89v-159h89q33 0 56.5 23t23.5 56z" />
    <glyph glyph-name="tt" horiz-adv-x="689" 
d="M595 136h69v-136h-69q-70 0 -119.5 50t-49.5 121v284h-213v-284q0 -15 10 -25t25 -10h67v-136h-67q-71 0 -121 50t-50 121v284h-52v123h52v132h136v-132h213v132h135v-132h86v-123h-86v-284q0 -15 10 -25t24 -10z" />
    <glyph glyph-name="ft" horiz-adv-x="689" 
d="M370 720l-85 -101q-11 11 -31 11q-14 0 -24 -10t-10 -24v-17h206v131h136v-131h85v-124h-85v-284q0 -15 10 -25t24 -10h68v-136h-68q-71 0 -120.5 50t-49.5 121v284h-206v-455h-140v455h-50v124h50v17q0 70 51.5 120.5t122.5 50.5q66 0 116 -47z" />
    <glyph glyph-name="ffi" horiz-adv-x="967" 
d="M370 720l-85 -101q-11 11 -31 11q-14 0 -24 -10t-10 -24v-17h205v17q0 70 51.5 120.5t122.5 50.5q66 0 116 -47l-85 -101q-11 11 -31 11q-13 0 -23.5 -10t-10.5 -24v-17h342v-579h-136v455h-206v-455h-140v455h-205v-455h-140v455h-50v124h50v17q0 70 51.5 120.5
t122.5 50.5q66 0 116 -47zM763 690q0 32 22 54.5t54 22.5t54 -22.5t22 -54.5t-22 -54.5t-54 -22.5t-54 22.5t-22 54.5z" />
    <glyph glyph-name="ffl" horiz-adv-x="975" 
d="M370 720l-85 -101q-11 11 -31 11q-14 0 -24 -10t-10 -24v-17h210v10q0 67 49.5 114t120.5 47h315v-750h-138v624h-174q-14 0 -24.5 -10.5t-10.5 -24.5v-10h86v-124h-86v-455h-138v455h-210v-455h-140v455h-50v124h50v17q0 70 51.5 120.5t122.5 50.5q66 0 116 -47z" />
    <glyph glyph-name="_0000" horiz-adv-x="501" 
 />
    </font>
</defs>
</svg>
