<?xml version="1.0" standalone="no"?>
<!DOCTYPE svg PUBLIC "-//W3C//DTD SVG 1.1//EN" "http://www.w3.org/Graphics/SVG/1.1/DTD/svg11.dtd" >
<svg xmlns="http://www.w3.org/2000/svg">
<metadata></metadata>
<defs>
<font id="brandon_grotesque_regularRg" horiz-adv-x="987" >
<font-face units-per-em="2048" ascent="1434" descent="-614" />
<missing-glyph horiz-adv-x="454" />
<glyph unicode="fi" horiz-adv-x="1079" d="M47 735v45q0 17 11 28t28 11h125v287q0 169 96 258.5t238 89.5q91 0 174.5 -32.5t126.5 -63.5q10 -7 12 -22t-4 -25l-33 -56q-14 -23 -53 -2q-1 1 -15.5 8.5t-24.5 12.5t-28.5 14t-35.5 14.5t-37.5 12t-42 9.5t-41.5 3q-79 0 -135 -55.5t-56 -165.5v-287h543q15 0 27 -12 t12 -27v-741q0 -15 -12 -27t-27 -12h-64q-15 0 -26.5 12t-11.5 27v657h-441v-657q0 -15 -12 -27t-27 -12h-63q-15 0 -27 12t-12 27v657h-125q-17 0 -28 11.5t-11 27.5z" />
<glyph unicode="fl" horiz-adv-x="1085" d="M47 735v45q0 17 11 28t28 11h125v287q0 169 95 258.5t237 89.5q48 0 92.5 -10.5t75 -26t53.5 -31t34 -26.5l11 -10l16 51q9 33 39 33h35q15 0 27 -12t12 -27v-1356q0 -15 -12 -27t-27 -12h-63q-15 0 -27 12t-12 27v1149q-4 5 -10.5 14t-30.5 31t-50 39t-67.5 31t-85.5 14 q-37 0 -71 -11t-64 -34.5t-48 -66t-18 -99.5v-287h238q17 0 28 -11t11 -28v-45q0 -16 -11 -27.5t-28 -11.5h-238v-657q0 -15 -12 -27t-27 -12h-63q-15 0 -27 12t-12 27v657h-125q-17 0 -28 11.5t-11 27.5z" />
<glyph unicode="ffh" horiz-adv-x="2226" d="M47 735v45q0 17 11 28t28 11h125v232q0 99 30.5 174t83.5 120t119 67t142 22q148 0 264 -80q84 100 258 100q46 0 90.5 -10.5t74 -26t52.5 -31t34 -26.5l11 -10l16 51q9 33 39 33h35q15 0 27 -12t12 -27v-664q4 4 12.5 11.5t36.5 26.5t58 33t76 26t92 12q317 0 317 -369 v-432q0 -15 -12 -27t-27 -12h-65q-15 0 -27 12t-12 27v432q0 115 -48.5 173t-136.5 58q-43 0 -86 -12t-74 -28.5t-55.5 -34t-36.5 -28.5l-12 -11v-549q0 -15 -12 -27t-27 -12h-63q-15 0 -27 12t-12 27v1149q-4 5 -10.5 14t-30.5 31t-50 39t-67.5 31t-85.5 14q-37 0 -71 -11 t-64 -34.5t-48 -66t-18 -99.5v-287h238q17 0 28 -11t11 -28v-45q0 -16 -11 -27.5t-28 -11.5h-238v-657q0 -15 -12 -27t-27 -12h-63q-15 0 -27 12t-12 27v657h-420v-657q0 -15 -12 -27t-27 -12h-63q-15 0 -27 12t-12 27v657h-125q-17 0 -28 11.5t-11 27.5zM352 819h420v287 q0 73 14 125q-25 27 -83 51.5t-119 24.5q-46 0 -85.5 -13.5t-73.5 -42t-53.5 -80t-19.5 -120.5v-232z" />
<glyph unicode="fk" horiz-adv-x="1566" d="M47 735v45q0 17 11 28t28 11h125v287q0 169 95 258.5t237 89.5q48 0 92.5 -10.5t75 -26t53.5 -31t34 -26.5l11 -10l16 51q9 33 39 33h35q15 0 27 -12t12 -27v-887l356 287q28 24 49 24h103q24 0 27.5 -21t-9.5 -30l-379 -309l443 -408q14 -11 8.5 -31t-29.5 -20h-112 q-20 0 -41 16l-416 396v-373q0 -15 -12 -27t-27 -12h-63q-15 0 -27 12t-12 27v1149q-4 5 -10.5 14t-30.5 31t-50 39t-67.5 31t-85.5 14q-37 0 -71 -11t-64 -34.5t-48 -66t-18 -99.5v-287h238q17 0 28 -11t11 -28v-45q0 -16 -11 -27.5t-28 -11.5h-238v-657q0 -15 -12 -27 t-27 -12h-63q-15 0 -27 12t-12 27v657h-125q-17 0 -28 11.5t-11 27.5z" />
<glyph unicode="fj" horiz-adv-x="1081" d="M47 735v45q0 17 11 28t28 11h125v287q0 169 96 258.5t238 89.5q91 0 174.5 -32.5t126.5 -63.5q10 -7 12 -22t-4 -25l-33 -56q-14 -23 -53 -2q-1 1 -15.5 8.5t-24.5 12.5t-28.5 14t-35.5 14.5t-37.5 12t-42 9.5t-41.5 3q-79 0 -135 -55.5t-56 -165.5v-287h543q15 0 27 -12 t12 -27v-1067q0 -171 -87 -259.5t-226 -88.5q-137 0 -226 84q-23 20 -8 47l33 53q18 30 53 2q26 -19 71 -39t79 -20q76 0 123 54.5t47 166.5v983h-441v-657q0 -15 -12 -27t-27 -12h-63q-15 0 -27 12t-12 27v657h-125q-17 0 -28 11.5t-11 27.5z" />
<glyph unicode="ffj" horiz-adv-x="1642" d="M47 735v45q0 17 11 28t28 11h125v232q0 97 29.5 172t82 120.5t119 68t144.5 22.5q148 0 264 -80q84 100 252 100q91 0 177 -32.5t128 -63.5q10 -7 12 -22t-4 -25l-33 -56q-14 -23 -53 -2q-1 1 -15.5 8.5t-24.5 12.5t-28.5 14t-35.5 14.5t-37.5 12t-42 9.5t-41.5 3 q-105 0 -148 -71t-43 -224v-213h543q15 0 27 -12t12 -27v-1067q0 -171 -87 -259.5t-226 -88.5q-137 0 -226 84q-23 20 -8 47l33 53q18 30 53 2q26 -19 71 -39t79 -20q76 0 123 54.5t47 166.5v983h-441v-657q0 -15 -12 -27t-27 -12h-63q-15 0 -27 12t-12 27v657h-420v-657 q0 -15 -12 -27t-27 -12h-63q-15 0 -27 12t-12 27v657h-125q-17 0 -28 11.5t-11 27.5zM352 819h420v242q0 118 14 170q-25 27 -83 51.5t-119 24.5q-46 0 -85.5 -13.5t-73.5 -42t-53.5 -80t-19.5 -120.5v-232z" />
<glyph unicode="fb" horiz-adv-x="1636" d="M47 735v45q0 17 11 28t28 11h125v287q0 169 95 258.5t237 89.5q48 0 92.5 -10.5t75 -26t53.5 -31t34 -26.5l11 -10l16 51q9 33 39 33h35q15 0 27 -12t12 -27v-609q9 6 27 15t75 24t117 15q174 0 283.5 -122.5t109.5 -305.5q0 -178 -108 -305t-264 -127q-43 0 -85 11 t-71 27t-51.5 32t-33.5 27l-11 11q-1 -5 -4.5 -21t-6 -24.5t-7 -20t-12 -17t-17.5 -5.5h-43q-15 0 -27 12t-12 27v1149q-4 5 -10.5 14t-30.5 31t-50 39t-67.5 31t-85.5 14q-37 0 -71 -11t-64 -34.5t-48 -66t-18 -99.5v-287h238q17 0 28 -11t11 -28v-45q0 -16 -11 -27.5 t-28 -11.5h-238v-657q0 -15 -12 -27t-27 -12h-63q-15 0 -27 12t-12 27v657h-125q-17 0 -28 11.5t-11 27.5zM940 244q3 -5 9 -14.5t27 -32.5t45 -41t62.5 -32.5t79.5 -14.5q109 0 176.5 88t67.5 213q0 126 -72.5 209t-195.5 83q-50 0 -100 -12t-75 -24l-24 -13v-409z" />
<glyph unicode="ffk" horiz-adv-x="2127" d="M47 735v45q0 17 11 28t28 11h125v232q0 99 30.5 174t83.5 120t119 67t142 22q148 0 264 -80q84 100 258 100q46 0 90.5 -10.5t74 -26t52.5 -31t34 -26.5l11 -10l16 51q9 33 39 33h35q15 0 27 -12t12 -27v-887l356 287q28 24 50 24h102q24 0 27.5 -21t-9.5 -30l-378 -309 l442 -408q14 -11 8.5 -31t-29.5 -20h-112q-20 0 -41 16l-416 396v-373q0 -15 -12 -27t-27 -12h-63q-15 0 -27 12t-12 27v1149q-4 5 -10.5 14t-30.5 31t-50 39t-67.5 31t-85.5 14q-37 0 -71 -11t-64 -34.5t-48 -66t-18 -99.5v-287h238q17 0 28 -11t11 -28v-45 q0 -16 -11 -27.5t-28 -11.5h-238v-657q0 -15 -12 -27t-27 -12h-63q-15 0 -27 12t-12 27v657h-420v-657q0 -15 -12 -27t-27 -12h-63q-15 0 -27 12t-12 27v657h-125q-17 0 -28 11.5t-11 27.5zM352 819h420v287q0 73 14 125q-25 27 -83 51.5t-119 24.5q-46 0 -85.5 -13.5 t-73.5 -42t-53.5 -80t-19.5 -120.5v-232z" />
<glyph unicode="fh" horiz-adv-x="1667" d="M47 735v45q0 17 11 28t28 11h125v287q0 169 95 258.5t237 89.5q48 0 92.5 -10.5t75 -26t53.5 -31t34 -26.5l11 -10l16 51q9 33 39 33h35q15 0 27 -12t12 -27v-664q4 4 12.5 11.5t36 26.5t57.5 33t76 26t92 12q172 0 245 -109t73 -332v-360q0 -15 -12 -27t-27 -12h-66 q-15 0 -27 12t-12 27v432q0 115 -48 173t-136 58q-43 0 -86 -12t-74 -28.5t-55.5 -34t-36.5 -28.5l-12 -11v-78v-471q0 -15 -12 -27t-27 -12h-63q-15 0 -27 12t-12 27v1149q-4 5 -10.5 14t-30.5 31t-50 39t-67.5 31t-85.5 14q-37 0 -71 -11t-64 -34.5t-48 -66t-18 -99.5 v-287h238q17 0 28 -11t11 -28v-45q0 -16 -11 -27.5t-28 -11.5h-238v-657q0 -15 -12 -27t-27 -12h-63q-15 0 -27 12t-12 27v657h-125q-17 0 -28 11.5t-11 27.5z" />
<glyph unicode="ffb" horiz-adv-x="2197" d="M47 735v45q0 17 11 28t28 11h125v232q0 99 30.5 174t83.5 120t119 67t142 22q148 0 264 -80q84 100 258 100q46 0 90.5 -10.5t74 -26t52.5 -31t34 -26.5l11 -10l16 51q9 33 39 33h35q15 0 27 -12t12 -27v-609q9 6 27 15t75 24t117 15q174 0 283.5 -122.5t109.5 -305.5 q0 -178 -108 -305t-264 -127q-43 0 -85 11t-71 27t-51.5 32t-33.5 27l-11 11q-1 -5 -4.5 -21t-6 -24.5t-7 -20t-12 -17t-17.5 -5.5h-43q-15 0 -27 12t-12 27v1149q-4 5 -10.5 14t-30.5 31t-50 39t-67.5 31t-85.5 14q-37 0 -71 -11t-64 -34.5t-48 -66t-18 -99.5v-287h238 q17 0 28 -11t11 -28v-45q0 -16 -11 -27.5t-28 -11.5h-238v-657q0 -15 -12 -27t-27 -12h-63q-15 0 -27 12t-12 27v657h-420v-657q0 -15 -12 -27t-27 -12h-63q-15 0 -27 12t-12 27v657h-125q-17 0 -28 11.5t-11 27.5zM352 819h420v287q0 73 14 125q-25 27 -83 51.5t-119 24.5 q-46 0 -85.5 -13.5t-73.5 -42t-53.5 -80t-19.5 -120.5v-232zM1501 244q3 -5 9 -14.5t27 -32.5t45 -41t62.5 -32.5t79.5 -14.5q109 0 176.5 88t67.5 213q0 126 -72.5 209t-195.5 83q-50 0 -100 -12t-74 -24l-25 -13v-409z" />
<glyph unicode=" "  horiz-adv-x="454" />
<glyph unicode="&#x09;" horiz-adv-x="454" />
<glyph unicode="&#xa0;" horiz-adv-x="454" />
<glyph unicode="!" horiz-adv-x="610" d="M188 96q0 49 34.5 83t82.5 34q49 0 83 -33.5t34 -83.5q0 -48 -34 -82t-83 -34q-47 0 -82 34.5t-35 81.5zM215 1161v234q0 15 12 27t27 12h102q15 0 27 -12t12 -27v-230l-39 -575q-2 -12 -14 -22.5t-25 -10.5h-24q-13 0 -25 10.5t-14 22.5z" />
<glyph unicode="&#x22;" horiz-adv-x="628" d="M100 1065v330q0 15 12 27t27 12h70q21 0 32 -15.5t5 -36.5l-58 -325q-3 -12 -14 -21.5t-22 -9.5h-13q-15 0 -27 12t-12 27zM410 1065v330q0 15 12 27t27 12h69q21 0 32 -15.5t5 -36.5l-57 -325q-3 -12 -14.5 -21.5t-22.5 -9.5h-12q-15 0 -27 12t-12 27z" />
<glyph unicode="#" horiz-adv-x="1110" d="M86 438v15q0 17 11 28t28 11h158l49 350h-148q-15 0 -27 12t-12 27v14q0 15 12 27t27 12h160l66 467q2 12 12.5 22.5t23.5 10.5h15q18 0 29 -13.5t8 -31.5l-62 -455h309l64 467q2 12 14 22.5t25 10.5h12q19 0 30.5 -13t8.5 -32l-61 -455h143q17 0 28 -11.5t11 -27.5v-14 q0 -16 -9.5 -27.5t-25.5 -11.5h-160l-49 -350h146q16 0 27.5 -11t11.5 -28v-15q0 -15 -10 -27t-25 -12h-164l-53 -366q-2 -14 -13 -23.5t-26 -9.5h-13q-19 0 -30 13t-9 32l54 354h-314l-51 -366q-1 -13 -13 -23t-26 -10h-12q-20 0 -31 13t-8 32l51 354h-143q-17 0 -28 11.5 t-11 27.5zM373 492h313l47 350h-309z" />
<glyph unicode="$" horiz-adv-x="1073" d="M94.5 190q2.5 11 11.5 25q5 6 18.5 23.5t20.5 24.5t18 15.5t22.5 6.5t23.5 -13q11 -11 30 -26.5t58.5 -43.5t93.5 -50.5t109 -30.5v532q-87 35 -149 68t-114 76t-82 97.5t-40 121.5q-4 23 -4 74q0 41 13 85.5t43.5 91.5t74 85.5t110.5 65.5t148 34v66q0 17 11.5 27.5 t27.5 10.5h14q15 0 26 -10.5t11 -27.5v-66q79 -6 156 -31.5t114 -48.5l37 -22q8 -4 14 -12t8.5 -23.5t-10.5 -34.5q-4 -6 -12 -18.5t-11 -17t-9.5 -13t-10.5 -11t-10.5 -6t-12 -2.5t-13.5 3.5t-17 7.5q-1 0 -17 9.5t-36 20.5t-47 23t-59.5 22.5t-63.5 14.5l-2 -531 q81 -34 138.5 -64.5t110.5 -69.5t85.5 -81.5t51.5 -97.5t19 -121q0 -149 -119 -252t-286 -114v-213q0 -18 -13 -27.5t-32 -9.5q-17 0 -30 10t-13 27v213q-75 6 -144.5 28.5t-119.5 52.5t-75 48t-42 34q-9 8 -12.5 12t-9 13t-3 20zM262 1092q0 -91 59.5 -155t178.5 -118v496 q-62 -6 -110 -30.5t-74.5 -58t-40 -68t-13.5 -66.5zM588 119q102 9 171.5 73.5t69.5 149.5q0 84 -58.5 146.5t-182.5 123.5v-493z" />
<glyph unicode="%" horiz-adv-x="1382" d="M72 1180q0 116 80 196t196 80q114 0 195.5 -80.5t81.5 -195.5t-81.5 -196t-195.5 -81q-115 0 -195.5 80.5t-80.5 196.5zM188 1180q0 -68 46 -114t114 -46q64 0 110 46.5t46 113.5q0 63 -46.5 109t-109.5 46q-67 0 -113.5 -45.5t-46.5 -109.5zM262 55l703 1358 q12 21 34 21h33q23 0 34.5 -18t0.5 -38l-707 -1358q-10 -20 -34 -20h-29q-23 0 -34 17.5t-1 37.5zM719 254q0 116 80.5 196t195.5 80q114 0 195.5 -80.5t81.5 -195.5t-81.5 -196t-195.5 -81q-115 0 -195.5 80.5t-80.5 196.5zM836 254q0 -68 46 -114t113 -46q64 0 110 46.5 t46 113.5q0 63 -46.5 109.5t-109.5 46.5q-67 0 -113 -46t-46 -110z" />
<glyph unicode="&#x26;" horiz-adv-x="1363" d="M168 356q0 63 19.5 121t48 99.5t70 80.5t74.5 62t73 47v4l-50 53q-70 74 -108 144t-35 155q0 60 22.5 118t65.5 106.5t114.5 78t160.5 29.5q160 0 253 -91t93 -224q0 -206 -303 -394l338 -337q81 167 81 364q0 31 10.5 39t37.5 8h49q7 0 12.5 -1t9.5 -3.5t7 -4t5 -6 t3 -6.5t1.5 -7t0.5 -6.5v-6.5v-6q0 -118 -32 -238.5t-89 -222.5l196 -196q15 -16 21 -26.5t1.5 -28.5t-24.5 -40l-24 -22q-43 -40 -86 6l-174 180q-181 -204 -447 -204q-124 0 -215.5 52.5t-135.5 136.5t-44 187zM311 354q0 -106 75 -177t183 -71q103 0 193 46.5t158 128.5 l-379 397q-230 -139 -230 -324zM397 1118q-3 -61 30.5 -114t100.5 -119l45 -45q35 21 52 31.5t53 35.5t56.5 46.5t44.5 51t35 62.5t11 68q0 79 -58 138.5t-157 59.5q-98 0 -155.5 -61.5t-57.5 -153.5z" />
<glyph unicode="'" horiz-adv-x="319" d="M100 1065v330q0 15 12 27t27 12h70q21 0 32 -15.5t5 -36.5l-58 -325q-3 -12 -14 -21.5t-22 -9.5h-13q-15 0 -27 12t-12 27z" />
<glyph unicode="(" horiz-adv-x="704" d="M119 645q0 146 19.5 267.5t54.5 206.5t80 149t100.5 102t111.5 57.5t117 22.5q34 3 37 -20l4 -56q3 -13 -3 -23t-17 -12q-189 -37 -275 -211t-86 -483t86 -483t275 -211q11 -2 17 -12t3 -23l-4 -55q-3 -24 -37 -21q-61 3 -117 22.5t-111.5 57.5t-100.5 102t-80 149 t-54.5 206.5t-19.5 267.5z" />
<glyph unicode=")" horiz-adv-x="704" d="M61 -84q-3 13 3.5 23t17.5 12q189 37 274.5 210.5t85.5 483.5t-85.5 483.5t-274.5 210.5q-11 2 -17.5 12t-3.5 23l5 56q3 23 36 20q74 -4 140.5 -30t130.5 -86t110 -148.5t74.5 -227.5t28.5 -313t-28.5 -313t-74.5 -227.5t-110 -148.5t-130.5 -86t-140.5 -30 q-33 -3 -36 21z" />
<glyph unicode="*" horiz-adv-x="671" d="M73 1264q-3 16 5 28q3 4 8 11.5t8 11.5q8 12 23.5 16.5t27.5 -4.5l142 -100l-4 170q0 15 12 26t27 11h26q15 0 27 -11t12 -26l-4 -168l137 102q14 7 29 3.5t24 -15.5l15 -23q8 -13 5.5 -28.5t-15.5 -24.5l-158 -100l160 -101q13 -9 16.5 -25t-4.5 -28l-14 -22 q-9 -13 -26 -17t-30 4l-139 101l4 -166q0 -15 -12 -27t-27 -12h-26q-15 0 -27 12t-12 27l4 168l-137 -99q-12 -9 -29 -5t-25 18l-14 20q-9 14 -5.5 30.5t15.5 25.5l154 96l-158 96q-12 9 -15 25z" />
<glyph unicode="+" horiz-adv-x="1026" d="M84 682v57q0 15 12 27t27 12h321v324q0 15 12 26t27 11h58q15 0 27 -11t12 -26v-324h323q15 0 26 -12t11 -27v-57q0 -15 -11 -27t-26 -12h-323v-321q0 -15 -12 -26t-27 -11h-58q-15 0 -27 11t-12 26v321h-321q-15 0 -27 12t-12 27z" />
<glyph unicode="," horiz-adv-x="477" d="M110 -304q3 15 17 28q127 114 127 258q-8 -2 -25 -2q-47 0 -81.5 34.5t-34.5 81.5q0 49 34 83t82 34q58 0 97 -41.5t39 -142.5q0 -114 -54.5 -217.5t-117.5 -161.5q-28 -26 -50 -4l-28 28q-8 7 -5 22z" />
<glyph unicode="-" horiz-adv-x="845" d="M170 487v39q0 17 11 28t28 11h428q17 0 28 -11t11 -28v-39q0 -15 -11 -25.5t-28 -10.5h-428q-17 0 -28 10.5t-11 25.5z" />
<glyph unicode="." horiz-adv-x="462" d="M115 96q0 49 34 83t82 34q49 0 83 -33.5t34 -83.5q0 -48 -34 -82t-83 -34q-47 0 -81.5 34.5t-34.5 81.5z" />
<glyph unicode="/" horiz-adv-x="655" d="M82 51l401 1356q3 11 14 19t23 8h45q22 0 32.5 -15t4.5 -37l-399 -1355q-3 -10 -14.5 -18.5t-22.5 -8.5h-47q-21 0 -32 15t-5 36z" />
<glyph unicode="0" horiz-adv-x="1294" d="M150 696q0 338 130 527.5t367 189.5t367.5 -189.5t130.5 -527.5t-130.5 -527t-367.5 -189t-367 189t-130 527zM295 696q0 -281 91.5 -432t260.5 -151t260.5 151t91.5 432q0 279 -92 431.5t-260 152.5t-260 -152.5t-92 -431.5z" />
<glyph unicode="1" horiz-adv-x="667" d="M72 1069q-19 22 4 45l286 279h56q15 0 26 -12t11 -27v-1315q0 -15 -11 -27t-26 -12h-74q-17 0 -28 11.5t-11 27.5v1100l-147 -115q-27 -20 -47 2z" />
<glyph unicode="2" horiz-adv-x="1062" d="M86 39v61q84 90 251 271.5t251 271.5q207 226 207 371q0 47 -16 90.5t-48 83t-90 63t-133 23.5q-148 0 -291 -154q-12 -12 -27.5 -12t-27.5 12l-41 39q-10 11 -11 25.5t9 27.5q6 8 17 21.5t49.5 48.5t80.5 61.5t108 48t134 21.5q107 0 192.5 -32t139 -87t82 -125.5 t28.5 -150.5q0 -65 -18.5 -125t-58.5 -120.5t-77.5 -105.5t-101.5 -114q-66 -69 -197 -210t-196 -210h602q15 0 27 -12t12 -27v-55q0 -15 -12 -27t-27 -12h-778q-17 0 -28 11.5t-11 27.5z" />
<glyph unicode="3" horiz-adv-x="1089" d="M86 187.5q0 14.5 12 23.5l56 47q32 23 55 -10q11 -14 32 -33t59.5 -46t95.5 -45t118 -18q123 0 209 69.5t86 186.5q0 114 -92 191.5t-271 77.5h-114q-39 0 -39 45v49q0 25 9.5 35t33.5 10h113q157 0 241 70.5t84 177.5q0 118 -77.5 189t-190.5 71q-151 0 -268 -133 q-10 -12 -24 -14t-30 10l-49 39q-12 11 -11.5 26.5t11.5 26.5q6 7 17.5 19.5t49 43.5t78 54.5t102.5 43t124 19.5q188 0 305 -102.5t117 -272.5q0 -109 -65.5 -197.5t-145.5 -125.5v-6q40 -17 79.5 -45.5t78.5 -69t63.5 -98t24.5 -119.5q0 -172 -124 -284.5t-331 -112.5 q-71 0 -135.5 15t-105 33.5t-80 48.5t-55 45.5t-36.5 39.5q-10 11 -10 25.5z" />
<glyph unicode="4" horiz-adv-x="1200" d="M33 354v76l776 973q12 12 31 12h41q16 0 27.5 -11t11.5 -28l2 -936h165q17 0 28 -11t11 -26v-45q0 -16 -11 -27.5t-28 -11.5h-165v-280q0 -15 -12 -27t-27 -12h-70q-15 0 -27 12t-12 27v276h-702q-17 0 -28 11.5t-11 27.5zM205 442h577v713z" />
<glyph unicode="5" horiz-adv-x="1091" d="M115.5 187q-0.5 13 17.5 32q8 7 23.5 22.5t23.5 22.5q31 27 51 -2q12 -17 32 -37t57 -48.5t94 -47t121 -18.5q94 0 169.5 50.5t113.5 126t38 158.5q0 128 -82 211.5t-239 83.5h-312q-29 0 -46 22.5t-17 49.5v541q0 16 11 27.5t28 11.5h618q17 0 28 -11.5t11 -27.5v-60 q0 -16 -11 -27.5t-28 -11.5h-520v-376h238q229 0 351 -113.5t122 -316.5q0 -195 -136 -332t-340 -137q-253 0 -395 170q-21 24 -21.5 37z" />
<glyph unicode="6" horiz-adv-x="1112" d="M109 563q0 112 27 215.5t70 182.5t103.5 150t120.5 121t128.5 93.5t120.5 69t103 45.5q30 12 45 -21l23 -49q17 -42 -37 -59q-32 -11 -83.5 -38t-120.5 -75.5t-132 -106t-116.5 -135t-73.5 -155.5q6 4 16 10t42.5 22t67 28t85.5 22t100 10q87 0 166.5 -31.5t140 -88 t97 -141t36.5 -183.5q0 -127 -61.5 -235t-165.5 -171t-225 -63t-214 45t-149.5 125t-85 184t-28.5 229zM252.5 518q3.5 -58 14 -115t38 -109t64.5 -92t93 -63.5t124 -23.5q128 0 217.5 96t89.5 229q0 134 -90 227t-219 93q-53 0 -106 -13.5t-90.5 -33t-67.5 -39.5t-45 -34 l-15 -13q-11 -51 -7.5 -109z" />
<glyph unicode="7" horiz-adv-x="970" d="M49 1294v60q0 15 12 27t27 12h823q15 0 27 -12t12 -27v-15l-598 -1286q-24 -53 -67 -53h-60q-15 0 -27 12t-12 27v22l572 1194h-670q-15 0 -27 12t-12 27z" />
<glyph unicode="8" horiz-adv-x="1173" d="M127 375q0 62 24.5 121t64 101.5t80 72.5t79.5 47v6q-81 38 -146 122.5t-65 192.5q0 167 118.5 271t303.5 104q187 0 306.5 -103.5t119.5 -271.5q0 -108 -65 -192.5t-146 -122.5v-6q39 -17 79.5 -47t80 -72.5t64 -101.5t24.5 -121q0 -172 -126 -283.5t-339 -111.5 q-208 0 -332.5 112t-124.5 283zM281 360q0 -115 88.5 -186.5t214.5 -71.5q136 0 223.5 69.5t87.5 188.5q0 101 -83.5 182t-223.5 95q-141 -14 -224 -95t-83 -182zM315 1032q0 -100 68 -165.5t205 -78.5q136 13 204 78.5t68 165.5q0 115 -79 186.5t-201 71.5 q-112 0 -188.5 -72t-76.5 -186z" />
<glyph unicode="9" horiz-adv-x="1112" d="M74 956q0 127 61.5 235t165.5 171t225 63t214 -45t150 -125t85.5 -184t28.5 -229q0 -112 -27 -215.5t-70 -182.5t-103.5 -150t-120.5 -121t-129 -93.5t-121 -69t-103 -45.5q-30 -12 -45 21l-23 49q-17 42 37 59q32 11 83.5 38t120.5 75.5t132 106t116.5 135t73.5 155.5 q-6 -4 -16 -10t-42.5 -22t-67 -28t-85.5 -22t-100 -10q-87 0 -166.5 31.5t-140 88t-97 141t-36.5 183.5zM219 965q0 -134 90 -227t219 -93q53 0 106 13.5t90.5 33.5t67.5 39.5t45 32.5l15 14q11 51 7.5 109t-14 115t-38 109t-64.5 92t-93 63.5t-124 23.5q-128 0 -217.5 -96 t-89.5 -229z" />
<glyph unicode=":" horiz-adv-x="524" d="M145 96q0 49 34.5 83t82.5 34q50 0 83.5 -33.5t33.5 -83.5q0 -48 -34 -82t-83 -34q-47 0 -82 34.5t-35 81.5zM145 723q0 49 34.5 83t82.5 34q50 0 83.5 -34t33.5 -83q0 -48 -34 -82.5t-83 -34.5q-47 0 -82 35t-35 82z" />
<glyph unicode=";" horiz-adv-x="530" d="M140.5 -304q3.5 15 17.5 28q127 114 127 258q-8 -2 -25 -2q-47 0 -82 34.5t-35 81.5q0 49 34.5 83t82.5 34q58 0 96.5 -41.5t38.5 -142.5q0 -114 -54.5 -217.5t-117.5 -161.5q-28 -25 -49 -4l-29 28q-8 7 -4.5 22zM143 723q0 49 34.5 83t82.5 34q50 0 83.5 -34t33.5 -83 q0 -48 -34 -82.5t-83 -34.5q-47 0 -82 35t-35 82z" />
<glyph unicode="&#x3c;" horiz-adv-x="899" d="M51 465v10q0 9 6.5 19.5t14.5 15.5l696 434q20 12 38.5 2t18.5 -35v-73q0 -25 -22 -39l-535 -328l535 -315q22 -13 22 -39v-74q0 -25 -18.5 -35t-38.5 2l-696 420q-8 5 -14.5 15.5t-6.5 19.5z" />
<glyph unicode="=" horiz-adv-x="1044" d="M176 326v63q0 16 11 27.5t28 11.5h612q17 0 28 -11.5t11 -27.5v-63q0 -16 -11 -27.5t-28 -11.5h-612q-17 0 -28 11.5t-11 27.5zM176 758v61q0 16 11 27.5t28 11.5h612q17 0 28 -11.5t11 -27.5v-61q0 -16 -11 -27.5t-28 -11.5h-612q-17 0 -28 11.5t-11 27.5z" />
<glyph unicode="&#x3e;" horiz-adv-x="899" d="M74 43v74q0 28 22 39l535 315l-535 328q-22 15 -22 39v73q0 25 18.5 35t38.5 -2l696 -434q8 -5 14.5 -15.5t6.5 -19.5v-10q0 -9 -6.5 -19.5t-14.5 -15.5l-696 -420q-20 -12 -38.5 -2t-18.5 35z" />
<glyph unicode="?" horiz-adv-x="944" d="M102 1221q-24 21 0 53q5 7 14.5 19.5t43.5 43.5t73.5 54.5t105.5 43t138 19.5q160 0 258.5 -86t98.5 -227q0 -63 -24 -115.5t-60 -85.5t-78 -66t-78 -58t-60 -60t-24 -74v-84q0 -20 -13 -30.5t-30 -10.5h-55q-16 0 -27.5 11t-11.5 28v86q0 51 17 93t44 70.5t59.5 53 t65.5 48.5t60 50.5t44 64.5t17 85q0 76 -53.5 128t-149.5 52q-27 0 -51.5 -3t-46.5 -10t-39.5 -13t-35.5 -18t-29 -19t-26 -21.5t-20.5 -19.5t-19 -19.5t-14.5 -15.5q-26 -26 -54 -2zM319 96q0 49 34.5 83t82.5 34q50 0 83.5 -33.5t33.5 -83.5q0 -48 -34 -82t-83 -34 q-47 0 -82 34.5t-35 81.5z" />
<glyph unicode="@" horiz-adv-x="2009" d="M88 457q0 217 67 401t188 316t298 206t389 74q202 0 366 -65.5t272.5 -181.5t167 -274t58.5 -343q0 -85 -13 -167t-45 -164t-79 -142.5t-122.5 -98.5t-168.5 -38q-99 0 -157.5 44t-77.5 115h-17q-35 -69 -102 -114t-156 -45q-157 0 -257.5 119t-100.5 313 q0 200 101.5 314t263.5 114q46 0 87 -11t67 -27t45 -32.5t28 -27.5l8 -11q2 7 5.5 22.5t5 20.5t5 15.5t7.5 13.5t10.5 8t15.5 6.5t21 1.5h20q15 0 27 -12t12 -27v-436q0 -97 18.5 -153t49.5 -76.5t80 -20.5q124 0 208 133.5t84 362.5q0 127 -29.5 239.5t-90.5 206 t-148.5 161t-208 105t-264.5 37.5q-371 0 -590 -237t-219 -645q0 -281 147 -487t394 -312q22 -10 25 -20t-7 -31l-22 -56q-13 -29 -41 -16q-284 120 -454.5 360t-170.5 562zM729 410q0 -138 69.5 -216.5t170.5 -78.5q93 0 147 55t74 137v291q-3 5 -8.5 12.5t-25 27.5 t-42.5 35t-61.5 27.5t-81.5 12.5q-107 0 -174.5 -80t-67.5 -223z" />
<glyph unicode="A" horiz-adv-x="1357" d="M12 53l623 1379q11 22 35 22h20q24 0 35 -22l618 -1379q4 -10 4 -19q0 -10 -5 -18q-10 -16 -33 -16h-82q-26 0 -35 23l-152 337h-727l-149 -337q-9 -23 -35 -23h-82q-23 0 -33 16q-6 9 -6 19q0 9 4 18zM371 487h614q-50 111 -149.5 336t-149.5 336h-16z" />
<glyph unicode="B" horiz-adv-x="1280" d="M209 39v1356q0 16 11 27.5t28 11.5h448q186 0 303 -107t117 -270q0 -109 -59 -195t-142 -133q45 -19 85 -46t78 -66.5t60.5 -97t22.5 -124.5q0 -173 -124.5 -284t-321.5 -111h-467q-17 0 -28 11.5t-11 27.5zM358 137h373q112 0 185 74.5t73 185.5q0 107 -85.5 179.5 t-207.5 72.5h-338v-512zM362 791h334q115 0 180.5 72.5t65.5 183.5q0 112 -64.5 178.5t-181.5 66.5h-334v-501z" />
<glyph unicode="C" horiz-adv-x="1447" d="M104 715q0 202 99 372t269 268.5t372 98.5q149 0 267 -48t228 -142q12 -12 13 -29t-11 -29l-55 -55q-23 -28 -53 2q-81 71 -185 112.5t-206 41.5q-119 0 -225.5 -48t-182 -128t-120 -188.5t-44.5 -225.5q0 -156 74.5 -291t207 -216t290.5 -81q64 0 119 11.5t104.5 36 t83.5 46.5t84 60q26 21 49 6l61 -56q10 -9 10 -24q0 -19 -12 -31q-204 -198 -497 -198q-202 0 -372 97.5t-269 266.5t-99 371z" />
<glyph unicode="D" horiz-adv-x="1529" d="M209 39v1356q0 15 11 27t26 12h459q145 0 278 -57t229.5 -153t153.5 -228t57 -277q0 -146 -57 -279.5t-153.5 -229.5t-229 -153t-278.5 -57h-459q-15 0 -26 12t-11 27zM365 141h307q252 0 415.5 162.5t163.5 415.5q0 252 -163.5 413.5t-415.5 161.5h-307v-1153z" />
<glyph unicode="E" horiz-adv-x="1212" d="M209 39v1356q0 16 11 27.5t28 11.5h807q17 0 28 -11.5t11 -27.5v-60q0 -16 -11 -27.5t-28 -11.5h-688v-499h587q15 0 27 -12t12 -27v-60q0 -17 -11.5 -28t-27.5 -11h-587v-522h688q17 0 28 -11.5t11 -27.5v-59q0 -16 -11 -27.5t-28 -11.5h-807q-17 0 -28 11.5t-11 27.5z " />
<glyph unicode="F" horiz-adv-x="1165" d="M209 39v1356q0 16 11 27.5t28 11.5h807q17 0 28 -11.5t11 -27.5v-60q0 -16 -11 -27.5t-28 -11.5h-688v-561h587q15 0 27 -12t12 -27v-59q0 -15 -12 -27t-27 -12h-587v-559q0 -15 -12 -27t-27 -12h-80q-17 0 -28 11.5t-11 27.5z" />
<glyph unicode="G" horiz-adv-x="1499" d="M104 715q0 202 99 372t269 268.5t372 98.5q149 0 267 -48t228 -142q12 -12 13 -29t-11 -29l-57 -57q-14 -15 -24.5 -14t-28.5 16q-81 71 -185 115.5t-204 44.5q-119 0 -225.5 -47.5t-181.5 -127.5t-119 -188t-44 -225q0 -156 74 -292t206 -218t290 -82q100 0 192 21.5 t134 43.5l42 21v287h-235q-17 0 -28 11t-11 26v75q0 17 11 28t28 11h354q15 0 26 -12t11 -27v-469q0 -20 -16 -32q-9 -5 -24.5 -14.5t-67.5 -32.5t-107.5 -41t-139.5 -32.5t-167 -14.5q-202 0 -372 97.5t-269 266.5t-99 371z" />
<glyph unicode="H" horiz-adv-x="1564" d="M209 39v1356q0 15 12 27t27 12h80q17 0 28 -11.5t11 -27.5v-598h831v598q0 16 11 27.5t28 11.5h80q15 0 27 -12t12 -27v-1356q0 -15 -12 -27t-27 -12h-80q-17 0 -28 11.5t-11 27.5v620h-831v-620q0 -16 -11 -27.5t-28 -11.5h-80q-15 0 -27 12t-12 27z" />
<glyph unicode="I" horiz-adv-x="577" d="M209 39v1356q0 15 12 27t27 12h82q15 0 27 -12t12 -27v-1356q0 -15 -12 -27t-27 -12h-82q-15 0 -27 12t-12 27z" />
<glyph unicode="J" horiz-adv-x="829" d="M-41 131q-8 12 -8 24q0 14 12 27l43 49q16 15 29 17t21 -3.5t20 -19.5q97 -108 198 -108q48 0 91.5 18t79.5 53.5t57.5 96.5t21.5 139v971q0 16 11 27.5t28 11.5h80q17 0 28 -11.5t11 -27.5v-967q0 -210 -114 -329t-298 -119q-188 0 -311 151z" />
<glyph unicode="K" horiz-adv-x="1265" d="M209 49v1335q0 21 14 35.5t35 14.5h59q20 0 35 -15t15 -35v-579l639 608q17 21 38 21h101q29 0 38.5 -24.5t-14.5 -47.5l-647 -604l678 -695q8 -12 8 -26q0 -12 -10 -24q-12 -13 -33 -13h-104q-10 0 -22 4.5t-15 9.5l-657 686v-651q0 -20 -15 -34.5t-35 -14.5h-59 q-21 0 -35 14t-14 35z" />
<glyph unicode="L" horiz-adv-x="1005" d="M209 39v1356q0 16 11 27.5t28 11.5h80q15 0 27 -12t12 -27v-1258h589q17 0 28 -11.5t11 -27.5v-59q0 -16 -11 -27.5t-28 -11.5h-708q-17 0 -28 11.5t-11 27.5z" />
<glyph unicode="M" horiz-adv-x="1765" d="M106 49l265 1376q3 12 14 20.5t23 8.5h32q11 0 21.5 -6.5t13.5 -15.5l406 -1129h10l399 1129q3 9 13.5 15.5t21.5 6.5h33q12 0 23 -8.5t14 -20.5l264 -1376q2 -8 2 -14q-1 -11 -7 -21q-10 -14 -32 -14h-82q-12 0 -23 9t-14 20l-182 1054h-8l-377 -1081q-3 -9 -14 -15.5 t-21 -6.5h-37q-10 0 -21 6.5t-14 15.5l-380 1081h-9l-178 -1054q-2 -11 -13.5 -20t-23.5 -9h-82q-23 0 -33 14q-6 9 -6 21q0 6 2 14z" />
<glyph unicode="N" horiz-adv-x="1585" d="M209 39v1378q0 15 12 26t27 11h51l924 -1151h4v1092q0 16 11 27.5t28 11.5h71q15 0 27 -12t12 -27v-1379q0 -15 -12 -25.5t-27 -10.5h-37l-940 1173h-2v-1114q0 -16 -11 -27.5t-28 -11.5h-71q-15 0 -27 12t-12 27z" />
<glyph unicode="O" horiz-adv-x="1681" d="M104 715q0 151 58 288t156 236t234.5 157t287.5 58t287.5 -58t235 -157t156.5 -236t58 -288t-58 -287.5t-156.5 -234.5t-235 -155.5t-287.5 -57.5q-202 0 -371 97.5t-267 266.5t-98 371zM248 715q0 -160 79.5 -296.5t216 -216t296.5 -79.5t297 79.5t217 216t80 296.5 t-80 297.5t-217 218t-297 80.5t-296.5 -80.5t-216 -218t-79.5 -297.5z" />
<glyph unicode="P" horiz-adv-x="1220" d="M209 39v1356q0 16 11 27.5t28 11.5h452q189 0 324 -133.5t135 -319.5q0 -190 -134.5 -325.5t-322.5 -135.5h-337v-481q0 -15 -12 -27t-27 -12h-78q-17 0 -28 11.5t-11 27.5zM365 672h325q127 0 219 91t92 222q0 123 -92 208t-219 85h-325v-606z" />
<glyph unicode="Q" horiz-adv-x="1683" d="M104 715q0 151 58 288t156 236t234.5 157t287.5 58t287.5 -58t235 -157t156.5 -236t58 -288q0 -224 -119.5 -405t-316.5 -269l239 -385q14 -22 3.5 -42t-35.5 -20h-103q-21 0 -33 21l-223 377q-67 -12 -149 -12q-202 0 -371 97.5t-267 266.5t-98 371zM248 715 q0 -160 79.5 -296.5t216 -216t296.5 -79.5t297 79.5t217 216t80 296.5t-80 297.5t-217 218t-297 80.5t-296.5 -80.5t-216 -218t-79.5 -297.5z" />
<glyph unicode="R" horiz-adv-x="1353" d="M209 39v1356q0 16 11 27.5t28 11.5h530q185 0 316 -127.5t131 -309.5q0 -138 -83.5 -250t-219.5 -167l280 -521q11 -20 0.5 -39.5t-35.5 -19.5h-104q-24 0 -33 18l-272 543h-391v-522q0 -15 -12 -27t-27 -12h-80q-17 0 -28 11.5t-11 27.5zM371 696h397q120 0 207.5 87 t87.5 212q0 117 -88 203t-207 86h-397v-588z" />
<glyph unicode="S" horiz-adv-x="1091" d="M106 184q0 14 11 31q5 6 15 19.5t15 19.5q22 30 44 30l28 -12q181 -155 346 -155q121 0 198 66t77 159q0 101 -85.5 173.5t-273.5 150.5q-93 41 -152.5 76t-110.5 84.5t-74 114t-23 149.5q0 44 13.5 91t46.5 97t81 88.5t125 63t170 24.5q89 0 176.5 -26t130.5 -52l43 -26 q8 -4 14.5 -12t9 -23.5t-10.5 -34.5q-4 -6 -12.5 -19.5t-12.5 -19.5q-17 -27 -41 -27q-14 0 -31 9l-10 6l-20 12t-27.5 15t-34.5 17t-39.5 16.5t-44 14t-45.5 9.5t-47 4q-77 0 -135 -22.5t-88.5 -58.5t-45 -72.5t-14.5 -71.5q0 -97 69 -164t208 -125q92 -38 154.5 -68.5 t124 -71.5t97 -85t57.5 -102t22 -128q0 -157 -130 -262.5t-313 -105.5q-84 0 -163.5 21t-136 53.5t-85 53t-47.5 37.5q-12 10 -17 16q-6 7 -6 23z" />
<glyph unicode="T" horiz-adv-x="978" d="M16 1335v60q0 16 11 27.5t28 11.5h869q17 0 28 -11.5t11 -27.5v-60q0 -16 -11 -27.5t-28 -11.5h-357v-1257q0 -15 -12 -27t-27 -12h-77q-15 0 -27 12t-12 27v1257h-357q-17 0 -28 11.5t-11 27.5z" />
<glyph unicode="U" horiz-adv-x="1466" d="M190 528v867q0 15 12 27t27 12h78q17 0 28 -11.5t11 -27.5v-854q0 -180 104.5 -298t280.5 -118q178 0 283.5 116.5t105.5 295.5v858q0 16 11 27.5t28 11.5h78q15 0 27 -12t12 -27v-867q0 -236 -152.5 -392t-392.5 -156q-158 0 -282 72t-191.5 196.5t-67.5 279.5z" />
<glyph unicode="V" horiz-adv-x="1359" d="M14 1380q-4 9 -4 18q0 10 6 19q10 17 33 17h82q26 0 35 -23l510 -1147h8l510 1147q3 8 13.5 15.5t21.5 7.5h82q23 0 33 -17q6 -9 6 -19q0 -9 -4 -18l-623 -1378q-11 -22 -35 -22h-20q-24 0 -35 22z" />
<glyph unicode="W" horiz-adv-x="1847" d="M76 1384q-2 8 -2 15q0 12 6 21q10 14 33 14h86q12 0 23 -9t14 -20l284 -1061h8l342 1088q7 22 35 22h37q12 0 22 -6.5t13 -15.5l348 -1088h8l279 1061q3 11 14 20t23 9h86q23 0 33 -14q7 -9 6 -21q0 -7 -2 -15l-388 -1376q-3 -12 -13.5 -20t-22.5 -8h-33q-24 0 -35 22 l-354 1108h-11l-348 -1108q-11 -22 -35 -22h-32q-12 0 -23 8t-14 20z" />
<glyph unicode="X" horiz-adv-x="1193" d="M80 18q-5 9 -5 18q0 10 7 21l416 678l-400 641q-12 20 -1.5 39t36.5 19h111q24 0 35 -19l315 -543h2l319 543q11 19 35 19h111q26 0 36.5 -19t-1.5 -39l-400 -641l414 -678q6 -12 6 -22q0 -9 -4 -17q-10 -18 -37 -18h-94q-26 0 -35 18l-350 580h-2l-346 -580 q-11 -18 -35 -18h-94q-27 0 -39 18z" />
<glyph unicode="Y" horiz-adv-x="1157" d="M2 1414q11 20 35 20h96q19 0 33 -19l414 -571l413 571q14 19 33 19h96q24 0 34 -20q5 -9 5 -19t-6 -21l-500 -682v-653q0 -15 -12 -27t-27 -12h-79q-17 0 -28 11.5t-11 27.5v651l-494 684q-6 11 -6 21t4 19z" />
<glyph unicode="Z" horiz-adv-x="1093" d="M61 39v37l744 1208v6h-645q-15 0 -27 12t-12 27v66q0 15 12 27t27 12h829q15 0 27 -12t12 -27v-27l-756 -1223v-2h676q17 0 28 -11.5t11 -27.5v-65q0 -16 -11 -27.5t-28 -11.5h-848q-15 0 -27 12t-12 27z" />
<glyph unicode="[" horiz-adv-x="669" d="M160 -575v1970q0 15 12 27t27 12h381q15 0 26.5 -12t11.5 -27v-52q0 -17 -11 -27.5t-27 -10.5h-281v-1790h281q15 0 26.5 -11t11.5 -26v-53q0 -15 -11.5 -27t-26.5 -12h-381q-15 0 -27 12t-12 27z" />
<glyph unicode="\" horiz-adv-x="675" d="M53 1382q-6 22 4.5 37t32.5 15h66q12 0 23 -8t14 -19l401 -1356q6 -21 -5 -36t-32 -15h-68q-11 0 -22 8.5t-14 18.5z" />
<glyph unicode="]" horiz-adv-x="669" d="M51 -522q0 15 12 26t27 11h281v1790h-281q-16 0 -27.5 10.5t-11.5 27.5v52q0 15 12 27t27 12h381q15 0 27 -12t12 -27v-1970q0 -15 -12 -27t-27 -12h-381q-15 0 -27 12t-12 27v53z" />
<glyph unicode="^" horiz-adv-x="1073" d="M88 833.5q-10 18.5 2 38.5l412 570q5 8 15.5 14t19.5 6h10q9 0 19.5 -6t15.5 -14l401 -570q12 -20 2 -38.5t-35 -18.5h-67q-25 0 -39 23l-305 432l-310 -432q-16 -23 -39 -23h-67q-25 0 -35 18.5z" />
<glyph unicode="_" horiz-adv-x="792" d="M51 -59q0 17 11 28t28 11h612q17 0 28 -11t11 -28v-33q0 -15 -11 -26t-28 -11h-612q-17 0 -28 11t-11 26v33z" />
<glyph unicode="`" horiz-adv-x="618" d="M140.5 1299.5q-3.5 13.5 2.5 25.5l37 74q7 12 26 12.5t27 -6.5l308 -172q10 -5 13.5 -16t-1.5 -23l-21 -45q-6 -12 -15.5 -12.5t-31.5 8.5l-329 137q-12 4 -15.5 17.5z" />
<glyph unicode="a" horiz-adv-x="860" d="M86 248q0 120 87 196t241 76q39 0 82.5 -6.5t67.5 -13.5l24 -6v17q0 109 -24 155q-26 50 -109 49q-127 0 -246 -45q-29 -11 -39 20l-16 51q-10 31 22 45q13 6 44.5 17t101.5 24t139 13q151 0 205.5 -79t54.5 -267v-455q0 -15 -12 -27t-27 -12h-39q-16 0 -23 7.5t-12 23.5 l-16 55q-106 -106 -254 -106q-109 0 -180.5 73.5t-71.5 194.5zM217 248q0 -63 39 -104.5t104 -41.5q71 0 133.5 35.5t92.5 79.5v162q-59 33 -172 33q-89 0 -143 -43t-54 -121z" />
<glyph unicode="b" d="M147 39v1356q0 15 12 27t27 12h64q15 0 27 -12t12 -27v-609q9 6 27 15t75 24t117 15q180 0 286.5 -121.5t106.5 -306.5q0 -178 -108.5 -305t-264.5 -127q-43 0 -85 11t-71 27t-51.5 32t-33.5 27l-11 11l-12 -55q-3 -14 -12.5 -23.5t-22.5 -9.5h-43q-15 0 -27 12t-12 27z M291 244q3 -5 9 -14.5t27 -32.5t45 -41t62.5 -32.5t79.5 -14.5q109 0 176.5 88t67.5 213q0 128 -70 210t-199 82q-50 0 -99.5 -12t-73.5 -24l-25 -13v-409z" />
<glyph unicode="c" horiz-adv-x="903" d="M84 408q0 118 59 218t156 157t207 57q180 0 293 -144q10 -14 8 -30t-16 -27l-39 -33q-9 -8 -16 -12t-14 -2t-9.5 3.5t-11 9.5t-9.5 9q-75 86 -188 86q-116 0 -194.5 -83.5t-78.5 -206.5q0 -124 78 -209.5t193 -85.5q26 0 48 3t41.5 11t32 13t29.5 19t23.5 19t23 21.5 l19.5 19.5q21 18 31.5 17.5t29.5 -13.5l23 -16q15 -11 19 -27q1 -5 1 -9q0 -11 -6 -21q-48 -77 -130.5 -124.5t-182.5 -47.5q-173 0 -296.5 123t-123.5 305z" />
<glyph unicode="d" d="M86 412q0 185 106.5 306.5t286.5 121.5q60 0 114.5 -13.5t79.5 -26.5l25 -14v609q0 15 12 27t27 12h64q15 0 27 -12t12 -27v-1356q0 -15 -12 -27t-27 -12h-43q-13 0 -22.5 9.5t-12.5 23.5l-12 55l-11.5 -11.5t-32.5 -26t-52.5 -33t-70 -26t-85.5 -11.5q-156 0 -264.5 127 t-108.5 305zM229 410q0 -125 67.5 -213t176.5 -88q41 0 79 14t63 33.5t44.5 39.5t28.5 34l8 14v409l-27 13.5t-69 22t-102 13.5q-129 0 -199 -82t-70 -210z" />
<glyph unicode="e" horiz-adv-x="935" d="M86 410q0 180 110.5 305t290.5 125q161 0 266 -106.5t105 -268.5q0 -27 -4 -55q-1 -15 -12 -25t-25 -10h-590q6 -105 87 -185.5t188 -80.5q104 0 203 61q3 2 10 5.5t9 5t7 4t7.5 2.5h6t6 -1.5t5.5 -4.5t6 -7q6 -8 17.5 -23.5t17.5 -23.5q13 -12 12.5 -24.5t-21.5 -28.5 q-45 -36 -125.5 -65t-175.5 -29q-181 0 -291 124t-110 306zM229 489h488q-5 91 -71.5 158.5t-158.5 67.5q-102 0 -174.5 -65t-83.5 -161z" />
<glyph unicode="f" horiz-adv-x="655" d="M47 735v45q0 17 11 28t28 11h125v287q0 171 87 259.5t226 88.5q137 0 226 -84q14 -12 14 -27q0 -9 -6 -20l-33 -53q-18 -30 -53 -2q-80 59 -150 59q-76 0 -123 -54.5t-47 -166.5v-287h238q17 0 28 -11t11 -28v-45q0 -16 -11 -27.5t-28 -11.5h-238v-657q0 -15 -12 -27 t-27 -12h-63q-15 0 -27 12t-12 27v657h-125q-17 0 -28 11.5t-11 27.5z" />
<glyph unicode="g" horiz-adv-x="940" d="M63 39q0 44 14 84t34.5 66.5t41 46.5t34.5 29l14 9q-7 9 -18 26.5t-29.5 71t-18.5 107.5q0 148 95.5 254.5t250.5 106.5h346q17 0 28 -11t11 -28v-35q0 -12 -6 -23t-16 -12l-111 -22q4 -3 10 -8.5t22 -26t28 -44.5t22 -65t10 -86q0 -144 -95 -246t-249 -102 q-58 0 -106.5 12.5t-68.5 25.5l-19 13l-10 -5t-21.5 -14.5t-27.5 -24.5t-21.5 -34.5t-9.5 -44.5q0 -41 29 -70.5t83 -29.5h295q136 0 221.5 -67t85.5 -195q0 -132 -121.5 -232t-302.5 -100q-99 0 -176.5 25t-123.5 66.5t-69.5 90.5t-23.5 101q0 119 119 190v6 q-54 14 -102 62.5t-48 132.5zM240 -332q0 -73 70 -121.5t175 -48.5q107 0 191 55t84 140q0 15 -5 33t-19 43t-48 41t-84 16h-227l-15 -5t-32.5 -16t-41.5 -29t-33 -45t-15 -63zM268 483q0 -101 60.5 -165t154.5 -64q92 0 148.5 63.5t56.5 165.5t-56.5 166t-148.5 64 q-94 0 -154.5 -64.5t-60.5 -165.5z" />
<glyph unicode="h" horiz-adv-x="1015" d="M147 39v1356q0 15 12 27t27 12h64q15 0 27 -12t12 -27v-664q4 4 12.5 11.5t36 26.5t57.5 33t76 26t92 12q153 0 235.5 -95t82.5 -274v-432q0 -15 -12 -27t-27 -12h-66q-15 0 -27 12t-12 27v432q0 115 -48 173t-136 58q-44 0 -87 -11.5t-73.5 -28.5t-55 -34t-36.5 -28 l-12 -12v-549q0 -15 -12 -27t-27 -12h-64q-15 0 -27 12t-12 27z" />
<glyph unicode="i" horiz-adv-x="432" d="M117 1294q0 41 28 70t68 29q41 0 69.5 -29t28.5 -70q0 -40 -28.5 -68t-69.5 -28q-40 0 -68 28t-28 68zM145 39v741q0 15 12 27t27 12h64q15 0 27 -12t12 -27v-741q0 -15 -12 -27t-27 -12h-64q-15 0 -27 12t-12 27z" />
<glyph unicode="j" horiz-adv-x="436" d="M-258 -504l33 53q18 30 53 2q26 -20 70.5 -39.5t78.5 -19.5q76 0 123 54.5t47 166.5v1067q0 17 11.5 28t27.5 11h64q16 0 27.5 -11t11.5 -28v-1067q0 -171 -87.5 -259.5t-226.5 -88.5q-136 0 -225 84q-14 12 -14 27q0 9 6 20zM121 1294q0 41 28 70t68 29q41 0 69.5 -29 t28.5 -70q0 -40 -28.5 -68t-69.5 -28q-40 0 -68 28t-28 68z" />
<glyph unicode="k" horiz-adv-x="917" d="M147 39v1356q0 15 12 27t27 12h64q15 0 27 -12t12 -27v-887l348 287q27 24 49 24h111q24 0 27.5 -21t-9.5 -30l-389 -311l453 -406q10 -8 10 -20q1 -5 -1 -11q-6 -20 -30 -20h-113q-19 0 -40 16l-416 396v-373q0 -15 -12 -27t-27 -12h-64q-15 0 -27 12t-12 27z" />
<glyph unicode="l" horiz-adv-x="436" d="M147 39v1356q0 15 12 27t27 12h64q15 0 27 -12t12 -27v-1356q0 -15 -12 -27t-27 -12h-64q-15 0 -27 12t-12 27z" />
<glyph unicode="m" horiz-adv-x="1560" d="M145 39v741q0 15 12 27t27 12h39q27 0 33 -24l18 -64l11.5 11.5t33.5 26.5t54.5 33t74 26t93.5 12q180 0 262 -133l7 5q6 6 13 12t19.5 15l25 18t30 19.5t35 19t39 17t43 14.5t45.5 9.5t48 3.5q317 0 317 -369v-432q0 -15 -12 -27t-27 -12h-65q-15 0 -27 12t-12 27v432 q0 115 -47 173t-137 58q-128 0 -250 -114q10 -58 10 -117v-432q0 -15 -12 -27t-27 -12h-65q-15 0 -27 12t-12 27v432q0 231 -195 231q-41 0 -79.5 -12t-65.5 -29t-47.5 -34t-30.5 -29l-10 -12v-547q0 -15 -12 -27t-27 -12h-64q-15 0 -27 12t-12 27z" />
<glyph unicode="n" horiz-adv-x="1013" d="M145 39v741q0 15 12 27t27 12h39q27 0 33 -24l18 -64q5 4 14 11.5t38 26.5t60.5 33t79 26t95.5 12q318 0 318 -369v-432q0 -15 -12 -27t-27 -12h-66q-15 0 -27 12t-12 27v432q0 115 -48 173t-136 58q-43 0 -86 -12t-74 -29t-55 -34t-36 -29l-13 -12v-547q0 -15 -12 -27 t-27 -12h-64q-15 0 -27 12t-12 27z" />
<glyph unicode="o" d="M86 412q0 174 119.5 301t288.5 127q111 0 205 -58.5t148 -157t54 -212.5q0 -178 -119 -305t-288 -127q-111 0 -205.5 58.5t-148.5 158t-54 215.5zM227 412q0 -125 77.5 -212t189.5 -87t189 87t77 212q0 122 -77 207.5t-189 85.5t-189.5 -85.5t-77.5 -207.5z" />
<glyph unicode="p" d="M147 -575v1355q0 15 12 27t27 12h43q23 0 33 -26l14 -39q4 3 11 9t30.5 21t49.5 26t66 20.5t81 9.5q165 0 276 -126.5t111 -305.5q0 -181 -112.5 -304.5t-280.5 -123.5q-38 0 -74.5 7t-61.5 16.5t-44.5 19.5t-29.5 17l-9 7v-622q0 -15 -12 -27t-27 -12h-64q-15 0 -27 12 t-12 27zM291 188q10 -8 27 -20t69 -31.5t102 -19.5q117 0 193 84.5t76 208.5q0 126 -70 213.5t-188 87.5q-37 0 -72.5 -10.5t-59 -25.5t-42 -29.5t-26.5 -25.5l-9 -10v-422z" />
<glyph unicode="q" d="M86 408q0 179 111 305.5t276 126.5q65 0 124.5 -21.5t86.5 -42.5l27 -22l14 37q11 28 39 28h37q15 0 27 -12t12 -27v-1355q0 -15 -12 -27t-27 -12h-64q-15 0 -27 12t-12 27v626q-3 -3 -9.5 -7.5t-28.5 -17t-45.5 -22t-60.5 -17t-75 -7.5q-168 0 -280.5 123.5 t-112.5 304.5zM229 410q0 -124 76 -208.5t193 -84.5q50 0 99.5 16.5t74.5 33.5l24 17v426q-3 4 -9 11t-26.5 24.5t-43 30.5t-58 24t-72.5 11q-118 0 -188 -87.5t-70 -213.5z" />
<glyph unicode="r" horiz-adv-x="684" d="M145 39v741q0 15 12 27t27 12h39q29 0 35 -28l16 -60q3 4 9 11.5t28.5 26.5t48.5 33t69 26t91 12q27 0 52 -3t50 -9q25 -8 37 -22q8 -9 8 -20q0 -7 -3 -14l-25 -70q-12 -33 -49 -18q-36 16 -80 16t-83 -11.5t-63.5 -28.5t-42.5 -34t-26 -28l-8 -12v-547q0 -15 -12 -27 t-27 -12h-64q-15 0 -27 12t-12 27z" />
<glyph unicode="s" horiz-adv-x="729" d="M92 627q0 35 14.5 70t43.5 68t81.5 54t120.5 21q72 0 132 -19.5t96 -44.5q14 -9 17.5 -27.5t-5.5 -35.5l-17 -33q-9 -17 -27.5 -21.5t-31.5 3.5q-88 49 -164 49q-62 0 -89 -25t-27 -57q0 -24 10 -43.5t36 -38t44 -28t61 -30.5q45 -22 69.5 -34.5t61.5 -34.5t57 -41 t41 -45t30 -56.5t9 -66.5q0 -93 -80 -162t-202 -69q-149 0 -267 92q-8 6 -11 19t1 24q5 7 16 27.5t13 23.5q8 12 23 14t32 -8q10 -8 27.5 -20t68.5 -32t97 -20q61 0 97 28t36 71q0 50 -38.5 81t-141.5 82q-49 24 -84 45.5t-72.5 54t-57.5 74t-20 91.5z" />
<glyph unicode="t" horiz-adv-x="700" d="M55 735v45q0 17 11 28t28 11h105v228q0 15 12 26.5t27 11.5l65 5q15 0 26 -12t11 -27v-232h238q17 0 27.5 -11t10.5 -28v-45q0 -16 -10.5 -27.5t-27.5 -11.5h-238v-479q0 -59 15.5 -78.5t52.5 -19.5q62 0 149 45q25 9 32.5 6t16.5 -18l31 -52q8 -15 8 -24q0 -4 -1 -6 q-3 -10 -21 -21q-33 -21 -103 -45t-133 -24q-59 0 -98 16.5t-58 49.5t-25.5 69.5t-6.5 89.5v491h-105q-17 0 -28 11.5t-11 27.5z" />
<glyph unicode="u" horiz-adv-x="993" d="M135 350v430q0 15 12 27t27 12h66q15 0 27 -12t12 -27v-432q0 -115 48 -173t136 -58q44 0 85 12t68.5 29t49 34t31.5 29l10 12v547q0 15 11.5 27t26.5 12h64q15 0 27 -12t12 -27v-741q0 -15 -12 -27t-27 -12h-39q-16 0 -24 9t-13 26l-14 53l-11.5 -11.5t-33 -26 t-54.5 -33t-74 -26t-93 -11.5q-318 0 -318 370z" />
<glyph unicode="v" horiz-adv-x="841" d="M32 806q8 14 31 13h64q26 0 37 -22l254 -586h2l270 586q11 22 35 22h53q24 1 32 -13q4 -7 4 -15q0 -9 -5 -19l-350 -772q-8 -20 -35 -20h-10q-27 0 -35 20l-346 772q-5 11 -5 19q0 9 4 15z" />
<glyph unicode="w" horiz-adv-x="1236" d="M68 772q-3 11 -3 19q0 28 33 28h64q30 0 37 -22l149 -541h2l232 563q8 21 34 21h11q27 0 35 -21l229 -565h2l147 543q3 9 13 15.5t22 6.5h64q33 0 33 -28q0 -8 -3 -19l-223 -772q-7 -20 -35 -20h-10q-27 0 -35 20l-250 614l-241 -614q-8 -20 -35 -20h-10q-28 0 -35 20z " />
<glyph unicode="x" horiz-adv-x="854" d="M69 16q-2 6 -2 12q0 12 9 25l268 365l-260 348q-15 20 -7 36.5t34 16.5h86q20 0 32 -16l195 -279h2l203 279q12 16 33 16h86q26 -1 34 -17q2 -6 2 -11q0 -12 -10 -25l-260 -346l262 -367q9 -13 9 -24q0 -7 -3 -13q-8 -16 -32 -16h-76q-18 0 -31 18l-217 301h-2l-213 -303 q-12 -16 -33 -16h-76q-26 0 -33 16z" />
<glyph unicode="y" horiz-adv-x="954" d="M28 806q8 13 31 13h91q23 0 34 -22l303 -627h2l287 627q11 22 35 22h78q23 0 32 -13q4 -7 4 -15t-5 -19l-629 -1362q-12 -24 -35 -24h-76q-24 0 -33.5 14.5t0.5 36.5l263 565l-381 772q-5 11 -5 19t4 13z" />
<glyph unicode="z" horiz-adv-x="747" d="M74 39v20l401 625v6h-344q-15 0 -26 12t-11 27v51q0 17 11 28t26 11h514q24 1 35 -17q6 -9 6 -18q0 -10 -6 -20l-391 -629v-6h315q17 0 28 -11t11 -28v-51q0 -16 -11 -27.5t-28 -11.5h-491q-15 0 -27 12t-12 27z" />
<glyph unicode="{" horiz-adv-x="817" d="M51 379v63q0 12 9.5 20.5t21.5 10.5q45 7 93 52.5t48 107.5v330q0 107 32 193.5t83.5 141t119 90.5t134 51t133.5 15q17 0 29 -9t12 -26v-39q0 -14 -7.5 -25t-19.5 -12q-101 -15 -183.5 -61t-136.5 -129.5t-54 -189.5v-273q0 -72 -15.5 -124t-45 -82t-49.5 -42t-52 -26 v-15q32 -14 52 -26t49.5 -42t45 -82t15.5 -124v-272q0 -80 30.5 -148t83.5 -114t119 -76t141 -41q27 -3 27 -35v-41q0 -15 -12.5 -25t-28.5 -10q-67 0 -133.5 14.5t-134 51t-118.5 90.5t-83.5 140.5t-32.5 193.5v329q0 62 -48 107.5t-93 52.5q-12 1 -21.5 12t-9.5 23z" />
<glyph unicode="|" horiz-adv-x="405" d="M158 -578v2096q0 17 11.5 27.5t27.5 10.5h14q15 0 26 -10.5t11 -27.5v-2096q0 -15 -12 -25.5t-27 -10.5h-12q-15 0 -27 10.5t-12 25.5z" />
<glyph unicode="}" horiz-adv-x="817" d="M51 -559q0 32 27 35q101 15 184 61t137 129t54 189v272q0 59 12 105t27 72.5t41 48.5t41 29.5t40 18.5v15q-25 11 -40 18.5t-41 29.5t-41 48.5t-27 72.5t-12 105v273q0 80 -31 148t-84 114.5t-119 76.5t-141 41q-12 1 -19.5 12t-7.5 25v39q0 17 12 26t29 9 q67 0 133.5 -15t134 -51t119 -90.5t83.5 -141t32 -193.5v-330q0 -62 48 -107.5t93 -52.5q12 -2 21.5 -10.5t9.5 -20.5v-63q0 -12 -9.5 -23t-21.5 -12q-45 -7 -93 -52.5t-48 -107.5v-329q0 -107 -32.5 -193.5t-83.5 -140.5t-118.5 -90.5t-134 -51t-133.5 -14.5 q-16 0 -28.5 10t-12.5 25v41z" />
<glyph unicode="~" horiz-adv-x="1138" d="M107 525.5q-1 14.5 8 25.5q4 8 12.5 20.5t36.5 45t57.5 57t75 45t90.5 20.5q44 0 88.5 -16.5t68.5 -31.5t64 -44q100 -69 150 -69q19 0 37 5t34 15.5t28 19.5t25.5 26t19.5 25t17.5 25t12.5 19q11 15 26 17.5t29 -9.5l43 -35q11 -9 12 -23.5t-8 -25.5q-4 -8 -12.5 -20.5 t-36.5 -45t-58 -57t-76.5 -45t-92.5 -20.5q-41 0 -85.5 16.5t-66 30t-61.5 41.5q-1 1 -23.5 17t-31.5 21t-29 16t-37 15t-35 4q-19 0 -36.5 -5t-33.5 -15.5t-27.5 -20t-25 -26t-19.5 -24.5t-17 -25t-13 -19q-11 -15 -26 -17.5t-29 9.5q-7 6 -21.5 17.5t-21.5 17.5 q-11 9 -12 23.5z" />
<glyph unicode="&#xa1;" horiz-adv-x="468" d="M119 723q0 48 34 82.5t83 34.5q47 0 81.5 -35t34.5 -82q0 -49 -34 -83t-82 -34q-50 0 -83.5 34t-33.5 83zM145 -346l39 575q2 12 14 22.5t25 10.5h25q13 0 25 -10.5t14 -22.5l39 -571v-233q0 -15 -12 -27t-27 -12h-103q-15 0 -27 12t-12 27v229z" />
<glyph unicode="&#xa2;" horiz-adv-x="874" d="M61 408q0 181 123.5 306.5t298.5 125.5q18 0 54 -4l22 84q5 15 18.5 22.5t28.5 3.5l15 -4q15 -3 22.5 -16.5t3.5 -30.5l-22 -82q87 -38 151 -117q10 -14 8 -30t-16 -27l-39 -33q-8 -7 -14.5 -10t-11 -3.5t-9.5 2t-7.5 4.5t-8 7.5t-8.5 7.5q-33 38 -82 62l-152 -559 q14 -2 43 -2q40 0 72.5 8.5t63 29.5t41.5 30.5t40 37.5q21 18 32 17.5t30 -13.5l22 -16q15 -11 19.5 -26.5t-4.5 -30.5q-48 -77 -130.5 -124.5t-183.5 -47.5q-47 0 -80 8l-53 -199q-3 -15 -17.5 -22.5t-29.5 -4.5l-12 5q-15 3 -23.5 16.5t-5.5 28.5l53 202 q-113 48 -182.5 154t-69.5 240zM209 410q0 -86 38 -156t103 -107l150 551q-11 2 -19 2q-115 0 -193.5 -83.5t-78.5 -206.5z" />
<glyph unicode="&#xa3;" horiz-adv-x="1032" d="M121 641v14q0 15 11 27t26 12h65q-2 9 -20 70t-31.5 131.5t-13.5 138.5q0 190 122 305t306 115q178 0 342 -145q12 -9 13 -25.5t-9 -28.5l-43 -53q-31 -39 -60 -2q-5 5 -13.5 13t-35.5 28.5t-55 36t-68.5 28.5t-78.5 13q-120 0 -198.5 -79.5t-78.5 -207.5 q0 -70 15.5 -144t33.5 -129.5t19 -64.5h336q17 0 27.5 -11.5t10.5 -27.5v-16q0 -15 -10.5 -26t-27.5 -11h-314q11 -57 12 -137.5t-13 -174.5t-44 -159h512q15 0 26 -11t11 -28v-53q0 -15 -11 -27t-26 -12h-651q-15 0 -27 12t-12 27v37q132 250 80 526h-90q-15 0 -26 12 t-11 27z" />
<glyph unicode="&#xa4;" horiz-adv-x="974" d="M156 427q0 17 10 28l84 84q-38 66 -38 141t38 141l-84 84q-10 11 -10 28t10 28l41 38q11 11 28 11t27 -11l84 -84q65 40 140.5 41t142.5 -38l86 86q11 10 26.5 9t26.5 -12l41 -40q11 -11 11 -27t-11 -27l-84 -84q40 -64 40 -142t-40 -144l84 -84q11 -11 11 -27t-11 -27 l-41 -41q-11 -11 -26.5 -11.5t-26.5 9.5l-86 86q-66 -38 -142.5 -38t-140.5 40l-84 -84q-10 -10 -27 -10t-28 10l-41 39q-10 11 -10 28zM340 680q0 -62 43 -105t104 -43t104.5 43t43.5 105q0 61 -43 104t-105 43q-61 0 -104 -42.5t-43 -104.5z" />
<glyph unicode="&#xa5;" horiz-adv-x="1265" d="M55.5 1414q10.5 20 34.5 20h96q19 0 33 -19l414 -571l414 571q14 19 32 19h97q24 0 34 -20t-2 -40l-499 -682v-102h264q17 0 28 -11.5t11 -27.5v-16q0 -15 -11 -26t-28 -11h-264v-154h264q17 0 28 -11.5t11 -27.5v-16q0 -15 -11 -26t-28 -11h-264v-213q0 -15 -12 -27 t-27 -12h-80q-17 0 -28 11.5t-11 27.5v213h-268q-15 0 -26 12t-11 27v14q0 15 11 27t26 12h268v154h-268q-15 0 -26 12t-11 27v14q0 15 11 27t26 12h268v100l-494 684q-12 20 -1.5 40z" />
<glyph unicode="&#xa6;" horiz-adv-x="745" d="M328 100q0 17 11.5 28t27.5 11h14q15 0 26 -11t11 -28v-678q0 -15 -12 -25.5t-27 -10.5h-12q-15 0 -27 10.5t-12 25.5v678zM328 842v676q0 17 11.5 27.5t27.5 10.5h14q15 0 26 -10.5t11 -27.5v-676q0 -15 -12 -26t-27 -11h-12q-15 0 -27 11t-12 26z" />
<glyph unicode="&#xa7;" horiz-adv-x="1079" d="M82 -308q-1 15 12 32l41 51q30 38 62 6q12 -12 36 -31t72 -50.5t112 -53t126 -21.5q116 0 195 53t79 152q0 94 -87.5 170t-270.5 154q-175 73 -268 169.5t-93 229.5q0 49 17 94t41 74t48 51.5t41 32.5l17 10q-7 4 -18 12.5t-39 36.5t-50 60t-39.5 82.5t-17.5 103.5 q0 44 13.5 89.5t46.5 91.5t81.5 82t125 58.5t170.5 22.5q89 0 176.5 -26t130.5 -52l43 -26q8 -4 14 -12t9 -23t-9 -33l-31 -47q-24 -35 -67 -12l-11 6q-10 6 -19.5 12t-27.5 15t-35 17t-39.5 16.5t-44 14t-45.5 9.5t-47 4q-79 0 -137 -19.5t-88 -51.5t-43.5 -65.5 t-13.5 -68.5q0 -83 70.5 -148t205.5 -120q93 -39 154.5 -68.5t123.5 -68t97.5 -77.5t57.5 -89.5t22 -110.5q0 -48 -18 -95t-43.5 -79.5t-51 -58t-43.5 -37.5l-18 -13q7 -5 19 -13.5t42 -38.5t52.5 -63.5t41.5 -86.5t19 -109q0 -157 -125 -252.5t-317 -95.5 q-68 0 -135.5 15.5t-113.5 35.5t-89.5 46.5t-62 41t-32.5 27.5q-13 11 -18 17t-6 21zM250 559q0 -41 15.5 -75.5t38 -58.5t68 -51.5t83.5 -46t108.5 -51.5t120.5 -59q5 3 14 8t32 23t40.5 39t32 56.5t14.5 74.5q0 45 -21.5 82.5t-70.5 72.5t-109 64.5t-157 69.5 q-50 20 -86 38q-5 -2 -13.5 -6.5t-29.5 -20.5t-37 -35.5t-29.5 -52.5t-13.5 -71z" />
<glyph unicode="&#xa8;" horiz-adv-x="847" d="M164 1294q0 41 28 70t68 29q41 0 69.5 -29t28.5 -70q0 -40 -28.5 -68t-69.5 -28q-40 0 -68 28t-28 68zM559 1294q0 41 28 70t68 29q41 0 70 -29t29 -70q0 -40 -29 -68t-70 -28q-40 0 -68 28t-28 68z" />
<glyph unicode="&#xa9;" horiz-adv-x="1691" d="M111 717q0 200 98.5 369.5t267.5 268.5t369 99t369.5 -99t268.5 -268.5t99 -369.5t-99 -369t-268.5 -267.5t-369.5 -98.5t-369 98.5t-267.5 267.5t-98.5 369zM233 717q0 -124 48.5 -238t130.5 -196t196 -130.5t238 -48.5q125 0 238.5 48.5t195.5 131t130 195.5t48 238 q0 167 -81.5 308t-222.5 222.5t-308 81.5q-125 0 -238 -48t-195.5 -130t-131 -195.5t-48.5 -238.5zM481 713q0 161 112 273t271 112q136 0 236 -78q14 -12 15 -28.5t-11 -30.5l-29 -37q-18 -25 -55 -2q-70 47 -152 47q-104 0 -173.5 -73.5t-69.5 -176.5q0 -106 69 -178 t174 -72q79 0 146 45q39 23 59 -2l33 -39q11 -12 10.5 -28.5t-12.5 -28.5q-102 -86 -240 -86q-158 0 -270.5 112.5t-112.5 270.5z" />
<glyph unicode="&#xaa;" horiz-adv-x="638" d="M72 1026q0 88 62.5 142.5t174.5 54.5q28 0 58.5 -5.5t47.5 -10.5l17 -5q0 90 -17 124t-75 34q-20 0 -40.5 -2t-35.5 -5t-33 -8t-26.5 -8t-23.5 -8t-17 -6q-10 -3 -19 4.5t-12 18.5l-10 36q-5 21 14 31q7 5 29.5 13.5t74 18t107.5 9.5q30 0 55 -5t43 -11.5t32 -21 t23 -25.5t15 -32.5t9.5 -34.5t5 -40t1.5 -40v-43v-6v-5v-6v-312q0 -12 -7.5 -20t-18.5 -8h-37q-18 0 -25 20l-12 43q-25 -23 -41.5 -36t-55 -28.5t-81.5 -15.5q-79 0 -130.5 55t-51.5 144zM164 1028q0 -44 29 -74t73 -30q48 0 93 24t69 53v115q-54 27 -125 27 q-59 0 -99 -32.5t-40 -82.5z" />
<glyph unicode="&#xab;" horiz-adv-x="849" d="M84 397q-17 23 0 49l223 304q14 24 37 24h29q26 0 34.5 -19t-4.5 -44l-151 -285l145 -301q13 -25 4.5 -43.5t-34.5 -18.5h-39q-18 0 -31 17zM418 397q-17 23 0 49l223 304q14 24 37 24h29q26 0 34.5 -19t-4.5 -44l-151 -285l145 -301q12 -25 3.5 -43.5t-34.5 -18.5h-38 q-18 0 -31 17z" />
<glyph unicode="&#xac;" horiz-adv-x="1064" d="M76 682v57q0 15 12 27t27 12h778q16 0 27.5 -12.5t11.5 -26.5v-417q0 -15 -12 -26t-27 -11h-57q-15 0 -27 11t-12 26v321h-682q-15 0 -27 12t-12 27z" />
<glyph unicode="&#xad;" horiz-adv-x="710" d="M102 487v39q0 17 11 28t28 11h428q17 0 28 -11t11 -28v-39q0 -15 -11 -25.5t-28 -10.5h-428q-17 0 -28 10.5t-11 25.5z" />
<glyph unicode="&#xae;" horiz-adv-x="1693" d="M111 717q0 200 98.5 369.5t267.5 268.5t369 99t369.5 -99t268.5 -268.5t99 -369.5t-99 -369t-268.5 -267.5t-369.5 -98.5t-369 98.5t-267.5 267.5t-98.5 369zM233 717q0 -124 48.5 -238t130.5 -196t196 -130.5t238 -48.5q125 0 238.5 48.5t195.5 131t130 195.5t48 238 q0 167 -81.5 308t-222.5 222.5t-308 81.5q-125 0 -238 -48t-195.5 -130t-131 -195.5t-48.5 -238.5zM590 383v672q0 16 11 27.5t28 11.5h291q103 0 177 -60.5t74 -169.5q0 -54 -17 -97t-44.5 -68t-53 -38.5t-50.5 -19.5l60.5 -121t61.5 -121q10 -19 -1 -37t-33 -18h-70 q-22 0 -37 29l-115 256h-151v-246q0 -16 -11 -27.5t-28 -11.5h-53q-17 0 -28 11.5t-11 27.5zM719 748h201q55 0 88.5 33.5t33.5 82.5q0 53 -33 85t-89 32h-201v-233z" />
<glyph unicode="&#xaf;" horiz-adv-x="847" d="M123 1231v43q0 17 11 28t28 11h524q17 0 28 -11t11 -28v-43q0 -15 -11 -26t-28 -11h-524q-17 0 -28 11t-11 26z" />
<glyph unicode="&#xb0;" horiz-adv-x="684" d="M66 1178q0 116 80 196t196 80q114 0 195 -80.5t81 -195.5t-81 -196t-195 -81q-115 0 -195.5 80.5t-80.5 196.5zM174 1178q0 -66 51 -117t117 -51q63 0 113.5 51t50.5 117q0 63 -50.5 113t-113.5 50q-66 0 -117 -50t-51 -113z" />
<glyph unicode="&#xb1;" horiz-adv-x="1222" d="M182 164v57q0 15 12 27t27 12h780q15 0 26 -12t11 -27v-57q0 -15 -11 -27t-26 -12h-780q-15 0 -27 12t-12 27zM184 825v58q0 15 12 27t27 12h322v303q0 15 12 26t27 11h57q15 0 27 -11t12 -26v-303h324q15 0 25.5 -12t10.5 -27v-58q0 -15 -10.5 -27t-25.5 -12h-324v-239 q0 -15 -12 -26t-27 -11h-57q-15 0 -27 11t-12 26v239h-322q-15 0 -27 12t-12 27z" />
<glyph unicode="&#xb2;" horiz-adv-x="628" d="M92 1051v28l260 273q35 38 50.5 63t15.5 51q0 37 -29.5 67t-87.5 30q-65 0 -127 -62q-12 -12 -24 0l-41 43q-13 13 0 23q3 4 9 10t26 22t41.5 28t54.5 22t67 10q106 0 163.5 -51.5t57.5 -130.5q0 -82 -100 -185l-166 -170h248q18 0 18 -20v-51q0 -19 -18 -19h-397 q-21 0 -21 19z" />
<glyph unicode="&#xb3;" horiz-adv-x="610" d="M86 1096q-12 12 2 22l43 41q16 9 27 -2l4 -3q5 -4 10 -7t13 -8.5t16.5 -10t19.5 -9t22 -8t24 -5.5t26 -2q49 0 86 26t37 66q0 41 -38 69.5t-112 28.5h-63q-8 0 -14.5 5t-6.5 14v51q0 18 21 18h63q66 0 99.5 26t33.5 65q0 40 -33 66t-77 26q-66 0 -115 -49q-12 -12 -27 0 l-41 36q-6 4 -6 12t6 13q3 3 9 8.5t25.5 20t40.5 25t52.5 19.5t63.5 9q92 0 153.5 -47t61.5 -123q0 -49 -33 -88.5t-73 -54.5v-5q45 -17 84.5 -58t39.5 -95q0 -76 -64.5 -126t-168.5 -50q-134 0 -211 84z" />
<glyph unicode="&#xb4;" horiz-adv-x="618" d="M148.5 1217q3.5 11 13.5 16l307 172q8 7 27 6.5t26 -12.5l37 -74q6 -12 3 -25.5t-15 -17.5l-330 -137q-22 -9 -31.5 -8.5t-15.5 12.5l-20 45q-5 12 -1.5 23z" />
<glyph unicode="&#xb5;" horiz-adv-x="1034" d="M150 -575v1355q0 15 11.5 27t26.5 12h66q15 0 27 -12t12 -27v-432q0 -115 48 -173t136 -58q44 0 85 12t68.5 29t49 34t31.5 29l10 12v547q0 15 12 27t27 12h63q15 0 27 -12t12 -27v-741q0 -15 -12 -27t-27 -12h-39q-26 0 -36 35l-15 53l-11.5 -11.5t-33 -26t-54.5 -33 t-74 -26t-93 -11.5q-109 0 -176 40v-595q0 -15 -12 -27t-27 -12h-64q-15 0 -26.5 12t-11.5 27z" />
<glyph unicode="&#xb6;" horiz-adv-x="1437" d="M51 1008q0 176 116 302t282 126l905 -2q15 0 27 -12t12 -27v-41q0 -17 -11.5 -28t-27.5 -11h-228v-1893q0 -15 -11 -26.5t-28 -11.5h-43q-15 0 -26.5 11.5t-11.5 26.5v1893h-320v-1893q0 -15 -12 -26.5t-27 -11.5h-41q-15 0 -27 11.5t-12 26.5v1156h-90 q-175 0 -300.5 125t-125.5 305z" />
<glyph unicode="&#xb7;" horiz-adv-x="468" d="M117 535q0 49 34 82.5t82 33.5q50 0 83.5 -33.5t33.5 -82.5q0 -48 -34 -82.5t-83 -34.5q-47 0 -81.5 35t-34.5 82z" />
<glyph unicode="&#xb8;" horiz-adv-x="505" d="M60.5 -431.5q0.5 15.5 11.5 23.5l28 23q11 8 25 8.5t22 -8.5q34 -37 84 -37q41 0 66 27t25 69q0 33 -15.5 57.5t-44.5 38.5t-53 20.5t-57 12.5q-35 7 -35 41v156h110v-109q97 -12 156 -67.5t59 -142.5q0 -89 -62 -151t-153 -62q-45 0 -86.5 19.5t-68.5 51.5 q-12 14 -11.5 29.5z" />
<glyph unicode="&#xb9;" horiz-adv-x="389" d="M49 1501q-3 14 6 23l144 114h57q18 0 18 -18v-569q0 -8 -5.5 -13.5t-12.5 -5.5h-72q-9 0 -14.5 5.5t-5.5 13.5v430l-84 -23q-18 -4 -21 8z" />
<glyph unicode="&#xba;" horiz-adv-x="663" d="M78 1128q0 153 66.5 238.5t187.5 85.5t187.5 -85.5t66.5 -238.5q0 -151 -66.5 -236t-187.5 -85t-187.5 85t-66.5 236zM190 1128q0 -107 37 -165t105 -58t104.5 58t36.5 165t-37 166.5t-104 59.5t-104.5 -59.5t-37.5 -166.5z" />
<glyph unicode="&#xbb;" horiz-adv-x="849" d="M106.5 755q8.5 19 34.5 19h29q23 0 37 -24l223 -304q17 -26 0 -49l-213 -317q-13 -17 -31 -17h-39q-26 0 -34.5 18.5t4.5 43.5l145 301l-151 285q-13 25 -4.5 44zM440.5 755q8.5 19 34.5 19h29q23 0 37 -24l223 -304q17 -26 0 -49l-213 -317q-13 -17 -31 -17h-39 q-26 0 -34.5 18.5t4.5 43.5l145 301l-152 285q-12 25 -3.5 44z" />
<glyph unicode="&#xbc;" horiz-adv-x="1296" d="M78 1296q-3 14 6 23l143 115h58q18 0 18 -19v-569q0 -8 -5.5 -13.5t-12.5 -5.5h-72q-9 0 -14.5 5.5t-5.5 13.5v430l-84 -23q-18 -4 -21 9zM184 55l703 1358q12 21 35 21h32q23 0 34.5 -18t0.5 -38l-706 -1358q-10 -20 -35 -20h-29q-23 0 -34 17.5t-1 37.5zM649 139v60 l352 401q6 6 17 6h43q8 0 14 -5.5t6 -12.5v-379h84q7 0 13 -5t6 -11v-54q0 -6 -6 -11t-13 -5h-84v-105q0 -7 -6 -12.5t-14 -5.5h-66q-8 0 -14 5.5t-6 12.5v103h-307q-8 0 -13.5 5.5t-5.5 12.5zM762 211h217v242z" />
<glyph unicode="&#xbd;" horiz-adv-x="1282" d="M78 1296q-3 14 6 23l143 115h58q18 0 18 -19v-569q0 -8 -5.5 -13.5t-12.5 -5.5h-72q-9 0 -14.5 5.5t-5.5 13.5v430l-84 -23q-18 -4 -21 9zM184 55l703 1358q12 21 35 21h32q23 0 34.5 -18t0.5 -38l-706 -1358q-10 -20 -35 -20h-29q-23 0 -34 17.5t-1 37.5zM711 18v29 l260 272q65 71 65 115q0 37 -29 66.5t-87 29.5q-66 0 -127 -61q-13 -13 -25 0l-41 43q-13 13 0 23q3 4 9 10t26 22t41.5 28t55 22t67.5 10q106 0 163.5 -52t57.5 -131q0 -81 -100 -184l-166 -170h247q19 0 19 -20v-52q0 -18 -19 -18h-397q-20 0 -20 18z" />
<glyph unicode="&#xbe;" horiz-adv-x="1388" d="M92 891q-12 12 2 22l43 41q16 9 27 -2l4 -4l10 -6t13 -8.5t16.5 -10t19.5 -9t22 -8t24 -5.5t26 -2q49 0 86 26t37 66q0 42 -38 70.5t-112 28.5h-63q-21 0 -21 18v51q0 19 21 19h63q66 0 100 25.5t34 64.5q0 40 -33.5 66t-77.5 26q-66 0 -115 -49q-12 -12 -26 0l-41 37 q-6 4 -6 12t6 12q3 3 9 8.5t25.5 20t40 25t52 19.5t63.5 9q92 0 153.5 -47t61.5 -123q0 -49 -33 -88.5t-73 -54.5v-4q45 -17 85 -58.5t40 -95.5q0 -76 -65 -126t-169 -50q-134 0 -211 84zM276 55l703 1358q12 21 35 21h33q23 0 34 -18t0 -38l-706 -1358q-10 -20 -35 -20h-29 q-23 0 -34 17.5t-1 37.5zM741 139v60l353 401q6 6 16 6h43q8 0 14.5 -5.5t6.5 -12.5v-379h83q7 0 13 -5t6 -11v-54q0 -6 -6 -11t-13 -5h-83v-105q0 -7 -6.5 -12.5t-14.5 -5.5h-66q-8 0 -14 5.5t-6 12.5v103h-307q-8 0 -13.5 5.5t-5.5 12.5zM854 211h217v242z" />
<glyph unicode="&#xbf;" horiz-adv-x="499" d="M-133 -322q0 54 18 100.5t46.5 79t62.5 60.5t68.5 52.5t63 48.5t46.5 54t18 64v84q0 20 13 30.5t30 10.5h56q16 0 27.5 -11t11.5 -28v-86q0 -51 -17 -93t-44 -70.5t-60 -53t-66 -48.5t-60 -50.5t-44 -64.5t-17 -85q0 -76 53.5 -128t149.5 -52q27 0 51.5 3t46.5 10 t39.5 13t36 18.5t29 18.5t26.5 21t20.5 19.5t19.5 20.5l14 15q26 26 53 2l39 -34q24 -21 0 -54q-5 -7 -14.5 -19.5t-43.5 -43.5t-73.5 -54.5t-105.5 -43t-138 -19.5q-160 0 -258 86t-98 227zM147 723q0 48 34 82.5t83 34.5q47 0 82 -35t35 -82q0 -49 -34.5 -83t-82.5 -34 q-50 0 -83.5 34t-33.5 83z" />
<glyph unicode="&#xc0;" horiz-adv-x="1357" d="M12 53l623 1379q11 22 35 22h20q24 0 35 -22l618 -1379q9 -21 -1 -37t-33 -16h-82q-26 0 -35 23l-152 337h-727l-149 -337q-9 -23 -35 -23h-82q-23 0 -33.5 16.5t-1.5 36.5zM371 487h614q-50 111 -149.5 336t-149.5 336h-16zM472 1754.5q-3 13.5 3 25.5l37 73q7 12 26 13 t27 -6l307 -172q10 -5 14 -16t-1 -23l-21 -45q-6 -12 -15.5 -13t-31.5 8l-330 138q-12 4 -15 17.5z" />
<glyph unicode="&#xc1;" horiz-adv-x="1357" d="M12 53l623 1379q11 22 35 22h20q24 0 35 -22l618 -1379q9 -21 -1 -37t-33 -16h-82q-26 0 -35 23l-152 337h-727l-149 -337q-9 -23 -35 -23h-82q-23 0 -33.5 16.5t-1.5 36.5zM371 487h614q-50 111 -149.5 336t-149.5 336h-16zM471.5 1672q3.5 11 13.5 16l308 172q8 7 27 6 t26 -13l37 -73q6 -12 2.5 -25.5t-15.5 -17.5l-329 -138q-22 -9 -31.5 -8t-15.5 13l-21 45q-5 12 -1.5 23z" />
<glyph unicode="&#xc2;" horiz-adv-x="1357" d="M12 53l623 1379q11 22 35 22h20q24 0 35 -22l618 -1379q9 -21 -1 -37t-33 -16h-82q-26 0 -35 23l-152 337h-727l-149 -337q-9 -23 -35 -23h-82q-23 0 -33.5 16.5t-1.5 36.5zM371 487h614q-50 111 -149.5 336t-149.5 336h-16zM393.5 1645.5q4.5 10.5 14.5 17.5l245 192 q12 9 27 9t27 -9l245 -192q10 -7 14.5 -17.5t-1.5 -21.5q-3 -4 -10.5 -16.5t-12.5 -19t-13.5 -13t-18 -5.5t-21.5 9l-209 143l-209 -139q-30 -19 -47 4l-29 37q-6 11 -1.5 21.5z" />
<glyph unicode="&#xc3;" horiz-adv-x="1357" d="M12 53l623 1379q11 22 35 22h20q24 0 35 -22l618 -1379q9 -21 -1 -37t-33 -16h-82q-26 0 -35 23l-152 337h-727l-149 -337q-9 -23 -35 -23h-82q-23 0 -33.5 16.5t-1.5 36.5zM371 487h614q-50 111 -149.5 336t-149.5 336h-16zM379 1692q2 4 11 25t16 36.5t23 38t33.5 37 t45 25t59.5 10.5q34 0 64 -15.5t51 -38t39 -45t36.5 -38t35.5 -15.5q62 0 92 105q10 32 47 16l33 -16q6 -3 9.5 -7.5t4.5 -8.5t0.5 -10.5t-1 -9.5t-3 -10t-2.5 -8q-56 -166 -182 -166q-38 0 -74.5 24t-59.5 53t-48.5 53t-43.5 24q-19 0 -34.5 -9t-26.5 -26.5t-16.5 -31.5 t-12.5 -35q-5 -17 -17.5 -23.5t-33.5 2.5l-37 19q-22 11 -8 45z" />
<glyph unicode="&#xc4;" horiz-adv-x="1357" d="M12 53l623 1379q11 22 35 22h20q24 0 35 -22l618 -1379q9 -21 -1 -37t-33 -16h-82q-26 0 -35 23l-152 337h-727l-149 -337q-9 -23 -35 -23h-82q-23 0 -33.5 16.5t-1.5 36.5zM365 1718q0 41 28 70t68 29q41 0 69.5 -29t28.5 -70q0 -40 -28.5 -68t-69.5 -28q-40 0 -68 28 t-28 68zM371 487h614q-50 111 -149.5 336t-149.5 336h-16zM797 1718q0 41 28 70t68 29q41 0 69.5 -29t28.5 -70q0 -40 -28.5 -68t-69.5 -28q-40 0 -68 28t-28 68z" />
<glyph unicode="&#xc5;" horiz-adv-x="1357" d="M12 53l623 1379q11 22 35 22h20q24 0 35 -22l618 -1379q9 -21 -1 -37t-33 -16h-82q-26 0 -35 23l-152 337h-727l-149 -337q-9 -23 -35 -23h-82q-23 0 -33.5 16.5t-1.5 36.5zM371 487h614q-50 111 -149.5 336t-149.5 336h-16zM455 1776q0 94 64.5 158.5t158.5 64.5 q93 0 158 -65t65 -158q0 -94 -65.5 -159t-157.5 -65q-94 0 -158.5 65t-64.5 159zM553 1776q0 -50 37.5 -87.5t87.5 -37.5q49 0 85 37.5t36 87.5q0 49 -35.5 84.5t-85.5 35.5t-87.5 -35.5t-37.5 -84.5z" />
<glyph unicode="&#xc6;" horiz-adv-x="1837" d="M-17.5 16.5q-6.5 16.5 5.5 36.5l821 1317q2 3 7.5 11.5t7 11t6.5 9t7 8.5l7 7t8.5 6.5t9 4.5t10.5 3.5t12 1.5t15 1h780q17 0 28 -11.5t11 -27.5v-60q0 -16 -11 -27.5t-28 -11.5h-700v-499h600q15 0 27 -12t12 -27v-60q0 -17 -11.5 -28t-27.5 -11h-600v-522h700 q17 0 28 -11.5t11 -27.5v-59q0 -16 -11 -27.5t-28 -11.5h-807q-17 0 -27.5 11.5t-10.5 27.5v321h-486l-213 -337q-18 -23 -39 -23h-84q-23 0 -29.5 16.5zM422 487h412v672z" />
<glyph unicode="&#xc7;" horiz-adv-x="1452" d="M106 715q0 202 99 372t269 268.5t372 98.5q149 0 267 -48t228 -142q12 -12 13 -29t-11 -29l-55 -55q-23 -28 -53 2q-81 71 -185 112.5t-206 41.5q-119 0 -225.5 -48t-182 -128t-120 -188.5t-44.5 -225.5q0 -156 74.5 -291t207 -216t290.5 -81q64 0 119 11.5t104.5 36 t83.5 46.5t84 60q26 21 49 6l62 -56q11 -10 9.5 -27t-12.5 -28q-204 -198 -497 -198v-89q97 -12 156 -67.5t59 -142.5q0 -89 -62 -151t-153 -62q-45 0 -87 19.5t-69 51.5q-12 14 -11.5 29.5t11.5 23.5l29 23q11 8 25 8.5t22 -8.5q34 -37 84 -37q41 0 65.5 27t24.5 69 q0 33 -15.5 57.5t-44.5 38.5t-53 20.5t-57 12.5q-35 7 -35 41v144q-176 25 -320 126.5t-226.5 259.5t-82.5 341z" />
<glyph unicode="&#xc8;" horiz-adv-x="1212" d="M209 39v1356q0 16 11 27.5t28 11.5h807q17 0 28 -11.5t11 -27.5v-60q0 -16 -11 -27.5t-28 -11.5h-688v-499h587q15 0 27 -12t12 -27v-60q0 -17 -11.5 -28t-27.5 -11h-587v-522h688q17 0 28 -11.5t11 -27.5v-59q0 -16 -11 -27.5t-28 -11.5h-807q-17 0 -28 11.5t-11 27.5z M462 1754.5q-3 13.5 3 25.5l37 73q7 12 26 13t27 -6l307 -172q10 -5 13.5 -16t-1.5 -23l-20 -45q-6 -12 -15.5 -13t-31.5 8l-330 138q-12 4 -15 17.5z" />
<glyph unicode="&#xc9;" horiz-adv-x="1212" d="M209 39v1356q0 16 11 27.5t28 11.5h807q17 0 28 -11.5t11 -27.5v-60q0 -16 -11 -27.5t-28 -11.5h-688v-499h587q15 0 27 -12t12 -27v-60q0 -17 -11.5 -28t-27.5 -11h-587v-522h688q17 0 28 -11.5t11 -27.5v-59q0 -16 -11 -27.5t-28 -11.5h-807q-17 0 -28 11.5t-11 27.5z M463.5 1672q3.5 11 13.5 16l307 172q8 7 27.5 6t26.5 -13l36 -73q6 -12 3 -25.5t-15 -17.5l-330 -138q-22 -9 -31.5 -8t-15.5 13l-20 45q-5 12 -1.5 23z" />
<glyph unicode="&#xca;" horiz-adv-x="1212" d="M209 39v1356q0 16 11 27.5t28 11.5h807q17 0 28 -11.5t11 -27.5v-60q0 -16 -11 -27.5t-28 -11.5h-688v-499h587q15 0 27 -12t12 -27v-60q0 -17 -11.5 -28t-27.5 -11h-587v-522h688q17 0 28 -11.5t11 -27.5v-59q0 -16 -11 -27.5t-28 -11.5h-807q-17 0 -28 11.5t-11 27.5z M363 1645.5q4 10.5 14 17.5l246 192q12 9 26 9q15 0 27 -9l246 -192q10 -7 14 -17.5t-2 -21.5q-3 -4 -10.5 -16.5t-12.5 -19t-13.5 -13t-18 -5.5t-21.5 9l-209 143l-209 -139q-30 -19 -47 4l-28 37q-6 11 -2 21.5z" />
<glyph unicode="&#xcb;" horiz-adv-x="1212" d="M209 39v1356q0 16 11 27.5t28 11.5h807q17 0 28 -11.5t11 -27.5v-60q0 -16 -11 -27.5t-28 -11.5h-688v-499h587q15 0 27 -12t12 -27v-60q0 -17 -11.5 -28t-27.5 -11h-587v-522h688q17 0 28 -11.5t11 -27.5v-59q0 -16 -11 -27.5t-28 -11.5h-807q-17 0 -28 11.5t-11 27.5z M338 1718q0 41 28 70t68 29q41 0 69.5 -29t28.5 -70q0 -40 -28.5 -68t-69.5 -28q-40 0 -68 28t-28 68zM770 1718q0 41 28 70t68 29q41 0 70 -29t29 -70q0 -40 -29 -68t-70 -28q-40 0 -68 28t-28 68z" />
<glyph unicode="&#xcc;" horiz-adv-x="577" d="M81 1754.5q-3 13.5 3 25.5l37 73q7 12 26 13t27 -6l307 -172q10 -5 14 -16t-1 -23l-21 -45q-6 -12 -15.5 -13t-31.5 8l-330 138q-12 4 -15 17.5zM209 39v1356q0 15 12 27t27 12h82q15 0 27 -12t12 -27v-1356q0 -15 -12 -27t-27 -12h-82q-15 0 -27 12t-12 27z" />
<glyph unicode="&#xcd;" horiz-adv-x="577" d="M82.5 1672q3.5 11 13.5 16l307 172q8 7 27.5 6t26.5 -13l37 -73q6 -12 2.5 -25.5t-15.5 -17.5l-329 -138q-38 -16 -48 5l-20 45q-5 12 -1.5 23zM209 39v1356q0 15 12 27t27 12h82q15 0 27 -12t12 -27v-1356q0 -15 -12 -27t-27 -12h-82q-15 0 -27 12t-12 27z" />
<glyph unicode="&#xce;" horiz-adv-x="577" d="M2 1645.5q4 10.5 14 17.5l246 192q12 9 27 9q14 0 26 -9l246 -192q10 -7 14 -17.5t-2 -21.5q-3 -5 -10.5 -17t-12.5 -18.5t-13 -13t-17.5 -5.5t-21.5 9l-209 143l-209 -139q-30 -19 -47 4l-29 37q-6 11 -2 21.5zM209 39v1356q0 15 12 27t27 12h82q15 0 27 -12t12 -27 v-1356q0 -15 -12 -27t-27 -12h-82q-15 0 -27 12t-12 27z" />
<glyph unicode="&#xcf;" horiz-adv-x="577" d="M-23 1718q0 41 28.5 70t68.5 29q41 0 69.5 -29t28.5 -70q0 -40 -28.5 -68t-69.5 -28q-40 0 -68.5 28t-28.5 68zM209 39v1356q0 15 12 27t27 12h82q15 0 27 -12t12 -27v-1356q0 -15 -12 -27t-27 -12h-82q-15 0 -27 12t-12 27zM410 1718q0 41 28 70t68 29q41 0 69.5 -29 t28.5 -70q0 -40 -28.5 -68t-69.5 -28q-40 0 -68 28t-28 68z" />
<glyph unicode="&#xd0;" horiz-adv-x="1538" d="M121 702v15q0 15 11 27t26 12h59v639q0 15 11 27t26 12h459q145 0 278.5 -57t230 -153t153.5 -228t57 -277q0 -117 -36.5 -227t-103 -198t-155 -154.5t-198 -103t-226.5 -36.5h-459q-15 0 -26 12t-11 27v625h-59q-15 0 -26 11.5t-11 26.5zM373 141h307q166 0 298.5 73.5 t207 205.5t74.5 299q0 251 -163.5 413t-416.5 162h-307v-538h432q17 0 28 -11.5t11 -27.5v-17q0 -15 -11 -25.5t-28 -10.5h-432v-523z" />
<glyph unicode="&#xd1;" horiz-adv-x="1585" d="M209 39v1378q0 15 12 26t27 11h51l924 -1151h4v1092q0 16 11 27.5t28 11.5h71q15 0 27 -12t12 -27v-1379q0 -15 -12 -25.5t-27 -10.5h-37l-940 1173h-2v-1114q0 -16 -11 -27.5t-28 -11.5h-71q-15 0 -27 12t-12 27zM516 1692q2 3 11 25t16 37t23.5 37.5t34 36.5t45 25 t59.5 11q42 0 78 -24t57 -52t45.5 -52t44.5 -24q62 0 92 105q10 32 47 16l33 -16q6 -3 9.5 -7.5t4.5 -8.5t0.5 -10.5t-1 -9.5t-3 -10t-2.5 -8q-56 -166 -182 -166q-38 0 -74.5 24t-59.5 53t-48.5 53t-43.5 24q-19 0 -34.5 -9t-26.5 -26.5t-16.5 -31.5t-12.5 -35 q-5 -17 -17.5 -23.5t-33.5 2.5l-37 19q-22 11 -8 45z" />
<glyph unicode="&#xd2;" horiz-adv-x="1681" d="M104 715q0 151 58 288t156 236t234.5 157t287.5 58t287.5 -58t235 -157t156.5 -236t58 -288t-58 -287.5t-156.5 -234.5t-235 -155.5t-287.5 -57.5q-202 0 -371 97.5t-267 266.5t-98 371zM248 715q0 -160 79.5 -296.5t216 -216t296.5 -79.5t297 79.5t217 216t80 296.5 t-80 297.5t-217 218t-297 80.5t-296.5 -80.5t-216 -218t-79.5 -297.5zM652.5 1754.5q-3.5 13.5 2.5 25.5l37 73q7 12 26 13t27 -6l308 -172q10 -5 13.5 -16t-1.5 -23l-21 -45q-6 -12 -15.5 -13t-31.5 8l-329 138q-12 4 -15.5 17.5z" />
<glyph unicode="&#xd3;" horiz-adv-x="1681" d="M104 715q0 151 58 288t156 236t234.5 157t287.5 58t287.5 -58t235 -157t156.5 -236t58 -288t-58 -287.5t-156.5 -234.5t-235 -155.5t-287.5 -57.5q-202 0 -371 97.5t-267 266.5t-98 371zM248 715q0 -160 79.5 -296.5t216 -216t296.5 -79.5t297 79.5t217 216t80 296.5 t-80 297.5t-217 218t-297 80.5t-296.5 -80.5t-216 -218t-79.5 -297.5zM654 1672q4 11 14 16l307 172q8 7 27 6t26 -13l37 -73q6 -12 3 -25.5t-15 -17.5l-330 -138q-22 -9 -31.5 -8t-15.5 13l-21 45q-5 12 -1 23z" />
<glyph unicode="&#xd4;" horiz-adv-x="1681" d="M104 715q0 151 58 288t156 236t234.5 157t287.5 58t287.5 -58t235 -157t156.5 -236t58 -288t-58 -287.5t-156.5 -234.5t-235 -155.5t-287.5 -57.5q-202 0 -371 97.5t-267 266.5t-98 371zM248 715q0 -160 79.5 -296.5t216 -216t296.5 -79.5t297 79.5t217 216t80 296.5 t-80 297.5t-217 218t-297 80.5t-296.5 -80.5t-216 -218t-79.5 -297.5zM553 1645.5q4 10.5 14 17.5l246 192q12 9 27 9q14 0 26 -9l246 -192q10 -7 14 -17.5t-2 -21.5q-3 -5 -10.5 -17t-12.5 -18.5t-13 -13t-17.5 -5.5t-21.5 9l-209 143l-209 -139q-30 -19 -47 4l-29 37 q-6 11 -2 21.5z" />
<glyph unicode="&#xd5;" horiz-adv-x="1681" d="M104 715q0 151 58 288t156 236t234.5 157t287.5 58t287.5 -58t235 -157t156.5 -236t58 -288t-58 -287.5t-156.5 -234.5t-235 -155.5t-287.5 -57.5q-202 0 -371 97.5t-267 266.5t-98 371zM248 715q0 -160 79.5 -296.5t216 -216t296.5 -79.5t297 79.5t217 216t80 296.5 t-80 297.5t-217 218t-297 80.5t-296.5 -80.5t-216 -218t-79.5 -297.5zM539 1692q2 4 11 25t16 36.5t23 38t33.5 37t45 25t59.5 10.5q42 0 78 -24t57 -52t45.5 -52t44.5 -24q62 0 92 105q10 33 48 16l32 -16q5 -2 8.5 -5.5t5 -8t2 -8t-0.5 -9.5t-1.5 -8.5t-2.5 -8t-2 -6.5 q-9 -27 -21.5 -51.5t-34 -52.5t-54.5 -45t-73 -17q-38 0 -74.5 24t-59 53t-48 53t-43.5 24q-19 0 -34.5 -9t-26.5 -26.5t-16.5 -31.5t-12.5 -35q-5 -17 -17.5 -23.5t-33.5 2.5l-37 19q-22 11 -8 45z" />
<glyph unicode="&#xd6;" horiz-adv-x="1681" d="M104 715q0 151 58 288t156 236t234.5 157t287.5 58t287.5 -58t235 -157t156.5 -236t58 -288t-58 -287.5t-156.5 -234.5t-235 -155.5t-287.5 -57.5q-202 0 -371 97.5t-267 266.5t-98 371zM248 715q0 -160 79.5 -296.5t216 -216t296.5 -79.5t297 79.5t217 216t80 296.5 t-80 297.5t-217 218t-297 80.5t-296.5 -80.5t-216 -218t-79.5 -297.5zM528 1718q0 41 28.5 70t68.5 29q41 0 69.5 -29t28.5 -70q0 -40 -28.5 -68t-69.5 -28q-40 0 -68.5 28t-28.5 68zM961 1718q0 41 28 70t68 29q41 0 69.5 -29t28.5 -70q0 -40 -28.5 -68t-69.5 -28 q-40 0 -68 28t-28 68z" />
<glyph unicode="&#xd7;" horiz-adv-x="985" d="M160 456q0 16 10 27l227 228l-227 227q-10 10 -10 27t10 28l39 41q11 10 28 10t27 -10l228 -227l229 229q11 10 26.5 9.5t26.5 -11.5l41 -41q11 -11 11.5 -26.5t-9.5 -26.5l-229 -229l229 -228q10 -12 9.5 -28t-11.5 -27l-41 -39q-11 -11 -26.5 -11.5t-26.5 9.5l-229 229 l-228 -227q-10 -11 -26 -11t-27 11l-41 41q-10 10 -10 26z" />
<glyph unicode="&#xd8;" horiz-adv-x="1681" d="M104 715q0 151 58 288t156 236t234.5 157t287.5 58q138 0 264.5 -49t226.5 -137l129 129q10 11 26 11t27 -11l11 -11q10 -10 10 -26t-10 -27l-129 -129q86 -100 134 -226t48 -263q0 -151 -58 -287.5t-156.5 -234.5t-235 -155.5t-287.5 -57.5q-139 0 -264.5 47t-223.5 133 l-125 -125q-11 -10 -26.5 -9.5t-26.5 11.5l-8 8q-11 11 -11.5 26.5t9.5 26.5l125 125q-185 211 -185 492zM248 715q0 -219 145 -387l836 837q-169 146 -389 146q-160 0 -296.5 -80.5t-216 -218t-79.5 -297.5zM457 264q78 -67 177 -104t206 -37q160 0 297 79.5t217 216 t80 296.5q0 108 -38 208t-106 177z" />
<glyph unicode="&#xd9;" horiz-adv-x="1466" d="M190 528v867q0 15 12 27t27 12h78q17 0 28 -11.5t11 -27.5v-854q0 -180 104.5 -298t280.5 -118q178 0 283.5 116.5t105.5 295.5v858q0 16 11 27.5t28 11.5h78q15 0 27 -12t12 -27v-867q0 -236 -152.5 -392t-392.5 -156q-158 0 -282 72t-191.5 196.5t-67.5 279.5z M521.5 1754.5q-3.5 13.5 2.5 25.5l37 73q7 12 26 13t27 -6l308 -172q10 -5 13.5 -16t-1.5 -23l-21 -45q-6 -12 -15.5 -13t-31.5 8l-329 138q-12 4 -15.5 17.5z" />
<glyph unicode="&#xda;" horiz-adv-x="1466" d="M190 528v867q0 15 12 27t27 12h78q17 0 28 -11.5t11 -27.5v-854q0 -180 104.5 -298t280.5 -118q178 0 283.5 116.5t105.5 295.5v858q0 16 11 27.5t28 11.5h78q15 0 27 -12t12 -27v-867q0 -236 -152.5 -392t-392.5 -156q-158 0 -282 72t-191.5 196.5t-67.5 279.5z M523 1672q4 11 14 16l307 172q8 7 27 6t26 -13l37 -73q6 -12 3 -25.5t-15 -17.5l-330 -138q-22 -9 -31.5 -8t-15.5 13l-21 45q-5 12 -1 23z" />
<glyph unicode="&#xdb;" horiz-adv-x="1466" d="M190 528v867q0 15 12 27t27 12h78q17 0 28 -11.5t11 -27.5v-854q0 -180 104.5 -298t280.5 -118q178 0 283.5 116.5t105.5 295.5v858q0 16 11 27.5t28 11.5h78q15 0 27 -12t12 -27v-867q0 -236 -152.5 -392t-392.5 -156q-158 0 -282 72t-191.5 196.5t-67.5 279.5z M436.5 1645.5q4.5 10.5 14.5 17.5l245 192q12 9 27 9t27 -9l245 -192q10 -7 14.5 -17.5t-1.5 -21.5q-3 -4 -10.5 -16.5t-12.5 -19t-13.5 -13t-18 -5.5t-21.5 9l-209 143l-209 -139q-30 -19 -47 4l-29 37q-6 11 -1.5 21.5z" />
<glyph unicode="&#xdc;" horiz-adv-x="1466" d="M190 528v867q0 15 12 27t27 12h78q17 0 28 -11.5t11 -27.5v-854q0 -180 104.5 -298t280.5 -118q178 0 283.5 116.5t105.5 295.5v858q0 16 11 27.5t28 11.5h78q15 0 27 -12t12 -27v-867q0 -236 -152.5 -392t-392.5 -156q-158 0 -282 72t-191.5 196.5t-67.5 279.5z M418 1718q0 41 28 70t68 29q41 0 69.5 -29t28.5 -70q0 -40 -28.5 -68t-69.5 -28q-40 0 -68 28t-28 68zM850 1718q0 41 28 70t68 29q41 0 69.5 -29t28.5 -70q0 -40 -28.5 -68t-69.5 -28q-40 0 -68 28t-28 68z" />
<glyph unicode="&#xdd;" horiz-adv-x="1157" d="M2.5 1414q10.5 20 34.5 20h96q19 0 33 -19l414 -571l413 571q14 19 33 19h96q24 0 34.5 -20t-1.5 -40l-500 -682v-653q0 -15 -12 -27t-27 -12h-79q-17 0 -28 11.5t-11 27.5v651l-494 684q-12 20 -1.5 40zM373.5 1672q3.5 11 13.5 16l307 172q8 7 27.5 6t26.5 -13l36 -73 q6 -12 3 -25.5t-15 -17.5l-330 -138q-22 -9 -31.5 -8t-15.5 13l-20 45q-5 12 -1.5 23z" />
<glyph unicode="&#xde;" horiz-adv-x="1222" d="M209 39v1354q0 16 11 28.5t28 12.5h78q15 0 27 -12t12 -27v-219h335q189 1 324 -133t135 -320q0 -190 -134.5 -325.5t-322.5 -135.5h-337v-223q0 -15 -12 -27t-27 -12h-78q-17 0 -28 11.5t-11 27.5zM365 414h325q127 0 219 91t92 222q0 123 -92 208t-219 85h-325v-606z " />
<glyph unicode="&#xdf;" horiz-adv-x="1107" d="M147 39v803q0 303 110 457.5t321 154.5q68 0 128 -17.5t109.5 -53.5t78 -97t28.5 -141q0 -67 -28.5 -136.5t-63 -116t-63 -94.5t-28.5 -77q0 -22 31 -53.5t74.5 -69t87.5 -82.5t75 -109.5t31 -134.5q0 -75 -28 -132.5t-76.5 -91.5t-107 -51t-124.5 -17q-62 0 -118.5 13.5 t-79.5 24.5q-12 5 -18.5 9.5t-11.5 15t-1 23.5l16 61q9 43 43 25q86 -48 170 -48q85 0 136 47t51 123q0 50 -32 99t-77.5 90t-90.5 80.5t-77 84t-32 87.5q0 42 30.5 101.5t67.5 110.5t67.5 110.5t30.5 101.5q0 88 -61.5 138t-141.5 50q-282 0 -282 -487v-801q0 -15 -12 -27 t-27 -12h-66q-15 0 -27 12t-12 27z" />
<glyph unicode="&#xe0;" horiz-adv-x="858" d="M86 248q0 120 87 196t241 76q39 0 82.5 -6.5t67.5 -13.5l24 -6q2 122 -24 171.5t-109 49.5q-127 0 -246 -45q-29 -11 -39 20l-16 51q-10 31 22 45q13 6 44.5 17t101.5 24t139 13q151 0 205.5 -79t54.5 -267v-455q0 -15 -12 -27t-27 -12h-39q-16 0 -23 7.5t-12 23.5 l-16 55q-106 -106 -254 -106q-109 0 -180.5 73.5t-71.5 194.5zM217 248q0 -63 39 -104.5t104 -41.5q71 0 133.5 35.5t92.5 79.5v162q-59 33 -172 33q-89 0 -143 -43t-54 -121zM247 1299.5q-3 13.5 3 25.5l37 74q7 12 26 12.5t27 -6.5l307 -172q10 -5 13.5 -16t-1.5 -23 l-20 -45q-6 -12 -15.5 -12.5t-31.5 8.5l-330 137q-12 4 -15 17.5z" />
<glyph unicode="&#xe1;" horiz-adv-x="858" d="M86 248q0 120 87 196t241 76q39 0 82.5 -6.5t67.5 -13.5l24 -6q2 122 -24 171.5t-109 49.5q-127 0 -246 -45q-29 -11 -39 20l-16 51q-10 31 22 45q13 6 44.5 17t101.5 24t139 13q151 0 205.5 -79t54.5 -267v-455q0 -15 -12 -27t-27 -12h-39q-16 0 -23 7.5t-12 23.5 l-16 55q-106 -106 -254 -106q-109 0 -180.5 73.5t-71.5 194.5zM217 248q0 -63 39 -104.5t104 -41.5q71 0 133.5 35.5t92.5 79.5v162q-59 33 -172 33q-89 0 -143 -43t-54 -121zM232 1217q4 11 14 16l307 172q8 7 27 6.5t26 -12.5l37 -74q6 -12 3 -25.5t-15 -17.5l-330 -137 q-22 -9 -31.5 -8.5t-15.5 12.5l-21 45q-5 12 -1 23z" />
<glyph unicode="&#xe2;" horiz-adv-x="858" d="M86 248q0 120 87 196t241 76q39 0 82.5 -6.5t67.5 -13.5l24 -6q2 122 -24 171.5t-109 49.5q-127 0 -246 -45q-29 -11 -39 20l-16 51q-10 31 22 45q13 6 44.5 17t101.5 24t139 13q151 0 205.5 -79t54.5 -267v-455q0 -15 -12 -27t-27 -12h-39q-16 0 -23 7.5t-12 23.5 l-16 55q-106 -106 -254 -106q-109 0 -180.5 73.5t-71.5 194.5zM137 1174q-14 20 13 38l245 193q11 8 27 8t27 -8l245 -193q27 -18 13 -38q-3 -4 -10.5 -16.5t-12.5 -19t-13.5 -13.5t-18 -6t-21.5 9l-209 144l-209 -139q-30 -19 -47 4zM217 248q0 -63 39 -104.5t104 -41.5 q71 0 133.5 35.5t92.5 79.5v162q-59 33 -172 33q-89 0 -143 -43t-54 -121z" />
<glyph unicode="&#xe3;" horiz-adv-x="858" d="M86 248q0 120 87 196t241 76q39 0 82.5 -6.5t67.5 -13.5l24 -6q2 122 -24 171.5t-109 49.5q-127 0 -246 -45q-29 -11 -39 20l-16 51q-10 31 22 45q13 6 44.5 17t101.5 24t139 13q151 0 205.5 -79t54.5 -267v-455q0 -15 -12 -27t-27 -12h-39q-16 0 -23 7.5t-12 23.5 l-16 55q-106 -106 -254 -106q-109 0 -180.5 73.5t-71.5 194.5zM123 1241q2 4 11 25t16 36.5t23 38t33.5 37t45 25t59.5 10.5q34 0 64 -15.5t51 -37.5t39 -44.5t36.5 -38t35.5 -15.5q62 0 92 104q10 32 47 16l33 -16q6 -3 9.5 -7.5t4.5 -8.5t0.5 -10t-1 -9.5t-3 -10 t-2.5 -7.5q-56 -166 -182 -166q-38 0 -74.5 24t-59.5 52.5t-48.5 52.5t-43.5 24q-19 0 -34.5 -9t-26.5 -26.5t-16.5 -31.5t-12.5 -35q-5 -17 -17.5 -23t-33.5 3l-37 18q-22 11 -8 45zM217 248q0 -63 39 -104.5t104 -41.5q71 0 133.5 35.5t92.5 79.5v162q-59 33 -172 33 q-89 0 -143 -43t-54 -121z" />
<glyph unicode="&#xe4;" horiz-adv-x="858" d="M86 248q0 120 87 196t241 76q39 0 82.5 -6.5t67.5 -13.5l24 -6q2 122 -24 171.5t-109 49.5q-127 0 -246 -45q-29 -11 -39 20l-16 51q-10 31 22 45q13 6 44.5 17t101.5 24t139 13q151 0 205.5 -79t54.5 -267v-455q0 -15 -12 -27t-27 -12h-39q-16 0 -23 7.5t-12 23.5 l-16 55q-106 -106 -254 -106q-109 0 -180.5 73.5t-71.5 194.5zM154 1294q0 41 28 70t68 29q41 0 69.5 -29t28.5 -70q0 -40 -28.5 -68t-69.5 -28q-40 0 -68 28t-28 68zM217 248q0 -63 39 -104.5t104 -41.5q71 0 133.5 35.5t92.5 79.5v162q-59 33 -172 33q-89 0 -143 -43 t-54 -121zM549 1294q0 41 28 70t68 29q41 0 69.5 -29t28.5 -70q0 -40 -28.5 -68t-69.5 -28q-40 0 -68 28t-28 68z" />
<glyph unicode="&#xe5;" horiz-adv-x="858" d="M86 248q0 120 87 196t241 76q39 0 82.5 -6.5t67.5 -13.5l24 -6q2 122 -24 171.5t-109 49.5q-127 0 -246 -45q-29 -11 -39 20l-16 51q-10 31 22 45q13 6 44.5 17t101.5 24t139 13q151 0 205.5 -79t54.5 -267v-455q0 -15 -12 -27t-27 -12h-39q-16 0 -23 7.5t-12 23.5 l-16 55q-106 -106 -254 -106q-109 0 -180.5 73.5t-71.5 194.5zM201 1231q0 94 64.5 158.5t158.5 64.5q93 0 158 -65t65 -158t-65 -158t-158 -65q-94 0 -158.5 64.5t-64.5 158.5zM217 248q0 -63 39 -104.5t104 -41.5q71 0 133.5 35.5t92.5 79.5v162q-59 33 -172 33 q-89 0 -143 -43t-54 -121zM299 1231q0 -49 37.5 -87t87.5 -38q49 0 85 37.5t36 87.5q0 49 -35.5 85t-85.5 36t-87.5 -36t-37.5 -85z" />
<glyph unicode="&#xe6;" horiz-adv-x="1413" d="M88 254q0 118 81.5 191t221.5 73q48 0 95 -3t70 -6l22 -3q2 122 -20 167.5t-95 45.5q-26 0 -51.5 -2t-49.5 -6t-42.5 -7.5t-39.5 -9.5t-31 -9t-27.5 -9t-18.5 -6q-15 -4 -27.5 4.5t-15.5 23.5l-10 52q-6 31 32 41q15 5 41 13.5t101.5 22t144.5 13.5q99 0 149.5 -28.5 t73.5 -84.5q116 113 275 113q157 0 262.5 -104.5t105.5 -270.5q0 -19 -1 -32t-4.5 -28t-12.5 -22.5t-23 -7.5h-573v-125q37 -64 105.5 -100.5t152.5 -36.5q111 0 203 57q3 2 10 5.5t9 5t7 4t7.5 2.5h6t6 -1.5t5.5 -4.5t6 -7l35 -47q9 -11 11.5 -17t-1 -15.5t-18.5 -20.5 q-48 -37 -127 -65.5t-174 -28.5q-201 0 -310 145q-45 -60 -126 -102.5t-173 -42.5q-120 0 -194 75t-74 199zM217 250q0 -73 48.5 -110.5t117.5 -37.5q60 0 115 31.5t84 73.5v182q-59 19 -170 19q-81 0 -138 -42.5t-57 -115.5zM725 492h471q-4 95 -70.5 158t-160.5 63 q-73 0 -140 -39.5t-100 -98.5v-83z" />
<glyph unicode="&#xe7;" horiz-adv-x="907" d="M86 408q0 118 59 218t156 157t207 57q180 0 293 -144q10 -14 8 -30t-16 -27l-39 -33q-9 -8 -16 -12t-14 -2t-9.5 3.5t-11 9.5t-9.5 9q-75 86 -188 86q-116 0 -194.5 -83.5t-78.5 -206.5q0 -124 78 -209.5t193 -85.5q26 0 48 3t41.5 11t32 13t29.5 19t23.5 19t23 21.5 l19.5 19.5q21 18 31.5 17.5t29.5 -13.5l23 -16q15 -11 19 -26.5t-5 -30.5q-44 -71 -117.5 -117t-164.5 -53v-91q97 -12 156 -67.5t59 -142.5q0 -89 -62 -151t-153 -62q-45 0 -87 19.5t-69 51.5q-12 14 -11.5 29.5t11.5 23.5l29 23q11 8 25 8.5t22 -8.5q34 -37 84 -37 q41 0 65.5 27t24.5 69q0 33 -15.5 57.5t-44.5 38.5t-53 20.5t-57 12.5q-35 7 -35 41v144q-145 27 -242.5 143.5t-97.5 276.5z" />
<glyph unicode="&#xe8;" horiz-adv-x="935" d="M86 410q0 180 110.5 305t290.5 125q161 0 266 -106.5t105 -268.5q0 -27 -4 -55q-1 -15 -12 -25t-25 -10h-590q6 -105 87 -185.5t188 -80.5q104 0 203 61q3 2 10 5.5t9 5t7 4t7.5 2.5h6t6 -1.5t5.5 -4.5t6 -7q6 -8 17.5 -23.5t17.5 -23.5q13 -12 12.5 -24.5t-21.5 -28.5 q-45 -36 -125.5 -65t-175.5 -29q-181 0 -291 124t-110 306zM229 489h488q-5 91 -71.5 158.5t-158.5 67.5q-102 0 -174.5 -65t-83.5 -161zM278 1299.5q-3 13.5 3 25.5l36 74q7 12 26.5 12.5t27.5 -6.5l307 -172q10 -5 13.5 -16t-1.5 -23l-20 -45q-6 -12 -15.5 -12.5 t-31.5 8.5l-330 137q-12 4 -15 17.5z" />
<glyph unicode="&#xe9;" horiz-adv-x="935" d="M86 410q0 180 110.5 305t290.5 125q161 0 266 -106.5t105 -268.5q0 -27 -4 -55q-1 -15 -12 -25t-25 -10h-590q6 -105 87 -185.5t188 -80.5q104 0 203 61q3 2 10 5.5t9 5t7 4t7.5 2.5h6t6 -1.5t5.5 -4.5t6 -7q6 -8 17.5 -23.5t17.5 -23.5q13 -12 12.5 -24.5t-21.5 -28.5 q-45 -36 -125.5 -65t-175.5 -29q-181 0 -291 124t-110 306zM229 489h488q-5 91 -71.5 158.5t-158.5 67.5q-102 0 -174.5 -65t-83.5 -161zM273 1217q4 11 14 16l307 172q8 7 27 6.5t26 -12.5l37 -74q6 -12 3 -25.5t-15 -17.5l-330 -137q-22 -9 -31.5 -8.5t-15.5 12.5l-21 45 q-5 12 -1 23z" />
<glyph unicode="&#xea;" horiz-adv-x="935" d="M86 410q0 180 110.5 305t290.5 125q161 0 266 -106.5t105 -268.5q0 -27 -4 -55q-1 -15 -12 -25t-25 -10h-590q6 -105 87 -185.5t188 -80.5q104 0 203 61q3 2 10 5.5t9 5t7 4t7.5 2.5h6t6 -1.5t5.5 -4.5t6 -7q6 -8 17.5 -23.5t17.5 -23.5q13 -12 12.5 -24.5t-21.5 -28.5 q-45 -36 -125.5 -65t-175.5 -29q-181 0 -291 124t-110 306zM205 1195q4 10 14 17l246 193q11 8 27 8q15 0 26 -8l246 -193q10 -7 14 -17t-2 -21q-3 -4 -10.5 -16.5t-12.5 -19t-13.5 -13.5t-18 -6t-21.5 9l-208 144l-209 -139q-30 -19 -47 4l-29 37q-6 11 -2 21zM229 489h488 q-5 91 -71.5 158.5t-158.5 67.5q-102 0 -174.5 -65t-83.5 -161z" />
<glyph unicode="&#xeb;" horiz-adv-x="935" d="M86 410q0 180 110.5 305t290.5 125q161 0 266 -106.5t105 -268.5q0 -27 -4 -55q-1 -15 -12 -25t-25 -10h-590q6 -105 87 -185.5t188 -80.5q104 0 203 61q3 2 10 5.5t9 5t7 4t7.5 2.5h6t6 -1.5t5.5 -4.5t6 -7q6 -8 17.5 -23.5t17.5 -23.5q13 -12 12.5 -24.5t-21.5 -28.5 q-45 -36 -125.5 -65t-175.5 -29q-181 0 -291 124t-110 306zM190 1294q0 41 28.5 70t68.5 29q41 0 69.5 -29t28.5 -70q0 -40 -28.5 -68t-69.5 -28q-40 0 -68.5 28t-28.5 68zM229 489h488q-5 91 -71.5 158.5t-158.5 67.5q-102 0 -174.5 -65t-83.5 -161zM586 1294q0 41 28 70 t68 29q41 0 69.5 -29t28.5 -70q0 -40 -28.5 -68t-69.5 -28q-40 0 -68 28t-28 68z" />
<glyph unicode="&#xec;" horiz-adv-x="432" d="M9.5 1299.5q-3.5 13.5 2.5 25.5l37 74q7 12 26 12.5t27 -6.5l308 -172q10 -5 13.5 -16t-1.5 -23l-21 -45q-6 -12 -15.5 -12.5t-31.5 8.5l-329 137q-12 4 -15.5 17.5zM145 39v741q0 15 12 27t27 12h64q15 0 27 -12t12 -27v-741q0 -15 -12 -27t-27 -12h-64q-15 0 -27 12 t-12 27z" />
<glyph unicode="&#xed;" horiz-adv-x="432" d="M11 1217q4 11 14 16l307 172q8 7 27 6.5t26 -12.5l37 -74q6 -12 3 -25.5t-15 -17.5l-330 -137q-22 -9 -31.5 -8.5t-15.5 12.5l-21 45q-5 12 -1 23zM145 39v741q0 15 12 27t27 12h64q15 0 27 -12t12 -27v-741q0 -15 -12 -27t-27 -12h-64q-15 0 -27 12t-12 27z" />
<glyph unicode="&#xee;" horiz-adv-x="432" d="M-66 1174q-14 20 13 38l246 193q11 8 26 8q16 0 27 -8l246 -193q10 -7 14 -17t-2 -21q-3 -4 -10.5 -16.5t-12.5 -19t-13.5 -13.5t-18 -6t-21.5 9l-209 144l-209 -139q-30 -19 -47 4zM145 39v741q0 15 12 27t27 12h64q15 0 27 -12t12 -27v-741q0 -15 -12 -27t-27 -12h-64 q-15 0 -27 12t-12 27z" />
<glyph unicode="&#xef;" horiz-adv-x="432" d="M-78 1294q0 41 28 70t68 29q41 0 70 -29t29 -70q0 -40 -29 -68t-70 -28q-40 0 -68 28t-28 68zM145 39v741q0 15 12 27t27 12h64q15 0 27 -12t12 -27v-741q0 -15 -12 -27t-27 -12h-64q-15 0 -27 12t-12 27zM317 1294q0 41 28.5 70t68.5 29q41 0 69.5 -29t28.5 -70 q0 -40 -28.5 -68t-69.5 -28q-40 0 -68.5 28t-28.5 68z" />
<glyph unicode="&#xf0;" horiz-adv-x="1114" d="M84 449q0 99 36.5 183.5t97 141t140 88t166.5 31.5q78 0 156 -23t117 -46l39 -23q-49 185 -263 352l-198 -115q-14 -7 -29.5 -2t-21.5 17l-9 14q-8 12 -4 28t17 23l164 94q-118 75 -203 109q-34 14 -17 49l27 55q11 25 41 15q154 -60 283 -152l143 82q15 9 30 4.5 t23 -18.5l8 -15q8 -12 3.5 -27t-17.5 -24l-111 -63q312 -272 312 -664q0 -125 -28.5 -229t-85 -184t-149.5 -125t-214 -45q-130 0 -234.5 63.5t-161.5 170.5t-57 235zM229 440q0 -133 90 -229t218 -96q68 0 124 23.5t93 63.5t64 92t37.5 109t14 115t-7.5 109q-5 5 -15.5 14 t-43.5 32t-68.5 40.5t-89 32t-106.5 14.5q-129 0 -219.5 -93.5t-90.5 -226.5z" />
<glyph unicode="&#xf1;" horiz-adv-x="1013" d="M145 39v741q0 15 12 27t27 12h39q27 0 33 -24l18 -64q5 4 14 11.5t38 26.5t60.5 33t79 26t95.5 12q318 0 318 -369v-432q0 -15 -12 -27t-27 -12h-66q-15 0 -27 12t-12 27v432q0 115 -48 173t-136 58q-43 0 -86 -12t-74 -29t-55 -34t-36 -29l-13 -12v-547q0 -15 -12 -27 t-27 -12h-64q-15 0 -27 12t-12 27zM215 1241q2 4 11 25t16 36.5t23 38t33.5 37t45 25t59.5 10.5q34 0 64 -15.5t51 -37.5t39 -44.5t36.5 -38t35.5 -15.5q62 0 92 104q10 32 47 16l33 -16q6 -3 9.5 -7.5t4.5 -8.5t0.5 -10t-1 -9.5t-3 -10t-2.5 -7.5q-56 -166 -182 -166 q-38 0 -74.5 24t-59.5 52.5t-48.5 52.5t-43.5 24q-19 0 -34.5 -9t-26.5 -26.5t-16.5 -31.5t-12.5 -35q-5 -17 -17.5 -23t-33.5 3l-37 18q-22 11 -8 45z" />
<glyph unicode="&#xf2;" d="M86 412q0 174 119.5 301t288.5 127q111 0 205 -58.5t148 -157t54 -212.5q0 -178 -119 -305t-288 -127q-111 0 -205.5 58.5t-148.5 158t-54 215.5zM227 412q0 -125 77.5 -212t189.5 -87t189 87t77 212q0 122 -77 207.5t-189 85.5t-189.5 -85.5t-77.5 -207.5zM286 1299.5 q-3 13.5 3 25.5l37 74q7 12 26 12.5t27 -6.5l307 -172q10 -5 13.5 -16t-1.5 -23l-20 -45q-6 -12 -15.5 -12.5t-31.5 8.5l-330 137q-12 4 -15 17.5z" />
<glyph unicode="&#xf3;" d="M86 412q0 174 119.5 301t288.5 127q111 0 205 -58.5t148 -157t54 -212.5q0 -178 -119 -305t-288 -127q-111 0 -205.5 58.5t-148.5 158t-54 215.5zM227 412q0 -125 77.5 -212t189.5 -87t189 87t77 212q0 122 -77 207.5t-189 85.5t-189.5 -85.5t-77.5 -207.5zM287.5 1217 q3.5 11 13.5 16l307 172q8 7 27.5 6.5t26.5 -12.5l36 -74q6 -12 3 -25.5t-15 -17.5l-330 -137q-22 -9 -31.5 -8.5t-15.5 12.5l-20 45q-5 12 -1.5 23z" />
<glyph unicode="&#xf4;" d="M86 412q0 174 119.5 301t288.5 127q111 0 205 -58.5t148 -157t54 -212.5q0 -178 -119 -305t-288 -127q-111 0 -205.5 58.5t-148.5 158t-54 215.5zM207 1195q4 10 14 17l246 193q11 8 27 8q15 0 26 -8l246 -193q10 -7 14 -17t-2 -21q-3 -4 -10.5 -16.5t-12.5 -19 t-13.5 -13.5t-18 -6t-21.5 9l-208 144l-209 -139q-30 -19 -47 4l-29 37q-6 11 -2 21zM227 412q0 -125 77.5 -212t189.5 -87t189 87t77 212q0 122 -77 207.5t-189 85.5t-189.5 -85.5t-77.5 -207.5z" />
<glyph unicode="&#xf5;" d="M86 412q0 174 119.5 301t288.5 127q111 0 205 -58.5t148 -157t54 -212.5q0 -178 -119 -305t-288 -127q-111 0 -205.5 58.5t-148.5 158t-54 215.5zM195 1241q2 4 11 25t16 36.5t23 38t33.5 37t45 25t59.5 10.5q42 0 78 -23.5t57 -52t45.5 -52t44.5 -23.5q62 0 92 104 q10 33 48 16l32 -16q6 -3 9.5 -7.5t4.5 -8.5t0.5 -10t-1 -9.5t-3 -10t-2.5 -7.5q-56 -166 -182 -166q-38 0 -74.5 24t-59 52.5t-48 52.5t-43.5 24q-19 0 -34.5 -9t-26.5 -26.5t-16.5 -31.5t-12.5 -35q-5 -17 -17.5 -23t-33.5 3l-37 18q-22 11 -8 45zM227 412 q0 -125 77.5 -212t189.5 -87t189 87t77 212q0 122 -77 207.5t-189 85.5t-189.5 -85.5t-77.5 -207.5z" />
<glyph unicode="&#xf6;" d="M86 412q0 174 119.5 301t288.5 127q111 0 205 -58.5t148 -157t54 -212.5q0 -178 -119 -305t-288 -127q-111 0 -205.5 58.5t-148.5 158t-54 215.5zM197 1294q0 41 28 70t68 29q41 0 69.5 -29t28.5 -70q0 -40 -28.5 -68t-69.5 -28q-40 0 -68 28t-28 68zM227 412 q0 -125 77.5 -212t189.5 -87t189 87t77 212q0 122 -77 207.5t-189 85.5t-189.5 -85.5t-77.5 -207.5zM592 1294q0 41 28 70t68 29q41 0 69.5 -29t28.5 -70q0 -40 -28.5 -68t-69.5 -28q-40 0 -68 28t-28 68z" />
<glyph unicode="&#xf7;" horiz-adv-x="1101" d="M123 682v57q0 15 12 27t27 12h780q15 0 26 -12t11 -27v-57q0 -15 -11 -27t-26 -12h-780q-15 0 -27 12t-12 27zM428 350q0 49 34.5 83t82.5 34q49 0 83 -33.5t34 -83.5q0 -48 -34 -82.5t-83 -34.5q-47 0 -82 35t-35 82zM428 1083q0 49 34.5 83t82.5 34q49 0 83 -34t34 -83 q0 -48 -34 -82t-83 -34q-47 0 -82 34.5t-35 81.5z" />
<glyph unicode="&#xf8;" horiz-adv-x="983" d="M88 414q0 174 118.5 300t287.5 126q148 0 262 -103l43 43q12 12 28.5 12t26.5 -12l10 -10q12 -10 12 -26t-12 -27l-47 -47q82 -116 82 -256q0 -178 -118 -306t-287 -128q-151 0 -263 98l-28 -29q-11 -12 -27.5 -11.5t-28.5 11.5l-8 10q-12 10 -12.5 27t10.5 27l33 32 q-82 119 -82 269zM229 414q0 -97 41 -168l389 395q-70 64 -165 64q-112 0 -188.5 -84.5t-76.5 -206.5zM328 174q70 -61 166 -61q112 0 188 88t76 213q0 87 -41 155z" />
<glyph unicode="&#xf9;" horiz-adv-x="993" d="M135 350v430q0 15 12 27t27 12h66q15 0 27 -12t12 -27v-432q0 -115 48 -173t136 -58q44 0 85 12t68.5 29t49 34t31.5 29l10 12v547q0 15 11.5 27t26.5 12h64q15 0 27 -12t12 -27v-741q0 -15 -12 -27t-27 -12h-39q-16 0 -24 9t-13 26l-14 53l-11.5 -11.5t-33 -26 t-54.5 -33t-74 -26t-93 -11.5q-318 0 -318 370zM300 1299.5q-3 13.5 3 25.5l37 74q7 12 26 12.5t27 -6.5l307 -172q10 -5 14 -16t-1 -23l-21 -45q-6 -12 -15.5 -12.5t-31.5 8.5l-330 137q-12 4 -15 17.5z" />
<glyph unicode="&#xfa;" horiz-adv-x="993" d="M135 350v430q0 15 12 27t27 12h66q15 0 27 -12t12 -27v-432q0 -115 48 -173t136 -58q44 0 85 12t68.5 29t49 34t31.5 29l10 12v547q0 15 11.5 27t26.5 12h64q15 0 27 -12t12 -27v-741q0 -15 -12 -27t-27 -12h-39q-16 0 -24 9t-13 26l-14 53l-11.5 -11.5t-33 -26 t-54.5 -33t-74 -26t-93 -11.5q-318 0 -318 370zM299.5 1217q3.5 11 13.5 16l308 172q8 7 27 6.5t26 -12.5l37 -74q6 -12 2.5 -25.5t-15.5 -17.5l-329 -137q-22 -9 -31.5 -8.5t-15.5 12.5l-21 45q-5 12 -1.5 23z" />
<glyph unicode="&#xfb;" horiz-adv-x="993" d="M135 350v430q0 15 12 27t27 12h66q15 0 27 -12t12 -27v-432q0 -115 48 -173t136 -58q44 0 85 12t68.5 29t49 34t31.5 29l10 12v547q0 15 11.5 27t26.5 12h64q15 0 27 -12t12 -27v-741q0 -15 -12 -27t-27 -12h-39q-16 0 -24 9t-13 26l-14 53l-11.5 -11.5t-33 -26 t-54.5 -33t-74 -26t-93 -11.5q-318 0 -318 370zM217 1195q4 10 14 17l246 193q11 8 27 8q15 0 26 -8l246 -193q10 -7 14 -17t-2 -21q-3 -5 -10.5 -17t-12.5 -18.5t-13 -13.5t-17.5 -6t-21.5 9l-209 144l-209 -139q-30 -19 -47 4l-29 37q-6 11 -2 21z" />
<glyph unicode="&#xfc;" horiz-adv-x="993" d="M135 350v430q0 15 12 27t27 12h66q15 0 27 -12t12 -27v-432q0 -115 48 -173t136 -58q44 0 85 12t68.5 29t49 34t31.5 29l10 12v547q0 15 11.5 27t26.5 12h64q15 0 27 -12t12 -27v-741q0 -15 -12 -27t-27 -12h-39q-16 0 -24 9t-13 26l-14 53l-11.5 -11.5t-33 -26 t-54.5 -33t-74 -26t-93 -11.5q-318 0 -318 370zM203 1294q0 41 28 70t68 29q41 0 69.5 -29t28.5 -70q0 -40 -28.5 -68t-69.5 -28q-40 0 -68 28t-28 68zM598 1294q0 41 28 70t68 29q41 0 70 -29t29 -70q0 -40 -29 -68t-70 -28q-40 0 -68 28t-28 68z" />
<glyph unicode="&#xfd;" horiz-adv-x="954" d="M28 806.5q8 12.5 31 12.5h91q23 0 34 -22l303 -627h2l287 627q11 22 35 22h78q23 0 32 -13.5t-1 -33.5l-629 -1362q-12 -24 -35 -24h-76q-24 0 -33.5 14.5t0.5 36.5l263 565l-381 772q-9 20 -1 32.5zM281.5 1217q3.5 11 13.5 16l307 172q8 7 27 6.5t26 -12.5l37 -74 q6 -12 3 -25.5t-15 -17.5l-330 -137q-22 -9 -31.5 -8.5t-15.5 12.5l-20 45q-5 12 -1.5 23z" />
<glyph unicode="&#xfe;" d="M147 -575v1970q0 15 12 27t27 12h64q15 0 27 -12t12 -27v-633q3 3 9 8.5t27.5 19t45.5 23.5t63 18.5t80 8.5q115 0 204 -59t136 -157t47 -216q0 -181 -112.5 -304.5t-280.5 -123.5q-38 0 -74.5 7t-61.5 16.5t-44.5 19.5t-29.5 17l-9 7v-622q0 -15 -12 -27t-27 -12h-64 q-15 0 -27 12t-12 27zM291 188q10 -8 27 -20t69 -31.5t102 -19.5q117 0 193 84.5t76 208.5q0 129 -66.5 215t-191.5 86q-37 0 -72.5 -10.5t-59 -25.5t-42 -29.5t-26.5 -25.5l-9 -10v-422z" />
<glyph unicode="&#xff;" horiz-adv-x="954" d="M28 806.5q8 12.5 31 12.5h91q23 0 34 -22l303 -627h2l287 627q11 22 35 22h78q23 0 32 -13.5t-1 -33.5l-629 -1362q-12 -24 -35 -24h-76q-24 0 -33.5 14.5t0.5 36.5l263 565l-381 772q-9 20 -1 32.5zM193 1294q0 41 28 70t68 29q41 0 69.5 -29t28.5 -70q0 -40 -28.5 -68 t-69.5 -28q-40 0 -68 28t-28 68zM588 1294q0 41 28 70t68 29q41 0 69.5 -29t28.5 -70q0 -40 -28.5 -68t-69.5 -28q-40 0 -68 28t-28 68z" />
<glyph unicode="&#x100;" horiz-adv-x="1357" d="M12 53l623 1379q11 22 35 22h20q24 0 35 -22l618 -1379q9 -21 -1 -37t-33 -16h-82q-26 0 -35 23l-152 337h-727l-149 -337q-9 -23 -35 -23h-82q-23 0 -33.5 16.5t-1.5 36.5zM371 487h614q-50 111 -149.5 336t-149.5 336h-16zM377 1718v43q0 17 11 28t28 11h524 q17 0 28 -11t11 -28v-43q0 -15 -11 -26t-28 -11h-524q-17 0 -28 11t-11 26z" />
<glyph unicode="&#x101;" horiz-adv-x="858" d="M86 248q0 120 87 196t241 76q39 0 82.5 -6.5t67.5 -13.5l24 -6q2 122 -24 171.5t-109 49.5q-127 0 -246 -45q-29 -11 -39 20l-16 51q-10 31 22 45q13 6 44.5 17t101.5 24t139 13q151 0 205.5 -79t54.5 -267v-455q0 -15 -12 -27t-27 -12h-39q-16 0 -23 7.5t-12 23.5 l-16 55q-106 -106 -254 -106q-109 0 -180.5 73.5t-71.5 194.5zM119 1231v43q0 17 11 28t28 11h524q17 0 28 -11t11 -28v-43q0 -15 -11 -26t-28 -11h-524q-17 0 -28 11t-11 26zM217 248q0 -63 39 -104.5t104 -41.5q71 0 133.5 35.5t92.5 79.5v162q-59 33 -172 33 q-89 0 -143 -43t-54 -121z" />
<glyph unicode="&#x102;" horiz-adv-x="1357" d="M12 53l623 1379q11 22 35 22h20q24 0 35 -22l618 -1379q9 -21 -1 -37t-33 -16h-82q-26 0 -35 23l-152 337h-727l-149 -337q-9 -23 -35 -23h-82q-23 0 -33.5 16.5t-1.5 36.5zM371 487h614q-50 111 -149.5 336t-149.5 336h-16zM401 1812q-7 41 29 41h43q28 0 39 -34 q18 -60 62 -95.5t104 -35.5q55 0 99.5 37.5t62.5 93.5q12 34 39 34h47q17 0 24 -11.5t4 -29.5q-17 -101 -94 -167t-182 -66q-107 0 -185 66.5t-92 166.5z" />
<glyph unicode="&#x103;" horiz-adv-x="858" d="M86 248q0 120 87 196t241 76q39 0 82.5 -6.5t67.5 -13.5l24 -6q2 122 -24 171.5t-109 49.5q-127 0 -246 -45q-29 -11 -39 20l-16 51q-10 31 22 45q13 6 44.5 17t101.5 24t139 13q151 0 205.5 -79t54.5 -267v-455q0 -15 -12 -27t-27 -12h-39q-16 0 -23 7.5t-12 23.5 l-16 55q-106 -106 -254 -106q-109 0 -180.5 73.5t-71.5 194.5zM166 1321q-7 41 29 41h43q26 0 38 -35q18 -60 62 -95.5t104 -35.5q55 0 99.5 37.5t62.5 93.5q12 35 39 35h47q17 0 24.5 -11.5t4.5 -29.5q-17 -101 -94.5 -167.5t-182.5 -66.5q-107 0 -184.5 67t-91.5 167z M217 248q0 -63 39 -104.5t104 -41.5q71 0 133.5 35.5t92.5 79.5v162q-59 33 -172 33q-89 0 -143 -43t-54 -121z" />
<glyph unicode="&#x104;" horiz-adv-x="1357" d="M12 53l623 1379q11 22 35 22h20q24 0 35 -22l618 -1379q9 -21 -1 -37t-33 -16h-27q-96 -91 -96 -203q0 -50 35 -83t82 -33q50 0 112 32q13 6 25 -1.5t12 -26.5v-52q0 -12 -7 -19t-22 -15q-62 -31 -143 -31q-93 0 -155 53.5t-62 155.5q0 135 131 239l-154 344h-727 l-149 -337q-9 -23 -35 -23h-82q-23 0 -33.5 16.5t-1.5 36.5zM371 487h614l-299 672h-16z" />
<glyph unicode="&#x105;" horiz-adv-x="860" d="M86 248q0 120 87 196t241 76q39 0 82.5 -6.5t67.5 -13.5l24 -6q2 122 -25.5 174.5t-109.5 52.5q-27 0 -55.5 -3t-49.5 -7t-45.5 -10.5t-37.5 -10.5t-32 -10.5t-22 -7.5q-14 -4 -26 4t-17 24l-14 41q-8 32 22 45q15 8 42 17.5t98.5 23t148.5 13.5q74 0 125 -21.5t76.5 -49 t38.5 -83.5t14.5 -92t1.5 -107v-20v-428q0 -13 -9.5 -24.5t-21.5 -14.5q-37 -32 -67.5 -85t-30.5 -118q0 -50 35 -83t82 -33q50 0 112 32q13 6 25 -1.5t12 -26.5v-52q0 -12 -7 -19t-22 -15q-62 -31 -143 -31q-93 0 -155 53.5t-62 155.5q0 44 14.5 85t35.5 69t41.5 50 t35.5 32l14 10l-18 63q-106 -106 -254 -106q-109 0 -180.5 73.5t-71.5 194.5zM217 248q0 -63 39 -104.5t104 -41.5q71 0 133.5 35.5t92.5 79.5v162q-59 33 -172 33q-89 0 -143 -43t-54 -121z" />
<glyph unicode="&#x106;" horiz-adv-x="1447" d="M104 715q0 202 99 372t269 268.5t372 98.5q149 0 267 -48t228 -142q12 -12 13 -29t-11 -29l-55 -55q-23 -28 -53 2q-81 71 -185 112.5t-206 41.5q-119 0 -225.5 -48t-182 -128t-120 -188.5t-44.5 -225.5q0 -156 74.5 -291t207 -216t290.5 -81q64 0 119 11.5t104.5 36 t83.5 46.5t84 60q26 21 49 6l61 -56q11 -10 10 -27t-12 -28q-204 -198 -497 -198q-202 0 -372 97.5t-269 266.5t-99 371zM656 1672q4 11 14 16l307 172q8 7 27 6t26 -13l37 -73q6 -12 3 -25.5t-15 -17.5l-330 -138q-22 -9 -31.5 -8t-15.5 13l-21 45q-5 12 -1 23z" />
<glyph unicode="&#x107;" horiz-adv-x="903" d="M84 408q0 118 59 218t156 157t207 57q180 0 293 -144q10 -14 8 -30t-16 -27l-39 -33q-9 -8 -16 -12t-14 -2t-9.5 3.5t-11 9.5t-9.5 9q-75 86 -188 86q-116 0 -194.5 -83.5t-78.5 -206.5q0 -124 78 -209.5t193 -85.5q26 0 48 3t41.5 11t32 13t29.5 19t23.5 19t23 21.5 l19.5 19.5q21 18 31.5 17.5t29.5 -13.5l23 -16q15 -11 19 -26.5t-5 -30.5q-48 -77 -130.5 -124.5t-182.5 -47.5q-173 0 -296.5 123t-123.5 305zM299.5 1217q3.5 11 13.5 16l308 172q8 7 27 6.5t26 -12.5l37 -74q6 -12 2.5 -25.5t-15.5 -17.5l-329 -137q-22 -9 -31.5 -8.5 t-15.5 12.5l-21 45q-5 12 -1.5 23z" />
<glyph unicode="&#x108;" horiz-adv-x="1447" d="M104 715q0 202 99 372t269 268.5t372 98.5q149 0 267 -48t228 -142q12 -12 13 -29t-11 -29l-55 -55q-23 -28 -53 2q-81 71 -185 112.5t-206 41.5q-119 0 -225.5 -48t-182 -128t-120 -188.5t-44.5 -225.5q0 -156 74.5 -291t207 -216t290.5 -81q64 0 119 11.5t104.5 36 t83.5 46.5t84 60q26 21 49 6l61 -56q11 -10 10 -27t-12 -28q-204 -198 -497 -198q-202 0 -372 97.5t-269 266.5t-99 371zM555 1645.5q4 10.5 14 17.5l246 192q12 9 27 9q14 0 26 -9l246 -192q10 -7 14 -17.5t-2 -21.5q-3 -5 -10.5 -17t-12.5 -18.5t-13 -13t-17.5 -5.5 t-21.5 9l-209 143l-209 -139q-30 -19 -47 4l-29 37q-6 11 -2 21.5z" />
<glyph unicode="&#x109;" horiz-adv-x="903" d="M84 408q0 118 59 218t156 157t207 57q180 0 293 -144q10 -14 8 -30t-16 -27l-39 -33q-9 -8 -16 -12t-14 -2t-9.5 3.5t-11 9.5t-9.5 9q-75 86 -188 86q-116 0 -194.5 -83.5t-78.5 -206.5q0 -124 78 -209.5t193 -85.5q26 0 48 3t41.5 11t32 13t29.5 19t23.5 19t23 21.5 l19.5 19.5q21 18 31.5 17.5t29.5 -13.5l23 -16q15 -11 19 -26.5t-5 -30.5q-48 -77 -130.5 -124.5t-182.5 -47.5q-173 0 -296.5 123t-123.5 305zM215 1195q4 10 14 17l246 193q11 8 27 8q15 0 26 -8l246 -193q10 -7 14 -17t-2 -21q-3 -5 -10.5 -17t-12.5 -18.5t-13 -13.5 t-17.5 -6t-21.5 9l-209 144l-209 -139q-30 -19 -47 4l-29 37q-6 11 -2 21z" />
<glyph unicode="&#x10a;" horiz-adv-x="1447" d="M104 715q0 202 99 372t269 268.5t372 98.5q149 0 267 -48t228 -142q12 -12 13 -29t-11 -29l-55 -55q-23 -28 -53 2q-81 71 -185 112.5t-206 41.5q-119 0 -225.5 -48t-182 -128t-120 -188.5t-44.5 -225.5q0 -156 74.5 -291t207 -216t290.5 -81q64 0 119 11.5t104.5 36 t83.5 46.5t84 60q26 21 49 6l61 -56q11 -10 10 -27t-12 -28q-204 -198 -497 -198q-202 0 -372 97.5t-269 266.5t-99 371zM725 1747q0 49 34.5 83t82.5 34q49 0 82.5 -33.5t33.5 -83.5q0 -48 -33.5 -82.5t-82.5 -34.5q-47 0 -82 35t-35 82z" />
<glyph unicode="&#x10b;" horiz-adv-x="903" d="M84 408q0 118 59 218t156 157t207 57q180 0 293 -144q10 -14 8 -30t-16 -27l-39 -33q-9 -8 -16 -12t-14 -2t-9.5 3.5t-11 9.5t-9.5 9q-75 86 -188 86q-116 0 -194.5 -83.5t-78.5 -206.5q0 -124 78 -209.5t193 -85.5q26 0 48 3t41.5 11t32 13t29.5 19t23.5 19t23 21.5 l19.5 19.5q21 18 31.5 17.5t29.5 -13.5l23 -16q15 -11 19 -26.5t-5 -30.5q-48 -77 -130.5 -124.5t-182.5 -47.5q-173 0 -296.5 123t-123.5 305zM385 1276q0 49 34.5 83t82.5 34q49 0 82.5 -33.5t33.5 -83.5q0 -48 -33.5 -82.5t-82.5 -34.5q-47 0 -82 35t-35 82z" />
<glyph unicode="&#x10c;" horiz-adv-x="1447" d="M104 715q0 202 99 372t269 268.5t372 98.5q149 0 267 -48t228 -142q12 -12 13 -29t-11 -29l-55 -55q-23 -28 -53 2q-81 71 -185 112.5t-206 41.5q-119 0 -225.5 -48t-182 -128t-120 -188.5t-44.5 -225.5q0 -156 74.5 -291t207 -216t290.5 -81q64 0 119 11.5t104.5 36 t83.5 46.5t84 60q26 21 49 6l61 -56q11 -10 10 -27t-12 -28q-204 -198 -497 -198q-202 0 -372 97.5t-269 266.5t-99 371zM555 1791q-4 10 2 21l29 37q17 23 47 4l209 -139l209 144q30 19 47 -5l28 -41q4 -6 4 -12.5t-2.5 -11.5t-8.5 -10.5t-10.5 -9t-12 -8.5t-9.5 -7 l-219 -172q-11 -8 -26 -8q-16 0 -27 8l-246 193q-10 7 -14 17z" />
<glyph unicode="&#x10d;" horiz-adv-x="903" d="M84 408q0 118 59 218t156 157t207 57q180 0 293 -144q10 -14 8 -30t-16 -27l-39 -33q-9 -8 -16 -12t-14 -2t-9.5 3.5t-11 9.5t-9.5 9q-75 86 -188 86q-116 0 -194.5 -83.5t-78.5 -206.5q0 -124 78 -209.5t193 -85.5q26 0 48 3t41.5 11t32 13t29.5 19t23.5 19t23 21.5 l19.5 19.5q21 18 31.5 17.5t29.5 -13.5l23 -16q15 -11 19 -26.5t-5 -30.5q-48 -77 -130.5 -124.5t-182.5 -47.5q-173 0 -296.5 123t-123.5 305zM215 1328.5q-4 10.5 2 21.5l29 36q17 24 47 5l209 -140l209 144q30 19 47 -4l28 -41q4 -5 4.5 -10.5t-1.5 -10.5t-5 -9t-8.5 -9 t-9.5 -8l-10 -7.5t-8 -5.5l-220 -172q-11 -8 -26 -8q-16 0 -27 8l-246 193q-10 7 -14 17.5z" />
<glyph unicode="&#x10e;" horiz-adv-x="1529" d="M209 39v1356q0 15 11 27t26 12h459q145 0 278 -57t229.5 -153t153.5 -228t57 -277q0 -146 -57 -279.5t-153.5 -229.5t-229 -153t-278.5 -57h-459q-15 0 -26 12t-11 27zM365 141h307q252 0 415.5 162.5t163.5 415.5q0 252 -163.5 413.5t-415.5 161.5h-307v-1153zM412 1791 q-4 10 2 21l28 37q17 23 47 4l209 -139l209 144q30 19 47 -5l29 -41q4 -6 4 -12.5t-2.5 -11.5t-8.5 -10.5t-10.5 -9t-12 -8.5t-9.5 -7l-219 -172q-11 -8 -27 -8q-15 0 -26 8l-246 193q-10 7 -14 17z" />
<glyph unicode="&#x10f;" horiz-adv-x="1048" d="M86 412q0 185 106.5 306.5t286.5 121.5q60 0 114.5 -13.5t79.5 -26.5l25 -14v609q0 15 12 27t27 12h64q15 0 27 -12t12 -27v-1356q0 -15 -12 -27t-27 -12h-43q-13 0 -22.5 9.5t-12.5 23.5l-12 55l-11.5 -11.5t-32.5 -26t-52.5 -33t-70 -26t-85.5 -11.5q-156 0 -264.5 127 t-108.5 305zM229 410q0 -125 67.5 -213t176.5 -88q41 0 79 14t63 33.5t44.5 39.5t28.5 34l8 14v409l-27 13.5t-69 22t-102 13.5q-129 0 -199 -82t-70 -210zM1046 939.5q3 14.5 17 27.5q127 114 127 258q-8 -2 -25 -2q-47 0 -81.5 34.5t-34.5 81.5q0 49 34 83t82 34 q58 0 96.5 -41.5t38.5 -142.5q0 -114 -54.5 -217.5t-117.5 -161.5q-28 -25 -49 -4l-28 29q-8 7 -5 21.5z" />
<glyph unicode="&#x110;" horiz-adv-x="1538" d="M121 702v15q0 15 11 27t26 12h59v639q0 15 11 27t26 12h459q145 0 278.5 -57t230 -153t153.5 -228t57 -277q0 -117 -36.5 -227t-103 -198t-155 -154.5t-198 -103t-226.5 -36.5h-459q-15 0 -26 12t-11 27v625h-59q-15 0 -26 11.5t-11 26.5zM373 141h307q166 0 298.5 73.5 t207 205.5t74.5 299q0 251 -163.5 413t-416.5 162h-307v-538h432q17 0 28 -11.5t11 -27.5v-17q0 -15 -11 -25.5t-28 -10.5h-432v-523z" />
<glyph unicode="&#x111;" d="M86 412q0 185 106.5 306.5t286.5 121.5q60 0 114.5 -13.5t79.5 -26.5l25 -14v312h-317q-17 0 -28 11t-11 26v16q0 16 11 27.5t28 11.5h317v205q0 15 12 27t27 12h64q15 0 27 -12t12 -27v-205h67q15 0 26 -12t11 -27v-14q0 -15 -11 -27t-26 -12h-67v-1059q0 -15 -12 -27 t-27 -12h-43q-13 0 -22.5 9.5t-12.5 23.5l-12 55l-11.5 -11.5t-32.5 -26t-52.5 -33t-70 -26t-85.5 -11.5q-156 0 -264.5 127t-108.5 305zM229 410q0 -125 67.5 -213t176.5 -88q41 0 79 14t63 33.5t44.5 39.5t28.5 34l8 14v409l-27 13.5t-69 22t-102 13.5q-129 0 -199 -82 t-70 -210z" />
<glyph unicode="&#x112;" horiz-adv-x="1212" d="M209 39v1356q0 16 11 27.5t28 11.5h807q17 0 28 -11.5t11 -27.5v-60q0 -16 -11 -27.5t-28 -11.5h-688v-499h587q15 0 27 -12t12 -27v-60q0 -17 -11.5 -28t-27.5 -11h-587v-522h688q17 0 28 -11.5t11 -27.5v-59q0 -16 -11 -27.5t-28 -11.5h-807q-17 0 -28 11.5t-11 27.5z M350 1718v43q0 17 11 28t28 11h524q17 0 28 -11t11 -28v-43q0 -15 -11 -26t-28 -11h-524q-17 0 -28 11t-11 26z" />
<glyph unicode="&#x113;" horiz-adv-x="935" d="M86 410q0 180 110.5 305t290.5 125q161 0 266 -106.5t105 -268.5q0 -27 -4 -55q-1 -15 -12 -25t-25 -10h-590q6 -105 87 -185.5t188 -80.5q104 0 203 61q3 2 10 5.5t9 5t7 4t7.5 2.5h6t6 -1.5t5.5 -4.5t6 -7q6 -8 17.5 -23.5t17.5 -23.5q13 -12 12.5 -24.5t-21.5 -28.5 q-45 -36 -125.5 -65t-175.5 -29q-181 0 -291 124t-110 306zM182 1231v43q0 17 11 28t28 11h524q17 0 28 -11t11 -28v-43q0 -15 -11 -26t-28 -11h-524q-17 0 -28 11t-11 26zM229 489h488q-5 91 -71.5 158.5t-158.5 67.5q-102 0 -174.5 -65t-83.5 -161z" />
<glyph unicode="&#x114;" horiz-adv-x="1212" d="M209 39v1356q0 16 11 27.5t28 11.5h807q17 0 28 -11.5t11 -27.5v-60q0 -16 -11 -27.5t-28 -11.5h-688v-499h587q15 0 27 -12t12 -27v-60q0 -17 -11.5 -28t-27.5 -11h-587v-522h688q17 0 28 -11.5t11 -27.5v-59q0 -16 -11 -27.5t-28 -11.5h-807q-17 0 -28 11.5t-11 27.5z M375 1812q-7 41 28 41h43q28 0 39 -34q18 -60 62 -95.5t104 -35.5q55 0 99.5 37.5t62.5 93.5q12 34 39 34h47q17 0 24.5 -11.5t4.5 -29.5q-17 -101 -94.5 -167t-182.5 -66q-107 0 -184.5 66.5t-91.5 166.5z" />
<glyph unicode="&#x115;" horiz-adv-x="935" d="M86 410q0 180 110.5 305t290.5 125q161 0 266 -106.5t105 -268.5q0 -27 -4 -55q-1 -15 -12 -25t-25 -10h-590q6 -105 87 -185.5t188 -80.5q104 0 203 61q3 2 10 5.5t9 5t7 4t7.5 2.5h6t6 -1.5t5.5 -4.5t6 -7q6 -8 17.5 -23.5t17.5 -23.5q13 -12 12.5 -24.5t-21.5 -28.5 q-45 -36 -125.5 -65t-175.5 -29q-181 0 -291 124t-110 306zM209 1321q-7 41 29 41h43q26 0 38 -35q18 -60 62 -95.5t104 -35.5q55 0 99.5 37.5t62.5 93.5q12 35 39 35h47q17 0 24.5 -11.5t4.5 -29.5q-17 -101 -94.5 -167.5t-182.5 -66.5q-107 0 -184.5 67t-91.5 167z M229 489h488q-5 91 -71.5 158.5t-158.5 67.5q-102 0 -174.5 -65t-83.5 -161z" />
<glyph unicode="&#x116;" horiz-adv-x="1212" d="M209 39v1356q0 16 11 27.5t28 11.5h807q17 0 28 -11.5t11 -27.5v-60q0 -16 -11 -27.5t-28 -11.5h-688v-499h587q15 0 27 -12t12 -27v-60q0 -17 -11.5 -28t-27.5 -11h-587v-522h688q17 0 28 -11.5t11 -27.5v-59q0 -16 -11 -27.5t-28 -11.5h-807q-17 0 -28 11.5t-11 27.5z M539 1747q0 49 34 83t82 34q49 0 83 -34t34 -83q0 -48 -34 -82.5t-83 -34.5q-47 0 -81.5 35t-34.5 82z" />
<glyph unicode="&#x117;" horiz-adv-x="935" d="M86 410q0 180 110.5 305t290.5 125q161 0 266 -106.5t105 -268.5q0 -27 -4 -55q-1 -15 -12 -25t-25 -10h-590q6 -105 87 -185.5t188 -80.5q104 0 203 61q3 2 10 5.5t9 5t7 4t7.5 2.5h6t6 -1.5t5.5 -4.5t6 -7q6 -8 17.5 -23.5t17.5 -23.5q13 -12 12.5 -24.5t-21.5 -28.5 q-45 -36 -125.5 -65t-175.5 -29q-181 0 -291 124t-110 306zM229 489h488q-5 91 -71.5 158.5t-158.5 67.5q-102 0 -174.5 -65t-83.5 -161zM375 1276q0 49 34.5 83t82.5 34q49 0 82.5 -33.5t33.5 -83.5q0 -48 -33.5 -82.5t-82.5 -34.5q-47 0 -82 35t-35 82z" />
<glyph unicode="&#x118;" horiz-adv-x="1212" d="M209 39v1356q0 16 11 27.5t28 11.5h807q17 0 28 -11.5t11 -27.5v-60q0 -16 -11 -27.5t-28 -11.5h-688v-499h587q15 0 27 -12t12 -27v-60q0 -17 -11.5 -28t-27.5 -11h-587v-522h688q17 0 28 -11.5t11 -27.5v-51q0 -8 -1.5 -14t-5.5 -11t-6.5 -7.5t-9 -7.5t-8.5 -7 q-37 -32 -67.5 -85t-30.5 -118q0 -50 34.5 -83t81.5 -33q51 0 113 32q13 6 25 -1.5t12 -26.5v-52q0 -12 -7 -19t-22 -15q-62 -31 -143 -31q-93 0 -155 53.5t-62 155.5q0 129 110 223h-704q-17 0 -28 11.5t-11 27.5z" />
<glyph unicode="&#x119;" horiz-adv-x="940" d="M88 410q0 180 110.5 305t290.5 125q161 0 266 -106.5t105 -268.5q0 -27 -4 -55q-1 -15 -12 -25t-25 -10h-590q6 -105 87 -185.5t188 -80.5q104 0 203 61q3 2 10 5.5t9 5t7 4t7.5 2.5h6t6 -1.5t5.5 -4.5t6 -7l35 -47q9 -11 11.5 -17t-1 -15.5t-18.5 -20.5 q-38 -31 -102.5 -57.5t-143.5 -34.5q-80 -84 -80 -185q0 -50 35 -83t82 -33q50 0 112 32q13 6 25 -1.5t12 -26.5v-52q0 -12 -7 -19t-22 -15q-62 -31 -143 -31q-93 0 -155 53.5t-62 155.5q0 115 92 207q-158 18 -252 138t-94 288zM231 489h488q-5 91 -71.5 158.5t-158.5 67.5 q-102 0 -174.5 -65t-83.5 -161z" />
<glyph unicode="&#x11a;" horiz-adv-x="1212" d="M209 39v1356q0 16 11 27.5t28 11.5h807q17 0 28 -11.5t11 -27.5v-60q0 -16 -11 -27.5t-28 -11.5h-688v-499h587q15 0 27 -12t12 -27v-60q0 -17 -11.5 -28t-27.5 -11h-587v-522h688q17 0 28 -11.5t11 -27.5v-59q0 -16 -11 -27.5t-28 -11.5h-807q-17 0 -28 11.5t-11 27.5z M363 1791q-4 10 2 21l28 37q17 23 47 4l209 -139l209 144q30 19 47 -5l29 -41q4 -6 4 -12.5t-2.5 -11.5t-8.5 -10.5t-10.5 -9t-12 -8.5t-9.5 -7l-219 -172q-11 -8 -27 -8q-15 0 -26 8l-246 193q-10 7 -14 17z" />
<glyph unicode="&#x11b;" horiz-adv-x="935" d="M86 410q0 180 110.5 305t290.5 125q161 0 266 -106.5t105 -268.5q0 -27 -4 -55q-1 -15 -12 -25t-25 -10h-590q6 -105 87 -185.5t188 -80.5q104 0 203 61q3 2 10 5.5t9 5t7 4t7.5 2.5h6t6 -1.5t5.5 -4.5t6 -7q6 -8 17.5 -23.5t17.5 -23.5q13 -12 12.5 -24.5t-21.5 -28.5 q-45 -36 -125.5 -65t-175.5 -29q-181 0 -291 124t-110 306zM197 1328.5q-4 10.5 2 21.5l28 36q17 24 47 5l209 -140l209 144q30 19 47 -4l29 -41q4 -6 4 -12.5t-2.5 -11.5t-8.5 -11t-10.5 -9.5t-12 -9t-9.5 -6.5l-219 -172q-11 -8 -27 -8q-15 0 -26 8l-246 193 q-10 7 -14 17.5zM229 489h488q-5 91 -71.5 158.5t-158.5 67.5q-102 0 -174.5 -65t-83.5 -161z" />
<glyph unicode="&#x11c;" horiz-adv-x="1499" d="M104 715q0 202 99 372t269 268.5t372 98.5q149 0 267 -48t228 -142q12 -12 13 -29t-11 -29l-57 -57q-14 -15 -24.5 -14t-28.5 16q-81 71 -185 115.5t-204 44.5q-119 0 -225.5 -47.5t-181.5 -127.5t-119 -188t-44 -225q0 -156 74 -292t206 -218t290 -82q100 0 192 21.5 t134 43.5l42 21v287h-235q-17 0 -28 11t-11 26v75q0 17 11 28t28 11h354q15 0 26 -12t11 -27v-469q0 -20 -16 -32q-9 -5 -24.5 -14.5t-67.5 -32.5t-107.5 -41t-139.5 -32.5t-167 -14.5q-202 0 -372 97.5t-269 266.5t-99 371zM555 1645.5q4 10.5 14 17.5l246 192q12 9 27 9 q14 0 26 -9l246 -192q10 -7 14 -17.5t-2 -21.5q-3 -5 -10.5 -17t-12.5 -18.5t-13 -13t-17.5 -5.5t-21.5 9l-209 143l-209 -139q-30 -19 -47 4l-29 37q-6 11 -2 21.5z" />
<glyph unicode="&#x11d;" horiz-adv-x="940" d="M63 39q0 44 14 84t34.5 66.5t41 46.5t34.5 29l14 9q-7 9 -18 26.5t-29.5 71t-18.5 107.5q0 148 95.5 254.5t250.5 106.5h346q17 0 28 -11t11 -28v-35q0 -12 -6 -23t-16 -12l-111 -22q4 -3 10 -8.5t22 -26t28 -44.5t22 -65t10 -86q0 -144 -95 -246t-249 -102 q-58 0 -106.5 12.5t-68.5 25.5l-19 13l-10 -5t-21.5 -14.5t-27.5 -24.5t-21.5 -34.5t-9.5 -44.5q0 -41 29 -70.5t83 -29.5h295q136 0 221.5 -67t85.5 -195q0 -132 -121.5 -232t-302.5 -100q-99 0 -176.5 25t-123.5 66.5t-69.5 90.5t-23.5 101q0 119 119 190v6 q-54 14 -102 62.5t-48 132.5zM225 1174q-14 20 13 38l245 193q11 8 27 8t27 -8l245 -193q27 -18 13 -38q-3 -4 -10.5 -16.5t-12.5 -19t-13.5 -13.5t-18 -6t-21.5 9l-209 144l-209 -139q-30 -19 -47 4zM240 -332q0 -73 70 -121.5t175 -48.5q107 0 191 55t84 140q0 15 -5 33 t-19 43t-48 41t-84 16h-227l-15 -5t-32.5 -16t-41.5 -29t-33 -45t-15 -63zM268 483q0 -101 60.5 -165t154.5 -64q92 0 148.5 63.5t56.5 165.5t-56.5 166t-148.5 64q-94 0 -154.5 -64.5t-60.5 -165.5z" />
<glyph unicode="&#x11e;" horiz-adv-x="1499" d="M104 715q0 202 99 372t269 268.5t372 98.5q149 0 267 -48t228 -142q12 -12 13 -29t-11 -29l-57 -57q-14 -15 -24.5 -14t-28.5 16q-81 71 -185 115.5t-204 44.5q-119 0 -225.5 -47.5t-181.5 -127.5t-119 -188t-44 -225q0 -156 74 -292t206 -218t290 -82q100 0 192 21.5 t134 43.5l42 21v287h-235q-17 0 -28 11t-11 26v75q0 17 11 28t28 11h354q15 0 26 -12t11 -27v-469q0 -20 -16 -32q-9 -5 -24.5 -14.5t-67.5 -32.5t-107.5 -41t-139.5 -32.5t-167 -14.5q-202 0 -372 97.5t-269 266.5t-99 371zM567 1812q-7 41 29 41h43q28 0 39 -34 q18 -60 62 -95.5t104 -35.5q55 0 99.5 37.5t62.5 93.5q12 34 38 34h48q17 0 24 -11.5t4 -29.5q-17 -101 -94 -167t-182 -66q-107 0 -185 66.5t-92 166.5z" />
<glyph unicode="&#x11f;" horiz-adv-x="940" d="M63 39q0 44 14 84t34.5 66.5t41 46.5t34.5 29l14 9q-7 9 -18 26.5t-29.5 71t-18.5 107.5q0 148 95.5 254.5t250.5 106.5h346q17 0 28 -11t11 -28v-35q0 -12 -6 -23t-16 -12l-111 -22q4 -3 10 -8.5t22 -26t28 -44.5t22 -65t10 -86q0 -144 -95 -246t-249 -102 q-58 0 -106.5 12.5t-68.5 25.5l-19 13l-10 -5t-21.5 -14.5t-27.5 -24.5t-21.5 -34.5t-9.5 -44.5q0 -41 29 -70.5t83 -29.5h295q136 0 221.5 -67t85.5 -195q0 -132 -121.5 -232t-302.5 -100q-99 0 -176.5 25t-123.5 66.5t-69.5 90.5t-23.5 101q0 119 119 190v6 q-54 14 -102 62.5t-48 132.5zM236 1321q-7 41 28 41h43q27 0 39 -35q18 -60 62 -95.5t104 -35.5q55 0 99.5 37.5t62.5 93.5q12 35 39 35h47q17 0 24 -11.5t4 -29.5q-17 -101 -94 -167.5t-182 -66.5q-107 0 -184.5 67t-91.5 167zM240 -332q0 -73 70 -121.5t175 -48.5 q107 0 191 55t84 140q0 15 -5 33t-19 43t-48 41t-84 16h-227l-15 -5t-32.5 -16t-41.5 -29t-33 -45t-15 -63zM268 483q0 -101 60.5 -165t154.5 -64q92 0 148.5 63.5t56.5 165.5t-56.5 166t-148.5 64q-94 0 -154.5 -64.5t-60.5 -165.5z" />
<glyph unicode="&#x120;" horiz-adv-x="1499" d="M104 715q0 202 99 372t269 268.5t372 98.5q149 0 267 -48t228 -142q12 -12 13 -29t-11 -29l-57 -57q-14 -15 -24.5 -14t-28.5 16q-81 71 -185 115.5t-204 44.5q-119 0 -225.5 -47.5t-181.5 -127.5t-119 -188t-44 -225q0 -156 74 -292t206 -218t290 -82q100 0 192 21.5 t134 43.5l42 21v287h-235q-17 0 -28 11t-11 26v75q0 17 11 28t28 11h354q15 0 26 -12t11 -27v-469q0 -20 -16 -32q-9 -5 -24.5 -14.5t-67.5 -32.5t-107.5 -41t-139.5 -32.5t-167 -14.5q-202 0 -372 97.5t-269 266.5t-99 371zM725 1747q0 49 34.5 83t82.5 34q49 0 82.5 -33.5 t33.5 -83.5q0 -48 -33.5 -82.5t-82.5 -34.5q-47 0 -82 35t-35 82z" />
<glyph unicode="&#x121;" horiz-adv-x="940" d="M63 39q0 44 14 84t34.5 66.5t41 46.5t34.5 29l14 9q-7 9 -18 26.5t-29.5 71t-18.5 107.5q0 148 95.5 254.5t250.5 106.5h346q17 0 28 -11t11 -28v-35q0 -12 -6 -23t-16 -12l-111 -22q4 -3 10 -8.5t22 -26t28 -44.5t22 -65t10 -86q0 -144 -95 -246t-249 -102 q-58 0 -106.5 12.5t-68.5 25.5l-19 13l-10 -5t-21.5 -14.5t-27.5 -24.5t-21.5 -34.5t-9.5 -44.5q0 -41 29 -70.5t83 -29.5h295q136 0 221.5 -67t85.5 -195q0 -132 -121.5 -232t-302.5 -100q-99 0 -176.5 25t-123.5 66.5t-69.5 90.5t-23.5 101q0 119 119 190v6 q-54 14 -102 62.5t-48 132.5zM240 -332q0 -73 70 -121.5t175 -48.5q107 0 191 55t84 140q0 15 -5 33t-19 43t-48 41t-84 16h-227l-15 -5t-32.5 -16t-41.5 -29t-33 -45t-15 -63zM268 483q0 -101 60.5 -165t154.5 -64q92 0 148.5 63.5t56.5 165.5t-56.5 166t-148.5 64 q-94 0 -154.5 -64.5t-60.5 -165.5zM391 1276q0 49 34.5 83t82.5 34q50 0 83.5 -33.5t33.5 -83.5q0 -48 -34 -82.5t-83 -34.5q-47 0 -82 35t-35 82z" />
<glyph unicode="&#x122;" horiz-adv-x="1499" d="M104 715q0 202 99 372t269 268.5t372 98.5q149 0 267 -48t228 -142q12 -12 13 -29t-11 -29l-57 -57q-14 -15 -24.5 -14t-28.5 16q-81 71 -185 115.5t-204 44.5q-119 0 -225.5 -47.5t-181.5 -127.5t-119 -188t-44 -225q0 -156 74 -292t206 -218t290 -82q100 0 192 21.5 t134 43.5l42 21v287h-235q-17 0 -28 11t-11 26v75q0 17 11 28t28 11h354q15 0 26 -12t11 -27v-469q0 -20 -16 -32q-9 -5 -24.5 -14.5t-67.5 -32.5t-107.5 -41t-139.5 -32.5t-167 -14.5q-202 0 -372 97.5t-269 266.5t-99 371zM718 -705.5q3 14.5 17 27.5q127 114 127 258 q-8 -2 -24 -2q-47 0 -82 35t-35 82q0 49 34.5 83t82.5 34q58 0 96.5 -42t38.5 -143q0 -114 -54.5 -217.5t-117.5 -161.5q-28 -25 -49 -4l-29 29q-8 7 -5 21.5z" />
<glyph unicode="&#x123;" horiz-adv-x="940" d="M63 39q0 44 14 84t34.5 66.5t41 46.5t34.5 29l14 9q-7 9 -18 26.5t-29.5 71t-18.5 107.5q0 148 95.5 254.5t250.5 106.5h346q17 0 28 -11t11 -28v-35q0 -12 -6 -23t-16 -12l-111 -22q4 -3 10 -8.5t22 -26t28 -44.5t22 -65t10 -86q0 -144 -95 -246t-249 -102 q-58 0 -106.5 12.5t-68.5 25.5l-19 13l-10 -5t-21.5 -14.5t-27.5 -24.5t-21.5 -34.5t-9.5 -44.5q0 -41 29 -70.5t83 -29.5h295q136 0 221.5 -67t85.5 -195q0 -132 -121.5 -232t-302.5 -100q-99 0 -176.5 25t-123.5 66.5t-69.5 90.5t-23.5 101q0 119 119 190v6 q-54 14 -102 62.5t-48 132.5zM240 -332q0 -73 70 -121.5t175 -48.5q107 0 191 55t84 140q0 15 -5 33t-19 43t-48 41t-84 16h-227l-15 -5t-32.5 -16t-41.5 -29t-33 -45t-15 -63zM268 483q0 -101 60.5 -165t154.5 -64q92 0 148.5 63.5t56.5 165.5t-56.5 166t-148.5 64 q-94 0 -154.5 -64.5t-60.5 -165.5zM393 1270q0 114 54.5 217.5t117.5 161.5q28 25 49 4l29 -29q8 -7 5 -21.5t-17 -27.5q-127 -114 -127 -258q8 2 24 2q47 0 82 -35t35 -82q0 -49 -34.5 -83t-82.5 -34q-58 0 -96.5 42t-38.5 143z" />
<glyph unicode="&#x124;" horiz-adv-x="1564" d="M209 39v1356q0 15 12 27t27 12h80q17 0 28 -11.5t11 -27.5v-598h831v598q0 16 11 27.5t28 11.5h80q15 0 27 -12t12 -27v-1356q0 -15 -12 -27t-27 -12h-80q-17 0 -28 11.5t-11 27.5v620h-831v-620q0 -16 -11 -27.5t-28 -11.5h-80q-15 0 -27 12t-12 27zM500 1645.5 q4 10.5 14 17.5l246 192q12 9 26 9q15 0 27 -9l246 -192q10 -7 14 -17.5t-2 -21.5q-3 -4 -10.5 -16.5t-12.5 -19t-13.5 -13t-18 -5.5t-21.5 9l-209 143l-208 -139q-31 -20 -48 4l-28 37q-6 11 -2 21.5z" />
<glyph unicode="&#x125;" horiz-adv-x="1015" d="M-69.5 1639.5q4.5 10.5 14.5 17.5l245 192q12 9 27 9t27 -9l245 -192q10 -7 14.5 -17.5t-1.5 -21.5q-3 -4 -10.5 -16.5t-12.5 -19t-13.5 -13t-18 -5.5t-21.5 9l-209 143l-209 -139q-30 -19 -47 4l-29 37q-6 11 -1.5 21.5zM147 39v1356q0 15 12 27t27 12h64q15 0 27 -12 t12 -27v-664q4 4 12.5 11.5t36 26.5t57.5 33t76 26t92 12q153 0 235.5 -95t82.5 -274v-432q0 -15 -12 -27t-27 -12h-66q-15 0 -27 12t-12 27v432q0 115 -48 173t-136 58q-44 0 -87 -11.5t-73.5 -28.5t-55 -34t-36.5 -28l-12 -12v-549q0 -15 -12 -27t-27 -12h-64 q-15 0 -27 12t-12 27z" />
<glyph unicode="&#x126;" horiz-adv-x="1564" d="M127 1137v14q0 15 11 27t26 12h45v205q0 15 12 27t27 12h80q17 0 28 -11.5t11 -27.5v-205h831v205q0 16 11 27.5t28 11.5h80q15 0 27 -12t12 -27v-205h43q17 0 28 -11.5t11 -27.5v-16q0 -15 -11 -26t-28 -11h-43v-1059q0 -15 -12 -27t-27 -12h-80q-17 0 -28 11.5 t-11 27.5v620h-831v-620q0 -16 -11 -27.5t-28 -11.5h-80q-15 0 -27 12t-12 27v1059h-45q-15 0 -26 12t-11 27zM367 797h831v301h-831v-301z" />
<glyph unicode="&#x127;" horiz-adv-x="1015" d="M43 1137v14q0 15 11 27t26 12h67v205q0 15 12 27t27 12h64q15 0 27 -12t12 -27v-205h317q17 0 28 -11.5t11 -27.5v-16q0 -15 -11 -26t-28 -11h-317v-367q4 4 12.5 11.5t36 26.5t57.5 33t76 26t92 12q318 0 318 -375v-426q0 -15 -12 -27t-27 -12h-66q-15 0 -27 12t-12 27 v432q0 115 -48 173t-136 58q-44 0 -87 -11.5t-73.5 -28.5t-55 -34t-36.5 -28l-12 -12v-549q0 -15 -12 -27t-27 -12h-64q-15 0 -27 12t-12 27v1059h-67q-15 0 -26 12t-11 27z" />
<glyph unicode="&#x128;" horiz-adv-x="577" d="M-12 1692q2 4 11 25t16 36.5t23 38t33.5 37t45 25t59.5 10.5q42 0 78 -24t57 -52t45.5 -52t44.5 -24q63 0 93 105q10 32 47 16l32 -16q5 -2 8.5 -5.5t5 -8t2 -8t-0.5 -9.5t-1.5 -8.5t-2.5 -8t-2 -6.5q-9 -27 -21.5 -51.5t-34 -52.5t-54.5 -45t-73 -17q-38 0 -74.5 24 t-59 53t-48 53t-43.5 24q-19 0 -34.5 -9t-26.5 -26.5t-16.5 -31.5t-12.5 -35q-5 -17 -17.5 -23.5t-33.5 2.5l-37 19q-22 11 -8 45zM209 39v1356q0 15 12 27t27 12h82q15 0 27 -12t12 -27v-1356q0 -15 -12 -27t-27 -12h-82q-15 0 -27 12t-12 27z" />
<glyph unicode="&#x129;" horiz-adv-x="432" d="M-82 1241q2 4 11 25t16 36.5t23 38t33.5 37t45 25t59.5 10.5q34 0 64 -15.5t51 -37.5t39 -44.5t36.5 -38t35.5 -15.5q62 0 92 104q10 32 47 16l33 -16q6 -3 9.5 -7.5t4.5 -8.5t0.5 -10t-1 -9.5t-3 -10t-2.5 -7.5q-56 -166 -182 -166q-38 0 -74.5 24t-59.5 52.5 t-48.5 52.5t-43.5 24q-19 0 -34.5 -9t-26.5 -26.5t-16.5 -31.5t-12.5 -35q-5 -17 -17.5 -23t-33.5 3l-37 18q-22 11 -8 45zM145 39v741q0 15 12 27t27 12h64q15 0 27 -12t12 -27v-741q0 -15 -12 -27t-27 -12h-64q-15 0 -27 12t-12 27z" />
<glyph unicode="&#x12a;" horiz-adv-x="577" d="M-10 1718v43q0 17 11 28t28 11h524q17 0 28 -11t11 -28v-43q0 -15 -11 -26t-28 -11h-524q-17 0 -28 11t-11 26zM209 39v1356q0 15 12 27t27 12h82q15 0 27 -12t12 -27v-1356q0 -15 -12 -27t-27 -12h-82q-15 0 -27 12t-12 27z" />
<glyph unicode="&#x12b;" horiz-adv-x="432" d="M-80 1231v43q0 17 11 28t28 11h524q17 0 28 -11t11 -28v-43q0 -15 -11 -26t-28 -11h-524q-17 0 -28 11t-11 26zM145 39v741q0 15 12 27t27 12h64q15 0 27 -12t12 -27v-741q0 -15 -12 -27t-27 -12h-64q-15 0 -27 12t-12 27z" />
<glyph unicode="&#x12c;" horiz-adv-x="577" d="M14 1812q-7 41 29 41h43q28 0 39 -34q18 -60 62 -95.5t104 -35.5q55 0 99.5 37.5t62.5 93.5q12 34 39 34h47q17 0 24 -11.5t4 -29.5q-17 -101 -94 -167t-182 -66q-107 0 -185 66.5t-92 166.5zM209 39v1356q0 15 12 27t27 12h82q15 0 27 -12t12 -27v-1356q0 -15 -12 -27 t-27 -12h-82q-15 0 -27 12t-12 27z" />
<glyph unicode="&#x12d;" horiz-adv-x="432" d="M-55 1321q-7 41 28 41h43q27 0 39 -35q18 -60 62 -95.5t104 -35.5q55 0 99.5 37.5t62.5 93.5q12 35 39 35h47q17 0 24.5 -11.5t4.5 -29.5q-17 -101 -94.5 -167.5t-182.5 -66.5q-107 0 -184.5 67t-91.5 167zM145 39v741q0 15 12 27t27 12h64q15 0 27 -12t12 -27v-741 q0 -15 -12 -27t-27 -12h-64q-15 0 -27 12t-12 27z" />
<glyph unicode="&#x12e;" horiz-adv-x="577" d="M104 -223q0 43 13 82t33.5 68t38.5 47.5t36 31.5q-16 13 -16 33v1356q0 15 12 27t27 12h82q15 0 27 -12t12 -27v-1356q0 -15 -12 -27t-27 -12h-6q-97 -91 -97 -203q0 -50 35 -83t82 -33q51 0 113 32q13 6 25 -1.5t12 -26.5v-52q0 -12 -7 -19t-22 -15q-62 -31 -143 -31 q-93 0 -155.5 53.5t-62.5 155.5z" />
<glyph unicode="&#x12f;" horiz-adv-x="434" d="M31 -223q0 59 27 113t51 78.5t49 43.5q-11 11 -11 27v741q0 15 12 27t27 12h64q15 0 27 -12t12 -27v-741q0 -15 -12 -27t-27 -12q-96 -91 -96 -203q0 -50 34.5 -83t81.5 -33q51 0 113 32q13 6 25 -1.5t12 -26.5v-52q0 -12 -7 -19t-22 -15q-62 -31 -143 -31 q-93 0 -155 53.5t-62 155.5zM119 1294q0 41 28 70t68 29q41 0 69.5 -29t28.5 -70q0 -40 -28.5 -68t-69.5 -28q-40 0 -68 28t-28 68z" />
<glyph unicode="&#x130;" horiz-adv-x="577" d="M172 1747q0 49 34.5 83t82.5 34q49 0 83 -34t34 -83q0 -48 -34 -82.5t-83 -34.5q-47 0 -82 35t-35 82zM209 39v1356q0 15 12 27t27 12h82q15 0 27 -12t12 -27v-1356q0 -15 -12 -27t-27 -12h-82q-15 0 -27 12t-12 27z" />
<glyph unicode="&#x131;" horiz-adv-x="432" d="M145 39v741q0 15 12 27t27 12h64q15 0 27 -12t12 -27v-741q0 -15 -12 -27t-27 -12h-64q-15 0 -27 12t-12 27z" />
<glyph unicode="&#x132;" horiz-adv-x="1431" d="M209 39v1356q0 15 12 27t27 12h82q15 0 27 -12t12 -27v-1356q0 -15 -12 -27t-27 -12h-82q-15 0 -27 12t-12 27zM561 131q-17 27 4 51l43 49q16 15 29 17t21 -3.5t20 -19.5q97 -108 199 -108t175.5 77.5t73.5 229.5v971q0 16 11 27.5t28 11.5h80q17 0 28 -11.5t11 -27.5 v-967q0 -210 -114 -329t-298 -119q-188 0 -311 151z" />
<glyph unicode="&#x133;" horiz-adv-x="919" d="M117 1294q0 41 28 70t68 29q41 0 69.5 -29t28.5 -70q0 -40 -28.5 -68t-69.5 -28q-40 0 -68 28t-28 68zM145 39v741q0 15 12 27t27 12h64q15 0 27 -12t12 -27v-741q0 -15 -12 -27t-27 -12h-64q-15 0 -27 12t-12 27zM225 -504l33 53q18 30 53 2q26 -19 71 -39t79 -20 q76 0 123 54.5t47 166.5v1067q0 17 11.5 28t27.5 11h63q16 0 27.5 -11t11.5 -28v-1067q0 -171 -87 -259.5t-226 -88.5q-137 0 -226 84q-23 20 -8 47zM604 1294q0 41 28 70t68 29q41 0 70 -29t29 -70q0 -40 -29 -68t-70 -28q-40 0 -68 28t-28 68z" />
<glyph unicode="&#x134;" horiz-adv-x="829" d="M-41 131q-17 27 4 51l43 49q16 15 29 17t21 -3.5t20 -19.5q97 -108 198 -108q48 0 91.5 18t79.5 53.5t57.5 96.5t21.5 139v971q0 16 11 27.5t28 11.5h80q17 0 28 -11.5t11 -27.5v-967q0 -210 -114 -329t-298 -119q-188 0 -311 151zM315.5 1645.5q4.5 10.5 14.5 17.5 l245 192q12 9 27 9t27 -9l245 -192q10 -7 14.5 -17.5t-1.5 -21.5q-3 -4 -10.5 -16.5t-12.5 -19t-13.5 -13t-18 -5.5t-21.5 9l-209 143l-209 -139q-30 -19 -47 4l-29 37q-6 11 -1.5 21.5z" />
<glyph unicode="&#x135;" horiz-adv-x="436" d="M-258 -504l33 53q18 30 53 2q26 -20 70.5 -39.5t78.5 -19.5q76 0 123 54.5t47 166.5v1067q0 17 11.5 28t27.5 11h64q16 0 27.5 -11t11.5 -28v-1067q0 -171 -87.5 -259.5t-226.5 -88.5q-136 0 -225 84q-23 20 -8 47zM-68 1174q-14 20 13 38l245 193q11 8 27 8t27 -8 l245 -193q27 -18 13 -38q-3 -4 -10.5 -16.5t-12.5 -19t-13.5 -13.5t-18 -6t-21.5 9l-209 144l-209 -139q-30 -19 -47 4z" />
<glyph unicode="&#x136;" horiz-adv-x="1265" d="M209 49v1335q0 21 14 35.5t35 14.5h59q20 0 35 -15t15 -35v-579l639 608q17 21 38 21h101q29 0 38.5 -24.5t-14.5 -47.5l-647 -604l678 -695q6 -9 7.5 -23t-10 -27t-32.5 -13h-104q-10 0 -22 4.5t-15 9.5l-657 686v-651q0 -20 -15 -34.5t-35 -14.5h-59q-21 0 -35 14 t-14 35zM519.5 -705.5q3.5 14.5 17.5 27.5q127 114 127 258q-8 -2 -25 -2q-47 0 -82 35t-35 82q0 49 34.5 83t82.5 34q58 0 96.5 -42t38.5 -143q0 -114 -54.5 -217.5t-117.5 -161.5q-28 -25 -49 -4l-29 29q-8 7 -4.5 21.5z" />
<glyph unicode="&#x137;" horiz-adv-x="915" d="M145 39v1356q0 15 12 27t27 12h64q15 0 27 -12t12 -27v-887l348 287q27 24 49 24h111q24 0 27.5 -21t-9.5 -30l-389 -311l453 -406q14 -11 8.5 -31t-29.5 -20h-113q-20 0 -41 16l-415 396v-373q0 -15 -12 -27t-27 -12h-64q-15 0 -27 12t-12 27zM343 -705.5 q3 14.5 17 27.5q127 114 127 258q-8 -2 -24 -2q-47 0 -82 35t-35 82q0 49 34.5 83t82.5 34q58 0 96.5 -42t38.5 -143q0 -114 -54.5 -217.5t-117.5 -161.5q-28 -25 -49 -4l-29 29q-8 7 -5 21.5z" />
<glyph unicode="&#x138;" horiz-adv-x="919" d="M145 39v741q0 15 12 27t27 12h64q15 0 27 -12t12 -27v-334l364 349q28 24 49 24h107q24 0 27.5 -21t-9.5 -30l-401 -362l453 -355q14 -11 8.5 -31t-29.5 -20h-113q-20 0 -41 16l-415 334v-311q0 -15 -12 -27t-27 -12h-64q-15 0 -27 12t-12 27z" />
<glyph unicode="&#x139;" horiz-adv-x="1005" d="M82.5 1672q3.5 11 13.5 16l307 172q8 7 27.5 6t26.5 -13l37 -73q6 -12 2.5 -25.5t-15.5 -17.5l-329 -138q-38 -16 -48 5l-20 45q-5 12 -1.5 23zM209 39v1356q0 16 11 27.5t28 11.5h80q15 0 27 -12t12 -27v-1258h589q17 0 28 -11.5t11 -27.5v-59q0 -16 -11 -27.5 t-28 -11.5h-708q-17 0 -28 11.5t-11 27.5z" />
<glyph unicode="&#x13a;" horiz-adv-x="436" d="M15 1661q4 11 14 16l307 172q8 7 27 6.5t26 -12.5l37 -74q6 -12 3 -25.5t-15 -17.5l-330 -137q-22 -9 -31.5 -8.5t-15.5 12.5l-21 45q-5 12 -1 23zM147 39v1356q0 15 12 27t27 12h64q15 0 27 -12t12 -27v-1356q0 -15 -12 -27t-27 -12h-64q-15 0 -27 12t-12 27z" />
<glyph unicode="&#x13b;" horiz-adv-x="1007" d="M209 39v1356q0 16 11 27.5t28 11.5h80q15 0 27 -12t12 -27v-1258h589q17 0 28 -11.5t11 -27.5v-59q0 -16 -11 -27.5t-28 -11.5h-708q-17 0 -28 11.5t-11 27.5zM482.5 -705.5q3.5 14.5 17.5 27.5q127 114 127 258q-8 -2 -25 -2q-47 0 -82 35t-35 82q0 49 34.5 83t82.5 34 q58 0 96.5 -42t38.5 -143q0 -114 -54.5 -217.5t-117.5 -161.5q-28 -25 -49 -4l-29 29q-8 7 -4.5 21.5z" />
<glyph unicode="&#x13c;" horiz-adv-x="434" d="M91.5 -705.5q3.5 14.5 17.5 27.5q127 114 127 258q-8 -2 -25 -2q-47 0 -82 35t-35 82q0 49 34.5 83t82.5 34q58 0 96.5 -42t38.5 -143q0 -114 -54.5 -217.5t-117.5 -161.5q-28 -25 -49 -4l-29 29q-8 7 -4.5 21.5zM143 39v1356q0 15 12 27t27 12h64q15 0 27 -12t12 -27 v-1356q0 -15 -12 -27t-27 -12h-64q-15 0 -27 12t-12 27z" />
<glyph unicode="&#x13d;" horiz-adv-x="1005" d="M209 39v1356q0 16 11 27.5t28 11.5h80q15 0 27 -12t12 -27v-1258h589q17 0 28 -11.5t11 -27.5v-59q0 -16 -11 -27.5t-28 -11.5h-708q-17 0 -28 11.5t-11 27.5zM687.5 937q3.5 15 17.5 28q126 113 126 258q-8 -2 -24 -2q-47 0 -82 34.5t-35 81.5q0 49 34.5 83t82.5 34 q58 0 96.5 -41.5t38.5 -142.5q0 -114 -54.5 -217.5t-117.5 -161.5q-28 -25 -49 -4l-29 28q-8 7 -4.5 22z" />
<glyph unicode="&#x13e;" horiz-adv-x="497" d="M147 39v1356q0 15 12 27t27 12h64q15 0 27 -12t12 -27v-1356q0 -15 -12 -27t-27 -12h-64q-15 0 -27 12t-12 27zM495 939.5q3 14.5 17 27.5q127 114 127 258q-8 -2 -25 -2q-47 0 -81.5 34.5t-34.5 81.5q0 49 34 83t82 34q58 0 97 -41.5t39 -142.5q0 -114 -54.5 -217.5 t-117.5 -161.5q-28 -26 -50 -4l-28 29q-8 7 -5 21.5z" />
<glyph unicode="&#x13f;" horiz-adv-x="1175" d="M209 39v1356q0 16 11 27.5t28 11.5h80q15 0 27 -12t12 -27v-1258h589q17 0 28 -11.5t11 -27.5v-59q0 -16 -11 -27.5t-28 -11.5h-708q-17 0 -28 11.5t-11 27.5zM874 715q0 49 34.5 82.5t82.5 33.5q50 0 83.5 -33.5t33.5 -82.5q0 -48 -34 -82.5t-83 -34.5q-47 0 -82 35 t-35 82z" />
<glyph unicode="&#x140;" horiz-adv-x="667" d="M147 39v1356q0 15 12 27t27 12h64q15 0 27 -12t12 -27v-1356q0 -15 -12 -27t-27 -12h-64q-15 0 -27 12t-12 27zM432 737q0 49 34.5 83t82.5 34q49 0 83 -34t34 -83q0 -48 -34 -82t-83 -34q-47 0 -82 34.5t-35 81.5z" />
<glyph unicode="&#x141;" horiz-adv-x="1017" d="M116 670q4 15 17 22l88 49v654q0 16 11 27.5t28 11.5h80q15 0 27 -12t12 -27v-561l227 131q15 8 31 3t22 -18l7 -12q7 -14 3 -29t-18 -24l-272 -156v-592h590q17 0 28 -11.5t11 -27.5v-59q0 -16 -11 -27.5t-28 -11.5h-709q-17 0 -28 11.5t-11 27.5v598l-43 -25 q-32 -19 -51 15l-8 16q-7 12 -3 27z" />
<glyph unicode="&#x142;" horiz-adv-x="487" d="M14 655q4 16 17 25l149 84v631q0 15 12 27t27 12h64q15 0 27 -12t12 -27v-549l182 106q16 8 30.5 3.5t22.5 -17.5l6 -12q8 -13 3.5 -29t-17.5 -25l-227 -131v-702q0 -15 -12 -27t-27 -12h-64q-15 0 -27 12t-12 27v620l-104 -59q-12 -8 -28 -3.5t-23 17.5l-7 13 q-8 12 -4 28z" />
<glyph unicode="&#x143;" horiz-adv-x="1585" d="M209 39v1378q0 15 12 26t27 11h51l924 -1151h4v1092q0 16 11 27.5t28 11.5h71q15 0 27 -12t12 -27v-1379q0 -15 -12 -25.5t-27 -10.5h-37l-940 1173h-2v-1114q0 -16 -11 -27.5t-28 -11.5h-71q-15 0 -27 12t-12 27zM611 1672q4 11 14 16l307 172q8 7 27 6t26 -13l37 -73 q6 -12 3 -25.5t-15 -17.5l-330 -138q-22 -9 -31.5 -8t-15.5 13l-21 45q-5 12 -1 23z" />
<glyph unicode="&#x144;" horiz-adv-x="1013" d="M145 39v741q0 15 12 27t27 12h39q27 0 33 -24l18 -64q5 4 14 11.5t38 26.5t60.5 33t79 26t95.5 12q318 0 318 -369v-432q0 -15 -12 -27t-27 -12h-66q-15 0 -27 12t-12 27v432q0 115 -48 173t-136 58q-43 0 -86 -12t-74 -29t-55 -34t-36 -29l-13 -12v-547q0 -15 -12 -27 t-27 -12h-64q-15 0 -27 12t-12 27zM324.5 1217q3.5 11 13.5 16l307 172q8 7 27 6.5t26 -12.5l37 -74q6 -12 3 -25.5t-15 -17.5l-330 -137q-22 -9 -31.5 -8.5t-15.5 12.5l-20 45q-5 12 -1.5 23z" />
<glyph unicode="&#x145;" horiz-adv-x="1585" d="M209 39v1378q0 15 12 26t27 11h51l924 -1151h4v1092q0 16 11 27.5t28 11.5h71q15 0 27 -12t12 -27v-1379q0 -15 -12 -25.5t-27 -10.5h-37l-940 1173h-2v-1114q0 -16 -11 -27.5t-28 -11.5h-71q-15 0 -27 12t-12 27zM675 -705.5q3 14.5 17 27.5q127 114 127 258 q-8 -2 -24 -2q-47 0 -82 35t-35 82q0 49 34.5 83t82.5 34q58 0 96.5 -42t38.5 -143q0 -114 -54.5 -217.5t-117.5 -161.5q-28 -25 -49 -4l-29 29q-8 7 -5 21.5z" />
<glyph unicode="&#x146;" horiz-adv-x="1017" d="M147 39v741q0 15 12 27t27 12h39q27 0 33 -24l18 -64q5 4 14 11.5t38 26.5t60.5 33t79 26t95.5 12q318 0 318 -369v-432q0 -15 -12 -27t-27 -12h-66q-15 0 -27 12t-12 27v432q0 115 -48 173t-136 58q-43 0 -86 -12t-74 -29t-55 -34t-36 -29l-13 -12v-547q0 -15 -12 -27 t-27 -12h-64q-15 0 -27 12t-12 27zM378 -705.5q3 14.5 17 27.5q127 114 127 258q-8 -2 -24 -2q-47 0 -82 35t-35 82q0 49 34.5 83t82.5 34q58 0 96.5 -42t38.5 -143q0 -114 -54.5 -217.5t-117.5 -161.5q-28 -25 -49 -4l-29 29q-8 7 -5 21.5z" />
<glyph unicode="&#x147;" horiz-adv-x="1585" d="M209 39v1378q0 15 12 26t27 11h51l924 -1151h4v1092q0 16 11 27.5t28 11.5h71q15 0 27 -12t12 -27v-1379q0 -15 -12 -25.5t-27 -10.5h-37l-940 1173h-2v-1114q0 -16 -11 -27.5t-28 -11.5h-71q-15 0 -27 12t-12 27zM516 1791q-4 10 2 21l29 37q17 23 47 4l209 -139 l209 144q30 19 47 -5l28 -41q4 -6 4 -12.5t-2 -11t-8.5 -11t-10.5 -9.5t-11.5 -8.5t-9.5 -6.5l-220 -172q-11 -8 -26 -8q-16 0 -27 8l-246 193q-10 7 -14 17z" />
<glyph unicode="&#x148;" horiz-adv-x="1013" d="M145 39v741q0 15 12 27t27 12h39q27 0 33 -24l18 -64q5 4 14 11.5t38 26.5t60.5 33t79 26t95.5 12q318 0 318 -369v-432q0 -15 -12 -27t-27 -12h-66q-15 0 -27 12t-12 27v432q0 115 -48 173t-136 58q-43 0 -86 -12t-74 -29t-55 -34t-36 -29l-13 -12v-547q0 -15 -12 -27 t-27 -12h-64q-15 0 -27 12t-12 27zM227.5 1328.5q-4.5 10.5 1.5 21.5l29 36q17 24 47 5l209 -140l209 144q30 19 47 -4l29 -41q4 -6 4 -12.5t-2.5 -11.5t-8.5 -11t-10.5 -9.5t-12 -9t-9.5 -6.5l-219 -172q-11 -8 -27 -8t-27 8l-245 193q-10 7 -14.5 17.5z" />
<glyph unicode="&#x149;" horiz-adv-x="1013" d="M-222 937q3 15 17 28q127 114 127 258q-8 -2 -24 -2q-47 0 -82 34.5t-35 81.5q0 49 34.5 83t82.5 34q58 0 96.5 -41.5t38.5 -142.5q0 -114 -54.5 -217.5t-117.5 -161.5q-28 -25 -49 -4l-29 28q-8 7 -5 22zM143 39v741q0 15 12 27t27 12h39q27 0 33 -24l18 -64 q5 4 14 11.5t38 26.5t60.5 33t79 26t95.5 12q318 0 318 -369v-432q0 -15 -12 -27t-27 -12h-66q-15 0 -27 12t-12 27v432q0 115 -48 173t-136 58q-43 0 -86 -12t-74 -29t-55 -34t-36 -29l-13 -12v-547q0 -15 -12 -27t-27 -12h-64q-15 0 -27 12t-12 27z" />
<glyph unicode="&#x14a;" horiz-adv-x="1585" d="M209 39v1378q0 15 12 26t27 11h51l924 -1151h4v1092q0 16 11 27.5t28 11.5h71q15 0 27 -12t12 -27v-1682q0 -171 -87 -259.5t-226 -88.5q-136 0 -225 84q-10 9 -12.5 23t3.5 24l33 53q18 30 53 2q26 -19 71 -39t79 -20q75 0 119.5 54t44.5 167v350l-869 1090h-2v-1114 q0 -16 -11 -27.5t-28 -11.5h-71q-15 0 -27 12t-12 27z" />
<glyph unicode="&#x14b;" horiz-adv-x="1015" d="M145 39v741q0 15 12 27t27 12h39q27 0 33 -24l18 -64q5 4 14 11.5t38 26.5t60.5 33t79 26t95.5 12q318 0 318 -369v-758q0 -171 -87.5 -259.5t-226.5 -88.5q-136 0 -225 84q-23 20 -8 47l33 53q18 30 53 2q26 -20 70.5 -39.5t78.5 -19.5q76 0 122 54t46 167v758 q0 115 -48 173t-136 58q-43 0 -86 -12t-74 -29t-55 -34t-36 -29l-13 -12v-547q0 -15 -12 -27t-27 -12h-64q-15 0 -27 12t-12 27z" />
<glyph unicode="&#x14c;" horiz-adv-x="1681" d="M104 715q0 151 58 288t156 236t234.5 157t287.5 58t287.5 -58t235 -157t156.5 -236t58 -288t-58 -287.5t-156.5 -234.5t-235 -155.5t-287.5 -57.5q-202 0 -371 97.5t-267 266.5t-98 371zM248 715q0 -160 79.5 -296.5t216 -216t296.5 -79.5t297 79.5t217 216t80 296.5 t-80 297.5t-217 218t-297 80.5t-296.5 -80.5t-216 -218t-79.5 -297.5zM541 1718v43q0 17 11 28t28 11h524q17 0 28 -11t11 -28v-43q0 -15 -11 -26t-28 -11h-524q-17 0 -28 11t-11 26z" />
<glyph unicode="&#x14d;" d="M86 412q0 174 119.5 301t288.5 127q111 0 205 -58.5t148 -157t54 -212.5q0 -178 -119 -305t-288 -127q-111 0 -205.5 58.5t-148.5 158t-54 215.5zM195 1231v43q0 17 10.5 28t27.5 11h525q17 0 28 -11t11 -28v-43q0 -15 -11 -26t-28 -11h-525q-17 0 -27.5 11t-10.5 26z M227 412q0 -125 77.5 -212t189.5 -87t189 87t77 212q0 122 -77 207.5t-189 85.5t-189.5 -85.5t-77.5 -207.5z" />
<glyph unicode="&#x14e;" horiz-adv-x="1681" d="M104 715q0 151 58 288t156 236t234.5 157t287.5 58t287.5 -58t235 -157t156.5 -236t58 -288t-58 -287.5t-156.5 -234.5t-235 -155.5t-287.5 -57.5q-202 0 -371 97.5t-267 266.5t-98 371zM248 715q0 -160 79.5 -296.5t216 -216t296.5 -79.5t297 79.5t217 216t80 296.5 t-80 297.5t-217 218t-297 80.5t-296.5 -80.5t-216 -218t-79.5 -297.5zM565 1812q-7 41 29 41h43q28 0 39 -34q18 -60 62 -95.5t104 -35.5q55 0 99.5 37.5t62.5 93.5q12 34 38 34h48q17 0 24 -11.5t4 -29.5q-17 -101 -94 -167t-182 -66q-107 0 -185 66.5t-92 166.5z" />
<glyph unicode="&#x14f;" d="M86 412q0 174 119.5 301t288.5 127q111 0 205 -58.5t148 -157t54 -212.5q0 -178 -119 -305t-288 -127q-111 0 -205.5 58.5t-148.5 158t-54 215.5zM217 1321q-7 41 29 41h43q27 0 39 -35q18 -60 62 -95.5t104 -35.5q55 0 99 37.5t62 93.5q12 35 39 35h47q17 0 24.5 -11.5 t4.5 -29.5q-17 -101 -94 -167.5t-182 -66.5q-107 0 -185 67t-92 167zM227 412q0 -125 77.5 -212t189.5 -87t189 87t77 212q0 122 -77 207.5t-189 85.5t-189.5 -85.5t-77.5 -207.5z" />
<glyph unicode="&#x150;" horiz-adv-x="1681" d="M104 715q0 151 58 288t156 236t234.5 157t287.5 58t287.5 -58t235 -157t156.5 -236t58 -288t-58 -287.5t-156.5 -234.5t-235 -155.5t-287.5 -57.5q-202 0 -371 97.5t-267 266.5t-98 371zM248 715q0 -160 79.5 -296.5t216 -216t296.5 -79.5t297 79.5t217 216t80 296.5 t-80 297.5t-217 218t-297 80.5t-296.5 -80.5t-216 -218t-79.5 -297.5zM659 1614l103 289q12 39 39 39h80q28 0 38 -16t-1 -36l-160 -284q-16 -31 -37 -31h-23q-16 0 -29.5 12.5t-9.5 26.5zM999 1614l103 289q12 39 39 39h80q28 0 38 -16t-2 -36l-159 -284q-16 -31 -37 -31 h-23q-16 0 -29.5 12.5t-9.5 26.5z" />
<glyph unicode="&#x151;" d="M86 412q0 174 119.5 301t288.5 127q111 0 205 -58.5t148 -157t54 -212.5q0 -178 -119 -305t-288 -127q-111 0 -205.5 58.5t-148.5 158t-54 215.5zM227 412q0 -125 77.5 -212t189.5 -87t189 87t77 212q0 122 -77 207.5t-189 85.5t-189.5 -85.5t-77.5 -207.5zM301 1106 l102 289q12 39 39 39h80q28 0 38 -16t-1 -36l-160 -284q-15 -31 -37 -31h-22q-16 0 -29.5 12.5t-9.5 26.5zM641 1106l102 289q12 39 39 39h80q28 0 38 -16t-1 -36l-160 -284q-15 -31 -37 -31h-22q-16 0 -29.5 12.5t-9.5 26.5z" />
<glyph unicode="&#x152;" horiz-adv-x="1980" d="M104 715q0 151 58 288t156 236t234.5 157t287.5 58q41 0 85 -5t67 -10l24 -5h807q17 0 28 -11.5t11 -27.5v-60q0 -16 -11 -27.5t-28 -11.5h-688v-499h587q15 0 27 -12t12 -27v-60q0 -17 -11.5 -28t-27.5 -11h-587v-522h688q17 0 28 -11.5t11 -27.5v-59q0 -16 -11 -27.5 t-28 -11.5h-807q-84 -20 -176 -20q-202 0 -371 97.5t-267 266.5t-98 371zM248 715q0 -160 79.5 -296.5t216 -216t296.5 -79.5q74 0 137 14v1155q-77 17 -137 17q-160 0 -296.5 -80t-216 -217t-79.5 -297z" />
<glyph unicode="&#x153;" horiz-adv-x="1595" d="M84 414q0 175 118 300.5t287 125.5q99 0 185 -47.5t143 -128.5q55 83 140 129.5t190 46.5q157 0 264 -104.5t107 -270.5q0 -20 -5 -55q-1 -15 -11.5 -25t-24.5 -10h-586q14 -105 92.5 -184.5t177.5 -79.5q107 0 203 59q3 2 10 5.5t9 5t7 4t7.5 2.5h6t6 -1.5t5.5 -4.5 t6 -7q6 -8 17.5 -23.5t17.5 -23.5q9 -11 11.5 -17t-1 -15.5t-18.5 -20.5q-45 -36 -125.5 -65t-175.5 -29q-104 0 -189 47t-141 129q-57 -81 -143 -128.5t-185 -47.5q-169 0 -287 128t-118 306zM225 414q0 -125 76 -213t188 -88t188.5 88t76.5 213q0 122 -76.5 206.5 t-188.5 84.5t-188 -84.5t-76 -206.5zM893 487h485q-4 95 -70.5 158.5t-160.5 63.5q-102 0 -172.5 -63t-81.5 -159z" />
<glyph unicode="&#x154;" horiz-adv-x="1353" d="M209 39v1356q0 16 11 27.5t28 11.5h530q185 0 316 -127.5t131 -309.5q0 -138 -83.5 -250t-219.5 -167l280 -521q11 -20 0.5 -39.5t-35.5 -19.5h-104q-24 0 -33 18l-272 543h-391v-522q0 -15 -12 -27t-27 -12h-80q-17 0 -28 11.5t-11 27.5zM371 696h397q120 0 207.5 87 t87.5 212q0 117 -88 203t-207 86h-397v-588zM441 1672q4 11 14 16l307 172q8 7 27 6t26 -13l37 -73q6 -12 3 -25.5t-15 -17.5l-330 -138q-22 -9 -31.5 -8t-15.5 13l-21 45q-5 12 -1 23z" />
<glyph unicode="&#x155;" horiz-adv-x="684" d="M145 39v741q0 15 12 27t27 12h39q29 0 35 -28l16 -60q3 4 9 11.5t28.5 26.5t48.5 33t69 26t91 12q27 0 52 -3t50 -9.5t37 -21t5 -34.5l-25 -70q-12 -33 -49 -18q-36 16 -80 16t-83 -11.5t-63.5 -28.5t-42.5 -34t-26 -28l-8 -12v-547q0 -15 -12 -27t-27 -12h-64 q-15 0 -27 12t-12 27zM174.5 1217q3.5 11 13.5 16l308 172q8 7 27 6.5t26 -12.5l37 -74q6 -12 2.5 -25.5t-15.5 -17.5l-329 -137q-22 -9 -31.5 -8.5t-15.5 12.5l-21 45q-5 12 -1.5 23z" />
<glyph unicode="&#x156;" horiz-adv-x="1351" d="M209 39v1356q0 16 11 27.5t28 11.5h530q185 0 316 -127.5t131 -309.5q0 -138 -83.5 -250t-219.5 -167l280 -521q11 -20 0.5 -39.5t-35.5 -19.5h-104q-24 0 -33 18l-272 543h-391v-522q0 -15 -12 -27t-27 -12h-80q-17 0 -28 11.5t-11 27.5zM371 696h397q120 0 207.5 87 t87.5 212q0 117 -88 203t-207 86h-397v-588zM525.5 -705.5q3.5 14.5 17.5 27.5q127 114 127 258q-8 -2 -25 -2q-47 0 -82 35t-35 82q0 49 34.5 83t82.5 34q58 0 96.5 -42t38.5 -143q0 -114 -54.5 -217.5t-117.5 -161.5q-28 -25 -49 -4l-29 29q-8 7 -4.5 21.5z" />
<glyph unicode="&#x157;" horiz-adv-x="684" d="M97.5 -705.5q3.5 14.5 17.5 27.5q127 114 127 258q-8 -2 -25 -2q-47 0 -82 35t-35 82q0 49 34.5 83t82.5 34q58 0 96.5 -42t38.5 -143q0 -114 -54.5 -217.5t-117.5 -161.5q-28 -25 -49 -4l-29 29q-8 7 -4.5 21.5zM145 39v741q0 15 12 27t27 12h39q29 0 35 -28l16 -60 q3 4 9 11.5t28.5 26.5t48.5 33t69 26t91 12q27 0 52 -3t50 -9.5t37 -21t5 -34.5l-25 -70q-12 -33 -49 -18q-36 16 -80 16t-83 -11.5t-63.5 -28.5t-42.5 -34t-26 -28l-8 -12v-547q0 -15 -12 -27t-27 -12h-64q-15 0 -27 12t-12 27z" />
<glyph unicode="&#x158;" horiz-adv-x="1353" d="M209 39v1356q0 16 11 27.5t28 11.5h530q185 0 316 -127.5t131 -309.5q0 -138 -83.5 -250t-219.5 -167l280 -521q11 -20 0.5 -39.5t-35.5 -19.5h-104q-24 0 -33 18l-272 543h-391v-522q0 -15 -12 -27t-27 -12h-80q-17 0 -28 11.5t-11 27.5zM340 1791q-4 10 2 21l29 37 q17 23 47 4l209 -139l209 144q30 19 47 -5l28 -41q4 -6 4 -12.5t-2.5 -11.5t-8.5 -10.5t-10.5 -9t-12 -8.5t-9.5 -7l-219 -172q-11 -8 -26 -8q-16 0 -27 8l-246 193q-10 7 -14 17zM371 696h397q120 0 207.5 87t87.5 212q0 117 -88 203t-207 86h-397v-588z" />
<glyph unicode="&#x159;" horiz-adv-x="684" d="M64 1328.5q-4 10.5 2 21.5l28 36q17 24 47 5l209 -140l209 144q30 19 47 -4l29 -41q4 -6 4 -12.5t-2.5 -11.5t-8.5 -11t-10.5 -9.5t-12 -9t-9.5 -6.5l-219 -172q-11 -8 -27 -8q-15 0 -26 8l-246 193q-10 7 -14 17.5zM145 39v741q0 15 12 27t27 12h39q29 0 35 -28l16 -60 q3 4 9 11.5t28.5 26.5t48.5 33t69 26t91 12q27 0 52 -3t50 -9.5t37 -21t5 -34.5l-25 -70q-12 -33 -49 -18q-36 16 -80 16t-83 -11.5t-63.5 -28.5t-42.5 -34t-26 -28l-8 -12v-547q0 -15 -12 -27t-27 -12h-64q-15 0 -27 12t-12 27z" />
<glyph unicode="&#x15a;" horiz-adv-x="1091" d="M106 182q-1 15 11 33q5 6 15 19.5t15 19.5q36 49 72 18q181 -155 346 -155q121 0 198 66t77 159q0 101 -85.5 173.5t-273.5 150.5q-93 41 -152.5 76t-110.5 84.5t-74 114t-23 149.5q0 44 13.5 91t46.5 97t81 88.5t125 63t170 24.5q89 0 176.5 -26t130.5 -52l43 -26 q8 -4 14.5 -12t9 -23.5t-10.5 -34.5q-4 -6 -12.5 -19.5t-12.5 -19.5q-27 -43 -72 -18l-10 6l-20 12t-27.5 15t-34.5 17t-39.5 16.5t-44 14t-45.5 9.5t-47 4q-77 0 -135 -22.5t-88.5 -58.5t-45 -72.5t-14.5 -71.5q0 -97 69 -164t208 -125q92 -38 154.5 -68.5t124 -71.5 t97 -85t57.5 -102t22 -128q0 -157 -130 -262.5t-313 -105.5q-84 0 -163.5 21t-136 53.5t-85 53t-47.5 37.5q-12 10 -17 16t-6 21zM373.5 1672q3.5 11 13.5 16l307 172q8 7 27.5 6t26.5 -13l36 -73q6 -12 3 -25.5t-15 -17.5l-330 -138q-22 -9 -31.5 -8t-15.5 13l-20 45 q-5 12 -1.5 23z" />
<glyph unicode="&#x15b;" horiz-adv-x="729" d="M92 627q0 35 14.5 70t43.5 68t81.5 54t120.5 21q72 0 132 -19.5t96 -44.5q14 -9 17.5 -27.5t-5.5 -35.5l-17 -33q-9 -17 -27.5 -21.5t-31.5 3.5q-88 49 -164 49q-62 0 -89 -25t-27 -57q0 -24 10 -43.5t36 -38t44 -28t61 -30.5q45 -22 69.5 -34.5t61.5 -34.5t57 -41 t41 -45t30 -56.5t9 -66.5q0 -93 -80 -162t-202 -69q-149 0 -267 92q-8 6 -11 19t1 24q5 7 16 27.5t13 23.5q8 12 23 14t32 -8q10 -8 27.5 -20t68.5 -32t97 -20q61 0 97 28t36 71q0 50 -38.5 81t-141.5 82q-49 24 -84 45.5t-72.5 54t-57.5 74t-20 91.5zM187 1217q4 11 14 16 l307 172q8 7 27 6.5t26 -12.5l37 -74q6 -12 3 -25.5t-15 -17.5l-330 -137q-22 -9 -31.5 -8.5t-15.5 12.5l-21 45q-5 12 -1 23z" />
<glyph unicode="&#x15c;" horiz-adv-x="1091" d="M106 182q-1 15 11 33q5 6 15 19.5t15 19.5q36 49 72 18q181 -155 346 -155q121 0 198 66t77 159q0 101 -85.5 173.5t-273.5 150.5q-93 41 -152.5 76t-110.5 84.5t-74 114t-23 149.5q0 44 13.5 91t46.5 97t81 88.5t125 63t170 24.5q89 0 176.5 -26t130.5 -52l43 -26 q8 -4 14.5 -12t9 -23.5t-10.5 -34.5q-4 -6 -12.5 -19.5t-12.5 -19.5q-27 -43 -72 -18l-10 6l-20 12t-27.5 15t-34.5 17t-39.5 16.5t-44 14t-45.5 9.5t-47 4q-77 0 -135 -22.5t-88.5 -58.5t-45 -72.5t-14.5 -71.5q0 -97 69 -164t208 -125q92 -38 154.5 -68.5t124 -71.5 t97 -85t57.5 -102t22 -128q0 -157 -130 -262.5t-313 -105.5q-84 0 -163.5 21t-136 53.5t-85 53t-47.5 37.5q-12 10 -17 16t-6 21zM272.5 1645.5q4.5 10.5 14.5 17.5l245 192q12 9 27 9t27 -9l245 -192q10 -7 14.5 -17.5t-1.5 -21.5q-3 -4 -10.5 -16.5t-12.5 -19t-13.5 -13 t-18 -5.5t-21.5 9l-209 143l-209 -139q-30 -19 -47 4l-29 37q-6 11 -1.5 21.5z" />
<glyph unicode="&#x15d;" horiz-adv-x="729" d="M90 1195q4 10 14 17l246 193q11 8 27 8q15 0 26 -8l246 -193q27 -18 13 -38q-3 -4 -10.5 -16.5t-12.5 -19t-13.5 -13.5t-18 -6t-21.5 9l-209 144l-209 -139q-30 -19 -47 4l-29 37q-6 11 -2 21zM92 627q0 35 14.5 70t43.5 68t81.5 54t120.5 21q72 0 132 -19.5t96 -44.5 q14 -9 17.5 -27.5t-5.5 -35.5l-17 -33q-9 -17 -27.5 -21.5t-31.5 3.5q-88 49 -164 49q-62 0 -89 -25t-27 -57q0 -24 10 -43.5t36 -38t44 -28t61 -30.5q45 -22 69.5 -34.5t61.5 -34.5t57 -41t41 -45t30 -56.5t9 -66.5q0 -93 -80 -162t-202 -69q-149 0 -267 92q-8 6 -11 19 t1 24q5 7 16 27.5t13 23.5q8 12 23 14t32 -8q10 -8 27.5 -20t68.5 -32t97 -20q61 0 97 28t36 71q0 50 -38.5 81t-141.5 82q-49 24 -84 45.5t-72.5 54t-57.5 74t-20 91.5z" />
<glyph unicode="&#x15e;" horiz-adv-x="1093" d="M108 182q-1 15 11 33l31 39q36 48 71 18q181 -155 346 -155q121 0 198 66t77 159q0 101 -85.5 173.5t-273.5 150.5q-93 41 -152.5 76t-110.5 84.5t-74 114t-23 149.5q0 44 13.5 91t46.5 97t81 88.5t125 63t170 24.5q89 0 176.5 -26t130.5 -52l43 -26q8 -4 14.5 -12 t9 -23.5t-10.5 -34.5l-25 -39q-27 -43 -72 -18l-10 6l-20 12t-27.5 15t-34.5 17t-39.5 16.5t-44 14t-45.5 9.5t-47 4q-77 0 -135 -22.5t-88.5 -58.5t-45 -72.5t-14.5 -71.5q0 -97 69 -164t208 -125q92 -38 154.5 -68.5t124 -71.5t97 -85t57.5 -102t22 -128 q0 -150 -119 -253.5t-291 -112.5v-91q97 -12 156 -67.5t59 -142.5q0 -89 -62 -151t-153 -62q-45 0 -87 19.5t-69 51.5q-12 14 -11.5 29.5t11.5 23.5l29 23q11 8 25 8.5t22 -8.5q34 -37 84 -37q41 0 65.5 27t24.5 69q0 33 -15.5 57.5t-44.5 38.5t-53 20.5t-57 12.5 q-35 7 -35 41v142q-69 9 -134.5 31.5t-110.5 49.5t-70.5 46t-38.5 32q-12 10 -17 16t-6 21z" />
<glyph unicode="&#x15f;" horiz-adv-x="733" d="M94 627q0 35 14.5 70t43.5 68t81.5 54t120.5 21q72 0 132 -19.5t96 -44.5q14 -9 17.5 -27.5t-5.5 -35.5l-16 -33q-9 -16 -28 -21t-32 3q-88 49 -164 49q-62 0 -89 -25t-27 -57q0 -24 10 -43.5t36 -38t44 -28t61 -30.5q45 -22 69.5 -34.5t61.5 -34.5t57 -41t41 -45 t30 -56.5t9 -66.5q0 -87 -70.5 -153.5t-180.5 -75.5v-91q97 -12 156 -67.5t59 -142.5q0 -89 -62 -151t-153 -62q-45 0 -87 19.5t-69 51.5q-12 14 -11.5 29.5t11.5 23.5l29 23q11 8 25 8.5t22 -8.5q34 -37 84 -37q41 0 65.5 27t24.5 69q0 33 -15.5 57.5t-44.5 38.5t-53 20.5 t-57 12.5q-35 7 -35 41v144q-104 16 -186 84q-8 6 -11.5 19t0.5 24q5 7 16 27.5t13 23.5q8 12 23 14t32 -8q10 -8 27.5 -20t68.5 -32t97 -20q61 0 97 28t36 71q0 50 -38.5 81t-141.5 82q-49 24 -84 45.5t-72.5 54t-57.5 74t-20 91.5z" />
<glyph unicode="&#x160;" horiz-adv-x="1091" d="M106 182q-1 15 11 33q5 6 15 19.5t15 19.5q36 49 72 18q181 -155 346 -155q121 0 198 66t77 159q0 101 -85.5 173.5t-273.5 150.5q-93 41 -152.5 76t-110.5 84.5t-74 114t-23 149.5q0 44 13.5 91t46.5 97t81 88.5t125 63t170 24.5q89 0 176.5 -26t130.5 -52l43 -26 q8 -4 14.5 -12t9 -23.5t-10.5 -34.5q-4 -6 -12.5 -19.5t-12.5 -19.5q-27 -43 -72 -18l-10 6l-20 12t-27.5 15t-34.5 17t-39.5 16.5t-44 14t-45.5 9.5t-47 4q-77 0 -135 -22.5t-88.5 -58.5t-45 -72.5t-14.5 -71.5q0 -97 69 -164t208 -125q92 -38 154.5 -68.5t124 -71.5 t97 -85t57.5 -102t22 -128q0 -157 -130 -262.5t-313 -105.5q-84 0 -163.5 21t-136 53.5t-85 53t-47.5 37.5q-12 10 -17 16t-6 21zM274 1812l29 37q17 23 47 4l209 -139l209 144q30 19 47 -5l29 -41q4 -6 4 -12.5t-2.5 -11.5t-8.5 -10.5t-10.5 -9t-12 -8.5t-9.5 -7l-219 -172 q-11 -8 -27 -8t-27 8l-245 193q-27 18 -13 38z" />
<glyph unicode="&#x161;" horiz-adv-x="729" d="M92 627q0 35 14.5 70t43.5 68t81.5 54t120.5 21q72 0 132 -19.5t96 -44.5q14 -9 17.5 -27.5t-5.5 -35.5l-17 -33q-9 -17 -27.5 -21.5t-31.5 3.5q-88 49 -164 49q-62 0 -89 -25t-27 -57q0 -24 10 -43.5t36 -38t44 -28t61 -30.5q45 -22 69.5 -34.5t61.5 -34.5t57 -41 t41 -45t30 -56.5t9 -66.5q0 -93 -80 -162t-202 -69q-149 0 -267 92q-8 6 -11 19t1 24q5 7 16 27.5t13 23.5q8 12 23 14t32 -8q10 -8 27.5 -20t68.5 -32t97 -20q61 0 97 28t36 71q0 50 -38.5 81t-141.5 82q-49 24 -84 45.5t-72.5 54t-57.5 74t-20 91.5zM96.5 1328.5 q-4.5 10.5 1.5 21.5l29 36q17 24 47 5l209 -140l209 144q30 19 47 -4l29 -41q4 -6 4 -12.5t-2.5 -11.5t-8.5 -11t-10.5 -9.5t-12 -9t-9.5 -6.5l-219 -172q-11 -8 -27 -8t-27 8l-245 193q-10 7 -14.5 17.5z" />
<glyph unicode="&#x162;" horiz-adv-x="978" d="M16 1335v60q0 16 11 27.5t28 11.5h869q17 0 28 -11.5t11 -27.5v-60q0 -16 -11 -27.5t-28 -11.5h-357v-1257q0 -15 -12 -27t-27 -12h-77q-15 0 -27 12t-12 27v1257h-357q-17 0 -28 11.5t-11 27.5zM364 -705.5q3 14.5 17 27.5q127 114 127 258q-8 -2 -25 -2q-47 0 -81.5 35 t-34.5 82q0 49 34 83t82 34q58 0 96.5 -42t38.5 -143q0 -114 -54.5 -217.5t-117.5 -161.5q-28 -25 -49 -4l-28 29q-8 7 -5 21.5z" />
<glyph unicode="&#x163;" horiz-adv-x="702" d="M55 735v45q0 17 11 28t28 11h105v228q0 15 12 26.5t27 11.5l65 5q15 0 26 -12t11 -27v-232h238q17 0 27.5 -11t10.5 -28v-45q0 -16 -10.5 -27.5t-27.5 -11.5h-238v-479q0 -59 15.5 -78.5t52.5 -19.5q62 0 149 45q25 9 32.5 6t16.5 -18l31 -52q10 -19 7 -29.5t-21 -21.5 q-33 -21 -103 -45t-133 -24q-59 0 -98 16.5t-58 49.5t-25.5 69.5t-6.5 89.5v491h-105q-17 0 -28 11.5t-11 27.5zM257 -705.5q3 14.5 17 27.5q127 114 127 258q-8 -2 -24 -2q-47 0 -82 35t-35 82q0 49 34.5 83t82.5 34q58 0 96.5 -42t38.5 -143q0 -114 -54.5 -217.5 t-117.5 -161.5q-28 -25 -49 -4l-29 29q-8 7 -5 21.5z" />
<glyph unicode="&#x164;" horiz-adv-x="978" d="M16 1335v60q0 16 11 27.5t28 11.5h869q17 0 28 -11.5t11 -27.5v-60q0 -16 -11 -27.5t-28 -11.5h-357v-1257q0 -15 -12 -27t-27 -12h-77q-15 0 -27 12t-12 27v1257h-357q-17 0 -28 11.5t-11 27.5zM201 1791q-4 10 2 21l28 37q17 24 48 4l208 -139l209 144q30 19 47 -5 l29 -41q4 -6 4 -12.5t-2.5 -11.5t-8.5 -10.5t-10.5 -9t-12 -8.5t-9.5 -7l-219 -172q-11 -8 -27 -8q-15 0 -26 8l-246 193q-10 7 -14 17z" />
<glyph unicode="&#x165;" horiz-adv-x="700" d="M55 735v45q0 17 11 28t28 11h105v228q0 15 12 26.5t27 11.5l65 5q15 0 26 -12t11 -27v-232h238q17 0 27.5 -11t10.5 -28v-45q0 -16 -10.5 -27.5t-27.5 -11.5h-238v-479q0 -59 15.5 -78.5t52.5 -19.5q62 0 149 45q25 9 32.5 6t16.5 -18l31 -52q10 -19 7 -29.5t-21 -21.5 q-33 -21 -103 -45t-133 -24q-59 0 -98 16.5t-58 49.5t-25.5 69.5t-6.5 89.5v491h-105q-17 0 -28 11.5t-11 27.5zM728 939.5q3 14.5 17 27.5q127 114 127 258q-8 -2 -24 -2q-47 0 -82 34.5t-35 81.5q0 49 34.5 83t82.5 34q58 0 96.5 -41.5t38.5 -142.5q0 -114 -54.5 -217.5 t-117.5 -161.5q-28 -25 -49 -4l-29 29q-8 7 -5 21.5z" />
<glyph unicode="&#x166;" horiz-adv-x="978" d="M16 1335v60q0 16 11 27.5t28 11.5h869q17 0 28 -11.5t11 -27.5v-60q0 -16 -11 -27.5t-28 -11.5h-357v-600h213q17 0 28 -11.5t11 -27.5v-16q0 -15 -11 -26t-28 -11h-213v-565q0 -15 -12 -27t-27 -12h-77q-15 0 -27 12t-12 27v565h-213q-15 0 -26 12t-11 27v14q0 15 11 27 t26 12h213v600h-357q-17 0 -28 11.5t-11 27.5z" />
<glyph unicode="&#x167;" horiz-adv-x="700" d="M55 735v45q0 17 11 28t28 11h105v228q0 15 12 26.5t27 11.5l65 5q15 0 26 -12t11 -27v-232h238q17 0 27.5 -11t10.5 -28v-45q0 -16 -10.5 -27.5t-27.5 -11.5h-238v-250h192q17 0 28 -11.5t11 -26.5v-17q0 -15 -11 -26t-28 -11h-192v-137q0 -59 15.5 -78.5t52.5 -19.5 q62 0 149 45q25 9 32.5 6t16.5 -18l31 -52q10 -19 7 -29.5t-21 -21.5q-33 -21 -103 -45t-133 -24q-59 0 -98 16.5t-58 49.5t-25.5 69.5t-6.5 89.5v149h-84q-15 0 -26 12t-11 27v15q0 15 11 26.5t26 11.5h84v250h-105q-17 0 -28 11.5t-11 27.5z" />
<glyph unicode="&#x168;" horiz-adv-x="1466" d="M190 528v867q0 15 12 27t27 12h78q17 0 28 -11.5t11 -27.5v-854q0 -180 104.5 -298t280.5 -118q178 0 283.5 116.5t105.5 295.5v858q0 16 11 27.5t28 11.5h78q15 0 27 -12t12 -27v-867q0 -236 -152.5 -392t-392.5 -156q-158 0 -282 72t-191.5 196.5t-67.5 279.5z M440 1692q2 3 11 25t16 37t23.5 37.5t34 36.5t45 25t59.5 11q42 0 78 -24t57 -52t45.5 -52t44.5 -24q62 0 92 105q10 32 47 16l33 -16q6 -3 9.5 -7.5t4.5 -8.5t0.5 -10.5t-1 -9.5t-3 -10t-2.5 -8q-56 -166 -182 -166q-38 0 -74.5 24t-59 53t-48 53t-43.5 24q-19 0 -34.5 -9 t-26.5 -26.5t-16.5 -31.5t-12.5 -35q-5 -17 -18 -23.5t-34 2.5l-36 19q-23 12 -9 45z" />
<glyph unicode="&#x169;" horiz-adv-x="993" d="M135 350v430q0 15 12 27t27 12h66q15 0 27 -12t12 -27v-432q0 -115 48 -173t136 -58q44 0 85 12t68.5 29t49 34t31.5 29l10 12v547q0 15 11.5 27t26.5 12h64q15 0 27 -12t12 -27v-741q0 -15 -12 -27t-27 -12h-39q-16 0 -24 9t-13 26l-14 53l-11.5 -11.5t-33 -26 t-54.5 -33t-74 -26t-93 -11.5q-318 0 -318 370zM201 1241q2 4 11 25t16 36.5t23 38t33.5 37t45 25t59.5 10.5q42 0 78 -23.5t57 -52t45.5 -52t44.5 -23.5q63 0 93 104q10 32 47 16l32 -16q5 -2 8.5 -5.5t5 -8t2 -8t-0.5 -9t-1.5 -8t-2.5 -8t-2 -6.5q-9 -27 -21.5 -51.5 t-34 -52.5t-54.5 -45t-73 -17q-38 0 -74.5 24t-59 52.5t-48 52.5t-43.5 24q-19 0 -34.5 -9t-26.5 -26.5t-16.5 -31.5t-12.5 -35q-5 -17 -17.5 -23t-33.5 3l-37 18q-22 11 -8 45z" />
<glyph unicode="&#x16a;" horiz-adv-x="1466" d="M190 528v867q0 15 12 27t27 12h78q17 0 28 -11.5t11 -27.5v-854q0 -180 104.5 -298t280.5 -118q178 0 283.5 116.5t105.5 295.5v858q0 16 11 27.5t28 11.5h78q15 0 27 -12t12 -27v-867q0 -236 -152.5 -392t-392.5 -156q-158 0 -282 72t-191.5 196.5t-67.5 279.5z M430 1718v43q0 17 11 28t28 11h524q17 0 28 -11t11 -28v-43q0 -15 -11 -26t-28 -11h-524q-17 0 -28 11t-11 26z" />
<glyph unicode="&#x16b;" horiz-adv-x="993" d="M135 350v430q0 15 12 27t27 12h66q15 0 27 -12t12 -27v-432q0 -115 48 -173t136 -58q44 0 85 12t68.5 29t49 34t31.5 29l10 12v547q0 15 11.5 27t26.5 12h64q15 0 27 -12t12 -27v-741q0 -15 -12 -27t-27 -12h-39q-16 0 -24 9t-13 26l-14 53l-11.5 -11.5t-33 -26 t-54.5 -33t-74 -26t-93 -11.5q-318 0 -318 370zM193 1231v43q0 17 10.5 28t27.5 11h525q17 0 28 -11t11 -28v-43q0 -15 -11 -26t-28 -11h-525q-17 0 -27.5 11t-10.5 26z" />
<glyph unicode="&#x16c;" horiz-adv-x="1466" d="M190 528v867q0 15 12 27t27 12h78q17 0 28 -11.5t11 -27.5v-854q0 -180 104.5 -298t280.5 -118q178 0 283.5 116.5t105.5 295.5v858q0 16 11 27.5t28 11.5h78q15 0 27 -12t12 -27v-867q0 -236 -152.5 -392t-392.5 -156q-158 0 -282 72t-191.5 196.5t-67.5 279.5z M453 1812q-7 41 28 41h43q28 0 39 -34q18 -60 62 -95.5t104 -35.5q55 0 99.5 37.5t62.5 93.5q12 34 39 34h47q17 0 24.5 -11.5t4.5 -29.5q-17 -101 -94.5 -167t-182.5 -66q-107 0 -184.5 66.5t-91.5 166.5z" />
<glyph unicode="&#x16d;" horiz-adv-x="993" d="M135 350v430q0 15 12 27t27 12h66q15 0 27 -12t12 -27v-432q0 -115 48 -173t136 -58q44 0 85 12t68.5 29t49 34t31.5 29l10 12v547q0 15 11.5 27t26.5 12h64q15 0 27 -12t12 -27v-741q0 -15 -12 -27t-27 -12h-39q-16 0 -24 9t-13 26l-14 53l-11.5 -11.5t-33 -26 t-54.5 -33t-74 -26t-93 -11.5q-318 0 -318 370zM225 1321q-7 41 29 41h43q27 0 39 -35q18 -60 62 -95.5t104 -35.5q55 0 99.5 37.5t62.5 93.5q12 35 38 35h48q17 0 24 -11.5t4 -29.5q-17 -101 -94 -167.5t-182 -66.5q-107 0 -185 67t-92 167z" />
<glyph unicode="&#x16e;" horiz-adv-x="1466" d="M190 528v867q0 15 12 27t27 12h78q17 0 28 -11.5t11 -27.5v-854q0 -180 104.5 -298t280.5 -118q178 0 283.5 116.5t105.5 295.5v858q0 16 11 27.5t28 11.5h78q15 0 27 -12t12 -27v-867q0 -236 -152.5 -392t-392.5 -156q-158 0 -282 72t-191.5 196.5t-67.5 279.5z M506 1776q0 94 64.5 158.5t158.5 64.5q93 0 158 -65t65 -158q0 -94 -65 -159t-158 -65q-94 0 -158.5 65t-64.5 159zM604 1776q0 -50 38 -87.5t87 -37.5t85 37.5t36 87.5q0 49 -35.5 84.5t-85.5 35.5t-87.5 -35.5t-37.5 -84.5z" />
<glyph unicode="&#x16f;" horiz-adv-x="993" d="M135 350v430q0 15 12 27t27 12h66q15 0 27 -12t12 -27v-432q0 -115 48 -173t136 -58q44 0 85 12t68.5 29t49 34t31.5 29l10 12v547q0 15 11.5 27t26.5 12h64q15 0 27 -12t12 -27v-741q0 -15 -12 -27t-27 -12h-39q-16 0 -24 9t-13 26l-14 53l-11.5 -11.5t-33 -26 t-54.5 -33t-74 -26t-93 -11.5q-318 0 -318 370zM276 1231q0 94 65 158.5t159 64.5q93 0 158 -65t65 -158t-65 -158t-158 -65q-94 0 -159 64.5t-65 158.5zM375 1231q0 -49 37.5 -87t87.5 -38q49 0 85 37.5t36 87.5q0 49 -35.5 85t-85.5 36t-87.5 -36t-37.5 -85z" />
<glyph unicode="&#x170;" horiz-adv-x="1466" d="M190 528v867q0 15 12 27t27 12h78q17 0 28 -11.5t11 -27.5v-854q0 -180 104.5 -298t280.5 -118q178 0 283.5 116.5t105.5 295.5v858q0 16 11 27.5t28 11.5h78q15 0 27 -12t12 -27v-867q0 -236 -152.5 -392t-392.5 -156q-158 0 -282 72t-191.5 196.5t-67.5 279.5z M532 1614l103 289q12 39 39 39h80q28 0 38 -16t-1 -36l-160 -284q-15 -31 -37 -31h-23q-16 0 -29.5 12.5t-9.5 26.5zM872 1614l103 289q12 39 39 39h80q28 0 38 -16t-2 -36l-159 -284q-15 -31 -37 -31h-23q-16 0 -29.5 12.5t-9.5 26.5z" />
<glyph unicode="&#x171;" horiz-adv-x="993" d="M135 350v430q0 15 12 27t27 12h66q15 0 27 -12t12 -27v-432q0 -115 48 -173t136 -58q44 0 85 12t68.5 29t49 34t31.5 29l10 12v547q0 15 11.5 27t26.5 12h64q15 0 27 -12t12 -27v-741q0 -15 -12 -27t-27 -12h-39q-16 0 -24 9t-13 26l-14 53l-11.5 -11.5t-33 -26 t-54.5 -33t-74 -26t-93 -11.5q-318 0 -318 370zM289 1106l102 289q12 39 39 39h80q28 0 38 -16t-1 -36l-160 -284q-15 -31 -37 -31h-22q-16 0 -29.5 12.5t-9.5 26.5zM629 1106l102 289q12 39 39 39h80q28 0 38 -16t-1 -36l-160 -284q-15 -31 -37 -31h-22q-16 0 -29.5 12.5 t-9.5 26.5z" />
<glyph unicode="&#x172;" horiz-adv-x="1474" d="M195 528v867q0 15 11.5 27t26.5 12h78q17 0 28 -11.5t11 -27.5v-854q0 -180 104.5 -298t280.5 -118q178 0 283.5 116.5t105.5 295.5v858q0 16 11 27.5t28 11.5h78q15 0 27 -12t12 -27v-867q0 -223 -137.5 -376t-358.5 -170q-79 -83 -79 -185q0 -50 34.5 -83t81.5 -33 q51 0 113 32q13 6 25 -1.5t12 -26.5v-52q0 -12 -7 -19t-22 -15q-62 -31 -143 -31q-93 0 -155 53.5t-62 155.5q0 115 92 207q-214 20 -346.5 171.5t-132.5 372.5z" />
<glyph unicode="&#x173;" horiz-adv-x="993" d="M135 350v430q0 15 12 27t27 12h66q15 0 27 -12t12 -27v-432q0 -115 48 -173t136 -58q44 0 85 12t68.5 29t49 34t31.5 29l10 12v547q0 15 11.5 27t26.5 12h64q15 0 27 -12t12 -27v-741q0 -13 -9.5 -24.5t-21.5 -14.5q-37 -32 -67.5 -85t-30.5 -118q0 -50 35 -83t82 -33 q50 0 112 32q13 6 25 -1.5t12 -26.5v-52q0 -12 -7 -19t-22 -15q-62 -31 -143 -31q-93 0 -155 53.5t-62 155.5q0 44 14.5 85t35 69t41.5 50t35 32l15 10l-18 65l-11.5 -11.5t-33 -26t-54.5 -33t-74 -26t-93 -11.5q-318 0 -318 370z" />
<glyph unicode="&#x174;" horiz-adv-x="1847" d="M76 1384q-6 22 4.5 36t32.5 14h86q12 0 23 -9t14 -20l284 -1061h8l342 1088q7 22 35 22h37q12 0 22 -6.5t13 -15.5l348 -1088h8l279 1061q3 11 14 20t23 9h86q22 0 32.5 -14t4.5 -36l-388 -1376q-3 -12 -13.5 -20t-22.5 -8h-33q-24 0 -35 22l-354 1108h-11l-348 -1108 q-11 -22 -35 -22h-32q-12 0 -23 8t-14 20zM635 1645.5q4 10.5 14 17.5l246 192q12 9 27 9q14 0 26 -9l246 -192q10 -7 14 -17.5t-2 -21.5q-3 -4 -10.5 -16.5t-12.5 -19t-13.5 -13t-18 -5.5t-21.5 9l-208 143l-209 -139q-30 -19 -47 4l-29 37q-6 11 -2 21.5z" />
<glyph unicode="&#x175;" horiz-adv-x="1236" d="M68 772q-13 47 30 47h64q30 0 37 -22l149 -541h2l232 563q8 21 34 21h11q27 0 35 -21l229 -565h2l147 543q3 9 13 15.5t22 6.5h64q43 0 30 -47l-223 -772q-7 -20 -35 -20h-10q-27 0 -35 20l-250 614l-241 -614q-8 -20 -35 -20h-10q-28 0 -35 20zM330 1195q4 10 14 17 l246 193q11 8 26 8q16 0 27 -8l246 -193q10 -7 14 -17t-2 -21q-3 -4 -10.5 -16.5t-12.5 -19t-13.5 -13.5t-18 -6t-21.5 9l-209 144l-208 -139q-31 -20 -48 4l-28 37q-6 11 -2 21z" />
<glyph unicode="&#x176;" horiz-adv-x="1157" d="M2.5 1414q10.5 20 34.5 20h96q19 0 33 -19l414 -571l413 571q14 19 33 19h96q24 0 34.5 -20t-1.5 -40l-500 -682v-653q0 -15 -12 -27t-27 -12h-79q-17 0 -28 11.5t-11 27.5v651l-494 684q-12 20 -1.5 40zM293 1645.5q4 10.5 14 17.5l246 192q12 9 27 9q14 0 26 -9 l246 -192q10 -7 14 -17.5t-2 -21.5q-3 -4 -10.5 -16.5t-12.5 -19t-13.5 -13t-18 -5.5t-21.5 9l-208 143l-209 -139q-30 -19 -47 4l-29 37q-6 11 -2 21.5z" />
<glyph unicode="&#x177;" horiz-adv-x="954" d="M28 806.5q8 12.5 31 12.5h91q23 0 34 -22l303 -627h2l287 627q11 22 35 22h78q23 0 32 -13.5t-1 -33.5l-629 -1362q-12 -24 -35 -24h-76q-24 0 -33.5 14.5t0.5 36.5l263 565l-381 772q-9 20 -1 32.5zM203 1195q4 10 14 17l246 193q11 8 26 8q16 0 27 -8l246 -193 q10 -7 14 -17t-2 -21q-3 -4 -10.5 -16.5t-12.5 -19t-13.5 -13.5t-18 -6t-21.5 9l-209 144l-208 -139q-31 -20 -48 4l-28 37q-6 11 -2 21z" />
<glyph unicode="&#x178;" horiz-adv-x="1157" d="M2.5 1414q10.5 20 34.5 20h96q19 0 33 -19l414 -571l413 571q14 19 33 19h96q24 0 34.5 -20t-1.5 -40l-500 -682v-653q0 -15 -12 -27t-27 -12h-79q-17 0 -28 11.5t-11 27.5v651l-494 684q-12 20 -1.5 40zM266 1718q0 41 28 70t68 29q41 0 70 -29t29 -70q0 -40 -29 -68 t-70 -28q-40 0 -68 28t-28 68zM698 1718q0 41 28.5 70t68.5 29q41 0 69.5 -29t28.5 -70q0 -40 -28.5 -68t-69.5 -28q-40 0 -68.5 28t-28.5 68z" />
<glyph unicode="&#x179;" horiz-adv-x="1093" d="M61 39v37l744 1208v6h-645q-15 0 -27 12t-12 27v66q0 15 12 27t27 12h829q15 0 27 -12t12 -27v-27l-756 -1223v-2h676q17 0 28 -11.5t11 -27.5v-65q0 -16 -11 -27.5t-28 -11.5h-848q-15 0 -27 12t-12 27zM398 1672q4 11 14 16l307 172q8 7 27 6t26 -13l37 -73 q6 -12 3 -25.5t-15 -17.5l-330 -138q-22 -9 -31.5 -8t-15.5 13l-21 45q-5 12 -1 23z" />
<glyph unicode="&#x17a;" horiz-adv-x="747" d="M74 39v20l401 625v6h-344q-15 0 -26 12t-11 27v51q0 17 11 28t26 11h514q24 0 35.5 -17.5t-0.5 -37.5l-391 -629v-6h315q17 0 28 -11t11 -28v-51q0 -16 -11 -27.5t-28 -11.5h-491q-15 0 -27 12t-12 27zM172.5 1217q3.5 11 13.5 16l308 172q8 7 27 6.5t26 -12.5l37 -74 q6 -12 2.5 -25.5t-15.5 -17.5l-329 -137q-22 -9 -31.5 -8.5t-15.5 12.5l-21 45q-5 12 -1.5 23z" />
<glyph unicode="&#x17b;" horiz-adv-x="1093" d="M61 39v37l744 1208v6h-645q-15 0 -27 12t-12 27v66q0 15 12 27t27 12h829q15 0 27 -12t12 -27v-27l-756 -1223v-2h676q17 0 28 -11.5t11 -27.5v-65q0 -16 -11 -27.5t-28 -11.5h-848q-15 0 -27 12t-12 27zM467 1747q0 49 34.5 83t82.5 34q49 0 82.5 -33.5t33.5 -83.5 q0 -48 -33.5 -82.5t-82.5 -34.5q-47 0 -82 35t-35 82z" />
<glyph unicode="&#x17c;" horiz-adv-x="747" d="M74 39v20l401 625v6h-344q-15 0 -26 12t-11 27v51q0 17 11 28t26 11h514q24 0 35.5 -17.5t-0.5 -37.5l-391 -629v-6h315q17 0 28 -11t11 -28v-51q0 -16 -11 -27.5t-28 -11.5h-491q-15 0 -27 12t-12 27zM272 1276q0 49 34.5 83t82.5 34q49 0 83 -33.5t34 -83.5 q0 -48 -34 -82.5t-83 -34.5q-47 0 -82 35t-35 82z" />
<glyph unicode="&#x17d;" horiz-adv-x="1093" d="M61 39v37l744 1208v6h-645q-15 0 -27 12t-12 27v66q0 15 12 27t27 12h829q15 0 27 -12t12 -27v-27l-756 -1223v-2h676q17 0 28 -11.5t11 -27.5v-65q0 -16 -11 -27.5t-28 -11.5h-848q-15 0 -27 12t-12 27zM297 1791q-4 10 2 21l29 37q17 23 47 4l209 -139l209 144 q30 19 47 -5l28 -41q4 -6 4 -12.5t-2.5 -11.5t-8.5 -10.5t-10.5 -9t-12 -8.5t-9.5 -7l-219 -172q-11 -8 -26 -8q-16 0 -27 8l-246 193q-10 7 -14 17z" />
<glyph unicode="&#x17e;" horiz-adv-x="747" d="M74 39v20l401 625v6h-344q-15 0 -26 12t-11 27v51q0 17 11 28t26 11h514q24 0 35.5 -17.5t-0.5 -37.5l-391 -629v-6h315q17 0 28 -11t11 -28v-51q0 -16 -11 -27.5t-28 -11.5h-491q-15 0 -27 12t-12 27zM102.5 1328.5q-4.5 10.5 1.5 21.5l29 36q17 24 47 5l209 -140 l209 144q30 19 47 -4l29 -41q4 -6 4 -12.5t-2.5 -11.5t-8.5 -11t-10.5 -9.5t-12 -9t-9.5 -6.5l-219 -172q-11 -8 -27 -8t-27 8l-245 193q-10 7 -14.5 17.5z" />
<glyph unicode="&#x192;" horiz-adv-x="661" d="M-198.5 -528q-2.5 14 3.5 24l33 53q18 30 53 2q26 -19 71 -39t79 -20q76 0 123 54.5t47 166.5v983h-125q-17 0 -28 11.5t-11 27.5v45q0 17 11 28t28 11h125v287q0 171 87 259.5t226 88.5q137 0 226 -84q23 -20 8 -47l-33 -53q-18 -30 -53 -2q-80 59 -150 59 q-76 0 -123 -54.5t-47 -166.5v-287h238q17 0 28 -11t11 -28v-45q0 -16 -11 -27.5t-28 -11.5h-238v-983q0 -171 -87 -259.5t-226 -88.5q-136 0 -225 84q-10 9 -12.5 23z" />
<glyph unicode="&#x1fa;" horiz-adv-x="1357" d="M12 53l594 1317q-67 22 -109 80.5t-42 132.5q0 94 64.5 158.5t158.5 64.5q93 0 158 -65t65 -158q0 -73 -42 -131t-107 -80l591 -1319q9 -21 -1 -37t-33 -16h-82q-26 0 -35 23l-152 337h-727l-149 -337q-9 -23 -35 -23h-82q-23 0 -33.5 16.5t-1.5 36.5zM371 487h614 l-299 672h-16zM471.5 1917q3.5 11 13.5 16l308 172q8 7 27 6.5t26 -12.5l37 -74q6 -12 2.5 -25.5t-15.5 -17.5l-329 -137q-22 -9 -31.5 -8.5t-15.5 12.5l-21 45q-5 12 -1.5 23zM553 1583q0 -49 37.5 -87t87.5 -38q49 0 85 37.5t36 87.5q0 49 -35.5 85t-85.5 36t-87.5 -36 t-37.5 -85z" />
<glyph unicode="&#x1fb;" horiz-adv-x="858" d="M86 248q0 120 87 196t241 76q39 0 82.5 -6.5t67.5 -13.5l24 -6q2 122 -24 171.5t-109 49.5q-127 0 -246 -45q-29 -11 -39 20l-16 51q-10 31 22 45q13 6 44.5 17t101.5 24t139 13q151 0 205.5 -79t54.5 -267v-455q0 -15 -12 -27t-27 -12h-39q-16 0 -23 7.5t-12 23.5 l-16 55q-106 -106 -254 -106q-109 0 -180.5 73.5t-71.5 194.5zM193 1116q0 94 64.5 158.5t158.5 64.5q93 0 158 -65t65 -158t-65 -158t-158 -65q-94 0 -158.5 64.5t-64.5 158.5zM201.5 1430q3.5 11 13.5 16l307 172q8 7 27 6.5t26 -12.5l37 -74q6 -12 3 -25.5t-15 -17.5 l-330 -137q-22 -9 -31.5 -8.5t-15.5 12.5l-20 45q-5 12 -1.5 23zM217 248q0 -63 39 -104.5t104 -41.5q71 0 133.5 35.5t92.5 79.5v162q-59 33 -172 33q-89 0 -143 -43t-54 -121zM291 1116q0 -50 37.5 -87.5t87.5 -37.5q49 0 85 37.5t36 87.5t-35.5 85.5t-85.5 35.5 t-87.5 -36t-37.5 -85z" />
<glyph unicode="&#x1fc;" horiz-adv-x="1837" d="M-17.5 16.5q-6.5 16.5 5.5 36.5l821 1317q2 3 7.5 11.5t7 11t6.5 9t7 8.5l7 7t8.5 6.5t9 4.5t10.5 3.5t12 1.5t15 1h780q17 0 28 -11.5t11 -27.5v-60q0 -16 -11 -27.5t-28 -11.5h-700v-499h600q15 0 27 -12t12 -27v-60q0 -17 -11.5 -28t-27.5 -11h-600v-522h700 q17 0 28 -11.5t11 -27.5v-59q0 -16 -11 -27.5t-28 -11.5h-807q-17 0 -27.5 11.5t-10.5 27.5v321h-486l-213 -337q-18 -23 -39 -23h-84q-23 0 -29.5 16.5zM422 487h412v672zM1053.5 1674q3.5 11 13.5 16l307 172q8 7 27 6t26 -13l37 -73q6 -12 3 -25.5t-15 -17.5l-330 -137 q-22 -9 -31.5 -8.5t-15.5 12.5l-20 45q-5 12 -1.5 23z" />
<glyph unicode="&#x1fd;" horiz-adv-x="1413" d="M88 254q0 118 81.5 191t221.5 73q48 0 95 -3t70 -6l22 -3q2 122 -20 167.5t-95 45.5q-26 0 -51.5 -2t-49.5 -6t-42.5 -7.5t-39.5 -9.5t-31 -9t-27.5 -9t-18.5 -6q-15 -4 -27.5 4.5t-15.5 23.5l-10 52q-6 31 32 41q15 5 41 13.5t101.5 22t144.5 13.5q99 0 149.5 -28.5 t73.5 -84.5q116 113 275 113q157 0 262.5 -104.5t105.5 -270.5q0 -19 -1 -32t-4.5 -28t-12.5 -22.5t-23 -7.5h-573v-125q37 -64 105.5 -100.5t152.5 -36.5q111 0 203 57q3 2 10 5.5t9 5t7 4t7.5 2.5h6t6 -1.5t5.5 -4.5t6 -7l35 -47q9 -11 11.5 -17t-1 -15.5t-18.5 -20.5 q-48 -37 -127 -65.5t-174 -28.5q-201 0 -310 145q-45 -60 -126 -102.5t-173 -42.5q-120 0 -194 75t-74 199zM217 250q0 -73 48.5 -110.5t117.5 -37.5q60 0 115 31.5t84 73.5v182q-59 19 -170 19q-81 0 -138 -42.5t-57 -115.5zM580.5 1217q3.5 11 13.5 16l307 172q8 7 27 6.5 t26 -12.5l37 -74q6 -12 3 -25.5t-15 -17.5l-330 -137q-22 -9 -31.5 -8.5t-15.5 12.5l-20 45q-5 12 -1.5 23zM725 492h471q-4 95 -70.5 158t-160.5 63q-73 0 -140 -39.5t-100 -98.5v-83z" />
<glyph unicode="&#x1fe;" horiz-adv-x="1681" d="M104 715q0 151 58 288t156 236t234.5 157t287.5 58q138 0 264.5 -49t226.5 -137l129 129q10 11 26 11t27 -11l11 -11q10 -10 10 -26t-10 -27l-129 -129q86 -100 134 -226t48 -263q0 -151 -58 -287.5t-156.5 -234.5t-235 -155.5t-287.5 -57.5q-139 0 -264.5 47t-223.5 133 l-125 -125q-11 -10 -26.5 -9.5t-26.5 11.5l-8 8q-11 11 -11.5 26.5t9.5 26.5l125 125q-185 211 -185 492zM248 715q0 -219 145 -387l836 837q-169 146 -389 146q-160 0 -296.5 -80.5t-216 -218t-79.5 -297.5zM457 264q78 -67 177 -104t206 -37q160 0 297 79.5t217 216 t80 296.5q0 108 -38 208t-106 177zM654 1672q4 11 14 16l307 172q8 7 27 6t26 -13l37 -73q6 -12 3 -25.5t-15 -17.5l-330 -138q-22 -9 -31.5 -8t-15.5 13l-21 45q-5 12 -1 23z" />
<glyph unicode="&#x1ff;" horiz-adv-x="983" d="M88 414q0 174 118.5 300t287.5 126q148 0 262 -103l43 43q12 12 28.5 12t26.5 -12l10 -10q12 -10 12 -26t-12 -27l-47 -47q82 -116 82 -256q0 -178 -118 -306t-287 -128q-151 0 -263 98l-28 -29q-11 -12 -27.5 -11.5t-28.5 11.5l-8 10q-12 10 -12.5 27t10.5 27l33 32 q-82 119 -82 269zM229 414q0 -97 41 -168l389 395q-70 64 -165 64q-112 0 -188.5 -84.5t-76.5 -206.5zM285.5 1217q3.5 11 13.5 16l307 172q8 7 27 6.5t26 -12.5l37 -74q6 -12 3 -25.5t-15 -17.5l-330 -137q-22 -9 -31.5 -8.5t-15.5 12.5l-20 45q-5 12 -1.5 23zM328 174 q70 -61 166 -61q112 0 188 88t76 213q0 87 -41 155z" />
<glyph unicode="&#x218;" horiz-adv-x="1091" d="M106 182q-1 15 11 33q5 6 15 19.5t15 19.5q36 49 72 18q181 -155 346 -155q121 0 198 66t77 159q0 101 -85.5 173.5t-273.5 150.5q-93 41 -152.5 76t-110.5 84.5t-74 114t-23 149.5q0 44 13.5 91t46.5 97t81 88.5t125 63t170 24.5q89 0 176.5 -26t130.5 -52l43 -26 q8 -4 14.5 -12t9 -23.5t-10.5 -34.5q-4 -6 -12.5 -19.5t-12.5 -19.5q-27 -43 -72 -18l-10 6l-20 12t-27.5 15t-34.5 17t-39.5 16.5t-44 14t-45.5 9.5t-47 4q-77 0 -135 -22.5t-88.5 -58.5t-45 -72.5t-14.5 -71.5q0 -97 69 -164t208 -125q92 -38 154.5 -68.5t124 -71.5 t97 -85t57.5 -102t22 -128q0 -157 -130 -262.5t-313 -105.5q-84 0 -163.5 21t-136 53.5t-85 53t-47.5 37.5q-12 10 -17 16t-6 21zM444 -705.5q3 14.5 17 27.5q127 114 127 258q-8 -2 -25 -2q-47 0 -82 35t-35 82q0 49 34.5 83t82.5 34q58 0 96.5 -42t38.5 -143 q0 -114 -54.5 -217.5t-117.5 -161.5q-28 -25 -49 -4l-28 29q-8 7 -5 21.5z" />
<glyph unicode="&#x219;" horiz-adv-x="729" d="M92 627q0 35 14.5 70t43.5 68t81.5 54t120.5 21q72 0 132 -19.5t96 -44.5q14 -9 17.5 -27.5t-5.5 -35.5l-17 -33q-9 -17 -27.5 -21.5t-31.5 3.5q-88 49 -164 49q-62 0 -89 -25t-27 -57q0 -24 10 -43.5t36 -38t44 -28t61 -30.5q45 -22 69.5 -34.5t61.5 -34.5t57 -41 t41 -45t30 -56.5t9 -66.5q0 -93 -80 -162t-202 -69q-149 0 -267 92q-8 6 -11 19t1 24q5 7 16 27.5t13 23.5q8 12 23 14t32 -8q10 -8 27.5 -20t68.5 -32t97 -20q61 0 97 28t36 71q0 50 -38.5 81t-141.5 82q-49 24 -84 45.5t-72.5 54t-57.5 74t-20 91.5zM249 -705.5 q3 14.5 17 27.5q127 114 127 258q-8 -2 -24 -2q-47 0 -82 35t-35 82q0 49 34.5 83t82.5 34q58 0 96.5 -42t38.5 -143q0 -114 -54.5 -217.5t-117.5 -161.5q-28 -25 -49 -4l-29 29q-8 7 -5 21.5z" />
<glyph unicode="&#x21a;" horiz-adv-x="978" d="M16 1335v60q0 16 11 27.5t28 11.5h869q17 0 28 -11.5t11 -27.5v-60q0 -16 -11 -27.5t-28 -11.5h-357v-1257q0 -15 -12 -27t-27 -12h-77q-15 0 -27 12t-12 27v1257h-357q-17 0 -28 11.5t-11 27.5zM366 -705.5q3 14.5 17 27.5q127 114 127 258q-8 -2 -25 -2q-47 0 -81.5 35 t-34.5 82q0 49 34 83t82 34q58 0 97 -42t39 -143q0 -114 -54.5 -217.5t-117.5 -161.5q-28 -26 -50 -4l-28 29q-8 7 -5 21.5z" />
<glyph unicode="&#x21b;" horiz-adv-x="702" d="M55 735v45q0 17 11 28t28 11h105v228q0 15 12 26.5t27 11.5l65 5q15 0 26 -12t11 -27v-232h238q17 0 27.5 -11t10.5 -28v-45q0 -16 -10.5 -27.5t-27.5 -11.5h-238v-479q0 -59 15.5 -78.5t52.5 -19.5q62 0 149 45q25 9 32.5 6t16.5 -18l31 -52q10 -19 7 -29.5t-21 -21.5 q-33 -21 -103 -45t-133 -24q-59 0 -98 16.5t-58 49.5t-25.5 69.5t-6.5 89.5v491h-105q-17 0 -28 11.5t-11 27.5zM257 -705.5q3 14.5 17 27.5q127 114 127 258q-8 -2 -24 -2q-47 0 -82 35t-35 82q0 49 34.5 83t82.5 34q58 0 96.5 -42t38.5 -143q0 -114 -54.5 -217.5 t-117.5 -161.5q-28 -25 -49 -4l-29 29q-8 7 -5 21.5z" />
<glyph unicode="&#x237;" horiz-adv-x="436" d="M-258 -504l33 53q18 30 53 2q26 -20 70.5 -39.5t78.5 -19.5q76 0 123 54.5t47 166.5v1067q0 17 11.5 28t27.5 11h64q16 0 27.5 -11t11.5 -28v-1067q0 -171 -87.5 -259.5t-226.5 -88.5q-136 0 -225 84q-23 20 -8 47z" />
<glyph unicode="&#x2c6;" horiz-adv-x="763" d="M92 1195q4 10 14 17l246 193q11 8 27 8t27 -8l245 -193q27 -18 13 -38q-3 -4 -10.5 -16.5t-12.5 -19t-13.5 -13.5t-18 -6t-21.5 9l-209 144l-209 -139q-30 -19 -47 4l-29 37q-6 11 -2 21z" />
<glyph unicode="&#x2c7;" horiz-adv-x="763" d="M92 1328.5q-4 10.5 2 21.5l29 36q17 24 47 5l209 -140l209 144q30 19 47 -4l29 -41q4 -6 4 -12.5t-2.5 -11.5t-8.5 -11t-10.5 -9.5t-12 -9t-9.5 -6.5l-219 -172q-11 -8 -27 -8t-27 8l-246 193q-10 7 -14 17.5z" />
<glyph unicode="&#x2c9;" horiz-adv-x="847" d="M123 1231v43q0 17 11 28t28 11h524q17 0 28 -11t11 -28v-43q0 -15 -11 -26t-28 -11h-524q-17 0 -28 11t-11 26z" />
<glyph unicode="&#x2d8;" horiz-adv-x="708" d="M78 1321q-7 41 28 41h44q26 0 38 -35q18 -60 62 -95.5t104 -35.5q55 0 99.5 37.5t62.5 93.5q12 35 39 35h47q17 0 24.5 -11.5t4.5 -29.5q-17 -101 -94.5 -167.5t-182.5 -66.5q-107 0 -184.5 67t-91.5 167z" />
<glyph unicode="&#x2d9;" horiz-adv-x="448" d="M104 1276q0 49 34.5 83t82.5 34q49 0 83 -33.5t34 -83.5q0 -48 -34 -82.5t-83 -34.5q-47 0 -82 35t-35 82z" />
<glyph unicode="&#x2da;" horiz-adv-x="593" d="M74 1231q0 94 64.5 158.5t158.5 64.5q93 0 158 -65t65 -158t-65 -158t-158 -65q-94 0 -158.5 64.5t-64.5 158.5zM172 1231q0 -49 38 -87t87 -38t85 37.5t36 87.5q0 49 -36 85t-85 36q-50 0 -87.5 -36t-37.5 -85z" />
<glyph unicode="&#x2db;" horiz-adv-x="565" d="M88 -223q0 44 14.5 85t35 69t41.5 50t35 32l15 10h105q-5 -4 -13.5 -11t-29.5 -30t-37 -48t-29.5 -62.5t-13.5 -74.5q0 -50 35 -83t82 -33q50 0 112 32q13 6 25 -1.5t12 -26.5v-52q0 -18 -28 -34q-62 -31 -144 -31q-93 0 -155 53.5t-62 155.5z" />
<glyph unicode="&#x2dc;" horiz-adv-x="778" d="M86 1241q2 4 11 25t16 36.5t23 38t33.5 37t45 25t59.5 10.5q34 0 64 -15.5t51 -37.5t39 -44.5t36.5 -38t35.5 -15.5q62 0 92 104q10 32 47 16l33 -16q6 -3 9.5 -7.5t4.5 -8.5t0.5 -10t-1 -9.5t-3 -10t-2.5 -7.5q-56 -166 -182 -166q-38 0 -74.5 24t-59.5 52.5t-48.5 52.5 t-43.5 24q-19 0 -34.5 -9t-26.5 -26.5t-16.5 -31.5t-12.5 -35q-5 -17 -17.5 -23t-33.5 3l-37 18q-22 11 -8 45z" />
<glyph unicode="&#x2dd;" horiz-adv-x="802" d="M115 1106l102 289q12 39 39 39h80q28 0 38 -16t-1 -36l-160 -284q-15 -31 -37 -31h-22q-16 0 -29.5 12.5t-9.5 26.5zM455 1106l102 289q12 39 39 39h80q28 0 38 -16t-1 -36l-160 -284q-15 -31 -37 -31h-22q-16 0 -29.5 12.5t-9.5 26.5z" />
<glyph unicode="&#x394;" horiz-adv-x="1404" d="M51 23q-9 23 10 57l611 1364q11 18 28 18h11q19 0 28 -18l609 -1368q8 -18 10 -34t-9.5 -29t-37.5 -13h-1213q-38 0 -47 23zM252 145h899l-444 1029h-5z" />
<glyph unicode="&#x3a9;" horiz-adv-x="1597" d="M59 721q0 202 98.5 370.5t268 265.5t371.5 97q151 0 287.5 -57.5t235 -155t156.5 -233.5t58 -287q0 -182 -80 -337.5t-217 -238.5h227q12 0 21.5 -9t9.5 -21v-84q0 -12 -9.5 -21.5t-21.5 -9.5h-510q-12 0 -20 9.5t-8 21.5v59q0 20 7.5 28t27.5 17q188 59 309 221t121 359 q0 118 -48 228t-128 190t-190 128t-228 48t-227.5 -48t-189.5 -128t-127.5 -189.5t-47.5 -228.5q0 -197 121 -359t309 -221q13 -6 18 -10t10 -12.5t5 -22.5v-59q0 -13 -8 -22t-21 -9h-508q-12 0 -21.5 9.5t-9.5 21.5v84q0 12 9.5 21t21.5 9h227q-139 83 -219 238.5 t-80 337.5z" />
<glyph unicode="&#x3bc;" horiz-adv-x="1034" d="M150 -575v1355q0 15 11.5 27t26.5 12h66q15 0 27 -12t12 -27v-432q0 -115 48 -173t136 -58q44 0 85 12t68.5 29t49 34t31.5 29l10 12v547q0 15 12 27t27 12h63q15 0 27 -12t12 -27v-741q0 -15 -12 -27t-27 -12h-39q-26 0 -36 35l-15 53l-11.5 -11.5t-33 -26t-54.5 -33 t-74 -26t-93 -11.5q-109 0 -176 40v-595q0 -15 -12 -27t-27 -12h-64q-15 0 -26.5 12t-11.5 27z" />
<glyph unicode="&#x3c0;" horiz-adv-x="1292" d="M37 725v63q0 12 9.5 21.5t21.5 9.5h1151q13 0 21.5 -8t8.5 -20v-68q0 -29 -30 -29h-222v-663q0 -13 -9 -22t-21 -9h-80q-12 0 -21.5 9.5t-9.5 21.5v663h-428v-663q0 -13 -10 -22t-23 -9h-78q-12 0 -21 9.5t-9 21.5v663h-219q-13 0 -22 10t-9 21z" />
<glyph unicode="&#x1e80;" horiz-adv-x="1847" d="M76 1384q-6 22 4.5 36t32.5 14h86q12 0 23 -9t14 -20l284 -1061h8l342 1088q7 22 35 22h37q12 0 22 -6.5t13 -15.5l348 -1088h8l279 1061q3 11 14 20t23 9h86q22 0 32.5 -14t4.5 -36l-388 -1376q-3 -12 -13.5 -20t-22.5 -8h-33q-24 0 -35 22l-354 1108h-11l-348 -1108 q-11 -22 -35 -22h-32q-12 0 -23 8t-14 20zM714 1754.5q-3 13.5 3 25.5l37 73q7 12 26 13t27 -6l307 -172q10 -5 13.5 -16t-1.5 -23l-20 -45q-6 -12 -15.5 -13t-31.5 8l-330 138q-12 4 -15 17.5z" />
<glyph unicode="&#x1e81;" horiz-adv-x="1236" d="M68 772q-13 47 30 47h64q30 0 37 -22l149 -541h2l232 563q8 21 34 21h11q27 0 35 -21l229 -565h2l147 543q3 9 13 15.5t22 6.5h64q43 0 30 -47l-223 -772q-7 -20 -35 -20h-10q-27 0 -35 20l-250 614l-241 -614q-8 -20 -35 -20h-10q-28 0 -35 20zM409 1299.5 q-3 13.5 3 25.5l37 74q7 12 26 12.5t27 -6.5l307 -172q10 -5 13.5 -16t-1.5 -23l-20 -45q-6 -12 -15.5 -12.5t-31.5 8.5l-330 137q-12 4 -15 17.5z" />
<glyph unicode="&#x1e82;" horiz-adv-x="1847" d="M76 1384q-6 22 4.5 36t32.5 14h86q12 0 23 -9t14 -20l284 -1061h8l342 1088q7 22 35 22h37q12 0 22 -6.5t13 -15.5l348 -1088h8l279 1061q3 11 14 20t23 9h86q22 0 32.5 -14t4.5 -36l-388 -1376q-3 -12 -13.5 -20t-22.5 -8h-33q-24 0 -35 22l-354 1108h-11l-348 -1108 q-11 -22 -35 -22h-32q-12 0 -23 8t-14 20zM715.5 1672q3.5 11 13.5 16l307 172q8 7 27.5 6t26.5 -13l36 -73q6 -12 3 -25.5t-15 -17.5l-330 -138q-22 -9 -31.5 -8t-15.5 13l-20 45q-5 12 -1.5 23z" />
<glyph unicode="&#x1e83;" horiz-adv-x="1236" d="M68 772q-13 47 30 47h64q30 0 37 -22l149 -541h2l232 563q8 21 34 21h11q27 0 35 -21l229 -565h2l147 543q3 9 13 15.5t22 6.5h64q43 0 30 -47l-223 -772q-7 -20 -35 -20h-10q-27 0 -35 20l-250 614l-241 -614q-8 -20 -35 -20h-10q-28 0 -35 20zM414.5 1217 q3.5 11 13.5 16l307 172q8 7 27 6.5t26 -12.5l37 -74q6 -12 3 -25.5t-15 -17.5l-330 -137q-22 -9 -31.5 -8.5t-15.5 12.5l-20 45q-5 12 -1.5 23z" />
<glyph unicode="&#x1e84;" horiz-adv-x="1847" d="M76 1384q-6 22 4.5 36t32.5 14h86q12 0 23 -9t14 -20l284 -1061h8l342 1088q7 22 35 22h37q12 0 22 -6.5t13 -15.5l348 -1088h8l279 1061q3 11 14 20t23 9h86q22 0 32.5 -14t4.5 -36l-388 -1376q-3 -12 -13.5 -20t-22.5 -8h-33q-24 0 -35 22l-354 1108h-11l-348 -1108 q-11 -22 -35 -22h-32q-12 0 -23 8t-14 20zM608 1718q0 41 28.5 70t68.5 29q41 0 69.5 -29t28.5 -70q0 -40 -28.5 -68t-69.5 -28q-40 0 -68.5 28t-28.5 68zM1040 1718q0 41 28.5 70t68.5 29q41 0 69.5 -29t28.5 -70q0 -40 -28.5 -68t-69.5 -28q-40 0 -68.5 28t-28.5 68z" />
<glyph unicode="&#x1e85;" horiz-adv-x="1236" d="M68 772q-13 47 30 47h64q30 0 37 -22l149 -541h2l232 563q8 21 34 21h11q27 0 35 -21l229 -565h2l147 543q3 9 13 15.5t22 6.5h64q43 0 30 -47l-223 -772q-7 -20 -35 -20h-10q-27 0 -35 20l-250 614l-241 -614q-8 -20 -35 -20h-10q-28 0 -35 20zM322 1294q0 41 28 70 t68 29q41 0 69.5 -29t28.5 -70q0 -40 -28.5 -68t-69.5 -28q-40 0 -68 28t-28 68zM717 1294q0 41 28 70t68 29q41 0 69.5 -29t28.5 -70q0 -40 -28.5 -68t-69.5 -28q-40 0 -68 28t-28 68z" />
<glyph unicode="&#x1ef2;" horiz-adv-x="1157" d="M2.5 1414q10.5 20 34.5 20h96q19 0 33 -19l414 -571l413 571q14 19 33 19h96q24 0 34.5 -20t-1.5 -40l-500 -682v-653q0 -15 -12 -27t-27 -12h-79q-17 0 -28 11.5t-11 27.5v651l-494 684q-12 20 -1.5 40zM372 1754.5q-3 13.5 3 25.5l37 73q7 12 26 13t27 -6l307 -172 q10 -5 13.5 -16t-1.5 -23l-20 -45q-6 -12 -15.5 -13t-31.5 8l-330 138q-12 4 -15 17.5z" />
<glyph unicode="&#x1ef3;" horiz-adv-x="954" d="M28 806.5q8 12.5 31 12.5h91q23 0 34 -22l303 -627h2l287 627q11 22 35 22h78q23 0 32 -13.5t-1 -33.5l-629 -1362q-12 -24 -35 -24h-76q-24 0 -33.5 14.5t0.5 36.5l263 565l-381 772q-9 20 -1 32.5zM282 1299.5q-3 13.5 3 25.5l37 74q7 12 26 12.5t27 -6.5l307 -172 q10 -5 13.5 -16t-1.5 -23l-20 -45q-6 -12 -15.5 -12.5t-31.5 8.5l-330 137q-12 4 -15 17.5z" />
<glyph unicode="&#x2000;" horiz-adv-x="1055" />
<glyph unicode="&#x2001;" horiz-adv-x="2111" />
<glyph unicode="&#x2002;" horiz-adv-x="1055" />
<glyph unicode="&#x2003;" horiz-adv-x="2111" />
<glyph unicode="&#x2004;" horiz-adv-x="703" />
<glyph unicode="&#x2005;" horiz-adv-x="527" />
<glyph unicode="&#x2006;" horiz-adv-x="351" />
<glyph unicode="&#x2007;" horiz-adv-x="351" />
<glyph unicode="&#x2008;" horiz-adv-x="263" />
<glyph unicode="&#x2009;" horiz-adv-x="422" />
<glyph unicode="&#x200a;" horiz-adv-x="117" />
<glyph unicode="&#x2010;" horiz-adv-x="845" d="M170 487v39q0 17 11 28t28 11h428q17 0 28 -11t11 -28v-39q0 -15 -11 -25.5t-28 -10.5h-428q-17 0 -28 10.5t-11 25.5z" />
<glyph unicode="&#x2011;" horiz-adv-x="845" d="M170 487v39q0 17 11 28t28 11h428q17 0 28 -11t11 -28v-39q0 -15 -11 -25.5t-28 -10.5h-428q-17 0 -28 10.5t-11 25.5z" />
<glyph unicode="&#x2012;" horiz-adv-x="845" d="M170 487v39q0 17 11 28t28 11h428q17 0 28 -11t11 -28v-39q0 -15 -11 -25.5t-28 -10.5h-428q-17 0 -28 10.5t-11 25.5z" />
<glyph unicode="&#x2013;" horiz-adv-x="1181" d="M174 494v22q0 17 11 28t28 11h756q17 0 28 -11t11 -28v-22q0 -15 -11 -26t-28 -11h-756q-17 0 -28 11t-11 26z" />
<glyph unicode="&#x2014;" horiz-adv-x="1632" d="M174 494v22q0 17 11 28t28 11h1206q17 0 28 -11t11 -28v-22q0 -15 -11 -26t-28 -11h-1206q-17 0 -28 11t-11 26z" />
<glyph unicode="&#x2018;" horiz-adv-x="417" d="M78 1059q0 114 54.5 217.5t117.5 161.5q28 25 49 4l29 -29q8 -7 4.5 -21.5t-17.5 -27.5q-127 -114 -127 -258q8 2 25 2q47 0 82 -35t35 -82q0 -49 -34.5 -83t-82.5 -34q-58 0 -96.5 42t-38.5 143z" />
<glyph unicode="&#x2019;" horiz-adv-x="413" d="M89 939.5q3 14.5 17 27.5q127 114 127 258q-8 -2 -24 -2q-47 0 -82 34.5t-35 81.5q0 49 34.5 83t82.5 34q58 0 96.5 -41.5t38.5 -142.5q0 -114 -54.5 -217.5t-117.5 -161.5q-28 -25 -49 -4l-29 29q-8 7 -5 21.5z" />
<glyph unicode="&#x201a;" horiz-adv-x="477" d="M110 -304q3 15 17 28q127 114 127 258q-8 -2 -25 -2q-47 0 -81.5 34.5t-34.5 81.5q0 49 34 83t82 34q58 0 97 -41.5t39 -142.5q0 -114 -54.5 -217.5t-117.5 -161.5q-28 -26 -50 -4l-28 28q-8 7 -5 22z" />
<glyph unicode="&#x201c;" horiz-adv-x="786" d="M78 1063q0 114 54.5 217.5t117.5 161.5q28 25 49 4l29 -29q8 -7 4.5 -21.5t-17.5 -27.5q-127 -114 -127 -258q8 2 25 2q47 0 82 -35t35 -82q0 -49 -34.5 -82.5t-82.5 -33.5q-58 0 -96.5 41.5t-38.5 142.5zM446 1063q0 114 54.5 217.5t117.5 161.5q28 26 50 4l28 -29 q8 -7 5 -21.5t-17 -27.5q-127 -114 -127 -258q8 2 25 2q47 0 81.5 -35t34.5 -82q0 -49 -34 -82.5t-82 -33.5q-58 0 -97 41.5t-39 142.5z" />
<glyph unicode="&#x201d;" horiz-adv-x="782" d="M89 939.5q3 14.5 17 27.5q127 114 127 258q-8 -2 -24 -2q-47 0 -82 34.5t-35 81.5q0 49 34.5 83t82.5 34q58 0 96.5 -41.5t38.5 -142.5q0 -114 -54.5 -217.5t-117.5 -161.5q-28 -25 -49 -4l-29 29q-8 7 -5 21.5zM458 939.5q3 14.5 17 27.5q127 114 127 258q-8 -2 -24 -2 q-47 0 -82 34.5t-35 81.5q0 49 34.5 83t82.5 34q58 0 96.5 -41.5t38.5 -142.5q0 -114 -54.5 -217.5t-117.5 -161.5q-28 -25 -49 -4l-29 29q-8 7 -5 21.5z" />
<glyph unicode="&#x201e;" horiz-adv-x="845" d="M110 -304q3 15 17 28q127 114 127 258q-8 -2 -25 -2q-47 0 -81.5 34.5t-34.5 81.5q0 49 34 83t82 34q58 0 97 -41.5t39 -142.5q0 -114 -54.5 -217.5t-117.5 -161.5q-28 -26 -50 -4l-28 28q-8 7 -5 22zM478.5 -304q3.5 15 17.5 28q127 114 127 258q-8 -2 -25 -2 q-47 0 -82 34.5t-35 81.5q0 49 34.5 83t82.5 34q58 0 96.5 -41.5t38.5 -142.5q0 -114 -54.5 -217.5t-117.5 -161.5q-28 -25 -49 -4l-29 28q-8 7 -4.5 22z" />
<glyph unicode="&#x2020;" horiz-adv-x="1265" d="M102 723v57q0 15 12 27t27 12h400v576q0 15 12 27t27 12h102q15 0 27 -12t12 -27v-576h405q15 0 26 -12t11 -27v-57q0 -15 -11 -27t-26 -12h-409l-35 -1266q0 -12 -12.5 -22t-26.5 -10h-25q-14 0 -26 10t-12 22l-35 1266h-404q-15 0 -27 12t-12 27z" />
<glyph unicode="&#x2021;" horiz-adv-x="1265" d="M102 858v57q0 15 12 27t27 12h400v441q0 15 12 27t27 12h102q15 0 27 -12t12 -27v-441h405q15 0 26 -12t11 -27v-57q0 -15 -11 -27t-26 -12h-405l-19 -684h363q15 0 26 -12t11 -27v-57q0 -15 -11 -27t-26 -12h-367l-16 -582q0 -12 -12.5 -22t-26.5 -10h-25q-14 0 -26 10 t-12 22l-17 582h-360q-15 0 -27 12t-12 27v57q0 15 12 27t27 12h356l-18 682v2h-400q-15 0 -27 12t-12 27z" />
<glyph unicode="&#x2022;" horiz-adv-x="724" d="M143 459q0 92 63.5 157.5t151.5 65.5q92 0 158 -65.5t66 -157.5q0 -88 -66 -151.5t-158 -63.5q-88 0 -151.5 63.5t-63.5 151.5z" />
<glyph unicode="&#x2026;" horiz-adv-x="1277" d="M123 96q0 49 34.5 83t82.5 34q49 0 82.5 -33.5t33.5 -83.5q0 -48 -33.5 -82t-82.5 -34q-47 0 -82 34.5t-35 81.5zM518 96q0 49 34.5 83t82.5 34q49 0 83 -33.5t34 -83.5q0 -48 -34 -82t-83 -34q-47 0 -82 34.5t-35 81.5zM922 96q0 49 34 83t82 34q50 0 83.5 -33.5 t33.5 -83.5q0 -48 -34 -82t-83 -34q-47 0 -81.5 34.5t-34.5 81.5z" />
<glyph unicode="&#x202f;" horiz-adv-x="422" />
<glyph unicode="&#x2030;" horiz-adv-x="2019" d="M102 1180q0 115 80.5 195.5t196.5 80.5q114 0 195 -80.5t81 -195.5t-81 -196t-195 -81q-115 0 -196 80.5t-81 196.5zM219 1180q0 -68 46.5 -114t113.5 -46q64 0 110 46.5t46 113.5q0 63 -46.5 109t-109.5 46q-67 0 -113.5 -45.5t-46.5 -109.5zM293 55l702 1358 q12 21 35 21h33q23 0 34.5 -18t0.5 -38l-707 -1358q-10 -20 -35 -20h-28q-23 0 -34 17.5t-1 37.5zM750 254q0 116 80 196t196 80q114 0 195.5 -80.5t81.5 -195.5t-81.5 -196t-195.5 -81q-115 0 -195.5 80.5t-80.5 196.5zM866 254q0 -68 46 -114t114 -46q64 0 110 46.5 t46 113.5q0 63 -46.5 109.5t-109.5 46.5q-67 0 -113.5 -46t-46.5 -110zM1384 254q0 115 80.5 195.5t196.5 80.5q114 0 195 -80.5t81 -195.5t-81 -196t-195 -81q-115 0 -196 80.5t-81 196.5zM1501 254q0 -68 46.5 -114t113.5 -46q64 0 110 46.5t46 113.5q0 63 -46.5 109.5 t-109.5 46.5q-67 0 -113.5 -46t-46.5 -110z" />
<glyph unicode="&#x2039;" horiz-adv-x="516" d="M84 397q-17 23 0 49l223 304q17 24 37 24h29q26 0 34.5 -19t-4.5 -44l-151 -285l145 -301q11 -25 3 -43.5t-33 -18.5h-39q-18 0 -31 17z" />
<glyph unicode="&#x203a;" horiz-adv-x="516" d="M106.5 755q8.5 19 34.5 19h29q21 0 37 -24l223 -304q17 -26 0 -49l-213 -317q-13 -17 -31 -17h-39q-25 0 -33 18.5t3 43.5l145 301l-151 285q-13 25 -4.5 44z" />
<glyph unicode="&#x2044;" horiz-adv-x="243" d="M-260 55l702 1358q12 21 35 21h33q23 0 34.5 -18t0.5 -38l-707 -1358q-10 -20 -35 -20h-28q-23 0 -34 17.5t-1 37.5z" />
<glyph unicode="&#x205f;" horiz-adv-x="527" />
<glyph unicode="&#x2070;" horiz-adv-x="712" d="M102 1333q0 153 66.5 238.5t187.5 85.5t187.5 -85.5t66.5 -238.5q0 -151 -66.5 -236t-187.5 -85t-187.5 85t-66.5 236zM215 1333q0 -107 36.5 -165t104.5 -58t105 58t37 165t-37.5 166.5t-104.5 59.5t-104 -59.5t-37 -166.5z" />
<glyph unicode="&#x2074;" horiz-adv-x="739" d="M102 1171v60l353 401q6 6 16 6h43q8 0 14.5 -5.5t6.5 -12.5v-379h83q7 0 13 -5t6 -11v-54q0 -6 -6 -11t-13 -5h-83v-104q0 -7 -6.5 -13t-14.5 -6h-65q-8 0 -14.5 6t-6.5 13v102h-307q-8 0 -13.5 5.5t-5.5 12.5zM215 1243h217v242z" />
<glyph unicode="&#x2075;" horiz-adv-x="661" d="M107 1106.5q-1 5.5 8 13.5l43 41q14 10 24 0q6 -6 22 -17t50.5 -24.5t67.5 -13.5q57 0 94 35.5t37 81.5q0 48 -35.5 79t-100.5 31h-157q-14 0 -22.5 10t-8.5 23v254q0 8 5.5 13t12.5 5h320q7 0 12.5 -5t5.5 -13v-55q0 -6 -5.5 -11.5t-12.5 -5.5h-240v-123h99 q111 0 173 -54t62 -146q0 -89 -69.5 -151t-174.5 -62q-127 0 -200 78q-9 11 -10 16.5z" />
<glyph unicode="&#x2076;" horiz-adv-x="663" d="M102 1286q0 70 27.5 132.5t65.5 102.5t87.5 73.5t84.5 49t65 25.5q17 7 25 -12l20 -47q10 -21 -18 -27q-32 -10 -75.5 -31.5t-95 -66t-67.5 -94.5q15 9 53.5 21.5t77.5 12.5q85 0 147 -53t62 -147q0 -88 -66.5 -150.5t-158.5 -62.5q-112 0 -173 78.5t-61 195.5zM199 1270 q2 -59 39 -110.5t100 -51.5q52 0 87.5 34.5t35.5 82.5q0 47 -37 80.5t-90 33.5q-46 0 -83 -22.5t-52 -46.5z" />
<glyph unicode="&#x2077;" horiz-adv-x="653" d="M102 1565v55q0 7 5.5 12.5t13.5 5.5h411q8 0 13.5 -5.5t5.5 -12.5v-23l-293 -546q-11 -19 -27 -19h-69q-19 0 -19 15v14l271 485h-293q-7 0 -13 6t-6 13z" />
<glyph unicode="&#x2078;" horiz-adv-x="657" d="M102 1184q0 53 41 98.5t76 60.5v5q-37 16 -68.5 55t-31.5 88q0 75 59 121.5t150 46.5t151 -46.5t60 -121.5q0 -47 -32.5 -85.5t-70.5 -57.5v-5q43 -19 81 -62t38 -97q0 -76 -62.5 -124t-166.5 -48q-100 0 -162 48t-62 124zM213 1190q0 -40 34.5 -65t80.5 -25 q49 0 82.5 25t33.5 65q0 35 -30.5 64.5t-85.5 39.5q-54 -10 -84.5 -39.5t-30.5 -64.5zM227 1485q0 -75 101 -92q51 9 76.5 33.5t25.5 58.5q0 37 -30 61.5t-74 24.5q-41 0 -70 -24.5t-29 -61.5z" />
<glyph unicode="&#x2079;" horiz-adv-x="663" d="M102 1442q0 88 67 150.5t159 62.5q112 0 172.5 -79t60.5 -196q0 -70 -27.5 -132.5t-65.5 -102.5t-87.5 -73.5t-84.5 -49t-65 -25.5q-16 -6 -24 13l-21 47q-10 20 19 26q22 6 53 21t69.5 39t70.5 59.5t44 73.5q-8 -5 -24.5 -12t-47.5 -15t-59 -8q-84 0 -146.5 53.5 t-62.5 147.5zM203 1442q0 -47 37.5 -81t89.5 -34q46 0 82.5 23t52.5 47q-2 59 -39 110.5t-100 51.5q-52 0 -87.5 -34.5t-35.5 -82.5z" />
<glyph unicode="&#x2080;" horiz-adv-x="712" d="M102 -6q0 153 66.5 238t187.5 85t187.5 -85t66.5 -238q0 -152 -66.5 -237t-187.5 -85t-187.5 85t-66.5 237zM215 -6q0 -107 36.5 -165t104.5 -58t105 58t37 165t-37 166t-105 59q-67 0 -104 -59t-37 -166z" />
<glyph unicode="&#x2081;" horiz-adv-x="432" d="M104 162q-2 12 7 22l143 115h57q19 0 19 -18v-570q0 -7 -5.5 -12.5t-13.5 -5.5h-71q-9 0 -15 5t-6 13v430l-84 -22q-17 -3 -20 8z" />
<glyph unicode="&#x2082;" horiz-adv-x="641" d="M102 -260l260 272q66 72 66 115q0 37 -29.5 66.5t-87.5 29.5q-66 0 -127 -61q-12 -12 -24 0l-41 43q-13 13 0 22q3 4 9 10t26 22t41.5 28t54.5 22t67 10q106 0 164 -51.5t58 -130.5q0 -80 -101 -184l-166 -170h248q19 0 19 -21v-51q0 -18 -19 -18h-397q-21 0 -21 18v29z " />
<glyph unicode="&#x2083;" horiz-adv-x="655" d="M109 -244q-12 12 2 23l43 41q15 9 26 -2l6 -4q5 -4 11.5 -8.5t16 -10.5t21 -11t24 -10t27.5 -7.5t29 -2.5q49 0 86 26.5t37 66.5q0 42 -37.5 70t-111.5 28h-64q-20 0 -20 18v52q0 18 20 18h64q66 0 99.5 25.5t33.5 64.5q0 40 -33.5 66t-77.5 26q-65 0 -114 -49 q-12 -12 -27 0l-41 37q-6 5 -6 13t6 12q9 9 24.5 22.5t65.5 36t100 22.5q92 0 154 -46.5t62 -122.5q0 -49 -33.5 -89t-73.5 -55v-4q45 -17 85 -58.5t40 -95.5q0 -76 -65 -126t-169 -50q-133 0 -210 84z" />
<glyph unicode="&#x2084;" horiz-adv-x="739" d="M102 -109l353 402q6 6 16 6h43q8 0 14.5 -5.5t6.5 -12.5v-379h83q7 0 13 -5.5t6 -11.5v-53q0 -6 -6 -11t-13 -5h-83v-105q0 -7 -6.5 -12.5t-14.5 -5.5h-65q-8 0 -14.5 5.5t-6.5 12.5v103h-307q-8 0 -13.5 5.5t-5.5 12.5v59zM215 -96h217v241z" />
<glyph unicode="&#x2085;" horiz-adv-x="661" d="M107 -233q-1 6 8 14l43 41q14 10 24 0q6 -6 22 -17t50.5 -24.5t67.5 -13.5q57 0 94 35t37 81q0 48 -35.5 79.5t-100.5 31.5h-157q-14 0 -22.5 10t-8.5 23v254q0 7 5.5 12.5t12.5 5.5h320q7 0 12.5 -5.5t5.5 -12.5v-56q0 -6 -5.5 -11t-12.5 -5h-240v-123h99 q111 0 173 -54.5t62 -146.5q0 -89 -69.5 -151t-174.5 -62q-127 0 -200 78q-9 11 -10 17z" />
<glyph unicode="&#x2086;" horiz-adv-x="663" d="M102 -53q0 70 27.5 132.5t65.5 102.5t87.5 73.5t84.5 49t65 25.5q7 3 14.5 -1t10.5 -12l20 -47q10 -20 -18 -26q-32 -10 -75.5 -31.5t-95 -66.5t-67.5 -95q8 5 24.5 12t47.5 15t59 8q84 0 146.5 -53.5t62.5 -147.5q0 -88 -66.5 -150.5t-158.5 -62.5q-112 0 -173 79 t-61 196zM199 -70q2 -59 39 -110t100 -51q52 0 87.5 34t35.5 82q0 47 -37.5 81t-89.5 34q-46 0 -82.5 -23t-52.5 -47z" />
<glyph unicode="&#x2087;" horiz-adv-x="653" d="M102 225v56q0 7 5.5 12.5t13.5 5.5h411q8 0 13.5 -5.5t5.5 -12.5v-23l-293 -547q-10 -18 -27 -18h-69q-19 0 -19 14v14l271 486h-293q-8 0 -13.5 5.5t-5.5 12.5z" />
<glyph unicode="&#x2088;" horiz-adv-x="657" d="M102 -156q0 53 41 99t76 61v4q-37 16 -68.5 55.5t-31.5 88.5q0 75 59 121t150 46t151 -46t60 -121q0 -47 -32.5 -86.5t-70.5 -57.5v-4q43 -19 81 -62.5t38 -97.5q0 -76 -62.5 -124t-166.5 -48q-100 0 -162 48t-62 124zM213 -150q0 -40 34.5 -65t80.5 -25q49 0 82.5 25 t33.5 65q0 36 -30.5 65.5t-85.5 39.5q-53 -10 -84 -40t-31 -65zM227 145q0 -75 101 -92q51 9 76.5 33.5t25.5 58.5q0 37 -30 61.5t-74 24.5q-41 0 -70 -24.5t-29 -61.5z" />
<glyph unicode="&#x2089;" horiz-adv-x="663" d="M102 102q0 88 67 150.5t159 62.5q112 0 172.5 -78.5t60.5 -195.5q0 -70 -27.5 -132.5t-65.5 -102.5t-87.5 -73.5t-84.5 -49t-65 -25.5q-17 -7 -24 12l-21 47q-10 21 19 27q22 6 53 21t69.5 39t70.5 59.5t44 73.5q-8 -5 -24.5 -12t-47.5 -15t-59 -8q-85 0 -147 53t-62 147 zM203 102q0 -47 37 -80.5t90 -33.5q46 0 83 22.5t52 46.5q-2 59 -39 110.5t-100 51.5q-52 0 -87.5 -34.5t-35.5 -82.5z" />
<glyph unicode="&#x20ac;" horiz-adv-x="1497" d="M41 557v14q0 15 11 27t26 12h82q-6 50 -6 105q0 33 2 49h-78q-15 0 -26 12t-11 27v14q0 15 11 27t26 12h88q50 259 254 428.5t473 169.5q149 0 267.5 -48t228.5 -142q12 -12 13 -29t-11 -29l-50 -49q-14 -14 -31.5 -14.5t-35.5 16.5q-76 71 -176.5 109.5t-206.5 38.5 q-203 0 -356.5 -128t-198.5 -323h575q17 0 28 -11.5t11 -27.5v-16q0 -15 -11 -26t-28 -11h-589q-3 -24 -3 -47q0 -55 9 -107h501q17 0 28 -11.5t11 -27.5v-16q0 -15 -11 -26t-28 -11h-477q60 -171 206.5 -280t332.5 -109q63 0 118 12t105.5 37.5t84.5 48t85 60.5q24 20 49 6 l60 -60q11 -10 10 -27t-12 -28q-204 -198 -498 -198q-254 0 -451 150.5t-262 387.5h-102q-15 0 -26 12t-11 27z" />
<glyph unicode="&#x2113;" horiz-adv-x="1034" d="M84 487q-10 33 27 39q87 15 143 33q3 14 16.5 84t20.5 109q69 350 167.5 527t246.5 177q103 0 162 -73t59 -197q0 -105 -32.5 -200t-87 -169t-130.5 -138.5t-159 -110.5t-177 -81q-23 -102 -23 -180q0 -98 42 -161.5t137 -63.5q173 0 321 92q29 18 41 -6l21 -33 q8 -13 7 -20.5t-14 -20.5q-10 -8 -36 -23.5t-74 -37.5t-119.5 -37.5t-146.5 -15.5q-76 0 -132 26.5t-87 73t-45.5 102t-14.5 121.5q0 62 14 148q-68 -21 -106 -27q-28 -3 -33 18zM360 592q97 41 178 97.5t147 129.5t103 167.5t37 199.5q0 77 -31.5 121.5t-88.5 44.5 q-107 0 -181 -155t-135 -462z" />
<glyph unicode="&#x2122;" horiz-adv-x="1476" d="M102 1372v23q0 15 12 27t27 12h391q17 0 28 -11.5t11 -27.5v-23q0 -17 -11 -28t-28 -11h-143v-479q0 -15 -12 -27t-27 -12h-26q-17 0 -28 11.5t-11 27.5v479h-144q-16 0 -27.5 11t-11.5 28zM639 862l106 551q3 12 14.5 21.5t24.5 9.5h9q9 0 20 -7.5t14 -15.5l166 -434 l168 434q3 8 14.5 15.5t20.5 7.5h8q12 0 24 -9.5t15 -21.5l109 -553q3 -19 -8.5 -32t-30.5 -13h-25q-13 0 -24.5 10.5t-14.5 24.5l-69 338l-148 -361q-3 -7 -13.5 -12.5t-19.5 -5.5h-12q-9 0 -20.5 6t-14.5 14l-143 359l-72 -340q-3 -12 -15 -22.5t-24 -10.5h-20 q-20 0 -31 14t-8 33z" />
<glyph unicode="&#x2126;" horiz-adv-x="1597" d="M59 721q0 202 98.5 370.5t268 265.5t371.5 97q151 0 287.5 -57.5t235 -155t156.5 -233.5t58 -287q0 -182 -80 -337.5t-217 -238.5h227q12 0 21.5 -9t9.5 -21v-84q0 -12 -9.5 -21.5t-21.5 -9.5h-510q-12 0 -20 9.5t-8 21.5v59q0 20 7.5 28t27.5 17q188 59 309 221t121 359 q0 118 -48 228t-128 190t-190 128t-228 48t-227.5 -48t-189.5 -128t-127.5 -189.5t-47.5 -228.5q0 -197 121 -359t309 -221q13 -6 18 -10t10 -12.5t5 -22.5v-59q0 -13 -8 -22t-21 -9h-508q-12 0 -21.5 9.5t-9.5 21.5v84q0 12 9.5 21t21.5 9h227q-139 83 -219 238.5 t-80 337.5z" />
<glyph unicode="&#x212e;" horiz-adv-x="1685" d="M70 715q0 205 98.5 375t269 268t375.5 98q204 0 374.5 -98t270 -268t101.5 -375q0 -49 -39 -49h-1225v-342q80 -117 221.5 -183.5t296.5 -66.5q115 0 228.5 46t209.5 130q23 23 47 2l25 -29q17 -20 -8 -45q-213 -201 -502 -201q-205 0 -375.5 97t-269 266.5t-98.5 374.5z M295 760h1040v344q-87 120 -224 187t-298 67q-160 0 -295 -65.5t-223 -184.5v-348z" />
<glyph unicode="&#x2153;" horiz-adv-x="1275" d="M104 1296q-3 13 7 23l143 115h57q19 0 19 -19v-569q0 -8 -6 -13.5t-13 -5.5h-71q-9 0 -15 5.5t-6 13.5v430l-84 -23q-17 -3 -20 9zM211 55l702 1358q12 21 35 21h33q23 0 34.5 -18t0.5 -38l-707 -1358q-10 -20 -35 -20h-28q-23 0 -34 17.5t-1 37.5zM743 63q-12 12 2 23 l43 41q16 9 27 -2l5 -3q4 -4 9 -7t13 -8.5t16.5 -10t19.5 -9t22 -8t24 -5.5t26 -2q49 0 86 26t37 66q0 42 -37.5 70t-111.5 28h-64q-8 0 -14 5t-6 14v51q0 18 20 18h64q66 0 99.5 25.5t33.5 64.5q0 40 -33.5 66t-77.5 26q-66 0 -115 -49q-12 -12 -26 0l-41 37q-6 4 -6 12 t6 13q3 3 9 8.5t25.5 20t40 25t52 19.5t63.5 9q92 0 153.5 -47t61.5 -123q0 -49 -33 -89t-73 -55v-4q46 -17 85.5 -58t39.5 -95q0 -76 -65 -126t-169 -50q-135 0 -211 83z" />
<glyph unicode="&#x2154;" horiz-adv-x="1275" d="M0 846v28l260 273q66 72 66 115q0 37 -29.5 66.5t-87.5 29.5q-65 0 -127 -62q-12 -12 -25 0l-41 43q-13 13 0 23q3 4 9 10t26 22t41.5 28t55 22t67.5 10q106 0 163.5 -51.5t57.5 -130.5q0 -82 -100 -185l-166 -169h248q18 0 18 -21v-51q0 -19 -18 -19h-398q-20 0 -20 19z M211 55l702 1358q12 21 35 21h33q23 0 34.5 -18t0.5 -38l-707 -1358q-10 -20 -35 -20h-28q-23 0 -34 17.5t-1 37.5zM743 63q-12 12 2 23l43 41q16 9 27 -2l5 -3q4 -4 9 -7t13 -8.5t16.5 -10t19.5 -9t22 -8t24 -5.5t26 -2q49 0 86 26t37 66q0 42 -37.5 70t-111.5 28h-64 q-8 0 -14 5t-6 14v51q0 18 20 18h64q66 0 99.5 25.5t33.5 64.5q0 40 -33.5 66t-77.5 26q-66 0 -115 -49q-12 -12 -26 0l-41 37q-6 4 -6 12t6 13q3 3 9 8.5t25.5 20t40 25t52 19.5t63.5 9q92 0 153.5 -47t61.5 -123q0 -49 -33 -89t-73 -55v-4q46 -17 85.5 -58t39.5 -95 q0 -76 -65 -126t-169 -50q-135 0 -211 83z" />
<glyph unicode="&#x215b;" horiz-adv-x="1275" d="M104 1296q-3 13 7 23l143 115h57q19 0 19 -19v-569q0 -8 -6 -13.5t-13 -5.5h-71q-9 0 -15 5.5t-6 13.5v430l-84 -23q-17 -3 -20 9zM211 55l702 1358q12 21 35 21h33q23 0 34.5 -18t0.5 -38l-707 -1358q-10 -20 -35 -20h-28q-23 0 -34 17.5t-1 37.5zM774 152q0 53 41 98.5 t76 60.5v4q-37 16 -68.5 55.5t-31.5 88.5q0 75 58.5 121.5t149.5 46.5t151 -46.5t60 -121.5q0 -47 -32 -86.5t-70 -57.5v-4q43 -19 81 -62t38 -97q0 -76 -63 -124t-167 -48q-100 0 -161.5 48t-61.5 124zM885 158q0 -40 34 -65t80 -25q49 0 83 25t34 65q0 35 -31 64.5 t-86 39.5q-53 -10 -83.5 -39.5t-30.5 -64.5zM899 453q0 -76 100 -93q51 9 77 34t26 59q0 37 -30.5 61.5t-74.5 24.5q-41 0 -69.5 -24.5t-28.5 -61.5z" />
<glyph unicode="&#x215c;" horiz-adv-x="1394" d="M109 891q-12 12 2 22l43 41q15 9 26 -2l4 -4l10 -6t13 -8.5t16.5 -10t19.5 -9t22 -8t24 -5.5t26 -2q49 0 86 26t37 66q0 42 -38 70.5t-111 28.5h-64q-20 0 -20 18v51q0 19 20 19h64q66 0 99.5 25.5t33.5 64.5q0 40 -33.5 66t-77.5 26q-65 0 -114 -49q-12 -12 -27 0 l-41 37q-6 4 -6 12t6 12q3 3 9 8.5t25.5 20t40 25t52 19.5t63.5 9q92 0 154 -47t62 -123q0 -48 -33.5 -88t-73.5 -55v-4q45 -17 85 -58.5t40 -95.5q0 -76 -65 -126t-169 -50q-133 0 -210 84zM293 55l702 1358q12 21 35 21h33q23 0 34.5 -18t0.5 -38l-707 -1358 q-10 -20 -35 -20h-28q-23 0 -34 17.5t-1 37.5zM856 152q0 53 41 98.5t76 60.5v4q-37 16 -69 55.5t-32 88.5q0 75 59 121.5t150 46.5t151 -46.5t60 -121.5q0 -47 -32 -86.5t-70 -57.5v-4q43 -19 81 -62t38 -97q0 -76 -63 -124t-167 -48q-100 0 -161.5 48t-61.5 124zM967 158 q0 -40 34 -65t80 -25q49 0 83 25t34 65q0 35 -31 64.5t-86 39.5q-53 -10 -83.5 -39.5t-30.5 -64.5zM981 453q0 -76 100 -93q51 9 77 34t26 59q0 37 -30.5 61.5t-74.5 24.5q-41 0 -69.5 -24.5t-28.5 -61.5z" />
<glyph unicode="&#x215d;" horiz-adv-x="1394" d="M107 901.5q-1 5.5 8 13.5l43 41q14 10 24 0q6 -6 22 -17t50.5 -24.5t67.5 -13.5q57 0 94 35.5t37 81.5q0 48 -35.5 79t-100.5 31h-157q-14 0 -22.5 10t-8.5 23v254q0 8 5.5 13.5t12.5 5.5h320q7 0 12.5 -5.5t5.5 -13.5v-55q0 -6 -5.5 -11.5t-12.5 -5.5h-240v-122h99 q111 0 173 -54.5t62 -146.5q0 -89 -69.5 -151t-174.5 -62q-127 0 -200 78q-9 11 -10 16.5zM295 55l702 1358q12 21 35 21h33q23 0 34.5 -18t0.5 -38l-707 -1358q-10 -20 -35 -20h-28q-23 0 -34 17.5t-1 37.5zM858 152q0 53 41 98.5t76 60.5v4q-37 16 -69 55.5t-32 88.5 q0 75 59 121.5t150 46.5t151 -46.5t60 -121.5q0 -47 -32 -86.5t-70 -57.5v-4q43 -19 81 -62t38 -97q0 -76 -63 -124t-167 -48q-100 0 -161.5 48t-61.5 124zM969 158q0 -40 34 -65t80 -25q49 0 83 25t34 65q0 35 -31 64.5t-86 39.5q-53 -10 -83.5 -39.5t-30.5 -64.5zM983 453 q0 -76 100 -93q51 9 77 34t26 59q0 37 -30.5 61.5t-74.5 24.5q-41 0 -69.5 -24.5t-28.5 -61.5z" />
<glyph unicode="&#x215e;" horiz-adv-x="1394" d="M164 1360v55q0 8 5.5 13.5t12.5 5.5h412q7 0 12.5 -5.5t5.5 -13.5v-22l-293 -547q-11 -19 -26 -19h-70q-18 0 -18 15v14l270 485h-293q-7 0 -12.5 5.5t-5.5 13.5zM293 55l702 1358q12 21 35 21h33q23 0 34.5 -18t0.5 -38l-707 -1358q-10 -20 -35 -20h-28q-23 0 -34 17.5 t-1 37.5zM856 152q0 53 41 98.5t76 60.5v4q-37 16 -69 55.5t-32 88.5q0 75 59 121.5t150 46.5t151 -46.5t60 -121.5q0 -47 -32 -86.5t-70 -57.5v-4q43 -19 81 -62t38 -97q0 -76 -63 -124t-167 -48q-100 0 -161.5 48t-61.5 124zM967 158q0 -40 34 -65t80 -25q49 0 83 25 t34 65q0 35 -31 64.5t-86 39.5q-53 -10 -83.5 -39.5t-30.5 -64.5zM981 453q0 -76 100 -93q51 9 77 34t26 59q0 37 -30.5 61.5t-74.5 24.5q-41 0 -69.5 -24.5t-28.5 -61.5z" />
<glyph unicode="&#x2202;" horiz-adv-x="1167" d="M119 449q0 99 36.5 183.5t97 141t140 88t166.5 31.5q78 0 156 -23t117 -46l38 -23q-20 78 -73.5 155.5t-116.5 135t-132 106t-120.5 75.5t-83.5 38q-54 17 -37 59l23 49q15 33 45 21q51 -20 103 -45.5t121 -69t129 -93.5t120.5 -121t103.5 -150t70 -182.5t27 -215.5 q0 -125 -28.5 -229t-85.5 -184t-150 -125t-214 -45t-225 63t-165.5 171t-61.5 235zM264 440q0 -133 89.5 -229t217.5 -96q68 0 124 23.5t93 63.5t64.5 92t38 109t14 115t-7.5 109q-5 5 -15.5 14t-44 32t-69 40.5t-89 32t-106.5 14.5q-129 0 -219 -93t-90 -227z" />
<glyph unicode="&#x2206;" horiz-adv-x="1404" d="M51 23q-9 23 10 57l611 1364q11 18 28 18h11q19 0 28 -18l609 -1368q8 -18 10 -34t-9.5 -29t-37.5 -13h-1213q-38 0 -47 23zM252 145h899l-444 1029h-5z" />
<glyph unicode="&#x220f;" horiz-adv-x="1347" d="M100 31v1372q0 12 9.5 21.5t21.5 9.5h1083q13 0 22 -9.5t9 -21.5v-1372q0 -12 -9 -21.5t-22 -9.5h-98q-12 0 -21.5 9.5t-9.5 21.5v1257h-825v-1257q0 -12 -9 -21.5t-22 -9.5h-98q-12 0 -21.5 9.5t-9.5 21.5z" />
<glyph unicode="&#x2211;" horiz-adv-x="1087" d="M100 31v41l635 659l-635 635v37q0 12 8.5 21.5t20.5 9.5h829q12 0 21.5 -9.5t9.5 -21.5v-86q0 -12 -9.5 -21.5t-21.5 -9.5h-591l491 -473q31 -31 31 -53v-55q0 -6 -2 -12t-6 -12t-7.5 -10t-9 -10t-6.5 -8l-491 -508h591q12 0 21.5 -8t9.5 -20v-86q0 -12 -9.5 -21.5 t-21.5 -9.5h-829q-12 0 -20.5 9.5t-8.5 21.5z" />
<glyph unicode="&#x2212;" horiz-adv-x="1060" d="M102 682v57q0 15 12 27t27 12h781q15 0 25.5 -12t10.5 -27v-57q0 -15 -10.5 -27t-25.5 -12h-781q-15 0 -27 12t-12 27z" />
<glyph unicode="&#x2215;" horiz-adv-x="243" d="M-260 55l702 1358q12 21 35 21h33q23 0 34.5 -18t0.5 -38l-707 -1358q-10 -20 -35 -20h-28q-23 0 -34 17.5t-1 37.5z" />
<glyph unicode="&#x2219;" horiz-adv-x="724" d="M246 535q0 49 34 82.5t82 33.5q50 0 83.5 -33.5t33.5 -82.5q0 -48 -34 -82.5t-83 -34.5q-47 0 -81.5 35t-34.5 82z" />
<glyph unicode="&#x221a;" horiz-adv-x="1368" d="M81.5 809q5.5 10 22.5 10h105q10 0 17.5 -5.5t9.5 -10.5l227 -535h6l508 1145q8 21 31 21h305q12 0 20 -9.5t8 -21.5v-72q0 -12 -8 -21.5t-20 -9.5h-228l-587 -1300q-7 -20 -29 -20h-12q-17 0 -27 20l-346 784q-8 15 -2.5 25z" />
<glyph unicode="&#x221e;" horiz-adv-x="1245" d="M102 606q0 118 83 201.5t202 83.5q70 0 133 -37.5t101 -97.5q38 60 101 97.5t136 37.5q117 0 201 -83.5t84 -201.5q0 -117 -84 -200.5t-201 -83.5q-72 0 -135.5 37.5t-101.5 97.5q-38 -59 -101 -97t-133 -38q-118 0 -201.5 83.5t-83.5 200.5zM219 606q0 -70 49.5 -120 t120.5 -50q69 0 119.5 50t50.5 120t-50.5 120t-119.5 50q-71 0 -120.5 -50t-49.5 -120zM684 606q0 -71 49 -120.5t121 -49.5q69 0 119.5 50t50.5 120t-50.5 120t-119.5 50q-72 0 -121 -49.5t-49 -120.5z" />
<glyph unicode="&#x222b;" horiz-adv-x="804" d="M-119 -504l33 53q18 30 53 2q26 -19 71 -39t79 -20q76 0 123 54.5t47 166.5v1393q0 171 87 259.5t226 88.5q136 0 225 -84q10 -9 12.5 -23t-3.5 -24l-33 -53q-18 -30 -53 -2q-80 59 -150 59q-76 0 -123 -54.5t-47 -166.5v-1393q0 -171 -87 -259.5t-226 -88.5 q-137 0 -226 84q-23 20 -8 47z" />
<glyph unicode="&#x2248;" horiz-adv-x="894" d="M63 304q-1 14 7 24q3 7 9.5 18t28 40t45.5 51.5t62.5 40.5t79.5 18q81 0 168 -74q65 -51 108 -51q83 0 131 104q6 13 21 14.5t25 -6.5l45 -32q10 -7 11 -21t-7 -24q-3 -7 -9.5 -18t-28.5 -40t-46 -51.5t-62.5 -40.5t-79.5 -18q-79 0 -168 71q-1 1 -9.5 8t-11.5 9 t-11.5 8.5t-13.5 9t-13.5 7t-15.5 6.5t-15.5 3.5t-17.5 1.5q-83 0 -131 -104q-6 -13 -20.5 -14.5t-24.5 6.5l-45 33q-10 7 -11 21zM63 721q-1 14 7 24q3 7 9.5 18t28 40t45.5 51.5t62.5 40.5t79.5 18q82 0 168 -73q66 -52 108 -52q83 0 131 105q6 13 21 14.5t25 -6.5l45 -33 q10 -7 11 -21t-7 -24q-3 -7 -9.5 -18t-28.5 -40t-46 -51.5t-62.5 -40.5t-79.5 -18q-78 0 -168 72q-1 1 -9.5 8t-11.5 9t-11.5 8.5t-13.5 9t-13.5 7t-15.5 6.5t-15.5 3.5t-17.5 1.5q-85 0 -133 -104q-6 -13 -20.5 -14.5t-24.5 6.5l-43 32q-10 7 -11 21z" />
<glyph unicode="&#x2260;" horiz-adv-x="894" d="M102 326v63q0 16 11 27.5t28 11.5h209l137 291h-346q-17 0 -28 11.5t-11 27.5v61q0 16 11 27.5t28 11.5h410l74 156q6 15 22 20.5t29 -2.5l12 -6q15 -6 21.5 -20.5t-2.5 -28.5l-56 -119h103q17 0 28 -11.5t11 -27.5v-61q0 -16 -11 -27.5t-28 -11.5h-168l-135 -291h303 q17 0 28 -11.5t11 -27.5v-63q0 -16 -11 -27.5t-28 -11.5h-369l-74 -158q-4 -14 -20 -19.5t-31 1.5l-10 6q-15 6 -21.5 20.5t0.5 28.5l56 121h-144q-17 0 -28 11.5t-11 27.5z" />
<glyph unicode="&#x2264;" horiz-adv-x="923" d="M33 164v57q0 15 12 27t27 12h780q15 0 26 -12t11 -27v-57q0 -15 -11 -27t-26 -12h-780q-15 0 -27 12t-12 27zM39 817v10q0 19 20 33l787 397q15 8 26 2t11 -26v-84q0 -20 -17 -31l-620 -295l620 -288q17 -11 17 -31v-84q0 -19 -11.5 -26t-25.5 1l-787 387q-20 14 -20 35z " />
<glyph unicode="&#x2265;" horiz-adv-x="923" d="M33 164v57q0 15 11 27t26 12h780q15 0 27 -12t12 -27v-57q0 -15 -12 -27t-27 -12h-780q-15 0 -26 12t-11 27zM39 420v84q0 20 16 31l621 288l-621 295q-16 11 -16 31v84q0 20 11 26t26 -2l786 -397q21 -15 21 -33v-10q0 -20 -21 -35l-786 -387q-14 -8 -25.5 -1t-11.5 26z " />
<glyph unicode="&#x25ca;" horiz-adv-x="1404" d="M174 739q1 25 10 43.5t35 53.5l453 608q11 18 28 18h11q19 0 28 -18l451 -606q28 -39 37 -61t8 -54q-1 -26 -10 -44t-35 -58l-451 -605q-8 -16 -28 -16h-11q-16 0 -28 16l-457 611q-29 39 -36.5 60t-4.5 52zM317 729l385 -534h5l385 534l-385 539h-5z" />
<glyph unicode="&#x25fc;" horiz-adv-x="819" d="M0 0v819h819v-819h-819z" />
<glyph unicode="&#xf8ff;" horiz-adv-x="1226" d="M102 61v1311q0 62 62 62h899q32 0 46.5 -15t14.5 -47v-1311q0 -32 -14.5 -46.5t-46.5 -14.5h-899q-32 0 -47 14.5t-15 46.5zM362 1071l46 -45q17 -11 34 0q1 1 15 14.5t20.5 19t23.5 17.5t31.5 17.5t36.5 10.5t45 5q59 0 92 -31t33 -75q0 -35 -21 -65t-50.5 -53 t-59 -47.5t-50.5 -59.5t-21 -77v-59q0 -10 8.5 -17.5t19.5 -7.5h74q31 0 31 27v53q0 23 16 44.5t40 39t51.5 40.5t51.5 46.5t40 59.5t16 78q0 99 -73 163t-183 64q-50 0 -96 -13t-75.5 -31.5t-52.5 -36.5t-33 -31l-10 -13q-16 -24 0 -37zM502 319q0 -40 29 -69t69 -29 q41 0 70.5 29t29.5 69t-29.5 69.5t-70.5 29.5q-40 0 -69 -29.5t-29 -69.5z" />
<glyph unicode="&#xfb00;" horiz-adv-x="1216" d="M47 735v45q0 17 11 28t28 11h125v232q0 99 30.5 174t83.5 120t119 67t142 22q148 0 264 -80q84 100 235 100q137 0 226 -84q23 -20 8 -47l-33 -53q-18 -30 -53 -2q-80 59 -150 59q-76 0 -123 -54.5t-47 -166.5v-287h238q17 0 28 -11t11 -28v-45q0 -16 -11 -27.5 t-28 -11.5h-238v-657q0 -15 -12 -27t-27 -12h-63q-15 0 -27 12t-12 27v657h-420v-657q0 -15 -12 -27t-27 -12h-63q-15 0 -27 12t-12 27v657h-125q-17 0 -28 11.5t-11 27.5zM352 819h420v287q0 73 14 125q-25 27 -83 51.5t-119 24.5q-46 0 -85.5 -13.5t-73.5 -42t-53.5 -80 t-19.5 -120.5v-232z" />
<glyph unicode="&#xfb03;" horiz-adv-x="1640" d="M47 735v45q0 17 11 28t28 11h125v232q1 98 30.5 172.5t82 120t118.5 68t144 22.5q148 0 264 -80q84 100 252 100q91 0 177 -32.5t128 -63.5q10 -7 12 -22t-4 -25l-33 -56q-14 -23 -53 -2q-1 1 -15.5 8.5t-24.5 12.5t-28.5 14t-35.5 14.5t-37.5 12t-42 9.5t-41.5 3 q-80 0 -135.5 -56.5t-55.5 -166.5v-285h543q15 0 27 -12t12 -27v-741q0 -15 -12 -27t-27 -12h-63q-15 0 -27 12t-12 27v657h-441v-657q0 -15 -12 -27t-27 -12h-63q-15 0 -27 12t-12 27v657h-420v-657q0 -15 -12 -27t-27 -12h-63q-15 0 -27 12t-12 27v657h-125 q-17 0 -28 11.5t-11 27.5zM352 819h420v287q0 73 14 125q-25 27 -83 51.5t-119 24.5q-46 0 -85.5 -13.5t-73.5 -42t-53.5 -80t-19.5 -120.5v-232z" />
<glyph unicode="&#xfb04;" horiz-adv-x="1646" d="M47 735v45q0 17 11 28t28 11h125v232q0 99 30.5 174t83.5 120t119 67t142 22q148 0 264 -80q84 100 258 100q46 0 90.5 -10.5t74 -26t52.5 -31t34 -26.5l11 -10l16 51q9 33 39 33h35q15 0 27 -12t12 -27v-1356q0 -15 -12 -27t-27 -12h-63q-15 0 -27 12t-12 27v1149 q-4 5 -10.5 14t-30.5 31t-50 39t-67.5 31t-85.5 14q-37 0 -71 -11t-64 -34.5t-48 -66t-18 -99.5v-287h238q17 0 28 -11t11 -28v-45q0 -16 -11 -27.5t-28 -11.5h-238v-657q0 -15 -12 -27t-27 -12h-63q-15 0 -27 12t-12 27v657h-420v-657q0 -15 -12 -27t-27 -12h-63 q-15 0 -27 12t-12 27v657h-125q-17 0 -28 11.5t-11 27.5zM352 819h420v287q0 73 14 125q-25 27 -83 51.5t-119 24.5q-46 0 -85.5 -13.5t-73.5 -42t-53.5 -80t-19.5 -120.5v-232z" />
<glyph horiz-adv-x="0" />
<glyph horiz-adv-x="618" d="M120 1754.5q-3 13.5 3 25.5l37 73q7 12 26 13t27 -6l307 -172q10 -5 13.5 -16t-1.5 -23l-20 -45q-6 -12 -15.5 -13t-31.5 8l-330 138q-12 4 -15 17.5z" />
<glyph horiz-adv-x="618" d="M121.5 1672q3.5 11 13.5 16l307 172q8 7 27.5 6t26.5 -13l36 -73q6 -12 3 -25.5t-15 -17.5l-330 -138q-22 -9 -31.5 -8t-15.5 13l-20 45q-5 12 -1.5 23z" />
<glyph horiz-adv-x="763" d="M92 1645.5q4 10.5 14 17.5l246 192q12 9 27 9t27 -9l245 -192q10 -7 14.5 -17.5t-1.5 -21.5q-3 -4 -10.5 -16.5t-12.5 -19t-13.5 -13t-18 -5.5t-21.5 9l-209 143l-209 -139q-30 -19 -47 4l-29 37q-6 11 -2 21.5z" />
<glyph horiz-adv-x="763" d="M92 1791q-4 10 2 21l29 37q17 23 47 4l209 -139l209 144q30 19 47 -5l29 -41q4 -6 4 -12.5t-2.5 -11.5t-8.5 -10.5t-10.5 -9t-12 -8.5t-9.5 -7l-219 -172q-11 -8 -27 -8t-27 8l-246 193q-10 7 -14 17z" />
<glyph horiz-adv-x="763" d="M239 939.5q3 14.5 17 27.5q127 114 127 258q-8 -2 -25 -2q-47 0 -81.5 34.5t-34.5 81.5q0 49 34 83t82 34q58 0 97 -41.5t39 -142.5q0 -114 -54.5 -217.5t-117.5 -161.5q-28 -26 -50 -4l-28 29q-8 7 -5 21.5z" />
<glyph horiz-adv-x="778" d="M86 1692q2 4 11 25t16 36.5t23 38t33.5 37t45 25t59.5 10.5q34 0 64 -15.5t51 -38t39 -45t36.5 -38t35.5 -15.5q62 0 92 105q10 32 47 16l33 -16q6 -3 9.5 -7.5t4.5 -8.5t0.5 -10.5t-1 -9.5t-3 -10t-2.5 -8q-56 -166 -182 -166q-38 0 -74.5 24t-59.5 53t-48.5 53 t-43.5 24q-19 0 -34.5 -9t-26.5 -26.5t-16.5 -31.5t-12.5 -35q-5 -17 -17.5 -23.5t-33.5 2.5l-37 19q-22 11 -8 45z" />
<glyph horiz-adv-x="970" d="M172 1718q0 41 28 70t68 29q41 0 70 -29t29 -70q0 -40 -29 -68t-70 -28q-40 0 -68 28t-28 68zM604 1718q0 41 28 70t68 29q41 0 70 -29t29 -70q0 -40 -29 -68t-70 -28q-40 0 -68 28t-28 68z" />
<glyph horiz-adv-x="847" d="M123 1718v43q0 17 11 28t28 11h524q17 0 28 -11t11 -28v-43q0 -15 -11 -26t-28 -11h-524q-17 0 -28 11t-11 26z" />
<glyph horiz-adv-x="708" d="M78 1812q-7 41 28 41h44q27 0 38 -34q18 -60 62 -95.5t104 -35.5q55 0 99.5 37.5t62.5 93.5q12 34 39 34h47q17 0 24.5 -11.5t4.5 -29.5q-17 -101 -94.5 -167t-182.5 -66q-107 0 -184.5 66.5t-91.5 166.5z" />
<glyph horiz-adv-x="593" d="M74 1776q0 94 64.5 158.5t158.5 64.5q93 0 158 -65t65 -158q0 -94 -65 -159t-158 -65q-94 0 -158.5 65t-64.5 159zM172 1776q0 -50 38 -87.5t87 -37.5t85 37.5t36 87.5q0 49 -35.5 84.5t-85.5 35.5t-87.5 -35.5t-37.5 -84.5z" />
<glyph horiz-adv-x="802" d="M94 1614l103 289q12 39 39 39h79q28 0 38 -16t-1 -36l-159 -284q-15 -31 -37 -31h-23q-16 0 -29.5 12.5t-9.5 26.5zM434 1614l103 289q12 39 38 39h80q28 0 38 -16t-1 -36l-160 -284q-16 -31 -36 -31h-23q-16 0 -29.5 12.5t-9.5 26.5z" />
<glyph horiz-adv-x="448" d="M104 1747q0 49 34.5 83t82.5 34q49 0 83 -34t34 -83q0 -48 -34 -82.5t-83 -34.5q-47 0 -82 35t-35 82z" />
<glyph horiz-adv-x="505" d="M60.5 -431.5q0.5 15.5 11.5 23.5l28 23q11 8 25 8.5t22 -8.5q34 -37 84 -37q41 0 66 27t25 69q0 33 -15.5 57.5t-44.5 38.5t-53 20.5t-57 12.5q-35 7 -35 41v156h110v-109q97 -12 156 -67.5t59 -142.5q0 -89 -62 -151t-153 -62q-45 0 -86.5 19.5t-68.5 51.5 q-12 14 -11.5 29.5z" />
<glyph horiz-adv-x="565" d="M88 -223q0 44 14.5 85t35 69t41.5 50t35 32l15 10h105q-5 -4 -13.5 -11t-29.5 -30t-37 -48t-29.5 -62.5t-13.5 -74.5q0 -50 35 -83t82 -33q50 0 112 32q13 6 25 -1.5t12 -26.5v-52q0 -18 -28 -34q-62 -31 -144 -31q-93 0 -155 53.5t-62 155.5z" />
<glyph horiz-adv-x="598" d="M161 -705.5q3 14.5 17 27.5q127 114 127 258q-8 -2 -24 -2q-47 0 -82 35t-35 82q0 49 34.5 83t82.5 34q58 0 96.5 -42t38.5 -143q0 -114 -54.5 -217.5t-117.5 -161.5q-28 -25 -49 -4l-29 29q-8 7 -5 21.5z" />
<glyph horiz-adv-x="598" d="M161 -705.5q3 14.5 17 27.5q127 114 127 258q-8 -2 -24 -2q-47 0 -82 35t-35 82q0 49 34.5 83t82.5 34q58 0 96.5 -42t38.5 -143q0 -114 -54.5 -217.5t-117.5 -161.5q-28 -25 -49 -4l-29 29q-8 7 -5 21.5z" />
<glyph horiz-adv-x="598" d="M161 -705.5q3 14.5 17 27.5q127 114 127 258q-8 -2 -24 -2q-47 0 -82 35t-35 82q0 49 34.5 83t82.5 34q58 0 96.5 -42t38.5 -143q0 -114 -54.5 -217.5t-117.5 -161.5q-28 -25 -49 -4l-29 29q-8 7 -5 21.5z" />
<glyph horiz-adv-x="745" d="M328 -332v678q0 17 11.5 28t27.5 11h14q15 0 26 -11t11 -28v-678q0 -15 -12 -26t-27 -11h-12q-15 0 -27 11t-12 26zM328 1087v676q0 17 11.5 28t27.5 11h14q15 0 26 -11t11 -28v-676q0 -15 -12 -25.5t-27 -10.5h-12q-15 0 -27 10.5t-12 25.5z" />
<glyph horiz-adv-x="1236" d="M121 696q0 338 130 527.5t367 189.5t367.5 -189.5t130.5 -527.5t-130.5 -527t-367.5 -189t-367 189t-130 527zM266 696q0 -281 91.5 -432t260.5 -151t261 151t92 432q0 278 -92 431t-261 153q-168 0 -260 -152.5t-92 -431.5z" />
<glyph horiz-adv-x="1236" d="M223 37v45q0 17 11 28t28 11h316v1018l-203 -158q-27 -20 -47 2l-39 43q-19 22 4 45l342 322h55q15 0 26 -12t11 -27v-1233h250q17 0 28 -11t11 -28v-45q0 -15 -11 -26t-28 -11h-715q-17 0 -28 11t-11 26z" />
<glyph horiz-adv-x="1236" d="M170 39v61q84 90 251 271.5t251 271.5q207 226 207 371q0 47 -16 90.5t-48 83t-90 63t-133 23.5q-148 0 -291 -154q-12 -12 -27.5 -12t-27.5 12l-41 39q-10 11 -11 25.5t9 27.5q6 8 17 21.5t49.5 48.5t80.5 61.5t108 48t134 21.5q107 0 192.5 -32t139 -87t82 -125.5 t28.5 -150.5q0 -65 -18.5 -125t-58.5 -120.5t-77.5 -105.5t-101.5 -114q-65 -69 -196 -210t-197 -210h602q15 0 27 -12t12 -27v-55q0 -15 -12 -27t-27 -12h-778q-17 0 -28 11.5t-11 27.5z" />
<glyph horiz-adv-x="1236" d="M158 187.5q0 14.5 12 23.5l55 47q33 23 56 -10q11 -14 32 -33t59.5 -46t95.5 -45t118 -18q123 0 209 69.5t86 186.5q0 114 -92 191.5t-271 77.5h-115q-38 0 -38 45v49q0 25 9.5 35t33.5 10h112q157 0 241.5 70.5t84.5 177.5q0 118 -77.5 189t-190.5 71q-152 0 -269 -133 q-25 -29 -53 -4l-49 39q-12 11 -11.5 26.5t11.5 26.5q6 7 17.5 19.5t49 43.5t78 54.5t102.5 43t124 19.5q188 0 304.5 -102.5t116.5 -272.5q0 -109 -65.5 -197.5t-145.5 -125.5v-6q40 -17 79.5 -45.5t78.5 -69t63.5 -98t24.5 -119.5q0 -172 -123.5 -284.5t-330.5 -112.5 q-71 0 -135.5 15t-105 33.5t-80 48.5t-55 45.5t-36.5 39.5q-10 11 -10 25.5z" />
<glyph horiz-adv-x="1236" d="M63 354v76l777 973q12 12 30 12h41q16 0 27.5 -11t11.5 -28l2 -936h166q17 0 28 -11t11 -26v-45q0 -16 -11 -27.5t-28 -11.5h-166v-280q0 -15 -12 -27t-27 -12h-69q-15 0 -27 12t-12 27v276h-703q-17 0 -28 11.5t-11 27.5zM236 442h577v713z" />
<glyph horiz-adv-x="1236" d="M185.5 187q-0.5 13 17.5 32q8 7 23.5 22.5t23.5 22.5q31 27 51 -2q12 -17 31.5 -37t57 -48.5t94 -47t120.5 -18.5q94 0 169.5 50.5t114 126t38.5 158.5q0 128 -82.5 211.5t-239.5 83.5h-311q-29 0 -46.5 22.5t-17.5 49.5v541q0 16 11 27.5t28 11.5h619q17 0 28 -11.5 t11 -27.5v-60q0 -16 -11 -27.5t-28 -11.5h-520v-376h237q229 0 351 -113.5t122 -316.5q0 -127 -60.5 -234.5t-170 -171t-244.5 -63.5q-253 0 -395 170q-21 24 -21.5 37z" />
<glyph horiz-adv-x="1236" d="M162 563q0 112 27 215.5t70 182.5t103.5 150t120.5 121t129 93.5t121 69t103 45.5q30 12 45 -21l22 -49q17 -42 -37 -59q-32 -11 -83.5 -38t-120.5 -75.5t-132 -106t-116.5 -135t-73.5 -155.5q6 4 16 10t42.5 22t67 28t85.5 22t100 10q87 0 166.5 -31.5t140.5 -88 t97.5 -141t36.5 -183.5q0 -127 -61.5 -235t-166 -171t-225.5 -63t-214 45t-149.5 125t-85 184t-28.5 229zM305.5 518q3.5 -58 14 -115t38 -109t64.5 -92t93 -63.5t124 -23.5q128 0 217.5 96t89.5 229q0 134 -90 227t-219 93q-53 0 -106 -13.5t-90.5 -33t-67.5 -39.5t-45 -34 l-15 -13q-11 -51 -7.5 -109z" />
<glyph horiz-adv-x="1236" d="M178 1294v60q0 15 12 27t27 12h823q15 0 27 -12t12 -27v-15l-598 -1286q-24 -53 -67 -53h-60q-15 0 -27 12t-12 27v22l572 1194h-670q-15 0 -27 12t-12 27z" />
<glyph horiz-adv-x="1236" d="M158 375q0 62 24.5 121t64 101.5t80 72.5t79.5 47v6q-81 38 -146 122.5t-65 192.5q0 167 118 271t303 104q187 0 306.5 -103.5t119.5 -271.5q0 -108 -65 -192.5t-146 -122.5v-6q39 -17 79.5 -47t80 -72.5t64 -101.5t24.5 -121q0 -172 -126 -283.5t-339 -111.5 q-208 0 -332 112t-124 283zM311 360q0 -115 88.5 -186.5t214.5 -71.5q136 0 224 69.5t88 188.5q0 100 -84 181.5t-224 95.5q-141 -14 -224 -95t-83 -182zM346 1032q0 -100 67.5 -165.5t204.5 -78.5q136 13 204.5 78.5t68.5 165.5q0 115 -79 186.5t-202 71.5q-112 0 -188 -72 t-76 -186z" />
</font>
</defs>
</svg>
