<?xml version="1.0" encoding="utf-8"?>
<!-- Generator: Adobe Illustrator 16.0.0, SVG Export Plug-In . SVG Version: 6.00 Build 0)  -->
<!DOCTYPE svg PUBLIC "-//W3C//DTD SVG 1.1//EN" "http://www.w3.org/Graphics/SVG/1.1/DTD/svg11.dtd">
<svg version="1.1" id="Layer_1" xmlns="http://www.w3.org/2000/svg" xmlns:xlink="http://www.w3.org/1999/xlink" x="0px" y="0px"
	 width="88.851px" height="278.241px" viewBox="0 0 88.851 278.241" enable-background="new 0 0 88.851 278.241"
	 xml:space="preserve">
<path fill="none" stroke="#000000" stroke-width="2" stroke-linecap="round" stroke-linejoin="round" stroke-miterlimit="10" d="
	M63.46,177.89c4.814,0,9.629,0,14.443,0c1.69,0,2.878-0.916,2.878-2.676c0-0.988,0-1.976,0-2.964c0-10.537,0-21.073,0-31.609
	c0-11.884,0-23.768,0-35.652c0-2.683,0-5.366,0-8.049c-2.107,0.153-4.271,0.016-6.382,0.016c-5.164,0-10.327,0-15.49,0
	c-12.652,0-25.305,0-37.957,0c-3.404,0-6.809,0-10.212,0c-1.336,0-2.702,0.083-4.035-0.016c0,6.993,0,13.986,0,20.979
	c0,12.812,0,25.624,0,38.435c0,4.76,0,9.52,0,14.279c0,1.298,0,2.597,0,3.895c0,1.22-0.019,2.478,1.304,3.126
	c0.887,0.435,2.209,0.236,3.162,0.236c1.897,0,3.794,0,5.691,0c2.875,0,5.75,0,8.625,0"/>
<line fill="none" stroke="#000000" stroke-width="2" stroke-linecap="round" stroke-linejoin="round" stroke-miterlimit="10" x1="34.91" y1="177.89" x2="54.531" y2="177.89"/>
<path fill="none" stroke="#000000" stroke-width="2" stroke-linecap="round" stroke-linejoin="round" stroke-miterlimit="10" d="
	M80.625,69.421c0.052,0.005,0.105,0.01,0.157,0.016c0-7.859,0-15.719,0-23.578c0-12.02,0-24.04,0-36.061c0-1.624,0-3.247,0-4.87
	c0-0.82,0.134-1.869-0.237-2.624C79.873,0.933,78.546,1,77.289,1c-1.445,0-2.89,0-4.334,0C61.26,1,49.566,1,37.872,1
	C28.495,1,19.118,1,9.741,1C8.265,1,6.705,1.535,6.705,3.347c0,0.746,0,1.492,0,2.238c0,4.358,0,8.716,0,13.075
	c0,12.596,0,25.191,0,37.787c0,4.33,0,8.66,0,12.99c2.115-0.118,4.263-0.016,6.381-0.016c5.164,0,10.327,0,15.49,0
	c12.652,0,25.305,0,37.957,0C71.23,69.421,75.927,69.421,80.625,69.421z"/>
<path fill="none" stroke="#000000" stroke-width="2" stroke-linecap="round" stroke-linejoin="round" stroke-miterlimit="10" d="
	M6.705,69.437c-2.595,0.178-2.17,3.101-2.17,4.899c0,2.951,0,5.902,0,8.853c0,2.906,0,5.813,0,8.719c0,1.816-0.46,4.852,2.17,5.032"
	/>
<path fill="none" stroke="#000000" stroke-width="2" stroke-linecap="round" stroke-linejoin="round" stroke-miterlimit="10" d="
	M80.782,96.939c2.595-0.178,2.17-3.101,2.17-4.899c0-2.951,0-5.902,0-8.853c0-2.906,0-5.813,0-8.719c0-1.816,0.461-4.852-2.17-5.032
	"/>
<path fill="none" stroke="#000000" stroke-width="2" stroke-linecap="round" stroke-linejoin="round" stroke-miterlimit="10" d="
	M24.889,139.187c0,2.525-2.109,4.634-4.634,4.634s-4.634-2.109-4.634-4.634c0-2.525,2.108-4.634,4.634-4.634
	S24.889,136.661,24.889,139.187z"/>
<path fill="none" stroke="#000000" stroke-width="2" stroke-linecap="round" stroke-linejoin="round" stroke-miterlimit="10" d="
	M44.057,139.187c0,2.525-2.108,4.634-4.634,4.634c-2.525,0-4.633-2.109-4.633-4.634c0-2.525,2.108-4.634,4.633-4.634
	S44.057,136.661,44.057,139.187C44.057,141.745,44.057,136.627,44.057,139.187z"/>
<path fill="none" stroke="#000000" stroke-width="2" stroke-linecap="round" stroke-linejoin="round" stroke-miterlimit="10" d="
	M71.866,139.187c0,2.525-2.108,4.634-4.634,4.634s-4.634-2.108-4.634-4.634s2.108-4.634,4.634-4.634S71.866,136.661,71.866,139.187
	C71.866,141.745,71.866,136.627,71.866,139.187z"/>
<path fill="none" stroke="#000000" stroke-width="2" stroke-linecap="round" stroke-linejoin="round" stroke-miterlimit="10" d="
	M58.074,109.196c0,3.426-5.312,3.426-5.312,0S58.074,105.77,58.074,109.196C58.074,110.663,58.074,107.729,58.074,109.196z"/>
<path fill="none" stroke="#000000" stroke-width="2" stroke-linecap="round" stroke-linejoin="round" stroke-miterlimit="10" d="
	M46.399,109.196c0,3.426-5.312,3.426-5.312,0S46.399,105.77,46.399,109.196z"/>
<path fill="none" stroke="#000000" stroke-width="2" stroke-linecap="round" stroke-linejoin="round" stroke-miterlimit="10" d="
	M34.725,109.196c0,3.426-5.312,3.426-5.312,0S34.725,105.77,34.725,109.196C34.725,110.663,34.725,107.729,34.725,109.196z"/>
<path fill="none" stroke="#000000" stroke-width="2" stroke-linecap="round" stroke-linejoin="round" stroke-miterlimit="10" d="
	M29.839,134.236c-2.525,0-4.634-2.108-4.634-4.634s2.109-4.634,4.634-4.634s4.634,2.108,4.634,4.634
	C34.473,132.127,32.364,134.236,29.839,134.236z"/>
<path fill="none" stroke="#000000" stroke-width="2" stroke-linecap="round" stroke-linejoin="round" stroke-miterlimit="10" d="
	M66.527,62.868c-9.508,0-19.016,0-28.523,0c-5.05,0-10.101,0-15.15,0c-0.171,0-1.893,0.076-1.893-0.06c0-0.95,0-1.899,0-2.849
	c0-11.506,0-23.013,0-34.519c0-5.088,0-10.176,0-15.264c0-1.055,0-2.11,0-3.166c0-0.308,1.31-0.134,1.562-0.134
	c11.309,0,22.617,0,33.926,0c3.353,0,6.707,0,10.06,0c0.039,0,0.019,7.023,0.019,7.438c0,12.265,0,24.529,0,36.794
	C66.527,55.028,66.527,58.948,66.527,62.868z"/>
<path fill="none" stroke="#000000" stroke-width="2" stroke-linecap="round" stroke-linejoin="round" stroke-miterlimit="10" d="
	M28.747,13.44c9.654,0,19.309,0,28.963,0c0.963,0,1.028-0.204,1.028,0.735c0,1.719,0,3.439,0,5.158c0,6.109,0,12.218,0,18.327
	c0,6.214,0,12.429,0,18.643c-9.654,0-19.309,0-28.963,0c-0.963,0-1.028,0.204-1.028-0.735c0-1.719,0-3.439,0-5.158
	c0-6.109,0-12.218,0-18.327C28.747,25.869,28.747,19.655,28.747,13.44z"/>
<line fill="none" stroke="#000000" stroke-width="2" stroke-linecap="round" stroke-linejoin="round" stroke-miterlimit="10" x1="66.526" y1="6.876" x2="58.738" y2="13.44"/>
<line fill="none" stroke="#000000" stroke-width="2" stroke-linecap="round" stroke-linejoin="round" stroke-miterlimit="10" x1="66.527" y1="62.868" x2="58.739" y2="56.304"/>
<line fill="none" stroke="#000000" stroke-width="2" stroke-linecap="round" stroke-linejoin="round" stroke-miterlimit="10" x1="20.96" y1="62.868" x2="28.747" y2="56.304"/>
<path fill="none" stroke="#000000" stroke-width="2" stroke-linecap="round" stroke-linejoin="round" stroke-miterlimit="10" d="
	M20.96,6.876"/>
<line fill="none" stroke="#000000" stroke-width="2" stroke-linecap="round" stroke-linejoin="round" stroke-miterlimit="10" x1="28.747" y1="13.44" x2="20.96" y2="6.876"/>
<path fill="none" stroke="#000000" stroke-width="2" stroke-linecap="round" stroke-linejoin="round" stroke-miterlimit="10" d="
	M23.621,177.89c0-9.31,0-18.621,0-27.931c0-3.597,2.803-6.651,6.512-6.489c3.557,0.156,5.957,3.162,5.957,6.581
	c0,5.112,0,10.224,0,15.336c0,4.167,0,8.335,0,12.503"/>
<path fill="none" stroke="#000000" stroke-width="2" stroke-linecap="round" stroke-linejoin="round" stroke-miterlimit="10" d="
	M7.234,183.369C3.592,183.37,1,180.33,1,176.821c0-1.938,0-3.876,0-5.815c0-6.073,0-12.147,0-18.22c0-1.019,0-2.038,0-3.057
	c0-3.207,2.497-5.974,5.706-6.242"/>
<path fill="none" stroke="#000000" stroke-width="2" stroke-linecap="round" stroke-linejoin="round" stroke-miterlimit="10" d="
	M32.483,154.833c-0.571,0-5.256,0.075-5.256-0.072c0-1.1,0-2.201,0-3.301c0-0.644,0-1.287,0-1.931c0-0.115-0.088-0.771,0-0.854
	c0.093-0.088,0.7,0,0.821,0c0.668,0,1.336,0,2.004,0c0.238,0,2.431-0.085,2.431,0.072C32.483,150.775,32.483,152.804,32.483,154.833
	z"/>
<line fill="none" stroke="#000000" stroke-width="2" stroke-linecap="round" stroke-linejoin="round" stroke-miterlimit="10" x1="32.483" y1="158.372" x2="27.227" y2="158.372"/>
<path fill="none" stroke="#000000" stroke-width="2" stroke-linecap="round" stroke-linejoin="round" stroke-miterlimit="10" d="
	M52.762,177.592c0,8.855,0,17.71,0,26.565c0,9.052,0,18.104,0,27.157c0,1.984-0.924,3.889-2.486,5.113
	c-1.457,1.142-3.114,1.377-4.899,1.377c-1.446,0-3.028,0.159-4.442-0.208c-2.155-0.561-3.914-2.248-4.564-4.378
	c-0.356-1.167-0.281-2.396-0.281-3.6c0-1.853,0-3.706,0-5.559c0-12.214,0-24.429,0-36.643c0-3.275,0-6.549,0-9.824"/>
<path fill="none" stroke="#000000" stroke-width="2" stroke-linecap="round" stroke-linejoin="round" stroke-miterlimit="10" d="
	M65.23,177.89c0-9.31,0-18.621,0-27.931c0-3.597-2.803-6.651-6.512-6.489c-3.557,0.156-5.957,3.162-5.957,6.581
	c0,5.112,0,10.224,0,15.336c0,4.167,0,8.335,0,12.503"/>
<path fill="none" stroke="#000000" stroke-width="2" stroke-linecap="round" stroke-linejoin="round" stroke-miterlimit="10" d="
	M81.617,183.369c3.642,0,6.234-3.039,6.234-6.548c0-1.938,0-3.876,0-5.815c0-6.073,0-12.147,0-18.22c0-1.019,0-2.038,0-3.057
	c0-3.207-2.497-5.974-5.706-6.242"/>
<path fill="none" stroke="#000000" stroke-width="2" stroke-linecap="round" stroke-linejoin="round" stroke-miterlimit="10" d="
	M56.368,154.833c0.571,0,5.256,0.075,5.256-0.072c0-1.1,0-2.201,0-3.301c0-0.644,0-1.287,0-1.931c0-0.115,0.088-0.771,0-0.854
	c-0.093-0.088-0.7,0-0.821,0c-0.668,0-1.336,0-2.004,0c-0.238,0-2.431-0.085-2.431,0.072
	C56.368,150.775,56.368,152.804,56.368,154.833z"/>
<line fill="none" stroke="#000000" stroke-width="2" stroke-linecap="round" stroke-linejoin="round" stroke-miterlimit="10" x1="56.368" y1="158.372" x2="61.624" y2="158.372"/>
<path fill="none" stroke="#000000" stroke-width="2" stroke-linecap="round" stroke-linejoin="round" stroke-miterlimit="10" d="
	M46.71,44.796c0-2.34,0-4.681,0-7.021c0-0.293-5.934-0.026-5.934-0.104c0,2.354,0,4.708,0,7.062c0,0.129-5.917,0.063-6.595,0.063
	c-0.156,0-0.061,5.933-0.038,5.933c2.222,0,4.445,0,6.667,0c2.085,0,4.17,0,6.255,0c1.446,0,2.893,0,4.339,0
	c0.568,0,1.136,0,1.705,0c0.345,0,0.265-0.037,0.265-0.386c0-1.276,0-2.553,0-3.83c0-0.446,0.291-1.717-0.265-1.717
	C50.976,44.796,48.843,44.796,46.71,44.796z"/>
<line fill="none" stroke="#000000" stroke-width="2" stroke-linecap="round" stroke-linejoin="round" stroke-miterlimit="10" x1="15.781" y1="76.566" x2="29.024" y2="89.81"/>
<line fill="none" stroke="#000000" stroke-width="2" stroke-linecap="round" stroke-linejoin="round" stroke-miterlimit="10" x1="29.024" y1="76.566" x2="15.781" y2="89.81"/>
<line fill="none" stroke="#000000" stroke-width="2" stroke-linecap="round" stroke-linejoin="round" stroke-miterlimit="10" x1="37.122" y1="76.566" x2="50.365" y2="89.81"/>
<line fill="none" stroke="#000000" stroke-width="2" stroke-linecap="round" stroke-linejoin="round" stroke-miterlimit="10" x1="50.365" y1="76.566" x2="37.122" y2="89.81"/>
<line fill="none" stroke="#000000" stroke-width="2" stroke-linecap="round" stroke-linejoin="round" stroke-miterlimit="10" x1="58.462" y1="76.566" x2="71.706" y2="89.81"/>
<line fill="none" stroke="#000000" stroke-width="2" stroke-linecap="round" stroke-linejoin="round" stroke-miterlimit="10" x1="71.706" y1="76.566" x2="58.462" y2="89.81"/>
<path fill="none" stroke="#000000" stroke-width="2" stroke-linecap="round" stroke-linejoin="round" stroke-miterlimit="10" d="
	M70.606,177.592c0,9.386,0,18.771,0,28.157c0,5.352,0,10.704,0,16.056c0,0.98,0,1.96,0,2.94c0,4.174-0.998,8.323-2.924,12.028
	c-4.129,7.946-12.266,13.337-21.201,14.001c-9.03,0.67-17.929-3.495-23.194-10.862c-2.597-3.634-4.229-7.92-4.701-12.362
	c-0.158-1.485-0.147-2.968-0.147-4.458c0-4.875,0-9.751,0-14.627c0-10.219,0-20.438,0-30.658c0-0.072,0-0.144,0-0.215"/>
<path fill="none" stroke="#000000" stroke-width="2" stroke-linecap="round" stroke-linejoin="round" stroke-miterlimit="10" d="
	M81.617,183.071c0,8.59,0,17.181,0,25.771c0,10.117,0,20.233,0,30.351c0,6.947-1.661,13.728-5.211,19.732
	c-4.474,7.566-11.606,13.437-19.921,16.304c-8.608,2.968-18.225,2.626-26.596-0.957c-8.08-3.458-14.779-9.81-18.707-17.667
	c-2.813-5.628-3.948-11.698-3.948-17.951c0-4.169,0-8.338,0-12.507c0-12.183,0-24.366,0-36.549c0-2.175,0-4.351,0-6.526"/>
</svg>
