<?xml version="1.0" encoding="utf-8"?>
<!-- Generator: Adobe Illustrator 20.1.0, SVG Export Plug-In . SVG Version: 6.00 Build 0)  -->
<svg version="1.1" id="Layer_1" xmlns="http://www.w3.org/2000/svg" xmlns:xlink="http://www.w3.org/1999/xlink" x="0px" y="0px"
	 viewBox="0 0 180 166" style="enable-background:new 0 0 180 166;" xml:space="preserve">
<g>
	<path d="M177.5,97H130V38.5c0-1.4-1.1-2.5-2.5-2.5H112V2.5c0-1.4-1.1-2.5-2.5-2.5h-40C68.1,0,67,1.1,67,2.5V36H52.5
		c-1.4,0-2.5,1.1-2.5,2.5V97H2.5C1.1,97,0,98.1,0,99.5v64c0,1.4,1.1,2.5,2.5,2.5h50h75h50c1.4,0,2.5-1.1,2.5-2.5v-64
		C180,98.1,178.9,97,177.5,97z M5,102h45v59H5V102z M55,99.5V41h12v17c0,1.4,1.1,2.5,2.5,2.5S72,59.4,72,58V38.5V5h35v33.5V58
		c0,1.4,1.1,2.5,2.5,2.5s2.5-1.1,2.5-2.5V41h13v58.5V161h-17V99.4c0.1-0.3,0.2-0.6,0.2-0.9c0-9.9-8.9-18.5-19-18.5
		c-9.8,0-18.4,8.1-18.9,17.5c-0.1,0.3-0.2,0.7-0.2,1V161H55L55,99.5L55,99.5z M75,101h28v59H75V101z M75.5,96
		c1.3-5.6,6.7-11,13.7-11c7,0,12.4,5.4,13.7,11H75.5z M175,161h-45v-59h45V161z"/>
	<path d="M141.5,148h22c1.4,0,2.5-1.1,2.5-2.5v-14v-14c0-1.4-1.1-2.5-2.5-2.5h-22c-1.4,0-2.5,1.1-2.5,2.5v14v14
		C139,146.9,140.1,148,141.5,148z M161,143h-17v-9h17V143z M144,120h17v9h-17V120z"/>
	<path d="M38.5,115h-22c-1.4,0-2.5,1.1-2.5,2.5v14v14c0,1.4,1.1,2.5,2.5,2.5h22c1.4,0,2.5-1.1,2.5-2.5v-14v-14
		C41,116.1,39.9,115,38.5,115z M19,120h17v9H19V120z M36,143H19v-9h17V143z"/>
	<path d="M79,26h8v22c0,1.4,1.1,2.5,2.5,2.5S92,49.4,92,48V26h8c1.4,0,2.5-1.1,2.5-2.5S101.4,21,100,21h-8v-8c0-1.4-1.1-2.5-2.5-2.5
		S87,11.6,87,13v8h-8c-1.4,0-2.5,1.1-2.5,2.5S77.6,26,79,26z"/>
</g>
</svg>
