<?xml version="1.0" standalone="no"?>
<!DOCTYPE svg PUBLIC "-//W3C//DTD SVG 1.1//EN" "http://www.w3.org/Graphics/SVG/1.1/DTD/svg11.dtd" >
<svg>
<metadata>
Created by FontForge 20090622 at Fri Feb 16 21:43:06 2018
 By deploy user
Copyright (c) 2009 by Peugeot. All rights reserved.
</metadata>
<defs>
<font id="Peugeot" horiz-adv-x="578" >
  <font-face 
    font-family="Peugeot"
    font-weight="400"
    font-stretch="normal"
    units-per-em="1000"
    panose-1="2 0 5 3 4 0 0 2 0 3"
    ascent="800"
    descent="-200"
    x-height="475"
    cap-height="676"
    bbox="-27 -244 1200 1035"
    underline-thickness="60"
    underline-position="-82"
    unicode-range="U+0020-U+FB02"
  />
<missing-glyph horiz-adv-x="557" 
d="M449 676v-676h-340v676h340zM183 614l96 -223l95 223h-191zM279 284l-96 -222h191zM302 338l87 -205v410zM255 338l-88 205v-410z" />
    <glyph glyph-name="fi" unicode="fi" horiz-adv-x="562" 
d="M27 475h68v54q0 96 58.5 145.5t147.5 49.5q90 0 170 -38v-85q-75 47 -167 47q-127 0 -127 -118v-55h300v-475h-82v403h-218v-403h-82v403h-68v72z" />
    <glyph glyph-name="fl" unicode="fl" horiz-adv-x="599" 
d="M474 682v-568q0 -53 42 -53q31 0 59 15v-77q-29 -13 -71 -13q-111 0 -111 136v510q-44 17 -90 17q-126 0 -126 -118v-56h132v-72h-132v-403h-82v403h-68v72h68v55q0 98 58 146t144 48q103 0 177 -42z" />
    <glyph glyph-name=".notdef" horiz-adv-x="557" 
d="M449 676v-676h-340v676h340zM183 614l96 -223l95 223h-191zM279 284l-96 -222h191zM302 338l87 -205v410zM255 338l-88 205v-410z" />
    <glyph glyph-name=".null" horiz-adv-x="0" 
 />
    <glyph glyph-name="nonmarkingreturn" horiz-adv-x="333" 
 />
    <glyph glyph-name="space" unicode=" " horiz-adv-x="251" 
 />
    <glyph glyph-name="exclam" unicode="!" horiz-adv-x="294" 
d="M195 676l-11 -485h-74l-11 485h96zM100 0v94h95v-94h-95z" />
    <glyph glyph-name="quotedbl" unicode="&#x22;" horiz-adv-x="427" 
d="M170 676l-8 -252h-65l-9 252h82zM338 676l-7 -252h-66l-7 252h80z" />
    <glyph glyph-name="numbersign" unicode="#" horiz-adv-x="607" 
d="M513 676l-32 -175h105l-11 -66h-106l-33 -186h105l-12 -66h-105l-33 -183h-69l33 183h-164l-33 -183h-70l34 183h-105l12 66h104l34 187h-104l12 65h104l31 175h70l-32 -175h164l32 175h69zM400 436h-164l-33 -187h164z" />
    <glyph glyph-name="dollar" unicode="$" 
d="M261 -110v115q-103 2 -178 45v79q89 -49 187 -49q144 0 144 108q0 35 -24.5 59t-61.5 36t-80.5 28.5t-80.5 34.5t-61.5 54.5t-24.5 87.5q0 75 50.5 121t129.5 57v111h73v-107q82 -4 151 -36v-79q-80 39 -173 39q-59 0 -99.5 -24t-40.5 -78q0 -38 34.5 -63t83 -40.5
t97.5 -34.5t83.5 -58.5t34.5 -99.5q0 -82 -47.5 -128t-123.5 -58v-120h-73z" />
    <glyph glyph-name="percent" unicode="%" horiz-adv-x="890" 
d="M366 477q0 -97 -41.5 -155t-115.5 -58t-115.5 58t-41.5 155t41.5 155t115.5 58t115.5 -58t41.5 -155zM300 477q0 147 -91 147t-91 -147t91 -147t91 147zM838 199q0 -97 -41.5 -155t-115.5 -58t-115.5 58t-41.5 155t41.5 155t115.5 58t115.5 -58t41.5 -155zM772 199
q0 147 -91 147t-91 -147t91 -147t91 147zM666 676l-373 -676h-69l373 676h69z" />
    <glyph glyph-name="ampersand" unicode="&#x26;" horiz-adv-x="674" 
d="M399 346h264v-74h-87q0 -139 -69.5 -212.5t-198.5 -73.5q-124 0 -193 58t-69 154q0 72 37.5 116t98.5 60q-110 37 -110 143q0 85 67 129t168 44q97 0 173 -38v-82q-77 43 -173 43q-63 0 -102.5 -25t-39.5 -75q0 -51 39 -77t101 -26h40v-75h-38q-74 0 -120.5 -33.5
t-46.5 -99.5q0 -69 45 -104t127 -35q181 0 181 209h-94v74z" />
    <glyph glyph-name="quotesingle" unicode="'" horiz-adv-x="257" 
d="M168 676l-7 -252h-66l-7 252h80z" />
    <glyph glyph-name="parenleft" unicode="(" horiz-adv-x="281" 
d="M56 260q0 133 37 239t101 211h75q-34 -63 -50 -95t-41.5 -95t-36.5 -126t-11 -134t11 -134t36.5 -126t41.5 -95t50 -95h-75q-64 105 -101 211t-37 239z" />
    <glyph glyph-name="parenright" unicode=")" horiz-adv-x="281" 
d="M225 260q0 -133 -37 -239t-101 -211h-75q34 63 50 95t41.5 95t36.5 126t11 134t-11 134t-36.5 126t-41.5 95t-50 95h75q64 -105 101 -211t37 -239z" />
    <glyph glyph-name="asterisk" unicode="*" horiz-adv-x="375" 
d="M250 382l-64 102l-63 -102l-52 45l79 89l-114 27l17 64l110 -44l-10 113h67l-10 -113l110 44l17 -64l-113 -27l78 -89z" />
    <glyph glyph-name="plus" unicode="+" 
d="M522 344v-66h-199v-195h-69v195h-198v66h198v195h69v-195h199z" />
    <glyph glyph-name="comma" unicode="," horiz-adv-x="261" 
d="M87 94h84q11 -42 11 -78q0 -139 -141 -207l-35 58q94 56 94 148q0 37 -13 79z" />
    <glyph glyph-name="hyphen" unicode="-" horiz-adv-x="390" 
d="M317 326v-78h-244v78h244z" />
    <glyph glyph-name="period" unicode="." horiz-adv-x="261" 
d="M82 0v94h96v-94h-96z" />
    <glyph glyph-name="slash" unicode="/" horiz-adv-x="359" 
d="M359 676l-279 -676h-80l280 676h79z" />
    <glyph glyph-name="zero" unicode="0" 
d="M300 690q118 0 187 -93.5t69 -259.5q0 -164 -69 -257.5t-187 -93.5t-187 93.5t-69 257.5q0 166 69 259.5t187 93.5zM300 613q-79 0 -120.5 -74.5t-41.5 -200.5t41.5 -200.5t120.5 -74.5t120.5 74.5t41.5 200.5t-41.5 200.5t-120.5 74.5z" />
    <glyph glyph-name="one" unicode="1" 
d="M170 676h215v-676h-89v599h-126v77z" />
    <glyph glyph-name="two" unicode="2" 
d="M95 557v87q76 46 174 46t161.5 -51t63.5 -153q0 -85 -40.5 -145t-126.5 -136l-144 -128h318v-77h-427v70l207 202q63 62 91.5 108t28.5 103q0 65 -39 97.5t-102 32.5q-90 0 -165 -56z" />
    <glyph glyph-name="three" unicode="3" 
d="M94 676h409v-69l-212 -214q93 -1 155.5 -49t62.5 -144q0 -101 -68 -157.5t-179 -56.5q-102 0 -178 41v84q74 -48 174 -48q73 0 115.5 34.5t42.5 99.5q0 132 -163 132q-36 0 -69 -5v65l210 210h-300v77z" />
    <glyph glyph-name="four" unicode="4" 
d="M39 249l323 427h102v-426h79v-78h-79v-172h-85v172h-340v77zM130 250h249v326z" />
    <glyph glyph-name="five" unicode="5" 
d="M266 -14q-100 0 -180 43v80q81 -46 175 -46q69 0 111.5 35t42.5 112q0 73 -46.5 104.5t-120.5 31.5q-65 0 -130 -21l-17 19l44 332h344v-77h-273l-24 -183q31 7 70 7q45 0 85.5 -10t78 -33t59.5 -65.5t22 -101.5q0 -115 -68.5 -171t-172.5 -56z" />
    <glyph glyph-name="six" unicode="6" 
d="M515 661v-81q-66 33 -154 33q-90 0 -144.5 -59.5t-58.5 -189.5q66 66 169 66q93 0 154.5 -54t61.5 -158q0 -102 -62.5 -167t-168.5 -65t-174.5 82t-68.5 245q0 194 81.5 285.5t208.5 91.5q94 0 156 -29zM161 276q1 -53 14.5 -98.5t49 -80t87.5 -34.5q63 0 101.5 39.5
t38.5 109.5q0 69 -36 104.5t-101 35.5q-47 0 -90 -23t-64 -53z" />
    <glyph glyph-name="seven" unicode="7" 
d="M525 676v-71q-117 -131 -185.5 -272.5t-94.5 -332.5h-95q57 380 271 599h-339v77h443z" />
    <glyph glyph-name="eight" unicode="8" 
d="M294 313q-65 0 -107 -29.5t-42 -94.5q0 -60 43.5 -93t105.5 -33t105.5 33t43.5 93q0 65 -42 94.5t-107 29.5zM294 690q98 0 161.5 -50t63.5 -130q0 -112 -101 -156q116 -40 116 -170q0 -86 -65.5 -142t-174.5 -56t-175 56t-66 142q0 130 117 170q-101 44 -101 156
q0 80 63.5 130t161.5 50zM294 613q-57 0 -95 -28.5t-38 -82.5q0 -56 38 -83.5t95 -27.5t94.5 27.5t37.5 83.5q0 54 -38 82.5t-94 28.5z" />
    <glyph glyph-name="nine" unicode="9" 
d="M72 14v81q66 -33 154 -33q90 0 144.5 59.5t58.5 189.5q-66 -66 -169 -66q-93 0 -154.5 54t-61.5 158q0 102 62.5 167t168.5 65t174.5 -82t68.5 -245q0 -194 -81.5 -285.5t-208.5 -91.5q-94 0 -156 29zM426 399q-1 53 -14.5 98.5t-49 80t-87.5 34.5q-63 0 -101.5 -39.5
t-38.5 -109.5q0 -69 36 -104.5t101 -35.5q47 0 90 23t64 53z" />
    <glyph glyph-name="colon" unicode=":" horiz-adv-x="261" 
d="M82 381v94h96v-94h-96zM82 0v94h96v-94h-96z" />
    <glyph glyph-name="semicolon" unicode=";" horiz-adv-x="261" 
d="M82 94h84q11 -42 11 -78q0 -139 -141 -207l-35 58q94 56 94 148q0 37 -13 79zM82 381v94h96v-94h-96z" />
    <glyph glyph-name="less" unicode="&#x3c;" 
d="M56 279v68l466 208v-76l-377 -166l377 -166v-76z" />
    <glyph glyph-name="equal" unicode="=" 
d="M522 450v-66h-466v66h466zM522 237v-66h-466v66h466z" />
    <glyph glyph-name="greater" unicode="&#x3e;" 
d="M522 347v-68l-466 -208v76l377 166l-377 166v76z" />
    <glyph glyph-name="question" unicode="?" horiz-adv-x="416" 
d="M134 0v94h95v-94h-95zM61 582v80q48 28 125 28q78 0 127.5 -40.5t49.5 -119.5q0 -38 -14.5 -72.5t-27.5 -51t-38 -42.5l-37 -39t-18 -29.5t-8 -41.5v-63h-79v69q0 37 11 66t23 44t42 47q19 20 29 33t20.5 35t10.5 44q0 84 -102 84q-65 0 -114 -31z" />
    <glyph glyph-name="at" unicode="@" horiz-adv-x="778" 
d="M521 372v-144q0 -42 15.5 -60.5t48.5 -18.5q38 0 62 34t24 106q0 111 -77 173t-195 62q-123 0 -207 -71t-84 -201q0 -76 24 -133t66 -89t93.5 -47t111.5 -15q107 0 193 30v-61q-84 -30 -193 -30q-72 0 -134 19.5t-112.5 59.5t-79.5 108t-29 158q0 102 50.5 180t129.5 116
t171 38q143 0 237 -80t94 -216q0 -92 -39 -148t-114 -56t-101 54q-41 -54 -109 -54q-58 0 -96 41.5t-38 113.5q0 81 46.5 121.5t116.5 40.5q68 0 125 -31zM458 213v116q-25 12 -64 12q-43 0 -70 -23.5t-27 -75.5q0 -45 21 -69.5t57 -24.5q29 0 50.5 18.5t32.5 46.5z" />
    <glyph glyph-name="A" unicode="A" horiz-adv-x="626" 
d="M272 676h85l269 -676h-96l-66 166h-311l-65 -166h-88zM309 565l-127 -323h254z" />
    <glyph glyph-name="B" unicode="B" horiz-adv-x="622" 
d="M108 676h194q123 0 186.5 -47t63.5 -130q0 -62 -35.5 -100t-84.5 -52q57 -11 96.5 -50t39.5 -106q0 -91 -70 -141t-196 -50h-194v676zM197 599v-218h99q164 0 164 112q0 56 -40 81t-119 25h-104zM197 306v-229h104q174 0 174 114q0 55 -45.5 85t-128.5 30h-104z" />
    <glyph glyph-name="C" unicode="C" horiz-adv-x="637" 
d="M57 338q0 158 92.5 255t250.5 97q105 0 173 -35v-79q-72 37 -168 37q-117 0 -185.5 -73.5t-68.5 -201.5t68.5 -201.5t185.5 -73.5q97 0 175 43v-80q-80 -40 -178 -40q-159 0 -252 96.5t-93 255.5z" />
    <glyph glyph-name="D" unicode="D" horiz-adv-x="748" 
d="M197 599v-522h120q134 0 207 64.5t73 196.5t-73 196.5t-207 64.5h-120zM108 676h209q180 0 277 -88.5t97 -249.5t-96.5 -249.5t-277.5 -88.5h-209v676z" />
    <glyph glyph-name="E" unicode="E" horiz-adv-x="581" 
d="M99 676h405v-77h-315v-212h287v-77h-287v-146q0 -45 20.5 -66t65.5 -21h244v-77h-256q-86 0 -125 41t-39 123v512z" />
    <glyph glyph-name="F" unicode="F" horiz-adv-x="566" 
d="M108 676h399v-77h-310v-224h282v-77h-282v-298h-89v676z" />
    <glyph glyph-name="G" unicode="G" horiz-adv-x="795" 
d="M403 366h296v-296q-129 -84 -290 -84q-157 0 -254.5 93.5t-97.5 258.5q0 91 31.5 160.5t85 110.5t118.5 61t139 20q137 0 251 -61v-81q-114 65 -250 65q-57 0 -105.5 -15t-89.5 -46t-64 -85.5t-23 -128.5q0 -130 72 -202.5t189 -72.5t204 48v180h-212v75z" />
    <glyph glyph-name="H" unicode="H" horiz-adv-x="784" 
d="M108 676h89v-288h389v288h90v-676h-90v311h-389v-311h-89v676z" />
    <glyph glyph-name="I" unicode="I" horiz-adv-x="305" 
d="M108 676h89v-676h-89v676z" />
    <glyph glyph-name="J" unicode="J" horiz-adv-x="389" 
d="M201 676h89v-503q0 -94 -43.5 -140.5t-124.5 -46.5q-56 0 -102 20v79q42 -22 94 -22q47 0 67 25t20 83v505z" />
    <glyph glyph-name="K" unicode="K" horiz-adv-x="622" 
d="M108 676h89v-299l309 299h106l-331 -323l341 -353h-117l-308 315v-315h-89v676z" />
    <glyph glyph-name="L" unicode="L" horiz-adv-x="517" 
d="M100 676h90v-512q0 -45 20 -66t66 -21h222v-77h-235q-85 0 -124 41.5t-39 122.5v512z" />
    <glyph glyph-name="M" unicode="M" horiz-adv-x="938" 
d="M510 132h-82l-233 396v-528h-87v676h93l268 -453l268 453h93v-676h-88v528z" />
    <glyph glyph-name="N" unicode="N" horiz-adv-x="777" 
d="M108 676h80l396 -534v534h85v-676h-79l-396 533v-533h-86v676z" />
    <glyph glyph-name="O" unicode="O" horiz-adv-x="814" 
d="M757 338q0 -160 -96 -256t-254 -96t-254 96t-96 256t96 256t254 96t254 -96t96 -256zM664 338q0 126 -68.5 200.5t-188.5 74.5t-188.5 -74.5t-68.5 -200.5t68.5 -200.5t188.5 -74.5t188.5 74.5t68.5 200.5z" />
    <glyph glyph-name="P" unicode="P" horiz-adv-x="634" 
d="M108 676h209q123 0 191 -55.5t68 -156.5q0 -103 -68 -157.5t-191 -54.5h-120v-252h-89v676zM197 599v-270h120q78 0 122 33.5t44 101.5t-44 101.5t-122 33.5h-120z" />
    <glyph glyph-name="Q" unicode="Q" horiz-adv-x="814" 
d="M664 338q0 126 -68.5 200.5t-188.5 74.5t-188.5 -74.5t-68.5 -200.5t68.5 -200.5t188.5 -74.5t188.5 74.5t68.5 200.5zM657 -157h-110l-108 144q-11 -1 -32 -1q-158 0 -254 96t-96 256t96 256t254 96t254 -96t96 -256q0 -128 -62 -215t-171 -120z" />
    <glyph glyph-name="R" unicode="R" horiz-adv-x="627" 
d="M314 252h-117v-252h-89v676h209q123 0 191 -55.5t68 -156.5q0 -81 -44.5 -131.5t-127.5 -65.5l194 -267h-102zM197 599v-270h120q78 0 122 33.5t44 101.5t-44 101.5t-122 33.5h-120z" />
    <glyph glyph-name="S" unicode="S" horiz-adv-x="562" 
d="M481 571q-77 42 -176 42q-60 0 -102 -27t-42 -84q0 -36 25.5 -61t63 -37t82 -28.5t82 -35t63 -57.5t25.5 -94q0 -104 -68 -153.5t-169 -49.5q-110 0 -193 49v79q91 -51 191 -51q65 0 107 28t42 90q0 39 -25.5 65.5t-63 38.5t-82 28.5t-82 34t-63 56t-25.5 93.5
q0 93 66.5 143t167.5 50q103 0 176 -38v-81z" />
    <glyph glyph-name="T" unicode="T" horiz-adv-x="584" 
d="M19 676h546v-77h-228v-599h-90v599h-228v77z" />
    <glyph glyph-name="U" unicode="U" horiz-adv-x="697" 
d="M91 676h89v-437q0 -88 46.5 -132t122.5 -44q77 0 123.5 44t46.5 132v437h87v-439q0 -120 -73 -185.5t-184 -65.5t-184.5 65.5t-73.5 185.5v439z" />
    <glyph glyph-name="V" unicode="V" horiz-adv-x="625" 
d="M0 676h94l222 -566l221 566h88l-274 -676h-83z" />
    <glyph glyph-name="W" unicode="W" horiz-adv-x="980" 
d="M449 676h82l188 -567l161 567h92l-198 -676h-96l-188 564l-188 -564h-96l-198 676h92l161 -567z" />
    <glyph glyph-name="X" unicode="X" horiz-adv-x="615" 
d="M16 676h105l188 -261l190 261h100l-241 -331l248 -345h-105l-195 272l-197 -272h-101l249 341z" />
    <glyph glyph-name="Y" unicode="Y" horiz-adv-x="582" 
d="M0 676h98l197 -324l197 324h90l-248 -405v-271h-88v271z" />
    <glyph glyph-name="Z" unicode="Z" horiz-adv-x="597" 
d="M48 676h501v-71l-398 -528h407v-77h-517v66l401 533h-394v77z" />
    <glyph glyph-name="bracketleft" unicode="[" horiz-adv-x="313" 
d="M291 710v-74h-109v-751h109v-75h-182v900h182z" />
    <glyph glyph-name="backslash" unicode="\" horiz-adv-x="359" 
d="M279 0l-279 676h79l280 -676h-80z" />
    <glyph glyph-name="bracketright" unicode="]" horiz-adv-x="313" 
d="M22 636v74h182v-900h-182v75h109v751h-109z" />
    <glyph glyph-name="asciicircum" unicode="^" 
d="M259 676h60l206 -430h-75l-161 339l-162 -339h-74z" />
    <glyph glyph-name="underscore" unicode="_" horiz-adv-x="581" 
d="M562 -14v-67h-542v67h542z" />
    <glyph glyph-name="grave" unicode="`" horiz-adv-x="510" 
d="M251 710l80 -151h-66l-108 151h94z" />
    <glyph glyph-name="a" unicode="a" horiz-adv-x="564" 
d="M479 0h-69l-6 52q-66 -66 -150 -66q-88 0 -147 64.5t-59 183.5q0 124 71 189.5t181 65.5q46 0 97 -11.5t82 -26.5v-451zM397 124v273q-46 17 -96 17q-74 0 -121.5 -42.5t-47.5 -133.5q0 -88 37 -132.5t99 -44.5q77 0 129 63z" />
    <glyph glyph-name="b" unicode="b" horiz-adv-x="566" 
d="M87 710h81v-269q69 48 143 48q88 0 147.5 -64.5t59.5 -183.5q0 -124 -71 -189.5t-182 -65.5q-46 0 -97 12.5t-81 29.5v682zM168 362v-284q46 -17 96 -17q74 0 121.5 42.5t47.5 133.5q0 88 -37 132.5t-99 44.5q-33 0 -69 -15.5t-60 -36.5z" />
    <glyph glyph-name="c" unicode="c" horiz-adv-x="485" 
d="M422 464v-79q-55 29 -121 29q-78 0 -123 -44.5t-45 -131.5t45 -132t122 -45q68 0 128 38v-80q-58 -33 -138 -33q-110 0 -176 70t-66 182q0 114 67.5 182.5t180.5 68.5q73 0 126 -25z" />
    <glyph glyph-name="d" unicode="d" horiz-adv-x="564" 
d="M479 0h-69l-6 52q-66 -66 -149 -66q-88 0 -147.5 64.5t-59.5 183.5q0 124 71 189.5t182 65.5q49 0 96 -13v234h82v-710zM397 124v274q-44 16 -96 16q-74 0 -121.5 -42.5t-47.5 -133.5q0 -88 37 -132.5t99 -44.5q77 0 129 63z" />
    <glyph glyph-name="e" unicode="e" horiz-adv-x="541" 
d="M495 208h-361q7 -77 55 -112t120 -35q93 0 171 43v-77q-76 -41 -177 -41q-110 0 -182.5 62t-72.5 190q0 114 63 182.5t166 68.5q106 0 162 -66.5t56 -158.5v-56zM135 280h275q0 59 -36.5 96.5t-97.5 37.5q-124 0 -141 -134z" />
    <glyph glyph-name="f" unicode="f" horiz-adv-x="318" 
d="M309 475v-72h-132v-403h-82v403h-68v72h68v78q0 84 45.5 127.5t114.5 43.5q34 0 63 -10v-77q-25 11 -56 11q-39 0 -62 -23t-23 -71v-79h132z" />
    <glyph glyph-name="g" unicode="g" horiz-adv-x="564" 
d="M479 451v-443q0 -103 -64 -157.5t-164 -54.5q-95 0 -171 43v83q77 -52 169 -52q67 0 108 33.5t41 104.5v49q-60 -57 -143 -57q-90 0 -148.5 58t-58.5 176q0 124 71 189.5t182 65.5q46 0 97 -11.5t81 -26.5zM398 397q-46 17 -96 17q-74 0 -121.5 -42.5t-47.5 -133.5
q0 -163 136 -163q77 0 129 63v259z" />
    <glyph glyph-name="h" unicode="h" horiz-adv-x="574" 
d="M85 710h82v-276q69 55 152 55q77 0 126.5 -47.5t49.5 -135.5v-306h-82v300q0 55 -31.5 82.5t-80.5 27.5q-75 0 -134 -51v-359h-82v710z" />
    <glyph glyph-name="i" unicode="i" horiz-adv-x="252" 
d="M167 475v-475h-82v475h82zM167 682v-99h-82v99h82z" />
    <glyph glyph-name="j" unicode="j" horiz-adv-x="252" 
d="M167 682v-99h-82v99h82zM85 475h82v-543q0 -136 -112 -136q-36 0 -69 15v76q30 -15 54 -15q45 0 45 51v552z" />
    <glyph glyph-name="k" unicode="k" horiz-adv-x="502" 
d="M495 475l-250 -214l255 -261h-109l-224 226v-226h-82v710h82v-424l220 189h108z" />
    <glyph glyph-name="l" unicode="l" horiz-adv-x="287" 
d="M80 710h82v-596q0 -53 41 -53q32 0 59 15v-77q-29 -13 -71 -13q-111 0 -111 136v588z" />
    <glyph glyph-name="m" unicode="m" horiz-adv-x="878" 
d="M479 355q4 -16 4 -46v-309h-82v301q0 54 -29.5 81.5t-76.5 27.5q-69 0 -128 -51v-359h-82v475h74l5 -43q66 57 145 57q99 0 148 -76q81 76 172 76q73 0 121.5 -47.5t48.5 -132.5v-309h-82v301q0 53 -29 81t-76 28q-71 0 -133 -55z" />
    <glyph glyph-name="n" unicode="n" horiz-adv-x="574" 
d="M85 475h74l5 -43q71 57 155 57q77 0 126.5 -47.5t49.5 -135.5v-306h-82v300q0 55 -31.5 82.5t-80.5 27.5q-75 0 -134 -51v-359h-82v475z" />
    <glyph glyph-name="o" unicode="o" horiz-adv-x="586" 
d="M538 237q0 -115 -67.5 -183t-177.5 -68q-109 0 -177 68.5t-68 182.5t68 183t177 69q110 0 177.5 -68.5t67.5 -183.5zM454 237q0 83 -44 130t-117 47q-72 0 -116 -47t-44 -130t43.5 -129.5t116.5 -46.5t117 46.5t44 129.5z" />
    <glyph glyph-name="p" unicode="p" horiz-adv-x="564" 
d="M85 475h74l5 -43q62 57 146 57q86 0 146 -64t60 -185t-66.5 -187.5t-168.5 -66.5q-69 0 -114 23v-199h-82v665zM167 362v-276q47 -25 108 -25q68 0 112.5 45t44.5 134q0 87 -38.5 130.5t-99.5 43.5q-35 0 -70 -16t-57 -36z" />
    <glyph glyph-name="q" unicode="q" horiz-adv-x="564" 
d="M479 -190h-82v232q-59 -56 -142 -56q-88 0 -147.5 64.5t-59.5 183.5q0 124 71 189.5t182 65.5q46 0 97 -11.5t81 -26.5v-641zM397 124v273q-46 17 -96 17q-74 0 -121.5 -42.5t-47.5 -133.5q0 -88 37 -132.5t99 -44.5q77 0 129 63z" />
    <glyph glyph-name="r" unicode="r" horiz-adv-x="360" 
d="M85 475h74l5 -71q83 85 175 85v-86q-42 0 -89.5 -20t-82.5 -54v-329h-82v475z" />
    <glyph glyph-name="s" unicode="s" horiz-adv-x="453" 
d="M399 458v-77q-63 33 -155 33q-49 0 -83.5 -15.5t-34.5 -50.5q0 -29 29.5 -44.5t72 -23.5t85 -19.5t72 -43t29.5 -83.5q0 -75 -53.5 -111.5t-138.5 -36.5q-99 0 -172 44v79q74 -48 170 -48q113 0 113 69q0 30 -29.5 46.5t-72 24.5t-85 19t-72 41t-29.5 80q0 72 56 110
t143 38q95 0 155 -31z" />
    <glyph glyph-name="t" unicode="t" horiz-adv-x="348" 
d="M24 475h68l13 151h69v-151h142v-72h-142v-265q0 -77 67 -77q40 0 83 25v-78q-41 -22 -98 -22q-63 0 -98.5 38t-35.5 113v266h-68v72z" />
    <glyph glyph-name="u" unicode="u" horiz-adv-x="556" 
d="M246 -14q-78 0 -124.5 48t-46.5 140v301h82v-298q0 -58 27.5 -87t77.5 -29q71 0 126 65v349h83v-475h-70l-5 52q-66 -66 -150 -66z" />
    <glyph glyph-name="v" unicode="v" horiz-adv-x="477" 
d="M472 475l-197 -475h-81l-189 475h88l147 -378l148 378h84z" />
    <glyph glyph-name="w" unicode="w" horiz-adv-x="779" 
d="M347 475h84l136 -377l117 377h84l-155 -475h-83l-141 381l-141 -381h-83l-155 475h84l117 -377z" />
    <glyph glyph-name="x" unicode="x" horiz-adv-x="462" 
d="M450 475l-170 -235l174 -240h-99l-127 176l-128 -176h-92l174 239l-170 236h98l123 -173l126 173h91z" />
    <glyph glyph-name="y" unicode="y" horiz-adv-x="556" 
d="M247 -9q-78 0 -125 48t-47 140v296h83v-293q0 -114 104 -114q74 0 127 63v344h82v-465q0 -103 -59 -158t-153 -55q-91 0 -161 36v82q70 -45 155 -45q61 0 98.5 33.5t37.5 104.5v41q-65 -58 -142 -58z" />
    <glyph glyph-name="z" unicode="z" horiz-adv-x="468" 
d="M416 475v-58l-263 -346h269v-71h-376v57l264 347h-259v71h365z" />
    <glyph glyph-name="braceleft" unicode="{" horiz-adv-x="327" 
d="M20 226v76q64 14 86 38.5t22 94.5v109q0 166 158 166h23v-74h-24q-83 0 -83 -90v-112q0 -146 -106 -171q106 -25 106 -171v-118q0 -89 83 -89h24v-75h-23q-158 0 -158 166v115q0 70 -22 94.5t-86 40.5z" />
    <glyph glyph-name="bar" unicode="|" horiz-adv-x="280" 
d="M172 800v-990h-64v990h64z" />
    <glyph glyph-name="braceright" unicode="}" horiz-adv-x="327" 
d="M307 302v-76q-64 -16 -86 -40.5t-22 -94.5v-115q0 -166 -158 -166h-23v75h24q83 0 83 89v118q0 146 106 171q-106 25 -106 171v112q0 90 -83 90h-24v74h23q158 0 158 -166v-109q0 -70 22 -94.5t86 -38.5z" />
    <glyph glyph-name="asciitilde" unicode="~" 
d="M416 240q-38 0 -131 34t-123 34q-47 0 -47 -67h-64q0 62 29.5 100.5t81.5 38.5q39 0 132.5 -34t121.5 -34q47 0 47 66h64q0 -61 -29.5 -99.5t-81.5 -38.5z" />
    <glyph glyph-name="exclamdown" unicode="&#xa1;" horiz-adv-x="294" 
d="M184 284l11 -474h-97l12 474h74zM99 381v94h95v-94h-95z" />
    <glyph glyph-name="cent" unicode="&#xa2;" 
d="M283 -110v162q-93 20 -145.5 97t-52.5 188t52.5 186.5t145.5 94.5v159h73v-151q80 -3 134 -33v-81q-68 34 -138 34q-79 0 -130 -50.5t-51 -158.5q0 -109 50.5 -160.5t129.5 -51.5q72 0 145 38v-80q-54 -33 -140 -36v-157h-73z" />
    <glyph glyph-name="sterling" unicode="&#xa3;" 
d="M83 312v64h88q-21 66 -21 122q0 85 59.5 138.5t154.5 53.5q87 0 152 -34v-81q-64 38 -149 38q-61 0 -96.5 -28.5t-35.5 -84.5q0 -58 23 -124h211v-64h-190q12 -48 12 -83q0 -54 -19 -88t-63 -64h318v-77h-429v66q60 35 84 68.5t24 87.5q0 42 -15 90h-108z" />
    <glyph glyph-name="yen" unicode="&#xa5;" 
d="M551 676l-203 -335h145v-55h-161v-103h161v-55h-161v-128h-90v128h-161v55h161v103h-161v55h145l-197 335h96l168 -292l173 292h85z" />
    <glyph glyph-name="brokenbar" unicode="&#xa6;" horiz-adv-x="280" 
d="M172 800v-410h-64v410h64zM172 220v-410h-64v410h64z" />
    <glyph glyph-name="section" unicode="&#xa7;" horiz-adv-x="541" 
d="M459 653v-82q-70 42 -170 42q-60 0 -101.5 -25.5t-41.5 -79.5q0 -43 35 -67t84.5 -36.5t99 -28.5t84.5 -56.5t35 -107.5q0 -64 -38 -112q34 -40 34 -106q0 -91 -63 -144.5t-166 -53.5q-109 0 -190 47v86q96 -56 191 -56q65 0 103 29t38 83q0 30 -14.5 51.5t-38.5 33
t-54.5 21.5t-62 17t-62 21t-54.5 31.5t-38.5 49.5t-14.5 75q0 61 40 110q-35 40 -35 108q0 92 66 139.5t166 47.5q101 0 168 -37zM152 355q-19 -24 -19 -65q0 -49 39.5 -72.5t111 -41.5t104.5 -36q16 25 16 63q0 33 -16 55t-45 34.5t-59.5 20.5l-68.5 18.5t-63 23.5z" />
    <glyph glyph-name="dieresis" unicode="&#xa8;" horiz-adv-x="510" 
d="M206 685v-96h-76v96h76zM380 685v-96h-76v96h76z" />
    <glyph glyph-name="copyright" unicode="&#xa9;" horiz-adv-x="809" 
d="M752 338q0 -156 -96.5 -254t-250.5 -98q-155 0 -251.5 98t-96.5 254t96.5 254t251.5 98q154 0 250.5 -98t96.5 -254zM703 338q0 134 -82.5 217t-214.5 83q-133 0 -216.5 -83t-83.5 -217t83.5 -217t216.5 -83q132 0 214.5 83t82.5 217zM531 511v-67q-43 28 -107 28
q-132 0 -132 -135q0 -64 35 -98t98 -34q61 0 113 39v-70q-55 -34 -118 -34q-91 0 -146 51.5t-55 145.5q0 97 57 148t143 51q63 0 112 -25z" />
    <glyph glyph-name="ordfeminine" unicode="&#xaa;" horiz-adv-x="411" 
d="M266 470v153q-23 8 -54 8q-39 0 -64.5 -24t-25.5 -75q0 -48 21 -71t54 -23q39 0 69 32zM333 668v-283h-59l-2 26q-41 -32 -87 -32q-56 0 -93.5 39t-37.5 113q0 77 45.5 118t114.5 41q58 0 119 -22z" />
    <glyph glyph-name="guillemotleft" unicode="&#xab;" horiz-adv-x="513" 
d="M402 49l-150 199l150 199h78l-138 -199l138 -199h-78zM183 49l-150 199l150 199h78l-138 -199l138 -199h-78z" />
    <glyph glyph-name="logicalnot" unicode="&#xac;" 
d="M522 450v-278h-69v212h-397v66h466z" />
    <glyph glyph-name="registered" unicode="&#xae;" horiz-adv-x="544" 
d="M479 477q0 -93 -58.5 -153t-149.5 -60t-149.5 60t-58.5 153t58.5 153t149.5 60t149.5 -60t58.5 -153zM193 585h89q39 0 61.5 -17t22.5 -48q0 -51 -52 -63l61 -90h-59l-52 83h-21v-83h-50v218zM243 547v-58h33q38 0 38 29t-38 29h-33zM441 477q0 78 -47.5 126t-122.5 48
q-74 0 -122 -48.5t-48 -125.5t48 -125.5t122 -48.5q75 0 122.5 48t47.5 126z" />
    <glyph glyph-name="macron" unicode="&#xaf;" horiz-adv-x="510" 
d="M382 666v-63h-254v63h254z" />
    <glyph glyph-name="degree" unicode="&#xb0;" horiz-adv-x="326" 
d="M163 689q47 0 80.5 -38t33.5 -93t-33 -92.5t-81 -37.5t-81.5 37.5t-33.5 92.5t33.5 93t81.5 38zM163 639q-29 0 -49.5 -23.5t-20.5 -57.5t20.5 -57t49.5 -23t49 23t20 57t-20 57.5t-49 23.5z" />
    <glyph glyph-name="plusminus" unicode="&#xb1;" 
d="M522 66v-66h-466v66h466zM522 365v-66h-199v-188h-68v188h-199v66h199v188h68v-188h199z" />
    <glyph glyph-name="twosuperior" unicode="&#xb2;" horiz-adv-x="361" 
d="M44 594v66q49 30 115 30q62 0 101.5 -33t39.5 -93q0 -46 -21 -79.5t-62 -72.5l-90 -87h178v-61h-272v50l127 132q34 35 49.5 59.5t15.5 54.5q0 33 -19.5 50.5t-55.5 17.5q-57 0 -106 -34z" />
    <glyph glyph-name="threesuperior" unicode="&#xb3;" horiz-adv-x="361" 
d="M105 500l120 115h-185v61h266v-55l-120 -116q53 -2 89 -31.5t36 -87.5q0 -62 -42 -98t-112 -36t-119 29v64q58 -33 113 -33q41 0 64.5 19t23.5 53q0 40 -24.5 55t-67.5 15q-24 0 -42 -3v49z" />
    <glyph glyph-name="acute" unicode="&#xb4;" horiz-adv-x="510" 
d="M172 559l80 151h94l-108 -151h-66z" />
    <glyph glyph-name="mu" unicode="&#xb5;" horiz-adv-x="566" 
d="M167 475v-298q0 -114 105 -114q72 0 127 63v349h82v-475h-70l-5 52q-66 -66 -148 -66q-69 0 -101 47l10 -223h-82v665h82z" />
    <glyph glyph-name="mu" unicode="&#x3bc;" horiz-adv-x="566" 
d="M167 475v-298q0 -114 105 -114q72 0 127 63v349h82v-475h-70l-5 52q-66 -66 -148 -66q-69 0 -101 47l10 -223h-82v665h82z" />
    <glyph glyph-name="paragraph" unicode="&#xb6;" horiz-adv-x="708" 
d="M598 676v-866h-65v866h65zM360 -190v430h-59q-120 0 -185.5 55.5t-65.5 162.5t65.5 162.5t185.5 55.5h126v-866h-67z" />
    <glyph glyph-name="periodcentered" unicode="&#xb7;" horiz-adv-x="265" 
d="M84 239v94h96v-94h-96z" />
    <glyph glyph-name="cedilla" unicode="&#xb8;" horiz-adv-x="510" 
d="M282 0l-13 -49q73 -9 73 -83q0 -36 -27.5 -58t-75.5 -22q-35 0 -61 13v56q24 -14 57 -14q41 0 41 30t-50 30h-35l29 97h62z" />
    <glyph glyph-name="onesuperior" unicode="&#xb9;" horiz-adv-x="286" 
d="M199 676v-412h-72v354h-101v58h173z" />
    <glyph glyph-name="ordmasculine" unicode="&#xba;" horiz-adv-x="411" 
d="M356 536q0 -70 -42.5 -112.5t-110.5 -42.5t-110.5 42.5t-42.5 112.5t42.5 112t110.5 42t110.5 -42t42.5 -112zM288 536q0 45 -23 70.5t-62 25.5t-62 -25.5t-23 -70.5q0 -46 23 -71.5t62 -25.5t62 25.5t23 71.5z" />
    <glyph glyph-name="guillemotright" unicode="&#xbb;" horiz-adv-x="513" 
d="M480 248l-150 -199h-78l138 199l-138 199h78zM261 248l-150 -199h-78l138 199l-138 199h78z" />
    <glyph glyph-name="onequarter" unicode="&#xbc;" horiz-adv-x="756" 
d="M395 147l194 273h72v-267h56v-58h-56v-95h-66v95h-200v52zM468 153h127v180zM564 676l-371 -676h-66l371 676h66zM199 676v-412h-72v354h-101v58h173z" />
    <glyph glyph-name="onehalf" unicode="&#xbd;" horiz-adv-x="792" 
d="M564 676l-371 -676h-66l371 676h66zM199 676v-412h-72v354h-101v58h173zM475 330v66q49 30 115 30q62 0 101.5 -33t39.5 -93q0 -46 -21 -79.5t-62 -72.5l-90 -87h178v-61h-272v50l127 132q34 35 49.5 59.5t15.5 54.5q0 33 -19.5 50.5t-55.5 17.5q-57 0 -106 -34z" />
    <glyph glyph-name="threequarters" unicode="&#xbe;" horiz-adv-x="802" 
d="M442 147l194 273h72v-267h56v-58h-56v-95h-66v95h-200v52zM515 153h127v180zM636 676l-371 -676h-66l371 676h66zM105 500l120 115h-185v61h266v-55l-120 -116q53 -2 89 -31.5t36 -87.5q0 -62 -42 -98t-112 -36t-119 29v64q58 -33 113 -33q41 0 64.5 19t23.5 53
q0 40 -24.5 55t-67.5 15q-24 0 -42 -3v49z" />
    <glyph glyph-name="questiondown" unicode="&#xbf;" horiz-adv-x="330" 
d="M222 475v-94h-95v94h95zM295 -96v-80q-48 -28 -125 -28q-78 0 -127.5 40.5t-49.5 119.5q0 38 14.5 72.5t27.5 51t38 42.5q26 27 36.5 39t18 30t7.5 41v52h80v-58q0 -37 -11 -66t-23 -44t-42 -47q-19 -20 -29 -33t-20.5 -35t-10.5 -44q0 -84 102 -84q65 0 114 31z" />
    <glyph glyph-name="Agrave" unicode="&#xc0;" horiz-adv-x="626" 
d="M272 676h85l269 -676h-96l-66 166h-311l-65 -166h-88zM309 565l-127 -323h254zM268 895l80 -151h-66l-108 151h94z" />
    <glyph glyph-name="Aacute" unicode="&#xc1;" horiz-adv-x="626" 
d="M272 676h85l269 -676h-96l-66 166h-311l-65 -166h-88zM309 565l-127 -323h254zM280 744l80 151h94l-108 -151h-66z" />
    <glyph glyph-name="Acircumflex" unicode="&#xc2;" horiz-adv-x="626" 
d="M272 676h85l269 -676h-96l-66 166h-311l-65 -166h-88zM309 565l-127 -323h254zM274 895h76l99 -151h-69l-68 90l-68 -90h-69z" />
    <glyph glyph-name="Atilde" unicode="&#xc3;" horiz-adv-x="626" 
d="M272 676h85l269 -676h-96l-66 166h-311l-65 -166h-88zM309 565l-127 -323h254zM376 755q-30 0 -70 29.5t-59 29.5q-29 0 -29 -57h-57q0 55 21 89.5t65 34.5q31 0 73 -29.5t56 -29.5q29 0 29 56h58q0 -54 -21.5 -88.5t-65.5 -34.5z" />
    <glyph glyph-name="Adieresis" unicode="&#xc4;" horiz-adv-x="626" 
d="M272 676h85l269 -676h-96l-66 166h-311l-65 -166h-88zM309 565l-127 -323h254zM264 868v-96h-76v96h76zM438 868v-96h-76v96h76z" />
    <glyph glyph-name="Aring" unicode="&#xc5;" horiz-adv-x="626" 
d="M272 676h85l269 -676h-96l-66 166h-311l-65 -166h-88zM309 565l-127 -323h254zM313 909q45 0 75.5 -24t30.5 -66t-30.5 -66t-75.5 -24t-75.5 24t-30.5 66t30.5 66t75.5 24zM313 865q-25 0 -39.5 -12t-14.5 -34t14.5 -34t39.5 -12t39.5 12t14.5 34t-14.5 34t-39.5 12z" />
    <glyph glyph-name="AE" unicode="&#xc6;" horiz-adv-x="900" 
d="M374 676h449v-77h-316v-212h288v-77h-288v-146q0 -45 21 -66t66 -21h244v-77h-257q-86 0 -124.5 41t-38.5 125h-256l-97 -166h-92zM207 242h211v357z" />
    <glyph glyph-name="Ccedilla" unicode="&#xc7;" horiz-adv-x="637" 
d="M57 338q0 158 92.5 255t250.5 97q105 0 173 -35v-79q-72 37 -168 37q-117 0 -185.5 -73.5t-68.5 -201.5t68.5 -201.5t185.5 -73.5q97 0 175 43v-80q-80 -40 -178 -40q-13 0 -39 2l-9 -37q73 -9 73 -83q0 -36 -27.5 -58t-75.5 -22q-35 0 -61 13v56q24 -14 57 -14
q41 0 41 30t-50 30h-35l28 94q-116 28 -181.5 118.5t-65.5 222.5z" />
    <glyph glyph-name="Egrave" unicode="&#xc8;" horiz-adv-x="581" 
d="M99 676h405v-77h-315v-212h287v-77h-287v-146q0 -45 20.5 -66t65.5 -21h244v-77h-256q-86 0 -125 41t-39 123v512zM262 895l80 -151h-66l-108 151h94z" />
    <glyph glyph-name="Eacute" unicode="&#xc9;" horiz-adv-x="581" 
d="M99 676h405v-77h-315v-212h287v-77h-287v-146q0 -45 20.5 -66t65.5 -21h244v-77h-256q-86 0 -125 41t-39 123v512zM265 744l80 151h94l-108 -151h-66z" />
    <glyph glyph-name="Ecircumflex" unicode="&#xca;" horiz-adv-x="581" 
d="M99 676h405v-77h-315v-212h287v-77h-287v-146q0 -45 20.5 -66t65.5 -21h244v-77h-256q-86 0 -125 41t-39 123v512zM264 895h76l99 -151h-69l-68 90l-68 -90h-69z" />
    <glyph glyph-name="Edieresis" unicode="&#xcb;" horiz-adv-x="581" 
d="M99 676h405v-77h-315v-212h287v-77h-287v-146q0 -45 20.5 -66t65.5 -21h244v-77h-256q-86 0 -125 41t-39 123v512zM253 868v-96h-76v96h76zM427 868v-96h-76v96h76z" />
    <glyph glyph-name="Igrave" unicode="&#xcc;" horiz-adv-x="305" 
d="M108 676h89v-676h-89v676zM106 895l80 -151h-66l-108 151h94z" />
    <glyph glyph-name="Iacute" unicode="&#xcd;" horiz-adv-x="305" 
d="M108 676h89v-676h-89v676zM121 744l80 151h94l-108 -151h-66z" />
    <glyph glyph-name="Icircumflex" unicode="&#xce;" horiz-adv-x="305" 
d="M108 676h89v-676h-89v676zM115 895h76l99 -151h-69l-68 90l-68 -90h-69z" />
    <glyph glyph-name="Idieresis" unicode="&#xcf;" horiz-adv-x="305" 
d="M108 676h89v-676h-89v676zM105 868v-96h-76v96h76zM279 868v-96h-76v96h76z" />
    <glyph glyph-name="Eth" unicode="&#xd0;" horiz-adv-x="748" 
d="M26 314v72h82v290h209q180 0 277 -88.5t97 -249.5t-96.5 -249.5t-277.5 -88.5h-209v314h-82zM197 599v-213h197v-72h-197v-237h120q134 0 207 64.5t73 196.5t-73 196.5t-207 64.5h-120z" />
    <glyph glyph-name="Ntilde" unicode="&#xd1;" horiz-adv-x="777" 
d="M108 676h80l396 -534v534h85v-676h-79l-396 533v-533h-86v676zM453 752q-31 0 -71 29.5t-58 29.5q-29 0 -29 -57h-57q0 55 21 89.5t65 34.5q31 0 73 -29.5t56 -29.5q29 0 29 56h58q0 -54 -21.5 -88.5t-65.5 -34.5z" />
    <glyph glyph-name="Ograve" unicode="&#xd2;" horiz-adv-x="814" 
d="M757 338q0 -160 -96 -256t-254 -96t-254 96t-96 256t96 256t254 96t254 -96t96 -256zM664 338q0 126 -68.5 200.5t-188.5 74.5t-188.5 -74.5t-68.5 -200.5t68.5 -200.5t188.5 -74.5t188.5 74.5t68.5 200.5zM367 895l80 -151h-66l-108 151h94z" />
    <glyph glyph-name="Oacute" unicode="&#xd3;" horiz-adv-x="814" 
d="M757 338q0 -160 -96 -256t-254 -96t-254 96t-96 256t96 256t254 96t254 -96t96 -256zM664 338q0 126 -68.5 200.5t-188.5 74.5t-188.5 -74.5t-68.5 -200.5t68.5 -200.5t188.5 -74.5t188.5 74.5t68.5 200.5zM372 744l80 151h94l-108 -151h-66z" />
    <glyph glyph-name="Ocircumflex" unicode="&#xd4;" horiz-adv-x="814" 
d="M757 338q0 -160 -96 -256t-254 -96t-254 96t-96 256t96 256t254 96t254 -96t96 -256zM664 338q0 126 -68.5 200.5t-188.5 74.5t-188.5 -74.5t-68.5 -200.5t68.5 -200.5t188.5 -74.5t188.5 74.5t68.5 200.5zM369 895h76l99 -151h-69l-68 90l-68 -90h-69z" />
    <glyph glyph-name="Otilde" unicode="&#xd5;" horiz-adv-x="814" 
d="M757 338q0 -160 -96 -256t-254 -96t-254 96t-96 256t96 256t254 96t254 -96t96 -256zM664 338q0 126 -68.5 200.5t-188.5 74.5t-188.5 -74.5t-68.5 -200.5t68.5 -200.5t188.5 -74.5t188.5 74.5t68.5 200.5zM472 756q-30 0 -70 29.5t-59 29.5q-29 0 -29 -57h-57
q0 55 21 89.5t65 34.5q31 0 73 -29.5t56 -29.5q29 0 29 56h58q0 -54 -21.5 -88.5t-65.5 -34.5z" />
    <glyph glyph-name="Odieresis" unicode="&#xd6;" horiz-adv-x="814" 
d="M757 338q0 -160 -96 -256t-254 -96t-254 96t-96 256t96 256t254 96t254 -96t96 -256zM664 338q0 126 -68.5 200.5t-188.5 74.5t-188.5 -74.5t-68.5 -200.5t68.5 -200.5t188.5 -74.5t188.5 74.5t68.5 200.5zM359 868v-96h-76v96h76zM533 868v-96h-76v96h76z" />
    <glyph glyph-name="multiply" unicode="&#xd7;" 
d="M466 538l47 -47l-178 -180l178 -179l-47 -47l-178 180l-178 -180l-46 47l178 179l-178 180l46 47l178 -180z" />
    <glyph glyph-name="Oslash" unicode="&#xd8;" horiz-adv-x="814" 
d="M757 338q0 -160 -96 -256t-254 -96q-114 0 -197 51l-65 -86l-45 35l65 85q-108 97 -108 267q0 160 96 256t254 96q111 0 196 -51l66 85l45 -34l-66 -84q109 -98 109 -268zM664 338q0 126 -68 200l-336 -436q62 -39 147 -39q120 0 188.5 74.5t68.5 200.5zM150 338
q0 -125 68 -199l334 435q-61 39 -145 39q-120 0 -188.5 -74.5t-68.5 -200.5z" />
    <glyph glyph-name="Ugrave" unicode="&#xd9;" horiz-adv-x="697" 
d="M91 676h89v-437q0 -88 46.5 -132t122.5 -44q77 0 123.5 44t46.5 132v437h87v-439q0 -120 -73 -185.5t-184 -65.5t-184.5 65.5t-73.5 185.5v439zM305 895l80 -151h-66l-108 151h94z" />
    <glyph glyph-name="Uacute" unicode="&#xda;" horiz-adv-x="697" 
d="M91 676h89v-437q0 -88 46.5 -132t122.5 -44q77 0 123.5 44t46.5 132v437h87v-439q0 -120 -73 -185.5t-184 -65.5t-184.5 65.5t-73.5 185.5v439zM313 744l80 151h94l-108 -151h-66z" />
    <glyph glyph-name="Ucircumflex" unicode="&#xdb;" horiz-adv-x="697" 
d="M91 676h89v-437q0 -88 46.5 -132t122.5 -44q77 0 123.5 44t46.5 132v437h87v-439q0 -120 -73 -185.5t-184 -65.5t-184.5 65.5t-73.5 185.5v439zM310 895h76l99 -151h-69l-68 90l-68 -90h-69z" />
    <glyph glyph-name="Udieresis" unicode="&#xdc;" horiz-adv-x="697" 
d="M91 676h89v-437q0 -88 46.5 -132t122.5 -44q77 0 123.5 44t46.5 132v437h87v-439q0 -120 -73 -185.5t-184 -65.5t-184.5 65.5t-73.5 185.5v439zM298 867v-96h-76v96h76zM472 867v-96h-76v96h76z" />
    <glyph glyph-name="Yacute" unicode="&#xdd;" horiz-adv-x="582" 
d="M0 676h98l197 -324l197 324h90l-248 -405v-271h-88v271zM257 744l80 151h94l-108 -151h-66z" />
    <glyph glyph-name="Thorn" unicode="&#xde;" horiz-adv-x="634" 
d="M108 676h89v-124h120q123 0 191 -55.5t68 -156.5q0 -103 -68 -157.5t-191 -54.5h-120v-128h-89v676zM197 475v-270h120q78 0 122 33.5t44 101.5t-44 101.5t-122 33.5h-120z" />
    <glyph glyph-name="germandbls" unicode="&#xdf;" horiz-adv-x="555" 
d="M167 0h-82v535q0 89 54.5 138.5t138.5 49.5q85 0 136 -45.5t51 -113.5q0 -37 -13.5 -69.5t-30.5 -51.5t-30.5 -41.5t-13.5 -41.5q0 -21 16 -39t38.5 -34t45 -34.5t38.5 -49t16 -69.5q0 -71 -46.5 -109.5t-117.5 -38.5q-67 0 -121 28v80q56 -33 121 -33q83 0 83 69
q0 27 -15 47.5t-37 35t-44 31t-37 44t-15 64.5q0 38 21 70l42 64t21 69q0 41 -29 67.5t-80 26.5q-48 0 -79 -27.5t-31 -83.5v-538z" />
    <glyph glyph-name="agrave" unicode="&#xe0;" horiz-adv-x="564" 
d="M479 0h-69l-6 52q-66 -66 -150 -66q-88 0 -147 64.5t-59 183.5q0 124 71 189.5t181 65.5q46 0 97 -11.5t82 -26.5v-451zM397 124v273q-46 17 -96 17q-74 0 -121.5 -42.5t-47.5 -133.5q0 -88 37 -132.5t99 -44.5q77 0 129 63zM244 710l80 -151h-66l-108 151h94z" />
    <glyph glyph-name="aacute" unicode="&#xe1;" horiz-adv-x="564" 
d="M479 0h-69l-6 52q-66 -66 -150 -66q-88 0 -147 64.5t-59 183.5q0 124 71 189.5t181 65.5q46 0 97 -11.5t82 -26.5v-451zM397 124v273q-46 17 -96 17q-74 0 -121.5 -42.5t-47.5 -133.5q0 -88 37 -132.5t99 -44.5q77 0 129 63zM234 559l80 151h94l-108 -151h-66z" />
    <glyph glyph-name="acircumflex" unicode="&#xe2;" horiz-adv-x="564" 
d="M479 0h-69l-6 52q-66 -66 -150 -66q-88 0 -147 64.5t-59 183.5q0 124 71 189.5t181 65.5q46 0 97 -11.5t82 -26.5v-451zM397 124v273q-46 17 -96 17q-74 0 -121.5 -42.5t-47.5 -133.5q0 -88 37 -132.5t99 -44.5q77 0 129 63zM233 710h76l99 -151h-69l-68 90l-68 -90h-69z
" />
    <glyph glyph-name="atilde" unicode="&#xe3;" horiz-adv-x="564" 
d="M479 0h-69l-6 52q-66 -66 -150 -66q-88 0 -147 64.5t-59 183.5q0 124 71 189.5t181 65.5q46 0 97 -11.5t82 -26.5v-451zM397 124v273q-46 17 -96 17q-74 0 -121.5 -42.5t-47.5 -133.5q0 -88 37 -132.5t99 -44.5q77 0 129 63zM337 571q-31 0 -71 29.5t-58 29.5
q-29 0 -29 -57h-57q0 55 21 89.5t65 34.5q31 0 73 -29.5t56 -29.5q29 0 29 56h58q0 -54 -21.5 -88.5t-65.5 -34.5z" />
    <glyph glyph-name="adieresis" unicode="&#xe4;" horiz-adv-x="564" 
d="M479 0h-69l-6 52q-66 -66 -150 -66q-88 0 -147 64.5t-59 183.5q0 124 71 189.5t181 65.5q46 0 97 -11.5t82 -26.5v-451zM397 124v273q-46 17 -96 17q-74 0 -121.5 -42.5t-47.5 -133.5q0 -88 37 -132.5t99 -44.5q77 0 129 63zM223 685v-96h-76v96h76zM397 685v-96h-76v96
h76z" />
    <glyph glyph-name="aring" unicode="&#xe5;" horiz-adv-x="564" 
d="M479 0h-69l-6 52q-66 -66 -150 -66q-88 0 -147 64.5t-59 183.5q0 124 71 189.5t181 65.5q46 0 97 -11.5t82 -26.5v-451zM397 124v273q-46 17 -96 17q-74 0 -121.5 -42.5t-47.5 -133.5q0 -88 37 -132.5t99 -44.5q77 0 129 63zM273 724q45 0 75.5 -24t30.5 -66t-30.5 -66
t-75.5 -24t-75.5 24t-30.5 66t30.5 66t75.5 24zM273 680q-25 0 -39.5 -12t-14.5 -34t14.5 -34t39.5 -12t39.5 12t14.5 34t-14.5 34t-39.5 12z" />
    <glyph glyph-name="ae" unicode="&#xe6;" horiz-adv-x="858" 
d="M812 208h-361q8 -77 55.5 -112t119.5 -35q93 0 171 43v-77q-76 -41 -177 -41q-123 0 -190 71q-37 -34 -77 -52.5t-99 -18.5q-88 0 -147 64.5t-59 183.5q0 124 71 189.5t181 65.5q94 0 170 -34q54 34 124 34q106 0 162 -66.5t56 -158.5v-56zM365 238q0 91 42 155
q-56 21 -106 21q-74 0 -121.5 -42.5t-47.5 -133.5q0 -88 37 -132.5t99 -44.5q71 0 121 55q-24 56 -24 122zM452 280h276q-1 59 -37.5 96.5t-97.5 37.5q-124 0 -141 -134z" />
    <glyph glyph-name="ccedilla" unicode="&#xe7;" horiz-adv-x="485" 
d="M422 464v-79q-55 29 -121 29q-78 0 -123 -44.5t-45 -131.5t45 -132t122 -45q68 0 128 38v-80q-58 -33 -138 -33h-6l-9 -35q73 -9 73 -83q0 -36 -27.5 -58t-75.5 -22q-35 0 -61 13v56q24 -14 57 -14q41 0 41 30t-50 30h-35l27 91q-82 19 -129 85t-47 159q0 114 67.5 182.5
t180.5 68.5q73 0 126 -25z" />
    <glyph glyph-name="egrave" unicode="&#xe8;" horiz-adv-x="541" 
d="M495 208h-361q7 -77 55 -112t120 -35q93 0 171 43v-77q-76 -41 -177 -41q-110 0 -182.5 62t-72.5 190q0 114 63 182.5t166 68.5q106 0 162 -66.5t56 -158.5v-56zM135 280h275q0 59 -36.5 96.5t-97.5 37.5q-124 0 -141 -134zM234 710l80 -151h-66l-108 151h94z" />
    <glyph glyph-name="eacute" unicode="&#xe9;" horiz-adv-x="541" 
d="M495 208h-361q7 -77 55 -112t120 -35q93 0 171 43v-77q-76 -41 -177 -41q-110 0 -182.5 62t-72.5 190q0 114 63 182.5t166 68.5q106 0 162 -66.5t56 -158.5v-56zM135 280h275q0 59 -36.5 96.5t-97.5 37.5q-124 0 -141 -134zM238 559l80 151h94l-108 -151h-66z" />
    <glyph glyph-name="ecircumflex" unicode="&#xea;" horiz-adv-x="541" 
d="M495 208h-361q7 -77 55 -112t120 -35q93 0 171 43v-77q-76 -41 -177 -41q-110 0 -182.5 62t-72.5 190q0 114 63 182.5t166 68.5q106 0 162 -66.5t56 -158.5v-56zM135 280h275q0 59 -36.5 96.5t-97.5 37.5q-124 0 -141 -134zM235 710h76l99 -151h-69l-68 90l-68 -90h-69z
" />
    <glyph glyph-name="edieresis" unicode="&#xeb;" horiz-adv-x="541" 
d="M495 208h-361q7 -77 55 -112t120 -35q93 0 171 43v-77q-76 -41 -177 -41q-110 0 -182.5 62t-72.5 190q0 114 63 182.5t166 68.5q106 0 162 -66.5t56 -158.5v-56zM135 280h275q0 59 -36.5 96.5t-97.5 37.5q-124 0 -141 -134zM224 685v-96h-76v96h76zM398 685v-96h-76v96
h76z" />
    <glyph glyph-name="igrave" unicode="&#xec;" horiz-adv-x="252" 
d="M82 710l80 -151h-66l-108 151h94zM167 475v-475h-82v475h82z" />
    <glyph glyph-name="iacute" unicode="&#xed;" horiz-adv-x="252" 
d="M91 559l80 151h94l-108 -151h-66zM167 475v-475h-82v475h82z" />
    <glyph glyph-name="icircumflex" unicode="&#xee;" horiz-adv-x="252" 
d="M167 475v-475h-82v475h82zM88 710h76l99 -151h-69l-68 90l-68 -90h-69z" />
    <glyph glyph-name="idieresis" unicode="&#xef;" horiz-adv-x="252" 
d="M78 685v-96h-76v96h76zM252 685v-96h-76v96h76zM167 475v-475h-82v475h82z" />
    <glyph glyph-name="eth" unicode="&#xf0;" horiz-adv-x="586" 
d="M330 710h75q15 -23 34 -58l113 20v-51l-91 -16q76 -161 76 -315q0 -140 -59.5 -222t-184.5 -82q-109 0 -177 68.5t-68 182.5q0 113 66.5 182.5t172.5 69.5q107 0 163 -71q-14 78 -61 174l-216 -37v51l196 34q-17 34 -39 70zM454 239q0 84 -43.5 129.5t-116.5 45.5
t-117 -47t-44 -130t44 -129.5t117 -46.5q72 0 116 47.5t44 130.5z" />
    <glyph glyph-name="ntilde" unicode="&#xf1;" horiz-adv-x="574" 
d="M85 475h74l5 -43q71 57 155 57q77 0 126.5 -47.5t49.5 -135.5v-306h-82v300q0 55 -31.5 82.5t-80.5 27.5q-75 0 -134 -51v-359h-82v475zM349 571q-31 0 -71 29.5t-58 29.5q-29 0 -29 -57h-57q0 55 21 89.5t65 34.5q31 0 73 -29.5t56 -29.5q29 0 29 56h58
q0 -54 -21.5 -88.5t-65.5 -34.5z" />
    <glyph glyph-name="ograve" unicode="&#xf2;" horiz-adv-x="586" 
d="M538 237q0 -115 -67.5 -183t-177.5 -68q-109 0 -177 68.5t-68 182.5t68 183t177 69q110 0 177.5 -68.5t67.5 -183.5zM454 237q0 83 -44 130t-117 47q-72 0 -116 -47t-44 -130t43.5 -129.5t116.5 -46.5t117 46.5t44 129.5zM250 710l80 -151h-66l-108 151h94z" />
    <glyph glyph-name="oacute" unicode="&#xf3;" horiz-adv-x="586" 
d="M538 237q0 -115 -67.5 -183t-177.5 -68q-109 0 -177 68.5t-68 182.5t68 183t177 69q110 0 177.5 -68.5t67.5 -183.5zM454 237q0 83 -44 130t-117 47q-72 0 -116 -47t-44 -130t43.5 -129.5t116.5 -46.5t117 46.5t44 129.5zM256 559l80 151h94l-108 -151h-66z" />
    <glyph glyph-name="ocircumflex" unicode="&#xf4;" horiz-adv-x="586" 
d="M538 237q0 -115 -67.5 -183t-177.5 -68q-109 0 -177 68.5t-68 182.5t68 183t177 69q110 0 177.5 -68.5t67.5 -183.5zM454 237q0 83 -44 130t-117 47q-72 0 -116 -47t-44 -130t43.5 -129.5t116.5 -46.5t117 46.5t44 129.5zM254 710h76l99 -151h-69l-68 90l-68 -90h-69z
" />
    <glyph glyph-name="otilde" unicode="&#xf5;" horiz-adv-x="586" 
d="M538 237q0 -115 -67.5 -183t-177.5 -68q-109 0 -177 68.5t-68 182.5t68 183t177 69q110 0 177.5 -68.5t67.5 -183.5zM454 237q0 83 -44 130t-117 47q-72 0 -116 -47t-44 -130t43.5 -129.5t116.5 -46.5t117 46.5t44 129.5zM358 571q-30 0 -70 29.5t-59 29.5q-29 0 -29 -57
h-57q0 55 21 89.5t65 34.5q31 0 73 -29.5t56 -29.5q29 0 29 56h58q0 -54 -21.5 -88.5t-65.5 -34.5z" />
    <glyph glyph-name="odieresis" unicode="&#xf6;" horiz-adv-x="586" 
d="M538 237q0 -115 -67.5 -183t-177.5 -68q-109 0 -177 68.5t-68 182.5t68 183t177 69q110 0 177.5 -68.5t67.5 -183.5zM454 237q0 83 -44 130t-117 47q-72 0 -116 -47t-44 -130t43.5 -129.5t116.5 -46.5t117 46.5t44 129.5zM244 685v-96h-76v96h76zM418 685v-96h-76v96h76z
" />
    <glyph glyph-name="divide" unicode="&#xf7;" 
d="M522 344v-66h-466v66h466zM244 75v88h90v-88h-90zM244 459v88h90v-88h-90z" />
    <glyph glyph-name="oslash" unicode="&#xf8;" horiz-adv-x="586" 
d="M538 237q0 -115 -67.5 -183t-177.5 -68q-71 0 -130 32l-49 -66l-40 31l48 65q-74 71 -74 189q0 114 68 183t177 69q73 0 130 -33l53 71l40 -30l-53 -70q75 -70 75 -190zM454 237q0 75 -39 124l-206 -280q37 -20 84 -20q73 0 117 46.5t44 129.5zM133 237q0 -79 38 -123
l206 279q-39 21 -84 21q-72 0 -116 -47t-44 -130z" />
    <glyph glyph-name="ugrave" unicode="&#xf9;" horiz-adv-x="556" 
d="M246 -14q-78 0 -124.5 48t-46.5 140v301h82v-298q0 -58 27.5 -87t77.5 -29q71 0 126 65v349h83v-475h-70l-5 52q-66 -66 -150 -66zM238 710l80 -151h-66l-108 151h94z" />
    <glyph glyph-name="uacute" unicode="&#xfa;" horiz-adv-x="556" 
d="M246 -14q-78 0 -124.5 48t-46.5 140v301h82v-298q0 -58 27.5 -87t77.5 -29q71 0 126 65v349h83v-475h-70l-5 52q-66 -66 -150 -66zM237 559l80 151h94l-108 -151h-66z" />
    <glyph glyph-name="ucircumflex" unicode="&#xfb;" horiz-adv-x="556" 
d="M246 -14q-78 0 -124.5 48t-46.5 140v301h82v-298q0 -58 27.5 -87t77.5 -29q71 0 126 65v349h83v-475h-70l-5 52q-66 -66 -150 -66zM237 710h76l99 -151h-69l-68 90l-68 -90h-69z" />
    <glyph glyph-name="udieresis" unicode="&#xfc;" horiz-adv-x="556" 
d="M246 -14q-78 0 -124.5 48t-46.5 140v301h82v-298q0 -58 27.5 -87t77.5 -29q71 0 126 65v349h83v-475h-70l-5 52q-66 -66 -150 -66zM226 685v-96h-76v96h76zM400 685v-96h-76v96h76z" />
    <glyph glyph-name="yacute" unicode="&#xfd;" horiz-adv-x="556" 
d="M247 -9q-78 0 -125 48t-47 140v296h83v-293q0 -114 104 -114q74 0 127 63v344h82v-465q0 -103 -59 -158t-153 -55q-91 0 -161 36v82q70 -45 155 -45q61 0 98.5 33.5t37.5 104.5v41q-65 -58 -142 -58zM238 559l80 151h94l-108 -151h-66z" />
    <glyph glyph-name="thorn" unicode="&#xfe;" horiz-adv-x="562" 
d="M85 710h80v-276q59 55 144 55q86 0 145.5 -64t59.5 -185t-66 -187.5t-168 -66.5q-69 0 -115 23v-199h-80v900zM165 362v-276q49 -25 108 -25q68 0 112.5 45t44.5 134q0 87 -38.5 130.5t-99.5 43.5q-35 0 -70 -16t-57 -36z" />
    <glyph glyph-name="ydieresis" unicode="&#xff;" horiz-adv-x="556" 
d="M247 -9q-78 0 -125 48t-47 140v296h83v-293q0 -114 104 -114q74 0 127 63v344h82v-465q0 -103 -59 -158t-153 -55q-91 0 -161 36v82q70 -45 155 -45q61 0 98.5 33.5t37.5 104.5v41q-65 -58 -142 -58zM227 685v-96h-76v96h76zM401 685v-96h-76v96h76z" />
    <glyph glyph-name="Amacron" unicode="&#x100;" horiz-adv-x="626" 
d="M272 676h85l269 -676h-96l-66 166h-311l-65 -166h-88zM309 565l-127 -323h254zM440 852v-63h-254v63h254z" />
    <glyph glyph-name="amacron" unicode="&#x101;" horiz-adv-x="564" 
d="M479 0h-69l-6 52q-66 -66 -150 -66q-88 0 -147 64.5t-59 183.5q0 124 71 189.5t181 65.5q46 0 97 -11.5t82 -26.5v-451zM397 124v273q-46 17 -96 17q-74 0 -121.5 -42.5t-47.5 -133.5q0 -88 37 -132.5t99 -44.5q77 0 129 63zM409 666v-63h-254v63h254z" />
    <glyph glyph-name="Abreve" unicode="&#x102;" horiz-adv-x="626" 
d="M272 676h85l269 -676h-96l-66 166h-311l-65 -166h-88zM309 565l-127 -323h254zM170 890h56q11 -79 87 -79t87 79h56q-4 -66 -41.5 -105t-101.5 -39t-101.5 39t-41.5 105z" />
    <glyph glyph-name="abreve" unicode="&#x103;" horiz-adv-x="564" 
d="M479 0h-69l-6 52q-66 -66 -150 -66q-88 0 -147 64.5t-59 183.5q0 124 71 189.5t181 65.5q46 0 97 -11.5t82 -26.5v-451zM397 124v273q-46 17 -96 17q-74 0 -121.5 -42.5t-47.5 -133.5q0 -88 37 -132.5t99 -44.5q77 0 129 63zM139 705h56q11 -79 87 -79t87 79h56
q-4 -66 -41.5 -105t-101.5 -39t-101.5 39t-41.5 105z" />
    <glyph glyph-name="Aogonek" unicode="&#x104;" horiz-adv-x="626" 
d="M557 0h-27l-66 166h-311l-65 -166h-88l272 676h85l269 -676q-68 -57 -68 -106q0 -21 12.5 -32.5t32.5 -11.5q29 0 57 18v-61q-29 -17 -70 -17q-44 0 -69.5 25t-25.5 69q0 75 62 116zM309 565l-127 -323h254z" />
    <glyph glyph-name="aogonek" unicode="&#x105;" horiz-adv-x="564" 
d="M410 0l-6 52q-66 -66 -150 -66q-88 0 -147 64.5t-59 183.5q0 124 71 189.5t181 65.5q46 0 97 -11.5t82 -26.5v-451q-68 -57 -68 -106q0 -21 12.5 -32.5t32.5 -11.5q29 0 57 18v-61q-29 -17 -70 -17q-44 0 -69.5 25t-25.5 69q0 75 62 116zM397 124v273q-46 17 -96 17
q-74 0 -121.5 -42.5t-47.5 -133.5q0 -88 37 -132.5t99 -44.5q77 0 129 63z" />
    <glyph glyph-name="Cacute" unicode="&#x106;" horiz-adv-x="637" 
d="M57 338q0 158 92.5 255t250.5 97q105 0 173 -35v-79q-72 37 -168 37q-117 0 -185.5 -73.5t-68.5 -201.5t68.5 -201.5t185.5 -73.5q97 0 175 43v-80q-80 -40 -178 -40q-159 0 -252 96.5t-93 255.5zM328 744l80 151h94l-108 -151h-66z" />
    <glyph glyph-name="cacute" unicode="&#x107;" horiz-adv-x="485" 
d="M422 464v-79q-55 29 -121 29q-78 0 -123 -44.5t-45 -131.5t45 -132t122 -45q68 0 128 38v-80q-58 -33 -138 -33q-110 0 -176 70t-66 182q0 114 67.5 182.5t180.5 68.5q73 0 126 -25zM214 559l80 151h94l-108 -151h-66z" />
    <glyph glyph-name="Ccircumflex" unicode="&#x108;" horiz-adv-x="637" 
d="M57 338q0 158 92.5 255t250.5 97q105 0 173 -35v-79q-72 37 -168 37q-117 0 -185.5 -73.5t-68.5 -201.5t68.5 -201.5t185.5 -73.5q97 0 175 43v-80q-80 -40 -178 -40q-159 0 -252 96.5t-93 255.5zM319 895h76l99 -151h-69l-68 90l-68 -90h-69z" />
    <glyph glyph-name="ccircumflex" unicode="&#x109;" horiz-adv-x="485" 
d="M422 464v-79q-55 29 -121 29q-78 0 -123 -44.5t-45 -131.5t45 -132t122 -45q68 0 128 38v-80q-58 -33 -138 -33q-110 0 -176 70t-66 182q0 114 67.5 182.5t180.5 68.5q73 0 126 -25zM227 710h76l99 -151h-69l-68 90l-68 -90h-69z" />
    <glyph glyph-name="Cdotaccent" unicode="&#x10a;" horiz-adv-x="637" 
d="M57 338q0 158 92.5 255t250.5 97q105 0 173 -35v-79q-72 37 -168 37q-117 0 -185.5 -73.5t-68.5 -201.5t68.5 -201.5t185.5 -73.5q97 0 175 43v-80q-80 -40 -178 -40q-159 0 -252 96.5t-93 255.5zM316 868h79v-96h-79v96z" />
    <glyph glyph-name="cdotaccent" unicode="&#x10b;" horiz-adv-x="485" 
d="M422 464v-79q-55 29 -121 29q-78 0 -123 -44.5t-45 -131.5t45 -132t122 -45q68 0 128 38v-80q-58 -33 -138 -33q-110 0 -176 70t-66 182q0 114 67.5 182.5t180.5 68.5q73 0 126 -25zM226 685h79v-96h-79v96z" />
    <glyph glyph-name="Ccaron" unicode="&#x10c;" horiz-adv-x="637" 
d="M57 338q0 158 92.5 255t250.5 97q105 0 173 -35v-79q-72 37 -168 37q-117 0 -185.5 -73.5t-68.5 -201.5t68.5 -201.5t185.5 -73.5q97 0 175 43v-80q-80 -40 -178 -40q-159 0 -252 96.5t-93 255.5zM395 744h-76l-99 151h69l68 -90l68 90h69z" />
    <glyph glyph-name="ccaron" unicode="&#x10d;" horiz-adv-x="485" 
d="M422 464v-79q-55 29 -121 29q-78 0 -123 -44.5t-45 -131.5t45 -132t122 -45q68 0 128 38v-80q-58 -33 -138 -33q-110 0 -176 70t-66 182q0 114 67.5 182.5t180.5 68.5q73 0 126 -25zM303 559h-76l-99 151h69l68 -90l68 90h69z" />
    <glyph glyph-name="Dcaron" unicode="&#x10e;" horiz-adv-x="748" 
d="M197 599v-522h120q134 0 207 64.5t73 196.5t-73 196.5t-207 64.5h-120zM108 676h209q180 0 277 -88.5t97 -249.5t-96.5 -249.5t-277.5 -88.5h-209v676zM412 744h-76l-99 151h69l68 -90l68 90h69z" />
    <glyph glyph-name="dcaron" unicode="&#x10f;" horiz-adv-x="627" 
d="M620 710q7 -24 7 -60q0 -96 -80 -149l-30 45q47 36 47 101q0 32 -10 63h66zM479 0h-69l-6 52q-66 -66 -149 -66q-88 0 -147.5 64.5t-59.5 183.5q0 124 71 189.5t182 65.5q49 0 96 -13v234h82v-710zM397 124v274q-44 16 -96 16q-74 0 -121.5 -42.5t-47.5 -133.5
q0 -88 37 -132.5t99 -44.5q77 0 129 63z" />
    <glyph glyph-name="Dcroat" unicode="&#x110;" horiz-adv-x="748" 
d="M26 314v72h82v290h209q180 0 277 -88.5t97 -249.5t-96.5 -249.5t-277.5 -88.5h-209v314h-82zM197 599v-213h197v-72h-197v-237h120q134 0 207 64.5t73 196.5t-73 196.5t-207 64.5h-120z" />
    <glyph glyph-name="dcroat" unicode="&#x111;" horiz-adv-x="564" 
d="M480 0h-69l-6 52q-66 -66 -149 -66q-88 0 -147.5 64.5t-59.5 183.5q0 124 71 189.5t182 65.5q49 0 96 -13v101h-192v55h192v78h82v-78h74v-55h-74v-577zM398 124v274q-44 16 -96 16q-74 0 -121.5 -42.5t-47.5 -133.5q0 -88 37 -132.5t99 -44.5q77 0 129 63z" />
    <glyph glyph-name="Emacron" unicode="&#x112;" horiz-adv-x="581" 
d="M99 676h405v-77h-315v-212h287v-77h-287v-146q0 -45 20.5 -66t65.5 -21h244v-77h-256q-86 0 -125 41t-39 123v512zM429 852v-63h-254v63h254z" />
    <glyph glyph-name="emacron" unicode="&#x113;" horiz-adv-x="541" 
d="M495 208h-361q7 -77 55 -112t120 -35q93 0 171 43v-77q-76 -41 -177 -41q-110 0 -182.5 62t-72.5 190q0 114 63 182.5t166 68.5q106 0 162 -66.5t56 -158.5v-56zM135 280h275q0 59 -36.5 96.5t-97.5 37.5q-124 0 -141 -134zM399 666v-63h-254v63h254z" />
    <glyph glyph-name="Ebreve" unicode="&#x114;" horiz-adv-x="581" 
d="M99 676h405v-77h-315v-212h287v-77h-287v-146q0 -45 20.5 -66t65.5 -21h244v-77h-256q-86 0 -125 41t-39 123v512zM159 891h56q11 -79 87 -79t87 79h56q-4 -66 -41.5 -105t-101.5 -39t-101.5 39t-41.5 105z" />
    <glyph glyph-name="ebreve" unicode="&#x115;" horiz-adv-x="541" 
d="M495 208h-361q7 -77 55 -112t120 -35q93 0 171 43v-77q-76 -41 -177 -41q-110 0 -182.5 62t-72.5 190q0 114 63 182.5t166 68.5q106 0 162 -66.5t56 -158.5v-56zM135 280h275q0 59 -36.5 96.5t-97.5 37.5q-124 0 -141 -134zM129 705h56q11 -79 87 -79t87 79h56
q-4 -66 -41.5 -105t-101.5 -39t-101.5 39t-41.5 105z" />
    <glyph glyph-name="Edotaccent" unicode="&#x116;" horiz-adv-x="581" 
d="M99 676h405v-77h-315v-212h287v-77h-287v-146q0 -45 20.5 -66t65.5 -21h244v-77h-256q-86 0 -125 41t-39 123v512zM263 868h79v-96h-79v96z" />
    <glyph glyph-name="edotaccent" unicode="&#x117;" horiz-adv-x="541" 
d="M495 208h-361q7 -77 55 -112t120 -35q93 0 171 43v-77q-76 -41 -177 -41q-110 0 -182.5 62t-72.5 190q0 114 63 182.5t166 68.5q106 0 162 -66.5t56 -158.5v-56zM135 280h275q0 59 -36.5 96.5t-97.5 37.5q-124 0 -141 -134zM234 685h79v-96h-79v96z" />
    <glyph glyph-name="Eogonek" unicode="&#x118;" horiz-adv-x="581" 
d="M417 0h-154q-86 0 -125 41t-39 123v512h405v-77h-315v-212h287v-77h-287v-146q0 -45 20.5 -66t65.5 -21h244v-77h-34q-68 -57 -68 -106q0 -21 12.5 -32.5t32.5 -11.5q29 0 57 18v-61q-29 -17 -70 -17q-44 0 -69.5 25t-25.5 69q0 74 63 116z" />
    <glyph glyph-name="eogonek" unicode="&#x119;" horiz-adv-x="541" 
d="M495 208h-361q7 -77 55 -112t120 -35q93 0 171 43v-77q-30 -16 -70 -27q-68 -57 -68 -106q0 -21 12.5 -32.5t32.5 -11.5q29 0 57 18v-61q-29 -17 -70 -17q-44 0 -69.5 25t-25.5 69q0 62 44 103q-7 -1 -20 -1q-110 0 -182.5 62t-72.5 190q0 114 63 182.5t166 68.5
q106 0 162 -66.5t56 -158.5v-56zM135 280h275q0 59 -36.5 96.5t-97.5 37.5q-124 0 -141 -134z" />
    <glyph glyph-name="Ecaron" unicode="&#x11a;" horiz-adv-x="581" 
d="M99 676h405v-77h-315v-212h287v-77h-287v-146q0 -45 20.5 -66t65.5 -21h244v-77h-256q-86 0 -125 41t-39 123v512zM340 744h-76l-99 151h69l68 -90l68 90h69z" />
    <glyph glyph-name="ecaron" unicode="&#x11b;" horiz-adv-x="541" 
d="M495 208h-361q7 -77 55 -112t120 -35q93 0 171 43v-77q-76 -41 -177 -41q-110 0 -182.5 62t-72.5 190q0 114 63 182.5t166 68.5q106 0 162 -66.5t56 -158.5v-56zM135 280h275q0 59 -36.5 96.5t-97.5 37.5q-124 0 -141 -134zM310 559h-76l-99 151h69l68 -90l68 90h69z" />
    <glyph glyph-name="Gcircumflex" unicode="&#x11c;" horiz-adv-x="795" 
d="M403 366h296v-296q-129 -84 -290 -84q-157 0 -254.5 93.5t-97.5 258.5q0 91 31.5 160.5t85 110.5t118.5 61t139 20q137 0 251 -61v-81q-114 65 -250 65q-57 0 -105.5 -15t-89.5 -46t-64 -85.5t-23 -128.5q0 -130 72 -202.5t189 -72.5t204 48v180h-212v75zM359 895h76
l99 -151h-69l-68 90l-68 -90h-69z" />
    <glyph glyph-name="gcircumflex" unicode="&#x11d;" horiz-adv-x="564" 
d="M479 451v-443q0 -103 -64 -157.5t-164 -54.5q-95 0 -171 43v83q77 -52 169 -52q67 0 108 33.5t41 104.5v49q-60 -57 -143 -57q-90 0 -148.5 58t-58.5 176q0 124 71 189.5t182 65.5q46 0 97 -11.5t81 -26.5zM398 397q-46 17 -96 17q-74 0 -121.5 -42.5t-47.5 -133.5
q0 -163 136 -163q77 0 129 63v259zM235 710h76l99 -151h-69l-68 90l-68 -90h-69z" />
    <glyph glyph-name="Gbreve" unicode="&#x11e;" horiz-adv-x="795" 
d="M403 366h296v-296q-129 -84 -290 -84q-157 0 -254.5 93.5t-97.5 258.5q0 91 31.5 160.5t85 110.5t118.5 61t139 20q137 0 251 -61v-81q-114 65 -250 65q-57 0 -105.5 -15t-89.5 -46t-64 -85.5t-23 -128.5q0 -130 72 -202.5t189 -72.5t204 48v180h-212v75zM254 891h56
q11 -79 87 -79t87 79h56q-4 -66 -41.5 -105t-101.5 -39t-101.5 39t-41.5 105z" />
    <glyph glyph-name="gbreve" unicode="&#x11f;" horiz-adv-x="564" 
d="M479 451v-443q0 -103 -64 -157.5t-164 -54.5q-95 0 -171 43v83q77 -52 169 -52q67 0 108 33.5t41 104.5v49q-60 -57 -143 -57q-90 0 -148.5 58t-58.5 176q0 124 71 189.5t182 65.5q46 0 97 -11.5t81 -26.5zM398 397q-46 17 -96 17q-74 0 -121.5 -42.5t-47.5 -133.5
q0 -163 136 -163q77 0 129 63v259zM130 705h56q11 -79 87 -79t87 79h56q-4 -66 -41.5 -105t-101.5 -39t-101.5 39t-41.5 105z" />
    <glyph glyph-name="Gdotaccent" unicode="&#x120;" horiz-adv-x="795" 
d="M403 366h296v-296q-129 -84 -290 -84q-157 0 -254.5 93.5t-97.5 258.5q0 91 31.5 160.5t85 110.5t118.5 61t139 20q137 0 251 -61v-81q-114 65 -250 65q-57 0 -105.5 -15t-89.5 -46t-64 -85.5t-23 -128.5q0 -130 72 -202.5t189 -72.5t204 48v180h-212v75zM357 868h79v-96
h-79v96z" />
    <glyph glyph-name="gdotaccent" unicode="&#x121;" horiz-adv-x="564" 
d="M479 451v-443q0 -103 -64 -157.5t-164 -54.5q-95 0 -171 43v83q77 -52 169 -52q67 0 108 33.5t41 104.5v49q-60 -57 -143 -57q-90 0 -148.5 58t-58.5 176q0 124 71 189.5t182 65.5q46 0 97 -11.5t81 -26.5zM398 397q-46 17 -96 17q-74 0 -121.5 -42.5t-47.5 -133.5
q0 -163 136 -163q77 0 129 63v259zM234 685h79v-96h-79v96z" />
    <glyph glyph-name="Gcommaaccent" unicode="&#x122;" horiz-adv-x="795" 
d="M403 366h296v-296q-129 -84 -290 -84q-157 0 -254.5 93.5t-97.5 258.5q0 91 31.5 160.5t85 110.5t118.5 61t139 20q137 0 251 -61v-81q-114 65 -250 65q-57 0 -105.5 -15t-89.5 -46t-64 -85.5t-23 -128.5q0 -130 72 -202.5t189 -72.5t204 48v180h-212v75zM368 -61h74
q9 -27 9 -50q0 -91 -100 -133l-25 54q53 29 53 79q0 23 -11 50z" />
    <glyph glyph-name="gcommaaccent" unicode="&#x123;" horiz-adv-x="564" 
d="M479 451v-443q0 -103 -64 -157.5t-164 -54.5q-95 0 -171 43v83q77 -52 169 -52q67 0 108 33.5t41 104.5v49q-60 -57 -143 -57q-90 0 -148.5 58t-58.5 176q0 124 71 189.5t182 65.5q46 0 97 -11.5t81 -26.5zM398 397q-46 17 -96 17q-74 0 -121.5 -42.5t-47.5 -133.5
q0 -163 136 -163q77 0 129 63v259zM313 556h-74q-9 27 -9 50q0 91 100 133l25 -54q-53 -29 -53 -79q0 -22 11 -50z" />
    <glyph glyph-name="Hcircumflex" unicode="&#x124;" horiz-adv-x="784" 
d="M108 676h89v-288h389v288h90v-676h-90v311h-389v-311h-89v676zM354 895h76l99 -151h-69l-68 90l-68 -90h-69z" />
    <glyph glyph-name="hcircumflex" unicode="&#x125;" horiz-adv-x="574" 
d="M85 710h82v-276q69 55 152 55q77 0 126.5 -47.5t49.5 -135.5v-306h-82v300q0 55 -31.5 82.5t-80.5 27.5q-75 0 -134 -51v-359h-82v710zM87 895h76l99 -151h-69l-68 90l-68 -90h-69z" />
    <glyph glyph-name="Hbar" unicode="&#x126;" horiz-adv-x="784" 
d="M108 676h89v-113h389v113h90v-113h82v-56h-82v-507h-90v311h-389v-311h-89v507h-82v56h82v113zM197 388h389v119h-389v-119z" />
    <glyph glyph-name="hbar" unicode="&#x127;" horiz-adv-x="574" 
d="M167 577v-143q69 55 152 55q77 0 126.5 -47.5t49.5 -135.5v-306h-82v300q0 55 -31.5 82.5t-80.5 27.5q-75 0 -134 -51v-359h-82v577h-77v55h77v78h82v-78h191v-55h-191z" />
    <glyph glyph-name="Itilde" unicode="&#x128;" horiz-adv-x="305" 
d="M108 676h89v-676h-89v676zM217 757q-30 0 -70 29.5t-59 29.5q-29 0 -29 -57h-57q0 55 21 89.5t65 34.5q31 0 73 -29.5t56 -29.5q29 0 29 56h58q0 -54 -21.5 -88.5t-65.5 -34.5z" />
    <glyph glyph-name="itilde" unicode="&#x129;" horiz-adv-x="252" 
d="M167 475v-475h-82v475h82zM191 571q-31 0 -71 29.5t-58 29.5q-29 0 -29 -57h-57q0 55 21 89.5t65 34.5q31 0 73 -29.5t56 -29.5q29 0 29 56h58q0 -54 -21.5 -88.5t-65.5 -34.5z" />
    <glyph glyph-name="Imacron" unicode="&#x12a;" horiz-adv-x="305" 
d="M108 676h89v-676h-89v676zM280 852v-63h-254v63h254z" />
    <glyph glyph-name="imacron" unicode="&#x12b;" horiz-adv-x="252" 
d="M167 475v-475h-82v475h82zM253 666v-63h-254v63h254z" />
    <glyph glyph-name="Ibreve" unicode="&#x12c;" horiz-adv-x="305" 
d="M108 676h89v-676h-89v676zM10 891h56q11 -79 87 -79t87 79h56q-4 -66 -41.5 -105t-101.5 -39t-101.5 39t-41.5 105z" />
    <glyph glyph-name="ibreve" unicode="&#x12d;" horiz-adv-x="252" 
d="M167 475v-475h-82v475h82zM-17 705h56q11 -79 87 -79t87 79h56q-4 -66 -41.5 -105t-101.5 -39t-101.5 39t-41.5 105z" />
    <glyph glyph-name="Iogonek" unicode="&#x12e;" horiz-adv-x="305" 
d="M128 0h-20v676h89v-676q-68 -57 -68 -106q0 -21 12.5 -32.5t32.5 -11.5q29 0 57 18v-61q-29 -17 -70 -17q-44 0 -69.5 25t-25.5 69q0 75 62 116z" />
    <glyph glyph-name="iogonek" unicode="&#x12f;" horiz-adv-x="252" 
d="M98 0h-13v475h82v-475q-68 -57 -68 -106q0 -21 12.5 -32.5t32.5 -11.5q29 0 57 18v-61q-29 -17 -70 -17q-44 0 -69.5 25t-25.5 69q0 75 62 116zM167 682v-99h-82v99h82z" />
    <glyph glyph-name="Idotaccent" unicode="&#x130;" horiz-adv-x="305" 
d="M108 676h89v-676h-89v676zM113 868h79v-96h-79v96z" />
    <glyph glyph-name="dotlessi" unicode="&#x131;" horiz-adv-x="252" 
d="M167 475v-475h-82v475h82z" />
    <glyph glyph-name="Jcircumflex" unicode="&#x134;" horiz-adv-x="389" 
d="M201 676h89v-503q0 -94 -43.5 -140.5t-124.5 -46.5q-56 0 -102 20v79q42 -22 94 -22q47 0 67 25t20 83v505zM208 895h76l99 -151h-69l-68 90l-68 -90h-69z" />
    <glyph glyph-name="jcircumflex" unicode="&#x135;" horiz-adv-x="252" 
d="M85 475h82v-543q0 -136 -112 -136q-36 0 -69 15v76q30 -15 54 -15q45 0 45 51v552zM88 710h76l99 -151h-69l-68 90l-68 -90h-69z" />
    <glyph glyph-name="Kcommaaccent" unicode="&#x136;" horiz-adv-x="622" 
d="M108 676h89v-299l309 299h106l-331 -323l341 -353h-117l-308 315v-315h-89v676zM319 -61h74q9 -27 9 -50q0 -91 -100 -133l-25 54q53 29 53 79q0 23 -11 50z" />
    <glyph glyph-name="kcommaaccent" unicode="&#x137;" horiz-adv-x="502" 
d="M495 475l-250 -214l255 -261h-109l-224 226v-226h-82v710h82v-424l220 189h108zM252 -61h74q9 -27 9 -50q0 -91 -100 -133l-25 54q53 29 53 79q0 23 -11 50z" />
    <glyph glyph-name="Lacute" unicode="&#x139;" horiz-adv-x="517" 
d="M100 676h90v-512q0 -45 20 -66t66 -21h222v-77h-235q-85 0 -124 41.5t-39 122.5v512zM112 744l80 151h94l-108 -151h-66z" />
    <glyph glyph-name="lacute" unicode="&#x13a;" horiz-adv-x="287" 
d="M80 710h82v-596q0 -53 41 -53q32 0 59 15v-77q-29 -13 -71 -13q-111 0 -111 136v588zM89 744l80 151h94l-108 -151h-66z" />
    <glyph glyph-name="Lcommaaccent" unicode="&#x13b;" horiz-adv-x="517" 
d="M100 676h90v-512q0 -45 20 -66t66 -21h222v-77h-235q-85 0 -124 41.5t-39 122.5v512zM282 -61h74q9 -27 9 -50q0 -91 -100 -133l-25 54q53 29 53 79q0 23 -11 50z" />
    <glyph glyph-name="lcommaaccent" unicode="&#x13c;" horiz-adv-x="287" 
d="M80 710h82v-596q0 -53 41 -53q32 0 59 15v-77q-29 -13 -71 -13q-111 0 -111 136v588zM141 -61h74q9 -27 9 -50q0 -91 -100 -133l-25 54q53 29 53 79q0 23 -11 50z" />
    <glyph glyph-name="Lcaron" unicode="&#x13d;" horiz-adv-x="517" 
d="M412 676q8 -29 8 -62q0 -98 -85 -155l-32 47q49 37 49 105q0 29 -11 65h71zM100 676h90v-512q0 -45 20 -66t66 -21h222v-77h-235q-85 0 -124 41.5t-39 122.5v512z" />
    <glyph glyph-name="lcaron" unicode="&#x13e;" horiz-adv-x="309" 
d="M302 710q7 -29 7 -60q0 -95 -80 -149l-31 45q48 36 48 101q0 28 -11 63h67zM80 710h82v-596q0 -53 41 -53q32 0 59 15v-77q-29 -13 -71 -13q-111 0 -111 136v588z" />
    <glyph glyph-name="Lslash" unicode="&#x141;" horiz-adv-x="525" 
d="M108 676h89v-277l187 78v-72l-187 -78v-163q0 -45 20.5 -66t66.5 -21h222v-77h-235q-163 0 -163 164v126l-83 -33v72l83 34v313z" />
    <glyph glyph-name="lslash" unicode="&#x142;" horiz-adv-x="293" 
d="M87 710h81v-260l81 39v-73l-81 -39v-263q0 -53 42 -53q31 0 59 15v-77q-29 -13 -71 -13q-111 0 -111 136v216l-67 -32v72l67 32v300z" />
    <glyph glyph-name="Nacute" unicode="&#x143;" horiz-adv-x="777" 
d="M108 676h80l396 -534v534h85v-676h-79l-396 533v-533h-86v676zM347 744l80 151h94l-108 -151h-66z" />
    <glyph glyph-name="nacute" unicode="&#x144;" horiz-adv-x="574" 
d="M85 475h74l5 -43q71 57 155 57q77 0 126.5 -47.5t49.5 -135.5v-306h-82v300q0 55 -31.5 82.5t-80.5 27.5q-75 0 -134 -51v-359h-82v475zM259 559l80 151h94l-108 -151h-66z" />
    <glyph glyph-name="Ncommaaccent" unicode="&#x145;" horiz-adv-x="777" 
d="M108 676h80l396 -534v534h85v-676h-79l-396 533v-533h-86v676zM368 -61h74q9 -27 9 -50q0 -91 -100 -133l-25 54q53 29 53 79q0 23 -11 50z" />
    <glyph glyph-name="ncommaaccent" unicode="&#x146;" horiz-adv-x="574" 
d="M85 475h74l5 -43q71 57 155 57q77 0 126.5 -47.5t49.5 -135.5v-306h-82v300q0 55 -31.5 82.5t-80.5 27.5q-75 0 -134 -51v-359h-82v475zM246 -61h74q9 -27 9 -50q0 -91 -100 -133l-25 54q53 29 53 79q0 23 -11 50z" />
    <glyph glyph-name="Ncaron" unicode="&#x147;" horiz-adv-x="777" 
d="M108 676h80l396 -534v534h85v-676h-79l-396 533v-533h-86v676zM426 744h-76l-99 151h69l68 -90l68 90h69z" />
    <glyph glyph-name="ncaron" unicode="&#x148;" horiz-adv-x="574" 
d="M85 475h74l5 -43q71 57 155 57q77 0 126.5 -47.5t49.5 -135.5v-306h-82v300q0 55 -31.5 82.5t-80.5 27.5q-75 0 -134 -51v-359h-82v475zM323 559h-76l-99 151h69l68 -90l68 90h69z" />
    <glyph glyph-name="Eng" unicode="&#x14a;" horiz-adv-x="777" 
d="M669 676v-694q0 -186 -164 -186q-55 0 -103 20v79q44 -22 94 -22q48 0 68 25t20 83v27l-390 525v-533h-86v676h80l396 -534v534h85z" />
    <glyph glyph-name="eng" unicode="&#x14b;" horiz-adv-x="574" 
d="M85 475h74l5 -43q71 57 155 57q77 0 126.5 -47.5t49.5 -135.5v-374q0 -136 -112 -136q-36 0 -69 15v76q30 -15 54 -15q45 0 45 51v377q0 55 -31.5 82.5t-80.5 27.5q-75 0 -134 -51v-359h-82v475z" />
    <glyph glyph-name="Omacron" unicode="&#x14c;" horiz-adv-x="814" 
d="M757 338q0 -160 -96 -256t-254 -96t-254 96t-96 256t96 256t254 96t254 -96t96 -256zM664 338q0 126 -68.5 200.5t-188.5 74.5t-188.5 -74.5t-68.5 -200.5t68.5 -200.5t188.5 -74.5t188.5 74.5t68.5 200.5zM534 851v-63h-254v63h254z" />
    <glyph glyph-name="omacron" unicode="&#x14d;" horiz-adv-x="586" 
d="M538 237q0 -115 -67.5 -183t-177.5 -68q-109 0 -177 68.5t-68 182.5t68 183t177 69q110 0 177.5 -68.5t67.5 -183.5zM454 237q0 83 -44 130t-117 47q-72 0 -116 -47t-44 -130t43.5 -129.5t116.5 -46.5t117 46.5t44 129.5zM420 666v-63h-254v63h254z" />
    <glyph glyph-name="Obreve" unicode="&#x14e;" horiz-adv-x="814" 
d="M757 338q0 -160 -96 -256t-254 -96t-254 96t-96 256t96 256t254 96t254 -96t96 -256zM664 338q0 126 -68.5 200.5t-188.5 74.5t-188.5 -74.5t-68.5 -200.5t68.5 -200.5t188.5 -74.5t188.5 74.5t68.5 200.5zM264 889h56q11 -79 87 -79t87 79h56q-4 -66 -41.5 -105
t-101.5 -39t-101.5 39t-41.5 105z" />
    <glyph glyph-name="obreve" unicode="&#x14f;" horiz-adv-x="586" 
d="M538 237q0 -115 -67.5 -183t-177.5 -68q-109 0 -177 68.5t-68 182.5t68 183t177 69q110 0 177.5 -68.5t67.5 -183.5zM454 237q0 83 -44 130t-117 47q-72 0 -116 -47t-44 -130t43.5 -129.5t116.5 -46.5t117 46.5t44 129.5zM150 705h56q11 -79 87 -79t87 79h56
q-4 -66 -41.5 -105t-101.5 -39t-101.5 39t-41.5 105z" />
    <glyph glyph-name="Ohungarumlaut" unicode="&#x150;" horiz-adv-x="814" 
d="M757 338q0 -160 -96 -256t-254 -96t-254 96t-96 256t96 256t254 96t254 -96t96 -256zM664 338q0 126 -68.5 200.5t-188.5 74.5t-188.5 -74.5t-68.5 -200.5t68.5 -200.5t188.5 -74.5t188.5 74.5t68.5 200.5zM460 895l-91 -151h-62l72 151h81zM612 895l-118 -151h-64
l98 151h84z" />
    <glyph glyph-name="ohungarumlaut" unicode="&#x151;" horiz-adv-x="586" 
d="M538 237q0 -115 -67.5 -183t-177.5 -68q-109 0 -177 68.5t-68 182.5t68 183t177 69q110 0 177.5 -68.5t67.5 -183.5zM454 237q0 83 -44 130t-117 47q-72 0 -116 -47t-44 -130t43.5 -129.5t116.5 -46.5t117 46.5t44 129.5zM354 710l-91 -151h-62l72 151h81zM506 710
l-118 -151h-64l98 151h84z" />
    <glyph glyph-name="OE" unicode="&#x152;" horiz-adv-x="1149" 
d="M406 -14q-158 0 -253.5 96t-95.5 256t95.5 256t253.5 96q89 0 156 -34.5t107 -89.5v110h403v-77h-316v-212h288v-77h-288v-146q0 -45 21 -66t67 -21h243v-77h-257q-141 0 -155 128q-37 -67 -107 -104.5t-162 -37.5zM406 63q120 0 188.5 74.5t68.5 200.5t-68.5 200.5
t-188.5 74.5q-119 0 -187.5 -74.5t-68.5 -200.5t68.5 -200.5t187.5 -74.5z" />
    <glyph glyph-name="oe" unicode="&#x153;" horiz-adv-x="940" 
d="M454 237q0 83 -44 130t-117 47q-72 0 -116 -47t-44 -130t43.5 -129.5t116.5 -46.5t117 46.5t44 129.5zM676 414q-124 0 -141 -134h275q-1 59 -37 96.5t-97 37.5zM492 100q-57 -114 -199 -114q-109 0 -177 68.5t-68 182.5t68 183t177 69q143 0 198 -114q52 114 186 114
q106 0 161.5 -66t55.5 -159v-56h-360q7 -77 55 -112t120 -35q92 0 171 43v-77q-77 -41 -177 -41q-158 0 -211 114z" />
    <glyph glyph-name="Racute" unicode="&#x154;" horiz-adv-x="627" 
d="M314 252h-117v-252h-89v676h209q123 0 191 -55.5t68 -156.5q0 -81 -44.5 -131.5t-127.5 -65.5l194 -267h-102zM197 599v-270h120q78 0 122 33.5t44 101.5t-44 101.5t-122 33.5h-120zM295 745l80 151h94l-108 -151h-66z" />
    <glyph glyph-name="racute" unicode="&#x155;" horiz-adv-x="360" 
d="M85 475h74l5 -71q83 85 175 85v-86q-42 0 -89.5 -20t-82.5 -54v-329h-82v475zM159 559l80 151h94l-108 -151h-66z" />
    <glyph glyph-name="Rcommaaccent" unicode="&#x156;" horiz-adv-x="627" 
d="M314 252h-117v-252h-89v676h209q123 0 191 -55.5t68 -156.5q0 -81 -44.5 -131.5t-127.5 -65.5l194 -267h-102zM197 599v-270h120q78 0 122 33.5t44 101.5t-44 101.5t-122 33.5h-120zM307 -61h74q9 -27 9 -50q0 -91 -100 -133l-25 54q53 29 53 79q0 23 -11 50z" />
    <glyph glyph-name="rcommaaccent" unicode="&#x157;" horiz-adv-x="360" 
d="M85 475h74l5 -71q83 85 175 85v-86q-42 0 -89.5 -20t-82.5 -54v-329h-82v475zM79 -61h74q9 -27 9 -50q0 -91 -100 -133l-25 54q53 29 53 79q0 23 -11 50z" />
    <glyph glyph-name="Rcaron" unicode="&#x158;" horiz-adv-x="627" 
d="M314 252h-117v-252h-89v676h209q123 0 191 -55.5t68 -156.5q0 -81 -44.5 -131.5t-127.5 -65.5l194 -267h-102zM197 599v-270h120q78 0 122 33.5t44 101.5t-44 101.5t-122 33.5h-120zM372 744h-76l-99 151h69l68 -90l68 90h69z" />
    <glyph glyph-name="rcaron" unicode="&#x159;" horiz-adv-x="360" 
d="M85 475h74l5 -71q83 85 175 85v-86q-42 0 -89.5 -20t-82.5 -54v-329h-82v475zM253 559h-76l-99 151h69l68 -90l68 90h69z" />
    <glyph glyph-name="Sacute" unicode="&#x15a;" horiz-adv-x="562" 
d="M481 571q-77 42 -176 42q-60 0 -102 -27t-42 -84q0 -36 25.5 -61t63 -37t82 -28.5t82 -35t63 -57.5t25.5 -94q0 -104 -68 -153.5t-169 -49.5q-110 0 -193 49v79q91 -51 191 -51q65 0 107 28t42 90q0 39 -25.5 65.5t-63 38.5t-82 28.5t-82 34t-63 56t-25.5 93.5
q0 93 66.5 143t167.5 50q103 0 176 -38v-81zM245 744l80 151h94l-108 -151h-66z" />
    <glyph glyph-name="sacute" unicode="&#x15b;" horiz-adv-x="453" 
d="M399 458v-77q-63 33 -155 33q-49 0 -83.5 -15.5t-34.5 -50.5q0 -29 29.5 -44.5t72 -23.5t85 -19.5t72 -43t29.5 -83.5q0 -75 -53.5 -111.5t-138.5 -36.5q-99 0 -172 44v79q74 -48 170 -48q113 0 113 69q0 30 -29.5 46.5t-72 24.5t-85 19t-72 41t-29.5 80q0 72 56 110
t143 38q95 0 155 -31zM181 559l80 151h94l-108 -151h-66z" />
    <glyph glyph-name="Scircumflex" unicode="&#x15c;" horiz-adv-x="562" 
d="M481 571q-77 42 -176 42q-60 0 -102 -27t-42 -84q0 -36 25.5 -61t63 -37t82 -28.5t82 -35t63 -57.5t25.5 -94q0 -104 -68 -153.5t-169 -49.5q-110 0 -193 49v79q91 -51 191 -51q65 0 107 28t42 90q0 39 -25.5 65.5t-63 38.5t-82 28.5t-82 34t-63 56t-25.5 93.5
q0 93 66.5 143t167.5 50q103 0 176 -38v-81zM242 895h76l99 -151h-69l-68 90l-68 -90h-69z" />
    <glyph glyph-name="scircumflex" unicode="&#x15d;" horiz-adv-x="453" 
d="M399 458v-77q-63 33 -155 33q-49 0 -83.5 -15.5t-34.5 -50.5q0 -29 29.5 -44.5t72 -23.5t85 -19.5t72 -43t29.5 -83.5q0 -75 -53.5 -111.5t-138.5 -36.5q-99 0 -172 44v79q74 -48 170 -48q113 0 113 69q0 30 -29.5 46.5t-72 24.5t-85 19t-72 41t-29.5 80q0 72 56 110
t143 38q95 0 155 -31zM188 710h76l99 -151h-69l-68 90l-68 -90h-69z" />
    <glyph glyph-name="Scedilla" unicode="&#x15e;" horiz-adv-x="562" 
d="M481 571q-77 42 -176 42q-60 0 -102 -27t-42 -84q0 -36 25.5 -61t63 -37t82 -28.5t82 -35t63 -57.5t25.5 -94q0 -87 -48.5 -136t-126.5 -62l-10 -40q73 -9 73 -83q0 -36 -27.5 -58t-75.5 -22q-35 0 -61 13v56q24 -14 57 -14q41 0 41 30t-50 30h-35l25 83q-109 0 -192 49
v79q91 -51 191 -51q65 0 107 28t42 90q0 39 -25.5 65.5t-63 38.5t-82 28.5t-82 34t-63 56t-25.5 93.5q0 93 66.5 143t167.5 50q103 0 176 -38v-81z" />
    <glyph glyph-name="scedilla" unicode="&#x15f;" horiz-adv-x="453" 
d="M399 458v-77q-63 33 -155 33q-49 0 -83.5 -15.5t-34.5 -50.5q0 -29 29.5 -44.5t72 -23.5t85 -19.5t72 -43t29.5 -83.5q0 -63 -39 -99t-103 -45l-10 -39q73 -9 73 -83q0 -36 -27.5 -58t-75.5 -22q-35 0 -61 13v56q24 -14 57 -14q41 0 41 30t-50 30h-35l25 83
q-90 3 -159 44v79q74 -48 170 -48q113 0 113 69q0 30 -29.5 46.5t-72 24.5t-85 19t-72 41t-29.5 80q0 72 56 110t143 38q95 0 155 -31z" />
    <glyph glyph-name="Scaron" unicode="&#x160;" horiz-adv-x="562" 
d="M481 571q-77 42 -176 42q-60 0 -102 -27t-42 -84q0 -36 25.5 -61t63 -37t82 -28.5t82 -35t63 -57.5t25.5 -94q0 -104 -68 -153.5t-169 -49.5q-110 0 -193 49v79q91 -51 191 -51q65 0 107 28t42 90q0 39 -25.5 65.5t-63 38.5t-82 28.5t-82 34t-63 56t-25.5 93.5
q0 93 66.5 143t167.5 50q103 0 176 -38v-81zM313 744h-76l-99 151h69l68 -90l68 90h69z" />
    <glyph glyph-name="scaron" unicode="&#x161;" horiz-adv-x="453" 
d="M399 458v-77q-63 33 -155 33q-49 0 -83.5 -15.5t-34.5 -50.5q0 -29 29.5 -44.5t72 -23.5t85 -19.5t72 -43t29.5 -83.5q0 -75 -53.5 -111.5t-138.5 -36.5q-99 0 -172 44v79q74 -48 170 -48q113 0 113 69q0 30 -29.5 46.5t-72 24.5t-85 19t-72 41t-29.5 80q0 72 56 110
t143 38q95 0 155 -31zM264 559h-76l-99 151h69l68 -90l68 90h69z" />
    <glyph glyph-name="Tcommaaccent" unicode="&#x162;" horiz-adv-x="584" 
d="M19 676h546v-77h-228v-599h-90v599h-228v77zM245 -61h74q9 -27 9 -50q0 -91 -100 -133l-25 54q53 29 53 79q0 23 -11 50z" />
    <glyph glyph-name="tcommaaccent" unicode="&#x163;" horiz-adv-x="348" 
d="M24 475h68l13 151h69v-151h142v-72h-142v-265q0 -77 67 -77q40 0 83 25v-78q-41 -22 -98 -22q-63 0 -98.5 38t-35.5 113v266h-68v72zM146 -61h74q9 -27 9 -50q0 -91 -100 -133l-25 54q53 29 53 79q0 23 -11 50z" />
    <glyph glyph-name="Tcaron" unicode="&#x164;" horiz-adv-x="584" 
d="M19 676h546v-77h-228v-599h-90v599h-228v77zM330 744h-76l-99 151h69l68 -90l68 90h69z" />
    <glyph glyph-name="tcaron" unicode="&#x165;" horiz-adv-x="348" 
d="M317 724q7 -29 7 -60q0 -92 -80 -145l-31 41q48 36 48 101q0 32 -10 63h66zM24 475h68l13 151h69v-151h142v-72h-142v-265q0 -77 67 -77q40 0 83 25v-78q-41 -22 -98 -22q-63 0 -98.5 38t-35.5 113v266h-68v72z" />
    <glyph glyph-name="Tbar" unicode="&#x166;" horiz-adv-x="584" 
d="M19 676h546v-77h-228v-222h175v-66h-175v-311h-90v311h-176v66h176v222h-228v77z" />
    <glyph glyph-name="tbar" unicode="&#x167;" horiz-adv-x="348" 
d="M24 225v63h68v115h-68v72h68l12 151h70v-151h142v-72h-142v-115h122v-63h-122v-87q0 -77 66 -77q41 0 84 25v-78q-41 -22 -98 -22q-64 0 -99 38t-35 113v88h-68z" />
    <glyph glyph-name="Utilde" unicode="&#x168;" horiz-adv-x="697" 
d="M91 676h89v-437q0 -88 46.5 -132t122.5 -44q77 0 123.5 44t46.5 132v437h87v-439q0 -120 -73 -185.5t-184 -65.5t-184.5 65.5t-73.5 185.5v439zM413 757q-31 0 -71 29.5t-58 29.5q-29 0 -29 -57h-57q0 55 21 89.5t65 34.5q31 0 73 -29.5t56 -29.5q29 0 29 56h58
q0 -54 -21.5 -88.5t-65.5 -34.5z" />
    <glyph glyph-name="utilde" unicode="&#x169;" horiz-adv-x="556" 
d="M246 -14q-78 0 -124.5 48t-46.5 140v301h82v-298q0 -58 27.5 -87t77.5 -29q71 0 126 65v349h83v-475h-70l-5 52q-66 -66 -150 -66zM344 571q-30 0 -70 29.5t-59 29.5q-29 0 -29 -57h-57q0 55 21 89.5t65 34.5q31 0 73 -29.5t56 -29.5q29 0 29 56h58q0 -54 -21.5 -88.5
t-65.5 -34.5z" />
    <glyph glyph-name="Umacron" unicode="&#x16a;" horiz-adv-x="697" 
d="M91 676h89v-437q0 -88 46.5 -132t122.5 -44q77 0 123.5 44t46.5 132v437h87v-439q0 -120 -73 -185.5t-184 -65.5t-184.5 65.5t-73.5 185.5v439zM476 851v-63h-254v63h254z" />
    <glyph glyph-name="umacron" unicode="&#x16b;" horiz-adv-x="556" 
d="M246 -14q-78 0 -124.5 48t-46.5 140v301h82v-298q0 -58 27.5 -87t77.5 -29q71 0 126 65v349h83v-475h-70l-5 52q-66 -66 -150 -66zM407 666v-63h-254v63h254z" />
    <glyph glyph-name="Ubreve" unicode="&#x16c;" horiz-adv-x="697" 
d="M91 676h89v-437q0 -88 46.5 -132t122.5 -44q77 0 123.5 44t46.5 132v437h87v-439q0 -120 -73 -185.5t-184 -65.5t-184.5 65.5t-73.5 185.5v439zM206 891h56q11 -79 87 -79t87 79h56q-4 -66 -41.5 -105t-101.5 -39t-101.5 39t-41.5 105z" />
    <glyph glyph-name="ubreve" unicode="&#x16d;" horiz-adv-x="556" 
d="M246 -14q-78 0 -124.5 48t-46.5 140v301h82v-298q0 -58 27.5 -87t77.5 -29q71 0 126 65v349h83v-475h-70l-5 52q-66 -66 -150 -66zM137 705h56q11 -79 87 -79t87 79h56q-4 -66 -41.5 -105t-101.5 -39t-101.5 39t-41.5 105z" />
    <glyph glyph-name="Uring" unicode="&#x16e;" horiz-adv-x="697" 
d="M91 676h89v-437q0 -88 46.5 -132t122.5 -44q77 0 123.5 44t46.5 132v437h87v-439q0 -120 -73 -185.5t-184 -65.5t-184.5 65.5t-73.5 185.5v439zM349 908q45 0 75.5 -24t30.5 -66t-30.5 -66t-75.5 -24t-75.5 24t-30.5 66t30.5 66t75.5 24zM349 864q-25 0 -39.5 -12
t-14.5 -34t14.5 -34t39.5 -12t39.5 12t14.5 34t-14.5 34t-39.5 12z" />
    <glyph glyph-name="uring" unicode="&#x16f;" horiz-adv-x="556" 
d="M246 -14q-78 0 -124.5 48t-46.5 140v301h82v-298q0 -58 27.5 -87t77.5 -29q71 0 126 65v349h83v-475h-70l-5 52q-66 -66 -150 -66zM280 724q45 0 75.5 -24t30.5 -66t-30.5 -66t-75.5 -24t-75.5 24t-30.5 66t30.5 66t75.5 24zM280 680q-25 0 -39.5 -12t-14.5 -34t14.5 -34
t39.5 -12t39.5 12t14.5 34t-14.5 34t-39.5 12z" />
    <glyph glyph-name="Uhungarumlaut" unicode="&#x170;" horiz-adv-x="697" 
d="M91 676h89v-437q0 -88 46.5 -132t122.5 -44q77 0 123.5 44t46.5 132v437h87v-439q0 -120 -73 -185.5t-184 -65.5t-184.5 65.5t-73.5 185.5v439zM399 895l-91 -151h-62l72 151h81zM551 895l-118 -151h-64l98 151h84z" />
    <glyph glyph-name="uhungarumlaut" unicode="&#x171;" horiz-adv-x="556" 
d="M246 -14q-78 0 -124.5 48t-46.5 140v301h82v-298q0 -58 27.5 -87t77.5 -29q71 0 126 65v349h83v-475h-70l-5 52q-66 -66 -150 -66zM323 710l-91 -151h-62l72 151h81zM475 710l-118 -151h-64l98 151h84z" />
    <glyph glyph-name="Uogonek" unicode="&#x172;" horiz-adv-x="697" 
d="M91 676h89v-437q0 -88 46.5 -132t122.5 -44q77 0 123.5 44t46.5 132v437h87v-439q0 -107 -59 -171t-153 -77q-55 -48 -55 -95q0 -21 12.5 -32.5t32.5 -11.5q29 0 57 18v-61q-29 -17 -70 -17q-44 0 -69.5 25t-25.5 69q0 64 45 103q-101 9 -165.5 73.5t-64.5 176.5v439z
" />
    <glyph glyph-name="uogonek" unicode="&#x173;" horiz-adv-x="556" 
d="M401 0l-5 52q-66 -66 -150 -66q-78 0 -124.5 48t-46.5 140v301h82v-298q0 -58 27.5 -87t77.5 -29q71 0 126 65v349h83v-475q-68 -57 -68 -106q0 -21 12.5 -32.5t32.5 -11.5q29 0 57 18v-61q-29 -17 -70 -17q-44 0 -69.5 25t-25.5 69q0 74 61 116z" />
    <glyph glyph-name="Wcircumflex" unicode="&#x174;" horiz-adv-x="980" 
d="M449 676h82l188 -567l161 567h92l-198 -676h-96l-188 564l-188 -564h-96l-198 676h92l161 -567zM452 895h76l99 -151h-69l-68 90l-68 -90h-69z" />
    <glyph glyph-name="wcircumflex" unicode="&#x175;" horiz-adv-x="779" 
d="M347 475h84l136 -377l117 377h84l-155 -475h-83l-141 381l-141 -381h-83l-155 475h84l117 -377zM351 710h76l99 -151h-69l-68 90l-68 -90h-69z" />
    <glyph glyph-name="Ycircumflex" unicode="&#x176;" horiz-adv-x="582" 
d="M0 676h98l197 -324l197 324h90l-248 -405v-271h-88v271zM253 895h76l99 -151h-69l-68 90l-68 -90h-69z" />
    <glyph glyph-name="ycircumflex" unicode="&#x177;" horiz-adv-x="556" 
d="M247 -9q-78 0 -125 48t-47 140v296h83v-293q0 -114 104 -114q74 0 127 63v344h82v-465q0 -103 -59 -158t-153 -55q-91 0 -161 36v82q70 -45 155 -45q61 0 98.5 33.5t37.5 104.5v41q-65 -58 -142 -58zM237 710h76l99 -151h-69l-68 90l-68 -90h-69z" />
    <glyph glyph-name="Ydieresis" unicode="&#x178;" horiz-adv-x="582" 
d="M0 676h98l197 -324l197 324h90l-248 -405v-271h-88v271zM243 870v-96h-76v96h76zM417 870v-96h-76v96h76z" />
    <glyph glyph-name="Zacute" unicode="&#x179;" horiz-adv-x="597" 
d="M48 676h501v-71l-398 -528h407v-77h-517v66l401 533h-394v77zM260 744l80 151h94l-108 -151h-66z" />
    <glyph glyph-name="zacute" unicode="&#x17a;" horiz-adv-x="468" 
d="M416 475v-58l-263 -346h269v-71h-376v57l264 347h-259v71h365zM199 559l80 151h94l-108 -151h-66z" />
    <glyph glyph-name="Zdotaccent" unicode="&#x17b;" horiz-adv-x="597" 
d="M48 676h501v-71l-398 -528h407v-77h-517v66l401 533h-394v77zM258 868h79v-96h-79v96z" />
    <glyph glyph-name="zdotaccent" unicode="&#x17c;" horiz-adv-x="468" 
d="M416 475v-58l-263 -346h269v-71h-376v57l264 347h-259v71h365zM195 685h79v-96h-79v96z" />
    <glyph glyph-name="Zcaron" unicode="&#x17d;" horiz-adv-x="597" 
d="M48 676h501v-71l-398 -528h407v-77h-517v66l401 533h-394v77zM331 744h-76l-99 151h69l68 -90l68 90h69z" />
    <glyph glyph-name="zcaron" unicode="&#x17e;" horiz-adv-x="468" 
d="M416 475v-58l-263 -346h269v-71h-376v57l264 347h-259v71h365zM275 559h-76l-99 151h69l68 -90l68 90h69z" />
    <glyph glyph-name="longs" unicode="&#x17f;" horiz-adv-x="318" 
d="M27 475h68v78q0 84 45.5 127.5t114.5 43.5q34 0 63 -10v-77q-25 11 -56 11q-39 0 -62 -23t-23 -71v-554h-82v403h-68v72z" />
    <glyph glyph-name="florin" unicode="&#x192;" 
d="M72 376h90v107q0 106 60.5 156.5t150.5 50.5q71 0 137 -27v-82q-66 32 -132 32q-58 0 -95 -30.5t-37 -100.5v-106h225v-64h-225v-312h-84v312h-90v64z" />
    <glyph glyph-name="Aringacute" unicode="&#x1fa;" horiz-adv-x="626" 
d="M417 820q0 -43 -30.5 -67t-74.5 -24q-45 0 -75 24t-30 67q0 35 20.5 57t53.5 29l67 129h92l-97 -130q33 -7 53.5 -29t20.5 -56zM365 819q0 23 -14.5 35.5t-38.5 12.5q-25 0 -39.5 -12.5t-14.5 -35.5q0 -22 15 -34.5t39 -12.5t38.5 12.5t14.5 34.5zM272 676h85l269 -676
h-96l-66 166h-311l-65 -166h-88zM309 565l-127 -323h254z" />
    <glyph glyph-name="aringacute" unicode="&#x1fb;" horiz-adv-x="564" 
d="M167 634q0 34 20.5 56.5t54.5 29.5l66 130h93l-97 -130q34 -7 54.5 -29.5t20.5 -56.5q0 -42 -30.5 -66t-75.5 -24t-75.5 24t-30.5 66zM326 634q0 22 -14.5 34t-38.5 12q-25 0 -39.5 -12t-14.5 -34t14.5 -34t39.5 -12q24 0 38.5 12t14.5 34zM479 0h-69l-6 52
q-66 -66 -150 -66q-88 0 -147 64.5t-59 183.5q0 124 71 189.5t181 65.5q46 0 97 -11.5t82 -26.5v-451zM397 124v273q-46 17 -96 17q-74 0 -121.5 -42.5t-47.5 -133.5q0 -88 37 -132.5t99 -44.5q77 0 129 63z" />
    <glyph glyph-name="AEacute" unicode="&#x1fc;" horiz-adv-x="900" 
d="M374 676h449v-77h-316v-212h288v-77h-288v-146q0 -45 21 -66t66 -21h244v-77h-257q-86 0 -124.5 41t-38.5 125h-256l-97 -166h-92zM207 242h211v357zM438 744l80 151h94l-108 -151h-66z" />
    <glyph glyph-name="aeacute" unicode="&#x1fd;" horiz-adv-x="858" 
d="M812 208h-361q8 -77 55.5 -112t119.5 -35q93 0 171 43v-77q-76 -41 -177 -41q-123 0 -190 71q-37 -34 -77 -52.5t-99 -18.5q-88 0 -147 64.5t-59 183.5q0 124 71 189.5t181 65.5q94 0 170 -34q54 34 124 34q106 0 162 -66.5t56 -158.5v-56zM365 238q0 91 42 155
q-56 21 -106 21q-74 0 -121.5 -42.5t-47.5 -133.5q0 -88 37 -132.5t99 -44.5q71 0 121 55q-24 56 -24 122zM452 280h276q-1 59 -37.5 96.5t-97.5 37.5q-124 0 -141 -134zM418 559l80 151h94l-108 -151h-66z" />
    <glyph glyph-name="Oslashacute" unicode="&#x1fe;" horiz-adv-x="814" 
d="M372 744l80 151h94l-108 -151h-66zM757 338q0 -160 -96 -256t-254 -96q-114 0 -197 51l-65 -86l-45 35l65 85q-108 97 -108 267q0 160 96 256t254 96q111 0 196 -51l66 85l45 -34l-66 -84q109 -98 109 -268zM664 338q0 126 -68 200l-336 -436q62 -39 147 -39
q120 0 188.5 74.5t68.5 200.5zM150 338q0 -125 68 -199l334 435q-61 39 -145 39q-120 0 -188.5 -74.5t-68.5 -200.5z" />
    <glyph glyph-name="oslashacute" unicode="&#x1ff;" horiz-adv-x="586" 
d="M538 237q0 -115 -67.5 -183t-177.5 -68q-71 0 -130 32l-49 -66l-40 31l48 65q-74 71 -74 189q0 114 68 183t177 69q73 0 130 -33l53 71l40 -30l-53 -70q75 -70 75 -190zM454 237q0 75 -39 124l-206 -280q37 -20 84 -20q73 0 117 46.5t44 129.5zM133 237q0 -79 38 -123
l206 279q-39 21 -84 21q-72 0 -116 -47t-44 -130zM256 559l80 151h94l-108 -151h-66z" />
    <glyph glyph-name="Scommaaccent" unicode="&#x218;" horiz-adv-x="562" 
d="M481 571q-77 42 -176 42q-60 0 -102 -27t-42 -84q0 -36 25.5 -61t63 -37t82 -28.5t82 -35t63 -57.5t25.5 -94q0 -104 -68 -153.5t-169 -49.5q-110 0 -193 49v79q91 -51 191 -51q65 0 107 28t42 90q0 39 -25.5 65.5t-63 38.5t-82 28.5t-82 34t-63 56t-25.5 93.5
q0 93 66.5 143t167.5 50q103 0 176 -38v-81zM249 -61h74q9 -27 9 -50q0 -91 -100 -133l-25 54q53 29 53 79q0 23 -11 50z" />
    <glyph glyph-name="scommaaccent" unicode="&#x219;" horiz-adv-x="453" 
d="M399 458v-77q-63 33 -155 33q-49 0 -83.5 -15.5t-34.5 -50.5q0 -29 29.5 -44.5t72 -23.5t85 -19.5t72 -43t29.5 -83.5q0 -75 -53.5 -111.5t-138.5 -36.5q-99 0 -172 44v79q74 -48 170 -48q113 0 113 69q0 30 -29.5 46.5t-72 24.5t-85 19t-72 41t-29.5 80q0 72 56 110
t143 38q95 0 155 -31zM201 -61h74q9 -27 9 -50q0 -91 -100 -133l-25 54q53 29 53 79q0 23 -11 50z" />
    <glyph glyph-name="circumflex" unicode="&#x2c6;" horiz-adv-x="510" 
d="M217 710h76l99 -151h-69l-68 90l-68 -90h-69z" />
    <glyph glyph-name="caron" unicode="&#x2c7;" horiz-adv-x="510" 
d="M293 559h-76l-99 151h69l68 -90l68 90h69z" />
    <glyph glyph-name="breve" unicode="&#x2d8;" horiz-adv-x="510" 
d="M112 705h56q11 -79 87 -79t87 79h56q-4 -66 -41.5 -105t-101.5 -39t-101.5 39t-41.5 105z" />
    <glyph glyph-name="dotaccent" unicode="&#x2d9;" horiz-adv-x="510" 
d="M215 685h79v-96h-79v96z" />
    <glyph glyph-name="ring" unicode="&#x2da;" horiz-adv-x="510" 
d="M255 724q45 0 75.5 -24t30.5 -66t-30.5 -66t-75.5 -24t-75.5 24t-30.5 66t30.5 66t75.5 24zM255 680q-25 0 -39.5 -12t-14.5 -34t14.5 -34t39.5 -12t39.5 12t14.5 34t-14.5 34t-39.5 12z" />
    <glyph glyph-name="ogonek" unicode="&#x2db;" horiz-adv-x="510" 
d="M223 0h69q-68 -57 -68 -106q0 -21 12.5 -32.5t32.5 -11.5q29 0 57 18v-61q-29 -17 -70 -17q-44 0 -69.5 25t-25.5 69q0 75 62 116z" />
    <glyph glyph-name="tilde" unicode="&#x2dc;" horiz-adv-x="510" 
d="M319 571q-31 0 -71 29.5t-58 29.5q-29 0 -29 -57h-57q0 55 21 89.5t65 34.5q31 0 73 -29.5t56 -29.5q29 0 29 56h58q0 -54 -21.5 -88.5t-65.5 -34.5z" />
    <glyph glyph-name="hungarumlaut" unicode="&#x2dd;" horiz-adv-x="510" 
d="M275 710l-91 -151h-62l72 151h81zM427 710l-118 -151h-64l98 151h84z" />
    <glyph glyph-name="Delta" unicode="&#x394;" horiz-adv-x="535" 
d="M232 676h69l213 -613v-63h-493v63zM267 582l-170 -513h343z" />
    <glyph glyph-name="Delta" unicode="&#x2206;" horiz-adv-x="535" 
d="M232 676h69l213 -613v-63h-493v63zM267 582l-170 -513h343z" />
    <glyph glyph-name="Omega" unicode="&#x3a9;" horiz-adv-x="698" 
d="M643 75v-75h-249v67q171 145 171 316q0 100 -55 165.5t-162 65.5t-161.5 -65t-54.5 -166q0 -172 170 -316v-67h-249v75h150q-150 133 -150 307q0 132 79 219.5t216 87.5t216 -87.5t79 -219.5q0 -174 -150 -307h150z" />
    <glyph glyph-name="Omega" unicode="&#x2126;" horiz-adv-x="698" 
d="M643 75v-75h-249v67q171 145 171 316q0 100 -55 165.5t-162 65.5t-161.5 -65t-54.5 -166q0 -172 170 -316v-67h-249v75h150q-150 133 -150 307q0 132 79 219.5t216 87.5t216 -87.5t79 -219.5q0 -174 -150 -307h150z" />
    <glyph glyph-name="pi" unicode="&#x3c0;" horiz-adv-x="566" 
d="M37 403v72h483v-72h-79v-403h-76v403h-160l-40 -403h-76l40 403h-92z" />
    <glyph glyph-name="Wgrave" unicode="&#x1e80;" horiz-adv-x="980" 
d="M449 676h82l188 -567l161 567h92l-198 -676h-96l-188 564l-188 -564h-96l-198 676h92l161 -567zM440 895l80 -151h-66l-108 151h94z" />
    <glyph glyph-name="wgrave" unicode="&#x1e81;" horiz-adv-x="779" 
d="M347 475h84l136 -377l117 377h84l-155 -475h-83l-141 381l-141 -381h-83l-155 475h84l117 -377zM343 710l80 -151h-66l-108 151h94z" />
    <glyph glyph-name="Wacute" unicode="&#x1e82;" horiz-adv-x="980" 
d="M449 676h82l188 -567l161 567h92l-198 -676h-96l-188 564l-188 -564h-96l-198 676h92l161 -567zM458 744l80 151h94l-108 -151h-66z" />
    <glyph glyph-name="wacute" unicode="&#x1e83;" horiz-adv-x="779" 
d="M347 475h84l136 -377l117 377h84l-155 -475h-83l-141 381l-141 -381h-83l-155 475h84l117 -377zM359 559l80 151h94l-108 -151h-66z" />
    <glyph glyph-name="Wdieresis" unicode="&#x1e84;" horiz-adv-x="980" 
d="M449 676h82l188 -567l161 567h92l-198 -676h-96l-188 564l-188 -564h-96l-198 676h92l161 -567zM441 867v-96h-76v96h76zM615 867v-96h-76v96h76z" />
    <glyph glyph-name="wdieresis" unicode="&#x1e85;" horiz-adv-x="779" 
d="M347 475h84l136 -377l117 377h84l-155 -475h-83l-141 381l-141 -381h-83l-155 475h84l117 -377zM340 685v-96h-76v96h76zM514 685v-96h-76v96h76z" />
    <glyph glyph-name="Ygrave" unicode="&#x1ef2;" horiz-adv-x="582" 
d="M0 676h98l197 -324l197 324h90l-248 -405v-271h-88v271zM245 895l80 -151h-66l-108 151h94z" />
    <glyph glyph-name="ygrave" unicode="&#x1ef3;" horiz-adv-x="556" 
d="M247 -9q-78 0 -125 48t-47 140v296h83v-293q0 -114 104 -114q74 0 127 63v344h82v-465q0 -103 -59 -158t-153 -55q-91 0 -161 36v82q70 -45 155 -45q61 0 98.5 33.5t37.5 104.5v41q-65 -58 -142 -58zM239 710l80 -151h-66l-108 151h94z" />
    <glyph glyph-name="endash" unicode="&#x2013;" horiz-adv-x="589" 
d="M516 326v-78h-443v78h443z" />
    <glyph glyph-name="emdash" unicode="&#x2014;" horiz-adv-x="1023" 
d="M949 326v-77h-876v77h876z" />
    <glyph glyph-name="quoteleft" unicode="&#x2018;" horiz-adv-x="257" 
d="M68 425q-12 32 -12 73q0 59 27.5 109t81.5 83l36 -49q-70 -51 -70 -137q0 -38 15 -79h-78z" />
    <glyph glyph-name="quoteright" unicode="&#x2019;" horiz-adv-x="257" 
d="M189 676q12 -32 12 -73q0 -59 -27.5 -109.5t-81.5 -83.5l-36 49q70 51 70 138q0 39 -15 79h78z" />
    <glyph glyph-name="quotesinglbase" unicode="&#x201a;" horiz-adv-x="257" 
d="M189 111q12 -32 12 -73q0 -59 -27.5 -109.5t-81.5 -83.5l-36 49q70 51 70 138q0 38 -15 79h78z" />
    <glyph glyph-name="quotedblleft" unicode="&#x201c;" horiz-adv-x="427" 
d="M238 424q-12 32 -12 73q0 59 27.5 109.5t81.5 83.5l36 -49q-70 -51 -70 -138q0 -39 15 -79h-78zM68 424q-12 32 -12 73q0 59 27.5 109.5t81.5 83.5l36 -49q-70 -51 -70 -138q0 -39 15 -79h-78z" />
    <glyph glyph-name="quotedblright" unicode="&#x201d;" horiz-adv-x="427" 
d="M359 676q12 -32 12 -73q0 -59 -27.5 -109.5t-81.5 -83.5l-36 49q70 51 70 138q0 39 -15 79h78zM189 676q12 -32 12 -73q0 -59 -27.5 -109.5t-81.5 -83.5l-36 49q70 51 70 138q0 39 -15 79h78z" />
    <glyph glyph-name="quotedblbase" unicode="&#x201e;" horiz-adv-x="427" 
d="M359 111q12 -32 12 -73q0 -59 -27.5 -109.5t-81.5 -83.5l-36 49q70 51 70 138q0 38 -15 79h78zM189 111q12 -32 12 -73q0 -59 -27.5 -109.5t-81.5 -83.5l-36 49q70 51 70 138q0 38 -15 79h78z" />
    <glyph glyph-name="dagger" unicode="&#x2020;" horiz-adv-x="399" 
d="M352 516h-121v-207h-65v207h-120v59h121v101h64v-101h121v-59z" />
    <glyph glyph-name="daggerdbl" unicode="&#x2021;" horiz-adv-x="399" 
d="M352 533h-121v-85h121v-56h-121v-83h-65v83h-120v56h120v85h-120v56h121v87h64v-87h121v-56z" />
    <glyph glyph-name="bullet" unicode="&#x2022;" horiz-adv-x="327" 
d="M268 320q0 -49 -28.5 -78.5t-75.5 -29.5t-75.5 29.5t-28.5 78.5t28.5 79t75.5 30t75.5 -30t28.5 -79z" />
    <glyph glyph-name="ellipsis" unicode="&#x2026;" horiz-adv-x="749" 
d="M82 0v94h96v-94h-96zM327 0v94h95v-94h-95zM573 0v94h94v-94h-94z" />
    <glyph glyph-name="perthousand" unicode="&#x2030;" horiz-adv-x="1252" 
d="M1200 199q0 -97 -41.5 -155t-115.5 -58t-115.5 58t-41.5 155t41.5 155t115.5 58t115.5 -58t41.5 -155zM1134 199q0 147 -91 147t-91 -147t91 -147t91 147zM366 477q0 -97 -41.5 -155t-115.5 -58t-115.5 58t-41.5 155t41.5 155t115.5 58t115.5 -58t41.5 -155zM300 477
q0 147 -91 147t-91 -147t91 -147t91 147zM838 199q0 -97 -41.5 -155t-115.5 -58t-115.5 58t-41.5 155t41.5 155t115.5 58t115.5 -58t41.5 -155zM772 199q0 147 -91 147t-91 -147t91 -147t91 147zM666 676l-373 -676h-69l373 676h69z" />
    <glyph glyph-name="guilsinglleft" unicode="&#x2039;" horiz-adv-x="294" 
d="M183 49l-150 199l150 199h78l-138 -199l138 -199h-78z" />
    <glyph glyph-name="guilsinglright" unicode="&#x203a;" horiz-adv-x="294" 
d="M261 248l-150 -199h-78l138 199l-138 199h78z" />
    <glyph glyph-name="fraction" unicode="&#x2044;" horiz-adv-x="437" 
d="M437 676l-371 -676h-66l371 676h66z" />
    <glyph glyph-name="Euro" unicode="&#x20ac;" 
d="M520 667v-78q-49 24 -125 24q-168 0 -197 -161h286l-14 -55h-279q-4 -25 -4 -58q0 -15 2 -45h256l-14 -55h-233q17 -92 73 -134t135 -42q60 0 119 32v-81q-59 -28 -139 -28q-103 0 -180.5 63.5t-97.5 189.5h-87l14 55h65q0 8 -0.5 22t-0.5 22q0 29 3 59h-81l14 55h74
q23 120 99 179t178 59q76 0 134 -23z" />
    <glyph glyph-name="trademark" unicode="&#x2122;" horiz-adv-x="749" 
d="M17 676h252v-53h-95v-224h-64v224h-93v53zM335 676h81l87 -165l87 165h81v-277h-62v199l-77 -146h-58l-77 146v-199h-62v277z" />
    <glyph glyph-name="partialdiff" unicode="&#x2202;" horiz-adv-x="572" 
d="M112 576l-23 69q69 45 167 45q119 0 188 -87.5t69 -249.5q0 -174 -73 -270.5t-183 -96.5q-97 0 -150.5 59t-53.5 148q0 108 60.5 168t151.5 60q108 0 171 -71q0 263 -185 263q-79 0 -139 -37zM429 267q-24 37 -66 58.5t-88 21.5q-64 0 -102.5 -38t-38.5 -115
q0 -65 34 -98t86 -33q69 0 117 53t58 151z" />
    <glyph glyph-name="product" unicode="&#x220f;" horiz-adv-x="683" 
d="M575 676v-676h-77v600h-314v-600h-75v676h466z" />
    <glyph glyph-name="summation" unicode="&#x2211;" 
d="M515 676v-67h-360l233 -267l-233 -275h360v-67h-453v59l239 283l-239 275v59h453z" />
    <glyph glyph-name="minus" unicode="&#x2212;" 
d="M522 344v-66h-466v66h466z" />
    <glyph glyph-name="radical" unicode="&#x221a;" horiz-adv-x="512" 
d="M8 403v72h130l129 -385l166 586h70l-196 -676h-79l-140 403h-80z" />
    <glyph glyph-name="infinity" unicode="&#x221e;" horiz-adv-x="610" 
d="M571 311q0 -66 -35 -106.5t-93 -40.5q-30 0 -57.5 14.5t-42 29t-38.5 42.5q-24 -28 -38.5 -42.5t-42 -29t-57.5 -14.5q-58 0 -93 40.5t-35 106.5t35 106.5t93 40.5q30 0 57.5 -14.5t42 -29t38.5 -42.5q24 28 38.5 42.5t42 29t57.5 14.5q58 0 93 -40.5t35 -106.5zM334 311
q24 -29 36.5 -42.5t31 -24.5t37.5 -11q30 0 48.5 20.5t18.5 57.5t-18.5 57.5t-48.5 20.5q-27 0 -48 -17.5t-57 -60.5zM104 311q0 -37 18.5 -57.5t48.5 -20.5q27 0 48 17.5t57 60.5q-24 29 -36.5 42.5t-31 24.5t-37.5 11q-30 0 -48.5 -20.5t-18.5 -57.5z" />
    <glyph glyph-name="integral" unicode="&#x222b;" horiz-adv-x="247" 
d="M258 724v-73q-99 0 -99 -104v-571q0 -87 -45.5 -133.5t-124.5 -46.5v73q99 0 99 104v571q0 87 45.5 133.5t124.5 46.5z" />
    <glyph glyph-name="approxequal" unicode="&#x2248;" 
d="M400 145q-38 0 -118.5 23t-110.5 23q-51 0 -82 -44l-39 50q45 66 123 66q38 0 119 -22.5t111 -22.5q52 0 81 43l40 -50q-45 -66 -124 -66zM404 358q-38 0 -119 22.5t-111 22.5q-52 0 -81 -44l-39 51q43 65 123 65q38 0 118.5 -22.5t110.5 -22.5q52 0 82 44l39 -51
q-45 -65 -123 -65z" />
    <glyph glyph-name="notequal" unicode="&#x2260;" 
d="M522 237v-66h-291l-75 -118h-63l75 118h-112v66h154l94 147h-248v66h290l74 115h64l-74 -115h112v-66h-154l-94 -147h248z" />
    <glyph glyph-name="lessequal" unicode="&#x2264;" 
d="M56 294v71l466 181v-75l-379 -142l379 -142v-75zM522 66v-66h-466v66h466z" />
    <glyph glyph-name="greaterequal" unicode="&#x2265;" 
d="M522 365v-71l-466 -182v75l379 142l-379 142v75zM56 0v66h466v-66h-466z" />
    <glyph glyph-name="lozenge" unicode="&#x25ca;" horiz-adv-x="519" 
d="M229 676h63l204 -338l-204 -338h-63l-205 338zM260 600l-160 -262l160 -262l160 262z" />
    <glyph glyph-name="commaaccent" horiz-adv-x="510" 
d="M224 -61h74q9 -27 9 -50q0 -91 -100 -133l-25 54q53 29 53 79q0 23 -11 50z" />
    <glyph glyph-name="zero.onum" horiz-adv-x="544" 
d="M496 237q0 -115 -61.5 -183.5t-162.5 -68.5t-162.5 68.5t-61.5 183.5t61.5 183.5t162.5 68.5t162.5 -68.5t61.5 -183.5zM411 237q0 83 -38 130t-101 47t-101 -47t-38 -130t38 -130t101 -47t101 47t38 130z" />
    <glyph glyph-name="one.onum" horiz-adv-x="335" 
d="M29 419l153 56h68v-475h-84v392l-137 -49v76z" />
    <glyph glyph-name="two.onum" horiz-adv-x="495" 
d="M66 455q66 34 156 34q85 0 141 -40t56 -118q0 -21 -6 -41t-14 -36t-25.5 -35l-29 -30.5t-37 -31t-38 -28l-43.5 -29.5l-42 -28h247v-72h-380v64l88.5 63.5l80 57t57 46t42.5 49t12 46.5q0 44 -33 66t-85 22q-84 0 -147 -36v77z" />
    <glyph glyph-name="three.onum" horiz-adv-x="485" 
d="M119 146v73h69q63 0 102.5 26t39.5 76q0 47 -37 70t-96 23q-88 0 -151 -36v76q64 35 158 35q93 0 151.5 -41t58.5 -119q0 -107 -111 -143q51 -14 86 -51.5t35 -99.5q0 -92 -64.5 -138t-160.5 -46q-93 0 -164 37v77q75 -40 159 -40q63 0 103.5 27t40.5 83q0 59 -42 85
t-108 26h-69z" />
    <glyph glyph-name="four.onum" horiz-adv-x="498" 
d="M300 482h101v-375h79v-72h-79v-174h-80v174h-297v65zM118 107h204v286z" />
    <glyph glyph-name="five.onum" horiz-adv-x="487" 
d="M422 475v-72h-247l-17 -163h13q120 0 193.5 -45.5t73.5 -144.5q0 -95 -71 -146.5t-173 -51.5q-74 0 -140 27v76q65 -29 137 -29q69 0 114.5 31.5t45.5 89.5q0 124 -188 124q-51 0 -84 -6l-8 8l31 302h320z" />
    <glyph glyph-name="six.onum" horiz-adv-x="568" 
d="M491 516q-64 33 -140 33q-88 0 -138.5 -54.5t-57.5 -157.5q69 57 155 57q88 0 143 -49.5t55 -145.5q0 -91 -60 -152t-154 -61q-60 0 -104.5 24.5t-69.5 67t-37 93t-12 108.5q0 169 75.5 256t201.5 87q83 0 143 -30v-76zM424 196q0 65 -34 94.5t-89 29.5q-44 0 -84.5 -19
t-62.5 -47q6 -194 141 -194q57 0 93 37.5t36 98.5z" />
    <glyph glyph-name="seven.onum" horiz-adv-x="464" 
d="M31 475h393v-64q-112 -121 -183 -253.5t-100 -296.5h-84q24 160 97.5 299.5t172.5 242.5h-296v72z" />
    <glyph glyph-name="eight.onum" horiz-adv-x="531" 
d="M265 622q88 0 147 -44t59 -118q0 -102 -96 -141q110 -41 110 -155q0 -80 -62 -129t-158 -49t-158 49t-62 129q0 114 110 155q-96 39 -96 141q0 74 59 118t147 44zM265 551q-54 0 -90 -26t-36 -73q0 -49 36.5 -75t89.5 -26t89 26t36 75q0 47 -36 73t-89 26zM265 281
q-60 0 -99.5 -27.5t-39.5 -84.5q0 -52 40.5 -81.5t98.5 -29.5t98.5 29.5t40.5 81.5q0 57 -39.5 84.5t-99.5 27.5z" />
    <glyph glyph-name="nine.onum" horiz-adv-x="561" 
d="M76 -42q66 -33 142 -33q88 0 138.5 55t57.5 158q-69 -57 -156 -57q-88 0 -143.5 49.5t-55.5 145.5q0 91 60.5 152t155.5 61q60 0 105 -24.5t70.5 -67t37.5 -93t12 -108.5q0 -169 -76 -256.5t-204 -87.5q-82 0 -144 30v76zM144 279q0 -65 34.5 -94.5t89.5 -29.5
q45 0 85.5 19t61.5 47q-6 193 -141 193q-58 0 -94 -37t-36 -98z" />
    <glyph glyph-name="Euro.onum" horiz-adv-x="534" 
d="M28 144l11 52h62q-2 26 -2 42q0 24 2 36h-73l11 52h72q24 76 85 119.5t150 43.5q73 0 126 -25v-79q-55 29 -121 29q-113 0 -152 -88h240l-14 -52h-240q-2 -12 -2 -36q0 -22 3 -42h219l-14 -52h-189q40 -83 148 -83q68 0 128 38v-80q-58 -33 -138 -33q-85 0 -144 42.5
t-83 115.5h-85z" />
    <glyph glyph-name="sterling.onum" horiz-adv-x="514" 
d="M404 272v-57h-185q11 -35 11 -61q0 -55 -54 -87h272v-67h-395v55q42 21 67 43.5t25 52.5q0 25 -13 64h-79v57h62q-7 30 -7 60q0 75 55 116t139 41q82 0 145 -30v-81q-58 36 -139 36q-53 0 -85 -20.5t-32 -59.5q0 -31 9 -62h204z" />
    <glyph glyph-name="florin.onum" horiz-adv-x="496" 
d="M203 0h-83v203h-81v56h81v56q0 84 58 129t144 45q77 0 137 -29v-79q-54 33 -129 33q-127 0 -127 -97v-58h213v-56h-213v-203z" />
    <glyph glyph-name="yen.onum" horiz-adv-x="543" 
d="M504 475l-174 -218h131v-52h-150v-78h150v-52h-150v-75h-84v75h-150v52h150v78h-150v52h130l-173 218h92l147 -186l149 186h82z" />
    <glyph glyph-name="dollar.onum" horiz-adv-x="453" 
d="M199 -122v109q-84 4 -147 43v79q72 -48 170 -48q113 0 113 69q0 32 -30 48.5t-72.5 24.5t-84.5 18.5t-72 40t-30 79.5q0 63 42 99.5t111 45.5v99h66v-97q82 -5 134 -30v-77q-63 33 -155 33q-49 0 -83.5 -15.5t-34.5 -50.5q0 -30 30 -46t72 -23.5t84.5 -19t72.5 -42.5
t30 -83q0 -65 -40.5 -101t-109.5 -44v-111h-66z" />
    <glyph glyph-name="cent.onum" horiz-adv-x="491" 
d="M422 464v-79q-55 29 -121 29q-78 0 -123 -44.5t-45 -131.5t45 -132t122 -45q68 0 128 38v-80q-58 -32 -135 -33v-108h-66v115q-83 19 -131 85t-48 160q0 95 47.5 159.5t131.5 83.5v104h66v-96h3q73 0 126 -25z" />
    <glyph glyph-name="zero.tabonum" horiz-adv-x="525" 
d="M486 237q0 -115 -61.5 -183.5t-162.5 -68.5t-162.5 68.5t-61.5 183.5t61.5 183.5t162.5 68.5t162.5 -68.5t61.5 -183.5zM401 237q0 83 -38 130t-101 47t-101 -47t-38 -130t38 -130t101 -47t101 47t38 130z" />
    <glyph glyph-name="one.tabonum" horiz-adv-x="525" 
d="M89 402l202 73h68v-475h-84v395l-186 -66v73z" />
    <glyph glyph-name="two.tabonum" horiz-adv-x="525" 
d="M91 455q66 34 156 34q85 0 141 -40t56 -118q0 -21 -6 -41t-14 -36t-25.5 -35l-29 -30.5t-37 -31t-38 -28l-43.5 -29.5l-42 -28h247v-72h-380v64l88.5 63.5l80 57t57 46t42.5 49t12 46.5q0 44 -33 66t-85 22q-84 0 -147 -36v77z" />
    <glyph glyph-name="three.tabonum" horiz-adv-x="525" 
d="M144 146v73h69q63 0 102.5 26t39.5 76q0 47 -37 70t-96 23q-88 0 -151 -36v76q64 35 158 35q93 0 151.5 -41t58.5 -119q0 -107 -111 -143q51 -14 86 -51.5t35 -99.5q0 -92 -64.5 -138t-160.5 -46q-93 0 -164 37v77q75 -40 159 -40q63 0 103.5 27t40.5 83q0 59 -42 85
t-108 26h-69z" />
    <glyph glyph-name="four.tabonum" horiz-adv-x="525" 
d="M311 482h101v-375h79v-72h-79v-174h-80v174h-297v65zM129 107h204v286z" />
    <glyph glyph-name="five.tabonum" horiz-adv-x="525" 
d="M442 475v-72h-247l-17 -163h13q120 0 193.5 -45.5t73.5 -144.5q0 -95 -71 -146.5t-173 -51.5q-74 0 -140 27v76q65 -29 137 -29q69 0 114.5 31.5t45.5 89.5q0 124 -188 124q-51 0 -84 -6l-8 8l31 302h320z" />
    <glyph glyph-name="six.tabonumonum" horiz-adv-x="525" 
d="M474 516q-64 33 -140 33q-88 0 -138.5 -54.5t-57.5 -157.5q69 57 155 57q88 0 143 -49.5t55 -145.5q0 -91 -60 -152t-154 -61q-60 0 -104.5 24.5t-69.5 67t-37 93t-12 108.5q0 169 75.5 256t201.5 87q83 0 143 -30v-76zM407 196q0 65 -34 94.5t-89 29.5q-44 0 -84.5 -19
t-62.5 -47q6 -194 141 -194q57 0 93 37.5t36 98.5z" />
    <glyph glyph-name="seven.tabonum" horiz-adv-x="525" 
d="M91 475h393v-64q-112 -121 -183 -253.5t-100 -296.5h-84q24 160 97.5 299.5t172.5 242.5h-296v72z" />
    <glyph glyph-name="eight.tabonum" horiz-adv-x="525" 
d="M256 622q88 0 147 -44t59 -118q0 -102 -96 -141q110 -41 110 -155q0 -80 -62 -129t-158 -49t-158 49t-62 129q0 114 110 155q-96 39 -96 141q0 74 59 118t147 44zM256 551q-54 0 -90 -26t-36 -73q0 -49 36.5 -75t89.5 -26t89 26t36 75q0 47 -36 73t-89 26zM256 281
q-60 0 -99.5 -27.5t-39.5 -84.5q0 -52 40.5 -81.5t98.5 -29.5t98.5 29.5t40.5 81.5q0 57 -39.5 84.5t-99.5 27.5z" />
    <glyph glyph-name="nine.tabonum" horiz-adv-x="525" 
d="M51 -41q64 -33 140 -33q88 0 138.5 54.5t57.5 157.5q-69 -57 -155 -57q-88 0 -143 49.5t-55 145.5q0 91 60 152t154 61q60 0 104.5 -24.5t69.5 -67t37 -93t12 -108.5q0 -169 -75.5 -256t-201.5 -87q-83 0 -143 30v76zM118 279q0 -65 34 -94.5t89 -29.5q44 0 84.5 19
t62.5 47q-6 194 -141 194q-57 0 -93 -37.5t-36 -98.5z" />
    <glyph glyph-name="Euro.tabonum" horiz-adv-x="525" 
d="M38 144l11 52h62q-2 26 -2 42q0 24 2 36h-73l11 52h72q24 76 85 119.5t150 43.5q73 0 126 -25v-79q-55 29 -121 29q-113 0 -152 -88h240l-14 -52h-240q-2 -12 -2 -36q0 -22 3 -42h219l-14 -52h-189q40 -83 148 -83q68 0 128 38v-80q-58 -33 -138 -33q-85 0 -144 42.5
t-83 115.5h-85z" />
    <glyph glyph-name="sterling.tabonum" horiz-adv-x="525" 
d="M420 272v-57h-185q11 -35 11 -61q0 -55 -54 -87h272v-67h-395v55q42 21 67 43.5t25 52.5q0 25 -13 64h-79v57h62q-7 30 -7 60q0 75 55 116t139 41q82 0 145 -30v-81q-58 36 -139 36q-53 0 -85 -20.5t-32 -59.5q0 -31 9 -62h204z" />
    <glyph glyph-name="florin.tabonum" horiz-adv-x="525" 
d="M221 0h-83v203h-81v56h81v56q0 84 58 129t144 45q77 0 137 -29v-79q-54 33 -129 33q-127 0 -127 -97v-58h213v-56h-213v-203z" />
    <glyph glyph-name="yen.tabonum" horiz-adv-x="525" 
d="M497 475l-174 -218h131v-52h-150v-78h150v-52h-150v-75h-84v75h-150v52h150v78h-150v52h130l-173 218h92l147 -186l149 186h82z" />
    <glyph glyph-name="dollar.tabonum" horiz-adv-x="525" 
d="M240 -122v109q-84 4 -147 43v79q72 -48 170 -48q113 0 113 69q0 32 -30 48.5t-72 24.5t-84.5 18.5t-72.5 40t-30 79.5q0 63 42 99.5t111 45.5v99h66v-97q82 -5 134 -30v-77q-63 33 -155 33q-49 0 -83.5 -15.5t-34.5 -50.5q0 -30 30 -46t72.5 -23.5t84.5 -19t72 -42.5
t30 -83q0 -65 -40.5 -101t-109.5 -44v-111h-66z" />
    <glyph glyph-name="cent.tabonum" horiz-adv-x="525" 
d="M452 464v-79q-55 29 -121 29q-78 0 -123 -44.5t-45 -131.5t45 -132t122 -45q68 0 128 38v-80q-58 -32 -135 -33v-108h-66v115q-83 19 -131 85t-48 160q0 95 47.5 159.5t131.5 83.5v104h66v-96h3q73 0 126 -25z" />
    <glyph glyph-name="zero.pnum" horiz-adv-x="637" 
d="M319 690q118 0 187 -93.5t69 -259.5q0 -164 -69 -257.5t-187 -93.5t-187 93.5t-69 257.5q0 166 69 259.5t187 93.5zM319 613q-79 0 -120.5 -74.5t-41.5 -200.5t41.5 -200.5t120.5 -74.5t120.5 74.5t41.5 200.5t-41.5 200.5t-120.5 74.5z" />
    <glyph glyph-name="one.pnum" horiz-adv-x="343" 
d="M20 676h215v-676h-89v599h-126v77z" />
    <glyph glyph-name="two.pnum" horiz-adv-x="531" 
d="M69 557v87q76 46 174 46t161.5 -51t63.5 -153q0 -85 -40.5 -145t-126.5 -136l-144 -128h318v-77h-427v70l207 202q63 62 91.5 108t28.5 103q0 65 -39 97.5t-102 32.5q-90 0 -165 -56z" />
    <glyph glyph-name="three.pnum" horiz-adv-x="522" 
d="M54 676h409v-69l-212 -214q93 -1 155.5 -49t62.5 -144q0 -101 -68 -157.5t-179 -56.5q-102 0 -178 41v84q74 -48 174 -48q73 0 115.5 34.5t42.5 99.5q0 132 -163 132q-36 0 -69 -5v65l210 210h-300v77z" />
    <glyph glyph-name="four.pnum" horiz-adv-x="552" 
d="M19 249l323 427h102v-426h79v-78h-79v-172h-85v172h-340v77zM110 250h249v326z" />
    <glyph glyph-name="five.pnum" horiz-adv-x="548" 
d="M243 -14q-100 0 -180 43v80q81 -46 175 -46q69 0 111.5 35t42.5 112q0 73 -46.5 104.5t-120.5 31.5q-65 0 -130 -21l-17 19l44 332h344v-77h-273l-24 -183q31 7 70 7q45 0 85.5 -10t78 -33t59.5 -65.5t22 -101.5q0 -115 -68.5 -171t-172.5 -56z" />
    <glyph glyph-name="six.pnum" horiz-adv-x="576" 
d="M499 661v-81q-66 33 -154 33q-90 0 -144.5 -59.5t-58.5 -189.5q66 66 169 66q93 0 154.5 -54t61.5 -158q0 -102 -62.5 -167t-168.5 -65t-174.5 82t-68.5 245q0 194 81.5 285.5t208.5 91.5q94 0 156 -29zM145 276q1 -53 14.5 -98.5t49 -80t87.5 -34.5q63 0 101.5 39.5
t38.5 109.5q0 69 -36 104.5t-101 35.5q-47 0 -90 -23t-64 -53z" />
    <glyph glyph-name="seven.pnum" horiz-adv-x="493" 
d="M475 676v-71q-117 -131 -185.5 -272.5t-94.5 -332.5h-95q57 380 271 599h-339v77h443z" />
    <glyph glyph-name="eight.pnum" horiz-adv-x="603" 
d="M302 313q-65 0 -107 -29.5t-42 -94.5q0 -60 43.5 -93t105.5 -33t105.5 33t43.5 93q0 65 -42 94.5t-107 29.5zM302 690q98 0 161.5 -50t63.5 -130q0 -112 -101 -156q116 -40 116 -170q0 -86 -65.5 -142t-174.5 -56t-175 56t-66 142q0 130 117 170q-101 44 -101 156
q0 80 63.5 130t161.5 50zM302 613q-57 0 -95 -28.5t-38 -82.5q0 -56 38 -83.5t95 -27.5t94.5 27.5t37.5 83.5q0 54 -38 82.5t-94 28.5z" />
    <glyph glyph-name="nine.pnum" horiz-adv-x="576" 
d="M76 15v81q66 -33 154 -33q90 0 144.5 59.5t58.5 189.5q-66 -66 -169 -66q-93 0 -154.5 54t-61.5 158q0 100 69 166t171 66q110 0 172 -80.5t62 -246.5q0 -194 -81.5 -285.5t-208.5 -91.5q-94 0 -156 29zM429 400q0 40 -7 74.5t-22 67.5t-43.5 52t-68.5 19q-64 0 -106 -40
t-42 -109t35.5 -104.5t100.5 -35.5q47 0 90 23t63 53z" />
    <glyph glyph-name="Euro.pnum" horiz-adv-x="586" 
d="M524 667v-78q-49 24 -125 24q-168 0 -197 -161h286l-14 -55h-279q-4 -25 -4 -58q0 -15 2 -45h256l-14 -55h-233q17 -92 73 -134t135 -42q60 0 119 32v-81q-59 -28 -139 -28q-103 0 -180.5 63.5t-97.5 189.5h-87l14 55h65q0 8 -0.5 22t-0.5 22q0 29 3 59h-81l14 55h74
q23 120 99 179t178 59q76 0 134 -23z" />
    <glyph glyph-name="sterling.pnum" horiz-adv-x="516" 
d="M37 312v64h88q-21 66 -21 122q0 85 59.5 138.5t154.5 53.5q87 0 152 -34v-81q-64 38 -149 38q-61 0 -96.5 -28.5t-35.5 -84.5q0 -58 23 -124h211v-64h-190q12 -48 12 -83q0 -54 -19 -88t-63 -64h318v-77h-429v66q60 35 84 68.5t24 87.5q0 42 -15 90h-108z" />
    <glyph glyph-name="florin.pnum" horiz-adv-x="501" 
d="M29 376h90v107q0 106 60.5 156.5t150.5 50.5q71 0 137 -27v-82q-66 32 -132 32q-58 0 -95 -30.5t-37 -100.5v-106h225v-64h-225v-312h-84v312h-90v64z" />
    <glyph glyph-name="yen.pnum" horiz-adv-x="539" 
d="M531 676l-203 -335h145v-55h-161v-103h161v-55h-161v-128h-90v128h-161v55h161v103h-161v55h145l-197 335h96l168 -292l173 292h85z" />
    <glyph glyph-name="dollar.pnum" horiz-adv-x="562" 
d="M251 -110v115q-103 2 -178 45v79q89 -49 187 -49q144 0 144 108q0 35 -24.5 59t-61.5 36t-80.5 28.5t-80.5 34.5t-61.5 54.5t-24.5 87.5q0 75 50.5 121t129.5 57v111h73v-107q82 -4 151 -36v-79q-80 39 -173 39q-59 0 -99.5 -24t-40.5 -78q0 -38 34.5 -63t83 -40.5
t97.5 -34.5t83.5 -58.5t34.5 -99.5q0 -82 -47.5 -128t-123.5 -58v-120h-73z" />
    <glyph glyph-name="cent.pnum" horiz-adv-x="526" 
d="M240 -110v162q-93 20 -145.5 97t-52.5 188t52.5 186.5t145.5 94.5v159h73v-151q80 -3 134 -33v-81q-68 34 -138 34q-79 0 -130 -50.5t-51 -158.5q0 -109 50.5 -160.5t129.5 -51.5q72 0 145 38v-80q-54 -33 -140 -36v-157h-73z" />
    </font>
</defs>
</svg>
