<?xml version="1.0" standalone="no"?>
<!DOCTYPE svg PUBLIC "-//W3C//DTD SVG 1.1//EN" "http://www.w3.org/Graphics/SVG/1.1/DTD/svg11.dtd" >
<svg>
<metadata>
Created by FontForge 20090622 at Fri Feb 16 21:43:33 2018
 By deploy user
Copyright (c) 2009 by Peugeot. All rights reserved.
</metadata>
<defs>
<font id="Peugeot-Bold" horiz-adv-x="578" >
  <font-face 
    font-family="Peugeot"
    font-weight="700"
    font-stretch="normal"
    units-per-em="1000"
    panose-1="2 0 5 3 4 0 0 2 0 3"
    ascent="800"
    descent="-200"
    x-height="475"
    cap-height="676"
    bbox="-36 -260 1248 1023"
    underline-thickness="60"
    underline-position="-82"
    unicode-range="U+0020-U+FB02"
  />
<missing-glyph horiz-adv-x="566" 
d="M470 676v-676h-374v676h374zM190 587l93 -196l94 196h-187zM283 284l-93 -195h187zM309 338l73 -155v310zM258 338l-74 155v-310z" />
    <glyph glyph-name="fi" unicode="fi" horiz-adv-x="626" 
d="M539 692v-140q-85 45 -182 45q-124 0 -124 -77v-45h320v-475h-145v352h-175v-352h-145v352h-64v123h64v44q0 58 22 100t60 64.5t82.5 33t97.5 10.5q103 0 189 -35z" />
    <glyph glyph-name="fl" unicode="fl" horiz-adv-x="651" 
d="M546 685v-525q0 -24 8.5 -34t26.5 -10q25 0 51 13v-130q-39 -16 -88 -16q-142 0 -142 169v439q-28 6 -57 6q-47 0 -79.5 -18t-32.5 -61v-43h89v-123h-89v-352h-145v352h-64v123h64v42q0 76 38 125t92 67t123 18q114 0 205 -42z" />
    <glyph glyph-name=".notdef" horiz-adv-x="566" 
d="M470 676v-676h-374v676h374zM190 587l93 -196l94 196h-187zM283 284l-93 -195h187zM309 338l73 -155v310zM258 338l-74 155v-310z" />
    <glyph glyph-name=".null" horiz-adv-x="0" 
 />
    <glyph glyph-name="nonmarkingreturn" horiz-adv-x="333" 
 />
    <glyph glyph-name="space" unicode=" " horiz-adv-x="268" 
 />
    <glyph glyph-name="exclam" unicode="!" horiz-adv-x="325" 
d="M246 676l-18 -463h-131l-19 463h168zM88 0v150h149v-150h-149z" />
    <glyph glyph-name="quotedbl" unicode="&#x22;" horiz-adv-x="491" 
d="M425 676l-17 -277h-108l-19 277h144zM210 676l-17 -277h-109l-18 277h144z" />
    <glyph glyph-name="numbersign" unicode="#" horiz-adv-x="675" 
d="M661 531l-20 -113h-111l-27 -150h111l-21 -113h-110l-28 -155h-118l28 155h-125l-28 -155h-118l28 155h-110l20 113h111l27 150h-111l21 113h110l26 145h117l-25 -145h125l26 145h117l-25 -145h110zM413 418h-126l-27 -150h126z" />
    <glyph glyph-name="dollar" unicode="$" 
d="M247 -110v110q-103 5 -181 42v129q98 -44 187 -44q102 0 102 70q0 23 -22 40.5t-55 29t-71.5 29t-71.5 37.5t-55 56.5t-22 84.5q0 79 50 129.5t139 65.5v109h96v-102q89 -3 158 -29v-134q-72 36 -170 36q-107 0 -107 -65q0 -23 30.5 -40t74 -31.5t87.5 -35t74.5 -62
t30.5 -100.5q0 -174 -178 -209v-116h-96z" />
    <glyph glyph-name="percent" unicode="%" horiz-adv-x="912" 
d="M695 676l-370 -676h-108l371 676h107zM208 261q-79 0 -125 60.5t-46 155.5t46 155.5t125 60.5t125 -60.5t46 -155.5t-46 -155.5t-125 -60.5zM208 589q-32 0 -49 -31t-17 -81t17 -81t49 -31t49 31t17 81t-17 81t-49 31zM704 -17q-79 0 -125 60.5t-46 155.5t46 155.5
t125 60.5t125 -60.5t46 -155.5t-46 -155.5t-125 -60.5zM704 311q-32 0 -49 -31t-17 -81t17 -81t49 -31t49 31t17 81t-17 81t-49 31z" />
    <glyph glyph-name="ampersand" unicode="&#x26;" horiz-adv-x="716" 
d="M425 398h274v-130h-64q0 -126 -77.5 -205.5t-223.5 -79.5q-134 0 -211 55.5t-77 161.5q0 63 31.5 107.5t79.5 61.5q-86 39 -86 141q0 86 72.5 134.5t201.5 48.5q98 0 166 -30v-138q-68 34 -167 34q-110 0 -110 -63q0 -33 23.5 -50t66.5 -17h48v-132h-51
q-48 0 -80.5 -19.5t-32.5 -64.5q0 -49 36 -73t97 -24q153 0 153 152h-69v130z" />
    <glyph glyph-name="quotesingle" unicode="'" horiz-adv-x="276" 
d="M210 676l-17 -277h-109l-18 277h144z" />
    <glyph glyph-name="parenleft" unicode="(" horiz-adv-x="309" 
d="M41 260q0 222 134 450h128q-3 -6 -25 -47t-28 -54l-23.5 -52t-24 -64.5l-16.5 -65t-13.5 -80.5t-3.5 -87t3.5 -87t13.5 -80.5l16.5 -65t24 -64.5l23.5 -52t28 -54t25 -47h-128q-134 228 -134 450z" />
    <glyph glyph-name="parenright" unicode=")" horiz-adv-x="318" 
d="M268 260q0 -222 -134 -450h-128q3 6 25 47t28 54l23.5 52t24 64.5l16.5 65t13.5 80.5t3.5 87t-3.5 87t-13.5 80.5l-16.5 65t-24 64.5l-23.5 52t-28 54t-25 47h128q134 -228 134 -450z" />
    <glyph glyph-name="asterisk" unicode="*" horiz-adv-x="394" 
d="M136 676h122l-17 -109l109 55l29 -109l-109 -24l77 -84l-90 -73l-60 112l-59 -112l-90 73l76 84l-109 24l29 109l110 -55z" />
    <glyph glyph-name="plus" unicode="+" 
d="M522 370v-118h-180v-174h-109v174h-177v118h177v174h109v-174h180z" />
    <glyph glyph-name="comma" unicode="," horiz-adv-x="290" 
d="M67 150h140q12 -41 12 -91q0 -91 -50 -162t-139 -104l-47 109q99 56 99 154q0 46 -15 94z" />
    <glyph glyph-name="hyphen" unicode="-" horiz-adv-x="393" 
d="M335 341v-128h-277v128h277z" />
    <glyph glyph-name="period" unicode="." horiz-adv-x="290" 
d="M70 0v150h149v-150h-149z" />
    <glyph glyph-name="slash" unicode="/" horiz-adv-x="399" 
d="M399 676l-280 -676h-119l280 676h119z" />
    <glyph glyph-name="zero" unicode="0" 
d="M289 693q138 0 213.5 -101t75.5 -254t-75.5 -254t-213.5 -101t-213.5 101t-75.5 254t75.5 254t213.5 101zM289 559q-66 0 -98 -58.5t-32 -162.5t32 -163t98 -59t98 59t32 163t-32 162.5t-98 58.5z" />
    <glyph glyph-name="one" unicode="1" 
d="M397 676v-676h-156v545h-126v131h282z" />
    <glyph glyph-name="two" unicode="2" 
d="M513 131v-131h-460v125l214 201q76 72 76 143q0 91 -109 91q-40 0 -85.5 -12.5t-70.5 -28.5v138q80 36 176 36q107 0 179.5 -52.5t72.5 -162.5q0 -76 -29 -128.5t-89 -102.5l-139 -116h264z" />
    <glyph glyph-name="three" unicode="3" 
d="M61 545v131h442v-117l-180 -165q76 -6 130 -52.5t54 -133.5q0 -110 -73 -167.5t-192 -57.5q-111 0 -191 43v138q90 -48 178 -48q53 0 84 22t31 68q0 85 -126 85q-43 0 -73 -5v107l172 152h-256z" />
    <glyph glyph-name="four" unicode="4" 
d="M13 297l291 379h182v-383h72v-128h-72v-165h-144v165h-329v132zM166 293h176v228z" />
    <glyph glyph-name="five" unicode="5" 
d="M260 -17q-122 0 -202 43v138q90 -48 184 -48q120 0 120 89q0 94 -130 94q-74 0 -137 -21l-30 29l48 369h394v-131h-265l-16 -123q28 2 45 2q51 0 94 -10t80 -32.5t58.5 -64t21.5 -99.5q0 -118 -74.5 -176.5t-190.5 -58.5z" />
    <glyph glyph-name="six" unicode="6" 
d="M549 657v-138q-65 40 -164 40q-167 0 -167 -168q56 43 141 43q94 0 159.5 -51.5t65.5 -155.5q0 -110 -67.5 -177t-188.5 -67t-194.5 84.5t-73.5 255.5q0 98 25.5 171.5t70 115.5t98.5 62.5t118 20.5q105 0 177 -36zM223 259q0 -77 31 -110t75 -33q41 0 69.5 24.5
t28.5 70.5t-27 68.5t-72 22.5q-30 0 -59.5 -12t-45.5 -31z" />
    <glyph glyph-name="seven" unicode="7" 
d="M532 676v-122q-101 -114 -156 -241.5t-77 -312.5h-170q15 146 80.5 297t150.5 248h-300v131h472z" />
    <glyph glyph-name="eight" unicode="8" 
d="M302 287q-48 0 -77 -22t-29 -65t29.5 -66.5t76.5 -23.5q46 0 76 23.5t30 66.5t-29.5 65t-76.5 22zM302 -17q-126 0 -197 56t-71 146q0 122 110 167q-96 45 -96 151q0 88 69.5 139.5t184.5 51.5t184.5 -51.5t69.5 -139.5q0 -105 -96 -151q110 -45 110 -167q0 -90 -71 -146
t-197 -56zM302 566q-92 0 -92 -80q0 -78 92 -78t92 78q0 80 -92 80z" />
    <glyph glyph-name="nine" unicode="9" 
d="M63 18v138q65 -40 164 -40q167 0 167 168q-56 -43 -141 -43q-94 0 -159.5 51.5t-65.5 155.5q0 110 67.5 177t188.5 67t194.5 -84.5t73.5 -255.5q0 -98 -25.5 -171.5t-70 -115.5t-98.5 -62.5t-118 -20.5q-105 0 -177 36zM389 416q0 77 -31 110t-75 33q-41 0 -69.5 -24.5
t-28.5 -70.5t27 -68.5t72 -22.5q30 0 59.5 12t45.5 31z" />
    <glyph glyph-name="colon" unicode=":" horiz-adv-x="290" 
d="M70 325v150h149v-150h-149zM70 0v150h149v-150h-149z" />
    <glyph glyph-name="semicolon" unicode=";" horiz-adv-x="290" 
d="M67 150h140q12 -41 12 -91q0 -91 -50 -162t-139 -104l-47 109q99 56 99 154q0 46 -15 94zM70 325v150h149v-150h-149z" />
    <glyph glyph-name="less" unicode="&#x3c;" 
d="M522 563v-122l-336 -130l336 -130v-123l-466 190v126z" />
    <glyph glyph-name="equal" unicode="=" 
d="M522 488v-118h-466v118h466zM522 252v-118h-466v118h466z" />
    <glyph glyph-name="greater" unicode="&#x3e;" 
d="M56 441v122l466 -189v-126l-466 -190v123l336 130z" />
    <glyph glyph-name="question" unicode="?" horiz-adv-x="439" 
d="M130 213v71q0 41 10.5 72t22.5 46t37 38q42 38 42 66q0 53 -81 53q-61 0 -113 -26v136q55 24 137 24q90 0 152 -44t62 -133t-73 -158q-20 -19 -28.5 -28.5t-18 -27.5t-9.5 -36v-53h-140zM126 0v150h149v-150h-149z" />
    <glyph glyph-name="at" unicode="@" horiz-adv-x="773" 
d="M535 375v-145q0 -58 52 -58q61 0 61 115q0 101 -68 163.5t-193 62.5q-117 0 -189 -66.5t-72 -184.5q0 -144 74.5 -210t195.5 -66q119 0 208 38v-94q-88 -37 -211 -37q-156 0 -256 93t-100 276q0 152 99.5 246t250.5 94q163 0 256 -87.5t93 -224.5q0 -103 -42.5 -157
t-124.5 -54q-66 0 -97 43q-47 -42 -102 -42q-67 0 -109.5 43.5t-42.5 122.5q0 86 50 127.5t124 41.5q81 0 143 -40zM438 216v92q-23 13 -48 13q-67 0 -67 -72q0 -38 16.5 -57.5t44.5 -19.5q20 0 34.5 13.5t19.5 30.5z" />
    <glyph glyph-name="A" unicode="A" horiz-adv-x="682" 
d="M411 676l271 -676h-171l-44 116h-273l-44 -116h-150l273 676h138zM331 476l-90 -234h178z" />
    <glyph glyph-name="B" unicode="B" horiz-adv-x="669" 
d="M96 676h232q278 0 278 -185q0 -103 -100 -144q47 -10 82 -49t35 -103q0 -101 -79.5 -148t-215.5 -47h-232v676zM252 545v-139h76q58 0 87 15t29 55t-28.5 54.5t-87.5 14.5h-76zM252 280v-149h81q128 0 128 75q0 74 -128 74h-81z" />
    <glyph glyph-name="C" unicode="C" horiz-adv-x="625" 
d="M45 338q0 157 92 256t256 99q127 0 189 -37v-135q-64 38 -177 38q-91 0 -144.5 -57.5t-53.5 -163.5t53.5 -164t144.5 -58q104 0 181 46v-135q-80 -44 -193 -44q-164 0 -256 99t-92 256z" />
    <glyph glyph-name="D" unicode="D" horiz-adv-x="739" 
d="M252 545v-414h87q193 0 193 208q0 206 -193 206h-87zM96 676h243q166 0 260.5 -85.5t94.5 -252.5t-94.5 -252.5t-260.5 -85.5h-243v676z" />
    <glyph glyph-name="E" unicode="E" horiz-adv-x="612" 
d="M543 676v-131h-299v-138h265v-131h-265v-93q0 -27 10 -39.5t36 -12.5h264v-131h-292q-90 0 -132 45.5t-42 137.5v493h455z" />
    <glyph glyph-name="F" unicode="F" horiz-adv-x="609" 
d="M552 676v-131h-300v-160h266v-131h-266v-254h-156v676h456z" />
    <glyph glyph-name="G" unicode="G" horiz-adv-x="785" 
d="M704 398v-335q-55 -36 -135.5 -58t-156.5 -22q-74 0 -138.5 20.5t-116.5 62t-82 111.5t-30 161t33.5 161.5t91 111.5t126.5 61.5t147 20.5q141 0 248 -48v-140q-114 54 -245 54q-48 0 -88.5 -10.5t-75.5 -34.5t-55 -69t-20 -107q0 -115 61.5 -168.5t153.5 -53.5
q75 0 130 24v130h-153v128h305z" />
    <glyph glyph-name="H" unicode="H" horiz-adv-x="793" 
d="M697 676v-676h-156v277h-289v-277h-156v676h156v-263h289v263h156z" />
    <glyph glyph-name="I" unicode="I" horiz-adv-x="348" 
d="M252 676v-676h-156v676h156z" />
    <glyph glyph-name="J" unicode="J" horiz-adv-x="433" 
d="M346 676v-476q0 -217 -195 -217q-65 0 -117 24v135q43 -26 90 -26q35 0 50.5 16.5t15.5 56.5v487h156z" />
    <glyph glyph-name="K" unicode="K" horiz-adv-x="690" 
d="M683 676l-291 -323l298 -353h-200l-240 287v-287h-157v676h157v-279l251 279h182z" />
    <glyph glyph-name="L" unicode="L" horiz-adv-x="552" 
d="M88 676h156v-493q0 -27 10 -39.5t36 -12.5h247v-131h-275q-90 0 -132 45.5t-42 137.5v493z" />
    <glyph glyph-name="M" unicode="M" horiz-adv-x="944" 
d="M542 132h-140l-152 278v-410h-154v676h152l224 -380l224 380h152v-676h-154v410z" />
    <glyph glyph-name="N" unicode="N" horiz-adv-x="783" 
d="M687 676v-676h-133l-306 413v-413h-152v676h133l306 -413v413h152z" />
    <glyph glyph-name="O" unicode="O" horiz-adv-x="808" 
d="M763 338q0 -164 -98.5 -259.5t-260.5 -95.5t-260.5 95t-98.5 260t98.5 260t260.5 95t260.5 -95.5t98.5 -259.5zM600 338q0 102 -51 161.5t-145 59.5q-95 0 -145.5 -59.5t-50.5 -161.5t50.5 -162t145.5 -60q94 0 145 60t51 162z" />
    <glyph glyph-name="P" unicode="P" horiz-adv-x="675" 
d="M252 220v-220h-156v676h248q134 0 210.5 -58t76.5 -170t-76.5 -170t-210.5 -58h-92zM252 545v-194h92q124 0 124 97t-124 97h-92z" />
    <glyph glyph-name="Q" unicode="Q" horiz-adv-x="808" 
d="M763 339q0 -127 -60.5 -214.5t-165.5 -121.5l155 -172h-189l-107 152q-159 2 -255 97.5t-96 258.5q0 164 98.5 259t260.5 95t260.5 -95t98.5 -259zM600 339q0 102 -51 161t-145 59t-145 -59t-51 -161t51 -162.5t145 -60.5t145 60.5t51 162.5z" />
    <glyph glyph-name="R" unicode="R" horiz-adv-x="678" 
d="M252 226v-226h-156v676h258q126 0 201.5 -58.5t75.5 -165.5q0 -150 -148 -193l159 -259h-176l-132 226h-82zM252 545v-188h92q124 0 124 94t-124 94h-92z" />
    <glyph glyph-name="S" unicode="S" horiz-adv-x="574" 
d="M494 522q-70 37 -166 37q-106 0 -106 -68q0 -27 30 -46t73 -34t86 -35.5t73 -63t30 -104.5q0 -119 -70.5 -172t-177.5 -53q-111 0 -197 43v136q94 -46 182 -46q101 0 101 73q0 32 -30 53t-73 36t-86 35t-73 62.5t-30 105.5q0 100 71.5 156t192.5 56q97 0 170 -30v-141z
" />
    <glyph glyph-name="T" unicode="T" horiz-adv-x="605" 
d="M590 676v-131h-209v-545h-157v545h-209v131h575z" />
    <glyph glyph-name="U" unicode="U" horiz-adv-x="720" 
d="M641 676v-427q0 -127 -76.5 -196.5t-204.5 -69.5q-127 0 -204 69.5t-77 196.5v427h156v-428q0 -66 34.5 -99t90.5 -33q57 0 92 33t35 99v428h154z" />
    <glyph glyph-name="V" unicode="V" horiz-adv-x="681" 
d="M351 202l180 474h150l-277 -676h-134l-270 676h171z" />
    <glyph glyph-name="W" unicode="W" horiz-adv-x="992" 
d="M426 676h140l144 -477l118 477h164l-183 -676h-166l-147 475l-146 -475h-167l-183 676h164l118 -477z" />
    <glyph glyph-name="X" unicode="X" horiz-adv-x="653" 
d="M636 676l-222 -321l239 -355h-180l-150 224l-154 -224h-169l240 346l-221 330h178l134 -197l136 197h169z" />
    <glyph glyph-name="Y" unicode="Y" horiz-adv-x="635" 
d="M635 676l-240 -409v-267h-156v267l-239 409h174l152 -270l152 270h157z" />
    <glyph glyph-name="Z" unicode="Z" horiz-adv-x="618" 
d="M571 676v-118l-336 -427h346v-131h-545v108l345 437h-338v131h528z" />
    <glyph glyph-name="bracketleft" unicode="[" horiz-adv-x="355" 
d="M331 710v-130h-110v-638h110v-132h-235v900h235z" />
    <glyph glyph-name="backslash" unicode="\" horiz-adv-x="398" 
d="M279 0l-280 676h119l280 -676h-119z" />
    <glyph glyph-name="bracketright" unicode="]" horiz-adv-x="355" 
d="M24 580v130h235v-900h-235v132h110v638h-110z" />
    <glyph glyph-name="asciicircum" unicode="^" 
d="M244 676h90l211 -443h-120l-136 288l-136 -288h-120z" />
    <glyph glyph-name="underscore" unicode="_" horiz-adv-x="598" 
d="M582 -17v-105h-567v105h567z" />
    <glyph glyph-name="grave" unicode="`" horiz-adv-x="510" 
d="M264 710l74 -151h-108l-124 151h158z" />
    <glyph glyph-name="a" unicode="a" horiz-adv-x="568" 
d="M495 458v-458h-114l-11 42q-49 -59 -128 -59q-84 0 -144.5 62.5t-60.5 182.5q0 125 70.5 194.5t190.5 69.5q98 0 197 -34zM350 141v221q-22 6 -47 6q-52 0 -85.5 -32t-33.5 -101q0 -61 25.5 -90t68.5 -29q44 0 72 25z" />
    <glyph glyph-name="b" unicode="b" horiz-adv-x="568" 
d="M218 710v-241q46 23 102 23q88 0 149.5 -60t61.5 -184t-69.5 -194.5t-188.5 -70.5q-122 0 -200 43v684h145zM218 338v-223q19 -8 50 -8q52 0 84 32t32 100q0 62 -26 92.5t-68 30.5t-72 -24z" />
    <glyph glyph-name="c" unicode="c" horiz-adv-x="471" 
d="M419 467v-129q-56 31 -116 31q-57 0 -87.5 -36t-30.5 -96t30 -95t88 -35q64 0 121 33v-129q-56 -28 -138 -28q-117 0 -183 72t-66 183q0 116 68 185t185 69q79 0 129 -25z" />
    <glyph glyph-name="d" unicode="d" horiz-adv-x="568" 
d="M495 710v-710h-114l-11 42q-49 -59 -128 -59q-84 0 -144.5 62.5t-60.5 182.5q0 125 70.5 194.5t190.5 69.5q28 0 52 -3v221h145zM350 141v221q-22 6 -47 6q-52 0 -85.5 -32t-33.5 -101q0 -61 25.5 -90t68.5 -29q44 0 72 25z" />
    <glyph glyph-name="e" unicode="e" horiz-adv-x="545" 
d="M507 188h-316q13 -81 135 -81q92 0 166 33v-123q-27 -15 -81.5 -25t-102.5 -10q-57 0 -104 14t-85.5 43t-60 80.5t-21.5 121.5q0 118 68 184.5t174 66.5q112 0 170 -63t58 -154v-87zM190 284h170q-3 95 -85 95q-76 0 -85 -95z" />
    <glyph glyph-name="f" unicode="f" horiz-adv-x="351" 
d="M233 0h-145v352h-64v123h64v52q0 103 54.5 151.5t139.5 48.5q33 0 69 -9v-129q-21 8 -47 8q-71 0 -71 -72v-50h114v-123h-114v-352z" />
    <glyph glyph-name="g" unicode="g" horiz-adv-x="568" 
d="M495 458v-441q0 -112 -65.5 -168t-179.5 -56q-111 0 -187 38v136q76 -50 172 -50q114 0 114 97v21q-38 -35 -107 -35q-85 0 -145 58t-60 177q0 118 71 187.5t190 69.5q98 0 197 -34zM350 362q-24 6 -48 6q-52 0 -85 -29.5t-33 -94.5q0 -117 95 -117q43 0 71 25v210z" />
    <glyph glyph-name="h" unicode="h" horiz-adv-x="593" 
d="M73 0v710h145v-264q56 46 136 46q76 0 123.5 -49t47.5 -148v-295h-144v281q0 74 -75 74q-48 0 -88 -25v-330h-145z" />
    <glyph glyph-name="i" unicode="i" horiz-adv-x="291" 
d="M218 475v-475h-145v475h145zM218 693v-131h-145v131h145z" />
    <glyph glyph-name="j" unicode="j" horiz-adv-x="291" 
d="M73 475h145v-505q0 -177 -142 -177q-50 0 -89 16v130q26 -13 51 -13q18 0 26.5 10t8.5 34v505zM218 693v-131h-145v131h145z" />
    <glyph glyph-name="k" unicode="k" horiz-adv-x="547" 
d="M547 475l-197 -206l199 -269h-177l-154 213v-213h-145v710h145v-407l159 172h170z" />
    <glyph glyph-name="l" unicode="l" horiz-adv-x="330" 
d="M210 710v-550q0 -24 8.5 -34t26.5 -10q25 0 51 13v-130q-39 -16 -89 -16q-142 0 -142 169v558h145z" />
    <glyph glyph-name="m" unicode="m" horiz-adv-x="869" 
d="M73 0v475h129l9 -36q60 53 137 53q87 0 131 -65q72 65 163 65q75 0 117 -46t42 -135v-311h-145v292q0 63 -65 63q-42 0 -83 -25q1 -6 1 -19v-311h-144v292q0 63 -65 63q-41 0 -82 -25v-330h-145z" />
    <glyph glyph-name="n" unicode="n" horiz-adv-x="593" 
d="M202 475l9 -36q55 53 143 53q76 0 123.5 -49t47.5 -148v-295h-144v281q0 74 -75 74q-48 0 -88 -25v-330h-145v475h129z" />
    <glyph glyph-name="o" unicode="o" 
d="M289 492q114 0 183 -67t69 -187t-69 -187.5t-183 -67.5t-183 67.5t-69 187.5t69 187t183 67zM289 368q-47 0 -75.5 -35t-28.5 -95t28.5 -95.5t75.5 -35.5t75.5 35.5t28.5 95.5t-28.5 95t-75.5 35z" />
    <glyph glyph-name="p" unicode="p" horiz-adv-x="568" 
d="M202 475l9 -36q51 53 122 53q79 0 138 -60.5t59 -188.5q0 -123 -69.5 -191.5t-179.5 -68.5q-31 0 -63 6v-179h-145v665h129zM218 338v-223q19 -8 50 -8q51 0 83 32t32 100q0 62 -25.5 92.5t-67.5 30.5q-43 0 -72 -24z" />
    <glyph glyph-name="q" unicode="q" horiz-adv-x="568" 
d="M349 -190v211q-46 -38 -108 -38q-84 0 -144 62.5t-60 182.5q0 125 70 194.5t190 69.5q99 0 198 -34v-648h-146zM350 141v221q-22 6 -47 6q-52 0 -85.5 -32t-33.5 -101q0 -61 25.5 -90t68.5 -29q44 0 72 25z" />
    <glyph glyph-name="r" unicode="r" horiz-adv-x="388" 
d="M367 492v-153q-95 0 -149 -39v-300h-145v475h129l9 -60q25 23 42 36t49 27t65 14z" />
    <glyph glyph-name="s" unicode="s" horiz-adv-x="486" 
d="M421 469v-123q-64 32 -156 32q-80 0 -80 -38q0 -16 19 -24.5t47.5 -11.5t62 -12t62 -21.5t47.5 -43.5t19 -77q0 -84 -62 -125.5t-155 -41.5q-96 0 -175 36v127q85 -43 172 -43q75 0 75 39q0 15 -19 24t-47.5 13t-62 13t-62 22t-47.5 41.5t-19 69.5q0 85 62 126t161 41
q91 0 158 -23z" />
    <glyph glyph-name="t" unicode="t" horiz-adv-x="392" 
d="M354 475v-123h-122v-181q0 -55 50 -55q37 0 79 24v-129q-47 -28 -118 -28q-156 0 -156 178v191h-64v123h64l21 151h124v-151h122z" />
    <glyph glyph-name="u" unicode="u" horiz-adv-x="569" 
d="M495 0h-115l-11 42q-59 -59 -138 -59q-80 0 -124 49.5t-44 140.5v302h145v-292q0 -67 63 -67q45 0 79 34v325h145v-475z" />
    <glyph glyph-name="v" unicode="v" horiz-adv-x="513" 
d="M507 475l-183 -475h-141l-176 475h152l101 -302l101 302h146z" />
    <glyph glyph-name="w" unicode="w" horiz-adv-x="813" 
d="M330 475h152l94 -295l80 295h150l-152 -475h-139l-109 318l-109 -318h-139l-151 475h149l80 -295z" />
    <glyph glyph-name="x" unicode="x" horiz-adv-x="515" 
d="M501 475l-158 -237l164 -238h-172l-85 128l-82 -128h-161l162 240l-161 235h174l79 -127l77 127h163z" />
    <glyph glyph-name="y" unicode="y" horiz-adv-x="569" 
d="M63 475h145v-275q0 -67 63 -67q45 0 79 34v308h145v-458q0 -114 -67 -169t-171 -55q-94 0 -176 37v136q28 -20 73.5 -35t88.5 -15q51 0 79 21.5t28 76.5v26q-52 -40 -119 -40q-80 0 -124 49.5t-44 140.5v285z" />
    <glyph glyph-name="z" unicode="z" horiz-adv-x="495" 
d="M439 475v-99l-198 -256h203v-120h-397v96l200 259h-200v120h392z" />
    <glyph glyph-name="braceleft" unicode="{" horiz-adv-x="347" 
d="M127 260q112 -34 112 -147v-110q0 -36 10 -48.5t45 -12.5h37v-132h-54q-88 0 -128 54t-40 134v114q0 41 -26.5 61.5t-67.5 23.5v126q41 3 67.5 23.5t26.5 61.5v114q0 80 40 134t128 54h54v-132h-37q-35 0 -45 -12.5t-10 -48.5v-110q0 -113 -112 -147z" />
    <glyph glyph-name="bar" unicode="|" horiz-adv-x="285" 
d="M196 800v-990h-107v990h107z" />
    <glyph glyph-name="braceright" unicode="}" horiz-adv-x="347" 
d="M220 260q-112 34 -112 147v110q0 36 -10 48.5t-45 12.5h-37v132h54q88 0 128 -54t40 -134v-114q0 -41 26.5 -61.5t67.5 -23.5v-126q-41 -3 -67.5 -23.5t-26.5 -61.5v-114q0 -80 -40 -134t-128 -54h-54v132h37q35 0 45 12.5t10 48.5v110q0 113 112 147z" />
    <glyph glyph-name="asciitilde" unicode="~" 
d="M396 219q-35 0 -114 32t-100 32q-36 0 -36 -59h-105q0 80 34.5 129.5t105.5 49.5q35 0 114 -32t100 -32q36 0 36 59h105q0 -80 -34.5 -129.5t-105.5 -49.5z" />
    <glyph glyph-name="exclamdown" unicode="&#xa1;" horiz-adv-x="325" 
d="M228 262l18 -452h-168l19 452h131zM88 325v150h149v-150h-149z" />
    <glyph glyph-name="cent" unicode="&#xa2;" 
d="M282 -110v147h7q-105 22 -161.5 104.5t-56.5 195.5q0 111 54.5 192.5t156.5 104.5v144h97v-135q85 -4 136 -30v-131q-73 28 -134 28q-71 0 -115.5 -40.5t-44.5 -132.5q0 -88 42.5 -132t114.5 -44q64 0 141 34v-129q-55 -33 -140 -36v-140h-97z" />
    <glyph glyph-name="sterling" unicode="&#xa3;" 
d="M70 294v102h71q-9 33 -9 74q0 114 69 168.5t173 54.5q86 0 155 -32v-134q-62 32 -141 32q-103 0 -103 -86q0 -37 13 -77h191v-102h-161q6 -38 6 -55q0 -65 -63 -108h269v-131h-447v107q86 37 86 124q0 30 -9 63h-100z" />
    <glyph glyph-name="yen" unicode="&#xa5;" 
d="M573 676l-167 -328h111v-68h-136v-97h136v-68h-136v-115h-157v115h-136v68h136v97h-136v68h111l-170 328h161l123 -262l116 262h144z" />
    <glyph glyph-name="brokenbar" unicode="&#xa6;" horiz-adv-x="285" 
d="M196 800v-410h-107v410h107zM196 220v-410h-107v410h107z" />
    <glyph glyph-name="section" unicode="&#xa7;" horiz-adv-x="574" 
d="M499 663v-138q-70 35 -168 35q-106 0 -106 -55q0 -25 23 -40.5t58 -22.5t75.5 -20t75.5 -30t58 -55t23 -92q0 -79 -43 -131q36 -39 36 -108q0 -97 -68.5 -155t-190.5 -58q-109 0 -192 40v146q83 -53 189 -53t106 60q0 29 -23 47.5t-58 26.5t-75.5 21t-75.5 29t-58 53
t-23 91q0 77 46 128q-39 42 -39 111q0 98 68.5 149t189.5 51q104 0 172 -30zM399 225q0 19 -10.5 33t-32 23.5t-41 15.5t-53 13.5t-52.5 13.5q-18 -23 -18 -58q0 -17 11.5 -29t33.5 -20.5t44.5 -14l55 -13t54.5 -14.5q8 21 8 50z" />
    <glyph glyph-name="dieresis" unicode="&#xa8;" horiz-adv-x="510" 
d="M224 693v-125h-126v125h126zM411 693v-125h-126v125h126z" />
    <glyph glyph-name="copyright" unicode="&#xa9;" horiz-adv-x="793" 
d="M537 519v-107q-42 27 -105 27q-51 0 -76.5 -27t-25.5 -74q0 -45 25.5 -71t77.5 -26q57 0 111 34v-111q-53 -29 -114 -29q-107 0 -164.5 56t-57.5 147q0 101 61.5 152.5t150.5 51.5q69 0 117 -23zM748 336q0 -150 -100.5 -251.5t-251.5 -101.5t-251 101.5t-100 251.5
q0 151 100 254t251 103t251.5 -103.5t100.5 -253.5zM689 336q0 124 -84 209.5t-209 85.5t-209 -85.5t-84 -209.5t83.5 -207.5t209.5 -83.5q125 0 209 84t84 207z" />
    <glyph glyph-name="ordfeminine" unicode="&#xaa;" horiz-adv-x="416" 
d="M246 482v119q-15 3 -28 3q-64 0 -64 -72q0 -64 51 -64q21 0 41 14zM356 671v-289h-90l-4 22q-36 -29 -85 -29q-57 0 -97 39.5t-40 113.5q0 79 49.5 122t132.5 43q63 0 134 -22z" />
    <glyph glyph-name="guillemotleft" unicode="&#xab;" horiz-adv-x="570" 
d="M177 49l-156 199l156 199h124l-137 -199l137 -199h-124zM425 49l-156 199l156 199h124l-137 -199l137 -199h-124z" />
    <glyph glyph-name="logicalnot" unicode="&#xac;" 
d="M522 488v-354h-112v236h-354v118h466z" />
    <glyph glyph-name="registered" unicode="&#xae;" horiz-adv-x="544" 
d="M174 585h102q109 0 109 -67q0 -47 -48 -60l57 -91h-88l-41 76h-12v-76h-79v218zM483 475q0 -93 -59.5 -154t-152.5 -61q-92 0 -151 60.5t-59 154.5t59 156t151 62q93 0 152.5 -62t59.5 -156zM439 475q0 76 -46.5 124.5t-121.5 48.5q-74 0 -120 -48.5t-46 -124.5
q0 -75 46 -122.5t120 -47.5q75 0 121.5 47.5t46.5 122.5zM253 539v-46h21q28 0 28 23t-28 23h-21z" />
    <glyph glyph-name="macron" unicode="&#xaf;" horiz-adv-x="510" 
d="M397 685v-101h-284v101h284z" />
    <glyph glyph-name="degree" unicode="&#xb0;" horiz-adv-x="329" 
d="M42 554q0 59 35.5 98t86.5 39t86.5 -39t35.5 -98t-35.5 -97.5t-86.5 -38.5t-86.5 38.5t-35.5 97.5zM105 554q0 -29 17 -49t42 -20t42.5 20t17.5 49q0 30 -17 50t-43 20q-25 0 -42 -20t-17 -50z" />
    <glyph glyph-name="plusminus" unicode="&#xb1;" 
d="M522 118v-118h-466v118h466zM522 435v-118h-182v-158h-105v158h-179v118h179v158h105v-158h182z" />
    <glyph glyph-name="twosuperior" unicode="&#xb2;" horiz-adv-x="411" 
d="M352 365v-101h-293v84l120 118q19 18 27.5 27.5t16 24t7.5 28.5q0 44 -60 44q-55 0 -100 -28v100q50 26 123 26q67 0 110.5 -32.5t43.5 -96.5q0 -47 -18 -79t-52 -61l-66 -54h141z" />
    <glyph glyph-name="threesuperior" unicode="&#xb3;" horiz-adv-x="403" 
d="M64 583v93h283v-81l-96 -91q101 -15 101 -117q0 -69 -47 -106.5t-119 -37.5q-74 0 -123 28v100q55 -31 107 -31q65 0 65 46t-64 46q-17 0 -40 -3v69l93 85h-160z" />
    <glyph glyph-name="acute" unicode="&#xb4;" horiz-adv-x="510" 
d="M172 559l73 151h159l-125 -151h-107z" />
    <glyph glyph-name="mu" unicode="&#xb5;" horiz-adv-x="542" 
d="M505 0h-115l-11 42q-15 -27 -42.5 -43t-58.5 -16q-45 0 -76 32l16 -205h-145v665h145v-294q0 -31 16.5 -48t46.5 -17q43 0 79 34v325h145v-475z" />
    <glyph glyph-name="mu" unicode="&#x3bc;" horiz-adv-x="542" 
d="M505 0h-115l-11 42q-15 -27 -42.5 -43t-58.5 -16q-45 0 -76 32l16 -205h-145v665h145v-294q0 -31 16.5 -48t46.5 -17q43 0 79 34v325h145v-475z" />
    <glyph glyph-name="paragraph" unicode="&#xb6;" horiz-adv-x="704" 
d="M426 676v-866h-102v428h-62q-109 0 -173.5 59.5t-64.5 160.5q0 99 64.5 158.5t173.5 59.5h164zM607 676v-866h-102v866h102z" />
    <glyph glyph-name="periodcentered" unicode="&#xb7;" horiz-adv-x="303" 
d="M77 203v150h149v-150h-149z" />
    <glyph glyph-name="cedilla" unicode="&#xb8;" horiz-adv-x="510" 
d="M160 -221v78q26 -14 57 -14q40 0 40 27t-42 27h-27l33 103h77l-14 -56q79 -13 79 -88q0 -42 -34.5 -66.5t-98.5 -24.5q-45 0 -70 14z" />
    <glyph glyph-name="onesuperior" unicode="&#xb9;" horiz-adv-x="337" 
d="M242 676v-412h-109v319h-96v93h205z" />
    <glyph glyph-name="ordmasculine" unicode="&#xba;" horiz-adv-x="416" 
d="M374 534q0 -76 -45 -118t-121 -42t-121 42t-45 118t45 117.5t121 41.5t121 -41.5t45 -117.5zM261 534q0 68 -53 68t-53 -68q0 -69 53 -69t53 69z" />
    <glyph glyph-name="guillemotright" unicode="&#xbb;" horiz-adv-x="563" 
d="M301 248l-156 -199h-124l137 199l-137 199h124zM542 248l-156 -199h-124l137 199l-137 199h124z" />
    <glyph glyph-name="onequarter" unicode="&#xbc;" horiz-adv-x="868" 
d="M466 183l171 237h125v-234h50v-92h-50v-94h-99v94h-197v89zM574 186h89v124zM241 676v-412h-109v319h-96v93h205zM633 676l-370 -676h-108l371 676h107z" />
    <glyph glyph-name="onehalf" unicode="&#xbd;" horiz-adv-x="885" 
d="M241 676v-412h-109v319h-96v93h205zM811 101v-101h-293v84l120 118q19 18 27.5 27.5t16 24t7.5 28.5q0 44 -60 44q-55 0 -100 -28v100q50 26 123 26q67 0 110.5 -32.5t43.5 -96.5q0 -47 -18 -79t-52 -61l-66 -54h141zM633 676l-370 -676h-108l371 676h107z" />
    <glyph glyph-name="threequarters" unicode="&#xbe;" horiz-adv-x="938" 
d="M536 183l171 237h126v-234h49v-92h-49v-94h-99v94h-198v89zM644 186h90v124zM59 583v93h283v-81l-96 -91q101 -15 101 -117q0 -69 -46.5 -106.5t-119.5 -37.5q-74 0 -123 28v100q55 -31 107 -31q65 0 65 46t-64 46q-18 0 -40 -3v69l93 85h-160zM715 676l-370 -676h-108
l371 676h107z" />
    <glyph glyph-name="questiondown" unicode="&#xbf;" horiz-adv-x="371" 
d="M273 475v-150h-150v150h150zM269 262v-60q0 -38 -12 -69.5t-23 -46t-35 -40.5l-12 -12.5l-12 -13t-9.5 -12t-7.5 -14.5t-2 -14q0 -53 82 -53q62 0 112 26v-136q-55 -24 -137 -24q-89 0 -151 45t-62 132q0 90 72 158q19 18 28.5 28.5t18.5 28t9 35.5v42h141z" />
    <glyph glyph-name="Agrave" unicode="&#xc0;" horiz-adv-x="682" 
d="M411 676l271 -676h-171l-44 116h-273l-44 -116h-150l273 676h138zM331 476l-90 -234h178zM321 895l74 -151h-108l-124 151h158z" />
    <glyph glyph-name="Aacute" unicode="&#xc1;" horiz-adv-x="682" 
d="M411 676l271 -676h-171l-44 116h-273l-44 -116h-150l273 676h138zM331 476l-90 -234h178zM301 744l73 151h159l-125 -151h-107z" />
    <glyph glyph-name="Acircumflex" unicode="&#xc2;" horiz-adv-x="682" 
d="M411 676l271 -676h-171l-44 116h-273l-44 -116h-150l273 676h138zM331 476l-90 -234h178zM264 895h154l96 -151h-115l-58 73l-58 -73h-115z" />
    <glyph glyph-name="Atilde" unicode="&#xc3;" horiz-adv-x="682" 
d="M411 676l271 -676h-171l-44 116h-273l-44 -116h-150l273 676h138zM331 476l-90 -234h178zM412 742q-35 0 -78 24.5t-58 24.5q-24 0 -24 -47h-92q0 67 25.5 110t84.5 43q35 0 78 -24.5t58 -24.5q24 0 24 47h92q0 -67 -25.5 -110t-84.5 -43z" />
    <glyph glyph-name="Adieresis" unicode="&#xc4;" horiz-adv-x="682" 
d="M411 676l271 -676h-171l-44 116h-273l-44 -116h-150l273 676h138zM331 476l-90 -234h178zM311 879v-125h-126v125h126zM498 879v-125h-126v125h126z" />
    <glyph glyph-name="Aring" unicode="&#xc5;" horiz-adv-x="682" 
d="M411 676l271 -676h-171l-44 116h-273l-44 -116h-150l273 676h138zM331 476l-90 -234h178zM456 820q0 -46 -31.5 -69.5t-83.5 -23.5t-83.5 23.5t-31.5 69.5q0 44 31.5 67.5t83.5 23.5t83.5 -23.5t31.5 -67.5zM381 819q0 17 -10.5 27.5t-29.5 10.5t-29.5 -10.5t-10.5 -27.5
t10.5 -27.5t29.5 -10.5t29.5 10.5t10.5 27.5z" />
    <glyph glyph-name="AE" unicode="&#xc6;" horiz-adv-x="964" 
d="M895 676v-131h-299v-138h265v-131h-265v-93q0 -27 10 -39.5t36 -12.5h264v-131h-292q-141 0 -168 116h-248l-66 -116h-168l393 676h538zM439 545l-170 -303h170v303z" />
    <glyph glyph-name="Ccedilla" unicode="&#xc7;" horiz-adv-x="625" 
d="M235 -221v78q28 -14 57 -14q40 0 40 27t-41 27h-28l31 97q-119 28 -184 120.5t-65 223.5q0 157 92 256t256 99q127 0 189 -37v-135q-64 38 -177 38q-91 0 -144.5 -58t-53.5 -163q0 -106 53.5 -164t144.5 -58q104 0 181 46v-135q-80 -44 -193 -44q-16 0 -23 1l-10 -40
q79 -13 79 -88q0 -42 -34.5 -66.5t-98.5 -24.5q-46 0 -71 14z" />
    <glyph glyph-name="Egrave" unicode="&#xc8;" horiz-adv-x="612" 
d="M543 676v-131h-299v-138h265v-131h-265v-93q0 -27 10 -39.5t36 -12.5h264v-131h-292q-90 0 -132 45.5t-42 137.5v493h455zM318 895l74 -151h-108l-124 151h158z" />
    <glyph glyph-name="Eacute" unicode="&#xc9;" horiz-adv-x="612" 
d="M543 676v-131h-299v-138h265v-131h-265v-93q0 -27 10 -39.5t36 -12.5h264v-131h-292q-90 0 -132 45.5t-42 137.5v493h455zM261 744l73 151h159l-125 -151h-107z" />
    <glyph glyph-name="Ecircumflex" unicode="&#xca;" horiz-adv-x="612" 
d="M543 676v-131h-299v-138h265v-131h-265v-93q0 -27 10 -39.5t36 -12.5h264v-131h-292q-90 0 -132 45.5t-42 137.5v493h455zM238 895h154l96 -151h-115l-58 73l-58 -73h-115z" />
    <glyph glyph-name="Edieresis" unicode="&#xcb;" horiz-adv-x="612" 
d="M543 676v-131h-299v-138h265v-131h-265v-93q0 -27 10 -39.5t36 -12.5h264v-131h-292q-90 0 -132 45.5t-42 137.5v493h455zM285 878v-125h-126v125h126zM472 878v-125h-126v125h126z" />
    <glyph glyph-name="Igrave" unicode="&#xcc;" horiz-adv-x="348" 
d="M252 676v-676h-156v676h156zM159 895l74 -151h-108l-124 151h158z" />
    <glyph glyph-name="Iacute" unicode="&#xcd;" horiz-adv-x="348" 
d="M252 676v-676h-156v676h156zM120 744l73 151h159l-125 -151h-107z" />
    <glyph glyph-name="Icircumflex" unicode="&#xce;" horiz-adv-x="348" 
d="M252 676v-676h-156v676h156zM97 895h154l96 -151h-115l-58 73l-58 -73h-115z" />
    <glyph glyph-name="Idieresis" unicode="&#xcf;" horiz-adv-x="348" 
d="M252 676v-676h-156v676h156zM144 879v-125h-126v125h126zM331 879v-125h-126v125h126z" />
    <glyph glyph-name="Eth" unicode="&#xd0;" horiz-adv-x="739" 
d="M96 0v287h-78v121h78v268h243q166 0 260.5 -85.5t94.5 -252.5t-94.5 -252.5t-260.5 -85.5h-243zM532 339q0 206 -193 206h-87v-137h143v-121h-143v-156h87q193 0 193 208z" />
    <glyph glyph-name="Ntilde" unicode="&#xd1;" horiz-adv-x="781" 
d="M687 676v-676h-133l-306 413v-413h-152v676h133l306 -413v413h152zM462 742q-35 0 -78 24.5t-58 24.5q-24 0 -24 -47h-92q0 67 25.5 110t84.5 43q35 0 78 -24.5t58 -24.5q24 0 24 47h92q0 -67 -25.5 -110t-84.5 -43z" />
    <glyph glyph-name="Ograve" unicode="&#xd2;" horiz-adv-x="808" 
d="M763 338q0 -164 -98.5 -259.5t-260.5 -95.5t-260.5 95t-98.5 260t98.5 260t260.5 95t260.5 -95.5t98.5 -259.5zM600 338q0 102 -51 161.5t-145 59.5q-95 0 -145.5 -59.5t-50.5 -161.5t50.5 -162t145.5 -60q94 0 145 60t51 162zM392 895l74 -151h-108l-124 151h158z" />
    <glyph glyph-name="Oacute" unicode="&#xd3;" horiz-adv-x="808" 
d="M763 338q0 -164 -98.5 -259.5t-260.5 -95.5t-260.5 95t-98.5 260t98.5 260t260.5 95t260.5 -95.5t98.5 -259.5zM600 338q0 102 -51 161.5t-145 59.5q-95 0 -145.5 -59.5t-50.5 -161.5t50.5 -162t145.5 -60q94 0 145 60t51 162zM350 744l73 151h159l-125 -151h-107z" />
    <glyph glyph-name="Ocircumflex" unicode="&#xd4;" horiz-adv-x="808" 
d="M763 338q0 -164 -98.5 -259.5t-260.5 -95.5t-260.5 95t-98.5 260t98.5 260t260.5 95t260.5 -95.5t98.5 -259.5zM600 338q0 102 -51 161.5t-145 59.5q-95 0 -145.5 -59.5t-50.5 -161.5t50.5 -162t145.5 -60q94 0 145 60t51 162zM328 895h154l96 -151h-115l-58 73l-58 -73
h-115z" />
    <glyph glyph-name="Otilde" unicode="&#xd5;" horiz-adv-x="808" 
d="M763 338q0 -164 -98.5 -259.5t-260.5 -95.5t-260.5 95t-98.5 260t98.5 260t260.5 95t260.5 -95.5t98.5 -259.5zM600 338q0 102 -51 161.5t-145 59.5q-95 0 -145.5 -59.5t-50.5 -161.5t50.5 -162t145.5 -60q94 0 145 60t51 162zM476 742q-35 0 -78 24.5t-58 24.5
q-24 0 -24 -47h-92q0 67 25.5 110t84.5 43q35 0 78 -24.5t58 -24.5q24 0 24 47h92q0 -67 -25.5 -110t-84.5 -43z" />
    <glyph glyph-name="Odieresis" unicode="&#xd6;" horiz-adv-x="808" 
d="M763 338q0 -164 -98.5 -259.5t-260.5 -95.5t-260.5 95t-98.5 260t98.5 260t260.5 95t260.5 -95.5t98.5 -259.5zM600 338q0 102 -51 161.5t-145 59.5q-95 0 -145.5 -59.5t-50.5 -161.5t50.5 -162t145.5 -60q94 0 145 60t51 162zM375 878v-125h-126v125h126zM562 878v-125
h-126v125h126z" />
    <glyph glyph-name="multiply" unicode="&#xd7;" 
d="M360 314l152 -178l-80 -73l-143 168l-143 -168l-80 73l152 178l-152 178l80 73l143 -168l143 168l80 -73z" />
    <glyph glyph-name="Oslash" unicode="&#xd8;" horiz-adv-x="808" 
d="M763 338q0 -164 -98.5 -259.5t-260.5 -95.5q-109 0 -194 45l-64 -83l-58 47l61 81q-104 98 -104 265q0 164 98.5 259.5t260.5 95.5q106 0 189 -43l62 80l58 -47l-58 -77q108 -97 108 -268zM561 485l-262 -342q44 -27 105 -27q94 0 145 60t51 162q0 90 -39 147zM505 536
q-43 23 -101 23q-94 0 -145 -59.5t-51 -161.5q0 -86 36 -142z" />
    <glyph glyph-name="Ugrave" unicode="&#xd9;" horiz-adv-x="720" 
d="M641 676v-427q0 -127 -76.5 -196.5t-204.5 -69.5q-127 0 -204 69.5t-77 196.5v427h156v-428q0 -66 34.5 -99t90.5 -33q57 0 92 33t35 99v428h154zM346 895l74 -151h-108l-124 151h158z" />
    <glyph glyph-name="Uacute" unicode="&#xda;" horiz-adv-x="720" 
d="M641 676v-427q0 -127 -76.5 -196.5t-204.5 -69.5q-127 0 -204 69.5t-77 196.5v427h156v-428q0 -66 34.5 -99t90.5 -33q57 0 92 33t35 99v428h154zM312 744l73 151h159l-125 -151h-107z" />
    <glyph glyph-name="Ucircumflex" unicode="&#xdb;" horiz-adv-x="720" 
d="M641 676v-427q0 -127 -76.5 -196.5t-204.5 -69.5q-127 0 -204 69.5t-77 196.5v427h156v-428q0 -66 34.5 -99t90.5 -33q57 0 92 33t35 99v428h154zM283 895h154l96 -151h-115l-58 73l-58 -73h-115z" />
    <glyph glyph-name="Udieresis" unicode="&#xdc;" horiz-adv-x="720" 
d="M641 676v-427q0 -127 -76.5 -196.5t-204.5 -69.5q-127 0 -204 69.5t-77 196.5v427h156v-428q0 -66 34.5 -99t90.5 -33q57 0 92 33t35 99v428h154zM324 878v-125h-126v125h126zM511 878v-125h-126v125h126z" />
    <glyph glyph-name="Yacute" unicode="&#xdd;" horiz-adv-x="635" 
d="M635 676l-240 -409v-267h-156v267l-239 409h174l152 -270l152 270h157zM283 744l73 151h159l-125 -151h-107z" />
    <glyph glyph-name="Thorn" unicode="&#xde;" horiz-adv-x="675" 
d="M252 109v-109h-156v676h156v-111h92q134 0 210.5 -58t76.5 -170t-76.5 -170t-210.5 -58h-92zM252 434v-194h92q124 0 124 97t-124 97h-92z" />
    <glyph glyph-name="germandbls" unicode="&#xdf;" horiz-adv-x="588" 
d="M218 521v-521h-145v517q0 107 66.5 158.5t159.5 51.5q87 0 147.5 -46t60.5 -132q0 -44 -17 -77.5t-34 -56.5t-17 -40q0 -16 21 -37t46 -41.5t46 -58.5t21 -84q0 -89 -50.5 -130t-127.5 -41q-61 0 -108 17v127q47 -23 92 -23q51 0 51 42q0 19 -13 37.5t-31.5 34.5t-37 34
t-31.5 44.5t-13 57.5q0 41 33 91.5t33 81.5q0 37 -20 57t-53 20q-34 0 -56.5 -21t-22.5 -62z" />
    <glyph glyph-name="agrave" unicode="&#xe0;" horiz-adv-x="568" 
d="M495 458v-458h-114l-11 42q-49 -59 -128 -59q-84 0 -144.5 62.5t-60.5 182.5q0 125 70.5 194.5t190.5 69.5q98 0 197 -34zM350 141v221q-22 6 -47 6q-52 0 -85.5 -32t-33.5 -101q0 -61 25.5 -90t68.5 -29q44 0 72 25zM276 710l74 -151h-108l-124 151h158z" />
    <glyph glyph-name="aacute" unicode="&#xe1;" horiz-adv-x="568" 
d="M495 458v-458h-114l-11 42q-49 -59 -128 -59q-84 0 -144.5 62.5t-60.5 182.5q0 125 70.5 194.5t190.5 69.5q98 0 197 -34zM350 141v221q-22 6 -47 6q-52 0 -85.5 -32t-33.5 -101q0 -61 25.5 -90t68.5 -29q44 0 72 25zM225 559l73 151h159l-125 -151h-107z" />
    <glyph glyph-name="acircumflex" unicode="&#xe2;" horiz-adv-x="568" 
d="M495 458v-458h-114l-11 42q-49 -59 -128 -59q-84 0 -144.5 62.5t-60.5 182.5q0 125 70.5 194.5t190.5 69.5q98 0 197 -34zM350 141v221q-22 6 -47 6q-52 0 -85.5 -32t-33.5 -101q0 -61 25.5 -90t68.5 -29q44 0 72 25zM199 710h154l96 -151h-115l-58 73l-58 -73h-115z" />
    <glyph glyph-name="atilde" unicode="&#xe3;" horiz-adv-x="568" 
d="M495 458v-458h-114l-11 42q-49 -59 -128 -59q-84 0 -144.5 62.5t-60.5 182.5q0 125 70.5 194.5t190.5 69.5q98 0 197 -34zM350 141v221q-22 6 -47 6q-52 0 -85.5 -32t-33.5 -101q0 -61 25.5 -90t68.5 -29q44 0 72 25zM346 557q-35 0 -78 24.5t-58 24.5q-24 0 -24 -47h-92
q0 67 25.5 110t84.5 43q35 0 78 -24.5t58 -24.5q24 0 24 47h92q0 -67 -25.5 -110t-84.5 -43z" />
    <glyph glyph-name="adieresis" unicode="&#xe4;" horiz-adv-x="568" 
d="M495 458v-458h-114l-11 42q-49 -59 -128 -59q-84 0 -144.5 62.5t-60.5 182.5q0 125 70.5 194.5t190.5 69.5q98 0 197 -34zM350 141v221q-22 6 -47 6q-52 0 -85.5 -32t-33.5 -101q0 -61 25.5 -90t68.5 -29q44 0 72 25zM245 693v-125h-126v125h126zM432 693v-125h-126v125
h126z" />
    <glyph glyph-name="aring" unicode="&#xe5;" horiz-adv-x="568" 
d="M495 458v-458h-114l-11 42q-49 -59 -128 -59q-84 0 -144.5 62.5t-60.5 182.5q0 125 70.5 194.5t190.5 69.5q98 0 197 -34zM350 141v221q-22 6 -47 6q-52 0 -85.5 -32t-33.5 -101q0 -61 25.5 -90t68.5 -29q44 0 72 25zM391 636q0 -46 -31.5 -69.5t-83.5 -23.5t-83.5 23.5
t-31.5 69.5q0 44 31.5 67.5t83.5 23.5t83.5 -23.5t31.5 -67.5zM316 635q0 17 -10.5 27.5t-29.5 10.5t-29.5 -10.5t-10.5 -27.5t10.5 -27.5t29.5 -10.5t29.5 10.5t10.5 27.5z" />
    <glyph glyph-name="ae" unicode="&#xe6;" horiz-adv-x="841" 
d="M805 188h-316q13 -81 135 -81q92 0 166 33v-123q-28 -15 -82.5 -25t-102.5 -10q-130 0 -197 70q-60 -69 -158 -69q-87 0 -150 61.5t-63 183.5q0 125 70.5 194.5t190.5 69.5q83 0 149 -34q56 34 129 34q112 0 170.5 -63t58.5 -154v-87zM279 116q47 0 77 31q-10 39 -10 94
q0 64 19 116q-33 11 -61 11q-52 0 -86 -31.5t-34 -98.5q0 -122 95 -122zM487 284h170q-3 95 -85 95q-76 0 -85 -95z" />
    <glyph glyph-name="ccedilla" unicode="&#xe7;" horiz-adv-x="471" 
d="M150 -221v78q26 -14 57 -14q39 0 39 27t-41 27h-27l30 96q-82 22 -126.5 88t-44.5 157q0 116 68 185t185 69q79 0 129 -25v-129q-56 31 -116 31q-57 0 -87.5 -36t-30.5 -96t30 -95t88 -35q64 0 121 33v-129q-56 -28 -138 -28h-2l-10 -39q79 -13 79 -88q0 -42 -34.5 -66.5
t-98.5 -24.5q-46 0 -70 14z" />
    <glyph glyph-name="egrave" unicode="&#xe8;" horiz-adv-x="545" 
d="M507 188h-316q13 -81 135 -81q92 0 166 33v-123q-27 -15 -81.5 -25t-102.5 -10q-57 0 -104 14t-85.5 43t-60 80.5t-21.5 121.5q0 118 68 184.5t174 66.5q112 0 170 -63t58 -154v-87zM190 284h170q-3 95 -85 95q-76 0 -85 -95zM267 710l74 -151h-108l-124 151h158z" />
    <glyph glyph-name="eacute" unicode="&#xe9;" horiz-adv-x="545" 
d="M507 188h-316q13 -81 135 -81q92 0 166 33v-123q-27 -15 -81.5 -25t-102.5 -10q-57 0 -104 14t-85.5 43t-60 80.5t-21.5 121.5q0 118 68 184.5t174 66.5q112 0 170 -63t58 -154v-87zM190 284h170q-3 95 -85 95q-76 0 -85 -95zM226 559l73 151h159l-125 -151h-107z" />
    <glyph glyph-name="ecircumflex" unicode="&#xea;" horiz-adv-x="545" 
d="M507 188h-316q13 -81 135 -81q92 0 166 33v-123q-27 -15 -81.5 -25t-102.5 -10q-57 0 -104 14t-85.5 43t-60 80.5t-21.5 121.5q0 118 68 184.5t174 66.5q112 0 170 -63t58 -154v-87zM190 284h170q-3 95 -85 95q-76 0 -85 -95zM203 710h154l96 -151h-115l-58 73l-58 -73
h-115z" />
    <glyph glyph-name="edieresis" unicode="&#xeb;" horiz-adv-x="545" 
d="M507 188h-316q13 -81 135 -81q92 0 166 33v-123q-27 -15 -81.5 -25t-102.5 -10q-57 0 -104 14t-85.5 43t-60 80.5t-21.5 121.5q0 118 68 184.5t174 66.5q112 0 170 -63t58 -154v-87zM190 284h170q-3 95 -85 95q-76 0 -85 -95zM249 693v-125h-126v125h126zM436 693v-125
h-126v125h126z" />
    <glyph glyph-name="igrave" unicode="&#xec;" horiz-adv-x="291" 
d="M218 475v-475h-145v475h145zM131 710l74 -151h-108l-124 151h158z" />
    <glyph glyph-name="iacute" unicode="&#xed;" horiz-adv-x="291" 
d="M218 475v-475h-145v475h145zM90 559l73 151h159l-125 -151h-107z" />
    <glyph glyph-name="icircumflex" unicode="&#xee;" horiz-adv-x="291" 
d="M218 475v-475h-145v475h145zM68 710h154l96 -151h-115l-58 73l-58 -73h-115z" />
    <glyph glyph-name="idieresis" unicode="&#xef;" horiz-adv-x="291" 
d="M218 475v-475h-145v475h145zM115 693v-125h-126v125h126zM302 693v-125h-126v125h126z" />
    <glyph glyph-name="eth" unicode="&#xf0;" 
d="M554 618l-78 -16q67 -159 67 -309q0 -141 -59.5 -225.5t-194.5 -84.5q-114 0 -183 67.5t-69 187.5q0 115 65.5 184.5t171.5 69.5q40 0 74 -13t50 -29q-9 53 -44 131l-200 -34v64l177 30q-15 34 -38 69h130q14 -21 27 -49l104 19v-62zM393 238q0 60 -28.5 95t-75.5 35
t-75.5 -35t-28.5 -95t28.5 -95.5t75.5 -35.5t75.5 35.5t28.5 95.5z" />
    <glyph glyph-name="ntilde" unicode="&#xf1;" horiz-adv-x="593" 
d="M202 475l9 -36q55 53 143 53q76 0 123.5 -49t47.5 -148v-295h-144v281q0 74 -75 74q-48 0 -88 -25v-330h-145v475h129zM378 557q-35 0 -78 24.5t-58 24.5q-24 0 -24 -47h-92q0 67 25.5 110t84.5 43q35 0 78 -24.5t58 -24.5q24 0 24 47h92q0 -67 -25.5 -110t-84.5 -43z
" />
    <glyph glyph-name="ograve" unicode="&#xf2;" 
d="M289 492q114 0 183 -67t69 -187t-69 -187.5t-183 -67.5t-183 67.5t-69 187.5t69 187t183 67zM289 368q-47 0 -75.5 -35t-28.5 -95t28.5 -95.5t75.5 -35.5t75.5 35.5t28.5 95.5t-28.5 95t-75.5 35zM275 710l74 -151h-108l-124 151h158z" />
    <glyph glyph-name="oacute" unicode="&#xf3;" 
d="M289 492q114 0 183 -67t69 -187t-69 -187.5t-183 -67.5t-183 67.5t-69 187.5t69 187t183 67zM289 368q-47 0 -75.5 -35t-28.5 -95t28.5 -95.5t75.5 -35.5t75.5 35.5t28.5 95.5t-28.5 95t-75.5 35zM229 559l73 151h159l-125 -151h-107z" />
    <glyph glyph-name="ocircumflex" unicode="&#xf4;" 
d="M289 492q114 0 183 -67t69 -187t-69 -187.5t-183 -67.5t-183 67.5t-69 187.5t69 187t183 67zM289 368q-47 0 -75.5 -35t-28.5 -95t28.5 -95.5t75.5 -35.5t75.5 35.5t28.5 95.5t-28.5 95t-75.5 35zM212 710h154l96 -151h-115l-58 73l-58 -73h-115z" />
    <glyph glyph-name="otilde" unicode="&#xf5;" 
d="M289 492q114 0 183 -67t69 -187t-69 -187.5t-183 -67.5t-183 67.5t-69 187.5t69 187t183 67zM289 368q-47 0 -75.5 -35t-28.5 -95t28.5 -95.5t75.5 -35.5t75.5 35.5t28.5 95.5t-28.5 95t-75.5 35zM360 557q-35 0 -78 24.5t-58 24.5q-24 0 -24 -47h-92q0 67 25.5 110
t84.5 43q35 0 78 -24.5t58 -24.5q24 0 24 47h92q0 -67 -25.5 -110t-84.5 -43z" />
    <glyph glyph-name="odieresis" unicode="&#xf6;" 
d="M289 492q114 0 183 -67t69 -187t-69 -187.5t-183 -67.5t-183 67.5t-69 187.5t69 187t183 67zM289 368q-47 0 -75.5 -35t-28.5 -95t28.5 -95.5t75.5 -35.5t75.5 35.5t28.5 95.5t-28.5 95t-75.5 35zM259 693v-125h-126v125h126zM446 693v-125h-126v125h126z" />
    <glyph glyph-name="divide" unicode="&#xf7;" 
d="M522 370v-118h-466v118h466zM216 52v130h137v-130h-137zM216 439v130h137v-130h-137z" />
    <glyph glyph-name="oslash" unicode="&#xf8;" 
d="M541 238q0 -120 -69 -187.5t-183 -67.5q-72 0 -128 28l-55 -74l-51 38l54 73q-72 67 -72 190q0 120 69 187t183 67q71 0 127 -28l49 66l51 -38l-48 -64q73 -70 73 -190zM380 307l-139 -188q21 -12 48 -12q47 0 75.5 35.5t28.5 95.5q0 38 -13 69zM337 356q-26 12 -48 12
q-47 0 -75.5 -35t-28.5 -95q0 -37 13 -70z" />
    <glyph glyph-name="ugrave" unicode="&#xf9;" horiz-adv-x="569" 
d="M495 0h-115l-11 42q-59 -59 -138 -59q-80 0 -124 49.5t-44 140.5v302h145v-292q0 -67 63 -67q45 0 79 34v325h145v-475zM265 710l74 -151h-108l-124 151h158z" />
    <glyph glyph-name="uacute" unicode="&#xfa;" horiz-adv-x="569" 
d="M495 0h-115l-11 42q-59 -59 -138 -59q-80 0 -124 49.5t-44 140.5v302h145v-292q0 -67 63 -67q45 0 79 34v325h145v-475zM224 559l73 151h159l-125 -151h-107z" />
    <glyph glyph-name="ucircumflex" unicode="&#xfb;" horiz-adv-x="569" 
d="M495 0h-115l-11 42q-59 -59 -138 -59q-80 0 -124 49.5t-44 140.5v302h145v-292q0 -67 63 -67q45 0 79 34v325h145v-475zM203 710h154l96 -151h-115l-58 73l-58 -73h-115z" />
    <glyph glyph-name="udieresis" unicode="&#xfc;" horiz-adv-x="569" 
d="M495 0h-115l-11 42q-59 -59 -138 -59q-80 0 -124 49.5t-44 140.5v302h145v-292q0 -67 63 -67q45 0 79 34v325h145v-475zM249 693v-125h-126v125h126zM436 693v-125h-126v125h126z" />
    <glyph glyph-name="yacute" unicode="&#xfd;" horiz-adv-x="569" 
d="M63 475h145v-275q0 -67 63 -67q45 0 79 34v308h145v-458q0 -114 -67 -169t-171 -55q-94 0 -176 37v136q28 -20 73.5 -35t88.5 -15q51 0 79 21.5t28 76.5v26q-52 -40 -119 -40q-80 0 -124 49.5t-44 140.5v285zM224 559l73 151h159l-125 -151h-107z" />
    <glyph glyph-name="thorn" unicode="&#xfe;" horiz-adv-x="564" 
d="M73 -190v900h141v-241q46 23 102 23q89 0 150 -60t61 -184q0 -117 -70.5 -191t-187.5 -74q-32 0 -55 4v-177h-141zM214 338v-223q19 -8 50 -8q52 0 84 32t32 100q0 62 -26 92.5t-68 30.5t-72 -24z" />
    <glyph glyph-name="ydieresis" unicode="&#xff;" horiz-adv-x="569" 
d="M63 475h145v-275q0 -67 63 -67q45 0 79 34v308h145v-458q0 -114 -67 -169t-171 -55q-94 0 -176 37v136q28 -20 73.5 -35t88.5 -15q51 0 79 21.5t28 76.5v26q-52 -40 -119 -40q-80 0 -124 49.5t-44 140.5v285zM249 693v-125h-126v125h126zM436 693v-125h-126v125h126z" />
    <glyph glyph-name="Amacron" unicode="&#x100;" horiz-adv-x="682" 
d="M411 676l271 -676h-171l-44 116h-273l-44 -116h-150l273 676h138zM331 476l-90 -234h178zM483 871v-101h-284v101h284z" />
    <glyph glyph-name="amacron" unicode="&#x101;" horiz-adv-x="568" 
d="M495 458v-458h-114l-11 42q-49 -59 -128 -59q-84 0 -144.5 62.5t-60.5 182.5q0 125 70.5 194.5t190.5 69.5q98 0 197 -34zM350 141v221q-22 6 -47 6q-52 0 -85.5 -32t-33.5 -101q0 -61 25.5 -90t68.5 -29q44 0 72 25zM417 685v-101h-284v101h284z" />
    <glyph glyph-name="Abreve" unicode="&#x102;" horiz-adv-x="682" 
d="M411 676l271 -676h-171l-44 116h-273l-44 -116h-150l273 676h138zM331 476l-90 -234h178zM181 895h84q10 -62 76 -62t76 62h84q-3 -75 -46 -116t-114 -41t-114 41t-46 116z" />
    <glyph glyph-name="abreve" unicode="&#x103;" horiz-adv-x="568" 
d="M495 458v-458h-114l-11 42q-49 -59 -128 -59q-84 0 -144.5 62.5t-60.5 182.5q0 125 70.5 194.5t190.5 69.5q98 0 197 -34zM350 141v221q-22 6 -47 6q-52 0 -85.5 -32t-33.5 -101q0 -61 25.5 -90t68.5 -29q44 0 72 25zM115 710h84q10 -62 76 -62t76 62h84q-3 -75 -46 -116
t-114 -41t-114 41t-46 116z" />
    <glyph glyph-name="Aogonek" unicode="&#x104;" horiz-adv-x="682" 
d="M580 0h-69l-44 116h-273l-44 -116h-150l273 676h138l271 -676q-34 -25 -50 -47t-16 -52q0 -36 37 -36q22 0 48 13v-91q-30 -15 -75 -15q-53 0 -83.5 27.5t-30.5 77.5q0 83 68 123zM331 476l-90 -234h178z" />
    <glyph glyph-name="aogonek" unicode="&#x105;" horiz-adv-x="568" 
d="M393 0h-12l-11 42q-49 -59 -128 -59q-84 0 -144.5 62.5t-60.5 182.5q0 125 70.5 194.5t190.5 69.5q98 0 197 -34v-458q-34 -25 -50 -47t-16 -52q0 -36 37 -36q22 0 48 13v-91q-30 -15 -75 -15q-53 0 -83.5 27.5t-30.5 77.5q0 83 68 123zM350 141v221q-22 6 -47 6
q-52 0 -85.5 -32t-33.5 -101q0 -61 25.5 -90t68.5 -29q44 0 72 25z" />
    <glyph glyph-name="Cacute" unicode="&#x106;" horiz-adv-x="625" 
d="M45 338q0 157 92 256t256 99q127 0 189 -37v-135q-64 38 -177 38q-91 0 -144.5 -57.5t-53.5 -163.5t53.5 -164t144.5 -58q104 0 181 46v-135q-80 -44 -193 -44q-164 0 -256 99t-92 256zM338 744l73 151h159l-125 -151h-107z" />
    <glyph glyph-name="cacute" unicode="&#x107;" horiz-adv-x="471" 
d="M419 467v-129q-56 31 -116 31q-57 0 -87.5 -36t-30.5 -96t30 -95t88 -35q64 0 121 33v-129q-56 -28 -138 -28q-117 0 -183 72t-66 183q0 116 68 185t185 69q79 0 129 -25zM187 559l73 151h159l-125 -151h-107z" />
    <glyph glyph-name="Ccircumflex" unicode="&#x108;" horiz-adv-x="625" 
d="M45 338q0 157 92 256t256 99q127 0 189 -37v-135q-64 38 -177 38q-91 0 -144.5 -57.5t-53.5 -163.5t53.5 -164t144.5 -58q104 0 181 46v-135q-80 -44 -193 -44q-164 0 -256 99t-92 256zM270 895h154l96 -151h-115l-58 73l-58 -73h-115z" />
    <glyph glyph-name="ccircumflex" unicode="&#x109;" horiz-adv-x="471" 
d="M419 467v-129q-56 31 -116 31q-57 0 -87.5 -36t-30.5 -96t30 -95t88 -35q64 0 121 33v-129q-56 -28 -138 -28q-117 0 -183 72t-66 183q0 116 68 185t185 69q79 0 129 -25zM169 710h154l96 -151h-115l-58 73l-58 -73h-115z" />
    <glyph glyph-name="Cdotaccent" unicode="&#x10a;" horiz-adv-x="625" 
d="M45 338q0 157 92 256t256 99q127 0 189 -37v-135q-64 38 -177 38q-91 0 -144.5 -57.5t-53.5 -163.5t53.5 -164t144.5 -58q104 0 181 46v-135q-80 -44 -193 -44q-164 0 -256 99t-92 256zM415 878v-125h-138v125h138z" />
    <glyph glyph-name="cdotaccent" unicode="&#x10b;" horiz-adv-x="471" 
d="M419 467v-129q-56 31 -116 31q-57 0 -87.5 -36t-30.5 -96t30 -95t88 -35q64 0 121 33v-129q-56 -28 -138 -28q-117 0 -183 72t-66 183q0 116 68 185t185 69q79 0 129 -25zM315 693v-125h-138v125h138z" />
    <glyph glyph-name="Ccaron" unicode="&#x10c;" horiz-adv-x="625" 
d="M45 338q0 157 92 256t256 99q127 0 189 -37v-135q-64 38 -177 38q-91 0 -144.5 -57.5t-53.5 -163.5t53.5 -164t144.5 -58q104 0 181 46v-135q-80 -44 -193 -44q-164 0 -256 99t-92 256zM424 744h-154l-96 151h115l58 -73l58 73h115z" />
    <glyph glyph-name="ccaron" unicode="&#x10d;" horiz-adv-x="471" 
d="M419 467v-129q-56 31 -116 31q-57 0 -87.5 -36t-30.5 -96t30 -95t88 -35q64 0 121 33v-129q-56 -28 -138 -28q-117 0 -183 72t-66 183q0 116 68 185t185 69q79 0 129 -25zM323 559h-154l-96 151h115l58 -73l58 73h115z" />
    <glyph glyph-name="Dcaron" unicode="&#x10e;" horiz-adv-x="739" 
d="M252 545v-414h87q193 0 193 208q0 206 -193 206h-87zM96 676h243q166 0 260.5 -85.5t94.5 -252.5t-94.5 -252.5t-260.5 -85.5h-243v676zM448 744h-154l-96 151h115l58 -73l58 73h115z" />
    <glyph glyph-name="dcaron" unicode="&#x10f;" horiz-adv-x="664" 
d="M654 710q10 -31 10 -69q0 -102 -100 -149l-40 59q45 30 45 88q0 29 -15 71h100zM495 710v-710h-114l-11 42q-49 -59 -128 -59q-84 0 -144.5 62.5t-60.5 182.5q0 125 70.5 194.5t190.5 69.5q28 0 52 -3v221h145zM350 141v221q-22 6 -47 6q-52 0 -85.5 -32t-33.5 -101
q0 -61 25.5 -90t68.5 -29q44 0 72 25z" />
    <glyph glyph-name="Dcroat" unicode="&#x110;" horiz-adv-x="739" 
d="M96 0v287h-78v121h78v268h243q166 0 260.5 -85.5t94.5 -252.5t-94.5 -252.5t-260.5 -85.5h-243zM532 339q0 206 -193 206h-87v-137h143v-121h-143v-156h87q193 0 193 208z" />
    <glyph glyph-name="dcroat" unicode="&#x111;" horiz-adv-x="568" 
d="M495 710v-71h74v-79h-74v-560h-114l-11 42q-32 -30 -60.5 -44.5t-67.5 -14.5q-84 0 -144.5 62.5t-60.5 182.5q0 125 70.5 194.5t190.5 69.5q28 0 52 -3v71h-166v79h166v71h145zM350 141v221q-22 6 -47 6q-52 0 -85.5 -32t-33.5 -101q0 -61 25.5 -90t68.5 -29q44 0 72 25z
" />
    <glyph glyph-name="Emacron" unicode="&#x112;" horiz-adv-x="612" 
d="M543 676v-131h-299v-138h265v-131h-265v-93q0 -27 10 -39.5t36 -12.5h264v-131h-292q-90 0 -132 45.5t-42 137.5v493h455zM457 871v-101h-284v101h284z" />
    <glyph glyph-name="emacron" unicode="&#x113;" horiz-adv-x="545" 
d="M507 188h-316q13 -81 135 -81q92 0 166 33v-123q-27 -15 -81.5 -25t-102.5 -10q-57 0 -104 14t-85.5 43t-60 80.5t-21.5 121.5q0 118 68 184.5t174 66.5q112 0 170 -63t58 -154v-87zM190 284h170q-3 95 -85 95q-76 0 -85 -95zM422 685v-101h-284v101h284z" />
    <glyph glyph-name="Ebreve" unicode="&#x114;" horiz-adv-x="612" 
d="M543 676v-131h-299v-138h265v-131h-265v-93q0 -27 10 -39.5t36 -12.5h264v-131h-292q-90 0 -132 45.5t-42 137.5v493h455zM155 895h84q10 -62 76 -62t76 62h84q-3 -75 -46 -116t-114 -41t-114 41t-46 116z" />
    <glyph glyph-name="ebreve" unicode="&#x115;" horiz-adv-x="545" 
d="M507 188h-316q13 -81 135 -81q92 0 166 33v-123q-27 -15 -81.5 -25t-102.5 -10q-57 0 -104 14t-85.5 43t-60 80.5t-21.5 121.5q0 118 68 184.5t174 66.5q112 0 170 -63t58 -154v-87zM190 284h170q-3 95 -85 95q-76 0 -85 -95zM120 710h84q10 -62 76 -62t76 62h84
q-3 -75 -46 -116t-114 -41t-114 41t-46 116z" />
    <glyph glyph-name="Edotaccent" unicode="&#x116;" horiz-adv-x="612" 
d="M543 676v-131h-299v-138h265v-131h-265v-93q0 -27 10 -39.5t36 -12.5h264v-131h-292q-90 0 -132 45.5t-42 137.5v493h455zM384 879v-125h-138v125h138z" />
    <glyph glyph-name="edotaccent" unicode="&#x117;" horiz-adv-x="545" 
d="M507 188h-316q13 -81 135 -81q92 0 166 33v-123q-27 -15 -81.5 -25t-102.5 -10q-57 0 -104 14t-85.5 43t-60 80.5t-21.5 121.5q0 118 68 184.5t174 66.5q112 0 170 -63t58 -154v-87zM190 284h170q-3 95 -85 95q-76 0 -85 -95zM349 693v-125h-138v125h138z" />
    <glyph glyph-name="Eogonek" unicode="&#x118;" horiz-adv-x="612" 
d="M433 0h-171q-90 0 -132 45.5t-42 137.5v493h455v-131h-299v-138h265v-131h-265v-93q0 -27 10 -39.5t36 -12.5h264v-131h-19q-34 -25 -50 -47t-16 -52q0 -36 37 -36q22 0 48 13v-91q-30 -15 -75 -15q-53 0 -83.5 27.5t-30.5 77.5q0 83 68 123z" />
    <glyph glyph-name="eogonek" unicode="&#x119;" horiz-adv-x="545" 
d="M507 188h-316q13 -81 135 -81q92 0 166 33v-123q-19 -11 -47 -17q-33 -26 -49 -47.5t-16 -51.5q0 -36 37 -36q22 0 48 13v-91q-30 -15 -75 -15q-53 0 -83.5 27.5t-30.5 77.5q0 65 43 105h-11q-57 0 -104 14t-85.5 43t-60 80.5t-21.5 121.5q0 118 68 184.5t174 66.5
q112 0 170 -63t58 -154v-87zM190 284h170q-3 95 -85 95q-76 0 -85 -95z" />
    <glyph glyph-name="Ecaron" unicode="&#x11a;" horiz-adv-x="612" 
d="M543 676v-131h-299v-138h265v-131h-265v-93q0 -27 10 -39.5t36 -12.5h264v-131h-292q-90 0 -132 45.5t-42 137.5v493h455zM392 744h-154l-96 151h115l58 -73l58 73h115z" />
    <glyph glyph-name="ecaron" unicode="&#x11b;" horiz-adv-x="545" 
d="M507 188h-316q13 -81 135 -81q92 0 166 33v-123q-27 -15 -81.5 -25t-102.5 -10q-57 0 -104 14t-85.5 43t-60 80.5t-21.5 121.5q0 118 68 184.5t174 66.5q112 0 170 -63t58 -154v-87zM190 284h170q-3 95 -85 95q-76 0 -85 -95zM357 559h-154l-96 151h115l58 -73l58 73h115
z" />
    <glyph glyph-name="Gcircumflex" unicode="&#x11c;" horiz-adv-x="785" 
d="M704 398v-335q-55 -36 -135.5 -58t-156.5 -22q-74 0 -138.5 20.5t-116.5 62t-82 111.5t-30 161t33.5 161.5t91 111.5t126.5 61.5t147 20.5q141 0 248 -48v-140q-114 54 -245 54q-48 0 -88.5 -10.5t-75.5 -34.5t-55 -69t-20 -107q0 -115 61.5 -168.5t153.5 -53.5
q75 0 130 24v130h-153v128h305zM316 895h154l96 -151h-115l-58 73l-58 -73h-115z" />
    <glyph glyph-name="gcircumflex" unicode="&#x11d;" horiz-adv-x="568" 
d="M495 458v-441q0 -112 -65.5 -168t-179.5 -56q-111 0 -187 38v136q76 -50 172 -50q114 0 114 97v21q-38 -35 -107 -35q-85 0 -145 58t-60 177q0 118 71 187.5t190 69.5q98 0 197 -34zM350 362q-24 6 -48 6q-52 0 -85 -29.5t-33 -94.5q0 -117 95 -117q43 0 71 25v210z
M207 710h154l96 -151h-115l-58 73l-58 -73h-115z" />
    <glyph glyph-name="Gbreve" unicode="&#x11e;" horiz-adv-x="785" 
d="M704 398v-335q-55 -36 -135.5 -58t-156.5 -22q-74 0 -138.5 20.5t-116.5 62t-82 111.5t-30 161t33.5 161.5t91 111.5t126.5 61.5t147 20.5q141 0 248 -48v-140q-114 54 -245 54q-48 0 -88.5 -10.5t-75.5 -34.5t-55 -69t-20 -107q0 -115 61.5 -168.5t153.5 -53.5
q75 0 130 24v130h-153v128h305zM233 895h84q10 -62 76 -62t76 62h84q-3 -75 -46 -116t-114 -41t-114 41t-46 116z" />
    <glyph glyph-name="gbreve" unicode="&#x11f;" horiz-adv-x="568" 
d="M495 458v-441q0 -112 -65.5 -168t-179.5 -56q-111 0 -187 38v136q76 -50 172 -50q114 0 114 97v21q-38 -35 -107 -35q-85 0 -145 58t-60 177q0 118 71 187.5t190 69.5q98 0 197 -34zM350 362q-24 6 -48 6q-52 0 -85 -29.5t-33 -94.5q0 -117 95 -117q43 0 71 25v210z
M124 709h84q10 -62 76 -62t76 62h84q-3 -75 -46 -116t-114 -41t-114 41t-46 116z" />
    <glyph glyph-name="Gdotaccent" unicode="&#x120;" horiz-adv-x="785" 
d="M704 398v-335q-55 -36 -135.5 -58t-156.5 -22q-74 0 -138.5 20.5t-116.5 62t-82 111.5t-30 161t33.5 161.5t91 111.5t126.5 61.5t147 20.5q141 0 248 -48v-140q-114 54 -245 54q-48 0 -88.5 -10.5t-75.5 -34.5t-55 -69t-20 -107q0 -115 61.5 -168.5t153.5 -53.5
q75 0 130 24v130h-153v128h305zM462 879v-125h-138v125h138z" />
    <glyph glyph-name="gdotaccent" unicode="&#x121;" horiz-adv-x="568" 
d="M495 458v-441q0 -112 -65.5 -168t-179.5 -56q-111 0 -187 38v136q76 -50 172 -50q114 0 114 97v21q-38 -35 -107 -35q-85 0 -145 58t-60 177q0 118 71 187.5t190 69.5q98 0 197 -34zM350 362q-24 6 -48 6q-52 0 -85 -29.5t-33 -94.5q0 -117 95 -117q43 0 71 25v210z
M353 693v-125h-138v125h138z" />
    <glyph glyph-name="Gcommaaccent" unicode="&#x122;" horiz-adv-x="785" 
d="M704 398v-335q-55 -36 -135.5 -58t-156.5 -22q-74 0 -138.5 20.5t-116.5 62t-82 111.5t-30 161t33.5 161.5t91 111.5t126.5 61.5t147 20.5q141 0 248 -48v-140q-114 54 -245 54q-48 0 -88.5 -10.5t-75.5 -34.5t-55 -69t-20 -107q0 -115 61.5 -168.5t153.5 -53.5
q75 0 130 24v130h-153v128h305zM342 -61h112q10 -29 10 -56q0 -56 -36.5 -93.5t-97.5 -49.5l-32 80q55 24 55 68q0 26 -11 51z" />
    <glyph glyph-name="gcommaaccent" unicode="&#x123;" horiz-adv-x="568" 
d="M495 458v-441q0 -112 -65.5 -168t-179.5 -56q-111 0 -187 38v136q76 -50 172 -50q114 0 114 97v21q-38 -35 -107 -35q-85 0 -145 58t-60 177q0 118 71 187.5t190 69.5q98 0 197 -34zM350 362q-24 6 -48 6q-52 0 -85 -29.5t-33 -94.5q0 -117 95 -117q43 0 71 25v210z
M344 568h-112q-10 29 -10 56q0 56 36.5 93.5t97.5 49.5l32 -80q-55 -24 -55 -68q0 -26 11 -51z" />
    <glyph glyph-name="Hcircumflex" unicode="&#x124;" horiz-adv-x="793" 
d="M697 676v-676h-156v277h-289v-277h-156v676h156v-263h289v263h156zM319 895h154l96 -151h-115l-58 73l-58 -73h-115z" />
    <glyph glyph-name="hcircumflex" unicode="&#x125;" horiz-adv-x="594" 
d="M74 0v710h145v-264q56 46 136 46q76 0 123.5 -49t47.5 -148v-295h-144v281q0 74 -75 74q-48 0 -88 -25v-330h-145zM70 895h154l96 -151h-115l-58 73l-58 -73h-115z" />
    <glyph glyph-name="Hbar" unicode="&#x126;" horiz-adv-x="793" 
d="M697 676v-84h78v-85h-78v-507h-156v277h-289v-277h-156v507h-78v85h78v84h156v-84h289v84h156zM252 413h289v94h-289v-94z" />
    <glyph glyph-name="hbar" unicode="&#x127;" horiz-adv-x="593" 
d="M-2 560v79h75v71h145v-71h165v-79h-165v-114q56 46 136 46q76 0 123.5 -49t47.5 -148v-295h-144v281q0 74 -75 74q-48 0 -88 -25v-330h-145v560h-75z" />
    <glyph glyph-name="Itilde" unicode="&#x128;" horiz-adv-x="348" 
d="M252 676v-676h-156v676h156zM245 742q-35 0 -78 24.5t-58 24.5q-24 0 -24 -47h-92q0 67 25.5 110t84.5 43q35 0 78 -24.5t58 -24.5q24 0 24 47h92q0 -67 -25.5 -110t-84.5 -43z" />
    <glyph glyph-name="itilde" unicode="&#x129;" horiz-adv-x="291" 
d="M218 475v-475h-145v475h145zM216 557q-35 0 -78 24.5t-58 24.5q-24 0 -24 -47h-92q0 67 25.5 110t84.5 43q35 0 78 -24.5t58 -24.5q24 0 24 47h92q0 -67 -25.5 -110t-84.5 -43z" />
    <glyph glyph-name="Imacron" unicode="&#x12a;" horiz-adv-x="348" 
d="M252 676v-676h-156v676h156zM316 869v-101h-284v101h284z" />
    <glyph glyph-name="imacron" unicode="&#x12b;" horiz-adv-x="291" 
d="M218 475v-475h-145v475h145zM287 685v-101h-284v101h284z" />
    <glyph glyph-name="Ibreve" unicode="&#x12c;" horiz-adv-x="348" 
d="M252 676v-676h-156v676h156zM14 895h84q10 -62 76 -62t76 62h84q-3 -75 -46 -116t-114 -41t-114 41t-46 116z" />
    <glyph glyph-name="ibreve" unicode="&#x12d;" horiz-adv-x="291" 
d="M218 475v-475h-145v475h145zM-15 710h84q10 -62 76 -62t76 62h84q-3 -75 -46 -116t-114 -41t-114 41t-46 116z" />
    <glyph glyph-name="Iogonek" unicode="&#x12e;" horiz-adv-x="348" 
d="M150 0h-54v676h156v-676q-34 -25 -50 -47t-16 -52q0 -36 37 -36q22 0 48 13v-91q-30 -15 -75 -15q-53 0 -83.5 27.5t-30.5 77.5q0 83 68 123z" />
    <glyph glyph-name="iogonek" unicode="&#x12f;" horiz-adv-x="291" 
d="M116 0h-43v475h145v-475q-34 -25 -50 -47t-16 -52q0 -36 37 -36q22 0 48 13v-91q-30 -15 -75 -15q-53 0 -83.5 27.5t-30.5 77.5q0 83 68 123zM218 695v-131h-145v131h145z" />
    <glyph glyph-name="Idotaccent" unicode="&#x130;" horiz-adv-x="348" 
d="M252 676v-676h-156v676h156zM243 879v-125h-138v125h138z" />
    <glyph glyph-name="dotlessi" unicode="&#x131;" horiz-adv-x="291" 
d="M218 475v-475h-145v475h145z" />
    <glyph glyph-name="Jcircumflex" unicode="&#x134;" horiz-adv-x="433" 
d="M346 676v-476q0 -217 -195 -217q-65 0 -117 24v135q43 -26 90 -26q35 0 50.5 16.5t15.5 56.5v487h156zM191 895h154l96 -151h-115l-58 73l-58 -73h-115z" />
    <glyph glyph-name="jcircumflex" unicode="&#x135;" horiz-adv-x="291" 
d="M73 475h145v-505q0 -177 -142 -177q-50 0 -89 16v130q26 -13 51 -13q18 0 26.5 10t8.5 34v505zM68 710h154l96 -151h-115l-58 73l-58 -73h-115z" />
    <glyph glyph-name="Kcommaaccent" unicode="&#x136;" horiz-adv-x="690" 
d="M683 676l-291 -323l298 -353h-200l-240 287v-287h-157v676h157v-279l251 279h182zM315 -61h112q10 -29 10 -56q0 -56 -36.5 -93.5t-97.5 -49.5l-32 80q55 24 55 68q0 26 -11 51z" />
    <glyph glyph-name="kcommaaccent" unicode="&#x137;" horiz-adv-x="547" 
d="M547 475l-197 -206l199 -269h-177l-154 213v-213h-145v710h145v-407l159 172h170zM251 -61h112q10 -29 10 -56q0 -56 -36.5 -93.5t-97.5 -49.5l-32 80q55 24 55 68q0 26 -11 51z" />
    <glyph glyph-name="Lacute" unicode="&#x139;" horiz-adv-x="552" 
d="M88 676h156v-493q0 -27 10 -39.5t36 -12.5h247v-131h-275q-90 0 -132 45.5t-42 137.5v493zM112 744l73 151h159l-125 -151h-107z" />
    <glyph glyph-name="lacute" unicode="&#x13a;" horiz-adv-x="314" 
d="M210 710v-550q0 -24 8.5 -34t26.5 -10q25 0 51 13v-130q-39 -16 -89 -16q-142 0 -142 169v558h145zM101 745l73 151h159l-125 -151h-107z" />
    <glyph glyph-name="Lcommaaccent" unicode="&#x13b;" horiz-adv-x="552" 
d="M88 676h156v-493q0 -27 10 -39.5t36 -12.5h247v-131h-275q-90 0 -132 45.5t-42 137.5v493zM283 -61h112q10 -29 10 -56q0 -56 -36.5 -93.5t-97.5 -49.5l-32 80q55 24 55 68q0 26 -11 51z" />
    <glyph glyph-name="lcommaaccent" unicode="&#x13c;" horiz-adv-x="314" 
d="M210 710v-550q0 -24 8.5 -34t26.5 -10q25 0 51 13v-130q-39 -16 -89 -16q-142 0 -142 169v558h145zM133 -61h112q10 -29 10 -56q0 -56 -36.5 -93.5t-97.5 -49.5l-32 80q55 24 55 68q0 26 -11 51z" />
    <glyph glyph-name="Lcaron" unicode="&#x13d;" horiz-adv-x="552" 
d="M446 676q11 -31 11 -77q0 -111 -110 -164l-46 63q50 34 50 99q0 34 -16 79h111zM88 676h156v-493q0 -27 10 -39.5t36 -12.5h247v-131h-275q-90 0 -132 45.5t-42 137.5v493z" />
    <glyph glyph-name="lcaron" unicode="&#x13e;" horiz-adv-x="380" 
d="M370 710q10 -31 10 -69q0 -102 -100 -149l-40 59q45 30 45 88q0 29 -15 71h100zM210 710v-550q0 -24 8.5 -34t26.5 -10q25 0 51 13v-130q-39 -16 -89 -16q-142 0 -142 169v558h145z" />
    <glyph glyph-name="Lslash" unicode="&#x141;" horiz-adv-x="558" 
d="M93 676h157v-222l147 62v-114l-147 -62v-157q0 -27 10 -39.5t36 -12.5h247v-131h-275q-90 0 -132.5 46t-42.5 137v92l-78 -32v114l78 32v287z" />
    <glyph glyph-name="lslash" unicode="&#x142;" horiz-adv-x="314" 
d="M210 710v-224l66 32v-120l-66 -32v-206q0 -24 8.5 -34t26.5 -10q25 0 51 13v-130q-39 -16 -89 -16q-142 0 -142 169v143l-58 -28v120l58 28v295h145z" />
    <glyph glyph-name="Nacute" unicode="&#x143;" horiz-adv-x="783" 
d="M687 676v-676h-133l-306 413v-413h-152v676h133l306 -413v413h152zM348 744l73 151h159l-125 -151h-107z" />
    <glyph glyph-name="nacute" unicode="&#x144;" horiz-adv-x="593" 
d="M202 475l9 -36q55 53 143 53q76 0 123.5 -49t47.5 -148v-295h-144v281q0 74 -75 74q-48 0 -88 -25v-330h-145v475h129zM235 559l73 151h159l-125 -151h-107z" />
    <glyph glyph-name="Ncommaaccent" unicode="&#x145;" horiz-adv-x="783" 
d="M687 676v-676h-133l-306 413v-413h-152v676h133l306 -413v413h152zM352 -61h112q10 -29 10 -56q0 -56 -36.5 -93.5t-97.5 -49.5l-32 80q55 24 55 68q0 26 -11 51z" />
    <glyph glyph-name="ncommaaccent" unicode="&#x146;" horiz-adv-x="593" 
d="M202 475l9 -36q55 53 143 53q76 0 123.5 -49t47.5 -148v-295h-144v281q0 74 -75 74q-48 0 -88 -25v-330h-145v475h129zM234 -61h112q10 -29 10 -56q0 -56 -36.5 -93.5t-97.5 -49.5l-32 80q55 24 55 68q0 26 -11 51z" />
    <glyph glyph-name="Ncaron" unicode="&#x147;" horiz-adv-x="783" 
d="M687 676v-676h-133l-306 413v-413h-152v676h133l306 -413v413h152zM468 744h-154l-96 151h115l58 -73l58 73h115z" />
    <glyph glyph-name="ncaron" unicode="&#x148;" horiz-adv-x="593" 
d="M202 475l9 -36q55 53 143 53q76 0 123.5 -49t47.5 -148v-295h-144v281q0 74 -75 74q-48 0 -88 -25v-330h-145v475h129zM371 559h-154l-96 151h115l58 -73l58 73h115z" />
    <glyph glyph-name="Eng" unicode="&#x14a;" horiz-adv-x="783" 
d="M535 16v9l-287 388v-413h-152v676h133l306 -413v413h152v-649q0 -217 -195 -217q-64 0 -117 24v135q43 -26 94 -26q35 0 50.5 16.5t15.5 56.5z" />
    <glyph glyph-name="eng" unicode="&#x14b;" horiz-adv-x="593" 
d="M73 475h129l9 -36q55 53 143 53q76 0 123.5 -49t47.5 -148v-325q0 -177 -142 -177q-49 0 -88 16v130q26 -13 51 -13q18 0 26.5 10t8.5 34v311q0 74 -75 74q-48 0 -88 -25v-330h-145v475z" />
    <glyph glyph-name="Omacron" unicode="&#x14c;" horiz-adv-x="808" 
d="M763 338q0 -164 -98.5 -259.5t-260.5 -95.5t-260.5 95t-98.5 260t98.5 260t260.5 95t260.5 -95.5t98.5 -259.5zM600 338q0 102 -51 161.5t-145 59.5q-95 0 -145.5 -59.5t-50.5 -161.5t50.5 -162t145.5 -60q94 0 145 60t51 162zM546 871v-101h-284v101h284z" />
    <glyph glyph-name="omacron" unicode="&#x14d;" 
d="M289 492q114 0 183 -67t69 -187t-69 -187.5t-183 -67.5t-183 67.5t-69 187.5t69 187t183 67zM289 368q-47 0 -75.5 -35t-28.5 -95t28.5 -95.5t75.5 -35.5t75.5 35.5t28.5 95.5t-28.5 95t-75.5 35zM431 685v-101h-284v101h284z" />
    <glyph glyph-name="Obreve" unicode="&#x14e;" horiz-adv-x="808" 
d="M763 338q0 -164 -98.5 -259.5t-260.5 -95.5t-260.5 95t-98.5 260t98.5 260t260.5 95t260.5 -95.5t98.5 -259.5zM600 338q0 102 -51 161.5t-145 59.5q-95 0 -145.5 -59.5t-50.5 -161.5t50.5 -162t145.5 -60q94 0 145 60t51 162zM244 895h84q10 -62 76 -62t76 62h84
q-3 -75 -46 -116t-114 -41t-114 41t-46 116z" />
    <glyph glyph-name="obreve" unicode="&#x14f;" 
d="M289 492q114 0 183 -67t69 -187t-69 -187.5t-183 -67.5t-183 67.5t-69 187.5t69 187t183 67zM289 368q-47 0 -75.5 -35t-28.5 -95t28.5 -95.5t75.5 -35.5t75.5 35.5t28.5 95.5t-28.5 95t-75.5 35zM129 710h84q10 -62 76 -62t76 62h84q-3 -75 -46 -116t-114 -41t-114 41
t-46 116z" />
    <glyph glyph-name="Ohungarumlaut" unicode="&#x150;" horiz-adv-x="808" 
d="M763 338q0 -164 -98.5 -259.5t-260.5 -95.5t-260.5 95t-98.5 260t98.5 260t260.5 95t260.5 -95.5t98.5 -259.5zM600 338q0 102 -51 161.5t-145 59.5q-95 0 -145.5 -59.5t-50.5 -161.5t50.5 -162t145.5 -60q94 0 145 60t51 162zM282 744l50 151h125l-81 -151h-94zM425 744
l81 151h133l-114 -151h-100z" />
    <glyph glyph-name="ohungarumlaut" unicode="&#x151;" 
d="M289 492q114 0 183 -67t69 -187t-69 -187.5t-183 -67.5t-183 67.5t-69 187.5t69 187t183 67zM289 368q-47 0 -75.5 -35t-28.5 -95t28.5 -95.5t75.5 -35.5t75.5 35.5t28.5 95.5t-28.5 95t-75.5 35zM171 559l50 151h125l-81 -151h-94zM314 559l81 151h133l-114 -151h-100z
" />
    <glyph glyph-name="OE" unicode="&#x152;" horiz-adv-x="1140" 
d="M1071 676v-131h-299v-138h265v-131h-265v-93q0 -27 10 -39.5t36 -12.5h264v-131h-292q-116 0 -152 80q-35 -45 -97 -71t-137 -26q-162 0 -260.5 95.5t-98.5 260.5t98 259.5t261 94.5q66 0 123.5 -20.5t92.5 -55.5v59h451zM600 339q0 102 -51 161.5t-145 59.5
q-95 0 -146 -59.5t-51 -161.5t51 -162.5t146 -60.5q94 0 145 60.5t51 162.5z" />
    <glyph glyph-name="oe" unicode="&#x153;" horiz-adv-x="898" 
d="M859 188h-316q13 -81 135 -81q92 0 166 33v-123q-27 -15 -81.5 -25t-102.5 -10q-131 0 -200 69q-65 -68 -171 -68q-114 0 -183 67.5t-69 187.5t69 187t183 67q103 0 169 -68q65 68 173 68q112 0 170 -63t58 -154v-87zM393 238q0 60 -28.5 95t-75.5 35t-75.5 -35
t-28.5 -95t28.5 -95.5t75.5 -35.5t75.5 35.5t28.5 95.5zM542 284h170q-3 95 -85 95q-76 0 -85 -95z" />
    <glyph glyph-name="Racute" unicode="&#x154;" horiz-adv-x="678" 
d="M252 226v-226h-156v676h258q126 0 201.5 -58.5t75.5 -165.5q0 -150 -148 -193l159 -259h-176l-132 226h-82zM252 545v-188h92q124 0 124 94t-124 94h-92zM291 744l73 151h159l-125 -151h-107z" />
    <glyph glyph-name="racute" unicode="&#x155;" horiz-adv-x="388" 
d="M367 492v-153q-95 0 -149 -39v-300h-145v475h129l9 -60q25 23 42 36t49 27t65 14zM135 559l73 151h159l-125 -151h-107z" />
    <glyph glyph-name="Rcommaaccent" unicode="&#x156;" horiz-adv-x="678" 
d="M252 226v-226h-156v676h258q126 0 201.5 -58.5t75.5 -165.5q0 -150 -148 -193l159 -259h-176l-132 226h-82zM252 545v-188h92q124 0 124 94t-124 94h-92zM294 -61h112q10 -29 10 -56q0 -56 -36.5 -93.5t-97.5 -49.5l-32 80q55 24 55 68q0 26 -11 51z" />
    <glyph glyph-name="rcommaaccent" unicode="&#x157;" horiz-adv-x="388" 
d="M367 492v-153q-95 0 -149 -39v-300h-145v475h129l9 -60q25 23 42 36t49 27t65 14zM81 -61h112q10 -29 10 -56q0 -56 -36.5 -93.5t-97.5 -49.5l-32 80q55 24 55 68q0 26 -11 51z" />
    <glyph glyph-name="Rcaron" unicode="&#x158;" horiz-adv-x="678" 
d="M252 226v-226h-156v676h258q126 0 201.5 -58.5t75.5 -165.5q0 -150 -148 -193l159 -259h-176l-132 226h-82zM252 545v-188h92q124 0 124 94t-124 94h-92zM434 744h-154l-96 151h115l58 -73l58 73h115z" />
    <glyph glyph-name="rcaron" unicode="&#x159;" horiz-adv-x="388" 
d="M367 492v-153q-95 0 -149 -39v-300h-145v475h129l9 -60q25 23 42 36t49 27t65 14zM300 559h-154l-96 151h115l58 -73l58 73h115z" />
    <glyph glyph-name="Sacute" unicode="&#x15a;" horiz-adv-x="574" 
d="M494 522q-70 37 -166 37q-106 0 -106 -68q0 -27 30 -46t73 -34t86 -35.5t73 -63t30 -104.5q0 -119 -70.5 -172t-177.5 -53q-111 0 -197 43v136q94 -46 182 -46q101 0 101 73q0 32 -30 53t-73 36t-86 35t-73 62.5t-30 105.5q0 100 71.5 156t192.5 56q97 0 170 -30v-141z
M234 744l73 151h159l-125 -151h-107z" />
    <glyph glyph-name="sacute" unicode="&#x15b;" horiz-adv-x="486" 
d="M421 469v-123q-64 32 -156 32q-80 0 -80 -38q0 -16 19 -24.5t47.5 -11.5t62 -12t62 -21.5t47.5 -43.5t19 -77q0 -84 -62 -125.5t-155 -41.5q-96 0 -175 36v127q85 -43 172 -43q75 0 75 39q0 15 -19 24t-47.5 13t-62 13t-62 22t-47.5 41.5t-19 69.5q0 85 62 126t161 41
q91 0 158 -23zM170 559l73 151h159l-125 -151h-107z" />
    <glyph glyph-name="Scircumflex" unicode="&#x15c;" horiz-adv-x="574" 
d="M494 522q-70 37 -166 37q-106 0 -106 -68q0 -27 30 -46t73 -34t86 -35.5t73 -63t30 -104.5q0 -119 -70.5 -172t-177.5 -53q-111 0 -197 43v136q94 -46 182 -46q101 0 101 73q0 32 -30 53t-73 36t-86 35t-73 62.5t-30 105.5q0 100 71.5 156t192.5 56q97 0 170 -30v-141z
M218 895h154l96 -151h-115l-58 73l-58 -73h-115z" />
    <glyph glyph-name="scircumflex" unicode="&#x15d;" horiz-adv-x="486" 
d="M421 469v-123q-64 32 -156 32q-80 0 -80 -38q0 -16 19 -24.5t47.5 -11.5t62 -12t62 -21.5t47.5 -43.5t19 -77q0 -84 -62 -125.5t-155 -41.5q-96 0 -175 36v127q85 -43 172 -43q75 0 75 39q0 15 -19 24t-47.5 13t-62 13t-62 22t-47.5 41.5t-19 69.5q0 85 62 126t161 41
q91 0 158 -23zM163 710h154l96 -151h-115l-58 73l-58 -73h-115z" />
    <glyph glyph-name="Scedilla" unicode="&#x15e;" horiz-adv-x="574" 
d="M199 -221v78q26 -14 57 -14q40 0 40 27t-42 27h-27l27 86q-107 3 -185 43v136q94 -46 182 -46q101 0 101 73q0 32 -30 53t-73 36t-86 35t-73 62.5t-30 105.5q0 100 71.5 156t192.5 56q97 0 170 -30v-141q-70 37 -166 37q-106 0 -106 -68q0 -27 30 -46t73 -34t86 -35.5
t73 -63t30 -104.5q0 -99 -49.5 -152t-130.5 -67l-11 -45q79 -13 79 -88q0 -42 -34.5 -66.5t-98.5 -24.5q-45 0 -70 14z" />
    <glyph glyph-name="scedilla" unicode="&#x15f;" horiz-adv-x="486" 
d="M158 -221v78q28 -14 57 -14q40 0 40 27t-42 27h-27l27 86q-92 3 -163 36v127q85 -43 172 -43q75 0 75 39q0 15 -19 24t-47.5 13t-61.5 13t-61.5 22t-47.5 41.5t-19 69.5q0 85 61.5 126t160.5 41q92 0 159 -23v-123q-64 32 -157 32q-80 0 -80 -38q0 -16 19 -24.5
t47.5 -11.5t62 -12t62 -21.5t47.5 -43.5t19 -77q0 -68 -40.5 -107.5t-107.5 -52.5l-12 -46q79 -13 79 -88q0 -41 -34.5 -66t-97.5 -25q-46 0 -71 14z" />
    <glyph glyph-name="Scaron" unicode="&#x160;" horiz-adv-x="574" 
d="M494 522q-70 37 -166 37q-106 0 -106 -68q0 -27 30 -46t73 -34t86 -35.5t73 -63t30 -104.5q0 -119 -70.5 -172t-177.5 -53q-111 0 -197 43v136q94 -46 182 -46q101 0 101 73q0 32 -30 53t-73 36t-86 35t-73 62.5t-30 105.5q0 100 71.5 156t192.5 56q97 0 170 -30v-141z
M372 744h-154l-96 151h115l58 -73l58 73h115z" />
    <glyph glyph-name="scaron" unicode="&#x161;" horiz-adv-x="486" 
d="M421 469v-123q-64 32 -156 32q-80 0 -80 -38q0 -16 19 -24.5t47.5 -11.5t62 -12t62 -21.5t47.5 -43.5t19 -77q0 -84 -62 -125.5t-155 -41.5q-96 0 -175 36v127q85 -43 172 -43q75 0 75 39q0 15 -19 24t-47.5 13t-62 13t-62 22t-47.5 41.5t-19 69.5q0 85 62 126t161 41
q91 0 158 -23zM319 559h-154l-96 151h115l58 -73l58 73h115z" />
    <glyph glyph-name="Tcommaaccent" unicode="&#x162;" horiz-adv-x="605" 
d="M590 676v-131h-209v-545h-157v545h-209v131h575zM236 -61h112q10 -29 10 -56q0 -56 -36.5 -93.5t-97.5 -49.5l-32 80q55 24 55 68q0 26 -11 51z" />
    <glyph glyph-name="tcommaaccent" unicode="&#x163;" horiz-adv-x="392" 
d="M354 475v-123h-122v-181q0 -55 50 -55q37 0 79 24v-129q-47 -28 -118 -28q-156 0 -156 178v191h-64v123h64l21 151h124v-151h122zM158 -61h112q10 -29 10 -56q0 -56 -36.5 -93.5t-97.5 -49.5l-32 80q55 24 55 68q0 26 -11 51z" />
    <glyph glyph-name="Tcaron" unicode="&#x164;" horiz-adv-x="605" 
d="M590 676v-131h-209v-545h-157v545h-209v131h575zM380 744h-154l-96 151h115l58 -73l58 73h115z" />
    <glyph glyph-name="tcaron" unicode="&#x165;" horiz-adv-x="399" 
d="M389 727q10 -31 10 -69q0 -107 -100 -154l-40 64q45 30 45 88q0 29 -15 71h100zM354 475v-123h-122v-181q0 -55 50 -55q37 0 79 24v-129q-47 -28 -118 -28q-156 0 -156 178v191h-64v123h64l21 151h124v-151h122z" />
    <glyph glyph-name="Tbar" unicode="&#x166;" horiz-adv-x="605" 
d="M590 676v-131h-209v-167h142v-101h-142v-277h-157v277h-142v101h142v167h-209v131h575z" />
    <glyph glyph-name="tbar" unicode="&#x167;" horiz-adv-x="392" 
d="M354 475v-123h-123v-57h100v-101h-100v-22q0 -55 50 -55q38 0 79 23v-129q-47 -28 -118 -28q-155 0 -155 178v33h-65v101h65v57h-65v123h66l19 151h124v-151h123z" />
    <glyph glyph-name="Utilde" unicode="&#x168;" horiz-adv-x="720" 
d="M641 676v-427q0 -127 -76.5 -196.5t-204.5 -69.5q-127 0 -204 69.5t-77 196.5v427h156v-428q0 -66 34.5 -99t90.5 -33q57 0 92 33t35 99v428h154zM431 742q-35 0 -78 24.5t-58 24.5q-24 0 -24 -47h-92q0 67 25.5 110t84.5 43q35 0 78 -24.5t58 -24.5q24 0 24 47h92
q0 -67 -25.5 -110t-84.5 -43z" />
    <glyph glyph-name="utilde" unicode="&#x169;" horiz-adv-x="569" 
d="M495 0h-115l-11 42q-59 -59 -138 -59q-80 0 -124 49.5t-44 140.5v302h145v-292q0 -67 63 -67q45 0 79 34v325h145v-475zM358 557q-35 0 -78 24.5t-58 24.5q-24 0 -24 -47h-92q0 67 25.5 110t84.5 43q35 0 78 -24.5t58 -24.5q24 0 24 47h92q0 -67 -25.5 -110t-84.5 -43z
" />
    <glyph glyph-name="Umacron" unicode="&#x16a;" horiz-adv-x="720" 
d="M641 676v-427q0 -127 -76.5 -196.5t-204.5 -69.5q-127 0 -204 69.5t-77 196.5v427h156v-428q0 -66 34.5 -99t90.5 -33q57 0 92 33t35 99v428h154zM502 870v-101h-284v101h284z" />
    <glyph glyph-name="umacron" unicode="&#x16b;" horiz-adv-x="569" 
d="M495 0h-115l-11 42q-59 -59 -138 -59q-80 0 -124 49.5t-44 140.5v302h145v-292q0 -67 63 -67q45 0 79 34v325h145v-475zM422 685v-101h-284v101h284z" />
    <glyph glyph-name="Ubreve" unicode="&#x16c;" horiz-adv-x="720" 
d="M641 676v-427q0 -127 -76.5 -196.5t-204.5 -69.5q-127 0 -204 69.5t-77 196.5v427h156v-428q0 -66 34.5 -99t90.5 -33q57 0 92 33t35 99v428h154zM200 894h84q10 -62 76 -62t76 62h84q-3 -75 -46 -116t-114 -41t-114 41t-46 116z" />
    <glyph glyph-name="ubreve" unicode="&#x16d;" horiz-adv-x="569" 
d="M495 0h-115l-11 42q-59 -59 -138 -59q-80 0 -124 49.5t-44 140.5v302h145v-292q0 -67 63 -67q45 0 79 34v325h145v-475zM120 710h84q10 -62 76 -62t76 62h84q-3 -75 -46 -116t-114 -41t-114 41t-46 116z" />
    <glyph glyph-name="Uring" unicode="&#x16e;" horiz-adv-x="720" 
d="M641 676v-427q0 -127 -76.5 -196.5t-204.5 -69.5q-127 0 -204 69.5t-77 196.5v427h156v-428q0 -66 34.5 -99t90.5 -33q57 0 92 33t35 99v428h154zM475 822q0 -46 -31.5 -69.5t-83.5 -23.5t-83.5 23.5t-31.5 69.5q0 44 31.5 67.5t83.5 23.5t83.5 -23.5t31.5 -67.5z
M400 821q0 17 -10.5 27.5t-29.5 10.5t-29.5 -10.5t-10.5 -27.5t10.5 -27.5t29.5 -10.5t29.5 10.5t10.5 27.5z" />
    <glyph glyph-name="uring" unicode="&#x16f;" horiz-adv-x="569" 
d="M495 0h-115l-11 42q-59 -59 -138 -59q-80 0 -124 49.5t-44 140.5v302h145v-292q0 -67 63 -67q45 0 79 34v325h145v-475zM395 636q0 -46 -31.5 -69.5t-83.5 -23.5t-83.5 23.5t-31.5 69.5q0 44 31.5 67.5t83.5 23.5t83.5 -23.5t31.5 -67.5zM320 635q0 17 -10.5 27.5
t-29.5 10.5t-29.5 -10.5t-10.5 -27.5t10.5 -27.5t29.5 -10.5t29.5 10.5t10.5 27.5z" />
    <glyph glyph-name="Uhungarumlaut" unicode="&#x170;" horiz-adv-x="720" 
d="M641 676v-427q0 -127 -76.5 -196.5t-204.5 -69.5q-127 0 -204 69.5t-77 196.5v427h156v-428q0 -66 34.5 -99t90.5 -33q57 0 92 33t35 99v428h154zM236 744l50 151h125l-81 -151h-94zM379 744l81 151h133l-114 -151h-100z" />
    <glyph glyph-name="uhungarumlaut" unicode="&#x171;" horiz-adv-x="569" 
d="M495 0h-115l-11 42q-59 -59 -138 -59q-80 0 -124 49.5t-44 140.5v302h145v-292q0 -67 63 -67q45 0 79 34v325h145v-475zM154 559l50 151h125l-81 -151h-94zM297 559l81 151h133l-114 -151h-100z" />
    <glyph glyph-name="Uogonek" unicode="&#x172;" horiz-adv-x="720" 
d="M641 676v-427q0 -109 -58 -176.5t-158 -83.5q-50 -42 -50 -88q0 -36 37 -36q22 0 48 13v-91q-30 -15 -75 -15q-53 0 -83.5 27.5t-30.5 77.5q0 67 47 108q-110 12 -174.5 80t-64.5 184v427h156v-428q0 -66 34.5 -99t90.5 -33q57 0 92 33t35 99v428h154z" />
    <glyph glyph-name="uogonek" unicode="&#x173;" horiz-adv-x="569" 
d="M393 0h-13l-11 42q-59 -59 -138 -59q-80 0 -124 49.5t-44 140.5v302h145v-292q0 -67 63 -67q45 0 79 34v325h145v-475q-34 -25 -50 -47t-16 -52q0 -36 37 -36q22 0 48 13v-91q-30 -15 -75 -15q-53 0 -83.5 27.5t-30.5 77.5q0 83 68 123z" />
    <glyph glyph-name="Wcircumflex" unicode="&#x174;" horiz-adv-x="992" 
d="M426 676h140l144 -477l118 477h164l-183 -676h-166l-147 475l-146 -475h-167l-183 676h164l118 -477zM419 895h154l96 -151h-115l-58 73l-58 -73h-115z" />
    <glyph glyph-name="wcircumflex" unicode="&#x175;" horiz-adv-x="813" 
d="M330 475h152l94 -295l80 295h150l-152 -475h-139l-109 318l-109 -318h-139l-151 475h149l80 -295zM329 710h154l96 -151h-115l-58 73l-58 -73h-115z" />
    <glyph glyph-name="Ycircumflex" unicode="&#x176;" horiz-adv-x="635" 
d="M635 676l-240 -409v-267h-156v267l-239 409h174l152 -270l152 270h157zM240 895h154l96 -151h-115l-58 73l-58 -73h-115z" />
    <glyph glyph-name="ycircumflex" unicode="&#x177;" horiz-adv-x="569" 
d="M63 475h145v-275q0 -67 63 -67q45 0 79 34v308h145v-458q0 -114 -67 -169t-171 -55q-94 0 -176 37v136q28 -20 73.5 -35t88.5 -15q51 0 79 21.5t28 76.5v26q-52 -40 -119 -40q-80 0 -124 49.5t-44 140.5v285zM203 710h154l96 -151h-115l-58 73l-58 -73h-115z" />
    <glyph glyph-name="Ydieresis" unicode="&#x178;" horiz-adv-x="635" 
d="M635 676l-240 -409v-267h-156v267l-239 409h174l152 -270l152 270h157zM287 878v-125h-126v125h126zM474 878v-125h-126v125h126z" />
    <glyph glyph-name="Zacute" unicode="&#x179;" horiz-adv-x="618" 
d="M571 676v-118l-336 -427h346v-131h-545v108l345 437h-338v131h528zM266 744l73 151h159l-125 -151h-107z" />
    <glyph glyph-name="zacute" unicode="&#x17a;" horiz-adv-x="495" 
d="M439 475v-99l-198 -256h203v-120h-397v96l200 259h-200v120h392zM183 559l73 151h159l-125 -151h-107z" />
    <glyph glyph-name="Zdotaccent" unicode="&#x17b;" horiz-adv-x="618" 
d="M571 676v-118l-336 -427h346v-131h-545v108l345 437h-338v131h528zM378 878v-125h-138v125h138z" />
    <glyph glyph-name="zdotaccent" unicode="&#x17c;" horiz-adv-x="495" 
d="M439 475v-99l-198 -256h203v-120h-397v96l200 259h-200v120h392zM316 693v-125h-138v125h138z" />
    <glyph glyph-name="Zcaron" unicode="&#x17d;" horiz-adv-x="618" 
d="M571 676v-118l-336 -427h346v-131h-545v108l345 437h-338v131h528zM386 744h-154l-96 151h115l58 -73l58 73h115z" />
    <glyph glyph-name="zcaron" unicode="&#x17e;" horiz-adv-x="495" 
d="M439 475v-99l-198 -256h203v-120h-397v96l200 259h-200v120h392zM324 559h-154l-96 151h115l58 -73l58 73h115z" />
    <glyph glyph-name="longs" unicode="&#x17f;" horiz-adv-x="351" 
d="M233 0h-145v352h-64v123h64v52q0 103 54.5 151.5t139.5 48.5q33 0 69 -9v-129q-21 8 -47 8q-71 0 -71 -72v-525z" />
    <glyph glyph-name="florin" unicode="&#x192;" 
d="M475 396v-102h-191v-294h-156v294h-73v102h73v73q0 114 69 169t171 55q81 0 156 -32v-134q-64 32 -142 32q-98 0 -98 -97v-66h191z" />
    <glyph glyph-name="Aringacute" unicode="&#x1fa;" horiz-adv-x="682" 
d="M456 820q0 -46 -31.5 -69.5t-83.5 -23.5t-83.5 23.5t-31.5 69.5q0 64 64 84l51 119h158l-105 -120q62 -20 62 -83zM381 819q0 17 -11 27.5t-29 10.5q-19 0 -29.5 -10.5t-10.5 -27.5t10.5 -27.5t29.5 -10.5q18 0 29 10.5t11 27.5zM411 676l271 -676h-171l-44 116h-273
l-44 -116h-150l273 676h138zM331 476l-90 -234h178z" />
    <glyph glyph-name="aringacute" unicode="&#x1fb;" horiz-adv-x="568" 
d="M391 636q0 -46 -31.5 -69.5t-83.5 -23.5t-83.5 23.5t-31.5 69.5q0 64 64 84l51 119h158l-105 -120q62 -20 62 -83zM316 635q0 17 -10.5 27.5t-29.5 10.5q-18 0 -29 -10.5t-11 -27.5t11 -27.5t29 -10.5q19 0 29.5 10.5t10.5 27.5zM495 458v-458h-114l-11 42
q-49 -59 -128 -59q-84 0 -144.5 62.5t-60.5 182.5q0 125 70.5 194.5t190.5 69.5q98 0 197 -34zM350 141v221q-22 6 -47 6q-52 0 -85.5 -32t-33.5 -101q0 -61 25.5 -90t68.5 -29q44 0 72 25z" />
    <glyph glyph-name="AEacute" unicode="&#x1fc;" horiz-adv-x="964" 
d="M895 676v-131h-299v-138h265v-131h-265v-93q0 -27 10 -39.5t36 -12.5h264v-131h-292q-141 0 -168 116h-248l-66 -116h-168l393 676h538zM439 545l-170 -303h170v303zM503 744l73 151h159l-125 -151h-107z" />
    <glyph glyph-name="aeacute" unicode="&#x1fd;" horiz-adv-x="841" 
d="M805 188h-316q13 -81 135 -81q92 0 166 33v-123q-28 -15 -82.5 -25t-102.5 -10q-130 0 -197 70q-60 -69 -158 -69q-87 0 -150 61.5t-63 183.5q0 125 70.5 194.5t190.5 69.5q83 0 149 -34q56 34 129 34q112 0 170.5 -63t58.5 -154v-87zM279 116q47 0 77 31q-10 39 -10 94
q0 64 19 116q-33 11 -61 11q-52 0 -86 -31.5t-34 -98.5q0 -122 95 -122zM487 284h170q-3 95 -85 95q-76 0 -85 -95zM396 559l73 151h159l-125 -151h-107z" />
    <glyph glyph-name="Oslashacute" unicode="&#x1fe;" horiz-adv-x="808" 
d="M763 338q0 -164 -98.5 -259.5t-260.5 -95.5q-109 0 -194 45l-64 -83l-58 47l61 81q-104 98 -104 265q0 164 98.5 259.5t260.5 95.5q106 0 189 -43l62 80l58 -47l-58 -77q108 -97 108 -268zM561 485l-262 -342q44 -27 105 -27q94 0 145 60t51 162q0 90 -39 147zM505 536
q-43 23 -101 23q-94 0 -145 -59.5t-51 -161.5q0 -86 36 -142zM363 744l73 151h159l-125 -151h-107z" />
    <glyph glyph-name="oslashacute" unicode="&#x1ff;" 
d="M541 238q0 -120 -69 -187.5t-183 -67.5q-72 0 -128 28l-55 -74l-51 38l54 73q-72 67 -72 190q0 120 69 187t183 67q71 0 127 -28l49 66l51 -38l-48 -64q73 -70 73 -190zM380 307l-139 -188q21 -12 48 -12q47 0 75.5 35.5t28.5 95.5q0 38 -13 69zM337 356q-26 12 -48 12
q-47 0 -75.5 -35t-28.5 -95q0 -37 13 -70zM246 559l73 151h159l-125 -151h-107z" />
    <glyph glyph-name="Scommaaccent" unicode="&#x218;" horiz-adv-x="574" 
d="M494 522q-70 37 -166 37q-106 0 -106 -68q0 -27 30 -46t73 -34t86 -35.5t73 -63t30 -104.5q0 -119 -70.5 -172t-177.5 -53q-111 0 -197 43v136q94 -46 182 -46q101 0 101 73q0 32 -30 53t-73 36t-86 35t-73 62.5t-30 105.5q0 100 71.5 156t192.5 56q97 0 170 -30v-141z
M241 -61h112q10 -29 10 -56q0 -56 -36.5 -93.5t-97.5 -49.5l-32 80q55 24 55 68q0 26 -11 51z" />
    <glyph glyph-name="scommaaccent" unicode="&#x219;" horiz-adv-x="486" 
d="M421 469v-123q-64 32 -156 32q-80 0 -80 -38q0 -16 19 -24.5t47.5 -11.5t62 -12t62 -21.5t47.5 -43.5t19 -77q0 -84 -62 -125.5t-155 -41.5q-96 0 -175 36v127q85 -43 172 -43q75 0 75 39q0 15 -19 24t-47.5 13t-62 13t-62 22t-47.5 41.5t-19 69.5q0 85 62 126t161 41
q91 0 158 -23zM203 -61h112q10 -29 10 -56q0 -56 -36.5 -93.5t-97.5 -49.5l-32 80q55 24 55 68q0 26 -11 51z" />
    <glyph glyph-name="circumflex" unicode="&#x2c6;" horiz-adv-x="510" 
d="M178 710h154l96 -151h-115l-58 73l-58 -73h-115z" />
    <glyph glyph-name="caron" unicode="&#x2c7;" horiz-adv-x="510" 
d="M332 559h-154l-96 151h115l58 -73l58 73h115z" />
    <glyph glyph-name="breve" unicode="&#x2d8;" horiz-adv-x="510" 
d="M95 710h84q10 -62 76 -62t76 62h84q-3 -75 -46 -116t-114 -41t-114 41t-46 116z" />
    <glyph glyph-name="dotaccent" unicode="&#x2d9;" horiz-adv-x="510" 
d="M324 693v-125h-138v125h138z" />
    <glyph glyph-name="ring" unicode="&#x2da;" horiz-adv-x="510" 
d="M370 636q0 -46 -31.5 -69.5t-83.5 -23.5t-83.5 23.5t-31.5 69.5q0 44 31.5 67.5t83.5 23.5t83.5 -23.5t31.5 -67.5zM295 635q0 17 -10.5 27.5t-29.5 10.5t-29.5 -10.5t-10.5 -27.5t10.5 -27.5t29.5 -10.5t29.5 10.5t10.5 27.5z" />
    <glyph glyph-name="ogonek" unicode="&#x2db;" horiz-adv-x="510" 
d="M209 0h102q-34 -25 -50 -47t-16 -52q0 -36 37 -36q22 0 48 13v-91q-30 -15 -75 -15q-53 0 -83.5 27.5t-30.5 77.5q0 83 68 123z" />
    <glyph glyph-name="tilde" unicode="&#x2dc;" horiz-adv-x="510" 
d="M326 557q-35 0 -78 24.5t-58 24.5q-24 0 -24 -47h-92q0 67 25.5 110t84.5 43q35 0 78 -24.5t58 -24.5q24 0 24 47h92q0 -67 -25.5 -110t-84.5 -43z" />
    <glyph glyph-name="hungarumlaut" unicode="&#x2dd;" horiz-adv-x="510" 
d="M147 559l50 151h125l-81 -151h-94zM290 559l81 151h133l-114 -151h-100z" />
    <glyph glyph-name="Delta" unicode="&#x394;" horiz-adv-x="585" 
d="M550 0h-516v106l195 570h125l196 -570v-106zM159 117h266l-133 415z" />
    <glyph glyph-name="Delta" unicode="&#x2206;" horiz-adv-x="585" 
d="M550 0h-516v106l195 570h125l196 -570v-106zM159 117h266l-133 415z" />
    <glyph glyph-name="Omega" unicode="&#x3a9;" horiz-adv-x="705" 
d="M42 131h117q-54 46 -86 104t-32 147q0 128 85 219.5t227 91.5t227 -91.5t85 -219.5q0 -89 -32 -147t-86 -104h117v-131h-283v131q49 43 74.5 71.5t45.5 76t20 104.5q0 79 -43 129t-125 50t-125 -50t-43 -129q0 -57 20 -104.5t45.5 -76t74.5 -71.5v-131h-283v131z" />
    <glyph glyph-name="Omega" unicode="&#x2126;" horiz-adv-x="705" 
d="M42 131h117q-54 46 -86 104t-32 147q0 128 85 219.5t227 91.5t227 -91.5t85 -219.5q0 -89 -32 -147t-86 -104h117v-131h-283v131q49 43 74.5 71.5t45.5 76t20 104.5q0 79 -43 129t-125 50t-125 -50t-43 -129q0 -57 20 -104.5t45.5 -76t74.5 -71.5v-131h-283v131z" />
    <glyph glyph-name="pi" unicode="&#x3c0;" horiz-adv-x="585" 
d="M34 352v123h517v-123h-77v-352h-129v352h-99l-34 -352h-130l34 352h-82z" />
    <glyph glyph-name="Wgrave" unicode="&#x1e80;" horiz-adv-x="992" 
d="M426 676h140l144 -477l118 477h164l-183 -676h-166l-147 475l-146 -475h-167l-183 676h164l118 -477zM471 895l74 -151h-108l-124 151h158z" />
    <glyph glyph-name="wgrave" unicode="&#x1e81;" horiz-adv-x="813" 
d="M330 475h152l94 -295l80 295h150l-152 -475h-139l-109 318l-109 -318h-139l-151 475h149l80 -295zM387 710l74 -151h-108l-124 151h158z" />
    <glyph glyph-name="Wacute" unicode="&#x1e82;" horiz-adv-x="992" 
d="M426 676h140l144 -477l118 477h164l-183 -676h-166l-147 475l-146 -475h-167l-183 676h164l118 -477zM461 744l73 151h159l-125 -151h-107z" />
    <glyph glyph-name="wacute" unicode="&#x1e83;" horiz-adv-x="813" 
d="M330 475h152l94 -295l80 295h150l-152 -475h-139l-109 318l-109 -318h-139l-151 475h149l80 -295zM369 559l73 151h159l-125 -151h-107z" />
    <glyph glyph-name="Wdieresis" unicode="&#x1e84;" horiz-adv-x="992" 
d="M426 676h140l144 -477l118 477h164l-183 -676h-166l-147 475l-146 -475h-167l-183 676h164l118 -477zM465 879v-125h-126v125h126zM652 879v-125h-126v125h126z" />
    <glyph glyph-name="wdieresis" unicode="&#x1e85;" horiz-adv-x="813" 
d="M330 475h152l94 -295l80 295h150l-152 -475h-139l-109 318l-109 -318h-139l-151 475h149l80 -295zM375 693v-125h-126v125h126zM562 693v-125h-126v125h126z" />
    <glyph glyph-name="Ygrave" unicode="&#x1ef2;" horiz-adv-x="635" 
d="M635 676l-240 -409v-267h-156v267l-239 409h174l152 -270l152 270h157zM307 895l74 -151h-108l-124 151h158z" />
    <glyph glyph-name="ygrave" unicode="&#x1ef3;" horiz-adv-x="569" 
d="M63 475h145v-275q0 -67 63 -67q45 0 79 34v308h145v-458q0 -114 -67 -169t-171 -55q-94 0 -176 37v136q28 -20 73.5 -35t88.5 -15q51 0 79 21.5t28 76.5v26q-52 -40 -119 -40q-80 0 -124 49.5t-44 140.5v285zM265 710l74 -151h-108l-124 151h158z" />
    <glyph glyph-name="endash" unicode="&#x2013;" horiz-adv-x="588" 
d="M530 341v-127h-472v127h472z" />
    <glyph glyph-name="emdash" unicode="&#x2014;" horiz-adv-x="1032" 
d="M974 341v-126h-916v126h916z" />
    <glyph glyph-name="quoteleft" unicode="&#x2018;" horiz-adv-x="276" 
d="M59 399q-18 47 -18 90q0 67 35 121t100 85l59 -75q-67 -52 -67 -129q0 -45 22 -92h-131z" />
    <glyph glyph-name="quoteright" unicode="&#x2019;" horiz-adv-x="276" 
d="M217 676q19 -44 19 -91q0 -66 -36 -122t-99 -82l-60 75q68 53 68 130q0 45 -22 90h130z" />
    <glyph glyph-name="quotesinglbase" unicode="&#x201a;" horiz-adv-x="276" 
d="M217 111q19 -44 19 -91q0 -66 -36 -122t-99 -82l-60 75q68 53 68 130q0 45 -22 90h130z" />
    <glyph glyph-name="quotedblleft" unicode="&#x201c;" horiz-adv-x="491" 
d="M60 398q-19 44 -19 91q0 66 36 122t99 82l60 -75q-68 -53 -68 -130q0 -45 22 -90h-130zM274 398q-19 44 -19 91q0 66 36 122t99 82l60 -75q-68 -53 -68 -130q0 -45 22 -90h-130z" />
    <glyph glyph-name="quotedblright" unicode="&#x201d;" horiz-adv-x="491" 
d="M217 676q19 -44 19 -91q0 -66 -36 -122t-99 -82l-60 75q68 53 68 130q0 45 -22 90h130zM431 676q19 -44 19 -91q0 -66 -36 -122t-99 -82l-60 75q68 53 68 130q0 45 -22 90h130z" />
    <glyph glyph-name="quotedblbase" unicode="&#x201e;" horiz-adv-x="491" 
d="M217 111q19 -44 19 -91q0 -66 -36 -122t-99 -82l-60 75q68 53 68 130q0 45 -22 90h130zM431 111q19 -44 19 -91q0 -66 -36 -122t-99 -82l-60 75q68 53 68 130q0 45 -22 90h130z" />
    <glyph glyph-name="dagger" unicode="&#x2020;" horiz-adv-x="411" 
d="M266 492v-183h-120v183h-109v92h110v92h118v-92h110v-92h-109z" />
    <glyph glyph-name="daggerdbl" unicode="&#x2021;" horiz-adv-x="411" 
d="M146 369h-109v87h109v65h-109v87h110v68h118v-68h110v-87h-109v-65h109v-87h-109v-60h-120v60z" />
    <glyph glyph-name="bullet" unicode="&#x2022;" horiz-adv-x="399" 
d="M363 317q0 -71 -45 -114.5t-118 -43.5q-74 0 -118.5 43.5t-44.5 114.5t44.5 114.5t118.5 43.5q73 0 118 -43.5t45 -114.5z" />
    <glyph glyph-name="ellipsis" unicode="&#x2026;" horiz-adv-x="869" 
d="M70 0v150h149v-150h-149zM360 0v150h149v-150h-149zM649 0v150h150v-150h-150z" />
    <glyph glyph-name="perthousand" unicode="&#x2030;" horiz-adv-x="1285" 
d="M1077 -17q-79 0 -125 60.5t-46 155.5t46 155.5t125 60.5t125 -60.5t46 -155.5t-46 -155.5t-125 -60.5zM1077 311q-32 0 -49 -31t-17 -81t17 -81t49 -31t49 31t17 81t-17 81t-49 31zM695 676l-370 -676h-108l371 676h107zM208 261q-79 0 -125 60.5t-46 155.5t46 155.5
t125 60.5t125 -60.5t46 -155.5t-46 -155.5t-125 -60.5zM208 589q-32 0 -49 -31t-17 -81t17 -81t49 -31t49 31t17 81t-17 81t-49 31zM704 -17q-79 0 -125 60.5t-46 155.5t46 155.5t125 60.5t125 -60.5t46 -155.5t-46 -155.5t-125 -60.5zM704 311q-32 0 -49 -31t-17 -81
t17 -81t49 -31t49 31t17 81t-17 81t-49 31z" />
    <glyph glyph-name="guilsinglleft" unicode="&#x2039;" horiz-adv-x="322" 
d="M177 49l-156 199l156 199h124l-137 -199l137 -199h-124z" />
    <glyph glyph-name="guilsinglright" unicode="&#x203a;" horiz-adv-x="322" 
d="M301 248l-156 -199h-124l137 199l-137 199h124z" />
    <glyph glyph-name="fraction" unicode="&#x2044;" horiz-adv-x="478" 
d="M469 676l-370 -676h-108l371 676h107z" />
    <glyph glyph-name="Euro" unicode="&#x20ac;" 
d="M96 225h-88l21 72h58q-2 16 -2 49q0 14 2 44h-79l21 69h66q15 84 63.5 138.5t107 75t126.5 20.5t131 -22v-135q-56 23 -119 23q-132 0 -151 -100h242l-21 -69h-230q-2 -15 -2 -43q0 -34 2 -50h204l-21 -72h-172q9 -53 45 -81t83 -28q87 0 144 37v-137q-54 -33 -158 -33
q-99 0 -176 60.5t-97 181.5z" />
    <glyph glyph-name="trademark" unicode="&#x2122;" horiz-adv-x="780" 
d="M281 676v-83h-80v-194h-110v194h-80v83h270zM605 545l-44 -93h-92l-44 92v-145h-103v277h127l66 -134l65 134h128v-277h-103v146z" />
    <glyph glyph-name="partialdiff" unicode="&#x2202;" horiz-adv-x="574" 
d="M109 525l-38 114q74 54 187 54q128 0 196.5 -78.5t68.5 -262.5q0 -168 -72 -268.5t-184 -100.5q-108 0 -162.5 60t-54.5 150q0 107 58.5 169.5t154.5 62.5q76 0 123 -30v22q0 75 -36 112.5t-100 37.5q-77 0 -141 -42zM377 270q-32 32 -92 32q-44 0 -69 -26.5t-25 -80.5
q0 -40 20.5 -62.5t52.5 -22.5q46 0 76.5 43t36.5 117z" />
    <glyph glyph-name="product" unicode="&#x220f;" horiz-adv-x="688" 
d="M592 676v-676h-133v545h-230v-545h-133v676h496z" />
    <glyph glyph-name="summation" unicode="&#x2211;" 
d="M524 676v-117h-304l198 -226l-198 -216h304v-117h-470v93l215 240l-215 250v93h470z" />
    <glyph glyph-name="minus" unicode="&#x2212;" 
d="M522 370v-118h-466v118h466z" />
    <glyph glyph-name="radical" unicode="&#x221a;" horiz-adv-x="564" 
d="M24 352v123h166l96 -324l136 525h117l-186 -676h-128l-117 352h-84z" />
    <glyph glyph-name="infinity" unicode="&#x221e;" horiz-adv-x="690" 
d="M645 302q0 -82 -41.5 -131t-111.5 -49q-33 0 -63.5 14t-43.5 25t-40 36q-27 -25 -40 -36t-43.5 -25t-63.5 -14q-70 0 -111.5 49t-41.5 131t41.5 131t111.5 49q33 0 63.5 -14t43.5 -25t40 -36q27 25 40 36t43.5 25t63.5 14q70 0 111.5 -49t41.5 -131zM393 302
q58 -64 93 -64q22 0 38.5 16t16.5 48t-16.5 48t-38.5 16q-35 0 -93 -64zM149 302q0 -32 16.5 -48t38.5 -16q35 0 93 64q-58 64 -93 64q-22 0 -38.5 -16t-16.5 -48z" />
    <glyph glyph-name="integral" unicode="&#x222b;" horiz-adv-x="282" 
d="M272 727v-128q-72 0 -72 -74v-522q0 -110 -45 -160t-145 -50v128q71 0 71 74v522q0 110 45.5 160t145.5 50z" />
    <glyph glyph-name="approxequal" unicode="&#x2248;" 
d="M394 346q-33 0 -111.5 20t-98.5 20q-51 0 -75 -45l-67 77q45 83 141 83q33 0 112 -20t99 -20q50 0 74 45l67 -77q-45 -83 -141 -83zM394 121q-33 0 -111.5 20t-98.5 20q-51 0 -75 -45l-67 77q45 83 141 83q33 0 112 -20t99 -20q50 0 74 45l67 -77q-45 -83 -141 -83z" />
    <glyph glyph-name="notequal" unicode="&#x2260;" 
d="M522 252v-118h-285l-67 -122h-88l67 122h-93v118h158l66 118h-224v118h289l63 112h88l-63 -112h89v-118h-154l-65 -118h219z" />
    <glyph glyph-name="lessequal" unicode="&#x2264;" 
d="M522 118v-118h-466v118h466zM522 586v-122l-336 -100l336 -100v-122l-466 155v134z" />
    <glyph glyph-name="greaterequal" unicode="&#x2265;" 
d="M56 0v118h466v-118h-466zM56 464v122l466 -155v-134l-466 -155v122l336 100z" />
    <glyph glyph-name="lozenge" unicode="&#x25ca;" horiz-adv-x="525" 
d="M518 338l-198 -338h-116l-198 338l198 338h116zM135 338l127 -212l127 212l-127 212z" />
    <glyph glyph-name="commaaccent" horiz-adv-x="510" 
d="M207 -61h112q10 -29 10 -56q0 -56 -36.5 -93.5t-97.5 -49.5l-32 80q55 24 55 68q0 26 -11 51z" />
    <glyph glyph-name="zero.onum" horiz-adv-x="546" 
d="M273 492q107 0 171.5 -67.5t64.5 -186.5q0 -120 -64.5 -187.5t-171.5 -67.5t-171.5 67.5t-64.5 187.5t64.5 187t171.5 67zM273 368q-40 0 -64.5 -35t-24.5 -95t24.5 -95.5t64.5 -35.5t64.5 35.5t24.5 95.5t-24.5 95t-64.5 35z" />
    <glyph glyph-name="one.onum" horiz-adv-x="360" 
d="M27 422l147 53h113v-475h-154v338l-106 -40v124z" />
    <glyph glyph-name="two.onum" horiz-adv-x="509" 
d="M69 461q75 31 163 31q92 0 153.5 -40t61.5 -122q0 -25 -11 -50t-21.5 -41t-37.5 -38.5t-37.5 -30t-43.5 -28t-34 -21.5h193v-121h-402v112q27 20 68 47t65.5 44.5l50 37.5t37.5 37.5t12 34.5q0 57 -86 57q-76 0 -131 -32v123z" />
    <glyph glyph-name="three.onum" horiz-adv-x="474" 
d="M108 237h66q46 0 78 16.5t32 53.5q0 32 -28.5 48t-72.5 16q-88 0 -146 -33v123q73 31 166 31q100 0 167 -43t67 -122q0 -102 -115 -142q53 -12 88.5 -49.5t35.5 -95.5q0 -96 -73 -144.5t-183 -48.5q-98 0 -165 30v122q66 -27 145 -27q117 0 117 72t-114 72h-65v121z" />
    <glyph glyph-name="four.onum" horiz-adv-x="529" 
d="M250 482h202v-351h64v-116h-64v-154h-140v154h-296v116zM164 131h148v226z" />
    <glyph glyph-name="five.onum" horiz-adv-x="492" 
d="M455 355h-222l-13 -104q113 0 181 -48.5t68 -145.5q0 -69 -39 -117.5t-99 -70.5t-134 -22q-72 0 -143 23v122q64 -20 135 -20q125 0 125 84q0 78 -153 78q-42 0 -82 -6l-14 14l35 333h355v-120z" />
    <glyph glyph-name="six.onum" horiz-adv-x="571" 
d="M501 481q-55 20 -135 20q-70 0 -114.5 -37t-47.5 -107q53 43 126 43q90 0 144.5 -52t54.5 -151q0 -91 -65.5 -152.5t-166.5 -61.5q-116 0 -178.5 75.5t-62.5 230.5q0 168 83.5 251t218.5 83q87 0 143 -20v-122zM380 195q0 41 -22.5 61t-57.5 20q-64 0 -96 -47
q1 -62 26.5 -92t65.5 -30q37 0 60.5 24t23.5 64z" />
    <glyph glyph-name="seven.onum" horiz-adv-x="474" 
d="M218 -139h-147q21 300 211 490h-262v124h431v-109q-98 -106 -153 -220t-80 -285z" />
    <glyph glyph-name="eight.onum" horiz-adv-x="540" 
d="M270 623q98 0 161.5 -47t63.5 -126q0 -104 -94 -135q107 -40 107 -150q0 -80 -65 -131t-173 -51t-173 51t-65 131q0 110 107 150q-94 31 -94 135q0 79 63.5 126t161.5 47zM270 505q-35 0 -58.5 -18.5t-23.5 -50.5q0 -33 23.5 -51.5t58.5 -18.5t58.5 18.5t23.5 51.5
q0 32 -23.5 50.5t-58.5 18.5zM270 255q-40 0 -65.5 -20.5t-25.5 -56.5t25.5 -56.5t65.5 -20.5t65.5 20.5t25.5 56.5t-25.5 56.5t-65.5 20.5z" />
    <glyph glyph-name="nine.onum" horiz-adv-x="550" 
d="M49 -6q55 -20 135 -20q70 0 114.5 37t47.5 107q-53 -43 -126 -43q-90 0 -144.5 52t-54.5 151q0 91 65.5 152.5t166.5 61.5q116 0 178.5 -75.5t62.5 -230.5q0 -168 -83.5 -251t-218.5 -83q-87 0 -143 20v122zM170 280q0 -41 22.5 -61t57.5 -20q64 0 96 47q-1 62 -26.5 92
t-65.5 30q-37 0 -60.5 -24t-23.5 -64z" />
    <glyph glyph-name="Euro.onum" horiz-adv-x="511" 
d="M81 238q0 19 1 28h-71l12 46h66q22 88 93 134t167 46q59 0 114 -16v-119q-53 15 -98 15q-89 0 -120 -60h201l-13 -46h-202q-2 -18 -2 -29q0 -24 2 -34h185l-13 -46h-155q32 -54 118 -54q46 0 99 15v-119q-57 -16 -116 -16q-94 0 -164 44t-94 130h-80l12 46h60
q-2 22 -2 35z" />
    <glyph glyph-name="sterling.onum" horiz-adv-x="534" 
d="M447 469v-123q-48 29 -126 29q-37 0 -62 -14t-25 -43q0 -23 5 -40h173v-82h-151q2 -16 2 -24q0 -41 -41 -63h229v-109h-413v91q77 29 77 77q0 14 -3 28h-74v82h51q-3 18 -3 40q0 82 58.5 128t162.5 46q83 0 140 -23z" />
    <glyph glyph-name="florin.onum" horiz-adv-x="512" 
d="M86 0v179h-68v80h68v41q0 90 57 141t156 51q91 0 148 -23v-123q-53 29 -126 29q-87 0 -87 -72v-44h178v-80h-179v-179h-147z" />
    <glyph glyph-name="yen.onum" horiz-adv-x="544" 
d="M530 475l-163 -219h108v-46h-132v-67h132v-46h-132v-97h-153v97h-133v46h133v67h-133v46h109l-166 219h157l120 -165l113 165h140z" />
    <glyph glyph-name="dollar.onum" horiz-adv-x="486" 
d="M200 -122v106q-83 4 -150 35v127q83 -43 171 -43q76 0 76 39q0 15 -19 24t-47.5 13t-62 13t-62 22t-47.5 41.5t-19 69.5q0 70 43 110t117 52v98h92v-94q70 -3 129 -22v-123q-62 32 -156 32q-80 0 -80 -38q0 -16 19 -24.5t47.5 -11.5t62 -12t62 -21.5t47.5 -43.5t19 -77
q0 -68 -41.5 -108t-108.5 -52v-112h-92z" />
    <glyph glyph-name="cent.onum" horiz-adv-x="471" 
d="M210 -122v115q-83 21 -128 87.5t-45 157.5q0 94 45.5 158.5t127.5 85.5v103h92v-93q67 -1 117 -25v-129q-56 31 -117 31q-57 0 -87 -36t-30 -96t30 -95t87 -35q65 0 122 33v-129q-52 -25 -122 -28v-105h-92z" />
    <glyph glyph-name="zero.pnum" horiz-adv-x="670" 
d="M335 693q138 0 213.5 -101t75.5 -254t-75.5 -254t-213.5 -101t-213.5 101t-75.5 254t75.5 254t213.5 101zM335 559q-66 0 -98 -58.5t-32 -162.5t32 -163t98 -59t98 59t32 163t-32 162.5t-98 58.5z" />
    <glyph glyph-name="one.pnum" horiz-adv-x="394" 
d="M297 676v-676h-156v545h-126v131h282z" />
    <glyph glyph-name="two.pnum" horiz-adv-x="551" 
d="M505 131v-131h-460v125l214 201q76 72 76 143q0 91 -109 91q-40 0 -85.5 -12.5t-70.5 -28.5v138q80 36 176 36q107 0 179.5 -52.5t72.5 -162.5q0 -76 -29 -128.5t-89 -102.5l-139 -116h264z" />
    <glyph glyph-name="three.pnum" horiz-adv-x="558" 
d="M63 545v131h442v-117l-180 -165q76 -6 130 -52.5t54 -133.5q0 -110 -73 -167.5t-192 -57.5q-111 0 -191 43v138q90 -48 178 -48q53 0 84 22t31 68q0 85 -126 85q-43 0 -73 -5v107l172 152h-256z" />
    <glyph glyph-name="four.pnum" horiz-adv-x="580" 
d="M13 297l291 379h182v-383h72v-128h-72v-165h-144v165h-329v132zM166 293h176v228z" />
    <glyph glyph-name="five.pnum" horiz-adv-x="581" 
d="M254 -17q-122 0 -202 43v138q90 -48 184 -48q120 0 120 89q0 94 -130 94q-74 0 -137 -21l-30 29l48 369h394v-131h-265l-16 -123q28 2 45 2q51 0 94 -10t80 -32.5t58.5 -64t21.5 -99.5q0 -118 -74.5 -176.5t-190.5 -58.5z" />
    <glyph glyph-name="six.pnum" horiz-adv-x="610" 
d="M533 657v-138q-65 40 -164 40q-167 0 -167 -168q56 43 141 43q94 0 159.5 -51.5t65.5 -155.5q0 -110 -67.5 -177t-188.5 -67t-194.5 84.5t-73.5 255.5q0 98 25.5 171.5t70 115.5t98.5 62.5t118 20.5q105 0 177 -36zM207 259q0 -77 31 -110t75 -33q41 0 69.5 24.5
t28.5 70.5t-27 68.5t-72 22.5q-30 0 -59.5 -12t-45.5 -31z" />
    <glyph glyph-name="seven.pnum" horiz-adv-x="513" 
d="M492 676v-122q-101 -114 -156 -241.5t-77 -312.5h-170q15 146 80.5 297t150.5 248h-300v131h472z" />
    <glyph glyph-name="eight.pnum" horiz-adv-x="624" 
d="M312 287q-48 0 -77 -22t-29 -65t29.5 -66.5t76.5 -23.5q46 0 76 23.5t30 66.5t-29.5 65t-76.5 22zM312 -17q-126 0 -197 56t-71 146q0 122 110 167q-96 45 -96 151q0 88 69.5 139.5t184.5 51.5t184.5 -51.5t69.5 -139.5q0 -105 -96 -151q110 -45 110 -167q0 -90 -71 -146
t-197 -56zM312 566q-92 0 -92 -80q0 -78 92 -78t92 78q0 80 -92 80z" />
    <glyph glyph-name="nine.pnum" horiz-adv-x="610" 
d="M74 19v138q75 -41 164 -41q167 0 167 169q-56 -43 -141 -43q-94 0 -159.5 51.5t-65.5 155.5q0 108 71 176t185 68q126 0 197 -83.5t71 -256.5q0 -98 -25.5 -171.5t-70 -115.5t-98.5 -62.5t-118 -20.5q-105 0 -177 36zM400 417q0 77 -30.5 110t-75.5 33q-41 0 -69.5 -25
t-28.5 -70q0 -46 27 -68.5t72 -22.5q30 0 59.5 12t45.5 31z" />
    <glyph glyph-name="Euro.pnum" horiz-adv-x="563" 
d="M88 225h-88l21 72h58q-2 16 -2 49q0 14 2 44h-79l21 69h66q15 84 63.5 138.5t107 75t126.5 20.5t131 -22v-135q-56 23 -119 23q-132 0 -151 -100h242l-21 -69h-230q-2 -15 -2 -43q0 -34 2 -50h204l-21 -72h-172q9 -53 45 -81t83 -28q87 0 144 37v-137q-54 -33 -158 -33
q-99 0 -176 60.5t-97 181.5z" />
    <glyph glyph-name="sterling.pnum" horiz-adv-x="535" 
d="M29 294v102h71q-9 33 -9 74q0 114 69 168.5t173 54.5q86 0 155 -32v-134q-62 32 -141 32q-103 0 -103 -86q0 -37 13 -77h191v-102h-161q6 -38 6 -55q0 -65 -63 -108h269v-131h-447v107q86 37 86 124q0 30 -9 63h-100z" />
    <glyph glyph-name="florin.pnum" horiz-adv-x="513" 
d="M435 396v-102h-191v-294h-156v294h-73v102h73v73q0 114 69 169t171 55q81 0 156 -32v-134q-64 32 -142 32q-98 0 -98 -97v-66h191z" />
    <glyph glyph-name="yen.pnum" horiz-adv-x="544" 
d="M544 676l-167 -328h111v-68h-136v-97h136v-68h-136v-115h-157v115h-136v68h136v97h-136v68h111l-170 328h161l123 -262l116 262h144z" />
    <glyph glyph-name="dollar.pnum" horiz-adv-x="560" 
d="M237 -110v110q-103 5 -181 42v129q98 -44 187 -44q102 0 102 70q0 23 -22 40.5t-55 29t-71.5 29t-71.5 37.5t-55 56.5t-22 84.5q0 79 50 129.5t139 65.5v109h96v-102q89 -3 158 -29v-134q-72 36 -170 36q-107 0 -107 -65q0 -23 30.5 -40t74 -31.5t87.5 -35t74.5 -62
t30.5 -100.5q0 -174 -178 -209v-116h-96z" />
    <glyph glyph-name="cent.pnum" horiz-adv-x="537" 
d="M247 -110v147h7q-105 22 -161.5 104.5t-56.5 195.5q0 111 54.5 192.5t156.5 104.5v144h97v-135q85 -4 136 -30v-131q-73 28 -134 28q-71 0 -115.5 -40.5t-44.5 -132.5q0 -88 42.5 -132t114.5 -44q64 0 141 34v-129q-55 -33 -140 -36v-140h-97z" />
    <glyph glyph-name="zero.tabonum" horiz-adv-x="525" 
d="M262 492q107 0 171.5 -67.5t64.5 -186.5q0 -120 -64.5 -187.5t-171.5 -67.5t-171.5 67.5t-64.5 187.5t64.5 187t171.5 67zM262 368q-40 0 -64.5 -35t-24.5 -95t24.5 -95.5t64.5 -35.5t64.5 35.5t24.5 95.5t-24.5 95t-64.5 35z" />
    <glyph glyph-name="one.tabonum" horiz-adv-x="525" 
d="M75 401l204 74h113v-475h-154v332l-163 -61v130z" />
    <glyph glyph-name="two.tabonum" horiz-adv-x="525" 
d="M86 461q75 31 163 31q92 0 153.5 -40t61.5 -122q0 -25 -11 -50t-21.5 -41t-37.5 -38.5t-37.5 -30t-43.5 -28t-34 -21.5h193v-121h-402v112q27 20 68 47t65.5 44.5l50 37.5t37.5 37.5t12 34.5q0 57 -86 57q-76 0 -131 -32v123z" />
    <glyph glyph-name="three.tabonum" horiz-adv-x="525" 
d="M128 237h66q46 0 78 16.5t32 53.5q0 32 -28.5 48t-72.5 16q-88 0 -146 -33v123q73 31 166 31q100 0 167 -43t67 -122q0 -102 -115 -142q53 -12 88.5 -49.5t35.5 -95.5q0 -96 -73 -144.5t-183 -48.5q-98 0 -165 30v122q66 -27 145 -27q117 0 117 72t-114 72h-65v121z" />
    <glyph glyph-name="four.tabonum" horiz-adv-x="525" 
d="M249 482h202v-351h64v-116h-64v-154h-140v154h-296v116zM163 131h148v226z" />
    <glyph glyph-name="five.tabonum" horiz-adv-x="525" 
d="M458 355h-222l-13 -104q113 0 181 -48.5t68 -145.5q0 -69 -39 -117.5t-99 -70.5t-134 -22q-72 0 -143 23v122q64 -20 135 -20q125 0 125 84q0 78 -153 78q-42 0 -82 -6l-14 14l35 333h355v-120z" />
    <glyph glyph-name="six.tabonumonum" horiz-adv-x="525" 
d="M459 481q-55 20 -135 20q-70 0 -114.5 -37t-47.5 -107q53 43 126 43q90 0 144.5 -52t54.5 -151q0 -91 -65.5 -152.5t-166.5 -61.5q-116 0 -178.5 75.5t-62.5 230.5q0 168 83.5 251t218.5 83q87 0 143 -20v-122zM338 195q0 41 -22.5 61t-57.5 20q-64 0 -96 -47
q1 -62 26.5 -92t65.5 -30q37 0 60.5 24t23.5 64z" />
    <glyph glyph-name="seven.tabonum" horiz-adv-x="525" 
d="M238 -139h-147q21 300 211 490h-262v124h431v-109q-98 -106 -153 -220t-80 -285z" />
    <glyph glyph-name="eight.tabonum" horiz-adv-x="525" 
d="M262 623q98 0 161.5 -47t63.5 -126q0 -104 -94 -135q107 -40 107 -150q0 -80 -65 -131t-173 -51t-173 51t-65 131q0 110 107 150q-94 31 -94 135q0 79 63.5 126t161.5 47zM262 505q-35 0 -58.5 -18.5t-23.5 -50.5q0 -33 23.5 -51.5t58.5 -18.5t58.5 18.5t23.5 51.5
q0 32 -23.5 50.5t-58.5 18.5zM262 255q-40 0 -65.5 -20.5t-25.5 -56.5t25.5 -56.5t65.5 -20.5t65.5 20.5t25.5 56.5t-25.5 56.5t-65.5 20.5z" />
    <glyph glyph-name="nine.tabonum" horiz-adv-x="525" 
d="M66 -6q55 -20 135 -20q70 0 114.5 37t47.5 107q-53 -43 -126 -43q-90 0 -144.5 52t-54.5 151q0 91 65.5 152.5t166.5 61.5q116 0 178.5 -75.5t62.5 -230.5q0 -168 -83.5 -251t-218.5 -83q-87 0 -143 20v122zM187 280q0 -41 22.5 -61t57.5 -20q64 0 96 47q-1 62 -26.5 92
t-65.5 30q-37 0 -60.5 -24t-23.5 -64z" />
    <glyph glyph-name="Euro.tabonum" horiz-adv-x="525" 
d="M92 238q0 19 1 28h-71l12 46h66q22 88 93 134t167 46q59 0 114 -16v-119q-53 15 -98 15q-89 0 -120 -60h201l-13 -46h-202q-2 -18 -2 -29q0 -24 2 -34h185l-13 -46h-155q32 -54 118 -54q46 0 99 15v-119q-57 -16 -116 -16q-94 0 -164 44t-94 130h-80l12 46h60
q-2 22 -2 35z" />
    <glyph glyph-name="sterling.tabonum" horiz-adv-x="525" 
d="M468 469v-123q-48 29 -126 29q-37 0 -62 -14t-25 -43q0 -23 5 -40h173v-82h-151q2 -16 2 -24q0 -41 -41 -63h229v-109h-413v91q77 29 77 77q0 14 -3 28h-74v82h51q-3 18 -3 40q0 82 58.5 128t162.5 46q83 0 140 -23z" />
    <glyph glyph-name="florin.tabonum" horiz-adv-x="525" 
d="M115 0v179h-68v80h68v41q0 90 57 141t156 51q91 0 148 -23v-123q-53 29 -126 29q-87 0 -87 -72v-44h178v-80h-179v-179h-147z" />
    <glyph glyph-name="yen.tabonum" horiz-adv-x="525" 
d="M528 475l-163 -219h108v-46h-132v-67h132v-46h-132v-97h-153v97h-133v46h133v67h-133v46h109l-166 219h157l120 -165l113 165h140z" />
    <glyph glyph-name="dollar.tabonum" horiz-adv-x="525" 
d="M221 -122v106q-83 4 -150 35v127q83 -43 171 -43q76 0 76 39q0 15 -19 24t-47.5 13t-62 13t-62 22t-47.5 41.5t-19 69.5q0 70 43 110t117 52v98h92v-94q70 -3 129 -22v-123q-62 32 -156 32q-80 0 -80 -38q0 -16 19 -24.5t47.5 -11.5t62 -12t62 -21.5t47.5 -43.5t19 -77
q0 -68 -41.5 -108t-108.5 -52v-112h-92z" />
    <glyph glyph-name="cent.tabonum" horiz-adv-x="525" 
d="M238 -122v115q-83 21 -128 87.5t-45 157.5q0 94 45.5 158.5t127.5 85.5v103h92v-93q67 -1 117 -25v-129q-56 31 -117 31q-57 0 -87 -36t-30 -96t30 -95t87 -35q65 0 122 33v-129q-52 -25 -122 -28v-105h-92z" />
    </font>
</defs>
</svg>
