<?xml version="1.0" encoding="utf-8"?>
<!-- Generator: Adobe Illustrator 21.0.2, SVG Export Plug-In . SVG Version: 6.00 Build 0)  -->
<svg version="1.1" id="Layer_1" xmlns="http://www.w3.org/2000/svg" xmlns:xlink="http://www.w3.org/1999/xlink" x="0px" y="0px"
	 viewBox="0 0 154.4 50" style="enable-background:new 0 0 154.4 50;" xml:space="preserve">
<style type="text/css">
	.st0{fill:url(#SVGID_1_);}
	.st1{fill:#7F7F7F;}
</style>
<g>
	<linearGradient id="SVGID_1_" gradientUnits="userSpaceOnUse" x1="9.4545" y1="44.24" x2="48.9782" y2="9.8826">
		<stop  offset="0" style="stop-color:#ECB97D"/>
		<stop  offset="0.4032" style="stop-color:#E69C8C"/>
		<stop  offset="1" style="stop-color:#D86D92"/>
	</linearGradient>
	<path class="st0" d="M56.8,18.9H35.1L28.4,0l-6.7,18.9H0L15.2,30l1.7-4.8l0,0L15,23.8h5L11.8,47l4.1,3l9.3-26.2h16.6L25,36.2l4.1,3
		l6.3-4.6L40.8,50l4.1-3l-5.4-15.4L56.8,18.9z M28.4,14.7l1.5,4.1H27L28.4,14.7z"/>
	<g>
		<path class="st1" d="M71.4,10.7l-3.8,5.5h-0.8h-3.8l3.8-5.5h0.8H71.4z M69,47h5.9l-6.7-28.1h-6.1L55.4,47h5.9l0.9-4.7h5.9L69,47z
			 M63.3,36.9l0.6-3.2c0.4-2,0.8-5.4,1.1-7.7h0.2c0.3,2.3,0.8,5.7,1.1,7.7l0.6,3.2H63.3z"/>
		<polygon class="st1" points="81.7,41.5 81.7,18.9 76,18.9 76,47 90,47 90,41.5 		"/>
		<path class="st1" d="M104.4,47h5.9l-6.7-28.1h-6.1L90.7,47h5.9l0.9-4.7h5.9L104.4,47z M98.7,36.9l0.6-3.2c0.4-2,0.8-5.4,1.1-7.7
			h0.2c0.3,2.3,0.8,5.7,1.1,7.7l0.6,3.2H98.7z"/>
		<path class="st1" d="M129.4,18.9L125,29.5c-0.6,1.4-1.5,3.9-1.8,4.9H123c-0.3-1-1.3-3.5-1.8-4.9l-4.4-10.6H111V47h5.5v-6.9
			c-0.1-3.4-0.3-6.8-0.4-10.2l0.2-0.1l2.5,7.4l1.4,3.8h5.6l1.4-3.8l2.5-7.4l0.2,0.1c-0.2,3.4-0.3,6.8-0.4,10.2V47h5.6V18.9H129.4z"
			/>
		<path class="st1" d="M145.3,47.4c5.7,0,9.1-3.6,9.1-9.6V28c0-6-3.4-9.6-9.1-9.6s-9.1,3.6-9.1,9.6v9.9
			C136.2,43.9,139.6,47.4,145.3,47.4z M145.3,41.9c-2.1,0-3.2-1.4-3.2-4.1V28c0-2.6,1.1-4.1,3.2-4.1c2.1,0,3.2,1.4,3.2,4.1v9.9
			C148.5,40.5,147.4,41.9,145.3,41.9z"/>
	</g>
</g>
</svg>
