<?xml version="1.0" encoding="utf-8"?>
<!-- Generator: Adobe Illustrator 21.0.2, SVG Export Plug-In . SVG Version: 6.00 Build 0)  -->
<svg version="1.1" id="Layer_1" xmlns="http://www.w3.org/2000/svg" xmlns:xlink="http://www.w3.org/1999/xlink" x="0px" y="0px"
	 viewBox="0 0 121.5 127" style="enable-background:new 0 0 121.5 127;" xml:space="preserve">
<style type="text/css">
	.st0{fill:url(#SVGID_1_);}
</style>
<linearGradient id="SVGID_1_" gradientUnits="userSpaceOnUse" x1="0.4483" y1="111.5957" x2="121.031" y2="10.4148">
	<stop  offset="0" style="stop-color:#ECB97D"/>
	<stop  offset="0.4032" style="stop-color:#E69C8C"/>
	<stop  offset="1" style="stop-color:#D86D92"/>
</linearGradient>
<path class="st0" d="M10.5,8.2H0.7C0.3,8.2,0,8.5,0,8.9v68.5c0,0.4,0.3,0.8,0.8,0.8h9.8c0.4,0,0.8-0.3,0.8-0.8V8.9
	C11.3,8.5,10.9,8.2,10.5,8.2z M1.5,76.7v-67h8.3v7.6H6.5c-0.4,0-0.8,0.3-0.8,0.8c0,0.4,0.3,0.8,0.8,0.8h3.2v8.6H5.4
	c-0.4,0-0.8,0.3-0.8,0.8c0,0.4,0.3,0.8,0.8,0.8h4.4v8.6H6.5c-0.4,0-0.8,0.3-0.8,0.8c0,0.4,0.3,0.8,0.8,0.8h3.2v8.6H5.4
	c-0.4,0-0.8,0.3-0.8,0.8c0,0.4,0.3,0.8,0.8,0.8h4.4v8H6.5c-0.4,0-0.8,0.3-0.8,0.8c0,0.4,0.3,0.8,0.8,0.8h3.2v8.6H5.4
	c-0.4,0-0.8,0.3-0.8,0.8c0,0.4,0.3,0.8,0.8,0.8h4.4v7.6H1.5V76.7z M91,113.1l-1.2,1.2c-0.3,0.3-0.3,0.8,0,1.1
	c0.1,0.1,0.3,0.2,0.5,0.2s0.4-0.1,0.5-0.2l1.2-1.2c0.3-0.3,0.3-0.8,0-1.1C91.8,112.8,91.3,112.8,91,113.1z M87.1,117l-1.2,1.2
	c-0.3,0.3-0.3,0.8,0,1.1c0.1,0.1,0.3,0.2,0.5,0.2s0.4-0.1,0.5-0.2l1.2-1.2c0.3-0.3,0.3-0.8,0-1.1C87.9,116.7,87.4,116.7,87.1,117z
	 M90.9,117c-0.3-0.3-0.8-0.3-1.1,0c-0.3,0.3-0.3,0.8,0,1.1l1.2,1.2c0.1,0.1,0.3,0.2,0.5,0.2s0.4-0.1,0.5-0.2c0.3-0.3,0.3-0.8,0-1.1
	L90.9,117z M87,113.1c-0.3-0.3-0.8-0.3-1.1,0c-0.3,0.3-0.3,0.8,0,1.1l1.2,1.2c0.1,0.1,0.3,0.2,0.5,0.2s0.4-0.1,0.5-0.2
	c0.3-0.3,0.3-0.8,0-1.1L87,113.1z M7.2,89.7c0.2,0,0.4-0.1,0.5-0.2l1.2-1.2c0.3-0.3,0.3-0.8,0-1.1c-0.3-0.3-0.8-0.3-1.1,0l-1.2,1.2
	c-0.3,0.3-0.3,0.8,0,1.1C6.8,89.6,7,89.7,7.2,89.7z M5,92.1c0.3-0.3,0.3-0.8,0-1.1c-0.3-0.3-0.8-0.3-1.1,0l-1.2,1.3
	c-0.3,0.3-0.3,0.8,0,1.1c0.1,0.1,0.3,0.2,0.5,0.2s0.4-0.1,0.5-0.2L5,92.1z M6.6,92.1l1.2,1.2c0.1,0.1,0.3,0.2,0.5,0.2
	s0.4-0.1,0.5-0.2c0.3-0.3,0.3-0.8,0-1.1l-1.1-1.1c-0.3-0.3-0.8-0.3-1.1,0C6.3,91.4,6.3,91.8,6.6,92.1z M3.9,89.4
	c0.1,0.1,0.3,0.2,0.5,0.2s0.4-0.1,0.5-0.2c0.3-0.3,0.3-0.8,0-1.1l-1.2-1.2c-0.3-0.3-0.8-0.3-1.1,0c-0.3,0.3-0.3,0.8,0,1.1L3.9,89.4z
	 M22.9,2.7c0.2,0,0.4-0.1,0.5-0.2l1.2-1.2c0.3-0.3,0.3-0.8,0-1.1s-0.8-0.3-1.1,0l-1.2,1.2c-0.3,0.3-0.3,0.8,0,1.1
	C22.5,2.6,22.7,2.7,22.9,2.7z M19,6.6c0.2,0,0.4-0.1,0.5-0.2l1.2-1.2c0.3-0.3,0.3-0.8,0-1.1c-0.3-0.3-0.8-0.3-1.1,0l-1.2,1.2
	c-0.3,0.3-0.3,0.8,0,1.1C18.6,6.5,18.8,6.6,19,6.6z M23.5,6.4c0.2,0.1,0.4,0.2,0.6,0.2c0.2,0,0.4-0.1,0.5-0.2c0.3-0.3,0.3-0.8,0-1.1
	l-1.2-1.2c-0.3-0.3-0.8-0.3-1.1,0c-0.3,0.3-0.3,0.8,0,1.1L23.5,6.4z M19.6,2.5c0.1,0.1,0.3,0.2,0.5,0.2s0.4-0.1,0.5-0.2
	c0.3-0.3,0.3-0.8,0-1.1l-1.2-1.2c-0.3-0.3-0.8-0.3-1.1,0C18,0.5,18,1,18.3,1.3L19.6,2.5z M111.7,3.8c0.2,0,0.4-0.1,0.5-0.2l1.2-1.2
	c0.3-0.3,0.3-0.8,0-1.1s-0.8-0.3-1.1,0l-1.2,1.2c-0.3,0.3-0.3,0.8,0,1.1C111.3,3.7,111.5,3.8,111.7,3.8z M107.8,7.7
	c0.2,0,0.4-0.1,0.5-0.2l1.2-1.2c0.3-0.3,0.3-0.8,0-1.1c-0.3-0.3-0.8-0.3-1.1,0l-1.2,1.2c-0.3,0.3-0.3,0.8,0,1.1
	C107.4,7.7,107.6,7.7,107.8,7.7z M112.3,7.5c0.1,0.1,0.3,0.2,0.5,0.2s0.4-0.1,0.5-0.2c0.3-0.3,0.3-0.8,0-1.1l-1.2-1.2
	c-0.3-0.3-0.8-0.3-1.1,0c-0.3,0.3-0.3,0.8,0,1.1L112.3,7.5z M108.4,3.6c0.1,0.1,0.3,0.2,0.5,0.2s0.4-0.1,0.5-0.2
	c0.3-0.3,0.3-0.8,0-1.1l-1.2-1.2c-0.3-0.3-0.8-0.3-1.1,0c-0.3,0.3-0.3,0.8,0,1.1L108.4,3.6z M117.4,57.7c0.2,0,0.4-0.1,0.5-0.2
	l1.2-1.2c0.3-0.3,0.3-0.8,0-1.1s-0.8-0.3-1.1,0l-1.2,1.2c-0.3,0.3-0.3,0.8,0,1.1C117,57.6,117.2,57.7,117.4,57.7z M112.9,61.3
	c0.1,0.1,0.3,0.2,0.5,0.2s0.4-0.1,0.5-0.2l1.2-1.2c0.3-0.3,0.3-0.8,0-1.1s-0.8-0.3-1.1,0l-1.2,1.2C112.6,60.6,112.6,61.1,112.9,61.3
	z M118,61.3c0.1,0.1,0.3,0.2,0.5,0.2s0.4-0.1,0.5-0.2c0.3-0.3,0.3-0.8,0-1.1l-1.2-1.2c-0.3-0.3-0.8-0.3-1.1,0
	c-0.3,0.3-0.3,0.8,0,1.1L118,61.3z M114.1,57.4c0.1,0.1,0.3,0.2,0.5,0.2s0.4-0.1,0.5-0.2c0.3-0.3,0.3-0.8,0-1.1l-1.2-1.2
	c-0.3-0.3-0.8-0.3-1.1,0c-0.3,0.3-0.3,0.8,0,1.1L114.1,57.4z M108,83.5c0,2.1,1.7,3.7,3.7,3.7c2.1,0,3.7-1.7,3.7-3.7
	c0-2.1-1.7-3.7-3.7-3.7C109.6,79.8,108,81.5,108,83.5z M113.9,83.5c0,1.2-1,2.2-2.2,2.2s-2.2-1-2.2-2.2s1-2.2,2.2-2.2
	S113.9,82.3,113.9,83.5z M6.4,110.5c-1.7,0-3.2,1.4-3.2,3.2c0,1.7,1.4,3.2,3.2,3.2c1.7,0,3.2-1.4,3.2-3.2S8.2,110.5,6.4,110.5z
	 M6.4,115.3c-0.9,0-1.6-0.7-1.6-1.6s0.7-1.6,1.6-1.6c0.9,0,1.6,0.7,1.6,1.6C8.1,114.6,7.3,115.3,6.4,115.3z M120.7,112.2h-10.8
	c-0.4,0-0.8,0.3-0.8,0.8s0.3,0.8,0.8,0.8h10.8c0.4,0,0.8-0.3,0.8-0.8S121.1,112.2,120.7,112.2z M102.8,112.2c-0.4,0-0.8,0.3-0.8,0.8
	s0.3,0.8,0.8,0.8h3.5c0.4,0,0.8-0.3,0.8-0.8s-0.3-0.8-0.8-0.8H102.8z M110.3,116h-7.6c-0.4,0-0.8,0.3-0.8,0.8c0,0.4,0.3,0.8,0.8,0.8
	h7.6c0.4,0,0.8-0.3,0.8-0.8S110.7,116,110.3,116z M116,116h-2.4c-0.4,0-0.8,0.3-0.8,0.8c0,0.4,0.3,0.8,0.8,0.8h2.4
	c0.4,0,0.8-0.3,0.8-0.8C116.8,116.3,116.4,116,116,116z M39.9,84.4c0.1,0,0.2,0.1,0.3,0.1c0.3,0,0.6-0.2,0.7-0.5
	c0.3-0.6,0.4-1.3,0.4-2c0-0.1,0-0.3,0-0.4c-0.1-0.8-0.3-1.5-0.7-2.2c-0.2-0.4-0.7-0.5-1-0.3c-0.4,0.2-0.5,0.7-0.3,1
	c0.3,0.5,0.4,1,0.5,1.6c0,0.1,0,0.2,0,0.3c0,0.5-0.1,1-0.3,1.4C39.3,83.9,39.5,84.3,39.9,84.4z M31.8,86.7c0-0.4-0.3-0.8-0.8-0.8
	h-4.1c-0.4,0-0.8,0.3-0.8,0.8c0,0.4,0.3,0.8,0.8,0.8H31C31.5,87.4,31.8,87.1,31.8,86.7z M37.8,85.4c-0.6,0.3-1.3,0.5-1.9,0.5l0,0
	h-1.7c-0.4,0-0.8,0.3-0.8,0.8c0,0.4,0.3,0.8,0.8,0.8h1.7l0,0c1,0,1.9-0.3,2.7-0.7c0.4-0.2,0.5-0.7,0.3-1
	C38.6,85.3,38.1,85.2,37.8,85.4z M24.6,86.7c0-0.4-0.3-0.8-0.8-0.8h-2c-0.1,0-0.2,0-0.4,0.1c-0.5,0.1-1,0.2-1.5,0.4
	c-0.4,0.2-0.5,0.6-0.4,1c0.1,0.3,0.4,0.4,0.7,0.4c0.1,0,0.2,0,0.3-0.1c0.5-0.2,1.1-0.4,1.6-0.4c0.1,0,0.1,0,0.2,0h1.4
	C24.3,87.4,24.6,87.1,24.6,86.7z M18.5,88.6c-0.4-0.2-0.8,0-1,0.3c-0.4,0.8-0.6,1.6-0.6,2.4c0,0.7,0.1,1.5,0.4,2.2
	c0.1,0.3,0.4,0.5,0.7,0.5c0.1,0,0.2,0,0.2,0c0.4-0.1,0.6-0.6,0.5-1c-0.2-0.5-0.3-1.1-0.3-1.7s0.1-1.2,0.4-1.7
	C19,89.2,18.9,88.8,18.5,88.6z M20.2,95.3c-0.3-0.3-0.8-0.3-1.1,0.1c-0.3,0.3-0.3,0.8,0.1,1.1c1.2,1,2.7,1.7,4.2,1.8l0,0
	c0.4,0,0.7-0.3,0.8-0.7c0-0.4-0.3-0.8-0.7-0.8C22.2,96.6,21.1,96.1,20.2,95.3z M28.9,96.7c-0.1,0-0.2-0.1-0.3-0.1h-2
	c-0.4,0-0.8,0.3-0.8,0.8c0,0.4,0.3,0.8,0.8,0.8h1.7c0.1,0,0.2,0.1,0.3,0.1c0.5,0,1.1,0.1,1.5,0.4c0.1,0.1,0.3,0.1,0.4,0.1
	c0.3,0,0.5-0.1,0.6-0.4c0.2-0.4,0.1-0.8-0.2-1C30.3,97,29.6,96.8,28.9,96.7z M95.3,89.7c0-1.3-1.1-1.9-1.9-2.4s-1.1-0.7-1.1-1.1
	s0.4-0.7,1.1-1.1c0.8-0.5,1.9-1.1,1.9-2.4s-1.1-2-1.9-2.4c-0.8-0.5-1.1-0.7-1.1-1.1s-0.3-0.8-0.8-0.8c-0.4,0-0.8,0.3-0.8,0.8
	c0,1.3,1.1,2,1.9,2.4c0.8,0.5,1.1,0.7,1.1,1.1s-0.4,0.7-1.1,1.1c-0.8,0.5-1.9,1.1-1.9,2.4s1.1,2,1.9,2.4s1.1,0.7,1.1,1.1
	c-3.2,0.2-5.8,2.9-5.8,6.1v7.3c0,3.4,2.8,6.2,6.2,6.2H95c3.4,0,6.2-2.8,6.2-6.2v-7.3C101.2,92.5,98.5,89.8,95.3,89.7z M99.7,103.1
	c0,2.6-2.1,4.7-4.7,4.7h-0.9c-2.6,0-4.7-2.1-4.7-4.7v-7.3c0-2.5,1.9-4.5,4.4-4.6v3.5c0,0.4,0.3,0.8,0.8,0.8s0.8-0.3,0.8-0.8v-3.5
	c2.4,0.2,4.4,2.2,4.4,4.6v7.3H99.7z M76.8,103.8H32.5c0.2-0.1,0.4-0.4,0.4-0.7v-2c0-0.4-0.3-0.8-0.8-0.8s-0.8,0.3-0.8,0.8v2
	c0,0.3,0.2,0.5,0.4,0.7H17.5c-1.2,0-2.2,1-2.2,2.2v18.8c0,1.2,1,2.2,2.2,2.2h59.3c1.2,0,2.2-1,2.2-2.2V106
	C79,104.8,78,103.8,76.8,103.8z M77.5,124.8c0,0.4-0.3,0.7-0.7,0.7H17.5c-0.4,0-0.7-0.3-0.7-0.7V106c0-0.4,0.3-0.7,0.7-0.7h59.3
	c0.4,0,0.7,0.3,0.7,0.7L77.5,124.8z M33.8,109.6h2c0.4,0,0.8-0.3,0.8-0.8c0-0.4-0.3-0.8-0.8-0.8h-2c-0.4,0-0.8,0.3-0.8,0.8
	C33.1,109.3,33.4,109.6,33.8,109.6z M27.8,109.6h2c0.4,0,0.8-0.3,0.8-0.8c0-0.4-0.3-0.8-0.8-0.8h-2c-0.4,0-0.8,0.3-0.8,0.8
	C27,109.3,27.4,109.6,27.8,109.6z M39.8,109.6h2c0.4,0,0.8-0.3,0.8-0.8c0-0.4-0.3-0.8-0.8-0.8h-2c-0.4,0-0.8,0.3-0.8,0.8
	C39.1,109.3,39.4,109.6,39.8,109.6z M72,108.1h-2c-0.4,0-0.8,0.3-0.8,0.8c0,0.4,0.3,0.8,0.8,0.8h2c0.4,0,0.8-0.3,0.8-0.8
	C72.7,108.5,72.4,108.1,72,108.1z M65.9,108.1h-2c-0.4,0-0.8,0.3-0.8,0.8c0,0.4,0.3,0.8,0.8,0.8h2c0.4,0,0.8-0.3,0.8-0.8
	C66.7,108.5,66.4,108.1,65.9,108.1z M47.9,108.1h-2c-0.4,0-0.8,0.3-0.8,0.8c0,0.4,0.3,0.8,0.8,0.8h2c0.4,0,0.8-0.3,0.8-0.8
	C48.6,108.5,48.3,108.1,47.9,108.1z M53.9,108.1h-2c-0.4,0-0.8,0.3-0.8,0.8c0,0.4,0.3,0.8,0.8,0.8h2c0.4,0,0.8-0.3,0.8-0.8
	C54.6,108.5,54.3,108.1,53.9,108.1z M23.8,108.1h-2c-0.4,0-0.8,0.3-0.8,0.8c0,0.4,0.3,0.8,0.8,0.8h2c0.4,0,0.8-0.3,0.8-0.8
	C24.5,108.5,24.2,108.1,23.8,108.1z M59.9,108.1h-2c-0.4,0-0.8,0.3-0.8,0.8c0,0.4,0.3,0.8,0.8,0.8h2c0.4,0,0.8-0.3,0.8-0.8
	C60.7,108.5,60.3,108.1,59.9,108.1z M23.8,112.5h-2c-0.4,0-0.8,0.3-0.8,0.8s0.3,0.8,0.8,0.8h2c0.4,0,0.8-0.3,0.8-0.8
	S24.2,112.5,23.8,112.5z M27.8,114h2c0.4,0,0.8-0.3,0.8-0.8s-0.3-0.8-0.8-0.8h-2c-0.4,0-0.8,0.3-0.8,0.8S27.4,114,27.8,114z
	 M47.9,112.5h-2c-0.4,0-0.8,0.3-0.8,0.8s0.3,0.8,0.8,0.8h2c0.4,0,0.8-0.3,0.8-0.8S48.3,112.5,47.9,112.5z M59.9,112.5h-2
	c-0.4,0-0.8,0.3-0.8,0.8s0.3,0.8,0.8,0.8h2c0.4,0,0.8-0.3,0.8-0.8S60.3,112.5,59.9,112.5z M39.8,114h2c0.4,0,0.8-0.3,0.8-0.8
	s-0.3-0.8-0.8-0.8h-2c-0.4,0-0.8,0.3-0.8,0.8S39.4,114,39.8,114z M53.9,112.5h-2c-0.4,0-0.8,0.3-0.8,0.8s0.3,0.8,0.8,0.8h2
	c0.4,0,0.8-0.3,0.8-0.8S54.3,112.5,53.9,112.5z M72,112.5h-2c-0.4,0-0.8,0.3-0.8,0.8s0.3,0.8,0.8,0.8h2c0.4,0,0.8-0.3,0.8-0.8
	S72.4,112.5,72,112.5z M33.8,114h2c0.4,0,0.8-0.3,0.8-0.8s-0.3-0.8-0.8-0.8h-2c-0.4,0-0.8,0.3-0.8,0.8S33.4,114,33.8,114z
	 M65.9,112.5h-2c-0.4,0-0.8,0.3-0.8,0.8s0.3,0.8,0.8,0.8h2c0.4,0,0.8-0.3,0.8-0.8S66.4,112.5,65.9,112.5z M65.9,116.8h-2
	c-0.4,0-0.8,0.3-0.8,0.8c0,0.4,0.3,0.8,0.8,0.8h2c0.4,0,0.8-0.3,0.8-0.8C66.7,117.1,66.4,116.8,65.9,116.8z M47.9,116.8h-2
	c-0.4,0-0.8,0.3-0.8,0.8c0,0.4,0.3,0.8,0.8,0.8h2c0.4,0,0.8-0.3,0.8-0.8C48.6,117.1,48.3,116.8,47.9,116.8z M53.9,116.8h-2
	c-0.4,0-0.8,0.3-0.8,0.8c0,0.4,0.3,0.8,0.8,0.8h2c0.4,0,0.8-0.3,0.8-0.8C54.6,117.1,54.3,116.8,53.9,116.8z M23.8,116.8h-2
	c-0.4,0-0.8,0.3-0.8,0.8c0,0.4,0.3,0.8,0.8,0.8h2c0.4,0,0.8-0.3,0.8-0.8C24.5,117.1,24.2,116.8,23.8,116.8z M30.6,117.6
	c0-0.4-0.3-0.8-0.8-0.8h-2c-0.4,0-0.8,0.3-0.8,0.8c0,0.4,0.3,0.8,0.8,0.8h2C30.2,118.3,30.6,118,30.6,117.6z M72,116.8h-2
	c-0.4,0-0.8,0.3-0.8,0.8c0,0.4,0.3,0.8,0.8,0.8h2c0.4,0,0.8-0.3,0.8-0.8C72.7,117.1,72.4,116.8,72,116.8z M59.9,116.8h-2
	c-0.4,0-0.8,0.3-0.8,0.8c0,0.4,0.3,0.8,0.8,0.8h2c0.4,0,0.8-0.3,0.8-0.8C60.7,117.1,60.3,116.8,59.9,116.8z M39.8,118.3h2
	c0.4,0,0.8-0.3,0.8-0.8c0-0.4-0.3-0.8-0.8-0.8h-2c-0.4,0-0.8,0.3-0.8,0.8C39.1,118,39.4,118.3,39.8,118.3z M33.8,118.3h2
	c0.4,0,0.8-0.3,0.8-0.8c0-0.4-0.3-0.8-0.8-0.8h-2c-0.4,0-0.8,0.3-0.8,0.8C33.1,118,33.4,118.3,33.8,118.3z M57.8,121.1h-2
	c-0.4,0-0.8,0.3-0.8,0.8c0,0.4,0.3,0.8,0.8,0.8h2c0.4,0,0.8-0.3,0.8-0.8C58.5,121.5,58.2,121.1,57.8,121.1z M74.7,121.1h-0.8
	c-0.4,0-0.8,0.3-0.8,0.8c0,0.4,0.3,0.8,0.8,0.8h0.8c0.4,0,0.8-0.3,0.8-0.8C75.4,121.5,75.1,121.1,74.7,121.1z M63.8,121.1h-2
	c-0.4,0-0.8,0.3-0.8,0.8c0,0.4,0.3,0.8,0.8,0.8h2c0.4,0,0.8-0.3,0.8-0.8C64.6,121.5,64.2,121.1,63.8,121.1z M69.8,121.1h-2
	c-0.4,0-0.8,0.3-0.8,0.8c0,0.4,0.3,0.8,0.8,0.8h2c0.4,0,0.8-0.3,0.8-0.8C70.6,121.5,70.3,121.1,69.8,121.1z M51.8,121.1h-2
	c-0.4,0-0.8,0.3-0.8,0.8c0,0.4,0.3,0.8,0.8,0.8h2c0.4,0,0.8-0.3,0.8-0.8C52.5,121.5,52.2,121.1,51.8,121.1z M46.1,121.1H29
	c-0.4,0-0.8,0.3-0.8,0.8c0,0.4,0.3,0.8,0.8,0.8h17.2c0.4,0,0.8-0.3,0.8-0.8C46.9,121.5,46.6,121.1,46.1,121.1z M23.8,121.1h-2
	c-0.4,0-0.8,0.3-0.8,0.8c0,0.4,0.3,0.8,0.8,0.8h2c0.4,0,0.8-0.3,0.8-0.8C24.5,121.5,24.2,121.1,23.8,121.1z M114.7,32.2
	c0.4,0,0.8-0.3,0.8-0.8V19.8c0-0.4-0.3-0.8-0.8-0.8c-0.4,0-0.8,0.3-0.8,0.8v11.6C113.9,31.8,114.3,32.2,114.7,32.2z M114.7,39.7
	c0.4,0,0.8-0.3,0.8-0.8v-3.8c0-0.4-0.3-0.8-0.8-0.8c-0.4,0-0.8,0.3-0.8,0.8v3.8C113.9,39.4,114.3,39.7,114.7,39.7z M20.5,78.1h15.1
	c0.6,0,1.1,0.1,1.7,0.3c0.1,0,0.2,0.1,0.3,0.1c0.3,0,0.5-0.2,0.7-0.4h19.2l-3.2,12.6H50c-1.8,0-3.3,1.5-3.3,3.3v0.5
	c0,1.8,1.5,3.3,3.3,3.3h25.5c1.8,0,3.3-1.5,3.3-3.3v-0.4c0-1.8-1.5-3.3-3.3-3.3h-4.3L68,78.2h37c2.8,0,5.1-2.3,5.1-5.1V18.9
	c0-2.8-2.3-5.1-5.1-5.1H20.5c-2.8,0-5.1,2.3-5.1,5.1V73C15.3,75.8,17.6,78.1,20.5,78.1z M62.7,45.5c0.9,0,1.6,0.7,1.6,1.6
	c0,0.9-0.7,1.6-1.6,1.6s-1.6-0.7-1.6-1.6S61.8,45.5,62.7,45.5z M61.9,44.1c-1.3,0.3-2.3,1.5-2.3,3c0,1.7,1.4,3.1,3.1,3.1
	c1.7,0,3.1-1.4,3.1-3.1c0-1.4-1-2.6-2.3-3v-8.7c1.8,4.5,4.8,10.4,9.1,15.3l-4.1,7.4H57l-4.1-7.4c4.3-4.9,7.2-10.8,9.1-15.3v8.7H61.9
	z M56,60.8v-0.3c0-0.5,0.4-0.9,0.9-0.9h11.6c0.5,0,0.9,0.4,0.9,0.9v0.3c0,0.5-0.4,0.9-0.9,0.9H56.9C56.4,61.7,56,61.3,56,60.8z
	 M56.9,63.2L56.9,63.2h11.6l0,0c0.2,1.1,0.4,2.2,0.6,3.2c0.6,3.6,1.1,7,1.4,10.2H67h-8.6h-3.5c0.3-3.2,0.8-6.5,1.4-10.2
	C56.5,65.4,56.7,64.3,56.9,63.2z M77.3,94v0.5c0,1-0.8,1.8-1.8,1.8H49.9c-1,0-1.8-0.8-1.8-1.8v-0.4c0-1,0.8-1.8,1.8-1.8h4.9h15.8
	h4.9C76.5,92.2,77.3,93.1,77.3,94z M69.6,90.7H55.8L59,78.1h7.4L69.6,90.7z M16.8,18.9c0-2,1.6-3.6,3.6-3.6h84.4
	c2,0,3.6,1.6,3.6,3.6V73c0,2-1.6,3.6-3.6,3.6H72c-0.4-3.3-0.8-6.7-1.5-10.4c-0.2-1.2-0.4-2.3-0.6-3.5c0.6-0.4,1-1.1,1-1.9v-0.3
	c0-0.8-0.4-1.5-1-1.9l4.2-7.6c0.1-0.2,0.1-0.5,0-0.7c0-0.1-0.1-0.1-0.1-0.2c-5.7-6.3-9-14.6-10.5-19l0,0c0,0,0,0,0-0.1
	s-0.1-0.1-0.1-0.2c0,0,0,0-0.1-0.1c0,0-0.1-0.1-0.2-0.1c0,0,0,0-0.1,0c-0.1-0.1-0.2-0.1-0.3-0.1s-0.2,0-0.3,0.1c0,0,0,0-0.1,0
	s-0.1,0.1-0.2,0.1c0,0,0,0-0.1,0.1c0,0-0.1,0.1-0.1,0.2c0,0,0,0,0,0.1l0,0c-1.5,4.4-4.9,12.7-10.5,19c-0.1,0.1-0.1,0.1-0.2,0.2
	c-0.1,0.2-0.1,0.5,0,0.7l4.2,7.6c-0.6,0.4-1,1.1-1,1.9v0.3c0,0.8,0.4,1.5,1,1.9c-0.2,1.2-0.4,2.3-0.6,3.5c-0.6,3.7-1.1,7.2-1.5,10.4
	H20.5c-2,0-3.6-1.6-3.6-3.6L16.8,18.9L16.8,18.9z M35.1,5.1L44,8.6c0.1,0.1,0.3,0.2,0.5,0.2h50.6c2.3,0,4.1-1.9,4.1-4.1V4.1
	c0-2.3-1.9-4.1-4.1-4.1H44.5c-0.2,0-0.4,0.1-0.5,0.2l-8.9,3.5c-0.3,0.1-0.5,0.4-0.5,0.7C34.6,4.7,34.8,5,35.1,5.1z M45.2,5.2h46.3
	v2.2H45.2V5.2z M97.7,4.1v0.6c0,1.5-1.2,2.6-2.6,2.6H93V1.5h2.1C96.5,1.5,97.7,2.7,97.7,4.1z M91.5,1.5v2.2H45.2V1.5H91.5z
	 M43.7,1.9v5l-6.3-2.5L43.7,1.9z M35.9,26.9c1.3,0,2.4-0.9,2.7-2.1h17.3c-5,2.4-8.5,7.5-8.7,13.2h-1.3c-0.4,0-0.8,0.3-0.8,0.8v4
	c0,0.4,0.3,0.8,0.8,0.8h4c0.4,0,0.8-0.3,0.8-0.8v-4c0-0.4-0.3-0.8-0.8-0.8h-1.2c0.3-6.4,5-11.7,11.2-13v1c0,0.4,0.3,0.8,0.8,0.8h4
	c0.4,0,0.8-0.3,0.8-0.8v-1c6.3,1.2,10.9,6.6,11.3,13h-1.3c-0.4,0-0.8,0.3-0.8,0.8v4c0,0.4,0.3,0.8,0.8,0.8h4c0.4,0,0.8-0.3,0.8-0.8
	v-4c0-0.4-0.3-0.8-0.8-0.8h-1.2c-0.3-5.8-3.7-10.8-8.7-13.2H87c0.3,1.2,1.4,2.1,2.7,2.1c1.6,0,2.8-1.3,2.8-2.8
	c0-1.6-1.3-2.8-2.8-2.8c-1.3,0-2.4,0.9-2.7,2.1H65.4v-1.3c0-0.4-0.3-0.8-0.8-0.8h-4c-0.4,0-0.8,0.3-0.8,0.8v1.3H38.6
	c-0.3-1.2-1.4-2.1-2.7-2.1c-1.6,0-2.8,1.3-2.8,2.8C33,25.6,34.3,26.9,35.9,26.9z M49.1,42.1h-2.5v-2.5h2.5V42.1z M78.6,42.1h-2.5
	v-2.5h2.5V42.1z M89.5,22.8c0.7,0,1.3,0.6,1.3,1.3c0,0.7-0.6,1.3-1.3,1.3c-0.7,0-1.3-0.6-1.3-1.3S88.8,22.8,89.5,22.8z M63.9,22.8
	v2.5h-2.5v-1.2l0,0l0,0v-1.2L63.9,22.8L63.9,22.8z M35.9,22.8c0.7,0,1.3,0.6,1.3,1.3c0,0.7-0.6,1.3-1.3,1.3s-1.3-0.6-1.3-1.3
	S35.1,22.8,35.9,22.8z"/>
</svg>
