<?xml version="1.0" encoding="utf-8"?>
<!-- Generator: Adobe Illustrator 21.0.2, SVG Export Plug-In . SVG Version: 6.00 Build 0)  -->
<svg version="1.1" id="Layer_1" xmlns="http://www.w3.org/2000/svg" xmlns:xlink="http://www.w3.org/1999/xlink" x="0px" y="0px"
	 viewBox="0 0 127 122.7" style="enable-background:new 0 0 127 122.7;" xml:space="preserve">
<style type="text/css">
	.st0{fill:url(#SVGID_1_);}
</style>
<linearGradient id="SVGID_1_" gradientUnits="userSpaceOnUse" x1="-2.3039" y1="113.6676" x2="119.9518" y2="11.083">
	<stop  offset="0" style="stop-color:#ECB97D"/>
	<stop  offset="0.4032" style="stop-color:#E69C8C"/>
	<stop  offset="1" style="stop-color:#D86D92"/>
</linearGradient>
<path class="st0" d="M35.7,32.1h5l0,0l0,0h35h0.1c0.1,0,0.1,0,0.2,0s0.2,0,0.3-0.1l9.9-4.4c0.3-0.1,0.4-0.4,0.4-0.7
	s-0.2-0.6-0.4-0.7l-9.9-4.4c-0.2-0.1-0.3-0.1-0.5,0h-0.1h-40c-2.8,0-5.2,2.3-5.2,5.2C30.5,29.8,32.8,32.1,35.7,32.1z M76.5,30.4
	v-6.9l7.7,3.4L76.5,30.4z M75,30.7H41.4v-7.4H75V30.7z M35.7,23.3H40v7.4h-4.3c-2,0-3.7-1.7-3.7-3.7C32,24.9,33.7,23.3,35.7,23.3z
	 M57.9,27.7h3.9c0.4,0,0.7-0.3,0.7-0.7s-0.3-0.7-0.7-0.7h-3.9c-0.4,0-0.7,0.3-0.7,0.7S57.4,27.7,57.9,27.7z M67.7,27.7h2.7
	c0.4,0,0.7-0.3,0.7-0.7s-0.3-0.7-0.7-0.7h-2.7c-0.4,0-0.7,0.3-0.7,0.7S67.3,27.7,67.7,27.7z M48,27.7h3.9c0.4,0,0.7-0.3,0.7-0.7
	s-0.3-0.7-0.7-0.7H48c-0.4,0-0.7,0.3-0.7,0.7S47.6,27.7,48,27.7z M1.4,50.6c0.4,0,0.7-0.3,0.7-0.7v-11c0-0.4-0.3-0.7-0.7-0.7
	s-0.7,0.3-0.7,0.7v11C0.7,50.3,1,50.6,1.4,50.6z M0.7,57c0,0.4,0.3,0.7,0.7,0.7s0.7-0.3,0.7-0.7v-3.5c0-0.4-0.3-0.7-0.7-0.7
	s-0.7,0.3-0.7,0.7V57z M111.9,75.9c0.4,0,0.7-0.3,0.7-0.7v-11c0-0.4-0.3-0.7-0.7-0.7c-0.4,0-0.7,0.3-0.7,0.7v11
	C111.2,75.6,111.5,75.9,111.9,75.9z M111.9,83c0.4,0,0.7-0.3,0.7-0.7v-3.5c0-0.4-0.3-0.7-0.7-0.7c-0.4,0-0.7,0.3-0.7,0.7v3.5
	C111.2,82.7,111.5,83,111.9,83z M118.2,39.4c1.9,0,3.5-1.6,3.5-3.5s-1.6-3.5-3.5-3.5s-3.5,1.6-3.5,3.5S116.2,39.4,118.2,39.4z
	 M118.2,33.8c1.1,0,2,0.9,2,2s-0.9,2-2,2s-2-0.9-2-2C116.1,34.8,117.1,33.8,118.2,33.8z M4.2,112.5c-1.9,0-3.5,1.6-3.5,3.5
	s1.6,3.5,3.5,3.5s3.5-1.6,3.5-3.5C7.7,114.1,6.2,112.5,4.2,112.5z M4.2,118c-1.1,0-2-0.9-2-2s0.9-2,2-2s2,0.9,2,2
	C6.3,117.1,5.3,118,4.2,118z M17.4,5.2c0,0.4,0.3,0.7,0.7,0.7h13.2c0.4,0,0.7-0.3,0.7-0.7c0-0.4-0.3-0.7-0.7-0.7H18.2
	C17.8,4.5,17.4,4.8,17.4,5.2z M9.6,6h4.3c0.4,0,0.7-0.3,0.7-0.7c0-0.4-0.3-0.7-0.7-0.7H9.6c-0.4,0-0.7,0.3-0.7,0.7
	C8.9,5.6,9.2,6,9.6,6z M9.6,1.4h9.2c0.4,0,0.7-0.3,0.7-0.7S19.2,0,18.8,0H9.6C9.2,0,8.9,0.3,8.9,0.7S9.2,1.4,9.6,1.4z M22.7,1.4h3
	c0.4,0,0.7-0.3,0.7-0.7S26.1,0,25.7,0h-3C22.3,0,22,0.3,22,0.7S22.3,1.4,22.7,1.4z M104.5,95.2h13.2c0.4,0,0.7-0.3,0.7-0.7
	c0-0.4-0.3-0.7-0.7-0.7h-13.2c-0.4,0-0.7,0.3-0.7,0.7S104.1,95.2,104.5,95.2z M121.3,94.4c0,0.4,0.3,0.7,0.7,0.7h4.3
	c0.4,0,0.7-0.3,0.7-0.7c0-0.4-0.3-0.7-0.7-0.7H122C121.6,93.7,121.3,94,121.3,94.4z M126.3,98.2h-9.2c-0.4,0-0.7,0.3-0.7,0.7
	c0,0.4,0.3,0.7,0.7,0.7h9.2c0.4,0,0.7-0.3,0.7-0.7C127,98.6,126.7,98.2,126.3,98.2z M110.2,98.2c-0.4,0-0.7,0.3-0.7,0.7
	c0,0.4,0.3,0.7,0.7,0.7h3c0.4,0,0.7-0.3,0.7-0.7c0-0.4-0.3-0.7-0.7-0.7H110.2z M108,6.4c0.1,0.1,0.3,0.2,0.5,0.2s0.4-0.1,0.5-0.2
	c0.3-0.3,0.3-0.8,0-1l-1.5-1.5c-0.3-0.3-0.8-0.3-1,0c-0.3,0.3-0.3,0.8,0,1L108,6.4z M112.9,11.3c0.1,0.1,0.3,0.2,0.5,0.2
	s0.4-0.1,0.5-0.2c0.3-0.3,0.3-0.8,0-1l-1.5-1.5c-0.3-0.3-0.8-0.3-1,0c-0.3,0.3-0.3,0.8,0,1L112.9,11.3z M107,11.5
	c0.2,0,0.4-0.1,0.5-0.2l1.5-1.5c0.3-0.3,0.3-0.8,0-1s-0.8-0.3-1,0l-1.5,1.5c-0.3,0.3-0.3,0.8,0,1C106.7,11.4,106.9,11.5,107,11.5z
	 M111.9,6.6c0.2,0,0.4-0.1,0.5-0.2l1.5-1.5c0.3-0.3,0.3-0.8,0-1c-0.3-0.3-0.8-0.3-1,0l-1.5,1.4c-0.3,0.3-0.3,0.8,0,1
	C111.6,6.5,111.8,6.6,111.9,6.6z M5.2,84.8C5.3,84.9,5.5,85,5.7,85s0.4-0.1,0.5-0.2c0.3-0.3,0.3-0.8,0-1l-1.5-1.5
	c-0.3-0.3-0.8-0.3-1,0c-0.3,0.3-0.3,0.8,0,1L5.2,84.8z M9.6,87.2c-0.3-0.3-0.8-0.3-1,0c-0.3,0.3-0.3,0.8,0,1l1.5,1.5
	c0.1,0.1,0.3,0.2,0.5,0.2s0.4-0.1,0.5-0.2c0.3-0.3,0.3-0.8,0-1L9.6,87.2z M3.7,89.7c0.1,0.1,0.3,0.2,0.5,0.2s0.4-0.1,0.5-0.2
	l1.5-1.5c0.3-0.3,0.3-0.8,0-1c-0.3-0.3-0.8-0.3-1,0l-1.5,1.5C3.4,89,3.4,89.4,3.7,89.7z M10.1,82.3l-1.5,1.5c-0.3,0.3-0.3,0.8,0,1
	C8.7,84.9,8.9,85,9.1,85s0.4-0.1,0.5-0.2l1.5-1.5c0.3-0.3,0.3-0.8,0-1C10.9,82,10.4,82,10.1,82.3z M116.1,109.5c0-0.1,0-0.1,0-0.2
	c0-0.4-0.3-0.7-0.7-0.7H98.9V22c0-5.9-4.7-10.7-10.4-10.7c-0.1,0-0.1,0-0.2,0s-0.1,0-0.2,0h-1.2l0,0H18.7l0,0H9.8
	c-5.4,0-9.8,4.4-9.8,9.8c0,1,0.2,2,0.5,3c0,0.2,0.1,0.3,0.3,0.4c0,0.1,0,0.1,0,0.2c0,0.4,0.3,0.7,0.7,0.7H18v87.1c0,0.1,0,0.1,0,0.2
	c0.3,5.6,4.9,10,10.6,10c0.1,0,0.1,0,0.2,0h0.4l0,0H30h68.3l0,0h8.9c5.4,0,9.8-4.4,9.8-9.8c0-1-0.2-2-0.5-3
	C116.3,109.7,116.2,109.6,116.1,109.5z M9.8,12.8c1.7,0.1,3.6,1.1,5.2,2.9c2,2.3,3.1,5.2,3,8.2H1.9c0-0.1,0-0.2,0-0.2
	c-0.3-0.9-0.4-1.7-0.4-2.6C1.5,16.5,5.2,12.8,9.8,12.8z M19.4,111.9V24.6l0,0l0,0l0,0l0,0c0.3-3.6-0.9-7.2-3.3-9.9
	c-0.7-0.7-1.4-1.4-2.1-1.9h74.2c0.1,0,0.1,0,0.2,0s0.1,0,0.2,0c4.9,0,8.9,4.1,8.9,9.2v86.6H38.6c-0.1,0-0.2,0-0.3,0.1
	c-0.1,0-0.1,0-0.2,0c-0.4,0.1-0.6,0.5-0.6,0.9c0.1,0.7,0.3,1.7,0.3,2.4c0,5.1-4.1,9.2-9.2,9.2C23.6,121.1,19.4,117,19.4,111.9z
	 M107,121.2H34c3.2-1.8,5.3-5.3,5.3-9.2c0-0.6-0.1-1.2-0.2-1.8h75.8c0,0.1,0,0.2,0,0.2c0.3,0.8,0.4,1.7,0.4,2.5
	C115.4,117.4,111.6,121.2,107,121.2z M36.2,100v-6.6c0-0.4-0.3-0.7-0.7-0.7h-9.4c-0.4,0-0.7,0.3-0.7,0.7v6.6c0,0.4,0.3,0.7,0.7,0.7
	h9.4C35.9,100.8,36.2,100.4,36.2,100z M34.8,99.3h-7.9v-5.2h7.9V99.3z M49.1,84h-9.4c-0.4,0-0.7,0.3-0.7,0.7v15.2
	c0,0.4,0.3,0.7,0.7,0.7h9.4c0.4,0,0.7-0.3,0.7-0.7V84.8C49.8,84.4,49.5,84,49.1,84z M48.4,99.3h-7.9V85.5h7.9V99.3z M62.7,81.6h-9.4
	c-0.4,0-0.7,0.3-0.7,0.7V100c0,0.4,0.3,0.7,0.7,0.7h9.4c0.4,0,0.7-0.3,0.7-0.7V82.3C63.5,81.9,63.1,81.6,62.7,81.6z M62,99.3h-7.9
	V83.1H62V99.3z M76.3,73.1h-9.4c-0.4,0-0.7,0.3-0.7,0.7V100c0,0.4,0.3,0.7,0.7,0.7h9.4c0.4,0,0.7-0.3,0.7-0.7V73.8
	C77.1,73.4,76.7,73.1,76.3,73.1z M75.6,99.3h-7.9V74.6h7.9V99.3z M79.8,68.1v32c0,0.4,0.3,0.7,0.7,0.7h9.4c0.4,0,0.7-0.3,0.7-0.7
	v-32c0-0.4-0.3-0.7-0.7-0.7h-9.4C80.2,67.3,79.8,67.6,79.8,68.1z M81.3,68.8h7.9v30.5h-7.9V68.8z M29.8,83.9c1.8,0,3.2-1.5,3.2-3.2
	c0-0.6-0.2-1.2-0.5-1.7l8.5-8.5c0.5,0.3,1.1,0.5,1.7,0.5c0.6,0,1.2-0.2,1.7-0.5l5.4,5.4c0.1,0.1,0.3,0.2,0.5,0.2s0.4-0.1,0.5-0.2
	l13.8-13.8c0.5,0.3,1.1,0.5,1.7,0.5s1.2-0.2,1.7-0.5l4.6,4.6c0.1,0.1,0.3,0.2,0.5,0.2l0,0c0.2,0,0.4-0.1,0.5-0.2L84.3,56
	c0.5,0.3,1.1,0.5,1.7,0.5c1.8,0,3.2-1.5,3.2-3.2s-1.5-3.2-3.2-3.2c-1.8,0-3.2,1.5-3.2,3.2c0,0.6,0.2,1.2,0.5,1.7l-9.9,10l-4.1-4.1
	c0.3-0.5,0.5-1.1,0.5-1.7c0-1.8-1.5-3.2-3.2-3.2c-1.8,0-3.2,1.5-3.2,3.2c0,0.6,0.2,1.2,0.5,1.7L50.5,74.2l-4.9-4.9
	c0.3-0.5,0.5-1.1,0.5-1.7c0-1.8-1.5-3.2-3.2-3.2c-1.8,0-3.2,1.5-3.2,3.2c0,0.6,0.2,1.2,0.5,1.7l-8.7,8.6c-0.5-0.3-1.1-0.5-1.7-0.5
	c-1.8,0-3.2,1.5-3.2,3.2C26.6,82.4,28,83.9,29.8,83.9z M86.3,51.4c1,0,1.8,0.8,1.8,1.8S87.3,55,86.3,55c-0.5,0-0.9-0.2-1.3-0.5
	c-0.3-0.3-0.5-0.8-0.5-1.3C84.5,52.2,85.3,51.4,86.3,51.4z M66.5,57.4c1,0,1.8,0.8,1.8,1.8c0,0.5-0.2,0.9-0.5,1.3
	c-0.7,0.7-1.8,0.7-2.5,0c-0.3-0.3-0.5-0.8-0.5-1.3C64.7,58.2,65.5,57.4,66.5,57.4z M42.8,65.9c1,0,1.8,0.8,1.8,1.8
	c0,0.5-0.2,0.9-0.5,1.2c-0.7,0.7-1.9,0.7-2.5,0c-0.3-0.3-0.5-0.8-0.5-1.2C41.1,66.7,41.9,65.9,42.8,65.9z M29.8,78.8
	c0.5,0,0.9,0.2,1.3,0.5c0.2,0.2,0.5,0.7,0.5,1.3c0,1-0.8,1.8-1.8,1.8S28,81.6,28,80.6S28.8,78.8,29.8,78.8z"/>
</svg>
