<?xml version="1.0" encoding="utf-8"?>
<!-- Generator: Adobe Illustrator 21.0.2, SVG Export Plug-In . SVG Version: 6.00 Build 0)  -->
<svg version="1.1" id="Layer_1" xmlns="http://www.w3.org/2000/svg" xmlns:xlink="http://www.w3.org/1999/xlink" x="0px" y="0px"
	 viewBox="0 0 118.9 126.8" style="enable-background:new 0 0 118.9 126.8;" xml:space="preserve">
<style type="text/css">
	.st0{fill:url(#SVGID_1_);}
</style>
<linearGradient id="SVGID_1_" gradientUnits="userSpaceOnUse" x1="2.685" y1="117.7296" x2="118.7714" y2="20.3215">
	<stop  offset="0" style="stop-color:#ECB97D"/>
	<stop  offset="0.4032" style="stop-color:#E69C8C"/>
	<stop  offset="1" style="stop-color:#D86D92"/>
</linearGradient>
<path class="st0" d="M1.1,76.1v10.3c0,0.4,0.3,0.8,0.8,0.8c0.4,0,0.8-0.3,0.8-0.8V76.1c0-0.4-0.3-0.8-0.8-0.8S1.1,75.7,1.1,76.1z
	 M1.8,93.9c0.4,0,0.8-0.3,0.8-0.8v-3.3c0-0.4-0.3-0.8-0.8-0.8C1.4,89,1,89.3,1,89.8v3.3C1.1,93.5,1.4,93.9,1.8,93.9z M115.9,66
	c0.4,0,0.8-0.3,0.8-0.8V54.9c0-0.4-0.3-0.8-0.8-0.8c-0.4,0-0.8,0.3-0.8,0.8v10.3C115.1,65.7,115.5,66,115.9,66z M115.9,72.7
	c0.4,0,0.8-0.3,0.8-0.8v-3.3c0-0.4-0.3-0.8-0.8-0.8c-0.4,0-0.8,0.3-0.8,0.8v3.3C115.1,72.4,115.5,72.7,115.9,72.7z M33.2,10.2
	c0.1,0.1,0.3,0.2,0.5,0.2s0.4-0.1,0.5-0.2c0.3-0.3,0.3-0.8,0-1.1l-1.6-1.6c-0.3-0.3-0.8-0.3-1.1,0s-0.3,0.8,0,1.1L33.2,10.2z
	 M38.5,15.5c0.1,0.1,0.3,0.2,0.5,0.2s0.4-0.1,0.5-0.2c0.3-0.3,0.3-0.8,0-1.1l-1.6-1.6c-0.3-0.3-0.8-0.3-1.1,0s-0.3,0.8,0,1.1
	L38.5,15.5z M32.1,15.7c0.2,0,0.4-0.1,0.5-0.2l1.6-1.6c0.3-0.3,0.3-0.8,0-1.1s-0.8-0.3-1.1,0l-1.6,1.6c-0.3,0.3-0.3,0.8,0,1.1
	C31.7,15.7,31.9,15.7,32.1,15.7z M37.4,10.5c0.2,0,0.4-0.1,0.5-0.2l1.6-1.7c0.3-0.3,0.3-0.8,0-1.1c-0.3-0.2-0.7-0.2-1,0.1l-1.6,1.6
	c-0.3,0.3-0.3,0.8,0,1.1C37,10.4,37.2,10.5,37.4,10.5z M1.9,27c0.1,0.1,0.3,0.2,0.5,0.2s0.4-0.1,0.5-0.2c0.3-0.3,0.3-0.8,0-1.1
	l-1.6-1.6C1,24,0.5,24,0.2,24.3c-0.3,0.3-0.3,0.8,0,1.1L1.9,27z M6.6,29.6c-0.3-0.3-0.8-0.3-1.1,0s-0.3,0.8,0,1.1l1.6,1.6
	c0.1,0.1,0.3,0.2,0.5,0.2s0.4-0.1,0.5-0.2c0.3-0.3,0.3-0.8,0-1.1L6.6,29.6z M3,30.6c0.3-0.3,0.3-0.8,0-1.1c-0.3-0.3-0.8-0.3-1.1,0
	l-1.6,1.6c-0.3,0.3-0.3,0.8,0,1.1c0.1,0.1,0.3,0.2,0.5,0.2s0.4-0.1,0.5-0.2L3,30.6z M7.2,24.3l-1.7,1.6c-0.3,0.3-0.3,0.8,0,1.1
	c0.1,0.1,0.3,0.2,0.5,0.2s0.4-0.1,0.5-0.2l1.6-1.6c0.3-0.3,0.3-0.8,0-1.1C7.9,24,7.4,24,7.2,24.3z M87.5,23.6
	c0.1,0.1,0.3,0.2,0.5,0.2s0.4-0.1,0.5-0.2c0.3-0.3,0.3-0.8,0-1.1l-1.6-1.6c-0.3-0.3-0.8-0.3-1.1,0c-0.3,0.3-0.3,0.8,0,1.1L87.5,23.6
	z M92.2,26.1c-0.3-0.3-0.8-0.3-1.1,0c-0.3,0.3-0.3,0.8,0,1.1l1.6,1.6c0.1,0.1,0.3,0.2,0.5,0.2s0.4-0.1,0.5-0.2
	c0.3-0.3,0.3-0.8,0-1.1L92.2,26.1z M86.4,29c0.2,0,0.4-0.1,0.5-0.2l1.6-1.6c0.3-0.3,0.3-0.8,0-1.1c-0.3-0.3-0.8-0.3-1.1,0l-1.6,1.6
	c-0.3,0.3-0.3,0.8,0,1.1C86,29,86.2,29,86.4,29z M93.8,20.9c-0.3-0.3-0.8-0.3-1.1,0l-1.6,1.6c-0.3,0.3-0.3,0.8,0,1.1
	c0.1,0.1,0.3,0.2,0.5,0.2s0.4-0.1,0.5-0.2l1.6-1.6C94.1,21.6,94.1,21.2,93.8,20.9z M78.1,108.6c-0.3-0.3-0.8-0.3-1.1,0
	c-0.3,0.3-0.3,0.8,0,1.1l1.2,1.2c0.1,0.1,0.3,0.2,0.5,0.2s0.4-0.1,0.5-0.2c0.3-0.3,0.3-0.8,0-1.1L78.1,108.6z M82.2,112.6
	c-0.3-0.3-0.8-0.3-1.1,0c-0.3,0.3-0.3,0.8,0,1.1l1.2,1.2c0.1,0.1,0.3,0.2,0.5,0.2s0.4-0.1,0.5-0.2c0.3-0.3,0.3-0.8,0-1.1L82.2,112.6
	z M78.3,112.6l-1.2,1.2c-0.3,0.3-0.3,0.8,0,1.1c0.1,0.1,0.3,0.2,0.5,0.2s0.4-0.1,0.5-0.2l1.2-1.2c0.3-0.3,0.3-0.8,0-1.1
	C79.1,112.3,78.6,112.3,78.3,112.6z M82.3,108.6l-1.2,1.2c-0.3,0.3-0.3,0.8,0,1.1c0.1,0.1,0.3,0.2,0.5,0.2s0.4-0.1,0.5-0.2l1.2-1.2
	c0.3-0.3,0.3-0.8,0-1.1C83.1,108.3,82.6,108.3,82.3,108.6z M10.1,119.1c-0.3-0.3-0.8-0.3-1.1,0s-0.3,0.8,0,1.1l1.2,1.2
	c0.1,0.1,0.3,0.2,0.5,0.2s0.4-0.1,0.5-0.2c0.3-0.3,0.3-0.8,0-1.1L10.1,119.1z M14.2,123.1c-0.3-0.3-0.8-0.3-1.1,0
	c-0.3,0.3-0.3,0.8,0,1.1l1.2,1.2c0.1,0.1,0.3,0.2,0.5,0.2s0.4-0.1,0.5-0.2c0.3-0.3,0.3-0.8,0-1.1L14.2,123.1z M10.3,123.1l-1.2,1.2
	c-0.3,0.3-0.3,0.8,0,1.1c0.1,0.1,0.3,0.2,0.5,0.2s0.4-0.1,0.5-0.2l1.2-1.2c0.3-0.3,0.3-0.8,0-1.1C11.1,122.8,10.6,122.8,10.3,123.1z
	 M14.3,119.1l-1.2,1.2c-0.3,0.3-0.3,0.8,0,1.1c0.1,0.1,0.3,0.2,0.5,0.2s0.4-0.1,0.5-0.2l1.2-1.2c0.3-0.3,0.3-0.8,0-1.1
	C15.1,118.8,14.6,118.8,14.3,119.1z M115.1,89.3c-2.1,0-3.8,1.7-3.8,3.8c0,2.1,1.7,3.8,3.8,3.8c2.1,0,3.8-1.7,3.8-3.8
	C119,91,117.2,89.3,115.1,89.3z M115.1,95.4c-1.3,0-2.3-1-2.3-2.3s1-2.3,2.3-2.3s2.3,1,2.3,2.3S116.4,95.4,115.1,95.4z M4.2,103
	c-1.7,0-3.2,1.4-3.2,3.2c0,1.7,1.4,3.2,3.2,3.2s3.2-1.4,3.2-3.2S6,103,4.2,103z M4.2,107.8c-0.9,0-1.7-0.7-1.7-1.7
	c0-0.9,0.7-1.7,1.7-1.7s1.7,0.7,1.7,1.7S5.2,107.8,4.2,107.8z M28.4,29.2c1.8,0,3.3-1.5,3.3-3.3s-1.5-3.3-3.3-3.3s-3.3,1.5-3.3,3.3
	C25.1,27.8,26.6,29.2,28.4,29.2z M28.4,24.1c1,0,1.8,0.8,1.8,1.8s-0.8,1.8-1.8,1.8s-1.8-0.8-1.8-1.8C26.6,24.9,27.4,24.1,28.4,24.1z
	 M114.3,117.7h-11.2c-0.4,0-0.8,0.3-0.8,0.8s0.3,0.8,0.8,0.8h11.2c0.4,0,0.8-0.3,0.8-0.8S114.7,117.7,114.3,117.7z M95.9,117.7
	c-0.4,0-0.8,0.3-0.8,0.8s0.3,0.8,0.8,0.8h3.6c0.4,0,0.8-0.3,0.8-0.8s-0.3-0.8-0.8-0.8H95.9z M103.7,121.5h-7.8
	c-0.4,0-0.8,0.3-0.8,0.8s0.3,0.8,0.8,0.8h7.8c0.4,0,0.8-0.3,0.8-0.8S104.1,121.5,103.7,121.5z M109.5,121.5H107
	c-0.4,0-0.8,0.3-0.8,0.8s0.3,0.8,0.8,0.8h2.5c0.4,0,0.8-0.3,0.8-0.8S109.9,121.5,109.5,121.5z M30.6,114.9H19.4
	c-0.4,0-0.8,0.3-0.8,0.8c0,0.4,0.3,0.8,0.8,0.8h11.2c0.4,0,0.8-0.3,0.8-0.8C31.3,115.2,31,114.9,30.6,114.9z M37.8,114.9h-3.6
	c-0.4,0-0.8,0.3-0.8,0.8c0,0.4,0.3,0.8,0.8,0.8h3.6c0.4,0,0.8-0.3,0.8-0.8S38.3,114.9,37.8,114.9z M37.8,111H30
	c-0.4,0-0.8,0.3-0.8,0.8s0.3,0.8,0.8,0.8h7.8c0.4,0,0.8-0.3,0.8-0.8S38.3,111,37.8,111z M26.7,112.5c0.4,0,0.8-0.3,0.8-0.8
	s-0.3-0.8-0.8-0.8h-2.5c-0.4,0-0.8,0.3-0.8,0.8s0.3,0.8,0.8,0.8H26.7z M90.3,10.4h11.2c0.4,0,0.8-0.3,0.8-0.8c0-0.4-0.3-0.8-0.8-0.8
	H90.3c-0.4,0-0.8,0.3-0.8,0.8C89.5,10,89.9,10.4,90.3,10.4z M105.1,10.4h3.6c0.4,0,0.8-0.3,0.8-0.8c0-0.4-0.3-0.8-0.8-0.8h-3.6
	c-0.4,0-0.8,0.3-0.8,0.8C104.3,10,104.7,10.4,105.1,10.4z M108.7,12.7h-7.8c-0.4,0-0.8,0.3-0.8,0.8c0,0.4,0.3,0.8,0.8,0.8h7.8
	c0.4,0,0.8-0.3,0.8-0.8S109.1,12.7,108.7,12.7z M95.1,12.7c-0.4,0-0.8,0.3-0.8,0.8c0,0.4,0.3,0.8,0.8,0.8h2.5c0.4,0,0.8-0.3,0.8-0.8
	c0-0.4-0.3-0.8-0.8-0.8H95.1z M73.1,119.6h-4.2L65.5,104h37.4c3.3,0,5.9-2.7,5.9-5.9v-56c0-3.3-2.7-5.9-5.9-5.9H83.7
	c-1-0.7-2-1.3-3.2-1.8C74.2,31.5,71,24,69.8,20.9c-0.9-5.2-2.8-10.3-5.6-15.1c0-0.1-0.1-0.2-0.1-0.2c-0.7-1.3-1.6-2.7-2.5-4
	l-0.9-1.3c-0.3-0.4-1-0.4-1.2,0l-0.9,1.3c-0.9,1.3-1.8,2.7-2.6,4.1l0,0c0,0,0,0,0,0.1c-1.7,2.9-3,6-4,9.1c-0.7,2-1.2,4-1.5,6l0,0
	c-1.1,2.9-4.4,10.4-10.7,13.4c-1.1,0.5-2.2,1.2-3.2,1.8H17.4c-3.3,0-5.9,2.7-5.9,5.9v56c0,3.3,2.7,5.9,5.9,5.9h37.4l-3.3,15.7h-4.2
	c-2,0-3.6,1.6-3.6,3.6s1.6,3.6,3.6,3.6h25.8c2,0,3.6-1.6,3.6-3.6S75.1,119.6,73.1,119.6z M79.9,35.6c1.1,0.5,2.2,1.2,3.2,1.8
	c6,4.2,7.6,10.2,8,12.4H70.2v-9.4c0-0.6,0-1.1-0.1-1.7c0,0,0,0,0-0.1c-0.1-0.5-0.2-1.1-0.3-1.6v-0.1c0.5-2.7,0.8-5.5,0.8-8.3
	c0-0.9,0-1.9-0.1-2.8C72.4,29.4,75.4,33.5,79.9,35.6z M67.7,55.2h-2.3l0,0l0,0c-0.6,0-1-0.5-1-1.1v-3.5l0,0l0,0V40.5
	c0-1.1,0.2-2.3,0.5-3.4c0-0.2,0.1-0.4,0.2-0.5c0.4-1.1,0.9-2.2,1.6-3.3c0.8,1.3,1.4,2.5,1.7,3.8v0.1c0.3,1.1,0.4,2.1,0.4,3.3v10.1
	v3.5C68.7,54.7,68.3,55.2,67.7,55.2z M52.7,55.2c-0.6,0-1-0.5-1-1.1v-3.5V40.5c0-1.1,0.1-2.2,0.4-3.2c0-0.1,0-0.1,0.1-0.2
	c0-0.2,0.1-0.4,0.2-0.5c0.4-1.1,0.9-2.2,1.6-3.3c0.8,1.2,1.4,2.5,1.7,3.8c0.3,1.1,0.5,2.3,0.5,3.4v13.6c0,0.6-0.5,1.1-1,1.1H52.7z
	 M57.5,39.2c0-0.1,0-0.2,0-0.3c0-0.4-0.1-0.8-0.2-1.3l0,0h5.9l0,0c-0.1,0.4-0.1,0.8-0.2,1.2c0,0.1,0,0.2,0,0.3
	c0,0.4-0.1,0.8-0.1,1.3v9.4h-5.4v-9.4C57.5,40,57.5,39.6,57.5,39.2z M57.5,54.1v-2.7h5.3v2.7c0,1.2,0.7,2.1,1.8,2.5
	c-0.1,1.8-0.7,7.2-4.4,11c-3.8-3.8-4.3-9.3-4.4-11C56.8,56.2,57.5,55.3,57.5,54.1z M59.9,2.3l0.3-0.4l0.3,0.4c0.7,1,1.2,1.9,1.8,2.9
	h-4.2C58.7,4.1,59.3,3.2,59.9,2.3z M53.5,15.2c0.9-2.9,2.2-5.8,3.8-8.5h5.9c2.6,4.7,4.4,9.5,5.3,14.5l0,0c0.4,2.4,0.7,5,0.7,7.5
	c0,1.8-0.1,3.6-0.4,5.4c-0.4-0.7-0.8-1.5-1.3-2.2l-0.3-0.4c-0.1-0.2-0.4-0.3-0.6-0.3s-0.5,0.1-0.6,0.3l-0.3,0.4
	c-0.9,1.3-1.6,2.7-2.1,4.2v0.1h-6.7c-0.5-1.5-1.2-2.9-2.1-4.3l-0.3-0.4c-0.1-0.2-0.4-0.3-0.6-0.3c-0.2,0-0.5,0.1-0.6,0.3L53,31.9
	c-0.5,0.7-0.9,1.5-1.3,2.2c-0.2-1.8-0.4-3.6-0.4-5.4C51.3,24.1,52,19.6,53.5,15.2z M40.5,35.6c4.5-2.1,7.5-6.3,9.4-9.8
	c-0.1,0.9-0.1,1.9-0.1,2.8c0,2.8,0.3,5.6,0.8,8.3c-0.3,1.1-0.4,2.3-0.4,3.5v9.4H29.3c0.4-2.2,2-8.2,8-12.4l0,0l0,0
	C38.3,36.8,39.3,36.2,40.5,35.6z M17.4,37.6h17.3c-0.2,0.2-0.4,0.3-0.5,0.5c-0.2,0.1-0.3,0.3-0.5,0.4c-0.2,0.2-0.5,0.5-0.7,0.7
	c-0.1,0.1-0.2,0.3-0.4,0.4c-0.3,0.3-0.5,0.6-0.7,0.9c-0.1,0.1-0.1,0.1-0.2,0.2c-0.3,0.4-0.6,0.8-0.8,1.1c-0.1,0.1-0.1,0.2-0.2,0.3
	c-0.2,0.3-0.3,0.5-0.5,0.8C30.1,43,30,43.2,30,43.3c-0.1,0.2-0.2,0.5-0.4,0.7c-0.1,0.2-0.1,0.3-0.2,0.4c-0.1,0.2-0.2,0.4-0.3,0.6
	c-0.1,0.1-0.1,0.3-0.2,0.4c-0.1,0.2-0.2,0.4-0.2,0.6c-0.1,0.1-0.1,0.3-0.1,0.4c-0.1,0.2-0.1,0.4-0.2,0.5c0,0.1-0.1,0.3-0.1,0.4
	c0,0.2-0.1,0.3-0.1,0.5c0,0.1-0.1,0.2-0.1,0.3S28,48.4,28,48.5c0,0.1,0,0.2-0.1,0.3c0,0.1-0.1,0.3-0.1,0.4c0,0.1,0,0.2,0,0.2
	c0,0.1,0,0.2,0,0.3v0.1c0,0.1,0,0.2,0,0.2v0.1c0,0.1,0,0.1,0,0.1c0,0.2,0.1,0.4,0.2,0.6c0.1,0.2,0.3,0.2,0.6,0.2h21.7v2.7
	c0,1.1,0.7,2.1,1.7,2.4c-0.9,4.3-3.2,7.8-4.9,9.7c-0.2-1-0.7-1.9-1.5-2.5s-1.8-0.8-2.8-0.6h-0.1c-0.3-2.4-2.3-4.2-4.7-4.2
	c-0.4,0-0.8,0.1-1.2,0.2c-0.1-1.2-0.8-2.4-1.9-2.9c-0.8-0.3-1.6-0.3-2.4,0c-0.4,0.2-0.7,0.4-1,0.7c-0.5-0.8-1.3-1.3-2.2-1.5
	s-1.9,0-2.7,0.5c-0.9,0.6-1.4,1.4-1.6,2.5c-0.1,0.4,0.2,0.8,0.6,0.9c0.4,0.1,0.8-0.2,0.9-0.6c0.1-0.6,0.5-1.2,1-1.5
	c0.5-0.3,1-0.4,1.6-0.3c1.2,0.3,2,1.5,1.7,2.8c-0.1,0.4,0.2,0.8,0.6,0.9h0.1c0.4,0,0.7-0.2,0.7-0.6c0.1-0.4,0.1-0.9,0-1.3
	c0.2-0.5,0.5-0.8,0.9-1s0.8-0.2,1.2,0c0.9,0.4,1.3,1.4,0.9,2.3c-0.4,0.3-0.8,0.7-1.1,1.1c-0.2,0.3-0.1,0.8,0.2,1s0.8,0.1,1-0.2
	c0.6-0.9,1.6-1.4,2.6-1.4c1.8,0,3.2,1.5,3.2,3.4c-0.3,0.3-0.6,0.6-0.9,0.9c-0.2,0.3-0.1,0.8,0.2,1s0.8,0.1,1-0.2
	c0.3-0.5,0.8-0.9,1.4-1c0.6-0.1,1.1,0,1.6,0.4c1,0.7,1.3,2.2,0.6,3.3c-0.2,0.3-0.1,0.7,0.1,1c0.1,0.1,0.3,0.2,0.5,0.2
	s0.4-0.1,0.5-0.2c0.2-0.2,5.7-5.2,7.1-12.5h0.9c0.1,2.1,0.8,8.3,5.4,12.5c0.1,0.1,0.3,0.2,0.5,0.2s0.4-0.1,0.5-0.2
	c4.6-4.2,5.3-10.4,5.4-12.5h1c1.4,7.4,6.9,12.3,7.1,12.5c0.1,0.1,0.3,0.2,0.5,0.2s0.4-0.1,0.5-0.2c0.3-0.2,0.3-0.7,0.1-1
	c-0.7-1.1-0.4-2.5,0.6-3.3c0.5-0.3,1-0.5,1.6-0.4s1.1,0.5,1.4,1c0.2,0.3,0.7,0.4,1,0.2c0.3-0.2,0.4-0.7,0.2-1
	c-0.2-0.4-0.5-0.7-0.9-0.9c0-1.9,1.5-3.4,3.2-3.4c1,0,2,0.5,2.6,1.4c0.2,0.3,0.7,0.4,1,0.2s0.4-0.7,0.2-1c-0.3-0.4-0.7-0.8-1.1-1.1
	c-0.4-0.9,0.1-2,0.9-2.3c0.4-0.2,0.8-0.2,1.2,0c0.4,0.2,0.8,0.5,0.9,1c-0.1,0.4-0.1,0.9,0,1.3c0.1,0.4,0.4,0.6,0.7,0.6h0.1
	c0.4-0.1,0.7-0.5,0.6-0.9c-0.2-1.3,0.5-2.5,1.7-2.8c0.5-0.1,1.1,0,1.6,0.3s0.9,0.9,1,1.5c0.1,0.4,0.5,0.7,0.9,0.6
	c0.4-0.1,0.7-0.5,0.6-0.9c-0.2-1-0.8-1.9-1.6-2.5c-0.8-0.5-1.8-0.7-2.7-0.5c-0.9,0.2-1.7,0.8-2.2,1.5c-0.3-0.3-0.6-0.5-1-0.7
	c-0.8-0.3-1.6-0.3-2.4,0c-1.2,0.5-1.9,1.7-1.9,2.9c-0.4-0.1-0.8-0.2-1.2-0.2c-2.4,0-4.4,1.9-4.7,4.2h-0.1c-1-0.2-1.9,0-2.8,0.6
	c-0.3,1.1-0.8,2-1,3c-1.7-2-4.1-5.5-4.9-9.7c0.9-0.4,1.6-1.3,1.6-2.4v-2.7h21.7c0.2,0,0.4-0.1,0.6-0.2c0.1-0.2,0.2-0.4,0.2-0.6v-0.1
	c0,0,0,0,0-0.1s0-0.1,0-0.2c0,0,0-0.1,0-0.2c0-0.1,0-0.2,0-0.3s0-0.2,0-0.2c0-0.1,0-0.2-0.1-0.4c0-0.1,0-0.2-0.1-0.3
	c0-0.1-0.1-0.3-0.1-0.4c0-0.1-0.1-0.2-0.1-0.4c0-0.1-0.1-0.3-0.1-0.5c0-0.1-0.1-0.3-0.1-0.4C92,47,92,46.9,91.9,46.7
	c-0.1-0.1-0.1-0.3-0.2-0.4c-0.1-0.2-0.1-0.3-0.2-0.5s-0.1-0.3-0.2-0.5s-0.2-0.4-0.3-0.6c-0.1-0.2-0.2-0.3-0.2-0.5
	c-0.1-0.2-0.2-0.4-0.3-0.6c-0.1-0.2-0.2-0.3-0.3-0.5c-0.1-0.2-0.3-0.4-0.4-0.7c-0.1-0.2-0.2-0.3-0.3-0.5c-0.2-0.4-0.5-0.7-0.8-1.1
	c-0.1-0.1-0.2-0.2-0.3-0.4c-0.2-0.3-0.4-0.5-0.6-0.8c-0.1-0.2-0.3-0.3-0.4-0.5c-0.2-0.2-0.4-0.4-0.6-0.7c-0.2-0.2-0.3-0.3-0.5-0.5
	s-0.3-0.3-0.5-0.5h17.3c2.4,0,4.4,2,4.4,4.4v48.6H13V42.1C13,39.6,15,37.6,17.4,37.6z M13,98v-5.8h94.4V98c0,2.4-2,4.4-4.4,4.4H17.4
	C15,102.5,13,100.5,13,98z M56.4,104H64l3.4,15.6H53L56.4,104z M73.1,125.3H47.3c-1.2,0-2.1-0.9-2.1-2.1s0.9-2.1,2.1-2.1h4.8h16.2
	h4.8c1.2,0,2.1,0.9,2.1,2.1C75.2,124.4,74.3,125.3,73.1,125.3z M69.4,95.2H51c-1.2,0-2.2,1-2.2,2.2s1,2.2,2.2,2.2h18.4
	c1.2,0,2.2-1,2.2-2.2C71.6,96.1,70.6,95.2,69.4,95.2z M69.4,98.1H51c-0.4,0-0.7-0.3-0.7-0.7c0-0.4,0.3-0.7,0.7-0.7h18.4
	c0.4,0,0.7,0.3,0.7,0.7S69.8,98.1,69.4,98.1z M86.4,45.4c0.1,0.2,0.4,0.4,0.6,0.4c0.1,0,0.3,0,0.4-0.1c0.4-0.2,0.5-0.7,0.2-1
	c-0.7-1.2-1.6-2.3-2.6-3.3c-0.3-0.3-0.8-0.3-1.1,0c-0.3,0.3-0.3,0.8,0,1.1C84.9,43.2,85.7,44.3,86.4,45.4z M77.3,37.7
	c0.2,0.1,0.4,0.2,0.6,0.3c1.2,0.6,2.4,1.3,3.5,2c0.1,0.1,0.3,0.1,0.4,0.1c0.2,0,0.5-0.1,0.6-0.3c0.2-0.3,0.2-0.8-0.2-1.1
	c-1.1-0.8-2.4-1.6-3.7-2.2c-0.2-0.1-0.4-0.2-0.6-0.3c-0.4-0.2-0.8-0.1-1,0.3C76.8,37,77,37.5,77.3,37.7z M74.2,35.5
	c0.1,0.1,0.3,0.2,0.5,0.2s0.4-0.1,0.6-0.3c0.3-0.3,0.2-0.8-0.1-1.1c-0.9-0.8-1.8-1.7-2.7-2.8c-0.3-0.3-0.7-0.4-1.1-0.1
	c-0.3,0.3-0.4,0.7-0.1,1.1C72.3,33.7,73.2,34.7,74.2,35.5z M45.9,35.7c0.2,0,0.3-0.1,0.5-0.2c1-0.9,2-1.9,2.9-3
	c0.3-0.3,0.2-0.8-0.1-1.1s-0.8-0.2-1.1,0.1c-0.8,1.1-1.7,2-2.7,2.8c-0.3,0.3-0.4,0.7-0.1,1.1C45.5,35.6,45.7,35.7,45.9,35.7z
	 M38.8,40.2c0.2,0,0.3,0,0.4-0.1c1.1-0.8,2.2-1.5,3.5-2c0.2-0.1,0.4-0.2,0.6-0.3c0.4-0.2,0.5-0.7,0.3-1c-0.2-0.4-0.7-0.5-1-0.3
	c-0.2,0.1-0.4,0.2-0.6,0.3c-1.3,0.6-2.6,1.4-3.7,2.2c-0.3,0.2-0.4,0.7-0.2,1.1C38.3,40.1,38.5,40.2,38.8,40.2z M35.5,41.3
	c-1,1-1.8,2.1-2.6,3.3c-0.2,0.4-0.1,0.8,0.2,1c0.1,0.1,0.3,0.1,0.4,0.1c0.2,0,0.5-0.1,0.6-0.4c0.7-1.1,1.5-2.1,2.4-3
	c0.3-0.3,0.3-0.8,0-1.1C36.3,41,35.8,41,35.5,41.3z M65.8,25.9c0,0.4,0.3,0.8,0.7,0.8l0,0c0.4,0,0.8-0.3,0.8-0.7
	c0-6.6-3.5-14.4-3.6-14.7c-0.2-0.4-0.6-0.5-1-0.4c-0.4,0.2-0.5,0.6-0.4,1C62.4,11.9,65.8,19.6,65.8,25.9z M54.1,26.7L54.1,26.7
	c0.4,0,0.8-0.3,0.8-0.8c0-6.3,3.4-14,3.5-14.1c0.2-0.4,0-0.8-0.4-1s-0.8,0-1,0.4c-0.1,0.3-3.7,8.1-3.6,14.7
	C53.3,26.3,53.7,26.7,54.1,26.7z M88,65.5c0.1,0,0.2,0.1,0.3,0.1c0.3,0,0.6-0.2,0.7-0.4c0-0.1,1.1-2.4,4.3-1.5
	c0.4,0.1,0.8-0.1,0.9-0.5s-0.1-0.8-0.5-0.9c-3.5-1-5.5,1.1-6.1,2.4C87.4,64.9,87.6,65.3,88,65.5z M79.6,69.5c0.2,0,0.5-0.1,0.6-0.3
	c0,0,0.6-0.8,1.3-0.9c0.4,0,0.8,0.1,1.1,0.4c0.3,0.3,0.8,0.2,1.1-0.1c0.3-0.3,0.2-0.8-0.1-1.1c-0.9-0.8-1.7-0.9-2.3-0.8
	c-1.4,0.2-2.3,1.3-2.4,1.5c-0.2,0.3-0.2,0.8,0.2,1.1C79.2,69.5,79.4,69.5,79.6,69.5z M86.4,70c0.1,0.1,0.3,0.1,0.4,0.1
	c0.3,0,0.5-0.1,0.6-0.4c0-0.1,0.9-1.5,2.3-1.3c0.4,0,0.8-0.3,0.8-0.7c0-0.4-0.3-0.8-0.7-0.8c-2.4-0.2-3.7,2-3.7,2.1
	C85.9,69.3,86.1,69.8,86.4,70z M27.1,63.6c3.1-0.8,4.2,1.3,4.3,1.5c0.1,0.3,0.4,0.4,0.7,0.4c0.1,0,0.2,0,0.3-0.1
	c0.4-0.2,0.5-0.6,0.4-1c-0.6-1.2-2.6-3.3-6.1-2.4c-0.4,0.1-0.6,0.5-0.5,0.9C26.3,63.5,26.7,63.7,27.1,63.6z M37.8,68.8
	c0.4-0.3,0.8-0.5,1.1-0.4c0.6,0.1,1.2,0.6,1.4,0.9c0.1,0.2,0.4,0.3,0.6,0.3c0.2,0,0.3,0,0.4-0.1c0.3-0.2,0.4-0.7,0.2-1.1
	c-0.1-0.1-1-1.3-2.4-1.5c-0.6-0.1-1.4,0-2.3,0.8c-0.3,0.3-0.4,0.7-0.1,1.1C37,69,37.4,69.1,37.8,68.8z M29.8,67.7
	c0,0.4,0.4,0.7,0.8,0.7c1.4-0.1,2.3,1.3,2.3,1.3c0.1,0.2,0.4,0.4,0.6,0.4c0.1,0,0.3,0,0.4-0.1c0.4-0.2,0.5-0.7,0.3-1
	c-0.1-0.1-1.4-2.3-3.7-2.1C30.1,67,29.8,67.3,29.8,67.7z"/>
</svg>
