<?xml version="1.0" standalone="no"?>
<!DOCTYPE svg PUBLIC "-//W3C//DTD SVG 1.1//EN" "http://www.w3.org/Graphics/SVG/1.1/DTD/svg11.dtd" >
<svg>
<metadata>
Created by FontForge 20090622 at Wed Jan 13 22:05:25 2016
 By deploy user
Copyright (c) 2005-2009 Parachute&#194;&#168;, www.parachute.gr.  All rights reserved.
</metadata>
<defs>
<font id="PFEncoreSansPro-Light" horiz-adv-x="1818" >
  <font-face 
    font-family="PF Encore Sans Pro Light"
    font-weight="400"
    font-stretch="normal"
    units-per-em="1000"
    panose-1="2 0 5 6 0 0 0 2 0 4"
    ascent="750"
    descent="-250"
    x-height="480"
    cap-height="675"
    bbox="-342 -250 1760 913"
    underline-thickness="40"
    underline-position="-60"
    unicode-range="U+0020-U+FB05"
  />
<missing-glyph horiz-adv-x="435" 
d="M0 0v700h435v-700h-435zM217 383l154 280h-307zM240 350l158 -286v573zM64 37h307l-154 279zM36 635v-570l158 285z" />
    <glyph glyph-name="fj" unicode="fj" horiz-adv-x="483" 
d="M309 -193h-38v53h23q30 0 41 17t11 54v502h-191v-433h-60v433h-80v37l79 11v66q0 171 183 171q53 0 102 -9v-50q-54 7 -90 7q-70 0 -102.5 -27t-32.5 -91v-67h254v-551q0 -61 -22 -92t-77 -31z" />
    <glyph glyph-name="ffj" unicode="ffj" horiz-adv-x="742" 
d="M567 -192h-38v53h23q30 0 41 16.5t11 53.5v501h-192v-432h-60v432h-196v-432h-61v432h-80v38q45 5 80 10v72q0 82 34.5 118.5t110.5 36.5q34 0 68 -8q0 -8 -0.5 -24t-0.5 -24q-34 5 -64 5q-49 0 -68 -21t-19 -80v-75h195v71q0 171 183 171q45 0 103 -10v-48q-72 6 -91 6
q-70 0 -102 -27t-32 -91v-72q42 0 126.5 0.5t126.5 0.5v-551q0 -61 -22.5 -91.5t-75.5 -30.5z" />
    <glyph glyph-name="fb" unicode="fb" horiz-adv-x="823" 
d="M566 -8q-113 0 -156 77h-4q0 -49 -10 -69h-46v662q-33 5 -61 5q-70 0 -102.5 -26t-32.5 -89v-71h143v-48h-142v-433h-60v433h-80v37l79 11v70q0 168 183 168q33 0 91 -8h42v-215q0 -65 -7 -103h4q22 41 65 68.5t101 27.5q200 0 200 -250q0 -111 -50.5 -179t-156.5 -68z
M563 436q-77 0 -114.5 -53.5t-37.5 -120.5v-59q0 -71 39 -115t109 -44q153 0 153 196t-149 196z" />
    <glyph glyph-name="ffb" unicode="ffb" horiz-adv-x="1080" 
d="M410 551v-71h143v-48h-142v-432h-61v432h-196v-432h-60v432h-80v38q50 6 80 10v72q0 82 34.5 118.5t109.5 36.5q36 0 68 -8v-48q-34 5 -65 5q-48 0 -67.5 -22t-19.5 -79v-75h196v70q0 168 183 168q40 0 91 -7h42v-215q0 -65 -7 -104h4q21 42 64.5 69.5t101.5 27.5
q200 0 200 -251q0 -111 -50.5 -178.5t-156.5 -67.5q-114 0 -156 77h-4q0 -47 -11 -69h-45v660q-40 6 -61 6q-71 0 -103 -25.5t-32 -89.5zM820 436q-78 0 -115.5 -54t-37.5 -121v-58q0 -72 39 -116t109 -44q152 0 152 196q0 197 -147 197z" />
    <glyph glyph-name="fh" unicode="fh" horiz-adv-x="816" 
d="M410 498q0 -65 -7 -101h4q22 44 66.5 68t100.5 24q47 0 81 -12.5t53 -31t30.5 -48t14.5 -57t3 -63.5v-277h-61v276q0 78 -27 120.5t-106 42.5q-75 0 -113.5 -52t-38.5 -122v-265h-60v662q-33 5 -61 5q-70 0 -102.5 -26t-32.5 -89v-71h141v-48h-140v-433h-60v433h-80v37
l79 11v70q0 168 183 168q33 0 91 -8h42v-213z" />
    <glyph glyph-name="ffh" unicode="ffh" horiz-adv-x="1072" 
d="M410 551v-71h141v-48h-140v-432h-61v432h-196v-432h-60v432h-80v38q50 6 80 10v72q0 82 34.5 118.5t109.5 36.5q36 0 68 -8v-48q-34 5 -65 5q-48 0 -67.5 -21.5t-19.5 -79.5v-75h196v70q0 168 183 168q40 0 91 -7h42v-213q0 -58 -7 -101h4q22 44 66 68t101 24
q47 0 81 -12.5t53 -31.5t30.5 -48.5t14.5 -56.5t3 -63v-277h-62v276q0 78 -26.5 120.5t-105.5 42.5q-75 0 -113.5 -52t-38.5 -123v-264h-60v660q-40 6 -61 6q-71 0 -103 -25.5t-32 -89.5z" />
    <glyph glyph-name="fk" unicode="fk" horiz-adv-x="744" 
d="M663 480h70l-186 -216l197 -264h-75l-173 236h-86v-236h-60q0 110 -0.5 329.5t-0.5 330.5q-38 6 -61 6q-70 0 -102 -25.5t-32 -89.5v-71h141v-48h-141v-432h-60v432h-80v37l79 11v70q0 168 183 168q40 0 92 -7h42v-424h86z" />
    <glyph glyph-name="ffk" unicode="ffk" horiz-adv-x="1001" 
d="M410 551v-71h141v-48h-140v-432h-61v432h-196v-432h-60v432h-80v38q50 6 80 10v72q0 82 34.5 118.5t109.5 36.5q36 0 68 -8v-48q-34 5 -65 5q-48 0 -67.5 -21.5t-19.5 -79.5v-75h196v70q0 168 183 168q40 0 91 -7h42v-424h87l167 193h70l-187 -216l197 -264h-74l-173 236
h-87v-236h-60v660q-40 6 -61 6q-71 0 -103 -25.5t-32 -89.5z" />
    <glyph glyph-name="r_y" unicode="ry" horiz-adv-x="698" 
d="M127 0h-61v481h46q12 -33 12 -92h4q50 101 204 101l81 -252q43 -133 60 -191h8q8 29 67 205l75 228h60l-180 -535q-13 -37 -22.5 -58.5t-27 -44.5t-43 -33.5t-61.5 -10.5h-55v50h48q52 0 73 30t49 120l-32 -2q-22 78 -46 149.5l-54.5 157l-45.5 128.5q-159 -13 -159 -169
v-262z" />
    <glyph glyph-name="ff" unicode="ff" horiz-adv-x="580" 
d="M569 480v-48h-149v-432h-61v432h-197v-432h-61v432h-80v38q45 5 80 10v71q0 83 34 119.5t111 36.5q34 0 68 -8v-49q-47 5 -65 5q-50 0 -68.5 -21t-18.5 -79v-75h197v90q0 82 34 118.5t111 36.5q41 0 68 -8v-49q-41 6 -65 6q-60 0 -75 -34q-12 -26 -12 -128v-32h149z" />
    <glyph glyph-name="fi" unicode="fi" horiz-adv-x="483" 
d="M154 480h253v-480h-61v432h-192v-432h-60v432h-80v37l79 11v66q0 171 183 171q52 0 103 -9v-49q-48 6 -91 6q-70 0 -102 -26.5t-32 -91.5v-67z" />
    <glyph glyph-name="fl" unicode="fl" horiz-adv-x="484" 
d="M302 481v-48h-147v-433h-60v433h-80v37l79 11v70q0 168 183 168q42 0 100 -9h32v-710h-59v662q-33 5 -61 5q-70 0 -102.5 -26t-32.5 -89v-71h148z" />
    <glyph glyph-name="ffi" unicode="ffi" horiz-adv-x="742" 
d="M352 481v71q0 171 183 171q47 0 102 -10v-49q-46 6 -90 6q-70 0 -102.5 -26.5t-32.5 -90.5v-72h254v-481h-61v433h-192v-433h-61v433h-195v-433h-61v433h-80v37l80 10v73q0 82 34.5 118.5t109.5 36.5q34 0 68 -8v-48q-47 5 -65 5q-48 0 -67 -21t-19 -80v-75h195z" />
    <glyph glyph-name="ffl" unicode="ffl" horiz-adv-x="741" 
d="M558 480v-48h-147v-432h-61v432h-196v-432h-60v432h-80v38q50 6 80 10v72q0 82 34.5 118.5t109.5 36.5q36 0 68 -8v-48q-34 5 -65 5q-48 0 -67.5 -20.5t-19.5 -80.5v-75h196v75q0 168 183 168q47 0 100 -10h33v-713h-59v665q-50 5 -62 5q-71 0 -103 -25.5t-32 -88.5v-76
h148z" />
    <glyph glyph-name="ft" unicode="ft" horiz-adv-x="603" 
d="M421 604v-123h145v-47h-145v-283q0 -60 23 -84t75 -24q41 0 69 4v-48q-36 -6 -77 -6q-84 0 -117 35t-33 127v279h-198v-433h-61v433h-80v37l80 9v82q0 83 33.5 118.5t110.5 35.5q48 0 71 -7v-48q-34 5 -68 5q-50 0 -68 -20t-18 -81v-84h200l16 123h42z" />
    <glyph glyph-name=".notdef" horiz-adv-x="435" 
d="M0 0v700h435v-700h-435zM217 383l154 280h-307zM240 350l158 -286v573zM64 37h307l-154 279zM36 635v-570l158 285z" />
    <glyph glyph-name=".null" horiz-adv-x="0" 
 />
    <glyph glyph-name="nonmarkingreturn" horiz-adv-x="333" 
 />
    <glyph glyph-name="space" unicode=" " horiz-adv-x="280" 
 />
    <glyph glyph-name="exclam" unicode="!" horiz-adv-x="294" 
d="M174 168h-50q-1 38 -5 257t-5 257h71q-8 -322 -11 -514zM99 40q0 21 14.5 35.5t35.5 14.5q20 0 34.5 -14.5t14.5 -35.5q0 -20 -14.5 -34.5t-34.5 -14.5q-21 0 -35.5 14.5t-14.5 34.5z" />
    <glyph glyph-name="quotedbl" unicode="&#x22;" horiz-adv-x="324" 
d="M243 448h-45l-9 219h65zM130 448h-44l-11 219h65z" />
    <glyph glyph-name="numbersign" unicode="#" horiz-adv-x="587" 
d="M575 409h-117l-27 -160h115l-7 -42h-116l-34 -207h-54l38 207h-164l-37 -207h-52l37 207h-116l6 42h116l29 160h-117l7 40h118l33 195h50l-32 -195h164l32 195h52l-34 -195h117zM244 409l-28 -160h162l29 160h-163z" />
    <glyph glyph-name="dollar" unicode="$" horiz-adv-x="587" 
d="M315 -76v798h36v-75q78 -10 127 -52t49 -112q0 -6 -2 -14h-52q-1 45 -30.5 78.5t-91.5 44.5v-231q92 -23 139.5 -64t47.5 -116q0 -71 -48.5 -120t-138.5 -58v-79h-36zM279 722v-798h-35v77q-89 12 -142 59t-53 122q0 11 1 16h55q0 -120 139 -143v269q-89 19 -132 52
t-43 105q0 60 43 108t132 59v74h35zM481 176q0 51 -32 82t-98 47v-250q64 9 97 43t33 78zM128 483q0 -43 26.5 -65t89.5 -36v211q-59 -9 -87.5 -39.5t-28.5 -70.5z" />
    <glyph glyph-name="percent" unicode="%" horiz-adv-x="827" 
d="M225 -29h-54l422 734h55zM199 680q92 0 131.5 -56.5t39.5 -145.5q0 -85 -40 -140.5t-131 -55.5q-174 0 -174 195q0 95 42.5 149t131.5 54zM198 635q-119 0 -119 -158q0 -151 119 -151q55 0 86 38t31 114q0 157 -117 157zM633 393q171 0 171 -202q0 -39 -8.5 -72.5
t-27.5 -62t-53.5 -45t-81.5 -16.5q-174 0 -174 195q0 95 42.5 149t131.5 54zM632 349q-119 0 -119 -159q0 -150 119 -150q55 0 86 37.5t31 113.5q0 158 -117 158z" />
    <glyph glyph-name="ampersand" unicode="&#x26;" horiz-adv-x="730" 
d="M64 164q0 57 39.5 114t110.5 100q-76 87 -76 155q0 58 41 102t110 44q67 0 105 -37t38 -92q0 -98 -138 -186q109 -142 238 -251q47 41 71 96.5t24 109.5q0 106 -95 147q13 38 14 40q64 -16 101 -65.5t37 -117.5q0 -63 -28.5 -128t-83.5 -114q48 -40 103 -76l-30 -39
q-64 41 -117 81q-93 -59 -226 -59q-106 0 -172 42t-66 134zM303 37q106 0 184 44q-111 93 -241 256q-122 -74 -122 -168q0 -63 48.5 -97.5t130.5 -34.5zM288 629q-45 0 -66.5 -30.5t-21.5 -63.5q0 -22 10.5 -47.5t21 -40.5l31.5 -43q52 34 79 66.5t27 77.5q0 35 -22 58
t-59 23z" />
    <glyph glyph-name="quotesingle" unicode="'" horiz-adv-x="242" 
d="M146 448h-45l-11 219h65z" />
    <glyph glyph-name="parenleft" unicode="(" horiz-adv-x="295" 
d="M114 301q0 -203 151 -390l-32 -29q-81 83 -131 190.5t-50 222.5q0 118 50 226t131 193l34 -28q-153 -186 -153 -385z" />
    <glyph glyph-name="parenright" unicode=")" horiz-adv-x="295" 
d="M177 301q0 199 -153 385l34 28q81 -85 130.5 -193t49.5 -226q0 -115 -50 -222t-130 -191q-4 3 -10 8.5l-13.5 12t-9.5 8.5q152 186 152 390z" />
    <glyph glyph-name="asterisk" unicode="*" horiz-adv-x="443" 
d="M265 493l81 -100l-55 -39l-67 107l-65 -106l-55 37l79 101l-122 37l21 56l116 -48l-5 121h64l-7 -122l116 49l24 -56z" />
    <glyph glyph-name="plus" unicode="+" horiz-adv-x="587" 
d="M323 244v-161h-58v161h-167v50h167v172h58v-172h166v-50h-166z" />
    <glyph glyph-name="comma" unicode="," horiz-adv-x="229" 
d="M61 43q0 23 15 38.5t37 15.5q23 0 38.5 -14.5t15.5 -37.5q0 -15 -7 -30l-83 -170l-26 10l49 138q-17 4 -28 18t-11 32z" />
    <glyph glyph-name="hyphen" unicode="-" horiz-adv-x="468" 
d="M99 222v58h269v-58h-269z" />
    <glyph glyph-name="period" unicode="." horiz-adv-x="227" 
d="M61 43q0 23 15 38.5t37 15.5q23 0 38.5 -15.5t15.5 -38.5q0 -22 -16 -37.5t-38 -15.5t-37 15.5t-15 37.5z" />
    <glyph glyph-name="slash" unicode="/" horiz-adv-x="514" 
d="M63 -45h-59l447 762h58z" />
    <glyph glyph-name="zero" unicode="0" horiz-adv-x="587" 
d="M295 656q58 0 103 -18.5t74 -49.5t47 -75t25.5 -91.5t7.5 -103.5q0 -52 -7.5 -97.5t-26 -88t-47.5 -73t-74 -49t-103 -18.5q-141 0 -201 85t-60 240q0 158 64 248.5t198 90.5zM293 603q-199 0 -199 -286q0 -274 199 -274q92 0 145 69.5t53 205.5q0 133 -47.5 209
t-150.5 76z" />
    <glyph glyph-name="one" unicode="1" horiz-adv-x="587" 
d="M502 52v-52h-417v52h177v528l-152 -25v41l157 50h57v-594h178z" />
    <glyph glyph-name="two" unicode="2" horiz-adv-x="587" 
d="M292 657q112 0 165 -46.5t53 -119.5q0 -67 -50 -118t-131 -100q-111 -69 -139 -93q-63 -55 -64 -128h395v-52h-461v36q0 33 6 61t23 53t31.5 42t47 41t53.5 37.5l66 41.5l58 37t48 37.5t39.5 48.5t12.5 53q0 53 -38 83.5t-111 30.5q-77 0 -120.5 -37.5t-47.5 -104.5h-53
q-2 18 -2 24q0 79 64 125.5t155 47.5z" />
    <glyph glyph-name="three" unicode="3" horiz-adv-x="587" 
d="M277 44q85 0 135 41t50 120q0 142 -206 142q-25 0 -37 -1l-26 40l223 201l-3 5h-326v54h424v-47l-222 -201l2 -4q108 0 170.5 -48.5t62.5 -140.5q0 -97 -68 -155t-178 -58q-99 0 -160 40.5t-61 117.5q0 14 2 22h53q11 -128 165 -128z" />
    <glyph glyph-name="four" unicode="4" horiz-adv-x="587" 
d="M387 647h56v-429h108v-52h-108v-166h-61v166h-348v46zM113 223l2 -5h267v328l-6 1z" />
    <glyph glyph-name="five" unicode="5" horiz-adv-x="587" 
d="M526 206q0 -97 -67.5 -155.5t-177.5 -58.5q-98 0 -159 41t-61 117q0 14 2 22h53q10 -127 163 -127q85 0 135 41t50 120q0 82 -51 120.5t-135 38.5q-79 0 -140 -25l-41 24l43 282h352v-53h-299l-29 -191q55 16 114 16q110 0 179 -51t69 -161z" />
    <glyph glyph-name="six" unicode="6" horiz-adv-x="587" 
d="M309 605q-188 0 -192 -310l4 -2q22 52 74 84.5t113 32.5q100 0 158 -53t58 -153q0 -93 -60.5 -152.5t-167.5 -59.5q-122 2 -178.5 74.5t-56.5 226.5q0 55 6 102.5t22.5 97t43.5 84.5t72.5 57.5t105.5 22.5q82 0 136 -39.5t54 -102.5q0 -10 -1 -16h-53q-5 48 -38.5 77
t-99.5 29zM301 43q76 0 120 44.5t44 118.5q0 71 -41 112t-122 41q-70 0 -116 -46t-46 -114q0 -73 44 -114.5t117 -41.5z" />
    <glyph glyph-name="seven" unicode="7" horiz-adv-x="587" 
d="M218 0h-68l294 592h-377v53h448v-44z" />
    <glyph glyph-name="eight" unicode="8" horiz-adv-x="587" 
d="M392 351v-4q137 -44 137 -173q0 -76 -63.5 -129t-173.5 -53q-108 0 -171 48t-63 132q0 51 32 100.5t111 75.5v4q-47 14 -75 42t-35.5 51t-7.5 47q0 63 54.5 114t154.5 51q59 0 102 -15t65.5 -40.5t33 -52.5t10.5 -57q0 -36 -26.5 -77t-84.5 -64zM467 171q0 60 -44.5 102
t-127.5 52q-82 -13 -128 -54t-46 -101q0 -63 51 -95t120 -32q71 0 123 33t52 95zM292 604q-61 0 -103 -30t-42 -81q0 -87 148 -124q65 12 105.5 47t40.5 77q0 54 -41 82.5t-108 28.5z" />
    <glyph glyph-name="nine" unicode="9" horiz-adv-x="587" 
d="M274 44q106 0 150 78.5t46 229.5l-4 2q-21 -51 -71 -83t-109 -32q-101 0 -159 53t-58 153q0 94 59.5 153t164.5 59q114 0 174.5 -77.5t60.5 -230.5q0 -59 -6.5 -108t-23.5 -96.5t-45 -80t-74 -52.5t-107 -20q-84 0 -140 40t-56 102q0 10 1 16h53q5 -45 41.5 -75.5
t102.5 -30.5zM292 605q-75 0 -119 -43t-44 -119q0 -72 40 -112.5t121 -40.5q70 0 114.5 45.5t44.5 114.5q0 70 -43 112.5t-114 42.5z" />
    <glyph glyph-name="colon" unicode=":" horiz-adv-x="227" 
d="M61 43q0 23 15 38.5t37 15.5q23 0 38.5 -15.5t15.5 -38.5q0 -22 -16 -37.5t-38 -15.5t-37 15.5t-15 37.5zM61 357q0 23 15 38.5t37 15.5q23 0 38.5 -15.5t15.5 -38.5q0 -22 -16 -37.5t-38 -15.5t-37 15.5t-15 37.5z" />
    <glyph glyph-name="semicolon" unicode=";" horiz-adv-x="227" 
d="M61 357q0 23 15 38.5t37 15.5q23 0 38.5 -15.5t15.5 -38.5q0 -22 -16 -37.5t-38 -15.5t-37 15.5t-15 37.5zM61 43q0 23 15 38.5t37 15.5q23 0 38.5 -14.5t15.5 -37.5q0 -15 -7 -30l-83 -170l-26 10l49 138q-17 4 -28 18t-11 32z" />
    <glyph glyph-name="less" unicode="&#x3c;" horiz-adv-x="587" 
d="M95 247v45l398 189v-56l-329 -154l329 -154v-58z" />
    <glyph glyph-name="equal" unicode="=" horiz-adv-x="587" 
d="M489 317h-391v49h391v-49zM489 173h-391v48h391v-48z" />
    <glyph glyph-name="greater" unicode="&#x3e;" horiz-adv-x="587" 
d="M493 292v-45l-398 -188v57l329 155l-329 154v56z" />
    <glyph glyph-name="question" unicode="?" horiz-adv-x="528" 
d="M256 700q96 0 147 -42.5t51 -117.5q0 -79 -97 -166q-48 -45 -72.5 -85t-24.5 -99v-28h-63v17q0 126 97 214q94 85 94 145q0 49 -32.5 78.5t-98.5 29.5q-131 0 -141 -124h-54q-2 16 -2 20q0 79 56 118.5t140 39.5zM177 40q0 21 14.5 35.5t35.5 14.5q20 0 34.5 -14.5
t14.5 -35.5q0 -20 -14.5 -34.5t-34.5 -14.5q-21 0 -35.5 14.5t-14.5 34.5z" />
    <glyph glyph-name="at" unicode="@" horiz-adv-x="890" 
d="M428 525q156 0 156 -130v-164q0 -22 14 -35.5t39 -13.5q119 0 119 185q0 69 -26 124t-69.5 88.5t-96 50.5t-109.5 17q-139 0 -232.5 -91t-93.5 -232q0 -143 93.5 -233.5t240.5 -90.5q119 0 210 38q2 -6 8 -21l9 -23q-111 -43 -223 -43q-172 0 -283 101.5t-111 271.5
q0 155 108 261.5t273 106.5q157 0 256.5 -87t99.5 -238q0 -115 -46.5 -175t-127.5 -60q-30 0 -59.5 15t-38.5 48h-4q-46 -66 -143 -66q-59 0 -97 28t-38 84q0 64 52 97t135 33q45 0 86 -7v25q0 90 -102 90q-41 0 -65.5 -18t-27.5 -48h-50v8q0 56 44 80t100 24zM397 176
q64 0 98 34t34 75v33q-39 9 -85 9q-61 0 -95 -22.5t-34 -63.5q0 -28 21 -46.5t61 -18.5z" />
    <glyph glyph-name="A" unicode="A" horiz-adv-x="595" 
d="M518 0l-68 178h-309l-65 -178h-66l255 676h63l257 -676h-67zM299 598h-7q-19 -63 -60 -174l-72 -193h273l-72 188q-49 136 -62 179z" />
    <glyph glyph-name="B" unicode="B" horiz-adv-x="604" 
d="M430 356v-5q58 -16 90.5 -59t32.5 -102q0 -87 -56 -138.5t-164 -51.5h-268v675h269q93 0 145 -45t52 -128q0 -44 -25.5 -85.5t-75.5 -60.5zM327 619h-200v-240h205q59 0 97 32t38 86q0 60 -39 91t-101 31zM338 324h-211v-268h203q72 0 115 32.5t43 98.5q0 67 -42.5 102
t-107.5 35z" />
    <glyph glyph-name="C" unicode="C" horiz-adv-x="604" 
d="M335 -7q-151 0 -215.5 87t-64.5 252q0 163 68 256t212 93q95 0 161.5 -47.5t66.5 -133.5q0 -11 -1 -17h-57q-3 62 -46.5 102t-126.5 40q-214 0 -214 -293q0 -141 51.5 -212.5t163.5 -71.5q92 0 135.5 44t45.5 110h58q1 -6 1 -17q0 -88 -67 -140t-171 -52z" />
    <glyph glyph-name="D" unicode="D" horiz-adv-x="627" 
d="M127 57h119q36 0 69 6t70.5 25t64 48.5t44.5 81t18 118.5q0 68 -18 120.5t-45.5 82.5t-65 48.5t-70 25t-67.5 6.5h-119v-562zM65 0v674h192q60 0 114 -17.5t101 -55t75 -106t28 -161.5q0 -154 -88 -244t-229 -90h-193z" />
    <glyph glyph-name="E" unicode="E" horiz-adv-x="541" 
d="M65 0v674h428v-55h-366v-243h337v-57h-337v-261h378v-58h-440z" />
    <glyph glyph-name="F" unicode="F" horiz-adv-x="528" 
d="M68 0v674h439v-56h-377v-250h332v-57h-332v-311h-62z" />
    <glyph glyph-name="G" unicode="G" horiz-adv-x="650" 
d="M340 683q99 0 166.5 -47.5t67.5 -132.5q0 -11 -1 -18h-57q-2 62 -46 101.5t-132 39.5q-113 0 -166.5 -78.5t-53.5 -214.5q0 -287 219 -287q59 0 100.5 18t62.5 48t29.5 62t8.5 68v60h-173v54h233v-110q0 -115 -65 -184.5t-197 -69.5q-281 0 -281 340q0 162 70 256.5
t215 94.5z" />
    <glyph glyph-name="H" unicode="H" horiz-adv-x="650" 
d="M522 0v324h-395v-324h-62v675h62v-294h395v294h63v-675h-63z" />
    <glyph glyph-name="I" unicode="I" horiz-adv-x="232" 
d="M85 0v674h62v-674h-62z" />
    <glyph glyph-name="J" unicode="J" horiz-adv-x="540" 
d="M236 -7q-96 0 -156 43.5t-60 122.5q0 16 2 25h58q2 -134 157 -136q166 0 166 177v449h62v-463q0 -32 -6 -60.5t-21.5 -58t-40.5 -51t-66.5 -35t-94.5 -13.5z" />
    <glyph glyph-name="K" unicode="K" horiz-adv-x="546" 
d="M127 674v-298h109l230 298h73l-253 -324l262 -350h-79l-234 319h-108v-319h-62v674h62z" />
    <glyph glyph-name="L" unicode="L" horiz-adv-x="515" 
d="M65 0v674h64v-617h376v-57h-440z" />
    <glyph glyph-name="M" unicode="M" horiz-adv-x="785" 
d="M143 674l152 -309l94 -203h6l82 182l162 330h77v-674h-63v571h-4q-25 -58 -66 -141l-163 -331h-57l-143 285q-48 94 -87 186h-4v-570h-62v674h76z" />
    <glyph glyph-name="N" unicode="N" horiz-adv-x="655" 
d="M132 568q-1 -1 -5 -1v-567h-62v674h58l233 -326l166 -241h5v567h63v-674h-59l-252 352q-102 141 -147 216z" />
    <glyph glyph-name="O" unicode="O" horiz-adv-x="676" 
d="M341 681q280 0 280 -350q0 -69 -13.5 -126t-44.5 -106.5t-88.5 -77.5t-137.5 -28q-154 0 -218 87.5t-64 249.5q0 164 69 257.5t217 93.5zM340 624q-222 0 -222 -294q0 -282 218 -282q106 0 163 70.5t57 212.5q0 293 -216 293z" />
    <glyph glyph-name="P" unicode="P" horiz-adv-x="566" 
d="M325 247h-198v-247h-62v674h264q104 0 162.5 -61t58.5 -154q0 -37 -11 -71.5t-35.5 -67.5t-70.5 -53t-108 -20zM325 619h-198v-315h195q69 0 116.5 37.5t47.5 116.5q0 72 -44.5 116.5t-116.5 44.5z" />
    <glyph glyph-name="Q" unicode="Q" horiz-adv-x="670" 
d="M339 681q280 0 280 -349q0 -124 -45.5 -213t-149.5 -115q59 -28 170 -62l-22 -54q-146 48 -234 104q-156 0 -220.5 88t-64.5 251q0 164 69 257t217 93zM337 624q-221 0 -221 -294q0 -283 221 -283q103 0 160 71t57 213q0 293 -217 293z" />
    <glyph glyph-name="R" unicode="R" horiz-adv-x="574" 
d="M541 474q0 -33 -10 -64.5t-33 -61.5t-67.5 -49t-105.5 -21l211 -278h-76l-208 278h-125v-278h-62v674h254q107 0 164.5 -54t57.5 -146zM312 619h-185v-285h185q71 0 118 32t47 109q0 68 -46 106t-119 38z" />
    <glyph glyph-name="S" unicode="S" horiz-adv-x="613" 
d="M305 48q97 0 143.5 39t46.5 93q0 65 -44 99t-139 46q-44 5 -73 10.5t-63.5 17.5t-54.5 28.5t-34 45t-14 66.5q0 80 58 134.5t182 54.5q95 0 163.5 -45t68.5 -133q0 -6 -2 -20h-59q-1 60 -45.5 100t-128.5 40t-128.5 -35t-44.5 -87q0 -17 3 -30t12 -24l15.5 -18.5
t24.5 -14l28 -10t36.5 -8.5t39 -7l45.5 -7q107 -16 163.5 -61t56.5 -135q0 -81 -64 -138t-193 -57q-113 0 -182.5 49t-69.5 144q0 16 1 24h59q1 -70 47 -115.5t146 -45.5z" />
    <glyph glyph-name="T" unicode="T" horiz-adv-x="556" 
d="M311 619v-619h-62v619h-234v55h526v-55h-230z" />
    <glyph glyph-name="U" unicode="U" horiz-adv-x="653" 
d="M588 674v-406q0 -275 -257 -275q-146 0 -206 69.5t-60 206.5v405h62v-407q0 -121 51.5 -170t153.5 -49q194 0 194 220v406h62z" />
    <glyph glyph-name="V" unicode="V" horiz-adv-x="587" 
d="M329 0h-77l-240 674h66l125 -354q72 -205 85 -256h6q14 51 87 257l126 353h66z" />
    <glyph glyph-name="W" unicode="W" horiz-adv-x="874" 
d="M437 581h-4q-23 -93 -69 -249l-99 -332h-71l-184 674h68l91 -353l59 -241h5q39 148 70 250l101 344h63l84 -278q67 -224 90 -317h5q22 93 81 325l68 270h67l-182 -674h-70l-108 356q-56 185 -65 225z" />
    <glyph glyph-name="X" unicode="X" horiz-adv-x="553" 
d="M468 0l-193 304l-193 -304h-74l231 349l-212 325h72l176 -279l178 279h71l-213 -325l232 -349h-75z" />
    <glyph glyph-name="Y" unicode="Y" horiz-adv-x="545" 
d="M265 333h8q11 29 92 173l94 168h72l-232 -402v-272h-63v271l-226 403h71l94 -170q63 -114 90 -171z" />
    <glyph glyph-name="Z" unicode="Z" horiz-adv-x="558" 
d="M29 0v53l415 565h-395v57h470v-52l-413 -567h423v-56h-500z" />
    <glyph glyph-name="bracketleft" unicode="[" horiz-adv-x="293" 
d="M75 -119l-1 829h155v-49h-98v-731h98v-49h-154z" />
    <glyph glyph-name="backslash" unicode="\" horiz-adv-x="527" 
d="M512 -45h-59l-446 762h58z" />
    <glyph glyph-name="bracketright" unicode="]" horiz-adv-x="293" 
d="M221 710v-829h-155v49h97v731h-97v49h155z" />
    <glyph glyph-name="asciicircum" unicode="^" horiz-adv-x="587" 
d="M268 667h50l209 -416h-63l-172 345l-83.5 -170l-85.5 -175h-63z" />
    <glyph glyph-name="underscore" unicode="_" horiz-adv-x="511" 
d="M5 -99v49h500v-49h-500z" />
    <glyph glyph-name="grave" unicode="`" horiz-adv-x="533" 
d="M378 569l-33 -26l-137 138l56 43z" />
    <glyph glyph-name="a" unicode="a" horiz-adv-x="491" 
d="M242 489q190 0 190 -164v-325h-47q-11 20 -11 72h-4q-52 -80 -172 -80q-73 0 -118 34t-45 104q0 81 62.5 121t164.5 40q54 0 109 -9v34q0 122 -128 122q-55 0 -85.5 -24t-35.5 -63h-54q-1 5 -1 12q0 45 28.5 74.5t66 40.5t80.5 11zM203 41q83 0 126 44t43 100v47
q-52 12 -109 12q-78 0 -122.5 -30.5t-44.5 -84.5q0 -39 28 -63.5t79 -24.5z" />
    <glyph glyph-name="b" unicode="b" horiz-adv-x="533" 
d="M276 -8q-113 0 -156 77h-4q0 -49 -10 -69h-46v711h60v-215q0 -60 -8 -103l5 -1q21 42 64.5 69.5t101.5 27.5q200 0 200 -250q0 -111 -50.5 -179t-156.5 -68zM274 436q-78 0 -115.5 -53.5t-37.5 -120.5v-59q0 -71 39 -115t109 -44q153 0 153 196t-148 196z" />
    <glyph glyph-name="c" unicode="c" horiz-adv-x="483" 
d="M267 489q73 0 124 -34t51 -100q0 -6 -2 -16h-54q-2 44 -34.5 69.5t-86.5 25.5q-79 0 -116 -52.5t-37 -143.5q0 -99 37.5 -146t116.5 -47q61 0 94.5 30.5t35.5 80.5h53q2 -12 2 -16q0 -68 -51.5 -108t-131.5 -40q-112 0 -165 60.5t-53 181.5q0 116 52 185.5t165 69.5z" />
    <glyph glyph-name="d" unicode="d" horiz-adv-x="533" 
d="M251 -8q-201 0 -201 244q0 115 52.5 184t157.5 69q58 0 91.5 -19.5t57.5 -53.5h4v294h60v-710h-47q-10 21 -10 74h-4q-49 -82 -161 -82zM262 43q71 0 110.5 46t39.5 114v72q0 62 -36 111.5t-114 49.5q-76 0 -113.5 -54t-37.5 -146q0 -193 151 -193z" />
    <glyph glyph-name="e" unicode="e" horiz-adv-x="510" 
d="M262 436q-70 0 -106.5 -44t-41.5 -115h286q0 159 -138 159zM262 489q100 0 148 -57t48 -147q0 -31 -4 -55h-343q0 -186 156 -186q70 0 100.5 29.5t33.5 73.5h54q1 -5 1 -15q0 -67 -55 -103.5t-135 -36.5q-216 0 -216 246q0 111 52.5 181t159.5 70z" />
    <glyph glyph-name="f" unicode="f" horiz-adv-x="336" 
d="M171 481h151v-48h-151v-433h-61v433h-80v37l80 10v81q0 83 33.5 119t111.5 36q31 0 68 -7l-1 -48q-45 5 -64 5q-51 0 -69 -20.5t-18 -81.5v-83z" />
    <glyph glyph-name="g" unicode="g" horiz-adv-x="545" 
d="M435 435l-1 -5q50 -42 50 -118q0 -77 -56.5 -126.5t-154.5 -49.5q-65 0 -126 24q-29 -19 -29 -40q0 -14 13 -24t39.5 -16t49 -9.5t59 -7.5l53.5 -6q84 -12 126.5 -42t42.5 -84q0 -73 -67 -106t-176 -33q-213 0 -213 130q0 72 77 120q-65 21 -65 72q0 43 49 75
q-50 45 -50 121q0 77 55 128t159 51q56 0 87 -8h152v-34q-30 -9 -74 -12zM269 441q-76 0 -115 -36.5t-39 -93.5q0 -56 38 -91.5t118 -35.5q72 0 113 35t41 94q0 51 -37 89.5t-119 38.5zM297 12l-112 14q-80 -40 -80 -102q0 -38 39 -60.5t117 -22.5q178 0 178 89
q0 32 -29.5 51.5t-112.5 30.5z" />
    <glyph glyph-name="h" unicode="h" horiz-adv-x="526" 
d="M113 397h4q22 44 66.5 68t100.5 24q47 0 81 -12.5t53 -31t30.5 -48t14.5 -57t3 -63.5v-277h-61v276q0 78 -27 120.5t-106 42.5q-75 0 -113.5 -52t-38.5 -122v-265h-60v711h60v-213q0 -65 -7 -101z" />
    <glyph glyph-name="i" unicode="i" horiz-adv-x="237" 
d="M88 0v481h60v-481h-60zM76 630q0 17 12.5 29.5t30.5 12.5t30 -12.5t12 -29.5q0 -18 -12 -30t-30 -12t-30.5 12t-12.5 30z" />
    <glyph glyph-name="j" unicode="j" horiz-adv-x="232" 
d="M49 -200h-37v53h23q30 0 41 17t11 54v557h61v-558q0 -61 -22 -92t-77 -31zM75 630q0 17 12.5 29.5t30.5 12.5q17 0 29.5 -12.5t12.5 -29.5q0 -18 -12.5 -30t-29.5 -12q-18 0 -30.5 12t-12.5 30z" />
    <glyph glyph-name="k" unicode="k" horiz-adv-x="460" 
d="M373 481h69l-181 -217l193 -264h-73l-170 238h-91v-238h-60v711h60v-423h92z" />
    <glyph glyph-name="l" unicode="l" horiz-adv-x="218" 
d="M71 710h60v-628q0 -26 10 -32.5t43 -6.5v-45q-19 -5 -35 -5q-52 0 -65 20t-13 70v627z" />
    <glyph glyph-name="m" unicode="m" horiz-adv-x="840" 
d="M595 440q-72 0 -108.5 -50.5t-36.5 -120.5v-269h-61v270q0 38 -4.5 64.5t-16.5 52t-38 39t-65 13.5q-72 0 -108.5 -50t-36.5 -120v-269h-60v481h47q12 -22 12 -75h4q25 44 67.5 63.5t86.5 19.5q124 0 156 -97q56 98 174 98q45 0 78 -12t51 -30t28.5 -47.5t13.5 -56
t3 -63.5v-281h-62v273q0 38 -4.5 64.5t-16.5 52t-38 38t-65 12.5z" />
    <glyph glyph-name="n" unicode="n" horiz-adv-x="526" 
d="M286 490q46 0 79.5 -12t52.5 -31t30 -47.5t14.5 -55t3.5 -61.5v-283h-61v276q0 35 -4.5 60t-17 51t-40 39.5t-69.5 13.5q-72 0 -113 -51.5t-41 -119.5v-269h-60v481h46q13 -26 13 -75h4q27 43 73.5 63.5t89.5 20.5z" />
    <glyph glyph-name="o" unicode="o" horiz-adv-x="537" 
d="M270 489q60 0 104 -20.5t67.5 -57t34.5 -79t11 -93.5q0 -49 -11 -91t-35 -78.5t-67.5 -57t-103.5 -20.5q-220 0 -220 245q0 114 54.5 183t165.5 69zM270 434q-158 0 -158 -197q0 -96 38 -144t120 -48q154 0 154 194q0 195 -154 195z" />
    <glyph glyph-name="p" unicode="p" horiz-adv-x="533" 
d="M284 489q106 0 153 -67t47 -176q0 -115 -52.5 -184.5t-153.5 -69.5q-107 0 -153 71h-4v-265h-61v683h47q13 -26 13 -76h4q49 84 160 84zM272 437q-71 0 -110.5 -46t-39.5 -114v-74q0 -27 7.5 -53.5t23.5 -51t47 -39.5t72 -15q76 0 113 54t37 147q0 192 -150 192z" />
    <glyph glyph-name="q" unicode="q" horiz-adv-x="533" 
d="M50 240q0 109 51.5 179t153.5 70q112 0 159 -78h4q1 47 12 70h43v-683h-60v184q0 61 7 107l-3 1q-22 -42 -65 -70t-101 -28q-201 0 -201 248zM260 45q40 0 71 16.5t48 43t25.5 55.5t8.5 59v59q0 71 -39.5 115.5t-109.5 44.5q-152 0 -152 -201q0 -192 148 -192z" />
    <glyph glyph-name="r" unicode="r" horiz-adv-x="306" 
d="M127 0h-61v481h46q12 -33 12 -92h4q20 50 68 75.5t103 26.5l4 -60q-96 -4 -136 -45.5t-40 -120.5v-265z" />
    <glyph glyph-name="s" unicode="s" horiz-adv-x="464" 
d="M234 43q62 0 93.5 26t31.5 61q0 43 -29.5 63.5t-97.5 28.5q-33 4 -54 8t-47 13t-41 21.5t-25.5 34t-10.5 50.5q0 60 43 100t136 40q69 0 121 -30t52 -90q0 -10 -1 -15h-57q-4 38 -35 60.5t-83 22.5q-57 0 -86 -23t-29 -58q0 -42 30 -56t108 -26q84 -11 125.5 -42
t41.5 -97q0 -60 -48.5 -101.5t-143.5 -41.5q-77 0 -132.5 34.5t-55.5 103.5q0 5 2 19h56q3 -51 39 -78.5t97 -27.5z" />
    <glyph glyph-name="t" unicode="t" horiz-adv-x="343" 
d="M162 604v-123h144v-48h-144v-282q0 -63 25 -85.5t83 -22.5q23 0 58 5v-49q-40 -6 -76 -6q-82 0 -116.5 34.5t-34.5 127.5v278h-80v39l83 9l15 123h43z" />
    <glyph glyph-name="u" unicode="u" horiz-adv-x="516" 
d="M455 481v-481h-45q-12 20 -12 75h-4q-28 -44 -71.5 -63.5t-85.5 -19.5q-56 0 -93 16.5t-55 47t-24.5 62.5t-6.5 75v288h63v-279q0 -78 25.5 -119t102.5 -41q70 0 107.5 50.5t37.5 119.5v269h61z" />
    <glyph glyph-name="v" unicode="v" horiz-adv-x="455" 
d="M225 63h6q27 97 83 241l66 177h61l-182 -484h-66l-181 484h62l69 -183q57 -153 82 -235z" />
    <glyph glyph-name="w" unicode="w" horiz-adv-x="690" 
d="M346 395h-6q-14 -57 -31.5 -117.5t-48 -156.5t-38.5 -123h-66l-146 482h61l44 -148q50 -170 72 -262h7q32 132 74 261l48 149h57l50 -159l74 -252h6q14 66 31 130.5t45 157.5l37 123h61l-146 -482h-65q-72 220 -120 397z" />
    <glyph glyph-name="x" unicode="x" horiz-adv-x="436" 
d="M356 0l-138 205l-137 -205h-71l173 250l-161 231h71l125 -187q5 8 35 52.5l56 83t34 51.5h70l-160 -231l173 -250h-70z" />
    <glyph glyph-name="y" unicode="y" horiz-adv-x="437" 
d="M212 47h8q12 43 38 119.5l29 85.5l75 228h60l-179 -535q-13 -37 -22.5 -59t-27 -44.5t-43 -33t-61.5 -10.5h-56v50h48q39 0 60.5 15.5t34.5 55.5l27 79l-32 -2q-10 40 -61 187l-102 297h65q55 -170 67 -204q46 -131 72 -229z" />
    <glyph glyph-name="z" unicode="z" horiz-adv-x="431" 
d="M19 0v42l309 388h-286v51h359v-46l-308 -386h311v-49h-385z" />
    <glyph glyph-name="braceleft" unicode="{" horiz-adv-x="340" 
d="M137 286v-5q57 -25 57 -128v-165q0 -32 11.5 -46t36.5 -14h32v-48h-42q-42 0 -67.5 27t-25.5 74v168q0 55 -13 79.5t-53 35.5v38q39 9 52 34.5t13 81.5v185q0 103 86 103h50v-46h-33q-26 0 -36 -15.5t-10 -45.5v-186q0 -51 -12 -82t-46 -45z" />
    <glyph glyph-name="bar" unicode="|" horiz-adv-x="284" 
d="M111 -119v836h58v-836h-58z" />
    <glyph glyph-name="braceright" unicode="}" horiz-adv-x="340" 
d="M208 281v6q-33 14 -45 44.5t-12 81.5v186q0 61 -47 61h-33v46h51q85 0 85 -103v-185q0 -56 13 -81.5t52 -34.5v-38q-40 -11 -53 -35.5t-13 -79.5v-168q0 -47 -25 -74t-67 -27h-43v48h32q49 0 49 60v165q0 104 56 128z" />
    <glyph glyph-name="asciitilde" unicode="~" horiz-adv-x="587" 
d="M400 222q-43 0 -113.5 28.5t-91.5 28.5q-45 0 -91 -55l-34 24q19 42 51.5 64t71.5 22q34 0 109 -28.5t98 -28.5q49 0 87 53l39 -20q-18 -42 -52.5 -65t-73.5 -23z" />
    <glyph glyph-name="exclamdown" unicode="&#xa1;" horiz-adv-x="294" 
d="M125 309h49q2 -116 12 -515h-71q1 38 5 257.5t5 257.5zM100 436q0 20 14.5 34.5t35.5 14.5q20 0 34.5 -14.5t14.5 -34.5q0 -21 -14.5 -35.5t-34.5 -14.5q-21 0 -35.5 14.5t-14.5 35.5z" />
    <glyph glyph-name="cent" unicode="&#xa2;" horiz-adv-x="587" 
d="M286 568v131h36v-130q69 -3 115.5 -36.5t46.5 -99.5q0 -7 -1 -11h-54q-2 39 -30 64.5t-77 28.5v-385q57 3 86 32.5t30 76.5h54v-12q0 -67 -47 -107t-123 -43v-138h-36v138q-191 13 -191 239q0 108 46.5 176t144.5 76zM157 321q0 -90 31.5 -136t97.5 -54v383
q-129 -15 -129 -193z" />
    <glyph glyph-name="sterling" unicode="&#xa3;" horiz-adv-x="587" 
d="M319 603q-72 0 -111.5 -35.5t-39.5 -96.5q0 -53 23 -104h195v-47h-182q10 -50 10 -102q0 -91 -46 -166h345v-52h-449v52h38q53 82 53 169q0 39 -16 99h-75v47h65q-21 70 -21 112q0 77 55.5 127.5t150.5 50.5q91 0 146.5 -39t55.5 -100q0 -10 -1 -16h-52q-5 46 -41 73.5
t-103 27.5z" />
    <glyph glyph-name="currency" unicode="&#xa4;" horiz-adv-x="587" 
d="M104 286q0 58 36 112l-51 52l42 40l50 -52q54 38 111 38q61 0 113 -39l51 50l40 -39l-52 -53q36 -50 36 -109q0 -58 -36 -110l53 -51l-41 -41l-52 50q-54 -36 -112 -36q-56 0 -112 36l-47 -50l-42 41l50 48q-37 47 -37 113zM156 285q0 -55 40 -95t95 -40q57 0 96 39.5
t39 95.5q0 57 -39 97t-96 40q-56 0 -95.5 -40t-39.5 -97z" />
    <glyph glyph-name="yen" unicode="&#xa5;" horiz-adv-x="587" 
d="M518 269h-439v37h163l-196 340h69l90 -158q60 -106 88 -163h9q29 64 87 164l92 157h68l-200 -340h169v-37zM79 219h439v-38h-192v-181h-62v181h-185v38z" />
    <glyph glyph-name="brokenbar" unicode="&#xa6;" horiz-adv-x="338" 
d="M134 272h61v-390h-61v390zM195 343h-61v366h61v-366z" />
    <glyph glyph-name="section" unicode="&#xa7;" horiz-adv-x="534" 
d="M472 279q0 -42 -25.5 -77t-72.5 -52q87 -43 87 -121q0 -56 -49 -99.5t-153 -43.5q-75 0 -131 32t-56 99q0 7 1 9h58q6 -40 41 -64.5t90 -24.5q65 0 100.5 25.5t35.5 64.5q0 66 -128 100q-48 13 -78 24.5t-60 30.5t-44.5 46t-14.5 63q0 41 24 76t69 54q-78 37 -78 109
q0 59 44.5 103t144.5 44q72 0 124.5 -32t52.5 -99v-9h-56q-5 41 -37 65t-86 24q-63 0 -95 -26t-32 -66q0 -36 32.5 -56.5t96.5 -37.5q46 -12 76.5 -23.5t60 -30t44 -45.5t14.5 -62zM413 277q0 88 -173 117q-51 -8 -79.5 -36.5t-28.5 -62.5q0 -47 40.5 -73.5t117.5 -43.5
q58 4 90.5 32t32.5 67z" />
    <glyph glyph-name="dieresis" unicode="&#xa8;" horiz-adv-x="512" 
d="M138 606q0 16 11 27.5t27 11.5t27.5 -11.5t11.5 -27.5t-11.5 -27t-27.5 -11t-27 11t-11 27zM304 606q0 16 11 27.5t27 11.5t27.5 -11.5t11.5 -27.5t-11.5 -27t-27.5 -11t-27 11t-11 27z" />
    <glyph glyph-name="copyright" unicode="&#xa9;" horiz-adv-x="818" 
d="M411 103q-108 0 -155 59.5t-47 176.5q0 108 49 176t152 68q69 0 117.5 -34t48.5 -96q0 -10 -1 -16h-45q-2 45 -32 74t-91 29q-76 0 -111.5 -54.5t-35.5 -146.5q0 -99 35 -146t112 -47q66 0 97.5 32.5t32.5 78.5h45q1 -5 1 -14q0 -65 -50 -102.5t-122 -37.5zM409 -13
q-163 0 -260 102.5t-97 264.5q0 157 104 261t253 104q148 0 251.5 -104t103.5 -261t-104 -262t-251 -105zM409 672q-130 0 -219.5 -92.5t-89.5 -225.5q0 -140 87 -230.5t222 -90.5q128 0 218 93.5t90 227.5q0 133 -90 225.5t-218 92.5z" />
    <glyph glyph-name="ordfeminine" unicode="&#xaa;" horiz-adv-x="339" 
d="M248 333h-4q-45 -53 -109 -53q-51 0 -82.5 24t-31.5 71q0 54 44 81t114 27q33 0 69 -6v17q0 73 -83 73q-70 0 -78 -55h-43q-1 4 -1 11q0 44 36.5 65t84.5 21q133 0 133 -110v-213h-39q-9 14 -10 47zM139 322q53 0 81 27t28 61v28q-30 6 -69 6q-50 0 -79 -19t-29 -52
q0 -23 17.5 -37t50.5 -14z" />
    <glyph glyph-name="guillemotleft" unicode="&#xab;" horiz-adv-x="447" 
d="M230 18l-169 197v21l164 196q3 -2 34 -25l-131 -182l135 -179q-11 -10 -33 -28zM374 18l-168 197v21l164 196q11 -9 33 -25l-131 -182l136 -179z" />
    <glyph glyph-name="logicalnot" unicode="&#xac;" horiz-adv-x="587" 
d="M489 294v-211h-59v161h-332v50h391z" />
    <glyph glyph-name="sfthyphen" unicode="&#xad;" horiz-adv-x="468" 
d="M99 222v58h269v-58h-269z" />
    <glyph glyph-name="registered" unicode="&#xae;" horiz-adv-x="573" 
d="M515 462q0 -98 -69 -167t-168 -69q-105 0 -170 68t-65 168q0 98 69 167.5t166 69.5q102 0 169.5 -69t67.5 -168zM478 462q0 83 -59 143t-141 60q-85 0 -142 -59.5t-57 -143.5q0 -83 56.5 -142t142.5 -59q82 0 141 59.5t59 141.5zM320 451l62 -121h-41l-57 116h-52v-116
h-35v275h89q40 0 65 -20.5t25 -61.5q0 -57 -56 -72zM288 571h-56v-93h57q51 0 51 46q0 24 -15.5 35.5t-36.5 11.5z" />
    <glyph glyph-name="macron" unicode="&#xaf;" horiz-adv-x="512" 
d="M116 588v51h295v-51h-295z" />
    <glyph glyph-name="degree" unicode="&#xb0;" horiz-adv-x="420" 
d="M202 405q-56 0 -96 38.5t-40 92.5q0 55 39.5 92.5t96.5 37.5q56 0 96 -37.5t40 -92.5q0 -54 -40 -92.5t-96 -38.5zM201 623q-36 0 -63 -25.5t-27 -61.5q0 -35 27.5 -61.5t62.5 -26.5q36 0 62.5 26.5t26.5 61.5q0 36 -26.5 61.5t-62.5 25.5z" />
    <glyph glyph-name="plusminus" unicode="&#xb1;" horiz-adv-x="587" 
d="M323 249v-157h-58v157h-167v50h167v158h58v-158h166v-50h-166zM98 49h391v-49h-391v49z" />
    <glyph glyph-name="twosuperior" unicode="&#xb2;" horiz-adv-x="368" 
d="M185 770q72 0 107 -28.5t35 -74.5q0 -68 -117 -131q-83 -45 -103 -64q-21 -22 -23 -50h249v-46h-305v29q0 29 8.5 50.5t31 42t43.5 34t64 37.5q32 18 47.5 28t32.5 29t17 39q0 28 -21.5 44.5t-62.5 16.5q-47 0 -73 -22t-28 -60h-41q-3 12 -3 20q0 48 41 76.5t101 29.5z
" />
    <glyph glyph-name="threesuperior" unicode="&#xb3;" horiz-adv-x="365" 
d="M198 626l1 -4q60 -1 96.5 -33t36.5 -86q0 -59 -46 -94.5t-119 -35.5q-65 0 -105 26t-40 73q0 11 1 19h45q6 -74 98 -74q52 0 82.5 22t30.5 64q0 78 -114 78q-18 0 -39 -3q-7 10 -19 32l129 107q0 1 -0.5 2.5t-0.5 2.5h-195v43h280v-37z" />
    <glyph glyph-name="acute" unicode="&#xb4;" horiz-adv-x="512" 
d="M247 546l-32 27l118 149l54 -46z" />
    <glyph glyph-name="mu" unicode="&#xb5;" horiz-adv-x="518" 
d="M458 481v-481h-50q-10 19 -10 78h-4q-51 -86 -150 -86q-82 0 -124 44v-238h-61v683h62v-282q0 -73 27 -115t102 -42q70 0 108.5 50.5t38.5 119.5v269h61z" />
    <glyph glyph-name="mu" unicode="&#x3bc;" horiz-adv-x="518" 
d="M458 481v-481h-50q-10 19 -10 78h-4q-51 -86 -150 -86q-82 0 -124 44v-238h-61v683h62v-282q0 -73 27 -115t102 -42q70 0 108.5 50.5t38.5 119.5v269h61z" />
    <glyph glyph-name="paragraph" unicode="&#xb6;" horiz-adv-x="506" 
d="M329 333h-89q-79 0 -131 52.5t-52 129.5q0 75 52.5 128t130.5 53h89v-363zM433 696v-682q0 -159 -153 -159h-27v49q73 3 100 28.5t27 85.5v678h53z" />
    <glyph glyph-name="periodcentered" unicode="&#xb7;" horiz-adv-x="222" 
d="M58 260q0 23 15.5 39t37.5 16t38 -16t16 -39q0 -22 -16 -37.5t-38 -15.5t-37.5 15.5t-15.5 37.5z" />
    <glyph glyph-name="cedilla" unicode="&#xb8;" horiz-adv-x="494" 
d="M253 -211q-47 0 -93 17l11 34q42 -14 75 -14q28 0 46.5 12t18.5 34q0 23 -16 34t-41 11q-23 0 -38 -7l-21 15l49 92h44l-38 -65q61 0 88 -24t27 -54q0 -37 -28.5 -60.5t-83.5 -24.5z" />
    <glyph glyph-name="onesuperior" unicode="&#xb9;" horiz-adv-x="361" 
d="M320 421v-45h-281v45h113v289l-97 -13v38l105 30h45v-344h115z" />
    <glyph glyph-name="ordmasculine" unicode="&#xba;" horiz-adv-x="363" 
d="M182 610q80 0 115 -47t35 -118q0 -70 -35 -116.5t-115 -46.5q-151 0 -151 161q0 76 37.5 121.5t113.5 45.5zM182 565q-101 0 -101 -122q0 -117 101 -117q47 0 73 30.5t26 88.5q0 120 -99 120z" />
    <glyph glyph-name="guillemotright" unicode="&#xbb;" horiz-adv-x="447" 
d="M408 215l-168 -197q-4 3 -34 28l136 179l-131 182q22 16 33 25l164 -196v-21zM264 215l-168 -197l-34 28l135 179l-130 182q22 16 33 25l164 -196v-21z" />
    <glyph glyph-name="onequarter" unicode="&#xbc;" horiz-adv-x="827" 
d="M259 -29h-54l422 734h55zM331 331v-45h-281v45h113v289l-97 -13v38l105 30h45v-344h115zM664 389h44v-249h69v-45h-69v-95h-55v95h-220v37zM505 140h148v168z" />
    <glyph glyph-name="onehalf" unicode="&#xbd;" horiz-adv-x="827" 
d="M226 -29h-54l422 734h55zM320 331v-45h-281v45h113v289l-97 -13v38l105 30h45v-344h115zM639 393q72 0 107.5 -28.5t35.5 -73.5q0 -69 -119 -132q-82 -45 -100 -62q-24 -22 -26 -51h250v-46h-304v28q0 55 32 86.5t114 77.5q32 18 47.5 28t32.5 29t17 39q0 61 -85 61
q-46 0 -72 -21.5t-28 -60.5h-42q-2 8 -2 20q0 49 41 77.5t101 28.5z" />
    <glyph glyph-name="threequarters" unicode="&#xbe;" horiz-adv-x="827" 
d="M253 -29h-54l422 734h55zM227 536l1 -4q60 -1 96.5 -33t36.5 -86q0 -59 -46 -94.5t-119 -35.5q-65 0 -105 26t-40 73q0 11 1 19h45q6 -74 98 -74q52 0 82.5 22t30.5 64q0 78 -114 78q-18 0 -39 -3q-7 10 -19 32l129 107q0 1 -0.5 2.5t-0.5 2.5h-195v43h280v-37zM674 389
h44v-249h69v-45h-69v-95h-55v95h-220v37zM515 140h148v168z" />
    <glyph glyph-name="questiondown" unicode="&#xbf;" horiz-adv-x="479" 
d="M254 -220q-97 0 -147.5 42.5t-50.5 118.5q0 77 96 166q48 44 73 84t25 100v27h63v-16q0 -126 -97 -214q-95 -86 -95 -145q0 -50 32.5 -79t99.5 -29q129 0 141 123h54q1 -7 1 -20q0 -78 -55.5 -118t-139.5 -40zM333 440q0 -21 -14.5 -35t-35.5 -14q-20 0 -34.5 14
t-14.5 35q0 20 14.5 34.5t34.5 14.5q21 0 35.5 -14.5t14.5 -34.5z" />
    <glyph glyph-name="Agrave" unicode="&#xc0;" horiz-adv-x="595" 
d="M518 0l-68 178h-309l-65 -178h-66l255 676h63l257 -676h-67zM299 598h-7q-19 -63 -60 -174l-72 -193h273l-72 188q-49 136 -62 179zM330 758l-23 -33l-170 89l45 56z" />
    <glyph glyph-name="Aacute" unicode="&#xc1;" horiz-adv-x="595" 
d="M518 0l-68 178h-309l-65 -178h-66l255 676h63l257 -676h-67zM299 598h-7q-19 -63 -60 -174l-72 -193h273l-72 188q-49 136 -62 179zM293 727l-24 33l149 112l44 -56z" />
    <glyph glyph-name="Acircumflex" unicode="&#xc2;" horiz-adv-x="595" 
d="M518 0l-68 178h-309l-65 -178h-66l255 676h63l257 -676h-67zM299 598h-7q-19 -63 -60 -174l-72 -193h273l-72 188q-49 136 -62 179zM423 721l-128 96l-131 -96q-26 26 -27 28l135 123h49l131 -123z" />
    <glyph glyph-name="Atilde" unicode="&#xc3;" horiz-adv-x="595" 
d="M518 0l-68 178h-309l-65 -178h-66l255 676h63l257 -676h-67zM299 598h-7q-19 -63 -60 -174l-72 -193h273l-72 188q-49 136 -62 179zM360 759q-24 0 -70 18t-64 18q-33 0 -65 -40l-31 23q13 33 40 51.5t56 18.5q23 0 66 -18t64 -18q36 0 66 39l32 -22q-12 -34 -38.5 -52
t-55.5 -18z" />
    <glyph glyph-name="Adieresis" unicode="&#xc4;" horiz-adv-x="595" 
d="M518 0l-68 178h-309l-65 -178h-66l255 676h63l257 -676h-67zM299 598h-7q-19 -63 -60 -174l-72 -193h273l-72 188q-49 136 -62 179zM174 792q0 16 11 27.5t27 11.5t27.5 -11.5t11.5 -27.5q0 -15 -11.5 -26.5t-27.5 -11.5t-27 11.5t-11 26.5zM340 792q0 16 11 27.5
t28 11.5q16 0 27.5 -11.5t11.5 -27.5q0 -15 -11.5 -26.5t-27.5 -11.5t-27.5 11.5t-11.5 26.5z" />
    <glyph glyph-name="Aring" unicode="&#xc5;" horiz-adv-x="595" 
d="M518 0l-68 178h-309l-65 -178h-66l255 676h63l257 -676h-67zM299 598h-7q-19 -63 -60 -174l-72 -193h273l-72 188q-49 136 -62 179zM294 703q-42 0 -70.5 29t-28.5 70t28.5 69.5t70.5 28.5q43 0 72.5 -28.5t29.5 -69.5q0 -42 -30 -70.5t-72 -28.5zM294 862
q-24 0 -40.5 -18t-16.5 -42q0 -25 16 -43t41 -18q27 0 43.5 18t16.5 43q0 24 -16.5 42t-43.5 18z" />
    <glyph glyph-name="AE" unicode="&#xc6;" horiz-adv-x="945" 
d="M477 229h-251l-150 -229h-69l443 674h462v-50h-370v-258h337v-51h-337v-266h379v-49h-444v229zM477 611q-1 0 -4 1l-212 -331h216v330z" />
    <glyph glyph-name="Ccedilla" unicode="&#xc7;" horiz-adv-x="604" 
d="M329 -211q-47 0 -93 17l11 34q42 -14 75 -14q28 0 46.5 12t18.5 34q0 23 -16 34t-41 11q-23 0 -38 -7l-21 15l36 69q-136 8 -194 94.5t-58 243.5q0 163 68 256t212 93q95 0 161.5 -47.5t66.5 -133.5q0 -11 -1 -17h-57q-3 62 -46.5 102t-126.5 40q-214 0 -214 -293
q0 -141 51.5 -212.5t163.5 -71.5q92 0 135.5 44t45.5 110h58q1 -6 1 -17q0 -85 -62.5 -136.5t-161.5 -55.5q-13 -22 -23 -41q61 0 88 -24t27 -54q0 -37 -28.5 -60.5t-83.5 -24.5z" />
    <glyph glyph-name="Egrave" unicode="&#xc8;" horiz-adv-x="541" 
d="M65 0v674h428v-55h-366v-243h337v-57h-337v-261h378v-58h-440zM345 758l-23 -33l-170 89l45 56z" />
    <glyph glyph-name="Eacute" unicode="&#xc9;" horiz-adv-x="539" 
d="M67 0v674h428v-55h-366v-243h337v-57h-337v-261h378v-58h-440zM265 727l-24 33l149 112l44 -56z" />
    <glyph glyph-name="Ecircumflex" unicode="&#xca;" horiz-adv-x="541" 
d="M65 0v674h428v-55h-366v-243h337v-57h-337v-261h378v-58h-440zM405 726l-128 96l-131 -96q-26 26 -27 28l135 123h49l131 -123z" />
    <glyph glyph-name="Edieresis" unicode="&#xcb;" horiz-adv-x="541" 
d="M65 0v674h428v-55h-366v-243h337v-57h-337v-261h378v-58h-440zM162 792q0 16 11 27.5t27 11.5t27.5 -11.5t11.5 -27.5q0 -15 -11.5 -26.5t-27.5 -11.5t-27 11.5t-11 26.5zM328 792q0 16 11 27.5t28 11.5q16 0 27.5 -11.5t11.5 -27.5q0 -15 -11.5 -26.5t-27.5 -11.5
t-27.5 11.5t-11.5 26.5z" />
    <glyph glyph-name="Igrave" unicode="&#xcc;" horiz-adv-x="232" 
d="M85 0v674h62v-674h-62zM154 758l-23 -33l-170 89l45 56z" />
    <glyph glyph-name="Iacute" unicode="&#xcd;" horiz-adv-x="232" 
d="M85 0v674h62v-674h-62zM106 727l-24 33l149 112l44 -56z" />
    <glyph glyph-name="Icircumflex" unicode="&#xce;" horiz-adv-x="232" 
d="M85 0v674h62v-674h-62zM243 726l-128 96l-131 -96q-26 26 -27 28l135 123h49l131 -123z" />
    <glyph glyph-name="Idieresis" unicode="&#xcf;" horiz-adv-x="232" 
d="M85 0v674h62v-674h-62zM-8 792q0 16 11 27.5t27 11.5t27.5 -11.5t11.5 -27.5q0 -15 -11.5 -26.5t-27.5 -11.5t-27 11.5t-11 26.5zM158 792q0 16 11 27.5t28 11.5q16 0 27.5 -11.5t11.5 -27.5q0 -15 -11.5 -26.5t-27.5 -11.5t-27.5 11.5t-11.5 26.5z" />
    <glyph glyph-name="Eth" unicode="&#xd0;" horiz-adv-x="627" 
d="M65 370v304h192q60 0 114 -17.5t101 -55t75 -106t28 -161.5q0 -154 -88 -244t-229 -90h-193v325h-62v45h62zM127 57h119q36 0 69 6t70.5 25t64 48.5t44.5 81t18 118.5q0 68 -18 120.5t-45.5 82.5t-65 48.5t-70 25t-67.5 6.5h-119v-249h211v-45h-211v-268z" />
    <glyph glyph-name="Ntilde" unicode="&#xd1;" horiz-adv-x="655" 
d="M132 568q-1 -1 -5 -1v-567h-62v674h58l233 -326l166 -241h5v567h63v-674h-59l-252 352q-102 141 -147 216zM396 744q-24 0 -69.5 18t-64.5 18q-33 0 -65 -40l-31 23q13 33 40 51.5t56 18.5q23 0 66 -18t64 -18q36 0 66 39l32 -22q-12 -34 -38.5 -52t-55.5 -18z" />
    <glyph glyph-name="Ograve" unicode="&#xd2;" horiz-adv-x="676" 
d="M341 681q280 0 280 -350q0 -69 -13.5 -126t-44.5 -106.5t-88.5 -77.5t-137.5 -28q-154 0 -218 87.5t-64 249.5q0 164 69 257.5t217 93.5zM340 624q-222 0 -222 -294q0 -282 218 -282q106 0 163 70.5t57 212.5q0 293 -216 293zM386 758l-23 -33l-170 89l45 56z" />
    <glyph glyph-name="Oacute" unicode="&#xd3;" horiz-adv-x="676" 
d="M341 681q280 0 280 -350q0 -69 -13.5 -126t-44.5 -106.5t-88.5 -77.5t-137.5 -28q-154 0 -218 87.5t-64 249.5q0 164 69 257.5t217 93.5zM340 624q-222 0 -222 -294q0 -282 218 -282q106 0 163 70.5t57 212.5q0 293 -216 293zM301 727l-24 33l149 112l44 -56z" />
    <glyph glyph-name="Ocircumflex" unicode="&#xd4;" horiz-adv-x="676" 
d="M341 681q280 0 280 -350q0 -69 -13.5 -126t-44.5 -106.5t-88.5 -77.5t-137.5 -28q-154 0 -218 87.5t-64 249.5q0 164 69 257.5t217 93.5zM340 624q-222 0 -222 -294q0 -282 218 -282q106 0 163 70.5t57 212.5q0 293 -216 293zM462 726l-128 96l-131 -96q-26 26 -27 28
l135 123h49l131 -123z" />
    <glyph glyph-name="Otilde" unicode="&#xd5;" horiz-adv-x="676" 
d="M341 681q280 0 280 -350q0 -69 -13.5 -126t-44.5 -106.5t-88.5 -77.5t-137.5 -28q-154 0 -218 87.5t-64 249.5q0 164 69 257.5t217 93.5zM340 624q-222 0 -222 -294q0 -282 218 -282q106 0 163 70.5t57 212.5q0 293 -216 293zM406 759q-24 0 -70 18t-64 18q-33 0 -65 -40
l-31 23q13 33 40 51.5t56 18.5q23 0 66 -18t64 -18q36 0 66 39l32 -22q-12 -34 -38.5 -52t-55.5 -18z" />
    <glyph glyph-name="Odieresis" unicode="&#xd6;" horiz-adv-x="676" 
d="M341 681q280 0 280 -350q0 -69 -13.5 -126t-44.5 -106.5t-88.5 -77.5t-137.5 -28q-154 0 -218 87.5t-64 249.5q0 164 69 257.5t217 93.5zM340 624q-222 0 -222 -294q0 -282 218 -282q106 0 163 70.5t57 212.5q0 293 -216 293zM213 792q0 16 11 27.5t27 11.5
q17 0 28 -11.5t11 -27.5q0 -15 -11.5 -26.5t-27.5 -11.5t-27 11.5t-11 26.5zM379 792q0 16 11.5 27.5t27.5 11.5t27.5 -11.5t11.5 -27.5q0 -15 -11.5 -26.5t-27.5 -11.5t-27.5 11.5t-11.5 26.5z" />
    <glyph glyph-name="multiply" unicode="&#xd7;" horiz-adv-x="587" 
d="M116 135l136 136l-136 135l13 13.5t15 15l13 12.5l136 -135l136 135l41 -41l-136 -135l136 -136l-41 -41l-136 136l-136 -136l-13 13l-15.5 15.5z" />
    <glyph glyph-name="Oslash" unicode="&#xd8;" horiz-adv-x="676" 
d="M341 681q119 0 189 -65l53 69l36 -29l-59 -74q61 -88 61 -251q0 -69 -13.5 -126t-44.5 -106.5t-88.5 -77.5t-137.5 -28q-127 0 -195 62l-53 -69l-36 29l59 74q-57 82 -57 241q0 164 69 257.5t217 93.5zM556 331q0 126 -40 197l-333 -423q51 -57 153 -57q106 0 163 70.5
t57 212.5zM340 624q-222 0 -222 -294q0 -122 38 -186l333 422q-52 58 -149 58z" />
    <glyph glyph-name="Ugrave" unicode="&#xd9;" horiz-adv-x="653" 
d="M588 674v-406q0 -275 -257 -275q-146 0 -206 69.5t-60 206.5v405h62v-407q0 -121 51.5 -170t153.5 -49q194 0 194 220v406h62zM395 758l-23 -33l-170 89l45 56z" />
    <glyph glyph-name="Uacute" unicode="&#xda;" horiz-adv-x="653" 
d="M588 674v-406q0 -275 -257 -275q-146 0 -206 69.5t-60 206.5v405h62v-407q0 -121 51.5 -170t153.5 -49q194 0 194 220v406h62zM295 727l-24 33l149 112l44 -56z" />
    <glyph glyph-name="Ucircumflex" unicode="&#xdb;" horiz-adv-x="653" 
d="M588 674v-406q0 -275 -257 -275q-146 0 -206 69.5t-60 206.5v405h62v-407q0 -121 51.5 -170t153.5 -49q194 0 194 220v406h62zM456 726l-128 96l-131 -96q-26 26 -27 28l135 123h49l131 -123z" />
    <glyph glyph-name="Udieresis" unicode="&#xdc;" horiz-adv-x="653" 
d="M588 674v-406q0 -275 -257 -275q-146 0 -206 69.5t-60 206.5v405h62v-407q0 -121 51.5 -170t153.5 -49q194 0 194 220v406h62zM208 792q0 16 11 27.5t27 11.5t27.5 -11.5t11.5 -27.5q0 -15 -11.5 -26.5t-27.5 -11.5t-27 11.5t-11 26.5zM374 792q0 16 11 27.5t28 11.5
q16 0 27.5 -11.5t11.5 -27.5q0 -15 -11.5 -26.5t-27.5 -11.5t-27.5 11.5t-11.5 26.5z" />
    <glyph glyph-name="Yacute" unicode="&#xdd;" horiz-adv-x="545" 
d="M265 333h8q11 29 92 173l94 168h72l-232 -402v-272h-63v271l-226 403h71l94 -170q63 -114 90 -171zM246 720l-24 33l149 112l44 -56z" />
    <glyph glyph-name="Thorn" unicode="&#xde;" horiz-adv-x="574" 
d="M327 133h-197v-133h-62v674h61v-125h198q105 0 164.5 -59t59.5 -151q0 -37 -11 -71t-35 -65.5t-70 -50.5t-108 -19zM323 501h-194v-318h194q70 0 117.5 36.5t47.5 120.5q0 74 -46 117.5t-119 43.5z" />
    <glyph glyph-name="germandbls" unicode="&#xdf;" horiz-adv-x="535" 
d="M363 424v-4q61 -14 93 -69t32 -131q0 -93 -52.5 -160t-156.5 -67q-31 0 -54 5l13 46q15 -4 39 -4q68 0 109.5 48.5t41.5 133.5q0 94 -43 131.5t-114 39.5v46q56 2 85 34t29 76q0 59 -35 89t-94 30q-131 0 -131 -180v-488h-61v503q0 96 48.5 154.5t144.5 58.5
q90 0 138.5 -45t48.5 -123q0 -29 -20 -68t-61 -56z" />
    <glyph glyph-name="agrave" unicode="&#xe0;" horiz-adv-x="491" 
d="M242 489q190 0 190 -164v-325h-47q-11 20 -11 72h-4q-52 -80 -172 -80q-73 0 -118 34t-45 104q0 81 62.5 121t164.5 40q54 0 109 -9v34q0 122 -128 122q-55 0 -85.5 -24t-35.5 -63h-54q-1 5 -1 12q0 45 28.5 74.5t66 40.5t80.5 11zM203 41q83 0 126 44t43 100v47
q-52 12 -109 12q-78 0 -122.5 -30.5t-44.5 -84.5q0 -39 28 -63.5t79 -24.5zM313 569l-33 -26l-137 138l56 43z" />
    <glyph glyph-name="aacute" unicode="&#xe1;" horiz-adv-x="491" 
d="M242 489q190 0 190 -164v-325h-47q-11 20 -11 72h-4q-52 -80 -172 -80q-73 0 -118 34t-45 104q0 81 62.5 121t164.5 40q54 0 109 -9v34q0 122 -128 122q-55 0 -85.5 -24t-35.5 -63h-54q-1 5 -1 12q0 45 28.5 74.5t66 40.5t80.5 11zM203 41q83 0 126 44t43 100v47
q-52 12 -109 12q-78 0 -122.5 -30.5t-44.5 -84.5q0 -39 28 -63.5t79 -24.5zM233 546l-32 27l118 149l54 -46z" />
    <glyph glyph-name="acircumflex" unicode="&#xe2;" horiz-adv-x="491" 
d="M242 489q190 0 190 -164v-325h-47q-11 20 -11 72h-4q-52 -80 -172 -80q-73 0 -118 34t-45 104q0 81 62.5 121t164.5 40q54 0 109 -9v34q0 122 -128 122q-55 0 -85.5 -24t-35.5 -63h-54q-1 5 -1 12q0 45 28.5 74.5t66 40.5t80.5 11zM203 41q83 0 126 44t43 100v47
q-52 12 -109 12q-78 0 -122.5 -30.5t-44.5 -84.5q0 -39 28 -63.5t79 -24.5zM374 545l-128 105l-131 -105l-27 27q10 9 67.5 66.5t67.5 66.5h49q10 -9 66 -66.5l65 -66.5z" />
    <glyph glyph-name="atilde" unicode="&#xe3;" horiz-adv-x="491" 
d="M242 489q190 0 190 -164v-325h-47q-11 20 -11 72h-4q-52 -80 -172 -80q-73 0 -118 34t-45 104q0 81 62.5 121t164.5 40q54 0 109 -9v34q0 122 -128 122q-55 0 -85.5 -24t-35.5 -63h-54q-1 5 -1 12q0 45 28.5 74.5t66 40.5t80.5 11zM203 41q83 0 126 44t43 100v47
q-52 12 -109 12q-78 0 -122.5 -30.5t-44.5 -84.5q0 -39 28 -63.5t79 -24.5zM314 576q-24 0 -70 18t-64 18q-33 0 -65 -40l-31 23q13 33 40 51.5t56 18.5q23 0 66 -18t64 -18q36 0 66 39l32 -22q-12 -34 -38.5 -52t-55.5 -18z" />
    <glyph glyph-name="adieresis" unicode="&#xe4;" horiz-adv-x="491" 
d="M242 489q190 0 190 -164v-325h-47q-11 20 -11 72h-4q-52 -80 -172 -80q-73 0 -118 34t-45 104q0 81 62.5 121t164.5 40q54 0 109 -9v34q0 122 -128 122q-55 0 -85.5 -24t-35.5 -63h-54q-1 5 -1 12q0 45 28.5 74.5t66 40.5t80.5 11zM203 41q83 0 126 44t43 100v47
q-52 12 -109 12q-78 0 -122.5 -30.5t-44.5 -84.5q0 -39 28 -63.5t79 -24.5zM125 606q0 16 11 27.5t27 11.5t27.5 -11.5t11.5 -27.5t-11.5 -27t-27.5 -11t-27 11t-11 27zM291 606q0 16 11 27.5t27 11.5t27.5 -11.5t11.5 -27.5t-11.5 -27t-27.5 -11t-27 11t-11 27z" />
    <glyph glyph-name="aring" unicode="&#xe5;" horiz-adv-x="491" 
d="M242 489q190 0 190 -164v-325h-47q-11 20 -11 72h-4q-52 -80 -172 -80q-73 0 -118 34t-45 104q0 81 62.5 121t164.5 40q54 0 109 -9v34q0 122 -128 122q-55 0 -85.5 -24t-35.5 -63h-54q-1 5 -1 12q0 45 28.5 74.5t66 40.5t80.5 11zM203 41q83 0 126 44t43 100v47
q-52 12 -109 12q-78 0 -122.5 -30.5t-44.5 -84.5q0 -39 28 -63.5t79 -24.5zM245 541q-42 0 -70.5 29t-28.5 70t28.5 69.5t70.5 28.5q43 0 72.5 -28.5t29.5 -69.5q0 -42 -30 -70.5t-72 -28.5zM245 700q-24 0 -40.5 -18t-16.5 -42q0 -25 16 -43t41 -18q27 0 43.5 18t16.5 43
q0 24 -16.5 42t-43.5 18z" />
    <glyph glyph-name="ae" unicode="&#xe6;" horiz-adv-x="842" 
d="M596 44q129 0 137 103h53q1 -6 1 -16q0 -66 -55.5 -102.5t-136.5 -36.5q-139 0 -185 98q-77 -98 -213 -98q-72 0 -117 34.5t-45 102.5q0 73 54 111t147 38h141v35q0 51 -30 87t-103 36q-56 0 -87 -23.5t-36 -63.5h-55q0 3 -0.5 7t-0.5 5q0 65 55 95t125 30q138 0 175 -92
q51 94 172 94q100 0 149.5 -55.5t49.5 -149.5q0 -26 -3 -53h-346q0 -186 154 -186zM206 40q51 0 91.5 17.5t57 34t36.5 41.5q-11 46 -11 96h-136q-146 0 -146 -100q0 -39 28 -64t80 -25zM591 435q-70 0 -105.5 -43.5t-40.5 -114.5h285q0 158 -139 158z" />
    <glyph glyph-name="ccedilla" unicode="&#xe7;" horiz-adv-x="485" 
d="M247 -211q-47 0 -92 17q4 15 11 34q41 -14 75 -14q28 0 46.5 12t18.5 34q0 21 -17 33t-41 12q-21 0 -38 -7l-20 15l37 71q-177 17 -177 237q0 116 51.5 185.5t164.5 69.5q74 0 124.5 -33.5t50.5 -99.5q0 -12 -1 -16h-54q-2 43 -35 69t-86 26q-79 0 -116.5 -52.5
t-37.5 -143.5q0 -99 38 -146.5t116 -47.5q62 0 95 30.5t35 81.5h54q1 -7 1 -17q0 -67 -51 -106t-132 -41l-23 -40q61 0 88 -24.5t27 -53.5q0 -37 -29 -60.5t-83 -24.5z" />
    <glyph glyph-name="egrave" unicode="&#xe8;" horiz-adv-x="513" 
d="M262 436q-70 0 -106.5 -44t-41.5 -115h286q0 159 -138 159zM262 489q100 0 148 -57t48 -147q0 -31 -4 -55h-343q0 -186 156 -186q70 0 100.5 29.5t33.5 73.5h54q1 -5 1 -15q0 -67 -55 -103.5t-135 -36.5q-216 0 -216 246q0 111 52.5 181t159.5 70zM322 569l-33 -26
l-137 138l56 43z" />
    <glyph glyph-name="eacute" unicode="&#xe9;" horiz-adv-x="513" 
d="M262 436q-70 0 -106.5 -44t-41.5 -115h286q0 159 -138 159zM262 489q100 0 148 -57t48 -147q0 -31 -4 -55h-343q0 -186 156 -186q70 0 100.5 29.5t33.5 73.5h54q1 -5 1 -15q0 -67 -55 -103.5t-135 -36.5q-216 0 -216 246q0 111 52.5 181t159.5 70zM248 546l-32 27
l118 149l54 -46z" />
    <glyph glyph-name="ecircumflex" unicode="&#xea;" horiz-adv-x="513" 
d="M262 436q-70 0 -106.5 -44t-41.5 -115h286q0 159 -138 159zM262 489q100 0 148 -57t48 -147q0 -31 -4 -55h-343q0 -186 156 -186q70 0 100.5 29.5t33.5 73.5h54q1 -5 1 -15q0 -67 -55 -103.5t-135 -36.5q-216 0 -216 246q0 111 52.5 181t159.5 70zM394 545l-128 105
l-131 -105l-27 27q10 9 67 66.5t68 66.5h49l65.5 -66.5l65.5 -66.5z" />
    <glyph glyph-name="edieresis" unicode="&#xeb;" horiz-adv-x="513" 
d="M262 436q-70 0 -106.5 -44t-41.5 -115h286q0 159 -138 159zM262 489q100 0 148 -57t48 -147q0 -31 -4 -55h-343q0 -186 156 -186q70 0 100.5 29.5t33.5 73.5h54q1 -5 1 -15q0 -67 -55 -103.5t-135 -36.5q-216 0 -216 246q0 111 52.5 181t159.5 70zM144 606q0 16 11 27.5
t27 11.5t27.5 -11.5t11.5 -27.5t-11.5 -27t-27.5 -11t-27 11t-11 27zM310 606q0 16 11 27.5t27 11.5t27.5 -11.5t11.5 -27.5t-11.5 -27t-27.5 -11t-27 11t-11 27z" />
    <glyph glyph-name="igrave" unicode="&#xec;" horiz-adv-x="237" 
d="M158 569l-33 -26l-137 138l56 43zM88 0v481h60v-481h-60z" />
    <glyph glyph-name="iacute" unicode="&#xed;" horiz-adv-x="237" 
d="M109 546l-32 27l118 149l54 -46zM88 0v481h60v-481h-60z" />
    <glyph glyph-name="icircumflex" unicode="&#xee;" horiz-adv-x="237" 
d="M88 0v481h60v-481h-60zM246 545l-128 105l-131 -105l-27 27q10 9 67 66.5t68 66.5h49q10 -9 65.5 -66.5t65.5 -66.5z" />
    <glyph glyph-name="idieresis" unicode="&#xef;" horiz-adv-x="237" 
d="M-4 606q0 16 11 27.5t27 11.5t27.5 -11.5t11.5 -27.5t-11.5 -27t-27.5 -11t-27 11t-11 27zM162 606q0 16 11 27.5t27 11.5t27.5 -11.5t11.5 -27.5t-11.5 -27t-27.5 -11t-27 11t-11 27zM88 0v481h60v-481h-60z" />
    <glyph glyph-name="eth" unicode="&#xf0;" horiz-adv-x="534" 
d="M265 -7q-215 0 -215 235q0 105 53.5 174t157.5 69q56 0 103.5 -28.5t63.5 -77.5h4q-2 127 -57 212l-78 -56l-10 13t-10 14l41 31t33 24q-54 59 -144 70q2 7 5 22.5t5 23.5q111 -10 178 -84l69 50q1 -2 9.5 -13t13.5 -16l-69 -49q41 -58 54 -132.5t13 -179.5
q0 -302 -220 -302zM265 419q-81 0 -119.5 -53.5t-38.5 -137.5q0 -186 158 -186q73 0 113 48t40 139q0 84 -37 137t-116 53z" />
    <glyph glyph-name="ntilde" unicode="&#xf1;" horiz-adv-x="526" 
d="M286 490q46 0 79.5 -12t52.5 -31t30 -47.5t14.5 -55t3.5 -61.5v-283h-61v276q0 35 -4.5 60t-17 51t-40 39.5t-69.5 13.5q-72 0 -113 -51.5t-41 -119.5v-269h-60v481h46q13 -26 13 -75h4q27 43 73.5 63.5t89.5 20.5zM321 574q-25 0 -70 18t-64 18q-33 0 -65 -40l-31 23
q13 33 40 51.5t56 18.5q23 0 66 -18t64 -18q36 0 66 39l32 -22q-12 -34 -38.5 -52t-55.5 -18z" />
    <glyph glyph-name="ograve" unicode="&#xf2;" horiz-adv-x="537" 
d="M270 489q60 0 104 -20.5t67.5 -57t34.5 -79t11 -93.5q0 -49 -11 -91t-35 -78.5t-67.5 -57t-103.5 -20.5q-220 0 -220 245q0 114 54.5 183t165.5 69zM270 434q-158 0 -158 -197q0 -96 38 -144t120 -48q154 0 154 194q0 195 -154 195zM325 569l-33 -26l-137 138l56 43z" />
    <glyph glyph-name="oacute" unicode="&#xf3;" horiz-adv-x="537" 
d="M270 489q60 0 104 -20.5t67.5 -57t34.5 -79t11 -93.5q0 -49 -11 -91t-35 -78.5t-67.5 -57t-103.5 -20.5q-220 0 -220 245q0 114 54.5 183t165.5 69zM270 434q-158 0 -158 -197q0 -96 38 -144t120 -48q154 0 154 194q0 195 -154 195zM267 546l-32 27l118 149l54 -46z" />
    <glyph glyph-name="ocircumflex" unicode="&#xf4;" horiz-adv-x="537" 
d="M270 489q60 0 104 -20.5t67.5 -57t34.5 -79t11 -93.5q0 -49 -11 -91t-35 -78.5t-67.5 -57t-103.5 -20.5q-220 0 -220 245q0 114 54.5 183t165.5 69zM270 434q-158 0 -158 -197q0 -96 38 -144t120 -48q154 0 154 194q0 195 -154 195zM401 545l-128 105l-131 -105l-27 27
q10 9 67 66.5t68 66.5h49l65.5 -66.5l65.5 -66.5z" />
    <glyph glyph-name="otilde" unicode="&#xf5;" horiz-adv-x="537" 
d="M270 489q60 0 104 -20.5t67.5 -57t34.5 -79t11 -93.5q0 -49 -11 -91t-35 -78.5t-67.5 -57t-103.5 -20.5q-220 0 -220 245q0 114 54.5 183t165.5 69zM270 434q-158 0 -158 -197q0 -96 38 -144t120 -48q154 0 154 194q0 195 -154 195zM333 574q-25 0 -70 18t-64 18
q-33 0 -65 -40l-31 23q13 33 40 51.5t56 18.5q23 0 66 -18t64 -18q36 0 66 39l32 -22q-12 -34 -38.5 -52t-55.5 -18z" />
    <glyph glyph-name="odieresis" unicode="&#xf6;" horiz-adv-x="537" 
d="M270 489q60 0 104 -20.5t67.5 -57t34.5 -79t11 -93.5q0 -49 -11 -91t-35 -78.5t-67.5 -57t-103.5 -20.5q-220 0 -220 245q0 114 54.5 183t165.5 69zM270 434q-158 0 -158 -197q0 -96 38 -144t120 -48q154 0 154 194q0 195 -154 195zM150 606q0 16 11 27.5t27 11.5
t27.5 -11.5t11.5 -27.5t-11.5 -27t-27.5 -11t-27 11t-11 27zM316 606q0 16 11 27.5t27 11.5t27.5 -11.5t11.5 -27.5t-11.5 -27t-27.5 -11t-27 11t-11 27z" />
    <glyph glyph-name="divide" unicode="&#xf7;" horiz-adv-x="587" 
d="M489 237h-391v52h391v-52zM250 407q0 20 14 34t34 14t34 -14t14 -34t-14 -33.5t-34 -13.5t-34 14t-14 33zM250 112q0 20 14 34t34 14t34 -14t14 -34q0 -19 -14 -33t-34 -14q-19 0 -33.5 14t-14.5 33z" />
    <glyph glyph-name="oslash" unicode="&#xf8;" horiz-adv-x="537" 
d="M270 489q94 0 150 -53l47 52l30 -26l-51 -57q41 -65 41 -166q0 -49 -11 -91t-35 -78.5t-67.5 -57t-103.5 -20.5q-100 0 -154 49l-44 -47l-29 26l47 52q-40 60 -40 165q0 114 54.5 183t165.5 69zM270 434q-158 0 -158 -197q0 -74 22 -118l245 273q-37 42 -109 42zM424 239
q0 73 -23 118l-245 -272q39 -40 114 -40q154 0 154 194z" />
    <glyph glyph-name="ugrave" unicode="&#xf9;" horiz-adv-x="516" 
d="M455 481v-481h-45q-12 20 -12 75h-4q-28 -44 -71.5 -63.5t-85.5 -19.5q-56 0 -93 16.5t-55 47t-24.5 62.5t-6.5 75v288h63v-279q0 -78 25.5 -119t102.5 -41q70 0 107.5 50.5t37.5 119.5v269h61zM310 569l-33 -26l-137 138l56 43z" />
    <glyph glyph-name="uacute" unicode="&#xfa;" horiz-adv-x="516" 
d="M455 481v-481h-45q-12 20 -12 75h-4q-28 -44 -71.5 -63.5t-85.5 -19.5q-56 0 -93 16.5t-55 47t-24.5 62.5t-6.5 75v288h63v-279q0 -78 25.5 -119t102.5 -41q70 0 107.5 50.5t37.5 119.5v269h61zM247 546l-32 27l118 149l54 -46z" />
    <glyph glyph-name="ucircumflex" unicode="&#xfb;" horiz-adv-x="516" 
d="M455 481v-481h-45q-12 20 -12 75h-4q-28 -44 -71.5 -63.5t-85.5 -19.5q-56 0 -93 16.5t-55 47t-24.5 62.5t-6.5 75v288h63v-279q0 -78 25.5 -119t102.5 -41q70 0 107.5 50.5t37.5 119.5v269h61zM389 545l-128 105l-131 -105l-27 27q10 9 67.5 66.5t67.5 66.5h49l65 -66.5
t66 -66.5z" />
    <glyph glyph-name="udieresis" unicode="&#xfc;" horiz-adv-x="516" 
d="M455 481v-481h-45q-12 20 -12 75h-4q-28 -44 -71.5 -63.5t-85.5 -19.5q-56 0 -93 16.5t-55 47t-24.5 62.5t-6.5 75v288h63v-279q0 -78 25.5 -119t102.5 -41q70 0 107.5 50.5t37.5 119.5v269h61zM137 606q0 16 11 27.5t27 11.5t27.5 -11.5t11.5 -27.5t-11.5 -27t-27.5 -11
t-27 11t-11 27zM303 606q0 16 11 27.5t27 11.5t27.5 -11.5t11.5 -27.5t-11.5 -27t-27.5 -11t-27 11t-11 27z" />
    <glyph glyph-name="yacute" unicode="&#xfd;" horiz-adv-x="437" 
d="M212 47h8q12 43 38 119.5l29 85.5l75 228h60l-179 -535q-13 -37 -22.5 -59t-27 -44.5t-43 -33t-61.5 -10.5h-56v50h48q39 0 60.5 15.5t34.5 55.5l27 79l-32 -2q-10 40 -61 187l-102 297h65q55 -170 67 -204q46 -131 72 -229zM213 543l-32 27l118 149l54 -46z" />
    <glyph glyph-name="thorn" unicode="&#xfe;" horiz-adv-x="533" 
d="M281 489q107 0 154.5 -68t47.5 -177q0 -115 -53.5 -183.5t-155.5 -68.5q-107 0 -149 73h-5v-270h-60v916h59v-164q0 -90 -4 -137h4q26 41 70 60t92 19zM271 437q-71 0 -110.5 -45.5t-39.5 -113.5v-61q0 -46 13 -83.5t48.5 -64.5t89.5 -27q150 0 150 203q0 192 -151 192z
" />
    <glyph glyph-name="ydieresis" unicode="&#xff;" horiz-adv-x="437" 
d="M212 47h8q12 43 38 119.5l29 85.5l75 228h60l-179 -535q-13 -37 -22.5 -59t-27 -44.5t-43 -33t-61.5 -10.5h-56v50h48q39 0 60.5 15.5t34.5 55.5l27 79l-32 -2q-10 40 -61 187l-102 297h65q55 -170 67 -204q46 -131 72 -229zM97 605q0 16 11 27.5t27 11.5t27.5 -11.5
t11.5 -27.5t-11.5 -27t-27.5 -11t-27 11t-11 27zM263 605q0 16 11 27.5t27 11.5t27.5 -11.5t11.5 -27.5t-11.5 -27t-27.5 -11t-27 11t-11 27z" />
    <glyph glyph-name="Amacron" unicode="&#x100;" horiz-adv-x="595" 
d="M518 0l-68 178h-309l-65 -178h-66l255 676h63l257 -676h-67zM299 598h-7q-19 -63 -60 -174l-72 -193h273l-72 188q-49 136 -62 179zM148 761v53h294v-53h-294z" />
    <glyph glyph-name="amacron" unicode="&#x101;" horiz-adv-x="491" 
d="M242 489q190 0 190 -164v-325h-47q-11 20 -11 72h-4q-52 -80 -172 -80q-73 0 -118 34t-45 104q0 81 62.5 121t164.5 40q54 0 109 -9v34q0 122 -128 122q-55 0 -85.5 -24t-35.5 -63h-54q-1 5 -1 12q0 45 28.5 74.5t66 40.5t80.5 11zM203 41q83 0 126 44t43 100v47
q-52 12 -109 12q-78 0 -122.5 -30.5t-44.5 -84.5q0 -39 28 -63.5t79 -24.5zM91 588v51h295v-51h-295z" />
    <glyph glyph-name="Abreve" unicode="&#x102;" horiz-adv-x="595" 
d="M518 0l-68 178h-309l-65 -178h-66l255 676h63l257 -676h-67zM299 598h-7q-19 -63 -60 -174l-72 -193h273l-72 188q-49 136 -62 179zM296 729q-73 0 -111 48.5t-41 103.5h49q3 -39 28 -70t76 -31q49 0 74.5 31.5t28.5 69.5h48q-3 -55 -41.5 -103.5t-110.5 -48.5z" />
    <glyph glyph-name="abreve" unicode="&#x103;" horiz-adv-x="491" 
d="M242 489q190 0 190 -164v-325h-47q-11 20 -11 72h-4q-52 -80 -172 -80q-73 0 -118 34t-45 104q0 81 62.5 121t164.5 40q54 0 109 -9v34q0 122 -128 122q-55 0 -85.5 -24t-35.5 -63h-54q-1 5 -1 12q0 45 28.5 74.5t66 40.5t80.5 11zM203 41q83 0 126 44t43 100v47
q-52 12 -109 12q-78 0 -122.5 -30.5t-44.5 -84.5q0 -39 28 -63.5t79 -24.5zM250 548q-73 0 -111 46.5t-41 100.5h50q2 -38 26.5 -67t76.5 -29q50 0 75 29.5t28 66.5h48q-3 -55 -41 -101t-111 -46z" />
    <glyph glyph-name="Aogonek" unicode="&#x104;" horiz-adv-x="595" 
d="M430 -137q0 76 84 143l-64 172h-309l-66 -178h-65l254 675h63l258 -675h-44q-56 -59 -56 -117q0 -50 63 -50q34 0 72 11l7 -26q-48 -25 -102 -25q-45 0 -70 19t-25 51zM298 598h-6q-23 -76 -54 -161l-45.5 -119.5l-33.5 -86.5h273l-79 208q-11 27 -28.5 81.5t-26.5 77.5z
" />
    <glyph glyph-name="aogonek" unicode="&#x105;" horiz-adv-x="491" 
d="M242 489q190 0 190 -164v-325h-27q-56 -60 -56 -117q0 -50 64 -50q30 0 72 12q0 -4 1 -8.5t2.5 -10t2.5 -8.5q-50 -25 -102 -25q-45 0 -69.5 19t-24.5 52q0 32 20.5 70.5t65.5 72.5q-7 21 -7 65h-4q-52 -80 -172 -80q-72 0 -117.5 34t-45.5 103q0 82 62.5 122t164.5 40
q54 0 109 -9v34q0 122 -128 122q-55 0 -85.5 -24t-35.5 -63h-54q-1 5 -1 12q0 45 28.5 74.5t66 40.5t80.5 11zM203 41q83 0 126 44t43 100v47q-52 12 -109 12q-78 0 -122.5 -30.5t-44.5 -84.5q0 -39 28 -63.5t79 -24.5z" />
    <glyph glyph-name="Cacute" unicode="&#x106;" horiz-adv-x="604" 
d="M335 -7q-151 0 -215.5 87t-64.5 252q0 163 68 256t212 93q95 0 161.5 -47.5t66.5 -133.5q0 -11 -1 -17h-57q-3 62 -46.5 102t-126.5 40q-214 0 -214 -293q0 -141 51.5 -212.5t163.5 -71.5q92 0 135.5 44t45.5 110h58q1 -6 1 -17q0 -88 -67 -140t-171 -52zM297 727l-24 33
l149 112l44 -56z" />
    <glyph glyph-name="cacute" unicode="&#x107;" horiz-adv-x="485" 
d="M267 489q73 0 124 -34t51 -100q0 -6 -2 -16h-54q-2 44 -34.5 69.5t-86.5 25.5q-79 0 -116 -52.5t-37 -143.5q0 -99 37.5 -146t116.5 -47q61 0 94.5 30.5t35.5 80.5h53q2 -12 2 -16q0 -68 -51.5 -108t-131.5 -40q-112 0 -165 60.5t-53 181.5q0 116 52 185.5t165 69.5z
M243 546l-32 27l118 149l54 -46z" />
    <glyph glyph-name="Ccircumflex" unicode="&#x108;" horiz-adv-x="604" 
d="M335 -7q-151 0 -215.5 87t-64.5 252q0 163 68 256t212 93q95 0 161.5 -47.5t66.5 -133.5q0 -11 -1 -17h-57q-3 62 -46.5 102t-126.5 40q-214 0 -214 -293q0 -141 51.5 -212.5t163.5 -71.5q92 0 135.5 44t45.5 110h58q1 -6 1 -17q0 -88 -67 -140t-171 -52zM461 726
l-128 96l-131 -96q-26 26 -27 28l135 123h49l131 -123z" />
    <glyph glyph-name="ccircumflex" unicode="&#x109;" horiz-adv-x="485" 
d="M267 489q73 0 124 -34t51 -100q0 -6 -2 -16h-54q-2 44 -34.5 69.5t-86.5 25.5q-79 0 -116 -52.5t-37 -143.5q0 -99 37.5 -146t116.5 -47q61 0 94.5 30.5t35.5 80.5h53q2 -12 2 -16q0 -68 -51.5 -108t-131.5 -40q-112 0 -165 60.5t-53 181.5q0 116 52 185.5t165 69.5z
M385 545l-128 105l-131 -105l-27 27q10 9 67 66.5t68 66.5h49q10 -9 65.5 -66.5t65.5 -66.5z" />
    <glyph glyph-name="Cdotaccent" unicode="&#x10a;" horiz-adv-x="604" 
d="M335 -7q-151 0 -215.5 87t-64.5 252q0 163 68 256t212 93q95 0 161.5 -47.5t66.5 -133.5q0 -11 -1 -17h-57q-3 62 -46.5 102t-126.5 40q-214 0 -214 -293q0 -141 51.5 -212.5t163.5 -71.5q92 0 135.5 44t45.5 110h58q1 -6 1 -17q0 -88 -67 -140t-171 -52zM293 786
q0 18 12.5 31t30.5 13t30.5 -13t12.5 -31t-12.5 -30.5t-30.5 -12.5t-30.5 12.5t-12.5 30.5z" />
    <glyph glyph-name="cdotaccent" unicode="&#x10b;" horiz-adv-x="485" 
d="M267 489q73 0 124 -34t51 -100q0 -6 -2 -16h-54q-2 44 -34.5 69.5t-86.5 25.5q-79 0 -116 -52.5t-37 -143.5q0 -99 37.5 -146t116.5 -47q61 0 94.5 30.5t35.5 80.5h53q2 -12 2 -16q0 -68 -51.5 -108t-131.5 -40q-112 0 -165 60.5t-53 181.5q0 116 52 185.5t165 69.5z
M216 616q0 18 12.5 31t30.5 13t30.5 -13t12.5 -31t-12.5 -30.5t-30.5 -12.5t-30.5 12.5t-12.5 30.5z" />
    <glyph glyph-name="Ccaron" unicode="&#x10c;" horiz-adv-x="604" 
d="M335 -7q-151 0 -215.5 87t-64.5 252q0 163 68 256t212 93q95 0 161.5 -47.5t66.5 -133.5q0 -11 -1 -17h-57q-3 62 -46.5 102t-126.5 40q-214 0 -214 -293q0 -141 51.5 -212.5t163.5 -71.5q92 0 135.5 44t45.5 110h58q1 -6 1 -17q0 -88 -67 -140t-171 -52zM327 781l128 96
l29 -28l-130 -123h-50l-135 123q1 2 27 28z" />
    <glyph glyph-name="ccaron" unicode="&#x10d;" horiz-adv-x="485" 
d="M267 489q73 0 124 -34t51 -100q0 -6 -2 -16h-54q-2 44 -34.5 69.5t-86.5 25.5q-79 0 -116 -52.5t-37 -143.5q0 -99 37.5 -146t116.5 -47q61 0 94.5 30.5t35.5 80.5h53q2 -12 2 -16q0 -68 -51.5 -108t-131.5 -40q-112 0 -165 60.5t-53 181.5q0 116 52 185.5t165 69.5z
M261 603l127 101l30 -26l-131 -130h-50q-10 9 -67.5 65t-67.5 65q2 1 14.5 13.5t12.5 13.5z" />
    <glyph glyph-name="Dcaron" unicode="&#x10e;" horiz-adv-x="627" 
d="M127 57h119q36 0 69 6t70.5 25t64 48.5t44.5 81t18 118.5q0 68 -18 120.5t-45.5 82.5t-65 48.5t-70 25t-67.5 6.5h-119v-562zM65 0v674h192q60 0 114 -17.5t101 -55t75 -106t28 -161.5q0 -154 -88 -244t-229 -90h-193zM277 781l128 96l29 -28l-130 -123h-50l-135 123
q1 2 27 28z" />
    <glyph glyph-name="dcaron" unicode="&#x10f;" horiz-adv-x="638" 
d="M251 -8q-201 0 -201 244q0 115 52.5 184t157.5 69q58 0 91.5 -19.5t57.5 -53.5h4v294h60v-710h-47q-10 21 -10 74h-4q-49 -82 -161 -82zM262 43q71 0 110.5 46t39.5 114v72q0 62 -36 111.5t-114 49.5q-76 0 -113.5 -54t-37.5 -146q0 -193 151 -193zM538 671q0 20 13.5 34
t32.5 14q21 0 34 -13t13 -33q0 -15 -5 -26l-62 -126l-23 8l32 99q-15 3 -25 15t-10 28z" />
    <glyph glyph-name="Dcroat" unicode="&#x110;" horiz-adv-x="627" 
d="M65 370v304h192q60 0 114 -17.5t101 -55t75 -106t28 -161.5q0 -154 -88 -244t-229 -90h-193v325h-62v45h62zM127 57h119q36 0 69 6t70.5 25t64 48.5t44.5 81t18 118.5q0 68 -18 120.5t-45.5 82.5t-65 48.5t-70 25t-67.5 6.5h-119v-249h211v-45h-211v-268z" />
    <glyph glyph-name="dcroat" unicode="&#x111;" horiz-adv-x="533" 
d="M251 -8q-201 0 -201 241q0 115 52.5 183t157.5 68q97 0 149 -74h4v163h-166v42h166v95h60v-95h60v-42h-60v-573h-47q-10 21 -10 74h-4q-49 -82 -161 -82zM262 43q71 0 110.5 46t39.5 114v70q0 61 -36.5 109.5t-113.5 48.5q-75 0 -113 -53t-38 -144q0 -98 37 -144.5
t114 -46.5z" />
    <glyph glyph-name="Emacron" unicode="&#x112;" horiz-adv-x="541" 
d="M65 0v674h428v-55h-366v-243h337v-57h-337v-261h378v-58h-440zM133 766v53h294v-53h-294z" />
    <glyph glyph-name="emacron" unicode="&#x113;" horiz-adv-x="513" 
d="M262 436q-70 0 -106.5 -44t-41.5 -115h286q0 159 -138 159zM262 489q100 0 148 -57t48 -147q0 -31 -4 -55h-343q0 -186 156 -186q70 0 100.5 29.5t33.5 73.5h54q1 -5 1 -15q0 -67 -55 -103.5t-135 -36.5q-216 0 -216 246q0 111 52.5 181t159.5 70zM116 588v51h295v-51
h-295z" />
    <glyph glyph-name="Ebreve" unicode="&#x114;" horiz-adv-x="541" 
d="M65 0v674h428v-55h-366v-243h337v-57h-337v-261h378v-58h-440zM282 729q-73 0 -111 48.5t-41 103.5h49q3 -39 28 -70t76 -31q49 0 74.5 31.5t28.5 69.5h48q-3 -55 -41.5 -103.5t-110.5 -48.5z" />
    <glyph glyph-name="ebreve" unicode="&#x115;" horiz-adv-x="513" 
d="M262 436q-70 0 -106.5 -44t-41.5 -115h286q0 159 -138 159zM262 489q100 0 148 -57t48 -147q0 -31 -4 -55h-343q0 -186 156 -186q70 0 100.5 29.5t33.5 73.5h54q1 -5 1 -15q0 -67 -55 -103.5t-135 -36.5q-216 0 -216 246q0 111 52.5 181t159.5 70zM264 548
q-73 0 -111 46.5t-41 100.5h50q2 -38 26.5 -67t76.5 -29q50 0 75 29.5t28 66.5h48q-3 -55 -41 -101t-111 -46z" />
    <glyph glyph-name="Edotaccent" unicode="&#x116;" horiz-adv-x="541" 
d="M65 0v674h428v-55h-366v-243h337v-57h-337v-261h378v-58h-440zM243 786q0 18 12.5 31t30.5 13t30.5 -13t12.5 -31t-12.5 -30.5t-30.5 -12.5t-30.5 12.5t-12.5 30.5z" />
    <glyph glyph-name="edotaccent" unicode="&#x117;" horiz-adv-x="513" 
d="M262 436q-70 0 -106.5 -44t-41.5 -115h286q0 159 -138 159zM262 489q100 0 148 -57t48 -147q0 -31 -4 -55h-343q0 -186 156 -186q70 0 100.5 29.5t33.5 73.5h54q1 -5 1 -15q0 -67 -55 -103.5t-135 -36.5q-216 0 -216 246q0 111 52.5 181t159.5 70zM224 616q0 18 12.5 31
t30.5 13t30.5 -13t12.5 -31t-12.5 -30.5t-30.5 -12.5t-30.5 12.5t-12.5 30.5z" />
    <glyph glyph-name="Eogonek" unicode="&#x118;" horiz-adv-x="541" 
d="M65 0v674h428v-55h-366v-236h337v-57h-337v-268h378v-58h-26q-62 -63 -62 -125q0 -50 63 -50q30 0 72 12l7 -27q-52 -25 -102 -25q-46 0 -70.5 19t-24.5 52q0 76 85 144h-382z" />
    <glyph glyph-name="eogonek" unicode="&#x119;" horiz-adv-x="513" 
d="M262 489q100 0 148 -57t48 -147q0 -31 -4 -55h-343q0 -186 156 -186q70 0 100.5 29.5t33.5 73.5h54q1 -5 1 -15q0 -76 -74 -116q-50 -56 -50 -109q0 -51 63 -51q30 0 72 12l7 -27q-48 -24 -102 -24q-45 0 -69.5 19t-24.5 51q0 55 49 111q-30 -6 -61 -6q-216 0 -216 246
q0 111 52.5 181t159.5 70zM262 436q-70 0 -106.5 -44t-41.5 -115h286q0 159 -138 159z" />
    <glyph glyph-name="Ecaron" unicode="&#x11a;" horiz-adv-x="541" 
d="M65 0v674h428v-55h-366v-243h337v-57h-337v-261h378v-58h-440zM285 781l128 96l29 -28l-130 -123h-50l-135 123q1 2 27 28z" />
    <glyph glyph-name="ecaron" unicode="&#x11b;" horiz-adv-x="513" 
d="M262 489q100 0 148 -57t48 -147q0 -31 -4 -55h-343q0 -186 156 -186q70 0 100.5 29.5t33.5 73.5h54q1 -5 1 -15q0 -67 -55 -103.5t-135 -36.5q-216 0 -216 246q0 111 52.5 181t159.5 70zM262 436q-70 0 -106.5 -44t-41.5 -115h286q0 159 -138 159zM259 603l127 101
l30 -26l-131 -130h-50q-10 9 -67.5 65t-67.5 65q2 1 14.5 13.5t12.5 13.5z" />
    <glyph glyph-name="Gcircumflex" unicode="&#x11c;" horiz-adv-x="650" 
d="M340 683q99 0 166.5 -47.5t67.5 -132.5q0 -11 -1 -18h-57q-2 62 -46 101.5t-132 39.5q-113 0 -166.5 -78.5t-53.5 -214.5q0 -287 219 -287q59 0 100.5 18t62.5 48t29.5 62t8.5 68v60h-173v54h233v-110q0 -115 -65 -184.5t-197 -69.5q-281 0 -281 340q0 162 70 256.5
t215 94.5zM462 726l-128 96l-131 -96q-26 26 -27 28l135 123h49l131 -123z" />
    <glyph glyph-name="gcircumflex" unicode="&#x11d;" horiz-adv-x="545" 
d="M435 435l-1 -5q50 -42 50 -118q0 -77 -56.5 -126.5t-154.5 -49.5q-65 0 -126 24q-29 -19 -29 -40q0 -14 13 -24t39.5 -16t49 -9.5t59 -7.5l53.5 -6q84 -12 126.5 -42t42.5 -84q0 -73 -67 -106t-176 -33q-213 0 -213 130q0 72 77 120q-65 21 -65 72q0 43 49 75
q-50 45 -50 121q0 77 55 128t159 51q56 0 87 -8h152v-34q-30 -9 -74 -12zM269 441q-76 0 -115 -36.5t-39 -93.5q0 -56 38 -91.5t118 -35.5q72 0 113 35t41 94q0 51 -37 89.5t-119 38.5zM297 12l-112 14q-80 -40 -80 -102q0 -38 39 -60.5t117 -22.5q178 0 178 89
q0 32 -29.5 51.5t-112.5 30.5zM402 545l-128 105l-131 -105l-27 27q10 9 67 66.5t68 66.5h49l65.5 -66.5l65.5 -66.5z" />
    <glyph glyph-name="Gbreve" unicode="&#x11e;" horiz-adv-x="650" 
d="M340 683q99 0 166.5 -47.5t67.5 -132.5q0 -11 -1 -18h-57q-2 62 -46 101.5t-132 39.5q-113 0 -166.5 -78.5t-53.5 -214.5q0 -287 219 -287q59 0 100.5 18t62.5 48t29.5 62t8.5 68v60h-173v54h233v-110q0 -115 -65 -184.5t-197 -69.5q-281 0 -281 340q0 162 70 256.5
t215 94.5zM334 729q-73 0 -111 48.5t-41 103.5h49q3 -39 28 -70t76 -31q49 0 74.5 31.5t28.5 69.5h48q-3 -55 -41.5 -103.5t-110.5 -48.5z" />
    <glyph glyph-name="gbreve" unicode="&#x11f;" horiz-adv-x="545" 
d="M435 435l-1 -5q50 -42 50 -118q0 -77 -56.5 -126.5t-154.5 -49.5q-65 0 -126 24q-29 -19 -29 -40q0 -14 13 -24t39.5 -16t49 -9.5t59 -7.5l53.5 -6q84 -12 126.5 -42t42.5 -84q0 -73 -67 -106t-176 -33q-213 0 -213 130q0 72 77 120q-65 21 -65 72q0 43 49 75
q-50 45 -50 121q0 77 55 128t159 51q56 0 87 -8h152v-34q-30 -9 -74 -12zM269 441q-76 0 -115 -36.5t-39 -93.5q0 -56 38 -91.5t118 -35.5q72 0 113 35t41 94q0 51 -37 89.5t-119 38.5zM297 12l-112 14q-80 -40 -80 -102q0 -38 39 -60.5t117 -22.5q178 0 178 89
q0 32 -29.5 51.5t-112.5 30.5zM277 548q-73 0 -111 46.5t-41 100.5h50q2 -38 26.5 -67t76.5 -29q50 0 75 29.5t28 66.5h48q-3 -55 -41 -101t-111 -46z" />
    <glyph glyph-name="Gdotaccent" unicode="&#x120;" horiz-adv-x="650" 
d="M340 683q99 0 166.5 -47.5t67.5 -132.5q0 -11 -1 -18h-57q-2 62 -46 101.5t-132 39.5q-113 0 -166.5 -78.5t-53.5 -214.5q0 -287 219 -287q59 0 100.5 18t62.5 48t29.5 62t8.5 68v60h-173v54h233v-110q0 -115 -65 -184.5t-197 -69.5q-281 0 -281 340q0 162 70 256.5
t215 94.5zM296 786q0 18 12.5 31t30.5 13t30.5 -13t12.5 -31t-12.5 -30.5t-30.5 -12.5t-30.5 12.5t-12.5 30.5z" />
    <glyph glyph-name="gdotaccent" unicode="&#x121;" horiz-adv-x="545" 
d="M435 435l-1 -5q50 -42 50 -118q0 -77 -56.5 -126.5t-154.5 -49.5q-65 0 -126 24q-29 -19 -29 -40q0 -14 13 -24t39.5 -16t49 -9.5t59 -7.5l53.5 -6q84 -12 126.5 -42t42.5 -84q0 -73 -67 -106t-176 -33q-213 0 -213 130q0 72 77 120q-65 21 -65 72q0 43 49 75
q-50 45 -50 121q0 77 55 128t159 51q56 0 87 -8h152v-34q-30 -9 -74 -12zM269 441q-76 0 -115 -36.5t-39 -93.5q0 -56 38 -91.5t118 -35.5q72 0 113 35t41 94q0 51 -37 89.5t-119 38.5zM297 12l-112 14q-80 -40 -80 -102q0 -38 39 -60.5t117 -22.5q178 0 178 89
q0 32 -29.5 51.5t-112.5 30.5zM231 616q0 18 12.5 31t30.5 13t30.5 -13t12.5 -31t-12.5 -30.5t-30.5 -12.5t-30.5 12.5t-12.5 30.5z" />
    <glyph glyph-name="Gcommaaccent" unicode="&#x122;" horiz-adv-x="650" 
d="M340 683q99 0 166.5 -47.5t67.5 -132.5q0 -11 -1 -18h-57q-2 62 -46 101.5t-132 39.5q-113 0 -166.5 -78.5t-53.5 -214.5q0 -287 219 -287q59 0 100.5 18t62.5 48t29.5 62t8.5 68v60h-173v54h233v-110q0 -115 -65 -184.5t-197 -69.5q-281 0 -281 340q0 162 70 256.5
t215 94.5zM289 -95q0 20 13.5 34t32.5 14q21 0 34 -13t13 -33q0 -15 -5 -26l-62 -126l-23 8l32 99q-15 3 -25 15t-10 28z" />
    <glyph glyph-name="gcommaaccent" unicode="&#x123;" horiz-adv-x="545" 
d="M312 593q0 -19 -13.5 -32.5t-31.5 -13.5q-20 0 -33.5 13t-13.5 32q0 12 6 25l61 122l23 -8l-33 -95q16 -3 25.5 -15t9.5 -28zM435 435l-1 -5q50 -42 50 -118q0 -77 -56.5 -126.5t-154.5 -49.5q-65 0 -126 24q-29 -19 -29 -40q0 -14 13 -24t39.5 -16t49 -9.5t59 -7.5
l53.5 -6q84 -12 126.5 -42t42.5 -84q0 -73 -67 -106t-176 -33q-213 0 -213 130q0 72 77 120q-65 21 -65 72q0 43 49 75q-50 45 -50 121q0 77 55 128t159 51q56 0 87 -8h152v-34q-30 -9 -74 -12zM269 441q-76 0 -115 -36.5t-39 -93.5q0 -56 38 -91.5t118 -35.5q72 0 113 35
t41 94q0 51 -37 89.5t-119 38.5zM297 12l-112 14q-80 -40 -80 -102q0 -38 39 -60.5t117 -22.5q178 0 178 89q0 32 -29.5 51.5t-112.5 30.5z" />
    <glyph glyph-name="Hcircumflex" unicode="&#x124;" horiz-adv-x="650" 
d="M522 0v324h-395v-324h-62v675h62v-294h395v294h63v-675h-63zM456 726l-128 96l-131 -96q-26 26 -27 28l135 123h49l131 -123z" />
    <glyph glyph-name="hcircumflex" unicode="&#x125;" horiz-adv-x="526" 
d="M113 397h4q22 44 66.5 68t100.5 24q47 0 81 -12.5t53 -31t30.5 -48t14.5 -57t3 -63.5v-277h-61v276q0 78 -27 120.5t-106 42.5q-75 0 -113.5 -52t-38.5 -122v-265h-60v711h60v-213q0 -65 -7 -101zM220 726l-128 96l-131 -96q-26 26 -27 28l135 123h49l131 -123z" />
    <glyph glyph-name="Hbar" unicode="&#x126;" horiz-adv-x="650" 
d="M522 0v324h-395v-324h-62v536h-49v46h49v93h62v-93h395v93h63v-93h48v-46h-48v-536h-63zM127 381h395v155h-395v-155z" />
    <glyph glyph-name="hbar" unicode="&#x127;" horiz-adv-x="526" 
d="M113 392h4q22 44 66.5 68t100.5 24q47 0 81 -12.5t53 -31t30.5 -48t14.5 -57t3 -63.5v-272h-61v271q0 78 -27 120t-106 42q-75 0 -113.5 -52t-38.5 -122v-259h-60v572h-51v44h51v95h60v-95h247v-44h-247v-74q0 -70 -7 -106z" />
    <glyph glyph-name="Itilde" unicode="&#x128;" horiz-adv-x="232" 
d="M85 0v674h62v-674h-62zM181 744q-25 0 -70 18t-64 18q-33 0 -65 -40l-31 23q13 33 40 51.5t56 18.5q23 0 66 -18t64 -18q36 0 66 39l32 -22q-12 -34 -38.5 -52t-55.5 -18z" />
    <glyph glyph-name="itilde" unicode="&#x129;" horiz-adv-x="237" 
d="M184 574q-24 0 -69.5 18t-64.5 18q-33 0 -65 -40l-31 23q13 33 40 51.5t56 18.5q23 0 66 -18t64 -18q36 0 66 39l32 -22q-12 -34 -38.5 -52t-55.5 -18zM88 0v481h60v-481h-60z" />
    <glyph glyph-name="Imacron" unicode="&#x12a;" horiz-adv-x="232" 
d="M85 0v674h62v-674h-62zM-30 761v53h294v-53h-294z" />
    <glyph glyph-name="imacron" unicode="&#x12b;" horiz-adv-x="237" 
d="M-28 588v51h295v-51h-295zM88 0v481h60v-481h-60z" />
    <glyph glyph-name="Ibreve" unicode="&#x12c;" horiz-adv-x="271" 
d="M105 0v674h62v-674h-62zM136 729q-73 0 -111 48.5t-41 103.5h49q3 -39 28 -70t76 -31q49 0 74.5 31.5t28.5 69.5h48q-3 -55 -41.5 -103.5t-110.5 -48.5z" />
    <glyph glyph-name="ibreve" unicode="&#x12d;" horiz-adv-x="237" 
d="M118 552q-73 0 -111 46.5t-41 100.5h50q2 -38 26.5 -67t76.5 -29q50 0 75 29.5t28 66.5h48q-3 -55 -41 -101t-111 -46zM88 0v481h60v-481h-60z" />
    <glyph glyph-name="Iogonek" unicode="&#x12e;" horiz-adv-x="232" 
d="M0 -137q0 78 85 143v668h62v-674h-38q-56 -62 -56 -118q0 -50 63 -50q30 0 72 12l7 -27q-50 -25 -102 -25q-45 0 -69 19t-24 52z" />
    <glyph glyph-name="iogonek" unicode="&#x12f;" horiz-adv-x="237" 
d="M5 -138q0 76 82 140v479h61v-481h-31q-57 -58 -57 -118q0 -50 63 -50q26 0 72 11q5 -20 7 -26q-52 -25 -102 -25q-45 0 -70 19t-25 51zM76 630q0 40 42 40q41 0 41 -40q0 -42 -41 -42q-42 0 -42 42z" />
    <glyph glyph-name="Idotaccent" unicode="&#x130;" horiz-adv-x="232" 
d="M85 0v674h62v-674h-62zM73 786q0 18 12.5 31t30.5 13t30.5 -13t12.5 -31t-12.5 -30.5t-30.5 -12.5t-30.5 12.5t-12.5 30.5z" />
    <glyph glyph-name="dotlessi" unicode="&#x131;" horiz-adv-x="237" 
d="M88 0v481h60v-481h-60z" />
    <glyph glyph-name="IJ" unicode="&#x132;" horiz-adv-x="709" 
d="M74 0v674h62v-674h-62zM407 -7q-96 0 -156 43.5t-60 122.5q0 16 2 25h58q2 -134 157 -136q166 0 166 177v449h62v-463q0 -32 -6 -60.5t-21.5 -58t-40.5 -51t-66.5 -35t-94.5 -13.5z" />
    <glyph glyph-name="ij" unicode="&#x133;" horiz-adv-x="395" 
d="M79 0v481h60v-481h-60zM67 630q0 17 12.5 29.5t30.5 12.5t30 -12.5t12 -29.5q0 -18 -12 -30t-30 -12t-30.5 12t-12.5 30zM221 -200h-37v53h23q30 0 41 17t11 54v557h61v-558q0 -61 -22 -92t-77 -31zM247 630q0 17 12.5 29.5t30.5 12.5q17 0 29.5 -12.5t12.5 -29.5
q0 -18 -12.5 -30t-29.5 -12q-18 0 -30.5 12t-12.5 30z" />
    <glyph glyph-name="Jcircumflex" unicode="&#x134;" horiz-adv-x="540" 
d="M236 -6q-96 0 -156 43.5t-60 122.5q0 16 2 25h58q2 -134 157 -136q166 0 166 177v449h62v-463q0 -32 -6 -60.5t-21.5 -58t-40.5 -51t-66.5 -35t-94.5 -13.5zM562 728l-128 96l-131 -96q-26 26 -27 28l135 123h49l131 -123z" />
    <glyph glyph-name="jcircumflex" unicode="&#x135;" horiz-adv-x="228" 
d="M49 -193h-38v53h23q30 0 41 17t11 54v550h62v-551q0 -61 -22 -92t-77 -31zM247 545l-128 105l-131 -105l-27 27q10 9 67 66.5t68 66.5h49q10 -9 65.5 -66.5t65.5 -66.5z" />
    <glyph glyph-name="Kcommaaccent" unicode="&#x136;" horiz-adv-x="546" 
d="M127 674v-298h109l230 298h73l-253 -324l262 -350h-79l-234 319h-108v-319h-62v674h62zM219 -72q0 20 13.5 34t32.5 14q21 0 34 -13t13 -33q0 -15 -5 -26l-62 -126l-23 8l32 99q-15 3 -25 15t-10 28z" />
    <glyph glyph-name="kcommaaccent" unicode="&#x137;" horiz-adv-x="460" 
d="M373 481h69l-181 -217l193 -264h-73l-170 238h-91v-238h-60v711h60v-423h92zM176 -89q0 20 13.5 34t32.5 14q21 0 34 -13t13 -33q0 -15 -5 -26l-62 -126l-23 8l32 99q-15 3 -25 15t-10 28z" />
    <glyph glyph-name="kgreenlandic" unicode="&#x138;" horiz-adv-x="458" 
d="M374 480h68l-181 -220l190 -260h-73l-165 229h-93v-229h-60v481h60v-201h88z" />
    <glyph glyph-name="Lacute" unicode="&#x139;" horiz-adv-x="515" 
d="M65 0v674h64v-617h376v-57h-440zM93 727l-24 33l149 112l44 -56z" />
    <glyph glyph-name="lacute" unicode="&#x13a;" horiz-adv-x="218" 
d="M71 710h60v-628q0 -26 10 -32.5t43 -6.5v-45q-19 -5 -35 -5q-52 0 -65 20t-13 70v627zM99 754l-24 33l149 112l44 -56z" />
    <glyph glyph-name="Lcommaaccent" unicode="&#x13b;" horiz-adv-x="515" 
d="M65 0v674h64v-617h376v-57h-440zM221 -95q0 20 13.5 34t32.5 14q21 0 34 -13t13 -33q0 -15 -5 -26l-62 -126l-23 8l32 99q-15 3 -25 15t-10 28z" />
    <glyph glyph-name="lcommaaccent" unicode="&#x13c;" horiz-adv-x="218" 
d="M71 710h60v-628q0 -26 10 -32.5t43 -6.5v-45q-19 -5 -35 -5q-52 0 -65 20t-13 70v627zM71 -95q0 20 13.5 34t32.5 14q21 0 34 -13t13 -33q0 -15 -5 -26l-62 -126l-23 8l32 99q-15 3 -25 15t-10 28z" />
    <glyph glyph-name="Lcaron" unicode="&#x13d;" horiz-adv-x="515" 
d="M65 0v674h64v-617h376v-57h-440zM296 639q0 20 13.5 34t32.5 14q21 0 34 -13t13 -33q0 -15 -5 -26l-62 -126l-23 8l32 99q-15 3 -25 15t-10 28z" />
    <glyph glyph-name="lcaron" unicode="&#x13e;" horiz-adv-x="277" 
d="M70 710h60v-628q0 -26 10 -32.5t43 -6.5v-45q-19 -5 -35 -5q-52 0 -65 20t-13 70v627zM193 678q0 20 13.5 34t32.5 14q21 0 34 -13t13 -33q0 -15 -5 -26l-62 -126l-23 8l32 99q-15 3 -25 15t-10 28z" />
    <glyph glyph-name="Ldot" unicode="&#x13f;" horiz-adv-x="515" 
d="M65 0v674h64v-617h376v-57h-440zM283 370q0 18 12.5 31t30.5 13t30.5 -13t12.5 -31t-12.5 -30.5t-30.5 -12.5t-30.5 12.5t-12.5 30.5z" />
    <glyph glyph-name="ldot" unicode="&#x140;" horiz-adv-x="290" 
d="M70 710h60v-628q0 -26 10 -32.5t43 -6.5v-45q-19 -5 -35 -5q-52 0 -65 20t-13 70v627zM195 387q0 18 12.5 31t30.5 13t30.5 -13t12.5 -31t-12.5 -30.5t-30.5 -12.5t-30.5 12.5t-12.5 30.5z" />
    <glyph glyph-name="Lslash" unicode="&#x141;" horiz-adv-x="515" 
d="M-5 207q-4 7 -11.5 21.5l-9.5 18.5q16 10 47 27.5t44 25.5v374h63v-338l160 91l22 -40l-182 -104v-227h377v-56h-440v247q-28 -15 -70 -40z" />
    <glyph glyph-name="lslash" unicode="&#x142;" horiz-adv-x="218" 
d="M71 710h60v-338l94 55l22 -41l-116 -67v-237q0 -26 10 -32.5t43 -6.5v-45q-19 -5 -35 -5q-28 0 -45 6.5t-23.5 23t-8 29.5t-1.5 42v9v181l-79 -46q-18 34 -22 40l101 59v373z" />
    <glyph glyph-name="Nacute" unicode="&#x143;" horiz-adv-x="655" 
d="M132 568q-1 -1 -5 -1v-567h-62v674h58l233 -326l166 -241h5v567h63v-674h-59l-252 352q-102 141 -147 216zM304 722l-24 33l149 112l44 -56z" />
    <glyph glyph-name="nacute" unicode="&#x144;" horiz-adv-x="526" 
d="M286 490q46 0 79.5 -12t52.5 -31t30 -47.5t14.5 -55t3.5 -61.5v-283h-61v276q0 35 -4.5 60t-17 51t-40 39.5t-69.5 13.5q-72 0 -113 -51.5t-41 -119.5v-269h-60v481h46q13 -26 13 -75h4q27 43 73.5 63.5t89.5 20.5zM223 546l-32 27l118 149l54 -46z" />
    <glyph glyph-name="Ncommaaccent" unicode="&#x145;" horiz-adv-x="655" 
d="M132 568q-1 -1 -5 -1v-567h-62v674h58l233 -326l166 -241h5v567h63v-674h-59l-252 352q-102 141 -147 216zM271 -74q0 20 13.5 34t32.5 14q21 0 34 -13t13 -33q0 -15 -5 -26l-62 -126l-23 8l32 99q-15 3 -25 15t-10 28z" />
    <glyph glyph-name="ncommaaccent" unicode="&#x146;" horiz-adv-x="526" 
d="M286 490q46 0 79.5 -12t52.5 -31t30 -47.5t14.5 -55t3.5 -61.5v-283h-61v276q0 35 -4.5 60t-17 51t-40 39.5t-69.5 13.5q-72 0 -113 -51.5t-41 -119.5v-269h-60v481h46q13 -26 13 -75h4q27 43 73.5 63.5t89.5 20.5zM212 -86q0 20 13.5 34t32.5 14q21 0 34 -13t13 -33
q0 -15 -5 -26l-62 -126l-23 8l32 99q-15 3 -25 15t-10 28z" />
    <glyph glyph-name="Ncaron" unicode="&#x147;" horiz-adv-x="655" 
d="M132 568q-1 -1 -5 -1v-567h-62v674h58l233 -326l166 -241h5v567h63v-674h-59l-252 352q-102 141 -147 216zM332 781l128 96l29 -28l-130 -123h-50l-135 123q1 2 27 28z" />
    <glyph glyph-name="ncaron" unicode="&#x148;" horiz-adv-x="526" 
d="M286 490q46 0 79.5 -12t52.5 -31t30 -47.5t14.5 -55t3.5 -61.5v-283h-61v276q0 35 -4.5 60t-17 51t-40 39.5t-69.5 13.5q-72 0 -113 -51.5t-41 -119.5v-269h-60v481h46q13 -26 13 -75h4q27 43 73.5 63.5t89.5 20.5zM250 603l127 101l30 -26l-131 -130h-50q-10 9 -67.5 65
t-67.5 65l14 13.5t13 13.5z" />
    <glyph glyph-name="napostrophe" unicode="&#x149;" horiz-adv-x="576" 
d="M335 490q46 0 79.5 -12t52.5 -31t30 -47.5t14.5 -55t3.5 -61.5v-283h-61v276q0 35 -4.5 60t-17 51t-40 39.5t-69.5 13.5q-72 0 -113 -51.5t-41 -119.5v-269h-60v481h46q13 -26 13 -75h4q27 43 73.5 63.5t89.5 20.5zM6 621q0 20 13.5 34t32.5 14q21 0 34 -13t13 -33
q0 -15 -5 -26l-62 -126l-23 8l32 99q-15 3 -25 15t-10 28z" />
    <glyph glyph-name="Eng" unicode="&#x14a;" horiz-adv-x="655" 
d="M132 568q-1 -1 -5 -1v-567h-62v674h58l275 -386l124 -181h5v567h63v-768q0 -48 -30 -74.5t-77 -26.5q-31 0 -64 13q3 13 14 48q25 -7 47 -7q52 0 52 52v89l-300 419q-48 64 -100 149z" />
    <glyph glyph-name="eng" unicode="&#x14b;" horiz-adv-x="526" 
d="M283 489q56 0 94 -17t56.5 -49.5t25.5 -66.5t7 -79v-380q0 -93 -103 -93q-38 0 -69 13l15 48q24 -6 45 -6q25 0 37.5 11.5t13.5 38.5v367q0 78 -27.5 120.5t-107.5 42.5q-72 0 -111 -51t-39 -119v-269h-60v481h46q13 -26 13 -75h4q27 43 71.5 63t88.5 20z" />
    <glyph glyph-name="Omacron" unicode="&#x14c;" horiz-adv-x="676" 
d="M341 681q280 0 280 -350q0 -69 -13.5 -126t-44.5 -106.5t-88.5 -77.5t-137.5 -28q-154 0 -218 87.5t-64 249.5q0 164 69 257.5t217 93.5zM340 624q-222 0 -222 -294q0 -282 218 -282q106 0 163 70.5t57 212.5q0 293 -216 293zM191 768v53h294v-53h-294z" />
    <glyph glyph-name="omacron" unicode="&#x14d;" horiz-adv-x="537" 
d="M270 489q60 0 104 -20.5t67.5 -57t34.5 -79t11 -93.5q0 -49 -11 -91t-35 -78.5t-67.5 -57t-103.5 -20.5q-220 0 -220 245q0 114 54.5 183t165.5 69zM270 434q-158 0 -158 -197q0 -96 38 -144t120 -48q154 0 154 194q0 195 -154 195zM123 588v51h295v-51h-295z" />
    <glyph glyph-name="Obreve" unicode="&#x14e;" horiz-adv-x="676" 
d="M341 681q280 0 280 -350q0 -69 -13.5 -126t-44.5 -106.5t-88.5 -77.5t-137.5 -28q-154 0 -218 87.5t-64 249.5q0 164 69 257.5t217 93.5zM340 624q-222 0 -222 -294q0 -282 218 -282q106 0 163 70.5t57 212.5q0 293 -216 293zM336 734q-73 0 -111 48.5t-41 103.5h49
q3 -39 28 -70t76 -31q49 0 74.5 31.5t28.5 69.5h48q-3 -55 -41.5 -103.5t-110.5 -48.5z" />
    <glyph glyph-name="obreve" unicode="&#x14f;" horiz-adv-x="537" 
d="M270 489q60 0 104 -20.5t67.5 -57t34.5 -79t11 -93.5q0 -49 -11 -91t-35 -78.5t-67.5 -57t-103.5 -20.5q-220 0 -220 245q0 114 54.5 183t165.5 69zM270 434q-158 0 -158 -197q0 -96 38 -144t120 -48q154 0 154 194q0 195 -154 195zM271 548q-73 0 -111 46.5t-41 100.5
h50q2 -38 26.5 -67t76.5 -29q50 0 75 29.5t28 66.5h48q-3 -55 -41 -101t-111 -46z" />
    <glyph glyph-name="Ohungarumlaut" unicode="&#x150;" horiz-adv-x="676" 
d="M341 681q280 0 280 -350q0 -69 -13.5 -126t-44.5 -106.5t-88.5 -77.5t-137.5 -28q-154 0 -218 87.5t-64 249.5q0 164 69 257.5t217 93.5zM340 624q-222 0 -222 -294q0 -282 218 -282q106 0 163 70.5t57 212.5q0 293 -216 293zM237 727l-24 33l148 112l44 -56zM388 727
l-23 33l148 112l45 -56z" />
    <glyph glyph-name="ohungarumlaut" unicode="&#x151;" horiz-adv-x="537" 
d="M270 489q60 0 104 -20.5t67.5 -57t34.5 -79t11 -93.5q0 -49 -11 -91t-35 -78.5t-67.5 -57t-103.5 -20.5q-220 0 -220 245q0 114 54.5 183t165.5 69zM270 434q-158 0 -158 -197q0 -96 38 -144t120 -48q154 0 154 194q0 195 -154 195zM196 551l-32 26l117 149l54 -45z
M326 551l-32 26l117 149l54 -45z" />
    <glyph glyph-name="OE" unicode="&#x152;" horiz-adv-x="878" 
d="M339 681q32 0 72 -7h434v-50h-370v-248h339v-51h-339v-275h379v-50h-439q-37 -8 -77 -8q-156 0 -221.5 88.5t-65.5 250.5q0 164 69.5 257t218.5 93zM337 41q39 0 74 12v567q-40 11 -74 11q-119 0 -171 -78.5t-52 -221.5q0 -290 223 -290z" />
    <glyph glyph-name="oe" unicode="&#x153;" horiz-adv-x="887" 
d="M270 488q136 0 186 -111q52 111 183 111q102 0 149.5 -55.5t47.5 -149.5q0 -26 -3 -53h-345q0 -186 155 -186q127 0 135 103h54q1 -5 1 -12q0 -69 -54 -106t-137 -37q-141 0 -189 106q-49 -105 -184 -105q-117 0 -168 63.5t-51 179.5q0 114 54.5 183t165.5 69zM270 434
q-159 0 -159 -198q0 -96 38 -144t121 -48q74 0 114 48.5t40 146.5q0 195 -154 195zM639 435q-71 0 -107.5 -43.5t-41.5 -114.5h285q0 73 -29.5 115.5t-106.5 42.5z" />
    <glyph glyph-name="Racute" unicode="&#x154;" horiz-adv-x="577" 
d="M541 474q0 -33 -10 -64.5t-33 -61.5t-67.5 -49t-105.5 -21l211 -278h-76l-208 278h-125v-278h-62v674h254q107 0 164.5 -54t57.5 -146zM312 619h-185v-285h185q71 0 118 32t47 109q0 68 -46 106t-119 38zM246 727l-24 33l149 112l44 -56z" />
    <glyph glyph-name="racute" unicode="&#x155;" horiz-adv-x="306" 
d="M127 0h-61v481h46q12 -33 12 -92h4q20 50 68 75.5t103 26.5l4 -60q-96 -4 -136 -45.5t-40 -120.5v-265zM128 546l-32 27l118 149l54 -46z" />
    <glyph glyph-name="Rcommaaccent" unicode="&#x156;" horiz-adv-x="577" 
d="M541 474q0 -33 -10 -64.5t-33 -61.5t-67.5 -49t-105.5 -21l211 -278h-76l-208 278h-125v-278h-62v674h254q107 0 164.5 -54t57.5 -146zM312 619h-185v-285h185q71 0 118 32t47 109q0 68 -46 106t-119 38zM232 -69q0 20 13.5 34t32.5 14q21 0 34 -13t13 -33q0 -15 -5 -26
l-62 -126l-23 8l32 99q-15 3 -25 15t-10 28z" />
    <glyph glyph-name="rcommaaccent" unicode="&#x157;" horiz-adv-x="306" 
d="M127 0h-61v481h46q12 -33 12 -92h4q20 50 68 75.5t103 26.5l4 -60q-96 -4 -136 -45.5t-40 -120.5v-265zM51 -92q0 20 13.5 34t32.5 14q21 0 34 -13t13 -33q0 -15 -5 -26l-62 -126l-23 8l32 99q-15 3 -25 15t-10 28z" />
    <glyph glyph-name="Rcaron" unicode="&#x158;" horiz-adv-x="577" 
d="M541 474q0 -33 -10 -64.5t-33 -61.5t-67.5 -49t-105.5 -21l211 -278h-76l-208 278h-125v-278h-62v674h254q107 0 164.5 -54t57.5 -146zM312 619h-185v-285h185q71 0 118 32t47 109q0 68 -46 106t-119 38zM270 781l128 96l29 -28l-130 -123h-50l-135 123q1 2 27 28z" />
    <glyph glyph-name="rcaron" unicode="&#x159;" horiz-adv-x="306" 
d="M127 0h-61v481h46q12 -33 12 -92h4q20 50 68 75.5t103 26.5l4 -60q-96 -4 -136 -45.5t-40 -120.5v-265zM144 603l127 101l30 -26l-131 -130h-50q-10 9 -67.5 65t-67.5 65l14 13.5t13 13.5z" />
    <glyph glyph-name="Sacute" unicode="&#x15a;" horiz-adv-x="613" 
d="M305 48q97 0 143.5 39t46.5 93q0 65 -44 99t-139 46q-44 5 -73 10.5t-63.5 17.5t-54.5 28.5t-34 45t-14 66.5q0 80 58 134.5t182 54.5q95 0 163.5 -45t68.5 -133q0 -6 -2 -20h-59q-1 60 -45.5 100t-128.5 40t-128.5 -35t-44.5 -87q0 -17 3 -30t12 -24l15.5 -18.5
t24.5 -14l28 -10t36.5 -8.5t39 -7l45.5 -7q107 -16 163.5 -61t56.5 -135q0 -81 -64 -138t-193 -57q-113 0 -182.5 49t-69.5 144q0 16 1 24h59q1 -70 47 -115.5t146 -45.5zM281 727l-24 33l149 112l44 -56z" />
    <glyph glyph-name="sacute" unicode="&#x15b;" horiz-adv-x="468" 
d="M234 43q62 0 93.5 26t31.5 61q0 43 -29.5 63.5t-97.5 28.5q-33 4 -54 8t-47 13t-41 21.5t-25.5 34t-10.5 50.5q0 60 43 100t136 40q69 0 121 -30t52 -90q0 -10 -1 -15h-57q-4 38 -35 60.5t-83 22.5q-57 0 -86 -23t-29 -58q0 -42 30 -56t108 -26q84 -11 125.5 -42
t41.5 -97q0 -60 -48.5 -101.5t-143.5 -41.5q-77 0 -132.5 34.5t-55.5 103.5q0 5 2 19h56q3 -51 39 -78.5t97 -27.5zM220 546l-32 27l118 149l54 -46z" />
    <glyph glyph-name="Scircumflex" unicode="&#x15c;" horiz-adv-x="613" 
d="M305 48q97 0 143.5 39t46.5 93q0 65 -44 99t-139 46q-44 5 -73 10.5t-63.5 17.5t-54.5 28.5t-34 45t-14 66.5q0 80 58 134.5t182 54.5q95 0 163.5 -45t68.5 -133q0 -6 -2 -20h-59q-1 60 -45.5 100t-128.5 40t-128.5 -35t-44.5 -87q0 -17 3 -30t12 -24l15.5 -18.5
t24.5 -14l28 -10t36.5 -8.5t39 -7l45.5 -7q107 -16 163.5 -61t56.5 -135q0 -81 -64 -138t-193 -57q-113 0 -182.5 49t-69.5 144q0 16 1 24h59q1 -70 47 -115.5t146 -45.5zM432 726l-128 96l-131 -96q-26 26 -27 28l135 123h49l131 -123z" />
    <glyph glyph-name="scircumflex" unicode="&#x15d;" horiz-adv-x="468" 
d="M234 43q62 0 93.5 26t31.5 61q0 43 -29.5 63.5t-97.5 28.5q-33 4 -54 8t-47 13t-41 21.5t-25.5 34t-10.5 50.5q0 60 43 100t136 40q69 0 121 -30t52 -90q0 -10 -1 -15h-57q-4 38 -35 60.5t-83 22.5q-57 0 -86 -23t-29 -58q0 -42 30 -56t108 -26q84 -11 125.5 -42
t41.5 -97q0 -60 -48.5 -101.5t-143.5 -41.5q-77 0 -132.5 34.5t-55.5 103.5q0 5 2 19h56q3 -51 39 -78.5t97 -27.5zM359 545l-128 105l-131 -105l-27 27q10 9 67 66.5t68 66.5h49l65 -66.5t66 -66.5z" />
    <glyph glyph-name="Scedilla" unicode="&#x15e;" horiz-adv-x="613" 
d="M305 48q97 0 143.5 39t46.5 93q0 65 -44 99t-139 46q-44 5 -73 10.5t-63.5 17.5t-54.5 28.5t-34 45t-14 66.5q0 80 58 134.5t182 54.5q95 0 163.5 -45t68.5 -133q0 -6 -2 -20h-59q-1 60 -45.5 100t-128.5 40t-128.5 -35t-44.5 -87q0 -17 3 -30t12 -24l15.5 -18.5
t24.5 -14l28 -10t36.5 -8.5t39 -7l45.5 -7q107 -16 163.5 -61t56.5 -135q0 -77 -58.5 -133t-175.5 -61l-19 -41q61 0 87.5 -24t26.5 -54q0 -35 -29 -59.5t-82 -25.5q-47 0 -93 17l11 34q42 -14 76 -14q27 0 46 12.5t19 33.5q0 22 -17 33.5t-41 11.5q-23 0 -38 -7l-20 15
l31 68q-105 4 -169 53t-64 139q0 16 1 24h59q1 -70 47 -115.5t146 -45.5z" />
    <glyph glyph-name="scedilla" unicode="&#x15f;" horiz-adv-x="468" 
d="M231 -212q-47 0 -93 17q3 6 7 19t5 15q42 -14 75 -14q28 0 46.5 12t18.5 34q0 21 -17 33t-42 12q-18 0 -37 -8l-20 16l37 70q-74 3 -123 36.5t-49 98.5q0 5 2 19h56q3 -51 39.5 -78.5t96.5 -27.5q62 0 93.5 26t31.5 61q0 42 -30.5 63t-96.5 29q-42 5 -67.5 11t-54 19
t-42.5 37t-14 60q0 60 43.5 100t136.5 40q69 0 121 -30t52 -89q0 -10 -1 -16h-58q-4 39 -34.5 61.5t-82.5 22.5q-57 0 -86.5 -23.5t-29.5 -57.5q0 -19 6.5 -32t16 -21t30 -13.5t37.5 -8.5t49 -7q83 -11 124.5 -43.5t41.5 -101.5q0 -53 -42.5 -91.5t-122.5 -43.5l-26 -44
q62 0 88.5 -23.5t26.5 -54.5q0 -36 -29 -59.5t-83 -24.5z" />
    <glyph glyph-name="Scaron" unicode="&#x160;" horiz-adv-x="613" 
d="M305 48q97 0 143.5 39t46.5 93q0 65 -44 99t-139 46q-44 5 -73 10.5t-63.5 17.5t-54.5 28.5t-34 45t-14 66.5q0 80 58 134.5t182 54.5q95 0 163.5 -45t68.5 -133q0 -6 -2 -20h-59q-1 60 -45.5 100t-128.5 40t-128.5 -35t-44.5 -87q0 -17 3 -30t12 -24l15.5 -18.5
t24.5 -14l28 -10t36.5 -8.5t39 -7l45.5 -7q107 -16 163.5 -61t56.5 -135q0 -81 -64 -138t-193 -57q-113 0 -182.5 49t-69.5 144q0 16 1 24h59q1 -70 47 -115.5t146 -45.5zM310 781l128 96l29 -28l-130 -123h-50l-135 123q1 2 27 28z" />
    <glyph glyph-name="scaron" unicode="&#x161;" horiz-adv-x="468" 
d="M234 43q62 0 93.5 26t31.5 61q0 43 -29.5 63.5t-97.5 28.5q-33 4 -54 8t-47 13t-41 21.5t-25.5 34t-10.5 50.5q0 60 43 100t136 40q69 0 121 -30t52 -90q0 -10 -1 -15h-57q-4 38 -35 60.5t-83 22.5q-57 0 -86 -23t-29 -58q0 -42 30 -56t108 -26q84 -11 125.5 -42
t41.5 -97q0 -60 -48.5 -101.5t-143.5 -41.5q-77 0 -132.5 34.5t-55.5 103.5q0 5 2 19h56q3 -51 39 -78.5t97 -27.5zM241 603l127 101l30 -26l-131 -130h-50q-10 9 -67.5 65t-67.5 65q2 1 14.5 13.5t12.5 13.5z" />
    <glyph glyph-name="Tcommaaccent" unicode="&#x162;" horiz-adv-x="556" 
d="M311 619v-619h-62v619h-234v55h526v-55h-230zM233 -95q0 20 13.5 34t32.5 14q21 0 34 -13t13 -33q0 -15 -5 -26l-62 -126l-23 8l32 99q-15 3 -25 15t-10 28z" />
    <glyph glyph-name="tcommaaccent" unicode="&#x163;" horiz-adv-x="343" 
d="M162 604v-123h144v-48h-144v-282q0 -63 25 -85.5t83 -22.5q23 0 58 5v-49q-40 -6 -76 -6q-82 0 -116.5 34.5t-34.5 127.5v278h-80v39l83 9l15 123h43zM122 -95q0 20 13.5 34t32.5 14q21 0 34 -13t13 -33q0 -15 -5 -26l-62 -126l-23 8l32 99q-15 3 -25 15t-10 28z" />
    <glyph glyph-name="Tcaron" unicode="&#x164;" horiz-adv-x="556" 
d="M311 619v-619h-62v619h-234v55h526v-55h-230zM284 781l128 96l29 -28l-130 -123h-50l-135 123q1 2 27 28z" />
    <glyph glyph-name="tcaron" unicode="&#x165;" horiz-adv-x="357" 
d="M165 604v-123h144v-48h-144v-282q0 -63 25 -85.5t83 -22.5q23 0 58 5v-49q-41 -6 -76 -6q-82 0 -116.5 34.5t-34.5 127.5v278h-80v39l83 9l15 123h43zM262 681q0 20 13.5 34t32.5 14q21 0 34 -13t13 -33q0 -15 -5 -26l-62 -126l-23 8l32 99q-15 3 -25 15t-10 28z" />
    <glyph glyph-name="Tbar" unicode="&#x166;" horiz-adv-x="556" 
d="M311 619v-213h173v-45h-173v-361h-62v361h-179v45h179v213h-234v55h526v-55h-230z" />
    <glyph glyph-name="tbar" unicode="&#x167;" horiz-adv-x="343" 
d="M162 604v-123h144v-48h-144v-121h140v-46h-140v-115q0 -63 25 -85.5t83 -22.5q23 0 58 5v-49q-40 -6 -76 -6q-82 0 -116.5 34.5t-34.5 127.5v111h-77v46h77v121h-80v39l83 9l15 123h43z" />
    <glyph glyph-name="Utilde" unicode="&#x168;" horiz-adv-x="653" 
d="M588 674v-406q0 -275 -257 -275q-146 0 -206 69.5t-60 206.5v405h62v-407q0 -121 51.5 -170t153.5 -49q194 0 194 220v406h62zM393 740q-25 0 -70 18t-64 18q-33 0 -65 -40l-31 23q13 33 40 51.5t56 18.5q23 0 66 -18t64 -18q36 0 66 39l32 -22q-12 -34 -38.5 -52
t-55.5 -18z" />
    <glyph glyph-name="utilde" unicode="&#x169;" horiz-adv-x="516" 
d="M455 481v-481h-45q-12 20 -12 75h-4q-28 -44 -71.5 -63.5t-85.5 -19.5q-56 0 -93 16.5t-55 47t-24.5 62.5t-6.5 75v288h63v-279q0 -78 25.5 -119t102.5 -41q70 0 107.5 50.5t37.5 119.5v269h61zM324 574q-24 0 -70 18t-64 18q-33 0 -65 -40l-31 23q13 33 40 51.5t56 18.5
q23 0 66 -18t64 -18q36 0 66 39l32 -22q-12 -34 -38.5 -52t-55.5 -18z" />
    <glyph glyph-name="Umacron" unicode="&#x16a;" horiz-adv-x="653" 
d="M588 674v-406q0 -275 -257 -275q-146 0 -206 69.5t-60 206.5v405h62v-407q0 -121 51.5 -170t153.5 -49q194 0 194 220v406h62zM175 758v53h294v-53h-294z" />
    <glyph glyph-name="umacron" unicode="&#x16b;" horiz-adv-x="516" 
d="M455 481v-481h-45q-12 20 -12 75h-4q-28 -44 -71.5 -63.5t-85.5 -19.5q-56 0 -93 16.5t-55 47t-24.5 62.5t-6.5 75v288h63v-279q0 -78 25.5 -119t102.5 -41q70 0 107.5 50.5t37.5 119.5v269h61zM114 588v51h295v-51h-295z" />
    <glyph glyph-name="Ubreve" unicode="&#x16c;" horiz-adv-x="653" 
d="M588 674v-406q0 -275 -257 -275q-146 0 -206 69.5t-60 206.5v405h62v-407q0 -121 51.5 -170t153.5 -49q194 0 194 220v406h62zM330 722q-73 0 -111 48.5t-41 103.5h49q3 -39 28 -70t76 -31q49 0 74.5 31.5t28.5 69.5h48q-3 -55 -41.5 -103.5t-110.5 -48.5z" />
    <glyph glyph-name="ubreve" unicode="&#x16d;" horiz-adv-x="516" 
d="M455 481v-481h-45q-12 20 -12 75h-4q-28 -44 -71.5 -63.5t-85.5 -19.5q-56 0 -93 16.5t-55 47t-24.5 62.5t-6.5 75v288h63v-279q0 -78 25.5 -119t102.5 -41q70 0 107.5 50.5t37.5 119.5v269h61zM261 548q-73 0 -111 46.5t-41 100.5h50q2 -38 26.5 -67t76.5 -29
q50 0 75 29.5t28 66.5h48q-3 -55 -41 -101t-111 -46z" />
    <glyph glyph-name="Uring" unicode="&#x16e;" horiz-adv-x="653" 
d="M588 674v-406q0 -275 -257 -275q-146 0 -206 69.5t-60 206.5v405h62v-407q0 -121 51.5 -170t153.5 -49q194 0 194 220v406h62zM326 696q-42 0 -70.5 29t-28.5 70t28.5 69.5t70.5 28.5q43 0 72.5 -28.5t29.5 -69.5q0 -42 -30 -70.5t-72 -28.5zM326 855q-24 0 -40.5 -18
t-16.5 -42q0 -25 16 -43t41 -18q27 0 43.5 18t16.5 43q0 24 -16.5 42t-43.5 18z" />
    <glyph glyph-name="uring" unicode="&#x16f;" horiz-adv-x="516" 
d="M455 481v-481h-45q-12 20 -12 75h-4q-28 -44 -71.5 -63.5t-85.5 -19.5q-56 0 -93 16.5t-55 47t-24.5 62.5t-6.5 75v288h63v-279q0 -78 25.5 -119t102.5 -41q70 0 107.5 50.5t37.5 119.5v269h61zM260 538q-42 0 -70.5 29t-28.5 70t28.5 69.5t70.5 28.5q43 0 72.5 -28.5
t29.5 -69.5q0 -42 -30 -70.5t-72 -28.5zM260 697q-24 0 -40.5 -18t-16.5 -42q0 -25 16 -43t41 -18q27 0 43.5 18t16.5 43q0 24 -16.5 42t-43.5 18z" />
    <glyph glyph-name="Uhungarumlaut" unicode="&#x170;" horiz-adv-x="653" 
d="M588 674v-406q0 -275 -257 -275q-146 0 -206 69.5t-60 206.5v405h62v-407q0 -121 51.5 -170t153.5 -49q194 0 194 220v406h62zM226 727l-24 33l148 112l44 -56zM377 727l-23 33l148 112l45 -56z" />
    <glyph glyph-name="uhungarumlaut" unicode="&#x171;" horiz-adv-x="516" 
d="M455 481v-481h-45q-12 20 -12 75h-4q-28 -44 -71.5 -63.5t-85.5 -19.5q-56 0 -93 16.5t-55 47t-24.5 62.5t-6.5 75v288h63v-279q0 -78 25.5 -119t102.5 -41q70 0 107.5 50.5t37.5 119.5v269h61zM174 551l-32 26l117 149l54 -45zM304 551l-32 26l117 149l54 -45z" />
    <glyph glyph-name="Uogonek" unicode="&#x172;" horiz-adv-x="653" 
d="M588 674v-406q0 -270 -247 -275q-50 -57 -50 -111q0 -50 64 -50q26 0 72 11l6 -27q-48 -24 -101 -24q-45 0 -70 19t-25 51q0 69 69 131q-132 6 -186.5 75.5t-54.5 200.5v405h62v-407q0 -121 51.5 -170t153.5 -49q194 0 194 220v406h62z" />
    <glyph glyph-name="uogonek" unicode="&#x173;" horiz-adv-x="516" 
d="M455 481v-481h-24q-57 -60 -57 -117q0 -50 64 -50q34 0 72 11q0 -2 2.5 -11.5t3.5 -14.5q-47 -25 -101 -25q-45 0 -70 19t-25 51q0 78 86 144q-8 23 -8 68h-4q-28 -44 -71.5 -63.5t-85.5 -19.5q-56 0 -93 16.5t-55 47t-24.5 62.5t-6.5 75v288h63v-253q0 -37 1.5 -59.5
t8.5 -49.5t20 -42t37.5 -25t60.5 -10q70 0 107.5 50.5t37.5 119.5v269h61z" />
    <glyph glyph-name="Wcircumflex" unicode="&#x174;" horiz-adv-x="874" 
d="M437 581h-4q-23 -93 -69 -249l-99 -332h-71l-184 674h68l91 -353l59 -241h5q39 148 70 250l101 344h63l84 -278q67 -224 90 -317h5q22 93 81 325l68 270h67l-182 -674h-70l-108 356q-56 185 -65 225zM563 726l-128 96l-131 -96q-26 26 -27 28l135 123h49l131 -123z" />
    <glyph glyph-name="wcircumflex" unicode="&#x175;" horiz-adv-x="690" 
d="M346 395h-6q-14 -57 -31.5 -117.5t-48 -156.5t-38.5 -123h-66l-146 482h61l44 -148q50 -170 72 -262h7q32 132 74 261l48 149h57l50 -159l74 -252h6q14 66 31 130.5t45 157.5l37 123h61l-146 -482h-65q-72 220 -120 397zM473 545l-128 105l-131 -105l-27 27q10 9 67 66.5
t68 66.5h49q10 -9 65.5 -66.5t65.5 -66.5z" />
    <glyph glyph-name="Ycircumflex" unicode="&#x176;" horiz-adv-x="545" 
d="M265 333h8q11 29 92 173l94 168h72l-232 -402v-272h-63v271l-226 403h71l94 -170q63 -114 90 -171zM399 725l-128 96l-131 -96q-26 26 -27 28l135 123h49l131 -123z" />
    <glyph glyph-name="ycircumflex" unicode="&#x177;" horiz-adv-x="437" 
d="M212 47h8q12 43 38 119.5l29 85.5l75 228h60l-179 -535q-13 -37 -22.5 -59t-27 -44.5t-43 -33t-61.5 -10.5h-56v50h48q39 0 60.5 15.5t34.5 55.5l27 79l-32 -2q-10 40 -61 187l-102 297h65q55 -170 67 -204q46 -131 72 -229zM347 546l-128 105l-131 -105l-27 27
q10 9 67.5 66l67.5 67h49l65 -66.5t66 -66.5z" />
    <glyph glyph-name="Ydieresis" unicode="&#x178;" horiz-adv-x="545" 
d="M265 333h8q11 29 92 173l94 168h72l-232 -402v-272h-63v271l-226 403h71l94 -170q63 -114 90 -171zM160 786q0 16 11 27.5t27 11.5t27.5 -11.5t11.5 -27.5q0 -15 -11.5 -26.5t-27.5 -11.5t-27 11.5t-11 26.5zM326 786q0 16 11 27.5t28 11.5q16 0 27.5 -11.5t11.5 -27.5
q0 -15 -11.5 -26.5t-27.5 -11.5t-27.5 11.5t-11.5 26.5z" />
    <glyph glyph-name="Zacute" unicode="&#x179;" horiz-adv-x="558" 
d="M29 0v53l415 565h-395v57h470v-52l-413 -567h423v-56h-500zM258 727l-24 33l149 112l44 -56z" />
    <glyph glyph-name="zacute" unicode="&#x17a;" horiz-adv-x="431" 
d="M19 0v42l309 388h-286v51h359v-46l-308 -386h311v-49h-385zM193 546l-32 27l118 149l54 -46z" />
    <glyph glyph-name="Zdotaccent" unicode="&#x17b;" horiz-adv-x="558" 
d="M29 0v53l415 565h-395v57h470v-52l-413 -567h423v-56h-500zM246 786q0 18 12.5 31t30.5 13t30.5 -13t12.5 -31t-12.5 -30.5t-30.5 -12.5t-30.5 12.5t-12.5 30.5z" />
    <glyph glyph-name="zdotaccent" unicode="&#x17c;" horiz-adv-x="431" 
d="M19 0v42l309 388h-286v51h359v-46l-308 -386h311v-49h-385zM186 616q0 18 12.5 31t30.5 13t30.5 -13t12.5 -31t-12.5 -30.5t-30.5 -12.5t-30.5 12.5t-12.5 30.5z" />
    <glyph glyph-name="Zcaron" unicode="&#x17d;" horiz-adv-x="558" 
d="M29 0v53l415 565h-395v57h470v-52l-413 -567h423v-56h-500zM283 781l128 96l29 -28l-130 -123h-50l-135 123q1 2 27 28z" />
    <glyph glyph-name="zcaron" unicode="&#x17e;" horiz-adv-x="431" 
d="M19 0v42l309 388h-286v51h359v-46l-308 -386h311v-49h-385zM220 603l127 101l30 -26l-131 -130h-50q-10 9 -67.5 65t-67.5 65l14 13.5t13 13.5z" />
    <glyph glyph-name="florin" unicode="&#x192;" horiz-adv-x="541" 
d="M148 346v47h92q7 57 10 75q13 98 46 143t104 45q41 0 85 -14l-15 -50q-35 9 -65 9q-47 0 -67 -33.5t-31 -111.5l-8 -63h102v-47h-108q-15 -101 -23 -184q-20 -155 -54.5 -212t-107.5 -57q-40 0 -79 16l16 50q39 -9 58 -9q52 0 72 51.5t41 202.5l17 142h-85z" />
    <glyph glyph-name="Ohorn" unicode="&#x1a0;" horiz-adv-x="684" 
d="M341 681q140 0 211 -89q48 1 68.5 25t20.5 72v65h50v-82q0 -120 -110 -127q40 -80 40 -214q0 -69 -13.5 -126t-44.5 -106.5t-88.5 -77.5t-137.5 -28q-154 0 -218 87.5t-64 249.5q0 164 69 257.5t217 93.5zM340 624q-222 0 -222 -294q0 -282 218 -282q106 0 163 70.5
t57 212.5q0 293 -216 293z" />
    <glyph glyph-name="ohorn" unicode="&#x1a1;" horiz-adv-x="551" 
d="M270 489q104 0 159 -62q78 1 78 95v62h49v-79q0 -114 -98 -125q29 -55 29 -141q0 -49 -11 -91t-35 -78.5t-67.5 -57t-103.5 -20.5q-220 0 -220 245q0 114 54.5 183t165.5 69zM270 434q-158 0 -158 -197q0 -96 38 -144t120 -48q154 0 154 194q0 195 -154 195z" />
    <glyph glyph-name="Uhorn" unicode="&#x1af;" horiz-adv-x="725" 
d="M588 674v-82h12q43 0 61 23t18 69v70h51v-82q0 -56 -27.5 -91.5t-88.5 -35.5h-26v-277q0 -275 -257 -275q-146 0 -206 69.5t-60 206.5v405h62v-407q0 -121 51.5 -170t153.5 -49q194 0 194 220v406h62z" />
    <glyph glyph-name="uhorn" unicode="&#x1b0;" horiz-adv-x="569" 
d="M455 377v-377h-45q-12 20 -12 75h-4q-28 -44 -71.5 -63.5t-85.5 -19.5q-56 0 -93 16.5t-55 47t-24.5 62.5t-6.5 75v288h63v-279q0 -78 25.5 -119t102.5 -41q70 0 107.5 50.5t37.5 119.5v269h61v-57h9q42 0 57.5 22.5t15.5 72.5v62h50v-79q0 -55 -26 -90t-86 -35h-20z" />
    <glyph glyph-name="AEacute" unicode="&#x1fc;" horiz-adv-x="945" 
d="M477 229h-251l-150 -229h-69l443 674h462v-50h-370v-258h337v-51h-337v-266h379v-49h-444v229zM477 611q-1 0 -4 1l-212 -331h216v330zM597 727l-24 33l149 112l44 -56z" />
    <glyph glyph-name="aeacute" unicode="&#x1fd;" horiz-adv-x="847" 
d="M593 44q129 0 137 103h53q1 -6 1 -16q0 -66 -55.5 -102.5t-136.5 -36.5q-139 0 -185 98q-77 -98 -213 -98q-72 0 -117 34.5t-45 102.5q0 73 54 111t147 38h141v35q0 51 -30 87t-103 36q-56 0 -87 -23.5t-36 -63.5h-55q0 3 -0.5 7t-0.5 5q0 65 55 95t125 30q138 0 175 -92
q51 94 172 94q100 0 149.5 -55.5t49.5 -149.5q0 -26 -3 -53h-346q0 -186 154 -186zM203 40q51 0 91.5 17.5t57 34t36.5 41.5q-11 46 -11 96h-136q-146 0 -146 -100q0 -39 28 -64t80 -25zM588 435q-70 0 -105.5 -43.5t-40.5 -114.5h285q0 158 -139 158zM417 546l-32 27
l118 149l54 -46z" />
    <glyph glyph-name="Oslashacute" unicode="&#x1fe;" horiz-adv-x="676" 
d="M317 727l-24 33l149 112l44 -56zM341 681q119 0 189 -65l53 69l36 -29l-59 -74q61 -88 61 -251q0 -69 -13.5 -126t-44.5 -106.5t-88.5 -77.5t-137.5 -28q-127 0 -195 62l-53 -69l-36 29l59 74q-57 82 -57 241q0 164 69 257.5t217 93.5zM556 331q0 126 -40 197l-333 -423
q51 -57 153 -57q106 0 163 70.5t57 212.5zM340 624q-222 0 -222 -294q0 -122 38 -186l333 422q-52 58 -149 58z" />
    <glyph glyph-name="oslashacute" unicode="&#x1ff;" horiz-adv-x="537" 
d="M262 546l-32 27l118 149l54 -46zM270 489q94 0 150 -53l47 52l30 -26l-51 -57q41 -65 41 -166q0 -49 -11 -91t-35 -78.5t-67.5 -57t-103.5 -20.5q-100 0 -154 49l-44 -47l-29 26l47 52q-40 60 -40 165q0 114 54.5 183t165.5 69zM270 434q-158 0 -158 -197q0 -74 22 -118
l245 273q-37 42 -109 42zM424 239q0 73 -23 118l-245 -272q39 -40 114 -40q154 0 154 194z" />
    <glyph glyph-name="Scommaaccent" unicode="&#x218;" horiz-adv-x="613" 
d="M305 48q97 0 143.5 39t46.5 93q0 65 -44 99t-139 46q-44 5 -73 10.5t-63.5 17.5t-54.5 28.5t-34 45t-14 66.5q0 80 58 134.5t182 54.5q95 0 163.5 -45t68.5 -133q0 -6 -2 -20h-59q-1 60 -45.5 100t-128.5 40t-128.5 -35t-44.5 -87q0 -17 3 -30t12 -24l15.5 -18.5
t24.5 -14l28 -10t36.5 -8.5t39 -7l45.5 -7q107 -16 163.5 -61t56.5 -135q0 -81 -64 -138t-193 -57q-113 0 -182.5 49t-69.5 144q0 16 1 24h59q1 -70 47 -115.5t146 -45.5zM250 -95q0 20 13.5 34t32.5 14q21 0 34 -13t13 -33q0 -15 -5 -26l-62 -126l-23 8l32 99q-15 3 -25 15
t-10 28z" />
    <glyph glyph-name="scommaaccent" unicode="&#x219;" horiz-adv-x="468" 
d="M234 43q62 0 93.5 26t31.5 61q0 43 -29.5 63.5t-97.5 28.5q-33 4 -54 8t-47 13t-41 21.5t-25.5 34t-10.5 50.5q0 60 43 100t136 40q69 0 121 -30t52 -90q0 -10 -1 -15h-57q-4 38 -35 60.5t-83 22.5q-57 0 -86 -23t-29 -58q0 -42 30 -56t108 -26q84 -11 125.5 -42
t41.5 -97q0 -60 -48.5 -101.5t-143.5 -41.5q-77 0 -132.5 34.5t-55.5 103.5q0 5 2 19h56q3 -51 39 -78.5t97 -27.5zM193 -95q0 20 13.5 34t32.5 14q21 0 34 -13t13 -33q0 -15 -5 -26l-62 -126l-23 8l32 99q-15 3 -25 15t-10 28z" />
    <glyph glyph-name="schwa" unicode="&#x259;" horiz-adv-x="516" 
d="M248 45q70 0 106.5 44t41.5 115h-286q0 -159 138 -159zM248 -8q-100 0 -148 57t-48 147q0 31 4 55h343q0 186 -148 186q-66 0 -98.5 -29.5t-38.5 -73.5h-52q-1 5 -1 15q0 67 55.5 103.5t135.5 36.5q105 0 156.5 -63.5t51.5 -182.5q0 -111 -52.5 -181t-159.5 -70z" />
    <glyph glyph-name="primemod" unicode="&#x2b9;" horiz-adv-x="197" 
d="M61 400l-39 19l117 269l69 -29z" />
    <glyph glyph-name="circumflex" unicode="&#x2c6;" horiz-adv-x="512" 
d="M384 545l-128 105l-131 -105l-27 27q10 9 67.5 66.5t67.5 66.5h49q10 -9 65.5 -66.5t65.5 -66.5z" />
    <glyph glyph-name="caron" unicode="&#x2c7;" horiz-adv-x="512" 
d="M255 603l127 101l30 -26l-131 -130h-50q-10 9 -67.5 65t-67.5 65q2 1 14.5 13.5t12.5 13.5z" />
    <glyph glyph-name="breve" unicode="&#x2d8;" horiz-adv-x="516" 
d="M257 548q-73 0 -111 46.5t-41 100.5h50q2 -38 26.5 -67t76.5 -29q50 0 75 29.5t28 66.5h48q-3 -55 -41 -101t-111 -46z" />
    <glyph glyph-name="dotaccent" unicode="&#x2d9;" horiz-adv-x="516" 
d="M226 616q0 18 12.5 31t30.5 13t30.5 -13t12.5 -31t-12.5 -30.5t-30.5 -12.5t-30.5 12.5t-12.5 30.5z" />
    <glyph glyph-name="ring" unicode="&#x2da;" horiz-adv-x="512" 
d="M263 541q-42 0 -70.5 29t-28.5 70t28.5 69.5t70.5 28.5q43 0 72.5 -28.5t29.5 -69.5q0 -42 -30 -70.5t-72 -28.5zM263 700q-24 0 -40.5 -18t-16.5 -42q0 -25 16 -43t41 -18q27 0 43.5 18t16.5 43q0 24 -16.5 42t-43.5 18z" />
    <glyph glyph-name="ogonek" unicode="&#x2db;" horiz-adv-x="516" 
d="M440 23l12 -13q-65 -64 -65 -128q0 -50 62 -50q35 0 72 11l8 -26q-47 -24 -102 -24q-46 0 -70.5 19t-24.5 50q0 36 25.5 79.5t82.5 81.5z" />
    <glyph glyph-name="tilde" unicode="&#x2dc;" horiz-adv-x="505" 
d="M321 574q-25 0 -70 18t-64 18q-33 0 -65 -40l-31 23q13 33 40 51.5t56 18.5q23 0 66 -18t64 -18q36 0 66 39l32 -22q-12 -34 -38.5 -52t-55.5 -18z" />
    <glyph glyph-name="hungarumlaut" unicode="&#x2dd;" horiz-adv-x="512" 
d="M177 551l-32 26l117 149l54 -45zM307 551l-32 26l117 149l54 -45z" />
    <glyph glyph-name="tonos" unicode="&#x384;" horiz-adv-x="512" 
d="M266 536l-38 18l72 171l66 -26z" />
    <glyph glyph-name="dieresistonos" unicode="&#x385;" horiz-adv-x="512" 
d="M254 536l-37 17l71 172l67 -27zM127 599q0 16 11 27.5t27 11.5q17 0 28 -11t11 -28q0 -16 -11.5 -27t-27.5 -11t-27 11t-11 27zM335 599q0 17 11.5 28t27.5 11t27.5 -11.5t11.5 -27.5t-11.5 -27t-27.5 -11t-27.5 11t-11.5 27z" />
    <glyph glyph-name="Alphatonos" unicode="&#x386;" horiz-adv-x="595" 
d="M518 0l-68 178h-309l-65 -178h-66l255 676h63l257 -676h-67zM299 598h-7q-19 -63 -60 -174l-72 -193h273l-72 188q-49 136 -62 179zM28 520l-38 18l72 171l66 -26z" />
    <glyph glyph-name="anoteleia" unicode="&#x387;" horiz-adv-x="227" 
d="M61 357q0 23 15 38.5t37 15.5q23 0 38.5 -15.5t15.5 -38.5q0 -22 -16 -37.5t-38 -15.5t-37 15.5t-15 37.5z" />
    <glyph glyph-name="Epsilontonos" unicode="&#x388;" horiz-adv-x="543" 
d="M67 0v674h428v-55h-366v-243h337v-57h-337v-261h378v-58h-440zM-89 520l-38 18l72 171l66 -26z" />
    <glyph glyph-name="Etatonos" unicode="&#x389;" horiz-adv-x="650" 
d="M522 0v324h-395v-324h-62v675h62v-294h395v294h63v-675h-63zM-83 520l-38 18l72 171l66 -26z" />
    <glyph glyph-name="Iotatonos" unicode="&#x38a;" horiz-adv-x="232" 
d="M85 0v674h62v-674h-62zM-64 520l-38 18l72 171l66 -26z" />
    <glyph glyph-name="Omicrontonos" unicode="&#x38c;" horiz-adv-x="676" 
d="M341 681q280 0 280 -350q0 -69 -13.5 -126t-44.5 -106.5t-88.5 -77.5t-137.5 -28q-154 0 -218 87.5t-64 249.5q0 164 69 257.5t217 93.5zM340 624q-222 0 -222 -294q0 -282 218 -282q106 0 163 70.5t57 212.5q0 293 -216 293zM-44 520l-38 18l72 171l66 -26z" />
    <glyph glyph-name="Upsilontonos" unicode="&#x38e;" horiz-adv-x="545" 
d="M265 333h8q11 29 92 173l94 168h72l-232 -402v-272h-63v271l-226 403h71l94 -170q63 -114 90 -171zM-120 520l-38 18l72 171l66 -26z" />
    <glyph glyph-name="Omegatonos" unicode="&#x38f;" horiz-adv-x="706" 
d="M353 626q-115 -1 -174 -77.5t-59 -207.5q0 -126 39.5 -191.5t118.5 -89.5v-60h-244v57h130l2 3q-109 71 -109 275q0 99 30 175t99 124t171 48q77 0 135.5 -28t92 -77t50 -108.5t16.5 -128.5q0 -86 -29 -163t-86 -117l2 -3h131v-57h-241v59q158 49 158 285q0 130 -60 206
t-173 76zM-45 520l-38 18l72 171l66 -26z" />
    <glyph glyph-name="iotadieresistonos" unicode="&#x390;" horiz-adv-x="237" 
d="M88 0v481h62v-481h-62zM112 536l-37 17l71 172l67 -27zM-15 599q0 16 11 27.5t27 11.5q17 0 28 -11t11 -28q0 -16 -11.5 -27t-27.5 -11t-27 11t-11 27zM193 599q0 17 11.5 28t27.5 11t27.5 -11.5t11.5 -27.5t-11.5 -27t-27.5 -11t-27.5 11t-11.5 27z" />
    <glyph glyph-name="Alpha" unicode="&#x391;" horiz-adv-x="595" 
d="M518 0l-68 178h-309l-65 -178h-66l255 676h63l257 -676h-67zM299 598h-7q-19 -63 -60 -174l-72 -193h273l-72 188q-49 136 -62 179z" />
    <glyph glyph-name="Beta" unicode="&#x392;" horiz-adv-x="604" 
d="M430 356v-5q58 -16 90.5 -59t32.5 -102q0 -87 -56 -138.5t-164 -51.5h-268v675h269q93 0 145 -45t52 -128q0 -44 -25.5 -85.5t-75.5 -60.5zM327 619h-200v-240h205q59 0 97 32t38 86q0 60 -39 91t-101 31zM338 324h-211v-268h203q72 0 115 32.5t43 98.5q0 67 -42.5 102
t-107.5 35z" />
    <glyph glyph-name="Gamma" unicode="&#x393;" horiz-adv-x="521" 
d="M65 0v674h439v-56h-378v-618h-61z" />
    <glyph glyph-name="Delta" unicode="&#x394;" horiz-adv-x="606" 
d="M593 0h-581l255 674h67zM303 597h-7q-35 -107 -80 -229l-113 -311h397l-116 314q-52 141 -81 226z" />
    <glyph glyph-name="Delta" unicode="&#x2206;" horiz-adv-x="606" 
d="M593 0h-581l255 674h67zM303 597h-7q-35 -107 -80 -229l-113 -311h397l-116 314q-52 141 -81 226z" />
    <glyph glyph-name="Epsilon" unicode="&#x395;" horiz-adv-x="541" 
d="M65 0v674h428v-55h-366v-243h337v-57h-337v-261h378v-58h-440z" />
    <glyph glyph-name="Zeta" unicode="&#x396;" horiz-adv-x="558" 
d="M29 0v53l415 565h-395v57h470v-52l-413 -567h423v-56h-500z" />
    <glyph glyph-name="Eta" unicode="&#x397;" horiz-adv-x="650" 
d="M522 0v324h-395v-324h-62v675h62v-294h395v294h63v-675h-63z" />
    <glyph glyph-name="Theta" unicode="&#x398;" horiz-adv-x="694" 
d="M185 319v54h325v-54h-325zM351 682q65 0 116 -19t83 -51t52.5 -78t28.5 -95.5t8 -107.5q0 -68 -14.5 -125.5t-46 -107t-90.5 -77.5t-140 -28q-157 0 -225 88t-68 249q0 164 72 258t224 94zM350 625q-231 0 -231 -295q0 -282 229 -282q109 0 167.5 70t58.5 213
q0 294 -224 294z" />
    <glyph glyph-name="Iota" unicode="&#x399;" horiz-adv-x="232" 
d="M85 0v674h62v-674h-62z" />
    <glyph glyph-name="Kappa" unicode="&#x39a;" horiz-adv-x="546" 
d="M127 674v-298h109l230 298h73l-253 -324l262 -350h-79l-234 319h-108v-319h-62v674h62z" />
    <glyph glyph-name="Lambda" unicode="&#x39b;" horiz-adv-x="608" 
d="M525 0l-162 426q-30 79 -60 167h-6q-21 -67 -56 -163q-18 -43 -161 -430h-68l257 674h64l260 -674h-68z" />
    <glyph glyph-name="Mu" unicode="&#x39c;" horiz-adv-x="785" 
d="M143 674l152 -309l94 -203h6l82 182l162 330h77v-674h-63v571h-4q-25 -58 -66 -141l-163 -331h-57l-143 285q-48 94 -87 186h-4v-570h-62v674h76z" />
    <glyph glyph-name="Nu" unicode="&#x39d;" horiz-adv-x="655" 
d="M132 568q-1 -1 -5 -1v-567h-62v674h58l233 -326l166 -241h5v567h63v-674h-59l-252 352q-102 141 -147 216z" />
    <glyph glyph-name="Xi" unicode="&#x39e;" horiz-adv-x="556" 
d="M32 59h494v-59h-494v59zM79 376h397v-57h-397v57zM512 617h-469v57h469v-57z" />
    <glyph glyph-name="Omicron" unicode="&#x39f;" horiz-adv-x="676" 
d="M341 681q280 0 280 -350q0 -69 -13.5 -126t-44.5 -106.5t-88.5 -77.5t-137.5 -28q-154 0 -218 87.5t-64 249.5q0 164 69 257.5t217 93.5zM340 624q-222 0 -222 -294q0 -282 218 -282q106 0 163 70.5t57 212.5q0 293 -216 293z" />
    <glyph glyph-name="Pi" unicode="&#x3a0;" horiz-adv-x="648" 
d="M521 0v619h-394v-619h-62v675h518v-675h-62z" />
    <glyph glyph-name="Rho" unicode="&#x3a1;" horiz-adv-x="566" 
d="M325 247h-198v-247h-62v674h264q104 0 162.5 -61t58.5 -154q0 -37 -11 -71.5t-35.5 -67.5t-70.5 -53t-108 -20zM325 619h-198v-315h195q69 0 116.5 37.5t47.5 116.5q0 72 -44.5 116.5t-116.5 44.5z" />
    <glyph glyph-name="Sigma" unicode="&#x3a3;" horiz-adv-x="565" 
d="M35 54l225 305l-222 263v53h487v-56h-410l219 -260l-224 -302h431v-57h-506v54z" />
    <glyph glyph-name="Tau" unicode="&#x3a4;" horiz-adv-x="556" 
d="M311 619v-619h-62v619h-234v55h526v-55h-230z" />
    <glyph glyph-name="Upsilon" unicode="&#x3a5;" horiz-adv-x="545" 
d="M265 333h8q11 29 92 173l94 168h72l-232 -402v-272h-63v271l-226 403h71l94 -170q63 -114 90 -171z" />
    <glyph glyph-name="Phi" unicode="&#x3a6;" horiz-adv-x="737" 
d="M405 675v-28q80 -5 137 -31.5t87.5 -69.5t44 -91.5t13.5 -106.5q0 -52 -15 -99t-46.5 -89t-88 -69.5t-132.5 -33.5v-57h-64v56q-151 11 -221 89t-70 202q0 129 73 210.5t218 89.5v28h64zM113 347q0 -220 228 -238v486q-116 -7 -172 -74.5t-56 -173.5zM624 348
q0 109 -52 175t-167 72v-486q101 8 160 70.5t59 168.5z" />
    <glyph glyph-name="Chi" unicode="&#x3a7;" horiz-adv-x="543" 
d="M468 0l-193 304l-193 -304h-74l231 349l-212 325h72l176 -279l178 279h71l-213 -325l232 -349h-75z" />
    <glyph glyph-name="Psi" unicode="&#x3a8;" horiz-adv-x="692" 
d="M317 1v174q-141 9 -207.5 82.5t-66.5 195.5v222h63v-224q0 -203 211 -221v446h63v-445q97 9 151 63.5t54 157.5v223h62v-224q0 -111 -67 -188.5t-200 -87.5v-174h-63z" />
    <glyph glyph-name="Omega" unicode="&#x3a9;" horiz-adv-x="706" 
d="M353 626q-115 -1 -174 -77.5t-59 -207.5q0 -126 39.5 -191.5t118.5 -89.5v-60h-244v57h130l2 3q-109 71 -109 275q0 99 30 175t99 124t171 48q77 0 135.5 -28t92 -77t50 -108.5t16.5 -128.5q0 -86 -29 -163t-86 -117l2 -3h131v-57h-241v59q158 49 158 285q0 130 -60 206
t-173 76z" />
    <glyph glyph-name="Iotadieresis" unicode="&#x3aa;" horiz-adv-x="232" 
d="M85 0v674h62v-674h-62zM-7 792q0 16 11 27.5t27 11.5q17 0 28 -11.5t11 -27.5q0 -15 -11.5 -26.5t-27.5 -11.5t-27 11.5t-11 26.5zM159 792q0 16 11.5 27.5t27.5 11.5t27.5 -11.5t11.5 -27.5q0 -15 -11.5 -26.5t-27.5 -11.5t-27.5 11.5t-11.5 26.5z" />
    <glyph glyph-name="Upsilondieresis" unicode="&#x3ab;" horiz-adv-x="545" 
d="M265 333h8q11 29 92 173l94 168h72l-232 -402v-272h-63v271l-226 403h71l94 -170q63 -114 90 -171zM148 789q0 16 11 27.5t27 11.5t27.5 -11t11.5 -28q0 -15 -11.5 -26.5t-27.5 -11.5t-27 11.5t-11 26.5zM314 789q0 17 11 28t28 11q16 0 27.5 -11.5t11.5 -27.5
q0 -15 -11.5 -26.5t-27.5 -11.5t-27.5 11.5t-11.5 26.5z" />
    <glyph glyph-name="alphatonos" unicode="&#x3ac;" horiz-adv-x="533" 
d="M257 489q111 0 156 -74h4q0 40 12 66h44v-481h-47q-10 21 -10 77h-4q-50 -85 -159 -85q-110 0 -156.5 64.5t-46.5 182.5q0 110 52 180t155 70zM261 45q52 0 88 28t50 65.5t14 78.5v63q0 71 -39.5 115t-109.5 44q-153 0 -153 -199q0 -195 150 -195zM272 536l-38 18l72 171
l66 -26z" />
    <glyph glyph-name="epsilontonos" unicode="&#x3ad;" horiz-adv-x="457" 
d="M233 536l-38 18l72 171l66 -26zM243 -8q-98 0 -146 39t-48 102q0 88 79 118v4q-70 23 -70 95q0 62 45.5 100.5t135.5 38.5q76 0 126.5 -35t50.5 -99q0 -9 -1 -15l-54 -1q-2 45 -35.5 71t-92.5 26q-48 0 -80 -22.5t-32 -62.5q0 -36 25 -52t59 -16h96v-54h-97
q-43 0 -68 -25.5t-25 -64.5q0 -42 32 -69.5t96 -27.5q67 0 101.5 32.5t36.5 84.5h52q0 -3 0.5 -8.5t0.5 -7.5q0 -73 -52.5 -112t-134.5 -39z" />
    <glyph glyph-name="etatonos" unicode="&#x3ae;" horiz-adv-x="526" 
d="M286 490q46 0 79.5 -12t52.5 -31t30 -47.5t14.5 -55t3.5 -61.5v-283h-61v276q0 35 -4.5 60t-17 51t-40 39.5t-69.5 13.5q-72 0 -113 -51.5t-41 -119.5v-269h-60v481h46q13 -26 13 -75h4q27 43 73.5 63.5t89.5 20.5zM243 536l-38 18l72 171l66 -26z" />
    <glyph glyph-name="iotatonos" unicode="&#x3af;" horiz-adv-x="237" 
d="M125 536l-38 18l72 171l66 -26zM88 0v481h60v-481h-60z" />
    <glyph glyph-name="upsilondieresistonos" unicode="&#x3b0;" horiz-adv-x="522" 
d="M464 183q0 -95 -54.5 -143t-151.5 -48q-98 0 -149 48t-51 143v298h61v-294q0 -74 38 -108.5t102 -34.5t104 35t40 109v293h61v-298zM251 536l-37 17l71 172l67 -27zM124 599q0 16 11 27.5t27 11.5t27.5 -11t11.5 -28q0 -16 -11.5 -27t-27.5 -11t-27 11t-11 27zM332 599
q0 17 11 28t28 11q16 0 27.5 -11.5t11.5 -27.5t-11.5 -27t-27.5 -11t-27.5 11t-11.5 27z" />
    <glyph glyph-name="alpha" unicode="&#x3b1;" horiz-adv-x="533" 
d="M257 489q111 0 156 -74h4q0 40 12 66h44v-481h-47q-10 21 -10 77h-4q-50 -85 -159 -85q-110 0 -156.5 64.5t-46.5 182.5q0 110 52 180t155 70zM261 45q52 0 88 28t50 65.5t14 78.5v63q0 71 -39.5 115t-109.5 44q-153 0 -153 -199q0 -195 150 -195z" />
    <glyph glyph-name="beta" unicode="&#x3b2;" horiz-adv-x="531" 
d="M119 -155h-59v655q0 96 49 155.5t144 59.5q92 0 141 -45t49 -121q0 -11 -3 -25.5t-10.5 -34.5t-24.5 -37.5t-41 -27.5v-5q61 -16 91.5 -69.5t30.5 -130.5q0 -98 -51.5 -162.5t-160.5 -64.5q-107 0 -151 75h-4v-222zM254 664q-41 0 -69.5 -16.5t-41 -44t-17.5 -52.5
t-5 -53v-288q0 -72 38 -119.5t116 -47.5q71 0 110 47t39 134q0 49 -13.5 84t-36.5 52t-45.5 24t-47.5 7h-62v51h61q44 0 72.5 33t28.5 75q0 56 -35.5 85t-91.5 29z" />
    <glyph glyph-name="gamma" unicode="&#x3b3;" horiz-adv-x="438" 
d="M221 94h6q24 88 58 178l78 209h63l-172 -456v-227h-61v219l-141 387q-7 20 -12.5 26t-16.5 6q-9 0 -11 -1l-6 44q30 11 46 11q21 0 33 -15t24 -49l57 -156q39 -112 55 -176z" />
    <glyph glyph-name="delta" unicode="&#x3b4;" horiz-adv-x="537" 
d="M112 231q0 -187 157 -187q76 0 115.5 53t39.5 133q0 112 -65 193q-42 5 -69 5q-178 0 -178 -197zM452 643h-257q-1 -1 -1 -3q147 -95 219.5 -189.5t72.5 -211.5q0 -118 -58.5 -182t-161.5 -64q-216 0 -216 233q0 47 11 88.5t35 79t70 59.5t108 22q27 0 42 -2
q-80 82 -233 172v51h369v-53z" />
    <glyph glyph-name="epsilon" unicode="&#x3b5;" horiz-adv-x="457" 
d="M243 -8q-98 0 -146 39t-48 102q0 88 79 118v4q-70 23 -70 95q0 62 45.5 100.5t135.5 38.5q76 0 126.5 -35t50.5 -99q0 -9 -1 -15l-54 -1q-2 45 -35.5 71t-92.5 26q-48 0 -80 -22.5t-32 -62.5q0 -36 25 -52t59 -16h96v-54h-97q-43 0 -68 -25.5t-25 -64.5q0 -42 32 -69.5
t96 -27.5q67 0 101.5 32.5t36.5 84.5h52q0 -3 0.5 -8.5t0.5 -7.5q0 -73 -52.5 -112t-134.5 -39z" />
    <glyph glyph-name="zeta" unicode="&#x3b6;" horiz-adv-x="413" 
d="M352 642l-4 3h-274v54h368v-49q-147 -124 -237.5 -240t-90.5 -200q0 -55 41.5 -85t161.5 -77q57 -22 78.5 -40.5t21.5 -46.5q0 -20 -24.5 -59t-54.5 -72l-42 27q53 79 53 97q0 12 -19 22.5t-74 31.5q-4 1 -6 2q-109 42 -154 81t-45 117q0 84 84.5 201t216.5 233z" />
    <glyph glyph-name="eta" unicode="&#x3b7;" horiz-adv-x="526" 
d="M286 490q46 0 79.5 -12t52.5 -31t30 -47.5t14.5 -55t3.5 -61.5v-283h-61v276q0 35 -4.5 60t-17 51t-40 39.5t-69.5 13.5q-72 0 -113 -51.5t-41 -119.5v-269h-60v481h46q13 -26 13 -75h4q27 43 73.5 63.5t89.5 20.5z" />
    <glyph glyph-name="theta" unicode="&#x3b8;" horiz-adv-x="534" 
d="M268 715q54 0 93.5 -20.5t63 -53.5t37 -82.5t18 -97.5t4.5 -110q0 -57 -4.5 -103.5t-18.5 -96t-36.5 -83t-62.5 -55t-94 -21.5q-52 0 -90.5 18.5t-62.5 49t-39 77.5t-20.5 97.5t-5.5 114.5q0 82 10.5 145t34 114.5t67.5 79t106 27.5zM268 43q88 0 122 77.5t34 234.5h-313
q0 -75 6.5 -128.5t23.5 -97t48.5 -65t78.5 -21.5zM268 664q-84 0 -118 -68.5t-39 -192.5h311q-2 59 -9.5 103.5t-24 81.5t-47 56.5t-73.5 19.5z" />
    <glyph glyph-name="iota" unicode="&#x3b9;" horiz-adv-x="237" 
d="M88 0v481h62v-481h-62z" />
    <glyph glyph-name="kappa" unicode="&#x3ba;" horiz-adv-x="458" 
d="M374 480h68l-181 -220l190 -260h-73l-165 229h-93v-229h-60v481h60v-201h88z" />
    <glyph glyph-name="lambda" unicode="&#x3bb;" horiz-adv-x="450" 
d="M228 423h-5q-12 -40 -56 -162l-96 -261h-63l180 482h20l-18 56t-19 57q-14 41 -29.5 52.5t-47.5 11.5h-31v52h50q31 0 51.5 -7t34.5 -27t21.5 -38t19.5 -58l158 -505q7 -20 14 -25t29 -5l4 -39q-25 -11 -46 -11q-26 0 -39.5 21.5t-29.5 73.5l-50 159q-39 122 -52 173z
" />
    <glyph glyph-name="nu" unicode="&#x3bd;" horiz-adv-x="455" 
d="M225 63h6q27 97 83 241l66 177h61l-182 -484h-66l-181 484h62l69 -183q57 -153 82 -235z" />
    <glyph glyph-name="xi" unicode="&#x3be;" horiz-adv-x="428" 
d="M257 714q73 0 125.5 -31.5t52.5 -95.5q0 -5 -2 -19l-51 -1q-2 42 -34.5 68t-90.5 26q-64 0 -97 -34t-33 -80q0 -61 43 -89t105 -28h97v-53h-104q-77 0 -116.5 -47.5t-39.5 -112.5q0 -61 43.5 -92.5t154.5 -65.5q69 -23 91.5 -42.5t22.5 -48.5q0 -38 -71 -130l-43 26
q46 76 46 95q0 15 -17 25.5t-65 25.5q-120 37 -171.5 81.5t-51.5 122.5q0 59 29 109.5t90 75.5v5q-106 35 -106 144q0 64 48 115t145 51z" />
    <glyph glyph-name="omicron" unicode="&#x3bf;" horiz-adv-x="537" 
d="M270 489q60 0 104 -20.5t67.5 -57t34.5 -79t11 -93.5q0 -49 -11 -91t-35 -78.5t-67.5 -57t-103.5 -20.5q-220 0 -220 245q0 114 54.5 183t165.5 69zM270 434q-158 0 -158 -197q0 -96 38 -144t120 -48q154 0 154 194q0 195 -154 195z" />
    <glyph glyph-name="pi" unicode="&#x3c0;" horiz-adv-x="536" 
d="M415 429h-295v-429h-60v481h416v-481h-61v429z" />
    <glyph glyph-name="rho" unicode="&#x3c1;" horiz-adv-x="533" 
d="M269 45q152 0 152 198q0 99 -40 146.5t-111 47.5q-76 0 -113.5 -49.5t-37.5 -121.5v-53q0 -70 37.5 -119t112.5 -49zM57 -202v444q0 112 52.5 179.5t162.5 67.5q58 0 100 -20t65.5 -55.5t34.5 -78t11 -94.5q0 -108 -49 -178.5t-157 -70.5q-114 0 -154 80h-5v-274h-61z
" />
    <glyph glyph-name="sigma1" unicode="&#x3c2;" horiz-adv-x="453" 
d="M261 435q-80 0 -116 -50t-36 -149q0 -65 33.5 -96t128.5 -71q76 -30 99.5 -52t23.5 -52q0 -15 -16.5 -49t-53.5 -78l-44 27q46 72 46 95q0 14 -20.5 27.5t-69.5 32.5q-111 43 -150 88.5t-39 126.5q0 116 50.5 185t164.5 69q75 0 126.5 -33t51.5 -95q0 -5 -2 -21h-51
q-2 44 -35 69.5t-91 25.5z" />
    <glyph glyph-name="sigma" unicode="&#x3c3;" horiz-adv-x="542" 
d="M411 433l-2 -5q78 -52 78 -193q0 -43 -10.5 -83t-33.5 -77.5t-67 -60t-104 -22.5q-219 0 -219 242q0 111 53 179t166 68h242v-52h-35q-41 0 -68 4zM272 431q-158 0 -158 -197q0 -190 158 -190q72 0 112.5 51.5t40.5 139.5q0 196 -153 196z" />
    <glyph glyph-name="tau" unicode="&#x3c4;" horiz-adv-x="379" 
d="M358 428h-163q0 -46 -0.5 -139t-0.5 -139q0 -59 23 -83t75 -24q38 0 69 3v-47q-30 -5 -77 -5q-84 0 -117 34.5t-33 125.5v274h-117v52q57 0 170.5 0.5t170.5 0.5v-53z" />
    <glyph glyph-name="upsilon" unicode="&#x3c5;" horiz-adv-x="522" 
d="M464 183q0 -95 -54.5 -143t-151.5 -48q-98 0 -149 48t-51 143v298h61v-294q0 -74 38 -108.5t102 -34.5t104 35t40 109v293h61v-298z" />
    <glyph glyph-name="phi" unicode="&#x3c6;" horiz-adv-x="643" 
d="M351 434v-389q87 5 134 54t47 141q0 193 -181 194zM290 45v442h60q243 0 243 -247q0 -99 -58.5 -169.5t-183.5 -76.5v-196h-61v196q-71 3 -120 23.5t-74 56.5t-35.5 75.5t-10.5 89.5q0 83 36 147t110 85l18 -44q-103 -45 -103 -188q0 -95 45 -142t134 -52z" />
    <glyph glyph-name="chi" unicode="&#x3c7;" horiz-adv-x="429" 
d="M356 0l-138 205l-137 -205h-71l173 250l-161 231h71l125 -187q5 8 35 52.5l56 83t34 51.5h70l-160 -231l173 -250h-70z" />
    <glyph glyph-name="psi" unicode="&#x3c8;" horiz-adv-x="613" 
d="M272 -202v195q-106 5 -161 55t-55 155v278h63v-276q0 -148 153 -160v436h61v-436q161 9 161 160v276h62v-278q0 -101 -59 -154t-164 -57v-194h-61z" />
    <glyph glyph-name="omega" unicode="&#x3c9;" horiz-adv-x="780" 
d="M730 239q0 -247 -196 -247q-51 0 -89 24.5t-55 61.5h-6q-47 -86 -151 -86q-102 0 -142.5 62.5t-40.5 178.5q0 73 18.5 127.5t66.5 90.5t123 37v-54q-81 -3 -114 -54t-33 -142q0 -94 27 -144t101 -50q60 0 89.5 40t29.5 95v148h61v-153q0 -55 32.5 -92.5t84.5 -37.5
q132 0 132 194q0 189 -147 196v54q108 -2 158.5 -71t50.5 -178z" />
    <glyph glyph-name="iotadieresis" unicode="&#x3ca;" horiz-adv-x="237" 
d="M88 0v481h62v-481h-62zM-2 606q0 16 11 27.5t27 11.5t27.5 -11.5t11.5 -27.5t-11.5 -27t-27.5 -11t-27 11t-11 27zM164 606q0 16 11 27.5t27 11.5t27.5 -11.5t11.5 -27.5t-11.5 -27t-27.5 -11t-27 11t-11 27z" />
    <glyph glyph-name="upsilondieresis" unicode="&#x3cb;" horiz-adv-x="522" 
d="M464 183q0 -95 -54.5 -143t-151.5 -48q-98 0 -149 48t-51 143v298h61v-294q0 -74 38 -108.5t102 -34.5t104 35t40 109v293h61v-298zM140 606q0 16 11 27.5t27 11.5t27.5 -11.5t11.5 -27.5t-11.5 -27t-27.5 -11t-27 11t-11 27zM306 606q0 16 11 27.5t27 11.5t27.5 -11.5
t11.5 -27.5t-11.5 -27t-27.5 -11t-27 11t-11 27z" />
    <glyph glyph-name="omicrontonos" unicode="&#x3cc;" horiz-adv-x="537" 
d="M270 489q60 0 104 -20.5t67.5 -57t34.5 -79t11 -93.5q0 -49 -11 -91t-35 -78.5t-67.5 -57t-103.5 -20.5q-220 0 -220 245q0 114 54.5 183t165.5 69zM270 434q-158 0 -158 -197q0 -96 38 -144t120 -48q154 0 154 194q0 195 -154 195zM278 536l-38 18l72 171l66 -26z" />
    <glyph glyph-name="upsilontonos" unicode="&#x3cd;" horiz-adv-x="522" 
d="M265 536l-38 18l72 171l66 -26zM464 183q0 -95 -54.5 -143t-151.5 -48q-98 0 -149 48t-51 143v298h61v-294q0 -74 38 -108.5t102 -34.5t104 35t40 109v293h61v-298z" />
    <glyph glyph-name="omegatonos" unicode="&#x3ce;" horiz-adv-x="780" 
d="M730 239q0 -247 -196 -247q-51 0 -89 24.5t-55 61.5h-6q-47 -86 -151 -86q-102 0 -142.5 62.5t-40.5 178.5q0 73 18.5 127.5t66.5 90.5t123 37v-54q-81 -3 -114 -54t-33 -142q0 -94 27 -144t101 -50q60 0 89.5 40t29.5 95v148h61v-153q0 -55 32.5 -92.5t84.5 -37.5
q132 0 132 194q0 189 -147 196v54q108 -2 158.5 -71t50.5 -178zM391 536l-38 18l72 171l66 -26z" />
    <glyph glyph-name="Sampigreek" unicode="&#x3e0;" horiz-adv-x="642" 
d="M27 621l5 36q268 -14 409.5 -157t141.5 -367q0 -97 -30 -205q-2 1 -10.5 2.5t-18.5 3t-11 1.5q14 89 14 156q0 101 -28 185l-296 -167l-29 45l308 164q-27 69 -67 113q-6 -4 -79.5 -45l-144.5 -80.5t-73 -41.5l-31 44l295 159q-121 128 -355 154z" />
    <glyph glyph-name="sampigreek" unicode="&#x3e1;" horiz-adv-x="558" 
d="M40 457l3 35q224 -12 340.5 -134.5t116.5 -313.5q0 -79 -23 -174l-38 6q11 71 11 135q0 85 -22 154l-237 -138l-27 41l249 138q-24 52 -52 89l-240 -138l-30 41l239 130q-100 108 -290 129z" />
    <glyph glyph-name="afii10023" unicode="&#x401;" horiz-adv-x="541" 
d="M65 0v674h428v-55h-366v-243h337v-57h-337v-261h378v-58h-440zM165 792q0 16 11 27.5t27 11.5q17 0 28 -11.5t11 -27.5q0 -15 -11.5 -26.5t-27.5 -11.5t-27 11.5t-11 26.5zM331 792q0 16 11.5 27.5t27.5 11.5t27.5 -11.5t11.5 -27.5q0 -15 -11.5 -26.5t-27.5 -11.5
t-27.5 11.5t-11.5 26.5z" />
    <glyph glyph-name="afii10051" unicode="&#x402;" horiz-adv-x="768" 
d="M282 396q3 0 4 -1q90 71 207 71q61 0 105 -23t66.5 -62.5t32.5 -82.5t10 -93q0 -49 -8.5 -90t-29.5 -80t-63 -61.5t-102 -22.5q-10 0 -30 2q0 32 1 47q52 1 86.5 16t52 44t24 62t6.5 78q0 210 -169 210q-48 0 -101 -20t-92 -58v-332h-62v618h-210v56h582v-56h-310v-222z
" />
    <glyph glyph-name="afii10052" unicode="&#x403;" horiz-adv-x="526" 
d="M236 732l-24 33l149 112l44 -56zM67 0v674h439v-56h-378v-618h-61z" />
    <glyph glyph-name="afii10053" unicode="&#x404;" horiz-adv-x="595" 
d="M335 -7q-150 0 -215 87t-65 252q0 161 68 255t212 94q92 0 156.5 -44.5t64.5 -128.5q0 -12 -1 -19h-54q-2 59 -45.5 97.5t-124.5 38.5q-102 0 -155 -69.5t-57 -181.5h311v-55h-312q2 -137 54 -204t161 -67q93 0 136 43t45 105h58q1 -7 1 -17q0 -85 -69 -135.5t-169 -50.5
z" />
    <glyph glyph-name="afii10054" unicode="&#x405;" horiz-adv-x="613" 
d="M305 48q97 0 143.5 39t46.5 93q0 65 -44 99t-139 46q-44 5 -73 10.5t-63.5 17.5t-54.5 28.5t-34 45t-14 66.5q0 80 58 134.5t182 54.5q95 0 163.5 -45t68.5 -133q0 -6 -2 -20h-59q-1 60 -45.5 100t-128.5 40t-128.5 -35t-44.5 -87q0 -17 3 -30t12 -24l15.5 -18.5
t24.5 -14l28 -10t36.5 -8.5t39 -7l45.5 -7q107 -16 163.5 -61t56.5 -135q0 -81 -64 -138t-193 -57q-113 0 -182.5 49t-69.5 144q0 16 1 24h59q1 -70 47 -115.5t146 -45.5z" />
    <glyph glyph-name="afii10055" unicode="&#x406;" horiz-adv-x="232" 
d="M85 0v674h62v-674h-62z" />
    <glyph glyph-name="afii10056" unicode="&#x407;" horiz-adv-x="232" 
d="M85 0v674h62v-674h-62zM-3 785q0 16 11 27.5t27 11.5t27.5 -11.5t11.5 -27.5t-11.5 -27t-27.5 -11t-27 11t-11 27zM163 785q0 16 11 27.5t27 11.5t27.5 -11.5t11.5 -27.5t-11.5 -27t-27.5 -11t-27 11t-11 27z" />
    <glyph glyph-name="afii10057" unicode="&#x408;" horiz-adv-x="540" 
d="M236 -7q-96 0 -156 43.5t-60 122.5q0 16 2 25h58q2 -134 157 -136q166 0 166 177v449h62v-463q0 -32 -6 -60.5t-21.5 -58t-40.5 -51t-66.5 -35t-94.5 -13.5z" />
    <glyph glyph-name="afii10058" unicode="&#x409;" horiz-adv-x="973" 
d="M454 619h-236l-14 -239q-10 -174 -18 -219q-23 -133 -100 -162q-25 -10 -57 -10q-17 0 -23 2v50q61 4 87 39t36 117q7 58 17 234t15 243h355v-285h206q109 0 163.5 -55.5t54.5 -137.5q0 -93 -57.5 -144.5t-153.5 -51.5h-275v619zM516 56h202q68 0 112.5 35.5t44.5 105.5
q0 136 -162 136h-197v-277z" />
    <glyph glyph-name="afii10059" unicode="&#x40a;" horiz-adv-x="918" 
d="M479 390h193q64 0 110 -17.5t69.5 -47t34 -62t10.5 -68.5q0 -89 -56.5 -142t-164.5 -53h-257v331h-291v-331h-63v675h63v-285h291v285h61v-285zM479 57h190q71 0 117 34.5t46 102.5q0 40 -14.5 68.5t-39 43t-51.5 21t-59 6.5h-189v-276z" />
    <glyph glyph-name="afii10060" unicode="&#x40b;" horiz-adv-x="768" 
d="M281 395h4q95 71 217 71q200 0 200 -208v-258h-62v248q0 164 -154 164q-52 0 -109.5 -21.5t-95.5 -58.5v-332h-62v619h-209v55h575v-55h-304v-224z" />
    <glyph glyph-name="afii10061" unicode="&#x40c;" horiz-adv-x="546" 
d="M224 730l-24 33l149 112l44 -56zM127 674v-290h108l231 290h73l-254 -316l263 -358h-79l-235 327h-107v-327h-62v674h62z" />
    <glyph glyph-name="afii10062" unicode="&#x40e;" horiz-adv-x="520" 
d="M268 704q-73 0 -111 48.5t-41 103.5h49q3 -39 28 -70t76 -31q49 0 74.5 31.5t28.5 69.5h48q-3 -55 -41.5 -103.5t-110.5 -48.5zM260 225h7l175 449h65l-210 -532q-16 -38 -28 -60.5t-32 -46t-49 -34t-68 -10.5h-42v55h35q43 0 68.5 17.5t41.5 57.5l24 57l-29 -1l-212 497
h66z" />
    <glyph glyph-name="afii10145" unicode="&#x40f;" horiz-adv-x="650" 
d="M584 675q0 -450 1 -675h-229v-166h-62v166h-229v675h62v-618h395v618h62z" />
    <glyph glyph-name="afii10017" unicode="&#x410;" horiz-adv-x="595" 
d="M518 0l-68 178h-309l-65 -178h-66l255 676h63l257 -676h-67zM299 598h-7q-19 -63 -60 -174l-72 -193h273l-72 188q-49 136 -62 179z" />
    <glyph glyph-name="afii10018" unicode="&#x411;" horiz-adv-x="591" 
d="M65 0v675h423v-56h-362q0 -39 0.5 -115t0.5 -115h208q109 0 163.5 -56t54.5 -138q0 -94 -57 -144.5t-154 -50.5h-277zM127 56h205q68 0 112.5 35t44.5 105q0 73 -47 105t-115 32h-200v-277z" />
    <glyph glyph-name="afii10019" unicode="&#x412;" horiz-adv-x="604" 
d="M430 356v-5q58 -16 90.5 -59t32.5 -102q0 -87 -56 -138.5t-164 -51.5h-268v675h269q93 0 145 -45t52 -128q0 -44 -25.5 -85.5t-75.5 -60.5zM327 619h-200v-240h205q59 0 97 32t38 86q0 60 -39 91t-101 31zM338 324h-211v-268h203q72 0 115 32.5t43 98.5q0 67 -42.5 102
t-107.5 35z" />
    <glyph glyph-name="afii10020" unicode="&#x413;" horiz-adv-x="526" 
d="M67 0v674h439v-56h-378v-618h-61z" />
    <glyph glyph-name="afii10021" unicode="&#x414;" horiz-adv-x="658" 
d="M645 58v-210h-61v152h-517v-152h-61v210h61q35 63 54.5 147.5t30.5 233.5l18 235h406v-616h69zM513 619h-287l-14 -177q-8 -94 -14 -144t-22.5 -117t-42.5 -123h380v561z" />
    <glyph glyph-name="afii10022" unicode="&#x415;" horiz-adv-x="541" 
d="M65 0v674h428v-55h-366v-243h337v-57h-337v-261h378v-58h-440z" />
    <glyph glyph-name="afii10024" unicode="&#x416;" horiz-adv-x="873" 
d="M405 384v290h62v-290h90l228 290h73l-249 -316l258 -358h-77l-232 327h-91v-327h-62v327h-92l-234 -327h-74l257 358l-248 316h72l229 -290h90z" />
    <glyph glyph-name="afii10025" unicode="&#x417;" horiz-adv-x="581" 
d="M288 681q113 0 174.5 -50.5t61.5 -132.5q0 -43 -26.5 -83.5t-77.5 -60.5v-4q59 -17 87 -61.5t28 -96.5q0 -87 -64 -143.5t-187 -56.5q-44 0 -87 10.5t-81.5 31t-62 56.5t-23.5 82q0 14 3 30h54q5 -73 57 -115t141 -42q91 0 137.5 42t46.5 105q0 55 -36.5 94t-108.5 39
h-103v56h100q61 0 98.5 31t37.5 85q0 56 -43.5 92t-125.5 36q-80 0 -125.5 -35t-51.5 -98h-55q-1 7 -1 22q0 79 66 123t167 44z" />
    <glyph glyph-name="afii10026" unicode="&#x418;" horiz-adv-x="657" 
d="M530 580h-5q-41 -67 -99 -151l-298 -429h-63v674h63v-573h5q50 79 118 175l277 398h63v-674h-61v580z" />
    <glyph glyph-name="afii10027" unicode="&#x419;" horiz-adv-x="657" 
d="M327 720q-73 0 -111 46.5t-41 100.5h50q2 -38 26.5 -67t76.5 -29q50 0 75 29.5t28 66.5h48q-3 -55 -41 -101t-111 -46zM530 580h-5q-41 -67 -99 -151l-298 -429h-63v674h63v-573h5q50 79 118 175l277 398h63v-674h-61v580z" />
    <glyph glyph-name="afii10028" unicode="&#x41a;" horiz-adv-x="546" 
d="M127 674v-290h108l231 290h73l-254 -316l263 -358h-79l-235 327h-107v-327h-62v674h62z" />
    <glyph glyph-name="afii10029" unicode="&#x41b;" horiz-adv-x="619" 
d="M6 -9v51q70 5 94.5 46.5t35.5 182.5l31 403h387v-674h-61v618h-270l-28 -368q-11 -145 -46 -202.5t-120 -57.5q-17 0 -23 1z" />
    <glyph glyph-name="afii10030" unicode="&#x41c;" horiz-adv-x="778" 
d="M141 674l152 -309l94 -203h6l82 182l162 330h77v-674h-63v571h-4q-25 -58 -66 -141l-163 -331h-57l-143 285q-48 94 -87 186h-4v-570h-62v674h76z" />
    <glyph glyph-name="afii10031" unicode="&#x41d;" horiz-adv-x="650" 
d="M522 0v324h-395v-324h-62v675h62v-294h395v294h63v-675h-63z" />
    <glyph glyph-name="afii10032" unicode="&#x41e;" horiz-adv-x="676" 
d="M341 681q280 0 280 -350q0 -69 -13.5 -126t-44.5 -106.5t-88.5 -77.5t-137.5 -28q-154 0 -218 87.5t-64 249.5q0 164 69 257.5t217 93.5zM340 624q-222 0 -222 -294q0 -282 218 -282q106 0 163 70.5t57 212.5q0 293 -216 293z" />
    <glyph glyph-name="afii10033" unicode="&#x41f;" horiz-adv-x="648" 
d="M521 0v619h-394v-619h-62v675h518v-675h-62z" />
    <glyph glyph-name="afii10034" unicode="&#x420;" horiz-adv-x="566" 
d="M325 247h-198v-247h-62v674h264q104 0 162.5 -61t58.5 -154q0 -37 -11 -71.5t-35.5 -67.5t-70.5 -53t-108 -20zM325 619h-198v-315h195q69 0 116.5 37.5t47.5 116.5q0 72 -44.5 116.5t-116.5 44.5z" />
    <glyph glyph-name="afii10035" unicode="&#x421;" horiz-adv-x="604" 
d="M335 -7q-151 0 -215.5 87t-64.5 252q0 163 68 256t212 93q95 0 161.5 -47.5t66.5 -133.5q0 -11 -1 -17h-57q-3 62 -46.5 102t-126.5 40q-214 0 -214 -293q0 -141 51.5 -212.5t163.5 -71.5q92 0 135.5 44t45.5 110h58q1 -6 1 -17q0 -88 -67 -140t-171 -52z" />
    <glyph glyph-name="afii10036" unicode="&#x422;" horiz-adv-x="556" 
d="M311 619v-619h-62v619h-234v55h526v-55h-230z" />
    <glyph glyph-name="afii10037" unicode="&#x423;" horiz-adv-x="520" 
d="M260 225h7l175 449h65l-210 -532q-16 -38 -28 -60.5t-32 -46t-49 -34t-68 -10.5h-42v55h35q43 0 68.5 17.5t41.5 57.5l24 57l-29 -1l-212 497h66z" />
    <glyph glyph-name="afii10038" unicode="&#x424;" horiz-adv-x="737" 
d="M405 675v-28q80 -5 137 -31.5t87.5 -69.5t44 -91.5t13.5 -106.5q0 -52 -15 -99t-46.5 -89t-88 -69.5t-132.5 -33.5v-57h-64v56q-151 11 -221 89t-70 202q0 129 73 210.5t218 89.5v28h64zM113 347q0 -220 228 -238v486q-116 -7 -172 -74.5t-56 -173.5zM624 348
q0 109 -52 175t-167 72v-486q101 8 160 70.5t59 168.5z" />
    <glyph glyph-name="afii10039" unicode="&#x425;" horiz-adv-x="543" 
d="M468 0l-193 304l-193 -304h-74l231 349l-212 325h72l176 -279l178 279h71l-213 -325l232 -349h-75z" />
    <glyph glyph-name="afii10040" unicode="&#x426;" horiz-adv-x="667" 
d="M521 57v618h63v-618h66v-208h-62v151h-523v675h62v-618h394z" />
    <glyph glyph-name="afii10041" unicode="&#x427;" horiz-adv-x="591" 
d="M44 674h63v-192q0 -167 179 -167q81 0 177 23v336h63v-674h-64v284q-99 -24 -185 -24q-233 0 -233 209v205z" />
    <glyph glyph-name="afii10042" unicode="&#x428;" horiz-adv-x="933" 
d="M805 58v617h63v-675h-803v675h63v-617h308v617h62v-617h307z" />
    <glyph glyph-name="afii10043" unicode="&#x429;" horiz-adv-x="949" 
d="M804 57v618h63v-618h66v-208h-62v151h-806v675h62v-618h307v618h62v-618h308z" />
    <glyph glyph-name="afii10044" unicode="&#x42a;" horiz-adv-x="782" 
d="M12 619v56h304v-286h207q110 0 164.5 -56t54.5 -138q0 -94 -57 -144.5t-154 -50.5h-277v619h-242zM316 56h205q68 0 112 35t44 105q0 73 -46.5 105t-114.5 32h-200v-277z" />
    <glyph glyph-name="afii10045" unicode="&#x42b;" horiz-adv-x="749" 
d="M621 0v675h62v-675h-62zM65 0v675h61v-286h206q109 0 163.5 -56t54.5 -138q0 -94 -57 -144.5t-154 -50.5h-274zM126 56h203q68 0 112 35t44 105q0 73 -46.5 105t-114.5 32h-198v-277z" />
    <glyph glyph-name="afii10046" unicode="&#x42c;" horiz-adv-x="588" 
d="M65 0v675h61v-286h206q109 0 163.5 -56t54.5 -138q0 -94 -57 -144.5t-154 -50.5h-274zM126 56h203q68 0 112 35t44 105q0 73 -46.5 105t-114.5 32h-198v-277z" />
    <glyph glyph-name="afii10047" unicode="&#x42d;" horiz-adv-x="609" 
d="M275 47q212 0 215 277h-314v55h313q0 47 -11.5 89t-35 78t-64 57t-93.5 21q-161 0 -177 -134h-56q0 2 -0.5 5t-0.5 5q0 87 66.5 133.5t162.5 46.5q74 0 128.5 -26t85.5 -73t45.5 -105.5t14.5 -131.5q0 -350 -283 -350q-101 0 -169 49t-68 139q0 2 0.5 6t0.5 6h58
q1 -62 48 -104.5t134 -42.5z" />
    <glyph glyph-name="afii10048" unicode="&#x42e;" horiz-adv-x="873" 
d="M545 681q273 0 273 -350q0 -67 -13 -123.5t-42 -106.5t-85 -79t-134 -29q-76 0 -131 24t-86 69.5t-45.5 102.5t-15.5 130h-139v-319h-62v675h62v-298h140q7 89 36 155t91 107.5t151 41.5zM543 624q-214 0 -214 -294q0 -282 214 -282q101 0 155.5 70t54.5 213
q0 293 -210 293z" />
    <glyph glyph-name="afii10049" unicode="&#x42f;" horiz-adv-x="598" 
d="M52 474q0 92 58 146.5t164 54.5h254v-675h-62v278h-125l-208 -278h-76l211 278q-102 4 -159 55t-57 141zM466 619h-185q-72 0 -118 -38t-46 -106q0 -77 47 -109t117 -32h185v285z" />
    <glyph glyph-name="afii10065" unicode="&#x430;" horiz-adv-x="491" 
d="M242 489q190 0 190 -164v-325h-47q-11 20 -11 72h-4q-52 -80 -172 -80q-73 0 -118 34t-45 104q0 81 62.5 121t164.5 40q54 0 109 -9v34q0 122 -128 122q-55 0 -85.5 -24t-35.5 -63h-54q-1 5 -1 12q0 45 28.5 74.5t66 40.5t80.5 11zM203 41q83 0 126 44t43 100v47
q-52 12 -109 12q-78 0 -122.5 -30.5t-44.5 -84.5q0 -39 28 -63.5t79 -24.5z" />
    <glyph glyph-name="afii10066" unicode="&#x431;" horiz-adv-x="537" 
d="M111 382q1 0 2.5 -0.5t2.5 -0.5q21 46 67.5 70t103.5 24q107 0 154 -67.5t47 -173.5q0 -48 -10.5 -88.5t-34.5 -76.5t-69 -56.5t-107 -20.5q-119 0 -168 69t-49 212q0 119 18 196t73 125q26 23 65 43.5t63.5 29.5t84 28l77.5 25q12 -32 17 -48q-168 -54 -217 -80
q-78 -41 -103 -113q-13 -39 -17 -97zM269 43q76 0 116.5 49t40.5 143q0 187 -150 187q-78 0 -120.5 -54t-42.5 -136q0 -189 156 -189z" />
    <glyph glyph-name="afii10067" unicode="&#x432;" horiz-adv-x="507" 
d="M379 255v-4q83 -25 83 -115q0 -55 -40.5 -95.5t-120.5 -40.5h-241v480h243q66 0 106 -32.5t40 -95.5q0 -28 -16 -56t-54 -41zM290 224h-169v-174h163q48 0 82 21t34 62q0 46 -30.5 68.5t-79.5 22.5zM283 429h-162v-154h163q44 0 73 18.5t29 57.5q0 40 -29 59t-74 19z" />
    <glyph glyph-name="afii10068" unicode="&#x433;" horiz-adv-x="425" 
d="M60 0v480h358v-53h-298v-427h-60z" />
    <glyph glyph-name="afii10069" unicode="&#x434;" horiz-adv-x="539" 
d="M517 52v-182h-56v130h-399v-130h-57v182h56q45 77 60 259l14 170h324v-429h58zM397 429h-212l-9 -117q-14 -178 -53 -260h274v377z" />
    <glyph glyph-name="afii10070" unicode="&#x435;" horiz-adv-x="510" 
d="M262 436q-70 0 -106.5 -44t-41.5 -115h286q0 159 -138 159zM262 489q100 0 148 -57t48 -147q0 -31 -4 -55h-343q0 -186 156 -186q70 0 100.5 29.5t33.5 73.5h54q1 -5 1 -15q0 -67 -55 -103.5t-135 -36.5q-216 0 -216 246q0 111 52.5 181t159.5 70z" />
    <glyph glyph-name="afii10072" unicode="&#x436;" horiz-adv-x="692" 
d="M12 480h70l155 -199h79v200h60v-200h78l156 199h68l-173 -219l183 -261h-72l-160 230h-80v-230h-60v230h-81l-161 -230h-71l182 260z" />
    <glyph glyph-name="afii10073" unicode="&#x437;" horiz-adv-x="464" 
d="M228 489q87 0 133.5 -37t46.5 -98q0 -71 -75 -99v-4q83 -27 83 -112q0 -66 -49.5 -106.5t-142.5 -40.5q-82 0 -138.5 38t-56.5 111q0 2 0.5 7.5t0.5 8.5h54q2 -51 37.5 -82.5t101.5 -31.5q64 0 97.5 27t33.5 69q0 39 -27 64t-75 25h-79v54h79q93 0 93 71q0 39 -32 61
t-82 22q-61 0 -95 -28t-37 -71l-54 1q-1 5 -1 14q1 66 52 101.5t132 35.5z" />
    <glyph glyph-name="afii10074" unicode="&#x438;" horiz-adv-x="532" 
d="M409 392h-7q-46 -71 -77 -113l-201 -279h-64v482h61v-387l5 -2q29 46 81 117l199 272h66v-482h-63v392z" />
    <glyph glyph-name="afii10075" unicode="&#x439;" horiz-adv-x="532" 
d="M269 546q-73 0 -111 46.5t-41 100.5h50q2 -38 26.5 -67t76.5 -29q50 0 75 29.5t28 66.5h48q-3 -55 -41 -101t-111 -46zM409 392h-7q-46 -71 -77 -113l-201 -279h-64v482h61v-387l5 -2q29 46 81 117l199 272h66v-482h-63v392z" />
    <glyph glyph-name="afii10076" unicode="&#x43a;" horiz-adv-x="459" 
d="M374 480h68l-181 -220l190 -260h-73l-165 229h-93v-229h-60v481h60v-201h88z" />
    <glyph glyph-name="afii10077" unicode="&#x43b;" horiz-adv-x="498" 
d="M438 0h-61v428h-212l-8 -156q-9 -166 -34.5 -224t-97.5 -58h-19v48q20 2 32.5 6t23 17.5t16 28.5t10.5 50.5t7.5 72.5t6.5 103l9 165h327v-481z" />
    <glyph glyph-name="afii10078" unicode="&#x43c;" horiz-adv-x="628" 
d="M310 136h8q32 70 89 174l93 170h66v-480h-60v371q-1 0 -2.5 0.5t-2.5 0.5q-14 -33 -38 -76l-123 -228h-52l-107 195q-21 38 -56 112l-5 -2v-373h-60v480h68l101 -182q51 -93 81 -162z" />
    <glyph glyph-name="afii10079" unicode="&#x43d;" horiz-adv-x="533" 
d="M412 0v228h-292v-228h-60v481h60v-201h292v201h61v-481h-61z" />
    <glyph glyph-name="afii10080" unicode="&#x43e;" horiz-adv-x="537" 
d="M270 489q60 0 104 -20.5t67.5 -57t34.5 -79t11 -93.5q0 -49 -11 -91t-35 -78.5t-67.5 -57t-103.5 -20.5q-220 0 -220 245q0 114 54.5 183t165.5 69zM270 434q-158 0 -158 -197q0 -96 38 -144t120 -48q154 0 154 194q0 195 -154 195z" />
    <glyph glyph-name="afii10081" unicode="&#x43f;" horiz-adv-x="536" 
d="M415 429h-295v-429h-60v481h416v-481h-61v429z" />
    <glyph glyph-name="afii10082" unicode="&#x440;" horiz-adv-x="533" 
d="M284 489q106 0 153 -67t47 -176q0 -115 -52.5 -184.5t-153.5 -69.5q-107 0 -153 71h-4v-265h-61v683h47q13 -26 13 -76h4q49 84 160 84zM272 437q-71 0 -110.5 -46t-39.5 -114v-74q0 -27 7.5 -53.5t23.5 -51t47 -39.5t72 -15q76 0 113 54t37 147q0 192 -150 192z" />
    <glyph glyph-name="afii10083" unicode="&#x441;" horiz-adv-x="484" 
d="M267 489q73 0 124 -34t51 -100q0 -6 -2 -16h-54q-2 44 -34.5 69.5t-86.5 25.5q-79 0 -116 -52.5t-37 -143.5q0 -99 37.5 -146t116.5 -47q61 0 94.5 30.5t35.5 80.5h53q2 -12 2 -16q0 -68 -51.5 -108t-131.5 -40q-112 0 -165 60.5t-53 181.5q0 116 52 185.5t165 69.5z" />
    <glyph glyph-name="afii10084" unicode="&#x442;" horiz-adv-x="439" 
d="M250 429v-429h-60v429h-181v51h420v-51h-179z" />
    <glyph glyph-name="afii10085" unicode="&#x443;" horiz-adv-x="437" 
d="M212 47h8q12 43 38 119.5l29 85.5l75 228h60l-179 -535q-13 -37 -22.5 -59t-27 -44.5t-43 -33t-61.5 -10.5h-56v50h48q39 0 60.5 15.5t34.5 55.5l27 79l-32 -2q-10 40 -61 187l-102 297h65q55 -170 67 -204q46 -131 72 -229z" />
    <glyph glyph-name="afii10086" unicode="&#x444;" horiz-adv-x="647" 
d="M353 437v-394q183 13 183 197q0 190 -183 197zM294 43v394q-93 -7 -138 -59t-45 -140q0 -179 183 -195zM294 487v223h59v-222q71 -2 121 -25t75.5 -60.5t36.5 -77t11 -85.5q0 -42 -12.5 -82t-39.5 -77t-76.5 -61t-115.5 -26v-196h-59v196q-70 2 -120 24.5t-76 59t-37 76
t-11 84.5q0 44 12 84t38.5 77.5t76.5 61t117 26.5z" />
    <glyph glyph-name="afii10087" unicode="&#x445;" horiz-adv-x="429" 
d="M356 0l-138 205l-137 -205h-71l173 250l-161 231h71l125 -187q5 8 35 52.5l56 83t34 51.5h70l-160 -231l173 -250h-70z" />
    <glyph glyph-name="afii10088" unicode="&#x446;" horiz-adv-x="550" 
d="M474 -132v132h-414v481h61v-430h290v430h61v-430h58v-183h-56z" />
    <glyph glyph-name="afii10089" unicode="&#x447;" horiz-adv-x="475" 
d="M31 481h62v-146q0 -68 34 -95.5t98 -27.5q52 0 127 22l2 246h61v-480h-62v186q-71 -25 -143 -25q-179 0 -179 167v153z" />
    <glyph glyph-name="afii10090" unicode="&#x448;" horiz-adv-x="758" 
d="M637 51v430h61v-481h-638v481h61v-430h225v430h62v-430h229z" />
    <glyph glyph-name="afii10091" unicode="&#x449;" horiz-adv-x="774" 
d="M700 -132v132h-640v481h61v-431h225v431h61v-431q39 0 115 0.5t114 0.5v430h62v-430h57v-183h-55z" />
    <glyph glyph-name="afii10092" unicode="&#x44a;" horiz-adv-x="613" 
d="M6 428v52h236v-190h174q89 0 128 -43t39 -102q0 -63 -43 -104t-124 -41h-236v428h-174zM241 49h165q54 0 83.5 24.5t29.5 70.5q0 50 -31.5 73t-80.5 23h-166v-191z" />
    <glyph glyph-name="afii10093" unicode="&#x44b;" horiz-adv-x="649" 
d="M588 471v-471h-61v471h61zM120 49h166q53 0 83 24.5t30 70.5q0 50 -32 73t-81 23h-166v-191zM60 0v480h61v-190h175q89 0 128 -43t39 -102q0 -63 -43 -104t-124 -41h-236z" />
    <glyph glyph-name="afii10094" unicode="&#x44c;" horiz-adv-x="492" 
d="M120 49h166q53 0 83 24.5t30 70.5q0 50 -32 73t-81 23h-166v-191zM60 0v480h61v-190h175q89 0 128 -43t39 -102q0 -63 -43 -104t-124 -41h-236z" />
    <glyph glyph-name="afii10095" unicode="&#x44d;" horiz-adv-x="484" 
d="M217 43q150 0 153 181h-213v54h211q-2 74 -37.5 115.5t-104.5 41.5q-58 0 -92 -28t-39 -71h-52q0 2 -0.5 4.5t-0.5 3.5q0 68 52.5 106t127.5 38q211 0 211 -254q0 -114 -53.5 -178t-163.5 -64q-78 0 -131 36t-53 105q0 13 1 19h52q4 -50 36.5 -79t95.5 -30z" />
    <glyph glyph-name="afii10096" unicode="&#x44e;" horiz-adv-x="696" 
d="M433 489q61 0 104.5 -22t66 -60t32.5 -79t10 -89t-10.5 -89t-33.5 -78t-66 -58.5t-103 -21.5q-111 0 -162.5 63.5t-54.5 169.5h-95v-225h-61v481h61v-203h97q9 96 61 153.5t154 57.5zM433 434q-83 0 -119 -51t-36 -145q0 -193 155 -193q150 0 150 194q0 195 -150 195z
" />
    <glyph glyph-name="afii10097" unicode="&#x44f;" horiz-adv-x="492" 
d="M40 334q0 66 44 106.5t122 40.5h226v-481h-61v192h-97l-160 -192h-72l161 192q-163 4 -163 142zM371 430h-157q-49 0 -80.5 -24.5t-31.5 -69.5q0 -93 115 -93h154v187z" />
    <glyph glyph-name="afii10071" unicode="&#x451;" horiz-adv-x="510" 
d="M262 436q-70 0 -106.5 -44t-41.5 -115h286q0 159 -138 159zM262 489q100 0 148 -57t48 -147q0 -31 -4 -55h-343q0 -186 156 -186q70 0 100.5 29.5t33.5 73.5h54q1 -5 1 -15q0 -67 -55 -103.5t-135 -36.5q-216 0 -216 246q0 111 52.5 181t159.5 70zM138 613q0 16 11 27.5
t27 11.5t27.5 -11.5t11.5 -27.5t-11.5 -27t-27.5 -11t-27 11t-11 27zM304 613q0 16 11 27.5t27 11.5t27.5 -11.5t11.5 -27.5t-11.5 -27t-27.5 -11t-27 11t-11 27z" />
    <glyph glyph-name="afii10099" unicode="&#x452;" horiz-adv-x="543" 
d="M293 480q200 0 200 -275q0 -49 -9 -91.5t-29 -81.5t-57.5 -62t-89.5 -23q-16 0 -24 1v49q82 2 115 55t33 155q0 222 -153 222q-76 0 -113 -52t-37 -122v-255h-60v572h-52v43h52v95h60v-95h257v-43h-257v-81q0 -49 -11 -104l6 -1q23 44 68.5 69t100.5 25z" />
    <glyph glyph-name="afii10100" unicode="&#x453;" horiz-adv-x="425" 
d="M204 559l-32 27l118 149l54 -46zM60 0v480h358v-53h-298v-427h-60z" />
    <glyph glyph-name="afii10101" unicode="&#x454;" horiz-adv-x="483" 
d="M267 489q73 0 124 -34t51 -100q0 -10 -1 -16h-55q-2 44 -34.5 69.5t-86.5 25.5q-136 0 -151 -155h210v-54h-211q2 -93 40 -136.5t113 -43.5q61 0 94.5 30.5t35.5 80.5h54q1 -6 1 -16q0 -68 -51.5 -108t-131.5 -40q-112 0 -165 60.5t-53 181.5q0 116 52 185.5t165 69.5z
" />
    <glyph glyph-name="afii10102" unicode="&#x455;" horiz-adv-x="468" 
d="M234 43q62 0 93.5 26t31.5 61q0 43 -29.5 63.5t-97.5 28.5q-33 4 -54 8t-47 13t-41 21.5t-25.5 34t-10.5 50.5q0 60 43 100t136 40q69 0 121 -30t52 -90q0 -10 -1 -15h-57q-4 38 -35 60.5t-83 22.5q-57 0 -86 -23t-29 -58q0 -42 30 -56t108 -26q84 -11 125.5 -42
t41.5 -97q0 -60 -48.5 -101.5t-143.5 -41.5q-77 0 -132.5 34.5t-55.5 103.5q0 5 2 19h56q3 -51 39 -78.5t97 -27.5z" />
    <glyph glyph-name="afii10103" unicode="&#x456;" horiz-adv-x="237" 
d="M88 0v481h60v-481h-60zM76 630q0 17 12.5 29.5t30.5 12.5t30 -12.5t12 -29.5q0 -18 -12 -30t-30 -12t-30.5 12t-12.5 30z" />
    <glyph glyph-name="afii10104" unicode="&#x457;" horiz-adv-x="241" 
d="M-5 606q0 16 11 27.5t27 11.5t27.5 -11.5t11.5 -27.5t-11.5 -27t-27.5 -11t-27 11t-11 27zM161 606q0 16 11 27.5t27 11.5t27.5 -11.5t11.5 -27.5t-11.5 -27t-27.5 -11t-27 11t-11 27zM88 0v481h60v-481h-60z" />
    <glyph glyph-name="afii10105" unicode="&#x458;" horiz-adv-x="232" 
d="M49 -200h-37v53h23q30 0 41 17t11 54v557h61v-558q0 -61 -22 -92t-77 -31zM75 630q0 17 12.5 29.5t30.5 12.5q17 0 29.5 -12.5t12.5 -29.5q0 -18 -12.5 -30t-29.5 -12q-18 0 -30.5 12t-12.5 30z" />
    <glyph glyph-name="afii10106" unicode="&#x459;" horiz-adv-x="774" 
d="M345 0q0 71 -0.5 213.5t-0.5 214.5h-175l-9 -158q-10 -169 -35 -225t-97 -56q-11 0 -17 1v47q39 4 56.5 26t25.5 74.5t14 175.5l8 167h292v-190h170q90 0 128.5 -42.5t38.5 -102.5q0 -63 -42.5 -104t-124.5 -41h-232zM406 49h162q54 0 84 24.5t30 70.5q0 50 -32 73
t-82 23h-162v-191z" />
    <glyph glyph-name="afii10107" unicode="&#x45a;" horiz-adv-x="764" 
d="M338 281v199h62v-199h170q89 0 127 -41t38 -100q0 -62 -42 -101t-123 -39h-232v230h-218v-230h-60v481h60v-200h218zM399 49h161q113 0 113 90q0 91 -112 91h-162v-181z" />
    <glyph glyph-name="afii10108" unicode="&#x45b;" horiz-adv-x="526" 
d="M113 392h4q22 44 66.5 68t100.5 24q47 0 81 -12.5t53 -31t30.5 -48t14.5 -57t3 -63.5v-272h-61v271q0 78 -27 120t-106 42q-75 0 -113.5 -52t-38.5 -122v-259h-60v572h-51v44h51v95h60v-95h240v-44h-240v-74q0 -70 -7 -106z" />
    <glyph glyph-name="afii10109" unicode="&#x45c;" horiz-adv-x="454" 
d="M209 546l-32 27l118 149l54 -46zM374 480h68l-181 -220l190 -260h-73l-165 229h-93v-229h-60v481h60v-201h88z" />
    <glyph glyph-name="afii10110" unicode="&#x45e;" horiz-adv-x="437" 
d="M212 47h8q12 43 38 119.5l29 85.5l75 228h60l-179 -535q-13 -37 -22.5 -59t-27 -44.5t-43 -33t-61.5 -10.5h-56v50h48q39 0 60.5 15.5t34.5 55.5l27 79l-32 -2q-10 40 -61 187l-102 297h65q55 -170 67 -204q46 -131 72 -229zM229 544q-73 0 -111 48.5t-41 103.5h49
q3 -39 28 -70t76 -31q49 0 74.5 31.5t28.5 69.5h48q-3 -55 -41.5 -103.5t-110.5 -48.5z" />
    <glyph glyph-name="afii10193" unicode="&#x45f;" horiz-adv-x="533" 
d="M472 0h-172v-151h-56v151h-184v481h61v-431h290v431h61v-481z" />
    <glyph glyph-name="afii10050" unicode="&#x490;" horiz-adv-x="521" 
d="M65 0v674h388v134h58v-190h-385v-618h-61z" />
    <glyph glyph-name="afii10098" unicode="&#x491;" horiz-adv-x="428" 
d="M60 0v480h301v125h56v-179h-297v-426h-60z" />
    <glyph glyph-name="schwacyrillic" unicode="&#x4d9;" horiz-adv-x="510" 
d="M248 45q70 0 106.5 44t41.5 115h-286q0 -159 138 -159zM248 -8q-100 0 -148 57t-48 147q0 31 4 55h343q0 186 -148 186q-66 0 -98.5 -29.5t-38.5 -73.5h-52q-1 5 -1 15q0 67 55.5 103.5t135.5 36.5q105 0 156.5 -63.5t51.5 -182.5q0 -111 -52.5 -181t-159.5 -70z" />
    <glyph glyph-name="Wgrave" unicode="&#x1e80;" horiz-adv-x="874" 
d="M437 581h-4q-23 -93 -69 -249l-99 -332h-71l-184 674h68l91 -353l59 -241h5q39 148 70 250l101 344h63l84 -278q67 -224 90 -317h5q22 93 81 325l68 270h67l-182 -674h-70l-108 356q-56 185 -65 225zM470 758l-23 -33l-170 89l45 56z" />
    <glyph glyph-name="wgrave" unicode="&#x1e81;" horiz-adv-x="690" 
d="M346 395h-6q-14 -57 -31.5 -117.5t-48 -156.5t-38.5 -123h-66l-146 482h61l44 -148q50 -170 72 -262h7q32 132 74 261l48 149h57l50 -159l74 -252h6q14 66 31 130.5t45 157.5l37 123h61l-146 -482h-65q-72 220 -120 397zM380 569l-33 -26l-137 138l56 43z" />
    <glyph glyph-name="Wacute" unicode="&#x1e82;" horiz-adv-x="874" 
d="M437 581h-4q-23 -93 -69 -249l-99 -332h-71l-184 674h68l91 -353l59 -241h5q39 148 70 250l101 344h63l84 -278q67 -224 90 -317h5q22 93 81 325l68 270h67l-182 -674h-70l-108 356q-56 185 -65 225zM419 727l-24 33l149 112l44 -56z" />
    <glyph glyph-name="wacute" unicode="&#x1e83;" horiz-adv-x="690" 
d="M346 395h-6q-14 -57 -31.5 -117.5t-48 -156.5t-38.5 -123h-66l-146 482h61l44 -148q50 -170 72 -262h7q32 132 74 261l48 149h57l50 -159l74 -252h6q14 66 31 130.5t45 157.5l37 123h61l-146 -482h-65q-72 220 -120 397zM327 546l-32 27l118 149l54 -46z" />
    <glyph glyph-name="Wdieresis" unicode="&#x1e84;" horiz-adv-x="874" 
d="M437 581h-4q-23 -93 -69 -249l-99 -332h-71l-184 674h68l91 -353l59 -241h5q39 148 70 250l101 344h63l84 -278q67 -224 90 -317h5q22 93 81 325l68 270h67l-182 -674h-70l-108 356q-56 185 -65 225zM314 806q0 16 11 27.5t27 11.5t27.5 -11.5t11.5 -27.5
q0 -15 -11.5 -26.5t-27.5 -11.5t-27 11.5t-11 26.5zM480 806q0 16 11 27.5t28 11.5q16 0 27.5 -11.5t11.5 -27.5q0 -15 -11.5 -26.5t-27.5 -11.5t-27.5 11.5t-11.5 26.5z" />
    <glyph glyph-name="wdieresis" unicode="&#x1e85;" horiz-adv-x="690" 
d="M346 395h-6q-14 -57 -31.5 -117.5t-48 -156.5t-38.5 -123h-66l-146 482h61l44 -148q50 -170 72 -262h7q32 132 74 261l48 149h57l50 -159l74 -252h6q14 66 31 130.5t45 157.5l37 123h61l-146 -482h-65q-72 220 -120 397zM219 606q0 16 11 27.5t27 11.5t27.5 -11.5
t11.5 -27.5t-11.5 -27t-27.5 -11t-27 11t-11 27zM385 606q0 16 11 27.5t27 11.5t27.5 -11.5t11.5 -27.5t-11.5 -27t-27.5 -11t-27 11t-11 27z" />
    <glyph glyph-name="Ygrave" unicode="&#x1ef2;" horiz-adv-x="545" 
d="M265 333h8q11 29 92 173l94 168h72l-232 -402v-272h-63v271l-226 403h71l94 -170q63 -114 90 -171zM331 758l-23 -33l-170 89l45 56z" />
    <glyph glyph-name="ygrave" unicode="&#x1ef3;" horiz-adv-x="437" 
d="M212 47h8q12 43 38 119.5l29 85.5l75 228h60l-179 -535q-13 -37 -22.5 -59t-27 -44.5t-43 -33t-61.5 -10.5h-56v50h48q39 0 60.5 15.5t34.5 55.5l27 79l-32 -2q-10 40 -61 187l-102 297h65q55 -170 67 -204q46 -131 72 -229zM261 569l-33 -26l-137 138l56 43z" />
    <glyph glyph-name="uni1F00" unicode="&#x1f00;" horiz-adv-x="533" 
d="M257 489q111 0 156 -74h4q0 40 12 66h44v-481h-47q-10 21 -10 77h-4q-50 -85 -159 -85q-110 0 -156.5 64.5t-46.5 182.5q0 110 52 180t155 70zM261 45q52 0 88 28t50 65.5t14 78.5v63q0 71 -39.5 115t-109.5 44q-153 0 -153 -199q0 -195 150 -195zM275 534l-26 17
q33 49 33 86q0 43 -62 67l19 62q101 -31 101 -109q0 -64 -65 -123z" />
    <glyph glyph-name="uni1F01" unicode="&#x1f01;" horiz-adv-x="533" 
d="M257 489q111 0 156 -74h4q0 40 12 66h44v-481h-47q-10 21 -10 77h-4q-50 -85 -159 -85q-110 0 -156.5 64.5t-46.5 182.5q0 110 52 180t155 70zM261 45q52 0 88 28t50 65.5t14 78.5v63q0 71 -39.5 115t-109.5 44q-153 0 -153 -199q0 -195 150 -195zM314 551l-27 -17
q-64 59 -64 123q0 79 100 109l20 -62q-63 -24 -63 -67q0 -36 34 -86z" />
    <glyph glyph-name="uni1F02" unicode="&#x1f02;" horiz-adv-x="533" 
d="M257 489q111 0 156 -74h4q0 40 12 66h44v-481h-47q-10 21 -10 77h-4q-50 -85 -159 -85q-110 0 -156.5 64.5t-46.5 182.5q0 110 52 180t155 70zM261 45q52 0 88 28t50 65.5t14 78.5v63q0 71 -39.5 115t-109.5 44q-153 0 -153 -199q0 -195 150 -195zM414 562l-37 -18
l-120 204l66 26zM192 535l-26 17q34 46 34 84q0 22 -14.5 37t-49.5 28q1 5 18 64q105 -32 105 -110q0 -60 -67 -120z" />
    <glyph glyph-name="uni1F03" unicode="&#x1f03;" horiz-adv-x="533" 
d="M257 489q111 0 156 -74h4q0 40 12 66h44v-481h-47q-10 21 -10 77h-4q-50 -85 -159 -85q-110 0 -156.5 64.5t-46.5 182.5q0 110 52 180t155 70zM261 45q52 0 88 28t50 65.5t14 78.5v63q0 71 -39.5 115t-109.5 44q-153 0 -153 -199q0 -195 150 -195zM409 556l-37 -17
l-120 204q35 13 66 26zM212 549l-14.5 -9t-11.5 -8q-64 59 -64 124q0 79 100 108q16 -48 20 -62q-63 -24 -63 -67q0 -37 33 -86z" />
    <glyph glyph-name="uni1F04" unicode="&#x1f04;" horiz-adv-x="533" 
d="M257 489q111 0 156 -74h4q0 40 12 66h44v-481h-47q-10 21 -10 77h-4q-50 -85 -159 -85q-110 0 -156.5 64.5t-46.5 182.5q0 110 52 180t155 70zM261 45q52 0 88 28t50 65.5t14 78.5v63q0 71 -39.5 115t-109.5 44q-153 0 -153 -199q0 -195 150 -195zM331 538l-38 18l91 212
q31 -11 67 -26zM215 539l-26 17q33 47 33 86q0 42 -63 66l20 62q101 -29 101 -108q0 -64 -65 -123z" />
    <glyph glyph-name="uni1F05" unicode="&#x1f05;" horiz-adv-x="533" 
d="M257 489q111 0 156 -74h4q0 40 12 66h44v-481h-47q-10 21 -10 77h-4q-50 -85 -159 -85q-110 0 -156.5 64.5t-46.5 182.5q0 110 52 180t155 70zM261 45q52 0 88 28t50 65.5t14 78.5v63q0 71 -39.5 115t-109.5 44q-153 0 -153 -199q0 -195 150 -195zM316 539l-38 17l91 213
q36 -15 67 -26zM243 552l-26 -17q-65 59 -65 123q0 79 101 108q8 -27 20 -61q-63 -24 -63 -67q0 -37 33 -86z" />
    <glyph glyph-name="uni1F06" unicode="&#x1f06;" horiz-adv-x="533" 
d="M257 489q111 0 156 -74h4q0 40 12 66h44v-481h-47q-10 21 -10 77h-4q-50 -85 -159 -85q-110 0 -156.5 64.5t-46.5 182.5q0 110 52 180t155 70zM261 45q52 0 88 28t50 65.5t14 78.5v63q0 71 -39.5 115t-109.5 44q-153 0 -153 -199q0 -195 150 -195zM263 533l-30 15
q34 40 34 69q0 40 -60 49l16 54q51 -9 76 -32.5t25 -54.5q0 -51 -61 -100zM328 738q-25 0 -70 18.5t-64 18.5q-33 0 -65 -40l-30 23q13 33 39.5 51.5t55.5 18.5q23 0 66.5 -18.5t64.5 -18.5q35 0 65 39l32 -21q-12 -34 -38 -52.5t-56 -18.5z" />
    <glyph glyph-name="uni1F07" unicode="&#x1f07;" horiz-adv-x="533" 
d="M257 489q111 0 156 -74h4q0 40 12 66h44v-481h-47q-10 21 -10 77h-4q-50 -85 -159 -85q-110 0 -156.5 64.5t-46.5 182.5q0 110 52 180t155 70zM261 45q52 0 88 28t50 65.5t14 78.5v63q0 71 -39.5 115t-109.5 44q-153 0 -153 -199q0 -195 150 -195zM304 548l-29 -15
q-61 48 -61 100q0 31 25 54.5t76 32.5l16 -54q-61 -9 -61 -49q0 -27 34 -69zM349 748q-25 0 -70 17.5t-64 17.5q-35 0 -66 -39l-31 22q14 33 40.5 51.5t55.5 18.5q23 0 66.5 -18t64.5 -18q35 0 65 39l32 -22q-12 -33 -38 -51t-55 -18z" />
    <glyph glyph-name="uni1F08" unicode="&#x1f08;" horiz-adv-x="595" 
d="M518 0l-68 178h-309l-65 -178h-66l255 676h63l257 -676h-67zM299 598h-7q-19 -63 -60 -174l-72 -193h273l-72 188q-49 136 -62 179zM31 464l-26 17q33 49 33 86q0 43 -62 67l19 62q101 -31 101 -109q0 -64 -65 -123z" />
    <glyph glyph-name="uni1F09" unicode="&#x1f09;" horiz-adv-x="595" 
d="M518 0l-68 178h-309l-65 -178h-66l255 676h63l257 -676h-67zM299 598h-7q-19 -63 -60 -174l-72 -193h273l-72 188q-49 136 -62 179zM73 483l-27 -17q-64 59 -64 123q0 79 100 109l20 -62q-63 -24 -63 -67q0 -36 34 -86z" />
    <glyph glyph-name="uni1F0A" unicode="&#x1f0a;" horiz-adv-x="595" 
d="M518 0l-68 178h-309l-65 -178h-66l255 676h63l257 -676h-67zM299 598h-7q-19 -63 -60 -174l-72 -193h273l-72 188q-49 136 -62 179zM129 488l-37 -18l-120 204l66 26zM-93 461l-26 17q34 46 34 84q0 22 -14.5 37t-49.5 28q1 5 18 64q105 -32 105 -110q0 -60 -67 -120z
" />
    <glyph glyph-name="uni1F0B" unicode="&#x1f0b;" horiz-adv-x="595" 
d="M518 0l-68 178h-309l-65 -178h-66l255 676h63l257 -676h-67zM299 598h-7q-19 -63 -60 -174l-72 -193h273l-72 188q-49 136 -62 179zM129 486l-37 -17l-120 204q35 13 66 26zM-68 479l-14.5 -9t-11.5 -8q-64 59 -64 124q0 79 100 108q16 -48 20 -62q-63 -24 -63 -67
q0 -37 33 -86z" />
    <glyph glyph-name="uni1F0C" unicode="&#x1f0c;" horiz-adv-x="595" 
d="M518 0l-68 178h-309l-65 -178h-66l255 676h63l257 -676h-67zM299 598h-7q-19 -63 -60 -174l-72 -193h273l-72 188q-49 136 -62 179zM40 468l-38 18l91 212q31 -11 67 -26zM-76 469l-26 17q33 47 33 86q0 42 -63 66l20 62q101 -29 101 -108q0 -64 -65 -123z" />
    <glyph glyph-name="uni1F0D" unicode="&#x1f0d;" horiz-adv-x="595" 
d="M518 0l-68 178h-309l-65 -178h-66l255 676h63l257 -676h-67zM299 598h-7q-19 -63 -60 -174l-72 -193h273l-72 188q-49 136 -62 179zM28 471l-38 17l91 213q36 -15 67 -26zM-45 484l-26 -17q-65 59 -65 123q0 79 101 108q8 -27 20 -61q-63 -24 -63 -67q0 -37 33 -86z" />
    <glyph glyph-name="uni1F0E" unicode="&#x1f0e;" horiz-adv-x="595" 
d="M518 0l-68 178h-309l-65 -178h-66l255 676h63l257 -676h-67zM299 598h-7q-19 -63 -60 -174l-72 -193h273l-72 188q-49 136 -62 179zM9 408l-30 15q34 40 34 69q0 40 -60 49l16 54q51 -9 76 -32.5t25 -54.5q0 -51 -61 -100zM74 613q-25 0 -70 18.5t-64 18.5q-33 0 -65 -40
l-30 23q13 33 39.5 51.5t55.5 18.5q23 0 66.5 -18.5t64.5 -18.5q35 0 65 39l32 -21q-12 -34 -38 -52.5t-56 -18.5z" />
    <glyph glyph-name="uni1F0F" unicode="&#x1f0f;" horiz-adv-x="595" 
d="M518 0l-68 178h-309l-65 -178h-66l255 676h63l257 -676h-67zM299 598h-7q-19 -63 -60 -174l-72 -193h273l-72 188q-49 136 -62 179zM28 417l-29 -15q-61 48 -61 100q0 31 25 54.5t76 32.5l16 -54q-61 -9 -61 -49q0 -27 34 -69zM73 617q-25 0 -70 17.5t-64 17.5
q-35 0 -66 -39l-31 22q14 33 40.5 51.5t55.5 18.5q23 0 66.5 -18t64.5 -18q35 0 65 39l32 -22q-12 -33 -38 -51t-55 -18z" />
    <glyph glyph-name="uni1F10" unicode="&#x1f10;" horiz-adv-x="457" 
d="M243 -8q-98 0 -146 39t-48 102q0 88 79 118v4q-70 23 -70 95q0 62 45.5 100.5t135.5 38.5q76 0 126.5 -35t50.5 -99q0 -9 -1 -15l-54 -1q-2 45 -35.5 71t-92.5 26q-48 0 -80 -22.5t-32 -62.5q0 -36 25 -52t59 -16h96v-54h-97q-43 0 -68 -25.5t-25 -64.5q0 -42 32 -69.5
t96 -27.5q67 0 101.5 32.5t36.5 84.5h52q0 -3 0.5 -8.5t0.5 -7.5q0 -73 -52.5 -112t-134.5 -39zM230 534l-26 17q33 49 33 86q0 43 -62 67l19 62q101 -31 101 -109q0 -64 -65 -123z" />
    <glyph glyph-name="uni1F11" unicode="&#x1f11;" horiz-adv-x="457" 
d="M243 -8q-98 0 -146 39t-48 102q0 88 79 118v4q-70 23 -70 95q0 62 45.5 100.5t135.5 38.5q76 0 126.5 -35t50.5 -99q0 -9 -1 -15l-54 -1q-2 45 -35.5 71t-92.5 26q-48 0 -80 -22.5t-32 -62.5q0 -36 25 -52t59 -16h96v-54h-97q-43 0 -68 -25.5t-25 -64.5q0 -42 32 -69.5
t96 -27.5q67 0 101.5 32.5t36.5 84.5h52q0 -3 0.5 -8.5t0.5 -7.5q0 -73 -52.5 -112t-134.5 -39zM269 551l-27 -17q-64 59 -64 123q0 79 100 109l20 -62q-63 -24 -63 -67q0 -36 34 -86z" />
    <glyph glyph-name="uni1F12" unicode="&#x1f12;" horiz-adv-x="457" 
d="M243 -8q-98 0 -146 39t-48 102q0 88 79 118v4q-70 23 -70 95q0 62 45.5 100.5t135.5 38.5q76 0 126.5 -35t50.5 -99q0 -9 -1 -15l-54 -1q-2 45 -35.5 71t-92.5 26q-48 0 -80 -22.5t-32 -62.5q0 -36 25 -52t59 -16h96v-54h-97q-43 0 -68 -25.5t-25 -64.5q0 -42 32 -69.5
t96 -27.5q67 0 101.5 32.5t36.5 84.5h52q0 -3 0.5 -8.5t0.5 -7.5q0 -73 -52.5 -112t-134.5 -39zM373 562l-37 -18l-120 204l66 26zM151 535l-26 17q34 46 34 84q0 22 -14.5 37t-49.5 28q1 5 18 64q105 -32 105 -110q0 -60 -67 -120z" />
    <glyph glyph-name="uni1F13" unicode="&#x1f13;" horiz-adv-x="457" 
d="M243 -8q-98 0 -146 39t-48 102q0 88 79 118v4q-70 23 -70 95q0 62 45.5 100.5t135.5 38.5q76 0 126.5 -35t50.5 -99q0 -9 -1 -15l-54 -1q-2 45 -35.5 71t-92.5 26q-48 0 -80 -22.5t-32 -62.5q0 -36 25 -52t59 -16h96v-54h-97q-43 0 -68 -25.5t-25 -64.5q0 -42 32 -69.5
t96 -27.5q67 0 101.5 32.5t36.5 84.5h52q0 -3 0.5 -8.5t0.5 -7.5q0 -73 -52.5 -112t-134.5 -39zM367 556l-37 -17l-120 204q35 13 66 26zM170 549l-14.5 -9t-11.5 -8q-64 59 -64 124q0 79 100 108q16 -48 20 -62q-63 -24 -63 -67q0 -37 33 -86z" />
    <glyph glyph-name="uni1F14" unicode="&#x1f14;" horiz-adv-x="457" 
d="M243 -8q-98 0 -146 39t-48 102q0 88 79 118v4q-70 23 -70 95q0 62 45.5 100.5t135.5 38.5q76 0 126.5 -35t50.5 -99q0 -9 -1 -15l-54 -1q-2 45 -35.5 71t-92.5 26q-48 0 -80 -22.5t-32 -62.5q0 -36 25 -52t59 -16h96v-54h-97q-43 0 -68 -25.5t-25 -64.5q0 -42 32 -69.5
t96 -27.5q67 0 101.5 32.5t36.5 84.5h52q0 -3 0.5 -8.5t0.5 -7.5q0 -73 -52.5 -112t-134.5 -39zM288 538l-38 18l91 212q31 -11 67 -26zM172 539l-26 17q33 47 33 86q0 42 -63 66l20 62q101 -29 101 -108q0 -64 -65 -123z" />
    <glyph glyph-name="uni1F15" unicode="&#x1f15;" horiz-adv-x="457" 
d="M243 -8q-98 0 -146 39t-48 102q0 88 79 118v4q-70 23 -70 95q0 62 45.5 100.5t135.5 38.5q76 0 126.5 -35t50.5 -99q0 -9 -1 -15l-54 -1q-2 45 -35.5 71t-92.5 26q-48 0 -80 -22.5t-32 -62.5q0 -36 25 -52t59 -16h96v-54h-97q-43 0 -68 -25.5t-25 -64.5q0 -42 32 -69.5
t96 -27.5q67 0 101.5 32.5t36.5 84.5h52q0 -3 0.5 -8.5t0.5 -7.5q0 -73 -52.5 -112t-134.5 -39zM284 539l-38 17l91 213q36 -15 67 -26zM211 552l-26 -17q-65 59 -65 123q0 79 101 108q8 -27 20 -61q-63 -24 -63 -67q0 -37 33 -86z" />
    <glyph glyph-name="uni1F18" unicode="&#x1f18;" horiz-adv-x="541" 
d="M65 0v674h428v-55h-366v-243h337v-57h-337v-261h378v-58h-440zM-79 460l-26 17q33 49 33 86q0 43 -62 67l19 62q101 -31 101 -109q0 -64 -65 -123z" />
    <glyph glyph-name="uni1F19" unicode="&#x1f19;" horiz-adv-x="541" 
d="M65 0v674h428v-55h-366v-243h337v-57h-337v-261h378v-58h-440zM-41 479l-27 -17q-64 59 -64 123q0 79 100 109l20 -62q-63 -24 -63 -67q0 -36 34 -86z" />
    <glyph glyph-name="uni1F1A" unicode="&#x1f1a;" horiz-adv-x="541" 
d="M65 0v674h428v-55h-366v-243h337v-57h-337v-261h378v-58h-440zM23 490l-37 -18l-120 204l66 26zM-199 463l-26 17q34 46 34 84q0 22 -14.5 37t-49.5 28q1 5 18 64q105 -32 105 -110q0 -60 -67 -120z" />
    <glyph glyph-name="uni1F1B" unicode="&#x1f1b;" horiz-adv-x="541" 
d="M65 0v674h428v-55h-366v-243h337v-57h-337v-261h378v-58h-440zM17 483l-37 -17l-120 204q35 13 66 26zM-180 476l-14.5 -9t-11.5 -8q-64 59 -64 124q0 79 100 108q16 -48 20 -62q-63 -24 -63 -67q0 -37 33 -86z" />
    <glyph glyph-name="uni1F1C" unicode="&#x1f1c;" horiz-adv-x="541" 
d="M65 0v674h428v-55h-366v-243h337v-57h-337v-261h378v-58h-440zM-98 465l-38 18l91 212q31 -11 67 -26zM-214 466l-26 17q33 47 33 86q0 42 -63 66l20 62q101 -29 101 -108q0 -64 -65 -123z" />
    <glyph glyph-name="uni1F1D" unicode="&#x1f1d;" horiz-adv-x="541" 
d="M65 0v674h428v-55h-366v-243h337v-57h-337v-261h378v-58h-440zM-93 472l-38 17l91 213q36 -15 67 -26zM-166 485l-26 -17q-65 59 -65 123q0 79 101 108q8 -27 20 -61q-63 -24 -63 -67q0 -37 33 -86z" />
    <glyph glyph-name="uni1F20" unicode="&#x1f20;" horiz-adv-x="526" 
d="M286 490q46 0 79.5 -12t52.5 -31t30 -47.5t14.5 -55t3.5 -61.5v-283h-61v276q0 35 -4.5 60t-17 51t-40 39.5t-69.5 13.5q-72 0 -113 -51.5t-41 -119.5v-269h-60v481h46q13 -26 13 -75h4q27 43 73.5 63.5t89.5 20.5zM240 534l-26 17q33 49 33 86q0 43 -62 67l19 62
q101 -31 101 -109q0 -64 -65 -123z" />
    <glyph glyph-name="uni1F21" unicode="&#x1f21;" horiz-adv-x="526" 
d="M286 490q46 0 79.5 -12t52.5 -31t30 -47.5t14.5 -55t3.5 -61.5v-283h-61v276q0 35 -4.5 60t-17 51t-40 39.5t-69.5 13.5q-72 0 -113 -51.5t-41 -119.5v-269h-60v481h46q13 -26 13 -75h4q27 43 73.5 63.5t89.5 20.5zM281 551l-27 -17q-64 59 -64 123q0 79 100 109l20 -62
q-63 -24 -63 -67q0 -36 34 -86z" />
    <glyph glyph-name="uni1F22" unicode="&#x1f22;" horiz-adv-x="526" 
d="M286 490q46 0 79.5 -12t52.5 -31t30 -47.5t14.5 -55t3.5 -61.5v-283h-61v276q0 35 -4.5 60t-17 51t-40 39.5t-69.5 13.5q-72 0 -113 -51.5t-41 -119.5v-269h-60v481h46q13 -26 13 -75h4q27 43 73.5 63.5t89.5 20.5zM397 562l-37 -18l-120 204l66 26zM175 535l-26 17
q34 46 34 84q0 22 -14.5 37t-49.5 28q1 5 18 64q105 -32 105 -110q0 -60 -67 -120z" />
    <glyph glyph-name="uni1F23" unicode="&#x1f23;" horiz-adv-x="526" 
d="M286 490q46 0 79.5 -12t52.5 -31t30 -47.5t14.5 -55t3.5 -61.5v-283h-61v276q0 35 -4.5 60t-17 51t-40 39.5t-69.5 13.5q-72 0 -113 -51.5t-41 -119.5v-269h-60v481h46q13 -26 13 -75h4q27 43 73.5 63.5t89.5 20.5zM394 556l-37 -17l-120 204q35 13 66 26zM197 549
l-14.5 -9t-11.5 -8q-64 59 -64 124q0 79 100 108q16 -48 20 -62q-63 -24 -63 -67q0 -37 33 -86z" />
    <glyph glyph-name="uni1F24" unicode="&#x1f24;" horiz-adv-x="526" 
d="M286 490q46 0 79.5 -12t52.5 -31t30 -47.5t14.5 -55t3.5 -61.5v-283h-61v276q0 35 -4.5 60t-17 51t-40 39.5t-69.5 13.5q-72 0 -113 -51.5t-41 -119.5v-269h-60v481h46q13 -26 13 -75h4q27 43 73.5 63.5t89.5 20.5zM312 538l-38 18l91 212q31 -11 67 -26zM196 539l-26 17
q33 47 33 86q0 42 -63 66l20 62q101 -29 101 -108q0 -64 -65 -123z" />
    <glyph glyph-name="uni1F25" unicode="&#x1f25;" horiz-adv-x="526" 
d="M286 490q46 0 79.5 -12t52.5 -31t30 -47.5t14.5 -55t3.5 -61.5v-283h-61v276q0 35 -4.5 60t-17 51t-40 39.5t-69.5 13.5q-72 0 -113 -51.5t-41 -119.5v-269h-60v481h46q13 -26 13 -75h4q27 43 73.5 63.5t89.5 20.5zM304 539l-38 17l91 213q36 -15 67 -26zM231 552
l-26 -17q-65 59 -65 123q0 79 101 108q8 -27 20 -61q-63 -24 -63 -67q0 -37 33 -86z" />
    <glyph glyph-name="uni1F26" unicode="&#x1f26;" horiz-adv-x="526" 
d="M286 490q46 0 79.5 -12t52.5 -31t30 -47.5t14.5 -55t3.5 -61.5v-283h-61v276q0 35 -4.5 60t-17 51t-40 39.5t-69.5 13.5q-72 0 -113 -51.5t-41 -119.5v-269h-60v481h46q13 -26 13 -75h4q27 43 73.5 63.5t89.5 20.5zM246 533l-30 15q34 40 34 69q0 40 -60 49l16 54
q51 -9 76 -32.5t25 -54.5q0 -51 -61 -100zM311 738q-25 0 -70 18.5t-64 18.5q-33 0 -65 -40l-30 23q13 33 39.5 51.5t55.5 18.5q23 0 66.5 -18.5t64.5 -18.5q35 0 65 39l32 -21q-12 -34 -38 -52.5t-56 -18.5z" />
    <glyph glyph-name="uni1F27" unicode="&#x1f27;" horiz-adv-x="526" 
d="M286 490q46 0 79.5 -12t52.5 -31t30 -47.5t14.5 -55t3.5 -61.5v-283h-61v276q0 35 -4.5 60t-17 51t-40 39.5t-69.5 13.5q-72 0 -113 -51.5t-41 -119.5v-269h-60v481h46q13 -26 13 -75h4q27 43 73.5 63.5t89.5 20.5zM275 547l-29 -15q-61 48 -61 100q0 31 25 54.5t76 32.5
l16 -54q-61 -9 -61 -49q0 -27 34 -69zM320 747q-25 0 -70 17.5t-64 17.5q-35 0 -66 -39l-31 22q14 33 40.5 51.5t55.5 18.5q23 0 66.5 -18t64.5 -18q35 0 65 39l32 -22q-12 -33 -38 -51t-55 -18z" />
    <glyph glyph-name="uni1F28" unicode="&#x1f28;" horiz-adv-x="650" 
d="M522 0v324h-395v-324h-62v675h62v-294h395v294h63v-675h-63zM-82 466l-26 17q33 49 33 86q0 43 -62 67l19 62q101 -31 101 -109q0 -64 -65 -123z" />
    <glyph glyph-name="uni1F29" unicode="&#x1f29;" horiz-adv-x="650" 
d="M522 0v324h-395v-324h-62v675h62v-294h395v294h63v-675h-63zM-41 483l-27 -17q-64 59 -64 123q0 79 100 109l20 -62q-63 -24 -63 -67q0 -36 34 -86z" />
    <glyph glyph-name="uni1F2A" unicode="&#x1f2a;" horiz-adv-x="650" 
d="M522 0v324h-395v-324h-62v675h62v-294h395v294h63v-675h-63zM30 484l-37 -18l-120 204l66 26zM-192 457l-26 17q34 46 34 84q0 22 -14.5 37t-49.5 28q1 5 18 64q105 -32 105 -110q0 -60 -67 -120z" />
    <glyph glyph-name="uni1F2B" unicode="&#x1f2b;" horiz-adv-x="650" 
d="M522 0v324h-395v-324h-62v675h62v-294h395v294h63v-675h-63zM20 485l-37 -17l-120 204q35 13 66 26zM-177 478l-14.5 -9t-11.5 -8q-64 59 -64 124q0 79 100 108q16 -48 20 -62q-63 -24 -63 -67q0 -37 33 -86z" />
    <glyph glyph-name="uni1F2C" unicode="&#x1f2c;" horiz-adv-x="650" 
d="M522 0v324h-395v-324h-62v675h62v-294h395v294h63v-675h-63zM-97 467l-38 18l91 212q31 -11 67 -26zM-213 468l-26 17q33 47 33 86q0 42 -63 66l20 62q101 -29 101 -108q0 -64 -65 -123z" />
    <glyph glyph-name="uni1F2D" unicode="&#x1f2d;" horiz-adv-x="650" 
d="M522 0v324h-395v-324h-62v675h62v-294h395v294h63v-675h-63zM-97 467l-38 17l91 213q36 -15 67 -26zM-170 480l-26 -17q-65 59 -65 123q0 79 101 108q8 -27 20 -61q-63 -24 -63 -67q0 -37 33 -86z" />
    <glyph glyph-name="uni1F2E" unicode="&#x1f2e;" horiz-adv-x="650" 
d="M522 0v324h-395v-324h-62v675h62v-294h395v294h63v-675h-63zM-147 415l-30 15q34 40 34 69q0 40 -60 49l16 54q51 -9 76 -32.5t25 -54.5q0 -51 -61 -100zM-82 620q-25 0 -70 18.5t-64 18.5q-33 0 -65 -40l-30 23q13 33 39.5 51.5t55.5 18.5q23 0 66.5 -18.5t64.5 -18.5
q35 0 65 39l32 -21q-12 -34 -38 -52.5t-56 -18.5z" />
    <glyph glyph-name="uni1F2F" unicode="&#x1f2f;" horiz-adv-x="650" 
d="M522 0v324h-395v-324h-62v675h62v-294h395v294h63v-675h-63zM-124 424l-29 -15q-61 48 -61 100q0 31 25 54.5t76 32.5l16 -54q-61 -9 -61 -49q0 -27 34 -69zM-79 624q-25 0 -70 17.5t-64 17.5q-35 0 -66 -39l-31 22q14 33 40.5 51.5t55.5 18.5q23 0 66.5 -18t64.5 -18
q35 0 65 39l32 -22q-12 -33 -38 -51t-55 -18z" />
    <glyph glyph-name="uni1F30" unicode="&#x1f30;" horiz-adv-x="237" 
d="M88 0v481h62v-481h-62zM120 534l-26 17q33 49 33 86q0 43 -62 67l19 62q101 -31 101 -109q0 -64 -65 -123z" />
    <glyph glyph-name="uni1F31" unicode="&#x1f31;" horiz-adv-x="237" 
d="M88 0v481h62v-481h-62zM152 551l-27 -17q-64 59 -64 123q0 79 100 109l20 -62q-63 -24 -63 -67q0 -36 34 -86z" />
    <glyph glyph-name="uni1F32" unicode="&#x1f32;" horiz-adv-x="237" 
d="M88 0v481h62v-481h-62zM264 562l-37 -18l-120 204l66 26zM42 535l-26 17q34 46 34 84q0 22 -14.5 37t-49.5 28q1 5 18 64q105 -32 105 -110q0 -60 -67 -120z" />
    <glyph glyph-name="uni1F33" unicode="&#x1f33;" horiz-adv-x="237" 
d="M88 0v481h62v-481h-62zM256 558l-37 -17l-120 204q35 13 66 26zM59 551l-14.5 -9t-11.5 -8q-64 59 -64 124q0 79 100 108q16 -48 20 -62q-63 -24 -63 -67q0 -37 33 -86z" />
    <glyph glyph-name="uni1F34" unicode="&#x1f34;" horiz-adv-x="237" 
d="M88 0v481h62v-481h-62zM175 538l-38 18l91 212q31 -11 67 -26zM59 539l-26 17q33 47 33 86q0 42 -63 66l20 62q101 -29 101 -108q0 -64 -65 -123z" />
    <glyph glyph-name="uni1F35" unicode="&#x1f35;" horiz-adv-x="237" 
d="M88 0v481h62v-481h-62zM164 539l-38 17l91 213q36 -15 67 -26zM91 552l-26 -17q-65 59 -65 123q0 79 101 108q8 -27 20 -61q-63 -24 -63 -67q0 -37 33 -86z" />
    <glyph glyph-name="uni1F36" unicode="&#x1f36;" horiz-adv-x="237" 
d="M88 0v481h62v-481h-62zM114 528l-30 15q34 40 34 69q0 40 -60 49l16 54q51 -9 76 -32.5t25 -54.5q0 -51 -61 -100zM179 733q-25 0 -70 18.5t-64 18.5q-33 0 -65 -40l-30 23q13 33 39.5 51.5t55.5 18.5q23 0 66.5 -18.5t64.5 -18.5q35 0 65 39l32 -21q-12 -34 -38 -52.5
t-56 -18.5z" />
    <glyph glyph-name="uni1F37" unicode="&#x1f37;" horiz-adv-x="237" 
d="M88 0v481h62v-481h-62zM147 548l-29 -15q-61 48 -61 100q0 31 25 54.5t76 32.5l16 -54q-61 -9 -61 -49q0 -27 34 -69zM192 748q-25 0 -70 17.5t-64 17.5q-35 0 -66 -39l-31 22q14 33 40.5 51.5t55.5 18.5q23 0 66.5 -18t64.5 -18q35 0 65 39l32 -22q-12 -33 -38 -51
t-55 -18z" />
    <glyph glyph-name="uni1F38" unicode="&#x1f38;" horiz-adv-x="232" 
d="M85 0v674h62v-674h-62zM-74 466l-26 17q33 49 33 86q0 43 -62 67l19 62q101 -31 101 -109q0 -64 -65 -123z" />
    <glyph glyph-name="uni1F39" unicode="&#x1f39;" horiz-adv-x="232" 
d="M85 0v674h62v-674h-62zM-33 483l-27 -17q-64 59 -64 123q0 79 100 109l20 -62q-63 -24 -63 -67q0 -36 34 -86z" />
    <glyph glyph-name="uni1F3A" unicode="&#x1f3a;" horiz-adv-x="232" 
d="M85 0v674h62v-674h-62zM41 484l-37 -18l-120 204l66 26zM-181 457l-26 17q34 46 34 84q0 22 -14.5 37t-49.5 28q1 5 18 64q105 -32 105 -110q0 -60 -67 -120z" />
    <glyph glyph-name="uni1F3B" unicode="&#x1f3b;" horiz-adv-x="232" 
d="M85 0v674h62v-674h-62zM39 484l-37 -17l-120 204q35 13 66 26zM-158 477l-14.5 -9t-11.5 -8q-64 59 -64 124q0 79 100 108q16 -48 20 -62q-63 -24 -63 -67q0 -37 33 -86z" />
    <glyph glyph-name="uni1F3C" unicode="&#x1f3c;" horiz-adv-x="232" 
d="M85 0v674h62v-674h-62zM-73 466l-38 18l91 212q31 -11 67 -26zM-189 467l-26 17q33 47 33 86q0 42 -63 66l20 62q101 -29 101 -108q0 -64 -65 -123z" />
    <glyph glyph-name="uni1F3D" unicode="&#x1f3d;" horiz-adv-x="232" 
d="M85 0v674h62v-674h-62zM-75 467l-38 17l91 213q36 -15 67 -26zM-148 480l-26 -17q-65 59 -65 123q0 79 101 108q8 -27 20 -61q-63 -24 -63 -67q0 -37 33 -86z" />
    <glyph glyph-name="uni1F3E" unicode="&#x1f3e;" horiz-adv-x="232" 
d="M85 0v674h62v-674h-62zM-120 416l-30 15q34 40 34 69q0 40 -60 49l16 54q51 -9 76 -32.5t25 -54.5q0 -51 -61 -100zM-55 621q-25 0 -70 18.5t-64 18.5q-33 0 -65 -40l-30 23q13 33 39.5 51.5t55.5 18.5q23 0 66.5 -18.5t64.5 -18.5q35 0 65 39l32 -21q-12 -34 -38 -52.5
t-56 -18.5z" />
    <glyph glyph-name="uni1F3F" unicode="&#x1f3f;" horiz-adv-x="232" 
d="M85 0v674h62v-674h-62zM-91 422l-29 -15q-61 48 -61 100q0 31 25 54.5t76 32.5l16 -54q-61 -9 -61 -49q0 -27 34 -69zM-46 622q-25 0 -70 17.5t-64 17.5q-35 0 -66 -39l-31 22q14 33 40.5 51.5t55.5 18.5q23 0 66.5 -18t64.5 -18q35 0 65 39l32 -22q-12 -33 -38 -51
t-55 -18z" />
    <glyph glyph-name="uni1F40" unicode="&#x1f40;" horiz-adv-x="537" 
d="M270 489q60 0 104 -20.5t67.5 -57t34.5 -79t11 -93.5q0 -49 -11 -91t-35 -78.5t-67.5 -57t-103.5 -20.5q-220 0 -220 245q0 114 54.5 183t165.5 69zM270 434q-158 0 -158 -197q0 -96 38 -144t120 -48q154 0 154 194q0 195 -154 195zM265 534l-26 17q33 49 33 86
q0 43 -62 67l19 62q101 -31 101 -109q0 -64 -65 -123z" />
    <glyph glyph-name="uni1F41" unicode="&#x1f41;" horiz-adv-x="537" 
d="M270 489q60 0 104 -20.5t67.5 -57t34.5 -79t11 -93.5q0 -49 -11 -91t-35 -78.5t-67.5 -57t-103.5 -20.5q-220 0 -220 245q0 114 54.5 183t165.5 69zM270 434q-158 0 -158 -197q0 -96 38 -144t120 -48q154 0 154 194q0 195 -154 195zM309 551l-27 -17q-64 59 -64 123
q0 79 100 109l20 -62q-63 -24 -63 -67q0 -36 34 -86z" />
    <glyph glyph-name="uni1F42" unicode="&#x1f42;" horiz-adv-x="537" 
d="M270 489q60 0 104 -20.5t67.5 -57t34.5 -79t11 -93.5q0 -49 -11 -91t-35 -78.5t-67.5 -57t-103.5 -20.5q-220 0 -220 245q0 114 54.5 183t165.5 69zM270 434q-158 0 -158 -197q0 -96 38 -144t120 -48q154 0 154 194q0 195 -154 195zM422 562l-37 -18l-120 204l66 26z
M200 535l-26 17q34 46 34 84q0 22 -14.5 37t-49.5 28q1 5 18 64q105 -32 105 -110q0 -60 -67 -120z" />
    <glyph glyph-name="uni1F43" unicode="&#x1f43;" horiz-adv-x="537" 
d="M270 489q60 0 104 -20.5t67.5 -57t34.5 -79t11 -93.5q0 -49 -11 -91t-35 -78.5t-67.5 -57t-103.5 -20.5q-220 0 -220 245q0 114 54.5 183t165.5 69zM270 434q-158 0 -158 -197q0 -96 38 -144t120 -48q154 0 154 194q0 195 -154 195zM418 556l-37 -17l-120 204
q35 13 66 26zM221 549l-14.5 -9t-11.5 -8q-64 59 -64 124q0 79 100 108q16 -48 20 -62q-63 -24 -63 -67q0 -37 33 -86z" />
    <glyph glyph-name="uni1F44" unicode="&#x1f44;" horiz-adv-x="537" 
d="M270 489q60 0 104 -20.5t67.5 -57t34.5 -79t11 -93.5q0 -49 -11 -91t-35 -78.5t-67.5 -57t-103.5 -20.5q-220 0 -220 245q0 114 54.5 183t165.5 69zM270 434q-158 0 -158 -197q0 -96 38 -144t120 -48q154 0 154 194q0 195 -154 195zM329 538l-38 18l91 212q31 -11 67 -26
zM213 539l-26 17q33 47 33 86q0 42 -63 66l20 62q101 -29 101 -108q0 -64 -65 -123z" />
    <glyph glyph-name="uni1F45" unicode="&#x1f45;" horiz-adv-x="537" 
d="M270 489q60 0 104 -20.5t67.5 -57t34.5 -79t11 -93.5q0 -49 -11 -91t-35 -78.5t-67.5 -57t-103.5 -20.5q-220 0 -220 245q0 114 54.5 183t165.5 69zM270 434q-158 0 -158 -197q0 -96 38 -144t120 -48q154 0 154 194q0 195 -154 195zM330 539l-38 17l91 213q36 -15 67 -26
zM257 552l-26 -17q-65 59 -65 123q0 79 101 108q8 -27 20 -61q-63 -24 -63 -67q0 -37 33 -86z" />
    <glyph glyph-name="uni1F48" unicode="&#x1f48;" horiz-adv-x="676" 
d="M341 681q280 0 280 -350q0 -69 -13.5 -126t-44.5 -106.5t-88.5 -77.5t-137.5 -28q-154 0 -218 87.5t-64 249.5q0 164 69 257.5t217 93.5zM340 624q-222 0 -222 -294q0 -282 218 -282q106 0 163 70.5t57 212.5q0 293 -216 293zM-61 466l-26 17q33 49 33 86q0 43 -62 67
l19 62q101 -31 101 -109q0 -64 -65 -123z" />
    <glyph glyph-name="uni1F49" unicode="&#x1f49;" horiz-adv-x="676" 
d="M341 681q280 0 280 -350q0 -69 -13.5 -126t-44.5 -106.5t-88.5 -77.5t-137.5 -28q-154 0 -218 87.5t-64 249.5q0 164 69 257.5t217 93.5zM340 624q-222 0 -222 -294q0 -282 218 -282q106 0 163 70.5t57 212.5q0 293 -216 293zM-2 489l-27 -17q-64 59 -64 123
q0 79 100 109l20 -62q-63 -24 -63 -67q0 -36 34 -86z" />
    <glyph glyph-name="uni1F4A" unicode="&#x1f4a;" horiz-adv-x="676" 
d="M341 681q280 0 280 -350q0 -69 -13.5 -126t-44.5 -106.5t-88.5 -77.5t-137.5 -28q-154 0 -218 87.5t-64 249.5q0 164 69 257.5t217 93.5zM340 624q-222 0 -222 -294q0 -282 218 -282q106 0 163 70.5t57 212.5q0 293 -216 293zM32 484l-37 -18l-120 204l66 26zM-190 457
l-26 17q34 46 34 84q0 22 -14.5 37t-49.5 28q1 5 18 64q105 -32 105 -110q0 -60 -67 -120z" />
    <glyph glyph-name="uni1F4B" unicode="&#x1f4b;" horiz-adv-x="676" 
d="M341 681q280 0 280 -350q0 -69 -13.5 -126t-44.5 -106.5t-88.5 -77.5t-137.5 -28q-154 0 -218 87.5t-64 249.5q0 164 69 257.5t217 93.5zM340 624q-222 0 -222 -294q0 -282 218 -282q106 0 163 70.5t57 212.5q0 293 -216 293zM32 485l-37 -17l-120 204q35 13 66 26z
M-165 478l-14.5 -9t-11.5 -8q-64 59 -64 124q0 79 100 108q16 -48 20 -62q-63 -24 -63 -67q0 -37 33 -86z" />
    <glyph glyph-name="uni1F4C" unicode="&#x1f4c;" horiz-adv-x="676" 
d="M341 681q280 0 280 -350q0 -69 -13.5 -126t-44.5 -106.5t-88.5 -77.5t-137.5 -28q-154 0 -218 87.5t-64 249.5q0 164 69 257.5t217 93.5zM340 624q-222 0 -222 -294q0 -282 218 -282q106 0 163 70.5t57 212.5q0 293 -216 293zM-43 466l-38 18l91 212q31 -11 67 -26z
M-159 467l-26 17q33 47 33 86q0 42 -63 66l20 62q101 -29 101 -108q0 -64 -65 -123z" />
    <glyph glyph-name="uni1F4D" unicode="&#x1f4d;" horiz-adv-x="676" 
d="M341 681q280 0 280 -350q0 -69 -13.5 -126t-44.5 -106.5t-88.5 -77.5t-137.5 -28q-154 0 -218 87.5t-64 249.5q0 164 69 257.5t217 93.5zM340 624q-222 0 -222 -294q0 -282 218 -282q106 0 163 70.5t57 212.5q0 293 -216 293zM-49 467l-38 17l91 213q36 -15 67 -26z
M-122 480l-26 -17q-65 59 -65 123q0 79 101 108q8 -27 20 -61q-63 -24 -63 -67q0 -37 33 -86z" />
    <glyph glyph-name="uni1F50" unicode="&#x1f50;" horiz-adv-x="522" 
d="M254 534l-26 17q33 49 33 86q0 43 -62 67l19 62q101 -31 101 -109q0 -64 -65 -123zM464 183q0 -95 -54.5 -143t-151.5 -48q-98 0 -149 48t-51 143v298h61v-294q0 -74 38 -108.5t102 -34.5t104 35t40 109v293h61v-298z" />
    <glyph glyph-name="uni1F51" unicode="&#x1f51;" horiz-adv-x="522" 
d="M294 551l-27 -17q-64 59 -64 123q0 79 100 109l20 -62q-63 -24 -63 -67q0 -36 34 -86zM464 183q0 -95 -54.5 -143t-151.5 -48q-98 0 -149 48t-51 143v298h61v-294q0 -74 38 -108.5t102 -34.5t104 35t40 109v293h61v-298z" />
    <glyph glyph-name="uni1F52" unicode="&#x1f52;" horiz-adv-x="522" 
d="M406 562l-37 -18l-120 204l66 26zM184 535l-26 17q34 46 34 84q0 22 -14.5 37t-49.5 28q1 5 18 64q105 -32 105 -110q0 -60 -67 -120zM464 183q0 -95 -54.5 -143t-151.5 -48q-98 0 -149 48t-51 143v298h61v-294q0 -74 38 -108.5t102 -34.5t104 35t40 109v293h61v-298z
" />
    <glyph glyph-name="uni1F53" unicode="&#x1f53;" horiz-adv-x="522" 
d="M406 556l-37 -17l-120 204q35 13 66 26zM209 549l-14.5 -9t-11.5 -8q-64 59 -64 124q0 79 100 108q16 -48 20 -62q-63 -24 -63 -67q0 -37 33 -86zM464 183q0 -95 -54.5 -143t-151.5 -48q-98 0 -149 48t-51 143v298h61v-294q0 -74 38 -108.5t102 -34.5t104 35t40 109v293
h61v-298z" />
    <glyph glyph-name="uni1F54" unicode="&#x1f54;" horiz-adv-x="522" 
d="M313 538l-38 18l91 212q31 -11 67 -26zM197 539l-26 17q33 47 33 86q0 42 -63 66l20 62q101 -29 101 -108q0 -64 -65 -123zM464 183q0 -95 -54.5 -143t-151.5 -48q-98 0 -149 48t-51 143v298h61v-294q0 -74 38 -108.5t102 -34.5t104 35t40 109v293h61v-298z" />
    <glyph glyph-name="uni1F55" unicode="&#x1f55;" horiz-adv-x="522" 
d="M313 539l-38 17l91 213q36 -15 67 -26zM240 552l-26 -17q-65 59 -65 123q0 79 101 108q8 -27 20 -61q-63 -24 -63 -67q0 -37 33 -86zM464 183q0 -95 -54.5 -143t-151.5 -48q-98 0 -149 48t-51 143v298h61v-294q0 -74 38 -108.5t102 -34.5t104 35t40 109v293h61v-298z" />
    <glyph glyph-name="uni1F56" unicode="&#x1f56;" horiz-adv-x="522" 
d="M267 518l-30 15q34 40 34 69q0 40 -60 49l16 54q51 -9 76 -32.5t25 -54.5q0 -51 -61 -100zM332 723q-25 0 -70 18.5t-64 18.5q-33 0 -65 -40l-30 23q13 33 39.5 51.5t55.5 18.5q23 0 66.5 -18.5t64.5 -18.5q35 0 65 39l32 -21q-12 -34 -38 -52.5t-56 -18.5zM464 183
q0 -95 -54.5 -143t-151.5 -48q-98 0 -149 48t-51 143v298h61v-294q0 -74 38 -108.5t102 -34.5t104 35t40 109v293h61v-298z" />
    <glyph glyph-name="uni1F57" unicode="&#x1f57;" horiz-adv-x="522" 
d="M294 531l-29 -15q-61 48 -61 100q0 31 25 54.5t76 32.5l16 -54q-61 -9 -61 -49q0 -27 34 -69zM339 731q-25 0 -70 17.5t-64 17.5q-35 0 -66 -39l-31 22q14 33 40.5 51.5t55.5 18.5q23 0 66.5 -18t64.5 -18q35 0 65 39l32 -22q-12 -33 -38 -51t-55 -18zM464 183
q0 -95 -54.5 -143t-151.5 -48q-98 0 -149 48t-51 143v298h61v-294q0 -74 38 -108.5t102 -34.5t104 35t40 109v293h61v-298z" />
    <glyph glyph-name="uni1F59" unicode="&#x1f59;" horiz-adv-x="545" 
d="M265 333h8q11 29 92 173l94 168h72l-232 -402v-272h-63v271l-226 403h71l94 -170q63 -114 90 -171zM-54 479l-27 -17q-64 59 -64 123q0 79 100 109l20 -62q-63 -24 -63 -67q0 -36 34 -86z" />
    <glyph glyph-name="uni1F5B" unicode="&#x1f5b;" horiz-adv-x="545" 
d="M265 333h8q11 29 92 173l94 168h72l-232 -402v-272h-63v271l-226 403h71l94 -170q63 -114 90 -171zM-3 484l-37 -17l-120 204q35 13 66 26zM-200 477l-14.5 -9t-11.5 -8q-64 59 -64 124q0 79 100 108q16 -48 20 -62q-63 -24 -63 -67q0 -37 33 -86z" />
    <glyph glyph-name="uni1F5D" unicode="&#x1f5d;" horiz-adv-x="545" 
d="M265 333h8q11 29 92 173l94 168h72l-232 -402v-272h-63v271l-226 403h71l94 -170q63 -114 90 -171zM-128 467l-38 17l91 213q36 -15 67 -26zM-201 480l-26 -17q-65 59 -65 123q0 79 101 108q8 -27 20 -61q-63 -24 -63 -67q0 -37 33 -86z" />
    <glyph glyph-name="uni1F5F" unicode="&#x1f5f;" horiz-adv-x="545" 
d="M265 333h8q11 29 92 173l94 168h72l-232 -402v-272h-63v271l-226 403h71l94 -170q63 -114 90 -171zM-156 411l-29 -15q-61 48 -61 100q0 31 25 54.5t76 32.5l16 -54q-61 -9 -61 -49q0 -27 34 -69zM-111 611q-25 0 -70 17.5t-64 17.5q-35 0 -66 -39l-31 22
q14 33 40.5 51.5t55.5 18.5q23 0 66.5 -18t64.5 -18q35 0 65 39l32 -22q-12 -33 -38 -51t-55 -18z" />
    <glyph glyph-name="uni1F60" unicode="&#x1f60;" horiz-adv-x="780" 
d="M730 239q0 -247 -196 -247q-51 0 -89 24.5t-55 61.5h-6q-47 -86 -151 -86q-102 0 -142.5 62.5t-40.5 178.5q0 73 18.5 127.5t66.5 90.5t123 37v-54q-81 -3 -114 -54t-33 -142q0 -94 27 -144t101 -50q60 0 89.5 40t29.5 95v148h61v-153q0 -55 32.5 -92.5t84.5 -37.5
q132 0 132 194q0 189 -147 196v54q108 -2 158.5 -71t50.5 -178zM380 534l-26 17q33 49 33 86q0 43 -62 67l19 62q101 -31 101 -109q0 -64 -65 -123z" />
    <glyph glyph-name="uni1F61" unicode="&#x1f61;" horiz-adv-x="780" 
d="M730 239q0 -247 -196 -247q-51 0 -89 24.5t-55 61.5h-6q-47 -86 -151 -86q-102 0 -142.5 62.5t-40.5 178.5q0 73 18.5 127.5t66.5 90.5t123 37v-54q-81 -3 -114 -54t-33 -142q0 -94 27 -144t101 -50q60 0 89.5 40t29.5 95v148h61v-153q0 -55 32.5 -92.5t84.5 -37.5
q132 0 132 194q0 189 -147 196v54q108 -2 158.5 -71t50.5 -178zM420 551l-27 -17q-64 59 -64 123q0 79 100 109l20 -62q-63 -24 -63 -67q0 -36 34 -86z" />
    <glyph glyph-name="uni1F62" unicode="&#x1f62;" horiz-adv-x="780" 
d="M730 239q0 -247 -196 -247q-51 0 -89 24.5t-55 61.5h-6q-47 -86 -151 -86q-102 0 -142.5 62.5t-40.5 178.5q0 73 18.5 127.5t66.5 90.5t123 37v-54q-81 -3 -114 -54t-33 -142q0 -94 27 -144t101 -50q60 0 89.5 40t29.5 95v148h61v-153q0 -55 32.5 -92.5t84.5 -37.5
q132 0 132 194q0 189 -147 196v54q108 -2 158.5 -71t50.5 -178zM537 562l-37 -18l-120 204l66 26zM315 535l-26 17q34 46 34 84q0 22 -14.5 37t-49.5 28q1 5 18 64q105 -32 105 -110q0 -60 -67 -120z" />
    <glyph glyph-name="uni1F63" unicode="&#x1f63;" horiz-adv-x="780" 
d="M730 239q0 -247 -196 -247q-51 0 -89 24.5t-55 61.5h-6q-47 -86 -151 -86q-102 0 -142.5 62.5t-40.5 178.5q0 73 18.5 127.5t66.5 90.5t123 37v-54q-81 -3 -114 -54t-33 -142q0 -94 27 -144t101 -50q60 0 89.5 40t29.5 95v148h61v-153q0 -55 32.5 -92.5t84.5 -37.5
q132 0 132 194q0 189 -147 196v54q108 -2 158.5 -71t50.5 -178zM536 556l-37 -17l-120 204q35 13 66 26zM339 549l-14.5 -9t-11.5 -8q-64 59 -64 124q0 79 100 108q16 -48 20 -62q-63 -24 -63 -67q0 -37 33 -86z" />
    <glyph glyph-name="uni1F64" unicode="&#x1f64;" horiz-adv-x="780" 
d="M730 239q0 -247 -196 -247q-51 0 -89 24.5t-55 61.5h-6q-47 -86 -151 -86q-102 0 -142.5 62.5t-40.5 178.5q0 73 18.5 127.5t66.5 90.5t123 37v-54q-81 -3 -114 -54t-33 -142q0 -94 27 -144t101 -50q60 0 89.5 40t29.5 95v148h61v-153q0 -55 32.5 -92.5t84.5 -37.5
q132 0 132 194q0 189 -147 196v54q108 -2 158.5 -71t50.5 -178zM429 538l-38 18l91 212q31 -11 67 -26zM313 539l-26 17q33 47 33 86q0 42 -63 66l20 62q101 -29 101 -108q0 -64 -65 -123z" />
    <glyph glyph-name="uni1F65" unicode="&#x1f65;" horiz-adv-x="780" 
d="M730 239q0 -247 -196 -247q-51 0 -89 24.5t-55 61.5h-6q-47 -86 -151 -86q-102 0 -142.5 62.5t-40.5 178.5q0 73 18.5 127.5t66.5 90.5t123 37v-54q-81 -3 -114 -54t-33 -142q0 -94 27 -144t101 -50q60 0 89.5 40t29.5 95v148h61v-153q0 -55 32.5 -92.5t84.5 -37.5
q132 0 132 194q0 189 -147 196v54q108 -2 158.5 -71t50.5 -178zM425 539l-38 17l91 213q36 -15 67 -26zM352 552l-26 -17q-65 59 -65 123q0 79 101 108q8 -27 20 -61q-63 -24 -63 -67q0 -37 33 -86z" />
    <glyph glyph-name="uni1F66" unicode="&#x1f66;" horiz-adv-x="780" 
d="M730 239q0 -247 -196 -247q-51 0 -89 24.5t-55 61.5h-6q-47 -86 -151 -86q-102 0 -142.5 62.5t-40.5 178.5q0 73 18.5 127.5t66.5 90.5t123 37v-54q-81 -3 -114 -54t-33 -142q0 -94 27 -144t101 -50q60 0 89.5 40t29.5 95v148h61v-153q0 -55 32.5 -92.5t84.5 -37.5
q132 0 132 194q0 189 -147 196v54q108 -2 158.5 -71t50.5 -178zM391 527l-30 15q34 40 34 69q0 40 -60 49l16 54q51 -9 76 -32.5t25 -54.5q0 -51 -61 -100zM456 732q-25 0 -70 18.5t-64 18.5q-33 0 -65 -40l-30 23q13 33 39.5 51.5t55.5 18.5q23 0 66.5 -18.5t64.5 -18.5
q35 0 65 39l32 -21q-12 -34 -38 -52.5t-56 -18.5z" />
    <glyph glyph-name="uni1F67" unicode="&#x1f67;" horiz-adv-x="780" 
d="M730 239q0 -247 -196 -247q-51 0 -89 24.5t-55 61.5h-6q-47 -86 -151 -86q-102 0 -142.5 62.5t-40.5 178.5q0 73 18.5 127.5t66.5 90.5t123 37v-54q-81 -3 -114 -54t-33 -142q0 -94 27 -144t101 -50q60 0 89.5 40t29.5 95v148h61v-153q0 -55 32.5 -92.5t84.5 -37.5
q132 0 132 194q0 189 -147 196v54q108 -2 158.5 -71t50.5 -178zM413 534l-29 -15q-61 48 -61 100q0 31 25 54.5t76 32.5l16 -54q-61 -9 -61 -49q0 -27 34 -69zM458 734q-25 0 -70 17.5t-64 17.5q-35 0 -66 -39l-31 22q14 33 40.5 51.5t55.5 18.5q23 0 66.5 -18t64.5 -18
q35 0 65 39l32 -22q-12 -33 -38 -51t-55 -18z" />
    <glyph glyph-name="uni1F68" unicode="&#x1f68;" horiz-adv-x="706" 
d="M353 626q-115 -1 -174 -77.5t-59 -207.5q0 -126 39.5 -191.5t118.5 -89.5v-60h-244v57h130l2 3q-109 71 -109 275q0 99 30 175t99 124t171 48q77 0 135.5 -28t92 -77t50 -108.5t16.5 -128.5q0 -86 -29 -163t-86 -117l2 -3h131v-57h-241v59q158 49 158 285q0 130 -60 206
t-173 76zM-48 473l-26 17q33 49 33 86q0 43 -62 67l19 62q101 -31 101 -109q0 -64 -65 -123z" />
    <glyph glyph-name="uni1F69" unicode="&#x1f69;" horiz-adv-x="706" 
d="M353 626q-115 -1 -174 -77.5t-59 -207.5q0 -126 39.5 -191.5t118.5 -89.5v-60h-244v57h130l2 3q-109 71 -109 275q0 99 30 175t99 124t171 48q77 0 135.5 -28t92 -77t50 -108.5t16.5 -128.5q0 -86 -29 -163t-86 -117l2 -3h131v-57h-241v59q158 49 158 285q0 130 -60 206
t-173 76zM0 489l-27 -17q-64 59 -64 123q0 79 100 109l20 -62q-63 -24 -63 -67q0 -36 34 -86z" />
    <glyph glyph-name="uni1F6A" unicode="&#x1f6a;" horiz-adv-x="706" 
d="M353 626q-115 -1 -174 -77.5t-59 -207.5q0 -126 39.5 -191.5t118.5 -89.5v-60h-244v57h130l2 3q-109 71 -109 275q0 99 30 175t99 124t171 48q77 0 135.5 -28t92 -77t50 -108.5t16.5 -128.5q0 -86 -29 -163t-86 -117l2 -3h131v-57h-241v59q158 49 158 285q0 130 -60 206
t-173 76zM36 493l-37 -18l-120 204l66 26zM-186 466l-26 17q34 46 34 84q0 22 -14.5 37t-49.5 28q1 5 18 64q105 -32 105 -110q0 -60 -67 -120z" />
    <glyph glyph-name="uni1F6B" unicode="&#x1f6b;" horiz-adv-x="706" 
d="M353 626q-115 -1 -174 -77.5t-59 -207.5q0 -126 39.5 -191.5t118.5 -89.5v-60h-244v57h130l2 3q-109 71 -109 275q0 99 30 175t99 124t171 48q77 0 135.5 -28t92 -77t50 -108.5t16.5 -128.5q0 -86 -29 -163t-86 -117l2 -3h131v-57h-241v59q158 49 158 285q0 130 -60 206
t-173 76zM28 493l-37 -17l-120 204q35 13 66 26zM-169 486l-14.5 -9t-11.5 -8q-64 59 -64 124q0 79 100 108q16 -48 20 -62q-63 -24 -63 -67q0 -37 33 -86z" />
    <glyph glyph-name="uni1F6C" unicode="&#x1f6c;" horiz-adv-x="706" 
d="M353 626q-115 -1 -174 -77.5t-59 -207.5q0 -126 39.5 -191.5t118.5 -89.5v-60h-244v57h130l2 3q-109 71 -109 275q0 99 30 175t99 124t171 48q77 0 135.5 -28t92 -77t50 -108.5t16.5 -128.5q0 -86 -29 -163t-86 -117l2 -3h131v-57h-241v59q158 49 158 285q0 130 -60 206
t-173 76zM-47 469l-38 18l91 212q31 -11 67 -26zM-163 470l-26 17q33 47 33 86q0 42 -63 66l20 62q101 -29 101 -108q0 -64 -65 -123z" />
    <glyph glyph-name="uni1F6D" unicode="&#x1f6d;" horiz-adv-x="706" 
d="M353 626q-115 -1 -174 -77.5t-59 -207.5q0 -126 39.5 -191.5t118.5 -89.5v-60h-244v57h130l2 3q-109 71 -109 275q0 99 30 175t99 124t171 48q77 0 135.5 -28t92 -77t50 -108.5t16.5 -128.5q0 -86 -29 -163t-86 -117l2 -3h131v-57h-241v59q158 49 158 285q0 130 -60 206
t-173 76zM-47 469l-38 17l91 213q36 -15 67 -26zM-120 482l-26 -17q-65 59 -65 123q0 79 101 108q8 -27 20 -61q-63 -24 -63 -67q0 -37 33 -86z" />
    <glyph glyph-name="uni1F6E" unicode="&#x1f6e;" horiz-adv-x="706" 
d="M353 626q-115 -1 -174 -77.5t-59 -207.5q0 -126 39.5 -191.5t118.5 -89.5v-60h-244v57h130l2 3q-109 71 -109 275q0 99 30 175t99 124t171 48q77 0 135.5 -28t92 -77t50 -108.5t16.5 -128.5q0 -86 -29 -163t-86 -117l2 -3h131v-57h-241v59q158 49 158 285q0 130 -60 206
t-173 76zM-87 415l-30 15q34 40 34 69q0 40 -60 49l16 54q51 -9 76 -32.5t25 -54.5q0 -51 -61 -100zM-22 620q-25 0 -70 18.5t-64 18.5q-33 0 -65 -40l-30 23q13 33 39.5 51.5t55.5 18.5q23 0 66.5 -18.5t64.5 -18.5q35 0 65 39l32 -21q-12 -34 -38 -52.5t-56 -18.5z" />
    <glyph glyph-name="uni1F6F" unicode="&#x1f6f;" horiz-adv-x="706" 
d="M353 626q-115 -1 -174 -77.5t-59 -207.5q0 -126 39.5 -191.5t118.5 -89.5v-60h-244v57h130l2 3q-109 71 -109 275q0 99 30 175t99 124t171 48q77 0 135.5 -28t92 -77t50 -108.5t16.5 -128.5q0 -86 -29 -163t-86 -117l2 -3h131v-57h-241v59q158 49 158 285q0 130 -60 206
t-173 76zM-65 422l-29 -15q-61 48 -61 100q0 31 25 54.5t76 32.5l16 -54q-61 -9 -61 -49q0 -27 34 -69zM-20 622q-25 0 -70 17.5t-64 17.5q-35 0 -66 -39l-31 22q14 33 40.5 51.5t55.5 18.5q23 0 66.5 -18t64.5 -18q35 0 65 39l32 -22q-12 -33 -38 -51t-55 -18z" />
    <glyph glyph-name="uni1F70" unicode="&#x1f70;" horiz-adv-x="533" 
d="M257 489q111 0 156 -74h4q0 40 12 66h44v-481h-47q-10 21 -10 77h-4q-50 -85 -159 -85q-110 0 -156.5 64.5t-46.5 182.5q0 110 52 180t155 70zM261 45q52 0 88 28t50 65.5t14 78.5v63q0 71 -39.5 115t-109.5 44q-153 0 -153 -199q0 -195 150 -195zM321 545l-37 -18
l-121 204l67 27z" />
    <glyph glyph-name="uni1F71" unicode="&#x1f71;" horiz-adv-x="533" 
d="M257 489q111 0 156 -74h4q0 40 12 66h44v-481h-47q-10 21 -10 77h-4q-50 -85 -159 -85q-110 0 -156.5 64.5t-46.5 182.5q0 110 52 180t155 70zM261 45q52 0 88 28t50 65.5t14 78.5v63q0 71 -39.5 115t-109.5 44q-153 0 -153 -199q0 -195 150 -195zM270 527l-38 18l91 213
l67 -27z" />
    <glyph glyph-name="uni1F72" unicode="&#x1f72;" horiz-adv-x="457" 
d="M243 -8q-98 0 -146 39t-48 102q0 88 79 118v4q-70 23 -70 95q0 62 45.5 100.5t135.5 38.5q76 0 126.5 -35t50.5 -99q0 -9 -1 -15l-54 -1q-2 45 -35.5 71t-92.5 26q-48 0 -80 -22.5t-32 -62.5q0 -36 25 -52t59 -16h96v-54h-97q-43 0 -68 -25.5t-25 -64.5q0 -42 32 -69.5
t96 -27.5q67 0 101.5 32.5t36.5 84.5h52q0 -3 0.5 -8.5t0.5 -7.5q0 -73 -52.5 -112t-134.5 -39zM290 545l-37 -18l-121 204l67 27z" />
    <glyph glyph-name="uni1F73" unicode="&#x1f73;" horiz-adv-x="457" 
d="M243 -8q-98 0 -146 39t-48 102q0 88 79 118v4q-70 23 -70 95q0 62 45.5 100.5t135.5 38.5q76 0 126.5 -35t50.5 -99q0 -9 -1 -15l-54 -1q-2 45 -35.5 71t-92.5 26q-48 0 -80 -22.5t-32 -62.5q0 -36 25 -52t59 -16h96v-54h-97q-43 0 -68 -25.5t-25 -64.5q0 -42 32 -69.5
t96 -27.5q67 0 101.5 32.5t36.5 84.5h52q0 -3 0.5 -8.5t0.5 -7.5q0 -73 -52.5 -112t-134.5 -39zM243 527l-38 18l91 213l67 -27z" />
    <glyph glyph-name="uni1F74" unicode="&#x1f74;" horiz-adv-x="526" 
d="M286 490q46 0 79.5 -12t52.5 -31t30 -47.5t14.5 -55t3.5 -61.5v-283h-61v276q0 35 -4.5 60t-17 51t-40 39.5t-69.5 13.5q-72 0 -113 -51.5t-41 -119.5v-269h-60v481h46q13 -26 13 -75h4q27 43 73.5 63.5t89.5 20.5zM274 545l-37 -18l-121 204l67 27z" />
    <glyph glyph-name="uni1F75" unicode="&#x1f75;" horiz-adv-x="526" 
d="M286 490q46 0 79.5 -12t52.5 -31t30 -47.5t14.5 -55t3.5 -61.5v-283h-61v276q0 35 -4.5 60t-17 51t-40 39.5t-69.5 13.5q-72 0 -113 -51.5t-41 -119.5v-269h-60v481h46q13 -26 13 -75h4q27 43 73.5 63.5t89.5 20.5zM237 527l-38 18l91 213l67 -27z" />
    <glyph glyph-name="uni1F76" unicode="&#x1f76;" horiz-adv-x="237" 
d="M88 0v481h62v-481h-62zM147 545l-37 -18l-121 204l67 27z" />
    <glyph glyph-name="uni1F77" unicode="&#x1f77;" horiz-adv-x="237" 
d="M88 0v481h62v-481h-62zM130 527l-38 18l91 213l67 -27z" />
    <glyph glyph-name="uni1F78" unicode="&#x1f78;" horiz-adv-x="537" 
d="M270 489q60 0 104 -20.5t67.5 -57t34.5 -79t11 -93.5q0 -49 -11 -91t-35 -78.5t-67.5 -57t-103.5 -20.5q-220 0 -220 245q0 114 54.5 183t165.5 69zM270 434q-158 0 -158 -197q0 -96 38 -144t120 -48q154 0 154 194q0 195 -154 195zM319 545l-37 -18l-121 204l67 27z" />
    <glyph glyph-name="uni1F79" unicode="&#x1f79;" horiz-adv-x="537" 
d="M270 489q60 0 104 -20.5t67.5 -57t34.5 -79t11 -93.5q0 -49 -11 -91t-35 -78.5t-67.5 -57t-103.5 -20.5q-220 0 -220 245q0 114 54.5 183t165.5 69zM270 434q-158 0 -158 -197q0 -96 38 -144t120 -48q154 0 154 194q0 195 -154 195zM281 527l-38 18l91 213l67 -27z" />
    <glyph glyph-name="uni1F7A" unicode="&#x1f7a;" horiz-adv-x="522" 
d="M309 545l-37 -18l-121 204l67 27zM464 183q0 -95 -54.5 -143t-151.5 -48q-98 0 -149 48t-51 143v298h61v-294q0 -74 38 -108.5t102 -34.5t104 35t40 109v293h61v-298z" />
    <glyph glyph-name="uni1F7B" unicode="&#x1f7b;" horiz-adv-x="522" 
d="M253 527l-38 18l91 213l67 -27zM464 183q0 -95 -54.5 -143t-151.5 -48q-98 0 -149 48t-51 143v298h61v-294q0 -74 38 -108.5t102 -34.5t104 35t40 109v293h61v-298z" />
    <glyph glyph-name="uni1F7C" unicode="&#x1f7c;" horiz-adv-x="780" 
d="M730 239q0 -247 -196 -247q-51 0 -89 24.5t-55 61.5h-6q-47 -86 -151 -86q-102 0 -142.5 62.5t-40.5 178.5q0 73 18.5 127.5t66.5 90.5t123 37v-54q-81 -3 -114 -54t-33 -142q0 -94 27 -144t101 -50q60 0 89.5 40t29.5 95v148h61v-153q0 -55 32.5 -92.5t84.5 -37.5
q132 0 132 194q0 189 -147 196v54q108 -2 158.5 -71t50.5 -178zM429 545l-37 -18l-121 204l67 27z" />
    <glyph glyph-name="uni1F7D" unicode="&#x1f7d;" horiz-adv-x="780" 
d="M730 239q0 -247 -196 -247q-51 0 -89 24.5t-55 61.5h-6q-47 -86 -151 -86q-102 0 -142.5 62.5t-40.5 178.5q0 73 18.5 127.5t66.5 90.5t123 37v-54q-81 -3 -114 -54t-33 -142q0 -94 27 -144t101 -50q60 0 89.5 40t29.5 95v148h61v-153q0 -55 32.5 -92.5t84.5 -37.5
q132 0 132 194q0 189 -147 196v54q108 -2 158.5 -71t50.5 -178zM398 527l-38 18l91 213l67 -27z" />
    <glyph glyph-name="uni1F80" unicode="&#x1f80;" horiz-adv-x="533" 
d="M257 489q111 0 156 -74h4q0 40 12 66h44v-481h-47q-10 21 -10 77h-4q-50 -85 -159 -85q-110 0 -156.5 64.5t-46.5 182.5q0 110 52 180t155 70zM261 45q52 0 88 28t50 65.5t14 78.5v63q0 71 -39.5 115t-109.5 44q-153 0 -153 -199q0 -195 150 -195zM266 534l-26 17
q33 49 33 86q0 43 -62 67l19 62q101 -31 101 -109q0 -64 -65 -123zM244 -63h56v-86q0 -19 3 -29.5t15 -15.5t21.5 -5.5t36.5 -0.5v-46q-19 -4 -41 -4q-53 0 -72 23t-19 73v91z" />
    <glyph glyph-name="uni1F81" unicode="&#x1f81;" horiz-adv-x="533" 
d="M257 489q111 0 156 -74h4q0 40 12 66h44v-481h-47q-10 21 -10 77h-4q-50 -85 -159 -85q-110 0 -156.5 64.5t-46.5 182.5q0 110 52 180t155 70zM261 45q52 0 88 28t50 65.5t14 78.5v63q0 71 -39.5 115t-109.5 44q-153 0 -153 -199q0 -195 150 -195zM247 -63h56v-86
q0 -19 3 -29.5t15 -15.5t21.5 -5.5t36.5 -0.5v-46q-19 -4 -41 -4q-53 0 -72 23t-19 73v91zM304 551l-27 -17q-64 59 -64 123q0 79 100 109l20 -62q-63 -24 -63 -67q0 -36 34 -86z" />
    <glyph glyph-name="uni1F82" unicode="&#x1f82;" horiz-adv-x="533" 
d="M257 489q111 0 156 -74h4q0 40 12 66h44v-481h-47q-10 21 -10 77h-4q-50 -85 -159 -85q-110 0 -156.5 64.5t-46.5 182.5q0 110 52 180t155 70zM261 45q52 0 88 28t50 65.5t14 78.5v63q0 71 -39.5 115t-109.5 44q-153 0 -153 -199q0 -195 150 -195zM252 -63h56v-86
q0 -19 3 -29.5t15 -15.5t21.5 -5.5t36.5 -0.5v-46q-19 -4 -41 -4q-53 0 -72 23t-19 73v91zM418 562l-37 -18l-120 204l66 26zM196 535l-26 17q34 46 34 84q0 22 -14.5 37t-49.5 28q1 5 18 64q105 -32 105 -110q0 -60 -67 -120z" />
    <glyph glyph-name="uni1F83" unicode="&#x1f83;" horiz-adv-x="533" 
d="M257 489q111 0 156 -74h4q0 40 12 66h44v-481h-47q-10 21 -10 77h-4q-50 -85 -159 -85q-110 0 -156.5 64.5t-46.5 182.5q0 110 52 180t155 70zM261 45q52 0 88 28t50 65.5t14 78.5v63q0 71 -39.5 115t-109.5 44q-153 0 -153 -199q0 -195 150 -195zM252 -63h56v-86
q0 -19 3 -29.5t15 -15.5t21.5 -5.5t36.5 -0.5v-46q-19 -4 -41 -4q-53 0 -72 23t-19 73v91zM411 556l-37 -17l-120 204q35 13 66 26zM214 549l-14.5 -9t-11.5 -8q-64 59 -64 124q0 79 100 108q16 -48 20 -62q-63 -24 -63 -67q0 -37 33 -86z" />
    <glyph glyph-name="uni1F84" unicode="&#x1f84;" horiz-adv-x="533" 
d="M257 489q111 0 156 -74h4q0 40 12 66h44v-481h-47q-10 21 -10 77h-4q-50 -85 -159 -85q-110 0 -156.5 64.5t-46.5 182.5q0 110 52 180t155 70zM261 45q52 0 88 28t50 65.5t14 78.5v63q0 71 -39.5 115t-109.5 44q-153 0 -153 -199q0 -195 150 -195zM246 -63h56v-86
q0 -19 3 -29.5t15 -15.5t21.5 -5.5t36.5 -0.5v-46q-19 -4 -41 -4q-53 0 -72 23t-19 73v91zM334 538l-38 18l91 212q31 -11 67 -26zM218 539l-26 17q33 47 33 86q0 42 -63 66l20 62q101 -29 101 -108q0 -64 -65 -123z" />
    <glyph glyph-name="uni1F85" unicode="&#x1f85;" horiz-adv-x="533" 
d="M257 489q111 0 156 -74h4q0 40 12 66h44v-481h-47q-10 21 -10 77h-4q-50 -85 -159 -85q-110 0 -156.5 64.5t-46.5 182.5q0 110 52 180t155 70zM261 45q52 0 88 28t50 65.5t14 78.5v63q0 71 -39.5 115t-109.5 44q-153 0 -153 -199q0 -195 150 -195zM246 -63h56v-86
q0 -19 3 -29.5t15 -15.5t21.5 -5.5t36.5 -0.5v-46q-19 -4 -41 -4q-53 0 -72 23t-19 73v91zM322 539l-38 17l91 213q36 -15 67 -26zM249 552l-26 -17q-65 59 -65 123q0 79 101 108q8 -27 20 -61q-63 -24 -63 -67q0 -37 33 -86z" />
    <glyph glyph-name="uni1F86" unicode="&#x1f86;" horiz-adv-x="533" 
d="M257 489q111 0 156 -74h4q0 40 12 66h44v-481h-47q-10 21 -10 77h-4q-50 -85 -159 -85q-110 0 -156.5 64.5t-46.5 182.5q0 110 52 180t155 70zM261 45q52 0 88 28t50 65.5t14 78.5v63q0 71 -39.5 115t-109.5 44q-153 0 -153 -199q0 -195 150 -195zM243 -63h56v-86
q0 -19 3 -29.5t15 -15.5t21.5 -5.5t36.5 -0.5v-46q-19 -4 -41 -4q-53 0 -72 23t-19 73v91zM267 533l-30 15q34 40 34 69q0 40 -60 49l16 54q51 -9 76 -32.5t25 -54.5q0 -51 -61 -100zM332 738q-25 0 -70 18.5t-64 18.5q-33 0 -65 -40l-30 23q13 33 39.5 51.5t55.5 18.5
q23 0 66.5 -18.5t64.5 -18.5q35 0 65 39l32 -21q-12 -34 -38 -52.5t-56 -18.5z" />
    <glyph glyph-name="uni1F87" unicode="&#x1f87;" horiz-adv-x="533" 
d="M257 489q111 0 156 -74h4q0 40 12 66h44v-481h-47q-10 21 -10 77h-4q-50 -85 -159 -85q-110 0 -156.5 64.5t-46.5 182.5q0 110 52 180t155 70zM261 45q52 0 88 28t50 65.5t14 78.5v63q0 71 -39.5 115t-109.5 44q-153 0 -153 -199q0 -195 150 -195zM245 -63h56v-86
q0 -19 3 -29.5t15 -15.5t21.5 -5.5t36.5 -0.5v-46q-19 -4 -41 -4q-53 0 -72 23t-19 73v91zM289 549l-29 -15q-61 48 -61 100q0 31 25 54.5t76 32.5l16 -54q-61 -9 -61 -49q0 -27 34 -69zM334 749q-25 0 -70 17.5t-64 17.5q-35 0 -66 -39l-31 22q14 33 40.5 51.5t55.5 18.5
q23 0 66.5 -18t64.5 -18q35 0 65 39l32 -22q-12 -33 -38 -51t-55 -18z" />
    <glyph glyph-name="uni1F88" unicode="&#x1f88;" horiz-adv-x="766" 
d="M518 0l-68 178h-309l-65 -178h-66l255 676h63l257 -676h-67zM299 598h-7q-19 -63 -60 -174l-72 -193h273l-72 188q-49 136 -62 179zM31 460l-26 17q33 49 33 86q0 43 -62 67l19 62q101 -31 101 -109q0 -64 -65 -123zM618 479h59v-362q0 -37 14 -52.5t52 -15.5h17v-50
q-20 -3 -35 -3q-67 0 -87 30.5t-20 121.5v331z" />
    <glyph glyph-name="uni1F89" unicode="&#x1f89;" horiz-adv-x="766" 
d="M518 0l-68 178h-309l-65 -178h-66l255 676h63l257 -676h-67zM299 598h-7q-19 -63 -60 -174l-72 -193h273l-72 188q-49 136 -62 179zM73 479l-27 -17q-64 59 -64 123q0 79 100 109l20 -62q-63 -24 -63 -67q0 -36 34 -86zM617 479h59v-362q0 -37 14 -52.5t52 -15.5h17v-50
q-19 -3 -35 -3q-67 0 -87 30.5t-20 121.5v331z" />
    <glyph glyph-name="uni1F8A" unicode="&#x1f8a;" horiz-adv-x="767" 
d="M518 0l-68 178h-309l-65 -178h-66l255 676h63l257 -676h-67zM299 598h-7q-19 -63 -60 -174l-72 -193h273l-72 188q-49 136 -62 179zM124 481l-37 -18l-120 204l66 26zM-98 454l-26 17q34 46 34 84q0 22 -14.5 37t-49.5 28q1 5 18 64q105 -32 105 -110q0 -60 -67 -120z
M618 479h59v-362q0 -37 14 -52.5t52 -15.5h17v-50q-20 -3 -35 -3q-67 0 -87 30.5t-20 121.5v331z" />
    <glyph glyph-name="uni1F8B" unicode="&#x1f8b;" horiz-adv-x="766" 
d="M518 0l-68 178h-309l-65 -178h-66l255 676h63l257 -676h-67zM299 598h-7q-19 -63 -60 -174l-72 -193h273l-72 188q-49 136 -62 179zM115 481l-37 -17l-120 204q35 13 66 26zM-82 474l-14.5 -9t-11.5 -8q-64 59 -64 124q0 79 100 108q16 -48 20 -62q-63 -24 -63 -67
q0 -37 33 -86zM616 479h59v-362q0 -37 14 -52.5t52 -15.5h17v-50q-20 -3 -35 -3q-67 0 -87 30.5t-20 121.5v331z" />
    <glyph glyph-name="uni1F8C" unicode="&#x1f8c;" horiz-adv-x="768" 
d="M518 0l-68 178h-309l-65 -178h-66l255 676h63l257 -676h-67zM299 598h-7q-19 -63 -60 -174l-72 -193h273l-72 188q-49 136 -62 179zM23 462l-38 18l91 212q31 -11 67 -26zM-93 463l-26 17q33 47 33 86q0 42 -63 66l20 62q101 -29 101 -108q0 -64 -65 -123zM619 479h59
v-362q0 -37 14 -52.5t52 -15.5h17v-50q-19 -3 -35 -3q-67 0 -87 30.5t-20 121.5v331z" />
    <glyph glyph-name="uni1F8D" unicode="&#x1f8d;" horiz-adv-x="771" 
d="M518 0l-68 178h-309l-65 -178h-66l255 676h63l257 -676h-67zM299 598h-7q-19 -63 -60 -174l-72 -193h273l-72 188q-49 136 -62 179zM21 463l-38 17l91 213q36 -15 67 -26zM-52 476l-26 -17q-65 59 -65 123q0 79 101 108q8 -27 20 -61q-63 -24 -63 -67q0 -37 33 -86z
M622 479h59v-362q0 -37 14 -52.5t52 -15.5h17v-50q-20 -3 -35 -3q-67 0 -87 30.5t-20 121.5v331z" />
    <glyph glyph-name="uni1F8E" unicode="&#x1f8e;" horiz-adv-x="773" 
d="M518 0l-68 178h-309l-65 -178h-66l255 676h63l257 -676h-67zM299 598h-7q-19 -63 -60 -174l-72 -193h273l-72 188q-49 136 -62 179zM-14 402l-30 15q34 40 34 69q0 40 -60 49l16 54q51 -9 76 -32.5t25 -54.5q0 -51 -61 -100zM51 607q-25 0 -70 18.5t-64 18.5
q-33 0 -65 -40l-30 23q13 33 39.5 51.5t55.5 18.5q23 0 66.5 -18.5t64.5 -18.5q35 0 65 39l32 -21q-12 -34 -38 -52.5t-56 -18.5zM624 479h59v-362q0 -37 14 -52.5t52 -15.5h17v-50q-20 -3 -35 -3q-67 0 -87 30.5t-20 121.5v331z" />
    </font>
</defs>
</svg>
