<?xml version="1.0" encoding="UTF-8"?>
<svg width="32px" height="32px" viewBox="0 0 32 32" version="1.1" xmlns="http://www.w3.org/2000/svg" xmlns:xlink="http://www.w3.org/1999/xlink">
    <title>Group 14</title>
    <defs>
        <polygon id="path-1" points="0 0.0001 18.0122 0.0001 18.0122 18.4031 0 18.4031"></polygon>
    </defs>
    <g id="Desktop" stroke="none" stroke-width="1" fill="none" fill-rule="evenodd">
        <g id="Doação---QR-Code" transform="translate(-801.000000, -645.000000)">
            <g id="Group-5" transform="translate(801.000000, 557.000000)">
                <g id="Group-14" transform="translate(0.000000, 88.000000)">
                    <circle id="Oval-Copy-2" fill="#ED2E60" cx="16" cy="16" r="16"></circle>
                    <g id="Group-11" transform="translate(7.000000, 7.000000)">
                        <mask id="mask-2" fill="white">
                            <use xlink:href="#path-1"></use>
                        </mask>
                        <g id="Clip-2"></g>
                        <path d="M4.985,7.0401 L6.844,7.0401 L6.844,5.1801 L4.985,5.1801 L4.985,7.0401 Z M7.722,3.4251 L4.107,3.4251 C3.624,3.4251 3.23,3.8181 3.23,4.3031 L3.23,7.9171 C3.23,8.4011 3.624,8.7951 4.107,8.7951 L7.722,8.7951 C8.207,8.7951 8.6,8.4011 8.6,7.9171 L8.6,4.3031 C8.6,3.8181 8.207,3.4251 7.722,3.4251 L7.722,3.4251 Z" id="Fill-1" fill="#FFFFFF" mask="url(#mask-2)"></path>
                        <path d="M4.985,13.2231 L6.844,13.2231 L6.844,11.3631 L4.985,11.3631 L4.985,13.2231 Z M7.722,9.6081 L4.107,9.6081 C3.624,9.6081 3.23,10.0021 3.23,10.4851 L3.23,14.1001 C3.23,14.5851 3.624,14.9781 4.107,14.9781 L7.722,14.9781 C8.207,14.9781 8.6,14.5851 8.6,14.1001 L8.6,10.4851 C8.6,10.0021 8.207,9.6081 7.722,9.6081 L7.722,9.6081 Z" id="Fill-3" fill="#FFFFFF" mask="url(#mask-2)"></path>
                        <path d="M11.168,7.0391 L13.027,7.0391 L13.027,5.1791 L11.168,5.1791 L11.168,7.0391 Z M10.29,8.7951 L13.906,8.7951 C14.389,8.7951 14.783,8.4011 14.783,7.9171 L14.783,4.3031 C14.783,3.8181 14.389,3.4251 13.906,3.4251 L10.29,3.4251 C9.806,3.4251 9.413,3.8181 9.413,4.3031 L9.413,7.9171 C9.413,8.4011 9.806,8.7951 10.29,8.7951 L10.29,8.7951 Z" id="Fill-4" fill="#FFFFFF" mask="url(#mask-2)"></path>
                        <path d="M14.7827,14.1005 L14.7827,13.2665 C14.7827,12.7835 14.3887,12.3895 13.9057,12.3895 L13.0717,12.3895 C12.5877,12.3895 12.1937,12.7835 12.1937,13.2665 L12.1937,14.1005 C12.1937,14.5845 12.5877,14.9785 13.0717,14.9785 L13.9057,14.9785 C14.3887,14.9785 14.7827,14.5845 14.7827,14.1005" id="Fill-5" fill="#FFFFFF" mask="url(#mask-2)"></path>
                        <path d="M11.1245,9.6083 L10.2905,9.6083 C9.8065,9.6083 9.4125,10.0023 9.4125,10.4853 L9.4125,11.3203 C9.4125,11.8033 9.8065,12.1973 10.2905,12.1973 L11.1245,12.1973 C11.6085,12.1973 12.0025,11.8033 12.0025,11.3203 L12.0025,10.4853 C12.0025,10.0023 11.6085,9.6083 11.1245,9.6083" id="Fill-6" fill="#FFFFFF" mask="url(#mask-2)"></path>
                        <path d="M0.8774,4.3017 C1.3614,4.3017 1.7554,3.9077 1.7554,3.4237 L1.7554,1.7547 L3.5634,1.7547 C4.0464,1.7547 4.4404,1.3617 4.4404,0.8777 C4.4404,0.3937 4.0464,-0.0003 3.5634,-0.0003 L0.8774,-0.0003 C0.3944,-0.0003 0.0004,0.3937 0.0004,0.8777 L0.0004,3.4237 C0.0004,3.9077 0.3944,4.3017 0.8774,4.3017" id="Fill-7" fill="#FFFFFF" mask="url(#mask-2)"></path>
                        <path d="M17.1352,-0.0001 L14.4492,-0.0001 C13.9662,-0.0001 13.5722,0.3939 13.5722,0.8779 C13.5722,1.3609 13.9662,1.7549 14.4492,1.7549 L16.2572,1.7549 L16.2572,3.4239 C16.2572,3.9079 16.6512,4.3019 17.1352,4.3019 C17.6182,4.3019 18.0122,3.9079 18.0122,3.4239 L18.0122,0.8779 C18.0122,0.3939 17.6182,-0.0001 17.1352,-0.0001" id="Fill-8" fill="#FFFFFF" mask="url(#mask-2)"></path>
                        <path d="M17.1352,14.1015 C16.6512,14.1015 16.2572,14.4955 16.2572,14.9795 L16.2572,16.6485 L14.4492,16.6485 C13.9662,16.6485 13.5722,17.0415 13.5722,17.5255 C13.5722,18.0095 13.9662,18.4035 14.4492,18.4035 L17.1352,18.4035 C17.6182,18.4035 18.0122,18.0095 18.0122,17.5255 L18.0122,14.9795 C18.0122,14.4955 17.6182,14.1015 17.1352,14.1015" id="Fill-9" fill="#FFFFFF" mask="url(#mask-2)"></path>
                        <path d="M3.563,16.6483 L1.755,16.6483 L1.755,14.9793 C1.755,14.4953 1.362,14.1013 0.877,14.1013 C0.394,14.1013 0,14.4953 0,14.9793 L0,17.5253 C0,18.0093 0.394,18.4033 0.877,18.4033 L3.563,18.4033 C4.046,18.4033 4.441,18.0093 4.441,17.5253 C4.441,17.0423 4.046,16.6483 3.563,16.6483" id="Fill-10" fill="#FFFFFF" mask="url(#mask-2)"></path>
                    </g>
                </g>
            </g>
        </g>
    </g>
</svg>