<?xml version="1.0" encoding="UTF-8"?>
<svg width="34px" height="30px" viewBox="0 0 34 30" version="1.1" xmlns="http://www.w3.org/2000/svg" xmlns:xlink="http://www.w3.org/1999/xlink">
    <title>Group 7</title>
    <defs>
        <filter id="filter-1">
            <feColorMatrix in="SourceGraphic" type="matrix" values="0 0 0 0 1.000000 0 0 0 0 1.000000 0 0 0 0 1.000000 0 0 0 1.000000 0"></feColorMatrix>
        </filter>
    </defs>
    <g id="Symbols" stroke="none" stroke-width="1" fill="none" fill-rule="evenodd">
        <g id="Button/Action-Azul" transform="translate(-226.000000, -7.000000)">
            <g id="Group-7" transform="translate(107.000000, 8.000000)" filter="url(#filter-1)">
                <g transform="translate(120.000000, 0.000000)">
                    <path d="M31.6123677,16.0912565 C30.905284,15.0814404 29.4668868,14.8075606 28.4060934,15.4807899 L23.7842941,18.4140725 C23.5209349,18.5810459 23.4498805,18.919717 23.6252977,19.1702118 C23.80089,19.4208596 24.1564242,19.4884993 24.4196667,19.3214008 L29.0416995,16.3881182 C29.5767232,16.0485857 30.3024901,16.1866996 30.6592212,16.696193 C31.0161567,17.2055057 30.8708661,17.8964507 30.3357256,18.2359833 L20.0958927,24.7346632 C20.0027543,24.7938271 19.9021865,24.8397632 19.7969625,24.8709986 C19.6380828,24.9184354 19.4671175,24.9320244 19.3004143,24.9115852 L11.2051573,22.7063467 C11.1845328,22.7004137 11.1633829,22.6951892 11.1417222,22.6913682 C10.5481093,22.5875465 9.94449805,22.7059994 9.44187789,23.0250371 L8.96004272,23.3310833 L5.84403127,18.8817565 L9.58921193,16.4913007 C10.1338108,16.1457101 10.7851224,16.0188509 11.4273406,16.1313707 L20.1469356,18.7933302 C20.1473151,18.7934552 20.1476654,18.7934969 20.1479719,18.7935525 C20.1484682,18.7936776 20.1486433,18.7938582 20.1489498,18.7939693 C20.7533347,18.9761714 21.0993376,19.5873189 20.9200817,20.1563374 C20.8328548,20.4328154 20.6353682,20.6603006 20.3638789,20.7967472 C20.0893682,20.9347639 19.7726306,20.9634427 19.4718029,20.8775175 C19.4688837,20.8766977 19.4660228,20.8762947 19.4632058,20.8754194 C19.4597902,20.8746135 19.4569294,20.8733907 19.4535723,20.8726265 L15.1955833,19.7982553 C14.8898221,19.7210977 14.5762227,19.8945322 14.4951992,20.1855859 C14.4513668,20.3428746 14.4844564,20.5024421 14.5723839,20.6278424 C14.6471603,20.7347348 14.7616529,20.8169502 14.9021121,20.8522429 L19.1601448,21.9266974 C19.1608163,21.9268642 19.1614293,21.9268642 19.1620278,21.9270309 C19.7468245,22.0890856 20.3627258,22.0305608 20.8988004,21.7610996 C21.4439539,21.4871087 21.8410873,21.0283591 22.0172927,20.4696227 C22.3750747,19.3345869 21.6938409,18.1180167 20.4986894,17.75553 C20.498018,17.7553633 20.4973465,17.7550715 20.4966751,17.7548492 L11.7897059,15.0966552 C11.7582657,15.0848585 11.7255118,15.0750488 11.6911816,15.0685044 C10.7362689,14.8866496 9.76407441,15.069602 8.95254027,15.5847227 L5.20858569,17.9743031 L4.87728114,17.5012836 C4.70180562,17.250747 4.34614,17.1829822 4.08297051,17.3500946 L0.255087779,19.7794418 C-0.00812550214,19.9464986 -0.0792089978,20.284989 0.0962957151,20.5356367 L3.221386,24.9978023 C3.39686152,25.2483388 3.75248334,25.3160341 4.01565283,25.1490607 C4.27885152,24.9819483 4.3499934,24.6434579 4.17451788,24.3928658 L1.36717228,20.3843366 L4.24182096,18.5599259 L8.66391501,24.8741944 L5.78929552,26.6985496 L5.65115708,26.5013133 C5.47563777,26.2506656 5.12005974,26.1830259 4.85681726,26.3500549 C4.59366237,26.5171673 4.5224767,26.8556577 4.69798141,27.1061387 L5.15384994,27.7571363 C5.32932546,28.0076589 5.68494729,28.0754237 5.94818976,27.9083808 L9.7760287,25.4790753 C10.0391836,25.3119768 10.1103401,24.9734169 9.93490834,24.7228804 L9.59557588,24.238481 L10.0776446,23.9321987 C10.3249334,23.7753268 10.6207838,23.7152736 10.9131749,23.7611402 L19.0251008,25.9709223 C19.0260787,25.9712697 19.0271005,25.9713252 19.0279617,25.9717977 C19.0385293,25.9744655 19.0492575,25.9765497 19.0600441,25.9786478 C19.0694441,25.980732 19.0787856,25.9828857 19.088098,25.9843863 C19.0904188,25.9847337 19.0924915,25.9853728 19.0948123,25.9856646 C19.4433257,26.0371725 19.8044649,26.0116201 20.1393893,25.9116889 C20.3484653,25.8493987 20.5476596,25.7587075 20.7313674,25.6421165 L30.9712004,19.1433811 C32.0318771,18.4702213 32.3195682,17.1010031 31.6123677,16.0912565" id="Fill-1" stroke="#979797" stroke-width="0.6" fill="#322F31"></path>
                    <path d="M26.1378094,10.3811224 C24.6244597,11.5833694 23.0906633,12.4653013 22.4998909,12.7895538 C21.9114759,12.4668202 20.3875318,11.5909198 18.8756374,10.3918138 C17.1627538,9.0332951 15.1208887,6.98008446 15.1208887,4.91345424 C15.1208887,2.45979445 17.0217368,1.13581269 18.8102515,1.13581269 C20.109136,1.13581269 21.2832299,1.79831233 22.0314495,2.95344332 C22.1350657,3.11338703 22.3111842,3.20972783 22.5000073,3.20972783 C22.6888304,3.20972783 22.8649343,3.11341653 22.9685068,2.95347282 C23.7167846,1.79834183 24.890864,1.13581269 26.1897485,1.13581269 C27.9782777,1.13581269 29.8791258,2.45979445 29.8791258,4.91345424 C29.8791258,6.97604384 27.8446099,9.0252581 26.1378094,10.3811224 M29.5078102,1.3035722 C28.6284258,0.475126901 27.4189976,0 26.1897485,0 C24.759219,0 23.4497546,0.613437066 22.5,1.70645457 C21.5502599,0.613437066 20.2407955,0 18.8102515,0 C17.5811334,0 16.3717779,0.475156395 15.4922626,1.30367543 C14.5299707,2.21016075 14,3.49214365 14,4.91345424 C14,9.65127418 21.9100061,13.7658947 22.2467879,13.9386828 C22.3263919,13.9795462 22.4131705,14 22.5,14 C22.5868441,14 22.6736226,13.9795462 22.7532267,13.9386828 C23.0899939,13.7658947 31,9.65127418 31,4.91345424 C31,3.49202567 30.4700875,2.21001328 29.5078102,1.3035722" id="Fill-3" stroke="#979797" stroke-width="0.6" fill="#322F31"></path>
                    <path d="M19.4142847,3.00011507 C19.3055045,3.0020371 18.3312897,3.0385555 17.6374224,3.72225182 C17.1882544,4.16480414 16.9746052,4.75714875 17.0024011,5.48278134 C17.0134627,5.77232407 17.2685072,6 17.5765311,6 C17.5834577,6 17.590444,5.99987465 17.5974303,5.99965181 C17.9147245,5.98908069 18.1627678,5.74051323 18.1514225,5.4444802 C18.1351958,5.02045171 18.2412442,4.69100615 18.4666566,4.46540545 C18.83178,4.09997074 19.4220323,4.07328529 19.439931,4.07257498 C19.7554935,4.0650401 20.0058954,3.82122198 19.9998944,3.52628924 C19.9939082,3.23014479 19.7339823,2.99402867 19.4142847,3.00011507" id="Fill-5" stroke="#979797" stroke-width="0.6" fill="#322F31"></path>
                </g>
            </g>
        </g>
    </g>
</svg>