<?xml version="1.0" encoding="UTF-8"?>
<svg width="68px" height="74px" viewBox="0 0 68 74" version="1.1" xmlns="http://www.w3.org/2000/svg" xmlns:xlink="http://www.w3.org/1999/xlink">
    <title>Icon/Illustrated/Globo</title>
    <defs>
        <filter id="filter-1">
            <feColorMatrix in="SourceGraphic" type="matrix" values="0 0 0 0 0.970200 0 0 0 0 0.980000 0 0 0 0 0.980000 0 0 0 1.000000 0"></feColorMatrix>
        </filter>
    </defs>
    <g id="Desktop" stroke="none" stroke-width="1" fill="none" fill-rule="evenodd">
        <g id="Desktop-HD" transform="translate(-164.000000, -2328.000000)">
            <g id="Group-34" transform="translate(0.000000, 2172.000000)">
                <g id="Group-14" transform="translate(164.000000, 72.000000)">
                    <g id="Group" transform="translate(0.000000, 84.000000)">
                        <g id="Group-5" fill="#00B2E3">
                            <circle id="Oval-Copy-2" cx="26" cy="26" r="26"></circle>
                        </g>
                        <g filter="url(#filter-1)" id="Group-17">
                            <g transform="translate(4.000000, 3.000000)">
                                <path d="M17.35719,46 C11.4105266,41.0319994 8,33.7658458 8,26.0651862 C8,11.6927105 19.8004917,0 34.3048035,0 C39.1499213,0 43.8858129,1.3163103 48,3.80692232 L46.7896634,5.76931417 C43.040434,3.49962036 38.7233154,2.29973409 34.3048035,2.29973409 C21.0798744,2.29973409 10.3208756,12.9610139 10.3208756,26.0651862 C10.3208756,33.0864181 13.4305587,39.7116646 18.8531393,44.2421408 L17.35719,46 Z" id="Fill-1" fill="#333333"></path>
                                <path d="M52.3462478,45 L51,43.2673686 C55.4350627,38.7148195 57.9786069,32.187181 57.9786069,25.3581395 C57.9786069,19.0700553 55.8777478,13.1254776 52.0630001,8.61967784 L53.5119599,7 C57.6958646,11.9419339 60,18.4615872 60,25.3581395 C60,32.8482058 57.2102249,40.0072516 52.3462478,45" id="Fill-3" fill="#333333"></path>
                                <path d="M21.0117747,26.2696248 C21.0297422,26.2833499 21.0500095,26.2999572 21.071858,26.3188978 C21.0488596,26.2972122 21.0274423,26.2814284 21.0117747,26.2696248 M21.6692409,35 C21.3969975,35 21.1302163,34.9076303 20.9190625,34.73442 C16.682761,31.2536069 16.121313,30.5308451 15.9718236,30.2321877 C15.6793129,29.8946884 14.3732924,29.0224607 14,28.8444466 L15.0286025,26.8799784 C15.0527508,26.8917819 17.4418512,28.1753498 18.0140797,29.2183173 C18.3071653,29.5711887 19.6989984,30.7932683 21.177363,32.0368962 C21.4238769,31.3234674 21.5855843,30.7015848 21.5900402,30.4045745 C21.0078937,29.6466765 19.7804989,28.1779575 19.5355662,27.952043 C19.1976338,27.6964823 17.864159,25.934596 17.9634832,24.7097714 C18.006174,24.1869838 18.2880479,23.7465465 18.7383849,23.5010052 C19.542322,23.0627639 20.9051197,23.1828582 22.6029751,23.3857146 C22.8191598,23.4115177 23.0038656,23.4353994 23.1352438,23.4474774 C23.6311464,23.2211511 24.832093,22.2413189 25.0612144,21.5293999 C25.6103007,19.8258451 27.8096644,17.7319495 30.0679616,16.7618621 C31.9528225,15.9513971 32.4952968,15.7997352 33.3790095,15.7772261 C34.0685297,15.0121911 35.0117507,12.3333333 34.6278215,11.7660765 C34.2903203,11.3146592 33.1898478,10.7404025 32.3054164,10.2788287 C30.8753484,9.53259702 29.5250561,8.82754055 29.0977174,7.75767191 C28.9545525,7.39848701 28.5177271,6.30501126 29.1325025,1 L31.4188289,1.24169836 C30.9814285,5.01265935 31.1050447,6.62000145 31.2470597,6.97548058 C31.4143729,7.31078386 32.66261,7.96244984 33.4081887,8.35196712 C34.6114352,8.9797515 35.8552163,9.62908422 36.4997459,10.4906064 C37.8434262,12.2869426 36.0775819,15.6869152 35.8720339,16.0686092 C35.1730269,17.3654903 34.4823568,17.9696676 33.6979683,17.9696676 C33.0208098,17.9696676 32.8602523,17.9696676 31.0117576,18.7642115 C29.1038982,19.583735 27.5407271,21.3030736 27.2594282,22.1748896 C26.7405273,23.7864865 24.3908116,25.6511735 23.2492295,25.6511735 C23.0500061,25.6511735 22.7928554,25.6216646 22.3177952,25.5648428 C21.9263915,25.5179031 21.0921253,25.4185337 20.4727502,25.3986323 C20.6580309,25.75219 20.9186312,26.152001 21.0768888,26.3238388 C21.6265501,26.8116276 23.2891892,28.8959156 23.5625825,29.2618258 C23.7837981,29.5574636 24.4565007,30.456318 22.7271663,34.3322757 C22.5834264,34.6545402 22.287466,34.8919838 21.9298412,34.9713146 C21.8438848,34.990667 21.7563472,35 21.6692409,35" id="Fill-5" fill="#333333"></path>
                                <path d="M44.8674434,17.364188 C44.9067873,17.4462089 45.010247,17.551942 45.1318552,17.6504189 C45.3394371,17.1214942 45.6653153,16.4688256 46.3489973,16.1066639 C46.9403472,15.7928335 47.8247225,15.6141498 48.6045784,15.4564572 C48.9010481,15.396464 49.3062765,15.3145727 49.419539,15.271813 C49.5339938,15.2110423 49.7585319,14.9723654 49.8475523,14.8058617 C49.6907068,14.5871393 49.5479033,14.3645297 49.4086764,14.1476214 C49.258587,13.9137387 49.0376256,13.5693287 48.917607,13.4466213 C48.5337065,13.3112156 47.2084682,13.1447119 46.8539762,13.1447119 L46.7407136,13.1386219 C45.7414861,13.0340549 44.6103175,13.0738344 44.1326277,13.2170147 C44.1450799,13.2286764 44.1580621,13.2395607 44.169852,13.2507041 C44.3525293,13.4185036 44.692052,13.730779 44.7753762,14.3234545 C44.8592302,14.9248115 44.8674434,16.1509785 44.8674434,17.364188 M45.5427798,20 C45.2803551,20 44.9667966,19.9344351 44.5962756,19.7618414 C43.9096792,19.4424393 42.7479099,18.5875043 42.7479099,17.4107054 C42.7479099,16.7229219 42.7479099,15.3464481 42.6900202,14.7349843 C42.2894284,14.3592171 41.9370559,13.8608722 42.0095175,12.8229775 C42.0399858,12.3874763 42.2537937,11.9857942 42.6118624,11.6925663 C43.6597068,10.8338736 45.998612,10.9749807 46.9626023,11.0768265 C47.4387025,11.1039077 49.3502568,11.2415162 50.0663942,11.6976197 C50.5269953,11.9905885 50.8560528,12.502798 51.2037888,13.0454575 C51.3487119,13.2706587 51.4982715,13.5060962 51.6586937,13.7180807 C51.9918579,14.1601901 52.0849849,14.7167142 51.920986,15.2856775 C51.6736629,16.1435927 50.8436006,16.9435879 50.2164836,17.19289 C49.9360428,17.3041948 49.5381004,17.3846608 49.033519,17.4866362 C48.492773,17.5959974 47.6756928,17.7612054 47.3590875,17.929264 C47.2497991,18.0077864 47.0950731,18.429423 47.0211544,18.6320781 C46.8757014,19.0281885 46.725612,19.4379042 46.3691329,19.7210253 C46.1853959,19.8673153 45.9158177,20 45.5427798,20" id="Fill-7" fill="#333333"></path>
                                <path d="M33.1200971,44.8841491 C33.2935311,45.0163541 33.7190342,45.2153785 34.2201144,45.4072335 C34.3168064,45.122749 34.3862674,44.8854396 34.4062174,44.7608342 C34.3373389,44.0030214 34.9164716,43.498721 35.3441591,43.1256219 C35.4778387,43.0093331 35.713307,42.8041429 35.8049023,42.6831223 C35.8874691,40.7840736 38.0052281,40.0886351 38.8124026,39.823795 C39.6115679,39.5616792 40.3106919,38.5298493 40.5626154,38.083765 C40.6855191,37.2663023 40.6866841,36.3355619 40.5661103,35.9942952 C39.7912636,35.6481533 38.1371603,35.3940673 36.6058151,35.3940673 C35.8692666,35.3940673 34.3367564,35.3940673 34.2412294,33.7142609 C34.2338027,33.585784 34.229871,33.5487896 34.2116684,33.5103612 C34.1621574,33.4086982 34.1189081,33.3123405 34.0797362,33.2217184 C33.2236333,33.5969684 32.1246353,33.7227209 30.5153832,32.6657978 C29.5972459,32.0631323 29.2388738,32.2770693 28.5256246,32.7032225 C28.2850595,32.8471854 28.0369222,32.9955934 27.7554378,33.1110218 C27.4784676,33.4614654 27.2508627,34.8067445 27.3367788,35.3176408 C27.5023493,35.5520824 28.2003084,36.0704349 28.8867635,36.4084037 C29.7792715,36.8481789 30.2298214,38.219268 30.4521839,39.3210719 C30.6331901,39.877566 31.2900842,41.9440935 31.3663894,42.9251636 C31.4192496,43.0927857 31.8942637,43.5361457 32.1490996,43.7744588 C32.5329552,44.133219 32.8981715,44.4740555 33.1200971,44.8841491 L33.1200971,44.8841491 Z M34.9135592,48 C34.8049263,48 34.6939635,47.9849441 34.5847481,47.9532551 C31.5672001,47.0788667 31.1802864,46.2235491 31.0534509,45.942506 C31.0029206,45.8665096 30.7275522,45.6091257 30.5455266,45.4389225 C29.9113493,44.8465811 29.1223774,44.1094163 29.0433055,43.1012457 C29.0000562,42.5447516 28.5318863,40.9301873 28.2132686,39.9613054 C28.1991434,39.9169981 28.1872026,39.8711135 28.1780285,39.8253723 C28.0693956,39.2740402 27.8595564,38.6329463 27.7145184,38.3952067 C27.0654878,38.0616831 25.5000674,37.1600507 25.1268421,36.058677 C24.7964291,35.0817653 25.0272376,31.6805695 26.837883,31.0016209 C26.9578743,30.9565966 27.1320364,30.8523525 27.3168288,30.7423729 C28.1331773,30.2531284 29.654766,29.3428927 31.8077651,30.7568552 C32.721825,31.3567963 32.9693799,31.2222971 33.3128987,31.0358909 C33.5370086,30.9142967 33.8157262,30.763021 34.181525,30.7179967 C35.5130788,30.554963 35.9391644,31.611886 36.1178408,32.0641361 C36.1695361,32.1950506 36.2292405,32.3479036 36.3134091,32.520401 C36.415926,32.73104 36.4750479,32.9267665 36.510288,33.0992639 C36.5404315,33.0995507 36.5723224,33.0998375 36.6058151,33.0998375 C38.1860888,33.0998375 40.4927176,33.3446031 41.7935455,34.0338758 C43.2697006,34.8163516 43.0763165,37.2598497 42.8299266,38.6467117 C42.8117241,38.7505256 42.7788138,38.8516151 42.7322153,38.9465388 C42.6120784,39.1915913 41.5052169,41.3582046 39.5495336,42.0003022 C38.4289838,42.3680959 38.1326461,42.6831223 38.1326461,42.798264 C38.1326461,43.7596897 37.3840111,44.4122547 36.8886101,44.8437133 C36.8390991,44.8865867 36.7782298,44.9400709 36.7230396,44.9896837 C36.6735286,45.3901702 36.5006771,46.0771486 35.9898404,47.2915131 C35.8060673,47.7294243 35.3743025,48 34.9135592,48 L34.9135592,48 Z" id="Fill-9" fill="#333333"></path>
                                <path d="M37.052337,58 L24,58 L24,55.9230969 L37.052337,55.9230969 C38.5213082,55.9230969 39.716551,54.8362275 39.716551,53.5001298 C39.716551,52.1640321 38.5213082,51.0769031 37.052337,51.0769031 L24,51.0769031 L24,49 L37.052337,49 C39.7806303,49 42,51.01862 42,53.4998702 C42,55.9811204 39.7806303,58 37.052337,58" id="Fill-11" fill="#333333"></path>
                                <path d="M8.56467815,71 L7,69.3874212 L10.1152263,66.6520169 C11.6915833,65.2671028 13.7423037,64.5042891 15.8893386,64.5042891 L32.4900374,64.5042891 C34.3667284,64.5042891 36.2354893,64.0644575 37.8947518,63.2321101 L60.2577398,52.0185296 C61.5706737,51.3603594 62.0753156,49.8085369 61.3830911,48.5598101 C60.6914434,47.3112204 59.0604409,46.8320275 57.7469302,47.4891006 L43.7977639,54.4838908 L42.7220117,52.5429812 L56.6711779,45.548191 C59.1088865,44.325385 62.1394772,45.2173915 63.4241512,47.5365536 C64.7089694,49.8559899 63.7712006,52.7371818 61.333492,53.9594392 L38.970504,65.1731568 C36.9812058,66.1711782 34.7401634,66.698647 32.4900374,66.698647 L15.8893386,66.698647 C14.3240837,66.698647 12.8293345,67.2546425 11.6797603,68.2643214 L8.56467815,71 Z" id="Fill-13" fill="#333333"></path>
                                <path d="M1.53575067,60 L0,58.2336828 L6.99422771,51.6279095 C7.19137909,51.4410718 7.36451204,51.2435064 7.50790786,51.0414713 C8.26520364,49.9714004 10.537091,47.438065 15.2499955,47.0451693 C17.7060243,46.8414952 19.4529371,47.3661011 20.9954072,47.8296197 C22.0603678,48.1498066 22.980217,48.4261895 24,48.4261895 L24,50.8100845 C22.6568258,50.8100845 21.4896438,50.459503 20.3616348,50.1200959 C18.9408296,49.6929317 17.4715585,49.2529541 15.4319924,49.4214657 C11.6579516,49.7359908 9.92004575,51.6493646 9.34817807,52.457207 C9.11528495,52.7860355 8.84050253,53.1008587 8.53055024,53.3936308 L1.53575067,60 Z" id="Fill-15" fill="#333333"></path>
                            </g>
                        </g>
                    </g>
                </g>
            </g>
        </g>
    </g>
</svg>