<?xml version="1.0" encoding="UTF-8"?>
<svg width="24px" height="24px" viewBox="0 0 24 24" version="1.1" xmlns="http://www.w3.org/2000/svg" xmlns:xlink="http://www.w3.org/1999/xlink">
    <title>Group 8</title>
    <defs>
        <filter id="filter-1">
            <feColorMatrix in="SourceGraphic" type="matrix" values="0 0 0 0 1.000000 0 0 0 0 1.000000 0 0 0 0 1.000000 0 0 0 1.000000 0"></feColorMatrix>
        </filter>
        <polygon id="path-2" points="0 0.14134902 23.8586667 0.14134902 23.8586667 24 0 24"></polygon>
    </defs>
    <g id="Desktop" stroke="none" stroke-width="1" fill="none" fill-rule="evenodd">
        <g id="Desktop-HD" transform="translate(-363.000000, -1882.000000)">
            <g id="Group-8" transform="translate(164.000000, 1872.000000)" filter="url(#filter-1)">
                <g transform="translate(199.000000, 10.000000)">
                    <path d="M12,7.99754319 C9.79301344,7.99754319 7.99754319,9.79301344 7.99754319,12 C7.99754319,14.2069866 9.79301344,16.0024568 12,16.0024568 C14.2069866,16.0024568 16.0024568,14.2069866 16.0024568,12 C16.0024568,9.79301344 14.2069866,7.99754319 12,7.99754319 M12,18 C8.69159309,18 6,15.3084069 6,12 C6,8.69159309 8.69159309,6 12,6 C15.3084069,6 18,8.69159309 18,12 C18,15.3084069 15.3084069,18 12,18" id="Fill-1" fill="#000000"></path>
                    <g id="Group-5">
                        <mask id="mask-3" fill="white">
                            <use xlink:href="#path-2"></use>
                        </mask>
                        <g id="Clip-4"></g>
                        <path d="M6.22814118,2.18197647 C3.91912157,2.18197647 2.04053333,4.06056471 2.04053333,6.36942745 L2.04053333,17.7719373 C2.04053333,20.0808 3.91912157,21.9593882 6.22814118,21.9593882 L17.6304941,21.9593882 C19.9395137,21.9593882 21.818102,20.0808 21.818102,17.7719373 L21.818102,6.36942745 C21.818102,4.06056471 19.9395137,2.18197647 17.6304941,2.18197647 L6.22814118,2.18197647 Z M17.6304941,24.0000157 L6.22814118,24.0000157 C2.7939451,24.0000157 -9.41176471e-05,21.2059765 -9.41176471e-05,17.7719373 L-9.41176471e-05,6.36942745 C-9.41176471e-05,2.93538824 2.7939451,0.14134902 6.22814118,0.14134902 L17.6304941,0.14134902 C21.0646902,0.14134902 23.8587294,2.93538824 23.8587294,6.36942745 L23.8587294,17.7719373 C23.8587294,21.2059765 21.0646902,24.0000157 17.6304941,24.0000157 L17.6304941,24.0000157 Z" id="Fill-3" fill="#000000" mask="url(#mask-3)"></path>
                    </g>
                    <path d="M19,6 C19,6.55237671 18.3284355,7 17.4999165,7 C16.6715645,7 16,6.55237671 16,6 C16,5.44762329 16.6715645,5 17.4999165,5 C18.3284355,5 19,5.44762329 19,6" id="Fill-6" fill="#000000"></path>
                </g>
            </g>
        </g>
    </g>
</svg>