<?xml version="1.0" encoding="UTF-8"?>
<svg width="75px" height="71px" viewBox="0 0 75 71" version="1.1" xmlns="http://www.w3.org/2000/svg" xmlns:xlink="http://www.w3.org/1999/xlink">
    <title>Icon/Illustrated/historias</title>
    <defs>
        <filter id="filter-1">
            <feColorMatrix in="SourceGraphic" type="matrix" values="0 0 0 0 0.970200 0 0 0 0 0.980000 0 0 0 0 0.980000 0 0 0 1.000000 0"></feColorMatrix>
        </filter>
        <polygon id="path-2" points="0 0.108994406 49.9494883 0.108994406 49.9494883 62.8859245 0 62.8859245"></polygon>
        <polygon id="path-4" points="0.0451736334 0.107783133 44.8897428 0.107783133 44.8897428 11.9999277 0.0451736334 11.9999277"></polygon>
        <polygon id="path-6" points="0.0934043011 0.0676931818 12.8934839 0.0676931818 12.8934839 6.88760227 0.0934043011 6.88760227"></polygon>
    </defs>
    <g id="Desktop" stroke="none" stroke-width="1" fill="none" fill-rule="evenodd">
        <g id="Desktop-HD" transform="translate(-445.000000, -3797.000000)">
            <g id="Group-67" transform="translate(0.000000, 3725.000000)">
                <g id="Group-63" transform="translate(164.000000, 72.000000)">
                    <g id="Group" transform="translate(281.000000, 0.000000)">
                        <g id="Group-5" fill="#00B2E3">
                            <circle id="Oval-Copy-2" cx="26" cy="26" r="26"></circle>
                        </g>
                        <g filter="url(#filter-1)" id="Group-22">
                            <g transform="translate(8.000000, 8.000000)">
                                <g id="Group-3">
                                    <mask id="mask-3" fill="white">
                                        <use xlink:href="#path-2"></use>
                                    </mask>
                                    <g id="Clip-2"></g>
                                    <path d="M18.6920322,62.8859245 C7.3370614,57.4304769 -7.30994152e-05,45.7408196 -7.30994152e-05,33.1039594 C-7.30994152e-05,14.9103231 14.7355994,0.108994406 32.8481725,0.108994406 C38.8986111,0.108994406 44.8122076,1.77548392 49.9494883,4.92753986 L48.7301901,6.93311329 C43.9601608,4.00588951 38.468348,2.45864476 32.8481725,2.45864476 C16.0253655,2.45864476 2.33910819,16.2061552 2.33910819,33.1039594 C2.33910819,44.8413441 9.15431287,55.6992252 19.7010965,60.7656587 L18.6920322,62.8859245 Z" id="Fill-1" fill="#333333" mask="url(#mask-3)"></path>
                                </g>
                                <path d="M66,33 L63.6564581,33 C63.6564581,24.9748323 60.5823169,17.3878815 55,11.6379182 L56.6798802,10 C62.6900399,16.1911163 66,24.359567 66,33" id="Fill-4" fill="#333333"></path>
                                <path d="M14.3599591,35.8838201 C14.373315,35.8945052 14.3876656,35.9070932 14.4032948,35.9215839 C14.386813,35.9053367 14.3718942,35.8934806 14.3599591,35.8838201 L14.3599591,35.8838201 Z M15.3492924,47 C15.0800426,47 14.816192,46.9010529 14.6077542,46.7164785 C9.26353548,41.9793128 8.69235639,41.1015232 8.55254538,40.7802379 C8.23029807,40.3330731 6.50596238,39.0856956 6,38.8242762 L7.01732396,36.7304326 C7.04673542,36.7453625 9.97779352,38.4760585 10.5930188,39.7455381 C10.9399888,40.2189034 12.882566,42.0535232 14.8733099,43.8519892 C15.29459,42.613394 15.5676761,41.4973116 15.5344284,41.0697606 C14.8322475,40.0742884 13.20254,37.9707843 12.90942,37.6860918 C12.5114417,37.3593907 10.9397046,35.1014647 11.0536562,33.5961807 C11.0992653,32.9979606 11.3962216,32.4954674 11.8690783,32.217508 C12.7845278,31.6778364 14.42205,31.8373813 16.4676384,32.1002644 C16.7304944,32.1342226 17.0456375,32.1752066 17.2130129,32.189551 C17.7793611,31.9500873 19.4705912,30.5658525 19.8124461,29.4210814 C20.4585037,27.2581505 23.1636476,24.4883635 25.8423639,23.2459626 C28.3107954,22.1025088 28.8994508,21.9704818 29.949028,21.9567228 C30.7972715,21.0711756 32.2299081,17.0698192 31.5929439,16.151192 C31.1369952,15.493545 29.8038177,14.7428058 28.6275014,14.0807678 C26.9079966,13.1122279 25.2841145,12.1979918 24.7934972,10.8725983 C24.3324335,9.62785546 24.3530358,6.64260971 24.8538831,2 L27.1134505,2.25819924 C26.6010944,7.00678188 26.6877658,9.4169342 26.9175162,10.0378419 C27.1094722,10.5568751 28.679078,11.4409586 29.7178567,12.025859 C31.1762105,12.8468564 32.6844359,13.6958108 33.4428822,14.7902302 C34.7115534,16.6198733 33.5385049,20.1338128 32.6452206,21.9224719 C31.5815772,24.0510056 30.7471158,24.2974951 30.2117419,24.2974951 C29.3257039,24.2974951 29.1154191,24.2974951 26.7751477,25.3822539 C24.5312095,26.4222231 22.3955396,28.7362094 21.9853421,30.1096127 C21.3847516,32.1197318 18.5980512,34.5373491 17.3012473,34.5373491 C17.0720652,34.5373491 16.7609005,34.4982679 16.185743,34.4244967 C15.5912621,34.3480908 14.214891,34.1725915 13.428312,34.1993774 C13.6509582,34.7842778 14.1607568,35.6459665 14.4106832,35.9284634 C15.0087163,36.4840894 17.0392437,39.2102577 17.4575401,39.812869 C18.1284624,40.7814089 17.7711202,42.9598552 16.3948912,46.2880493 C16.2528068,46.6318758 15.9603972,46.8843666 15.6070335,46.9697011 C15.5216408,46.989754 15.4352535,47 15.3492924,47 L15.3492924,47 Z" id="Fill-6" fill="#333333"></path>
                                <path d="M45.2996818,15.6138065 C45.2926319,15.905431 45.3412617,15.9518126 45.4612535,16.0651577 C45.682965,16.2756144 46.0960305,16.6669595 46.1947288,17.3945714 C46.3076708,18.2266869 46.3171665,20.0384695 46.3171665,21.6709581 C46.3548618,21.8746025 46.742893,22.2343501 47.1020052,22.4662582 C47.363714,21.7308194 47.7621042,20.6431701 48.7532598,20.1019544 C49.5198264,19.6835051 50.6980196,19.4384071 51.7375173,19.2221527 C52.1800771,19.1298243 52.7305433,19.0156095 52.8924027,18.9492258 C53.1506586,18.827619 53.6300504,18.274373 53.6922045,17.9901406 C53.4477607,17.6499602 53.2274879,17.2965902 53.0138333,16.953511 C52.7750007,16.5702827 52.4138741,15.9905123 52.2461158,15.8658617 C51.8577969,15.6783059 49.8582206,15.4156699 49.3017117,15.4156699 L49.1784108,15.4088576 C47.5890225,15.2372456 45.8318758,15.3363863 45.2996818,15.6138065 L45.2996818,15.6138065 Z M47.5185237,25 C47.2021423,25 46.8191468,24.9169479 46.3593219,24.6960553 C45.230334,24.1548396 44.0151648,22.9771809 44.0151648,21.6709581 C44.0151648,20.6630272 44.0151648,18.6044073 43.9240919,17.7918591 C43.9109992,17.779394 43.8971872,17.7670739 43.883663,17.7546088 C43.3762155,17.2732544 42.9192681,16.6397103 43.0120676,15.2753655 C43.0483241,14.738498 43.2957893,14.2619267 43.7274146,13.8972511 C45.0900557,12.7480012 48.3593298,12.988461 49.3897633,13.0993421 C49.9505884,13.1260115 52.6111269,13.3384974 53.5061739,13.9256599 C54.078653,14.3001916 54.4888409,14.9588108 54.9637727,15.720919 C55.1683631,16.0497938 55.3801472,16.3896843 55.5929385,16.6795695 C55.9914725,17.2241189 56.1018247,17.913176 55.9042842,18.6209308 C55.592363,19.7355395 54.5481175,20.774633 53.7593941,21.0972753 C53.40244,21.2433774 52.8734112,21.3539686 52.2033849,21.4931135 C51.4078994,21.6589279 50.3179016,21.8854732 49.8503075,22.1414418 C49.6179492,22.2682666 49.3922092,22.9023905 49.2573982,23.2809806 C49.0654688,23.8211818 48.8841862,24.3313797 48.4629198,24.6760533 C48.2544448,24.8465058 47.947847,24.9994202 47.5185237,25 L47.5185237,25 Z" id="Fill-8" fill="#333333"></path>
                                <path d="M37.5,27.3649626 C32.4629944,27.3649626 28.365069,31.4632949 28.365069,36.5003695 C28.365069,41.537592 32.4629944,45.6350374 37.5,45.6350374 C42.5370056,45.6350374 46.634931,41.537592 46.634931,36.5003695 C46.634931,31.4632949 42.5370056,27.3649626 37.5,27.3649626 M37.5,48 C31.1589545,48 26,42.8412776 26,36.5003695 C26,30.159018 31.1589545,25 37.5,25 C43.8410455,25 49,30.159018 49,36.5003695 C49,42.8412776 43.8410455,48 37.5,48" id="Fill-10" fill="#333333"></path>
                                <g id="Group-14" transform="translate(22.000000, 51.000000)">
                                    <mask id="mask-5" fill="white">
                                        <use xlink:href="#path-4"></use>
                                    </mask>
                                    <g id="Clip-13"></g>
                                    <path d="M43.7322154,11.9999277 L1.2027299,11.9999277 C0.563469453,11.9999277 0.0451736334,11.4821928 0.0451736334,10.8433012 L0.0451736334,7.12677108 C0.0451736334,3.25640964 3.19633119,0.107783133 7.06936977,0.107783133 L15.2644341,0.107783133 L15.2644341,2.42103614 L7.06936977,2.42103614 C4.47282637,2.42103614 2.36028617,4.53231325 2.36028617,7.12677108 L2.36028617,9.6866747 L42.5746592,9.6866747 L42.5746592,7.12677108 L44.8897717,7.12677108 L44.8897717,10.8433012 C44.8897717,11.4821928 44.3714759,11.9999277 43.7322154,11.9999277" id="Fill-12" fill="#333333" mask="url(#mask-5)"></path>
                                </g>
                                <path d="M53,58 L50.7182841,58 C50.7182841,55.4125608 48.6362184,53.3069951 46.0768463,53.3069951 L38,53.3069951 L38,51 L46.0768463,51 C49.8944421,51 53,54.1401088 53,58" id="Fill-15" fill="#333333"></path>
                                <path d="M53.1322098,49 C50.4130221,49 47.879959,47.9579132 46,46.065622 L47.6772966,44.5207862 C49.1153731,45.9685635 51.0527798,46.7655602 53.1322098,46.7655602 C57.2936809,46.7655602 60.6788838,43.5064902 60.6788838,39.5002793 C60.6788838,35.4939288 57.2936809,32.2344398 53.1322098,32.2344398 C51.7407006,32.2344398 50.3818321,32.6015862 49.2016896,33.2967762 L47.9907923,31.3905198 C49.535205,30.4806839 51.31318,30 53.1322098,30 C58.5734864,30 63,34.2616353 63,39.5002793 C63,44.7383647 58.5734864,49 53.1322098,49" id="Fill-17" fill="#333333"></path>
                                <g id="Group-21" transform="translate(54.000000, 51.000000)">
                                    <mask id="mask-7" fill="white">
                                        <use xlink:href="#path-6"></use>
                                    </mask>
                                    <g id="Clip-20"></g>
                                    <path d="M12.8935118,6.88760227 L10.6569527,6.88760227 C10.6569527,4.53051136 8.97212473,2.61314773 6.90135054,2.61314773 L0.0934043011,2.61314773 L0.0934043011,0.0676931818 L6.90135054,0.0676931818 C10.2054473,0.0676931818 12.8935118,3.12717045 12.8935118,6.88760227" id="Fill-19" fill="#333333" mask="url(#mask-7)"></path>
                                </g>
                            </g>
                        </g>
                    </g>
                </g>
            </g>
        </g>
    </g>
</svg>