<?xml version="1.0" encoding="UTF-8"?>
<svg width="81px" height="73px" viewBox="0 0 81 73" version="1.1" xmlns="http://www.w3.org/2000/svg" xmlns:xlink="http://www.w3.org/1999/xlink">
    <title>Icon/Illustrated/Alivio </title>
    <defs>
        <filter id="filter-1">
            <feColorMatrix in="SourceGraphic" type="matrix" values="0 0 0 0 0.968627 0 0 0 0 0.980392 0 0 0 0 0.980392 0 0 0 1.000000 0"></feColorMatrix>
        </filter>
    </defs>
    <g id="Desktop" stroke="none" stroke-width="1" fill="none" fill-rule="evenodd">
        <g id="Desktop-HD" transform="translate(-164.000000, -5635.000000)">
            <g id="Group-21" transform="translate(0.000000, 5473.000000)">
                <g id="Group-64" transform="translate(164.000000, 72.000000)">
                    <g id="Group-5" transform="translate(0.000000, 90.000000)">
                        <circle id="Oval-Copy-2" fill="#00B2E3" cx="26" cy="26" r="26"></circle>
                        <g filter="url(#filter-1)" id="Group-8">
                            <g transform="translate(11.000000, 15.000000)">
                                <path d="M64.5619454,5.43982937 C64.2812535,5.15929502 63.8957655,5 63.5008424,5 C63.1049085,5 62.7190835,5.15929502 62.4383916,5.43982937 C62.1593845,5.71834306 62,6.10428828 62,6.49966322 C62,6.89436462 62.1593845,7.28165694 62.4383916,7.56050741 C62.7190835,7.83935788 63.1045715,8 63.5008424,8 C63.8954285,8 64.2812535,7.83935788 64.5619454,7.56050741 C64.8409525,7.28165694 65,6.89436462 65,6.49966322 C65,6.10428828 64.8409525,5.71834306 64.5619454,5.43982937" id="Fill-1" fill="#636363"></path>
                                <g id="Group-7" fill="#636363">
                                    <path d="M32.5488026,38.1927863 C32.293057,37.9388074 31.9415219,37.7944179 31.5820044,37.7944179 C31.2209518,37.7944179 30.8697237,37.9388074 30.6139781,38.1927863 C30.3597675,38.4455442 30.2145482,38.7950705 30.2145482,39.1537547 C30.2145482,39.5115232 30.3597675,39.8622705 30.6139781,40.1153337 C30.8697237,40.3680916 31.2209518,40.5137021 31.5820044,40.5137021 C31.9415219,40.5137021 32.293057,40.3680916 32.5488026,40.1153337 C32.8030132,39.8625758 32.9479259,39.5115232 32.9479259,39.1537547 C32.9482325,38.7950705 32.8033202,38.4455442 32.5488026,38.1927863" id="Fill-3"></path>
                                    <path d="M67.2633684,10.6910789 C66.8900351,10.0381211 66.0549474,9.81008947 65.3988509,10.1812895 C64.7424474,10.5524895 64.5131053,11.3825 64.8864386,12.0348474 C68.9476667,19.1361842 67.7217456,28.1353421 61.9043772,33.9188579 L60.8675789,34.9497316 C60.6173596,34.2961632 60.2292895,33.6831947 59.7006053,33.1578368 L45.6517895,19.1896053 C46.570693,18.7399526 47.4195965,18.1404158 48.1647281,17.3995421 L50.859114,14.7202474 C51.3930175,14.1893947 51.3930175,13.3288579 50.859114,12.7977 C50.3252105,12.2668474 49.4597281,12.2668474 48.9255175,12.7977 L46.2311316,15.4769947 C44.9652982,16.7355947 43.2822281,17.4285421 41.4923158,17.4285421 L36.106,17.4285421 C35.7434123,17.4285421 35.3955614,17.5720158 35.1392018,17.8269105 L31.0156491,21.9265947 C29.7912632,23.1442895 27.7987193,23.1442895 26.5743333,21.9265947 C25.3496404,20.7092053 25.3496404,18.7280474 26.5743333,17.5106579 L35.9881053,8.15067895 C41.741307,2.43035263 50.7227982,1.17236316 57.8287193,5.09163684 C58.488807,5.45551053 59.3211316,5.21893158 59.6877105,4.56231053 C60.0539825,3.90538421 59.8154298,3.07812105 59.1550351,2.71363684 C55.2356491,0.552373684 50.6177982,-0.312436842 46.151307,0.279163158 C41.9718772,0.8323 38.1458246,2.5723 35.0099474,5.33371053 C31.1571842,1.93765789 26.2525789,0.0807421053 21.0599912,0.0807421053 C15.4348158,0.0807421053 10.1461316,2.2591 6.16841228,6.21378421 C2.19038596,10.1687737 0.000122807018,15.4278474 0.000122807018,21.0208789 C0.000122807018,26.6139105 2.19069298,31.8723737 6.16841228,35.8276684 L6.68358772,36.3395947 C6.77323684,36.4287316 6.87271053,36.5016895 6.97801754,36.5609105 C7.06950877,37.7370895 7.56503509,38.8876263 8.46797368,39.7851 C9.47253509,40.7839211 10.7914825,41.2830263 12.1110439,41.2830263 C12.1795088,41.2830263 12.2482807,41.2808895 12.3167456,41.2781421 C12.3139825,41.3471316 12.3115263,41.4155105 12.3115263,41.4848053 C12.3115263,42.8533 12.8475789,44.1396789 13.8208246,45.1073632 C14.825386,46.1064895 16.1446404,46.6052895 17.4638947,46.6052895 C17.5326667,46.6052895 17.6011316,46.6034579 17.6695965,46.6007105 C17.6668333,46.6690895 17.6646842,46.7380789 17.6646842,46.8073737 C17.6646842,48.1755632 18.2004298,49.4622474 19.1739825,50.4299316 C20.1785439,51.4284474 21.4977982,51.9278579 22.8170526,51.9278579 C22.8864386,51.9278579 22.9558246,51.9257211 23.0252105,51.9226684 C22.9696404,53.3027632 23.4694649,54.7011737 24.5268333,55.7521947 C25.5000789,56.7198789 26.7941579,57.2528684 28.1699035,57.2528684 C29.5462632,57.2528684 30.8403421,56.7198789 31.8132807,55.7521947 L33.7241579,53.8522368 L36.3055614,56.4182789 C37.2785,57.3862684 38.5725789,57.9189526 39.9486316,57.9189526 C41.3249912,57.9189526 42.6187632,57.3862684 43.5920088,56.4185842 C44.6619649,55.3547421 45.1617895,53.9352684 45.0920965,52.5393 C45.1777544,52.5435737 45.2640263,52.5457105 45.3499912,52.5457105 C46.6695526,52.5457105 47.989114,52.0466053 48.9936754,51.0477842 C50.0504298,49.9970684 50.5502544,48.5998789 50.4952982,47.2207 C50.5643772,47.2234474 50.6334561,47.2258895 50.7031491,47.2258895 C52.0795088,47.2258895 53.3732807,46.6929 54.3465263,45.7252158 C55.4032807,44.6745 55.9031053,43.2773105 55.8481491,41.8981316 C55.9172281,41.9008789 55.986614,41.9033211 56.056307,41.9033211 C57.4323596,41.9033211 58.7261316,41.3703316 59.6993772,40.4026474 C60.1936754,39.9114789 60.5657807,39.3436895 60.8169211,38.7377421 C60.9498596,38.6733316 61.0751228,38.5875526 61.1856491,38.4776579 L63.8370526,35.8414053 C70.5226667,29.1952158 71.9312632,18.8525947 67.2633684,10.6910789 M12.1113509,38.5664895 C11.465386,38.5664895 10.8581053,38.3164789 10.4012632,37.8622474 C9.94472807,37.4080158 9.6932807,36.8045105 9.6932807,36.1622368 C9.6932807,35.5205737 9.94472807,34.9164579 10.4012632,34.4625316 L12.7576228,32.1196368 C13.2141579,31.6657105 13.8217456,31.4157 14.4674035,31.4157 C15.1130614,31.4157 15.7203421,31.6657105 16.1768772,32.1196368 C17.1200351,33.0574053 17.1200351,34.5825 16.1768772,35.5196579 L13.8208246,37.8625526 C13.3642895,38.3161737 12.7573158,38.5664895 12.1113509,38.5664895 M15.7547281,43.1848158 C15.297886,42.7308895 15.0464386,42.1270789 15.0464386,41.4851105 C15.0464386,40.8428368 15.297886,40.2393316 15.7547281,39.7854053 L18.1110877,37.4422053 C18.5679298,36.9882789 19.1749035,36.7379632 19.8208684,36.7379632 C20.4665263,36.7379632 21.073807,36.9882789 21.5306491,37.4422053 C22.473193,38.3796684 22.473193,39.9044579 21.5306491,40.8422263 L19.1742895,43.1848158 C18.2311316,44.1222789 16.6969649,44.1222789 15.7547281,43.1848158 M21.107886,48.5073842 C20.6510439,48.0534579 20.3995965,47.4493421 20.3995965,46.8076789 C20.3995965,46.1651 20.6510439,45.5612895 21.107886,45.1073632 L23.4639386,42.7644684 C23.9207807,42.3105421 24.5277544,42.0605316 25.1737193,42.0605316 C25.8196842,42.0605316 26.4266579,42.3102368 26.8835,42.7644684 C27.8260439,43.7022368 27.8260439,45.2273316 26.8835,46.1644895 L24.5271404,48.5073842 C23.5842895,49.4445421 22.0504298,49.4445421 21.107886,48.5073842 M32.2366579,51.4870579 L29.8799912,53.8299526 C29.4234561,54.2841842 28.8161754,54.5341947 28.1705175,54.5341947 C27.5245526,54.5341947 26.9172719,54.2844895 26.4607368,53.8299526 C25.517886,52.8924895 25.517886,51.3673947 26.4607368,50.4302368 L28.8170965,48.0873421 L28.8170965,48.0870368 C29.2739386,47.6331105 29.8809123,47.3827947 30.5268772,47.3827947 C31.1725351,47.3827947 31.7798158,47.6331105 32.2366579,48.0870368 C32.693193,48.5409632 32.9446406,49.1450789 32.9446406,49.7870474 C32.9449474,50.4296263 32.693193,51.0328263 32.2366579,51.4870579 M57.7667018,38.4801 C57.3101667,38.9343316 56.702886,39.1843421 56.0572281,39.1843421 C55.4112632,39.1843421 54.8039825,38.9343316 54.3474474,38.4801 L48.6562632,32.8214368 C48.6559561,32.8211316 48.6559561,32.8211316 48.6556491,32.8208263 L43.3031053,27.4988684 C42.7688947,26.9680158 41.9034123,26.9680158 41.3692018,27.4988684 C40.8352982,28.0297211 40.8352982,28.8905632 41.3692018,29.4214158 L52.4138509,40.4023421 C53.3567018,41.3398053 53.3567018,42.8649 52.4138509,43.8023632 C51.9570088,44.2565947 51.3497281,44.5063 50.7040702,44.5063 C50.0581053,44.5063 49.4508246,44.2565947 48.9942895,43.8023632 L37.9499474,32.8211316 C37.4160439,32.2905842 36.5502544,32.2905842 36.0163509,32.8211316 C35.4824474,33.3519842 35.4824474,34.2131316 36.0163509,34.7439842 L41.3682807,40.0653316 C41.3685877,40.0656368 41.3692018,40.0662474 41.3695088,40.0662474 L47.060693,45.7252158 C48.0035439,46.6626789 48.0035439,48.1877737 47.061,49.1249316 C46.1178421,50.0627 44.5836754,50.0627 43.6414386,49.1249316 L37.9499474,43.4662684 C37.8449474,43.3615632 37.7264386,43.2785316 37.6005614,43.2153421 L35.9773596,41.6014158 C35.4434561,41.0705632 34.5779737,41.0705632 34.0434561,41.6014158 C33.5098596,42.1319632 33.5098596,42.9931105 34.0434561,43.5239632 L41.6593333,51.0957105 C42.6018772,52.0334789 42.6018772,53.5582684 41.6593333,54.4957316 C41.2024912,54.9499632 40.5952105,55.1999737 39.9495526,55.1999737 C39.3035877,55.1999737 38.696614,54.9499632 38.2397719,54.4957316 L35.3418333,51.6146579 C35.562886,51.0386263 35.6795526,50.4216895 35.6795526,49.7867421 C35.6795526,48.4185526 35.1435,47.1321737 34.1702544,46.1644895 C33.1973158,45.1968053 31.9032368,44.6638158 30.5271842,44.6638158 C30.4574912,44.6638158 30.3884123,44.6662579 30.3190263,44.6690053 C30.3739825,43.2898263 29.8741579,41.8926368 28.8174035,40.8422263 C27.8441579,39.8745421 26.550386,39.3412474 25.1740263,39.3412474 C25.1046404,39.3412474 25.0355614,39.3436895 24.9661754,39.3464368 C25.0211316,37.9675632 24.521307,36.5700684 23.4645526,35.5193526 C22.491,34.5516684 21.1972281,34.0189842 19.8211754,34.0189842 C19.7517895,34.0189842 19.6824035,34.0214263 19.6133246,34.0241737 C19.6682807,32.6449947 19.1681491,31.2478053 18.1113947,30.1967842 C16.1025789,28.1994474 12.8334561,28.1994474 10.8246404,30.1967842 L8.4682807,32.5396789 C8.17108772,32.8351737 7.91933333,33.1587526 7.70964035,33.5009526 C4.49792982,30.1088684 2.73503509,25.6996474 2.73503509,21.0205737 C2.73503509,16.1537632 4.64130702,11.5775632 8.10292982,8.13633158 C11.5639386,4.69479474 16.1661316,2.79941579 21.0609123,2.79941579 C25.5092895,2.79941579 29.7154298,4.36480526 33.0435,7.23366842 L24.6410439,15.5878053 C23.5317895,16.6913316 22.9205175,18.1581211 22.9205175,19.7183211 C22.9205175,21.2791316 23.5317895,22.7456158 24.6410439,23.8491421 C25.7865263,24.9880789 27.2912193,25.5573947 28.7956053,25.5573947 C30.2999912,25.5573947 31.8046842,24.9880789 32.9501667,23.8491421 L36.6733684,20.1475211 L41.4929298,20.1475211 C41.8911316,20.1475211 42.2847281,20.1203526 42.6734123,20.0721211 L57.7676228,35.0803842 C58.7095526,36.0178474 58.7095526,37.5429421 57.7667018,38.4801" id="Fill-5"></path>
                                </g>
                            </g>
                        </g>
                    </g>
                </g>
            </g>
        </g>
    </g>
</svg>