<?xml version="1.0" encoding="UTF-8"?>
<svg width="78px" height="70px" viewBox="0 0 78 70" version="1.1" xmlns="http://www.w3.org/2000/svg" xmlns:xlink="http://www.w3.org/1999/xlink">
    <title>Icon/Illustrated/Alivio </title>
    <defs>
        <polygon id="path-1" points="0 0.204988543 62.9999724 0.204988543 62.9999724 38.9742484 0 38.9742484"></polygon>
        <polygon id="path-3" points="0.0207333333 0.27975 2 0.27975 2 2.95155 0.0207333333 2.95155"></polygon>
        <polygon id="path-5" points="0.202135915 0.00555555556 37.8358507 0.00555555556 37.8358507 19.921 0.202135915 19.921"></polygon>
    </defs>
    <g id="Desktop" stroke="none" stroke-width="1" fill="none" fill-rule="evenodd">
        <g id="Desktop-HD" transform="translate(-548.000000, -5635.000000)">
            <g id="Group-21" transform="translate(0.000000, 5473.000000)">
                <g id="Group-64" transform="translate(164.000000, 72.000000)">
                    <g id="Group-4" transform="translate(0.000000, 90.000000)">
                        <g id="Group" transform="translate(384.000000, 0.000000)">
                            <g id="Group-5" fill="#00B2E3">
                                <circle id="Oval-Copy-2" cx="26" cy="26" r="26"></circle>
                            </g>
                            <g id="Group-12" transform="translate(15.000000, 6.000000)">
                                <g id="Group-3" transform="translate(0.000000, 25.000000)">
                                    <mask id="mask-2" fill="white">
                                        <use xlink:href="#path-1"></use>
                                    </mask>
                                    <g id="Clip-2"></g>
                                    <path d="M61.7695382,24.2831264 C62.4489987,24.2831264 62.9999724,23.7319571 62.9999724,23.0522553 L62.9999724,20.8998203 C62.9999724,17.6143648 61.1080382,14.7639847 58.3581434,13.3766634 C59.7889066,12.1648649 60.6996434,10.357118 60.6996434,8.3392966 L60.6996434,6.80519949 C60.6996434,3.16593417 57.7397487,0.204988543 54.1014987,0.204988543 C50.463525,0.204988543 47.5033539,3.16593417 47.5033539,6.80519949 L47.5033539,8.3392966 C47.5033539,10.0934192 48.1922092,11.6883273 49.3115645,12.8716552 C47.1482882,13.3542739 45.1027224,14.2755614 43.2754461,15.608982 L32.1332882,23.7402495 C31.9031171,23.9085856 31.6917355,24.0973763 31.4999724,24.3024754 C31.3079329,24.0973763 31.0965513,23.9085856 30.8663803,23.7402495 L19.7244987,15.608982 C17.8972224,14.2755614 15.8516566,13.3542739 13.6883803,12.8716552 C14.8077355,11.6883273 15.4963145,10.0934192 15.4963145,8.3392966 L15.4963145,6.80519949 C15.4963145,3.16593417 12.5364197,0.204988543 8.89844605,0.204988543 C5.26019605,0.204988543 2.30030132,3.16593417 2.30030132,6.80519949 L2.30030132,8.3392966 C2.30030132,10.357118 3.21103816,12.1648649 4.64180132,13.3766634 C1.89190658,14.7639847 -2.76315789e-05,17.6143648 -2.76315789e-05,20.9000967 L-2.76315789e-05,37.7433773 C-2.76315789e-05,38.4230791 0.550946053,38.9742484 1.23040658,38.9742484 L16.5662092,38.9742484 C17.2456697,38.9742484 17.7966434,38.4230791 17.7966434,37.7433773 L17.7966434,26.4410897 L25.8476566,31.2968525 C27.2684724,32.154012 28.9788671,32.17806 30.4237224,31.3620862 C30.8315645,31.131557 31.1910513,30.8465743 31.4999724,30.5215115 C31.8086171,30.8468507 32.1683803,31.131557 32.5764987,31.3620862 C33.2794461,31.759293 34.0453934,31.9574817 34.8102355,31.9574817 C35.6170776,31.9574817 36.4228145,31.7369034 37.1520118,31.2968525 L45.203025,26.4410897 L45.203025,37.7433773 C45.203025,38.4230791 45.7539987,38.9742484 46.4334592,38.9742484 L61.7695382,38.9742484 C62.4489987,38.9742484 62.9999724,38.4230791 62.9999724,37.7433773 L62.9999724,33.2961542 C62.9999724,32.6164524 62.4489987,32.0652831 61.7695382,32.0652831 C61.0898013,32.0652831 60.5391039,32.6164524 60.5391039,33.2961542 L60.5391039,36.5125063 L47.6638934,36.5125063 L47.6638934,25.1530009 C47.6638934,25.0894257 47.6575382,25.0272326 47.6484197,24.9661451 L48.9857882,24.159293 C49.5679855,23.8082473 49.7553276,23.0519789 49.4041303,22.4695748 C49.0532092,21.8874472 48.2966566,21.6997621 47.7152882,22.0510842 L35.8815118,29.1886438 C35.2307882,29.5811515 34.4477092,29.592208 33.7867618,29.21822 C33.1252618,28.8447849 32.7304066,28.1684001 32.7304066,27.4085383 C32.7304066,26.7468034 33.0495513,26.1190675 33.5839461,25.728771 L44.7258276,17.5975035 C47.108775,15.8585837 49.9274724,14.9395075 52.8768671,14.9395075 L54.5806303,14.9395075 C57.866025,14.9395075 60.5391039,17.6132591 60.5391039,20.8998203 L60.5391039,23.0522553 C60.5391039,23.7319571 61.0900776,24.2831264 61.7695382,24.2831264 L61.7695382,24.2831264 Z M4.76144605,6.80519949 C4.76144605,4.5234028 6.61718289,2.66673068 8.89816974,2.66673068 C11.1794329,2.66673068 13.0354461,4.5234028 13.0354461,6.80519949 L13.0354461,8.3392966 C13.0354461,10.6213697 11.1794329,12.4780418 8.89816974,12.4780418 C6.61718289,12.4780418 4.76144605,10.6213697 4.76144605,8.3392966 L4.76144605,6.80519949 Z M29.2134592,29.21822 C28.5519592,29.5919316 27.7688803,29.5808751 27.1184329,29.1886438 L15.2849329,22.0510842 C14.7027355,21.6997621 13.9464592,21.8874472 13.5955382,22.4695748 C13.2448934,23.0517025 13.4319592,23.8082473 14.0141566,24.159293 L15.3501434,24.9653159 C15.3407487,25.0264033 15.335775,25.0891493 15.335775,25.1530009 L15.335775,36.5125063 L2.46084079,36.5125063 L2.46084079,20.9000967 C2.46084079,17.6132591 5.13391974,14.9395075 8.41931447,14.9395075 L10.1230776,14.9395075 C13.0727487,14.9395075 15.8911697,15.8585837 18.2741171,17.5975035 L29.4159987,25.7290475 C29.9506697,26.1190675 30.2695382,26.7468034 30.2695382,27.4085383 C30.2695382,28.1684001 29.8746829,28.8447849 29.2134592,29.21822 L29.2134592,29.21822 Z M58.238775,8.3392966 C58.238775,10.6213697 56.3827618,12.4780418 54.1014987,12.4780418 C51.8202355,12.4780418 49.9642224,10.6213697 49.9642224,8.3392966 L49.9642224,6.80519949 C49.9642224,4.5234028 51.8202355,2.66673068 54.1014987,2.66673068 C56.3827618,2.66673068 58.238775,4.5234028 58.238775,6.80519949 L58.238775,8.3392966 Z" id="Fill-1" fill="#EFF7F9" mask="url(#mask-2)"></path>
                                </g>
                                <g id="Group-6" transform="translate(61.000000, 51.000000)">
                                    <mask id="mask-4" fill="white">
                                        <use xlink:href="#path-3"></use>
                                    </mask>
                                    <g id="Clip-5"></g>
                                    <path d="M1.70984444,0.66975 C1.52584444,0.42165 1.27051111,0.27975 1.01051111,0.27975 C0.750066667,0.27975 0.494733333,0.42165 0.310733333,0.66975 C0.126511111,0.91965 0.0207333333,1.26315 0.0207333333,1.61415 C0.0207333333,1.96695 0.126511111,2.31045 0.310733333,2.56035 C0.494733333,2.80875 0.750066667,2.95155 1.01051111,2.95155 C1.27051111,2.95155 1.52584444,2.80875 1.70984444,2.56035 C1.89384444,2.31045 2.00006667,1.96695 2.00006667,1.61415 C2.00006667,1.26315 1.89406667,0.91815 1.70984444,0.66975" id="Fill-4" fill="#EFF7F9" mask="url(#mask-4)"></path>
                                </g>
                                <g id="Group-9" transform="translate(14.000000, 0.000000)">
                                    <mask id="mask-6" fill="white">
                                        <use xlink:href="#path-5"></use>
                                    </mask>
                                    <g id="Clip-8"></g>
                                    <path d="M36.6442028,0.00544444444 L32.711738,0.00544444444 C32.0536958,0.00544444444 31.5200901,0.559333333 31.5200901,1.24238889 C31.5200901,1.92544444 32.0536958,2.47933333 32.711738,2.47933333 L33.766907,2.47933333 L19.8409775,16.9348889 L10.7279352,7.47544444 C10.5042169,7.2435 10.2012873,7.11294444 9.88524507,7.11294444 C9.56920282,7.11294444 9.26627324,7.2435 9.04255493,7.47544444 L0.551160563,16.2896111 C0.0857943662,16.7729444 0.0857943662,17.5562778 0.551160563,18.0393333 C1.01652676,18.5223889 1.77090704,18.5221111 2.23654085,18.0393333 L9.88551268,10.0993333 L18.9988225,19.5590556 C19.2313718,19.8004444 19.5361746,19.921 19.8412451,19.921 C20.1463155,19.921 20.4511183,19.8004444 20.6836676,19.5590556 L35.4525549,4.22877778 L35.4525549,5.32433333 C35.4525549,6.00738889 35.9861606,6.56155556 36.6442028,6.56155556 C37.3022451,6.56155556 37.8358507,6.00738889 37.8358507,5.32433333 L37.8358507,1.24238889 C37.8358507,0.559333333 37.3022451,0.00544444444 36.6442028,0.00544444444" id="Fill-7" fill="#EFF7F9" mask="url(#mask-6)"></path>
                                </g>
                                <path d="M12.7067475,19.293028 C12.5210509,19.1071068 12.262827,19 12.0001123,19 C11.737173,19 11.4789491,19.1071068 11.293028,19.293028 C11.1071068,19.4789491 11,19.737173 11,19.9998877 C11,20.262827 11.1068822,20.5210509 11.293028,20.706972 C11.4791737,20.8928932 11.737173,21 12.0001123,21 C12.262827,21 12.5210509,20.8928932 12.7067475,20.706972 C12.8928932,20.5210509 13,20.262827 13,19.9998877 C13,19.7360503 12.8928932,19.4789491 12.7067475,19.293028" id="Fill-10" fill="#EFF7F9"></path>
                            </g>
                        </g>
                    </g>
                </g>
            </g>
        </g>
    </g>
</svg>