<?xml version="1.0" encoding="UTF-8"?>
<svg width="26px" height="27px" viewBox="0 0 26 27" version="1.1" xmlns="http://www.w3.org/2000/svg" xmlns:xlink="http://www.w3.org/1999/xlink">
    <title>Group 6</title>
    <defs>
        <filter id="filter-1">
            <feColorMatrix in="SourceGraphic" type="matrix" values="0 0 0 0 1.000000 0 0 0 0 1.000000 0 0 0 0 1.000000 0 0 0 1.000000 0"></feColorMatrix>
        </filter>
        <polygon id="path-2" points="6.79738562e-05 0.159052941 25.8407712 0.159052941 25.8407712 27 6.79738562e-05 27"></polygon>
    </defs>
    <g id="Desktop" stroke="none" stroke-width="1" fill="none" fill-rule="evenodd">
        <g id="Desktop-HD" transform="translate(-362.000000, -2050.000000)">
            <g id="Group-6" transform="translate(164.000000, 2040.000000)" filter="url(#filter-1)">
                <g transform="translate(198.000000, 10.000000)">
                    <g id="Group-3">
                        <mask id="mask-3" fill="white">
                            <use xlink:href="#path-2"></use>
                        </mask>
                        <g id="Clip-2"></g>
                        <path d="M25.8348915,12.9011118 C25.6627477,5.83311176 20.0562641,0.159052941 13.1550484,0.159052941 C6.33710065,0.159052941 0.778028758,5.70358235 0.481152941,12.6605824 C0.475205229,12.8517 0.469257516,13.0429941 0.469257516,13.2342882 C0.469257516,15.7071706 1.1343817,18.0139941 2.28653856,19.9874647 L6.79738562e-05,27.0000529 L7.02601569,24.6808765 C8.84329673,25.7171118 10.9338327,26.3091706 13.1550484,26.3091706 C20.1631529,26.3091706 25.8408392,20.4561706 25.8408392,13.2342882 C25.8408392,13.1231118 25.8408392,13.0121118 25.8348915,12.9011118 M13.1550484,24.2245235 C10.9873621,24.2245235 8.97397647,23.5587 7.28720523,22.4051118 L3.18923137,23.7619941 L4.51964967,19.6791706 C3.24293072,17.8659353 2.48859085,15.6395824 2.48859085,13.2342882 C2.48859085,12.8762294 2.50643399,12.5187 2.54195033,12.1671706 C3.06466928,6.60393529 7.62588497,2.24352353 13.1550484,2.24352353 C18.7555843,2.24352353 23.358434,6.71493529 23.7858196,12.3768176 C23.8096105,12.6605824 23.8215059,12.9441706 23.8215059,13.2342882 C23.8215059,19.2965824 19.0344471,24.2245235 13.1550484,24.2245235" id="Fill-1" fill="#000000" mask="url(#mask-3)"></path>
                    </g>
                    <path d="M19.3937864,15.5111989 C19.0948796,15.3529703 17.6459961,14.5845061 17.3754797,14.4808812 C17.1048021,14.3711504 16.907359,14.3223037 16.7102386,14.6394587 C16.5129569,14.9564393 15.9435337,15.6697764 15.7744812,15.8772007 C15.5996215,16.0903819 15.4307303,16.1148053 15.1316621,15.9564022 C14.8387237,15.7978247 13.8857062,15.4686324 12.7581515,14.3833621 C11.884337,13.5480825 11.286846,12.511659 11.1176321,12.1945039 C10.9485796,11.8775234 11.1008559,11.7067342 11.2473251,11.5483311 C11.3826639,11.4019653 11.9180507,10.6155324 11.9858008,10.4630608 C12.0874259,10.2497051 12.0367747,10.0667042 11.9633788,9.9081267 C11.8899829,9.74972364 11.2981377,8.18872078 11.0498821,7.55493407 C10.8075949,6.92079847 10.5595006,7.03052922 10.3848023,7.03052922 C10.2157497,7.03052922 10.0183067,7 9.82102494,7 C9.62390452,7 9.30225302,7.07920153 9.031898,7.39618211 C8.76105906,7.71316268 8,8.48145243 8,10.0422808 C8,10.4081082 8.06210423,10.7739355 8.15243764,11.1214453 C8.45102186,12.2370704 9.09384092,13.1578318 9.20659638,13.3164093 C9.35306557,13.5236591 11.2473251,16.8283169 14.2465559,18.1025195 C17.2514326,19.3646848 17.2514326,18.9439049 17.7926265,18.8889523 C18.3338205,18.8401055 19.5404169,18.1269428 19.7825427,17.3830765 C20.0307983,16.645316 20.0307983,16.0111804 19.9574024,15.8772007 C19.8840065,15.7489779 19.6865635,15.6697764 19.3937864,15.5111989" id="Fill-4" fill="#000000"></path>
                </g>
            </g>
        </g>
    </g>
</svg>