<?xml version="1.0" encoding="UTF-8"?>
<svg width="75px" height="40px" viewBox="0 0 75 40" version="1.1" xmlns="http://www.w3.org/2000/svg" xmlns:xlink="http://www.w3.org/1999/xlink">
    <title>Group 8</title>
    <g id="Desktop" stroke="none" stroke-width="1" fill="none" fill-rule="evenodd">
        <g id="Desktop-HD" transform="translate(-838.000000, -2963.000000)" fill="#FFFFFF">
            <g id="Group-34" transform="translate(0.000000, 2172.000000)">
                <g id="Campanha-Brasil" transform="translate(828.000000, 764.000000)">
                    <g id="Group-8" transform="translate(10.000000, 27.000000)">
                        <path d="M20.7578198,36.586 C17.629186,36.586 14.5001163,35.6729565 11.8293314,33.9990435 C11.600407,33.8468696 11.2951744,33.7703478 10.9899419,33.7703478 C10.8373256,33.7703478 10.6847093,33.7703478 10.532093,33.8468696 L3.96959302,35.8251304 L6.02991279,28.8246957 C6.10578488,28.4442609 6.10578488,28.0638261 5.87729651,27.6833913 C4.65636628,25.2486087 3.96959302,22.5855652 3.96959302,19.8464348 C3.96959302,10.6394783 11.5240988,3.10643478 20.7578198,3.10643478 C29.9915407,3.10643478 37.5460465,10.6394783 37.5460465,19.8464348 C37.5460465,29.0529565 29.9915407,36.586 20.7578198,36.586 M40.5983721,19.8464348 C40.5983721,12.8629565 36.9177035,6.74817391 31.4361628,3.18730435 C31.4274419,3.18121739 31.4187209,3.17556522 31.41,3.16991304 C31.0463372,2.93469565 30.6752616,2.70991304 30.2963372,2.49773913 C30.2967733,2.496 30.2976453,2.49469565 30.2976453,2.49295652 C29.1709012,1.85773913 28.185436,1.44513043 27.4772965,1.19078261 C27.4759884,1.19513043 27.4742442,1.19947826 27.472936,1.20426087 C25.3363081,0.443391304 23.1233721,0.0629565217 20.7578198,0.0629565217 C9.84531977,0.0629565217 0.916831395,8.96556522 0.916831395,19.8464348 C0.916831395,22.889913 1.60360465,25.8573043 2.97715116,28.5203478 L0.23005814,37.6512174 C0.0774418605,38.1838261 0.23005814,38.7925217 0.611598837,39.1729565 C0.916831395,39.4773043 1.29837209,39.6294783 1.67991279,39.6294783 C1.83252907,39.6294783 1.98514535,39.6294783 2.13776163,39.5533913 L10.8373256,36.9664348 C13.8896512,38.7164348 17.2476453,39.6294783 20.7578198,39.6294783 C29.9915407,39.6294783 37.7749709,33.3142609 39.987907,24.792087 C39.9953198,24.7946957 40.0027326,24.796 40.0097093,24.7986087 C40.4152326,23.2338261 40.5225,21.6725217 40.5225,21.6725217 C40.5983721,21.0633913 40.5983721,20.4546957 40.5983721,19.8464348" id="Fill-2"></path>
                        <path d="M22.9882849,20.6576522 L26.8926453,16.7641739 C27.1320349,16.5250435 27.1320349,16.1376522 26.8926453,15.8989565 L25.1576163,14.1689565 C24.9177907,13.9298261 24.5297093,13.9298261 24.2898837,14.1689565 L20.3850872,18.0624348 L16.4802907,14.1689565 C16.2404651,13.9298261 15.8523837,13.9298261 15.6125581,14.1689565 L13.8775291,15.8989565 C13.6381395,16.1376522 13.6381395,16.5250435 13.8775291,16.7641739 L17.7823256,20.6576522 L13.8775291,24.5511304 C13.6381395,24.7898261 13.6381395,25.1772174 13.8775291,25.415913 L15.6125581,27.1463478 C15.8523837,27.3850435 16.2404651,27.3850435 16.4802907,27.1463478 L20.3850872,23.2528696 L24.2898837,27.1463478 C24.5297093,27.3850435 24.9177907,27.3850435 25.1576163,27.1463478 L26.8926453,25.415913 C27.1320349,25.1772174 27.1320349,24.7898261 26.8926453,24.5511304 L22.9882849,20.6576522 Z" id="Fill-4"></path>
                        <path d="M60.6979797,21.4607826 C60.6979797,21.7986087 60.4232703,22.0725217 60.0844622,22.0725217 L54.5623692,22.0725217 L54.5623692,27.5786087 C54.5623692,27.9164348 54.2876599,28.1903478 53.9484157,28.1903478 L51.494782,28.1903478 C51.1559738,28.1903478 50.8812645,27.9164348 50.8812645,27.5786087 L50.8812645,22.0725217 L45.3587355,22.0725217 C45.0203634,22.0725217 44.7456541,21.7986087 44.7456541,21.4607826 L44.7456541,19.0138261 C44.7456541,18.676 45.0203634,18.402087 45.3587355,18.402087 L50.8812645,18.402087 L50.8812645,12.896 C50.8812645,12.5581739 51.1559738,12.2842609 51.494782,12.2842609 L53.9484157,12.2842609 C54.2876599,12.2842609 54.5623692,12.5581739 54.5623692,12.896 L54.5623692,18.402087 L60.0844622,18.402087 C60.4232703,18.402087 60.6979797,18.676 60.6979797,19.0138261 L60.6979797,21.4607826 Z M62.3109157,0.482956522 C58.2984157,0.482956522 55.0716715,1.72991304 52.6873692,4.19556522 C50.2790843,1.7586087 47.0030669,0.482956522 43.0917297,0.482956522 C39.9404215,0.482956522 36.936061,1.756 34.6328634,4.06686957 C32.0911483,6.61730435 30.6465262,10.2338261 30.6697893,13.9781739 C30.6697893,30.5186087 50.9667297,39.3429565 51.8305378,39.7107826 L52.488968,39.9916522 L53.1491424,39.7138261 C54.0325727,39.3425217 74.7739971,30.4373043 74.7739971,13.9781739 C74.7739971,6.53686957 69.1834448,0.482956522 62.3109157,0.482956522 L62.3109157,0.482956522 Z" id="Fill-6"></path>
                    </g>
                </g>
            </g>
        </g>
    </g>
</svg>