<svg xmlns="http://www.w3.org/2000/svg" width="100.1" height="54.281" viewBox="0 0 100.1 54.281">
  <g id="logo-canja" transform="translate(0 0.2)">
    <path id="Caminho_1" data-name="Caminho 1" d="M46.8,39.8c-.5.1-.3-.5-.7-.4l-.3.3c-.2.1-.3-.1-.4-.2-.3-.2-.4-.2-.7.2l-.4-.4c0-.4.2-.8.1-1.1a3.329,3.329,0,0,1-.1-1.4v-.2h-.5v.6a2.769,2.769,0,0,1-.1.9c-.2.4.1.8.2,1.2a.627.627,0,0,1-.2.8c-.4,0-.5-.4-.5-.6a2.854,2.854,0,0,1,0-1.3,1.483,1.483,0,0,0,.1-.7c.1-.5.1-1,.2-1.5V34.5a1.077,1.077,0,0,1,.2-.8,1.726,1.726,0,0,0-.1-1.7c0-.1-.1-.1-.1-.2a4.145,4.145,0,0,0-.2-1.6c-.1-1.5-.2-3.1-.2-4.6-.3-.8,0-1.6-.2-2.3a13.4,13.4,0,0,1-.1-2V19.4c0-.3.1-.7.1-1a3.352,3.352,0,0,1,0-1,5.451,5.451,0,0,0,.1-2.2,5.852,5.852,0,0,1,.2-1.3c.1-.4-.1-.8.2-1.2v-.2c-.1-1.3.2-2.6.2-4v-4a4.253,4.253,0,0,0-.2-1.1c-.1-.3.1-.7-.1-1a.8.8,0,0,1,.1-.8,4.649,4.649,0,0,0,.3-.9h.6a1.943,1.943,0,0,1,1.3.3,1.072,1.072,0,0,0,.6.2c.3.6.1,1.4.5,1.9A11.045,11.045,0,0,0,47,4.7c.2.8.5,1.7.7,2.5a5.638,5.638,0,0,0,.4,1.2c.2.4.2.8.4,1.2.1.4.3.8.4,1.2.2.5.3,1,.5,1.5l.6,1.5c.2.6.4,1.3.6,1.9.3.8.4,1.6.7,2.4.3,1,.5,2,.9,3a23.4,23.4,0,0,1,.9,2.4c.3.8.6,1.5.9,2.2.1.4.4.8.5,1.2.3.7.5,1.4.7,2,.1.2.2.4.4.4,0-.1.1-.2.1-.4v-2c0-.4-.1-.8-.1-1.2a4.819,4.819,0,0,0,0-1.2,3.812,3.812,0,0,1-.1-1.5,3.553,3.553,0,0,0-.2-1c0-.3.1-.7-.2-1-.1-.1,0-.3,0-.5V14.9c0-.6.2-1.2.2-1.9a6.054,6.054,0,0,1,0-1.9,10.479,10.479,0,0,0,.1-2.5c.1-1.1.1-2.2.2-3.2V2.1a.6.6,0,0,1,.1-.4c0-.1.1-.2.3-.1,0,.4.2.4.4.4.1.2,0,.6.5.6,0-.2.1-.3.1-.5h.2c.4.2.5.2.6-.2,0-.4.2-.3.4-.3l.1.1c-.1.4.5.6.2,1-.1.3,0,.7-.1,1.1a47.845,47.845,0,0,0-.2,5.3.9.9,0,0,1-.1.5c-.1.1,0,.5.1.6a.909.909,0,0,1,.1,1.1,1.65,1.65,0,0,0,0,1.2,2.2,2.2,0,0,1,.1.8v2.6c-.1,1.7.3,3.3.2,5a1.952,1.952,0,0,1-.1.7.854.854,0,0,0,0,.7.638.638,0,0,1,0,.6c-.1.1,0,.2-.1.3-.1.3.3.5.1.8a1.949,1.949,0,0,0-.1.8c0,1.6.1,3.1.2,4.7,0,.1.1.2.1.4a4.052,4.052,0,0,1,0,1.1,2.054,2.054,0,0,0,0,1.1,3.6,3.6,0,0,1,.2,1.1c-.1.6.1,1.2,0,1.7a16.079,16.079,0,0,0-.1,3.1c0,.2-.1.5.1.7.1.1,0,.3,0,.4a.779.779,0,0,1-.3.7,2.388,2.388,0,0,1-.9.2c-.1,0-.2-.2-.3-.3-.1-.3-.3-.5-.4-.8-.3.1-.4.4-.7.5-.1.1,0,.3-.3.3a.548.548,0,0,1-.6-.4c-.2-.4-.3-.8-.5-1.3s-.4-1.1-.6-1.6a10.564,10.564,0,0,1-.6-1.9c-.1-.4-.4-.7-.3-1.1-.4-.3-.3-.8-.5-1.2a5.274,5.274,0,0,1-.3-1.2c-.3-1-.7-2.1-1-3.1-.1-.3-.2-.7-.3-1s-.4-.6-.3-1a12.93,12.93,0,0,1-.7-2.1,15.873,15.873,0,0,0-.7-2,16.587,16.587,0,0,0-1.2-3.1,4.8,4.8,0,0,0-.5-1.7,18.661,18.661,0,0,1-.7-2.2c-.1-.4-.3-.9-.4-1.4,0-.1-.1-.1-.3-.2v7.6c0,.6.2,1.1.2,1.6a4.845,4.845,0,0,0,0,1.7,6.729,6.729,0,0,1,.1,2V28a5.019,5.019,0,0,1-.2,1.2c0,.1-.1.3-.1.4v2.7c0,.3.2.5,0,.8a1.379,1.379,0,0,0,0,.9,6.473,6.473,0,0,1,.1,2.4v3.1C46.8,39.6,46.8,39.7,46.8,39.8ZM97.1,26.6a1.884,1.884,0,0,0-.2-.8,2.959,2.959,0,0,1-.2-1c0-.1,0-.4-.1-.4a.735.735,0,0,1-.2-.6,5.537,5.537,0,0,0-.2-1.8,14.345,14.345,0,0,1-.4-2.2,2.92,2.92,0,0,1-.2-.9c0-.3-.2-.5-.3-.8a1.421,1.421,0,0,1-.2-.6c0-.5-.5-.9-.1-1.4a1.007,1.007,0,0,1-.1-.3,13.355,13.355,0,0,0-.7-1.8c-.2-.6-.4-1.2-.6-1.9-.1-.5-.3-1-.4-1.5a14.159,14.159,0,0,1-.4-2,2.375,2.375,0,0,1-.3-1.2,5.274,5.274,0,0,0-.3-1.2.758.758,0,0,0-.2-.4c-.5-.1-.5-.5-.6-.9-.1-.3-.1-.7-.2-.9a4.154,4.154,0,0,1-.3-1.3,3.553,3.553,0,0,1-.2-1c-.1-.6-.2-.6-.8-.4-.3.1-.2.4-.4.5-.1.1,0,.3,0,.4H89c.1-.4-.1-.8.2-1.2a.338.338,0,0,0-.3-.5c-.4.1-.3.4-.3.7l-.1.1c-.1,0-.1-.1-.2-.1,0-.1-.1-.2-.1-.4-.3.3-.4.6-.6.8-.1-.2-.2-.3-.3-.5a1.425,1.425,0,0,0-.6,1.2,6.6,6.6,0,0,1-.1,1.4c-.1.4-.3.7-.2,1.1a1.232,1.232,0,0,1-.2,1c-.2.3-.1.6-.2,1v.4a4.529,4.529,0,0,0-.3,1.6,3.6,3.6,0,0,1-.2,1.1c-.1.3,0,.6-.1.8-.2.3-.1.6-.1.9v.2c-.4.8-.2,1.6-.5,2.4-.1.3,0,.8-.2,1-.2.3-.1.7-.2,1a2.537,2.537,0,0,0-.2,1.2c0,.5-.3.9-.2,1.4-.4.7-.2,1.5-.5,2.2a6.373,6.373,0,0,0-.2.7,5.847,5.847,0,0,1-.4,1.9,5.019,5.019,0,0,0-.2,1.2c0,.2,0,.4.2.5.3.2.2.5.1.7,0,.1-.1.2-.1.3,0,.7-.4,1.3-.3,2-.3.3-.1.6-.2.9a3.4,3.4,0,0,0-.1,1v.2c-.3.3,0,.7-.2,1a1.729,1.729,0,0,0-.1,1c0,.1.1.3,0,.4-.2.3-.1.6-.2.9a2.92,2.92,0,0,1-.2.9,19.419,19.419,0,0,1-.2,2.4,7.569,7.569,0,0,0-.1,1.5c0,.1,0,.2-.1.2-.2.3,0,.5-.1.8.4.2.4-.6.8-.2a4.331,4.331,0,0,1,.1.5,9.958,9.958,0,0,1,1.1-1V37.4c0-.4.1-.9.1-1.3a3.6,3.6,0,0,1,.2-1.1c0-.1.2-.1.3-.1v1.8c0,.2.1.5,0,.7-.3.4-.1.8-.1,1.2a.914.914,0,0,0,.3.5c.1-1,.1-1.8.2-2.6a11.4,11.4,0,0,0,.2-2.6v-.2c.3-.3.1-.6.2-.9a2.92,2.92,0,0,1,.2-.9c.1-.6.1-1.3.2-1.9v-.2a4.671,4.671,0,0,0,.3-1.7v-.4c.2-.2.1-.5.1-.7s.2-.4.1-.7a14.919,14.919,0,0,1,.2-2.1,2.354,2.354,0,0,0,.8.2,56.2,56.2,0,0,1,5.8.2c.5.1,1,0,1.5.1.3.1.6.2.7.4a1.613,1.613,0,0,1,.3.9c0,.8.3,1.6.3,2.4,0,.1.1.2.1.3a11.688,11.688,0,0,0,.6,2c.2.6.1,1.2.3,1.8a13.805,13.805,0,0,1,.3,2,21.045,21.045,0,0,0,.6,2.4,2.354,2.354,0,0,1,.2.8c0,.2-.1.5-.1.7.1.2.3.4.4.6a1.69,1.69,0,0,1,.2.5h.3c.1-.6.7-.5,1-.7a.6.6,0,0,1,.4-.1c.3.4.1,1,.8,1.2a6.6,6.6,0,0,0-.1-1.4,7.366,7.366,0,0,0-.4-1.4,7.959,7.959,0,0,1-.7-2,4.65,4.65,0,0,1-.3-2V33a7.973,7.973,0,0,1-.3-1.5c-.1-.3,0-.7-.2-1-.2-.5-.2-1-.4-1.5a4.191,4.191,0,0,1-.4-1.5c-.4-.4,0-.6.2-.8C97.2,27,97.1,26.8,97.1,26.6Zm-6.7-5.3c-.2,0-.4.2-.7,0-.2-.1-.5,0-.8,0H87.3c-.4,0-.6-.2-.5-.5.3-.6,0-1.2.3-1.7.1-.1,0-.3,0-.5a7.972,7.972,0,0,1,.3-1.5c0-.1.1-.3,0-.4a3.4,3.4,0,0,1,.2-1.4,3.079,3.079,0,0,1,.3-1.3c.1-.2,0-.4,0-.6a1.421,1.421,0,0,1,.2-.6c.2-1,.3-1.9.6-2.9-.1-.7.5-1.2.3-2.1.5.3.8.4.9.9a5.638,5.638,0,0,0,.4,1.2c.2.9.5,1.8.7,2.8a5.274,5.274,0,0,1,.3,1.2c.4.3,0,.7.3,1.1a1.978,1.978,0,0,1,.2,1.1,4.4,4.4,0,0,0,.2,1,2.92,2.92,0,0,0,.2.9,6.468,6.468,0,0,1,.4,1.3,5.488,5.488,0,0,0,.5,1.7A6.76,6.76,0,0,1,90.4,21.3ZM7.6.4a1.08,1.08,0,0,0-.7.3,7.539,7.539,0,0,0-1.3.6A4.629,4.629,0,0,0,4,2.8a9.993,9.993,0,0,0-.8,1.4c-.2.5-.5.9-.7,1.5-.2.5-.4.9-.6,1.4a8.8,8.8,0,0,0-.5,1.5A6.468,6.468,0,0,0,1,9.9,16.553,16.553,0,0,1,.4,12a5.853,5.853,0,0,1-.2,1.3,2.079,2.079,0,0,0-.1,1.1c0,.3-.1.7-.1,1a13.4,13.4,0,0,0,.1,2,11.019,11.019,0,0,0,.2,1.8,5.652,5.652,0,0,1,0,1.3c0,.4.2.8.1,1.2-.1,1.5.2,3.1.2,4.6v.2c.3.3.1.6.2.9a1.486,1.486,0,0,1,.2.9,5.7,5.7,0,0,0,.1,1.3c.1.4.2.8.3,1.3a9.363,9.363,0,0,0,.4,1.6,8.51,8.51,0,0,0,.6,1.7c.2.3.3.7.6.9a6.332,6.332,0,0,0,1.6,2.6,18.882,18.882,0,0,0,2,2c-.1.2.1.3.2.3a5.019,5.019,0,0,0,1.2.2H9.2c.4,0,.8.1,1.2.1.2,0,.3.4.5.1.1-.1.2-.3.3-.4.2-.5.3-1,.9-1.2.1,0,.1-.1.1-.2.2-.4.5-.8.7-1.3a7.838,7.838,0,0,0,.5-1.4,3.545,3.545,0,0,1,.3-1.1c.2-.3,0-.8.3-1.1a5.019,5.019,0,0,0,.2-1.2,18.916,18.916,0,0,0,.5-2.3c.3-.3,0-.7.2-1.1s-.1-.7,0-1.1a.367.367,0,0,0-.1-.3.483.483,0,0,1-.1-.7c.1-.1-.1-.4-.3-.4s-.3.4-.7.2a3.887,3.887,0,0,0,.2-1.5h-.4c-.1.2-.1.3-.2.5a4.349,4.349,0,0,1-.7-.6c-.4.1-.3.4-.3.7v5.6a3.21,3.21,0,0,1-.2,1.7,5.222,5.222,0,0,1-.4,2.1H11c-.2.7-.8,1.1-1.3,1.6-.4,0-.6.4-1,.3a1.489,1.489,0,0,1-.9-.4,1.421,1.421,0,0,0-.6-.2,1.555,1.555,0,0,1-.8-.6c-.3-.6-.7-1.2-1-1.9a6.89,6.89,0,0,1-.3-.8c0-.2-.1-.4-.1-.6,0-.3-.1-.5-.1-.8,0-.7-.4-1.3-.3-2-.3-.3,0-.7-.2-1a1.729,1.729,0,0,1-.1-1c0-.2.1-.4,0-.6-.2-.3-.1-.7-.2-1a3.553,3.553,0,0,0-.2-1,12.751,12.751,0,0,0-.1-1.9,3.553,3.553,0,0,1-.2-1c0-.2-.1-.3-.1-.5a9.005,9.005,0,0,0-.3-1.6,4.845,4.845,0,0,1,0-1.7,7.972,7.972,0,0,0,.3-1.5v-.4a1.95,1.95,0,0,0,0-1.5c0-.2-.1-.4,0-.5A3.022,3.022,0,0,0,4,13.1c.1-.1,0-.4,0-.6,0-.3.2-.5.1-.8,0-.7.5-1.3.4-2l.1-.1c.2-.5.4-1,.6-1.4l.6-1.5a2.175,2.175,0,0,1,.7-1.6.367.367,0,0,0,.1-.3c.1-.2.1-.4.2-.5.1-.2.3-.2.5-.3l.8-.8c.1-.2.3-.1.4.1.7.9,1.3,1.9,1.9,2.8a4.447,4.447,0,0,1,.8,2c0,.1,0,.1.1.2a3.456,3.456,0,0,1,.7,2,2.92,2.92,0,0,0,.2.9c0,.1.2.2.4.3a1.268,1.268,0,0,0,.1-.6,5.736,5.736,0,0,0,.7.4c.2.2.5-.3.6-.1a9.439,9.439,0,0,0,.3.9H15c-.2-.4-.3-.8-.4-1-.2-.3-.2-.5,0-.7.1-.2.1-.3.2-.5,0-.2.1-.4,0-.6-.6-1.4-1.1-2.8-1.8-4.2a15.674,15.674,0,0,0-2-3A5.562,5.562,0,0,0,8.5,0,1.489,1.489,0,0,1,7.6.4ZM38.8,38.1a17.983,17.983,0,0,1-.6-2.2c-.1-.5-.2-.9-.3-1.4,0-.2-.1-.3-.2-.5-.1-.3-.1-.7-.2-1.1-.3-1-.5-2-.8-3.1a11.627,11.627,0,0,1-.4-1.8c-.2-.8-.3-1.7-.5-2.5-.1-.6-.3-1.2-.4-1.8a8.331,8.331,0,0,0-.4-1.5c-.1-.3.1-.6-.1-.9s-.1-.6-.2-1c-.1-.3-.1-.6-.2-.9a1.421,1.421,0,0,0-.2-.6,1.268,1.268,0,0,0-.1-.6,4.146,4.146,0,0,1-.3-1.6,7.487,7.487,0,0,0-.2-2.1,3.708,3.708,0,0,0-.4-1.4,2.112,2.112,0,0,1-.4-1,4.284,4.284,0,0,0-.5-1.6,9.83,9.83,0,0,1-.5-1.6,16.2,16.2,0,0,1-.3-2c-.1-.2-.1-.4-.2-.6V5.7A10.054,10.054,0,0,1,31,3.2c0-.1.1-.3,0-.4-.3-.2,0-.6-.2-.8-.2-.3-.1-.6-.1-.9,0-.2-.1-.4-.2-.4-.3-.1-.3-.3-.5-.5-.1-.1-.2-.3-.3-.4a.446.446,0,0,0-.3.6c0,.1,0,.1-.1.2h-.7a6.279,6.279,0,0,0-.3,1.9v.6A4.058,4.058,0,0,1,27.9,5a2.958,2.958,0,0,0-.2,1,3.887,3.887,0,0,1-.2,1.5,28.639,28.639,0,0,0-.7,2.8c-.4,1.1-.7,2.2-1,3.3a14.682,14.682,0,0,0-.5,2.9v.3c-.3.2-.1.5-.3.8a1.077,1.077,0,0,0-.2.8c-.1.3,0,.6-.2.8-.2.3-.1.6-.2.8-.5,1.1-.4,2.3-.8,3.4-.1.4-.1.9-.2,1.4-.1.4-.2.9-.3,1.3-.1.8-.3,1.5-.4,2.3a2.544,2.544,0,0,1-.2.7,1.952,1.952,0,0,1-.1.7,11.083,11.083,0,0,0-.5,2.5,23.579,23.579,0,0,1-.4,2.8c-.3.2-.1.6-.3.9a1.077,1.077,0,0,0-.2.8.6.6,0,0,1-.1.4,4.273,4.273,0,0,0-.2,2,3.128,3.128,0,0,0,1,.5,1.777,1.777,0,0,1,1,.4c.2-.4.5-.8.7-1.2h.3c.2.2.4.1.4-.1.1-.4.1-.9.2-1.3,0-.2-.1-.5,0-.6.2-.2.1-.5.1-.7.1-.2.1-.5.2-.7a2.462,2.462,0,0,1,.1-1.2c.2-.4-.1-.9.2-1.2a19.013,19.013,0,0,1,.3-2.5c.1-.5.1-1,.2-1.5.1-.4.1-.8.2-1.1a14.159,14.159,0,0,0,.4-2c.1-.8.4-1.5.5-2.3a.451.451,0,0,1,.3-.3,7.58,7.58,0,0,1,1.6-.3c.2,0,.4-.1.7-.1.2,0,.5.1.7,0a1.952,1.952,0,0,1,.7-.1c.3,0,.5.1.8-.1.2-.1.5,0,.8-.1.2,0,.3-.1.5-.2a.7.7,0,0,1,.4.9c0,.1-.1.3,0,.4.4.8.2,1.7.5,2.5.1.3.1.7.2,1s0,.7.2,1.1c.1.4,0,.8.2,1.1.1.4.1.8.2,1.1.1.6.1,1.2.2,1.9v.2c.3.2,0,.6.2.8.2.3.1.6.1.9.1.3.1.5.2.8s.1.6.2.9c0,.5.3.9.2,1.4.3.2,0,.6.2.8a1.185,1.185,0,0,1,.1.8.842.842,0,0,0,.4.7c.3.1.4.3.6.5.3.3.3.3.7-.1.3-.4.4-.4.9-.2h.1v-.9c.1,0,.2-.1.4-.1A1.388,1.388,0,0,0,38.8,38.1ZM27.3,20.3a5.019,5.019,0,0,1,.2-1.2,6.15,6.15,0,0,0,.1-1.4v-.2a3.014,3.014,0,0,0,.5-2.1,1.978,1.978,0,0,1,.2-1.1c.2-.3.1-.6.1-.9a2.153,2.153,0,0,1,.2-1.1,1.884,1.884,0,0,0,.2-.8,1.445,1.445,0,0,1,.2-.7,2.947,2.947,0,0,1,.5-1.3,2.958,2.958,0,0,0,.2-1c.4.2.4.6.5.9a14.682,14.682,0,0,1,.5,2.9c.3.3.1.7.3,1.1a5.853,5.853,0,0,1,.2,1.3,7.006,7.006,0,0,1,.3,1.4,10.462,10.462,0,0,0,.4,1.7,12.93,12.93,0,0,0,.7,2.1,1.483,1.483,0,0,1,.1.7,6.183,6.183,0,0,1-1.6.4c-.5,0-.9.2-1.4.2H28.2c-.5,0-1,.2-1.4-.2C27.1,20.7,27.3,20.6,27.3,20.3ZM64.4,35.9c0,.1.1.2.1.3.5.8.8,1.7,1.4,2.5a3.807,3.807,0,0,0,1.9,1.4,4.454,4.454,0,0,0,1.6.1,1.884,1.884,0,0,1,.8.2,1.542,1.542,0,0,0,1.6-.1,3.255,3.255,0,0,1,1.4-.4,1.284,1.284,0,0,0,1-.4,1.991,1.991,0,0,1,1.2-.8c.2,0,.3-.3.4-.4a4.128,4.128,0,0,0,.7-1.5,7.366,7.366,0,0,0,.4-1.4,2.354,2.354,0,0,1,.2-.8c.1-.3,0-.6.2-.9.2-.4,0-.9.2-1.3a2.879,2.879,0,0,0,.1-1.3c0-.4-.1-.8-.1-1.1-.1-.8-.1-1.6-.2-2.4V26.4a3.6,3.6,0,0,0-.2-1.1c0-.1-.2-.2-.1-.3,0-.4-.3-.6-.3-.9V23c0-.2-.1-.3-.1-.5a7.719,7.719,0,0,1-.2-1.5c0-.3-.2-.6.1-.9.1,0,.1-.2,0-.3a3.545,3.545,0,0,1-.3-1.1c-.2-.4-.1-.8-.2-1.1a7.006,7.006,0,0,1-.3-1.4c0-.5-.3-1-.2-1.5v-.2c-.3-.2,0-.6-.2-.9s-.1-.6-.1-.9v-.3a17.416,17.416,0,0,1-.5-2.2,5.853,5.853,0,0,0-.2-1.3c-.2-.3,0-.7-.2-1a1.729,1.729,0,0,1-.1-1c.1-.5-.3-1,0-1.5a.349.349,0,0,1-.1-.2,4.331,4.331,0,0,1-.1-.5,8.585,8.585,0,0,0,1.7-.3c.5-.1.9-.5,1.5-.4a1.558,1.558,0,0,1,1.2-.3c.1,0,.1,0,.2-.1.6-.3.7-.6.2-1.1a1.381,1.381,0,0,1-.3-.4c.3-.2.9.1.9-.5-.2-.1-.4-.1-.5-.2a1.056,1.056,0,0,1-.2-.5.6.6,0,0,0-.4.1,6.117,6.117,0,0,1-1.2.5,21.718,21.718,0,0,1-2.4.7,10.462,10.462,0,0,0-1.7.4c-.3.1-.7.2-1,.3a6.4,6.4,0,0,0-2.6,1c-.2.1-.5.3-.7.2-.5-.1-.9.2-1.4.4-.1.1-.2.1-.4.1a2.354,2.354,0,0,0-.8.2v.4a6.372,6.372,0,0,0,.7-.2c0,.5.1.5-.1.7-.3.2-.2.5-.2.8.2-.1.3-.1.5-.2a4.372,4.372,0,0,1,1-.6,2.22,2.22,0,0,1-.1.9,2.237,2.237,0,0,0,1.9-.5.749.749,0,0,1,.5-.1c.1.6.1,1.2.2,1.8a10.081,10.081,0,0,1,.5,2.5.1.1,0,0,0,.1.1c.4.2.3.6.3.9,0,.2-.1.5,0,.7.2.3,0,.7.2,1a1.729,1.729,0,0,1,.1,1v.2a4.962,4.962,0,0,1,.3,1.3,1.445,1.445,0,0,0,.2.7c.1.3.1.5.2.8a6.468,6.468,0,0,0,.4,1.3c.2.4.1,1,.5,1.3v.2a19.669,19.669,0,0,0,.3,2.4,1.421,1.421,0,0,0,.2.6v.6a14.159,14.159,0,0,1,.4,2,7.719,7.719,0,0,0,.2,1.5,8.552,8.552,0,0,1,0,1.6c0,.5.1,1,.1,1.5v2.3a6.929,6.929,0,0,1-.3,2c-.3.6-.3,1.3-.8,1.9a2.062,2.062,0,0,1-1.7,1,1.421,1.421,0,0,1-.6-.2,1.493,1.493,0,0,0-.7-.3,2.118,2.118,0,0,1-.7-.3A12.165,12.165,0,0,1,68,34.9a6.937,6.937,0,0,1-.8-2.8,1.729,1.729,0,0,0-.1-1c0-.1-.1-.2-.1-.3.2-.3.1-.5.2-.8a2.354,2.354,0,0,1,.2-.8c.1-.2.1-.5.2-.7a3.4,3.4,0,0,1,.1-1,.854.854,0,0,0,0-.7c0-.2-.1-.3-.3-.4-.1-.1-.2,0-.4,0v.9h-.4a9.442,9.442,0,0,1-.3-.9,3.288,3.288,0,0,0-.3.6c-.1.2-.4.2-.5.2s-.1.1-.2.2c-.2.5-.6,1-.5,1.6v1.6l-.1.1c-.2-.1-.3-.1-.5-.2a1.72,1.72,0,0,0-.1,1.4,1.978,1.978,0,0,1,.2,1.1,1.548,1.548,0,0,0,.3,1.1c.2.2.2.5.4.7a.749.749,0,0,1,.1.5C64.4,35.4,64.3,35.5,64.4,35.9Zm-21.9,14c-.5-.5-.9-1.1-1.6-1.3a1.4,1.4,0,0,0-1.1,0A3.561,3.561,0,0,0,38,50a1.33,1.33,0,0,0-.3.8c0,.2-.2.4-.1.6a1.483,1.483,0,0,1,.1.7.367.367,0,0,0,.1.3c.5.6.9,1.5,1.9,1.5a1.37,1.37,0,0,0,1.5-.1c.1,0,.1-.1.2-.1a3.007,3.007,0,0,0,1.5-2.4C43.1,50.7,42.6,50.4,42.5,49.9Zm-3.7.1a2.258,2.258,0,0,1,1.1-.8,1.249,1.249,0,0,1,1.3.4,1.791,1.791,0,0,1,.7,2.3A2.345,2.345,0,0,1,40.8,53a1.448,1.448,0,0,1-1.1.1,1.765,1.765,0,0,1-.9-.8,1.4,1.4,0,0,1-.3-.9v-.2h-.1C38.6,50.7,38.6,50.4,38.8,50ZM32,53.9a5.066,5.066,0,0,0,1.5-.7,4.608,4.608,0,0,0,.9-1.7,2.543,2.543,0,0,0-.4-1.7,6.529,6.529,0,0,0-1.6-1.3c-.6.1-1.3-.2-1.8.2v4.8C30.9,54.2,31.5,53.8,32,53.9Zm-.3-4.4c.9-.1,1.3.4,1.7,1.1a1.275,1.275,0,0,1,0,1.2A2.689,2.689,0,0,1,32,53c-.5.1-.7,0-.7-.6v-3C31.5,49.5,31.6,49.6,31.7,49.5Zm44.5,1.3c.1-.2.3-.5.2-.6a3,3,0,0,0-1.2-1.5c-.1,0-.2-.1-.3-.1H73.3a1.8,1.8,0,0,0-.4.9V53a1.389,1.389,0,0,0,.5,1c.6-.6.1-1.4.4-2a1.287,1.287,0,0,1,1.2-.1c.3.2.5.3.5.6,0,.2-.1.4,0,.6s.1.6.5.6c.3,0,.5,0,.6-.3-.3-.7-.5-1.3-.8-2.1A2.181,2.181,0,0,0,76.2,50.8Zm-1.1.2h-1c-.4,0-.4-.1-.4-.8s.1-.8.4-.8a2.769,2.769,0,0,1,.9.1c.4.1.5.4.7.8A4.35,4.35,0,0,0,75.1,51Zm2.8,2.4c0,.3.1.5.4.5h2.3c.3,0,.5-.2.4-.4a.458.458,0,0,0-.5-.4H78.4c.5-.3-.2-.3.1-.5s-.2-.3-.1-.6c.1-.2.2-.4.4-.4h1.4c.4,0,.5-.1.5-.6-.6-.4-1.3-.1-2-.2a.758.758,0,0,1-.2-.4c0-.2.1-.3,0-.5a1.69,1.69,0,0,1,.2-.5h1.9c.3,0,.5-.2.4-.4a.43.43,0,0,0-.4-.4H78.2l-.4.4C77.9,50.5,77.9,51.9,77.9,53.4ZM52.7,49.1a26.152,26.152,0,0,1,0,2.8,1.366,1.366,0,0,0,.4,1.1,2.379,2.379,0,0,0,1.3.9,1.555,1.555,0,0,0,1.6-.4c.5,0,.4-.6.7-.7.4-.2,0-.7.3-1v-.2c-.3-.6,0-1.3-.1-1.9.4-.5-.1-.8-.3-1.1-.4.4-.5.6-.5.9v2.9c-.7.7-.8.7-1.9.7l-.2-.2a1.612,1.612,0,0,1-.6-1.3v-2a1.5,1.5,0,0,0-.4-1.1A.713.713,0,0,0,52.7,49.1Zm14.4-.2a.367.367,0,0,0-.1.3c0,.1.1.3.1.4v2.3a2.279,2.279,0,0,0,.3,1.1,2.217,2.217,0,0,0,3.2.4,2.172,2.172,0,0,0,.8-1.8,14.719,14.719,0,0,0,0-2.1,1.05,1.05,0,0,0-.5-.9c-.3.1-.3.3-.3.6v3l-.5.5c-.1.2-.3.3-.4.5a4.485,4.485,0,0,0-1.1-.1c-.4-.1-.6-.4-.8-.8-.1-.3-.4-.6,0-1V49.5a1.382,1.382,0,0,0-.5-.9C67.3,48.7,67.2,48.8,67.1,48.9ZM50.8,49a2.554,2.554,0,0,0-3.1-.1c-.1.1-.3.2-.4.3a2.186,2.186,0,0,0-.3.5,2.168,2.168,0,0,0-.5,1.4,2.919,2.919,0,0,0,.5,1.4A3.413,3.413,0,0,0,49.2,54a.44.44,0,0,0,.5-.1,10.374,10.374,0,0,0,1-.4c.5-.1.5-.5.1-1-.3.1-.6.3-1.1.5a4.052,4.052,0,0,1-1.1,0,3.331,3.331,0,0,1-1.1-.9c-.1-.4-.3-.7-.2-1a2.814,2.814,0,0,0,.1-.8,2.3,2.3,0,0,1,1.5-1.1.854.854,0,0,1,.7,0,5.973,5.973,0,0,1,1.1.6l-.1-.1.6-.3C51.1,49.2,50.9,49.1,50.8,49Zm-29.3-.3c-.6,0-.5.6-.7.9-.1.1-.2.3-.1.3.1.1.1.1,0,.3-.1.3-.7.5-.4,1,0,.1-.3.3-.3.4a1.136,1.136,0,0,1-.3.8c-.2.2-.2.6-.3.8a.382.382,0,0,0,.3.5.55.55,0,0,0,.5-.3c.1-.2.1-.3.2-.5.3-.5.4-.6,1-.4h.3c.3-.2.5,0,.7-.1a1.756,1.756,0,0,1,.4.5,1.268,1.268,0,0,1,.1.6c.1,0,.2,0,.2.1l.1.1c.1,0,.1-.1.2-.1.3-.4.3-.3,0-.8a.367.367,0,0,1-.1-.3,17.232,17.232,0,0,0-.7-2.1c0-.1-.2-.1-.3-.2,0-.2,0-.6-.1-.7-.3-.3-.2-.7-.5-1C21.6,48.7,21.6,48.7,21.5,48.7Zm.3,3.1c-.1,0-.1.1-.2.1-.2-.3-.4,0-.5,0-.2-.1-.2-.3-.2-.5a.367.367,0,0,1,.1-.3,4.875,4.875,0,0,0,.3-.7c.5.1.3.8.9,1A1.4,1.4,0,0,1,21.8,51.8Zm6.3-.2a1.517,1.517,0,0,1-2,1.5c-.2-.1-.6-.3-.6-.4a7.366,7.366,0,0,1-.4-1.4,16.133,16.133,0,0,0,0-2.2c0-.3,0-.5-.3-.5a.462.462,0,0,0-.3.5,24.319,24.319,0,0,1,0,2.7c-.1.6.3.9.4,1.4.1.3.5.4.8.5a1.815,1.815,0,0,0,2,0,2.036,2.036,0,0,0,1.1-1.9V49.5a.812.812,0,0,0-.4-.8c-.1.1-.2.1-.4.2C28.1,49.7,28,50.7,28.1,51.6Zm35.1-.7V53a2.958,2.958,0,0,0,.2,1c.4,0,.4,0,.7-.5a10.958,10.958,0,0,1-.1-3.8c.5-.3,1-.1,1.5-.2,0-.8,0-.8-.7-.8H61.9l-.3.3a4.349,4.349,0,0,1,.6.7,2.018,2.018,0,0,1,1.1,0C63.3,50,63.2,50.4,63.2,50.9ZM59.4,49c-.2-.1-.3-.3-.6-.5a5.389,5.389,0,0,0-.3,1V53a.975.975,0,0,0,.4.9h2.5c.2,0,.3-.2.3-.4s-.1-.3-.3-.4H59.3C59.4,51.7,59.4,50.3,59.4,49Zm-23,0c-.2-.1-.3-.3-.5-.4a.6.6,0,0,0-.3.6v4.1c0,.2-.1.4.1.5a.1.1,0,0,1,.1.1l.5-.5C36.4,52,36.4,50.5,36.4,49Z" fill="#fff"/>
  </g>
</svg>
