<svg xmlns="http://www.w3.org/2000/svg" xmlns:xlink="http://www.w3.org/1999/xlink" width="220" height="21.408" viewBox="0 0 220 21.408">
  <defs>
    <clipPath id="clip-path">
      <rect id="Retângulo_1" data-name="Retângulo 1" width="220" height="21.408" transform="translate(0 0)" fill="#fff"/>
    </clipPath>
  </defs>
  <g id="Grupo_3" data-name="Grupo 3" transform="translate(0 0)">
    <g id="Grupo_2" data-name="Grupo 2" transform="translate(0 0)" clip-path="url(#clip-path)">
      <path id="Caminho_2" data-name="Caminho 2" d="M4.974,16.534V12.051H7.519A2.111,2.111,0,0,1,9.8,14.278a2.132,2.132,0,0,1-2.285,2.256ZM0,26.8H4.974V20.872H7.489c4.166,0,7.374-2.689,7.374-6.593,0-3.962-3.123-6.564-7.374-6.564H0Z" transform="translate(0 -5.741)" fill="#fff"/>
      <path id="Caminho_3" data-name="Caminho 3" d="M63.487,18.7a8.06,8.06,0,0,0,8.444,8.445A8.125,8.125,0,0,0,80.376,18.7V7.714H75.4V19.079a3.47,3.47,0,1,1-6.94,0V7.714H63.487Z" transform="translate(-47.246 -5.741)" fill="#fff"/>
      <path id="Caminho_4" data-name="Caminho 4" d="M142.554,12.051H145.1a2.111,2.111,0,0,1,2.284,2.227,2.132,2.132,0,0,1-2.284,2.256h-2.545ZM154.467,26.8l-5.032-7.086a6.213,6.213,0,0,0,3.007-5.435c0-3.962-3.123-6.564-7.375-6.564h-7.489V26.8h4.975V20.872h2.053l4.309,5.928Z" transform="translate(-102.384 -5.741)" fill="#fff"/>
      <path id="Caminho_5" data-name="Caminho 5" d="M213.956,16.534V12.051H216.5a2.111,2.111,0,0,1,2.285,2.227,2.132,2.132,0,0,1-2.285,2.256ZM208.982,26.8h4.974V20.872h2.515c4.166,0,7.374-2.689,7.374-6.593,0-3.962-3.123-6.564-7.374-6.564h-7.489Z" transform="translate(-155.521 -5.741)" fill="#fff"/>
      <path id="Caminho_6" data-name="Caminho 6" d="M272.308,26.8h12.867V22.318h-7.894V7.715h-4.974Z" transform="translate(-202.648 -5.741)" fill="#fff"/>
      <path id="Caminho_7" data-name="Caminho 7" d="M330.688,26.8h13.591V22.318h-8.618V18.993h5.9V14.827h-5.9V12.2h8.271V7.715H330.688Z" transform="translate(-246.093 -5.741)" fill="#fff"/>
      <path id="Caminho_8" data-name="Caminho 8" d="M414.908,16.235c-.116,5.523,4.686,9.977,10.295,9.89a9.614,9.614,0,0,0,8.763-5.118l-3.786-2.574a5.605,5.605,0,0,1-4.974,3.123,5.172,5.172,0,0,1-3.76-1.446A5.281,5.281,0,0,1,420,16.264a5.033,5.033,0,0,1,5.205-5.35,5.606,5.606,0,0,1,4.974,3.123l3.787-2.573a9.6,9.6,0,0,0-8.734-5.118,10,10,0,0,0-10.324,9.89" transform="translate(-308.767 -4.72)" fill="#fff"/>
      <path id="Caminho_9" data-name="Caminho 9" d="M508.95,16.24a5.319,5.319,0,0,1-8.966,3.875,5.353,5.353,0,0,1-1.446-3.875,5.026,5.026,0,0,1,5.205-5.321,5.09,5.09,0,0,1,5.205,5.321m-15.5,0a9.974,9.974,0,0,0,10.267,9.89c5.551.087,10.439-4.367,10.325-9.89.116-5.466-4.771-10.006-10.323-9.891a9.991,9.991,0,0,0-10.267,9.89" transform="translate(-367.216 -4.724)" fill="#fff"/>
      <path id="Caminho_10" data-name="Caminho 10" d="M588.26,16.88l-4.236-9.167h-1.911l-4.236,9.167-3.586-9.167h-5.551l7.866,19.433h1.59l4.889-9.977,4.857,9.977h1.589L597.4,7.712h-5.551Z" transform="translate(-423.249 -5.739)" fill="#fff"/>
      <path id="Caminho_11" data-name="Caminho 11" d="M749.411,7.248l-4.577-4.578a2.319,2.319,0,0,0,.607-.7c.028-.051.055-.1.08-.153a3.624,3.624,0,0,1-.975.153h-.162c-.09,0-.179-.007-.267-.015A3.644,3.644,0,0,1,741.23,0a2.34,2.34,0,0,0-.151.827,2.311,2.311,0,0,0,.3,1.142H715.544a3.916,3.916,0,0,0-3.922,3.922V17.76h.8l.254-8.4,3.229,12.049h.623l.6-2.259.606,2.259h.624l.844-3.148a.289.289,0,0,1,.2.084.285.285,0,0,1,.083.2v.084a.282.282,0,1,0,.564,0v-.084a.286.286,0,0,1,.284-.287h0a.287.287,0,0,1,.286.286v.3a.281.281,0,0,0,.48.2.277.277,0,0,0,.083-.2v-.3a.286.286,0,0,1,.284-.287h0a.287.287,0,0,1,.2.084.284.284,0,0,1,.084.2v.087a.282.282,0,0,0,.564,0v-.1a.285.285,0,0,1,.256-.283l.037,0a1.147,1.147,0,0,0,.938-.486h7.983l.977,3.646h.625l.606-2.259.6,2.258h.624l1.517-5.659,6.39-6.391h4.993a.569.569,0,0,0,.4-.168l1.133-1.133a.57.57,0,0,0,0-.807h0" transform="translate(-529.579 0)" fill="#fff"/>
    </g>
  </g>
</svg>
