<svg xmlns="http://www.w3.org/2000/svg" width="99.853" height="87.047" viewBox="0 0 99.853 87.047">
  <path id="logo-frentecdd" d="M74.8,21.3c1.1-1.2,1.9-2.6,3.4-3.5-.1.3,0,.6-.1.8a3.4,3.4,0,0,0-.6,2.6,2.61,2.61,0,0,1-.6,1.8c-.5.8-1,1.7-1.4,2.5a2.054,2.054,0,0,0,0,1.1A65.777,65.777,0,0,0,77.2,34a14.682,14.682,0,0,0,2.5,4.8l.3.3c.4.4.8.4,1-.1a12.937,12.937,0,0,0,.8-2.6,23.08,23.08,0,0,0,.3-3.7c0-1.4-.1-2.7-.2-4.1a21.053,21.053,0,0,1,.2-2.5c0-.1.2-.3.3-.4.1.1.3.2.3.4a20.413,20.413,0,0,1,.9,5.5,3.75,3.75,0,0,0,.1,1.1.451.451,0,0,0,.3.3.891.891,0,0,1,.5.8,5.758,5.758,0,0,1-.2,2.6c-.1.3,0,.8-.1,1.1a8.955,8.955,0,0,1-.8,2.3,2.76,2.76,0,0,1-2.8,1.4c-.3,0-.7-.2-.8.3-.1.3,0,.5.3.5.2,0,.4-.1.6-.1.9-.4,1.8-.9,2.7-1.2.8-.3,1.6-.3,2.3-.5a10.459,10.459,0,0,1,4.3-.3,3.8,3.8,0,0,1,2.3.6,14.167,14.167,0,0,0,1.8.8,6.191,6.191,0,0,1,1.7,1.1,2.092,2.092,0,0,1,.6.4c.5.5.9,1,1.3,1.4.1.1.3.1.4.3.2.3.5.5.6.8.2.4.3.8.5,1.2a5.579,5.579,0,0,1,.6,3.1c-.2,1.2,0,2.4-.6,3.6s-1.1,2.6-1.6,3.8a12.036,12.036,0,0,1-1.5,2.4,8.65,8.65,0,0,1-.7,1c-.3.4-.6.7-.9,1.1-.1.2-.2.3-.3.5a2.629,2.629,0,0,1-1.4.9,5.449,5.449,0,0,1-1.9.8,16.152,16.152,0,0,1-2.2,0,.713.713,0,0,1-.6-.3c-.4-.4-.8-.1-1.1,0a2.034,2.034,0,0,1-.5.1c.1-.3.2-.4.2-.6a9.993,9.993,0,0,0,.8-1.4,1.412,1.412,0,0,0-.1-.9c-.5-1.2-1-2.5-1.5-3.7a8.51,8.51,0,0,0-.6-1.7c-.2-.4-.5-.7-.7-1.1-.1-.2-.1-.5-.2-.7a.756.756,0,0,0-.1-.4c-.4-.9-.9-1.7-1.4-2.6a7.539,7.539,0,0,0-.6-1.3c-.4-.8-.9-1.5-1.3-2.3,0-.1-.1-.1-.1-.2-.2-.5-.4-.6-1-.3a.935.935,0,0,1-1.3-.1c.2,0,.4-.1.7-.1v-.2a6.468,6.468,0,0,1-1.3-.4c-.2-.1-.4-.3-.7-.5.2-.2.4-.3.5-.4a2.651,2.651,0,0,0-.6-.5v-.2a1.268,1.268,0,0,0,.6-.1c.1,0,.3-.1.4-.1.5-.4.9-.7,1.4-1.1a.367.367,0,0,0,.1-.3c0-.1-.2-.1-.2-.2h-.8a.1.1,0,0,0-.1-.1c.4-.2.7-.4,1.2-.7-.2,0-.3-.1-.4,0a1.841,1.841,0,0,1-1.8-.8,19.166,19.166,0,0,1-1.8-2.2,11.919,11.919,0,0,1-.8-2v-.2c.6-.8.2-1.6-.1-2.4-.1-.5-.3-.9-.4-1.4v-.1c-.6-1.1-.4-2.4-1-3.4l-2.7.3c-.4,0-.6-.1-.7-.4a.618.618,0,0,1,.2-.7A6.569,6.569,0,0,0,72,25.1c.1-.3.1-.6.5-.8.1,0,.2-.3.2-.4-.1-.7-.2-1.3-.3-2-.1-1.2-.3-2.3-.4-3.5,0-.4,0-.8-.6-.9-.1,0-.2-.2-.3-.3-.2-1.5-.5-3.1-.7-4.7a24.519,24.519,0,0,1-.2-2.7c0-.3-.1-.4-.5-.4-1.7,0-3.3.1-5,0-1.3-.1-2.7-.3-4-.4-1.1-.1-2.2-.3-3.4-.5.5,1.4,1.1,2.7,1.6,4,1.5,3.7,2.9,7.3,4.4,11,0,.1.1.2.1.3s-.1.2-.1.4c-.1-.1-.3-.1-.4-.2l-.3-.6c-1.8-4.6-3.7-9.1-5.5-13.7-.2-.4-.3-.8-.5-1.2l-3.3,3a74.517,74.517,0,0,1-12.5,9.2,59.21,59.21,0,0,1-11.5,5.1c-2.3.8-4.7,1.3-7,2a4.508,4.508,0,0,0-1.4,1c-1.2,1-2.3,2.1-3.4,3.1a.551.551,0,0,0-.2.5c.8,3.4,1.6,6.8,2.4,10.1.2,1,.5,2,.7,3,.1.3.2.5.5.5a1.609,1.609,0,0,1,1.3,1.2,8.306,8.306,0,0,1,.3,2.7c0,.7-.4,1.1-.7,1.7a11.731,11.731,0,0,0-.5,1.1c-.1.1-.3.2-.4.3s-.2.2-.2.3c-.1.5-.1,1.1-.2,1.6a.85.85,0,0,1-.3.5,1,1,0,0,1-.5-.4.367.367,0,0,1-.1-.3c.1-.7.1-1.3.2-2,0-.1.1-.2.1-.3a12.629,12.629,0,0,0-.4-3.9.758.758,0,0,0-.2-.4c-.1-.2-.3-.2-.5,0a31.511,31.511,0,0,0-5.7,6.4,2.7,2.7,0,0,0-.5,1.5,31.868,31.868,0,0,0,.6,5.3c.3,2.1.6,4.2,1,6.3.2.9.4,1.7.6,2.6.3,1.1.4,2.3.7,3.4.4,1.6,1,3.3,1.5,4.9a28.265,28.265,0,0,0,1.1,3.1,4.053,4.053,0,0,0,.5.9c.5.8.9,1.6,1.4,2.4.1.2.2.3.3.5.4.5.5.5.9,0,.2-.3.4-.3.6.1.2.6.2,1.1-.5,1.4a2.968,2.968,0,0,1-3.9-1.4c-.8-1.5-1.5-3.1-2.3-4.7-.3-.7-.7-1.4-1-2.2-.1-.1-.1-.3-.2-.4a.666.666,0,0,1,.7.5c.8,1.8,1.7,3.5,2.5,5.3a2.651,2.651,0,0,0,.5.6,22.881,22.881,0,0,0-.8-2.8c-.8-1.3-.8-2.6-1.1-4a.758.758,0,0,0-.2-.4c-.4-.2-.4-.6-.5-1a10.926,10.926,0,0,0-.5-1.7c-.1-.5-.1-1-.2-1.6a6.468,6.468,0,0,0-.4-1.3,1.205,1.205,0,0,0-.5-.5c-.3,0-.4-.2-.5-.4a11.051,11.051,0,0,1-.9-3.1,14.132,14.132,0,0,0-.6-2.2c-.2-1.2-.4-2.5-.6-3.8,0-.1-.1-.2-.2-.3l.3,2.1v.2c0,2,.8,3.8,1.1,5.7.1.7.2,1.4.3,2,0,.2.2.4.3.7.5,1.6.9,3.1,1.4,4.7v.6c-.5-.1-.6-.4-.7-.8-.3-1-.6-2.1-.8-3.1-.5-1.9-.9-3.9-1.4-5.8a9.256,9.256,0,0,1-.4-2.3c0-1-.5-1.9-.6-2.9a4.013,4.013,0,0,0-.3-1.5c0-.1-.2-.2-.3-.3-.1.1-.2.2-.2.3-.4,1.2-.9,2.4-1.2,3.6-.2.5-.4.9-1,.9s-1.1.2-1.7.2-.7-.2-.6-.7A23.082,23.082,0,0,1,7,58.7c.6-1.2,1.3-2.3,1.9-3.5a2.824,2.824,0,0,0,.2-1.8c0-.1-.1-.2-.1-.4-.1-2-.1-4-.2-6,0-1.4-.1-2.8-.2-4.2a1.338,1.338,0,0,0-.1-.5,2.092,2.092,0,0,0-.4.6,51.476,51.476,0,0,0-3.3,5.6c.2,1.6-.5,3.5-1.2,5.4-.3.9-.6,1-1.5,1a5.019,5.019,0,0,0-1.2.2.627.627,0,0,1-.8-.2,1.7,1.7,0,0,1-.1-.7,14.269,14.269,0,0,0,.6-3.5c.2-1.5.3-3.1.6-4.6.4-2,.8-4,1.4-6a29.147,29.147,0,0,1,4.9-10A44.142,44.142,0,0,1,12.1,25l.2-.2a1.38,1.38,0,0,1-.4-.3c.1-.1.3-.4.4-.4,1.1-.1,1.7-.9,2.5-1.5a.6.6,0,0,0,.1-.4c0-.1-.1-.3-.1-.4-.1-.2-.2-.5.2-.6.1,0,.3.3.4.5.1.1.1.2.1.4,1.6-.6,3.2-1.3,4.8-1.9,2.8-1.2,5.7-2.4,8.4-3.6,4.6-2.1,9.1-4.2,13.5-6.6A116.05,116.05,0,0,0,52.3,3.5c.7-.5,1.3-1,1.9-1.5a.44.44,0,0,0,.1-.5L54,.6a4.331,4.331,0,0,0,.1-.5c.1.1.3.1.4.3.2.4.3.7.5,1.1.2.5.7.5,1,.7.1,0,.3-.2.4-.3s.1-.2.2-.2a1.69,1.69,0,0,1,.5-.2c.3.1.1.4,0,.5-.1.2-.3.3-.4.5a.92.92,0,0,0,1.2.1.349.349,0,0,1,.2-.1c.2-.1.5-.3.7,0,0,.1-.2.3-.4.5l-.2.2a14.272,14.272,0,0,1,2.2.8A111.026,111.026,0,0,0,71.9,7.9c.3.1.7.1,1.1.2,1.1.3,1.2,1.2,1.3,2.1.1,1.1.1,2.2.1,3.4,0,1.3,0,2.7.1,4C74.5,18.8,74.7,20,74.8,21.3ZM55.6,4.4c-.7.2-1.2.9-2,.7l-.1.1A107.826,107.826,0,0,1,44,11.9a86.66,86.66,0,0,1-12.5,6.4C27.4,20,23.2,21.5,19,22.8c-.2,0-.3.2-.4.2-.2.1-.3.3-.5.3a12.86,12.86,0,0,1-1.9.4c.1.2.1.4.2.6a18.031,18.031,0,0,1,1.9-.5c.2,0,.4.1.6.1l-.4.4a.367.367,0,0,1-.3.1,10.926,10.926,0,0,1-1.7.5c.1.6.3,1.1.4,1.6a16.673,16.673,0,0,1,2-.8c.2-.1.4.1.6.1-.1.2-.2.4-.4.4l-1.5.6c-.3.1-.9.1-.3.7v.1a4.869,4.869,0,0,0,.1,1.2h.2a.6.6,0,0,1,.1-.4l.1.1c1.6-1.3,3.1-2.6,4.7-3.9-1.9.4-3.7.7-5.6,1.1v-.1l.1-.1c1.2-.2,2.5-.4,3.7-.7a5.658,5.658,0,0,0,3-1,2.01,2.01,0,0,1,.8-.4c.1-.1.3-.2.4-.3.2-.2.4-.5.7-.6,1-.6,1.9-1.2,2.9-1.8a12.5,12.5,0,0,1,4.4-2,4.879,4.879,0,0,1,1.7.1c.2,0,.4.3.4.5a.713.713,0,0,1-.3.6c-1,.6-1.9,1.1-2.9,1.6-.3.2-.7.4-1,.6.1.1.2,0,.3,0,.9-.3,1.7-.6,2.6-.9,2.1-.9,4.2-1.7,6.2-2.7A49.069,49.069,0,0,0,54.8,6.2L55,6c-.1-.5.3-.5.6-.8C55.5,5.1,56,4.9,55.6,4.4ZM.6,52.1H.7c0-.1.1-.1.1-.2a42.3,42.3,0,0,1,2.7-5.7,7.54,7.54,0,0,0,.6-1.3c.1-.6.1-1.2.2-1.8A18.48,18.48,0,0,1,6.9,36a54.33,54.33,0,0,1,8.4-10.1.31.31,0,0,1,.2-.1c0,.1-.1.2-.1.3-1,1.1-2.1,2.1-3.1,3.2A56.568,56.568,0,0,0,8,34.7,19.359,19.359,0,0,0,4.7,42c-.2.9-.3,1.9-.5,2.8h.1c.1-.1.1-.2.2-.2.6-1,1.3-2,1.9-3a51.851,51.851,0,0,0,3.1-5,18.733,18.733,0,0,1,6-7.1c.6-.4,1.1-.7.6-1.5v-.3a7.6,7.6,0,0,1-1.1.4c-.2,0-.3-.1-.5-.1.1-.1.2-.4.3-.4.4-.2.8-.3,1.2-.5-.1-.6-.3-1.1-.4-1.7a8.331,8.331,0,0,1-1.5.4,4.331,4.331,0,0,0-.5-.1c.1-.1.2-.3.3-.4.3-.1.7-.2,1-.3.6-.2.6-.2.4-.8-.5.1-1,.2-1.4.3A2.525,2.525,0,0,0,12,25.6a6.034,6.034,0,0,1-.8.8,25.107,25.107,0,0,0-5.7,7.1A40.2,40.2,0,0,0,1.3,46.6C1,48.4.8,50.2.6,52.1ZM15.8,23.2a23.254,23.254,0,0,0,2.8-.5c2.2-.7,4.4-1.4,6.6-2.2,3.4-1.3,6.9-2.7,10.2-4.2a68.889,68.889,0,0,0,9.9-5.5c3.2-2,6.2-4.3,9.2-6.6l.7-.7-1.5.3c-.2,0-.5,0-.5-.2-.1-.3.2-.4.4-.4.5-.1.9-.2,1.4-.3a6.9,6.9,0,0,1-.4-1c-.1,0-.2.1-.3.1a66.623,66.623,0,0,1-8.2,5.7c-2.7,1.6-5.3,3.1-8.1,4.5q-4.65,2.4-9.6,4.5c-4,1.8-8,3.4-12.1,5.1C15.5,22.2,15.5,22.2,15.8,23.2ZM56.1,5.5a6.706,6.706,0,0,0-1.4.9c-1.3,1.3-2.5,2.7-3.8,4a49.221,49.221,0,0,1-8.8,7,50.665,50.665,0,0,1-10.6,4.8,6.7,6.7,0,0,0-1.8.7c-1.7,1-3.3,2.1-5,3.2-.6.4-1.1.9-1.7,1.3C36.5,24.6,47.5,17.6,57.1,8,56.8,7.2,56.5,6.4,56.1,5.5ZM20.5,45.8c-1.1-4.5-2.1-8.8-3.1-13.2-.1.1-.2.1-.2.2l-2.7,3a2.177,2.177,0,0,0-.5.8c-.1.6-.2,1.3-.3,1.9-.1,1.4-.3,2.7-.4,4.1-.1,2-.2,4-.2,5.9a10.284,10.284,0,0,0,.1,1.7c.5-.5.8-.9,1.2-1.3A13.962,13.962,0,0,1,18,46.1,4.252,4.252,0,0,1,20.5,45.8Zm71.3,9.4V55c.2-.5.5-.9.7-1.4.1-.3.3-.6.4-.9a8.51,8.51,0,0,0,.6-1.7,10.957,10.957,0,0,0,.6-2.6,6.436,6.436,0,0,0-.5-2.4c-.1-.4-.3-.7-.8-.6-.1,0-.3,0-.3-.1-.2-.3-.6-.4-.9-.6a4.345,4.345,0,0,0-2.5-.5,14.919,14.919,0,0,0-2.1.2q-.75.15-.3.9a1.381,1.381,0,0,1,.3.4c.4.8.7,1.7,1.2,2.5.4.7.8,1.4,1.2,2,.3.7.7,1.3,1,2,.4,1,.8,2,1.3,3,.1.2.3.3.4.5l.3-.6a.1.1,0,0,1-.1-.1A.588.588,0,0,0,91.8,55.2ZM72.4,8.3h0c0-.1-.1-.1-.2-.1-.8-.1-1.7-.1-2.5-.2-1.9-.3-3.9-.5-5.8-.8a17.2,17.2,0,0,1-5.8-1.9,1.357,1.357,0,0,0-1.5.1c.3.8.6,1.6,1,2.5a.758.758,0,0,0,.4.2,25.122,25.122,0,0,0,2.7.4,31.947,31.947,0,0,0,4.2.5c1.7.1,3.5,0,5.2,0,.2,0,.3-.2.5-.3.3-.2.5-.4.8-.4A3.352,3.352,0,0,1,72.4,8.3ZM57.9,4.9a4.671,4.671,0,0,0,1,.5A18.613,18.613,0,0,0,64.6,7c1.7.2,3.4.5,5.1.7a6.6,6.6,0,0,0,1.4.1c-.1,0-.1,0-.2-.1-1.4-.4-2.8-.8-4.2-1.3-2.8-1-5.6-2.1-8.4-3.2a.846.846,0,0,0-.7,0c-.5.3-1,.5-1.5.8l.3.6c.2-.1.3-.1.5-.2-.2-.2-.4-.3-.5-.4l.1-.1a.758.758,0,0,0,.4.2.9.9,0,0,0,.5.1H58A1.952,1.952,0,0,0,57.9,4.9ZM16.5,29c-1.7.7-5.5,4.7-6,6.3a2.063,2.063,0,0,1,2.6-.5,10.627,10.627,0,0,1,.9-1.1c.9-1,1.8-1.9,2.7-2.8a1.628,1.628,0,0,0,.3-.6,2.2,2.2,0,0,1-.8.1,1.628,1.628,0,0,1,.3-.6A.6.6,0,0,0,16.5,29ZM87.9,43.3a7.569,7.569,0,0,0,1.5.1,1.274,1.274,0,0,1,1.1.5c.1.1.2.1.4.1a2.2,2.2,0,0,1,.8.1.9.9,0,0,0-.6-.6,6.149,6.149,0,0,1-1.1-.3A2.593,2.593,0,0,0,87.9,43.3ZM24.4,24.4a38.451,38.451,0,0,0-5.2,3.8c0,.1.1.1.1.2C21,27,22.7,25.7,24.4,24.4ZM57.2,2.9c-.6-.7-1,0-1.4.2.1.1.1.3.2.4ZM13.8,23.6h0a6.753,6.753,0,0,0,1.4-.2c-.1-.3-.1-.5-.2-.8A10.592,10.592,0,0,1,13.8,23.6ZM17.4,30l.1.1c.5-.5,1.1-1,1.6-1.5C18.3,28.8,17.9,29.5,17.4,30ZM13.6,66.5a.1.1,0,0,0-.1.1c.2.7.4,1.4.6,2,.1,0,.1,0,.2-.1A11.764,11.764,0,0,1,13.6,66.5ZM10.1,35.9c-.3.6-.6,1-.8,1.5A1.4,1.4,0,0,0,10.1,35.9ZM26.9,22.6l.1.1c.4-.2.7-.5,1.1-.7a.1.1,0,0,0-.1-.1C27.6,22.1,27.3,22.4,26.9,22.6ZM44,52.5a8.062,8.062,0,0,0,3.4,4.3c.1-.3.2-.4.2-.6a.875.875,0,0,1,.6-.9,2.342,2.342,0,0,0,1.2-1.2c0-.1.1-.1.2-.2.2-.1.3-.2.5-.3.9-.2,1-.9,1.1-1.6.2-1.3.4-2.6.5-4a30.954,30.954,0,0,0,.2-4.3c-.1-2.2,0-4.3,0-6.5,0-.7.1-1.5.1-2.2,0-.3.2-.4.5-.5s.4.2.5.4a8.025,8.025,0,0,1,.6,3c0,.9.1,1.8.1,2.7,0,.6-.1,1.1-.1,1.7a1.792,1.792,0,0,0,.4,1.4V41c0-.1.1-.2.2-.3.1.1.2.1.3.2a.349.349,0,0,1,.1.2,7.067,7.067,0,0,1,.2,2.5c-.1.3.1.7,0,1.1-.1,1.4-.1,2.7-.2,4.1a14.919,14.919,0,0,1-.2,2.1c0,.4-.1.9-.1,1.3.5.1,1,.1,1.4.2a11.215,11.215,0,0,1,1.3.5l.9.3a4.569,4.569,0,0,1,1.6,1.1c.7.6.8,1.6,1.3,2.3a.878.878,0,0,1-.1.7,3.449,3.449,0,0,1-.9,1.2c-.4.3-1,.2-1.5.3h-.6c.1.3.2.6.1.7a9.292,9.292,0,0,1-1,.5,4.331,4.331,0,0,0-.1-.5.949.949,0,0,0-1.2-.7H55c-.5,0-.9-.1-1.4-.1a1.421,1.421,0,0,0-.6.2.483.483,0,0,1-.7,0c-.6.3-.6.8-.6,1.4a3.2,3.2,0,0,0,.5,1.9,6.106,6.106,0,0,1,.3,1.3,17.233,17.233,0,0,0,.7,2.1c.4.9.9,1.7,1.3,2.5.1.2.4.4.6.6a1.854,1.854,0,0,1,.2.7,2.551,2.551,0,0,0,.9,1.5.758.758,0,0,0,.4-.2,4.179,4.179,0,0,0,.4-1,25.123,25.123,0,0,0,.4-2.7c.1-.7.1-1.4.2-2a8.51,8.51,0,0,1,.6-1.7h1.5v-.2c.1-.1.1-.3.2-.4a1.087,1.087,0,0,1,.5.1,5.938,5.938,0,0,0,.8.4c0-.3.1-.4.1-.6a2.092,2.092,0,0,0,.4.6,3.508,3.508,0,0,1,.8-.5,2.4,2.4,0,0,1,1.2,2.2,11.845,11.845,0,0,1,.2,2.6c-.1,1-.4,2-.6,3a12.091,12.091,0,0,1-.5,1.8c0,.1,0,.2-.1.2-.5.2-.5.8-.7,1.2-.2.3-.3.7-.8.9-.3.1-.4.5-.6.8a1.741,1.741,0,0,1-1.4.5,1.7,1.7,0,0,0-.7.1,3.871,3.871,0,0,1-2.8-.1c-.1-.1-.3-.1-.4-.3h1.2a2.155,2.155,0,0,0,1.6-.4c.1-.1.2-.2.2-.3l-.1-.1a.6.6,0,0,0-.4.1,5.257,5.257,0,0,1-3.5-.3c-.4-.2-.9-.3-1.3-.5-.1,0-.2-.1-.3-.2a1.69,1.69,0,0,0-.5-.2l-.1.1c0-.3-.1-.7-.1-1.1-.4.3-.6.2-.8-.2-.1-.3-.4-.4-.5-.7a4.053,4.053,0,0,1-.5-.9,1.374,1.374,0,0,0-.5-.8c-.1-.1-.3-.2-.3-.4-.1-1-.9-1.7-1.2-2.6a23.4,23.4,0,0,1-.9-2.4,10.819,10.819,0,0,1,0-1.8A3.178,3.178,0,0,0,47,62c0-.1-.1-.2-.1-.3V58.8a.664.664,0,0,0-.4-.5,9.56,9.56,0,0,1-5.9-7.4c-.2-1.1-.5-2.1-.6-3.2a6.7,6.7,0,0,1,0-2c.1-1.1.1-2.3.3-3.4.2-1.3.4-2.5.7-3.7a3.484,3.484,0,0,1,1.5-1.9,10.627,10.627,0,0,0,1.1-.9.942.942,0,0,1,1.2-.2,6.706,6.706,0,0,1,1.4.9,5.241,5.241,0,0,1,1,1.1,14.58,14.58,0,0,1,.7,1.9,8.331,8.331,0,0,1,.4,1.5,1.268,1.268,0,0,1,.1.6c0,2,0,3.9-.1,5.9a4.193,4.193,0,0,1-.4,1.6,12.445,12.445,0,0,1-1,2,1.555,1.555,0,0,1-.8.6A1.987,1.987,0,0,1,44,52.5ZM46,42a8.734,8.734,0,0,0-.5-2.2c-.1-.3-.4-.5-.6-.8-.1-.1-.2-.2-.2-.3l-.3.3c-.2.7-.4,1.3-.6,2a14.874,14.874,0,0,0-1,5.5,30.064,30.064,0,0,0,.5,4.2c0,.3.3.4.5.1a3.924,3.924,0,0,0,.8-1.4C45.7,47.1,45.8,44.6,46,42Zm7.7,15.8c.2.1.4.3.4.2.3-.4.7-.3,1.2-.3a.914.914,0,0,0,.5-.3,4.35,4.35,0,0,1-.7-.6l-.3-.3a1.592,1.592,0,0,0-2-.7,2.172,2.172,0,0,0-.8,1.8c.5.1,1,.1,1.4.2v.1A.438.438,0,0,0,53.7,57.8Zm-.6.3a.349.349,0,0,0-.1-.2,1.884,1.884,0,0,0-.8.2c-.1,0-.1.2-.2.3.1,0,.2.2.3.1A2.01,2.01,0,0,1,53.1,58.1Zm9-8.8a5.987,5.987,0,0,1-1.2-.2c.5-.3.7-.7,1.3-.5-.1.1-.1.3-.2.4.5.6.9.1,1.4-.1a18.945,18.945,0,0,1,2.1-.9c.6-.2,1.3-.3,1.9-.5h.2a10.393,10.393,0,0,1,3.9-.4,16.2,16.2,0,0,1,2.2.1,2.112,2.112,0,0,1,1,.4l1.2.6c.1,0,.1.1.2.1.6-.1.8.4,1.2.6A9.53,9.53,0,0,1,80,51.5l.2.2c.2.1.5.2.6.4.3.7.6,1.4.9,2.2.1.3.3.7.4,1v3.1a5.576,5.576,0,0,1-1,2.8,4.234,4.234,0,0,0-.4,1.2l-1.2,2.7c-.1.2-.3.4-.4.6A18.824,18.824,0,0,1,77.5,68c-.1.2-.3.3-.4.4a6.071,6.071,0,0,1-.7,1,2.092,2.092,0,0,1-.6.4l-1.8.9c-.3.1-.6.1-.9.2a5.7,5.7,0,0,1-1.3.1.6.6,0,0,1-.4-.1,6.944,6.944,0,0,0-1.3-.5,1.689,1.689,0,0,0-.5.2c-.2.1-.4.1-.6.2l-.1-.1a4.728,4.728,0,0,1,.7-1.2,1.357,1.357,0,0,0,.1-1.6,11.919,11.919,0,0,1-.8-2,14.46,14.46,0,0,0-.9-2.2c-.2-.5-.4-1-.6-1.6,0-.1-.2-.2-.2-.3a5.023,5.023,0,0,1-.5-1.3.6.6,0,0,1-.1-.4c-.4-.8-.9-1.6-1.2-2.4-.5-1.1-1-2.2-1.5-3.2a.349.349,0,0,0-.1-.2c-.5-.2-.4-.6-.5-1-.7,0-1.4.7-2.2.1a1.952,1.952,0,0,1,.7-.1.1.1,0,0,1,.1-.1c-.4-.1-.7-.3-1.1-.4-.1,0-.2-.1-.4-.1-.2-.1-.4-.2-.4-.3a1.689,1.689,0,0,1,.2-.5l-.4-.4a.31.31,0,0,1-.1-.2c0-.1.2-.2.2-.2.6.1,1-.3,1.5-.6.3-.2.6-.6.9-.8C62.1,49.4,62.1,49.4,62.1,49.3Zm9.1,2.1c-.7.1-1.4.2-2,.3a.758.758,0,0,0-.4.2c-.3.3-.2.8.1,1.3a5.387,5.387,0,0,1,.7,1.3l.9,1.8c.5.9,1,1.7,1.5,2.6.6,1.3,1.2,2.7,1.8,4,.1.1.2.3.3.4.1-.2.3-.4.2-.6-.2-.4,0-.7.1-1.1.2-.5.4-.9.6-1.3l.3-.9a7.4,7.4,0,0,0,.9-3.6c0-.2-.1-.4-.1-.6a15.19,15.19,0,0,0-.6-2,1,1,0,0,0-.5-.4l-.6-.3a9.143,9.143,0,0,0-1.4-.7A5.262,5.262,0,0,0,71.2,51.4Zm2.8.1a.634.634,0,0,0-.5-.6,4.477,4.477,0,0,0-2-.4,9.151,9.151,0,0,0-1.6.1v.2C71.4,50.6,72.6,51.2,74,51.5ZM87.7,32.4a7.2,7.2,0,0,0,1.5,2.7A6.286,6.286,0,0,0,91.8,37c.7.2.9.2,1.2-.4A20.618,20.618,0,0,0,94.2,34a9.954,9.954,0,0,0,.8-3.8c.1-1,.2-2.1.4-3.1a13.129,13.129,0,0,0,.1-2.8V15.8a2.769,2.769,0,0,1,.1-.9c.1-.2.3-.4.4-.4s.4.1.4.3a5.829,5.829,0,0,1,.6,2.9c0,.7.1,1.5.1,2.2,0,1-.1,1.9-.1,2.9a1.884,1.884,0,0,0,.2.8h.1V21.1c0-.2.1-.3.2-.5l.4.4a8.523,8.523,0,0,1,.3,3.2c-.1,2.2-.3,4.4-.3,6.5a15.836,15.836,0,0,1-1,4.3,6,6,0,0,1-2,2.7,3.819,3.819,0,0,1-1.6.6,6.869,6.869,0,0,1-5.8-1.7,9.651,9.651,0,0,1-3.4-6.3,22.265,22.265,0,0,1-.5-3.6,36.343,36.343,0,0,1,.9-8,3.311,3.311,0,0,1,1.6-2.2,3.126,3.126,0,0,0,1.1-.9c.4-.4.8-.3,1.3-.2a3.072,3.072,0,0,1,1.5,1,5.427,5.427,0,0,1,1.5,2.5,15.19,15.19,0,0,0,.6,2V21c0,1.4,0,2.8-.1,4.3,0,.3-.1.6,0,.8a5.366,5.366,0,0,1-.8,3.5l-.6,1.2-.3.3c-.5.3-1.1.7-1.7,1C88.4,32.4,88.1,32.3,87.7,32.4Zm1.8-10.1c0-2.2,0-2.2-.9-3.4a.1.1,0,0,0-.1-.1l-.2-.2-.3.3-.3.6c-.4,1.5-.9,3-1.2,4.6a22.765,22.765,0,0,0,.3,6.4c.1.3.3.4.5.2a5.968,5.968,0,0,0,.9-1.5A18.188,18.188,0,0,0,89.5,22.3Zm-29.8,17c0-.1,0-.1-.1-.2-.2-1.2-.4-2.4-.5-3.6-.2-1.7-.2-3.3-.3-5a2.388,2.388,0,0,0-.2-.9,2.207,2.207,0,0,0-3.5-.1.367.367,0,0,0-.1.3,26.955,26.955,0,0,0,.4,2.8c.3,1.5.7,3.1,1,4.6A67.355,67.355,0,0,0,58.8,46c.1.2.2.4.3.4a14.919,14.919,0,0,0,2.1.2,1.389,1.389,0,0,0,1-.5,6.468,6.468,0,0,0,.4-1.3c.1-1.6.1-3.1.2-4.7a22.748,22.748,0,0,1,1-5.8c.1-.1.1-.3.3-.5a1.69,1.69,0,0,1,.2.5c.3,1,.7,2,1,3.1A15.946,15.946,0,0,0,67.4,42a1.8,1.8,0,0,0,.9.6,5.362,5.362,0,0,0,2.8-.1A1.593,1.593,0,0,0,72.3,41c0-.9-.1-1.7-.1-2.6-.1-1.5-.2-2.9-.3-4.4,0-.3.1-.7.1-1a28.854,28.854,0,0,0-.4-2.9c0-.3-.2-.6-.2-.9h-.2c-.1.2-.2.3-.2.5-.2,1.4-.5,2.8-.6,4.2-.2,1.7-.3,3.4-.4,5.1a6.753,6.753,0,0,1-.2,1.4h-.2a3.128,3.128,0,0,1-.5-1c-.6-1.9-1.1-3.9-1.6-5.9-.3-.9-.6-1.8-1-2.7a1.472,1.472,0,0,0-1.6-.9H63.8a1.222,1.222,0,0,0-.9.3,5.5,5.5,0,0,0-.7.9c-1,1.5-1.1,3.2-1.5,4.9-.2,1-.4,2.1-.6,3.1Zm-27.8,4a14.117,14.117,0,0,0-.4,4.6,10.869,10.869,0,0,1,.1,1.8,28.159,28.159,0,0,0,1,5.8c.4,1.6.8,3.3,1.2,4.9.1.5-.1.8-.6.8H31.7c-.3,0-.6-.1-.9.2,0,0-.4-.1-.4-.2-.3-.7-.6-1.3-.9-2v-.1c.3-.6-.2-1-.3-1.4-.6-2.1-1.2-4.2-1.9-6.3-.3-1-.6-2.1-.9-3.1-.5-1.8-1-3.6-1.5-5.5a.867.867,0,0,1,.8-1.2,3.365,3.365,0,0,1,2.2.4,1.149,1.149,0,0,1,.6.9c.1.4.2.9.3,1.3H29a6.107,6.107,0,0,0,.3-1.3,8.552,8.552,0,0,0,0-1.6,13.322,13.322,0,0,1,.5-1.9l.6-1.5a1.821,1.821,0,0,1,2.8-.9c.5.2.6.7.6,1.3-.1,1.7,1,4.6,3.1,5.3.4.1.8.2,1.1.3.4.1.7.2,1.1.3s.4.5.4.7c0,.3-.2.4-.5.5-1.3.2-2.5.5-3.7.7a2.345,2.345,0,0,1-2.2-1c-.3-.4-.6-.9-.9-1.4C32,43.5,31.9,43.4,31.9,43.3ZM29.5,54.9a.1.1,0,0,0-.1.1c.2.6.5,1.2.7,1.8.1,0,.1,0,.2-.1A14.167,14.167,0,0,0,29.5,54.9Zm-1.3-2.7v.1a3.552,3.552,0,0,1,.9.4c-.1-.3-.2-.4-.2-.6A1.7,1.7,0,0,1,28.2,52.2Zm43.9,19a6.374,6.374,0,0,0-.2.9,6.889,6.889,0,0,0,.8-.3l-.3-.6Zm18.2-6.7c-.1-.2-.1-.5-.2-.7h-.2a4.116,4.116,0,0,1-.3.8C89.9,64.6,90.1,64.5,90.3,64.5Zm-9.4-18c0-.1,0-.1-.1-.2a.46.46,0,0,0-.6.6A5.736,5.736,0,0,1,80.9,46.5ZM62.7,54.3c.1-.2.2-.3.3-.5l-.2-.2a2.186,2.186,0,0,1-.3.5A.215.215,0,0,0,62.7,54.3Z" transform="translate(0 -0.1)" fill="#fff"/>
</svg>
