<svg xmlns="http://www.w3.org/2000/svg" width="313" height="31.18" viewBox="0 0 313 31.18">
  <g id="Grupo_113" data-name="Grupo 113" transform="translate(-650 -390)">
    <text id="_" data-name="+" transform="translate(855 408.332)" fill="#fff" font-size="16" font-family="Roboto-Regular, Roboto" letter-spacing="0.05em"><tspan x="0" y="0">+</tspan></text>
    <g id="Grupo_111" data-name="Grupo 111" transform="translate(650 389.332)">
      <g id="Group-3" transform="translate(0 0.572)">
        <path id="Fill-1" d="M8.991.1c5.758,0,8.993,3.874,8.993,9.4s-3.182,9.5-8.993,9.5C3.1,18.994,0,15.093,0,9.494S3.155.1,8.991.1m0,16.017c3.759,0,5.153-3.323,5.153-6.62,0-3.221-1.5-6.52-5.153-6.52S3.84,6.273,3.84,9.494c0,3.3,1.392,6.62,5.151,6.62" fill="#fff" fill-rule="evenodd"/>
      </g>
      <path id="Fill-4" d="M21.165.983h4.521l6.993,13.662h.053V.983h3.522V19.252h-4.5L24.738,5.588h-.051V19.252H21.165Z" fill="#fff" fill-rule="evenodd"/>
      <path id="Fill-6" d="M40.2.983H43.88V11.53c0,3.115,1,5.156,3.811,5.156S51.5,14.645,51.5,11.53V.983h3.681V12.655c0,4.9-2.786,6.909-7.493,6.909S40.2,17.551,40.2,12.655Z" fill="#fff" fill-rule="evenodd"/>
      <path id="Fill-8" d="M85.854.983h3.679V8.361h7.36V.983h3.681V19.252H96.893V11.244h-7.36v8.008H85.854Z" fill="#fff" fill-rule="evenodd"/>
      <path id="Fill-10" d="M110.092.983h4.156l7.2,18.268h-4.072L115.8,15.063h-7.442l-1.6,4.188H102.94Zm2.026,3.663h-.055l-2.653,7.54h5.362Z" fill="#fff" fill-rule="evenodd"/>
      <path id="Fill-12" d="M123.816.983h6.415c2.366,0,5.913.679,5.913,4.683a4.084,4.084,0,0,1-3.654,4.083V9.8c2.5.236,4.207,1.913,4.207,4.163,0,4.607-4.154,5.287-6.467,5.287h-6.415ZM127.5,8.361h1.5c1.549,0,3.469-.338,3.469-2.223,0-2.122-1.865-2.279-3.548-2.279H127.5Zm0,8.011h1.734c1.71,0,3.788-.418,3.788-2.539,0-2.384-1.949-2.748-3.788-2.748H127.5Z" fill="#fff" fill-rule="evenodd"/>
      <path id="Fill-14" d="M139.564,19.252h3.679V.982h-3.679Z" fill="#fff" fill-rule="evenodd"/>
      <path id="Fill-16" d="M150.528,3.861h-5.259V.982h14.2V3.861h-5.256V19.252h-3.681Z" fill="#fff" fill-rule="evenodd"/>
      <path id="Fill-17" d="M164.961.983h4.154l7.2,18.268h-4.074l-1.578-4.188h-7.442l-1.6,4.188h-3.812Zm2.024,3.663h-.053l-2.654,7.54h5.36Z" fill="#fff" fill-rule="evenodd"/>
      <path id="Fill-18" d="M179.919,3.861h-5.257V.982h14.194V3.861H183.6V19.252h-3.679Z" fill="#fff" fill-rule="evenodd"/>
      <path id="Fill-19" d="M70.846,1.211c.1,0,.195,0,.294,0,.135.019.26.07.4.082a4.336,4.336,0,0,1,.632.044c.053.015.106.034.161.053.084.022.171.039.256.063.063.022.121.046.181.066.193.054.413.043.6.107.142.043.236.162.372.213.2.077.453.073.652.158.084.048.169.092.253.138.113.048.225.1.34.141.092.054.173.134.265.189a5.241,5.241,0,0,1,.465.264,3.227,3.227,0,0,1,.352.364c.125.112.249.226.372.34.118.129.21.267.33.4a7.146,7.146,0,0,1,.521.605c.109.156.157.333.258.49s.239.3.352.444c.046.063.07.131.109.2.056.1.132.184.184.281l.27.539a3.368,3.368,0,0,1,.255.508A5.062,5.062,0,0,1,78.9,7.977a3.315,3.315,0,0,1,.06.43,2.171,2.171,0,0,1-.051.4l-.039.167c0,.068.005.138.007.206-.021.182-.039.364-.06.548,0,.068,0,.141,0,.211-.014.037-.024.077-.036.116a1.552,1.552,0,0,0-.046.257,4.1,4.1,0,0,1-.07.626,3.583,3.583,0,0,1-.244.459c-.039.107-.077.216-.116.323a1.9,1.9,0,0,1-.161.3c-.038.082-.077.165-.116.247a.379.379,0,0,1-.08.1c-.027.026-.056.051-.085.077-.021.053-.038.109-.055.162a1.6,1.6,0,0,1-.174.292,6.338,6.338,0,0,1-.579.617,2.312,2.312,0,0,0-.193.258c-.032.058-.067.114-.1.172l-.485.383-.188.1c-.135.1-.2.245-.321.349a5.141,5.141,0,0,1-.678.372,2.908,2.908,0,0,1-.391.27,5.26,5.26,0,0,1-.818.19l-.2.07c-.046.019-.089.039-.135.058-.1.017-.208-.009-.316,0a2.474,2.474,0,0,0-.4.1c-.082.017-.166.034-.246.048L72.4,15.9c-.044.022-.094.041-.137.065-.07.026-.15.032-.22.056a3.037,3.037,0,0,1-.91.262,1.618,1.618,0,0,1-.594-.085,1.642,1.642,0,0,0-.4-.124l-.418-.005c-.051-.012-.1-.019-.15-.027a7.9,7.9,0,0,1-.881-.107,1.015,1.015,0,0,1-.225-.094,3.545,3.545,0,0,0-.335-.121c-.284-.085-.581-.151-.852-.26-.155-.06-.294-.148-.444-.219a9.132,9.132,0,0,1-1-.537c-.166-.107-.314-.248-.475-.366l-.256-.165a5.019,5.019,0,0,1-.765-.644c-.22-.23-.345-.5-.548-.741-.169-.2-.354-.383-.5-.588-.067-.092-.1-.2-.155-.289-.046-.077-.114-.143-.152-.221-.085-.173-.12-.371-.2-.544-.043-.088-.108-.158-.15-.245q-.026-.084-.046-.168a2.764,2.764,0,0,1-.128-.408c-.005-.111-.01-.221-.015-.333,0-.056.005-.114.009-.172-.01-.116-.06-.231-.072-.352a3.968,3.968,0,0,1,.012-.452c0-.129.009-.258.012-.388.031-.155.061-.309.092-.466.017-.048.034-.1.053-.145,0-.077,0-.156,0-.233a1.676,1.676,0,0,1,.065-.326c.056-.2.143-.383.214-.575.027-.082.058-.167.085-.25a1.9,1.9,0,0,0,.1-.194,1.692,1.692,0,0,0,.046-.325c.007-.039.015-.08.022-.119L63.1,5.8a4.287,4.287,0,0,1,.193-.49.781.781,0,0,0-.012-.321.839.839,0,0,1,.132-.483.88.88,0,0,1,.171-.167l.075-.105c.046-.036.092-.071.138-.109a1.427,1.427,0,0,1,.265-.175,1.69,1.69,0,0,0,.48-.221c.1-.09.167-.2.275-.287a1.135,1.135,0,0,1,.239-.162c.061-.032.125-.061.188-.09.1-.088.2-.173.3-.262a6.6,6.6,0,0,1,.634-.422c.073-.044.159-.126.253-.126.106-.056.229-.083.34-.143.207-.109.4-.255.61-.352a1.9,1.9,0,0,1,.268-.085c.14-.048.278-.092.42-.138s.268-.167.441-.167a.374.374,0,0,1,.15-.034.488.488,0,0,1,.174-.032c.019-.005.041-.009.06-.012.038-.007.077-.014.113-.022l.091-.019.058-.012c.085-.022.167-.046.249-.068a.333.333,0,0,1,.133-.02.343.343,0,0,1,.114-.012c.032,0,.065-.005.1-.007l.063-.007c.041,0,.082-.005.123-.007l.05-.009c.051-.014.174.046.236.056l.191.005c.015,0,.032,0,.048-.007s.056-.009.082-.014l.068-.012a.449.449,0,0,1,.179-.034l.043-.007.021-.014m1.495,1.995c-.1.026-.352.116-.345.238.005.015.01.027.014.037.094.117.19.236.285.354.08.109.123.235.195.347.05.075.111.141.159.218.085.167.173.333.258.5.087.146.207.275.3.423.12.2.239.395.36.593.041.058.1.107.14.163.113.17.178.384.367.5a.343.343,0,0,0,.188.066.463.463,0,0,0,.2-.1c.041-.026.085-.051.126-.073.167-.128.458-.41.67-.41l.07-.014c.345-.112.705.439.634.721a.476.476,0,0,1-.143.2,5.853,5.853,0,0,1-.675.485.582.582,0,0,0-.195.18.2.2,0,0,0-.015.128,1.118,1.118,0,0,0,.142.291c.089.179.181.357.272.534.06.078.12.156.178.235.089.133.178.269.268.4l.248.344c.22.313.359.667.567.983.043.043.084.087.125.129.039.063.077.122.118.182.034.043.1.1.157.075s.073-.09.092-.126c.043-.092.082-.18.123-.269.027-.134.053-.27.079-.4a7.158,7.158,0,0,0,.145-.893l.005-.517c.017-.2.065-.384.063-.587a1.069,1.069,0,0,0-.094-.379,2.17,2.17,0,0,1-.024-.284,1.463,1.463,0,0,0-.075-.175c-.058-.16-.1-.32-.166-.471a8.511,8.511,0,0,0-.494-.84L76.6,5.853c-.009-.036-.02-.068-.029-.1-.032-.029-.065-.06-.1-.09-.053-.056-.1-.112-.155-.168-.125-.158-.249-.315-.376-.471-.077-.1-.183-.167-.266-.253-.063-.075-.125-.146-.186-.221a3.931,3.931,0,0,0-.569-.463c-.079-.058-.155-.119-.231-.177l-1.1-.364a.576.576,0,0,1-.133-.08l-.159-.077a2.805,2.805,0,0,0-.95-.18m-1.831.009c-.186.049-.412,0-.6.037-.075.029-.149.061-.224.09a2.29,2.29,0,0,1-.494.134c-.092.007-.188.014-.282.024-.043,0-.084,0-.126,0-.038.031-.072.058-.108.088a1.212,1.212,0,0,1-.191.122c-.15.078-.321.119-.465.211-.087.071-.174.141-.261.211-.061.041-.133.051-.191.088-.092.075-.186.15-.28.223-.181.138-.371.265-.545.418-.12.105-.2.23-.309.333-.039.029-.079.056-.118.087a1.487,1.487,0,0,0-.246.24,2.142,2.142,0,0,0-.278.429,1.112,1.112,0,0,1-.166.326,1.226,1.226,0,0,1-.34.25.659.659,0,0,0-.21.105c-.167.156-.2.437-.328.622s-.355.321-.494.507a.85.85,0,0,0-.1.2,4.733,4.733,0,0,0-.284,1.243c-.022.155-.043.309-.063.466.005.065.01.129.017.194a3.535,3.535,0,0,0,.113.825,3.337,3.337,0,0,0,.181.609,3.522,3.522,0,0,0,.347.514c.084.129.147.265.237.389.05.068.114.121.167.184a5.291,5.291,0,0,0,.442.483,6.077,6.077,0,0,0,.9.656,4.275,4.275,0,0,0,.651.376c.3.128.63.23.948.328.154.026.3.056.456.085a5.971,5.971,0,0,0,1.259.155.722.722,0,0,1,.251-.029c.012,0,.026,0,.041-.005l.073-.014c.085-.044.161-.031.2-.129.019-.075.041-.15.06-.223,0-.344,0-.684,0-1.025,0-.235,0-.457-.017-.679a1.5,1.5,0,0,0-.036-.318A.1.1,0,0,0,70.06,12a2.5,2.5,0,0,0-.738,0c-.058,0-.116,0-.178,0a1.761,1.761,0,0,0-.214-.06,3.243,3.243,0,0,0-.446.06c-.13,0-.258-.048-.395-.039a.937.937,0,0,0-.29.056,2.647,2.647,0,0,1-.331.148,1.007,1.007,0,0,1-.917-.2,1.765,1.765,0,0,1-.243-.3c-.048-.068-.1-.136-.149-.2a.5.5,0,0,1,.022-.378.773.773,0,0,1,.121-.139,3.319,3.319,0,0,1,.2-.269c.109-.112.22-.223.331-.335.061-.134.123-.269.184-.4.039-.073.116-.139.15-.218s.036-.179.072-.26c.055-.131.145-.241.207-.369.044-.105.089-.214.132-.32a1.753,1.753,0,0,0,.188-.359.18.18,0,0,0-.007-.143.3.3,0,0,0-.087-.1c-.1-.066-.234-.09-.34-.155a1.475,1.475,0,0,1-.548-.578.285.285,0,0,1-.051-.143.388.388,0,0,1,.12-.2.58.58,0,0,1,.377-.2c.022-.005.044-.009.067-.012.347-.112.835.638,1.04.464.084-.073.109-.218.157-.315.082-.143.164-.287.246-.432.053-.1.106-.207.159-.309.123-.2.246-.406.369-.612l.114-.146c.048-.073.065-.17.113-.245.094-.138.215-.258.294-.4.024-.054.043-.111.065-.163.022-.032.048-.066.072-.1a1.909,1.909,0,0,0,.1-.2c.05-.136.1-.274.145-.412a3.032,3.032,0,0,1,.159-.357c.061-.126.217-.206.277-.332.038-.083-.034-.094-.1-.1m.268,2.24a.965.965,0,0,0-.377.262c-.043.039-.082.075-.125.112-.036.053-.072.1-.108.158s-.1.107-.143.163-.079.116-.118.175c-.041.039-.08.078-.126.119-.021.053-.043.109-.067.162-.109.172-.186.352-.285.531-.032.058-.089.1-.116.158-.032.085-.063.173-.1.262s-.157.245-.126.338.265.158.35.2a4.706,4.706,0,0,0,1.325.5,1.137,1.137,0,0,0,.2.037.489.489,0,0,1,.05-.005l.041-.007L71.13,8.6l.067-.015c.061-.037.152-.087.152-.172-.111-.077-.237-.041-.379-.049a.888.888,0,0,1-.646-.286l-.135-.112c-.019-.043-.038-.083-.055-.124a.871.871,0,0,1-.109-.677,2.263,2.263,0,0,1,.167-.255c.044-.085.039-.194.1-.272a1.456,1.456,0,0,1,.456-.3l.155-.044a.671.671,0,0,1,.138-.061.922.922,0,0,1,.407.041.944.944,0,0,0,.273.075V6.338h.009a1.721,1.721,0,0,0-.95-.884M72.25,7.045a1.936,1.936,0,0,0,.015.4.433.433,0,0,1,.007.133c-.036.121-.073.243-.109.364-.036.07-.111.109-.13.189-.014.054.031.075.082.075.181-.111.7-.3.577-.6-.043-.109-.143-.172-.2-.27s-.1-.265-.239-.291m1.194,1.638a3.585,3.585,0,0,0-.548.3,2.354,2.354,0,0,0-.885.707,1.949,1.949,0,0,0-.125.585c-.007.073-.051.306,0,.357.012.009.027.017.041.026a.708.708,0,0,0,.253.024l.6.02c.159.007.313.044.478.056l.77.024.287.032V10.81a1.339,1.339,0,0,1,.3-.073.268.268,0,0,0,.046-.009c.072-.037.167-.085.159-.185-.007-.068-.072-.136-.1-.192a4.206,4.206,0,0,0-.456-.639c-.092-.136-.186-.272-.28-.408-.056-.078-.123-.145-.184-.219l-.068-.122a1.069,1.069,0,0,0-.154-.231c-.036-.044-.073-.044-.132-.048m-4.8.039a.305.305,0,0,0-.1.044.617.617,0,0,0-.109.16c-.06.092-.116.182-.176.275-.034.09-.067.184-.1.274-.034.066-.079.117-.114.182-.05.092-.077.2-.126.286-.094.172-.22.33-.311.505a.712.712,0,0,0-.073.17c-.031.158.031.226.188.226.041-.005.084-.005.125-.009l.082-.005c.02,0,.041-.005.063-.007s.06,0,.089-.007l.048-.007.116-.007.154-.009a2.069,2.069,0,0,1,.509.022l.082-.014c.039-.009.075-.014.111-.02a1.3,1.3,0,0,1,.388.007l.082-.007.041-.007c.026,0,.055-.005.082-.005l.22-.009.041-.007a.794.794,0,0,0,.072-.043c.061-.065.044-.321.044-.422,0-.167-.015-.344-.019-.507a1.061,1.061,0,0,0-.026-.355.47.47,0,0,0-.178-.173,2.378,2.378,0,0,0-.357-.2c-.137-.046-.275-.1-.41-.141a1.594,1.594,0,0,0-.437-.19m5.1,3.205a1.916,1.916,0,0,1-.35.041c-.318.026-.671.01-1,.024a1.772,1.772,0,0,0-.318.014.237.237,0,0,0-.092.061.356.356,0,0,0-.082.173,3.135,3.135,0,0,0-.041.626c-.009.168-.019.337-.026.5-.005.272.009.541.026.792a.722.722,0,0,0,.092.41c.1.107.461.1.63.1a.3.3,0,0,1,.118-.014l.077-.014c.072-.024.145-.044.22-.068a3.485,3.485,0,0,0,.413-.165c.195-.1.389-.2.584-.3.084-.044.166-.092.253-.138.046-.044.092-.092.142-.139a1.392,1.392,0,0,1,.249-.189,4.751,4.751,0,0,0,.746-.505,3.08,3.08,0,0,0,.282-.412A1.3,1.3,0,0,0,75.9,12.3c-.005-.043-.041-.06-.08-.066-.582-.111-1.177-.173-1.79-.23-.1-.01-.169-.075-.284-.078" fill="#fff" fill-rule="evenodd"/>
      <path id="Fill-20" d="M67.495,20.321a7.275,7.275,0,0,1,5.372-2.272c2.285,0,4.757,1.272,5.742.6a4.926,4.926,0,0,1-3.022.837c-2.019,0-2.788-.983-4.19-.983a4.8,4.8,0,0,0-3.5,2.013Z" fill="#fff" fill-rule="evenodd"/>
      <path id="Fill-21" d="M74.7,17.888a2.911,2.911,0,0,0,1.02-1.1,8.476,8.476,0,0,1,2.183-2.529s-1.033,3.16-2.1,3.3c0,0-.166.1.133.049s1.669-.532,2.154-.612a5.485,5.485,0,0,0,1.985-.644c.268-.258.451-.226.451-.226a4.721,4.721,0,0,1-3.686,2.126,13.135,13.135,0,0,1-2.137-.369" fill="#fff" fill-rule="evenodd"/>
      <path id="Fill-22" d="M77.506,16.792a2.219,2.219,0,0,0,.3-1,8.167,8.167,0,0,1,1.585-3.659,6.491,6.491,0,0,1-1.117,4.03s-.085.226.082.063A14.476,14.476,0,0,1,81.1,13.972s.916-.726.965-.968a4.922,4.922,0,0,1-4.554,3.787" fill="#fff" fill-rule="evenodd"/>
      <path id="Fill-23" d="M79.725,14.423a3.62,3.62,0,0,0,.1-.741c0-.337-.15-1.5-.15-2.013a4.282,4.282,0,0,1,.47-2.144,2.531,2.531,0,0,0,.132.838,6.585,6.585,0,0,1,.282,1.418,4.2,4.2,0,0,1-.266,1.466,1.123,1.123,0,0,0,.352-.434,7.613,7.613,0,0,1,1.319-1.627,2.94,2.94,0,0,0,.832-1.274,3.537,3.537,0,0,1-.716,2.386c-.883,1.224-1.25,1.013-1.735,1.513,0,0-.55.644-.618.612" fill="#fff" fill-rule="evenodd"/>
      <path id="Fill-24" d="M81.111,11.635a3.149,3.149,0,0,0-.169-.935,5.941,5.941,0,0,1-.765-3.416s.135-.112.383.582.6.9.719,1.593a6.939,6.939,0,0,1,.116.985s.084.094.084.015a5.716,5.716,0,0,1,.483-1.869,6.027,6.027,0,0,0,.883-2.224s.234.017.2.935a6.633,6.633,0,0,1-1.935,4.335" fill="#fff" fill-rule="evenodd"/>
      <path id="Fill-25" d="M81.544,8.816a4.428,4.428,0,0,0-.483-.854,10.057,10.057,0,0,1-1.7-3.046s.118-.066.253.16a7.375,7.375,0,0,0,.917.968,2.907,2.907,0,0,1,.883,1.6s.067.078-.067-1.211S81.778,4.3,81.311,3.4c0,0,.651.1,1,2.74a6.032,6.032,0,0,1-.516,2.08s-.167.6-.251.6" fill="#fff" fill-rule="evenodd"/>
      <path id="Fill-26" d="M81.043,5.914a5.815,5.815,0,0,0-.934-.757,5.541,5.541,0,0,1-1.951-2.45s.084-.107.5.418c.318.4.651.211,1.6,1.372,0,0,.132.257.2.241s-.032-.275-.032-.275a9.193,9.193,0,0,1-.2-.983,8.616,8.616,0,0,0-.533-1.8,3.41,3.41,0,0,1,1.469,2.705,13.045,13.045,0,0,1-.118,1.532" fill="#fff" fill-rule="evenodd"/>
      <path id="Fill-27" d="M79.942,3.788s.084-1.74-2.287-2.627a7.034,7.034,0,0,0,1.436,2.013,5.948,5.948,0,0,1,.851.614" fill="#fff" fill-rule="evenodd"/>
      <path id="Fill-28" d="M73.868,20.321A7.272,7.272,0,0,0,68.5,18.049c-2.284,0-4.755,1.272-5.741.6a4.92,4.92,0,0,0,3.022.837c2.017,0,2.786-.983,4.186-.983a4.808,4.808,0,0,1,3.5,2.013Z" fill="#fff" fill-rule="evenodd"/>
      <path id="Fill-29" d="M66.661,17.888a2.9,2.9,0,0,1-1.018-1.1,8.484,8.484,0,0,0-2.185-2.529s1.033,3.16,2.1,3.3c0,0,.167.1-.133.049s-1.669-.532-2.152-.612a5.494,5.494,0,0,1-1.986-.644c-.268-.258-.449-.226-.449-.226a4.722,4.722,0,0,0,3.688,2.126,13.129,13.129,0,0,0,2.135-.369" fill="#fff" fill-rule="evenodd"/>
      <path id="Fill-30" d="M63.857,16.792a2.206,2.206,0,0,1-.3-1,8.187,8.187,0,0,0-1.585-3.659,6.466,6.466,0,0,0,1.117,4.03s.084.226-.084.063a14.43,14.43,0,0,0-2.736-2.255s-.917-.726-.967-.968a4.922,4.922,0,0,0,4.554,3.787" fill="#fff" fill-rule="evenodd"/>
      <path id="Fill-31" d="M61.638,14.423a3.62,3.62,0,0,1-.1-.741c0-.337.152-1.5.152-2.013a4.315,4.315,0,0,0-.468-2.144,2.5,2.5,0,0,1-.133.838,6.483,6.483,0,0,0-.282,1.418,4.233,4.233,0,0,0,.265,1.466,1.112,1.112,0,0,1-.35-.434A7.558,7.558,0,0,0,59.4,11.185a2.977,2.977,0,0,1-.834-1.274,3.533,3.533,0,0,0,.717,2.386c.883,1.224,1.25,1.013,1.734,1.513,0,0,.552.644.618.612" fill="#fff" fill-rule="evenodd"/>
      <path id="Fill-32" d="M60.254,11.635a3.232,3.232,0,0,1,.166-.935,5.946,5.946,0,0,0,.769-3.416s-.135-.112-.384.582-.6.9-.717,1.593a6.939,6.939,0,0,0-.116.985s-.084.094-.084.015A5.739,5.739,0,0,0,59.4,8.59a6.088,6.088,0,0,1-.883-2.224s-.234.017-.2.935a6.628,6.628,0,0,0,1.937,4.335" fill="#fff" fill-rule="evenodd"/>
      <path id="Fill-33" d="M59.82,8.816a4.429,4.429,0,0,1,.483-.854A10.021,10.021,0,0,0,62,4.916s-.116-.066-.249.16a7.853,7.853,0,0,1-.916.968,2.885,2.885,0,0,0-.885,1.6s-.068.078.065-1.211S59.586,4.3,60.054,3.4c0,0-.652.1-1,2.74a6.044,6.044,0,0,0,.519,2.08s.166.6.249.6" fill="#fff" fill-rule="evenodd"/>
      <path id="Fill-34" d="M60.322,5.914a5.855,5.855,0,0,1,.933-.757,5.555,5.555,0,0,0,1.952-2.45s-.085-.107-.5.418c-.318.4-.651.211-1.6,1.372,0,0-.133.257-.2.241s.034-.275.034-.275a9.3,9.3,0,0,0,.2-.983,8.719,8.719,0,0,1,.533-1.8A3.4,3.4,0,0,0,60.2,4.382a13.045,13.045,0,0,0,.118,1.532" fill="#fff" fill-rule="evenodd"/>
      <path id="Fill-35" d="M61.42,3.788s-.082-1.74,2.285-2.627a7.039,7.039,0,0,1-1.433,2.013,5.921,5.921,0,0,0-.852.614" fill="#fff" fill-rule="evenodd"/>
      <path id="Fill-36" d="M0,23.892H2.06c1.611,0,2.95.561,2.95,2.343,0,1.735-1.363,2.352-2.781,2.352h-1.1v3.127H0ZM1.125,27.6H2.239a1.412,1.412,0,0,0,1.577-1.377c0-.986-1.035-1.345-1.734-1.345H1.125Z" fill="#fff" fill-rule="evenodd"/>
      <path id="Fill-37" d="M9.7,23.757c2.386,0,3.782,1.726,3.782,4.045,0,2.376-1.384,4.045-3.782,4.045S5.922,30.178,5.922,27.8c0-2.319,1.4-4.045,3.782-4.045m0,7.1c1.812,0,2.589-1.5,2.589-3.059,0-1.592-.856-3.071-2.589-3.059C7.97,24.732,7.114,26.211,7.114,27.8c0,1.558.777,3.059,2.589,3.059" fill="#fff" fill-rule="evenodd"/>
      <path id="Fill-38" d="M15.018,23.892h1.925c1.554,0,3.051.247,3.051,2.119a1.824,1.824,0,0,1-1.621,1.78v.024c.348.134.518.3.765.784l1.486,3.115H19.341L18.137,29c-.35-.762-.721-.762-1.319-.762h-.675v3.474H15.018Zm1.126,3.362H17.1c1.069,0,1.7-.471,1.7-1.221,0-.706-.54-1.155-1.575-1.155H16.143Z" fill="#fff" fill-rule="evenodd"/>
      <path id="Fill-39" d="M31.206,28.475c0,2.2-1.115,3.374-3.051,3.374S25.1,30.672,25.1,28.475V23.89H26.23v4.438c0,1.5.473,2.534,1.925,2.534s1.925-1.032,1.925-2.534V23.89h1.126Z" fill="#fff" fill-rule="evenodd"/>
      <path id="Fill-40" d="M33.232,23.892h1.857l2.466,6.5,2.42-6.5h1.857v7.822H40.707V24.946h-.022l-2.6,6.768h-1.1l-2.6-6.768h-.022v6.768H33.232Z" fill="#fff" fill-rule="evenodd"/>
      <path id="Fill-41" d="M46.911,23.892h4.176v.986H48.037v2.285h2.916v.986H48.037v3.564H46.911Z" fill="#fff" fill-rule="evenodd"/>
      <path id="Fill-42" d="M58.72,28.475c0,2.2-1.114,3.374-3.051,3.374s-3.051-1.177-3.051-3.374V23.89h1.126v4.438c0,1.5.473,2.534,1.925,2.534s1.925-1.032,1.925-2.534V23.89H58.72Z" fill="#fff" fill-rule="evenodd"/>
      <path id="Fill-43" d="M62.3,24.878H59.857v-.986h6.011v.986H63.426v6.836H62.3Z" fill="#fff" fill-rule="evenodd"/>
      <path id="Fill-44" d="M73.107,28.475c0,2.2-1.114,3.374-3.051,3.374s-3.051-1.177-3.051-3.374V23.89h1.126v4.438c0,1.5.473,2.534,1.925,2.534s1.925-1.032,1.925-2.534V23.89h1.126Z" fill="#fff" fill-rule="evenodd"/>
      <path id="Fill-45" d="M75.054,23.892h1.925c1.553,0,3.051.247,3.051,2.119a1.824,1.824,0,0,1-1.621,1.78v.024c.348.134.518.3.765.784l1.486,3.115H79.377L78.173,29c-.35-.762-.721-.762-1.319-.762H76.18v3.474H75.054Zm1.126,3.362h.957c1.069,0,1.7-.471,1.7-1.221,0-.706-.54-1.155-1.575-1.155H76.18Z" fill="#fff" fill-rule="evenodd"/>
      <path id="Fill-46" d="M85.378,23.757c2.386,0,3.782,1.726,3.782,4.045,0,2.376-1.384,4.045-3.782,4.045S81.6,30.178,81.6,27.8c0-2.319,1.4-4.045,3.782-4.045m0,7.1c1.812,0,2.589-1.5,2.589-3.059,0-1.592-.856-3.071-2.589-3.059-1.734-.012-2.589,1.468-2.589,3.059,0,1.558.777,3.059,2.589,3.059" fill="#fff" fill-rule="evenodd"/>
      <path id="Fill-47" d="M100,28.475c0,2.2-1.114,3.374-3.051,3.374S93.9,30.672,93.9,28.475V23.89h1.124v4.438c0,1.5.473,2.534,1.927,2.534s1.925-1.032,1.925-2.534V23.89H100Z" fill="#fff" fill-rule="evenodd"/>
      <path id="Fill-48" d="M101.948,23.892h1.927c1.551,0,3.049.247,3.049,2.119a1.824,1.824,0,0,1-1.619,1.78v.024c.348.134.518.3.763.784l1.486,3.115h-1.283L105.067,29c-.35-.762-.721-.762-1.317-.762h-.676v3.474h-1.126Zm1.126,3.362h.958c1.069,0,1.7-.471,1.7-1.221,0-.706-.541-1.155-1.577-1.155h-1.081Z" fill="#fff" fill-rule="evenodd"/>
      <path id="Fill-49" d="M108.827,23.892h2.127c1.633,0,2.758.527,2.758,1.973a1.813,1.813,0,0,1-1.621,1.86v.022a1.835,1.835,0,0,1,1.824,1.882c0,1.682-1.4,2.085-2.992,2.085h-2.1Zm1.126,3.34h.618c1.093,0,2.015-.1,2.015-1.255,0-.93-.8-1.167-1.45-1.167h-1.184Zm0,3.564h.844c1.013,0,1.925-.213,1.925-1.269,0-1.209-1.069-1.377-2.038-1.377h-.731Z" fill="#fff" fill-rule="evenodd"/>
      <path id="Fill-50" d="M118.262,23.892h1.18l3.322,7.822h-1.226l-.8-1.974h-3.85l-.8,1.974h-1.182Zm.552,1.054-1.565,3.875h3.129Z" fill="#fff" fill-rule="evenodd"/>
      <path id="Fill-51" d="M123.889,23.892h1.53l3.469,6.3h.02v-6.3h1.129v7.822H128.6l-3.558-6.435h-.024v6.435h-1.126Z" fill="#fff" fill-rule="evenodd"/>
      <path id="Fill-52" d="M135.407,23.757c2.384,0,3.782,1.726,3.782,4.045,0,2.376-1.385,4.045-3.782,4.045s-3.783-1.67-3.783-4.045c0-2.319,1.4-4.045,3.783-4.045m0,7.1c1.812,0,2.589-1.5,2.589-3.059,0-1.592-.856-3.071-2.589-3.059-1.735-.012-2.591,1.468-2.591,3.059,0,1.558.777,3.059,2.591,3.059" fill="#fff" fill-rule="evenodd"/>
      <path id="Fill-53" d="M143.929,23.892h1.857l2.466,6.5,2.42-6.5h1.857v7.822H151.4V24.946h-.022l-2.6,6.768h-1.1l-2.6-6.768h-.022v6.768h-1.126Z" fill="#fff" fill-rule="evenodd"/>
      <path id="Fill-54" d="M154.6,23.892H159v.986h-3.276v2.285h2.982v.986h-2.982v2.578H159v.986h-4.4Z" fill="#fff" fill-rule="evenodd"/>
      <path id="Fill-55" d="M160.793,23.892h1.126v6.836h3.288v.986h-4.414Z" fill="#fff" fill-rule="evenodd"/>
      <path id="Fill-56" d="M166.489,23.892h1.126v3.272h3.759V23.892H172.5v7.822h-1.127V28.15h-3.759v3.564h-1.126Z" fill="#fff" fill-rule="evenodd"/>
      <path id="Fill-57" d="M177.938,23.757c2.386,0,3.782,1.726,3.782,4.045,0,2.376-1.384,4.045-3.782,4.045s-3.782-1.67-3.782-4.045c0-2.319,1.4-4.045,3.782-4.045m0,7.1c1.814,0,2.589-1.5,2.589-3.059,0-1.592-.856-3.071-2.589-3.059-1.734-.012-2.589,1.468-2.589,3.059,0,1.558.777,3.059,2.589,3.059" fill="#fff" fill-rule="evenodd"/>
      <path id="Fill-58" d="M183.252,23.892h1.925c1.553,0,3.051.247,3.051,2.119a1.824,1.824,0,0,1-1.621,1.78v.024c.348.134.518.3.765.784l1.486,3.115h-1.283L186.371,29c-.35-.762-.721-.762-1.319-.762h-.675v3.474h-1.126Zm1.126,3.362h.957c1.069,0,1.7-.471,1.7-1.221,0-.706-.541-1.155-1.575-1.155h-1.081Z" fill="#fff" fill-rule="evenodd"/>
    </g>
    <path id="Caminho_14" data-name="Caminho 14" d="M91.538,54c-.174-.08-.257-.129-.345-.158-.772-.265-1.545-.56-2.339-.781a9.583,9.583,0,0,1-3.7-2.088,49.479,49.479,0,0,1-3.916-3.854,35.424,35.424,0,0,0-3.755-3.656.621.621,0,0,1-.1-.149c.515-.282,1.014-.515,1.478-.817a5.567,5.567,0,0,0,2.832-4.617A5.377,5.377,0,0,0,79.187,32.8a9.97,9.97,0,0,0-1.66-.835,14.093,14.093,0,0,0-5.387-.871c-1.915,0-3.829.106-5.743.185-.956.04-1.91.129-2.865.2-.2.014-.386.061-.584.091a1.63,1.63,0,0,0,.028,1.158c.551,0,1.1-.013,1.657,0a1.572,1.572,0,0,1,1.74,1.667c.042.62.08,1.242.08,1.863q.01,5.975,0,11.951,0,1.436-.085,2.872a1.824,1.824,0,0,1-1.673,1.941,2.967,2.967,0,0,1-.452.031c-.336.008-.672.009-1.009.015-.184,0-.346.057-.355.272-.01.278,0,.557.008.823.595.107,10.555.086,10.941-.013a.5.5,0,0,0,.046-.129c.01-.151.015-.3.013-.453-.008-.453-.04-.489-.485-.5-.5-.01-1.012.023-1.512-.022A1.645,1.645,0,0,1,70.142,51.5a5.791,5.791,0,0,1-.079-.8q-.01-8.753-.009-17.5c0-.144.026-.29.04-.443a13.591,13.591,0,0,1,3.706,0,4.218,4.218,0,0,1,3.739,3.327,7.508,7.508,0,0,1-.024,3.546,3.981,3.981,0,0,1-2.751,3.022c-.386.129-.772.237-1.158.363s-.418.16-.288.543a3.556,3.556,0,0,0,.47.933,6.723,6.723,0,0,0,.772.8c.431.423.877.834,1.3,1.264,1.641,1.663,3.246,3.362,4.92,4.993a11.231,11.231,0,0,0,8.968,3.057A3.572,3.572,0,0,0,91.54,54M57.892,31.582H41.158c-.022.214-.048.394-.058.575-.027.494.023.515.515.582a14.287,14.287,0,0,1,1.779.311,1.515,1.515,0,0,1,1.178,1.416,13.436,13.436,0,0,1,.091,1.406c.008,2.941,0,5.882,0,8.824q.009,4.461.039,8.924a5.818,5.818,0,0,0,.058.586H59.075c.206-1.915.487-3.8.618-5.664-.1-.053-.129-.081-.156-.082-.2-.009-.4-.017-.6-.015-.543,0-.539.008-.656.534a7.691,7.691,0,0,1-.671,2.1,2.3,2.3,0,0,1-1.7,1.287,10.722,10.722,0,0,1-1.445.172c-1.416.024-2.824.017-4.236,0a5.95,5.95,0,0,1-.949-.107,1.05,1.05,0,0,1-.9-.9,4.634,4.634,0,0,1-.1-.9c-.009-2.218,0-4.437,0-6.655,0-.144.027-.288.041-.435a3.161,3.161,0,0,1,.345-.04c1.648.008,3.3.013,4.943.033a3.482,3.482,0,0,1,.794.122,1.325,1.325,0,0,1,1.03,1,8.448,8.448,0,0,1,.148.891c.037.257.063.521.1.81h1.184c.017-.207.042-.386.042-.566v-6.1a.933.933,0,0,0-.021-.349c-.045-.106-.151-.251-.239-.257a9.128,9.128,0,0,0-.946,0c-.048.283-.084.5-.118.709s-.059.467-.116.694a1.4,1.4,0,0,1-1.273,1.183,7.818,7.818,0,0,1-.85.084c-1.545.01-3.089.009-4.634.008a3.639,3.639,0,0,1-.427-.055v-2.85c0-.924-.009-1.848,0-2.773s-.05-1.865.041-2.832h4.742c.454,0,.909-.017,1.362.008,1.385.077,1.781.4,2.165,1.673a9.5,9.5,0,0,1,.206.983c.07.373.129.749.2,1.139h1.138a36.856,36.856,0,0,0-.233-5.463m-21.721.129c-.345.04-.61.062-.873.1a2.663,2.663,0,0,1-1.341-.05,12.7,12.7,0,0,0-2.738-.636,8.624,8.624,0,0,0-4.349.538,5.277,5.277,0,0,0-3.17,3.06,5.108,5.108,0,0,0,.94,5.244,11.6,11.6,0,0,0,1.906,1.859c.924.721,1.931,1.336,2.908,1.993,1.088.731,2.188,1.442,3.263,2.188a5.566,5.566,0,0,1,1.433,1.476,3.362,3.362,0,0,1-.987,4.842,5.572,5.572,0,0,1-4.688.651,5.492,5.492,0,0,1-3.406-2.658,18.582,18.582,0,0,1-.81-1.73c-.07-.154-.1-.34-.3-.358a1.681,1.681,0,0,0-.941.077l.772,5.572a2.06,2.06,0,0,0,1.093-.07.989.989,0,0,1,.682-.01c.547.161,1.1.305,1.649.454a10.555,10.555,0,0,0,5.178.248,7.049,7.049,0,0,0,4.9-3.551A4.993,4.993,0,0,0,37.93,48a6.46,6.46,0,0,0-1.972-4.038,17.711,17.711,0,0,0-2.183-1.78c-1.045-.732-2.162-1.361-3.218-2.083-.941-.644-1.843-1.346-2.746-2.045a3.4,3.4,0,0,1-.946-1.229,2.758,2.758,0,0,1,1.362-3.886,4.8,4.8,0,0,1,3.392-.241A5.714,5.714,0,0,1,35.4,36c.324.687.331.686,1.093.644a2.559,2.559,0,0,0,.306-.06l-.629-4.869M8.617,54.173c.609.1,9.816.075,10.2-.032a2.717,2.717,0,0,0,.045-.284,2.973,2.973,0,0,0,0-.4c-.026-.342-.076-.386-.44-.4-.4,0-.807.012-1.21-.006a1.533,1.533,0,0,1-1.416-.974,3.07,3.07,0,0,1-.224-.923c-.046-.467-.049-.94-.049-1.416q0-7.079.012-14.167c0-.319.012-.644.032-.958a1.821,1.821,0,0,1,2-1.905c.234.013.471.009.705.006.163,0,.328-.014.494-.023a1.658,1.658,0,0,0,0-1.115,1.378,1.378,0,0,0-.212-.035H8.87a.99.99,0,0,0-.2.035.1.1,0,0,0-.041.026c-.013.012-.022.026-.063.072-.008.129-.022.295-.026.461-.009.552.015.577.551.578H10a1.686,1.686,0,0,1,1.753,1.43,8.044,8.044,0,0,1,.129,1.545q.014,6.428,0,12.856c0,.772,0,1.545-.019,2.317a3.716,3.716,0,0,1-.121.844,1.687,1.687,0,0,1-1.635,1.327c-.218.014-.436.021-.655.018-.938-.012-.94-.149-.9.977a.553.553,0,0,0,.046.129" transform="translate(871.46 362.609)" fill="#fff"/>
  </g>
</svg>
