<svg xmlns="http://www.w3.org/2000/svg" xmlns:xlink="http://www.w3.org/1999/xlink" width="80" height="88.838" viewBox="0 0 80 88.838">
  <defs>
    <clipPath id="clip-path">
      <rect id="Retângulo_4" data-name="Retângulo 4" width="80" height="88.838" transform="translate(0 0)" fill="#fff"/>
    </clipPath>
  </defs>
  <g id="Grupo_11" data-name="Grupo 11" transform="translate(0 0.002)">
    <g id="Grupo_10" data-name="Grupo 10" transform="translate(0 -0.002)" clip-path="url(#clip-path)">
      <path id="Caminho_14" data-name="Caminho 14" d="M45.414,88.835c-.346-.058-.691-.124-1.038-.174a9.108,9.108,0,0,1-6.411-3.725A8.891,8.891,0,0,1,36.419,81c-.058-.384-.1-.771-.148-1.155a39.711,39.711,0,0,1-27.114-14.4A38.693,38.693,0,0,1,.065,42.232,39.027,39.027,0,0,1,7.252,17.043,39.063,39.063,0,0,1,27.608,1.975a39.977,39.977,0,0,1,45.6,60.28c-.064-.123-.114-.24-.182-.345a.476.476,0,0,1,.042-.571c.551-.9,1.112-1.8,1.615-2.729a38.341,38.341,0,0,0,4.081-11.78,39.353,39.353,0,0,0-20.6-41.745,38.548,38.548,0,0,0-10.408-3.66,39.9,39.9,0,0,0-4.06-.6A37.219,37.219,0,0,0,38.764.67,39.453,39.453,0,0,0,1.6,31.318,40.244,40.244,0,0,0,.722,42.639a38.527,38.527,0,0,0,4.95,16.627,39.282,39.282,0,0,0,17.8,16.458,37.234,37.234,0,0,0,9.142,2.924c1.319.243,2.658.376,3.988.555a2.651,2.651,0,0,0,.352.007h3.868c.033.249.069.464.088.68a4.3,4.3,0,0,0,3.426,4.066,4.8,4.8,0,0,0,5.191-1.6,4.581,4.581,0,0,0,.8-4.884,4.748,4.748,0,0,0-3.888-3.08,6.014,6.014,0,0,0-.935-.067q-3.312-.008-6.624,0h-.4l-.053-.055c-.008-.01-.022-.02-.023-.03-.01-.13-.025-.259-.025-.389q0-6.053.009-12.107a.646.646,0,0,1,.055-.152h.487q7.056,0,14.111.007a.749.749,0,0,0,.723-.39A9.744,9.744,0,0,1,60.4,56.753a10.012,10.012,0,1,1-7.989,12.04,9.092,9.092,0,0,1-.235-2.1c0-.142,0-.284,0-.464-.171-.018-.309-.046-.446-.046q-4.135,0-8.271,0c-.065,0-.131,0-.2,0-.189,0-.29.08-.289.282,0,.993,0,1.985,0,2.978,0,.245.048.274.365.276q1.254.007,2.509,0a8.743,8.743,0,0,1,3.971.907,9.241,9.241,0,0,1,5.341,7.135,9.467,9.467,0,0,1-7.62,10.816c-.359.065-.722.1-1.083.163-.114.018-.225.058-.338.088Zm-4.4-17.209h.505c1.333,0,2.666-.011,4,.009a10.489,10.489,0,0,1,1.556.136,7.468,7.468,0,0,1,6.133,8.238,7.209,7.209,0,0,1-2.8,5.031,7.324,7.324,0,0,1-6,1.5,7.038,7.038,0,0,1-5.643-4.484A6.814,6.814,0,0,1,38.3,80.2c-.016-.139,0-.326-.184-.344a3.062,3.062,0,0,0-1.154.036,1,1,0,0,0-.017.187c.044.349.078.7.141,1.047a7.884,7.884,0,0,0,2.591,4.754A9.033,9.033,0,0,0,47.5,87.92a8.791,8.791,0,0,0,7.084-7.784A8.478,8.478,0,0,0,52.667,73.7,8.614,8.614,0,0,0,46.1,70.391c-1.083-.043-2.168-.027-3.252-.039-.154,0-.308-.014-.516-.023,0-.414-.011-.8-.013-1.189s0-.784,0-1.175-.008-.81,0-1.215a5.271,5.271,0,0,1,.043-1.143c.624-.09,10.164-.057,10.471.039,0,.145,0,.3,0,.454a10.576,10.576,0,0,0,.154,2.3,9.365,9.365,0,1,0,7.439-10.983,9.263,9.263,0,0,0-6.268,4.375c-.332.533-.155.452-.825.453q-6.879,0-13.759,0h-.489c-.115.415-.111,11.04,0,11.419h.45c2.012,0,4.024-.008,6.036.006a6.939,6.939,0,0,1,1.319.137A5.552,5.552,0,0,1,48.785,83.9a5.551,5.551,0,0,1-4.392.749,4.877,4.877,0,0,1-3.984-3.843c-.072-.3-.122-.61-.187-.939H38.949a2.794,2.794,0,0,0,0,.3,6.17,6.17,0,0,0,1.43,3.376,6.72,6.72,0,0,0,7.06,2.247,6.821,6.821,0,0,0,4.995-8.168,6.916,6.916,0,0,0-6.743-5.336c-1.62,0-3.24,0-4.861,0-.15,0-.3-.016-.44-.024-.091-.6-.06-8.415.038-8.712h.494c4.325,0,8.65-.007,12.975.01a.882.882,0,0,0,.948-.567,8.052,8.052,0,1,1-.657,1.748c.038-.159.066-.321.1-.482-.514-.1-12.99-.069-13.272.026ZM62.095,59.178a7.458,7.458,0,1,0,7.459,7.473,7.436,7.436,0,0,0-7.459-7.473m8.671-.558c-.264-.24-.5-.463-.747-.676A11.421,11.421,0,0,0,64,55.142a11.842,11.842,0,0,0-11.4,4.533.711.711,0,0,1-.618.3q-7.369-.012-14.738-.006h-.5a.87.87,0,0,0-.1.587q0,4.192,0,8.385,0,3.174,0,6.347c0,.152-.014.3-.022.458A35.932,35.932,0,1,1,70.766,58.62m2.255-9.741c-.135-.062-.2-.1-.268-.123-.6-.206-1.2-.435-1.817-.607a7.445,7.445,0,0,1-2.873-1.622,38.442,38.442,0,0,1-3.042-2.994,27.52,27.52,0,0,0-2.917-2.84.482.482,0,0,1-.079-.116c.4-.219.788-.4,1.148-.635a4.325,4.325,0,0,0,2.2-3.587,4.177,4.177,0,0,0-1.948-3.941,7.746,7.746,0,0,0-1.29-.649,10.949,10.949,0,0,0-4.185-.677c-1.488,0-2.975.082-4.462.144-.743.031-1.484.1-2.226.152-.153.011-.3.047-.454.071a1.266,1.266,0,0,0,.022.9c.428,0,.858-.01,1.287,0a1.221,1.221,0,0,1,1.352,1.295c.033.482.062.965.062,1.447q.008,4.642,0,9.285,0,1.116-.066,2.231a1.417,1.417,0,0,1-1.3,1.508,2.306,2.306,0,0,1-.351.024c-.261.006-.522.007-.784.012-.143,0-.269.044-.276.211-.008.216,0,.433.006.639.462.083,8.2.067,8.5-.01a.389.389,0,0,0,.036-.1c.008-.117.012-.235.01-.352-.006-.352-.031-.38-.377-.387-.392-.008-.786.018-1.175-.017a1.278,1.278,0,0,1-1.356-1.2,4.5,4.5,0,0,1-.061-.622q-.008-6.8-.007-13.595c0-.112.02-.225.031-.344a10.559,10.559,0,0,1,2.879,0,3.277,3.277,0,0,1,2.905,2.585,5.833,5.833,0,0,1-.019,2.755,3.093,3.093,0,0,1-2.137,2.348c-.3.1-.6.184-.9.282s-.325.124-.224.422a2.763,2.763,0,0,0,.365.725,5.223,5.223,0,0,0,.6.62c.335.329.681.648,1.011.982,1.275,1.292,2.522,2.612,3.822,3.879a8.725,8.725,0,0,0,6.967,2.375,2.775,2.775,0,0,0,1.392-.47M46.881,31.465h-13c-.017.166-.037.306-.045.447-.021.384.018.4.4.452a11.1,11.1,0,0,1,1.382.242,1.177,1.177,0,0,1,.915,1.1,10.438,10.438,0,0,1,.071,1.092c.006,2.285,0,4.57,0,6.855q.007,3.466.03,6.933c0,.15.029.3.045.455H47.8c.16-1.488.378-2.951.48-4.4-.076-.041-.1-.063-.121-.064-.156-.007-.313-.013-.469-.012-.422,0-.419.006-.51.415a5.975,5.975,0,0,1-.521,1.634,1.789,1.789,0,0,1-1.323,1,8.33,8.33,0,0,1-1.123.134c-1.1.019-2.194.013-3.291,0a4.622,4.622,0,0,1-.737-.083.816.816,0,0,1-.7-.7,3.6,3.6,0,0,1-.078-.7c-.007-1.723,0-3.447,0-5.17,0-.112.021-.224.032-.338a2.456,2.456,0,0,1,.268-.031c1.28.006,2.56.01,3.84.026a2.705,2.705,0,0,1,.617.095,1.029,1.029,0,0,1,.8.774,6.566,6.566,0,0,1,.115.692c.029.2.049.405.076.629h.92c.013-.161.033-.3.033-.44q0-2.37,0-4.74a.725.725,0,0,0-.016-.271c-.035-.082-.117-.195-.186-.2a7.093,7.093,0,0,0-.735,0c-.037.22-.065.385-.092.551s-.046.363-.09.539A1.089,1.089,0,0,1,44,39.3a6.073,6.073,0,0,1-.66.065c-1.2.008-2.4.007-3.6.006a2.826,2.826,0,0,1-.332-.043V37.114c0-.718-.007-1.436,0-2.154s-.039-1.449.032-2.2h.432l3.252,0c.353,0,.706-.013,1.058.006,1.076.06,1.384.308,1.682,1.3a7.376,7.376,0,0,1,.16.764c.054.29.1.582.153.885h.884a28.633,28.633,0,0,0-.181-4.244m-16.875.1c-.268.031-.474.048-.678.079a2.069,2.069,0,0,1-1.042-.039,9.87,9.87,0,0,0-2.127-.494,6.7,6.7,0,0,0-3.379.418,4.1,4.1,0,0,0-2.463,2.377,3.968,3.968,0,0,0,.73,4.074,9.015,9.015,0,0,0,1.481,1.444c.718.56,1.5,1.038,2.259,1.548.845.568,1.7,1.12,2.535,1.7a4.324,4.324,0,0,1,1.113,1.147,2.612,2.612,0,0,1-.767,3.762,4.329,4.329,0,0,1-3.642.506,4.267,4.267,0,0,1-2.646-2.065,14.437,14.437,0,0,1-.629-1.344c-.054-.12-.076-.264-.235-.278a1.306,1.306,0,0,0-.731.06l.6,4.329a1.6,1.6,0,0,0,.849-.054.768.768,0,0,1,.53-.008c.425.125.854.237,1.281.353a8.2,8.2,0,0,0,4.023.193,5.476,5.476,0,0,0,3.806-2.759,3.879,3.879,0,0,0,.5-2.3,5.019,5.019,0,0,0-1.532-3.137A13.76,13.76,0,0,0,28.145,39.7c-.812-.569-1.68-1.057-2.5-1.618-.731-.5-1.432-1.046-2.133-1.589a2.641,2.641,0,0,1-.735-.955,2.143,2.143,0,0,1,1.058-3.019,3.725,3.725,0,0,1,2.635-.187A4.439,4.439,0,0,1,29.409,34.9c.252.534.257.533.849.5a1.988,1.988,0,0,0,.238-.047l-.489-3.783M8.6,49.016c.473.079,7.626.058,7.921-.025a2.111,2.111,0,0,0,.035-.221,2.31,2.31,0,0,0,0-.313c-.02-.266-.059-.3-.342-.307-.313,0-.627.009-.94-.005a1.191,1.191,0,0,1-1.1-.757A2.385,2.385,0,0,1,14,46.671c-.036-.363-.038-.73-.038-1.1q0-5.5.009-11.006c0-.248.009-.5.025-.744a1.415,1.415,0,0,1,1.556-1.48c.182.01.366.007.548.005.127,0,.255-.011.384-.018a1.288,1.288,0,0,0,0-.866,1.071,1.071,0,0,0-.165-.027q-3.762,0-7.523,0a.769.769,0,0,0-.153.027.078.078,0,0,0-.032.02c-.01.009-.017.02-.049.056-.006.1-.017.229-.02.358-.007.429.012.448.428.449.235,0,.47,0,.705,0a1.31,1.31,0,0,1,1.362,1.111,6.249,6.249,0,0,1,.1,1.2q.011,4.994,0,9.988c0,.6,0,1.2-.015,1.8a2.887,2.887,0,0,1-.094.656,1.311,1.311,0,0,1-1.27,1.031c-.169.011-.339.016-.509.014-.729-.009-.73-.116-.7.759a.43.43,0,0,0,.036.1M69.081,81.128a2.22,2.22,0,0,1-4.439-.045,2.22,2.22,0,0,1,4.439.045m-2.211-1.8a1.762,1.762,0,0,0-1.781,1.793,1.775,1.775,0,1,0,3.55-.032,1.751,1.751,0,0,0-1.769-1.761m-5.928.756c.1.095.2.186.3.285q1.233,1.287,2.463,2.576c.093.1.2.185.294.277l.089-.042c-.01-1.385.022-2.771-.022-4.167h-.433v.444c0,.757,0,1.514,0,2.272,0,.118.054.261-.107.37-.105-.1-.21-.2-.308-.3q-1.232-1.287-2.463-2.576c-.092-.1-.194-.183-.328-.309v4.328l.419-.025V80.131l.1-.048M58.01,78.951l1.959,4.276h-.481c-.126-.266-.27-.541-.389-.828a.359.359,0,0,0-.386-.252q-.744.014-1.488,0a.356.356,0,0,0-.389.249c-.07.182-.158.358-.24.535-.154.331-.154.33-.62.276l1.948-4.253.087,0m.009,1.016a5.321,5.321,0,0,0-.782,1.709,3.782,3.782,0,0,0,1.513-.038l-.731-1.671M70.776,78.9a1.126,1.126,0,0,0-1.027.665.92.92,0,0,0,.291,1.155,3.731,3.731,0,0,0,.577.325c.186.094.386.16.567.263a.776.776,0,0,1,.436.914.864.864,0,0,1-.729.67A.887.887,0,0,1,70,82.378c-.04-.08-.072-.164-.121-.276l-.344.09c-.018.056-.026.068-.025.08a1.252,1.252,0,0,0,1.1,1.05,1.333,1.333,0,0,0,1.394-.794,1.2,1.2,0,0,0-.41-1.494,6.977,6.977,0,0,0-.8-.395,2.345,2.345,0,0,1-.443-.241.527.527,0,0,1,0-.871,1.212,1.212,0,0,1,.5-.194c.314-.06.537.145.772.345l.314-.184a1.128,1.128,0,0,0-1.161-.59M56.133,66.762a6.05,6.05,0,1,1,6.358,5.89,6.023,6.023,0,0,1-6.358-5.89m6.059-5.546a5.4,5.4,0,1,0,5.393,5.413,5.392,5.392,0,0,0-5.393-5.413" transform="translate(-0.001 0.003)" fill="#fff"/>
    </g>
  </g>
</svg>
