<?xml version="1.0" encoding="UTF-8"?>
<svg width="152px" height="111px" viewBox="0 0 152 111" version="1.1" xmlns="http://www.w3.org/2000/svg" xmlns:xlink="http://www.w3.org/1999/xlink">
    <title>Group 33</title>
    <defs>
        <filter id="filter-1">
            <feColorMatrix in="SourceGraphic" type="matrix" values="0 0 0 0 1.000000 0 0 0 0 1.000000 0 0 0 0 1.000000 0 0 0 1.000000 0"></feColorMatrix>
        </filter>
        <polygon id="path-2" points="0.253916262 0.498937853 79.8711051 0.498937853 79.8711051 78.6492655 0.253916262 78.6492655"></polygon>
        <polygon id="path-4" points="0.24680678 0.611778531 13.1899932 0.611778531 13.1899932 13.740113 0.24680678 13.740113"></polygon>
    </defs>
    <g id="Desktop" stroke="none" stroke-width="1" fill="none" fill-rule="evenodd">
        <g id="Desktop-HD" transform="translate(-164.000000, -6258.000000)">
            <g id="Group-21" transform="translate(0.000000, 5473.000000)">
                <g id="Group-33" transform="translate(0.000000, 700.000000)" filter="url(#filter-1)">
                    <g transform="translate(164.000000, 85.000000)">
                        <g id="Group-3" transform="translate(1.717514, 0.359819)">
                            <mask id="mask-3" fill="white">
                                <use xlink:href="#path-2"></use>
                            </mask>
                            <g id="Clip-2"></g>
                            <path d="M40.7968,72.6371073 C34.6352181,72.6371073 28.4727774,70.8337175 23.2128904,67.5275028 C22.7620429,67.2269379 22.160913,67.0766554 21.5597831,67.0766554 C21.2592181,67.0766554 20.9586531,67.0766554 20.6580881,67.2269379 L7.73379435,71.1342825 L11.7914215,57.307435 C11.9408452,56.5560226 11.9408452,55.8046102 11.4908565,55.0531977 C9.08633672,50.2441582 7.73379435,44.9842712 7.73379435,39.5741017 C7.73379435,21.3890621 22.6117605,6.51023729 40.7968,6.51023729 C58.9818395,6.51023729 73.8598056,21.3890621 73.8598056,39.5741017 C73.8598056,57.7591412 58.9818395,72.6371073 40.7968,72.6371073 M61.8269017,6.6699661 C61.8097266,6.65880226 61.7925514,6.64677966 61.7753763,6.63647458 C61.0591729,6.17102825 60.3283706,5.7279096 59.5829695,5.30883616 C59.5829695,5.30540113 59.5838282,5.30282486 59.584687,5.29938983 C57.3656588,4.04388701 55.4248678,3.22978531 54.0302463,2.72655367 C54.0276701,2.736 54.024235,2.74372881 54.0216588,2.75317514 C49.8137492,1.25035028 45.4555571,0.498937853 40.7968,0.498937853 C19.3055458,0.498937853 1.72163616,18.0828475 1.72163616,39.5741017 C1.72163616,45.5854011 3.07417853,51.4464181 5.77926328,56.7063051 L0.369093785,74.7410621 C0.0685288136,75.7938983 0.369093785,76.9952994 1.12050621,77.7467119 C1.72163616,78.3478418 2.47304859,78.6492655 3.22446102,78.6492655 C3.52502599,78.6492655 3.82559096,78.6492655 4.12615593,78.4981243 L21.2592181,73.3885198 C27.2713763,76.8450169 33.8838056,78.6492655 40.7968,78.6492655 C58.9818395,78.6492655 74.3106531,66.1749605 78.669704,49.3424633 C78.6834441,49.3476158 78.6971842,49.3510508 78.7117831,49.3562034 C79.5104271,46.264678 79.7216814,43.1808814 79.7216814,43.1808814 C79.8711051,41.9786215 79.8711051,40.7763616 79.8711051,39.5741017 C79.8711051,25.7807458 72.6223367,13.7031864 61.8269017,6.6699661" id="Fill-1" fill="#040201" mask="url(#mask-3)"></path>
                        </g>
                        <path d="M54.5965107,32.1371797 L51.1795164,28.7201853 C50.7072,28.2487277 49.9429062,28.2487277 49.4705898,28.7201853 L41.7804203,36.4103548 L34.0902508,28.7201853 C33.6179345,28.2487277 32.8536407,28.2487277 32.3813243,28.7201853 L28.9643299,32.1371797 C28.4928723,32.609496 28.4928723,33.3737898 28.9643299,33.8461062 L36.6544994,41.5362757 L28.9643299,49.2264452 C28.4928723,49.6979028 28.4928723,50.4630554 28.9643299,50.9353718 L32.3813243,54.3523661 C32.8536407,54.8246825 33.6179345,54.8246825 34.0902508,54.3523661 L41.7804203,46.6621966 L49.4705898,54.3523661 C49.9429062,54.8246825 50.7072,54.8246825 51.1795164,54.3523661 L54.5965107,50.9353718 C55.0679684,50.4630554 55.0679684,49.6979028 54.5965107,49.2264452 L46.9072,41.5362757 L54.5965107,33.8461062 C55.0679684,33.3737898 55.0679684,32.609496 54.5965107,32.1371797" id="Fill-4" fill="#040201"></path>
                        <path d="M121.173198,43.1224 C121.173198,43.7896542 120.632181,44.3306712 119.964927,44.3306712 L109.089627,44.3315299 L109.089627,55.2059706 C109.089627,55.8740836 108.54861,56.4151006 107.880497,56.4151006 L103.048271,56.4151006 C102.381017,56.4151006 101.84,55.8740836 101.84,55.2059706 L101.84,44.3306712 L90.9638418,44.3306712 C90.2974463,44.3306712 89.7564294,43.7896542 89.7564294,43.1224 L89.7564294,38.290174 C89.7564294,37.6229198 90.2974463,37.0819028 90.9638418,37.0819028 L101.84,37.0819028 L101.84,26.2066034 C101.84,25.5384904 102.381017,24.9983322 103.048271,24.9983322 L107.880497,24.9983322 C108.54861,24.9983322 109.089627,25.5384904 109.089627,26.2066034 L109.089627,37.0819028 L119.964927,37.0819028 C120.632181,37.0819028 121.173198,37.6229198 121.173198,38.290174 L121.173198,43.1224 Z M124.34974,1.68908927 C116.447458,1.68908927 110.092655,4.15114576 105.396972,9.02115706 C100.654056,4.20782373 94.2022147,1.68908927 86.4991638,1.68908927 C80.2929266,1.68908927 74.3760904,4.20352994 69.8401356,8.76696497 C64.8344407,13.8044339 61.9893785,20.9484339 62.0351932,28.3440497 C62.0351932,61.0128859 102.008316,78.443078 103.709514,79.1695864 L105.006237,79.7234847 L106.306395,79.174739 C108.046237,78.4422192 148.894734,60.8522983 148.894734,28.3440497 C148.894734,13.6464226 137.88461,1.68908927 124.34974,1.68908927 L124.34974,1.68908927 Z" id="Fill-6" fill="#040201"></path>
                        <polygon id="Fill-8" fill="#009EE0" points="13.485148 109.948642 10.0887638 109.948642 10.0887638 102.713614 3.3956113 102.713614 3.3956113 109.948642 8.58757062e-05 109.948642 8.58757062e-05 93.1419073 3.3956113 93.1419073 3.3956113 99.9707435 10.0887638 99.9707435 10.0887638 93.1419073 13.485148 93.1419073"></polygon>
                        <path d="M23.8791141,104.276981 C23.7966734,104.259806 23.6695774,104.252077 23.497826,104.252077 L23.1045153,104.252077 C22.3986169,104.252077 21.7519729,104.29158 21.1663006,104.368868 C20.5797695,104.447015 20.0670915,104.64367 19.6282667,104.959693 C19.1894418,105.274856 18.9696,105.736868 18.9696,106.34315 C18.9696,106.835218 19.1645379,107.22767 19.5544136,107.51793 C19.9434305,107.809907 20.3968542,107.955037 20.913826,107.955037 C21.8902328,107.955037 22.6279051,107.594359 23.1285605,106.872145 C23.6283571,106.151647 23.8791141,105.28602 23.8791141,104.276981 M26.905374,109.948212 L24.0268203,109.948212 L23.9778712,108.078698 C23.5922893,108.742518 23.0529898,109.253478 22.3591141,109.610721 C21.6660972,109.967105 20.913826,110.145727 20.1023006,110.145727 C19.2736,110.145727 18.5333514,110.001455 17.8815548,109.714631 C17.2288994,109.427806 16.714504,108.990698 16.3366508,108.405026 C15.9596565,107.818495 15.7707299,107.106585 15.7707299,106.269297 C15.7707299,104.711512 16.382165,103.644936 17.6041763,103.071286 C18.8261876,102.496777 20.3152723,102.209953 22.0705718,102.209953 C22.3247638,102.209953 22.4887864,102.21167 22.5626395,102.215964 C22.6364927,102.219399 22.8005153,102.227986 23.0547073,102.240009 C23.3088994,102.25289 23.5673853,102.266631 23.830165,102.283806 C23.830165,101.357207 23.6043119,100.667625 23.1534644,100.215919 C22.7017582,99.7650712 22.0044475,99.5392181 21.0615322,99.5392181 C19.634278,99.5392181 18.3470011,99.9952181 17.1979842,100.905501 L17.0992271,98.1008 C18.4371706,97.5340203 19.8841763,97.2506305 21.4428203,97.2506305 C22.0250576,97.2506305 22.6038599,97.309026 23.1783684,97.4240994 C23.7520181,97.5383141 24.2827299,97.7289582 24.7713627,97.9960316 C25.2591367,98.2622463 25.6653288,98.616913 25.9890802,99.0600316 C26.3128316,99.5022915 26.5266621,100.008958 26.6288542,100.579173 C26.7319051,101.149388 26.7825718,101.827806 26.7825718,102.615286 C26.7825718,103.42767 26.785148,104.244348 26.7894418,105.063602 C26.7928768,105.884574 26.8014644,106.632551 26.813487,107.309252 C26.8263684,107.985953 26.8564249,108.866179 26.905374,109.948212" id="Fill-10" fill="#009EE0"></path>
                        <path d="M36.4020249,107.278423 L36.5128045,109.801451 C35.6926915,109.964615 34.9661831,110.047055 34.3349966,110.047055 C33.2770079,110.047055 32.4405785,109.852118 31.8248497,109.462242 C31.2099797,109.073225 30.7788836,108.519327 30.5332791,107.801406 C30.2868158,107.083485 30.1640136,106.204118 30.1640136,105.162445 L30.1640136,99.945496 L27.8144542,99.945496 L27.8144542,97.5461288 L30.2129627,97.5461288 L30.2129627,95.0119367 L33.4367367,93.9530893 L33.4367367,97.5461288 L36.2783638,97.5461288 L36.2783638,99.945496 L33.4367367,99.945496 L33.4367367,104.485745 C33.4367367,105.453564 33.5415051,106.189519 33.7510418,106.693609 C33.9597198,107.198558 34.4741153,107.451033 35.2942282,107.451033 C35.5982282,107.451033 35.9674938,107.393496 36.4020249,107.278423" id="Fill-12" fill="#009EE0"></path>
                        <path d="M45.935087,102.517559 C45.9179119,101.959367 45.818296,101.446689 45.6336633,100.979525 C45.4490305,100.511503 45.1656407,100.134508 44.7843525,99.8476836 C44.4030644,99.5608588 43.9298893,99.4165876 43.3631096,99.4165876 C42.7808723,99.4165876 42.2827932,99.5582825 41.8688723,99.8408136 C41.4540927,100.124203 41.134635,100.498621 40.9087819,100.966644 C40.6829288,101.433808 40.5463864,101.951638 40.4965785,102.517559 L45.935087,102.517559 Z M48.1249175,106.626712 L48.1738667,109.41939 C46.8530983,109.993898 45.4267028,110.280723 43.8929627,110.280723 C42.866748,110.280723 41.954748,110.134734 41.1552452,109.843616 C40.3548836,109.552497 39.6721718,109.12226 39.1062508,108.552045 C38.5403299,107.981831 38.1100927,107.293966 37.8146802,106.485017 C37.5192678,105.677785 37.3715616,104.756339 37.3715616,103.722395 C37.3715616,102.771751 37.5089627,101.895819 37.783765,101.096316 C38.0585672,100.295955 38.4544542,99.6029379 38.971426,99.0172655 C39.487539,98.4298757 40.1255955,97.9730169 40.8847367,97.6449718 C41.6430192,97.3169266 42.5017763,97.152904 43.4618667,97.152904 C44.3970531,97.152904 45.2214599,97.3203616 45.935087,97.6569944 C46.6487141,97.9936271 47.2283751,98.4564972 47.6757876,99.047322 C48.1232,99.6372881 48.4572565,100.320859 48.6788158,101.096316 C48.9003751,101.870915 49.0111548,102.721944 49.0111548,103.648542 C49.0111548,103.813424 49.006861,103.936226 48.9982734,104.017808 C48.9905446,104.100249 48.9819571,104.202441 48.9742282,104.325243 C48.9656407,104.448904 48.9536181,104.592316 48.9373017,104.756339 L40.5463864,104.756339 C40.6279684,105.740475 41.0118328,106.507345 41.6962621,107.056949 C42.3806915,107.607412 43.2325785,107.881356 44.2493469,107.881356 C45.3975051,107.881356 46.6890757,107.463141 48.1249175,106.626712 L48.1249175,106.626712 Z" id="Fill-14" fill="#009EE0"></path>
                        <path d="M54.2744768,109.948642 L51.0507028,109.948642 L51.0507028,101.225388 C51.0094825,99.1506305 50.9768497,97.8994215 50.9528045,97.4726192 L53.8811661,97.4726192 L53.9541605,100.62254 C54.2332565,99.6375458 54.6574825,98.8500655 55.2276972,98.2600994 C55.7979119,97.6692746 56.5424542,97.3738621 57.4613243,97.3738621 C57.7404203,97.3738621 58.0555842,97.4150825 58.4085333,97.4975232 L58.4085333,100.523783 C57.9817311,100.409568 57.6047367,100.351173 57.2766915,100.351173 C56.5132565,100.351173 55.906974,100.552981 55.4552678,100.95402 C55.0044203,101.356777 54.694409,101.871173 54.5269514,102.498924 C54.358635,103.126676 54.2744768,103.812823 54.2744768,104.559941 L54.2744768,104.805546 L54.2744768,109.948642 Z" id="Fill-16" fill="#009EE0"></path>
                        <path d="M59.2181695,109.613211 L59.3658757,106.88494 C60.5140339,107.475765 61.5720226,107.770319 62.5407006,107.770319 C63.0731299,107.770319 63.5780791,107.656963 64.0538305,107.426816 C64.5295819,107.197528 64.7674576,106.840285 64.7674576,106.357663 C64.7674576,105.940307 64.4265311,105.583923 63.7455367,105.288511 C63.0645424,104.993098 62.3826893,104.702838 61.6974011,104.416014 C61.012113,104.129189 60.4195706,103.72729 59.919774,103.212036 C59.4191186,102.695064 59.1692203,101.973708 59.1692203,101.047968 C59.1692203,100.163449 59.4294237,99.4386576 59.9506893,98.8735955 C60.471096,98.3085333 61.1331977,97.8963299 61.9378531,97.6387028 C62.7416497,97.3802169 63.5737853,97.2505446 64.4351186,97.2505446 C65.3454011,97.2505446 66.3707571,97.411991 67.5111864,97.7331661 L67.2776045,100.154861 C66.2762938,99.8345446 65.3943503,99.6748158 64.631774,99.6748158 C64.0735819,99.6748158 63.5574689,99.7692791 63.0817175,99.9582056 C62.6059661,100.146273 62.3680904,100.47346 62.3680904,100.940624 C62.3680904,101.342522 62.6935593,101.676579 63.3462147,101.941934 C63.9980113,102.209008 64.6832994,102.474364 65.4012203,102.741437 C66.1182825,103.007652 66.7331525,103.405256 67.2466893,103.933392 C67.7593672,104.461528 68.0152768,105.217234 68.0152768,106.200511 C68.0152768,107.093618 67.767096,107.839878 67.2707345,108.437573 C66.7743729,109.035268 66.1328814,109.474093 65.3454011,109.75233 C64.5579209,110.030567 63.7257853,110.169686 62.8481356,110.169686 C61.8468249,110.169686 60.6368362,109.985053 59.2181695,109.613211" id="Fill-18" fill="#009EE0"></path>
                        <path d="M73.7591593,100.97944 C74.3491254,100.97944 74.8884249,100.954536 75.3770576,100.905586 C75.8648316,100.855779 76.3062328,100.749293 76.6995435,100.58527 C77.0928542,100.422106 77.4148881,100.155033 77.6656452,99.7849085 C77.9155435,99.4165017 78.040922,98.9321627 78.040922,98.333609 C78.040922,97.5220836 77.8356791,96.9286825 77.4251932,96.5559819 C77.0155661,96.1824226 76.5252158,95.9522757 75.9550011,95.8672588 C75.3856452,95.7805243 74.6531254,95.7298576 73.7591593,95.7126825 L73.7591593,100.97944 Z M73.7591593,103.574603 L73.7591593,109.948298 L70.3627751,109.948298 L70.3627751,93.1415638 L74.9768768,93.1415638 C75.9283797,93.1415638 76.7879955,93.2154169 77.5540068,93.3631232 C78.3217356,93.5108294 79.0173288,93.798513 79.6399277,94.2244565 C80.2711141,94.675304 80.7683345,95.2575412 81.1298712,95.9711684 C81.4896904,96.6847955 81.6700294,97.4482305 81.6700294,98.2597559 C81.6700294,99.1949424 81.501713,100.007327 81.165939,100.69605 C80.8293062,101.385632 80.3707299,101.944682 79.7876339,102.375779 C79.2053966,102.806016 78.5201085,103.122038 77.7326282,103.322988 C76.945148,103.523937 76.1087186,103.624411 75.2233401,103.624411 C74.8867073,103.624411 74.3989333,103.608095 73.7591593,103.574603 L73.7591593,103.574603 Z" id="Fill-20" fill="#009EE0"></path>
                        <path d="M86.5034576,109.948642 L83.2796836,109.948642 L83.2796836,101.225388 C83.2384633,99.1506305 83.2058305,97.8994215 83.1809266,97.4726192 L86.1092881,97.4726192 L86.1831412,100.62254 C86.4613785,99.6375458 86.8864633,98.8500655 87.456678,98.2600994 C88.0260339,97.6692746 88.771435,97.3738621 89.6894463,97.3738621 C89.9685424,97.3738621 90.2837062,97.4150825 90.6366554,97.4975232 L90.6366554,100.523783 C90.2098531,100.409568 89.8328588,100.351173 89.5048136,100.351173 C88.7422373,100.351173 88.135096,100.552981 87.6842486,100.95402 C87.2334011,101.356777 86.9233898,101.871173 86.7550734,102.498924 C86.5876158,103.126676 86.5034576,103.812823 86.5034576,104.559941 L86.5034576,104.805546 L86.5034576,109.948642 Z" id="Fill-22" fill="#009EE0"></path>
                        <g id="Group-26" transform="translate(91.028249, 96.540610)">
                            <mask id="mask-5" fill="white">
                                <use xlink:href="#path-4"></use>
                            </mask>
                            <g id="Clip-25"></g>
                            <path d="M9.84341695,7.21304407 C9.84341695,6.54149605 9.73521356,5.88197062 9.51794802,5.2344678 C9.29982373,4.58782373 8.95374463,4.05539435 8.47799322,3.63803842 C8.00138305,3.22068249 7.41571073,3.01114576 6.7184,3.01114576 C6.05458079,3.01114576 5.48178983,3.2163887 5.00174463,3.62515706 C4.52255819,4.03564294 4.16789153,4.55690847 3.93774463,5.19152994 C3.70759774,5.82701017 3.59338305,6.46764294 3.59338305,7.11514576 C3.59338305,7.81073898 3.7024452,8.48314576 3.91971073,9.12893107 C4.13611751,9.7764339 4.48305537,10.3071458 4.95966554,10.7202079 C5.43455819,11.1341288 6.03740565,11.3410893 6.76734915,11.3410893 C7.28517966,11.3410893 7.7403209,11.2157107 8.13363164,10.9658124 C8.52694237,10.7167729 8.84725876,10.3973153 9.09286328,10.0082983 C9.33932655,9.61928136 9.52567684,9.1804565 9.65277288,8.69354124 C9.77986893,8.20576723 9.84341695,7.71284068 9.84341695,7.21304407 M13.1899932,7.28088588 C13.1899932,8.24011751 13.0345582,9.1203435 12.7228294,9.91984633 C12.4111006,10.7193492 11.9705582,11.4003435 11.3994847,11.9619706 C10.8292701,12.5244565 10.1474169,12.9607051 9.35134915,13.2732927 C8.55614011,13.5841627 7.66990282,13.7404565 6.69349605,13.7404565 C5.40621921,13.7404565 4.2743774,13.4605017 3.29797062,12.9031684 C2.32156384,12.345835 1.56929266,11.5583548 1.04029831,10.5415864 C0.511303955,9.52395932 0.24680678,8.37923616 0.24680678,7.10827571 C0.24680678,5.8364565 0.517315254,4.70890847 1.05919096,3.72477288 C1.60020791,2.74063729 2.36106667,1.97548475 3.34176723,1.43017401 C4.32075028,0.884863277 5.44743955,0.611778531 6.7184,0.611778531 C7.70339435,0.611778531 8.59478418,0.776659887 9.39514576,1.10470508 C10.1937898,1.43275028 10.8773605,1.89819661 11.4432814,2.50104407 C12.0083435,3.10389153 12.4411571,3.81064859 12.7408633,4.62303277 C13.0405695,5.43541695 13.1899932,6.32079548 13.1899932,7.28088588" id="Fill-24" fill="#009EE0" mask="url(#mask-5)"></path>
                        </g>
                        <path d="M109.961609,107.377351 L111.597541,107.377351 C112.56536,107.377351 113.383756,107.190142 114.052728,106.817442 C114.720841,106.443882 115.055756,105.814414 115.055756,104.928176 C115.055756,104.067702 114.747462,103.441668 114.131733,103.052651 C113.517722,102.662775 112.749993,102.467837 111.831982,102.467837 L109.961609,102.467837 L109.961609,107.377351 Z M109.961609,99.9456678 L111.573496,99.9456678 C112.401338,99.9456678 113.089202,99.7902328 113.633654,99.478504 C114.178965,99.1659164 114.45205,98.6326282 114.45205,97.8777808 C114.45205,97.0988881 114.197858,96.5484249 113.689473,96.2238147 C113.181089,95.9000633 112.512976,95.7377582 111.684276,95.7377582 L109.961609,95.7377582 L109.961609,99.9456678 Z M106.565225,109.94847 L106.565225,93.1417356 L111.92988,93.1417356 C113.59501,93.1417356 114.993067,93.4508881 116.125767,94.0709107 C117.257609,94.6900746 117.82353,95.7910011 117.82353,97.3745492 C117.82353,98.4565831 117.54701,99.3041763 116.993112,99.9156113 C116.439214,100.525329 115.616524,100.946979 114.525903,101.175408 C115.06692,101.233803 115.582174,101.371205 116.069948,101.58847 C116.558581,101.805736 116.978513,102.09256 117.331462,102.449803 C117.683553,102.806188 117.95492,103.220108 118.142988,103.692425 C118.331914,104.163882 118.426377,104.703182 118.426377,105.310323 C118.426377,105.826436 118.344795,106.327092 118.179914,106.811431 C118.015892,107.294911 117.770287,107.732018 117.442242,108.121035 C117.114197,108.510911 116.720027,108.841532 116.260592,109.112041 C115.629406,109.489035 114.970739,109.722617 114.28631,109.813645 C113.601021,109.902956 112.725948,109.94847 111.659372,109.94847 L106.565225,109.94847 Z" id="Fill-27" fill="#009EE0"></path>
                        <path d="M128.53807,102.517559 C128.520895,101.959367 128.421279,101.446689 128.235788,100.979525 C128.052014,100.511503 127.768624,100.134508 127.387336,99.8476836 C127.006047,99.5608588 126.532872,99.4165876 125.966951,99.4165876 C125.383855,99.4165876 124.885776,99.5582825 124.471855,99.8408136 C124.057076,100.124203 123.737618,100.498621 123.511765,100.966644 C123.286771,101.433808 123.149369,101.951638 123.099562,102.517559 L128.53807,102.517559 Z M130.727901,106.626712 L130.77685,109.41939 C129.456081,109.993898 128.028827,110.280723 126.495087,110.280723 C125.47059,110.280723 124.557731,110.134734 123.758228,109.843616 C122.957867,109.552497 122.275155,109.12226 121.709234,108.552045 C121.143313,107.981831 120.713076,107.293966 120.417663,106.485017 C120.122251,105.677785 119.974545,104.756339 119.974545,103.722395 C119.974545,102.771751 120.111087,101.895819 120.386748,101.096316 C120.66155,100.295955 121.057437,99.6029379 121.574409,99.0172655 C122.090522,98.4298757 122.728579,97.9730169 123.486861,97.6449718 C124.246002,97.3169266 125.105618,97.152904 126.06485,97.152904 C127.000036,97.152904 127.824443,97.3203616 128.53807,97.6569944 C129.251697,97.9936271 129.832217,98.4564972 130.278771,99.047322 C130.726183,99.6372881 131.061098,100.320859 131.281799,101.096316 C131.503358,101.870915 131.614138,102.721944 131.614138,103.648542 C131.614138,103.813424 131.609844,103.936226 131.601256,104.017808 C131.593528,104.100249 131.58494,104.202441 131.577211,104.325243 C131.568624,104.448904 131.556601,104.592316 131.540285,104.756339 L123.149369,104.756339 C123.230951,105.740475 123.614816,106.507345 124.299245,107.056949 C124.983675,107.607412 125.835562,107.881356 126.85233,107.881356 C128.000488,107.881356 129.292918,107.463141 130.727901,106.626712 L130.727901,106.626712 Z" id="Fill-29" fill="#009EE0"></path>
                        <path d="M136.631684,97.4723616 L136.705537,99.3676384 C137.107435,98.7106893 137.651028,98.1988701 138.335458,97.8296045 C139.020746,97.460339 139.760994,97.2757062 140.556203,97.2757062 C141.426124,97.2757062 142.145763,97.4543277 142.715977,97.8115706 C143.286192,98.1679548 143.743051,98.7278644 144.088271,99.4904407 C144.506486,98.7768136 145.061243,98.2297853 145.755119,97.8476384 C146.448136,97.4663503 147.212429,97.2757062 148.049718,97.2757062 C149.600633,97.2757062 150.64574,97.7660565 151.186757,98.7458983 C151.728633,99.7265989 152,101.049085 152,102.714215 L152,109.948384 L148.776226,109.948384 L148.776226,103.895006 L148.776226,103.402938 C148.776226,102.393898 148.658576,101.566056 148.424994,100.917695 C148.191412,100.270192 147.680452,99.9455819 146.892972,99.9455819 C145.261333,99.9455819 144.444655,101.35652 144.444655,104.178395 L144.444655,109.948384 L141.22174,109.948384 L141.22174,103.550644 L141.22174,102.665266 C141.22174,101.943051 141.081763,101.309288 140.802667,100.763977 C140.523571,100.217808 140.04009,99.9455819 139.350508,99.9455819 C138.456542,99.9455819 137.821062,100.325153 137.443209,101.083435 C137.066215,101.842576 136.878147,102.714215 136.878147,103.69835 L136.878147,109.948384 L133.654373,109.948384 L133.654373,100.524384 C133.654373,99.3839548 133.620881,98.3663277 133.555616,97.4723616 L136.631684,97.4723616 Z" id="Fill-31" fill="#009EE0"></path>
                    </g>
                </g>
            </g>
        </g>
    </g>
</svg>