<?xml version="1.0" encoding="UTF-8"?>
<svg width="216px" height="36px" viewBox="0 0 216 36" version="1.1" xmlns="http://www.w3.org/2000/svg" xmlns:xlink="http://www.w3.org/1999/xlink">
    <title>Logo ONU Habitat</title>
    <defs>
        <filter id="filter-1">
            <feColorMatrix in="SourceGraphic" type="matrix" values="0 0 0 0 1.000000 0 0 0 0 1.000000 0 0 0 0 1.000000 0 0 0 1.000000 0"></feColorMatrix>
        </filter>
        <polygon id="path-2" points="0.000190909091 0.272666667 20.1010091 0.272666667 20.1010091 21.5722 0.000190909091 21.5722"></polygon>
        <polygon id="path-4" points="0 36 216 36 216 0 0 0"></polygon>
    </defs>
    <g id="Desktop" stroke="none" stroke-width="1" fill="none" fill-rule="evenodd">
        <g id="Desktop-HD" transform="translate(-452.000000, -6324.000000)">
            <g id="Group-21" transform="translate(0.000000, 5473.000000)">
                <g id="Group-33" transform="translate(0.000000, 700.000000)">
                    <g id="Group-11" transform="translate(452.000000, 80.000000)">
                        <g id="Logo-ONU-Habitat" transform="translate(0.000000, 52.000000)" filter="url(#filter-1)">
                            <g transform="translate(0.000000, 19.000000)">
                                <g id="Group-3">
                                    <mask id="mask-3" fill="white">
                                        <use xlink:href="#path-2"></use>
                                    </mask>
                                    <g id="Clip-2"></g>
                                    <path d="M10.0496455,0.272283333 C16.4851909,0.272283333 20.1010091,4.63845 20.1010091,10.8637833 C20.1010091,17.0872 16.5443727,21.5722 10.0496455,21.5722 C3.4671,21.5722 0.000190909091,17.1753667 0.000190909091,10.8637833 C0.000190909091,4.54836667 3.52628182,0.272283333 10.0496455,0.272283333 M10.0496455,18.3253667 C14.2515545,18.3253667 15.8093727,14.5802 15.8093727,10.8637833 C15.8093727,7.23361667 14.1351,3.51528333 10.0496455,3.51528333 C5.9661,3.51528333 4.29182727,7.23361667 4.29182727,10.8637833 C4.29182727,14.5802 5.84773636,18.3253667 10.0496455,18.3253667" id="Fill-1" fill="#040201" mask="url(#mask-3)"></path>
                                </g>
                                <polygon id="Fill-4" fill="#040201" points="24 0 29.093842 0 36.9722662 15.7045518 37.0319221 15.7045518 37.0319221 0 41 0 41 21 35.9350238 21 28.0258094 5.29349344 27.9680779 5.29349344 27.9680779 21 24 21"></polygon>
                                <path d="M46,1 L50.1758805,1 L50.1758805,12.9192825 C50.1758805,16.4401025 51.3075345,18.7463165 54.4990311,18.7463165 C57.6905278,18.7463165 58.8241195,16.4401025 58.8241195,12.9192825 L58.8241195,1 L63,1 L63,14.1915439 C63,19.7245356 59.8395076,22 54.4990311,22 C49.1604924,22 46,19.7245356 46,14.1915439 L46,1 Z" id="Fill-6" fill="#040201"></path>
                                <polygon id="Fill-8" fill="#040201" points="98 0 102.249014 0 102.249014 8.48170902 110.749014 8.48170902 110.749014 0 115 0 115 21 110.749014 21 110.749014 11.7950293 102.249014 11.7950293 102.249014 21 98 21"></polygon>
                                <path d="M126.114341,0 L130.829457,0 L139,21 L134.379845,21 L132.589147,16.1854231 L124.145349,16.1854231 L122.327519,21 L118,21 L126.114341,0 Z M128.412791,4.21055571 L128.350775,4.21055571 L125.341085,12.877967 L131.424419,12.877967 L128.412791,4.21055571 Z" id="Fill-10" fill="#040201"></path>
                                <path d="M141,0 L148.470167,0 C151.224741,0 155.355609,0.779949735 155.355609,5.38341245 C155.355609,7.87964256 153.641209,9.62719911 151.101432,10.0767942 L151.101432,10.1373918 C154.009149,10.4091036 156,12.3364982 156,14.9226473 C156,20.2180955 151.163087,21 148.470167,21 L141,21 L141,0 Z M145.285998,8.48170902 L147.030231,8.48170902 C148.834129,8.48170902 151.06961,8.09271153 151.06961,5.92683608 C151.06961,3.48729405 148.897772,3.30745602 146.938743,3.30745602 L145.285998,3.30745602 L145.285998,8.48170902 Z M145.285998,17.6905892 L147.304694,17.6905892 C149.295545,17.6905892 151.71599,17.209718 151.71599,14.7721307 C151.71599,12.0315554 149.446698,11.6132365 147.304694,11.6132365 L145.285998,11.6132365 L145.285998,17.6905892 Z" id="Fill-12" fill="#040201"></path>
                                <mask id="mask-5" fill="white">
                                    <use xlink:href="#path-4"></use>
                                </mask>
                                <g id="Clip-15"></g>
                                <polygon id="Fill-14" fill="#040201" mask="url(#mask-5)" points="160 21 164 21 164 0 160 0"></polygon>
                                <polygon id="Fill-16" fill="#040201" mask="url(#mask-5)" points="171.927566 3.30910276 166 3.30910276 166 0 182 0 182 3.30910276 176.076284 3.30910276 176.076284 21 171.927566 21"></polygon>
                                <path d="M188.114341,0 L192.827519,0 L201,21 L196.377907,21 L194.587209,16.1854231 L186.143411,16.1854231 L184.325581,21 L180,21 L188.114341,0 Z M190.410853,4.21055571 L190.350775,4.21055571 L187.339147,12.877967 L193.420543,12.877967 L190.410853,4.21055571 Z" id="Fill-17" fill="#040201" mask="url(#mask-5)"></path>
                                <polygon id="Fill-18" fill="#040201" mask="url(#mask-5)" points="205.926354 3.30910276 200 3.30910276 200 0 216 0 216 3.30910276 210.073646 3.30910276 210.073646 21 205.926354 21"></polygon>
                                <path d="M80.7037944,1 C80.8173053,1.00383549 80.9269021,1.00383549 81.040413,1.00383549 C81.1950227,1.0249307 81.3378899,1.08246309 81.502285,1.09588731 C81.733221,1.11314703 82.0013416,1.09396956 82.2264064,1.14574871 C82.287076,1.16300843 82.3477456,1.18410364 82.4103723,1.20519885 C82.5062695,1.23012955 82.6060808,1.24930701 82.7039351,1.27615546 C82.7763472,1.30108616 82.8428881,1.3279346 82.911386,1.35094756 C83.1325366,1.41231544 83.3850006,1.39889121 83.5983228,1.47176557 C83.7607608,1.51970923 83.8684005,1.65395146 84.0249673,1.71148385 C84.2578604,1.79778243 84.5435947,1.79394693 84.7725736,1.88983425 C84.8684708,1.94353114 84.966325,1.99339254 85.0622222,2.04517169 C85.1913898,2.09886858 85.3205574,2.15448322 85.4516821,2.20434463 C85.5573646,2.2657125 85.6493476,2.35584658 85.7550302,2.41721446 C85.9311678,2.51885501 86.119048,2.59364711 86.2873573,2.71446512 C86.4497953,2.82952989 86.5496066,2.98870283 86.6905167,3.12486281 C86.8333839,3.25143406 86.9762511,3.37992306 87.1171612,3.50841205 C87.2522,3.65416077 87.3578826,3.80949821 87.4948786,3.96100016 C87.7003725,4.19112971 87.9195659,4.40016405 88.0917894,4.64371782 C88.2170428,4.82015047 88.2718412,5.01959607 88.3873092,5.19602873 C88.5008201,5.37246138 88.6613011,5.52971657 88.7904687,5.69656049 C88.84331,5.7675171 88.8707091,5.84422695 88.9157221,5.9171013 C88.9803059,6.02641284 89.0664176,6.1242179 89.1270872,6.23352943 L89.4363066,6.84145498 C89.536118,7.03131186 89.6613714,7.20966226 89.7279123,7.4148611 C89.8551228,7.7964926 89.8883932,8.20497254 89.9314491,8.6307122 C89.9490628,8.78988514 90.0019041,8.93946935 90,9.115902 C89.9960329,9.27123944 89.9725479,9.42274139 89.9412345,9.56657236 L89.8962216,9.75451149 C89.8981786,9.83122134 89.9020928,9.90984893 89.9040499,9.98655878 C89.8805649,10.1917576 89.859037,10.3969565 89.8355519,10.6040731 C89.8355519,10.6807829 89.8335948,10.763246 89.8316378,10.8418736 C89.8159811,10.884064 89.8042386,10.9281722 89.790539,10.9722803 C89.7650969,11.0643322 89.7474831,11.1621372 89.7376977,11.26186 C89.7083414,11.4977428 89.722041,11.7489676 89.6574572,11.9675906 C89.6007018,12.1632007 89.4597917,12.3031962 89.3775941,12.4853821 C89.3325811,12.6062001 89.2895253,12.7289359 89.2445123,12.8497539 C89.1994994,12.9724896 89.1251302,13.0722124 89.0605464,13.1834417 C89.0174905,13.2754935 88.9724776,13.3694631 88.9274646,13.4615149 C88.9039796,13.4998699 88.8726662,13.5458958 88.8354816,13.574662 C88.8041683,13.6034281 88.7708978,13.6321943 88.7376274,13.6609605 C88.7141424,13.7204107 88.6945715,13.7836963 88.6750007,13.8431464 C88.6241165,13.9620467 88.5517043,14.065605 88.475378,14.1729988 C88.2972833,14.4242235 88.0291627,14.6390111 87.8119263,14.8691407 C87.7297287,14.9611925 87.6573166,15.0609153 87.5907757,15.1606381 C87.5535911,15.2258415 87.5144494,15.2891271 87.4772648,15.3543304 C87.2913417,15.4981614 87.1073758,15.6419924 86.9214527,15.7858233 C86.8490406,15.8241783 86.7785855,15.8644509 86.7061734,15.9028059 C86.5515637,16.0159529 86.4791516,16.1789613 86.3382415,16.2959438 C86.1073055,16.4896362 85.8137427,16.5605928 85.5612788,16.7159303 C85.4144975,16.8079821 85.2755444,16.9537308 85.1131064,17.0208519 C84.827372,17.1416699 84.4868393,17.1608474 84.1756628,17.2356395 C84.0993365,17.2605702 84.0210531,17.2874186 83.9427697,17.3142671 C83.8899284,17.3353623 83.8410013,17.3583752 83.78816,17.3794705 C83.6707349,17.3986479 83.5493957,17.3698817 83.4260993,17.3794705 C83.2656184,17.3928947 83.118837,17.4542626 82.9661844,17.4926175 C82.8722443,17.5117949 82.7763472,17.5309724 82.6843642,17.5463144 C82.6197804,17.5539854 82.5532395,17.5597386 82.4866986,17.5674096 C82.4358144,17.5923403 82.379059,17.6134355 82.3301319,17.6402839 C82.2498914,17.6690501 82.1579084,17.6767211 82.0776679,17.7035696 C81.7508348,17.8186343 81.4063879,17.987396 81.0345417,17.9989025 C80.7840349,18.0065735 80.5570131,17.9739718 80.3534763,17.9030152 C80.2027807,17.851236 80.0657848,17.7783617 79.8974755,17.7630197 C79.7369946,17.761102 79.5784707,17.7591842 79.4179897,17.7572665 C79.3592772,17.7438422 79.3025217,17.7361713 79.2457663,17.7265825 C78.893491,17.6882276 78.5607866,17.6786389 78.2359105,17.6057645 C78.1400134,17.5846693 78.06173,17.5405611 77.9775753,17.5002885 C77.854279,17.4485093 77.7251114,17.4044012 77.5939867,17.3641285 C77.2691107,17.2682412 76.9285779,17.1934491 76.6174014,17.0707133 C76.4393067,17.0035922 76.2807829,16.9038694 76.1085594,16.8233241 C75.7151854,16.6334672 75.3315967,16.4551168 74.9617077,16.2173162 C74.7718705,16.0964982 74.6016041,15.9373253 74.4176382,15.8050008 C74.3197839,15.7436329 74.2199726,15.6803473 74.1240754,15.6189794 C73.8168131,15.4156983 73.5193363,15.1644736 73.2473015,14.8921536 C72.9948375,14.6332579 72.8519704,14.3245007 72.6190773,14.0560163 C72.4253259,13.8335577 72.2139607,13.6245234 72.0456514,13.3924761 C71.9693251,13.2889178 71.9321405,13.1719353 71.8675567,13.0664592 C71.8147154,12.9801606 71.736432,12.9053685 71.6933762,12.8171522 C71.5955219,12.6215421 71.5563802,12.3990835 71.4663543,12.2034734 C71.4174272,12.1037506 71.343058,12.025123 71.2941309,11.927318 C71.27456,11.8640323 71.2569463,11.8007467 71.2412896,11.7374611 C71.1904054,11.5840414 71.1219074,11.4402104 71.0945082,11.277202 C71.088637,11.1525485 71.0827657,11.027895 71.0768945,10.9013237 C71.0808086,10.8380381 71.0827657,10.7728347 71.0866799,10.7076314 C71.0749374,10.5772246 71.0181819,10.4468179 71.0044823,10.3106579 C70.9907827,10.136143 71.0123107,9.96929906 71.0181819,9.8005374 C71.0220961,9.65478869 71.0279674,9.50903997 71.0318815,9.36329126 C71.067109,9.18877635 71.1023366,9.01426145 71.1375641,8.8378288 C71.1571349,8.7841319 71.1767058,8.72851726 71.1982337,8.67482037 C71.2001908,8.58852179 71.2021479,8.49838772 71.2021479,8.41208914 C71.2138904,8.28168239 71.2412896,8.16278213 71.2765171,8.04388186 C71.3411009,7.8214233 71.4409122,7.61238896 71.5211527,7.39568364 C71.5524661,7.30363182 71.5876936,7.20774451 71.6190069,7.11377495 C71.6522774,7.0370651 71.7109899,6.97761496 71.736432,6.89515188 C71.7736166,6.7839226 71.7755737,6.64776261 71.7892733,6.52886235 C71.7971017,6.48475419 71.8068871,6.43872828 71.8147154,6.39462011 C71.8186296,6.32174576 71.8225438,6.2488714 71.8264579,6.17599704 C71.8636425,5.97846918 71.9869389,5.81354301 72.0476085,5.62368613 C72.0906644,5.49519714 72.0417373,5.38205011 72.0339089,5.2612321 C72.0202093,5.06945748 72.0906644,4.86042314 72.1846044,4.71659217 C72.2335316,4.63988232 72.311815,4.59002092 72.3803129,4.52865304 C72.4096692,4.48838037 72.4390255,4.4481077 72.4664247,4.40975278 C72.5192659,4.36948011 72.5721072,4.32920744 72.6249485,4.28701702 C72.728674,4.21030717 72.8108716,4.14318605 72.9282967,4.08948916 C73.1142197,4.00702607 73.3255849,3.97634213 73.4782375,3.84018215 C73.5937055,3.7385416 73.6700318,3.61580584 73.7933281,3.51608304 C73.8774828,3.44704418 73.9675087,3.37992306 74.06732,3.33389715 C74.137775,3.29745997 74.2101872,3.26485828 74.2825993,3.2322566 C74.3961102,3.1325338 74.5076641,3.03664648 74.6231321,2.93692368 C74.8560251,2.76624427 75.0967466,2.60515359 75.3492105,2.46132262 C75.4333652,2.41146122 75.5312194,2.3194094 75.6388591,2.3194094 C75.7601983,2.25612377 75.9011084,2.22543983 76.0283189,2.15831872 C76.2651262,2.03558296 76.4862768,1.87065678 76.7269982,1.76134525 C76.8228953,1.71723709 76.9285779,1.69614188 77.0342605,1.66545794 C77.1947414,1.61176104 77.3532653,1.56189964 77.5157033,1.51012049 C77.6820555,1.45258811 77.8229657,1.32218136 78.0206312,1.32218136 C78.0676012,1.29916841 78.1380563,1.28382644 78.1928547,1.28382644 C78.2496101,1.26081349 78.3259364,1.24738926 78.3924773,1.24738926 C78.4140053,1.24163602 78.4394474,1.23780053 78.4609753,1.23396504 C78.5040311,1.22629405 78.5490441,1.21862307 78.5901429,1.20903434 C78.6253704,1.20136335 78.6566838,1.19561011 78.6938684,1.18793913 C78.7153963,1.18410364 78.7388813,1.1783504 78.7604093,1.17451491 C78.8582635,1.14958421 78.9522036,1.12273576 79.0461436,1.09780506 C79.0891995,1.07862759 79.1439979,1.0747921 79.1987962,1.0747921 C79.2359809,1.06136788 79.2809938,1.06136788 79.3299209,1.06136788 C79.3671055,1.05753239 79.4042901,1.05561464 79.4395177,1.05369689 C79.4649598,1.05177915 79.4884448,1.04794366 79.5119298,1.04602591 C79.5588998,1.04219042 79.6058699,1.04027267 79.6528399,1.03835492 C79.6743678,1.03451943 79.6900245,1.03260169 79.7095954,1.02876619 C79.7683079,1.01342422 79.909218,1.08054534 79.9796731,1.09205182 C80.0520852,1.09396956 80.1264544,1.09588731 80.1988666,1.09780506 C80.2164803,1.09396956 80.2360512,1.09396956 80.2536649,1.09013407 C80.2849783,1.08629858 80.3182487,1.08054534 80.347605,1.0747921 C80.3750042,1.06903886 80.4024034,1.06520337 80.4258884,1.06136788 C80.4806868,1.03451943 80.5667985,1.02301295 80.6313823,1.02301295 C80.6489961,1.02109521 80.6646527,1.01725972 80.6803094,1.01534197 C80.6881377,1.00958873 80.694009,1.00575324 80.7037944,1 M82.4162436,3.24951631 C82.3046898,3.27828251 82.0130841,3.37992306 82.0209125,3.51800079 C82.0267837,3.5352605 82.032655,3.54868472 82.0365691,3.5601912 C82.1442088,3.69251569 82.2538056,3.82675793 82.3634023,3.95908242 C82.4553853,4.08181817 82.5043124,4.22373139 82.58651,4.35030264 C82.6432654,4.43468348 82.7137205,4.50947558 82.7685189,4.59577416 C82.8663731,4.78371329 82.9661844,4.97165242 83.0640386,5.16150929 C83.16385,5.32643547 83.3008459,5.47218418 83.4065285,5.6390281 C83.5435244,5.86340441 83.6805204,6.08394523 83.8194734,6.30832153 C83.8664434,6.3735249 83.9349414,6.42913955 83.9799543,6.49242517 C84.1091219,6.68419979 84.1834911,6.92583582 84.4007275,7.05624256 C84.457483,7.09076199 84.5396806,7.1367879 84.6160069,7.13103466 C84.7040757,7.12336368 84.7725736,7.06391354 84.8410716,7.02172313 C84.8880417,6.99295693 84.9389259,6.96419074 84.9858959,6.93926004 C85.1776902,6.79542907 85.5103946,6.4770832 85.7530731,6.4770832 C85.7804723,6.47132996 85.8078715,6.46557672 85.8333136,6.46174123 C86.2286447,6.33516998 86.6415896,6.95651976 86.559392,7.27486563 C86.5378641,7.35732872 86.4595807,7.43787406 86.3949969,7.49732419 C86.1562326,7.72553599 85.8783265,7.85786048 85.6219484,8.04388186 C85.543665,8.0994965 85.4418966,8.16086438 85.3988408,8.24716296 C85.3773128,8.28551788 85.3714416,8.33921478 85.381227,8.39099393 C85.4007979,8.50030546 85.4888667,8.61920573 85.543665,8.71892853 C85.6454335,8.92029188 85.751116,9.12165524 85.8548415,9.32110084 C85.9233395,9.40931717 85.9918375,9.4975335 86.0583783,9.58574982 C86.1601467,9.73533403 86.2619152,9.88875372 86.3656406,10.0383379 C86.4595807,10.1668269 86.5554779,10.2972337 86.6494179,10.4257227 C86.9018819,10.778588 87.0604057,11.1774792 87.2991701,11.53418 C87.3480972,11.5821236 87.3950672,11.631985 87.4420373,11.6799287 C87.4870502,11.7508853 87.5301061,11.8180064 87.5770761,11.8851275 C87.6162178,11.9330712 87.6886299,11.9963568 87.7571279,11.9695084 C87.8099692,11.9464954 87.8412826,11.8678678 87.8628105,11.8275952 C87.9117376,11.7240369 87.9567506,11.6243141 88.0037206,11.5245912 C88.035034,11.3730893 88.0643902,11.2196696 88.0937465,11.0681676 C88.1759441,10.740233 88.2189999,10.4084629 88.2600987,10.0613509 C88.2620558,9.86574077 88.2640129,9.6720484 88.26597,9.47835603 C88.2855408,9.25781522 88.3403392,9.04494539 88.3384332,8.81673359 C88.3344679,8.64605417 88.2835837,8.52907165 88.2307424,8.38907618 C88.1955149,8.29318887 88.2248712,8.17237086 88.2033432,8.06881256 C88.1876866,7.99210271 88.1407165,7.94224131 88.1172315,7.8712847 C88.0506906,7.69101656 88.0056777,7.51074841 87.9273943,7.340069 C87.7747417,7.0082989 87.5535911,6.70721275 87.3617968,6.39270237 C87.3383118,6.34092322 87.3148268,6.28722633 87.2913417,6.23544718 C87.2815563,6.19517451 87.2678567,6.15873733 87.2580713,6.11846466 C87.2208867,6.08586297 87.1837021,6.05134354 87.1465175,6.01682411 C87.0858478,5.95353848 87.0271353,5.89025286 86.9684228,5.82696723 C86.8255556,5.64861683 86.6826884,5.47218418 86.5378641,5.29575153 C86.4497953,5.18835774 86.328456,5.1078124 86.2325589,5.01000734 C86.1601467,4.92562651 86.0896917,4.84508117 86.0192366,4.76070033 C85.819614,4.55741924 85.5925922,4.39632855 85.3675274,4.23907336 C85.2775015,4.17386999 85.1894327,4.10483113 85.103321,4.03962776 C84.6786336,3.90155003 84.2578604,3.76539005 83.8390442,3.62923007 C83.7783746,3.61197035 83.7353187,3.56786219 83.6863916,3.53909599 C83.625722,3.5103298 83.5630953,3.47964586 83.5043827,3.45279741 C83.1932062,3.32430842 82.7880897,3.26102279 82.4162436,3.24951631 M80.3182487,3.25910505 C80.1049265,3.31471969 79.8465913,3.25910505 79.631312,3.30129546 C79.5452002,3.33389715 79.4610456,3.37033433 79.3749339,3.40293601 C79.1987962,3.47197488 79.008959,3.52375402 78.8093364,3.55443796 C78.7036538,3.56210895 78.594057,3.56977993 78.4864174,3.58128641 C78.4374903,3.58128641 78.3905202,3.58320416 78.3415931,3.5851219 C78.2985372,3.61964133 78.2593956,3.65032527 78.2182968,3.68484471 C78.1497988,3.7385416 78.0734725,3.78456751 77.9991033,3.82292243 C77.8268798,3.91113876 77.6311713,3.95716467 77.4667762,4.06072297 C77.3669649,4.14126831 77.2671536,4.2198959 77.1673423,4.2985235 C77.0968872,4.34454941 77.0146896,4.35605588 76.9481488,4.3982463 C76.8424662,4.48262713 76.7348265,4.56700797 76.6271869,4.64947105 C76.4197359,4.8048085 76.2024995,4.94863946 76.0028768,5.12123662 C75.8658809,5.24013689 75.7699837,5.38013236 75.6486445,5.49711488 C75.6036315,5.52971657 75.5586186,5.56040051 75.5136056,5.59491994 C75.4118372,5.66971204 75.313983,5.7675171 75.2317854,5.86532216 C75.1026178,6.01682411 74.9988923,6.17791479 74.9127806,6.3485942 C74.8481968,6.4770832 74.828626,6.60940769 74.7229434,6.71680148 C74.6016041,6.83953724 74.4802649,6.92583582 74.3334835,6.99871017 C74.251286,7.0370651 74.1612601,7.05048932 74.0927621,7.11761044 C73.9009678,7.29404309 73.8657403,7.61047122 73.7170018,7.81950555 C73.5682634,8.03045764 73.3099282,8.18195959 73.1514043,8.39099393 C73.098563,8.45811504 73.0652926,8.53674264 73.0320221,8.61537023 C72.844142,9.04494539 72.773687,9.52821743 72.7071461,10.0172427 C72.681704,10.1917576 72.658219,10.3662725 72.6347339,10.5427052 C72.6406052,10.6155795 72.6464765,10.6884539 72.6543048,10.7613283 C72.658219,11.1007693 72.7091032,11.390349 72.7834724,11.6914352 C72.8382708,11.9292357 72.8930691,12.1574475 72.9909234,12.3779883 C73.0868205,12.6023646 73.2551298,12.7519488 73.3882116,12.9571477 C73.4841087,13.1028964 73.5565209,13.2563161 73.6602464,13.3963116 C73.7170018,13.4730214 73.791371,13.5324715 73.8520407,13.6034281 C74.0105645,13.7894495 74.1690884,13.9735532 74.3589256,14.1480681 C74.6759734,14.4376478 75.0341199,14.6658596 75.3903093,14.8883181 C75.6310307,15.0417378 75.8717521,15.2028285 76.1359586,15.31214 C76.4843197,15.455971 76.8581229,15.5710358 77.2221406,15.6822651 C77.3982783,15.7110312 77.5685446,15.7455507 77.7446823,15.7781524 C78.2104684,15.8740397 78.6684263,15.9526673 79.1870537,15.9526673 C79.2575088,15.9200656 79.3945047,15.9200656 79.4747452,15.9200656 C79.4884448,15.9200656 79.5041015,15.9162301 79.5217152,15.9143123 C79.5510715,15.9085591 79.5784707,15.9047236 79.6058699,15.8989704 C79.7037241,15.849109 79.7898358,15.8644509 79.84072,15.7532217 C79.862248,15.6688408 79.8876901,15.58446 79.909218,15.5019969 C79.909218,15.1146122 79.9131322,14.7310629 79.9131322,14.3455959 C79.9131322,14.080947 79.9131322,13.8297222 79.8935613,13.5804152 C79.8837759,13.4615149 79.8876901,13.3330259 79.8524626,13.2217967 C79.8465913,13.196866 79.8250634,13.1776885 79.8035354,13.1623465 C79.6998099,13.0894722 79.1126845,13.1565933 78.9580748,13.166182 C78.8915339,13.1642643 78.8249931,13.1623465 78.754538,13.1623465 C78.6742975,13.1450868 78.6018854,13.1048141 78.5099024,13.0952254 C78.3220223,13.0779657 78.1674126,13.158511 77.9991033,13.1623465 C77.8503648,13.1642643 77.7035835,13.1086496 77.5470167,13.1182384 C77.4276345,13.1259093 77.3160807,13.1412513 77.2143123,13.181524 C77.0831876,13.2352209 76.977505,13.310013 76.8346378,13.3483679 C76.4667059,13.4480907 76.0439756,13.3598744 75.7836833,13.1259093 C75.6701724,13.0261865 75.5899319,12.8996153 75.5057773,12.7845505 C75.4509789,12.7078407 75.3942235,12.6311308 75.3355109,12.5563387 C75.2807125,12.4355207 75.3022405,12.2437461 75.360953,12.1305991 C75.3922664,12.0673134 75.452936,12.0289585 75.499906,11.9733439 C75.5781894,11.8736211 75.6388591,11.7643095 75.728885,11.67034 C75.8541384,11.5437687 75.9813489,11.4191152 76.1085594,11.292544 C76.1790144,11.141042 76.2494695,10.9895401 76.3199246,10.8361204 C76.3649375,10.7536573 76.4530063,10.6788652 76.492148,10.5906488 C76.5312897,10.5005148 76.5332468,10.3892855 76.5743456,10.2972337 C76.6369723,10.1495672 76.7406978,10.0249137 76.8111528,9.88108274 C76.862037,9.76218247 76.9129212,9.63944672 76.9618484,9.52054645 C77.0362176,9.39013971 77.1340718,9.26356846 77.1771277,9.115902 C77.1947414,9.0622051 77.1966985,9.00275497 77.1692993,8.95481132 C77.1458143,8.9126209 77.1105868,8.87426597 77.069488,8.84549978 C76.9501058,8.77070768 76.8013674,8.74385923 76.6800281,8.67098487 C76.4158217,8.51564743 76.1848857,8.2778469 76.0518039,8.01895116 C76.0263618,7.97100751 75.9872201,7.91155737 75.9930914,7.85786048 C75.9989627,7.7715619 76.0733319,7.6929343 76.1300873,7.62964868 C76.2240274,7.52033714 76.4099505,7.39951913 76.5626031,7.39951913 C76.5880452,7.39376589 76.6134873,7.3899304 76.6389294,7.38609491 C77.0362176,7.25952366 77.5959438,8.10524974 77.830794,7.90963963 C77.9266911,7.82717654 77.9560474,7.66416811 78.0108458,7.55485658 C78.1047859,7.39376589 78.1987259,7.23075746 78.292666,7.06774904 C78.3533356,6.95076652 78.4140053,6.833784 78.4746749,6.71871922 C78.615585,6.48858968 78.7564951,6.26037788 78.8974052,6.02833059 C78.9424181,5.9707982 78.9874311,5.91518356 79.0285299,5.86340441 C79.0833282,5.78094132 79.1028991,5.67162979 79.1576975,5.58724896 C79.2653371,5.43191151 79.4042901,5.29575153 79.494316,5.13466085 C79.5217152,5.07329297 79.5432432,5.01000734 79.5686853,4.95055721 C79.5941274,4.91412003 79.6234836,4.87576511 79.6508828,4.83741018 C79.6958958,4.76453583 79.7330804,4.68782598 79.770265,4.60728064 C79.8270205,4.45386094 79.8818188,4.2985235 79.9366172,4.14318605 C79.9855443,4.00319058 80.0520852,3.87278384 80.1186261,3.74045935 C80.1890811,3.59854613 80.3671758,3.50841205 80.4356738,3.36649883 C80.4787297,3.27252927 80.3965321,3.26102279 80.3182487,3.25910505 M80.625511,5.78477682 C80.4454592,5.84422695 80.3339054,5.9458675 80.1929953,6.08010973 C80.1440682,6.1242179 80.0990552,6.16449057 80.0501281,6.20668098 C80.0090293,6.26613112 79.9679306,6.3236635 79.9268318,6.38503138 C79.8720334,6.44448151 79.8152779,6.50584939 79.7624367,6.56913502 C79.7174237,6.63433839 79.6724108,6.69954176 79.6273978,6.76666288 C79.5804278,6.81077104 79.5354148,6.85487921 79.4825735,6.90090512 C79.4590885,6.96035525 79.4336464,7.02364087 79.4062472,7.08309101 C79.2809938,7.27678337 79.192925,7.48006447 79.0794141,7.68142783 C79.0422295,7.7466312 78.9776457,7.79265711 78.9463323,7.85977822 C78.9091477,7.95566554 78.8739202,8.05538834 78.8347785,8.15511114 C78.7936797,8.24716296 78.6547267,8.4312666 78.6899542,8.53674264 C78.7251817,8.64413643 78.9933023,8.71509304 79.0911566,8.7592012 C79.5784707,8.987413 80.0462139,9.23672001 80.6098544,9.32110084 C80.6861807,9.33260732 80.7488074,9.36329126 80.8368762,9.36329126 C80.856447,9.35945577 80.8740608,9.35945577 80.8936316,9.35753802 C80.9073312,9.35562027 80.924945,9.35178478 80.9406017,9.34986704 C80.9680009,9.34603154 80.9973571,9.34027831 81.0286705,9.33644281 C81.0521555,9.33068957 81.0775976,9.32493634 81.1049968,9.3191831 C81.1754519,9.27699268 81.2791773,9.22137804 81.2791773,9.12549073 C81.1519668,9.03919215 81.0071426,9.07946482 80.8447045,9.06987609 C80.4767726,9.04686313 80.3652188,8.96440005 80.1049265,8.74769472 C80.0520852,8.70550431 80.001201,8.66331389 79.9503168,8.62112347 C79.9287889,8.57317982 79.9072609,8.52715391 79.8876901,8.481128 C79.7780933,8.25866944 79.6606682,7.97867849 79.7624367,7.717865 C79.8035354,7.60855347 79.8994326,7.53184362 79.954231,7.43020307 C80.0051152,7.33431576 79.9992439,7.21158 80.0657848,7.12336368 C80.1479824,7.0121344 80.4591588,6.82803076 80.5883264,6.7800871 C80.6450819,6.76474513 80.7057515,6.74748542 80.7664211,6.7302257 C80.8212195,6.70721275 80.8642754,6.67269331 80.924945,6.66118684 C81.0717264,6.63625614 81.2654778,6.66502233 81.3907312,6.70721275 C81.4846712,6.73789669 81.6001392,6.79159358 81.7038647,6.79159358 L81.7038647,6.78200485 L81.7136502,6.78200485 C81.6745085,6.49817841 80.9347304,5.79436555 80.625511,5.78477682 M82.3125181,7.57978728 C82.2909902,7.72361824 82.3203464,7.88662667 82.3301319,8.02853989 C82.334046,8.07840129 82.3497027,8.12826269 82.3379602,8.1781241 C82.2968614,8.31428408 82.2538056,8.45236181 82.2127068,8.58852179 C82.171608,8.66714938 82.0854963,8.71125755 82.0639683,8.80139162 C82.0483117,8.8627595 82.0991959,8.88577245 82.1579084,8.88577245 C82.3653594,8.76111895 82.9583561,8.54824912 82.8194031,8.21264353 C82.7704759,8.08990777 82.6550079,8.01895116 82.58651,7.90772188 C82.5160549,7.7964926 82.4690849,7.60855347 82.3125181,7.57978728 M83.6805204,9.42657689 C83.4593698,9.51287546 83.2538759,9.64519995 83.0522961,9.76793571 C82.6921925,9.99039427 82.2577197,10.1879221 82.0385262,10.5657181 C81.9563287,10.7076314 81.9132728,11.0489902 81.895659,11.2254228 C81.8878307,11.3078859 81.8369465,11.5706172 81.8976161,11.6281495 C81.9113157,11.6377383 81.9289295,11.647327 81.9445862,11.6569157 C82.0248266,11.6933529 82.1324663,11.6799287 82.2342347,11.6837642 C82.4632136,11.6914352 82.6921925,11.6991062 82.9192144,11.7067771 C83.1012233,11.7144481 83.2773609,11.7566385 83.4671981,11.7700628 C83.7607608,11.7796515 84.0562806,11.7873225 84.3498433,11.7969112 C84.4594401,11.8084177 84.5690368,11.8218419 84.6786336,11.8333484 L84.6786336,11.8256774 C84.7901874,11.8007467 84.8997842,11.7432143 85.0230805,11.7432143 C85.0367801,11.7412966 85.058308,11.7393788 85.0759218,11.7336256 C85.1581193,11.6914352 85.2677161,11.6377383 85.2579307,11.5245912 C85.2501023,11.4478814 85.1757331,11.3711716 85.1405056,11.3078859 C84.9917671,11.035566 84.8175866,10.8342026 84.617964,10.5868133 C84.5122814,10.4333936 84.4046417,10.279974 84.2970021,10.1265543 C84.2324183,10.0383379 84.1560919,9.96354583 84.0856369,9.87916499 C84.0582377,9.83122134 84.0347527,9.78903092 84.0073535,9.74108726 C83.9623406,9.64903545 83.9016709,9.56081912 83.8312159,9.48027378 C83.7901171,9.43041238 83.7470612,9.43041238 83.6805204,9.42657689 M78.1850263,9.47068505 C78.1458846,9.48410927 78.1047859,9.493698 78.0715154,9.52054645 C78.016717,9.56657236 77.9834466,9.63944672 77.946262,9.70081459 C77.877764,9.80437289 77.8131802,9.90601344 77.7446823,10.0114895 C77.7055406,10.11313 77.668356,10.2186061 77.6292143,10.3202466 C77.5900726,10.3950387 77.5391884,10.4525711 77.4980896,10.5254455 C77.4413341,10.6290038 77.4100208,10.7459863 77.3532653,10.8476268 C77.2456256,11.0413192 77.1008014,11.2196696 76.9970759,11.4171975 C76.9657625,11.4804831 76.9266208,11.5399332 76.9129212,11.6089721 C76.8776937,11.7873225 76.9481488,11.8640323 77.1282006,11.8640323 C77.1751706,11.8582791 77.2240977,11.8582791 77.2710677,11.8544436 C77.3043382,11.8525259 77.3336945,11.8506081 77.3650078,11.8486904 C77.3884928,11.8448549 77.4119779,11.8429371 77.43742,11.8410194 C77.4706904,11.8371839 77.5059179,11.8371839 77.5391884,11.8333484 C77.5587592,11.8314306 77.576373,11.8275952 77.5939867,11.8256774 C77.6389997,11.8237597 77.6840126,11.8199242 77.7270685,11.8180064 C77.785781,11.8141709 77.8444936,11.8122532 77.9032061,11.8084177 C78.0695583,11.760474 78.3063656,11.8333484 78.4864174,11.8333484 C78.5177307,11.8275952 78.5510012,11.8237597 78.5803575,11.8180064 C78.6253704,11.8084177 78.6664692,11.8026645 78.707568,11.7949935 C78.8093364,11.7508853 79.0226586,11.8026645 79.1518262,11.8026645 C79.1792254,11.8007467 79.2124958,11.798829 79.2457663,11.7949935 C79.2594659,11.7930757 79.2770796,11.7892402 79.2927363,11.7873225 C79.3220926,11.7873225 79.355363,11.7815692 79.3866764,11.7815692 C79.4688739,11.7777337 79.5549857,11.775816 79.6391403,11.7719805 C79.6528399,11.7700628 79.6684966,11.7662273 79.6861103,11.7643095 C79.7135095,11.7508853 79.7409087,11.7336256 79.7683079,11.7163659 C79.838763,11.6434915 79.8191921,11.3539118 79.8191921,11.2407648 C79.8191921,11.0528257 79.8015783,10.8533801 79.7976642,10.6692764 C79.7957071,10.5407874 79.8152779,10.3816145 79.7683079,10.2684675 C79.7350375,10.1879221 79.6371832,10.120801 79.5647711,10.0728574 C79.4375606,9.98847653 79.2966505,9.90601344 79.1557404,9.84464556 C78.9991736,9.79286641 78.8406497,9.73725177 78.68604,9.68547262 C78.5177307,9.61451601 78.3787777,9.493698 78.1850263,9.47068505 M84.0249673,13.0856367 C83.9016709,13.1182384 83.7607608,13.1220738 83.6237649,13.1316626 C83.2597471,13.1604288 82.8546306,13.1431691 82.4808274,13.158511 C82.3594881,13.1642643 82.2283635,13.1470045 82.1168096,13.173853 C82.0776679,13.1853595 82.0404833,13.2141257 82.011127,13.2428919 C81.9582858,13.2965888 81.9328437,13.3694631 81.917187,13.438502 C81.8623886,13.6494541 81.8780453,13.9160208 81.8702169,14.1442326 C81.8604315,14.3340895 81.848689,14.5239463 81.8408607,14.7118855 C81.8349894,15.0187249 81.8506461,15.3217288 81.8702169,15.6055552 C81.8800024,15.7532217 81.8780453,15.962256 81.9758995,16.067732 C82.0894104,16.1885501 82.5043124,16.1770436 82.6980638,16.1770436 C82.7391626,16.1597839 82.7861326,16.1617016 82.8331026,16.1617016 C82.8624589,16.1559484 82.8937723,16.1521129 82.9211715,16.1463596 C83.003369,16.1195112 83.0875237,16.0964982 83.1736354,16.0696498 C83.3360734,16.0197884 83.4945973,15.9526673 83.6472499,15.8836284 C83.8703576,15.7723991 84.0934652,15.6573343 84.3165729,15.5441873 C84.4124701,15.4943259 84.5064101,15.440629 84.6062214,15.3888499 C84.6590627,15.3389885 84.711904,15.2852916 84.7686595,15.2315947 C84.850857,15.1491316 84.9584967,15.078175 85.0543939,15.0187249 C85.3440424,14.8327035 85.6532618,14.6907903 85.9096399,14.4491542 C86.0485929,14.3168297 86.119048,14.1346439 86.2325589,13.9850596 C86.2951856,13.9045143 86.5045937,13.5938394 86.4928512,13.5075408 C86.4869799,13.4595972 86.4458811,13.4404197 86.4008682,13.4327487 C85.7335023,13.3080952 85.0524368,13.2371386 84.3498433,13.173853 C84.2304612,13.1623465 84.1560919,13.0894722 84.0249673,13.0856367" id="Fill-19" fill="#040201" mask="url(#mask-5)"></path>
                                <path d="M77,22.7660455 C77.897034,21.4285714 80.61211,20 83.2832334,20 C85.9563547,20 88.8472414,21.5486542 90,20.7267081 C90,20.7267081 88.8252651,21.7453416 86.4658061,21.7453416 C84.1043492,21.7453416 83.2053174,20.5486542 81.5650838,20.5486542 C79.9288459,20.5486542 78.1907177,21.8819876 77.4694944,23 L77,22.7660455 Z" id="Fill-20" fill="#040201" mask="url(#mask-5)"></path>
                                <path d="M85,19.5381013 C85,19.5381013 85.8008214,19.0527884 86.2258727,18.1651767 C86.6447639,17.2775649 87.7494867,15.8663261 88.8501027,15 C88.8501027,15 87.6078029,18.9548744 86.3223819,19.1336739 C86.3223819,19.1336739 86.1232033,19.2550021 86.4825462,19.1954023 C86.8459959,19.1336739 88.4887064,18.5291613 89.0718686,18.4291188 C89.6529774,18.3269476 91.0780287,18.0076628 91.4579055,17.6223925 C91.7802875,17.2988506 92,17.3392933 92,17.3392933 C92,17.3392933 90.4147844,20 87.5687885,20 C87.5687885,20 86.1622177,19.8808003 85,19.5381013" id="Fill-21" fill="#040201" mask="url(#mask-5)"></path>
                                <path d="M89,18 C89,18 89.2756939,17.6020445 89.3300825,16.928441 C89.3825956,16.253012 89.8233308,14.6976999 91.0705176,13 C91.0705176,13 91.2524381,15.6816356 89.843961,17.3263965 C89.843961,17.3263965 89.7501875,17.5691858 89.9339835,17.3939394 C90.1196549,17.2223439 91.016129,16.2018985 92.9403601,14.9733479 C92.9403601,14.9733479 93.9456114,14.1938664 94,13.9346477 C94,13.9346477 93.2141785,17.7407813 89,18" id="Fill-22" fill="#040201" mask="url(#mask-5)"></path>
                                <path d="M91.0632645,15.9985608 C91.0632645,15.9985608 91.1919751,15.5071827 91.1919751,15.0907605 C91.1919751,14.6785026 91,13.2564211 91,12.6255415 C91,11.994662 91.0632645,10.809941 91.5999223,10 C91.5999223,10 91.5999223,10.7099997 91.7679006,11.0264806 C91.9380603,11.3408793 92.1278539,12.6068025 92.1278539,12.7629608 C92.1278539,12.9191191 92.0885863,13.9851598 91.7875344,14.5577402 C91.7875344,14.5577402 92.0013249,14.441142 92.2369307,14.026802 C92.4725366,13.612462 93.048462,12.842081 93.9210762,12.0342221 C94.795872,11.2242811 94.9834841,10.4747212 94.9834841,10.4747212 C94.9834841,10.4747212 95.1994561,11.8947207 94.0694207,13.3959225 C92.9415667,14.8950421 92.4725366,14.6368604 91.8529804,15.2490009 C91.8529804,15.2490009 91.150526,16.0381209 91.0632645,15.9985608" id="Fill-23" fill="#040201" mask="url(#mask-5)"></path>
                                <path d="M92.991768,13 C92.991768,13 92.9563747,12.1926428 92.816571,11.9351404 C92.678537,11.6795741 91.8503331,10.0842207 92.0237604,8.04549855 C92.0237604,8.04549855 92.1635641,7.91771539 92.4201657,8.70764763 C92.678537,9.49564376 93.0430883,9.73378509 93.1651953,10.5217812 C93.2855326,11.3136496 93.2855326,11.642788 93.2855326,11.642788 C93.2855326,11.642788 93.3722463,11.749274 93.3722463,11.660213 C93.3722463,11.5672798 93.4571903,10.5043562 93.8730619,9.53242982 C94.2889335,8.56050339 94.8410695,7.642788 94.7879795,7 C94.7879795,7 95.0304238,7.01936108 94.9968001,8.06485963 C94.9614068,9.11035818 94.7030355,10.9264279 92.991768,13" id="Fill-24" fill="#040201" mask="url(#mask-5)"></path>
                                <path d="M93.220937,9 C93.220937,9 92.9311741,8.28580402 92.7299017,8.0540201 C92.5268942,7.82035176 91.1197224,5.66080402 91,4.6790201 C91,4.6790201 91.1197224,4.60552764 91.2567958,4.85615578 C91.3903991,5.10678392 92.0670908,5.8209799 92.1885483,5.92839196 C92.3065356,6.03580402 93.0179294,6.84045226 93.0855986,7.69786432 C93.0855986,7.69786432 93.1532678,7.78454774 93.0179294,6.35615578 C92.8825911,4.92776382 93.4586466,4.00062814 92.9849624,3 C92.9849624,3 93.6460382,3.10552764 94,6.03580402 C94,6.03580402 93.9826489,7.07223618 93.4759977,8.34045226 C93.4759977,8.34045226 93.3059572,9 93.220937,9" id="Fill-25" fill="#040201" mask="url(#mask-5)"></path>
                                <path d="M92.8822526,6 C92.8822526,6 92.3668942,5.39205457 91.9488055,5.10714286 C91.5324232,4.82022472 90.2320819,3.35754414 90,2.21589085 C90,2.21589085 90.0836177,2.08948636 90.4982935,2.7094703 C90.8156997,3.18699839 91.1484642,2.95826645 92.1006826,4.32865169 C92.1006826,4.32865169 92.2320819,4.63162119 92.2986348,4.6135634 C92.3668942,4.5934992 92.2662116,4.28852327 92.2662116,4.28852327 C92.2662116,4.28852327 92.0819113,3.43378812 92.0648464,3.1288122 C92.0494881,2.8258427 91.6672355,1.20866774 91.5324232,1 C91.5324232,1 92.8156997,1.83667737 93,4.19221509 C93,4.19221509 92.9488055,5.90569823 92.8822526,6" id="Fill-26" fill="#040201" mask="url(#mask-5)"></path>
                                <path d="M91.9995226,4 C91.9995226,4 92.1092886,2.01359223 89,1 C89,1 90.0730182,2.86019417 90.8839421,3.29902913 C91.692626,3.74368932 91.9995226,4 91.9995226,4" id="Fill-27" fill="#040201" mask="url(#mask-5)"></path>
                                <path d="M85,22.7660455 C84.1028282,21.4285714 81.3893329,20 78.7158008,20 C76.0442668,20 73.1529358,21.5486542 72,20.7267081 C72,20.7267081 73.1729173,21.7453416 75.5347372,21.7453416 C77.8945589,21.7453416 78.7937289,20.5486542 80.4322164,20.5486542 C82.0727021,20.5486542 83.8071011,21.8819876 84.5324316,23 L85,22.7660455 Z" id="Fill-28" fill="#040201" mask="url(#mask-5)"></path>
                                <path d="M76,19.5381013 C76,19.5381013 75.1991786,19.0527884 74.7761807,18.1651767 C74.3552361,17.2775649 73.2525667,15.8663261 72.1498973,15 C72.1498973,15 73.3921971,18.9548744 74.6755647,19.1336739 C74.6755647,19.1336739 74.8767967,19.2550021 74.5154004,19.1954023 C74.1540041,19.1336739 72.5092402,18.5291613 71.9281314,18.4291188 C71.3449692,18.3269476 69.9219713,18.0076628 69.5400411,17.6223925 C69.2176591,17.2988506 69,17.3392933 69,17.3392933 C69,17.3392933 70.5852156,20 73.4332649,20 C73.4332649,20 74.8377823,19.8808003 76,19.5381013" id="Fill-29" fill="#040201" mask="url(#mask-5)"></path>
                                <path d="M73,18 C73,18 72.7243061,17.6020445 72.6717929,16.928441 C72.6174044,16.253012 72.1785446,14.6976999 70.9313578,13 C70.9313578,13 70.7456864,15.6816356 72.1579145,17.3263965 C72.1579145,17.3263965 72.2498125,17.5691858 72.0660165,17.3939394 C71.8822206,17.2223439 70.983871,16.2018985 69.0615154,14.9733479 C69.0615154,14.9733479 68.0543886,14.1938664 68,13.9346477 C68,13.9346477 68.7858215,17.7407813 73,18" id="Fill-30" fill="#040201" mask="url(#mask-5)"></path>
                                <path d="M70.9345889,15.9985608 C70.9345889,15.9985608 70.8059469,15.5071827 70.8059469,15.0907605 C70.8059469,14.6785026 71,13.2564211 71,12.6255415 C71,11.994662 70.9345889,10.809941 70.4025782,10 C70.4025782,10 70.4025782,10.7099997 70.2325092,11.0264806 C70.0602598,11.3408793 69.8727479,12.6068025 69.8727479,12.7629608 C69.8727479,12.9191191 69.9119946,13.9851598 70.2107055,14.5577402 C70.2107055,14.5577402 69.9970291,14.441142 69.7637293,14.026802 C69.5282492,13.612462 68.9548114,12.842081 68.0804824,12.0342221 C67.2083338,11.2242811 67.0164611,10.4747212 67.0164611,10.4747212 C67.0164611,10.4747212 66.8006043,11.8947207 67.9322171,13.3959225 C69.0594693,14.8950421 69.5282492,14.6368604 70.1452943,15.2490009 C70.1452943,15.2490009 70.8495544,16.0381209 70.9345889,15.9985608" id="Fill-31" fill="#040201" mask="url(#mask-5)"></path>
                                <path d="M69.009148,13 C69.009148,13 69.0445263,12.1926428 69.1807328,11.9351404 C69.3187081,11.6795741 70.1483292,10.0842207 69.9767445,8.04549855 C69.9767445,8.04549855 69.8370002,7.91771539 69.5787386,8.70764763 C69.3187081,9.49564376 68.9578495,9.73378509 68.8357944,10.5217812 C68.7155081,11.3136496 68.7155081,11.642788 68.7155081,11.642788 C68.7155081,11.642788 68.6288313,11.749274 68.6288313,11.660213 C68.6288313,11.5672798 68.5421545,10.5043562 68.1264595,9.53242982 C67.7125334,8.56050339 67.1606319,7.642788 67.2119305,7 C67.2119305,7 66.9695891,7.01936108 67.0031985,8.06485963 C67.0385768,9.11035818 67.2968384,10.9264279 69.009148,13" id="Fill-32" fill="#040201" mask="url(#mask-5)"></path>
                                <path d="M68.7807981,9 C68.7807981,9 69.070561,8.28580402 69.2718334,8.0540201 C69.4748409,7.82035176 70.8820127,5.66080402 71,4.6790201 C71,4.6790201 70.8820127,4.60552764 70.7466744,4.85615578 C70.611336,5.10678392 69.9329092,5.8209799 69.816657,5.92839196 C69.6969346,6.03580402 68.9838057,6.84045226 68.9178716,7.69786432 C68.9178716,7.69786432 68.8484673,7.78454774 68.9838057,6.35615578 C69.1208791,4.92776382 68.5430885,4.00062814 69.0185078,3 C69.0185078,3 68.3556969,3.10552764 68,6.03580402 C68,6.03580402 68.0190862,7.07223618 68.5274725,8.34045226 C68.5274725,8.34045226 68.6957779,9 68.7807981,9" id="Fill-33" fill="#040201" mask="url(#mask-5)"></path>
                                <path d="M69.1177474,6 C69.1177474,6 69.6331058,5.39205457 70.0494881,5.10714286 C70.4658703,4.82022472 71.7662116,3.35754414 72,2.21589085 C72,2.21589085 71.9146758,2.08948636 71.5,2.7094703 C71.1825939,3.18699839 70.8498294,2.95826645 69.8993174,4.32865169 C69.8993174,4.32865169 69.7662116,4.63162119 69.6996587,4.6135634 C69.6331058,4.5934992 69.7337884,4.28852327 69.7337884,4.28852327 C69.7337884,4.28852327 69.9163823,3.43378812 69.9334471,3.1288122 C69.9488055,2.8258427 70.3327645,1.20866774 70.4658703,1 C70.4658703,1 69.1808874,1.83667737 69,4.19221509 C69,4.19221509 69.0511945,5.90569823 69.1177474,6" id="Fill-34" fill="#040201" mask="url(#mask-5)"></path>
                                <path d="M70.0004515,4 C70.0004515,4 69.8928444,2.01359223 73,1 C73,1 71.9284124,2.86019417 71.1191172,3.29902913 C70.3075802,3.74368932 70.0004515,4 70.0004515,4" id="Fill-35" fill="#040201" mask="url(#mask-5)"></path>
                                <path d="M0,27 L2.46709853,27 C4.39618138,27 6,27.6456522 6,29.696087 C6,31.6917391 4.36754177,32.4019565 2.66962155,32.4019565 L1.34810774,32.4019565 L1.34810774,36 L0,36 L0,27 Z M1.34810774,31.2671739 L2.68189567,31.2671739 C3.51858166,31.2671739 4.57006478,30.8680435 4.57006478,29.6823913 C4.57006478,28.5476087 3.33037845,28.1347826 2.49369247,28.1347826 L1.34810774,28.1347826 L1.34810774,31.2671739 Z" id="Fill-36" fill="#040201" mask="url(#mask-5)"></path>
                                <path d="M11.5,27 C14.3394309,27 16,28.9199243 16,31.5 C16,34.1424968 14.3536585,36 11.5,36 C8.64634146,36 7,34.1424968 7,31.5 C7,28.9199243 8.66056911,27 11.5,27 M11.5,34.9029004 C13.6565041,34.9029004 14.5813008,33.2326608 14.5813008,31.5 C14.5813008,29.7295082 13.5630081,28.0838588 11.5,28.0970996 C9.43699187,28.0838588 8.41869919,29.7295082 8.41869919,31.5 C8.41869919,33.2326608 9.34349593,34.9029004 11.5,34.9029004" id="Fill-37" fill="#040201" mask="url(#mask-5)"></path>
                                <path d="M17,27 L19.0603291,27 C20.7239488,27 22.3254113,27.2836957 22.3254113,29.4378261 C22.3254113,30.5334783 21.5667276,31.3063043 20.5904936,31.4863043 L20.5904936,31.5136957 C20.9634369,31.6682609 21.1444241,31.8619565 21.4095064,32.4156522 L23,36 L21.6270567,36 L20.3382084,32.8793478 C19.9634369,32.0028261 19.5667276,32.0028261 18.9268739,32.0028261 L18.2047532,32.0028261 L18.2047532,36 L17,36 L17,27 Z M18.2047532,30.8680435 L19.2285192,30.8680435 C20.3729433,30.8680435 21.047532,30.326087 21.047532,29.4632609 C21.047532,28.6513043 20.4698355,28.1347826 19.3619744,28.1347826 L18.2047532,28.1347826 L18.2047532,30.8680435 Z" id="Fill-38" fill="#040201" mask="url(#mask-5)"></path>
                                <path d="M36,32.1846154 C36,34.6692308 34.7203247,36 32.5,36 C30.2777156,36 29,34.6692308 29,32.1846154 L29,27 L30.2914334,27 L30.2914334,32.0192308 C30.2914334,33.7173077 30.8342665,34.8846154 32.5,34.8846154 C34.1657335,34.8846154 34.7085666,33.7173077 34.7085666,32.0192308 L34.7085666,27 L36,27 L36,32.1846154 Z" id="Fill-39" fill="#040201" mask="url(#mask-5)"></path>
                                <polygon id="Fill-40" fill="#040201" mask="url(#mask-5)" points="38 27 40.1588878 27 43.0268123 34.4797826 45.8411122 27 48 27 48 36 46.6911619 36 46.6911619 28.2130435 46.6653426 28.2130435 43.6425025 36 42.3594836 36 39.3346574 28.2130435 39.3088381 28.2130435 39.3088381 36 38 36"></polygon>
                                <polygon id="Fill-41" fill="#040201" mask="url(#mask-5)" points="53 27 58 27 58 28.1347826 54.3476483 28.1347826 54.3476483 30.7643478 57.8384458 30.7643478 57.8384458 31.8991304 54.3476483 31.8991304 54.3476483 36 53 36"></polygon>
                                <path d="M67,32.1846154 C67,34.6692308 65.7222844,36 63.5,36 C61.2777156,36 60,34.6692308 60,32.1846154 L60,27 L61.2914334,27 L61.2914334,32.0192308 C61.2914334,33.7173077 61.8342665,34.8846154 63.5,34.8846154 C65.1657335,34.8846154 65.7085666,33.7173077 65.7085666,32.0192308 L65.7085666,27 L67,27 L67,32.1846154 Z" id="Fill-42" fill="#040201" mask="url(#mask-5)"></path>
                                <polygon id="Fill-43" fill="#040201" mask="url(#mask-5)" points="70.8445581 28.1347826 68 28.1347826 68 27 75 27 75 28.1347826 72.1554419 28.1347826 72.1554419 36 70.8445581 36"></polygon>
                                <path d="M84,32.1846154 C84,34.6692308 82.7222844,36 80.5,36 C78.2796753,36 77,34.6692308 77,32.1846154 L77,27 L78.2914334,27 L78.2914334,32.0192308 C78.2914334,33.7173077 78.8342665,34.8846154 80.5,34.8846154 C82.1657335,34.8846154 82.7085666,33.7173077 82.7085666,32.0192308 L82.7085666,27 L84,27 L84,32.1846154 Z" id="Fill-44" fill="#040201" mask="url(#mask-5)"></path>
                                <path d="M86,27 L88.0603291,27 C89.7221207,27 91.3254113,27.2836957 91.3254113,29.4378261 C91.3254113,30.5334783 90.5667276,31.3063043 89.5904936,31.4863043 L89.5904936,31.5136957 C89.9634369,31.6682609 90.1444241,31.8619565 90.4095064,32.4156522 L92,36 L90.6270567,36 L89.3382084,32.8793478 C88.9634369,32.0028261 88.5667276,32.0028261 87.9268739,32.0028261 L87.2047532,32.0028261 L87.2047532,36 L86,36 L86,27 Z M87.2047532,30.8680435 L88.2285192,30.8680435 C89.3729433,30.8680435 90.047532,30.326087 90.047532,29.4632609 C90.047532,28.6513043 89.4698355,28.1347826 88.3619744,28.1347826 L87.2047532,28.1347826 L87.2047532,30.8680435 Z" id="Fill-45" fill="#040201" mask="url(#mask-5)"></path>
                                <path d="M97.5,27 C100.339431,27 102,28.9199243 102,31.5 C102,34.1424968 100.353659,36 97.5,36 C94.6463415,36 93,34.1424968 93,31.5 C93,28.9199243 94.6605691,27 97.5,27 M97.5,34.9029004 C99.6565041,34.9029004 100.581301,33.2326608 100.581301,31.5 C100.581301,29.7295082 99.5630081,28.0838588 97.5,28.0970996 C95.4369919,28.0838588 94.4186992,29.7295082 94.4186992,31.5 C94.4186992,33.2326608 95.3434959,34.9029004 97.5,34.9029004" id="Fill-46" fill="#040201" mask="url(#mask-5)"></path>
                                <path d="M114,32.1846154 C114,34.6692308 112.722284,36 110.5,36 C108.277716,36 107,34.6692308 107,32.1846154 L107,27 L108.289474,27 L108.289474,32.0192308 C108.289474,33.7173077 108.832307,34.8846154 110.5,34.8846154 C112.163774,34.8846154 112.708567,33.7173077 112.708567,32.0192308 L112.708567,27 L114,27 L114,32.1846154 Z" id="Fill-47" fill="#040201" mask="url(#mask-5)"></path>
                                <path d="M117,27 L119.062157,27 C120.722121,27 122.325411,27.2836957 122.325411,29.4378261 C122.325411,30.5334783 121.566728,31.3063043 120.592322,31.4863043 L120.592322,31.5136957 C120.965265,31.6682609 121.146252,31.8619565 121.409506,32.4156522 L123,36 L121.627057,36 L120.338208,32.8793478 C119.963437,32.0028261 119.566728,32.0028261 118.928702,32.0028261 L118.204753,32.0028261 L118.204753,36 L117,36 L117,27 Z M118.204753,30.8680435 L119.230347,30.8680435 C120.374771,30.8680435 121.04936,30.326087 121.04936,29.4632609 C121.04936,28.6513043 120.469835,28.1347826 119.361974,28.1347826 L118.204753,28.1347826 L118.204753,30.8680435 Z" id="Fill-48" fill="#040201" mask="url(#mask-5)"></path>
                                <path d="M124,27 L126.507553,27 C128.433031,27 129.760322,27.6065217 129.760322,29.2695652 C129.760322,30.5080435 129.01712,31.1263043 127.848943,31.41 L127.848943,31.4354348 C129.109768,31.5391304 130,32.3393478 130,33.6013043 C130,35.5363043 128.354481,36 126.471299,36 L124,36 L124,27 Z M125.327291,30.8426087 L126.056395,30.8426087 C127.345418,30.8426087 128.433031,30.7271739 128.433031,29.3986957 C128.433031,28.3284783 127.490433,28.0565217 126.723061,28.0565217 L125.327291,28.0565217 L125.327291,30.8426087 Z M125.327291,34.9434783 L126.322256,34.9434783 C127.516616,34.9434783 128.592145,34.698913 128.592145,33.483913 C128.592145,32.0928261 127.331319,31.8991304 126.189325,31.8991304 L125.327291,31.8991304 L125.327291,34.9434783 Z" id="Fill-49" fill="#040201" mask="url(#mask-5)"></path>
                                <path d="M134.842609,27 L136.194565,27 L140,36 L138.595217,36 L137.679565,33.7284783 L133.269565,33.7284783 L132.353913,36 L131,36 L134.842609,27 Z M135.474565,28.2130435 L133.682391,32.6719565 L137.266739,32.6719565 L135.474565,28.2130435 Z" id="Fill-50" fill="#040201" mask="url(#mask-5)"></path>
                                <polygon id="Fill-51" fill="#040201" mask="url(#mask-5)" points="142 27 143.742222 27 147.691389 34.2469565 147.714722 34.2469565 147.714722 27 149 27 149 36 147.358889 36 143.308611 28.5965217 143.281389 28.5965217 143.281389 36 142 36"></polygon>
                                <path d="M154.501016,27 C157.337774,27 159,28.9199243 159,31.5 C159,34.1424968 157.351998,36 154.501016,36 C151.648002,36 150,34.1424968 150,31.5 C150,28.9199243 151.662226,27 154.501016,27 M154.501016,34.9029004 C156.657033,34.9029004 157.581621,33.2326608 157.581621,31.5 C157.581621,29.7295082 156.563558,28.0838588 154.501016,28.0970996 C152.436442,28.0838588 151.418379,29.7295082 151.418379,31.5 C151.418379,33.2326608 152.342967,34.9029004 154.501016,34.9029004" id="Fill-52" fill="#040201" mask="url(#mask-5)"></path>
                                <polygon id="Fill-53" fill="#040201" mask="url(#mask-5)" points="164 27 166.158888 27 169.026812 34.4797826 171.841112 27 174 27 174 36 172.691162 36 172.691162 28.2130435 172.665343 28.2130435 169.640516 36 168.359484 36 165.334657 28.2130435 165.308838 28.2130435 165.308838 36 164 36"></polygon>
                                <polygon id="Fill-54" fill="#040201" mask="url(#mask-5)" points="177 27 182 27 182 28.1347826 178.278619 28.1347826 178.278619 30.7643478 181.666279 30.7643478 181.666279 31.8991304 178.278619 31.8991304 178.278619 34.8652174 182 34.8652174 182 36 177 36"></polygon>
                                <polygon id="Fill-55" fill="#040201" mask="url(#mask-5)" points="184 27 185.275155 27 185.275155 34.8652174 189 34.8652174 189 36 184 36"></polygon>
                                <polygon id="Fill-56" fill="#040201" mask="url(#mask-5)" points="190 27 191.310511 27 191.310511 30.7643478 195.6875 30.7643478 195.6875 27 197 27 197 36 195.6875 36 195.6875 31.8991304 191.310511 31.8991304 191.310511 36 190 36"></polygon>
                                <path d="M203.5,27 C206.339431,27 208,28.9199243 208,31.5 C208,34.1424968 206.353659,36 203.5,36 C200.646341,36 199,34.1424968 199,31.5 C199,28.9199243 200.662602,27 203.5,27 M203.5,34.9029004 C205.658537,34.9029004 206.581301,33.2326608 206.581301,31.5 C206.581301,29.7295082 205.563008,28.0838588 203.5,28.0970996 C201.436992,28.0838588 200.418699,29.7295082 200.418699,31.5 C200.418699,33.2326608 201.343496,34.9029004 203.5,34.9029004" id="Fill-57" fill="#040201" mask="url(#mask-5)"></path>
                                <path d="M210,27 L212.060329,27 C213.722121,27 215.325411,27.2836957 215.325411,29.4378261 C215.325411,30.5334783 214.566728,31.3063043 213.590494,31.4863043 L213.590494,31.5136957 C213.963437,31.6682609 214.144424,31.8619565 214.409506,32.4156522 L216,36 L214.627057,36 L213.338208,32.8793478 C212.963437,32.0028261 212.566728,32.0028261 211.926874,32.0028261 L211.204753,32.0028261 L211.204753,36 L210,36 L210,27 Z M211.204753,30.8680435 L212.228519,30.8680435 C213.372943,30.8680435 214.047532,30.326087 214.047532,29.4632609 C214.047532,28.6513043 213.468007,28.1347826 212.361974,28.1347826 L211.204753,28.1347826 L211.204753,30.8680435 Z" id="Fill-58" fill="#040201" mask="url(#mask-5)"></path>
                            </g>
                        </g>
                    </g>
                </g>
            </g>
        </g>
    </g>
</svg>