<?xml version="1.0" standalone="no"?>
<!DOCTYPE svg PUBLIC "-//W3C//DTD SVG 1.1//EN" "http://www.w3.org/Graphics/SVG/1.1/DTD/svg11.dtd" >
<svg xmlns="http://www.w3.org/2000/svg" xmlns:xlink="http://www.w3.org/1999/xlink" version="1.1">
<metadata></metadata>
<defs>
<font id="bree_rgregular" horiz-adv-x="1095" >
<font-face units-per-em="2048" ascent="1475" descent="-573" />
<missing-glyph horiz-adv-x="430" />
<glyph unicode="ff" horiz-adv-x="1267" d="M131 -430v1515q0 60 7 107.5t30 99.5t62.5 86.5t109 57t164.5 22.5q72 0 159 -22t154 -52q91 74 252 74q67 0 149.5 -21t135.5 -51l-60 -163q-97 51 -194 51q-75 0 -108.5 -41.5t-33.5 -128.5v-74h304v-190h-304v-1270h-243v1270h-340v-1270h-244zM375 1030h340v55 q0 86 16 142q-110 47 -196 47t-123 -40t-37 -130v-74z" />
<glyph unicode="fi" horiz-adv-x="1075" d="M131 -430v1517q0 60 7 108t31 99.5t63.5 86t110 57t165.5 22.5t197.5 -28.5t175.5 -63.5l-60 -162q-158 70 -274 70q-88 0 -130 -40.5t-42 -129.5v-76h577v-1030h-243v840h-334v-1270h-244z" />
<glyph unicode="fl" horiz-adv-x="1243" d="M131 -430v1517q0 60 7 107.5t30 99.5t62.5 86.5t109 57t164.5 22.5q219 0 452 -84v-1040q0 -96 24.5 -135t86.5 -39q50 0 129 33l53 -164q-42 -27 -110 -44.5t-133 -17.5q-58 0 -103 10t-75.5 25.5t-52.5 41t-33.5 50t-18.5 60t-8.5 63t-1.5 66.5v555h-338v-1270h-244z M375 1030h338v211q-93 35 -178 35q-86 0 -123 -40t-37 -130v-76z" />
<glyph unicode="ffi" horiz-adv-x="1656" d="M131 -430v1538q0 60 7 107.5t30 99.5t62.5 86.5t109 57t164.5 22.5q73 0 161 -22.5t154 -53.5q96 76 271 76q95 0 197 -28.5t175 -63.5l-59 -162q-156 69 -275 69q-88 0 -130 -40.5t-42 -129.5v-96h578v-1030h-244v840h-334v-1270h-243v1270h-338v-1270h-244zM375 1030 h338v78q0 81 16 137q-100 51 -194 51q-86 0 -123 -40t-37 -130v-96z" />
<glyph unicode="ffl" horiz-adv-x="1826" d="M131 -430v1538q0 60 7 107.5t30 99.5t62.5 86.5t109 57t164.5 22.5q163 0 323 -76q64 40 129 58t158 18q79 0 194 -20.5t232 -61.5v-1063q0 -96 24.5 -135t86.5 -39q50 0 129 33l53 -164q-42 -27 -110.5 -44.5t-133.5 -17.5q-58 0 -103 10t-75.5 25.5t-52.5 41t-33.5 50 t-18.5 60t-8.5 63t-1.5 66.5v555h-338v-1270h-243v1270h-340v-1270h-244zM375 1030h340v78q0 82 18 137q-104 51 -198 51q-91 0 -125.5 -43.5t-34.5 -148.5v-74zM958 1030h338v232q-90 34 -178 34q-84 0 -122 -42.5t-38 -127.5v-96z" />
<glyph unicode="tt" horiz-adv-x="1347" d="M129 311v1112h244v-393h387v393h244v-393h276v-190h-276v-521q0 -89 33 -125t100 -36q68 0 139 43l61 -158q-46 -32 -117 -52t-143 -20q-52 0 -95 7.5t-74 18.5t-55 31t-39.5 37t-26.5 46t-16 47.5t-7.5 52.5t-3 50t-0.5 50v529h-387v-521q0 -89 33 -125t100 -36 q68 0 139 43l62 -158q-46 -32 -117.5 -52t-143.5 -20q-52 0 -95 7.5t-74 18.5t-55 31t-39.5 37t-26.5 46t-16 47.5t-7.5 52.5t-3 50t-0.5 50z" />
<glyph unicode="&#xd;" horiz-adv-x="450" />
<glyph unicode=" "  horiz-adv-x="430" />
<glyph unicode="&#x09;" horiz-adv-x="430" />
<glyph unicode="&#xa0;" horiz-adv-x="430" />
<glyph unicode="!" horiz-adv-x="546" d="M133 102q0 56 39 96t98 40q66 0 105 -38t39 -96t-38 -98.5t-100 -40.5q-67 0 -105 39t-38 98zM162 1083v244q0 42 26.5 69t85.5 27q117 0 117 -100v-240l-41 -714h-145z" />
<glyph unicode="&#x22;" horiz-adv-x="714" d="M115 1362h190l-20 -471h-150zM408 1362h190l-18 -471h-152z" />
<glyph unicode="#" horiz-adv-x="1093" d="M37 322v135h219l29 319h-209v135h219l31 328h149l-31 -328h226l30 328h150l-31 -328h207v-135h-217l-29 -319h207v-135h-219l-27 -322h-149l26 322h-225l-26 -322h-150l27 322h-207zM406 457h225l28 319h-225z" />
<glyph unicode="$" d="M59 147l93 183q56 -37 144 -70t175 -43v379q-67 21 -113.5 39.5t-97 50t-81 68t-50.5 91.5t-20 124q0 158 100 252.5t262 117.5v191h154v-189q117 -11 224 -63.5t179 -124.5l-133 -156q-144 117 -270 142v-346q47 -17 76 -28t73.5 -32t72.5 -40t61 -49t51.5 -63 t31.5 -77.5t13 -95.5q0 -172 -100.5 -268t-278.5 -117v-244h-154v239q-124 8 -240.5 48t-171.5 81zM346 985q0 -56 31.5 -90t93.5 -59v299q-125 -30 -125 -150zM625 215q69 15 107 61t38 117q0 110 -145 162v-340z" />
<glyph unicode="%" horiz-adv-x="1640" d="M70 971q0 180 88 277.5t237 97.5q147 0 231.5 -92t84.5 -275q0 -186 -85.5 -283.5t-240.5 -97.5q-154 0 -234.5 94.5t-80.5 278.5zM248 965q0 -226 139 -226q143 0 143 234q0 231 -139 231q-70 0 -106.5 -55.5t-36.5 -183.5zM438 55l598 1282l166 -69l-602 -1286z M934 344q0 179 88.5 277t237.5 98q146 0 230.5 -92t84.5 -275q0 -186 -85.5 -283.5t-240.5 -97.5q-154 0 -234.5 94.5t-80.5 278.5zM1112 338q0 -225 139 -225q144 0 144 233q0 232 -140 232q-70 0 -106.5 -56t-36.5 -184z" />
<glyph unicode="&#x26;" horiz-adv-x="1644" d="M123 549q0 114 34.5 217t99 184.5t167.5 129.5t231 48q145 0 233.5 -66t88.5 -185q0 -111 -68 -185q255 146 348 555l228 -67q-115 -470 -496 -623q-105 -42 -270 -67.5t-348 -28.5q13 -101 65 -168.5t123.5 -96t161.5 -28.5q80 0 148 22t126 68t99 124.5t59 184.5h379 v-186h-201q-152 -406 -626 -406q-132 0 -235.5 35t-167.5 90.5t-105.5 132.5t-57.5 154.5t-16 161.5zM365 629q188 8 280 55t92 150q0 41 -28.5 71.5t-87.5 30.5q-43 0 -83 -16.5t-76 -51t-62 -96t-35 -143.5z" />
<glyph unicode="'" horiz-adv-x="419" d="M115 1362h190l-20 -471h-150z" />
<glyph unicode="(" horiz-adv-x="649" d="M141 555q0 227 70.5 468.5t200.5 469.5l194 -90q-223 -441 -223 -838q0 -209 55.5 -409t165.5 -424l-192 -92q-271 460 -271 915z" />
<glyph unicode=")" horiz-adv-x="649" d="M43 -266q111 220 167 423.5t56 413.5q0 209 -55.5 409.5t-165.5 424.5l193 92q270 -459 270 -915q0 -227 -70 -469t-200 -469z" />
<glyph unicode="*" horiz-adv-x="843" d="M57 1290q33 84 150 39q50 -19 91 -61t56 -90q-53 -26 -117.5 -28t-91.5 11q-117 45 -88 129zM176 868q-68 59 14 154q35 41 88.5 64.5t104.5 21.5q7 -59 -11 -114.5t-44 -86.5q-84 -96 -152 -39zM336 1425q0 127 90 127q88 0 88 -127q0 -53 -26 -106t-66 -84 q-43 40 -64.5 94.5t-21.5 95.5zM461 1108q50 2 103.5 -21.5t88.5 -64.5q83 -95 15 -154q-68 -57 -152 39q-26 31 -44 86.5t-11 114.5zM489 1178q15 48 56 90t92 61q116 44 149 -39q29 -84 -88 -129q-27 -13 -91.5 -11t-117.5 28z" />
<glyph unicode="+" d="M127 545v200h315v330h209v-330h316v-200h-316v-328h-209v328h-315z" />
<glyph unicode="," horiz-adv-x="460" d="M49 -279q36 295 62 408q12 56 36.5 82.5t67.5 26.5q47 0 96.5 -28t77.5 -58l-211 -469z" />
<glyph unicode="-" horiz-adv-x="659" d="M61 496v188h537v-188h-537z" />
<glyph unicode="." horiz-adv-x="448" d="M82 109q0 61 38 100t101 39q68 0 107 -37.5t39 -99.5t-38 -102t-102 -40q-70 0 -107.5 38.5t-37.5 101.5z" />
<glyph unicode="/" horiz-adv-x="876" d="M16 -147l627 1693l213 -76l-631 -1695z" />
<glyph unicode="0" d="M72 664q0 343 128.5 512.5t356.5 169.5q465 0 465 -674q0 -357 -120.5 -524.5t-358.5 -167.5t-354.5 165t-116.5 519zM319 641q0 -130 15.5 -221.5t46.5 -144t71.5 -76t94.5 -23.5q42 0 76 13.5t63.5 48t49 89.5t31 141t11.5 200q0 136 -16 231t-47.5 148t-71 75.5 t-92.5 22.5q-56 0 -97 -25t-72 -81.5t-47 -156t-16 -241.5z" />
<glyph unicode="1" horiz-adv-x="929" d="M61 1071l402 248h217l-16 -195v-936h233v-188h-719v188h242v865l-268 -140z" />
<glyph unicode="2" horiz-adv-x="1050" d="M72 0v158l446 514q86 100 116 154.5t30 131.5q0 81 -48 124.5t-124 43.5q-127 0 -283 -145l-135 160q93 93 212.5 149t245.5 56q187 0 288.5 -99t101.5 -266q0 -190 -177 -389l-344 -393h580v-199h-909z" />
<glyph unicode="3" horiz-adv-x="1054" d="M59 1147q79 78 210.5 138.5t279.5 60.5q175 0 268.5 -89t93.5 -225q0 -188 -161 -301q87 -74 134.5 -165t47.5 -187q0 -79 -27.5 -149.5t-81 -128t-143.5 -91t-205 -33.5q-114 0 -228 31t-179 72l71 194q68 -38 160.5 -64t167.5 -26q99 0 158 48.5t59 129.5 q0 121 -119 240q-97 -41 -227 -65l-59 180q99 23 163.5 44t117.5 51.5t77.5 72.5t24.5 98q0 74 -42.5 113t-119.5 39q-71 0 -158 -40t-160 -104z" />
<glyph unicode="4" horiz-adv-x="1097" d="M61 317v170l406 863l195 -97l-351 -743h314v90l86 293h143v-383h182v-195h-184v-315h-246v317h-545z" />
<glyph unicode="5" horiz-adv-x="1038" d="M45 86l82 188q171 -94 322 -94q112 0 166.5 55t54.5 146q0 250 -516 250l88 688h673v-203h-493l-41 -309q87 -6 164 -23.5t147.5 -51t121 -80t80.5 -115t30 -152.5q0 -76 -26 -146t-79 -130t-146 -96t-214 -36q-114 0 -231 33.5t-183 75.5z" />
<glyph unicode="6" horiz-adv-x="1093" d="M111 565q0 119 19.5 222.5t67.5 204t122 176t191 130.5t267 76l47 -184q-198 -30 -316 -145t-142 -289q58 37 134.5 60.5t143.5 23.5q169 0 262.5 -106.5t93.5 -291.5q0 -134 -48 -237t-150.5 -165.5t-247.5 -62.5q-95 0 -170.5 29.5t-126 81t-84 126.5t-48.5 161.5 t-15 189.5zM352 586q-4 -125 14 -215.5t68 -147.5t129 -57q88 0 143.5 70.5t55.5 195.5q0 109 -47.5 171.5t-134.5 62.5q-54 0 -122.5 -25t-105.5 -55z" />
<glyph unicode="7" horiz-adv-x="956" d="M47 1116v203h881v-170q-84 -71 -152 -152.5t-114 -158t-79.5 -162.5t-52.5 -159t-30 -154t-14 -140t-3 -125v-98h-256v115q0 96 8.5 183.5t34 196t67 207t113 207.5t166.5 207h-569z" />
<glyph unicode="8" d="M104 326q0 67 23.5 128.5t63 107.5t78 78.5t81.5 57.5q-203 127 -203 306q0 148 112 245t296 97q101 0 177.5 -26t120.5 -70.5t65.5 -98t21.5 -113.5q0 -94 -51 -173t-139 -154q245 -144 245 -357q0 -77 -27 -143.5t-80.5 -119.5t-143 -83.5t-205.5 -30.5 q-120 0 -208.5 31.5t-136 84t-69 110.5t-21.5 123zM340 342q0 -74 51.5 -126t147.5 -52q94 0 146 49t52 135q0 43 -19.5 82.5t-53.5 70.5t-68 53.5t-74 41.5q-182 -99 -182 -254zM381 1018q0 -124 184 -219q62 43 107 103.5t45 123.5q0 67 -47 106t-123 39q-70 0 -118 -44 t-48 -109z" />
<glyph unicode="9" d="M102 881q0 133 49.5 236.5t153 166t248.5 62.5q118 0 204.5 -44.5t136.5 -126t73.5 -185t23.5 -232.5q0 -703 -665 -783l-50 191q209 36 324.5 132t138.5 263q-119 -78 -282 -78q-169 0 -262 106.5t-93 291.5zM342 889q0 -107 46.5 -167t133.5 -60q56 0 125 22.5 t105 52.5q2 92 -7.5 165.5t-33 131.5t-66 89.5t-100.5 31.5q-93 0 -148 -69.5t-55 -196.5z" />
<glyph unicode=":" horiz-adv-x="448" d="M82 109q0 61 38 100t101 39q68 0 107 -37.5t39 -99.5t-38 -102t-102 -40q-70 0 -107.5 38.5t-37.5 101.5zM82 877q0 61 38 100t101 39q68 0 107 -37.5t39 -99.5t-38 -102t-102 -40q-70 0 -107.5 38.5t-37.5 101.5z" />
<glyph unicode=";" horiz-adv-x="460" d="M49 -279q36 295 62 408q12 56 36.5 82.5t67.5 26.5q47 0 96.5 -28t77.5 -58l-211 -469zM111 877q0 61 38 100t101 39q68 0 106.5 -37.5t38.5 -99.5t-37.5 -102t-101.5 -40q-70 0 -107.5 38.5t-37.5 101.5z" />
<glyph unicode="&#x3c;" d="M139 573v160l750 367l82 -182l-559 -259l563 -270l-86 -184z" />
<glyph unicode="=" d="M133 332v198h830v-198h-830zM133 725v197h830v-197h-830z" />
<glyph unicode="&#x3e;" d="M139 389l563 270l-559 259l82 182l750 -367v-160l-750 -368z" />
<glyph unicode="?" horiz-adv-x="784" d="M63 1364q162 59 293 59q178 0 262 -83t84 -226q0 -55 -12 -102t-29.5 -80.5t-49 -68t-58.5 -57t-70 -54.5q-44 -31 -62 -46.5t-32 -44t-14 -67.5v-225h-189q-14 143 -14 215q0 115 33 177.5t125 129.5q7 5 27 20t27 21t23 20t22.5 22.5t17 24t15 29t8 32t3.5 38.5 q0 64 -37 98.5t-96 34.5q-88 0 -236 -55zM135 102q0 56 39 96t98 40q66 0 105 -38t39 -96t-37.5 -98.5t-99.5 -40.5q-67 0 -105.5 39t-38.5 98z" />
<glyph unicode="@" horiz-adv-x="1951" d="M137 434q0 213 69 384t190.5 281.5t284.5 169t355 58.5q172 0 314 -48.5t245 -140.5t160 -233t57 -317q0 -286 -139.5 -436t-369.5 -152h-117l-17 111l-6 2q-80 -119 -241 -119q-75 0 -133.5 22.5t-95.5 60.5t-61.5 92.5t-34 114t-9.5 128.5q0 237 115 368t329 131 q55 0 140 -14.5t167 -44.5v-600l9 -109q286 18 286 439q0 131 -37 237t-110 184.5t-191 121t-272 42.5q-170 0 -304 -55.5t-219.5 -153.5t-130 -229.5t-44.5 -286.5q0 -200 70.5 -353t211.5 -241t336 -88q182 0 324 64l51 -150q-159 -69 -381 -69q-165 0 -300.5 45 t-227 122.5t-154 184t-91 226t-28.5 251.5zM788 418q0 -55 8.5 -100.5t27.5 -86t56 -63.5t89 -23q48 0 82 17t52 46.5t26 62.5t8 71v397q-53 23 -117 23q-56 -1 -98.5 -21t-67.5 -51.5t-40.5 -78t-20.5 -92t-5 -101.5z" />
<glyph unicode="A" horiz-adv-x="1280" d="M25 0l471 1362h278l481 -1362h-266l-123 360h-479l-121 -360h-241zM436 549h381l-184 584h-6z" />
<glyph unicode="B" horiz-adv-x="1187" d="M143 0v1362h461q443 0 443 -342q0 -97 -50.5 -169.5t-138.5 -117.5q120 -30 189 -112t69 -213q0 -199 -134.5 -303.5t-389.5 -104.5h-449zM393 193h193q266 0 266 217q0 102 -67 156.5t-189 54.5h-203v-428zM393 803h152q126 0 187 51.5t61 138.5q0 53 -17 90t-50.5 56 t-73 27t-93.5 8h-166v-371z" />
<glyph unicode="C" horiz-adv-x="1208" d="M92 674q0 155 37 279t97 203.5t142 132.5t167 75t176 22q132 0 254 -60t213 -193l-179 -129q-67 86 -139.5 129t-161.5 43q-160 0 -255 -128.5t-95 -357.5q0 -241 91 -374.5t274 -133.5q159 0 319 144l129 -164q-199 -187 -463 -187q-285 0 -445.5 178t-160.5 521z" />
<glyph unicode="D" horiz-adv-x="1318" d="M143 0v1362h445q301 0 470 -160t169 -473q0 -156 -34 -281.5t-92 -208t-139 -137t-171.5 -78.5t-192.5 -24h-455zM393 197h209q175 0 274 126.5t99 368.5q0 108 -20.5 190.5t-56 135t-87.5 85.5t-109 46.5t-127 13.5h-182v-966z" />
<glyph unicode="E" horiz-adv-x="1042" d="M143 0v1362h822v-217h-572v-342h490v-217h-490v-369h586v-217h-836z" />
<glyph unicode="F" horiz-adv-x="1058" d="M143 0v1362h873v-217h-623v-350h516v-217h-516v-578h-250z" />
<glyph unicode="G" horiz-adv-x="1288" d="M92 678q0 153 35.5 276.5t94 202.5t137.5 132t161.5 75t171.5 22q307 0 484 -245l-181 -135q-135 170 -305 170q-160 0 -251 -127t-91 -355q0 -516 357 -516q60 0 123 14.5t94 34.5v297h-193v189h442v-607q-87 -60 -212.5 -95.5t-264.5 -35.5q-285 0 -443.5 177 t-158.5 526z" />
<glyph unicode="H" horiz-adv-x="1368" d="M143 0v1362h250v-557h580v557h252v-1362h-252v588h-580v-588h-250z" />
<glyph unicode="I" horiz-adv-x="544" d="M147 0v1362h250v-1362h-250z" />
<glyph unicode="J" horiz-adv-x="878" d="M8 82l105 178q104 -76 227 -76q152 0 152 187v991h249v-873q0 -145 -8 -215q-15 -141 -111.5 -220t-261.5 -79q-214 0 -352 107z" />
<glyph unicode="K" horiz-adv-x="1187" d="M143 0v1362h248v-684l488 684h266l-389 -555l424 -807h-283l-309 606l-197 -264v-342h-248z" />
<glyph unicode="L" horiz-adv-x="1024" d="M145 0v1362h250v-1145h578v-217h-828z" />
<glyph unicode="M" horiz-adv-x="1642" d="M123 0l78 1362h278l340 -891h4l351 891h272l74 -1362h-238l-51 938h-4l-316 -786h-188l-307 778h-4l-52 -930h-237z" />
<glyph unicode="N" horiz-adv-x="1363" d="M143 0v1362h252l574 -946h4v946h248v-1362h-240l-588 961h-4v-961h-246z" />
<glyph unicode="O" horiz-adv-x="1357" d="M92 678q0 127 24.5 234t68.5 183t101 133t126 91t139.5 50.5t144.5 16.5q94 0 176.5 -23.5t155.5 -76.5t125.5 -133.5t82.5 -201.5t30 -273q0 -344 -158.5 -523.5t-433.5 -179.5q-278 0 -430 179t-152 524zM348 688q0 -76 8 -142.5t31 -135.5t59.5 -117.5t98.5 -79.5 t143 -31q89 0 154.5 41t101 112.5t52 155t16.5 181.5q0 68 -8.5 133t-31.5 134t-59 120t-95 84t-134 33q-71 0 -129 -27.5t-96 -74t-63.5 -109.5t-36.5 -132t-11 -145z" />
<glyph unicode="P" horiz-adv-x="1163" d="M143 0v1362h469q229 0 357.5 -107.5t128.5 -310.5q0 -226 -145.5 -346.5t-385.5 -120.5h-174v-477h-250zM393 676h148q299 0 299 244q0 77 -21 126.5t-66 74.5t-98.5 33.5t-136.5 8.5h-125v-487z" />
<glyph unicode="Q" horiz-adv-x="1349" d="M92 913q0 212 148.5 342.5t380.5 130.5q124 0 229 -38t187.5 -114.5t129.5 -202.5t47 -290q0 -314 -163 -563q76 -70 131 -114t123.5 -87.5t143 -70t161.5 -39.5l-49 -193q-176 25 -331 113.5t-315 237.5q-202 -183 -434 -183q-94 0 -164.5 24.5t-109.5 66.5t-57.5 89.5 t-18.5 100.5q0 129 99 207t255 78q189 0 369 -107q45 74 74.5 190t29.5 216q0 104 -18.5 187t-58 148.5t-107 101.5t-160.5 36q-120 0 -200 -72.5t-80 -192.5q0 -113 66.5 -174t203.5 -92l-43 -143q-71 1 -137 15.5t-127 47t-106 78.5t-72 114.5t-27 151.5zM356 129 q0 -44 32 -75t101 -31q142 0 259 124q-128 89 -244 89q-69 0 -108.5 -27t-39.5 -80z" />
<glyph unicode="R" horiz-adv-x="1218" d="M143 0v1362h457q116 0 204 -20t154 -63.5t100 -117t34 -176.5q0 -74 -20.5 -136t-55.5 -105t-75 -72t-85 -47q40 -15 64.5 -42.5t48.5 -82.5l225 -500h-266l-197 430q-24 53 -54.5 80t-80.5 27h-203v-537h-250zM393 731h205q112 0 176 60.5t64 175.5q0 64 -18.5 104 t-60.5 59.5t-91.5 26t-130.5 6.5h-144v-432z" />
<glyph unicode="S" horiz-adv-x="1099" d="M59 106l93 205q71 -44 176.5 -81t201.5 -37q220 0 220 188q0 38 -14.5 67.5t-35 49.5t-58.5 37.5t-70 28t-83 24.5q-69 19 -119.5 37.5t-105 50.5t-88.5 72t-56 100.5t-22 136.5q0 185 128 293t333 108q137 0 261.5 -53t207.5 -139l-133 -166q-176 146 -336 146 q-37 0 -70.5 -8.5t-64 -26.5t-48.5 -52t-18 -79q0 -37 15 -67t35.5 -49t61.5 -38.5t72 -30t89 -28.5q55 -17 94 -32.5t87 -39.5t81 -53.5t62.5 -69t44 -92.5t14.5 -117q0 -199 -131.5 -307.5t-356.5 -108.5q-137 0 -270.5 42.5t-196.5 88.5z" />
<glyph unicode="T" horiz-adv-x="1101" d="M35 1145v217h1032v-217h-397v-1145h-248v1145h-387z" />
<glyph unicode="U" horiz-adv-x="1288" d="M133 432v930h248v-918q0 -142 70.5 -201t197.5 -59q118 0 187 63.5t69 186.5v928h250v-963q0 -198 -141 -311t-373 -113q-256 0 -382 109.5t-126 347.5z" />
<glyph unicode="V" horiz-adv-x="1212" d="M20 1362h254l328 -1061h10l334 1061h246l-459 -1362h-260z" />
<glyph unicode="W" horiz-adv-x="1660" d="M35 1362h250l211 -1016h8l209 907h254l213 -909h4l196 1018h246l-293 -1362h-278l-219 887h-7l-211 -887h-284z" />
<glyph unicode="X" horiz-adv-x="1249" d="M-6 0l481 719l-424 643h293l289 -459l291 459h284l-430 -641l475 -721h-288l-340 516l-338 -516h-293z" />
<glyph unicode="Y" horiz-adv-x="1138" d="M0 1362h276l297 -592h9l292 592h265l-447 -842v-520h-250v520z" />
<glyph unicode="Z" horiz-adv-x="1034" d="M55 0v170l619 997h-606v195h897v-166l-625 -1001h647v-195h-932z" />
<glyph unicode="[" horiz-adv-x="614" d="M164 -340v1802h430v-166h-205v-1470h205v-166h-430z" />
<glyph unicode="\" horiz-adv-x="876" d="M6 1470l211 78l629 -1695l-211 -76z" />
<glyph unicode="]" horiz-adv-x="614" d="M20 -174h205v1470h-205v166h431v-1802h-431v166z" />
<glyph unicode="^" horiz-adv-x="1132" d="M100 618l383 762h179l380 -764l-206 -32l-267 546l-268 -546z" />
<glyph unicode="_" horiz-adv-x="1024" d="M0 -152h1024v-149h-1024v149z" />
<glyph unicode="`" horiz-adv-x="1024" d="M322 1507q0 82 155 123l240 -393l-80 -68q-23 20 -68.5 60t-73.5 64.5t-62 56.5t-56 55q-55 58 -55 102z" />
<glyph unicode="a" horiz-adv-x="1099" d="M76 471q0 276 136.5 433t395.5 157q64 0 165 -17.5t200 -54.5v-792l18 -197h-211l-14 109l-8 2q-46 -67 -120 -102.5t-161 -35.5q-106 0 -184 36t-125 103.5t-69.5 156.5t-22.5 202zM317 479q0 -332 213 -332q91 0 146 54t55 125v530q-60 27 -153 27q-71 0 -123 -31.5 t-81.5 -88.5t-43 -127t-13.5 -157z" />
<glyph unicode="b" horiz-adv-x="1093" d="M129 57v1366h244v-448q43 40 106.5 63t134.5 23q192 0 300 -129.5t108 -366.5q0 -296 -125 -446t-360 -150q-107 0 -225 25.5t-183 62.5zM373 184q80 -41 174 -41q233 0 233 389q0 53 -5.5 98.5t-21 93.5t-40 82t-66 55.5t-96.5 21.5q-73 0 -125.5 -43.5t-52.5 -110.5 v-545z" />
<glyph unicode="c" horiz-adv-x="931" d="M76 510q0 119 28.5 215t75 157.5t109.5 102.5t127.5 58.5t132.5 17.5q108 0 208.5 -47.5t168.5 -147.5l-154 -127q-102 127 -219 127q-107 0 -170.5 -88.5t-63.5 -257.5q0 -166 64.5 -260t196.5 -94q114 0 235 88l92 -164q-65 -53 -156.5 -86t-199.5 -33 q-227 0 -351 139.5t-124 399.5z" />
<glyph unicode="d" horiz-adv-x="1099" d="M76 475q0 267 131 426.5t364 159.5q76 0 160 -25v387h242v-1222l18 -201h-209l-16 111l-8 2q-47 -70 -120 -107t-159 -37q-93 0 -164.5 28.5t-115.5 75.5t-72.5 114t-39.5 137t-11 151zM317 498q0 -348 211 -348q89 0 146 52.5t57 116.5v531q-76 33 -153 33 q-70 0 -122.5 -31.5t-81.5 -86.5t-43 -121.5t-14 -145.5z" />
<glyph unicode="e" horiz-adv-x="946" d="M76 494q0 114 32.5 215.5t94 180.5t157.5 125t215 46q152 0 239 -75t87 -210q0 -65 -22.5 -118.5t-59 -90t-88 -64t-102.5 -43t-110.5 -25.5t-105 -13.5t-91.5 -3.5q7 -111 71.5 -186.5t186.5 -75.5q132 0 258 90l75 -162q-41 -36 -138 -75.5t-222 -39.5 q-124 0 -216.5 38.5t-149 109.5t-84 165t-27.5 212zM313 575h10q45 -1 96 7q57 8 120 27.5t104 60.5t41 96q0 56 -33.5 88.5t-89.5 32.5q-78 0 -135 -47.5t-83.5 -116t-29.5 -148.5z" />
<glyph unicode="f" horiz-adv-x="684" d="M131 -430v1517q0 57 6 102.5t27.5 98.5t58.5 88.5t104 59.5t158 24q67 0 149.5 -20.5t135.5 -50.5l-59 -164q-97 51 -195 51q-75 0 -108 -41.5t-33 -128.5v-76h303v-190h-303v-1270h-244z" />
<glyph unicode="g" horiz-adv-x="1097" d="M74 539q0 127 38.5 227.5t107 164.5t160 97t200.5 33q93 0 201.5 -19.5t195.5 -56.5v-780q0 -188 -6 -262q-19 -233 -130.5 -358.5t-322.5 -125.5q-168 0 -256 72.5t-88 202.5q0 212 227 364q-67 10 -124 39.5t-103.5 80.5t-73 133.5t-26.5 187.5zM317 555q0 -53 4 -94 t17 -86.5t36 -75.5t64.5 -50t98.5 -20q84 0 140 55t56 146v428q-73 25 -158 25q-124 0 -191 -89.5t-67 -238.5zM397 -227q0 -69 38 -102t104 -33q58 0 97.5 26t60.5 77t29.5 112.5t8.5 146.5v133q-338 -171 -338 -360z" />
<glyph unicode="h" horiz-adv-x="1093" d="M123 0v1423h244v-479q102 117 276 117q162 0 246 -90.5t84 -270.5v-700h-244v657q0 49 -6.5 84.5t-22.5 67t-48.5 47.5t-80.5 16q-86 0 -145 -61t-59 -141v-670h-244z" />
<glyph unicode="i" horiz-adv-x="499" d="M113 1325q0 58 39.5 97.5t101.5 39.5t101.5 -39.5t39.5 -97.5q0 -59 -40 -97t-101 -38q-64 0 -102.5 38t-38.5 97zM133 0v1030h244v-1030h-244z" />
<glyph unicode="j" horiz-adv-x="499" d="M-213 -387l74 170q78 -43 151 -43q61 0 91 41t30 139v1110h244v-1100q0 -67 -6 -117t-26 -104t-54.5 -88.5t-96 -57t-145.5 -22.5q-64 0 -136.5 19.5t-125.5 52.5zM119 1325q0 58 39 97.5t102 39.5q61 0 101 -39.5t40 -97.5q0 -59 -40 -97t-103 -38q-62 0 -100.5 38 t-38.5 97z" />
<glyph unicode="k" horiz-adv-x="1015" d="M129 0v1423h244v-589h6q50 99 138 163t212 64q103 0 171.5 -62t68.5 -186q0 -99 -53 -196.5t-166 -167.5l239 -449h-274l-191 358q-74 -16 -151 -22v-336h-244zM375 510q157 13 248.5 85t91.5 181q0 40 -18.5 65t-57.5 25q-63 0 -122.5 -56.5t-97 -138t-44.5 -161.5z" />
<glyph unicode="l" horiz-adv-x="661" d="M129 285v1136h244v-1085q0 -96 24 -135t86 -39q50 0 129 33l54 -164q-42 -27 -110.5 -44.5t-133.5 -17.5q-58 0 -103 10t-75.5 25.5t-52.5 41t-33.5 50t-18.5 60t-8.5 63t-1.5 66.5z" />
<glyph unicode="m" horiz-adv-x="1667" d="M115 1030h202l21 -129q107 160 297 160q204 0 285 -164q45 79 123.5 121.5t175.5 42.5q157 0 241 -91.5t84 -271.5v-698h-244v649q0 51 -5.5 87t-21 69t-47.5 50t-81 17q-82 0 -133 -58.5t-51 -141.5v-672h-244v649q0 49 -5 83t-20 69t-48 53t-83 18q-83 0 -133.5 -60.5 t-50.5 -147.5v-664h-244v852z" />
<glyph unicode="n" horiz-adv-x="1101" d="M115 1030h204l21 -129q113 160 315 160q157 0 241.5 -89t84.5 -267v-705h-244v651q0 52 -6 88t-21.5 68.5t-47 48.5t-78.5 16q-90 0 -149.5 -62t-59.5 -144v-666h-244v852z" />
<glyph unicode="o" horiz-adv-x="1064" d="M74 516q0 123 29.5 220t77 156.5t112 98.5t127.5 54.5t131 15.5q38 0 73 -3.5t81.5 -17t85 -35t78 -61t67 -92.5t44.5 -132.5t17 -176.5q0 -144 -36.5 -255t-102 -180t-151.5 -104t-189 -35q-211 0 -327.5 137.5t-116.5 409.5zM322 545q0 -63 4.5 -114.5t18.5 -106 t36.5 -91t61.5 -60t92 -23.5q108 0 160.5 96t52.5 264q0 181 -48.5 276t-160.5 95q-108 0 -162.5 -91t-54.5 -245z" />
<glyph unicode="p" horiz-adv-x="1093" d="M127 -430v1423q223 68 410 68q244 0 362.5 -134.5t118.5 -402.5q0 -267 -115 -411t-319 -144q-117 0 -213 60v-459h-244zM371 221q77 -51 174 -51q63 0 108.5 29t70.5 78.5t36.5 106t11.5 122.5q0 360 -280 360q-61 0 -121 -14v-631z" />
<glyph unicode="q" horiz-adv-x="1091" d="M76 487q0 264 136 419t374 155q185 0 379 -76v-1415h-244v485h-6q-106 -84 -242 -84q-196 0 -296.5 129.5t-100.5 386.5zM319 512q0 -45 1 -76t5.5 -72.5t12.5 -69.5t23 -58t36 -48t53 -29.5t72 -11.5q88 0 143.5 54.5t55.5 115.5v541q-56 16 -121 16q-131 0 -206 -103 t-75 -259z" />
<glyph unicode="r" horiz-adv-x="749" d="M115 1030h200l25 -149q33 85 101 132.5t147 47.5q96 0 164 -41l-43 -207q-74 41 -146 41q-82 0 -132.5 -58t-53.5 -149v-647h-244v864z" />
<glyph unicode="s" horiz-adv-x="858" d="M41 74l72 174q61 -38 141.5 -68t151.5 -30q69 0 112 32.5t43 98.5q0 33 -12.5 57.5t-40 41.5t-52.5 27t-69 23q-37 11 -57.5 17t-55 18.5t-54.5 24t-47 29t-43 38t-31 46.5t-22 59.5t-7 72.5q0 103 52.5 178.5t136 111.5t185.5 36q111 0 208 -40t163 -106l-117 -143 q-127 111 -249 111q-60 0 -102 -30.5t-42 -88.5q0 -27 10.5 -49t24.5 -36t42.5 -27t48 -20t56.5 -18q40 -12 65.5 -21t62 -25t60.5 -32t50.5 -40.5t42 -52t25.5 -65t10 -81.5q0 -156 -105.5 -242t-281.5 -86q-119 0 -222.5 33.5t-152.5 71.5z" />
<glyph unicode="t" horiz-adv-x="716" d="M129 311v1112h244v-393h276v-190h-276v-521q0 -89 33 -125t100 -36q68 0 139 43l62 -158q-46 -32 -117.5 -52t-143.5 -20q-52 0 -95 7.5t-74 18.5t-55 31t-39.5 37t-26.5 46t-16 47.5t-7.5 52.5t-3 50t-0.5 50z" />
<glyph unicode="u" horiz-adv-x="1105" d="M127 332v698h244v-653q0 -52 6 -87.5t22 -67t48.5 -47t82.5 -15.5q82 0 142.5 60.5t60.5 135.5v674h244v-858l16 -172h-209l-14 121h-8q-51 -74 -128.5 -112t-168.5 -38q-338 0 -338 361z" />
<glyph unicode="v" horiz-adv-x="1062" d="M127 336v694h246v-645q0 -44 2 -72t9.5 -60t22 -49.5t41 -29.5t64.5 -12q62 0 107.5 34t70 93.5t36 127t11.5 146.5q0 193 -69 467h241q68 -237 68 -450q0 -288 -125.5 -448.5t-366.5 -160.5q-182 0 -270 88.5t-88 276.5z" />
<glyph unicode="w" horiz-adv-x="1607" d="M127 328v702h244v-639q0 -44 2 -73t10 -61.5t22.5 -51.5t41 -32t63.5 -13q80 0 133 58t53 138v674h244v-637q0 -39 1 -63t5 -54t13 -48.5t23.5 -35.5t38 -24.5t54.5 -7.5q207 0 207 415q0 186 -72 455h240q72 -238 72 -446q0 -288 -112 -450.5t-333 -162.5 q-207 0 -276 168q-118 -168 -330 -168q-168 0 -256 89t-88 268z" />
<glyph unicode="x" horiz-adv-x="964" d="M-6 0l360 532l-321 498h260l201 -328l213 328h245l-331 -495l350 -535h-264l-224 354l-227 -354h-262z" />
<glyph unicode="y" horiz-adv-x="1097" d="M127 406v624h244v-581q0 -46 2.5 -76t12 -62.5t28 -51t51.5 -30.5t80 -12q89 0 138.5 46.5t49.5 133.5v633h242v-901q0 -169 -17 -285q-30 -187 -141.5 -288t-300.5 -101q-162 0 -247 71.5t-85 197.5q0 198 215 350q-272 40 -272 332zM408 -238q0 -62 35 -96.5t102 -34.5 q190 0 190 318v172q-74 -36 -128 -69.5t-102 -77t-72.5 -97t-24.5 -115.5z" />
<glyph unicode="z" horiz-adv-x="839" d="M14 -221q0 137 80.5 250.5t235.5 195.5q-14 7 -197 88v148l373 379h-465v190h768v-153l-442 -453l125 -57q153 -71 236 -183t83 -262q0 -202 -118 -333.5t-320 -131.5q-177 0 -268 86t-91 236zM233 -193q0 -75 37.5 -121t116.5 -46q96 0 148.5 72.5t52.5 183.5 q0 157 -119 235q-113 -60 -174.5 -147.5t-61.5 -176.5z" />
<glyph unicode="{" horiz-adv-x="645" d="M88 500v151q83 10 109.5 63t21.5 181q-2 57 -8.5 164t-7.5 127q-6 141 63 214t195 73q79 0 164 -21l-21 -152q-64 11 -82 11q-63 0 -82.5 -32.5t-19.5 -111.5q0 -46 9 -166t9 -167q0 -105 -30.5 -167t-104.5 -92q78 -27 106.5 -81t28.5 -166q0 -47 -11 -180.5t-11 -180.5 q0 -80 19.5 -116.5t82.5 -36.5q39 0 80 10l20 -156q-86 -18 -161 -18q-124 0 -193 70t-69 190q0 42 2 90.5t4.5 83t7 90.5t6.5 84q6 119 -19.5 175.5t-107.5 66.5z" />
<glyph unicode="|" horiz-adv-x="561" d="M174 -180v1710h213v-1710h-213z" />
<glyph unicode="}" horiz-adv-x="645" d="M20 1452q85 21 164 21q126 0 195 -73t63 -214q-1 -20 -7.5 -127t-8.5 -164q-5 -128 21.5 -181t109.5 -63v-151q-82 -10 -107.5 -66.5t-19.5 -175.5q2 -28 8.5 -106t9.5 -133t3 -109q0 -120 -69 -190t-194 -70q-76 0 -161 18l20 156q41 -10 80 -10q63 0 82.5 36.5 t19.5 116.5q0 47 -11 180.5t-11 180.5q0 112 28.5 166t106.5 81q-74 30 -104.5 92t-30.5 167q0 47 9 167t9 166q0 79 -19.5 111.5t-82.5 32.5q-18 0 -82 -11z" />
<glyph unicode="~" horiz-adv-x="1224" d="M96 578q63 105 135 161t164 56q56 0 117 -24.5t105.5 -53.5t98.5 -53.5t97 -24.5q93 0 166 131l149 -111q-100 -213 -299 -213q-59 0 -122 23.5t-107.5 51.5t-95.5 51.5t-88 23.5q-48 0 -88 -33.5t-84 -99.5z" />
<glyph unicode="&#xa1;" horiz-adv-x="546" d="M133 922q0 58 37.5 98.5t99.5 40.5q67 0 105.5 -39t38.5 -98q0 -56 -39.5 -96t-98.5 -40q-66 0 -104.5 37.5t-38.5 96.5zM156 -57l41 714h145l43 -714v-244q0 -42 -27 -69t-86 -27q-116 0 -116 100v240z" />
<glyph unicode="&#xa2;" d="M154 633q0 131 33.5 233t92 164.5t126.5 97t147 46.5v229h154v-229q188 -31 297 -189l-154 -127q-74 85 -143 113v-674q86 14 186 86l92 -164q-115 -95 -278 -115v-227h-154v227q-192 22 -295.5 157.5t-103.5 371.5zM397 643q0 -268 156 -330v658q-73 -27 -114.5 -110 t-41.5 -218z" />
<glyph unicode="&#xa3;" horiz-adv-x="1130" d="M10 -156q77 37 124 95t71 157l47 197h-174v172h207l102 479q48 218 153 310t273 92q179 0 334 -134l-119 -147q-108 88 -211 88q-91 0 -133 -53t-68 -178l-98 -457h330v-170h-363l-36 -162q-36 -163 -162 -270l2 -4q96 28 157 28q63 0 181.5 -24.5t191.5 -24.5 q89 0 193 29l-27 -199q-99 -18 -178 -18q-100 0 -266 31.5t-258 31.5q-62 0 -137.5 -16t-135.5 -43v190z" />
<glyph unicode="&#xa5;" horiz-adv-x="1097" d="M47 1319h254l252 -518h10l248 518h246l-297 -557h225v-156h-313v-153h313v-156h-313v-297h-248v297h-315v156h315v153h-315v156h229z" />
<glyph unicode="&#xa6;" horiz-adv-x="563" d="M174 -180v766h215v-766h-215zM174 825v705h215v-705h-215z" />
<glyph unicode="&#xa7;" horiz-adv-x="1130" d="M106 776l177 31q-4 -93 13.5 -167.5t54 -130.5t79.5 -95.5t102 -77.5q10 -6 48 -29.5t49.5 -31t44.5 -30.5t45 -34.5t38 -35t36.5 -41t27 -44t23.5 -52t12.5 -57.5t5.5 -67q0 -38 -9 -78t-34.5 -87t-65 -83t-107.5 -60t-154 -24q-85 0 -165 20t-128 44l53 168 q106 -54 215 -54q82 0 127 41t45 105q0 27 -6.5 50t-23.5 45.5t-30.5 38t-44.5 37.5t-48 33t-57.5 36t-57.5 36q-52 33 -92.5 68t-78.5 86.5t-60.5 112t-32.5 144.5t-1 183zM233 1034q0 38 9 78.5t35 87t65.5 82.5t107.5 60t154 24q85 0 165.5 -19.5t127.5 -43.5l-53 -168 q-104 53 -215 53q-82 0 -127 -41t-45 -105q0 -27 6.5 -50t23.5 -45.5t30.5 -38t44.5 -37.5t48 -33t57.5 -36t57.5 -36q66 -41 114 -88.5t88.5 -117t56.5 -167.5t5 -221l-176 -31q4 93 -13.5 167.5t-54.5 130.5t-79.5 95.5t-102.5 77.5q-10 6 -48 29.5t-49.5 31t-44.5 30.5 t-45 34.5t-38 35t-36.5 41t-27 44t-23.5 52t-12.5 57.5t-5.5 67z" />
<glyph unicode="&#xa8;" horiz-adv-x="1024" d="M184 1364q0 54 36 89.5t95 35.5q56 0 92.5 -36t36.5 -89q0 -55 -37 -91t-94 -36q-58 0 -93.5 35.5t-35.5 91.5zM590 1364q0 54 36 89.5t93 35.5q56 0 92.5 -36t36.5 -89q0 -56 -36 -91.5t-93 -35.5q-59 0 -94 35.5t-35 91.5z" />
<glyph unicode="&#xa9;" horiz-adv-x="1667" d="M123 668q0 148 52 280t143 228t222.5 152t282.5 56q156 0 291 -56t228 -151t146.5 -224t53.5 -273q0 -203 -91 -367.5t-256 -259t-372 -94.5q-213 0 -373 91t-243.5 251t-83.5 367zM285 668q0 -255 150.5 -408.5t389.5 -153.5q157 0 284 73t199 203t72 292 q0 159 -72.5 288t-200 202t-282.5 73q-159 0 -283 -75t-190.5 -204.5t-66.5 -289.5zM475 678q0 91 23 163.5t59 117t84 74t94.5 41t93.5 11.5q195 0 308 -153l-115 -90q-44 48 -90 75t-107 27q-78 0 -132 -62t-54 -202q0 -131 49.5 -202.5t149.5 -71.5q57 0 100.5 21.5 t95.5 64.5l82 -111q-111 -115 -282 -115q-177 0 -268 109.5t-91 302.5z" />
<glyph unicode="&#xaa;" horiz-adv-x="847" d="M98 858q0 181 97.5 286t275.5 105q130 0 262 -49v-510l19 -149h-168l-11 80h-8q-79 -97 -190 -97q-73 0 -128 27.5t-86.5 75t-47 105.5t-15.5 126zM287 879q0 -220 135 -220q53 0 88 30t35 63v344q-46 16 -94 16q-83 0 -123.5 -65.5t-40.5 -167.5z" />
<glyph unicode="&#xab;" horiz-adv-x="1085" d="M104 545q0 40 60 100q142 135 338 283l94 -92l-256 -297l240 -332l-95 -86q-94 76 -204.5 183t-149.5 169q-27 42 -27 72zM522 545q0 40 60 100q142 135 338 283l94 -92l-256 -297l239 -332l-94 -86q-94 76 -204.5 183t-149.5 169q-27 42 -27 72z" />
<glyph unicode="&#xac;" d="M106 645v199h879v-494h-197v295h-682z" />
<glyph unicode="&#xad;" horiz-adv-x="659" d="M86 500v190h485v-190h-485z" />
<glyph unicode="&#xae;" horiz-adv-x="948" d="M61 985q0 173 114.5 287t293.5 114q183 0 300.5 -113.5t117.5 -283.5q0 -177 -117 -290t-301 -113q-186 0 -297 111.5t-111 287.5zM170 985q0 -136 84 -221.5t215 -85.5q136 0 222.5 84.5t86.5 222.5q0 133 -87.5 220t-221.5 87q-135 0 -217 -86t-82 -221zM332 774v432 h155q68 0 106 -29t38 -87q0 -87 -70 -119q18 -8 27 -31l74 -166h-103l-63 144q-12 28 -33 28h-39v-172h-92zM424 1020h33q73 0 73 61q0 31 -18 41.5t-55 10.5h-33v-113z" />
<glyph unicode="&#xaf;" horiz-adv-x="1024" d="M213 1268v176h588v-176h-588z" />
<glyph unicode="&#xb0;" horiz-adv-x="610" d="M72 1221q0 104 65 172.5t168 68.5q107 0 170.5 -66.5t63.5 -162.5q0 -108 -66 -178t-174 -70q-105 0 -166 67t-61 169zM199 1221q0 -54 27.5 -87.5t78.5 -33.5t78 34t27 87q0 58 -26.5 91.5t-78.5 33.5q-54 0 -80 -33.5t-26 -91.5z" />
<glyph unicode="&#xb1;" d="M133 72v198h305v275h-305v200h305v320h209v-320h316v-200h-316v-275h316v-198h-830z" />
<glyph unicode="&#xb2;" horiz-adv-x="772" d="M88 1391q149 118 309 118q124 0 189 -56.5t65 -147.5q0 -70 -27 -125t-87 -121l-185 -213h326v-148h-563v119l254 291q46 55 68 92t22 76q0 80 -94 80q-77 0 -187 -80z" />
<glyph unicode="&#xb3;" horiz-adv-x="772" d="M111 748l49 137q44 -23 104.5 -38.5t106.5 -15.5q121 0 121 89q0 20 -10 46t-19.5 42t-32.5 53q-71 -26 -164 -43l-39 119q70 15 133 37q27 10 43 17t35 20t28 31.5t9 43.5q0 40 -26.5 58t-67.5 18q-75 0 -193 -62l-71 115q151 94 303 94q112 0 172.5 -54t60.5 -138 q0 -54 -19.5 -96t-66.5 -82q99 -117 99 -217q0 -98 -73.5 -166t-219.5 -68q-70 0 -142.5 17.5t-119.5 42.5z" />
<glyph unicode="&#xb4;" horiz-adv-x="1024" d="M303 1237l238 393q155 -39 155 -123q0 -42 -55 -100q-28 -31 -69 -68.5t-103 -92.5t-86 -77z" />
<glyph unicode="&#xb5;" horiz-adv-x="1196" d="M152 -442v1472h229v-592q0 -143 45 -219t154 -76q105 0 162 89.5t57 240.5v557h233v-819q0 -68 53 -68q25 0 80 25l29 -143q-89 -50 -186 -50q-79 0 -118 40.5t-44 125.5q-33 -76 -104.5 -123t-159.5 -47q-65 0 -121.5 26t-89.5 75v-514h-219z" />
<glyph unicode="&#xb6;" horiz-adv-x="1079" d="M104 881q0 128 38 223t106.5 150t155.5 81.5t194 26.5h338v-1196q0 -135 -21.5 -226t-78 -164t-154 -119t-248.5 -77l-51 201q180 43 248.5 120.5t68.5 225.5v1059h-147v-746q-74 2 -140 19.5t-123 52.5t-98 86t-64.5 123.5t-23.5 159.5z" />
<glyph unicode="&#xb7;" horiz-adv-x="632" d="M174 629q0 61 38 100t101 39q68 0 107 -37.5t39 -99.5t-38 -102t-102 -40q-70 0 -107.5 38.5t-37.5 101.5z" />
<glyph unicode="&#xb8;" horiz-adv-x="1024" d="M272 -459l33 111q84 -27 137 -27q103 0 103 72q0 46 -46.5 62t-138.5 16l74 231h117l-37 -141q83 -6 133.5 -48t50.5 -114q0 -54 -21.5 -94t-57.5 -62t-76.5 -32.5t-85.5 -10.5q-98 0 -185 37z" />
<glyph unicode="&#xb9;" horiz-adv-x="772" d="M102 1352l256 145h162l-12 -141v-514h143v-144h-477v144h154v467l-166 -74z" />
<glyph unicode="&#xba;" horiz-adv-x="831" d="M86 881q0 83 21.5 149t55 106.5t79 67t89.5 37t91 10.5q46 0 88.5 -9t86 -33.5t75 -62t51.5 -99t20 -140.5q0 -183 -92 -283t-245 -100q-151 0 -235.5 95t-84.5 262zM279 913q0 -55 6 -96.5t20.5 -77.5t42 -55.5t66.5 -19.5q137 0 137 221q0 116 -31.5 172.5t-107.5 56.5 q-68 0 -100.5 -57t-32.5 -144z" />
<glyph unicode="&#xbb;" horiz-adv-x="1085" d="M72 836l92 92q179 -132 340 -283q59 -59 59 -100q0 -32 -26 -72q-39 -62 -151.5 -170t-205.5 -182l-94 86l240 332zM489 836l93 92q179 -132 340 -283q59 -59 59 -100q0 -30 -27 -72q-40 -63 -151.5 -171t-204.5 -181l-94 86l239 332z" />
<glyph unicode="&#xbc;" horiz-adv-x="1689" d="M55 1188l256 145h162l-12 -141v-514h143v-143h-477v143h154v467l-166 -74zM459 53l598 1282l160 -67l-603 -1286zM975 178v111l250 536l141 -65l-209 -449h160l59 217h109v-217h125v-137h-125v-174h-178v178h-332z" />
<glyph unicode="&#xbd;" horiz-adv-x="1689" d="M59 1188l256 145h162l-12 -141v-514h143v-143h-477v143h154v467l-166 -74zM444 53l598 1282l160 -67l-602 -1286zM1016 692q150 119 309 119q124 0 189 -57t65 -148q0 -70 -27.5 -125t-87.5 -121l-184 -213h326v-147h-564v119l254 291q46 55 68 92t22 76q0 79 -94 79 q-78 0 -186 -79z" />
<glyph unicode="&#xbe;" horiz-adv-x="1689" d="M72 584l49 137q44 -23 104.5 -38t106.5 -15q121 0 121 88q0 20 -10 46t-19.5 42t-32.5 53q-71 -26 -164 -43l-39 119q73 16 134 37q27 10 42.5 17t34.5 20t28 31.5t9 43.5q0 40 -26.5 58t-67.5 18q-76 0 -192 -61l-72 114q153 95 303 95q112 0 172.5 -54.5t60.5 -138.5 q0 -54 -19.5 -96t-66.5 -82q99 -117 99 -217q0 -98 -73.5 -166t-219.5 -68q-70 0 -142.5 17.5t-119.5 42.5zM479 53l598 1282l160 -67l-602 -1286zM991 178v111l250 536l141 -65l-208 -449h159l60 217h108v-217h125v-137h-125v-174h-178v178h-332z" />
<glyph unicode="&#xbf;" horiz-adv-x="772" d="M76 -88q0 55 12 102t29.5 80.5t49 68t58.5 57t70 54.5q44 31 62 46.5t32 44t14 67.5v225h189q14 -143 14 -215q0 -115 -32.5 -177.5t-124.5 -129.5q-7 -6 -26.5 -20.5t-27.5 -20.5t-23.5 -20t-22.5 -22.5t-17.5 -23.5t-15 -29t-8 -32.5t-3.5 -38.5q0 -64 37 -98.5 t96 -34.5q88 0 236 55l41 -188q-162 -59 -293 -59q-178 0 -262 83t-84 226zM362 922q0 58 38 98.5t100 40.5q67 0 105 -39t38 -98q0 -56 -39 -96t-98 -40q-66 0 -105 38t-39 96z" />
<glyph unicode="&#xc0;" horiz-adv-x="1280" d="M25 0l471 1362h278l481 -1362h-266l-123 360h-479l-121 -360h-241zM352 1722q0 62 119 133l332 -321l-62 -84q-263 139 -309 168q-42 26 -61 49.5t-19 54.5zM436 549h381l-184 584h-6z" />
<glyph unicode="&#xc1;" horiz-adv-x="1280" d="M25 0l471 1362h278l481 -1362h-266l-123 360h-479l-121 -360h-241zM436 549h381l-184 584h-6zM459 1536l332 322q118 -70 118 -136q0 -30 -20 -53.5t-62 -50.5q-27 -17 -68 -39.5t-74 -40t-85.5 -45t-79.5 -41.5z" />
<glyph unicode="&#xc2;" horiz-adv-x="1280" d="M25 0l471 1362h278l481 -1362h-266l-123 360h-479l-121 -360h-241zM299 1520q128 167 225 254q54 49 101 49q53 0 96 -43q138 -138 233 -258l-84 -72l-245 176l-242 -176zM436 549h381l-184 584h-6z" />
<glyph unicode="&#xc3;" horiz-adv-x="1280" d="M25 0l471 1362h278l481 -1362h-266l-123 360h-479l-121 -360h-241zM332 1657q75 59 172 59q54 0 142 -26.5t134 -26.5q55 0 127 37l17 -166q-69 -37 -140 -37q-47 0 -144.5 22.5t-137.5 22.5q-80 0 -152 -41zM436 549h381l-184 584h-6z" />
<glyph unicode="&#xc4;" horiz-adv-x="1280" d="M25 0l471 1362h278l481 -1362h-266l-123 360h-479l-121 -360h-241zM293 1602q0 54 36 89t95 35q56 0 92.5 -35.5t36.5 -88.5q0 -55 -37 -90t-94 -35q-58 0 -93.5 34.5t-35.5 90.5zM436 549h381l-184 584h-6zM709 1602q0 53 35.5 88.5t93.5 35.5q56 0 92.5 -35.5 t36.5 -88.5q0 -55 -36 -90t-93 -35q-59 0 -94 34.5t-35 90.5z" />
<glyph unicode="&#xc5;" horiz-adv-x="1280" d="M25 0l473 1362q-52 59 -52 139q0 84 54.5 137.5t140.5 53.5q88 0 139 -52t51 -129q0 -92 -57 -149l481 -1362h-266l-123 360h-479l-121 -360h-241zM436 549h381l-184 584h-6zM567 1501q0 -38 19 -62t55 -24q35 0 54.5 24.5t19.5 61.5q0 84 -74 84t-74 -84z" />
<glyph unicode="&#xc6;" horiz-adv-x="1687" d="M25 0l471 1362h1116v-217h-735l122 -342h531v-217h-479l131 -369h442v-217h-635l-131 381h-463l-129 -381h-241zM444 569h365l-180 555h-2z" />
<glyph unicode="&#xc7;" horiz-adv-x="1208" d="M92 674q0 155 37 279t97 203.5t142 132.5t167 75t176 22q132 0 254 -60t213 -193l-179 -129q-67 86 -139.5 129t-161.5 43q-160 0 -255 -128.5t-95 -357.5q0 -241 91 -374.5t274 -133.5q159 0 319 144l129 -164q-193 -181 -444 -187l-29 -110q83 -6 133.5 -48t50.5 -114 q0 -54 -21.5 -94t-57.5 -62t-76.5 -32.5t-85.5 -10.5q-98 0 -185 37l33 111q84 -27 137 -27q103 0 103 72q0 46 -46 62t-138 16l65 207q-240 30 -374 205.5t-134 486.5z" />
<glyph unicode="&#xc8;" horiz-adv-x="1042" d="M143 0v1362h822v-217h-572v-342h490v-217h-490v-369h586v-217h-836zM293 1722q0 62 119 133l331 -321l-61 -84q-263 139 -309 168q-42 26 -61 49.5t-19 54.5z" />
<glyph unicode="&#xc9;" horiz-adv-x="1042" d="M143 0v1362h822v-217h-572v-342h490v-217h-490v-369h586v-217h-836zM365 1536l331 322q119 -71 119 -136q0 -30 -20 -53.5t-62 -50.5q-27 -17 -68 -39.5t-74 -40t-85.5 -45t-79.5 -41.5z" />
<glyph unicode="&#xca;" horiz-adv-x="1042" d="M143 0v1362h822v-217h-572v-342h490v-217h-490v-369h586v-217h-836zM219 1520q128 167 225 254q54 49 101 49q53 0 96 -43q138 -138 233 -258l-83 -72l-246 176l-242 -176z" />
<glyph unicode="&#xcb;" horiz-adv-x="1042" d="M143 0v1362h822v-217h-572v-342h490v-217h-490v-369h586v-217h-836zM209 1602q0 54 36 89t95 35q56 0 92.5 -35.5t36.5 -88.5q0 -55 -37 -90t-94 -35q-58 0 -93.5 34.5t-35.5 90.5zM625 1602q0 53 35.5 88.5t93.5 35.5q56 0 92.5 -35.5t36.5 -88.5q0 -55 -36 -90t-93 -35 q-59 0 -94 34.5t-35 90.5z" />
<glyph unicode="&#xcc;" horiz-adv-x="544" d="M6 1722q0 62 119 133l332 -321l-62 -84q-263 139 -309 168q-42 26 -61 49.5t-19 54.5zM147 0v1362h250v-1362h-250z" />
<glyph unicode="&#xcd;" horiz-adv-x="544" d="M92 1536l332 322q119 -71 119 -136q0 -30 -20 -53.5t-62 -50.5q-27 -17 -68 -39.5t-74 -40t-85.5 -45t-79.5 -41.5zM147 0v1362h250v-1362h-250z" />
<glyph unicode="&#xce;" horiz-adv-x="544" d="M-53 1520q128 167 225 254q54 49 100 49q54 0 97 -43q138 -138 233 -258l-84 -72l-246 176l-241 -176zM147 0v1362h250v-1362h-250z" />
<glyph unicode="&#xcf;" horiz-adv-x="544" d="M-63 1602q0 54 36 89t95 35q56 0 92.5 -35.5t36.5 -88.5q0 -55 -37 -90t-94 -35q-58 0 -93.5 34.5t-35.5 90.5zM147 0v1362h250v-1362h-250zM352 1602q0 53 35.5 88.5t93.5 35.5q56 0 92.5 -35.5t36.5 -88.5q0 -55 -36 -90t-93 -35q-59 0 -94 34.5t-35 90.5z" />
<glyph unicode="&#xd0;" horiz-adv-x="1339" d="M20 588v196h144v578h444q301 0 470 -160t169 -473q0 -156 -34 -281.5t-92 -208t-139 -137t-171.5 -78.5t-192.5 -24h-454v588h-144zM414 197h209q175 0 273.5 126.5t98.5 368.5q0 134 -30.5 228.5t-87 146t-125 74t-156.5 22.5h-182v-379h346v-196h-346v-391z" />
<glyph unicode="&#xd1;" horiz-adv-x="1363" d="M143 0v1362h252l574 -946h4v946h248v-1362h-240l-588 961h-4v-961h-246zM385 1657q75 59 172 59q55 0 143 -26.5t134 -26.5q55 0 127 37l16 -166q-69 -37 -139 -37q-47 0 -145 22.5t-138 22.5q-80 0 -152 -41z" />
<glyph unicode="&#xd2;" horiz-adv-x="1357" d="M92 678q0 127 24.5 234t68.5 183t101 133t126 91t139.5 50.5t144.5 16.5q94 0 176.5 -23.5t155.5 -76.5t125.5 -133.5t82.5 -201.5t30 -273q0 -344 -158.5 -523.5t-433.5 -179.5q-278 0 -430 179t-152 524zM348 688q0 -76 8 -142.5t31 -135.5t59.5 -117.5t98.5 -79.5 t143 -31q89 0 154.5 41t101 112.5t52 155t16.5 181.5q0 68 -8.5 133t-31.5 134t-59 120t-95 84t-134 33q-71 0 -129 -27.5t-96 -74t-63.5 -109.5t-36.5 -132t-11 -145zM434 1722q0 62 119 133l332 -321l-62 -84q-263 139 -309 168q-42 26 -61 49.5t-19 54.5z" />
<glyph unicode="&#xd3;" horiz-adv-x="1357" d="M92 678q0 127 24.5 234t68.5 183t101 133t126 91t139.5 50.5t144.5 16.5q94 0 176.5 -23.5t155.5 -76.5t125.5 -133.5t82.5 -201.5t30 -273q0 -344 -158.5 -523.5t-433.5 -179.5q-278 0 -430 179t-152 524zM348 688q0 -76 8 -142.5t31 -135.5t59.5 -117.5t98.5 -79.5 t143 -31q89 0 154.5 41t101 112.5t52 155t16.5 181.5q0 68 -8.5 133t-31.5 134t-59 120t-95 84t-134 33q-71 0 -129 -27.5t-96 -74t-63.5 -109.5t-36.5 -132t-11 -145zM494 1536l331 322q119 -71 119 -136q0 -30 -20 -53.5t-62 -50.5q-27 -17 -68 -39.5t-74 -40t-85.5 -45 t-79.5 -41.5z" />
<glyph unicode="&#xd4;" horiz-adv-x="1357" d="M92 678q0 127 24.5 234t68.5 183t101 133t126 91t139.5 50.5t144.5 16.5q94 0 176.5 -23.5t155.5 -76.5t125.5 -133.5t82.5 -201.5t30 -273q0 -344 -158.5 -523.5t-433.5 -179.5q-278 0 -430 179t-152 524zM348 688q0 -76 8 -142.5t31 -135.5t59.5 -117.5t98.5 -79.5 t143 -31q89 0 154.5 41t101 112.5t52 155t16.5 181.5q0 68 -8.5 133t-31.5 134t-59 120t-95 84t-134 33q-71 0 -129 -27.5t-96 -74t-63.5 -109.5t-36.5 -132t-11 -145zM365 1520q128 167 225 254q54 49 100 49q53 0 96 -43q143 -143 234 -258l-84 -72l-246 176l-241 -176z " />
<glyph unicode="&#xd5;" horiz-adv-x="1357" d="M92 678q0 127 24.5 234t68.5 183t101 133t126 91t139.5 50.5t144.5 16.5q94 0 176.5 -23.5t155.5 -76.5t125.5 -133.5t82.5 -201.5t30 -273q0 -344 -158.5 -523.5t-433.5 -179.5q-278 0 -430 179t-152 524zM348 688q0 -76 8 -142.5t31 -135.5t59.5 -117.5t98.5 -79.5 t143 -31q89 0 154.5 41t101 112.5t52 155t16.5 181.5q0 68 -8.5 133t-31.5 134t-59 120t-95 84t-134 33q-71 0 -129 -27.5t-96 -74t-63.5 -109.5t-36.5 -132t-11 -145zM391 1657q75 59 172 59q55 0 143 -26.5t134 -26.5q55 0 127 37l16 -166q-69 -37 -139 -37 q-47 0 -145 22.5t-138 22.5q-79 0 -151 -41z" />
<glyph unicode="&#xd6;" horiz-adv-x="1357" d="M92 678q0 127 24.5 234t68.5 183t101 133t126 91t139.5 50.5t144.5 16.5q94 0 176.5 -23.5t155.5 -76.5t125.5 -133.5t82.5 -201.5t30 -273q0 -344 -158.5 -523.5t-433.5 -179.5q-278 0 -430 179t-152 524zM348 688q0 -76 8 -142.5t31 -135.5t59.5 -117.5t98.5 -79.5 t143 -31q89 0 154.5 41t101 112.5t52 155t16.5 181.5q0 68 -8.5 133t-31.5 134t-59 120t-95 84t-134 33q-71 0 -129 -27.5t-96 -74t-63.5 -109.5t-36.5 -132t-11 -145zM348 1602q0 54 36 89t95 35q56 0 92.5 -35.5t36.5 -88.5q0 -55 -37 -90t-94 -35q-58 0 -93.5 34.5 t-35.5 90.5zM764 1602q0 53 35.5 88.5t93.5 35.5q56 0 92.5 -35.5t36.5 -88.5q0 -55 -36 -90t-93 -35q-59 0 -94 34.5t-35 90.5z" />
<glyph unicode="&#xd7;" d="M170 410l233 233l-233 234l147 147l234 -233l229 229l142 -141l-230 -232l232 -231l-148 -148l-231 232l-232 -232z" />
<glyph unicode="&#xd8;" horiz-adv-x="1357" d="M92 678q0 127 24.5 234t68.5 183t101 133t126 91t139.5 50.5t144.5 16.5q117 0 215 -36l84 176l183 -84l-97 -201q185 -185 185 -563q0 -344 -158.5 -523.5t-433.5 -179.5q-119 0 -219 35l-101 -215l-178 86l109 230q-193 181 -193 567zM348 688q0 -220 66 -344l385 809 q-58 23 -115 23q-71 0 -129 -27.5t-96 -74t-63.5 -109.5t-36.5 -132t-11 -145zM567 203q53 -21 121 -21q89 0 154.5 41t101 112.5t52 155t16.5 181.5q0 192 -66 327z" />
<glyph unicode="&#xd9;" horiz-adv-x="1288" d="M133 432v930h248v-918q0 -142 70.5 -201t197.5 -59q118 0 187 63.5t69 186.5v928h250v-963q0 -198 -141 -311t-373 -113q-256 0 -382 109.5t-126 347.5zM387 1722q0 62 119 133l332 -321l-62 -84q-263 139 -309 168q-42 26 -61 49.5t-19 54.5z" />
<glyph unicode="&#xda;" horiz-adv-x="1288" d="M133 432v930h248v-918q0 -142 70.5 -201t197.5 -59q118 0 187 63.5t69 186.5v928h250v-963q0 -198 -141 -311t-373 -113q-256 0 -382 109.5t-126 347.5zM459 1536l332 322q118 -70 118 -136q0 -30 -20 -53.5t-62 -50.5q-27 -17 -68 -39.5t-74 -40t-85.5 -45t-79.5 -41.5z " />
<glyph unicode="&#xdb;" horiz-adv-x="1288" d="M133 432v930h248v-918q0 -142 70.5 -201t197.5 -59q118 0 187 63.5t69 186.5v928h250v-963q0 -198 -141 -311t-373 -113q-256 0 -382 109.5t-126 347.5zM317 1520q126 164 226 254q54 49 100 49q53 0 96 -43q143 -143 234 -258l-84 -72l-246 176l-242 -176z" />
<glyph unicode="&#xdc;" horiz-adv-x="1288" d="M133 432v930h248v-918q0 -142 70.5 -201t197.5 -59q118 0 187 63.5t69 186.5v928h250v-963q0 -198 -141 -311t-373 -113q-256 0 -382 109.5t-126 347.5zM311 1602q0 54 36 89t95 35q56 0 92.5 -35.5t36.5 -88.5q0 -55 -37 -90t-94 -35q-58 0 -93.5 34.5t-35.5 90.5z M727 1602q0 53 35.5 88.5t93.5 35.5q56 0 92.5 -35.5t36.5 -88.5q0 -55 -36 -90t-93 -35q-59 0 -94 34.5t-35 90.5z" />
<glyph unicode="&#xdd;" horiz-adv-x="1138" d="M0 1362h276l297 -592h9l292 592h265l-447 -842v-520h-250v520zM379 1536l332 322q118 -70 118 -136q0 -30 -19.5 -53.5t-61.5 -50.5q-35 -22 -83 -48t-124.5 -65.5t-100.5 -52.5z" />
<glyph unicode="&#xde;" horiz-adv-x="1167" d="M141 0v1362h250v-211h219q229 0 357.5 -107.5t128.5 -310.5q0 -226 -145.5 -346.5t-385.5 -120.5h-174v-266h-250zM391 465h148q299 0 299 244q0 77 -21 126.5t-66 74.5t-98.5 33.5t-136.5 8.5h-125v-487z" />
<glyph unicode="&#xdf;" horiz-adv-x="1196" d="M131 -430v1474q0 416 492 416q222 0 332 -83t110 -214q0 -58 -27.5 -110t-67 -88.5t-79 -69.5t-67 -68t-27.5 -69t26 -65t65 -54t85 -56t85 -67.5t65 -91t26 -125.5q0 -157 -105.5 -243.5t-271.5 -86.5q-75 0 -157.5 18.5t-137.5 47.5l60 178q113 -63 223 -63 q68 0 107.5 33.5t39.5 101.5q0 53 -35 94.5t-84.5 71t-99 61.5t-84.5 84t-35 121q0 57 27.5 107.5t66.5 87.5t77.5 71.5t66 74.5t27.5 81q0 68 -59.5 102.5t-164.5 34.5q-235 0 -235 -219v-1487h-244z" />
<glyph unicode="&#xe0;" horiz-adv-x="1099" d="M76 471q0 276 136.5 433t395.5 157q64 0 165 -17.5t200 -54.5v-792l18 -197h-211l-14 109l-8 2q-46 -67 -120 -102.5t-161 -35.5q-106 0 -184 36t-125 103.5t-69.5 156.5t-22.5 202zM317 479q0 -332 213 -332q91 0 146 54t55 125v530q-60 27 -153 27q-71 0 -123 -31.5 t-81.5 -88.5t-43 -127t-13.5 -157zM352 1507q0 82 156 123l240 -393l-80 -68q-23 20 -68.5 60t-73.5 64.5t-62 56.5t-56 55q-56 59 -56 102z" />
<glyph unicode="&#xe1;" horiz-adv-x="1099" d="M76 471q0 276 136.5 433t395.5 157q64 0 165 -17.5t200 -54.5v-792l18 -197h-211l-14 109l-8 2q-46 -67 -120 -102.5t-161 -35.5q-106 0 -184 36t-125 103.5t-69.5 156.5t-22.5 202zM317 479q0 -332 213 -332q91 0 146 54t55 125v530q-60 27 -153 27q-71 0 -123 -31.5 t-81.5 -88.5t-43 -127t-13.5 -157zM430 1237l238 393q155 -39 155 -123q0 -42 -55 -100q-28 -31 -69 -68.5t-103 -92.5t-86 -77z" />
<glyph unicode="&#xe2;" horiz-adv-x="1099" d="M76 471q0 276 136.5 433t395.5 157q64 0 165 -17.5t200 -54.5v-792l18 -197h-211l-14 109l-8 2q-46 -67 -120 -102.5t-161 -35.5q-106 0 -184 36t-125 103.5t-69.5 156.5t-22.5 202zM252 1257q126 186 211 287q32 38 54.5 53t57.5 15t57.5 -14t55.5 -52 q115 -140 213 -286l-84 -70l-242 213l-239 -211zM317 479q0 -332 213 -332q91 0 146 54t55 125v530q-60 27 -153 27q-71 0 -123 -31.5t-81.5 -88.5t-43 -127t-13.5 -157z" />
<glyph unicode="&#xe3;" horiz-adv-x="1099" d="M76 471q0 276 136.5 433t395.5 157q64 0 165 -17.5t200 -54.5v-792l18 -197h-211l-14 109l-8 2q-46 -67 -120 -102.5t-161 -35.5q-106 0 -184 36t-125 103.5t-69.5 156.5t-22.5 202zM293 1432q79 59 172 59q55 0 143 -26.5t133 -26.5q64 0 127 37l17 -166 q-67 -39 -140 -39q-47 0 -144.5 23.5t-137.5 23.5q-76 0 -152 -43zM317 479q0 -332 213 -332q91 0 146 54t55 125v530q-60 27 -153 27q-71 0 -123 -31.5t-81.5 -88.5t-43 -127t-13.5 -157z" />
<glyph unicode="&#xe4;" horiz-adv-x="1099" d="M76 471q0 276 136.5 433t395.5 157q64 0 165 -17.5t200 -54.5v-792l18 -197h-211l-14 109l-8 2q-46 -67 -120 -102.5t-161 -35.5q-106 0 -184 36t-125 103.5t-69.5 156.5t-22.5 202zM258 1364q0 54 36 89.5t95 35.5q56 0 92.5 -36t36.5 -89q0 -55 -37 -91t-94 -36 q-58 0 -93.5 35.5t-35.5 91.5zM317 479q0 -332 213 -332q91 0 146 54t55 125v530q-60 27 -153 27q-71 0 -123 -31.5t-81.5 -88.5t-43 -127t-13.5 -157zM664 1364q0 54 36 89.5t93 35.5q56 0 92.5 -36t36.5 -89q0 -56 -36 -91.5t-93 -35.5q-59 0 -94 35.5t-35 91.5z" />
<glyph unicode="&#xe5;" horiz-adv-x="1099" d="M76 471q0 276 136.5 433t395.5 157q64 0 165 -17.5t200 -54.5v-792l18 -197h-211l-14 109l-8 2q-46 -67 -120 -102.5t-161 -35.5q-106 0 -184 36t-125 103.5t-69.5 156.5t-22.5 202zM317 479q0 -332 213 -332q91 0 146 54t55 125v530q-60 27 -153 27q-71 0 -123 -31.5 t-81.5 -88.5t-43 -127t-13.5 -157zM389 1346q0 83 54.5 136.5t140.5 53.5q88 0 139 -51.5t51 -128.5q0 -89 -53 -145t-143 -56q-88 0 -138.5 54.5t-50.5 136.5zM510 1346q0 -38 19 -62t55 -24q35 0 54 24.5t19 61.5q0 84 -73 84q-74 0 -74 -84z" />
<glyph unicode="&#xe6;" horiz-adv-x="1513" d="M76 477q0 273 134.5 428.5t387.5 155.5q65 0 145.5 -18.5t147.5 -51.5q109 70 254 70q152 0 238.5 -75t86.5 -210q0 -65 -22.5 -118.5t-59 -90t-88 -64t-102.5 -43t-110.5 -25.5t-105 -13.5t-91.5 -3.5q5 -115 71 -188.5t185 -73.5q129 0 260 90l74 -162 q-46 -40 -143 -77.5t-226 -37.5q-209 0 -324 115q-144 -117 -303 -117q-112 0 -193.5 41t-127.5 114t-67 160.5t-21 194.5zM317 500q0 -74 11.5 -134.5t36 -110.5t68.5 -77.5t104 -27.5q100 0 165 65q-57 114 -57 279q0 208 98 348q-97 43 -176 43q-65 0 -114.5 -31 t-78.5 -85.5t-43 -122t-14 -146.5zM883 575q49 -1 106 7.5t119.5 27.5t103.5 60t41 96q0 56 -33.5 88.5t-89.5 32.5q-59 0 -106.5 -27t-76.5 -72.5t-45.5 -99.5t-18.5 -113z" />
<glyph unicode="&#xe7;" horiz-adv-x="931" d="M76 510q0 119 28.5 215t75 157.5t109.5 102.5t127.5 58.5t132.5 17.5q108 0 208.5 -47.5t168.5 -147.5l-154 -127q-102 127 -219 127q-107 0 -170.5 -88.5t-63.5 -257.5q0 -166 64.5 -260t196.5 -94q114 0 235 88l92 -164q-140 -113 -344 -119l-26 -106q83 -6 133.5 -48 t50.5 -114q0 -54 -21.5 -94t-57.5 -62t-77 -32.5t-86 -10.5q-97 0 -184 37l33 111q84 -27 137 -27q102 0 102 72q0 46 -46 62t-138 16l66 205q-180 29 -276.5 165t-96.5 365z" />
<glyph unicode="&#xe8;" horiz-adv-x="946" d="M76 494q0 -118 27.5 -212t84 -165t149 -109.5t216.5 -38.5q125 0 222 39.5t138 75.5l-75 162q-126 -90 -258 -90q-122 0 -186.5 75.5t-71.5 186.5q46 0 91.5 3.5t105 13.5t110.5 25.5t102.5 43t88 64t59 90t22.5 118.5q0 135 -87 210t-239 75q-119 0 -215 -46 t-157.5 -125t-94 -180.5t-32.5 -215.5zM297 1507q0 82 156 123l239 -393l-80 -68q-23 20 -68.5 60t-73.5 64.5t-62 56.5t-56 55q-55 58 -55 102zM313 575q3 80 29.5 148.5t83.5 116t135 47.5q56 0 89.5 -32.5t33.5 -88.5q0 -55 -41 -96t-104 -60t-120 -27.5t-106 -7.5z" />
<glyph unicode="&#xe9;" horiz-adv-x="946" d="M76 494q0 114 32.5 215.5t94 180.5t157.5 125t215 46q152 0 239 -75t87 -210q0 -65 -22.5 -118.5t-59 -90t-88 -64t-102.5 -43t-110.5 -25.5t-105 -13.5t-91.5 -3.5q7 -111 71.5 -186.5t186.5 -75.5q132 0 258 90l75 -162q-41 -36 -138 -75.5t-222 -39.5 q-124 0 -216.5 38.5t-149 109.5t-84 165t-27.5 212zM313 575q49 -1 106 7.5t120 27.5t104 60t41 96q0 56 -33.5 88.5t-89.5 32.5q-78 0 -135 -47.5t-83.5 -116t-29.5 -148.5zM358 1237l238 393q156 -40 156 -123q0 -41 -56 -100q-28 -31 -69 -68.5t-103 -92.5t-86 -77z" />
<glyph unicode="&#xea;" horiz-adv-x="946" d="M76 494q0 -118 27.5 -212t84 -165t149 -109.5t216.5 -38.5q125 0 222 39.5t138 75.5l-75 162q-126 -90 -258 -90q-122 0 -186.5 75.5t-71.5 186.5q46 0 91.5 3.5t105 13.5t110.5 25.5t102.5 43t88 64t59 90t22.5 118.5q0 135 -87 210t-239 75q-119 0 -215 -46 t-157.5 -125t-94 -180.5t-32.5 -215.5zM217 1257q126 186 211 287q31 38 54.5 53t58.5 15t57 -14t55 -52q115 -140 213 -286l-84 -70l-241 213l-240 -211zM313 575q3 80 29.5 148.5t83.5 116t135 47.5q56 0 89.5 -32.5t33.5 -88.5q0 -55 -41 -96t-104 -60t-120 -27.5 t-106 -7.5z" />
<glyph unicode="&#xeb;" horiz-adv-x="946" d="M76 494q0 -118 27.5 -212t84 -165t149 -109.5t216.5 -38.5q125 0 222 39.5t138 75.5l-75 162q-126 -90 -258 -90q-122 0 -186.5 75.5t-71.5 186.5q46 0 91.5 3.5t105 13.5t110.5 25.5t102.5 43t88 64t59 90t22.5 118.5q0 135 -87 210t-239 75q-119 0 -215 -46 t-157.5 -125t-94 -180.5t-32.5 -215.5zM205 1364q0 54 36 89.5t95 35.5q56 0 92.5 -36t36.5 -89q0 -55 -37 -91t-94 -36q-58 0 -93.5 35.5t-35.5 91.5zM313 575q3 80 29.5 148.5t83.5 116t135 47.5q56 0 89.5 -32.5t33.5 -88.5q0 -55 -41 -96t-104 -60t-120 -27.5t-106 -7.5 zM610 1364q0 54 36 89.5t93 35.5q56 0 92.5 -36t36.5 -89q0 -56 -36 -91.5t-93 -35.5q-59 0 -94 35.5t-35 91.5z" />
<glyph unicode="&#xec;" horiz-adv-x="499" d="M39 1507q0 82 156 123l239 -393l-80 -68q-23 20 -68.5 60t-73.5 64.5t-62 56.5t-56 55q-55 58 -55 102zM133 0v1030h244v-1030h-244z" />
<glyph unicode="&#xed;" horiz-adv-x="499" d="M86 1237l238 393q155 -39 155 -123q0 -42 -55 -100q-28 -31 -69 -68.5t-103 -92.5t-86 -77zM133 0v1030h244v-1030h-244z" />
<glyph unicode="&#xee;" horiz-adv-x="499" d="M-68 1257q126 186 211 287q31 38 54.5 53t58.5 15t57.5 -14t55.5 -52q115 -140 213 -286l-84 -70l-242 213l-240 -211zM133 0v1030h244v-1030h-244z" />
<glyph unicode="&#xef;" horiz-adv-x="499" d="M-76 1364q0 54 36 89.5t95 35.5q56 0 92.5 -36t36.5 -89q0 -55 -37 -91t-94 -36q-58 0 -93.5 35.5t-35.5 91.5zM133 0v1030h244v-1030h-244zM330 1364q0 54 36 89.5t93 35.5q56 0 92.5 -36t36.5 -89q0 -56 -36 -91.5t-93 -35.5q-59 0 -94 35.5t-35 91.5z" />
<glyph unicode="&#xf0;" horiz-adv-x="1038" d="M61 428q0 212 112 347.5t304 135.5q135 0 234 -65q-40 146 -127 248l-170 -117l-95 133l136 92q-90 55 -205 76l49 190q205 -26 350 -133l172 117l92 -133l-137 -96q203 -253 203 -658q0 -129 -26.5 -233.5t-82 -187t-150.5 -128t-222 -45.5q-114 0 -199 34.5t-136.5 97 t-76.5 144t-25 181.5zM313 436q0 -130 50 -200t145 -70q110 0 164.5 101.5t54.5 267.5q0 83 -2 112q-37 31 -97.5 53.5t-115.5 22.5q-99 0 -149 -74.5t-50 -212.5z" />
<glyph unicode="&#xf1;" horiz-adv-x="1101" d="M115 1030h204l21 -129q113 160 315 160q157 0 241.5 -89t84.5 -267v-705h-244v651q0 52 -6 88t-21.5 68.5t-47 48.5t-78.5 16q-90 0 -149.5 -62t-59.5 -144v-666h-244v852zM274 1432q79 59 172 59q54 0 143 -26.5t134 -26.5q64 0 127 37l16 -166q-67 -39 -139 -39 q-47 0 -145 23.5t-138 23.5q-75 0 -151 -43z" />
<glyph unicode="&#xf2;" horiz-adv-x="1064" d="M74 516q0 -272 116.5 -409.5t327.5 -137.5q103 0 189 35t151.5 104t102 180t36.5 255q0 97 -17 176.5t-44.5 132.5t-67 92.5t-78 61t-85 35t-81.5 17t-73 3.5q-68 0 -131 -15.5t-127.5 -54.5t-112 -98.5t-77 -156.5t-29.5 -220zM309 1507q0 82 156 123l240 -393l-80 -68 q-23 20 -68.5 60t-73.5 64.5t-62 56.5t-56 55q-56 59 -56 102zM322 545q0 154 54.5 245t162.5 91q112 0 160.5 -95t48.5 -276q0 -168 -52.5 -264t-160.5 -96q-53 0 -92 23.5t-61.5 60t-36.5 91t-18.5 106t-4.5 114.5z" />
<glyph unicode="&#xf3;" horiz-adv-x="1064" d="M74 516q0 123 29.5 220t77 156.5t112 98.5t127.5 54.5t131 15.5q38 0 73 -3.5t81.5 -17t85 -35t78 -61t67 -92.5t44.5 -132.5t17 -176.5q0 -144 -36.5 -255t-102 -180t-151.5 -104t-189 -35q-211 0 -327.5 137.5t-116.5 409.5zM322 545q0 -63 4.5 -114.5t18.5 -106 t36.5 -91t61.5 -60t92 -23.5q108 0 160.5 96t52.5 264q0 181 -48.5 276t-160.5 95q-108 0 -162.5 -91t-54.5 -245zM387 1237l238 393q155 -39 155 -123q0 -42 -55 -100q-28 -31 -69 -68.5t-103 -92.5t-86 -77z" />
<glyph unicode="&#xf4;" horiz-adv-x="1064" d="M74 516q0 -272 116.5 -409.5t327.5 -137.5q103 0 189 35t151.5 104t102 180t36.5 255q0 97 -17 176.5t-44.5 132.5t-67 92.5t-78 61t-85 35t-81.5 17t-73 3.5q-68 0 -131 -15.5t-127.5 -54.5t-112 -98.5t-77 -156.5t-29.5 -220zM217 1257q126 186 211 287q31 38 54.5 53 t58.5 15t57 -14t55 -52q115 -140 213 -286l-84 -70l-241 213l-240 -211zM322 545q0 154 54.5 245t162.5 91q112 0 160.5 -95t48.5 -276q0 -168 -52.5 -264t-160.5 -96q-53 0 -92 23.5t-61.5 60t-36.5 91t-18.5 106t-4.5 114.5z" />
<glyph unicode="&#xf5;" horiz-adv-x="1064" d="M74 516q0 123 29.5 220t77 156.5t112 98.5t127.5 54.5t131 15.5q38 0 73 -3.5t81.5 -17t85 -35t78 -61t67 -92.5t44.5 -132.5t17 -176.5q0 -144 -36.5 -255t-102 -180t-151.5 -104t-189 -35q-211 0 -327.5 137.5t-116.5 409.5zM246 1432q79 59 172 59q54 0 142 -26.5 t134 -26.5q64 0 127 37l17 -166q-67 -39 -140 -39q-47 0 -144.5 23.5t-137.5 23.5q-76 0 -152 -43zM322 545q0 -63 4.5 -114.5t18.5 -106t36.5 -91t61.5 -60t92 -23.5q108 0 160.5 96t52.5 264q0 181 -48.5 276t-160.5 95q-108 0 -162.5 -91t-54.5 -245z" />
<glyph unicode="&#xf6;" horiz-adv-x="1064" d="M74 516q0 -272 116.5 -409.5t327.5 -137.5q103 0 189 35t151.5 104t102 180t36.5 255q0 97 -17 176.5t-44.5 132.5t-67 92.5t-78 61t-85 35t-81.5 17t-73 3.5q-68 0 -131 -15.5t-127.5 -54.5t-112 -98.5t-77 -156.5t-29.5 -220zM209 1364q0 54 36 89.5t95 35.5 q56 0 92.5 -36t36.5 -89q0 -55 -37 -91t-94 -36q-58 0 -93.5 35.5t-35.5 91.5zM322 545q0 154 54.5 245t162.5 91q112 0 160.5 -95t48.5 -276q0 -168 -52.5 -264t-160.5 -96q-53 0 -92 23.5t-61.5 60t-36.5 91t-18.5 106t-4.5 114.5zM614 1364q0 54 36 89.5t93 35.5 q56 0 92.5 -36t36.5 -89q0 -56 -36 -91.5t-93 -35.5q-59 0 -94 35.5t-35 91.5z" />
<glyph unicode="&#xf7;" d="M133 545v196h830v-196h-830zM418 262q0 58 35.5 97.5t95.5 39.5q62 0 98.5 -37t36.5 -98t-37 -101t-96 -40q-63 0 -98 37.5t-35 101.5zM418 1034q0 58 35.5 97.5t95.5 39.5q62 0 98.5 -37t36.5 -98t-37 -101t-96 -40q-63 0 -98 37.5t-35 101.5z" />
<glyph unicode="&#xf8;" horiz-adv-x="1064" d="M74 516q0 123 29.5 220t77 156.5t112 98.5t127.5 54.5t131 15.5q90 0 166 -25l74 150l149 -72l-82 -160q139 -132 139 -411q0 -144 -36.5 -255t-102 -180t-151.5 -104t-189 -35q-85 0 -162 25l-82 -166l-147 74l88 178q-141 135 -141 436zM322 545q0 -145 22 -228 l274 547q-39 17 -79 17q-108 0 -162.5 -91t-54.5 -245zM453 166q31 -16 82 -16q108 0 160.5 96t52.5 264q0 118 -21 201z" />
<glyph unicode="&#xf9;" horiz-adv-x="1105" d="M127 332v698h244v-653q0 -52 6 -87.5t22 -67t48.5 -47t82.5 -15.5q82 0 142.5 60.5t60.5 135.5v674h244v-858l16 -172h-209l-14 121h-8q-51 -74 -128.5 -112t-168.5 -38q-338 0 -338 361zM299 1507q0 82 156 123l239 -393l-80 -68q-23 20 -68.5 60t-73.5 64.5t-62 56.5 t-56 55q-55 58 -55 102z" />
<glyph unicode="&#xfa;" horiz-adv-x="1105" d="M127 332v698h244v-653q0 -52 6 -87.5t22 -67t48.5 -47t82.5 -15.5q82 0 142.5 60.5t60.5 135.5v674h244v-858l16 -172h-209l-14 121h-8q-51 -74 -128.5 -112t-168.5 -38q-338 0 -338 361zM397 1237l238 393q156 -40 156 -123q0 -41 -56 -100q-28 -31 -69 -68.5 t-103 -92.5t-86 -77z" />
<glyph unicode="&#xfb;" horiz-adv-x="1105" d="M127 332v698h244v-653q0 -52 6 -87.5t22 -67t48.5 -47t82.5 -15.5q82 0 142.5 60.5t60.5 135.5v674h244v-858l16 -172h-209l-14 121h-8q-51 -74 -128.5 -112t-168.5 -38q-338 0 -338 361zM221 1257q126 186 211 287q31 38 54.5 53t58.5 15t57 -14t55 -52 q115 -140 213 -286l-84 -70l-241 213l-240 -211z" />
<glyph unicode="&#xfc;" horiz-adv-x="1105" d="M127 332v698h244v-653q0 -52 6 -87.5t22 -67t48.5 -47t82.5 -15.5q82 0 142.5 60.5t60.5 135.5v674h244v-858l16 -172h-209l-14 121h-8q-51 -74 -128.5 -112t-168.5 -38q-338 0 -338 361zM219 1364q0 54 36 89.5t95 35.5q56 0 92.5 -36t36.5 -89q0 -55 -37 -91t-94 -36 q-58 0 -93.5 35.5t-35.5 91.5zM625 1364q0 54 35.5 89.5t93.5 35.5q56 0 92.5 -36t36.5 -89q0 -56 -36 -91.5t-93 -35.5q-59 0 -94 35.5t-35 91.5z" />
<glyph unicode="&#xfd;" horiz-adv-x="1097" d="M127 406v624h244v-581q0 -46 2.5 -76t12 -62.5t28 -51t51.5 -30.5t80 -12q89 0 138.5 46.5t49.5 133.5v633h242v-901q0 -169 -17 -285q-30 -187 -141.5 -288t-300.5 -101q-162 0 -247 71.5t-85 197.5q0 198 215 350q-272 40 -272 332zM383 1237l238 393q155 -39 155 -123 q0 -42 -55 -100q-28 -31 -69 -68.5t-103 -92.5t-86 -77zM408 -238q0 -62 35 -96.5t102 -34.5q190 0 190 318v172q-74 -36 -128 -69.5t-102 -77t-72.5 -97t-24.5 -115.5z" />
<glyph unicode="&#xfe;" horiz-adv-x="1085" d="M123 -430v1853h244v-391q122 29 211 29q434 0 434 -537q0 -267 -115 -410t-319 -143q-115 0 -211 56v-457h-244zM367 223q36 -30 88.5 -49.5t99.5 -19.5q100 0 156.5 91.5t56.5 260.5q0 83 -9.5 143.5t-35 114.5t-76.5 82t-127 28q-82 0 -153 -22v-629z" />
<glyph unicode="&#xff;" horiz-adv-x="1097" d="M127 406v624h244v-581q0 -46 2.5 -76t12 -62.5t28 -51t51.5 -30.5t80 -12q89 0 138.5 46.5t49.5 133.5v633h242v-901q0 -169 -17 -285q-30 -187 -141.5 -288t-300.5 -101q-162 0 -247 71.5t-85 197.5q0 198 215 350q-272 40 -272 332zM221 1364q0 54 36 89.5t95 35.5 q56 0 92.5 -36t36.5 -89q0 -55 -37 -91t-94 -36q-58 0 -93.5 35.5t-35.5 91.5zM408 -238q0 -62 35 -96.5t102 -34.5q190 0 190 318v172q-74 -36 -128 -69.5t-102 -77t-72.5 -97t-24.5 -115.5zM627 1364q0 54 35.5 89.5t93.5 35.5q56 0 92.5 -36t36.5 -89q0 -56 -36 -91.5 t-93 -35.5q-59 0 -94 35.5t-35 91.5z" />
<glyph unicode="&#x100;" horiz-adv-x="1280" d="M25 0l471 1362h278l481 -1362h-266l-123 360h-479l-121 -360h-241zM338 1503v178h588v-178h-588zM436 549h381l-184 584h-6z" />
<glyph unicode="&#x101;" horiz-adv-x="1099" d="M76 471q0 276 136.5 433t395.5 157q64 0 165 -17.5t200 -54.5v-792l18 -197h-211l-14 109l-8 2q-46 -67 -120 -102.5t-161 -35.5q-106 0 -184 36t-125 103.5t-69.5 156.5t-22.5 202zM276 1268v176h588v-176h-588zM317 479q0 -332 213 -332q91 0 146 54t55 125v530 q-60 27 -153 27q-71 0 -123 -31.5t-81.5 -88.5t-43 -127t-13.5 -157z" />
<glyph unicode="&#x102;" horiz-adv-x="1280" d="M25 0l471 1362h278l481 -1362h-266l-123 360h-479l-121 -360h-241zM283 1729l151 63q31 -81 77.5 -121.5t121.5 -40.5t118 37t78 125l150 -61q-88 -256 -354 -256q-74 0 -134 21.5t-100.5 58.5t-66.5 80t-41 94zM436 549h381l-184 584h-6z" />
<glyph unicode="&#x103;" horiz-adv-x="1099" d="M76 471q0 276 136.5 433t395.5 157q64 0 165 -17.5t200 -54.5v-792l18 -197h-211l-14 109l-8 2q-46 -67 -120 -102.5t-161 -35.5q-106 0 -184 36t-125 103.5t-69.5 156.5t-22.5 202zM242 1503l151 35q30 -93 75 -132.5t114 -39.5q64 0 109 38.5t79 133.5l145 -35 q-38 -138 -123 -215.5t-217 -77.5q-75 0 -134.5 24t-98 67t-63 92.5t-37.5 109.5zM317 479q0 -332 213 -332q91 0 146 54t55 125v530q-60 27 -153 27q-71 0 -123 -31.5t-81.5 -88.5t-43 -127t-13.5 -157z" />
<glyph unicode="&#x104;" horiz-adv-x="1280" d="M25 0l471 1362h278l481 -1362q-81 -48 -135.5 -120.5t-54.5 -135.5q0 -40 17.5 -61t62.5 -21q44 0 98 23l49 -152q-84 -43 -200 -43q-66 0 -113.5 18t-72 49t-35.5 64t-11 70q0 92 48 172t112 137h-31l-123 360h-479l-121 -360h-241zM436 549h381l-188 584h-2z" />
<glyph unicode="&#x105;" horiz-adv-x="1099" d="M76 471q0 276 136.5 433t395.5 157q64 0 165 -17.5t200 -54.5v-792l20 -197q-66 -53 -116 -124.5t-50 -131.5q0 -40 17.5 -61t62.5 -21t99 23l49 -152q-84 -43 -201 -43q-53 0 -94.5 12.5t-66.5 32t-41.5 47t-22.5 54t-6 55.5q0 91 47.5 171t109.5 138l-14 109l-8 2 q-46 -67 -120 -102.5t-161 -35.5q-106 0 -184 36t-125 103.5t-69.5 156.5t-22.5 202zM317 479q0 -332 213 -332q91 0 146 54t55 125v530q-60 27 -153 27q-71 0 -123 -31.5t-81.5 -88.5t-43 -127t-13.5 -157z" />
<glyph unicode="&#x106;" horiz-adv-x="1208" d="M92 674q0 155 37 279t97 203.5t142 132.5t167 75t176 22q132 0 254 -60t213 -193l-179 -129q-67 86 -139.5 129t-161.5 43q-160 0 -255 -128.5t-95 -357.5q0 -241 91 -374.5t274 -133.5q159 0 319 144l129 -164q-199 -187 -463 -187q-285 0 -445.5 178t-160.5 521z M502 1536l332 322q118 -70 118 -136q0 -30 -20 -53.5t-62 -50.5q-27 -17 -68 -39.5t-74 -40t-85.5 -45t-79.5 -41.5z" />
<glyph unicode="&#x107;" horiz-adv-x="931" d="M76 510q0 119 28.5 215t75 157.5t109.5 102.5t127.5 58.5t132.5 17.5q108 0 208.5 -47.5t168.5 -147.5l-154 -127q-102 127 -219 127q-107 0 -170.5 -88.5t-63.5 -257.5q0 -166 64.5 -260t196.5 -94q114 0 235 88l92 -164q-65 -53 -156.5 -86t-199.5 -33 q-227 0 -351 139.5t-124 399.5zM383 1237l238 393q155 -39 155 -123q0 -42 -55 -100q-28 -31 -69 -68.5t-103 -92.5t-86 -77z" />
<glyph unicode="&#x108;" horiz-adv-x="1208" d="M92 674q0 155 37 279t97 203.5t142 132.5t167 75t176 22q132 0 254 -60t213 -193l-179 -129q-67 86 -139.5 129t-161.5 43q-160 0 -255 -128.5t-95 -357.5q0 -241 91 -374.5t274 -133.5q159 0 319 144l129 -164q-199 -187 -463 -187q-285 0 -445.5 178t-160.5 521z M362 1520q126 164 226 254q54 49 100 49q53 0 96 -43q143 -143 234 -258l-84 -72l-246 176l-242 -176z" />
<glyph unicode="&#x109;" horiz-adv-x="931" d="M76 510q0 119 28.5 215t75 157.5t109.5 102.5t127.5 58.5t132.5 17.5q108 0 208.5 -47.5t168.5 -147.5l-154 -127q-102 127 -219 127q-107 0 -170.5 -88.5t-63.5 -257.5q0 -166 64.5 -260t196.5 -94q114 0 235 88l92 -164q-65 -53 -156.5 -86t-199.5 -33 q-227 0 -351 139.5t-124 399.5zM223 1260q123 181 211 286q31 38 54.5 53t58.5 15t57 -14t55 -52q115 -140 213 -286l-84 -70l-241 213l-240 -211z" />
<glyph unicode="&#x10a;" horiz-adv-x="1208" d="M92 674q0 155 37 279t97 203.5t142 132.5t167 75t176 22q132 0 254 -60t213 -193l-179 -129q-67 86 -139.5 129t-161.5 43q-160 0 -255 -128.5t-95 -357.5q0 -241 91 -374.5t274 -133.5q159 0 319 144l129 -164q-199 -187 -463 -187q-285 0 -445.5 178t-160.5 521z M537 1624q0 58 39.5 97.5t101.5 39.5t101.5 -39.5t39.5 -97.5q0 -59 -40 -97t-101 -38q-64 0 -102.5 38t-38.5 97z" />
<glyph unicode="&#x10b;" horiz-adv-x="931" d="M76 510q0 119 28.5 215t75 157.5t109.5 102.5t127.5 58.5t132.5 17.5q108 0 208.5 -47.5t168.5 -147.5l-154 -127q-102 127 -219 127q-107 0 -170.5 -88.5t-63.5 -257.5q0 -166 64.5 -260t196.5 -94q114 0 235 88l92 -164q-65 -53 -156.5 -86t-199.5 -33 q-227 0 -351 139.5t-124 399.5zM393 1325q0 58 40 97.5t102 39.5t101.5 -39.5t39.5 -97.5q0 -59 -40 -97t-101 -38q-64 0 -103 38t-39 97z" />
<glyph unicode="&#x10c;" horiz-adv-x="1208" d="M92 674q0 155 37 279t97 203.5t142 132.5t167 75t176 22q132 0 254 -60t213 -193l-179 -129q-67 86 -139.5 129t-161.5 43q-160 0 -255 -128.5t-95 -357.5q0 -241 91 -374.5t274 -133.5q159 0 319 144l129 -164q-199 -187 -463 -187q-285 0 -445.5 178t-160.5 521z M352 1753l84 70l242 -176l246 176l84 -72q-91 -115 -234 -258q-43 -43 -96 -43q-46 0 -100 49q-100 90 -226 254z" />
<glyph unicode="&#x10d;" horiz-adv-x="931" d="M76 510q0 119 28.5 215t75 157.5t109.5 102.5t127.5 58.5t132.5 17.5q108 0 208.5 -47.5t168.5 -147.5l-154 -127q-102 127 -219 127q-107 0 -170.5 -88.5t-63.5 -257.5q0 -166 64.5 -260t196.5 -94q114 0 235 88l92 -164q-65 -53 -156.5 -86t-199.5 -33 q-227 0 -351 139.5t-124 399.5zM205 1542l84 70l241 -213l240 211l84 -66q-126 -186 -211 -287q-31 -37 -54.5 -52t-58.5 -15t-57 13.5t-55 51.5q-111 135 -213 287z" />
<glyph unicode="&#x10e;" horiz-adv-x="1318" d="M143 0v1362h445q301 0 470 -160t169 -473q0 -156 -34 -281.5t-92 -208t-139 -137t-171.5 -78.5t-192.5 -24h-455zM246 1753l84 70l241 -176l246 176l84 -72q-95 -120 -233 -258q-43 -43 -97 -43q-46 0 -100 49q-97 87 -225 254zM393 197h209q175 0 274 126.5t99 368.5 q0 108 -20.5 190.5t-56 135t-87.5 85.5t-109 46.5t-127 13.5h-182v-966z" />
<glyph unicode="&#x10f;" horiz-adv-x="1263" d="M76 475q0 267 131 426.5t364 159.5q76 0 160 -25v387h242v-1222l18 -201h-209l-16 111l-8 2q-47 -70 -120 -107t-159 -37q-93 0 -164.5 28.5t-115.5 75.5t-72.5 114t-39.5 137t-11 151zM317 498q0 -348 211 -348q89 0 146 52.5t57 116.5v531q-76 33 -153 33 q-70 0 -122.5 -31.5t-81.5 -86.5t-43 -121.5t-14 -145.5zM1133 981v430q62 16 104 16q50 0 74 -16.5t24 -52.5q0 -28 -8 -74q-11 -61 -41.5 -159.5t-54.5 -161.5z" />
<glyph unicode="&#x110;" horiz-adv-x="1339" d="M20 588v196h144v578h444q301 0 470 -160t169 -473q0 -156 -34 -281.5t-92 -208t-139 -137t-171.5 -78.5t-192.5 -24h-454v588h-144zM414 197h209q175 0 273.5 126.5t98.5 368.5q0 134 -30.5 228.5t-87 146t-125 74t-156.5 22.5h-182v-379h346v-196h-346v-391z" />
<glyph unicode="&#x111;" horiz-adv-x="1099" d="M76 455q0 166 57.5 293.5t170.5 200.5t267 73q76 0 160 -25v142h-330v159h330v125h242v-125h114v-159h-114v-938l18 -201h-209l-16 111l-8 2q-47 -70 -120 -107t-159 -37q-92 0 -164 28.5t-116 74.5t-72.5 110.5t-39.5 131t-11 141.5zM317 477q0 -67 10 -122t33 -103 t65.5 -75t102.5 -27q89 0 146 52.5t57 116.5v492q-76 33 -153 33q-70 0 -122.5 -31.5t-81.5 -85t-43 -116.5t-14 -134z" />
<glyph unicode="&#x112;" horiz-adv-x="1042" d="M143 0v1362h822v-217h-572v-342h490v-217h-490v-369h586v-217h-836zM244 1503v178h587v-178h-587z" />
<glyph unicode="&#x113;" horiz-adv-x="946" d="M76 494q0 -118 27.5 -212t84 -165t149 -109.5t216.5 -38.5q125 0 222 39.5t138 75.5l-75 162q-126 -90 -258 -90q-122 0 -186.5 75.5t-71.5 186.5q46 0 91.5 3.5t105 13.5t110.5 25.5t102.5 43t88 64t59 90t22.5 118.5q0 135 -87 210t-239 75q-119 0 -215 -46 t-157.5 -125t-94 -180.5t-32.5 -215.5zM248 1268v176h588v-176h-588zM313 575q3 80 29.5 148.5t83.5 116t135 47.5q56 0 89.5 -32.5t33.5 -88.5q0 -55 -41 -96t-104 -60t-120 -27.5t-106 -7.5z" />
<glyph unicode="&#x114;" horiz-adv-x="1042" d="M143 0v1362h822v-217h-572v-342h490v-217h-490v-369h586v-217h-836zM201 1729l151 63q31 -81 77.5 -121.5t121.5 -40.5t119 37t78 125l149 -61q-88 -256 -354 -256q-74 0 -134 21.5t-100.5 58.5t-66.5 80t-41 94z" />
<glyph unicode="&#x115;" horiz-adv-x="946" d="M76 494q0 -118 27.5 -212t84 -165t149 -109.5t216.5 -38.5q125 0 222 39.5t138 75.5l-75 162q-126 -90 -258 -90q-122 0 -186.5 75.5t-71.5 186.5q46 0 91.5 3.5t105 13.5t110.5 25.5t102.5 43t88 64t59 90t22.5 118.5q0 135 -87 210t-239 75q-119 0 -215 -46 t-157.5 -125t-94 -180.5t-32.5 -215.5zM203 1503l151 35q30 -93 75 -132.5t114 -39.5q64 0 109 38.5t79 133.5l146 -35q-38 -138 -123 -215.5t-217 -77.5q-75 0 -134.5 24t-98.5 66.5t-63.5 92.5t-37.5 110zM313 575q3 80 29.5 148.5t83.5 116t135 47.5q56 0 89.5 -32.5 t33.5 -88.5q0 -55 -41 -96t-104 -60t-120 -27.5t-106 -7.5z" />
<glyph unicode="&#x116;" horiz-adv-x="1042" d="M143 0v1362h822v-217h-572v-342h490v-217h-490v-369h586v-217h-836zM414 1624q0 58 39.5 97.5t101.5 39.5t101.5 -39.5t39.5 -97.5q0 -59 -40 -97t-101 -38q-64 0 -102.5 38t-38.5 97z" />
<glyph unicode="&#x117;" horiz-adv-x="946" d="M76 494q0 -118 27.5 -212t84 -165t149 -109.5t216.5 -38.5q125 0 222 39.5t138 75.5l-75 162q-126 -90 -258 -90q-122 0 -186.5 75.5t-71.5 186.5q46 0 91.5 3.5t105 13.5t110.5 25.5t102.5 43t88 64t59 90t22.5 118.5q0 135 -87 210t-239 75q-119 0 -215 -46 t-157.5 -125t-94 -180.5t-32.5 -215.5zM313 575q3 80 29.5 148.5t83.5 116t135 47.5q56 0 89.5 -32.5t33.5 -88.5q0 -55 -41 -96t-104 -60t-120 -27.5t-106 -7.5zM401 1325q0 58 40 97.5t102 39.5t101.5 -39.5t39.5 -97.5q0 -59 -40 -97t-101 -38q-64 0 -103 38t-39 97z" />
<glyph unicode="&#x118;" horiz-adv-x="1042" d="M143 0v1362h822v-217h-572v-342h490v-217h-490v-369h586v-217q-107 -46 -169 -117.5t-62 -138.5q0 -40 17.5 -61t61.5 -21q45 0 99 23l49 -152q-84 -43 -201 -43q-53 0 -94.5 12.5t-66.5 32t-41.5 47t-22.5 54t-6 55.5q0 92 52.5 172t123.5 137h-576z" />
<glyph unicode="&#x119;" horiz-adv-x="946" d="M76 494q0 114 32.5 215.5t94 180.5t157.5 125t215 46q152 0 239 -75t87 -210q0 -65 -22.5 -118.5t-59 -90t-88 -64t-102.5 -43t-110.5 -25.5t-105 -13.5t-91.5 -3.5q7 -111 71.5 -186.5t186.5 -75.5q132 0 258 90l75 -162q-35 -27 -170 -98q-66 -35 -114.5 -107 t-48.5 -135q0 -40 17.5 -61t61.5 -21q45 0 99 23l49 -152q-84 -43 -201 -43q-53 0 -94.5 12.5t-66.5 32t-41.5 47t-22.5 54t-6 55.5q0 145 131 280q-111 7 -194.5 48.5t-134.5 111t-76 160.5t-25 203zM313 575q49 -1 106 7.5t120 27.5t104 60t41 96q0 56 -33.5 88.5 t-89.5 32.5q-78 0 -135 -47.5t-83.5 -116t-29.5 -148.5z" />
<glyph unicode="&#x11a;" horiz-adv-x="1042" d="M143 0v1362h822v-217h-572v-342h490v-217h-490v-369h586v-217h-836zM213 1753l84 70l242 -176l245 176l84 -72q-95 -120 -233 -258q-43 -43 -96 -43q-47 0 -101 49q-97 87 -225 254z" />
<glyph unicode="&#x11b;" horiz-adv-x="946" d="M76 494q0 -118 27.5 -212t84 -165t149 -109.5t216.5 -38.5q125 0 222 39.5t138 75.5l-75 162q-126 -90 -258 -90q-122 0 -186.5 75.5t-71.5 186.5q46 0 91.5 3.5t105 13.5t110.5 25.5t102.5 43t88 64t59 90t22.5 118.5q0 135 -87 210t-239 75q-119 0 -215 -46 t-157.5 -125t-94 -180.5t-32.5 -215.5zM219 1542l84 70l242 -213l239 211l84 -66q-126 -186 -211 -287q-31 -38 -54 -52.5t-58 -14.5t-57.5 14t-55.5 51q-111 135 -213 287zM313 575q3 80 29.5 148.5t83.5 116t135 47.5q56 0 89.5 -32.5t33.5 -88.5q0 -55 -41 -96t-104 -60 t-120 -27.5t-106 -7.5z" />
<glyph unicode="&#x11c;" horiz-adv-x="1288" d="M92 678q0 153 35.5 276.5t94 202.5t137.5 132t161.5 75t171.5 22q307 0 484 -245l-181 -135q-135 170 -305 170q-160 0 -251 -127t-91 -355q0 -516 357 -516q60 0 123 14.5t94 34.5v297h-193v189h442v-607q-87 -60 -212.5 -95.5t-264.5 -35.5q-285 0 -443.5 177 t-158.5 526zM362 1520q126 164 226 254q54 49 100 49q53 0 96 -43q143 -143 234 -258l-84 -72l-246 176l-242 -176z" />
<glyph unicode="&#x11d;" horiz-adv-x="1097" d="M74 539q0 127 38.5 227.5t107 164.5t160 97t200.5 33q93 0 201.5 -19.5t195.5 -56.5v-780q0 -188 -6 -262q-19 -233 -130.5 -358.5t-322.5 -125.5q-168 0 -256 72.5t-88 202.5q0 212 227 364q-67 10 -124 39.5t-103.5 80.5t-73 133.5t-26.5 187.5zM242 1257 q126 186 211 287q32 38 54.5 53t57.5 15t57.5 -14t55.5 -52q115 -140 213 -286l-84 -70l-242 213l-239 -211zM317 555q0 -53 4 -94t17 -86.5t36 -75.5t64.5 -50t98.5 -20q84 0 140 55t56 146v428q-73 25 -158 25q-124 0 -191 -89.5t-67 -238.5zM397 -227q0 -69 38 -102 t104 -33q58 0 97.5 26t60.5 77t29.5 112.5t8.5 146.5v133q-338 -171 -338 -360z" />
<glyph unicode="&#x11e;" horiz-adv-x="1288" d="M92 678q0 153 35.5 276.5t94 202.5t137.5 132t161.5 75t171.5 22q307 0 484 -245l-181 -135q-135 170 -305 170q-160 0 -251 -127t-91 -355q0 -516 357 -516q60 0 123 14.5t94 34.5v297h-193v189h442v-607q-87 -60 -212.5 -95.5t-264.5 -35.5q-285 0 -443.5 177 t-158.5 526zM342 1729l152 63q31 -81 77 -121.5t121 -40.5t119 37t78 125l149 -61q-88 -256 -354 -256q-74 0 -134 21.5t-100.5 58.5t-66.5 80t-41 94z" />
<glyph unicode="&#x11f;" horiz-adv-x="1097" d="M74 539q0 127 38.5 227.5t107 164.5t160 97t200.5 33q93 0 201.5 -19.5t195.5 -56.5v-780q0 -188 -6 -262q-19 -233 -130.5 -358.5t-322.5 -125.5q-168 0 -256 72.5t-88 202.5q0 212 227 364q-67 10 -124 39.5t-103.5 80.5t-73 133.5t-26.5 187.5zM240 1503l151 35 q30 -93 75 -132.5t114 -39.5q64 0 109 38.5t79 133.5l145 -35q-38 -138 -123 -215.5t-217 -77.5q-75 0 -134.5 24t-98 67t-63 92.5t-37.5 109.5zM317 555q0 -53 4 -94t17 -86.5t36 -75.5t64.5 -50t98.5 -20q84 0 140 55t56 146v428q-73 25 -158 25q-124 0 -191 -89.5 t-67 -238.5zM397 -227q0 -69 38 -102t104 -33q58 0 97.5 26t60.5 77t29.5 112.5t8.5 146.5v133q-338 -171 -338 -360z" />
<glyph unicode="&#x120;" horiz-adv-x="1288" d="M92 678q0 153 35.5 276.5t94 202.5t137.5 132t161.5 75t171.5 22q307 0 484 -245l-181 -135q-135 170 -305 170q-160 0 -251 -127t-91 -355q0 -516 357 -516q60 0 123 14.5t94 34.5v297h-193v189h442v-607q-87 -60 -212.5 -95.5t-264.5 -35.5q-285 0 -443.5 177 t-158.5 526zM555 1624q0 58 39.5 97.5t101.5 39.5t102 -39.5t40 -97.5t-40 -96.5t-102 -38.5q-64 0 -102.5 38t-38.5 97z" />
<glyph unicode="&#x121;" horiz-adv-x="1097" d="M74 539q0 127 38.5 227.5t107 164.5t160 97t200.5 33q93 0 201.5 -19.5t195.5 -56.5v-780q0 -188 -6 -262q-19 -233 -130.5 -358.5t-322.5 -125.5q-168 0 -256 72.5t-88 202.5q0 212 227 364q-67 10 -124 39.5t-103.5 80.5t-73 133.5t-26.5 187.5zM317 555q0 -53 4 -94 t17 -86.5t36 -75.5t64.5 -50t98.5 -20q84 0 140 55t56 146v428q-73 25 -158 25q-124 0 -191 -89.5t-67 -238.5zM397 -227q0 -69 38 -102t104 -33q58 0 97.5 26t60.5 77t29.5 112.5t8.5 146.5v133q-338 -171 -338 -360zM438 1325q0 58 40 97.5t102 39.5t101.5 -39.5 t39.5 -97.5q0 -59 -40 -97t-101 -38q-64 0 -103 38t-39 97z" />
<glyph unicode="&#x122;" horiz-adv-x="1288" d="M92 678q0 153 35.5 276.5t94 202.5t137.5 132t161.5 75t171.5 22q307 0 484 -245l-181 -135q-135 170 -305 170q-160 0 -251 -127t-91 -355q0 -516 357 -516q60 0 123 14.5t94 34.5v297h-193v189h442v-607q-87 -60 -212.5 -95.5t-264.5 -35.5q-285 0 -443.5 177 t-158.5 526zM483 -530l92 -45q11 16 39.5 55.5t41.5 57.5t33.5 48t35 53.5t27.5 47.5q32 59 32 96q0 23 -12.5 40.5t-28.5 26.5t-44.5 14.5t-46 7t-48.5 3.5z" />
<glyph unicode="&#x123;" horiz-adv-x="1097" d="M74 539q0 127 38.5 227.5t107 164.5t160 97t200.5 33q93 0 201.5 -19.5t195.5 -56.5v-780q0 -188 -6 -262q-19 -233 -130.5 -358.5t-322.5 -125.5q-168 0 -256 72.5t-88 202.5q0 212 227 364q-67 10 -124 39.5t-103.5 80.5t-73 133.5t-26.5 187.5zM317 555q0 -53 4 -94 t17 -86.5t36 -75.5t64.5 -50t98.5 -20q84 0 140 55t56 146v428q-73 25 -158 25q-124 0 -191 -89.5t-67 -238.5zM397 -227q0 -69 38 -102t104 -33q58 0 97.5 26t60.5 77t29.5 112.5t8.5 146.5v133q-338 -171 -338 -360zM457 1272q0 37 32 96q13 24 27.5 48t35 54.5t33 49 t40 58t37.5 54.5l96 -47l-121 -405q-31 2 -48.5 3.5t-46 7t-44.5 14.5t-28.5 26.5t-12.5 40.5z" />
<glyph unicode="&#x124;" horiz-adv-x="1368" d="M143 0v1362h250v-557h580v557h252v-1362h-252v588h-580v-588h-250zM348 1520q128 167 225 254q54 49 101 49q53 0 96 -43q143 -143 234 -258l-84 -72l-246 176l-242 -176z" />
<glyph unicode="&#x125;" horiz-adv-x="1093" d="M123 0v1423h244v-479q102 117 276 117q162 0 246 -90.5t84 -270.5v-700h-244v657q0 49 -6.5 84.5t-22.5 67t-48.5 47.5t-80.5 16q-86 0 -145 -61t-59 -141v-670h-244zM127 1546q128 167 225 254q54 49 101 49q53 0 96 -43q138 -138 233 -258l-84 -71l-245 176l-242 -176z " />
<glyph unicode="&#x126;" horiz-adv-x="1366" d="M12 997v158h129v207h250v-207h580v207h252v-207h127v-158h-127v-997h-252v588h-580v-588h-250v997h-129zM391 805h580v192h-580v-192z" />
<glyph unicode="&#x127;" horiz-adv-x="1091" d="M6 1139v159h115v125h244v-125h327v-159h-327v-236q51 59 123.5 89t152.5 30q162 0 246 -90.5t84 -269.5v-662h-244v618q0 102 -33 157.5t-125 55.5q-86 0 -145 -61t-59 -141v-629h-244v1139h-115z" />
<glyph unicode="&#x128;" horiz-adv-x="544" d="M-20 1657q75 59 172 59q54 0 142 -26.5t134 -26.5q55 0 127 37l16 -166q-69 -37 -139 -37q-47 0 -144.5 22.5t-137.5 22.5q-80 0 -152 -41zM147 0v1362h250v-1362h-250z" />
<glyph unicode="&#x129;" horiz-adv-x="499" d="M-39 1432q79 59 172 59q55 0 143 -26.5t134 -26.5q64 0 127 37l16 -166q-67 -39 -139 -39q-47 0 -145 23.5t-138 23.5q-75 0 -151 -43zM133 0v1030h244v-1030h-244z" />
<glyph unicode="&#x12a;" horiz-adv-x="544" d="M-20 1503v178h587v-178h-587zM147 0v1362h250v-1362h-250z" />
<glyph unicode="&#x12b;" horiz-adv-x="499" d="M-37 1268v176h588v-176h-588zM133 0v1030h244v-1030h-244z" />
<glyph unicode="&#x12c;" horiz-adv-x="544" d="M-74 1729l152 63q31 -81 77 -121.5t121 -40.5t119 37t78 125l150 -61q-88 -256 -355 -256q-74 0 -134 21.5t-100.5 58.5t-66.5 80t-41 94zM147 0v1362h250v-1362h-250z" />
<glyph unicode="&#x12d;" horiz-adv-x="499" d="M-82 1503l152 35q30 -93 74.5 -132.5t113.5 -39.5q64 0 109 38.5t79 133.5l146 -35q-38 -138 -123 -215.5t-217 -77.5q-75 0 -134.5 24t-98.5 66.5t-63.5 92.5t-37.5 110zM133 0v1030h244v-1030h-244z" />
<glyph unicode="&#x12e;" horiz-adv-x="544" d="M29 -311q0 92 49 173t112 138h-43v1362h250v-1362q-65 -53 -114.5 -125.5t-49.5 -132.5q0 -40 17.5 -61t62.5 -21t99 23l49 -152q-84 -43 -201 -43q-53 0 -94.5 12.5t-66.5 32t-41.5 47t-22.5 54t-6 55.5z" />
<glyph unicode="&#x12f;" horiz-adv-x="499" d="M8 -311q0 166 162 311h-37v1030h244v-1030q-65 -53 -114.5 -125.5t-49.5 -132.5q0 -40 17.5 -61t62.5 -21q44 0 98 23l49 -152q-84 -43 -200 -43q-66 0 -113.5 18t-72 49t-35.5 64t-11 70zM113 1325q0 58 39.5 97.5t101.5 39.5t101.5 -39.5t39.5 -97.5q0 -59 -40 -97 t-101 -38q-64 0 -102.5 38t-38.5 97z" />
<glyph unicode="&#x130;" horiz-adv-x="544" d="M135 1624q0 58 39.5 97.5t101.5 39.5t102 -39.5t40 -97.5t-40 -96.5t-102 -38.5q-64 0 -102.5 38t-38.5 97zM147 0v1362h250v-1362h-250z" />
<glyph unicode="&#x131;" horiz-adv-x="499" d="M133 0v1030h244v-1030h-244z" />
<glyph unicode="&#x132;" horiz-adv-x="1423" d="M147 0v1362h250v-1362h-250zM553 82l104 178q104 -76 228 -76q78 0 114.5 46.5t36.5 140.5v991h250v-873q0 -145 -8 -215q-15 -141 -111.5 -220t-261.5 -79q-214 0 -352 107z" />
<glyph unicode="&#x133;" horiz-adv-x="999" d="M113 1325q0 58 39.5 97.5t101.5 39.5t101.5 -39.5t39.5 -97.5q0 -59 -40 -97t-101 -38q-64 0 -102.5 38t-38.5 97zM133 0v1030h244v-1030h-244zM287 -387l73 170q78 -43 152 -43q61 0 91 41t30 139v1110h244v-1100q0 -67 -6 -117t-26 -104t-54.5 -88.5t-96 -57 t-145.5 -22.5q-64 0 -136.5 19.5t-125.5 52.5zM618 1325q0 58 39.5 97.5t102.5 39.5q61 0 101 -39.5t40 -97.5q0 -59 -40 -97t-103 -38q-62 0 -101 38t-39 97z" />
<glyph unicode="&#x134;" horiz-adv-x="878" d="M8 82l105 178q104 -76 227 -76q152 0 152 187v991h249v-873q0 -145 -8 -215q-15 -141 -111.5 -220t-261.5 -79q-214 0 -352 107zM272 1522q126 164 226 254q54 49 100 49q53 0 96 -43q143 -143 234 -258l-84 -72l-246 176l-242 -176z" />
<glyph unicode="&#x135;" horiz-adv-x="499" d="M-213 -387l74 170q78 -43 151 -43q61 0 91 41t30 139v1110h244v-1100q0 -67 -6 -117t-26 -104t-54.5 -88.5t-96 -57t-145.5 -22.5q-64 0 -136.5 19.5t-125.5 52.5zM-78 1257q126 186 211 287q31 38 54.5 53t58.5 15t57 -14t55 -52q115 -140 213 -286l-84 -70l-241 213 l-240 -211z" />
<glyph unicode="&#x136;" horiz-adv-x="1187" d="M143 0v1362h248v-684l488 684h266l-389 -555l424 -807h-283l-309 606l-197 -264v-342h-248zM375 -530l92 -45q8 11 33.5 46.5t34.5 48t28.5 41t30 45t24.5 39t25 42.5q33 60 33 96q0 23 -12.5 40.5t-28.5 26.5t-44.5 14.5t-46 7t-48.5 3.5z" />
<glyph unicode="&#x137;" horiz-adv-x="1015" d="M129 0v1423h244v-589h6q50 99 138 163t212 64q103 0 171.5 -62t68.5 -186q0 -99 -53 -196.5t-166 -167.5l239 -449h-274l-191 358q-74 -16 -151 -22v-336h-244zM311 -530l97 -48q132 192 172 265q32 59 32 96q0 23 -12.5 40.5t-28.5 26.5t-44.5 14.5t-46 7t-48.5 3.5z M375 510q157 13 248.5 85t91.5 181q0 40 -18.5 65t-57.5 25q-63 0 -122.5 -56.5t-97 -138t-44.5 -161.5z" />
<glyph unicode="&#x138;" horiz-adv-x="1015" d="M129 0v1030h244v-196h6q65 112 145 169.5t205 57.5q102 0 171 -60.5t69 -179.5q0 -112 -61 -201t-173 -145l254 -475h-274l-215 408q-53 -16 -127 -23v-385h-244zM375 549q91 8 166 36t124.5 80t49.5 119q0 34 -19 58t-57 24q-46 0 -93.5 -36t-81.5 -87.5t-58 -103.5 t-31 -90z" />
<glyph unicode="&#x139;" horiz-adv-x="1024" d="M88 1536l332 322q119 -71 119 -136q0 -30 -20 -53.5t-62 -50.5q-27 -17 -68 -39.5t-74 -40t-85.5 -45t-79.5 -41.5zM145 0v1362h250v-1145h578v-217h-828z" />
<glyph unicode="&#x13a;" horiz-adv-x="661" d="M86 1559l332 321q119 -71 119 -135q0 -30 -20 -54t-62 -51q-35 -22 -84.5 -48.5t-121.5 -63.5t-102 -53zM129 285v1136h244v-1085q0 -96 24 -135t86 -39q50 0 129 33l54 -164q-42 -27 -110.5 -44.5t-133.5 -17.5q-58 0 -103 10t-75.5 25.5t-52.5 41t-33.5 50t-18.5 60 t-8.5 63t-1.5 66.5z" />
<glyph unicode="&#x13b;" horiz-adv-x="1024" d="M145 0v1362h250v-1145h578v-217h-828zM328 -530l92 -45q8 11 33.5 46.5t34.5 48t28.5 41t30 45t24.5 39t25 42.5q33 60 33 96q0 23 -12.5 40.5t-28.5 26.5t-44.5 14.5t-46 7t-48.5 3.5z" />
<glyph unicode="&#x13c;" horiz-adv-x="661" d="M129 285v1136h244v-1085q0 -96 24 -135t86 -39q50 0 129 33l54 -164q-42 -27 -110.5 -44.5t-133.5 -17.5q-58 0 -103 10t-75.5 25.5t-52.5 41t-33.5 50t-18.5 60t-8.5 63t-1.5 66.5zM180 -530l96 -48q137 199 173 265q32 59 32 96q0 23 -12.5 40.5t-28.5 26.5t-44.5 14.5 t-46 7t-48.5 3.5z" />
<glyph unicode="&#x13d;" horiz-adv-x="1024" d="M145 0v1362h250v-1145h578v-217h-828zM692 915l99 -18q24 63 54.5 162t41.5 160q8 46 8 73q0 70 -98 70q-43 0 -105 -16v-431z" />
<glyph unicode="&#x13e;" horiz-adv-x="677" d="M129 285v1136h244v-1085q0 -96 24 -135t86 -39q50 0 129 33l54 -164q-42 -27 -110.5 -44.5t-133.5 -17.5q-58 0 -103 10t-75.5 25.5t-52.5 41t-33.5 50t-18.5 60t-8.5 63t-1.5 66.5zM526 981v430q62 16 105 16q50 0 74 -16.5t24 -52.5q0 -28 -8 -74q-11 -61 -41.5 -159.5 t-54.5 -161.5z" />
<glyph unicode="&#x13f;" horiz-adv-x="1024" d="M145 0v1362h250v-1145h578v-217h-828zM643 729q0 58 39.5 97.5t101.5 39.5t102 -39.5t40 -97.5t-40 -96.5t-102 -38.5q-64 0 -102.5 38t-38.5 97z" />
<glyph unicode="&#x140;" horiz-adv-x="829" d="M129 285v1136h244v-1085q0 -96 24 -135t86 -39q50 0 129 33l54 -164q-42 -27 -110.5 -44.5t-133.5 -17.5q-58 0 -103 10t-75.5 25.5t-52.5 41t-33.5 50t-18.5 60t-8.5 63t-1.5 66.5zM530 727q0 58 40 97.5t102 39.5t101.5 -39.5t39.5 -97.5q0 -59 -40 -97t-101 -38 q-64 0 -103 38t-39 97z" />
<glyph unicode="&#x141;" horiz-adv-x="1024" d="M-78 586l223 121v655h250v-541l379 197l88 -170l-467 -242v-389h578v-217h-828v489l-135 -73z" />
<glyph unicode="&#x142;" horiz-adv-x="782" d="M0 582l233 182v657h244v-503l180 139l115 -156l-295 -217v-348q0 -96 24.5 -135t86.5 -39q50 0 129 33l53 -164q-42 -27 -110.5 -44.5t-133.5 -17.5q-58 0 -103 10t-75.5 26t-52.5 42t-33.5 51t-18.5 60.5t-8.5 63.5t-1.5 67v231l-118 -94z" />
<glyph unicode="&#x143;" horiz-adv-x="1363" d="M143 0v1362h252l574 -946h4v946h248v-1362h-240l-588 961h-4v-961h-246zM502 1536l332 322q118 -70 118 -136q0 -30 -20 -53.5t-62 -50.5q-27 -17 -68 -39.5t-74 -40t-85.5 -45t-79.5 -41.5z" />
<glyph unicode="&#x144;" horiz-adv-x="1101" d="M115 1030h204l21 -129q113 160 315 160q157 0 241.5 -89t84.5 -267v-705h-244v651q0 52 -6 88t-21.5 68.5t-47 48.5t-78.5 16q-90 0 -149.5 -62t-59.5 -144v-666h-244v852zM401 1237l238 393q156 -40 156 -123q0 -41 -56 -100q-28 -31 -69 -68.5t-103 -92.5t-86 -77z" />
<glyph unicode="&#x145;" horiz-adv-x="1363" d="M143 0v1362h252l574 -946h4v946h248v-1362h-240l-588 961h-4v-961h-246zM498 -530l92 -45q8 11 33.5 46.5t34.5 48t28.5 41t30 45t24.5 39t25 42.5q33 60 33 96q0 23 -12.5 40.5t-28.5 26.5t-45 14.5t-46.5 7t-48.5 3.5z" />
<glyph unicode="&#x146;" horiz-adv-x="1101" d="M115 1030h204l21 -129q113 160 315 160q157 0 241.5 -89t84.5 -267v-705h-244v651q0 52 -6 88t-21.5 68.5t-47 48.5t-78.5 16q-90 0 -149.5 -62t-59.5 -144v-666h-244v852zM373 -530l96 -48q132 192 172 265q33 60 33 96q0 23 -12.5 40.5t-28.5 26.5t-44.5 14.5t-46 7 t-48.5 3.5z" />
<glyph unicode="&#x147;" horiz-adv-x="1363" d="M143 0v1362h252l574 -946h4v946h248v-1362h-240l-588 961h-4v-961h-246zM348 1753l84 70l242 -176l246 176l84 -72q-91 -115 -234 -258q-43 -43 -96 -43q-47 0 -101 49q-97 87 -225 254z" />
<glyph unicode="&#x148;" horiz-adv-x="1101" d="M115 1030h204l21 -129q113 160 315 160q157 0 241.5 -89t84.5 -267v-705h-244v651q0 52 -6 88t-21.5 68.5t-47 48.5t-78.5 16q-90 0 -149.5 -62t-59.5 -144v-666h-244v852zM242 1542l84 70l241 -213l240 211l84 -66q-126 -186 -211 -287q-31 -37 -54.5 -52t-58.5 -15 t-57 13.5t-55 51.5q-111 135 -213 287z" />
<glyph unicode="&#x149;" horiz-adv-x="1101" d="M-119 1030l70 424q46 4 82 4q96 0 96 -67q0 -30 -16 -80q-38 -104 -146 -310zM115 1030h204l21 -129q113 160 315 160q157 0 241.5 -89t84.5 -267v-705h-244v651q0 52 -6 88t-21.5 68.5t-47 48.5t-78.5 16q-90 0 -149.5 -62t-59.5 -144v-666h-244v852z" />
<glyph unicode="&#x14a;" horiz-adv-x="1355" d="M137 0v1362h252l576 -946h2v946h247v-1438q0 -66 -7.5 -116t-29 -99.5t-58 -81.5t-97.5 -51.5t-145 -19.5q-91 0 -183.5 27.5t-142.5 64.5l88 174q92 -66 190 -66q79 0 110.5 45.5t31.5 135.5v71l-582 953h-4v-961h-248z" />
<glyph unicode="&#x14b;" horiz-adv-x="1093" d="M104 1030h205l21 -129q54 76 135.5 117t179.5 41q158 0 242 -89t84 -268v-780q0 -49 -1.5 -83.5t-8.5 -77.5t-19.5 -72t-35 -59.5t-54.5 -48t-79 -29t-107 -11.5q-67 0 -146 19.5t-131 52.5l66 170q78 -43 157 -43q60 0 87.5 38t27.5 136v735q0 52 -6 88t-22 68.5 t-48 48.5t-80 16q-85 0 -145.5 -61.5t-60.5 -142.5v-666h-242v852z" />
<glyph unicode="&#x14c;" horiz-adv-x="1357" d="M92 678q0 127 24.5 234t68.5 183t101 133t126 91t139.5 50.5t144.5 16.5q94 0 176.5 -23.5t155.5 -76.5t125.5 -133.5t82.5 -201.5t30 -273q0 -344 -158.5 -523.5t-433.5 -179.5q-278 0 -430 179t-152 524zM348 688q0 -76 8 -142.5t31 -135.5t59.5 -117.5t98.5 -79.5 t143 -31q89 0 154.5 41t101 112.5t52 155t16.5 181.5q0 68 -8.5 133t-31.5 134t-59 120t-95 84t-134 33q-71 0 -129 -27.5t-96 -74t-63.5 -109.5t-36.5 -132t-11 -145zM391 1503v178h588v-178h-588z" />
<glyph unicode="&#x14d;" horiz-adv-x="1064" d="M74 516q0 -272 116.5 -409.5t327.5 -137.5q103 0 189 35t151.5 104t102 180t36.5 255q0 97 -17 176.5t-44.5 132.5t-67 92.5t-78 61t-85 35t-81.5 17t-73 3.5q-68 0 -131 -15.5t-127.5 -54.5t-112 -98.5t-77 -156.5t-29.5 -220zM248 1268v176h588v-176h-588zM322 545 q0 154 54.5 245t162.5 91q112 0 160.5 -95t48.5 -276q0 -168 -52.5 -264t-160.5 -96q-53 0 -92 23.5t-61.5 60t-36.5 91t-18.5 106t-4.5 114.5z" />
<glyph unicode="&#x14e;" horiz-adv-x="1357" d="M92 678q0 127 24.5 234t68.5 183t101 133t126 91t139.5 50.5t144.5 16.5q94 0 176.5 -23.5t155.5 -76.5t125.5 -133.5t82.5 -201.5t30 -273q0 -344 -158.5 -523.5t-433.5 -179.5q-278 0 -430 179t-152 524zM336 1729l151 63q31 -81 77.5 -121.5t121.5 -40.5t119 37 t78 125l149 -61q-88 -256 -354 -256q-74 0 -134 21.5t-100.5 58.5t-66.5 80t-41 94zM348 688q0 -76 8 -142.5t31 -135.5t59.5 -117.5t98.5 -79.5t143 -31q89 0 154.5 41t101 112.5t52 155t16.5 181.5q0 68 -8.5 133t-31.5 134t-59 120t-95 84t-134 33q-71 0 -129 -27.5 t-96 -74t-63.5 -109.5t-36.5 -132t-11 -145z" />
<glyph unicode="&#x14f;" horiz-adv-x="1064" d="M74 516q0 -272 116.5 -409.5t327.5 -137.5q103 0 189 35t151.5 104t102 180t36.5 255q0 97 -17 176.5t-44.5 132.5t-67 92.5t-78 61t-85 35t-81.5 17t-73 3.5q-68 0 -131 -15.5t-127.5 -54.5t-112 -98.5t-77 -156.5t-29.5 -220zM203 1503l151 35q30 -93 75 -132.5 t114 -39.5q64 0 109 38.5t79 133.5l146 -35q-38 -138 -123 -215.5t-217 -77.5q-75 0 -134.5 24t-98.5 66.5t-63.5 92.5t-37.5 110zM322 545q0 154 54.5 245t162.5 91q112 0 160.5 -95t48.5 -276q0 -168 -52.5 -264t-160.5 -96q-53 0 -92 23.5t-61.5 60t-36.5 91t-18.5 106 t-4.5 114.5z" />
<glyph unicode="&#x150;" horiz-adv-x="1357" d="M92 678q0 127 24.5 234t68.5 183t101 133t126 91t139.5 50.5t144.5 16.5q94 0 176.5 -23.5t155.5 -76.5t125.5 -133.5t82.5 -201.5t30 -273q0 -344 -158.5 -523.5t-433.5 -179.5q-278 0 -430 179t-152 524zM348 688q0 -76 8 -142.5t31 -135.5t59.5 -117.5t98.5 -79.5 t143 -31q89 0 154.5 41t101 112.5t52 155t16.5 181.5q0 68 -8.5 133t-31.5 134t-59 120t-95 84t-134 33q-71 0 -129 -27.5t-96 -74t-63.5 -109.5t-36.5 -132t-11 -145zM362 1524l340 315q115 -77 115 -135q0 -31 -20 -55t-64 -50q-54 -32 -311 -161zM788 1524l340 313 q115 -72 115 -133q0 -30 -20.5 -54t-63.5 -51q-54 -32 -311 -161z" />
<glyph unicode="&#x151;" horiz-adv-x="1064" d="M74 516q0 123 29.5 220t77 156.5t112 98.5t127.5 54.5t131 15.5q38 0 73 -3.5t81.5 -17t85 -35t78 -61t67 -92.5t44.5 -132.5t17 -176.5q0 -144 -36.5 -255t-102 -180t-151.5 -104t-189 -35q-211 0 -327.5 137.5t-116.5 409.5zM244 1237l237 393q156 -43 156 -123 q0 -42 -55 -100q-28 -31 -69 -68.5t-103 -92.5t-86 -77zM322 545q0 -63 4.5 -114.5t18.5 -106t36.5 -91t61.5 -60t92 -23.5q108 0 160.5 96t52.5 264q0 181 -48.5 276t-160.5 95q-108 0 -162.5 -91t-54.5 -245zM594 1237l240 393q155 -39 155 -123q0 -40 -57 -100 q-21 -24 -55.5 -57t-60 -55.5t-75.5 -66t-67 -59.5z" />
<glyph unicode="&#x152;" horiz-adv-x="1796" d="M92 678q0 152 37 274t97.5 201.5t142.5 132.5t168.5 75.5t179.5 22.5q104 0 203 -22h798v-217h-571v-342h489v-217h-489v-369h586v-217h-813q-123 -29 -230 -29q-285 0 -441.5 180.5t-156.5 526.5zM348 688q0 -78 9.5 -146t35 -136.5t66 -117.5t107.5 -79.5t155 -30.5 q98 0 176 33v926q-92 39 -180 39q-78 0 -141 -27.5t-105 -74t-70 -109.5t-40.5 -132t-12.5 -145z" />
<glyph unicode="&#x153;" horiz-adv-x="1609" d="M74 514q0 123 29 220.5t75 157.5t109 99t124.5 54.5t127.5 15.5q246 0 338 -201q127 201 362 201q152 0 239 -75t87 -210q0 -65 -22.5 -118.5t-59 -90t-88 -64t-103 -43t-111 -25.5t-105 -13.5t-91.5 -3.5q7 -111 71.5 -186.5t186.5 -75.5q132 0 258 90l76 -162 q-41 -36 -138 -75.5t-222 -39.5q-253 0 -365 191q-53 -92 -144.5 -141.5t-199.5 -49.5q-205 0 -319.5 136.5t-114.5 408.5zM322 543q0 -63 4.5 -114.5t18.5 -105.5t36.5 -90t61.5 -59.5t92 -23.5q108 0 160.5 95.5t52.5 264.5q0 180 -48.5 275.5t-160.5 95.5 q-109 0 -163 -91t-54 -247zM977 575q49 -1 106 7.5t120 27.5t104 60t41 96q0 56 -33.5 88.5t-89.5 32.5q-78 0 -135 -47.5t-83.5 -116t-29.5 -148.5z" />
<glyph unicode="&#x154;" horiz-adv-x="1218" d="M143 0v1362h457q116 0 204 -20t154 -63.5t100 -117t34 -176.5q0 -74 -20.5 -136t-55.5 -105t-75 -72t-85 -47q40 -15 64.5 -42.5t48.5 -82.5l225 -500h-266l-197 430q-24 53 -54.5 80t-80.5 27h-203v-537h-250zM393 731h205q112 0 176 60.5t64 175.5q0 64 -18.5 104 t-60.5 59.5t-91.5 26t-130.5 6.5h-144v-432zM406 1536l331 322q119 -71 119 -136q0 -30 -20 -53.5t-62 -50.5q-27 -17 -68 -39.5t-74 -40t-85.5 -45t-79.5 -41.5z" />
<glyph unicode="&#x155;" horiz-adv-x="749" d="M115 1030h200l25 -149q33 85 101 132.5t147 47.5q96 0 164 -41l-43 -207q-74 41 -146 41q-82 0 -132.5 -58t-53.5 -149v-647h-244v864zM303 1237l238 393q155 -39 155 -123q0 -42 -55 -100q-28 -31 -69 -68.5t-103 -92.5t-86 -77z" />
<glyph unicode="&#x156;" horiz-adv-x="1218" d="M143 0v1362h457q116 0 204 -20t154 -63.5t100 -117t34 -176.5q0 -74 -20.5 -136t-55.5 -105t-75 -72t-85 -47q40 -15 64.5 -42.5t48.5 -82.5l225 -500h-266l-197 430q-24 53 -54.5 80t-80.5 27h-203v-537h-250zM393 731h205q112 0 176 60.5t64 175.5q0 64 -18.5 104 t-60.5 59.5t-91.5 26t-130.5 6.5h-144v-432zM410 -530l92 -45q8 11 33.5 46.5t34.5 48t28.5 41t30 45t24.5 39t25 42.5q33 60 33 96q0 23 -12.5 40.5t-28.5 26.5t-45 14.5t-46.5 7t-48.5 3.5z" />
<glyph unicode="&#x157;" horiz-adv-x="749" d="M82 -530l96 -48q132 192 172 265q33 60 33 96q0 23 -12.5 40.5t-28.5 26.5t-44.5 14.5t-46 7t-48.5 3.5zM115 1030h200l25 -149q33 85 101 132.5t147 47.5q96 0 164 -41l-43 -207q-74 41 -146 41q-82 0 -132.5 -58t-53.5 -149v-647h-244v864z" />
<glyph unicode="&#x158;" horiz-adv-x="1218" d="M143 0v1362h457q116 0 204 -20t154 -63.5t100 -117t34 -176.5q0 -74 -20.5 -136t-55.5 -105t-75 -72t-85 -47q40 -15 64.5 -42.5t48.5 -82.5l225 -500h-266l-197 430q-24 53 -54.5 80t-80.5 27h-203v-537h-250zM217 1753l84 70l242 -176l245 176l84 -72 q-95 -120 -233 -258q-43 -43 -96 -43q-47 0 -101 49q-97 87 -225 254zM393 731h205q112 0 176 60.5t64 175.5q0 64 -18.5 104t-60.5 59.5t-91.5 26t-130.5 6.5h-144v-432z" />
<glyph unicode="&#x159;" horiz-adv-x="749" d="M78 1542l84 70l241 -213l240 211l84 -66q-126 -186 -211 -287q-31 -37 -54.5 -52t-58.5 -15t-57 13.5t-55 51.5q-111 135 -213 287zM115 1030h200l25 -149q33 85 101 132.5t147 47.5q96 0 164 -41l-43 -207q-74 41 -146 41q-82 0 -132.5 -58t-53.5 -149v-647h-244v864z " />
<glyph unicode="&#x15a;" horiz-adv-x="1099" d="M59 106l93 205q71 -44 176.5 -81t201.5 -37q220 0 220 188q0 38 -14.5 67.5t-35 49.5t-58.5 37.5t-70 28t-83 24.5q-69 19 -119.5 37.5t-105 50.5t-88.5 72t-56 100.5t-22 136.5q0 185 128 293t333 108q137 0 261.5 -53t207.5 -139l-133 -166q-176 146 -336 146 q-37 0 -70.5 -8.5t-64 -26.5t-48.5 -52t-18 -79q0 -37 15 -67t35.5 -49t61.5 -38.5t72 -30t89 -28.5q55 -17 94 -32.5t87 -39.5t81 -53.5t62.5 -69t44 -92.5t14.5 -117q0 -199 -131.5 -307.5t-356.5 -108.5q-137 0 -270.5 42.5t-196.5 88.5zM360 1536l332 322 q119 -71 119 -136q0 -30 -20 -53.5t-62 -50.5q-27 -17 -68 -39.5t-74 -40t-85.5 -45t-79.5 -41.5z" />
<glyph unicode="&#x15b;" horiz-adv-x="858" d="M41 74l72 174q61 -38 141.5 -68t151.5 -30q69 0 112 32.5t43 98.5q0 33 -12.5 57.5t-40 41.5t-52.5 27t-69 23q-37 11 -57.5 17t-55 18.5t-54.5 24t-47 29t-43 38t-31 46.5t-22 59.5t-7 72.5q0 103 52.5 178.5t136 111.5t185.5 36q111 0 208 -40t163 -106l-117 -143 q-127 111 -249 111q-60 0 -102 -30.5t-42 -88.5q0 -27 10.5 -49t24.5 -36t42.5 -27t48 -20t56.5 -18q40 -12 65.5 -21t62 -25t60.5 -32t50.5 -40.5t42 -52t25.5 -65t10 -81.5q0 -156 -105.5 -242t-281.5 -86q-119 0 -222.5 33.5t-152.5 71.5zM297 1237l238 393 q155 -39 155 -123q0 -42 -55 -100q-28 -31 -69 -68.5t-103 -92.5t-86 -77z" />
<glyph unicode="&#x15c;" horiz-adv-x="1099" d="M59 106l93 205q71 -44 176.5 -81t201.5 -37q220 0 220 188q0 38 -14.5 67.5t-35 49.5t-58.5 37.5t-70 28t-83 24.5q-69 19 -119.5 37.5t-105 50.5t-88.5 72t-56 100.5t-22 136.5q0 185 128 293t333 108q137 0 261.5 -53t207.5 -139l-133 -166q-176 146 -336 146 q-37 0 -70.5 -8.5t-64 -26.5t-48.5 -52t-18 -79q0 -37 15 -67t35.5 -49t61.5 -38.5t72 -30t89 -28.5q55 -17 94 -32.5t87 -39.5t81 -53.5t62.5 -69t44 -92.5t14.5 -117q0 -199 -131.5 -307.5t-356.5 -108.5q-137 0 -270.5 42.5t-196.5 88.5zM244 1520q128 167 225 254 q54 49 100 49q54 0 97 -43q138 -138 233 -258l-84 -72l-246 176l-241 -176z" />
<glyph unicode="&#x15d;" horiz-adv-x="858" d="M41 74l72 174q61 -38 141.5 -68t151.5 -30q69 0 112 32.5t43 98.5q0 33 -12.5 57.5t-40 41.5t-52.5 27t-69 23q-37 11 -57.5 17t-55 18.5t-54.5 24t-47 29t-43 38t-31 46.5t-22 59.5t-7 72.5q0 103 52.5 178.5t136 111.5t185.5 36q111 0 208 -40t163 -106l-117 -143 q-127 111 -249 111q-60 0 -102 -30.5t-42 -88.5q0 -27 10.5 -49t24.5 -36t42.5 -27t48 -20t56.5 -18q40 -12 65.5 -21t62 -25t60.5 -32t50.5 -40.5t42 -52t25.5 -65t10 -81.5q0 -156 -105.5 -242t-281.5 -86q-119 0 -222.5 33.5t-152.5 71.5zM117 1257q126 186 211 287 q32 38 54.5 53t57.5 15t57.5 -14t55.5 -52q115 -140 213 -286l-84 -70l-242 213l-239 -211z" />
<glyph unicode="&#x15e;" horiz-adv-x="1099" d="M59 106l93 205q71 -44 176.5 -81t201.5 -37q220 0 220 188q0 38 -14.5 67.5t-35 49.5t-58.5 37.5t-70 28t-83 24.5q-69 19 -119.5 37.5t-105 50.5t-88.5 72t-56 100.5t-22 136.5q0 185 128 293t333 108q137 0 261.5 -53t207.5 -139l-133 -166q-176 146 -336 146 q-37 0 -70.5 -8.5t-64 -26.5t-48.5 -52t-18 -79q0 -37 15 -67t35.5 -49t61.5 -38.5t72 -30t89 -28.5q55 -17 94 -32.5t87 -39.5t81 -53.5t62.5 -69t44 -92.5t14.5 -117q0 -183 -111.5 -289.5t-306.5 -121.5l-29 -115q83 -6 134 -48t51 -114q0 -54 -21.5 -94t-57.5 -62 t-77 -32.5t-86 -10.5q-97 0 -184 37l32 111q84 -27 138 -27q102 0 102 72q0 46 -46 62t-138 16l63 202q-125 7 -244 47.5t-174 81.5z" />
<glyph unicode="&#x15f;" horiz-adv-x="858" d="M41 74l72 174q61 -38 141.5 -68t151.5 -30q69 0 112 32.5t43 98.5q0 33 -12.5 57.5t-40 41.5t-52.5 27t-69 23q-37 11 -57.5 17t-55 18.5t-54.5 24t-47 29t-43 38t-31 46.5t-22 59.5t-7 72.5q0 103 52.5 178.5t136 111.5t185.5 36q111 0 208 -40t163 -106l-117 -143 q-127 111 -249 111q-60 0 -102 -30.5t-42 -88.5q0 -27 10.5 -49t24.5 -36t42.5 -27t48 -20t56.5 -18q40 -12 65.5 -21t62 -25t60.5 -32t50.5 -40.5t42 -52t25.5 -65t10 -81.5q0 -136 -81.5 -219.5t-221.5 -102.5l-29 -110q83 -6 133.5 -48t50.5 -114q0 -54 -21.5 -94 t-57.5 -62t-76.5 -32.5t-85.5 -10.5q-98 0 -185 37l33 111q84 -27 137 -27q103 0 103 72q0 46 -46.5 62t-138.5 16l62 196q-110 5 -202.5 36.5t-135.5 66.5z" />
<glyph unicode="&#x160;" horiz-adv-x="1099" d="M59 106l93 205q71 -44 176.5 -81t201.5 -37q220 0 220 188q0 38 -14.5 67.5t-35 49.5t-58.5 37.5t-70 28t-83 24.5q-69 19 -119.5 37.5t-105 50.5t-88.5 72t-56 100.5t-22 136.5q0 185 128 293t333 108q137 0 261.5 -53t207.5 -139l-133 -166q-176 146 -336 146 q-37 0 -70.5 -8.5t-64 -26.5t-48.5 -52t-18 -79q0 -37 15 -67t35.5 -49t61.5 -38.5t72 -30t89 -28.5q55 -17 94 -32.5t87 -39.5t81 -53.5t62.5 -69t44 -92.5t14.5 -117q0 -199 -131.5 -307.5t-356.5 -108.5q-137 0 -270.5 42.5t-196.5 88.5zM238 1753l84 70l241 -176 l246 176l84 -72q-91 -115 -234 -258q-43 -43 -96 -43q-46 0 -100 49q-97 87 -225 254z" />
<glyph unicode="&#x161;" horiz-adv-x="858" d="M41 74l72 174q61 -38 141.5 -68t151.5 -30q69 0 112 32.5t43 98.5q0 33 -12.5 57.5t-40 41.5t-52.5 27t-69 23q-37 11 -57.5 17t-55 18.5t-54.5 24t-47 29t-43 38t-31 46.5t-22 59.5t-7 72.5q0 103 52.5 178.5t136 111.5t185.5 36q111 0 208 -40t163 -106l-117 -143 q-127 111 -249 111q-60 0 -102 -30.5t-42 -88.5q0 -27 10.5 -49t24.5 -36t42.5 -27t48 -20t56.5 -18q40 -12 65.5 -21t62 -25t60.5 -32t50.5 -40.5t42 -52t25.5 -65t10 -81.5q0 -156 -105.5 -242t-281.5 -86q-119 0 -222.5 33.5t-152.5 71.5zM125 1542l84 70l242 -213 l239 211l84 -66q-126 -186 -211 -287q-31 -38 -54 -52.5t-58 -14.5t-57.5 14t-55.5 51q-111 135 -213 287z" />
<glyph unicode="&#x162;" horiz-adv-x="1101" d="M35 1145v217h1032v-217h-397v-1145h-84l-35 -135q83 -6 133.5 -48t50.5 -114q0 -54 -21.5 -94t-57.5 -62t-76.5 -32.5t-85.5 -10.5q-98 0 -185 37l33 111q84 -27 137 -27q103 0 103 72q0 46 -46.5 62t-138.5 16l72 225h-47v1145h-387z" />
<glyph unicode="&#x163;" horiz-adv-x="716" d="M129 308v3v1112h244v-393h276v-190h-276v-521q0 -89 33 -125t100 -36q68 0 139 43l62 -158q-41 -29 -103.5 -48t-128.5 -22l-26 -108q83 -6 133.5 -48t50.5 -114q0 -54 -21.5 -94t-57.5 -62t-77 -32.5t-86 -10.5q-97 0 -184 37l33 111q84 -27 137 -27q102 0 102 72 q0 46 -46 62t-138 16l63 202q-48 7 -85 23t-60.5 34t-40.5 47.5t-25 51.5t-12.5 59.5t-5 57.5t-0.5 58z" />
<glyph unicode="&#x164;" horiz-adv-x="1101" d="M35 1145v217h1032v-217h-397v-1145h-248v1145h-387zM221 1753l84 70l242 -176l246 176l84 -72q-91 -115 -234 -258q-43 -43 -96 -43q-47 0 -101 49q-97 87 -225 254z" />
<glyph unicode="&#x165;" horiz-adv-x="716" d="M129 311v1112h244v-393h276v-190h-276v-521q0 -89 33 -125t100 -36q68 0 139 43l62 -158q-46 -32 -117.5 -52t-143.5 -20q-52 0 -95 7.5t-74 18.5t-55 31t-39.5 37t-26.5 46t-16 47.5t-7.5 52.5t-3 50t-0.5 50zM549 1182v430q62 16 104 16q99 0 99 -69q0 -22 -9 -74 q-11 -61 -41.5 -160t-54.5 -162z" />
<glyph unicode="&#x166;" horiz-adv-x="1073" d="M35 1145v217h1030v-217h-395v-424h233v-160h-233v-561h-250v561h-234v160h234v424h-385z" />
<glyph unicode="&#x167;" horiz-adv-x="716" d="M129 308v1.5v1.5v1112h244v-393h276v-190h-276v-183h276v-190h-276v-148q0 -89 33 -125t100 -36q68 0 139 43l62 -158q-46 -32 -117.5 -52t-143.5 -20q-91 0 -154.5 22.5t-94.5 50.5t-47.5 82t-18.5 87t-2 95z" />
<glyph unicode="&#x168;" horiz-adv-x="1288" d="M133 432v930h248v-918q0 -142 70.5 -201t197.5 -59q118 0 187 63.5t69 186.5v928h250v-963q0 -198 -141 -311t-373 -113q-256 0 -382 109.5t-126 347.5zM356 1657q75 59 172 59q54 0 143 -26.5t134 -26.5q55 0 127 37l16 -166q-69 -37 -139 -37q-47 0 -145 22.5 t-138 22.5q-79 0 -151 -41z" />
<glyph unicode="&#x169;" horiz-adv-x="1105" d="M127 332v698h244v-653q0 -52 6 -87.5t22 -67t48.5 -47t82.5 -15.5q82 0 142.5 60.5t60.5 135.5v674h244v-858l16 -172h-209l-14 121h-8q-51 -74 -128.5 -112t-168.5 -38q-338 0 -338 361zM260 1432q79 59 172 59q54 0 143 -26.5t134 -26.5q64 0 127 37l16 -166 q-67 -39 -139 -39q-47 0 -145 23.5t-138 23.5q-75 0 -151 -43z" />
<glyph unicode="&#x16a;" horiz-adv-x="1288" d="M133 432v930h248v-918q0 -142 70.5 -201t197.5 -59q118 0 187 63.5t69 186.5v928h250v-963q0 -198 -141 -311t-373 -113q-256 0 -382 109.5t-126 347.5zM354 1503v178h588v-178h-588z" />
<glyph unicode="&#x16b;" horiz-adv-x="1105" d="M127 332v698h244v-653q0 -52 6 -87.5t22 -67t48.5 -47t82.5 -15.5q82 0 142.5 60.5t60.5 135.5v674h244v-858l16 -172h-209l-14 121h-8q-51 -74 -128.5 -112t-168.5 -38q-338 0 -338 361zM262 1268v176h588v-176h-588z" />
<glyph unicode="&#x16c;" horiz-adv-x="1288" d="M133 432v930h248v-918q0 -142 70.5 -201t197.5 -59q118 0 187 63.5t69 186.5v928h250v-963q0 -198 -141 -311t-373 -113q-256 0 -382 109.5t-126 347.5zM305 1729l152 63q31 -81 77 -121.5t121 -40.5t119 37t78 125l149 -61q-88 -256 -354 -256q-74 0 -134 21.5 t-100.5 58.5t-66.5 80t-41 94z" />
<glyph unicode="&#x16d;" horiz-adv-x="1105" d="M127 332v698h244v-653q0 -52 6 -87.5t22 -67t48.5 -47t82.5 -15.5q82 0 142.5 60.5t60.5 135.5v674h244v-858l16 -172h-209l-14 121h-8q-51 -74 -128.5 -112t-168.5 -38q-338 0 -338 361zM217 1503l152 35q30 -93 74.5 -132.5t113.5 -39.5q64 0 109 38.5t79 133.5 l146 -35q-38 -138 -123 -215.5t-217 -77.5q-75 0 -134.5 24t-98.5 66.5t-63.5 92.5t-37.5 110z" />
<glyph unicode="&#x16e;" horiz-adv-x="1288" d="M133 432v930h248v-918q0 -142 70.5 -201t197.5 -59q118 0 187 63.5t69 186.5v928h250v-963q0 -198 -141 -311t-373 -113q-256 0 -382 109.5t-126 347.5zM455 1624q0 84 54 137.5t140 53.5q88 0 139.5 -52t51.5 -129q0 -89 -53.5 -144.5t-143.5 -55.5q-88 0 -138 53.5 t-50 136.5zM575 1624q0 -38 19 -62t55 -24q35 0 54.5 24.5t19.5 61.5q0 84 -74 84t-74 -84z" />
<glyph unicode="&#x16f;" horiz-adv-x="1105" d="M127 332v698h244v-653q0 -52 6 -87.5t22 -67t48.5 -47t82.5 -15.5q82 0 142.5 60.5t60.5 135.5v674h244v-858l16 -172h-209l-14 121h-8q-51 -74 -128.5 -112t-168.5 -38q-338 0 -338 361zM371 1346q0 84 54 137t140 53q88 0 139.5 -52t51.5 -128q0 -89 -53.5 -145 t-143.5 -56q-88 0 -138 54t-50 137zM492 1346q0 -38 19 -62t54 -24t54.5 24.5t19.5 61.5q0 84 -74 84q-73 0 -73 -84z" />
<glyph unicode="&#x170;" horiz-adv-x="1288" d="M133 432v930h248v-918q0 -142 70.5 -201t197.5 -59q118 0 187 63.5t69 186.5v928h250v-963q0 -198 -141 -311t-373 -113q-256 0 -382 109.5t-126 347.5zM270 1524l340 315q115 -77 115 -135q0 -31 -20 -55t-64 -50q-54 -32 -311 -161zM696 1524l340 313q115 -72 115 -133 q0 -30 -20.5 -54t-63.5 -51q-54 -32 -311 -161z" />
<glyph unicode="&#x171;" horiz-adv-x="1105" d="M127 332v698h244v-653q0 -52 6 -87.5t22 -67t48.5 -47t82.5 -15.5q82 0 142.5 60.5t60.5 135.5v674h244v-858l16 -172h-209l-14 121h-8q-51 -74 -128.5 -112t-168.5 -38q-338 0 -338 361zM242 1237l237 393q156 -43 156 -123q0 -42 -55 -100q-28 -31 -69 -68.5 t-103 -92.5t-86 -77zM592 1237l239 393q156 -40 156 -123q0 -40 -57 -100q-21 -24 -55.5 -57t-60 -55.5t-75.5 -66t-67 -59.5z" />
<glyph unicode="&#x172;" horiz-adv-x="1288" d="M133 432v930h248v-918q0 -142 70.5 -201t197.5 -59q118 0 187 63.5t69 186.5v928h250v-963q0 -254 -283 -397q-71 -35 -125.5 -110.5t-54.5 -147.5q0 -40 17.5 -61t62.5 -21q44 0 98 23l50 -152q-84 -43 -201 -43q-66 0 -113.5 18t-72 49t-35.5 64t-11 70q0 144 136 284 q-247 5 -368.5 114.5t-121.5 342.5z" />
<glyph unicode="&#x173;" horiz-adv-x="1105" d="M127 332v698h244v-653q0 -52 6 -87.5t22 -67t48.5 -47t82.5 -15.5q82 0 142.5 60.5t60.5 135.5v674h244v-858l16 -172q-65 -53 -114.5 -125.5t-49.5 -132.5q0 -40 17.5 -61t62.5 -21t99 23l49 -152q-84 -43 -201 -43q-53 0 -94.5 12.5t-66.5 32t-41.5 47t-22.5 54 t-6 55.5q0 91 48 171.5t111 139.5l-14 121h-8q-51 -74 -128.5 -112t-168.5 -38q-338 0 -338 361z" />
<glyph unicode="&#x174;" horiz-adv-x="1660" d="M35 1362h250l211 -1016h8l209 907h254l213 -909h4l196 1018h246l-293 -1362h-278l-219 887h-7l-211 -887h-284zM508 1520q128 167 225 254q54 49 101 49q53 0 96 -43q138 -138 233 -258l-84 -72l-245 176l-242 -176z" />
<glyph unicode="&#x175;" horiz-adv-x="1607" d="M127 328v702h244v-639q0 -44 2 -73t10 -61.5t22.5 -51.5t41 -32t63.5 -13q80 0 133 58t53 138v674h244v-637q0 -39 1 -63t5 -54t13 -48.5t23.5 -35.5t38 -24.5t54.5 -7.5q207 0 207 415q0 186 -72 455h240q72 -238 72 -446q0 -288 -112 -450.5t-333 -162.5 q-207 0 -276 168q-118 -168 -330 -168q-168 0 -256 89t-88 268zM498 1257q126 186 211 287q32 38 54.5 53t57.5 15t57.5 -14t55.5 -52q115 -140 213 -286l-84 -70l-242 213l-239 -211z" />
<glyph unicode="&#x176;" horiz-adv-x="1138" d="M0 1362l442 -842v-520h250v520l447 842h-265l-292 -592h-9l-297 592h-276zM244 1520q128 167 225 254q54 49 100 49q54 0 97 -43q138 -138 233 -258l-84 -72l-246 176l-241 -176z" />
<glyph unicode="&#x177;" horiz-adv-x="1097" d="M127 406v624h244v-581q0 -46 2.5 -76t12 -62.5t28 -51t51.5 -30.5t80 -12q89 0 138.5 46.5t49.5 133.5v633h242v-901q0 -169 -17 -285q-30 -187 -141.5 -288t-300.5 -101q-162 0 -247 71.5t-85 197.5q0 198 215 350q-272 40 -272 332zM238 1257q126 186 211 287 q32 38 54.5 53t57.5 15t57.5 -14t55.5 -52q115 -140 213 -286l-84 -70l-242 213l-239 -211zM408 -238q0 -62 35 -96.5t102 -34.5q190 0 190 318v172q-74 -36 -128 -69.5t-102 -77t-72.5 -97t-24.5 -115.5z" />
<glyph unicode="&#x178;" horiz-adv-x="1138" d="M0 1362l442 -842v-520h250v520l447 842h-265l-292 -592h-9l-297 592h-276zM233 1602q0 53 36.5 88.5t95.5 35.5q56 0 92.5 -35.5t36.5 -88.5q0 -55 -37.5 -90t-94.5 -35q-58 0 -93.5 34.5t-35.5 90.5zM649 1602q0 53 35.5 88.5t93.5 35.5q56 0 92.5 -35.5t36.5 -88.5 q0 -55 -36 -90t-93 -35q-59 0 -94 34.5t-35 90.5z" />
<glyph unicode="&#x179;" horiz-adv-x="1034" d="M55 0v170l619 997h-606v195h897v-166l-625 -1001h647v-195h-932zM360 1536l332 322q119 -71 119 -136q0 -30 -20 -53.5t-62 -50.5q-27 -17 -68 -39.5t-74 -40t-85.5 -45t-79.5 -41.5z" />
<glyph unicode="&#x17a;" horiz-adv-x="839" d="M14 -221q0 137 80.5 250.5t235.5 195.5q-14 7 -197 88v148l373 379h-465v190h768v-153l-442 -453l125 -57q153 -71 236 -183t83 -262q0 -202 -118 -333.5t-320 -131.5q-177 0 -268 86t-91 236zM233 -193q0 -75 37.5 -121t116.5 -46q96 0 148.5 72.5t52.5 183.5 q0 157 -119 235q-113 -60 -174.5 -147.5t-61.5 -176.5zM303 1237l238 393q155 -39 155 -123q0 -42 -55 -100q-28 -31 -69 -68.5t-103 -92.5t-86 -77z" />
<glyph unicode="&#x17b;" horiz-adv-x="1034" d="M55 0v170l619 997h-606v195h897v-166l-625 -1001h647v-195h-932zM406 1624q0 58 39.5 97.5t101.5 39.5t101.5 -39.5t39.5 -97.5q0 -59 -40 -97t-101 -38q-64 0 -102.5 38t-38.5 97z" />
<glyph unicode="&#x17c;" horiz-adv-x="839" d="M14 -221q0 -150 91 -236t268 -86q202 0 320 131.5t118 333.5q0 150 -83 262t-236 183l-125 57l442 453v153h-768v-190h465l-373 -379v-148q183 -81 197 -88q-155 -82 -235.5 -195.5t-80.5 -250.5zM233 -193q0 89 61.5 176.5t174.5 147.5q119 -78 119 -235 q0 -111 -52.5 -183.5t-148.5 -72.5q-79 0 -116.5 46t-37.5 121zM313 1325q0 58 40 97.5t102 39.5t101.5 -39.5t39.5 -97.5q0 -59 -40 -97t-101 -38q-64 0 -103 38t-39 97z" />
<glyph unicode="&#x17d;" horiz-adv-x="1034" d="M55 0v170l619 997h-606v195h897v-166l-625 -1001h647v-195h-932zM205 1753l84 70l241 -176l246 176l84 -72q-95 -120 -233 -258q-43 -43 -97 -43q-46 0 -100 49q-97 87 -225 254z" />
<glyph unicode="&#x17e;" horiz-adv-x="839" d="M14 -221q0 -150 91 -236t268 -86q202 0 320 131.5t118 333.5q0 150 -83 262t-236 183l-125 57l442 453v153h-768v-190h465l-373 -379v-148q183 -81 197 -88q-155 -82 -235.5 -195.5t-80.5 -250.5zM121 1542l84 70l241 -213l240 211l84 -66q-126 -186 -211 -287 q-31 -37 -54.5 -52t-58.5 -15t-57 13.5t-55 51.5q-111 135 -213 287zM233 -193q0 89 61.5 176.5t174.5 147.5q119 -78 119 -235q0 -111 -52.5 -183.5t-148.5 -72.5q-79 0 -116.5 46t-37.5 121z" />
<glyph unicode="&#x17f;" horiz-adv-x="669" d="M123 -430v1517q0 57 6 102.5t27.5 99t58 88.5t103.5 59t159 24q66 0 149 -21t136 -50l-60 -164q-100 51 -194 51q-75 0 -108 -41.5t-33 -128.5v-1536h-244z" />
<glyph unicode="&#x192;" horiz-adv-x="1120" d="M-180 -358l82 161q94 -51 190 -51q72 0 111 38t53 118l121 694h-219l30 195h224l26 153q11 63 22.5 107.5t31.5 93.5t49 81.5t69.5 60t98 40.5t131.5 13q68 0 148.5 -20.5t139.5 -51.5l-81 -164q-44 24 -97.5 38.5t-93.5 14.5q-72 0 -110.5 -37t-53.5 -118l-39 -211h303 l-34 -195h-301l-109 -627q-13 -77 -29 -132t-46.5 -109.5t-73 -88t-109 -54.5t-154.5 -21q-67 0 -144 20t-136 52z" />
<glyph unicode="&#x218;" horiz-adv-x="1099" d="M59 106l93 205q71 -44 176.5 -81t201.5 -37q220 0 220 188q0 38 -14.5 67.5t-35 49.5t-58.5 37.5t-70 28t-83 24.5q-69 19 -119.5 37.5t-105 50.5t-88.5 72t-56 100.5t-22 136.5q0 185 128 293t333 108q137 0 261.5 -53t207.5 -139l-133 -166q-176 146 -336 146 q-37 0 -70.5 -8.5t-64 -26.5t-48.5 -52t-18 -79q0 -37 15 -67t35.5 -49t61.5 -38.5t72 -30t89 -28.5q55 -17 94 -32.5t87 -39.5t81 -53.5t62.5 -69t44 -92.5t14.5 -117q0 -199 -131.5 -307.5t-356.5 -108.5q-137 0 -270.5 42.5t-196.5 88.5zM342 -530l92 -45q8 11 33.5 46.5 t34.5 48t28.5 41t30 45t24.5 39t25 42.5q33 60 33 96q0 23 -12.5 40.5t-28.5 26.5t-44.5 14.5t-46 7t-48.5 3.5z" />
<glyph unicode="&#x219;" horiz-adv-x="858" d="M41 74l72 174q61 -38 141.5 -68t151.5 -30q69 0 112 32.5t43 98.5q0 33 -12.5 57.5t-40 41.5t-52.5 27t-69 23q-37 11 -57.5 17t-55 18.5t-54.5 24t-47 29t-43 38t-31 46.5t-22 59.5t-7 72.5q0 103 52.5 178.5t136 111.5t185.5 36q111 0 208 -40t163 -106l-117 -143 q-127 111 -249 111q-60 0 -102 -30.5t-42 -88.5q0 -27 10.5 -49t24.5 -36t42.5 -27t48 -20t56.5 -18q40 -12 65.5 -21t62 -25t60.5 -32t50.5 -40.5t42 -52t25.5 -65t10 -81.5q0 -156 -105.5 -242t-281.5 -86q-119 0 -222.5 33.5t-152.5 71.5zM250 -530l96 -48 q132 192 172 265q33 60 33 96q0 23 -12.5 40.5t-28.5 26.5t-44.5 14.5t-46 7t-48.5 3.5z" />
<glyph unicode="&#x21a;" horiz-adv-x="1101" d="M35 1145v217h1032v-217h-397v-1145h-248v1145h-387zM313 -530l93 -45q8 11 33.5 46.5t34.5 48t28.5 41t30 45t24.5 39t25 42.5q32 59 32 96q0 23 -12.5 40.5t-28.5 26.5t-44.5 14.5t-46 7t-48.5 3.5z" />
<glyph unicode="&#x21b;" horiz-adv-x="716" d="M129 311v1112h244v-393h276v-190h-276v-521q0 -89 33 -125t100 -36q68 0 139 43l62 -158q-46 -32 -117.5 -52t-143.5 -20q-52 0 -95 7.5t-74 18.5t-55 31t-39.5 37t-26.5 46t-16 47.5t-7.5 52.5t-3 50t-0.5 50zM190 -530l97 -48q132 192 172 265q33 60 33 96 q0 23 -12.5 40.5t-28.5 26.5t-45 14.5t-46.5 7t-48.5 3.5z" />
<glyph unicode="&#x237;" horiz-adv-x="499" d="M-213 -387l74 170q78 -43 151 -43q61 0 91 41t30 139v1110h244v-1100q0 -67 -6 -117t-26 -104t-54.5 -88.5t-96 -57t-145.5 -22.5q-64 0 -136.5 19.5t-125.5 52.5z" />
<glyph unicode="&#x2bc;" horiz-adv-x="516" d="M166 1030l70 424q46 4 81 4q97 0 97 -67q0 -27 -17 -80q-41 -110 -145 -310z" />
<glyph unicode="&#x2c6;" horiz-adv-x="1024" d="M184 1257q126 186 211 287q31 38 54.5 53t58.5 15t57.5 -14t55.5 -52q115 -140 213 -286l-84 -70l-242 213l-240 -211z" />
<glyph unicode="&#x2c7;" horiz-adv-x="1024" d="M178 1542l84 70l242 -213l239 211l84 -66q-126 -186 -211 -287q-31 -38 -54 -52.5t-58 -14.5t-57.5 14t-55.5 51q-111 135 -213 287z" />
<glyph unicode="&#x2c9;" horiz-adv-x="1024" d="M213 1268v176h588v-176h-588z" />
<glyph unicode="&#x2d8;" horiz-adv-x="1024" d="M178 1503l152 35q30 -93 74.5 -132.5t113.5 -39.5q64 0 109.5 38.5t79.5 133.5l145 -35q-38 -138 -123 -215.5t-217 -77.5q-75 0 -134.5 24t-98.5 66.5t-63.5 92.5t-37.5 110z" />
<glyph unicode="&#x2d9;" horiz-adv-x="1024" d="M375 1325q0 58 39.5 97.5t101.5 39.5t101.5 -39.5t39.5 -97.5q0 -59 -40 -97t-101 -38q-64 0 -102.5 38t-38.5 97z" />
<glyph unicode="&#x2da;" horiz-adv-x="1024" d="M317 1346q0 83 54.5 136.5t140.5 53.5q88 0 139 -51.5t51 -128.5q0 -89 -53 -145t-143 -56q-88 0 -138.5 54.5t-50.5 136.5zM438 1346q0 -38 19 -62t55 -24q35 0 54.5 24.5t19.5 61.5q0 84 -74 84t-74 -84z" />
<glyph unicode="&#x2db;" horiz-adv-x="1024" d="M268 -309q0 93 50 173.5t116 139.5l203 -2q-65 -53 -114.5 -125.5t-49.5 -132.5q0 -40 17.5 -61t62.5 -21q44 0 98 23l49 -152q-84 -43 -200 -43q-66 0 -113.5 18t-72 49t-35.5 64t-11 70z" />
<glyph unicode="&#x2dc;" horiz-adv-x="1024" d="M211 1432q79 59 172 59q55 0 143 -26.5t133 -26.5q64 0 127 37l17 -166q-67 -39 -139 -39q-47 0 -145 23.5t-138 23.5q-76 0 -152 -43z" />
<glyph unicode="&#x2dd;" horiz-adv-x="1024" d="M168 1237l238 393q155 -42 155 -123q0 -42 -55 -100q-28 -31 -69 -68.5t-103 -92.5t-86 -77zM518 1237l240 393q155 -39 155 -123q0 -40 -57 -100q-21 -24 -55.5 -57t-60 -55.5t-75.5 -66t-67 -59.5z" />
<glyph unicode="&#x394;" horiz-adv-x="1370" d="M33 0l526 1346h256l522 -1346h-1304zM346 190h678l-334 895h-8z" />
<glyph unicode="&#x3a9;" horiz-adv-x="1599" d="M113 0v217h278q-113 77 -177 204t-64 286q0 151 51.5 273t141 201.5t207.5 122t253 42.5q301 0 476 -156.5t175 -448.5q0 -164 -69 -302.5t-181 -221.5h297v-217h-567v176q266 193 266 510q0 115 -30.5 203t-85 141t-125 79t-154.5 26q-64 0 -121.5 -15.5t-108.5 -50 t-87.5 -86t-58 -128t-21.5 -171.5q0 -176 82 -307t204 -203v-174h-581z" />
<glyph unicode="&#x3bc;" horiz-adv-x="1196" d="M152 -442v1472h229v-592q0 -143 45 -219t154 -76q105 0 162 89.5t57 240.5v557h233v-819q0 -68 53 -68q25 0 80 25l29 -143q-89 -50 -186 -50q-79 0 -118 40.5t-44 125.5q-33 -76 -104.5 -123t-159.5 -47q-65 0 -121.5 26t-89.5 75v-514h-219z" />
<glyph unicode="&#x3c0;" horiz-adv-x="1290" d="M92 840v190h1125v-190h-158v-592q0 -59 11.5 -81t49.5 -22q28 0 86 15l33 -146q-80 -41 -197 -41q-215 0 -215 220v647h-344v-840h-231v840h-160z" />
<glyph unicode="&#x1e80;" horiz-adv-x="1660" d="M35 1362h250l211 -1016h8l209 907h254l213 -909h4l196 1018h246l-293 -1362h-278l-219 887h-7l-211 -887h-284zM573 1722q0 62 119 133l332 -321l-61 -84q-269 142 -310 168q-42 26 -61 49.5t-19 54.5z" />
<glyph unicode="&#x1e81;" horiz-adv-x="1607" d="M127 328v702h244v-639q0 -44 2 -73t10 -61.5t22.5 -51.5t41 -32t63.5 -13q80 0 133 58t53 138v674h244v-637q0 -39 1 -63t5 -54t13 -48.5t23.5 -35.5t38 -24.5t54.5 -7.5q207 0 207 415q0 186 -72 455h240q72 -238 72 -446q0 -288 -112 -450.5t-333 -162.5 q-207 0 -276 168q-118 -168 -330 -168q-168 0 -256 89t-88 268zM582 1507q0 82 155 123l240 -393l-80 -68q-23 20 -68.5 60t-73.5 64.5t-62 56.5t-56 55q-55 58 -55 102z" />
<glyph unicode="&#x1e82;" horiz-adv-x="1660" d="M35 1362h250l211 -1016h8l209 907h254l213 -909h4l196 1018h246l-293 -1362h-278l-219 887h-7l-211 -887h-284zM647 1536l332 322q119 -71 119 -136q0 -30 -20 -53.5t-62 -50.5q-27 -17 -68 -39.5t-74 -40t-85.5 -45t-79.5 -41.5z" />
<glyph unicode="&#x1e83;" horiz-adv-x="1607" d="M127 328v702h244v-639q0 -44 2 -73t10 -61.5t22.5 -51.5t41 -32t63.5 -13q80 0 133 58t53 138v674h244v-637q0 -39 1 -63t5 -54t13 -48.5t23.5 -35.5t38 -24.5t54.5 -7.5q207 0 207 415q0 186 -72 455h240q72 -238 72 -446q0 -288 -112 -450.5t-333 -162.5 q-207 0 -276 168q-118 -168 -330 -168q-168 0 -256 89t-88 268zM639 1237l238 393q155 -39 155 -123q0 -42 -55 -100q-28 -31 -69 -68.5t-103 -92.5t-86 -77z" />
<glyph unicode="&#x1e84;" horiz-adv-x="1660" d="M35 1362h250l211 -1016h8l209 907h254l213 -909h4l196 1018h246l-293 -1362h-278l-219 887h-7l-211 -887h-284zM498 1602q0 54 36 89t95 35q56 0 92.5 -35.5t36.5 -88.5q0 -55 -37 -90t-94 -35q-58 0 -93.5 34.5t-35.5 90.5zM913 1602q0 53 35.5 88.5t93.5 35.5 q56 0 92.5 -35.5t36.5 -88.5q0 -55 -36 -90t-93 -35q-59 0 -94 34.5t-35 90.5z" />
<glyph unicode="&#x1e85;" horiz-adv-x="1607" d="M127 328v702h244v-639q0 -44 2 -73t10 -61.5t22.5 -51.5t41 -32t63.5 -13q80 0 133 58t53 138v674h244v-637q0 -39 1 -63t5 -54t13 -48.5t23.5 -35.5t38 -24.5t54.5 -7.5q207 0 207 415q0 186 -72 455h240q72 -238 72 -446q0 -288 -112 -450.5t-333 -162.5 q-207 0 -276 168q-118 -168 -330 -168q-168 0 -256 89t-88 268zM483 1364q0 54 36 89.5t95 35.5q56 0 92.5 -36t36.5 -89q0 -55 -37 -91t-94 -36q-58 0 -93.5 35.5t-35.5 91.5zM889 1364q0 54 35.5 89.5t93.5 35.5q56 0 92.5 -36t36.5 -89q0 -56 -36 -91.5t-93 -35.5 q-59 0 -94 35.5t-35 91.5z" />
<glyph unicode="&#x1ef2;" horiz-adv-x="1138" d="M0 1362l442 -842v-520h250v520l447 842h-265l-292 -592h-9l-297 592h-276zM305 1722q0 62 119 133l332 -321l-62 -84q-263 139 -309 168q-42 26 -61 49.5t-19 54.5z" />
<glyph unicode="&#x1ef3;" horiz-adv-x="1097" d="M127 406v624h244v-581q0 -46 2.5 -76t12 -62.5t28 -51t51.5 -30.5t80 -12q89 0 138.5 46.5t49.5 133.5v633h242v-901q0 -169 -17 -285q-30 -187 -141.5 -288t-300.5 -101q-162 0 -247 71.5t-85 197.5q0 198 215 350q-272 40 -272 332zM311 1507q0 82 156 123l240 -393 l-80 -68q-23 20 -68.5 60t-73.5 64.5t-62 56.5t-56 55q-56 59 -56 102zM408 -238q0 -62 35 -96.5t102 -34.5q190 0 190 318v172q-74 -36 -128 -69.5t-102 -77t-72.5 -97t-24.5 -115.5z" />
<glyph unicode="&#x2000;" horiz-adv-x="940" />
<glyph unicode="&#x2001;" horiz-adv-x="1880" />
<glyph unicode="&#x2002;" horiz-adv-x="940" />
<glyph unicode="&#x2003;" horiz-adv-x="1880" />
<glyph unicode="&#x2004;" horiz-adv-x="626" />
<glyph unicode="&#x2005;" horiz-adv-x="470" />
<glyph unicode="&#x2006;" horiz-adv-x="313" />
<glyph unicode="&#x2007;" horiz-adv-x="313" />
<glyph unicode="&#x2008;" horiz-adv-x="235" />
<glyph unicode="&#x2009;" horiz-adv-x="376" />
<glyph unicode="&#x200a;" horiz-adv-x="104" />
<glyph unicode="&#x2010;" horiz-adv-x="659" d="M61 496v188h537v-188h-537z" />
<glyph unicode="&#x2011;" horiz-adv-x="659" d="M61 496v188h537v-188h-537z" />
<glyph unicode="&#x2012;" horiz-adv-x="659" d="M61 496v188h537v-188h-537z" />
<glyph unicode="&#x2013;" horiz-adv-x="1024" d="M0 500v170h1024v-170h-1024z" />
<glyph unicode="&#x2014;" horiz-adv-x="2048" d="M0 500v170h2048v-170h-2048z" />
<glyph unicode="&#x2018;" horiz-adv-x="442" d="M76 1075q0 52 37 136.5t72.5 144t93.5 147.5l133 -49l-119 -477q-36 -4 -64 -4q-153 0 -153 102z" />
<glyph unicode="&#x2019;" horiz-adv-x="434" d="M72 999l104 484q57 6 92 4q131 -8 131 -101q0 -115 -202 -428z" />
<glyph unicode="&#x201a;" horiz-adv-x="464" d="M55 -260q36 272 64 379q14 55 37 81.5t61 26.5q47 0 95.5 -25t80.5 -52l-211 -451z" />
<glyph unicode="&#x201c;" horiz-adv-x="776" d="M70 1075q0 52 36.5 136.5t72.5 144.5t93 147l134 -49l-119 -477q-36 -4 -64 -4q-153 0 -153 102zM410 1075q0 52 36.5 136.5t72.5 144.5t93 147l133 -49l-118 -477q-36 -4 -64 -4q-153 0 -153 102z" />
<glyph unicode="&#x201d;" horiz-adv-x="774" d="M72 999l104 484q57 6 92 4q131 -8 131 -101q0 -115 -202 -428zM412 999l104 484q57 6 92 4q131 -8 131 -101q0 -115 -202 -428z" />
<glyph unicode="&#x201e;" horiz-adv-x="804" d="M55 -260q36 272 64 379q14 55 37 81.5t61 26.5q47 0 95.5 -25t80.5 -52l-211 -451zM395 -260q36 272 64 379q14 55 37 81.5t61 26.5q47 0 95.5 -25t80.5 -52l-211 -451z" />
<glyph unicode="&#x2020;" horiz-adv-x="903" d="M51 948q0 96 133 96q44 0 104.5 -22.5t110.5 -65.5q-33 -44 -94.5 -72t-120.5 -28q-133 0 -133 92zM356 -106q0 -145 90 -244q46 30 72.5 102.5t26.5 141.5v759q0 143 -92 244q-43 -43 -70 -110.5t-27 -133.5v-759zM356 1229q0 133 95 133q94 0 94 -133q0 -42 -25.5 -103 t-70.5 -112q-93 93 -93 215zM504 954q48 45 109 67.5t104 22.5q135 0 135 -96q0 -49 -34 -70.5t-101 -21.5q-58 0 -120 27t-93 71z" />
<glyph unicode="&#x2021;" horiz-adv-x="905" d="M51 948q0 96 133 96q44 0 104.5 -22.5t110.5 -65.5q-12 -16 -16 -20q-48 -39 -104 -59.5t-95 -20.5q-133 0 -133 92zM53 20q0 97 133 97q44 0 104.5 -22.5t110.5 -65.5q-15 -20 -16 -21q-48 -39 -104 -59.5t-95 -20.5q-133 0 -133 92zM356 330q0 -145 90 -244q12 9 25 25 q74 109 74 219v323q0 147 -88 244q-16 -9 -25 -25q-76 -112 -76 -219v-323zM356 1229q0 133 95 133q94 0 94 -133q0 -44 -22.5 -104.5t-65.5 -110.5q-3 3 -10.5 8t-10.5 8q-38 49 -59 105t-21 94zM358 -252q0 -67 21.5 -100t71.5 -33q96 0 96 133q0 45 -22.5 105.5 t-67.5 109.5q-3 -3 -10.5 -8t-10.5 -8q-38 -48 -58 -104t-20 -95zM504 954q48 45 109 67.5t104 22.5q135 0 135 -96q0 -49 -34 -70.5t-101 -21.5q-40 0 -94 19.5t-105 58.5q-2 3 -7 10t-7 10zM506 27q48 45 109 67.5t104 22.5q135 0 135 -97q0 -49 -34 -70.5t-101 -21.5 q-39 0 -95 20t-104 58z" />
<glyph unicode="&#x2022;" horiz-adv-x="1024" d="M274 635q0 113 67 182.5t171 69.5t171 -69.5t67 -182.5q0 -114 -67 -184t-171 -70t-171 69.5t-67 184.5z" />
<glyph unicode="&#x2026;" horiz-adv-x="1611" d="M143 109q0 61 38 100t102 39q68 0 106.5 -37.5t38.5 -99.5t-37.5 -102t-101.5 -40q-70 0 -108 38.5t-38 101.5zM672 109q0 61 38 100t101 39q68 0 106.5 -37.5t38.5 -99.5t-37.5 -102t-101.5 -40q-70 0 -107.5 38.5t-37.5 101.5zM1184 109q0 61 38 100t101 39 q68 0 106.5 -37.5t38.5 -99.5t-37.5 -102t-101.5 -40q-70 0 -107.5 38.5t-37.5 101.5z" />
<glyph unicode="&#x202f;" horiz-adv-x="376" />
<glyph unicode="&#x2030;" horiz-adv-x="1892" d="M63 1026q0 152 78.5 236t206.5 84q126 0 200.5 -79.5t74.5 -234.5q0 -157 -77 -240t-210 -83q-132 0 -202.5 80t-70.5 237zM131 360l903 754l117 -137l-907 -754zM225 1018q0 -97 29.5 -138.5t85.5 -41.5q123 0 123 190q0 186 -119 186t-119 -196zM639 289 q0 153 78.5 236t206.5 83q125 0 199.5 -78.5t74.5 -234.5t-77.5 -240t-209.5 -84q-131 0 -201.5 81t-70.5 237zM799 283q0 -183 116 -183q121 0 121 193q0 184 -116 184q-121 0 -121 -194zM1272 289q0 153 78 236t206 83q127 0 201 -78.5t74 -234.5q0 -157 -77 -240.5 t-210 -83.5q-131 0 -201.5 81t-70.5 237zM1434 283q0 -98 29 -140.5t85 -42.5q123 0 123 193q0 184 -119 184q-118 0 -118 -194z" />
<glyph unicode="&#x2039;" horiz-adv-x="667" d="M104 545q0 40 60 100q142 135 338 283l94 -92l-256 -297l240 -332l-95 -86q-94 76 -204.5 183t-149.5 169q-27 42 -27 72z" />
<glyph unicode="&#x203a;" horiz-adv-x="667" d="M72 836l92 92q179 -132 340 -283q59 -59 59 -100q0 -32 -26 -72q-39 -62 -151.5 -170t-205.5 -182l-94 86l240 332z" />
<glyph unicode="&#x2044;" horiz-adv-x="354" d="M-203 53l598 1282l160 -67l-602 -1286z" />
<glyph unicode="&#x205f;" horiz-adv-x="470" />
<glyph unicode="&#x2070;" horiz-adv-x="772" d="M57 1098q0 205 89 308t245 103q322 0 322 -405q0 -209 -85.5 -312.5t-246.5 -103.5q-159 0 -241.5 99t-82.5 311zM233 1087q0 -140 37.5 -198t114.5 -58q73 0 111.5 61.5t38.5 209.5q0 145 -38 205.5t-112 60.5q-75 0 -113.5 -65.5t-38.5 -215.5z" />
<glyph unicode="&#x2074;" horiz-adv-x="772" d="M68 877v110l249 537l142 -66l-209 -448h160l59 217h109v-217h124v-138h-124v-174h-179v179h-331z" />
<glyph unicode="&#x2075;" horiz-adv-x="772" d="M104 756l56 131q100 -58 198 -58q136 0 136 117q0 30 -11.5 53t-36 37t-51 23.5t-68 13.5t-74 5.5t-81.5 2.5l55 416h424v-139h-303l-22 -158q168 -6 257 -64.5t89 -185.5q0 -50 -15 -93.5t-48 -83t-95.5 -62.5t-148.5 -23q-78 0 -157 23.5t-104 44.5z" />
<glyph unicode="&#x2076;" horiz-adv-x="772" d="M92 1051q0 69 13 131.5t44 122.5t78.5 106t121 79t167.5 44l39 -129q-130 -14 -201 -79t-86 -159q84 52 178 52q113 0 175.5 -66.5t62.5 -183.5q0 -123 -75.5 -202t-217.5 -79q-146 0 -222.5 96t-76.5 267zM262 1040q0 -217 133 -217q53 0 88 33t35 98q0 67 -29 100 t-92 33q-75 0 -135 -47z" />
<glyph unicode="&#x2077;" horiz-adv-x="772" d="M117 1360v137h569v-117q-147 -125 -208.5 -283.5t-61.5 -355.5v-43h-174v54q0 175 50.5 326.5t176.5 281.5h-352z" />
<glyph unicode="&#x2078;" horiz-adv-x="772" d="M94 893q0 87 50 144.5t118 86.5q-137 65 -137 187q0 81 72 139.5t194 58.5q72 0 125.5 -16.5t82.5 -44t42.5 -58t13.5 -63.5q0 -112 -125 -197q156 -81 156 -215q0 -44 -15.5 -82.5t-49 -72t-93.5 -53t-141 -19.5t-140.5 18t-91.5 48.5t-46.5 65t-14.5 73.5zM266 907 q0 -39 30.5 -65.5t94.5 -26.5q57 0 89 28.5t32 69.5q0 42 -36.5 75.5t-88.5 55.5q-49 -20 -85 -58t-36 -79zM287 1313q0 -30 28 -60.5t82 -54.5q38 20 65 53.5t27 67.5q0 29 -24.5 50.5t-77.5 21.5q-50 0 -75 -23.5t-25 -54.5z" />
<glyph unicode="&#x2079;" horiz-adv-x="772" d="M82 1231q0 123 77 200.5t218 77.5q146 0 221.5 -94.5t75.5 -267.5q0 -70 -12 -131.5t-42 -122t-77.5 -106.5t-122.5 -80t-172 -48l-37 134q130 19 201 82.5t84 150.5q-83 -47 -177 -47q-113 0 -175 67.5t-62 184.5zM248 1239q0 -129 123 -129q76 0 131 45q0 217 -133 217 q-54 0 -87.5 -32.5t-33.5 -100.5z" />
<glyph unicode="&#x2080;" horiz-adv-x="772" d="M57 236q0 205 89 308t245 103q322 0 322 -405q0 -209 -85.5 -312.5t-246.5 -103.5q-159 0 -241.5 99t-82.5 311zM233 225q0 -140 37.5 -198t114.5 -58q73 0 111.5 61.5t38.5 209.5q0 145 -38 205.5t-112 60.5q-75 0 -113.5 -65.5t-38.5 -215.5z" />
<glyph unicode="&#x2081;" horiz-adv-x="772" d="M102 489l256 146h162l-12 -141v-514h143v-144h-477v144h154v466l-166 -73z" />
<glyph unicode="&#x2082;" horiz-adv-x="772" d="M88 528q150 119 309 119q124 0 189 -57t65 -148q0 -70 -27 -124.5t-87 -120.5l-185 -213h326v-148h-563v119l254 291q46 55 68 92t22 76q0 80 -94 80q-77 0 -187 -80z" />
<glyph unicode="&#x2083;" horiz-adv-x="772" d="M111 -115l49 138q44 -23 104.5 -38.5t106.5 -15.5q121 0 121 88q0 20 -10 46t-20 43.5t-32 52.5q-71 -26 -164 -43l-39 118q70 15 133 37q27 9 43 16.5t35 20.5t28 32t9 44q0 40 -26.5 58t-67.5 18q-75 0 -193 -62l-71 115q151 94 303 94q112 0 172.5 -54t60.5 -138 q0 -107 -86 -179q99 -117 99 -217q0 -98 -73.5 -165.5t-219.5 -67.5q-70 0 -142.5 17t-119.5 42z" />
<glyph unicode="&#x2084;" horiz-adv-x="772" d="M68 14v111l249 537l142 -66l-209 -449h160l59 218h109v-218h124v-137h-124v-174h-179v178h-331z" />
<glyph unicode="&#x2085;" horiz-adv-x="772" d="M82 -106l55 131q100 -58 199 -58q135 0 135 117q0 30 -11.5 53t-36 37t-50.5 23.5t-67.5 13.5t-74 5.5t-81.5 2.5l55 416h424v-139h-303l-23 -158q168 -6 257 -64.5t89 -185.5q0 -50 -15 -93.5t-48 -83t-95.5 -62.5t-148.5 -23q-78 0 -156.5 23.5t-103.5 44.5z" />
<glyph unicode="&#x2086;" horiz-adv-x="772" d="M92 188q0 69 13 131.5t44 123t78.5 106.5t121 79t167.5 44l39 -129q-130 -14 -201 -79t-86 -159q82 51 178 51q113 0 175.5 -66.5t62.5 -183.5q0 -123 -75.5 -201.5t-217.5 -78.5q-147 0 -223 95.5t-76 266.5zM262 178q0 -217 133 -217q53 0 88 33t35 98q0 67 -29 100 t-92 33q-75 0 -135 -47z" />
<glyph unicode="&#x2087;" horiz-adv-x="772" d="M117 498v137h569v-117q-147 -125 -208.5 -283.5t-61.5 -355.5v-43h-174v53q0 175 50.5 327t176.5 282h-352z" />
<glyph unicode="&#x2088;" horiz-adv-x="772" d="M94 31q0 87 50 144.5t118 86.5q-137 65 -137 187q0 81 72 139.5t194 58.5q72 0 125.5 -16.5t82.5 -44t42.5 -58t13.5 -63.5q0 -112 -125 -197q156 -81 156 -215q0 -44 -15.5 -82.5t-49 -72t-93.5 -53t-141 -19.5t-140.5 18t-91.5 48.5t-46.5 65t-14.5 73.5zM266 45 q0 -39 30.5 -65.5t94.5 -26.5q57 0 89 28.5t32 69.5q0 42 -36.5 75.5t-88.5 55.5q-49 -20 -85 -58t-36 -79zM287 451q0 -30 28 -60.5t82 -54.5q38 20 65 53.5t27 67.5q0 29 -24 50t-78 21q-50 0 -75 -23t-25 -54z" />
<glyph unicode="&#x2089;" horiz-adv-x="772" d="M82 369q0 123 77 200.5t218 77.5q146 0 221.5 -94.5t75.5 -267.5q0 -70 -12 -131.5t-42 -122t-77.5 -106.5t-122.5 -80t-172 -48l-37 133q130 19 201 82.5t84 151.5q-83 -47 -177 -47q-113 0 -175 67.5t-62 184.5zM248 377q0 -129 123 -129q76 0 131 45q0 217 -133 217 q-54 0 -87.5 -32.5t-33.5 -100.5z" />
<glyph unicode="&#x20ac;" d="M53 453h201q-76 -69 -76 -179q0 -48 12 -90t42.5 -82t78 -68.5t123 -45.5t172.5 -17q258 0 469 133l-84 166q-173 -108 -350 -108q-103 0 -159 37.5t-56 113.5q0 65 44 102.5t114 37.5h360v168h-891v-168zM53 696v168h185q-60 69 -60 160q0 61 23.5 116.5t71 102.5 t132 75t195.5 28q265 0 475 -179l-112 -151q-98 71 -176.5 106t-174.5 35q-99 0 -142.5 -42.5t-43.5 -108.5q0 -71 43 -106.5t115 -35.5h360v-168h-891z" />
<glyph unicode="&#x2122;" horiz-adv-x="1413" d="M31 1221v141h544v-141h-194v-547h-164v547h-186zM627 674l43 688h168l151 -455l158 455h164l41 -688h-148l-20 426l-135 -377h-121l-133 375l-23 -424h-145z" />
<glyph unicode="&#x2126;" horiz-adv-x="1599" d="M113 0v217h278q-113 77 -177 204t-64 286q0 151 51.5 273t141 201.5t207.5 122t253 42.5q301 0 476 -156.5t175 -448.5q0 -164 -69 -302.5t-181 -221.5h297v-217h-567v176q266 193 266 510q0 115 -30.5 203t-85 141t-125 79t-154.5 26q-64 0 -121.5 -15.5t-108.5 -50 t-87.5 -86t-58 -128t-21.5 -171.5q0 -176 82 -307t204 -203v-174h-581z" />
<glyph unicode="&#x2153;" horiz-adv-x="1689" d="M72 1188l256 145h161l-12 -141v-514h144v-143h-478v143h154v467l-166 -74zM473 53l598 1282l160 -67l-602 -1286zM1051 49l49 137q44 -23 104.5 -38t106.5 -15q121 0 121 88q0 20 -10 46t-19.5 42t-32.5 53q-71 -26 -164 -43l-39 119q70 15 133 37q27 9 43 16.5t35 20.5 t28 32t9 44q0 40 -26.5 58t-67.5 18q-75 0 -193 -62l-71 115q151 94 303 94q112 0 172.5 -54.5t60.5 -138.5q0 -54 -19.5 -96t-66.5 -82q99 -117 99 -217q0 -98 -73.5 -165.5t-219.5 -67.5q-70 0 -142.5 17t-119.5 42z" />
<glyph unicode="&#x2154;" horiz-adv-x="1689" d="M45 1227q151 119 309 119q124 0 189 -57t65 -148q0 -70 -27 -125t-87 -121l-185 -213h326v-147h-563v118l254 291q46 55 68 92t22 76q0 80 -94 80q-77 0 -187 -80zM496 53l598 1282l159 -67l-602 -1286zM1075 49l49 137q44 -23 104.5 -38t106.5 -15q121 0 121 88 q0 20 -9.5 45.5t-20 43.5t-31.5 52q-71 -26 -164 -43l-39 119q70 15 133 37q27 9 43 16.5t35 20.5t28 32t9 44q0 40 -26.5 58t-67.5 18q-75 0 -193 -62l-72 115q151 94 303 94q112 0 173 -54.5t61 -138.5q0 -54 -19.5 -96t-66.5 -82q98 -116 98 -217q0 -98 -73.5 -165.5 t-219.5 -67.5q-70 0 -142.5 17t-119.5 42z" />
<glyph unicode="&#x215b;" horiz-adv-x="1689" d="M63 1188l256 145h162l-12 -141v-514h143v-143h-477v143h154v467l-166 -74zM451 53l598 1282l159 -67l-602 -1286zM1014 195q0 87 50 144.5t118 86.5q-138 66 -138 186q0 81 72.5 140t194.5 59q72 0 125.5 -16.5t82.5 -44t42.5 -58t13.5 -63.5q0 -112 -125 -197 q156 -81 156 -215q0 -44 -15.5 -82.5t-49 -72t-93.5 -53t-141 -19.5t-140.5 18t-91.5 48.5t-46.5 65t-14.5 73.5zM1186 209q0 -39 30.5 -65.5t94.5 -26.5q57 0 89 28.5t32 69.5q0 42 -36.5 75.5t-88.5 55.5q-49 -20 -85 -58t-36 -79zM1206 614q0 -64 111 -114q38 20 65 53.5 t27 67.5q0 29 -24 50t-78 21q-50 0 -75.5 -23.5t-25.5 -54.5z" />
<glyph unicode="&#x215c;" horiz-adv-x="1689" d="M63 584l50 137q44 -23 104.5 -38t106.5 -15q120 0 120 88q0 20 -9.5 45.5t-20 43.5t-31.5 52q-71 -26 -164 -43l-39 119q70 15 133 37q27 10 43 17t35 20t28 31.5t9 43.5q0 40 -26.5 58t-67.5 18q-77 0 -193 -61l-71 114q153 95 303 95q112 0 172.5 -54.5t60.5 -138.5 q0 -54 -19.5 -96t-66.5 -82q98 -116 98 -217q0 -98 -73.5 -166t-218.5 -68q-70 0 -143 17.5t-120 42.5zM442 53l598 1282l160 -67l-602 -1286zM1014 195q0 87 50 144.5t118 86.5q-138 66 -138 186q0 81 72.5 140t194.5 59q72 0 125.5 -16.5t82.5 -44t42.5 -58t13.5 -63.5 q0 -112 -125 -197q156 -81 156 -215q0 -44 -15.5 -82.5t-49 -72t-93.5 -53t-141 -19.5t-140.5 18t-91.5 48.5t-46.5 65t-14.5 73.5zM1186 209q0 -39 30.5 -65.5t94.5 -26.5q57 0 89 28.5t32 69.5q0 42 -36.5 75.5t-88.5 55.5q-49 -20 -85 -58t-36 -79zM1206 614 q0 -64 111 -114q38 20 65 53.5t27 67.5q0 29 -24 50t-78 21q-50 0 -75.5 -23.5t-25.5 -54.5z" />
<glyph unicode="&#x215d;" horiz-adv-x="1689" d="M61 592l56 131q98 -57 198 -57q136 0 136 116q0 30 -11.5 53t-36 37.5t-51 23.5t-68 13.5t-74 6t-81.5 2.5l55 415h424v-139h-303l-22 -158q168 -6 257 -64.5t89 -185.5q0 -50 -15 -93.5t-48 -83t-95.5 -62.5t-148.5 -23q-78 0 -157 23.5t-104 44.5zM442 53l598 1282 l160 -67l-602 -1286zM1018 195q0 87 50 144.5t118 86.5q-137 65 -137 186q0 81 72 140t194 59q72 0 125.5 -16.5t82.5 -44t42.5 -58t13.5 -63.5q0 -112 -125 -197q156 -81 156 -215q0 -44 -15.5 -82.5t-49 -72t-93.5 -53t-141 -19.5t-140.5 18t-91.5 48.5t-46.5 65 t-14.5 73.5zM1190 209q0 -39 30.5 -65.5t94.5 -26.5q57 0 89 28.5t32 69.5q0 42 -36.5 75.5t-88.5 55.5q-49 -20 -85 -58t-36 -79zM1210 614q0 -64 111 -114q38 20 65 53.5t27 67.5q0 29 -24 50t-78 21q-50 0 -75.5 -23.5t-25.5 -54.5z" />
<glyph unicode="&#x215e;" horiz-adv-x="1689" d="M98 1196v137h570v-116q-147 -125 -209 -283.5t-62 -355.5v-43h-174v53q0 372 228 608h-353zM371 53l598 1282l159 -67l-602 -1286zM985 195q0 87 50 144.5t118 86.5q-137 65 -137 186q0 81 72 140t194 59q72 0 125.5 -16.5t82.5 -44t42.5 -58t13.5 -63.5 q0 -112 -125 -197q156 -81 156 -215q0 -44 -15.5 -82.5t-49 -72t-93.5 -53t-141 -19.5t-140.5 18t-91.5 48.5t-46.5 65t-14.5 73.5zM1157 209q0 -39 30.5 -65.5t94.5 -26.5q57 0 89 28.5t32 69.5q0 42 -36.5 75.5t-88.5 55.5q-49 -20 -85 -58t-36 -79zM1178 614 q0 -65 110 -114q38 20 65 53.5t27 67.5q0 29 -24 50t-78 21q-50 0 -75 -23.5t-25 -54.5z" />
<glyph unicode="&#x2202;" horiz-adv-x="1136" d="M111 424q0 198 112.5 317t300.5 119q133 0 248 -72q-20 147 -156 258.5t-331 145.5l49 178q149 -28 264 -81t192 -124.5t126 -167t70.5 -203t21.5 -237.5q0 -97 -14.5 -181t-48 -159.5t-84.5 -129t-129 -85t-177 -31.5q-117 0 -204.5 36t-138.5 100t-76 143.5t-25 173.5z M348 420q0 -129 54.5 -198.5t154.5 -69.5q217 0 217 368q0 45 -2 70q-41 39 -101.5 65.5t-121.5 26.5q-94 0 -147.5 -69.5t-53.5 -192.5z" />
<glyph unicode="&#x2206;" horiz-adv-x="1370" d="M33 0l526 1346h256l522 -1346h-1304zM346 190h678l-334 895h-8z" />
<glyph unicode="&#x220f;" horiz-adv-x="1470" d="M147 -270v1616h1176v-1616h-254v1396h-668v-1396h-254z" />
<glyph unicode="&#x2211;" horiz-adv-x="1159" d="M55 -76l533 617l-514 608v197h1016v-220h-684l479 -589l-504 -588h752v-219h-1078v194z" />
<glyph unicode="&#x2212;" d="M133 545v196h830v-196h-830z" />
<glyph unicode="&#x2215;" horiz-adv-x="974" d="M72 -166l596 1690l213 -74l-598 -1690z" />
<glyph unicode="&#x2219;" horiz-adv-x="645" d="M174 629q0 61 38 100t101 39q68 0 107 -37.5t39 -99.5t-38 -102t-102 -40q-70 0 -107.5 38.5t-37.5 101.5z" />
<glyph unicode="&#x221a;" horiz-adv-x="1366" d="M70 866l409 207l264 -782l410 1206h242l-537 -1526h-231l-289 828l-197 -101z" />
<glyph unicode="&#x221e;" horiz-adv-x="1564" d="M84 707q0 137 95 233t245 96q114 0 197.5 -52.5t166.5 -166.5q102 115 188.5 168t199.5 53q146 0 225.5 -88.5t79.5 -218.5q0 -153 -89.5 -244.5t-228.5 -91.5q-202 0 -377 199q-172 -203 -366 -203q-157 0 -246.5 87t-89.5 229zM281 711q0 -66 39.5 -107t111.5 -41 q114 0 217 144q-52 82 -103 118.5t-110 36.5q-75 0 -115 -43t-40 -108zM922 711q48 -67 107 -107.5t116 -40.5q63 0 99 45.5t36 108.5q0 67 -35 106t-102 39q-59 0 -109.5 -38t-111.5 -113z" />
<glyph unicode="&#x222b;" horiz-adv-x="798" d="M59 -279l33 154q84 -25 133 -25q56 0 78 25t19 100q0 16 -1 35t-3 40.5t-3 31.5l-51 889q-6 105 -6 149q0 56 13.5 104t43.5 91t86.5 67.5t135.5 24.5q109 0 215 -37l-25 -153q-81 24 -137 24q-58 0 -81.5 -29t-19.5 -112q1 -31 4.5 -81t4.5 -67l51 -835q1 -12 3 -43.5 t3.5 -57.5t1.5 -41q5 -131 -63 -212.5t-205 -81.5q-131 0 -230 40z" />
<glyph unicode="&#x2248;" horiz-adv-x="1269" d="M100 831q65 100 139 156.5t167 56.5q54 0 114 -22.5t104.5 -49t100 -49t100.5 -22.5q53 0 97.5 31.5t91.5 97.5l141 -119q-125 -202 -311 -202q-62 0 -126 21.5t-108 48t-95 48t-89 21.5q-52 0 -94.5 -33.5t-91.5 -97.5zM104 408q67 100 141 156.5t165 56.5 q54 0 114 -22.5t105 -49.5t100 -49.5t100 -22.5q54 0 98 31t91 98l141 -119q-125 -202 -309 -202q-62 0 -126 21.5t-108 48t-95 48t-89 21.5q-52 0 -96 -34t-90 -97z" />
<glyph unicode="&#x2260;" d="M133 332v198h270l56 195h-326v197h381l59 213h197l-57 -213h250v-197h-304l-53 -195h357v-198h-410l-57 -215h-205l59 215h-217z" />
<glyph unicode="&#x2264;" d="M150 39v199h798v-199h-798zM152 659v168l722 355l82 -183l-536 -249l541 -256l-87 -185z" />
<glyph unicode="&#x2265;" d="M150 494l540 256l-536 249l82 183l722 -355v-168l-722 -350zM162 39v199h799v-199h-799z" />
<glyph unicode="&#x25ca;" horiz-adv-x="1189" d="M104 674l392 672h204l390 -668l-388 -678h-208zM344 676l258 -465l252 467l-258 450z" />
<glyph unicode="&#x25fc;" horiz-adv-x="1034" d="M0 0v1034h1034v-1034h-1034z" />
<glyph unicode="&#xf500;" horiz-adv-x="1689" d="M61 1188l256 145h162l-12 -141v-514h143v-143h-477v143h154v467l-166 -74zM467 53l598 1282l160 -67l-602 -1286zM1032 57l55 131q98 -57 199 -57q135 0 135 117q0 30 -11.5 53t-36 37t-50.5 23.5t-67.5 13.5t-74 5.5t-81.5 2.5l55 416h424v-140h-303l-23 -157 q168 -6 257 -64.5t89 -185.5q0 -50 -15 -93.5t-48 -83t-95.5 -62.5t-148.5 -23q-78 0 -157 23t-103 44z" />
<glyph unicode="&#xf501;" horiz-adv-x="1689" d="M51 1227q150 119 309 119q124 0 189 -57t65 -148q0 -70 -27 -125t-87 -121l-185 -213h326v-147h-563v118l254 291q46 55 68 92t22 76q0 80 -94 80q-77 0 -187 -80zM489 53l598 1282l160 -67l-602 -1286zM1028 57l55 131q98 -57 199 -57q135 0 135 117q0 30 -11.5 53 t-36 37t-50.5 23.5t-67.5 13.5t-74 5.5t-81.5 2.5l55 416h424v-140h-303l-23 -157q168 -6 257 -64.5t89 -185.5q0 -50 -15 -93.5t-48 -83t-95.5 -62.5t-148.5 -23q-78 0 -157 23t-103 44z" />
<glyph unicode="&#xf502;" horiz-adv-x="1689" d="M88 584l49 137q44 -23 104.5 -38t106.5 -15q121 0 121 88q0 20 -9.5 45.5t-20 43.5t-31.5 52q-71 -26 -164 -43l-39 119q70 15 133 37q27 10 43 17t35 20t28 31.5t9 43.5q0 40 -27 58t-68 18q-76 0 -192 -61l-72 114q153 95 303 95q112 0 173 -54.5t61 -138.5 q0 -54 -19.5 -96t-66.5 -82q98 -116 98 -217q0 -98 -73.5 -166t-219.5 -68q-70 0 -142.5 17.5t-119.5 42.5zM475 53l598 1282l160 -67l-602 -1286zM1026 57l55 131q98 -57 199 -57q135 0 135 117q0 30 -11.5 53t-36 37t-50.5 23.5t-67.5 13.5t-74 5.5t-81.5 2.5l55 416h424 v-140h-303l-23 -157q168 -6 257 -64.5t89 -185.5q0 -50 -15 -93.5t-48 -83t-95.5 -62.5t-148.5 -23q-78 0 -157 23t-103 44z" />
<glyph unicode="&#xf503;" horiz-adv-x="1689" d="M55 713v110l250 537l141 -66l-208 -448h159l60 217h108v-217h125v-137h-125v-174h-178v178h-332zM494 53l598 1282l159 -67l-602 -1286zM1030 57l55 131q98 -57 199 -57q135 0 135 117q0 30 -11.5 53t-36 37t-50.5 23.5t-67.5 13.5t-74 5.5t-81.5 2.5l55 416h424v-140 h-303l-23 -157q168 -6 257 -64.5t89 -185.5q0 -50 -15 -93.5t-48 -83t-95.5 -62.5t-148.5 -23q-78 0 -157 23t-103 44z" />
<glyph unicode="&#xf504;" horiz-adv-x="1689" d="M74 1188l256 145h162l-13 -141v-514h144v-143h-478v143h154v467l-166 -74zM481 53l598 1282l160 -67l-602 -1286zM1024 352q0 69 13 131.5t44 123t78.5 106.5t121 79t167.5 44l39 -129q-130 -14 -201 -79t-86 -159q82 51 178 51q113 0 175.5 -66.5t62.5 -183.5 q0 -123 -75.5 -201.5t-217.5 -78.5q-147 0 -223 95.5t-76 266.5zM1194 342q0 -217 133 -217q53 0 88 33t35 98q0 67 -29 100t-92 33q-75 0 -135 -47z" />
<glyph unicode="&#xf505;" horiz-adv-x="1689" d="M61 592l56 131q98 -57 198 -57q136 0 136 116q0 30 -11.5 53t-36 37.5t-51 23.5t-68 13.5t-74 6t-81.5 2.5l55 415h424v-139h-303l-22 -158q168 -6 257 -64.5t89 -185.5q0 -50 -15 -93.5t-48 -83t-95.5 -62.5t-148.5 -23q-78 0 -157 23.5t-104 44.5zM473 53l598 1282 l160 -67l-602 -1286zM1024 352q0 69 13 131.5t44 123t78.5 106.5t121 79t167.5 44l39 -129q-130 -14 -201 -79t-86 -159q82 51 178 51q113 0 175.5 -66.5t62.5 -183.5q0 -123 -75.5 -201.5t-217.5 -78.5q-147 0 -223 95.5t-76 266.5zM1194 342q0 -217 133 -217q53 0 88 33 t35 98q0 67 -29 100t-92 33q-75 0 -135 -47z" />
<glyph unicode="&#xf506;" horiz-adv-x="1689" d="M63 1188l256 145h162l-12 -141v-514h143v-143h-477v143h154v467l-166 -74zM457 53l598 1282l159 -67l-602 -1286zM1073 662v137h569v-117q-147 -125 -208.5 -283.5t-61.5 -355.5v-43h-174v53q0 175 50.5 327t176.5 282h-352z" />
<glyph unicode="&#xf507;" horiz-adv-x="1689" d="M59 1227q151 119 310 119q124 0 189 -57t65 -148q0 -69 -27.5 -124.5t-87.5 -121.5l-184 -213h325v-147h-563v118l254 291q46 55 68 92t22 76q0 80 -94 80q-76 0 -186 -80zM483 53l598 1282l160 -67l-602 -1286zM1081 662v137h570v-117q-147 -125 -209 -283.5t-62 -355.5 v-43h-174v53q0 373 228 609h-353z" />
<glyph unicode="&#xf508;" horiz-adv-x="1689" d="M63 584l50 137q44 -23 104.5 -38t106.5 -15q120 0 120 88q0 20 -9.5 45.5t-20 43.5t-31.5 52q-71 -26 -164 -43l-39 119q70 15 133 37q27 10 43 17t35 20t28 31.5t9 43.5q0 40 -26.5 58t-67.5 18q-77 0 -193 -61l-71 114q153 95 303 95q112 0 172.5 -54.5t60.5 -138.5 q0 -54 -19.5 -96t-66.5 -82q98 -116 98 -217q0 -98 -73.5 -166t-218.5 -68q-70 0 -143 17.5t-120 42.5zM440 53l598 1282l160 -67l-602 -1286zM1073 662v137h569v-117q-147 -125 -208.5 -283.5t-61.5 -355.5v-43h-174v53q0 175 50.5 327t176.5 282h-352z" />
<glyph unicode="&#xf509;" horiz-adv-x="1689" d="M49 713v110l250 537l141 -66l-209 -448h160l60 217h108v-217h125v-137h-125v-174h-178v178h-332zM477 53l598 1282l160 -67l-602 -1286zM1085 662v137h570v-117q-147 -125 -209 -283.5t-62 -355.5v-43h-174v53q0 373 228 609h-353z" />
<glyph unicode="&#xf50a;" horiz-adv-x="1689" d="M76 592l55 131q98 -57 199 -57q135 0 135 116q0 30 -11.5 53t-36 37.5t-51 23.5t-68 13.5t-74 6t-81.5 2.5l56 415h424v-139h-304l-22 -158q168 -6 257 -64.5t89 -185.5q0 -50 -15 -93.5t-48 -83t-95.5 -62.5t-148.5 -23q-78 0 -156.5 23.5t-103.5 44.5zM446 53l598 1282 l160 -67l-602 -1286zM1065 662v137h569v-117q-147 -125 -208.5 -283.5t-61.5 -355.5v-43h-174v53q0 175 50.5 327t176.5 282h-352z" />
<glyph unicode="&#xf50b;" horiz-adv-x="1689" d="M57 887q0 69 13 131.5t44 122.5t78.5 106t121 79t167.5 44l39 -129q-130 -14 -201 -79t-86 -158q82 51 179 51q113 0 175 -66.5t62 -183.5q0 -123 -75.5 -202t-217.5 -79q-146 0 -222.5 96t-76.5 267zM227 877q0 -218 133 -218q53 0 88 33.5t35 98.5q0 67 -29 100t-92 33 q-75 0 -135 -47zM461 53l598 1282l160 -67l-603 -1286zM1081 662v137h570v-117q-147 -125 -209 -283.5t-62 -355.5v-43h-174v53q0 373 228 609h-353z" />
<glyph unicode="&#xf50c;" horiz-adv-x="1689" d="M53 1188l256 145h162l-12 -141v-514h143v-143h-477v143h154v467l-166 -74zM442 53l598 1282l160 -67l-602 -1286zM1026 532q0 123 77 201t218 78q146 0 221.5 -94.5t75.5 -267.5q0 -70 -12 -131.5t-42 -122t-77.5 -106.5t-122.5 -80t-172 -48l-37 133q130 19 201 82.5 t84 151.5q-83 -47 -176 -47q-113 0 -175.5 67t-62.5 184zM1192 541q0 -129 123 -129q76 0 131 45q0 217 -133 217q-54 0 -87.5 -32.5t-33.5 -100.5z" />
<glyph unicode="&#xf50d;" horiz-adv-x="1689" d="M43 1227q151 119 309 119q124 0 189 -57t65 -148q0 -70 -27 -125t-87 -121l-185 -213h326v-147h-563v118l254 291q46 55 68 92t22 76q0 80 -95 80q-76 0 -186 -80zM481 53l598 1282l160 -67l-602 -1286zM1038 532q0 123 77 201t218 78q146 0 221.5 -94.5t75.5 -267.5 q0 -70 -12 -131.5t-42 -122t-77.5 -106.5t-122.5 -80t-172 -48l-37 133q130 19 201 82.5t84 151.5q-83 -47 -176 -47q-113 0 -175.5 67t-62.5 184zM1204 541q0 -129 123 -129q76 0 131 45q0 217 -133 217q-54 0 -87.5 -32.5t-33.5 -100.5z" />
<glyph unicode="&#xf50e;" horiz-adv-x="1689" d="M49 713v110l250 537l141 -66l-209 -448h160l60 217h108v-217h125v-137h-125v-174h-178v178h-332zM469 53l598 1282l160 -67l-602 -1286zM1038 532q0 123 77 201t218 78q146 0 221.5 -94.5t75.5 -267.5q0 -70 -12 -131.5t-42 -122t-77.5 -106.5t-122.5 -80t-172 -48 l-37 133q130 19 201 82.5t84 151.5q-83 -47 -176 -47q-113 0 -175.5 67t-62.5 184zM1204 541q0 -129 123 -129q76 0 131 45q0 217 -133 217q-54 0 -87.5 -32.5t-33.5 -100.5z" />
<glyph unicode="&#xf50f;" horiz-adv-x="1689" d="M72 592l55 131q98 -57 199 -57q135 0 135 116q0 30 -11.5 53t-36 37.5t-51 23.5t-68 13.5t-74 6t-81.5 2.5l56 415h423v-139h-303l-22 -158q168 -6 257 -64.5t89 -185.5q0 -50 -15 -93.5t-48 -83t-95.5 -62.5t-148.5 -23q-78 0 -156.5 23.5t-103.5 44.5zM446 53l598 1282 l160 -67l-602 -1286zM1022 532q0 123 77 201t218 78q146 0 221.5 -94.5t75.5 -267.5q0 -70 -12 -131.5t-42 -122t-77.5 -106.5t-122.5 -80t-172 -48l-37 133q130 19 201 82.5t84 151.5q-83 -47 -176 -47q-113 0 -175.5 67t-62.5 184zM1188 541q0 -129 123 -129q76 0 131 45 q0 217 -133 217q-54 0 -87.5 -32.5t-33.5 -100.5z" />
<glyph unicode="&#xf510;" horiz-adv-x="1689" d="M102 1196v137h570v-116q-147 -125 -209 -283.5t-62 -355.5v-43h-174v53q0 372 228 608h-353zM379 53l598 1282l160 -67l-602 -1286zM999 532q0 123 77 201t218 78q146 0 221.5 -94.5t75.5 -267.5q0 -70 -12 -131.5t-42 -122t-77.5 -106.5t-122.5 -80t-172 -48l-37 133 q130 19 201 82.5t84 151.5q-83 -47 -176 -47q-113 0 -175.5 67t-62.5 184zM1165 541q0 -129 123 -129q76 0 131 45q0 217 -133 217q-54 0 -87.5 -32.5t-33.5 -100.5z" />
<glyph unicode="&#xf511;" horiz-adv-x="1689" d="M61 729q0 87 50.5 145t117.5 87q-137 65 -137 186q0 81 72 140t194 59q137 0 201 -55t64 -128q0 -65 -34 -111t-91 -85q155 -81 155 -215q0 -44 -15.5 -83t-49 -72.5t-93.5 -53t-141 -19.5t-140.5 18t-91.5 48.5t-46.5 65t-14.5 73.5zM233 743q0 -39 30.5 -65.5 t94.5 -26.5q57 0 89 29t32 70q0 42 -36.5 75.5t-88.5 55.5q-49 -20 -85 -58.5t-36 -79.5zM254 1149q0 -65 111 -115q38 20 65 53.5t27 67.5q0 29 -24.5 50.5t-78.5 21.5q-50 0 -75 -23.5t-25 -54.5zM469 53l598 1282l160 -67l-602 -1286zM1040 532q0 123 77 201t218 78 q146 0 221.5 -94.5t75.5 -267.5q0 -70 -12 -131.5t-42 -122t-77.5 -106.5t-122.5 -80t-172 -48l-37 133q130 19 201 82.5t84 151.5q-83 -47 -176 -47q-113 0 -175.5 67t-62.5 184zM1206 541q0 -129 123 -129q76 0 131 45q0 217 -133 217q-54 0 -87.5 -32.5t-33.5 -100.5z " />
<glyph unicode="&#xf81e;" d="M61 506q0 268 135 411.5t357 143.5q226 0 352.5 -131t126.5 -393q0 -272 -130.5 -421t-362.5 -149q-230 0 -354 147t-124 392zM307 502q0 -165 64.5 -257.5t171.5 -92.5q109 0 175 93.5t66 286.5q0 174 -63.5 258t-173.5 84q-113 0 -176.5 -91.5t-63.5 -280.5z" />
<glyph unicode="&#xf81f;" d="M135 784l404 246h217l-17 -192v-650h244v-188h-739v188h248v574l-267 -137z" />
<glyph unicode="&#xf820;" d="M88 848q210 213 465 213q190 0 291.5 -90.5t101.5 -241.5q0 -117 -57.5 -201t-177.5 -174l-222 -166h508v-188h-893v145l390 293q107 80 151.5 138.5t44.5 130.5t-39 111.5t-116 39.5q-140 0 -314 -166z" />
<glyph unicode="&#xf821;" d="M82 887q85 70 205.5 122t255.5 52q175 0 268.5 -87t93.5 -220q0 -192 -160 -305q187 -181 187 -349q0 -201 -187.5 -313.5t-558.5 -151.5l-43 187q98 13 173.5 27.5t147.5 37.5t119 51.5t75 69.5t28 92q0 113 -127 230q-133 -53 -227 -70l-60 176q202 47 294.5 107.5 t92.5 167.5q0 70 -42 106.5t-119 36.5q-130 0 -303 -127z" />
<glyph unicode="&#xf822;" d="M53 2v131l402 918l202 -99l-335 -757h307v100l86 309h145v-409h184v-195h-184v-322h-246v324h-561z" />
<glyph unicode="&#xf823;" d="M135 -180q276 34 416.5 111.5t140.5 215.5q0 244 -508 220l86 663h664v-190h-469l-39 -283q110 -6 199 -28.5t163.5 -67.5t116 -122.5t41.5 -182.5q0 -223 -200 -357.5t-568 -167.5z" />
<glyph unicode="&#xf824;" d="M117 565q0 119 19.5 222.5t67.5 204t122 176t191 130.5t267 76l47 -184q-198 -30 -316 -145t-142 -289q58 37 134.5 60.5t143.5 23.5q169 0 263 -106.5t94 -291.5q0 -99 -28.5 -183t-82.5 -147.5t-140.5 -99t-195.5 -35.5q-95 0 -170.5 29.5t-126 81t-84 126.5 t-48.5 161.5t-15 189.5zM358 586q-4 -125 14 -215.5t68 -147.5t129 -57q88 0 143.5 70.5t55.5 195.5q0 109 -47.5 171.5t-134.5 62.5q-54 0 -122.5 -25t-105.5 -55z" />
<glyph unicode="&#xf825;" d="M113 829v201h886v-170l-593 -1184h-254l573 1153h-612z" />
<glyph unicode="&#xf826;" d="M104 326q0 67 23.5 128.5t63 107.5t78 78.5t81.5 57.5q-203 127 -203 306q0 148 112 245t296 97q101 0 177.5 -26t120.5 -70.5t65.5 -98t21.5 -113.5q0 -94 -51 -173t-139 -154q245 -144 245 -357q0 -77 -27 -143.5t-80.5 -119.5t-143 -83.5t-205.5 -30.5 q-120 0 -208.5 31.5t-136 84t-69 110.5t-21.5 123zM340 342q0 -74 51.5 -126t147.5 -52q94 0 146 49t52 135q0 43 -19.5 82.5t-53.5 70.5t-68 53.5t-74 41.5q-182 -99 -182 -254zM381 1018q0 -124 184 -219q62 43 107 103.5t45 123.5q0 67 -47 106t-123 39q-70 0 -118 -44 t-48 -109z" />
<glyph unicode="&#xf827;" d="M104 596q0 133 49.5 236.5t153 166t248.5 62.5q118 0 204.5 -44.5t136.5 -126t73.5 -185t23.5 -232.5q0 -702 -665 -782l-49 190q209 36 324 132t138 263q-118 -77 -282 -77q-169 0 -262 106t-93 291zM344 604q0 -107 46.5 -167t133.5 -60q56 0 125 23t105 53 q2 92 -7.5 165.5t-33 131t-66 89t-100.5 31.5q-93 0 -148 -69.5t-55 -196.5z" />
<glyph horiz-adv-x="659" d="M61 573v189h537v-189h-537z" />
<glyph horiz-adv-x="772" d="M57 934q0 205 89 308.5t245 103.5q322 0 322 -406q0 -209 -85.5 -312.5t-246.5 -103.5q-159 0 -241.5 99t-82.5 311zM233 924q0 -140 37.5 -198t114.5 -58q73 0 111.5 61t38.5 209q0 145 -38 205.5t-112 60.5q-75 0 -113.5 -65t-38.5 -215z" />
<glyph horiz-adv-x="772" d="M102 1188l256 145h162l-12 -141v-514h143v-143h-477v143h154v467l-166 -74z" />
<glyph horiz-adv-x="772" d="M88 1227q151 119 309 119q124 0 189 -57t65 -148q0 -70 -27 -125t-87 -121l-185 -213h326v-147h-563v118l254 291q46 55 68 92t22 76q0 80 -94 80q-77 0 -187 -80z" />
<glyph horiz-adv-x="772" d="M111 584l49 137q44 -23 104.5 -38t106.5 -15q121 0 121 88q0 20 -10 46t-19.5 42t-32.5 53q-71 -26 -164 -43l-39 119q70 15 133 37q27 10 43 17t35 20t28 31.5t9 43.5q0 40 -26.5 58t-67.5 18q-77 0 -193 -61l-71 114q153 95 303 95q112 0 172.5 -54.5t60.5 -138.5 q0 -54 -19.5 -96t-66.5 -82q99 -117 99 -217q0 -98 -73.5 -166t-219.5 -68q-70 0 -142.5 17.5t-119.5 42.5z" />
<glyph horiz-adv-x="772" d="M68 713v110l249 537l142 -66l-209 -448h160l59 217h109v-217h124v-137h-124v-174h-179v178h-331z" />
<glyph horiz-adv-x="772" d="M86 592l55 131q98 -57 199 -57q135 0 135 116q0 30 -11.5 53t-36 37.5t-51 23.5t-67.5 13.5t-73.5 6t-81.5 2.5l55 415h424v-139h-303l-23 -158q168 -6 257 -64.5t89 -185.5q0 -50 -15 -93.5t-48 -83t-95.5 -62.5t-148.5 -23q-78 0 -156.5 23.5t-103.5 44.5z" />
<glyph horiz-adv-x="772" d="M92 887q0 69 13 131.5t44 122.5t78.5 106t121 79t167.5 44l39 -129q-130 -14 -201 -79t-86 -158q82 51 178 51q113 0 175.5 -66.5t62.5 -183.5q0 -123 -75.5 -202t-217.5 -79q-146 0 -222.5 96t-76.5 267zM262 877q0 -218 133 -218q53 0 88 33.5t35 98.5q0 67 -29 100 t-92 33q-75 0 -135 -47z" />
<glyph horiz-adv-x="772" d="M117 1196v137h569v-116q-147 -125 -208.5 -283.5t-61.5 -355.5v-43h-174v53q0 175 50.5 326.5t176.5 281.5h-352z" />
<glyph horiz-adv-x="772" d="M94 729q0 87 50.5 145t117.5 87q-137 65 -137 186q0 81 72 140t194 59q137 0 200.5 -55t63.5 -128q0 -65 -34 -111t-91 -85q156 -81 156 -215q0 -44 -15.5 -83t-49 -72.5t-93.5 -53t-141 -19.5t-140.5 18t-91.5 48.5t-46.5 65t-14.5 73.5zM266 743q0 -39 30.5 -65.5 t94.5 -26.5q57 0 89 29t32 70q0 42 -36.5 75.5t-88.5 55.5q-49 -20 -85 -58.5t-36 -79.5zM287 1149q0 -30 28 -60.5t82 -54.5q38 20 65 53.5t27 67.5q0 29 -24.5 50.5t-77.5 21.5q-50 0 -75 -23.5t-25 -54.5z" />
<glyph horiz-adv-x="772" d="M82 1067q0 123 77 201t218 78q146 0 221.5 -95t75.5 -268q0 -89 -20.5 -164t-66.5 -143.5t-132.5 -115.5t-206.5 -64l-37 133q130 19 201 82.5t84 150.5q-83 -47 -177 -47q-113 0 -175 67.5t-62 184.5zM248 1075q0 -129 123 -129q76 0 131 45q0 217 -133 217 q-54 0 -87.5 -32.5t-33.5 -100.5z" />
<glyph horiz-adv-x="772" d="M57 399q0 205 89 308.5t245 103.5q322 0 322 -405q0 -209 -85.5 -312.5t-246.5 -103.5q-159 0 -241.5 98.5t-82.5 310.5zM233 389q0 -140 37.5 -198t114.5 -58q73 0 111.5 61t38.5 209q0 145 -38.5 206t-111.5 61q-75 0 -113.5 -65.5t-38.5 -215.5z" />
<glyph horiz-adv-x="772" d="M102 653l256 146h162l-12 -142v-514h143v-143h-477v143h154v467l-166 -73z" />
<glyph horiz-adv-x="772" d="M88 692q150 119 309 119q124 0 189 -57t65 -148q0 -70 -27 -125t-87 -121l-185 -213h326v-147h-563v119l254 291q46 55 68 92t22 76q0 79 -94 79q-79 0 -187 -79z" />
<glyph horiz-adv-x="772" d="M111 49l49 137q44 -23 104.5 -38t106.5 -15q121 0 121 88q0 20 -10 46t-19.5 42t-32.5 53q-71 -26 -164 -43l-39 119q70 15 133 37q27 9 43 16.5t35 20.5t28 32t9 44q0 40 -26.5 58t-67.5 18q-75 0 -193 -62l-71 115q151 94 303 94q112 0 172.5 -54.5t60.5 -138.5 q0 -54 -19.5 -96t-66.5 -82q99 -117 99 -217q0 -98 -73.5 -165.5t-219.5 -67.5q-70 0 -142.5 17t-119.5 42z" />
<glyph horiz-adv-x="772" d="M68 178v111l249 536l142 -65l-209 -449h160l59 217h109v-217h124v-137h-124v-174h-179v178h-331z" />
<glyph horiz-adv-x="772" d="M94 57l56 131q98 -57 198 -57q135 0 135 117q0 30 -11.5 53t-36 37t-50.5 23.5t-67.5 13.5t-74 5.5t-81.5 2.5l55 416h424v-140h-303l-23 -157q168 -6 257.5 -64.5t89.5 -185.5q0 -50 -15 -93.5t-48.5 -83t-96 -62.5t-148.5 -23q-78 0 -157 23t-103 44z" />
<glyph horiz-adv-x="772" d="M92 352q0 69 13 131.5t44 123t78.5 106.5t121 79t167.5 44l39 -129q-130 -14 -201 -79t-86 -159q82 51 178 51q113 0 175.5 -66.5t62.5 -183.5q0 -123 -75.5 -201.5t-217.5 -78.5q-147 0 -223 95.5t-76 266.5zM262 342q0 -217 133 -217q53 0 88 33t35 98q0 67 -29 100 t-92 33q-75 0 -135 -47z" />
<glyph horiz-adv-x="772" d="M117 662v137h569v-117q-147 -125 -208.5 -283.5t-61.5 -355.5v-43h-174v53q0 175 50.5 327t176.5 282h-352z" />
<glyph horiz-adv-x="772" d="M94 195q0 87 50 144.5t118 86.5q-137 65 -137 186q0 81 72 140t194 59q72 0 125.5 -16.5t82.5 -44t42.5 -58t13.5 -63.5q0 -112 -125 -197q156 -81 156 -215q0 -44 -15.5 -82.5t-49 -72t-93.5 -53t-141 -19.5t-140.5 18t-91.5 48.5t-46.5 65t-14.5 73.5zM266 209 q0 -39 30.5 -65.5t94.5 -26.5q57 0 89 28.5t32 69.5q0 42 -36.5 75.5t-88.5 55.5q-49 -20 -85 -58t-36 -79zM287 614q0 -65 110 -114q38 20 65 53.5t27 67.5q0 29 -24 50t-78 21q-50 0 -75 -23.5t-25 -54.5z" />
<glyph horiz-adv-x="772" d="M82 532q0 123 77 201t218 78q146 0 221.5 -94.5t75.5 -267.5q0 -70 -12 -131.5t-42 -122t-77.5 -106.5t-122.5 -80t-172 -48l-37 133q130 19 201 82.5t84 151.5q-83 -47 -177 -47q-113 0 -175 67t-62 184zM248 541q0 -129 123 -129q76 0 131 45q0 217 -133 217 q-54 0 -87.5 -32.5t-33.5 -100.5z" />
<glyph horiz-adv-x="1024" d="M293 -530l121 405q31 -2 48.5 -3.5t46 -7t44.5 -14.5t28.5 -26.5t12.5 -40.5q0 -35 -33 -96q-40 -73 -172 -265z" />
<glyph horiz-adv-x="1024" d="M365 1272q0 37 32 96t172 262l99 -47l-121 -407q-39 3 -63 6.5t-55.5 13t-47.5 29t-16 47.5z" />
<glyph horiz-adv-x="1024" d="M211 1657q75 59 172 59q55 0 143 -26.5t133 -26.5q55 0 127 37l17 -166q-69 -37 -139 -37q-47 0 -145 22.5t-138 22.5q-80 0 -152 -41z" />
<glyph horiz-adv-x="1024" d="M317 1567q0 83 54.5 136.5t140.5 53.5q88 0 139 -51.5t51 -128.5q0 -89 -53 -145t-143 -56q-88 0 -138.5 54.5t-50.5 136.5zM438 1567q0 -38 19 -62t55 -24q35 0 54.5 24.5t19.5 61.5q0 84 -74 84t-74 -84z" />
<glyph horiz-adv-x="1024" d="M182 1520q126 164 226 254q54 49 100 49q53 0 96 -43q143 -143 234 -258l-84 -72l-246 176l-242 -176z" />
<glyph horiz-adv-x="1024" d="M305 1536l332 322q119 -71 119 -136q0 -30 -20 -53.5t-62 -50.5q-27 -17 -68 -39.5t-74 -40t-85.5 -45t-79.5 -41.5z" />
<glyph horiz-adv-x="1024" d="M305 1722q0 62 119 133l332 -321l-62 -84q-263 139 -309 168q-42 26 -61 49.5t-19 54.5z" />
<glyph horiz-adv-x="1024" d="M174 1602q0 54 36 89t95 35q56 0 92.5 -35.5t36.5 -88.5q0 -55 -37 -90t-94 -35q-58 0 -93.5 34.5t-35.5 90.5zM590 1602q0 53 35.5 88.5t93.5 35.5q56 0 92.5 -35.5t36.5 -88.5q0 -55 -36 -90t-93 -35q-59 0 -94 34.5t-35 90.5z" />
<glyph horiz-adv-x="1024" d="M182 1753l84 70l242 -176l246 176l84 -72q-91 -115 -234 -258q-43 -43 -96 -43q-46 0 -100 49q-100 90 -226 254z" />
<glyph horiz-adv-x="1024" d="M213 1503v178h588v-178h-588z" />
<glyph horiz-adv-x="1024" d="M375 1624q0 58 39.5 97.5t101.5 39.5t101.5 -39.5t39.5 -97.5q0 -59 -40 -97t-101 -38q-64 0 -102.5 38t-38.5 97z" />
<glyph horiz-adv-x="1024" d="M272 -459l33 111q84 -27 137 -27q103 0 103 72q0 46 -46.5 62t-138.5 16l74 231h117l-37 -141q83 -6 133.5 -48t50.5 -114q0 -54 -21.5 -94t-57.5 -62t-76.5 -32.5t-85.5 -10.5q-98 0 -185 37z" />
<glyph horiz-adv-x="1024" d="M115 1524l340 315q114 -77 114 -135q0 -31 -20 -55t-64 -50q-54 -32 -311 -161zM541 1524l340 313q114 -71 114 -133q0 -30 -20.5 -54t-63.5 -51q-54 -32 -311 -161z" />
<glyph horiz-adv-x="1024" d="M293 -530l121 405q31 -2 48.5 -3.5t46 -7t44.5 -14.5t28.5 -26.5t12.5 -40.5q0 -35 -33 -96q-11 -20 -25 -42.5t-24.5 -39t-30 -45t-28.5 -41t-34.5 -48t-33.5 -46.5z" />
<glyph horiz-adv-x="1024" d="M168 1729l151 63q31 -81 77.5 -121.5t121.5 -40.5t119 37t78 125l149 -61q-88 -256 -354 -256q-74 0 -134 21.5t-100.5 58.5t-66.5 80t-41 94z" />
<glyph horiz-adv-x="516" d="M174 979v430q62 16 105 16q50 0 74 -16.5t24 -52.5q0 -28 -8 -74q-23 -129 -97 -321z" />
<glyph horiz-adv-x="1024" d="M268 -309q0 93 50 173.5t116 139.5l203 -2q-65 -53 -114.5 -125.5t-49.5 -132.5q0 -40 17.5 -61t62.5 -21q44 0 98 23l49 -152q-84 -43 -200 -43q-66 0 -113.5 18t-72 49t-35.5 64t-11 70z" />
<glyph d="M72 664q0 343 128.5 512.5t356.5 169.5q465 0 465 -674q0 -357 -120.5 -524.5t-358.5 -167.5t-354.5 165t-116.5 519zM319 641q0 -130 15.5 -221.5t46.5 -144t71.5 -76t94.5 -23.5q42 0 76 13.5t63.5 48t49 89.5t31 141t11.5 200q0 136 -16 231t-47.5 148t-71 75.5 t-92.5 22.5q-56 0 -97 -25t-72 -81.5t-47 -156t-16 -241.5z" />
<glyph d="M141 1071l402 248h217l-17 -195v-936h234v-188h-719v188h242v865l-269 -140z" />
<glyph d="M90 0v158l447 514q85 99 115 153.5t30 132.5q0 81 -48 124.5t-124 43.5q-127 0 -283 -145l-135 160q93 93 213 149t246 56q186 0 287.5 -99t101.5 -266q0 -191 -176 -389l-344 -393h579v-199h-909z" />
<glyph d="M80 1147q79 78 210 138.5t279 60.5q175 0 269 -89t94 -225q0 -187 -162 -301q87 -74 134.5 -165t47.5 -187q0 -79 -27 -149.5t-80.5 -128t-143.5 -91t-205 -33.5q-114 0 -228.5 31t-179.5 72l72 194q68 -38 160.5 -64t166.5 -26q99 0 158.5 48.5t59.5 129.5 q0 121 -119 240q-96 -41 -228 -65l-59 180q99 23 163.5 44t117.5 51.5t77.5 72.5t24.5 98q0 74 -42.5 113t-119.5 39q-71 0 -157.5 -40t-159.5 -104z" />
<glyph d="M74 317v170l405 863l195 -97l-350 -743h313v90l86 293h143v-383h183v-195h-185v-315h-246v317h-544z" />
<glyph d="M72 86l82 188q171 -94 321 -94q112 0 166.5 55t54.5 146q0 250 -516 250l88 688h674v-203h-493l-41 -309q110 -8 203 -34.5t171.5 -75t123 -128.5t44.5 -184q0 -76 -26 -146t-79 -130t-146 -96t-214 -36q-114 0 -230.5 33.5t-182.5 75.5z" />
<glyph d="M111 565q0 119 19.5 222.5t67.5 204t122 176t191 130.5t267 76l47 -184q-198 -30 -316 -145t-142 -289q58 37 134.5 60.5t143.5 23.5q169 0 262.5 -106.5t93.5 -291.5q0 -134 -48 -237t-150.5 -165.5t-247.5 -62.5q-95 0 -170.5 29.5t-126 81t-84 126.5t-48.5 161.5 t-15 189.5zM352 586q-4 -125 14 -215.5t68 -147.5t129 -57q88 0 143.5 70.5t55.5 195.5q0 109 -47.5 171.5t-134.5 62.5q-54 0 -122.5 -25t-105.5 -55z" />
<glyph d="M143 1116v203h881v-170q-98 -82 -173.5 -176.5t-122.5 -190t-78 -185t-45.5 -185t-19.5 -165.5t-5 -149v-98h-256v115q0 96 8.5 183.5t34 196t67 207t113 207.5t166.5 207h-570z" />
<glyph d="M104 326q0 67 23.5 128.5t63 107.5t78 78.5t81.5 57.5q-203 127 -203 306q0 148 112 245t296 97q101 0 177.5 -26t120.5 -70.5t65.5 -98t21.5 -113.5q0 -94 -51 -173t-139 -154q245 -144 245 -357q0 -77 -27 -143.5t-80.5 -119.5t-143 -83.5t-205.5 -30.5 q-120 0 -208.5 31.5t-136 84t-69 110.5t-21.5 123zM340 342q0 -74 51.5 -126t147.5 -52q94 0 146 49t52 135q0 43 -19.5 82.5t-53.5 70.5t-68 53.5t-74 41.5q-182 -99 -182 -254zM381 1018q0 -124 184 -219q62 43 107 103.5t45 123.5q0 67 -47 106t-123 39q-70 0 -118 -44 t-48 -109z" />
<glyph d="M94 881q0 133 49.5 236.5t153 166t248.5 62.5q118 0 204.5 -44.5t136.5 -126t73.5 -185t23.5 -232.5q0 -703 -666 -783l-49 191q209 36 324.5 132t138.5 263q-119 -78 -282 -78q-169 0 -262 106.5t-93 291.5zM334 889q0 -107 46.5 -167t133.5 -60q56 0 124.5 22.5 t104.5 52.5q5 191 -44 304.5t-162 113.5q-93 0 -148 -69.5t-55 -196.5z" />
<glyph d="M51 147l92 183q56 -37 144.5 -70t175.5 -43v379q-67 21 -113.5 39.5t-97.5 50t-81.5 68t-50.5 91.5t-20 124q0 157 100.5 252t262.5 118v191h153v-189q117 -11 224.5 -63.5t179.5 -124.5l-133 -156q-144 117 -271 142v-346q47 -17 76 -28t73.5 -32t72.5 -40t61 -49 t51.5 -63t31.5 -77.5t13 -95.5q0 -172 -100.5 -268t-278.5 -117v-244h-153v239q-124 8 -240.5 48t-171.5 81zM338 985q0 -56 31.5 -90t93.5 -59v299q-125 -30 -125 -150zM616 215q69 15 107.5 61t38.5 117q0 109 -146 162v-340z" />
<glyph d="M70 453h200q-75 -68 -75 -179q0 -48 12 -90t42.5 -82t78 -68.5t123 -45.5t172.5 -17q258 0 469 133l-84 166q-173 -108 -351 -108q-103 0 -159 37.5t-56 113.5q0 65 44 102.5t114 37.5h361v168h-891v-168zM70 696v168h184q-59 68 -59 160q0 61 23 116.5t70.5 102.5 t132 75t195.5 28q266 0 476 -179l-113 -151q-98 71 -176 106t-174 35q-99 0 -143 -42.5t-44 -108.5q0 -71 43 -106.5t115 -35.5h361v-168h-891z" />
<glyph d="M147 633q0 131 34 233t92.5 164.5t126.5 97t147 46.5v229h153v-229q188 -31 297 -189l-153 -127q-73 84 -144 113v-674q88 14 187 86l92 -164q-114 -95 -279 -115v-227h-153v227q-192 22 -296 157.5t-104 371.5zM391 643q0 -268 156 -330v658q-73 -27 -114.5 -110 t-41.5 -218z" />
<glyph d="M-4 -156q77 37 123.5 95t70.5 157l48 197h-175v172h207l103 479q48 218 153 310t273 92q179 0 334 -134l-119 -147q-108 88 -211 88q-91 0 -133 -53t-68 -178l-98 -457h330v-170h-363l-37 -162q-36 -163 -162 -270l2 -4q96 28 158 28q63 0 181.5 -24.5t191.5 -24.5 q88 0 192 29l-26 -199q-99 -18 -178 -18q-100 0 -266.5 31.5t-258.5 31.5q-62 0 -137 -16t-135 -43v190z" />
<glyph d="M68 1319h254l251 -518h11l247 518h246l-297 -557h226v-156h-314v-153h314v-156h-314v-297h-248v297h-315v156h315v153h-315v156h229z" />
<glyph horiz-adv-x="991" d="M-223 -358l82 161q94 -51 190 -51q72 0 111 38t53 118l121 694h-219l30 195h224l26 153q11 63 22.5 107.5t31.5 93.5t49 81.5t69.5 60t98 40.5t131.5 13q68 0 148.5 -20.5t139.5 -51.5l-81 -164q-44 24 -97.5 38.5t-93.5 14.5q-72 0 -110.5 -37t-53.5 -118l-39 -211h303 l-34 -195h-301l-109 -627q-13 -77 -29 -132t-46.5 -109.5t-73 -88t-109 -54.5t-154.5 -21q-67 0 -144 20t-136 52z" />
<glyph horiz-adv-x="1073" d="M51 506q0 268 135 411.5t357 143.5q226 0 352.5 -131t126.5 -393q0 -272 -131 -421t-363 -149q-230 0 -353.5 147t-123.5 392zM297 502q0 -165 64 -257.5t171 -92.5q110 0 176 93.5t66 286.5q0 174 -63.5 258t-173.5 84q-113 0 -176.5 -91.5t-63.5 -280.5z" />
<glyph horiz-adv-x="954" d="M72 784l403 246h217l-16 -192v-650h244v-188h-740v188h248v574l-266 -137z" />
<glyph horiz-adv-x="1011" d="M39 848q210 213 465 213q190 0 291.5 -90.5t101.5 -241.5q0 -117 -57.5 -201t-177.5 -174l-222 -166h508v-188h-893v145l389 293q108 80 152.5 138.5t44.5 130.5t-39.5 111.5t-116.5 39.5q-139 0 -313 -166z" />
<glyph horiz-adv-x="974" d="M41 887q85 70 205.5 122t255.5 52q175 0 268.5 -87t93.5 -220q0 -193 -159 -305q186 -180 186 -349q0 -201 -187.5 -313.5t-558.5 -151.5l-43 187q98 13 173.5 27.5t147.5 37.5t119 51.5t75 69.5t28 92q0 113 -127 230q-133 -53 -227 -70l-60 176q202 47 294.5 107.5 t92.5 167.5q0 70 -42 106.5t-119 36.5q-130 0 -303 -127z" />
<glyph horiz-adv-x="1060" d="M59 2v131l402 918l203 -99l-336 -757h307v100l86 309h145v-409h185v-195h-185v-322h-245v324h-562z" />
<glyph horiz-adv-x="960" d="M72 -180q276 34 416.5 111.5t140.5 215.5q0 244 -508 220l86 663h663v-190h-469l-39 -283q87 -4 160.5 -18.5t141.5 -45t115.5 -74.5t75.5 -111t28 -152q0 -223 -200 -357.5t-568 -167.5z" />
<glyph horiz-adv-x="1099" d="M113 565q0 119 19.5 222.5t67.5 204t122 176t191 130.5t267 76l47 -184q-198 -30 -316 -145t-142 -289q58 37 134.5 60.5t143.5 23.5q169 0 263 -106.5t94 -291.5q0 -99 -28.5 -183t-82.5 -147.5t-140.5 -99t-195.5 -35.5q-95 0 -170.5 29.5t-126 81t-84 126.5 t-48.5 161.5t-15 189.5zM354 586q-4 -125 14 -215.5t68 -147.5t129 -57q88 0 143.5 70.5t55.5 195.5q0 109 -47.5 171.5t-134.5 62.5q-54 0 -122.5 -25t-105.5 -55z" />
<glyph horiz-adv-x="985" d="M47 829v201h887v-170l-594 -1184h-254l573 1153h-612z" />
<glyph horiz-adv-x="1093" d="M100 326q0 67 23.5 128.5t63 107.5t78 78.5t81.5 57.5q-203 127 -203 306q0 148 112 245t296 97q101 0 177.5 -26t120.5 -70.5t65.5 -98t21.5 -113.5q0 -94 -51.5 -172.5t-139.5 -154.5q246 -144 246 -357q0 -77 -27 -143.5t-80.5 -119.5t-143 -83.5t-205.5 -30.5 q-120 0 -208.5 31.5t-136 84t-69 110.5t-21.5 123zM336 342q0 -74 51.5 -126t147.5 -52q94 0 146 49t52 135q0 43 -19.5 82.5t-53.5 70.5t-68 53.5t-74 41.5q-182 -99 -182 -254zM377 1018q0 -124 184 -219q62 43 107 103.5t45 123.5q0 67 -47 106t-123 39q-70 0 -118 -44 t-48 -109z" />
<glyph horiz-adv-x="1083" d="M98 596q0 133 49.5 236.5t153 166t248.5 62.5q118 0 204.5 -44.5t136.5 -126t73.5 -185t23.5 -232.5q0 -702 -665 -782l-50 190q209 36 324.5 132t138.5 263q-118 -77 -282 -77q-169 0 -262 106t-93 291zM338 604q0 -107 46.5 -167t133.5 -60q56 0 125 23t105 53 q2 92 -7.5 165.5t-33 131t-66 89t-100.5 31.5q-93 0 -148 -69.5t-55 -196.5z" />
<glyph d="M39 147l92 183q56 -37 144.5 -70t175.5 -43v379q-67 21 -113.5 39.5t-97.5 50t-81.5 68t-50.5 91.5t-20 124q0 157 100.5 252t262.5 118v191h153v-189q117 -11 224.5 -63.5t179.5 -124.5l-134 -156q-144 117 -270 142v-346q47 -17 76 -28t73.5 -32t72.5 -40t61 -49 t51.5 -63t31.5 -77.5t13 -95.5q0 -172 -100.5 -268t-278.5 -117v-244h-153v239q-124 8 -240.5 48t-171.5 81zM326 985q0 -56 31.5 -90t93.5 -59v299q-125 -30 -125 -150zM604 215q69 15 107.5 61t38.5 117q0 109 -146 162v-340z" />
<glyph horiz-adv-x="1112" d="M70 453h200q-75 -68 -75 -179q0 -48 12 -90t42.5 -82t78 -68.5t123 -45.5t172.5 -17q258 0 469 133l-84 166q-173 -108 -351 -108q-103 0 -159 37.5t-56 113.5q0 65 44 102.5t114 37.5h361v168h-891v-168zM70 696v168h184q-59 68 -59 160q0 61 23 116.5t70.5 102.5 t132 75t195.5 28q266 0 476 -179l-113 -151q-98 71 -176 106t-174 35q-99 0 -143 -42.5t-44 -108.5q0 -71 43 -106.5t115 -35.5h361v-168h-891z" />
<glyph d="M156 489q0 131 33.5 233t92 164.5t126.5 97t147 46.5v230h154v-230q189 -31 297 -188l-154 -127q-72 83 -143 112v-673q86 14 186 86l92 -164q-115 -95 -278 -115v-227h-154v227q-192 22 -295.5 157t-103.5 371zM399 500q0 -268 156 -330v657q-73 -27 -114.5 -109.5 t-41.5 -217.5z" />
<glyph horiz-adv-x="1138" d="M84 -156q77 37 124 95t71 157l47 197h-174v172h206l103 479q48 218 153 310t273 92q179 0 334 -134l-119 -147q-108 88 -211 88q-91 0 -133 -53t-68 -178l-98 -457h330v-170h-363l-37 -162q-36 -163 -162 -270l2 -4q96 28 158 28q63 0 181.5 -24.5t191.5 -24.5 q88 0 192 29l-26 -199q-99 -18 -178 -18q-100 0 -266.5 31.5t-258.5 31.5q-62 0 -137 -16t-135 -43v190z" />
<glyph horiz-adv-x="1058" d="M47 1319h254l252 -518h10l248 518h246l-297 -557h225v-156h-313v-153h313v-156h-313v-297h-248v297h-315v156h315v153h-315v156h229z" />
<glyph horiz-adv-x="1054" d="M-197 -358l82 161q44 -24 97.5 -37.5t93.5 -13.5q72 0 111 38t53 118l120 694h-219l31 195h223l27 153q11 63 22.5 107.5t31.5 93.5t48.5 81.5t69 60t98 40.5t131.5 13q68 0 149 -20.5t140 -51.5l-82 -164q-98 53 -190 53q-72 0 -110.5 -37t-53.5 -118l-39 -211h303 l-35 -195h-301l-108 -627q-13 -77 -29 -132t-46.5 -109.5t-73 -88t-109 -54.5t-154.5 -21q-67 0 -144.5 20t-136.5 52z" />
<glyph d="M33 147l92 183q56 -37 144 -70t175 -43v379q-67 21 -113.5 39.5t-97 50t-81 68t-50.5 91.5t-20 124q0 158 100 252.5t262 117.5v191h154v-189q117 -11 224 -63.5t179 -124.5l-133 -156q-144 117 -270 142v-346q47 -17 76 -28t73.5 -32t72.5 -40t61 -49t51.5 -63 t31.5 -77.5t13 -95.5q0 -172 -100.5 -268t-278.5 -117v-244h-154v239q-124 8 -240 48t-171 81zM319 985q0 -56 31.5 -90t93.5 -59v299q-125 -30 -125 -150zM598 215q69 15 107 61t38 117q0 110 -145 162v-340z" />
<glyph d="M70 453h200q-75 -68 -75 -179q0 -48 12 -90t42.5 -82t78 -68.5t123 -45.5t172.5 -17q258 0 469 133l-84 166q-173 -108 -351 -108q-103 0 -159 37.5t-56 113.5q0 65 44 102.5t114 37.5h361v168h-891v-168zM70 696v168h184q-59 68 -59 160q0 61 23 116.5t70.5 102.5 t132 75t195.5 28q266 0 476 -179l-113 -151q-98 71 -176 106t-174 35q-99 0 -143 -42.5t-44 -108.5q0 -71 43 -106.5t115 -35.5h361v-168h-891z" />
<glyph d="M168 489q0 131 33.5 233t92 164.5t126.5 97t147 46.5v230h154v-230q189 -31 297 -188l-154 -127q-72 83 -143 112v-673q86 14 186 86l92 -164q-115 -95 -278 -115v-227h-154v227q-192 22 -295.5 157t-103.5 371zM412 500q0 -269 155 -330v657q-73 -27 -114 -109.5 t-41 -217.5z" />
<glyph d="M55 -156q77 37 124 95t71 157l47 197h-174v172h207l102 479q48 218 153 310t273 92q179 0 334 -134l-119 -147q-108 88 -211 88q-91 0 -132.5 -53t-67.5 -178l-99 -457h330v-170h-363l-36 -162q-36 -163 -162 -270l2 -4q96 28 158 28q63 0 181 -24.5t191 -24.5 q89 0 193 29l-27 -199q-99 -18 -178 -18q-100 0 -266 31.5t-258 31.5q-62 0 -137.5 -16t-135.5 -43v190z" />
<glyph d="M70 1319h254l251 -518h11l248 518h245l-297 -557h226v-156h-314v-153h314v-156h-314v-297h-248v297h-315v156h315v153h-315v156h229z" />
<glyph d="M-178 -358l82 161q94 -51 190 -51q72 0 111 38t53 118l121 694h-219l30 195h224l26 153q11 63 22.5 107.5t31.5 93.5t49 81.5t69.5 60t98 40.5t131.5 13q68 0 148.5 -20.5t139.5 -51.5l-81 -164q-44 24 -97.5 38.5t-93.5 14.5q-72 0 -110.5 -37t-53.5 -118l-39 -211h303 l-34 -195h-301l-109 -627q-13 -77 -29 -132t-46.5 -109.5t-73 -88t-109 -54.5t-154.5 -21q-67 0 -144 20t-136 52z" />
<glyph horiz-adv-x="1048" d="M72 289q0 179 106 258.5t307 79.5q72 0 158 -13v82q0 101 -40 141t-120 40q-64 0 -150 -20t-153 -50l-53 180q66 27 179.5 50.5t213.5 23.5q194 0 277.5 -84t83.5 -291v-473q0 -72 53 -72q25 0 80 25l28 -141q-84 -50 -186 -50q-67 0 -110 33t-58 92q-62 -57 -144.5 -93 t-172.5 -36q-145 0 -222 83.5t-77 234.5zM309 309q0 -159 131 -159q55 0 108.5 27.5t94.5 68.5v211q-79 14 -133 14q-96 0 -148.5 -34t-52.5 -128z" />
<glyph horiz-adv-x="1005" d="M74 506q0 114 31 213t90.5 176t155 121.5t214.5 44.5q174 0 271.5 -101.5t97.5 -269.5q0 -108 -37 -235h-584q5 -138 74.5 -218.5t200.5 -80.5q137 0 258 90l80 -166q-3 -3 -17 -12.5t-48.5 -27t-75 -33t-101.5 -27t-123 -11.5q-244 0 -365.5 142.5t-121.5 394.5z M315 608h383q11 46 11 103q0 76 -38 126t-120 50q-57 0 -101.5 -24t-71.5 -65t-42.5 -88.5t-20.5 -101.5z" />
<glyph horiz-adv-x="1001" d="M63 -197q0 84 47 143.5t126 114.5q-45 14 -67 39.5t-22 53.5q0 23 29 90l64 143q-74 44 -114 123.5t-40 181.5q0 169 107 269t276 100q139 0 231 -55l293 38v-194l-182 8l-4 -8q51 -72 51 -166q0 -86 -30.5 -153.5t-83.5 -108.5t-120.5 -62.5t-144.5 -21.5q-37 0 -78 6 l-39 -115l216 -32q61 -10 102.5 -18t90 -21t80.5 -28t64 -37.5t50 -50.5t29.5 -66t11.5 -85q0 -151 -127 -250.5t-373 -99.5q-443 0 -443 262zM274 -162q0 -135 250 -135q111 0 180.5 46t69.5 126q0 54 -47 82t-168 43l-164 23q-121 -89 -121 -185zM315 705q0 -224 160 -224 q72 0 117 55t45 150q0 110 -42.5 169.5t-119.5 59.5q-72 0 -116 -55.5t-44 -154.5z" />
<glyph horiz-adv-x="1030" d="M131 0v1423h240v-1022h10l371 629h256l-279 -459l270 -571h-258l-174 369l-223 -369h-213z" />
<glyph horiz-adv-x="1026" d="M10 1030h277l231 -803h4l228 803h266l-334 -1030h-322z" />
<glyph horiz-adv-x="1476" d="M25 1030h272l154 -741h4l182 741h211l184 -743h4l152 743h264l-258 -1030h-285l-170 696h-2l-172 -696h-278z" />
<glyph horiz-adv-x="985" d="M-88 -385l61 178q100 -51 191 -51q64 0 101 31t71 121l47 122l-358 1014h260l219 -696h8l209 696h254l-354 -1038q-41 -120 -77 -196.5t-86 -138t-116 -89t-154 -27.5q-74 0 -150 22t-126 52z" />
<glyph horiz-adv-x="903" d="M51 0v156l508 684h-473v190h770v-147l-514 -690h530v-193h-821z" />
<glyph horiz-adv-x="1562" d="M72 289q0 178 105.5 255t307.5 77q85 0 158 -11v86q0 100 -39.5 140.5t-120.5 40.5q-64 0 -154 -21t-157 -51l-45 182q66 27 179.5 50.5t213.5 23.5q225 0 283 -158q127 158 323 158q173 0 269 -101.5t96 -269.5q0 -116 -39 -235h-575q5 -139 73 -219t199 -80 q139 0 260 90l78 -166q-3 -3 -17 -12.5t-48 -27t-75 -33t-101 -27t-122 -11.5q-255 0 -379 162q-178 -160 -374 -160q-145 0 -222 83.5t-77 234.5zM309 309q0 -159 137 -159q114 0 228 110q-32 95 -35 199q-74 12 -129 12q-96 0 -148.5 -34t-52.5 -128zM874 596h392 q12 50 12 102q0 82 -41 135.5t-123 53.5q-76 0 -131 -43t-80.5 -107t-28.5 -141z" />
<glyph horiz-adv-x="1667" d="M74 516q0 123 29.5 220t77 156.5t112 98.5t127.5 54.5t131 15.5q227 0 328 -164q118 164 348 164q174 0 271 -101.5t97 -269.5q0 -111 -36 -235h-584q5 -138 74 -218.5t200 -80.5q137 0 258 90l80 -166q-3 -3 -17 -12.5t-48 -27t-75 -33t-101.5 -27t-122.5 -11.5 q-255 0 -365 166q-112 -166 -340 -166q-211 0 -327.5 137.5t-116.5 409.5zM322 545q0 -63 4.5 -114.5t18.5 -106t36.5 -91t61.5 -60t92 -23.5q108 0 160.5 96t52.5 264q0 181 -48.5 276t-160.5 95q-108 0 -162.5 -91t-54.5 -245zM975 596h383q12 50 12 115q-2 76 -39.5 126 t-118.5 50q-57 0 -101.5 -23.5t-72 -65.5t-43 -92t-20.5 -110z" />
<glyph horiz-adv-x="1441" d="M102 387q0 270 250 426q-63 104 -63 225q0 154 103.5 250t285.5 96q246 0 379 -196l-174 -131q-86 135 -205 135q-74 0 -111 -41.5t-37 -116.5q0 -206 441 -579q53 124 41 301h215q24 -255 -80 -453q85 -71 254 -194l-135 -179q-118 79 -258 193q-73 -73 -182 -112.5 t-240 -39.5q-127 0 -223.5 35.5t-151.5 95.5t-82 132t-27 153zM340 403q0 -105 65 -169t187 -64q157 0 244 96q-249 212 -371 377q-125 -87 -125 -240z" />
<glyph horiz-adv-x="1359" d="M92 678q0 152 35.5 275t94 202t138 132.5t163 76t173.5 22.5q95 0 177 -23t155.5 -76.5t126 -133.5t83 -201.5t30.5 -273.5q0 -268 -98 -436t-275 -228q41 -12 152 -63.5t184 -65.5q121 -44 215 -26l-25 -197q-71 -5 -149 6q-82 8 -164.5 38.5t-138.5 62t-130 59.5 t-143 33q-75 6 -157 -11l20 134q-226 34 -346.5 210t-120.5 484zM350 682q0 -76 8 -143t30.5 -137t59 -120t98 -82t142.5 -32q89 0 154 43t100.5 117.5t51.5 159.5t16 184q0 68 -8.5 133t-31 134t-58 120t-94.5 84t-134 33q-71 0 -128.5 -28t-95.5 -75t-63 -111.5t-36 -134 t-11 -145.5z" />
<glyph horiz-adv-x="1148" d="M82 422v168h829v-168h-430q25 -120 89 -180t180 -60q132 0 247 97l117 -164q-76 -69 -177.5 -104.5t-211.5 -35.5q-421 0 -498 447h-145zM82 707v167h145q19 104 58 186t89.5 135t113.5 87.5t127.5 49t134.5 14.5q106 0 207.5 -49t181.5 -156l-156 -133q-58 63 -114 95 t-128 32q-211 0 -264 -261h434v-167h-829z" />
<glyph d="M27 422v168h829v-168h-430q26 -121 89.5 -180.5t178.5 -59.5q133 0 248 97l117 -164q-76 -69 -177.5 -104.5t-211.5 -35.5q-421 0 -498 447h-145zM27 707v167h145q19 104 58 186t89 135t113 87.5t127.5 49t134.5 14.5q106 0 207.5 -49t181.5 -156l-155 -133 q-58 63 -114 95t-128 32q-211 0 -264 -261h434v-167h-829z" />
<glyph horiz-adv-x="1048" d="M72 289q0 179 106 258.5t307 79.5q72 0 158 -13v82q0 101 -40 141t-120 40q-64 0 -150 -20t-153 -50l-53 180q66 27 179.5 50.5t213.5 23.5q194 0 277.5 -84t83.5 -291v-473q0 -72 53 -72q25 0 80 25l28 -141q-84 -50 -186 -50q-67 0 -110 33t-58 92q-62 -57 -144.5 -93 t-172.5 -36q-145 0 -222 83.5t-77 234.5zM268 1507q0 82 156 123l240 -393l-80 -68q-23 20 -68.5 60t-73.5 64.5t-62 56.5t-56 55q-56 59 -56 102zM309 309q0 -159 131 -159q55 0 108.5 27.5t94.5 68.5v211q-79 14 -133 14q-96 0 -148.5 -34t-52.5 -128z" />
<glyph horiz-adv-x="1048" d="M72 289q0 179 106 258.5t307 79.5q72 0 158 -13v82q0 101 -40 141t-120 40q-64 0 -150 -20t-153 -50l-53 180q66 27 179.5 50.5t213.5 23.5q194 0 277.5 -84t83.5 -291v-473q0 -72 53 -72q25 0 80 25l28 -141q-84 -50 -186 -50q-67 0 -110 33t-58 92q-62 -57 -144.5 -93 t-172.5 -36q-145 0 -222 83.5t-77 234.5zM309 309q0 -159 131 -159q55 0 108.5 27.5t94.5 68.5v211q-79 14 -133 14q-96 0 -148.5 -34t-52.5 -128zM328 1237l237 393q156 -40 156 -123q0 -42 -55 -100q-28 -31 -69 -68.5t-103 -92.5t-86 -77z" />
<glyph horiz-adv-x="1048" d="M72 289q0 179 106 258.5t307 79.5q72 0 158 -13v82q0 101 -40 141t-120 40q-64 0 -150 -20t-153 -50l-53 180q66 27 179.5 50.5t213.5 23.5q194 0 277.5 -84t83.5 -291v-473q0 -72 53 -72q25 0 80 25l28 -141q-84 -50 -186 -50q-67 0 -110 33t-58 92q-62 -57 -144.5 -93 t-172.5 -36q-145 0 -222 83.5t-77 234.5zM152 1257q131 192 210 287q31 38 54.5 53t58.5 15t57.5 -14t55.5 -52q115 -140 213 -286l-84 -70l-242 213l-239 -211zM309 309q0 -159 131 -159q55 0 108.5 27.5t94.5 68.5v211q-79 14 -133 14q-96 0 -148.5 -34t-52.5 -128z" />
<glyph horiz-adv-x="1048" d="M72 289q0 179 106 258.5t307 79.5q72 0 158 -13v82q0 101 -40 141t-120 40q-64 0 -150 -20t-153 -50l-53 180q66 27 179.5 50.5t213.5 23.5q194 0 277.5 -84t83.5 -291v-473q0 -72 53 -72q25 0 80 25l28 -141q-84 -50 -186 -50q-67 0 -110 33t-58 92q-62 -57 -144.5 -93 t-172.5 -36q-145 0 -222 83.5t-77 234.5zM170 1432q79 59 172 59q54 0 142 -26.5t134 -26.5q64 0 127 37l17 -166q-67 -39 -139 -39q-47 0 -145 23.5t-138 23.5q-76 0 -152 -43zM309 309q0 -159 131 -159q55 0 108.5 27.5t94.5 68.5v211q-79 14 -133 14q-96 0 -148.5 -34 t-52.5 -128z" />
<glyph horiz-adv-x="1048" d="M72 289q0 179 106 258.5t307 79.5q72 0 158 -13v82q0 101 -40 141t-120 40q-64 0 -150 -20t-153 -50l-53 180q66 27 179.5 50.5t213.5 23.5q194 0 277.5 -84t83.5 -291v-473q0 -72 53 -72q25 0 80 25l28 -141q-84 -50 -186 -50q-67 0 -110 33t-58 92q-62 -57 -144.5 -93 t-172.5 -36q-145 0 -222 83.5t-77 234.5zM143 1364q0 54 36 89.5t95 35.5q56 0 92.5 -36t36.5 -89q0 -55 -37 -91t-94 -36q-58 0 -93.5 35.5t-35.5 91.5zM309 309q0 -159 131 -159q55 0 108.5 27.5t94.5 68.5v211q-79 14 -133 14q-96 0 -148.5 -34t-52.5 -128zM549 1364 q0 54 35.5 89.5t93.5 35.5q56 0 92.5 -36t36.5 -89q0 -56 -36 -91.5t-93 -35.5q-59 0 -94 35.5t-35 91.5z" />
<glyph horiz-adv-x="1048" d="M72 289q0 179 106 258.5t307 79.5q72 0 158 -13v82q0 101 -40 141t-120 40q-64 0 -150 -20t-153 -50l-53 180q66 27 179.5 50.5t213.5 23.5q194 0 277.5 -84t83.5 -291v-473q0 -72 53 -72q25 0 80 25l28 -141q-84 -50 -186 -50q-67 0 -110 33t-58 92q-62 -57 -144.5 -93 t-172.5 -36q-145 0 -222 83.5t-77 234.5zM287 1346q0 84 54 137t140 53q88 0 139.5 -52t51.5 -128q0 -89 -53.5 -145t-143.5 -56q-88 0 -138 54t-50 137zM309 309q0 -159 131 -159q55 0 108.5 27.5t94.5 68.5v211q-79 14 -133 14q-96 0 -148.5 -34t-52.5 -128zM408 1346 q0 -38 19 -62t54 -24t54.5 24.5t19.5 61.5q0 84 -74 84q-73 0 -73 -84z" />
<glyph horiz-adv-x="1005" d="M74 506q0 -252 121.5 -394.5t365.5 -142.5q62 0 123 11.5t101.5 27t75 33t48.5 27t17 12.5l-80 166q-121 -90 -258 -90q-131 0 -200.5 80.5t-74.5 218.5h584q37 127 37 235q0 168 -97.5 269.5t-271.5 101.5q-119 0 -214.5 -44.5t-155 -121.5t-90.5 -176t-31 -213z M315 608q5 54 20.5 101.5t42.5 88.5t71.5 65t101.5 24q82 0 120 -50t38 -126q0 -57 -11 -103h-383zM322 1507q0 82 155 123l240 -393l-80 -68q-23 20 -68.5 60t-73.5 64.5t-62 56.5t-56 55q-55 58 -55 102z" />
<glyph horiz-adv-x="1005" d="M74 506q0 114 31 213t90.5 176t155 121.5t214.5 44.5q174 0 271.5 -101.5t97.5 -269.5q0 -108 -37 -235h-584q5 -138 74.5 -218.5t200.5 -80.5q137 0 258 90l80 -166q-3 -3 -17 -12.5t-48.5 -27t-75 -33t-101.5 -27t-123 -11.5q-244 0 -365.5 142.5t-121.5 394.5z M315 608h383q11 46 11 103q0 76 -38 126t-120 50q-57 0 -101.5 -24t-71.5 -65t-42.5 -88.5t-20.5 -101.5zM385 1237l238 393q155 -39 155 -123q0 -42 -55 -100q-28 -31 -69 -68.5t-103 -92.5t-86 -77z" />
<glyph horiz-adv-x="1005" d="M74 506q0 -252 121.5 -394.5t365.5 -142.5q62 0 123 11.5t101.5 27t75 33t48.5 27t17 12.5l-80 166q-121 -90 -258 -90q-131 0 -200.5 80.5t-74.5 218.5h584q37 127 37 235q0 168 -97.5 269.5t-271.5 101.5q-119 0 -214.5 -44.5t-155 -121.5t-90.5 -176t-31 -213z M231 1257q126 186 211 287q31 38 54.5 53t58.5 15t57.5 -14t55.5 -52q115 -140 213 -286l-84 -70l-242 213l-240 -211zM315 608q5 54 20.5 101.5t42.5 88.5t71.5 65t101.5 24q82 0 120 -50t38 -126q0 -57 -11 -103h-383z" />
<glyph horiz-adv-x="1005" d="M74 506q0 -252 121.5 -394.5t365.5 -142.5q62 0 123 11.5t101.5 27t75 33t48.5 27t17 12.5l-80 166q-121 -90 -258 -90q-131 0 -200.5 80.5t-74.5 218.5h584q37 127 37 235q0 168 -97.5 269.5t-271.5 101.5q-119 0 -214.5 -44.5t-155 -121.5t-90.5 -176t-31 -213z M211 1364q0 54 36 89.5t95 35.5q56 0 92.5 -36t36.5 -89q0 -55 -37 -91t-94 -36q-58 0 -93.5 35.5t-35.5 91.5zM315 608q5 54 20.5 101.5t42.5 88.5t71.5 65t101.5 24q82 0 120 -50t38 -126q0 -57 -11 -103h-383zM616 1364q0 54 36 89.5t93 35.5q56 0 92.5 -36t36.5 -89 q0 -56 -36 -91.5t-93 -35.5q-59 0 -94 35.5t-35 91.5z" />
<glyph horiz-adv-x="985" d="M-88 -385l61 178q100 -51 191 -51q64 0 101 31t71 121l47 122l-358 1014h260l219 -696h8l209 696h254l-354 -1038q-41 -120 -77 -196.5t-86 -138t-116 -89t-154 -27.5q-74 0 -150 22t-126 52zM344 1237l238 393q155 -39 155 -123q0 -42 -55 -100q-28 -31 -69 -68.5 t-103 -92.5t-86 -77z" />
<glyph horiz-adv-x="985" d="M-88 -385l61 178q100 -51 191 -51q64 0 101 31t71 121l47 122l-358 1014h260l219 -696h8l209 696h254l-354 -1038q-41 -120 -77 -196.5t-86 -138t-116 -89t-154 -27.5q-74 0 -150 22t-126 52zM129 1364q0 54 36 89.5t95 35.5q56 0 92.5 -36t36.5 -89q0 -55 -37 -91 t-94 -36q-58 0 -93.5 35.5t-35.5 91.5zM535 1364q0 54 35.5 89.5t93.5 35.5q56 0 92.5 -36t36.5 -89q0 -56 -36 -91.5t-93 -35.5q-59 0 -94 35.5t-35 91.5z" />
<glyph horiz-adv-x="985" d="M-88 -385l61 178q100 -51 191 -51q64 0 101 31t71 121l47 122l-358 1014h260l219 -696h8l209 696h254l-354 -1038q-41 -120 -77 -196.5t-86 -138t-116 -89t-154 -27.5q-74 0 -150 22t-126 52zM199 1507q0 82 155 123l240 -393l-80 -68q-23 20 -68.5 60t-73.5 64.5 t-62 56.5t-56 55q-55 58 -55 102z" />
<glyph horiz-adv-x="985" d="M-88 -385l61 178q100 -51 191 -51q64 0 101 31t71 121l47 122l-358 1014h260l219 -696h8l209 696h254l-354 -1038q-41 -120 -77 -196.5t-86 -138t-116 -89t-154 -27.5q-74 0 -150 22t-126 52zM152 1257q131 192 210 287q31 38 54.5 53t58.5 15t57.5 -14t55.5 -52 q115 -140 213 -286l-84 -70l-242 213l-239 -211z" />
<glyph horiz-adv-x="1048" d="M72 289q0 179 106 258.5t307 79.5q72 0 158 -13v82q0 101 -40 141t-120 40q-64 0 -150 -20t-153 -50l-53 180q66 27 179.5 50.5t213.5 23.5q194 0 277.5 -84t83.5 -291v-473q0 -72 53 -72q25 0 80 25l28 -141q-84 -50 -186 -50q-67 0 -110 33t-58 92q-62 -57 -144.5 -93 t-172.5 -36q-145 0 -222 83.5t-77 234.5zM193 1268v176h587v-176h-587zM309 309q0 -159 131 -159q55 0 108.5 27.5t94.5 68.5v211q-79 14 -133 14q-96 0 -148.5 -34t-52.5 -128z" />
<glyph horiz-adv-x="1048" d="M72 289q0 179 106 258.5t307 79.5q72 0 158 -13v82q0 101 -40 141t-120 40q-64 0 -150 -20t-153 -50l-53 180q66 27 179.5 50.5t213.5 23.5q194 0 277.5 -84t83.5 -291v-473q0 -72 53 -72q25 0 80 25l28 -141q-84 -50 -186 -50q-67 0 -110 33t-58 92q-62 -57 -144.5 -93 t-172.5 -36q-145 0 -222 83.5t-77 234.5zM150 1503l151 35q30 -93 74.5 -132.5t113.5 -39.5q64 0 109.5 38.5t79.5 133.5l145 -35q-38 -138 -123 -215.5t-217 -77.5q-75 0 -134.5 24t-98 67t-63 92.5t-37.5 109.5zM309 309q0 -159 131 -159q55 0 108.5 27.5t94.5 68.5v211 q-79 14 -133 14q-96 0 -148.5 -34t-52.5 -128z" />
<glyph horiz-adv-x="1048" d="M72 289q0 179 106 258.5t307 79.5q72 0 158 -13v82q0 101 -40 141t-120 40q-64 0 -150 -20t-153 -50l-53 180q66 27 179.5 50.5t213.5 23.5q194 0 277.5 -84t83.5 -291v-473q0 -72 53 -72q25 0 80 25l28 -141q-91 -64 -147.5 -141t-56.5 -140q0 -40 17.5 -61t62.5 -21 q44 0 98 23l49 -152q-84 -43 -201 -43q-53 0 -94.5 12.5t-66.5 32t-41.5 47t-22.5 54t-6 55.5q0 157 149 299q-73 27 -94 110q-62 -57 -144.5 -93t-172.5 -36q-145 0 -222 83.5t-77 234.5zM309 309q0 -159 131 -159q55 0 108.5 27.5t94.5 68.5v211q-79 14 -133 14 q-96 0 -148.5 -34t-52.5 -128z" />
<glyph horiz-adv-x="1005" d="M74 506q0 -252 121.5 -394.5t365.5 -142.5q62 0 123 11.5t101.5 27t75 33t48.5 27t17 12.5l-80 166q-121 -90 -258 -90q-131 0 -200.5 80.5t-74.5 218.5h584q37 127 37 235q0 168 -97.5 269.5t-271.5 101.5q-119 0 -214.5 -44.5t-155 -121.5t-90.5 -176t-31 -213z M254 1268v176h588v-176h-588zM315 608q5 54 20.5 101.5t42.5 88.5t71.5 65t101.5 24q82 0 120 -50t38 -126q0 -57 -11 -103h-383z" />
<glyph horiz-adv-x="1005" d="M74 506q0 -252 121.5 -394.5t365.5 -142.5q62 0 123 11.5t101.5 27t75 33t48.5 27t17 12.5l-80 166q-121 -90 -258 -90q-131 0 -200.5 80.5t-74.5 218.5h584q37 127 37 235q0 168 -97.5 269.5t-271.5 101.5q-119 0 -214.5 -44.5t-155 -121.5t-90.5 -176t-31 -213z M219 1503l152 35q30 -93 74.5 -132.5t113.5 -39.5q64 0 109.5 38.5t79.5 133.5l145 -35q-38 -138 -123 -215.5t-217 -77.5q-75 0 -134.5 24t-98.5 66.5t-63.5 92.5t-37.5 110zM315 608q5 54 20.5 101.5t42.5 88.5t71.5 65t101.5 24q82 0 120 -50t38 -126q0 -57 -11 -103 h-383z" />
<glyph horiz-adv-x="1005" d="M74 506q0 -252 121.5 -394.5t365.5 -142.5q62 0 123 11.5t101.5 27t75 33t48.5 27t17 12.5l-80 166q-121 -90 -258 -90q-131 0 -200.5 80.5t-74.5 218.5h584q37 127 37 235q0 168 -97.5 269.5t-271.5 101.5q-119 0 -214.5 -44.5t-155 -121.5t-90.5 -176t-31 -213z M315 608q5 54 20.5 101.5t42.5 88.5t71.5 65t101.5 24q82 0 120 -50t38 -126q0 -57 -11 -103h-383zM414 1325q0 58 39.5 97.5t101.5 39.5t101.5 -39.5t39.5 -97.5q0 -59 -40 -97t-101 -38q-64 0 -102.5 38t-38.5 97z" />
<glyph horiz-adv-x="1005" d="M74 506q0 114 31 213t90.5 176t155 121.5t214.5 44.5q174 0 271.5 -101.5t97.5 -269.5q0 -108 -37 -235h-584q5 -138 74.5 -218.5t200.5 -80.5q137 0 258 90l80 -166l-22 -12q-22 -13 -61 -36.5t-75 -47.5q-68 -46 -113 -111.5t-45 -128.5q0 -40 17.5 -61t62.5 -21 q44 0 98 23l50 -152q-84 -43 -201 -43q-53 0 -94.5 12.5t-66.5 32t-41.5 47t-22.5 54t-6 55.5q0 145 129 278q-155 5 -259.5 74t-153 185.5t-48.5 277.5zM315 608h383q11 46 11 103q0 76 -38 126t-120 50q-57 0 -101.5 -24t-71.5 -65t-42.5 -88.5t-20.5 -101.5z" />
<glyph horiz-adv-x="1005" d="M74 506q0 -252 121.5 -394.5t365.5 -142.5q62 0 123 11.5t101.5 27t75 33t48.5 27t17 12.5l-80 166q-121 -90 -258 -90q-131 0 -200.5 80.5t-74.5 218.5h584q37 127 37 235q0 168 -97.5 269.5t-271.5 101.5q-119 0 -214.5 -44.5t-155 -121.5t-90.5 -176t-31 -213z M219 1542l84 70l242 -213l239 211l84 -66q-126 -186 -211 -287q-31 -38 -54 -52.5t-58 -14.5t-57.5 14t-55.5 51q-111 135 -213 287zM315 608q5 54 20.5 101.5t42.5 88.5t71.5 65t101.5 24q82 0 120 -50t38 -126q0 -57 -11 -103h-383z" />
<glyph horiz-adv-x="1001" d="M63 -197q0 84 47 143.5t126 114.5q-45 14 -67 39.5t-22 53.5q0 23 29 90l64 143q-74 44 -114 123.5t-40 181.5q0 169 107 269t276 100q139 0 231 -55l293 38v-194l-182 8l-4 -8q51 -72 51 -166q0 -86 -30.5 -153.5t-83.5 -108.5t-120.5 -62.5t-144.5 -21.5q-37 0 -78 6 l-39 -115l216 -32q61 -10 102.5 -18t90 -21t80.5 -28t64 -37.5t50 -50.5t29.5 -66t11.5 -85q0 -151 -127 -250.5t-373 -99.5q-443 0 -443 262zM156 1257q126 186 211 287q32 38 54.5 53t57.5 15t57.5 -14t55.5 -52q115 -140 213 -286l-84 -70l-242 213l-239 -211zM274 -162 q0 -135 250 -135q111 0 180.5 46t69.5 126q0 54 -47 82t-168 43l-164 23q-121 -89 -121 -185zM315 705q0 -224 160 -224q72 0 117 55t45 150q0 110 -42.5 169.5t-119.5 59.5q-72 0 -116 -55.5t-44 -154.5z" />
<glyph horiz-adv-x="1001" d="M63 -197q0 84 47 143.5t126 114.5q-45 14 -67 39.5t-22 53.5q0 23 29 90l64 143q-74 44 -114 123.5t-40 181.5q0 169 107 269t276 100q139 0 231 -55l293 38v-194l-182 8l-4 -8q51 -72 51 -166q0 -86 -30.5 -153.5t-83.5 -108.5t-120.5 -62.5t-144.5 -21.5q-37 0 -78 6 l-39 -115l216 -32q61 -10 102.5 -18t90 -21t80.5 -28t64 -37.5t50 -50.5t29.5 -66t11.5 -85q0 -151 -127 -250.5t-373 -99.5q-443 0 -443 262zM137 1503l152 35q30 -93 74.5 -132.5t113.5 -39.5q64 0 109.5 38.5t79.5 133.5l145 -35q-38 -138 -123 -215.5t-217 -77.5 q-75 0 -134.5 24t-98.5 66.5t-63.5 92.5t-37.5 110zM274 -162q0 -135 250 -135q111 0 180.5 46t69.5 126q0 54 -47 82t-168 43l-164 23q-121 -89 -121 -185zM315 705q0 -224 160 -224q72 0 117 55t45 150q0 110 -42.5 169.5t-119.5 59.5q-72 0 -116 -55.5t-44 -154.5z" />
<glyph horiz-adv-x="1001" d="M63 -197q0 84 47 143.5t126 114.5q-45 14 -67 39.5t-22 53.5q0 23 29 90l64 143q-74 44 -114 123.5t-40 181.5q0 169 107 269t276 100q139 0 231 -55l293 38v-194l-182 8l-4 -8q51 -72 51 -166q0 -86 -30.5 -153.5t-83.5 -108.5t-120.5 -62.5t-144.5 -21.5q-37 0 -78 6 l-39 -115l216 -32q61 -10 102.5 -18t90 -21t80.5 -28t64 -37.5t50 -50.5t29.5 -66t11.5 -85q0 -151 -127 -250.5t-373 -99.5q-443 0 -443 262zM274 -162q0 -135 250 -135q111 0 180.5 46t69.5 126q0 54 -47 82t-168 43l-164 23q-121 -89 -121 -185zM315 705q0 -224 160 -224 q72 0 117 55t45 150q0 110 -42.5 169.5t-119.5 59.5q-72 0 -116 -55.5t-44 -154.5zM330 1325q0 58 39.5 97.5t101.5 39.5t101.5 -39.5t39.5 -97.5q0 -59 -40 -97t-101 -38q-64 0 -102.5 38t-38.5 97z" />
<glyph horiz-adv-x="1001" d="M63 -197q0 84 47 143.5t126 114.5q-45 14 -67 39.5t-22 53.5q0 23 29 90l64 143q-74 44 -114 123.5t-40 181.5q0 169 107 269t276 100q139 0 231 -55l293 38v-194l-182 8l-4 -8q51 -72 51 -166q0 -86 -30.5 -153.5t-83.5 -108.5t-120.5 -62.5t-144.5 -21.5q-37 0 -78 6 l-39 -115l216 -32q61 -10 102.5 -18t90 -21t80.5 -28t64 -37.5t50 -50.5t29.5 -66t11.5 -85q0 -151 -127 -250.5t-373 -99.5q-443 0 -443 262zM274 -162q0 -135 250 -135q111 0 180.5 46t69.5 126q0 54 -47 82t-168 43l-164 23q-121 -89 -121 -185zM315 705q0 -224 160 -224 q72 0 117 55t45 150q0 110 -42.5 169.5t-119.5 59.5q-72 0 -116 -55.5t-44 -154.5zM348 1272q0 36 33 96q32 59 172 262l98 -47l-121 -407q-39 3 -63 6.5t-55.5 13t-47.5 29t-16 47.5z" />
<glyph horiz-adv-x="1030" d="M131 0v1423h240v-1022h10l371 629h256l-279 -459l270 -571h-258l-174 369l-223 -369h-213zM313 -530l97 -48q132 192 172 265q32 59 32 96q0 23 -12.5 40.5t-28.5 26.5t-44.5 14.5t-46 7t-48.5 3.5z" />
<glyph horiz-adv-x="1476" d="M25 1030h272l154 -741h4l182 741h211l184 -743h4l152 743h264l-258 -1030h-285l-170 696h-2l-172 -696h-278zM389 1257q126 186 211 287q31 38 54.5 53t58.5 15t57 -14t55 -52q115 -140 213 -286l-84 -70l-241 213l-240 -211z" />
<glyph horiz-adv-x="1476" d="M25 1030h272l154 -741h4l182 741h211l184 -743h4l152 743h264l-258 -1030h-285l-170 696h-2l-172 -696h-278zM485 1507q0 82 156 123l240 -393l-80 -68q-23 20 -68.5 60t-73.5 64.5t-62 56.5t-56 55q-56 59 -56 102z" />
<glyph horiz-adv-x="1476" d="M25 1030h272l154 -741h4l182 741h211l184 -743h4l152 743h264l-258 -1030h-285l-170 696h-2l-172 -696h-278zM528 1237l238 393q156 -40 156 -123q0 -41 -56 -100q-28 -31 -69 -68.5t-103 -92.5t-86 -77z" />
<glyph horiz-adv-x="1476" d="M25 1030h272l154 -741h4l182 741h211l184 -743h4l152 743h264l-258 -1030h-285l-170 696h-2l-172 -696h-278zM418 1364q0 54 36 89.5t95 35.5q56 0 92.5 -36t36.5 -89q0 -55 -37 -91t-94 -36q-58 0 -93.5 35.5t-35.5 91.5zM823 1364q0 54 35.5 89.5t93.5 35.5 q56 0 92.5 -36t36.5 -89q0 -56 -36 -91.5t-93 -35.5q-59 0 -94 35.5t-35 91.5z" />
<glyph horiz-adv-x="903" d="M51 0v156l508 684h-473v190h770v-147l-514 -690h530v-193h-821zM344 1237l238 393q155 -39 155 -123q0 -42 -55 -100q-28 -31 -69 -68.5t-103 -92.5t-86 -77z" />
<glyph horiz-adv-x="903" d="M51 0v156l508 684h-473v190h770v-147l-514 -690h530v-193h-821zM336 1325q0 58 39.5 97.5t101.5 39.5t101.5 -39.5t39.5 -97.5q0 -59 -40 -97t-101 -38q-64 0 -102.5 38t-38.5 97z" />
<glyph horiz-adv-x="903" d="M51 0v156l508 684h-473v190h770v-147l-514 -690h530v-193h-821zM152 1542l84 70l241 -213l240 211l84 -66q-126 -186 -211 -287q-31 -37 -54.5 -52t-58.5 -15t-57 13.5t-55 51.5q-111 135 -213 287z" />
</font>
</defs>
</svg>
