<?xml version="1.0" encoding="UTF-8" standalone="no"?>
<svg width="40px" height="43px" viewBox="0 0 40 43" version="1.1" xmlns="http://www.w3.org/2000/svg" xmlns:xlink="http://www.w3.org/1999/xlink" xmlns:sketch="http://www.bohemiancoding.com/sketch/ns">
    <!-- Generator: Sketch 3.3.3 (12081) - http://www.bohemiancoding.com/sketch -->
    <title>Imported Layers Copy 2</title>
    <desc>Created with Sketch.</desc>
    <defs></defs>
    <g id="Page-1" stroke="none" stroke-width="1" fill="none" fill-rule="evenodd" sketch:type="MSPage">
        <g id="Artboard-5" sketch:type="MSArtboardGroup" fill="#47525D">
            <g id="Imported-Layers-Copy-2" sketch:type="MSLayerGroup">
                <path d="M34.1995122,29.3878267 L24.8,24.194196 C22.1487805,22.7287202 20,19.0999696 20,16.0888055 L20,5.41218885 C20,2.40102471 22.1487805,1.14715214 24.8,2.61262801 L34.1995122,7.80625873 C36.8502439,9.27124249 39,12.899993 39,15.9111571 L39,26.5882659 C39,28.7451432 37.8965854,30 36.2965854,30 C35.6629268,30 34.9517073,29.8031597 34.1995122,29.3878267 M15.1242999,1.16419945 L4.87570011,7.09752744 C2.19416331,8.64995761 0,12.4608263 0,15.5661793 L0,27.433328 C0,30.5381883 2.19416331,34.3495497 4.87570011,35.9024726 L15.1242999,41.8353079 C17.8058367,43.3882307 22.1941633,43.3882307 24.8757001,41.8353079 L35.1242999,35.9024726 C37.8058367,34.3495497 40,30.5381883 40,27.433328 L40,15.5661793 C40,12.4608263 37.8058367,8.64995761 35.1242999,7.09752744 L24.8757001,1.16419945 C23.5349317,0.388230711 21.7677115,0 20,0 C18.2322885,0 16.4650683,0.388230711 15.1242999,1.16419945" id="Fill-10" sketch:type="MSShapeGroup"></path>
            </g>
        </g>
    </g>
</svg>