<?xml version="1.0" encoding="UTF-8" standalone="no"?>
<svg width="22px" height="19px" viewBox="0 0 22 19" version="1.1" xmlns="http://www.w3.org/2000/svg" xmlns:xlink="http://www.w3.org/1999/xlink" xmlns:sketch="http://www.bohemiancoding.com/sketch/ns">
    <!-- Generator: Sketch 3.3.3 (12081) - http://www.bohemiancoding.com/sketch -->
    <title>Shape Copy 2</title>
    <desc>Created with Sketch.</desc>
    <defs></defs>
    <g id="Page-1" stroke="none" stroke-width="1" fill="none" fill-rule="evenodd" sketch:type="MSPage">
        <g id="Tablet-Portrait" sketch:type="MSArtboardGroup" transform="translate(-373.000000, -616.000000)" fill="#AEB0B1">
            <path d="M391.95137,623.127584 L385.466905,629.611955 L385.466905,617.573879 C385.466905,616.704608 384.762111,616 383.893026,616 C383.023755,616 382.319147,616.704608 382.319147,617.573879 L382.319147,629.619147 L375.686737,622.986831 C375.072167,622.372447 374.075498,622.372447 373.460928,622.986831 C372.846357,623.601588 372.846357,624.597976 373.460928,625.212547 L382.484371,634.235803 C382.530978,634.28241 382.580573,634.324533 382.631289,634.363854 C382.917839,634.749222 383.375685,635 383.892933,635 C384.394209,635 384.839913,634.764726 385.128051,634.39944 C385.136644,634.391501 394.176993,625.352927 394.176993,625.352927 C394.791469,624.738823 394.791469,623.742061 394.177179,623.127584 C393.562516,622.5132 392.56594,622.5132 391.95137,623.127584 Z" id="Shape-Copy-2" sketch:type="MSShapeGroup" transform="translate(383.818937, 625.500000) rotate(-180.000000) translate(-383.818937, -625.500000) "></path>
        </g>
    </g>
</svg>