<?xml version="1.0" encoding="UTF-8" standalone="no"?>
<svg width="23px" height="20px" viewBox="0 0 23 20" version="1.1" xmlns="http://www.w3.org/2000/svg" xmlns:xlink="http://www.w3.org/1999/xlink" xmlns:sketch="http://www.bohemiancoding.com/sketch/ns">
    <!-- Generator: Sketch 3.3.3 (12081) - http://www.bohemiancoding.com/sketch -->
    <title>Shape Copy</title>
    <desc>Created with Sketch.</desc>
    <defs></defs>
    <g id="Page-1" stroke="none" stroke-width="1" fill="none" fill-rule="evenodd" sketch:type="MSPage">
        <g id="Desktop---Large" sketch:type="MSArtboardGroup" transform="translate(-1072.000000, -942.000000)" fill="#CDCDCD">
            <path d="M1091.63243,949.627584 L1085.14797,956.111955 L1085.14797,944.073879 C1085.14797,943.204608 1084.44317,942.5 1083.57409,942.5 C1082.70482,942.5 1082.00021,943.204608 1082.00021,944.073879 L1082.00021,956.119147 L1075.3678,949.486831 C1074.75323,948.872447 1073.75656,948.872447 1073.14199,949.486831 C1072.52742,950.101588 1072.52742,951.097976 1073.14199,951.712547 L1082.16543,960.735803 C1082.21204,960.78241 1082.26164,960.824533 1082.31235,960.863854 C1082.5989,961.249222 1083.05675,961.5 1083.574,961.5 C1084.07527,961.5 1084.52098,961.264726 1084.80911,960.89944 C1084.81771,960.891501 1093.85806,951.852927 1093.85806,951.852927 C1094.47253,951.238823 1094.47253,950.242061 1093.85824,949.627584 C1093.24358,949.0132 1092.247,949.0132 1091.63243,949.627584 Z" id="Shape-Copy" sketch:type="MSShapeGroup"></path>
        </g>
    </g>
</svg>