<?xml version="1.0" encoding="UTF-8" standalone="no"?>
<svg width="19px" height="15px" viewBox="0 0 19 15" version="1.1" xmlns="http://www.w3.org/2000/svg" xmlns:xlink="http://www.w3.org/1999/xlink" xmlns:sketch="http://www.bohemiancoding.com/sketch/ns">
    <!-- Generator: Sketch 3.3.3 (12081) - http://www.bohemiancoding.com/sketch -->
    <title>Fill 1</title>
    <desc>Created with Sketch.</desc>
    <defs></defs>
    <g id="Page-1" stroke="none" stroke-width="1" fill="none" fill-rule="evenodd" sketch:type="MSPage">
        <g id="Desktop---Large" sketch:type="MSArtboardGroup" transform="translate(-167.000000, -959.000000)" fill="#7071E1">
            <g id="Group" sketch:type="MSLayerGroup" transform="translate(59.000000, 60.000000)">
                <g id="Group-Copy" transform="translate(0.000000, 898.000000)" sketch:type="MSShapeGroup">
                    <path d="M126.457498,2.77567086 C125.77838,3.07684829 125.04856,3.2804013 124.282553,3.37194952 C125.064426,2.90327125 125.664823,2.16116357 125.947569,1.27694011 C125.215926,1.71084896 124.405495,2.02600167 123.542943,2.19586548 C122.852146,1.45990152 121.868002,1 120.778875,1 C118.687512,1 116.991979,2.6954649 116.991979,4.78669355 C116.991979,5.08348261 117.025534,5.37250763 117.090076,5.64965028 C113.94287,5.49173636 111.152607,3.98416135 109.284916,1.69316044 C108.958961,2.25244174 108.772219,2.90293368 108.772219,3.59690428 C108.772219,4.91064822 109.440804,6.06971887 110.456881,6.74876901 C109.836095,6.7291226 109.252239,6.5587862 108.741635,6.27516226 C108.741365,6.2909604 108.741365,6.30682606 108.741365,6.32275923 C108.741365,8.15750434 110.04667,9.68803392 111.778997,10.0358631 C111.461211,10.1224154 111.126682,10.1686621 110.781283,10.1686621 C110.53729,10.1686621 110.300048,10.1449648 110.068882,10.1007435 C110.550725,11.6052129 111.949198,12.7000108 113.606248,12.7305944 C112.31026,13.746199 110.677448,14.351592 108.90333,14.351592 C108.597696,14.351592 108.296249,14.3337009 108,14.2987289 C109.675818,15.3731378 111.666317,16 113.804805,16 C120.770031,16 124.578869,10.2298292 124.578869,5.22580093 C124.578869,5.06160826 124.575223,4.89829326 124.567932,4.73592345 C125.307744,4.2020272 125.949797,3.53506198 126.457498,2.77567086" id="Fill-1"></path>
                </g>
            </g>
        </g>
    </g>
</svg>