<?xml version="1.0" encoding="UTF-8" standalone="no"?>
<svg width="16px" height="16px" viewBox="0 0 16 16" version="1.1" xmlns="http://www.w3.org/2000/svg" xmlns:xlink="http://www.w3.org/1999/xlink" xmlns:sketch="http://www.bohemiancoding.com/sketch/ns">
    <!-- Generator: Sketch 3.3.3 (12081) - http://www.bohemiancoding.com/sketch -->
    <title>Fill 4</title>
    <desc>Created with Sketch.</desc>
    <defs></defs>
    <g id="Page-1" stroke="none" stroke-width="1" fill="none" fill-rule="evenodd" sketch:type="MSPage">
        <g id="Desktop---Large" sketch:type="MSArtboardGroup" transform="translate(-223.000000, -959.000000)" fill="#7071E1">
            <g id="Group" sketch:type="MSLayerGroup" transform="translate(59.000000, 60.000000)">
                <g id="Group-Copy" transform="translate(0.000000, 898.000000)" sketch:type="MSShapeGroup">
                    <path d="M177.634222,14.6337778 L175.261333,14.6337778 L175.261333,10.9204444 C175.261333,10.0351111 175.246222,8.896 174.028444,8.896 C172.793333,8.896 172.604889,9.86088889 172.604889,10.8573333 L172.604889,14.6337778 L170.234667,14.6337778 L170.234667,6.99822222 L172.509333,6.99822222 L172.509333,8.04222222 L172.542222,8.04222222 C172.858667,7.44177778 173.632889,6.80888889 174.787111,6.80888889 C177.190222,6.80888889 177.634222,8.38977778 177.634222,10.4462222 L177.634222,14.6337778 L177.634222,14.6337778 Z M167.559111,5.95511111 C166.796889,5.95511111 166.182222,5.33866667 166.182222,4.57866667 C166.182222,3.81911111 166.796889,3.20266667 167.559111,3.20266667 C168.318222,3.20266667 168.934222,3.81911111 168.934222,4.57866667 C168.934222,5.33866667 168.318222,5.95511111 167.559111,5.95511111 L167.559111,5.95511111 Z M166.370667,6.99822222 L168.746222,6.99822222 L168.746222,14.6337778 L166.370667,14.6337778 L166.370667,6.99822222 Z M178.816,1 L165.18,1 C164.528889,1 164,1.51644444 164,2.15377778 L164,15.8453333 C164,16.4826667 164.528889,17 165.18,17 L178.816,17 C179.468444,17 179.999556,16.4826667 179.999556,15.8453333 L179.999556,2.15377778 C179.999556,1.51644444 179.468444,1 178.816,1 L178.816,1 Z" id="Fill-4"></path>
                </g>
            </g>
        </g>
    </g>
</svg>