<?xml version="1.0" encoding="UTF-8" standalone="no"?>
<svg width="16px" height="16px" viewBox="0 0 16 16" version="1.1" xmlns="http://www.w3.org/2000/svg" xmlns:xlink="http://www.w3.org/1999/xlink" xmlns:sketch="http://www.bohemiancoding.com/sketch/ns">
    <!-- Generator: Sketch 3.3.3 (12081) - http://www.bohemiancoding.com/sketch -->
    <title>Imported Layers Copy</title>
    <desc>Created with Sketch.</desc>
    <defs></defs>
    <g id="Page-1" stroke="none" stroke-width="1" fill="none" fill-rule="evenodd" sketch:type="MSPage">
        <g id="Desktop---Large" sketch:type="MSArtboardGroup" transform="translate(-197.000000, -959.000000)" fill="#7071E1">
            <g id="Group" sketch:type="MSLayerGroup" transform="translate(59.000000, 60.000000)">
                <g id="Group-Copy" transform="translate(0.000000, 898.000000)" sketch:type="MSShapeGroup">
                    <path d="M153.054567,1 L138.879403,1 C138.393672,1 138,1.39361194 138,1.87940299 L138,16.0545672 C138,16.5402388 138.393672,16.9339701 138.879403,16.9339701 L146.510806,16.9339701 L146.510806,10.7635224 L144.434328,10.7635224 L144.434328,8.35874627 L146.510806,8.35874627 L146.510806,6.58531343 C146.510806,4.52722388 147.767821,3.40656716 149.603761,3.40656716 C150.483164,3.40656716 151.239045,3.4720597 151.459284,3.50131343 L151.459284,5.6521194 L150.18597,5.65271642 C149.187463,5.65271642 148.994149,6.12716418 148.994149,6.82340299 L148.994149,8.35874627 L151.375463,8.35874627 L151.065373,10.7635224 L148.994149,10.7635224 L148.994149,16.9339701 L153.054567,16.9339701 C153.540239,16.9339701 153.93397,16.5402388 153.93397,16.0545672 L153.93397,1.87940299 C153.93397,1.39361194 153.540239,1 153.054567,1" id="Imported-Layers-Copy"></path>
                </g>
            </g>
        </g>
    </g>
</svg>