<?xml version="1.0" encoding="UTF-8" standalone="no"?>
<svg width="17px" height="32px" viewBox="0 0 17 32" version="1.1" xmlns="http://www.w3.org/2000/svg" xmlns:xlink="http://www.w3.org/1999/xlink" xmlns:sketch="http://www.bohemiancoding.com/sketch/ns">
    <!-- Generator: Sketch 3.3.3 (12081) - http://www.bohemiancoding.com/sketch -->
    <title>Shape</title>
    <desc>Created with Sketch.</desc>
    <defs></defs>
    <g id="Page-1" stroke="none" stroke-width="1" fill="none" fill-rule="evenodd" sketch:type="MSPage">
        <g id="Desktop---Small" sketch:type="MSArtboardGroup" transform="translate(-472.000000, -20.000000)" fill="#CECECE">
            <path d="M485.727151,20 L474.344762,20 C473.051976,20 472,21.0516463 472,22.3444323 L472,49.6555677 C472,50.9483537 473.051646,52 474.344762,52 L485.727151,52 C487.019277,52 488.071583,50.9483537 488.071583,49.6555677 L488.071583,22.3444323 C488.071583,21.0516463 487.019277,20 485.727151,20 L485.727151,20 Z M473.632229,25.3185988 C473.639816,25.3185988 473.646744,25.3205781 473.654661,25.3205781 L486.416593,25.3205781 C486.42418,25.3205781 486.431437,25.3185988 486.439024,25.3185988 L486.439024,45.4846092 C486.431437,45.4846092 486.42418,45.4823001 486.416593,45.4823001 L473.654661,45.4823001 C473.647073,45.4823001 473.639816,45.4846092 473.632229,45.4846092 L473.632229,25.3185988 L473.632229,25.3185988 Z M474.344762,21.6322289 L485.727151,21.6322289 C486.119374,21.6322289 486.439024,21.9518793 486.439024,22.3444323 L486.439024,23.6906583 C486.431437,23.6903284 486.42418,23.6883492 486.416593,23.6883492 L473.654661,23.6883492 C473.647073,23.6883492 473.639816,23.6903284 473.632229,23.6906583 L473.632229,22.3444323 C473.632229,21.9518793 473.951879,21.6322289 474.344762,21.6322289 L474.344762,21.6322289 Z M485.727151,50.3677711 L474.344762,50.3677711 C473.951879,50.3677711 473.632559,50.0484506 473.632559,49.6558976 L473.632559,47.1125497 C473.640146,47.1125497 473.647073,47.1148589 473.65499,47.1148589 L486.416923,47.1148589 C486.42451,47.1148589 486.431767,47.1125497 486.439354,47.1125497 L486.439354,49.6555677 C486.439024,50.0484506 486.119374,50.3677711 485.727151,50.3677711 L485.727151,50.3677711 Z" id="Shape" sketch:type="MSShapeGroup"></path>
        </g>
    </g>
</svg>