<?xml version="1.0" encoding="UTF-8"?>
<svg width="32px" height="32px" viewBox="0 0 32 32" version="1.1" xmlns="http://www.w3.org/2000/svg" xmlns:xlink="http://www.w3.org/1999/xlink">
    <title>Group 7</title>
    <defs>
        <polygon id="path-1" points="0 0 18 0 18 14 0 14"></polygon>
        <polygon id="path-3" points="0 0 10 0 10 4 0 4"></polygon>
    </defs>
    <g id="Desktop" stroke="none" stroke-width="1" fill="none" fill-rule="evenodd">
        <g id="Doação---QR-Code" transform="translate(-801.000000, -601.000000)">
            <g id="Group-5" transform="translate(801.000000, 557.000000)">
                <g id="Group-7" transform="translate(0.000000, 44.000000)">
                    <circle id="Oval-Copy" fill="#ED2E60" cx="16" cy="16" r="16"></circle>
                    <g id="Group-6" transform="translate(7.000000, 10.000000)">
                        <g id="Group-9">
                            <mask id="mask-2" fill="white">
                                <use xlink:href="#path-1"></use>
                            </mask>
                            <g id="Clip-8"></g>
                            <path d="M9,14 L9,14 C9.45189172,14 9.88535551,13.8102967 10.2049902,13.4730655 L17.5348989,5.73568434 C17.8328441,5.42134838 18,4.99494633 18,4.55046909 L18,4.4569946 C18,4.00769732 17.8290933,3.57699165 17.5254403,3.26196712 L14.7103718,0.34032978 C14.5001631,0.122222632 14.2172211,0 13.9223744,0 L9,0 L4.07746249,0 C3.78277886,0 3.49983692,0.122222632 3.28962818,0.34032978 L0.474559687,3.26196712 C0.170906719,3.57699165 0,4.00769732 0,4.4569946 L0,4.55046909 C0,4.99494633 0.167155903,5.42134838 0.46493803,5.73568434 L7.79484671,13.4730655 C8.11448141,13.8102967 8.54810828,14 9,14" id="Fill-7" fill="#FFFFFF" mask="url(#mask-2)"></path>
                        </g>
                        <g id="Group-12" transform="translate(4.000000, 0.000000)">
                            <mask id="mask-4" fill="white">
                                <use xlink:href="#path-3"></use>
                            </mask>
                            <g id="Clip-11"></g>
                            <path d="M0.00275312561,0.00598313843 L0,0.0304596138 C0.318066982,0.0304596138 0.624797564,0.162451274 0.860918572,0.400688967 L4.14960808,3.71933642 C4.3287232,3.90009972 4.56111939,4 4.8022608,4 L5,4 L5.19790115,4 C5.43888061,4 5.6712768,3.90009972 5.85039192,3.71933642 L9.13908143,0.400688967 C9.37536438,0.162451274 9.68209497,0.0304596138 10,0.0304596138 C10,0.0304596138 9.99870441,0.0208503309 9.99676103,0.00598313843 C9.96080845,0.0021756867 9.92469392,0 9.88841744,0 L5,0 L0.11174451,0 C0.0751441342,0 0.0388676556,0.0021756867 0.00275312561,0.00598313843" id="Fill-10" fill="#F383AB" mask="url(#mask-4)"></path>
                        </g>
                    </g>
                </g>
            </g>
        </g>
    </g>
</svg>