<?xml version="1.0" encoding="UTF-8"?>
<svg width="80px" height="74px" viewBox="0 0 80 74" version="1.1" xmlns="http://www.w3.org/2000/svg" xmlns:xlink="http://www.w3.org/1999/xlink">
    <title>Icon/Illustrated/Alivio </title>
    <defs>
        <polygon id="path-1" points="0 0.288881477 24.1944436 0.288881477 24.1944436 34.9405011 0 34.9405011"></polygon>
    </defs>
    <g id="Desktop" stroke="none" stroke-width="1" fill="none" fill-rule="evenodd">
        <g id="Desktop-HD" transform="translate(-932.000000, -5635.000000)">
            <g id="Group-21" transform="translate(0.000000, 5473.000000)">
                <g id="Group-64" transform="translate(164.000000, 72.000000)">
                    <g id="Group-4" transform="translate(0.000000, 90.000000)">
                        <g id="Group" transform="translate(768.000000, 0.000000)">
                            <g id="Group-5" fill="#00B2E3">
                                <circle id="Oval-Copy-2" cx="26" cy="26" r="26"></circle>
                            </g>
                            <g id="Group-17" transform="translate(12.000000, 9.000000)">
                                <g id="Group-5" transform="translate(14.000000, 0.000000)" fill="#F7FAFA">
                                    <path d="M39.4257,8.26905324 C39.2124,6.72259491 38.3127,5.39912269 36.9576,4.63747917 C31.7598,1.71669213 25.827,0.172641204 19.8003,0.172641204 C13.7736,0.172641204 7.8408,1.71669213 2.643,4.63778009 C1.2876,5.39942361 0.3882,6.72289583 0.1749,8.26935417 C-0.039,9.82122917 0.4713,11.3469236 1.5756,12.4540301 C2.5248,13.4061597 3.7959,13.904794 5.0763,13.904794 C5.8905,13.904794 6.708,13.7028727 7.449,13.2884977 C9.3393,12.2301412 11.3613,11.4230579 13.4724,10.8810903 C14.6994,13.1229884 17.0757,14.6462755 19.8003,14.6462755 C22.5249,14.6462755 24.9012,13.1229884 26.1282,10.8810903 C28.2393,11.4230579 30.2613,12.2301412 32.1519,13.2884977 C34.0569,14.3543773 36.4722,14.0116227 38.0253,12.4540301 C39.129,11.3463218 39.6396,9.82122917 39.4257,8.26905324 M12.5862,7.41021065 C12.5862,7.72106713 12.6081,8.02680787 12.6462,8.32743287 C10.371,8.92597454 8.19,9.80437731 6.1467,10.9475949 C5.2797,11.4329884 4.1769,11.2731968 3.4647,10.5587986 C2.9574,10.0499329 2.7231,9.34937731 2.8215,8.63618287 C2.9193,7.92870602 3.33,7.32354398 3.9486,6.97597454 C7.0044,5.25859028 10.3365,4.05759491 13.7919,3.41090509 C13.0311,4.5577338 12.5862,5.93236343 12.5862,7.41021065 M19.8003,11.9662292 C17.2956,11.9662292 15.258,9.92234028 15.258,7.41021065 C15.258,4.89747917 17.2956,2.8538912 19.8003,2.8538912 C22.305,2.8538912 24.3426,4.89747917 24.3426,7.41021065 C24.3426,9.92234028 22.305,11.9662292 19.8003,11.9662292 M36.1356,10.5587986 C35.4234,11.2731968 34.3206,11.4335903 33.4536,10.9478958 C31.4103,9.80437731 29.2293,8.92627546 26.9541,8.32743287 C26.9922,8.02680787 27.0141,7.72106713 27.0141,7.41021065 C27.0141,5.93266435 26.5695,4.5577338 25.8084,3.41120602 C29.2638,4.05789583 32.5959,5.2588912 35.6517,6.97597454 C36.2703,7.32354398 36.6816,7.92870602 36.7788,8.63618287 C36.8772,9.34937731 36.6429,10.0502338 36.1356,10.5587986" id="Fill-1"></path>
                                    <path d="M52.09863,30.5340509 C50.86563,29.5722917 49.29303,29.2527083 47.78523,29.6583565 C45.66393,30.2283102 44.16003,32.154838 44.12823,34.3434722 C44.09643,36.5149537 43.78233,38.675 43.19463,40.779375 C40.64523,40.7243056 38.14233,42.0270139 36.77973,44.3940972 C35.41773,46.7605787 35.54463,49.5862731 36.86613,51.7728009 C35.34273,53.3355093 33.63573,54.689375 31.77693,55.8028009 C29.90343,56.9246528 28.99203,59.1942361 29.56023,61.3223843 C29.96433,62.834838 31.02603,64.0409491 32.47293,64.6313657 C33.07743,64.8778241 33.70833,65 34.33593,65 C35.20473,65 36.06723,64.7655787 36.84243,64.3030556 C41.96343,61.2480556 46.26243,56.8659722 49.27563,51.6310648 C52.28913,46.3958565 53.92233,40.4700231 53.99943,34.4936343 C54.02013,32.9354398 53.32713,31.4921991 52.09863,30.5340509 M35.47683,61.9994676 C34.86723,62.3629861 34.13943,62.4171528 33.47973,62.148125 C32.81463,61.8769907 32.32683,61.3226852 32.14143,60.6278472 C31.88043,59.6522454 32.29383,58.6143519 33.14643,58.1033796 C35.15553,56.9002778 37.00443,55.4446991 38.65833,53.7679398 C38.89893,53.9512037 39.15213,54.1230324 39.42063,54.2786111 C40.55403,54.9346296 41.79243,55.2466898 43.01583,55.2466898 C43.16823,55.2466898 43.32093,55.2415741 43.47303,55.2316435 C41.18763,57.9092824 38.48643,60.2038426 35.47683,61.9994676 M46.96143,50.289838 C45.70893,52.4655324 42.92583,53.2136343 40.75653,51.9575694 C38.58753,50.7018056 37.84173,47.9098148 39.09393,45.7338194 C39.70053,44.6796759 40.68003,43.9258565 41.85213,43.611088 C42.24333,43.5057639 42.64053,43.4537037 43.03503,43.4537037 C43.31313,43.4537037 43.58943,43.480787 43.86213,43.5322454 C43.88433,43.5373611 43.90683,43.5406713 43.92933,43.5445833 C44.40483,43.6414815 44.86653,43.8157176 45.29883,44.066088 C47.46753,45.3221528 48.21363,48.1141435 46.96143,50.289838 M49.48653,44.785 C48.86193,43.5205093 47.88093,42.4669676 46.63443,41.7453472 C46.36623,41.5897685 46.09113,41.4558565 45.81243,41.3384954 C46.43313,39.0628935 46.76583,36.729213 46.79973,34.3822917 C46.81443,33.3865278 47.50383,32.5084259 48.47673,32.2466204 C49.16973,32.0606481 49.89183,32.2075 50.45823,32.6492593 C51.02043,33.0877083 51.33753,33.747338 51.32823,34.4587269 C51.28293,37.9693287 50.65473,41.4621759 49.48653,44.785" id="Fill-3"></path>
                                </g>
                                <g id="Group-10" transform="translate(21.000000, 18.000000)" fill="#F7FAFA">
                                    <path d="M28.3575908,8.27187345 L26.4225806,7.12183805 C25.7990806,6.7509531 24.989152,6.9489531 24.6139276,7.56456372 C24.2384071,8.1798823 24.4393357,8.97889115 25.0625398,9.34948407 L26.3598459,10.1207496 L26.3598459,13.8538381 C26.3598459,21.3042451 21.6112439,27.8364929 14.5003255,30.2367319 C7.38911122,27.8362009 2.64050918,21.3042451 2.64050918,13.8538381 L2.64050918,10.1207496 L14.5003255,3.07013894 L15.6567745,3.75759027 C16.2799786,4.12818319 17.0899071,3.92989115 17.4654276,3.3148646 C17.8412439,2.69954602 17.6400194,1.90053717 17.0168153,1.52965221 L15.18005,0.437731858 C14.7619173,0.189209735 14.2384378,0.18950177 13.8200092,0.437731858 L0.642764286,8.27187345 C0.24682551,8.50725398 0.00476428571,8.93012124 0.00476428571,9.3859885 L0.00476428571,13.853546 C0.00476428571,18.1160947 1.35385612,22.1864841 3.90644796,25.6252009 C6.45874388,29.0636257 9.98461122,31.5605283 14.1026112,32.8454841 C14.2322235,32.886077 14.3659786,32.9062274 14.5000296,32.9062274 C14.6340806,32.9062274 14.7681316,32.886077 14.897448,32.8454841 C19.015448,31.5605283 22.5416112,29.0636257 25.0936112,25.6252009 C27.646499,22.1864841 28.9952949,18.1158027 28.9952949,13.853546 L28.9952949,9.3859885 C28.9952949,8.9298292 28.7535296,8.50725398 28.3575908,8.27187345" id="Fill-6"></path>
                                    <path d="M22.4054296,4.77799115 C22.1604092,4.53618584 21.8201031,4.39688496 21.4738786,4.39688496 C21.1258786,4.39688496 20.787052,4.53589381 20.5420316,4.77799115 C20.2958276,5.01979646 20.1558582,5.35534513 20.1558582,5.69731858 C20.1558582,6.03929204 20.2958276,6.37484071 20.5420316,6.61664602 C20.787052,6.85874336 21.1258786,6.99775221 21.4738786,6.99775221 C21.8201031,6.99775221 22.1604092,6.85874336 22.4054296,6.61664602 C22.65045,6.37484071 22.7916031,6.03929204 22.7916031,5.69731858 C22.7916031,5.35534513 22.65045,5.01979646 22.4054296,4.77799115" id="Fill-8"></path>
                                </g>
                                <g id="Group-16" transform="translate(0.000000, 30.000000)">
                                    <path d="M40.5278806,2.09585398 C40.0149381,1.58524301 39.1831396,1.58524301 38.6704921,2.09585398 L33.5569957,7.18581443 L30.9967079,4.63745754 C30.4837655,4.12684656 29.6519669,4.12684656 29.1390245,4.63745754 C28.6257871,5.14806851 28.6257871,5.97579268 29.1390245,6.48669728 L32.628154,9.95967405 C32.8844777,10.2151263 33.2207367,10.3428525 33.5567007,10.3428525 C33.8929597,10.3428525 34.2292187,10.2151263 34.4858374,9.95967405 L40.5278806,3.94509372 C41.0405281,3.43448275 41.0405281,2.60646495 40.5278806,2.09585398" id="Fill-11" fill="#F7FAFA"></path>
                                    <g id="Group-15">
                                        <mask id="mask-2" fill="white">
                                            <use xlink:href="#path-1"></use>
                                        </mask>
                                        <g id="Clip-14"></g>
                                        <path d="M21.8506698,25.9667849 C20.0227777,24.8806722 18.3441374,23.5596608 16.8463101,22.0345812 C18.1456266,19.9008205 18.2703964,17.143991 16.9312597,14.8349371 C15.5918281,12.5255896 13.1306482,11.2547878 10.6240439,11.3082273 C10.0462094,9.2546257 9.73767698,7.14699743 9.70641079,5.02821147 C9.67543957,2.89268898 8.19648993,1.01320603 6.11079928,0.456789817 C4.62772014,0.060985566 3.08210863,0.372519921 1.86980647,1.31123371 C0.661928777,2.2461304 -0.0194381295,3.6543479 0.000324460432,5.17472951 C0.0764251799,11.0057953 1.68220935,16.7878259 4.64512302,21.895991 C7.60774173,27.0041561 11.8351662,31.2798991 16.8699072,34.2607631 C17.6320942,34.7120622 18.4795259,34.9405011 19.3343317,34.9405011 C19.9511014,34.9405011 20.5714108,34.8212901 21.1657633,34.5808126 C22.5883748,34.0047236 23.6322525,32.8281749 24.0295691,31.3521304 C24.5885259,29.2762134 23.6927201,27.0617063 21.8506698,25.9667849 M4.43805827,15.2169411 C3.28976331,11.9747522 2.67181367,8.56666624 2.6272741,5.14125645 C2.61842518,4.44683727 2.92990719,3.80380217 3.48296475,3.37599298 C4.03985683,2.94466031 4.74983525,2.80137212 5.43120216,2.98312496 C6.38747554,3.23799001 7.06559784,4.0947829 7.07975612,5.0663825 C7.11338201,7.35664449 7.44020216,9.63369343 8.05048273,11.8540731 C7.77646115,11.9685862 7.5062741,12.0992485 7.24228129,12.2510518 C6.01670576,12.9551606 5.05217338,13.9831358 4.43805827,15.2169411 M6.92136043,20.5881927 C5.68988561,18.465296 6.42316619,15.7410587 8.55575612,14.5151813 C8.98168417,14.2705931 9.43681367,14.1002915 9.90492158,14.0057448 C9.92586403,14.0022214 9.94680647,13.9992851 9.96745396,13.9945871 C10.2355763,13.9443776 10.5078281,13.9179515 10.7818496,13.9179515 C11.1694324,13.9179515 11.5599647,13.9687483 11.9445978,14.0712228 C13.0967273,14.3786465 14.0600799,15.1141729 14.6562022,16.1424418 C15.887677,18.2653385 15.1543964,20.9895758 13.0218065,22.2154532 C10.8892165,23.4413306 8.15254029,22.7110894 6.92136043,20.5881927 M21.4922885,30.6756222 C21.3097058,31.3533049 20.8300942,31.8938654 20.176159,32.1587137 C19.5278281,32.421213 18.8119504,32.3683608 18.2128784,32.0133701 C15.2535043,30.2613197 12.5979432,28.0227354 10.3506122,25.410075 C10.500454,25.4197646 10.6502957,25.4247562 10.8007273,25.4247562 C12.0030007,25.4247562 13.2212022,25.1205624 14.3352813,24.4801699 C14.5992741,24.3283667 14.8479288,24.1607078 15.0847849,23.9815975 C16.7109216,25.618254 18.5284899,27.03851 20.504159,28.2121225 C21.3421518,28.7104013 21.7483173,29.7231082 21.4922885,30.6756222" id="Fill-13" fill="#F7FAFA" mask="url(#mask-2)"></path>
                                    </g>
                                </g>
                            </g>
                        </g>
                    </g>
                </g>
            </g>
        </g>
    </g>
</svg>