<?xml version="1.0" encoding="UTF-8"?>
<svg width="32px" height="32px" viewBox="0 0 32 32" version="1.1" xmlns="http://www.w3.org/2000/svg" xmlns:xlink="http://www.w3.org/1999/xlink">
    <title>Group 10</title>
    <defs>
        <polygon id="path-1" points="0.000242105263 0.0375263158 12.3933684 0.0375263158 12.3933684 21.7894737 0.000242105263 21.7894737"></polygon>
    </defs>
    <g id="Desktop" stroke="none" stroke-width="1" fill="none" fill-rule="evenodd">
        <g id="Doação---QR-Code" transform="translate(-801.000000, -557.000000)">
            <g id="Group-10" transform="translate(801.000000, 557.000000)">
                <circle id="Oval" fill="#ED2E60" cx="16" cy="16" r="16"></circle>
                <g id="Group-6" transform="translate(9.000000, 4.000000)"></g>
                <g id="Group-3" transform="translate(10.000000, 5.172637)">
                    <mask id="mask-2" fill="white">
                        <use xlink:href="#path-1"></use>
                    </mask>
                    <g id="Clip-2"></g>
                    <path d="M1.78697895,2.31936842 C1.78697895,2.04457895 2.01092632,1.82184211 2.28450526,1.82184211 L10.1117684,1.82184211 C10.3865579,1.82184211 10.6092947,2.04457895 10.6092947,2.31936842 L10.6092947,14.8894737 L1.78697895,14.8894737 L1.78697895,2.31936842 Z M10.6092947,19.5076316 C10.6092947,19.7824211 10.3865579,20.0051579 10.1117684,20.0051579 L2.28450526,20.0051579 C2.01092632,20.0051579 1.78697895,19.7824211 1.78697895,19.5076316 L1.78697895,16.6725789 L10.6092947,16.6725789 L10.6092947,19.5076316 Z M10.1117684,0.0375263158 L2.28450526,0.0375263158 C1.02676842,0.0375263158 0.00266315789,1.06163158 0.00266315789,2.31936842 L0.00266315789,15.7162632 C0.00145263158,15.7380526 0.000242105263,15.7598421 0.000242105263,15.7804211 C0.000242105263,15.8034211 0.00145263158,15.824 0.00266315789,15.8457895 L0.00266315789,19.5076316 C0.00266315789,20.7653684 1.02676842,21.7894737 2.28450526,21.7894737 L10.1117684,21.7894737 C11.3695053,21.7894737 12.3936105,20.7653684 12.3936105,19.5076316 L12.3936105,2.31936842 C12.3936105,1.06163158 11.3695053,0.0375263158 10.1117684,0.0375263158 L10.1117684,0.0375263158 Z" id="Fill-1" fill="#FFFFFF" mask="url(#mask-2)"></path>
                </g>
                <path d="M15.7507263,24.4914263 L16.6392526,24.4914263 C17.1307263,24.4914263 17.5314105,24.0919526 17.5314105,23.6004789 C17.5314105,23.1077947 17.1307263,22.7083211 16.6392526,22.7083211 L15.7507263,22.7083211 C15.2592526,22.7083211 14.8597789,23.1077947 14.8597789,23.6004789 C14.8597789,24.0919526 15.2592526,24.4914263 15.7507263,24.4914263" id="Fill-4" fill="#FFFFFF"></path>
            </g>
        </g>
    </g>
</svg>