<?xml version="1.0" encoding="UTF-8"?>
<svg width="29px" height="24px" viewBox="0 0 29 24" version="1.1" xmlns="http://www.w3.org/2000/svg" xmlns:xlink="http://www.w3.org/1999/xlink">
    <title>Fill 1</title>
    <g id="Desktop" stroke="none" stroke-width="1" fill="none" fill-rule="evenodd" stroke-linejoin="round">
        <g id="Desktop-HD" transform="translate(-548.000000, -4559.000000)" fill="#FFFFFF" stroke="#FFFFFF" stroke-width="0.5">
            <g id="Group-67" transform="translate(0.000000, 3725.000000)">
                <g id="Group-63" transform="translate(164.000000, 72.000000)">
                    <g id="Group-59" transform="translate(40.000000, 200.000000)">
                        <g id="Group-56" transform="translate(56.000000, 0.000000)">
                            <g id="Icons-Share" transform="translate(278.000000, 546.000000)">
                                <g id="Icon-Share" transform="translate(10.000000, 16.000000)">
                                    <path d="M11.8332236,21.3672503 L10.9633822,10.6946039 L25.7786077,2.87471297 L11.8332236,21.3672503 Z M2.42108348,1.43843284 L25.4304173,1.43843284 L10.3181935,9.41504018 L2.42108348,1.43843284 Z M28.9262825,0.401262916 C28.8086678,0.157577497 28.5620153,0 28.2942091,0 L0.705516074,0 C0.42036381,0 0.162288319,0.17695178 0.0527120044,0.445608496 C-0.0555950868,0.71641791 0.00617380114,1.02554535 0.208826523,1.23005166 L9.54312088,10.6597302 L10.5792305,23.3417049 C10.6008073,23.6374856 10.8038831,23.8871986 11.0822662,23.9715844 C11.149112,23.9913892 11.2155347,24 11.2806882,24 C11.4977254,24 11.7063012,23.8992537 11.8399927,23.7201493 L28.8530906,1.15729047 C29.0180897,0.940729047 29.0464357,0.648392652 28.9262825,0.401262916 L28.9262825,0.401262916 Z" id="Fill-1"></path>
                                </g>
                            </g>
                        </g>
                    </g>
                </g>
            </g>
        </g>
    </g>
</svg>