<svg xmlns="http://www.w3.org/2000/svg" xmlns:xlink="http://www.w3.org/1999/xlink" width="32.606" height="28.643" viewBox="0 0 32.606 28.643">
  <defs>
    <clipPath id="clip-path">
      <path id="Caminho_2" data-name="Caminho 2" d="M32.612-12.909a2.387,2.387,0,0,0-3.206-.61l-4.622,2.933a.529.529,0,0,0-.159.756.591.591,0,0,0,.794.151l4.622-2.933a1.2,1.2,0,0,1,1.618.308,1.079,1.079,0,0,1-.323,1.54L21.1-4.265a1.188,1.188,0,0,1-.3.136,1.224,1.224,0,0,1-.5.041l-8.1-2.205a.618.618,0,0,0-.063-.015,2.394,2.394,0,0,0-1.7.334l-.482.306L6.844-10.118l3.745-2.39a2.585,2.585,0,0,1,1.838-.36l8.72,2.662h0a1.1,1.1,0,0,1,.771,1.362,1.082,1.082,0,0,1-.556.64,1.229,1.229,0,0,1-.892.081l-.009,0-.01,0L16.2-9.2a.576.576,0,0,0-.7.387.522.522,0,0,0,.077.442.569.569,0,0,0,.33.224L20.16-7.073h0A2.418,2.418,0,0,0,21.9-7.239,2.178,2.178,0,0,0,23.017-8.53,2.185,2.185,0,0,0,21.5-11.244h0L12.79-13.9a.6.6,0,0,0-.1-.028,3.772,3.772,0,0,0-2.739.516l-3.744,2.39L5.877-11.5a.591.591,0,0,0-.794-.151L1.255-9.221a.529.529,0,0,0-.159.756L4.221-4a.591.591,0,0,0,.794.151.529.529,0,0,0,.159-.756L2.367-8.616,5.242-10.44,9.664-4.126,6.789-2.3l-.138-.2a.591.591,0,0,0-.794-.151.529.529,0,0,0-.159.756l.456.651a.591.591,0,0,0,.794.151l3.828-2.429a.53.53,0,0,0,.159-.756L10.6-4.762l.482-.306a1.206,1.206,0,0,1,.836-.171l8.112,2.21h0l.032.007.028.006h.007a2.433,2.433,0,0,0,1.045-.074,2.364,2.364,0,0,0,.592-.27l10.24-6.5a2.139,2.139,0,0,0,.641-3.052" fill="none" clip-rule="evenodd"/>
    </clipPath>
    <clipPath id="clip-path-2">
      <path id="Caminho_5" data-name="Caminho 5" d="M27.138-18.619A27.2,27.2,0,0,1,23.5-16.21a27.151,27.151,0,0,1-3.624-2.4c-1.713-1.359-3.755-3.412-3.755-5.478a3.655,3.655,0,0,1,3.689-3.778,3.81,3.81,0,0,1,3.221,1.818.559.559,0,0,0,.469.256.558.558,0,0,0,.469-.256,3.81,3.81,0,0,1,3.221-1.818,3.655,3.655,0,0,1,3.689,3.778c0,2.063-2.035,4.112-3.741,5.468m3.37-9.078A4.881,4.881,0,0,0,27.19-29a4.838,4.838,0,0,0-3.69,1.706A4.838,4.838,0,0,0,19.81-29a4.881,4.881,0,0,0-3.318,1.3A4.885,4.885,0,0,0,15-24.087c0,4.738,7.91,8.852,8.247,9.025A.554.554,0,0,0,23.5-15a.554.554,0,0,0,.253-.061C24.09-15.234,32-19.349,32-24.087a4.885,4.885,0,0,0-1.492-3.61" fill="none" clip-rule="evenodd"/>
    </clipPath>
    <clipPath id="clip-path-3">
      <path id="Caminho_8" data-name="Caminho 8" d="M20.414-26a2.784,2.784,0,0,0-1.777.722A2.242,2.242,0,0,0,18-23.517a.558.558,0,0,0,.574.517H18.6a.553.553,0,0,0,.554-.555,1.259,1.259,0,0,1,.315-.979,1.622,1.622,0,0,1,.973-.393.555.555,0,0,0,.56-.546A.557.557,0,0,0,20.414-26" fill="none" clip-rule="evenodd"/>
    </clipPath>
  </defs>
  <g id="Grupo_120" data-name="Grupo 120" transform="translate(-0.698 29.3)">
    <g id="Grupo_114" data-name="Grupo 114" clip-path="url(#clip-path)">
      <path id="Caminho_1" data-name="Caminho 1" d="M-4-19H38V4H-4Z" fill="#0078c0"/>
    </g>
    <g id="Grupo_115" data-name="Grupo 115" transform="translate(1 -14)">
      <path id="Caminho_3" data-name="Caminho 3" d="M31.612,1.091a2.387,2.387,0,0,0-3.206-.61L23.784,3.414a.529.529,0,0,0-.159.756.591.591,0,0,0,.794.151l4.622-2.933a1.2,1.2,0,0,1,1.618.308,1.079,1.079,0,0,1-.323,1.54L20.1,9.735a1.188,1.188,0,0,1-.3.136,1.224,1.224,0,0,1-.5.041l-8.1-2.205a.618.618,0,0,0-.063-.015,2.394,2.394,0,0,0-1.7.334l-.482.306L5.844,3.882l3.745-2.39a2.585,2.585,0,0,1,1.838-.36l8.72,2.662h0a1.1,1.1,0,0,1,.771,1.362,1.082,1.082,0,0,1-.556.64,1.229,1.229,0,0,1-.892.081l-.009,0-.01,0L15.2,4.8a.576.576,0,0,0-.7.387.522.522,0,0,0,.077.442.569.569,0,0,0,.33.224L19.16,6.927h0A2.418,2.418,0,0,0,20.9,6.761,2.178,2.178,0,0,0,22.017,5.47,2.185,2.185,0,0,0,20.5,2.756h0L11.79.1a.6.6,0,0,0-.1-.028A3.772,3.772,0,0,0,8.953.585L5.209,2.974,4.877,2.5a.591.591,0,0,0-.794-.151L.255,4.779A.529.529,0,0,0,.1,5.536L3.221,10a.591.591,0,0,0,.794.151.529.529,0,0,0,.159-.756L1.367,5.384,4.242,3.56,8.664,9.874,5.789,11.7l-.138-.2a.591.591,0,0,0-.794-.151.529.529,0,0,0-.159.756l.456.651a.591.591,0,0,0,.794.151l3.828-2.429a.53.53,0,0,0,.159-.756L9.6,9.238l.482-.306a1.206,1.206,0,0,1,.836-.171l8.112,2.21h0l.032.007.028.006h.007a2.433,2.433,0,0,0,1.045-.074,2.365,2.365,0,0,0,.592-.27l10.24-6.5a2.139,2.139,0,0,0,.641-3.052" fill="none" stroke="#0078c0" stroke-width="0.6"/>
    </g>
    <g id="Grupo_116" data-name="Grupo 116" clip-path="url(#clip-path-2)">
      <path id="Caminho_4" data-name="Caminho 4" d="M10-34H37v24H10Z" fill="#0078c0"/>
    </g>
    <g id="Grupo_117" data-name="Grupo 117" transform="translate(15 -29)">
      <path id="Caminho_6" data-name="Caminho 6" d="M12.138,10.381A27.2,27.2,0,0,1,8.5,12.79a27.151,27.151,0,0,1-3.624-2.4C3.163,9.033,1.121,6.98,1.121,4.913A3.655,3.655,0,0,1,4.81,1.136,3.81,3.81,0,0,1,8.031,2.953a.556.556,0,0,0,.937,0A3.81,3.81,0,0,1,12.19,1.136a3.655,3.655,0,0,1,3.689,3.778c0,2.063-2.035,4.112-3.741,5.468M15.508,1.3a4.857,4.857,0,0,0-7.008.4,4.857,4.857,0,0,0-7.008-.4A4.885,4.885,0,0,0,0,4.913c0,4.738,7.91,8.852,8.247,9.025a.553.553,0,0,0,.506,0C9.09,13.766,17,9.651,17,4.913A4.885,4.885,0,0,0,15.508,1.3" fill="none" stroke="#0078c0" stroke-width="0.6"/>
    </g>
    <g id="Grupo_118" data-name="Grupo 118" clip-path="url(#clip-path-3)">
      <path id="Caminho_7" data-name="Caminho 7" d="M13-31H26v13H13Z" fill="#0078c0"/>
    </g>
    <g id="Grupo_119" data-name="Grupo 119" transform="translate(18 -26)">
      <path id="Caminho_9" data-name="Caminho 9" d="M2.414,0A2.784,2.784,0,0,0,.637.722,2.242,2.242,0,0,0,0,2.483.558.558,0,0,0,.577,3H.6a.553.553,0,0,0,.554-.555,1.259,1.259,0,0,1,.315-.979,1.622,1.622,0,0,1,.973-.393A.555.555,0,0,0,3,.526.557.557,0,0,0,2.414,0" fill="none" stroke="#0078c0" stroke-width="0.6"/>
    </g>
  </g>
</svg>
