<?xml version="1.0" encoding="UTF-8"?>
<svg width="26px" height="21px" viewBox="0 0 26 21" version="1.1" xmlns="http://www.w3.org/2000/svg" xmlns:xlink="http://www.w3.org/1999/xlink">
    <title>Group 3</title>
    <defs>
        <polygon id="path-1" points="0 0 26 0 26 21 0 21"></polygon>
    </defs>
    <g id="Desktop" stroke="none" stroke-width="1" fill="none" fill-rule="evenodd">
        <g id="Desktop-HD" transform="translate(-362.000000, -1996.000000)">
            <g id="Group-10" transform="translate(164.000000, 1984.000000)">
                <g id="Group-3" transform="translate(198.000000, 12.000000)">
                    <mask id="mask-2" fill="white">
                        <use xlink:href="#path-1"></use>
                    </mask>
                    <g id="Clip-2"></g>
                    <path d="M26,2.49135821 C25.0548073,2.90468066 24.0263059,3.18922929 22.9407227,3.3315036 C24.0540754,2.66271048 24.8995036,1.63719309 25.2954766,0.384244492 C24.2659467,0.996439433 23.1099112,1.43780135 21.8973081,1.67977153 C20.9372021,0.641272903 19.5425542,0 17.9915742,0 C15.0588026,0 12.6613659,2.37764261 12.6613659,5.29582375 C12.6613659,5.72316594 12.7323325,6.12194941 12.8166696,6.50671315 C8.37560078,6.29278243 4.44106885,4.18566872 1.8183904,0.967880721 C1.36739255,1.76544767 1.08558318,2.66271048 1.08558318,3.6305912 C1.08558318,5.48119576 2.04414644,7.10436911 3.45370755,8.04421037 C2.57999565,8.03019064 1.76182282,7.78770121 1.04341462,7.38891774 L1.04341462,7.46005489 C1.04341462,8.14338699 1.17043454,8.77012091 1.40956111,9.36777687 C2.05854546,11.0340479 3.53907316,12.2864773 5.33020827,12.6426823 C4.86378291,12.7709369 4.41278506,12.8415548 3.91961866,12.8415548 C3.58124172,12.8415548 3.24286477,12.7989763 2.91785834,12.7278392 C3.6095255,14.8349529 5.56933484,16.3724501 7.89631915,16.4295675 C6.06250124,17.8533492 3.77871398,18.6934945 1.28305544,18.6934945 C0.845428114,18.6934945 0.437113076,18.6644166 0,18.6218381 C2.36863862,20.1172762 5.17439032,21 8.17812852,21 C16.5110465,21 21.6576673,15.1766189 22.9962618,9.12580669 C23.2369311,8.04421037 23.3490378,6.97611453 23.3490378,5.92255767 L23.3490378,5.23922558 C24.3785676,4.48475632 25.2954766,3.54491507 26,2.49135821" id="Fill-1" fill="#FFFFFF" mask="url(#mask-2)"></path>
                </g>
            </g>
        </g>
    </g>
</svg>