<?xml version="1.0" encoding="UTF-8"?>
<svg width="130px" height="36px" viewBox="0 0 130 36" version="1.1" xmlns="http://www.w3.org/2000/svg" xmlns:xlink="http://www.w3.org/1999/xlink">
    <title>Group</title>
    <defs>
        <polygon id="path-1" points="0.000213305399 0.294567707 47.0878068 0.294567707 47.0878068 35.8855326 0.000213305399 35.8855326"></polygon>
        <polygon id="path-3" points="0.131162506 0.288761519 25.9160158 0.288761519 25.9160158 9.75469021 0.131162506 9.75469021"></polygon>
    </defs>
    <g id="Desktop" stroke="none" stroke-width="1" fill="none" fill-rule="evenodd">
        <g id="Doação---QR-Code" transform="translate(-862.000000, -190.000000)">
            <g id="Group-8" transform="translate(821.000000, 190.000000)">
                <g id="Group" transform="translate(41.000000, 0.000000)">
                    <g id="Group-13" transform="translate(0.122288, 0.000000)">
                        <path d="M68.1081821,24.7299696 C68.1081821,25.2677065 67.7937,26.2359846 66.2221455,26.2359846 L60.983345,26.2359846 C59.8832996,26.2359846 58.835454,25.052436 58.835454,23.626818 C58.835454,22.2016393 59.5166178,21.0185301 61.1929997,21.0185301 L68.1081821,21.0185301 L68.1081821,24.7299696 Z M64.3365367,6.2799682 C58.2347291,6.2799682 55.8968652,7.82552266 54.4155905,12.307982 C54.3629629,12.4678973 54.4532428,12.6427497 54.6119813,12.6880004 L59.0091679,13.9444773 C59.1614884,13.9879707 59.3180877,13.8965906 59.3625858,13.7410686 C59.54828,13.0904245 60.1575622,11.5510206 61.7693362,11.5510206 L66.4839999,11.5510206 C67.3743906,11.5510206 68.1736457,12.1968322 68.1736457,13.0038769 C68.1736457,13.8104824 68.1655162,15.9618696 68.1655162,15.9618696 L60.7736903,15.9618696 C57.0546726,15.9618696 53.492254,19.0279368 53.492254,23.7080936 C53.492254,28.0649053 55.8497998,31.399841 63.8650276,31.399841 C71.0416365,31.399841 73.6614646,28.548605 73.6614646,24.6223343 L73.6614646,13.8104824 C73.6614646,11.4438247 72.5083637,6.2799682 64.3365367,6.2799682 L64.3365367,6.2799682 Z" id="Fill-1" fill="#2C2A7A"></path>
                        <path d="M113.917789,13.1232544 C113.917789,12.610568 114.217302,11.6871176 115.715724,11.6871176 L120.968755,11.6871176 C122.394865,11.6871176 123.016569,12.6088107 123.016569,13.9676272 C123.016569,15.326883 122.757704,16.4546172 120.769365,16.4546172 L113.917789,16.4546172 L113.917789,13.1232544 Z M118.06305,31.399841 C124.16456,31.399841 126.502473,29.8538743 127.984207,25.3714933 C128.037264,25.2115808 127.946554,25.0367315 127.78824,24.9919209 L123.390532,23.7350266 C123.23778,23.6919733 123.081606,23.7829125 123.036679,23.9388711 C122.851409,24.5895039 122.241686,26.1284415 120.630305,26.1284415 L115.915542,26.1284415 C115.025132,26.1284415 114.22586,25.4830805 114.22586,24.6760499 C114.22586,23.8694585 114.23399,21.7172303 114.23399,21.7172303 L121.625972,21.7172303 C125.345497,21.7172303 128.907563,18.651656 128.907563,13.9720204 C128.907563,9.61528492 126.549967,6.2799682 118.534997,6.2799682 C111.357808,6.2799682 108.738352,9.13115438 108.738352,13.0577957 L108.738352,23.8694585 C108.738352,26.2360749 109.89105,31.399841 118.06305,31.399841 L118.06305,31.399841 Z" id="Fill-3" fill="#2C2A7A"></path>
                        <path d="M91.1999085,20.1978662 C95.0594708,20.1978662 98.2922886,14.6359789 98.922036,13.4809867 C98.9919603,13.352703 99.1240871,13.2727454 99.2677965,13.2727454 C99.486149,13.2727454 99.6633191,13.4541877 99.6633191,13.6778055 L99.6633191,30.9569988 C99.6633191,31.2017043 99.8567905,31.399841 100.095305,31.399841 L104.798249,31.399841 C105.037192,31.399841 105.230664,31.2017043 105.230664,30.9569988 L105.230664,10.8103143 L105.230664,10.7444152 C105.230664,8.27890873 103.27879,6.2799682 100.871336,6.2799682 C98.5076382,6.2799682 97.2472854,7.30184417 95.8290668,9.13120425 C94.4108482,10.9596857 92.032994,14.9940309 91.1999085,14.9940309 C90.3668231,14.9940309 87.9889689,10.9596857 86.5707503,9.13120425 C85.1525317,7.30184417 83.8921789,6.2799682 81.5284812,6.2799682 C79.1210272,6.2799682 77.1691534,8.27890873 77.1691534,10.7444152 L77.1691534,10.8103143 L77.1691534,30.9569988 C77.1691534,31.2017043 77.3626248,31.399841 77.6015685,31.399841 L82.3045119,31.399841 C82.5430265,31.399841 82.736498,31.2017043 82.736498,30.9569988 L82.736498,13.6778055 C82.736498,13.4541877 82.9136681,13.2727454 83.1320206,13.2727454 C83.2757299,13.2727454 83.4078568,13.352703 83.4777811,13.4809867 C84.1075285,14.6359789 87.3403462,20.1978662 91.1999085,20.1978662" id="Fill-5" fill="#2C2A7A"></path>
                        <g id="Group-9">
                            <mask id="mask-2" fill="white">
                                <use xlink:href="#path-1"></use>
                            </mask>
                            <g id="Clip-8"></g>
                            <path d="M23.5440101,35.8855764 L23.5440101,35.8855764 C24.7261486,35.8855764 25.8600801,35.4033098 26.6962373,34.5459957 L45.8711128,14.8759099 C46.6505308,14.0768004 47.0878068,12.9927947 47.0878068,11.8628381 L47.0878068,11.6252058 C47.0878068,10.4829956 46.6407187,9.38804919 45.8463694,8.58718913 L38.4822138,1.15975915 C37.9323125,0.605283904 37.1921427,0.294567707 36.4208304,0.294567707 L23.5440101,0.294567707 L10.6667631,0.294567707 C9.89587739,0.294567707 9.15570766,0.605283904 8.60580634,1.15975915 L1.24165073,8.58718913 C0.447301422,9.38804919 0.000213305399,10.4829956 0.000213305399,11.6252058 L0.000213305399,11.8628381 C0.000213305399,12.9927947 0.437489374,14.0768004 1.21648069,14.8759099 L20.3913563,34.5459957 C21.2275134,35.4033098 22.3618715,35.8855764 23.5440101,35.8855764" id="Fill-7" fill="#ED2E60" mask="url(#mask-2)"></path>
                        </g>
                        <g id="Group-12" transform="translate(10.523066, 0.000000)">
                            <mask id="mask-4" fill="white">
                                <use xlink:href="#path-3"></use>
                            </mask>
                            <g id="Clip-11"></g>
                            <path d="M0.1382614,0.302791982 L0.131162506,0.360715913 C0.951293551,0.360715913 1.74219386,0.67307607 2.35102841,1.23686899 L10.8308661,9.09049581 C11.2927118,9.51827476 11.8919419,9.75469021 12.5137215,9.75469021 L13.0235891,9.75469021 L13.5338743,9.75469021 C14.1552364,9.75469021 14.7544665,9.51827476 15.2163122,9.09049581 L23.6961499,1.23686899 C24.305402,0.67307607 25.0963023,0.360715913 25.9160158,0.360715913 C25.9160158,0.360715913 25.9126751,0.337975407 25.9076641,0.302791982 C25.8149609,0.293781593 25.7218401,0.288632799 25.6283018,0.288632799 L13.0235891,0.288632799 L0.419294085,0.288632799 C0.324920553,0.288632799 0.231382186,0.293781593 0.1382614,0.302791982" id="Fill-10" fill="#2C2A7A" mask="url(#mask-4)"></path>
                        </g>
                    </g>
                </g>
            </g>
        </g>
    </g>
</svg>