<svg xmlns="http://www.w3.org/2000/svg" width="63.706" height="100" viewBox="0 0 63.706 100">
  <path id="logo-lampiao" d="M34.4,48.8,26.4,27a54.339,54.339,0,0,0-7.7,13c2,19.1,8.2,26,8.2,26C27.4,52.3,34.4,48.8,34.4,48.8ZM25.8,30.1l1.2,4-2.2,2.3-1.3-2.3A41.226,41.226,0,0,1,25.8,30.1Zm-3,4.5,1.4,2.5-2,2.5-.9-2.2ZM19.5,41l1.3-2.6.9,2.1L20,42.9Zm5.9,20.7-1.8-5.6a16.26,16.26,0,0,1,2.2-3.2l1.3,2.7C27.1,55.7,25.4,59.4,25.4,61.7Zm2.3-7.1-1.1-2.5a10.714,10.714,0,0,1,2.6-3l.9,1.8A14.1,14.1,0,0,0,27.7,54.6Zm4.5-8.3.6,2a13.125,13.125,0,0,0-2,1.8l-1-1.6ZM27.7,24.9l7.9,21.5s6.3-6.4,8.7-14.2c0,0,2.7-7.6-7.2-26.9C37.2,5.2,35.2,18,27.7,24.9ZM36.8,9.7H37v2.7l-.7-.2Zm-.7,3.4.8.3a18.46,18.46,0,0,1-.1,4.6l-1.7-1.1Zm-1.7,4.8,2,1.2A9.754,9.754,0,0,1,35.1,24l-2.6-2.4ZM31.1,29.2l-1.6-3.9a15.422,15.422,0,0,0,2.3-2.9L34.4,25A21.174,21.174,0,0,1,31.1,29.2Zm5,14.2-.7-1.5a20.212,20.212,0,0,0,3.2-4.5l1,1.7A20.71,20.71,0,0,1,36.1,43.4Zm6.7-19.5s1.3,4.3.8,6.8l-1.3-1.1A14.56,14.56,0,0,0,42.8,23.9Zm.5,7.9a20.229,20.229,0,0,1-2.9,5.7l-1.1-1.3s1-.8,2.7-5.2ZM31.2,0a48.082,48.082,0,0,1-3.1,9.1,11.4,11.4,0,0,1,3.7,7.4S33.6,15.4,36,4.3A19.937,19.937,0,0,0,31.2,0Zm-2,8.5.4-1.2a2.894,2.894,0,0,1,1.3,1l-.8,1.4C30.2,9.7,29.6,9,29.2,8.5Zm3,5.1s-.8-2.8-1.4-3.3l.8-1.4A6.141,6.141,0,0,1,33,11.4Zm-.9-9.9.5-1.9a4.982,4.982,0,0,1,1.6,1.3l-.8,1.6A2.768,2.768,0,0,0,31.3,3.7Zm2,1.6.8-1.7,1.2,1.1-.8,2.7Zm9.2,3.2-1.7,2.4M.7,76.5H3.3V88h1v1H.7V88h1V77.5H.7v-1Zm6.7,5.2a2.075,2.075,0,0,0-1,.6l-.8-1A3.223,3.223,0,0,1,7,80.5a5.079,5.079,0,0,1,1.7-.3,6.753,6.753,0,0,1,1.4.2,2.281,2.281,0,0,1,1.2.6,4.3,4.3,0,0,1,.9,1,3.339,3.339,0,0,1,.3,1.5V88h1.2v1H10.9v-.6l-.3.3a2.186,2.186,0,0,1-.5.3,6.373,6.373,0,0,1-.7.2,2.769,2.769,0,0,1-.9.1A6.053,6.053,0,0,1,7,89.1a4.129,4.129,0,0,1-1.1-.7,3.592,3.592,0,0,1-.7-1A5.02,5.02,0,0,1,5,86.2a3.6,3.6,0,0,1,.2-1.1,3.592,3.592,0,0,1,.7-1A4.129,4.129,0,0,1,7,83.4a3.416,3.416,0,0,1,1.5-.2,2.769,2.769,0,0,1,.9.1,6.373,6.373,0,0,1,.7.2,2.186,2.186,0,0,1,.5.3l.3.3v-.8a1.884,1.884,0,0,0-.2-.8,2.651,2.651,0,0,0-.5-.6,2.01,2.01,0,0,0-.8-.4,2.769,2.769,0,0,0-.9-.1C8.1,81.5,7.7,81.6,7.4,81.7Zm-.5,5.7a2.348,2.348,0,0,0,1.6.5,2.648,2.648,0,0,0,1.7-.5,1.308,1.308,0,0,0,0-2.2,2.648,2.648,0,0,0-1.7-.5,2.348,2.348,0,0,0-1.6.5,1.656,1.656,0,0,0-.5,1.2A1.591,1.591,0,0,0,6.9,87.4ZM28,89H24.4V88h1V83a1.689,1.689,0,0,0-.3-1,1.053,1.053,0,0,0-1-.4,1.884,1.884,0,0,0-.8.2,2.506,2.506,0,0,0-.7.4l-.5.5c0,.1-.1.3-.1.4V88h1v1H19.4V88h1V82.9a.9.9,0,0,0-.1-.5c-.1-.2-.1-.3-.2-.4a1.381,1.381,0,0,0-.4-.3,1.268,1.268,0,0,0-.6-.1,2.354,2.354,0,0,0-.8.2c-.2.1-.5.2-.6.4a1.756,1.756,0,0,0-.4.5c-.1.2-.2.3-.2.5V88h1v1H14.5V88h1V81.4h-1v-1h2.6v.8l.3-.3a2.186,2.186,0,0,1,.5-.3,4.876,4.876,0,0,1,.7-.3,2.769,2.769,0,0,1,.9-.1,1.949,1.949,0,0,1,.8.1,3.329,3.329,0,0,1,.6.3,1.38,1.38,0,0,1,.4.3c.1.1.2.2.2.3l.4-.4a2.186,2.186,0,0,1,.5-.3,1.854,1.854,0,0,1,.7-.2,3.75,3.75,0,0,1,1.1-.1,5.019,5.019,0,0,1,1.2.2,1.555,1.555,0,0,1,.8.6,2.622,2.622,0,0,1,.5.9,3.6,3.6,0,0,1,.2,1.1v5h1v1Zm4.7,2.1v1.2H29.1V91.1h1V81.6h-1V80.4h2.6v1a3.528,3.528,0,0,1,1.3-.8,4.146,4.146,0,0,1,1.6-.3,3.287,3.287,0,0,1,1.7.4,4.508,4.508,0,0,1,1.4,1,4.2,4.2,0,0,1,.9,1.4,4.844,4.844,0,0,1,.3,1.8,3.922,3.922,0,0,1-.4,1.8,6.706,6.706,0,0,1-.9,1.4,7.1,7.1,0,0,1-1.4,1,4.711,4.711,0,0,1-1.7.4,4.33,4.33,0,0,1-2.9-1.1v2.9h1.1Zm-.8-5.2a3.49,3.49,0,0,0,.6.9,2.361,2.361,0,0,0,.9.6,2.153,2.153,0,0,0,1.1.2,3.6,3.6,0,0,0,1.1-.2,3.49,3.49,0,0,0,.9-.6,2.738,2.738,0,0,0,.8-2.1,5.019,5.019,0,0,0-.2-1.2,3.49,3.49,0,0,0-.6-.9,2.361,2.361,0,0,0-.9-.6,2.153,2.153,0,0,0-1.1-.2,3.6,3.6,0,0,0-1.1.2,3.49,3.49,0,0,0-.9.6,2.738,2.738,0,0,0-.8,2.1A1.551,1.551,0,0,0,31.9,85.9Zm8.3-5.5h2.6V88h1v1H40.2V88h1V81.4h-1Zm2.5-1.6a.967.967,0,1,1,.3-.7A.908.908,0,0,1,42.7,78.8Zm4.7,2.9a1.456,1.456,0,0,0-.9.6l-.8-1a4.678,4.678,0,0,1,1.4-.8,5.079,5.079,0,0,1,1.7-.3,6.753,6.753,0,0,1,1.4.2,2.281,2.281,0,0,1,1.2.6,4.3,4.3,0,0,1,.9,1,3.339,3.339,0,0,1,.3,1.5V88h1.2v1H51v-.6l-.3.3a2.186,2.186,0,0,1-.5.3,6.373,6.373,0,0,1-.7.2,2.769,2.769,0,0,1-.9.1,6.053,6.053,0,0,1-1.5-.2,4.129,4.129,0,0,1-1.1-.7,3.592,3.592,0,0,1-.7-1,2.663,2.663,0,0,1-.3-1.2,2.735,2.735,0,0,1,.9-2.1,4.129,4.129,0,0,1,1.1-.7,3.416,3.416,0,0,1,1.5-.2,2.769,2.769,0,0,1,.9.1,6.373,6.373,0,0,1,.7.2,2.186,2.186,0,0,1,.5.3l.3.3v-.8a1.884,1.884,0,0,0-.2-.8,2.651,2.651,0,0,0-.5-.6,2.01,2.01,0,0,0-.8-.4,2.769,2.769,0,0,0-.9-.1C48.2,81.5,47.8,81.6,47.4,81.7Zm-.5-4.3a1.645,1.645,0,0,1,1-.2,1.268,1.268,0,0,1,.6.1c.2.1.3.2.5.3.1.1.3.2.4.3a.749.749,0,0,0,.5.1,1.445,1.445,0,0,0,.7-.2,1.756,1.756,0,0,0,.5-.4l.5.7a4.234,4.234,0,0,1-.7.5,1.645,1.645,0,0,1-1,.2,1.268,1.268,0,0,1-.6-.1c-.2-.1-.3-.2-.5-.2-.2-.1-.3-.2-.5-.3a.749.749,0,0,0-.5-.1,1.483,1.483,0,0,0-.7.1,1.756,1.756,0,0,0-.5.4l-.4-.6A4.349,4.349,0,0,1,46.9,77.4Zm.1,10a2.348,2.348,0,0,0,1.6.5,2.648,2.648,0,0,0,1.7-.5,1.308,1.308,0,0,0,0-2.2,2.648,2.648,0,0,0-1.7-.5,2.348,2.348,0,0,0-1.6.5,1.656,1.656,0,0,0-.5,1.2A1.217,1.217,0,0,0,47,87.4Zm16.1-.9a4.2,4.2,0,0,1-.9,1.4,7.1,7.1,0,0,1-1.4,1,4.711,4.711,0,0,1-1.7.4,3.287,3.287,0,0,1-1.7-.4,4.508,4.508,0,0,1-1.4-1,4.2,4.2,0,0,1-.9-1.4,4.844,4.844,0,0,1-.3-1.8,5.663,5.663,0,0,1,.3-1.8,4.2,4.2,0,0,1,.9-1.4,7.1,7.1,0,0,1,1.4-1,4.711,4.711,0,0,1,1.7-.4,3.287,3.287,0,0,1,1.7.4,4.508,4.508,0,0,1,1.4,1,4.2,4.2,0,0,1,.9,1.4,4.844,4.844,0,0,1,.3,1.8A3.426,3.426,0,0,1,63.1,86.5Zm-6.8-.6a3.49,3.49,0,0,0,.6.9,2.361,2.361,0,0,0,.9.6,2.153,2.153,0,0,0,1.1.2,3.6,3.6,0,0,0,1.1-.2,3.49,3.49,0,0,0,.9-.6,2.738,2.738,0,0,0,.8-2.1,5.019,5.019,0,0,0-.2-1.2,3.49,3.49,0,0,0-.6-.9A2.361,2.361,0,0,0,60,82a2.153,2.153,0,0,0-1.1-.2,3.6,3.6,0,0,0-1.1.2,3.49,3.49,0,0,0-.9.6,2.738,2.738,0,0,0-.8,2.1A3.73,3.73,0,0,0,56.3,85.9ZM34.9,94.3v2.1h2.7v.7H34.9v2.8h-.7V93.6h4.1v.7H34.9Zm4.4-.7H40v6.3h-.7Zm2.1,0h.7v5.6h3.3v.7h-4Zm10,3.5V94.8h0a12.072,12.072,0,0,1-.8,1.5l-1.1,2h-.4l-1.1-2a12.072,12.072,0,0,1-.8-1.5h0v5.1h-.7V93.6h.8l2.1,3.8h0l2.1-3.8h.7v6.3h-.7V97.1Zm2.1-3.5h4.2v.7H54.2v2H57V97H54.3v2.3h3.5v.7H53.6V93.6ZM59.2,98c.1.9.8,1.3,1.8,1.3.9,0,1.5-.4,1.5-1.1,0-1-1-1.1-1.8-1.3s-1.9-.5-1.9-1.8c0-1.1.8-1.7,2.1-1.7A2.111,2.111,0,0,1,63.2,95l-.7.2a1.469,1.469,0,0,0-1.6-1.1c-.9,0-1.4.4-1.4,1,0,.8.8,1,1.7,1.2s2.1.5,2.1,1.9c0,1.2-.8,1.8-2.2,1.8a2.1,2.1,0,0,1-2.4-1.8ZM31,54.8s-4.1,9.8-1.6,13.7l3.9,3.9s1-8.7,2.1-10.9A23.506,23.506,0,0,1,31,54.8Zm0,2.1a15.742,15.742,0,0,0,1.6,3.3l-.7,1.4a7.57,7.57,0,0,1-1.6-2.4ZM29.8,67.8a7.5,7.5,0,0,1-.3-3.4A4.9,4.9,0,0,0,31,66.8l-.7,1.8Zm2.9,2.6c-.6-.5-1.6-1.5-1.6-1.5l.7-1.7a5.008,5.008,0,0,0,1.4,1Zm-.2-8.3.7-1.4s.8.9,1.2,1.3l-.5,1.4A6.75,6.75,0,0,1,32.5,62.1Zm8-56.2a27.694,27.694,0,0,1,6.2,2.5A31.017,31.017,0,0,1,58,18.1a29.4,29.4,0,0,1,4.6,9.4,41.327,41.327,0,0,1,1.1,5.3,29.718,29.718,0,0,1,0,7.3A31.7,31.7,0,0,1,59,53.4,30.565,30.565,0,0,1,46.8,64.3a35.344,35.344,0,0,1-10,3.2A28.978,28.978,0,0,1,38,63.3a12.017,12.017,0,0,0,3.7-.9c3.7-1.3,4.5-1.8,7.9-4.5a26.976,26.976,0,0,0,7.9-10.1,25.683,25.683,0,0,0,2-6.5,27.371,27.371,0,0,0,.4-5A27.654,27.654,0,0,0,55,20.8a26.448,26.448,0,0,0-8.4-7.9c-.4-.2-3.1-2.1-3.9-2.2m-17-1.4c-1.4.3-.6.1-1.4.3a17.249,17.249,0,0,0-5.6,2.2,28.068,28.068,0,0,0-7.2,5.5,26.864,26.864,0,0,0-6,10.1,28.461,28.461,0,0,0-1.2,5.8,29.462,29.462,0,0,0,.5,8.9,26.74,26.74,0,0,0,7.9,13.8,25.422,25.422,0,0,0,8.8,5.6c.2.1.2.2.3.4a13.484,13.484,0,0,0,1.8,3.6c0,.1.5.6.5.7-.7-.2-2-.6-2.6-.8a32.936,32.936,0,0,1-10.2-5.8,31.592,31.592,0,0,1-9.2-13A30.962,30.962,0,0,1,.4,39.3a31.371,31.371,0,0,1,.1-7.5A29.645,29.645,0,0,1,4.4,20.3a33.388,33.388,0,0,1,7.5-8.8,29.271,29.271,0,0,1,9-5.3,36.306,36.306,0,0,1,6.7-1.7h.3a20.814,20.814,0,0,0-1.3,3A4.85,4.85,0,0,0,25.7,9.3Z" transform="translate(-0.219)" fill="#fff"/>
</svg>
