<?xml version="1.0" encoding="UTF-8"?>
<svg width="134px" height="37px" viewBox="0 0 134 37" version="1.1" xmlns="http://www.w3.org/2000/svg" xmlns:xlink="http://www.w3.org/1999/xlink">
    <title>Group 18</title>
    <defs>
        <polygon id="path-1" points="0.000219868642 0.302750143 48.5366624 0.302750143 48.5366624 36.8823529 0.000219868642 36.8823529"></polygon>
        <polygon id="path-3" points="0.135198275 0.296782673 26.7134316 0.296782673 26.7134316 10.0256538 0.135198275 10.0256538"></polygon>
    </defs>
    <g id="Desktop" stroke="none" stroke-width="1" fill="none" fill-rule="evenodd">
        <g id="Desktop-HD" transform="translate(-820.000000, -6323.000000)">
            <g id="Group-21" transform="translate(0.000000, 5473.000000)">
                <g id="Group-33" transform="translate(0.000000, 700.000000)">
                    <g id="Group-11" transform="translate(452.000000, 80.000000)">
                        <g id="Group-24" transform="translate(0.000000, 52.000000)">
                            <g id="Group-18" transform="translate(368.000000, 18.000000)">
                                <g id="Group-13" transform="translate(0.126050, 0.000000)">
                                    <path d="M70.2038185,25.4169132 C70.2038185,25.9695873 69.87966,26.9647619 68.2597499,26.9647619 L62.8597557,26.9647619 C61.7258627,26.9647619 60.6457756,25.748337 60.6457756,24.2831185 C60.6457756,22.8183515 61.3478984,21.6023782 63.0758613,21.6023782 L70.2038185,21.6023782 L70.2038185,25.4169132 Z M66.3161225,6.45441176 C60.0265669,6.45441176 57.6167687,8.04289829 56.0899163,12.6498704 C56.0356694,12.8142278 56.1287271,12.9939371 56.29235,13.0404449 L60.8248346,14.3318239 C60.9818419,14.3765255 61.1432596,14.282607 61.1891269,14.122765 C61.3805347,13.4540474 62.0085641,11.8718823 63.6699312,11.8718823 L68.5296615,11.8718823 C69.4474488,11.8718823 70.2712963,12.535633 70.2712963,13.3650957 C70.2712963,14.1941069 70.2629167,16.4052548 70.2629167,16.4052548 L62.64365,16.4052548 C58.810201,16.4052548 55.1381696,19.5564906 55.1381696,24.3666518 C55.1381696,28.844486 57.5682552,32.2720588 65.8301053,32.2720588 C73.227533,32.2720588 75.9279712,29.3416218 75.9279712,25.3062881 L75.9279712,14.1941069 C75.9279712,11.7617087 74.7393903,6.45441176 66.3161225,6.45441176 L66.3161225,6.45441176 Z" id="Fill-1" fill="#FFFFFF"></path>
                                    <path d="M117.422952,13.4877892 C117.422952,12.9608616 117.731681,12.0117597 119.276207,12.0117597 L124.690871,12.0117597 C126.160861,12.0117597 126.801694,12.9590555 126.801694,14.3556169 C126.801694,15.7526297 126.534864,16.9116899 124.485345,16.9116899 L117.422952,16.9116899 L117.422952,13.4877892 Z M121.69576,32.2720588 C127.985008,32.2720588 130.394857,30.6831486 131.922183,26.076257 C131.976872,25.9119025 131.883371,25.7321963 131.720186,25.6861409 L127.187164,24.3943329 C127.029712,24.3500837 126.868732,24.443549 126.822423,24.6038397 C126.631452,25.2725456 126.002968,26.8542315 124.342007,26.8542315 L119.482174,26.8542315 C118.564367,26.8542315 117.740502,26.1909439 117.740502,25.3614957 C117.740502,24.5324991 117.748882,22.3204867 117.748882,22.3204867 L125.36831,22.3204867 C129.202281,22.3204867 132.87395,19.1697576 132.87395,14.3601321 C132.87395,9.88237617 130.443812,6.45441176 122.182228,6.45441176 C114.784202,6.45441176 112.084148,9.38479756 112.084148,13.4205122 L112.084148,24.5324991 C112.084148,26.9648547 113.272313,32.2720588 121.69576,32.2720588 L121.69576,32.2720588 Z" id="Fill-3" fill="#FFFFFF"></path>
                                    <path d="M94.0060596,20.758918 C97.9843776,20.758918 101.316667,15.0425339 101.965791,13.8554585 C102.037867,13.7236115 102.174059,13.6414328 102.32219,13.6414328 C102.547261,13.6414328 102.729883,13.8279151 102.729883,14.0577445 L102.729883,31.8169154 C102.729883,32.0684183 102.929307,32.2720588 103.175161,32.2720588 L108.02281,32.2720588 C108.269106,32.2720588 108.46853,32.0684183 108.46853,31.8169154 L108.46853,11.1106008 L108.46853,11.0428711 C108.46853,8.50887841 106.456599,6.45441176 103.975069,6.45441176 C101.538642,6.45441176 100.23951,7.50467318 98.7776535,9.38484881 C97.3157973,11.2641214 94.8647784,15.4105318 94.0060596,15.4105318 C93.1473407,15.4105318 90.6963218,11.2641214 89.2344657,9.38484881 C87.7726096,7.50467318 86.4734767,6.45441176 84.0370498,6.45441176 C81.5555203,6.45441176 79.5435889,8.50887841 79.5435889,11.0428711 L79.5435889,11.1106008 L79.5435889,31.8169154 C79.5435889,32.0684183 79.7430133,32.2720588 79.9893091,32.2720588 L84.8369584,32.2720588 C85.082812,32.2720588 85.2822364,32.0684183 85.2822364,31.8169154 L85.2822364,14.0577445 C85.2822364,13.8279151 85.4648579,13.6414328 85.6899289,13.6414328 C85.8380601,13.6414328 85.9742524,13.7236115 86.0463282,13.8554585 C86.6954524,15.0425339 90.0277415,20.758918 94.0060596,20.758918" id="Fill-5" fill="#FFFFFF"></path>
                                    <g id="Group-9">
                                        <mask id="mask-2" fill="white">
                                            <use xlink:href="#path-1"></use>
                                        </mask>
                                        <g id="Clip-8"></g>
                                        <path d="M24.2684411,36.8823979 L24.2684411,36.8823979 C25.4869532,36.8823979 26.6557749,36.3867351 27.5176599,35.5056067 L47.2825317,15.2891296 C48.0859317,14.4678226 48.5366624,13.3537057 48.5366624,12.1923613 L48.5366624,11.9481282 C48.5366624,10.7741899 48.0758177,9.64882834 47.2570269,8.82572217 L39.6662819,1.19197468 C39.0994606,0.622097346 38.3365164,0.302750143 37.5414714,0.302750143 L24.2684411,0.302750143 L10.9949712,0.302750143 C10.2003659,0.302750143 9.43742174,0.622097346 8.87060038,1.19197468 L1.27985537,8.82572217 C0.461064543,9.64882834 0.000219868642,10.7741899 0.000219868642,11.9481282 L0.000219868642,12.1923613 C0.000219868642,13.3537057 0.450950586,14.4678226 1.25391087,15.2891296 L21.0187826,35.5056067 C21.8806677,36.3867351 23.0499291,36.8823979 24.2684411,36.8823979" id="Fill-7" fill="#FFFFFF" mask="url(#mask-2)"></path>
                                    </g>
                                    <g id="Group-12" transform="translate(10.846853, 0.000000)">
                                        <mask id="mask-4" fill="white">
                                            <use xlink:href="#path-3"></use>
                                        </mask>
                                        <g id="Clip-11"></g>
                                        <path d="M0.142515597,0.311202871 L0.135198275,0.370735799 C0.980564122,0.370735799 1.79579982,0.691772628 2.42336775,1.27122646 L11.1641235,9.34300958 C11.6401798,9.78267129 12.2578478,10.0256538 12.8987591,10.0256538 L13.424315,10.0256538 L13.9503012,10.0256538 C14.5907821,10.0256538 15.2084501,9.78267129 15.6845064,9.34300958 L24.4252622,1.27122646 C25.0532605,0.691772628 25.8684962,0.370735799 26.7134316,0.370735799 C26.7134316,0.370735799 26.7099882,0.347363613 26.704823,0.311202871 C26.6092674,0.301942193 26.5132814,0.296650377 26.4168649,0.296650377 L13.424315,0.296650377 L0.432195441,0.296650377 C0.334918109,0.296650377 0.238501637,0.301942193 0.142515597,0.311202871" id="Fill-10" fill-opacity="0.403963" fill="#0079C0" mask="url(#mask-4)"></path>
                                    </g>
                                </g>
                            </g>
                        </g>
                    </g>
                </g>
            </g>
        </g>
    </g>
</svg>