<svg xmlns="http://www.w3.org/2000/svg" xmlns:xlink="http://www.w3.org/1999/xlink" width="120" height="59.873" viewBox="0 0 120 59.873">
  <defs>
    <clipPath id="clip-path">
      <rect id="Ret창ngulo_2" data-name="Ret창ngulo 2" width="120" height="59.873" fill="#fff"/>
    </clipPath>
    <clipPath id="clip-path-2">
      <path id="Caminho_13" data-name="Caminho 13" d="M6.393,17.477a4.261,4.261,0,0,1-1.34-3.19,3.224,3.224,0,0,1,1.085-2.448,8.282,8.282,0,0,1,5.59-1.685q.592,0,1.216.048c4.634.36,10.575,2.8,16.986,6.944a30.907,30.907,0,0,1-13.063,3.128q-.311.007-.617.007c-4.4,0-8.052-1.036-9.857-2.8m30.358-.151C49.193,9.381,58.375,3.709,69.6,3.709c3.712,0,7.587,1.463,9.641,3.642a5.6,5.6,0,0,1,1.646,4.285c-.206,3.526-2.167,6.888-5.522,9.467A24.739,24.739,0,0,1,61,25.712c-.2.005-.395.008-.595.008-6.976,0-15.85-3.157-23.658-8.395M69.6,0C56.976,0,46.7,6.564,33.7,14.874l-.245.156C25.884,9.885,18.925,6.946,13.232,6.5,9.191,6.19,5.779,7.118,3.62,9.117a6.888,6.888,0,0,0-2.275,5.17A8,8,0,0,0,3.8,20.127c2.664,2.608,7.332,3.976,13.147,3.855a33.891,33.891,0,0,0,16.408-4.495c8.7,6.177,18.973,9.943,27.07,9.943.228,0,.454,0,.679-.009a28.064,28.064,0,0,0,16.521-5.377c4.22-3.245,6.693-7.575,6.964-12.191a9.3,9.3,0,0,0-2.65-7.046C79.184,1.886,74.34,0,69.6,0Z" transform="translate(-1.345 0)" fill="#fff"/>
    </clipPath>
  </defs>
  <g id="Grupo_9" data-name="Grupo 9" transform="translate(-633 -419)">
    <g id="Grupo_8" data-name="Grupo 8" transform="translate(633 419)">
      <g id="Grupo_5" data-name="Grupo 5" transform="translate(0 0)">
        <g id="Grupo_4" data-name="Grupo 4" clip-path="url(#clip-path)">
          <path id="Caminho_12" data-name="Caminho 12" d="M7.25,143.7a12.192,12.192,0,0,1-3.5-.464,10.41,10.41,0,0,1-2.577-1.117A2.182,2.182,0,0,1,0,140.2a1.825,1.825,0,0,1,.584-1.357,1.95,1.95,0,0,1,1.409-.567,2.945,2.945,0,0,1,1.409.447,10.8,10.8,0,0,0,1.89.859,6.711,6.711,0,0,0,2.2.343,3.507,3.507,0,0,0,1.941-.429,1.3,1.3,0,0,0,.636-1.117,1.052,1.052,0,0,0-.464-.91,4.794,4.794,0,0,0-1.942-.5l-1.821-.206a6.835,6.835,0,0,1-4.072-1.615,4.592,4.592,0,0,1-1.357-3.47A4.767,4.767,0,0,1,2.2,127.758a7.908,7.908,0,0,1,5.085-1.443,12.919,12.919,0,0,1,2.7.275,9.4,9.4,0,0,1,2.354.825,2.147,2.147,0,0,1,1.409,1.89,1.887,1.887,0,0,1-.515,1.34,1.8,1.8,0,0,1-1.374.55,2.18,2.18,0,0,1-.584-.086,4.613,4.613,0,0,1-.79-.327,7.866,7.866,0,0,0-3.367-.721,2.767,2.767,0,0,0-1.6.361,1.115,1.115,0,0,0-.5.945,1.062,1.062,0,0,0,.447.91,4.2,4.2,0,0,0,1.856.464l1.821.206a6.986,6.986,0,0,1,4.244,1.649,4.636,4.636,0,0,1,1.288,3.4,5.053,5.053,0,0,1-1.941,4.141A8.531,8.531,0,0,1,7.25,143.7m13.764-.172q-2.852,0-3.986-1.374a6,6,0,0,1-1.134-3.917V122.294a2.532,2.532,0,0,1,.67-1.873,2.559,2.559,0,0,1,3.453,0,2.5,2.5,0,0,1,.687,1.873v15.531a1.778,1.778,0,0,0,.258,1.065,1.277,1.277,0,0,0,.842.447,2.277,2.277,0,0,1,1.477.739,2.129,2.129,0,0,1,.447,1.357,2.03,2.03,0,0,1-.6,1.495,2.61,2.61,0,0,1-1.907.6Zm6.259-18.52a2.7,2.7,0,1,1,1.924-.79,2.617,2.617,0,0,1-1.924.79m0,18.52a2.347,2.347,0,0,1-1.735-.67,2.531,2.531,0,0,1-.67-1.873V129.029a2.532,2.532,0,0,1,.67-1.873,2.559,2.559,0,0,1,3.453,0,2.5,2.5,0,0,1,.687,1.873v11.957a2.5,2.5,0,0,1-.687,1.873,2.362,2.362,0,0,1-1.718.67m16.445,0a2.363,2.363,0,0,1-1.718-.67,2.494,2.494,0,0,1-.687-1.873v-7.559a3.446,3.446,0,0,0-.653-2.2A2.346,2.346,0,0,0,38.7,130.4a2.3,2.3,0,0,0-1.941.825,3.508,3.508,0,0,0-.636,2.2v7.559a2.5,2.5,0,0,1-.687,1.873,2.56,2.56,0,0,1-3.453,0,2.532,2.532,0,0,1-.67-1.873V129.029a2.533,2.533,0,0,1,.67-1.873,2.348,2.348,0,0,1,1.735-.67,2.393,2.393,0,0,1,1.478.464,2.228,2.228,0,0,1,.825,1.289h.034a5.145,5.145,0,0,1,1.7-1.357,5.768,5.768,0,0,1,2.7-.567,6.059,6.059,0,0,1,2.44.464,4.975,4.975,0,0,1,1.787,1.288,5.435,5.435,0,0,1,1.082,1.958,8.127,8.127,0,0,1,.361,2.474v8.487a2.532,2.532,0,0,1-.67,1.873,2.348,2.348,0,0,1-1.735.67m10.429,6.357a9.39,9.39,0,0,1-1.7-.155,10.022,10.022,0,0,1-1.563-.412,7.079,7.079,0,0,1-1.289-.6,3.9,3.9,0,0,1-.876-.687,2.47,2.47,0,0,1-.5-.79,2.252,2.252,0,0,1-.155-.79,2.028,2.028,0,0,1,.567-1.409,1.891,1.891,0,0,1,1.46-.618,2.556,2.556,0,0,1,.928.172,8.688,8.688,0,0,1,.962.447,6.848,6.848,0,0,0,1.2.5,4.115,4.115,0,0,0,1.2.189q3.229,0,3.23-3.574v-1.34h-.034a4.613,4.613,0,0,1-1.7,1.374,5.872,5.872,0,0,1-2.525.481,5.737,5.737,0,0,1-3.5-1.065,5.976,5.976,0,0,1-2.1-3.058,15.223,15.223,0,0,1,0-8.109,5.98,5.98,0,0,1,2.1-3.058,5.739,5.739,0,0,1,3.5-1.065,5.644,5.644,0,0,1,2.7.567,4.861,4.861,0,0,1,1.632,1.357h.035a2.481,2.481,0,0,1,.739-1.22,2.193,2.193,0,0,1,1.564-.533,2.348,2.348,0,0,1,1.735.67,2.532,2.532,0,0,1,.67,1.873V141.5q0,8.383-8.281,8.384m.721-11.236a2.4,2.4,0,0,0,2.44-1.821,7.361,7.361,0,0,0,.309-2.3,7.493,7.493,0,0,0-.309-2.336,2.568,2.568,0,0,0-4.914,0,7.493,7.493,0,0,0-.309,2.336,7.361,7.361,0,0,0,.309,2.3,2.419,2.419,0,0,0,2.474,1.821M70.427,143.7a12.191,12.191,0,0,1-3.5-.464,10.406,10.406,0,0,1-2.577-1.117,2.182,2.182,0,0,1-1.168-1.924,1.826,1.826,0,0,1,.584-1.357,1.95,1.95,0,0,1,1.409-.567,2.945,2.945,0,0,1,1.409.447,10.8,10.8,0,0,0,1.89.859,6.708,6.708,0,0,0,2.2.343,3.507,3.507,0,0,0,1.941-.429,1.3,1.3,0,0,0,.636-1.117,1.051,1.051,0,0,0-.464-.91,4.792,4.792,0,0,0-1.941-.5l-1.821-.206a6.834,6.834,0,0,1-4.072-1.615,4.591,4.591,0,0,1-1.357-3.47,4.768,4.768,0,0,1,1.787-3.917,7.909,7.909,0,0,1,5.085-1.443,12.921,12.921,0,0,1,2.7.275,9.4,9.4,0,0,1,2.354.825,2.147,2.147,0,0,1,1.409,1.89,1.886,1.886,0,0,1-.515,1.34,1.8,1.8,0,0,1-1.374.55,2.179,2.179,0,0,1-.584-.086,4.613,4.613,0,0,1-.79-.327,7.867,7.867,0,0,0-3.367-.721,2.766,2.766,0,0,0-1.6.361,1.114,1.114,0,0,0-.5.945,1.062,1.062,0,0,0,.447.91,4.2,4.2,0,0,0,1.856.464l1.821.206A6.984,6.984,0,0,1,76.56,134.6a4.635,4.635,0,0,1,1.289,3.4,5.053,5.053,0,0,1-1.941,4.141,8.53,8.53,0,0,1-5.48,1.563m20.939-.172a2.362,2.362,0,0,1-1.718-.67,2.493,2.493,0,0,1-.687-1.873v-7.559a3.446,3.446,0,0,0-.653-2.2,2.346,2.346,0,0,0-1.959-.825,2.3,2.3,0,0,0-1.941.825,3.508,3.508,0,0,0-.636,2.2v7.559a2.5,2.5,0,0,1-.687,1.873,2.56,2.56,0,0,1-3.453,0,2.532,2.532,0,0,1-.67-1.873V122.294a2.533,2.533,0,0,1,.67-1.873,2.56,2.56,0,0,1,3.453,0,2.5,2.5,0,0,1,.687,1.873V128.1h.034a5.4,5.4,0,0,1,1.632-1.237,5.709,5.709,0,0,1,2.663-.55,6.06,6.06,0,0,1,2.44.464,4.977,4.977,0,0,1,1.787,1.288,5.435,5.435,0,0,1,1.082,1.958,8.127,8.127,0,0,1,.361,2.474v8.487a2.532,2.532,0,0,1-.67,1.873,2.348,2.348,0,0,1-1.735.67m11.165.172a8.119,8.119,0,0,1-4.6-1.237,6.557,6.557,0,0,1-2.611-3.539,12.319,12.319,0,0,1-.412-1.8,16.31,16.31,0,0,1,0-4.226,12.356,12.356,0,0,1,.412-1.8,6.561,6.561,0,0,1,2.611-3.539,9.189,9.189,0,0,1,9.209,0,6.565,6.565,0,0,1,2.611,3.539,12.485,12.485,0,0,1,.412,1.8,16.31,16.31,0,0,1,0,4.226,12.447,12.447,0,0,1-.412,1.8,6.562,6.562,0,0,1-2.611,3.539,8.12,8.12,0,0,1-4.6,1.237m0-4.054a2.7,2.7,0,0,0,1.649-.481,2.593,2.593,0,0,0,.928-1.374,6.253,6.253,0,0,0,.241-1.237q.069-.687.069-1.546t-.069-1.546a6.275,6.275,0,0,0-.241-1.237,2.6,2.6,0,0,0-.928-1.374,3.066,3.066,0,0,0-3.3,0,2.59,2.59,0,0,0-.928,1.374,6.2,6.2,0,0,0-.241,1.237,17.426,17.426,0,0,0,0,3.092,6.182,6.182,0,0,0,.241,1.237,2.587,2.587,0,0,0,.928,1.374,2.7,2.7,0,0,0,1.649.481m14.583,3.883q-2.956,0-4.14-1.357a6.282,6.282,0,0,1-1.186-4.209v-7.491q0-.206-.241-.206h-.137a1.929,1.929,0,0,1-1.426-.5,1.915,1.915,0,0,1,0-2.577,1.931,1.931,0,0,1,1.426-.5h.137q.24,0,.241-.206v-2.474a2.531,2.531,0,0,1,.67-1.872,2.348,2.348,0,0,1,1.735-.67,2.3,2.3,0,0,1,1.7.67,2.532,2.532,0,0,1,.67,1.872v2.474a.182.182,0,0,0,.206.206h1.306a1.931,1.931,0,0,1,1.426.5,1.915,1.915,0,0,1,0,2.577,1.929,1.929,0,0,1-1.426.5H116.77a.182.182,0,0,0-.206.206v7.353a1.682,1.682,0,0,0,.292,1.1,1.416,1.416,0,0,0,.979.412,2.407,2.407,0,0,1,1.632.739,2.121,2.121,0,0,1,.5,1.392,1.92,1.92,0,0,1-.636,1.478,2.91,2.91,0,0,1-2.01.584Z" transform="translate(0 -90.013)" fill="#fff"/>
        </g>
      </g>
      <g id="Grupo_7" data-name="Grupo 7" transform="translate(0.333 0)">
        <g id="Grupo_6" data-name="Grupo 6" clip-path="url(#clip-path-2)">
          <rect id="Ret창ngulo_3" data-name="Ret창ngulo 3" width="83.395" height="29.429" transform="translate(0 0)" fill="#fff"/>
        </g>
      </g>
    </g>
  </g>
</svg>
