<?xml version="1.0" encoding="utf-8"?>
<!-- Generator: Adobe Illustrator 16.0.0, SVG Export Plug-In . SVG Version: 6.00 Build 0)  -->
<!DOCTYPE svg PUBLIC "-//W3C//DTD SVG 1.1//EN" "http://www.w3.org/Graphics/SVG/1.1/DTD/svg11.dtd">
<svg version="1.1" id="Layer_1" xmlns="http://www.w3.org/2000/svg" xmlns:xlink="http://www.w3.org/1999/xlink" x="0px" y="0px"
	 width="78.4px" height="41.527px" viewBox="0 0 78.4 41.527" enable-background="new 0 0 78.4 41.527" xml:space="preserve">
<g>
	<g>
		<path fill="#DD9B31" d="M41.525,16.785c-2.011,3.106-3.906,3.658-5.397,1.291c-1.491-2.368-0.585-7.61,0.964-9.838
			c1.526-2.191,3.361-2.985,4.526-1.894c0.434,0.401,1.332,2.496,1.443,3.61C43.277,12.121,42.82,14.785,41.525,16.785
			 M11.673,11.428c0.444-1.638,1.729-3.543,3.095-4.959c0.705-0.73,2.405-1.949,2.873-2.126c1.266-0.48,1.814,0.46,1.386,2.279
			c-0.436,1.849-2.962,5.595-5.144,6.869C11.701,14.765,10.983,13.97,11.673,11.428 M54.096,1.775c0,0-6.554-2.978-16.772,0.874
			c-6.746,2.545-10.3,7.943-11.172,12.412c-11.336,8.861-14.534,2.467-14.534,2.467s8.727-2.204,13.425-5.808
			c3.325-2.55,6.639-6.755,2.355-9.754c-4.283-2.999-11.581-2.04-14.269-0.572c-1.02,0.557-3.68,1.848-6.266,4.275
			C2.638,9.635-1.65,15.663,0.638,21.212c1.183,2.868,3.682,4.17,6.661,4.573c7.201,0.968,14.892-3.434,18.315-6.602
			c0.157-0.198,0.295-0.39,0.44-0.581c0.146,0.821,0.417,1.538,0.813,2.104c2.667,3.798,7.899,4.54,11.984,2.136
			c-2.471,5.264-4.037,10.43-8.816,10.338c-1.893,0-1.918-2.405-0.273-3.862c1.19-1.055,3.56-2.392,5.625-1.204
			c0.481-1.09,0.765-1.27,1.451-2.755c-2.866-0.397-6.668-0.167-8.671,0.593c-4.959,1.887-7.269,6.514-7.317,9.801
			c-0.043,3.078,3.025,4.97,4.591,5.344c7.562,1.807,15.09-2.01,18.778-12.812C47.059,19.96,54.096,1.775,54.096,1.775"/>
		<path fill="#DD9B31" d="M65.831,16.785c-2.011,3.106-3.906,3.658-5.397,1.291c-1.49-2.368-0.586-7.61,0.964-9.837
			c1.525-2.192,3.361-2.986,4.527-1.895c0.432,0.401,1.331,2.497,1.442,3.611C67.584,12.121,67.127,14.785,65.831,16.785
			 M78.4,1.775c0,0-6.553-2.978-16.771,0.874C51.41,6.503,48.51,16.914,51.173,20.707c2.667,3.798,7.899,4.541,11.983,2.137
			c-2.47,5.263-4.036,10.429-8.814,10.339c-1.894-0.002-1.919-2.407-0.274-3.864c1.19-1.055,3.56-2.392,5.625-1.204
			c0.481-1.09,0.765-1.27,1.449-2.755c-2.865-0.397-6.666-0.167-8.67,0.593c-4.959,1.887-7.269,6.514-7.317,9.801
			c-0.043,3.078,3.026,4.971,4.592,5.344c7.562,1.807,15.089-2.01,18.778-12.812C71.363,19.96,78.4,1.775,78.4,1.775"/>
	</g>
</g>
</svg>
