<?xml version="1.0" standalone="no"?>
<!DOCTYPE svg PUBLIC "-//W3C//DTD SVG 1.1//EN" "http://www.w3.org/Graphics/SVG/1.1/DTD/svg11.dtd" >
<svg>
<metadata>
Created by FontForge 20090622 at Wed Jan 13 22:05:43 2016
 By deploy user
Copyright (c) 2005-2009 Parachute&#194;&#168;, www.parachute.gr.  All rights reserved.
</metadata>
<defs>
<font id="PFEncoreSansPro-Medium" horiz-adv-x="1818" >
  <font-face 
    font-family="PF Encore Sans Pro Medium"
    font-weight="700"
    font-stretch="normal"
    units-per-em="1000"
    panose-1="2 0 5 3 0 0 0 2 0 4"
    ascent="750"
    descent="-250"
    x-height="485"
    cap-height="677"
    bbox="-395 -289 1760 947"
    underline-thickness="60"
    underline-position="-55"
    unicode-range="U+0020-U+FB05"
  />
<missing-glyph horiz-adv-x="447" 
d="M1 0v700h445v-700h-445zM96 61h255l-127 232zM224 407l127 232h-255zM62 577v-455l126 228zM260 350l125 -228v455z" />
    <glyph glyph-name="fj" unicode="fj" horiz-adv-x="566" 
d="M368 -204h-64v94h21q30 0 40.5 14t10.5 45v454h-164v-403h-117v403h-78v65l77 17v49q0 100 55.5 144.5t149.5 44.5q64 0 136 -13v-89q-87 9 -109 9q-60 0 -87.5 -23.5t-27.5 -78.5v-43h283v-549q0 -66 -28.5 -103t-97.5 -37z" />
    <glyph glyph-name="ffj" unicode="ffj" horiz-adv-x="854" 
d="M380 403h-168v-403h-117v403h-78v66l78 15v59q0 88 42.5 126.5t127.5 38.5q40 0 85 -10q0 -14 -0.5 -42.5t-0.5 -42.5q-37 4 -64 4q-42 0 -57.5 -16t-15.5 -63v-53h168v50q0 99 54.5 144.5t146.5 45.5q62 0 140 -14v-89q-65 9 -109 9q-61 0 -88 -23t-27 -79v-44h282v-549
q0 -67 -28 -103.5t-97 -36.5h-64v94h20q31 0 41.5 14t10.5 45v454h-165v-403h-117v403z" />
    <glyph glyph-name="fb" unicode="fb" horiz-adv-x="905" 
d="M646 -7q-47 0 -88 18t-61 54h-4q0 -42 -15 -65h-93v623q-25 4 -59 4q-62 0 -88.5 -20t-26.5 -75v-47h132v-82h-131v-403h-117v403h-78v65l77 17v51q0 186 208 186q39 0 116 -11l84 -1v-198q0 -65 -11 -100h6q56 82 158 82q200 0 200 -252q0 -110 -50 -179.5t-159 -69.5z
M621 403q-62 0 -91 -43.5t-29 -101.5v-48q0 -57 31 -93.5t85 -36.5q119 0 119 162q0 161 -115 161z" />
    <glyph glyph-name="ffb" unicode="ffb" horiz-adv-x="1186" 
d="M902 403q-62 0 -91 -43.5t-29 -101.5v-48q0 -57 31 -93.5t86 -36.5q118 0 118 162q0 161 -115 161zM783 710v-198q0 -65 -11 -100h6q56 82 159 82t151.5 -66.5t48.5 -185.5q0 -71 -19 -124.5t-67.5 -89t-123.5 -35.5q-47 0 -88 18t-60 54h-5q0 -42 -15 -65h-93v623
q-25 4 -58 4q-59 0 -85 -20t-26 -75v-47h127v-82h-126v-403h-117v403h-169v-403h-117v403h-78v66l78 15v56q0 88 42.5 126.5t127.5 38.5q40 0 85 -10q0 -14 -0.5 -43t-0.5 -43q-47 5 -64 5q-42 0 -57.5 -16t-15.5 -63v-50h168v51q0 186 208 186q39 0 116 -11z" />
    <glyph glyph-name="fh" unicode="fh" horiz-adv-x="892" 
d="M500 516q0 -70 -12 -109h5q24 43 68.5 64.5t93.5 21.5q55 0 92.5 -16t55.5 -46.5t24.5 -63t6.5 -76.5v-291h-119v284q0 59 -21.5 90.5t-75.5 31.5q-35 0 -59.5 -16t-36 -42t-16 -50t-4.5 -49v-249h-117v623q-27 4 -59 4q-62 0 -88.5 -20t-26.5 -75v-47h129v-82h-129v-403
h-117v403h-77v65l77 17v51q0 186 207 186q40 0 117 -11h82v-195z" />
    <glyph glyph-name="ffh" unicode="ffh" horiz-adv-x="1173" 
d="M588 722q48 0 112 -11h82v-195q0 -70 -12 -109h4q25 43 69.5 64.5t92.5 21.5q56 0 93 -16t55 -46.5t24.5 -63t6.5 -76.5v-291h-118v284q0 60 -21.5 91t-76.5 31q-58 0 -86.5 -43t-28.5 -97v-266h-118v623q-23 4 -56 4q-59 0 -86 -20.5t-27 -74.5v-47h125v-81h-124v-404
h-117v404h-169v-404h-117v404h-77v66l77 14v56q0 88 42.5 126.5t128.5 38.5q44 0 84 -9l-1 -87q-45 5 -64 5q-42 0 -57.5 -16t-15.5 -63v-50h168v51q0 186 208 186z" />
    <glyph glyph-name="fk" unicode="fk" horiz-adv-x="841" 
d="M502 312h63l143 173h128l-183 -218l193 -267h-138l-151 219h-55v-219h-116q0 104 -0.5 311.5t-0.5 311.5q-25 4 -59 4q-62 0 -88.5 -20t-26.5 -75v-47h129v-82h-128v-403h-117v403h-78v65l77 17v51q0 186 208 186q43 0 116 -11h84v-399z" />
    <glyph glyph-name="ffk" unicode="ffk" horiz-adv-x="1122" 
d="M381 403h-169v-403h-117v403h-78v66l78 15v56q0 88 42.5 126.5t127.5 38.5q40 0 85 -10q0 -14 -0.5 -42.5t-0.5 -42.5q-37 4 -64 4q-42 0 -57.5 -16t-15.5 -63v-50h168v51q0 186 207 186q35 0 112 -11h84v-400h63l143 174h129l-184 -218l193 -267h-138l-151 219h-55v-219
h-116q0 103 -0.5 311t-0.5 312q-36 4 -57 4q-56 0 -84 -21t-28 -74v-47h124v-82h-123v-403h-117v403z" />
    <glyph glyph-name="r_y" unicode="ry" horiz-adv-x="786" 
d="M531 86h7l52 175l69 224h115l-166 -491q-18 -53 -30.5 -81.5t-35.5 -60.5t-56 -46t-79 -14h-66v91h51q43 0 61 18.5t38 70.5l10 28q-29 0 -44 -1q-2 9 -55 179l-66 211q-158 -4 -158 -151v-238h-118v486h94q19 -38 19 -93h5q54 103 205 103q26 0 39 -1l65 -238
q40 -151 44 -171z" />
    <glyph glyph-name="ff" unicode="ff" horiz-adv-x="661" 
d="M508 485h140v-81h-140v-404h-117v404h-177v-404h-117v404h-77v66l77 14v56q0 87 40.5 126.5t129.5 39.5q48 0 87 -10v-87q-48 6 -68 6q-41 0 -56.5 -16.5t-15.5 -63.5v-50h177v73q0 87 40.5 126.5t129.5 39.5q49 0 92 -11l-1 -86q-46 6 -72 6q-40 0 -55.5 -16.5
t-16.5 -63.5v-68z" />
    <glyph glyph-name="fi" unicode="fi" horiz-adv-x="566" 
d="M94 485v49q0 190 208 190q59 0 133 -14v-89q-87 9 -109 9q-61 0 -88 -22.5t-27 -79.5v-43h283v-485h-118v403h-164v-403h-117v403h-78v65z" />
    <glyph glyph-name="fl" unicode="fl" horiz-adv-x="573" 
d="M349 485v-81h-137v-404h-117v404h-77v65l76 16v51q0 186 208 186q50 0 124 -12h75v-710h-115v624q-28 3 -59 3q-63 0 -89.5 -20t-26.5 -75v-47h138z" />
    <glyph glyph-name="ffi" unicode="ffi" horiz-adv-x="854" 
d="M380 485v50q0 189 209 189q63 0 132 -13v-89q-8 1 -25.5 3.5t-36 4t-36.5 1.5q-69 0 -97.5 -21.5t-28.5 -80.5v-44h282v-485h-117v403h-165v-403h-117v403h-168v-403h-117v403h-78v66l78 15v59q0 88 42.5 126.5t127.5 38.5q40 0 85 -10q0 -14 -0.5 -42.5t-0.5 -42.5
q-37 4 -64 4q-42 0 -57.5 -16t-15.5 -63v-53h168z" />
    <glyph glyph-name="ffl" unicode="ffl" horiz-adv-x="859" 
d="M381 403h-169v-403h-117v403h-78v66l78 15v56q0 88 42.5 126.5t127.5 38.5q40 0 85 -10q0 -14 -0.5 -42.5t-0.5 -42.5q-37 4 -64 4q-42 0 -57.5 -16t-15.5 -63v-50h168v51q0 184 210 184q54 0 132 -11h59v-709h-114v623q-36 4 -58 4q-56 0 -84 -21t-28 -74v-47h133v-82
h-132v-403h-117v403z" />
    <glyph glyph-name="ft" unicode="ft" horiz-adv-x="690" 
d="M505 618v-132h140v-83h-140v-238q0 -47 18 -64.5t64 -17.5q45 0 76 5v-86q-45 -9 -102 -9q-91 0 -131.5 38t-40.5 133v239h-175v-403h-117v403h-78v66l78 15v71q0 87 40.5 126.5t129.5 39.5q54 0 95 -11q0 -14 -0.5 -43t-0.5 -43q-39 5 -76 5q-40 0 -55.5 -16t-15.5 -63
v-65h181l27 133h83z" />
    <glyph glyph-name=".notdef" horiz-adv-x="447" 
d="M1 0v700h445v-700h-445zM96 61h255l-127 232zM224 407l127 232h-255zM62 577v-455l126 228zM260 350l125 -228v455z" />
    <glyph glyph-name=".null" horiz-adv-x="0" 
 />
    <glyph glyph-name="nonmarkingreturn" horiz-adv-x="333" 
 />
    <glyph glyph-name="space" unicode=" " horiz-adv-x="304" 
 />
    <glyph glyph-name="exclam" unicode="!" horiz-adv-x="322" 
d="M209 183h-93l-13 494h122zM94 58q0 29 20 49t49 20t49 -20t20 -49t-20 -49t-49 -20t-49 20t-20 49z" />
    <glyph glyph-name="quotedbl" unicode="&#x22;" horiz-adv-x="387" 
d="M304 435h-76l-11 236h101zM163 435h-76l-13 236h100z" />
    <glyph glyph-name="numbersign" unicode="#" horiz-adv-x="630" 
d="M586 388h-111l-22 -123h111l-12 -68h-112l-32 -197h-88l36 197h-121l-35 -197h-87l35 197h-110l10 68h111l22 123h-110l12 67h111l32 185h85l-32 -185h123l31 185h85l-31 -185h109zM268 388l-22 -123h120l23 123h-121z" />
    <glyph glyph-name="dollar" unicode="$" horiz-adv-x="630" 
d="M380 722v-79q79 -12 129 -55.5t50 -114.5q0 -10 -2 -22h-102q-3 71 -75 96v-171q99 -25 144.5 -69t45.5 -118t-49.5 -123.5t-140.5 -58.5v-79h-48v794h48zM252 -72v78q-87 13 -140 61.5t-53 125.5q0 14 1 20h105q2 -86 87 -112v198q-88 18 -133 55.5t-45 113.5
q0 60 42.5 112.5t135.5 64.5v77h45v-794h-45zM461 185q0 65 -81 92v-179q37 8 59 31.5t22 55.5zM181 470q0 -28 17 -44t54 -26v148q-71 -16 -71 -78z" />
    <glyph glyph-name="percent" unicode="%" horiz-adv-x="898" 
d="M275 -28h-84l426 734h86zM202 683q100 0 143.5 -58t43.5 -149q0 -85 -44 -141.5t-143 -56.5q-101 0 -144 51.5t-43 146.5t46.5 151t140.5 56zM201 609q-90 0 -90 -133q0 -125 90 -125q89 0 89 125q0 133 -89 133zM695 400q100 0 143.5 -57.5t43.5 -148.5
q0 -85 -44 -141.5t-143 -56.5q-102 0 -144.5 51.5t-42.5 146.5t46 150.5t141 55.5zM694 326q-90 0 -90 -132q0 -125 90 -125q89 0 89 125q0 132 -89 132z" />
    <glyph glyph-name="ampersand" unicode="&#x26;" horiz-adv-x="771" 
d="M657 -40q-61 33 -119 74q-96 -53 -223 -53q-109 0 -179 47.5t-70 141.5q0 56 35 113t103 101q-65 74 -65 144q0 62 47 109.5t124 47.5t122 -41t45 -103q0 -93 -127 -181q85 -114 193 -208q67 68 67 153q0 43 -18.5 72.5t-67.5 50.5q2 5 12.5 34.5t12.5 33.5
q74 -11 118 -60.5t44 -124.5q0 -54 -24 -112t-70 -105q45 -34 93 -63q-8 -12 -26.5 -35.5t-26.5 -35.5zM265 311q-39 -24 -63 -60t-24 -72q0 -50 40 -79.5t105 -29.5q76 0 138 26q-91 82 -196 215zM309 596q-29 0 -43.5 -22t-14.5 -44q0 -36 42 -99q68 51 68 109
q0 27 -14 41.5t-38 14.5z" />
    <glyph glyph-name="quotesingle" unicode="'" horiz-adv-x="283" 
d="M180 435h-76l-13 236h100z" />
    <glyph glyph-name="parenleft" unicode="(" horiz-adv-x="323" 
d="M158 303q0 -203 143 -375l-60 -52q-87 88 -141.5 199.5t-54.5 222.5q0 114 54 225.5t141 202.5l65 -51q-67 -80 -107 -178.5t-40 -193.5z" />
    <glyph glyph-name="parenright" unicode=")" horiz-adv-x="323" 
d="M170 303q0 95 -40 193.5t-107 178.5l65 51q86 -91 140 -203t54 -225q0 -111 -54.5 -222t-140.5 -200l-61 52q144 171 144 375z" />
    <glyph glyph-name="asterisk" unicode="*" horiz-adv-x="471" 
d="M305 472l80 -95l-84 -59l-64 100q-3 -6 -31 -51.5t-30 -48.5l-87 58l79 98l-120 35l31 86l112 -46l-4 116h102l-7 -116l55.5 23l55.5 23l36 -86z" />
    <glyph glyph-name="plus" unicode="+" horiz-adv-x="630" 
d="M366 229v-152h-102v152h-160v86h160v160h102v-160h159v-86h-159z" />
    <glyph glyph-name="comma" unicode="," horiz-adv-x="274" 
d="M60 66q0 32 22.5 54t54.5 22q33 0 54.5 -21t21.5 -53q0 -23 -11 -43l-106 -214l-42 16l56 168q-22 7 -36 26.5t-14 44.5z" />
    <glyph glyph-name="hyphen" unicode="-" horiz-adv-x="496" 
d="M93 210v94h309v-94h-309z" />
    <glyph glyph-name="period" unicode="." horiz-adv-x="270" 
d="M59 65q0 32 22 54t54 22t54 -22t22 -54t-22 -54t-54 -22t-54 22t-22 54z" />
    <glyph glyph-name="slash" unicode="/" horiz-adv-x="556" 
d="M108 -44h-104l444 761h104z" />
    <glyph glyph-name="zero" unicode="0" horiz-adv-x="630" 
d="M317 658q78 0 134 -27t87 -76t44.5 -106.5t13.5 -128.5q0 -65 -14 -121t-45 -104t-87.5 -75.5t-133.5 -27.5q-79 0 -135 23.5t-88 68t-46.5 102t-14.5 133.5q0 158 70 248.5t215 90.5zM315 565q-90 0 -127.5 -63.5t-37.5 -182.5q0 -235 165 -235q76 0 119 58.5t43 177.5
q0 245 -162 245z" />
    <glyph glyph-name="one" unicode="1" horiz-adv-x="630" 
d="M545 93v-93h-460v93h169v446l-142 -21v76l163 55h97v-556h173z" />
    <glyph glyph-name="two" unicode="2" horiz-adv-x="630" 
d="M315 659q123 0 181 -48.5t58 -126.5q0 -54 -35 -101t-87 -81.5l-104 -66t-92.5 -68.5t-47.5 -75h377v-92h-501v50q0 95 53.5 154.5t176.5 129.5q34 20 51 31t42 30.5t36 40t11 43.5q0 36 -31 61t-84 25q-45 0 -85.5 -29t-43.5 -92h-108q-2 22 -2 30q0 84 70 134.5
t165 50.5z" />
    <glyph glyph-name="three" unicode="3" horiz-adv-x="630" 
d="M302 -8q-104 0 -170.5 41.5t-66.5 121.5q0 15 3 33h107q6 -60 40.5 -82t88.5 -22q65 0 104.5 32.5t39.5 97.5q0 114 -179 114q-26 0 -39 -1l-39 66l185 157l-4 7h-276v92h451v-80l-193 -160l3 -4q97 -6 153.5 -54.5t56.5 -136.5q0 -103 -72.5 -162.5t-192.5 -59.5z" />
    <glyph glyph-name="four" unicode="4" horiz-adv-x="630" 
d="M377 650h108v-406h104v-91h-104v-153h-116v153h-329v80zM176 249l1 -5h192v237h-6z" />
    <glyph glyph-name="five" unicode="5" horiz-adv-x="630" 
d="M303 -8q-103 0 -169 41.5t-66 121.5q0 21 3 33h106q10 -104 126 -104q66 0 105 33.5t39 98.5q0 128 -152 128q-75 0 -132 -29l-65 41l47 293h390v-92h-294l-22 -132q39 9 77 9q123 0 196.5 -52.5t73.5 -167.5q0 -102 -72.5 -162t-190.5 -60z" />
    <glyph glyph-name="six" unicode="6" horiz-adv-x="630" 
d="M330 659q97 0 155.5 -40.5t58.5 -105.5q0 -9 -2 -21h-107q-15 76 -109 76q-77 0 -113.5 -60t-38.5 -157l4 -1q25 37 68.5 55.5t88.5 18.5q108 0 169 -55t61 -158q0 -96 -66 -157t-182 -61q-256 5 -256 309q0 53 6.5 99t24.5 95t47 84t78 57t113 22zM322 85q66 0 96.5 37
t30.5 91q0 57 -32.5 88.5t-94.5 31.5q-56 0 -90 -33t-34 -89q0 -53 31 -89.5t93 -36.5z" />
    <glyph glyph-name="seven" unicode="7" horiz-adv-x="630" 
d="M74 556v93h476v-76l-279 -573h-128l273 556h-342z" />
    <glyph glyph-name="eight" unicode="8" horiz-adv-x="630" 
d="M455 353l-1 -5q115 -45 115 -165q0 -79 -69 -134.5t-186 -55.5q-116 0 -185 51t-69 139q0 47 27 94.5t91 72.5v4q-51 19 -72.5 57t-21.5 74q0 66 60 120.5t170 54.5q65 0 112.5 -16t72.5 -43t36 -56t11 -60q0 -33 -22 -71.5t-69 -60.5zM452 182q0 49 -34.5 82.5
t-100.5 43.5q-65 -12 -101.5 -45.5t-36.5 -80.5q0 -49 41.5 -74t93.5 -25q57 0 97.5 25.5t40.5 73.5zM314 567q-47 0 -78.5 -22t-31.5 -62q0 -68 114 -99q47 10 78 38.5t31 60.5q0 42 -30 63t-83 21z" />
    <glyph glyph-name="nine" unicode="9" horiz-adv-x="630" 
d="M296 -7q-98 0 -160 41t-62 106q0 14 1 21h107q7 -35 38 -56t79 -21q77 0 117.5 54.5t41.5 160.5l-5 1q-25 -35 -66.5 -53.5t-87.5 -18.5q-107 0 -168.5 55t-61.5 156q0 97 65 158.5t181 61.5q124 0 191 -81t67 -237q0 -348 -277 -348zM312 567q-66 0 -96.5 -37t-30.5 -91
q0 -57 32.5 -88.5t94.5 -31.5q56 0 90 33t34 89q0 53 -31 89.5t-93 36.5z" />
    <glyph glyph-name="colon" unicode=":" horiz-adv-x="270" 
d="M59 65q0 32 22 54t54 22t54 -22t22 -54t-22 -54t-54 -22t-54 22t-22 54zM59 349q0 32 22 54t54 22t54 -22t22 -54t-22 -54t-54 -22t-54 22t-22 54z" />
    <glyph glyph-name="semicolon" unicode=";" horiz-adv-x="270" 
d="M59 349q0 32 22 54t54 22t54 -22t22 -54t-22 -54t-54 -22t-54 22t-22 54zM59 66q0 32 22 54t54 22q33 0 54.5 -21t21.5 -53q0 -24 -10 -43l-107 -214l-41 16l56 168q-22 7 -36 26.5t-14 44.5z" />
    <glyph glyph-name="less" unicode="&#x3c;" horiz-adv-x="630" 
d="M102 236v72l425 199v-101l-301 -133l301 -134v-100z" />
    <glyph glyph-name="equal" unicode="=" horiz-adv-x="630" 
d="M525 152h-422v84h422v-84zM525 318h-422v85h422v-85z" />
    <glyph glyph-name="greater" unicode="&#x3e;" horiz-adv-x="630" 
d="M527 308v-72l-425 -197v100l302 134l-302 133v101z" />
    <glyph glyph-name="question" unicode="?" horiz-adv-x="514" 
d="M246 702q105 0 162 -42.5t57 -125.5q0 -78 -97 -168q-32 -30 -47.5 -47t-30.5 -48t-15 -65v-31h-106v22q0 120 95 205q81 72 81 128q0 36 -26 58t-72 22q-91 0 -103 -96h-106q-2 16 -2 24q0 55 32 93.5t78 54.5t100 16zM152 58q0 29 20 49t49 20t49 -20t20 -49t-20 -48.5
t-49 -19.5t-49 19.5t-20 48.5z" />
    <glyph glyph-name="at" unicode="@" horiz-adv-x="930" 
d="M428 195q48 0 76.5 27t28.5 60v22q-28 5 -68 5q-100 0 -100 -64q0 -22 17.5 -36t45.5 -14zM546 184h-5q-23 -34 -61 -49t-75 -15q-65 0 -103.5 30.5t-38.5 91.5q0 133 196 133q28 0 74 -4v19q0 70 -79 70q-60 0 -69 -45h-90q-1 5 -1 14q0 55 49.5 81t112.5 26
q174 0 174 -141v-156q0 -37 41 -37q98 0 98 156q0 87 -42.5 151.5t-107.5 94.5t-141 30q-136 0 -226 -87t-90 -223q0 -137 90.5 -224t231.5 -87q61 0 109.5 8t115.5 35l26 -75q-127 -46 -246 -46q-183 0 -300 106t-117 283q0 163 114.5 274.5t289.5 111.5q168 0 274.5 -92.5
t106.5 -251.5q0 -122 -52 -184.5t-147 -62.5q-20 0 -40.5 4.5t-43 20t-28.5 40.5z" />
    <glyph glyph-name="A" unicode="A" horiz-adv-x="657" 
d="M517 0l-58 163h-268l-58 -163h-125l257 678h126l254 -678h-128zM329 551h-6q-9 -35 -49 -155l-49 -139h201l-47 133q-42 129 -50 161z" />
    <glyph glyph-name="B" unicode="B" horiz-adv-x="641" 
d="M464 364v-6q59 -13 92.5 -57.5t33.5 -99.5q0 -95 -58.5 -148t-165.5 -53h-299v676h297q93 0 146 -43.5t53 -125.5q0 -43 -26.5 -84t-72.5 -59zM349 578h-163v-173h159q43 0 69.5 25t26.5 63q0 39 -24 62t-68 23zM346 308h-159v-209h160q118 0 118 105q0 49 -33.5 76.5
t-85.5 27.5z" />
    <glyph glyph-name="C" unicode="C" horiz-adv-x="654" 
d="M178 335q0 -119 42 -181.5t138 -62.5q70 0 107.5 36t38.5 95h116q2 -12 2 -23q0 -98 -75.5 -152.5t-184.5 -54.5q-161 0 -234.5 86.5t-73.5 256.5q0 164 78.5 255.5t225.5 91.5q106 0 180.5 -53t74.5 -148q0 -10 -2 -20h-116q-3 57 -39.5 89t-101.5 32q-176 0 -176 -247z
" />
    <glyph glyph-name="D" unicode="D" horiz-adv-x="664" 
d="M184 99h79q42 0 78.5 10t72 34t56.5 73.5t21 119.5q0 74 -22 125t-59 74.5t-72 32.5t-75 9h-79v-478zM64 0v676h220q51 0 96.5 -10t88.5 -35.5t74.5 -63.5t50.5 -97.5t19 -135.5q0 -155 -90 -244.5t-239 -89.5h-220z" />
    <glyph glyph-name="E" unicode="E" horiz-adv-x="584" 
d="M64 0v676h469v-99h-349v-177h318v-100h-318v-200h358v-100h-478z" />
    <glyph glyph-name="F" unicode="F" horiz-adv-x="576" 
d="M70 0v676h480v-100h-360v-184h320v-100h-320v-292h-120z" />
    <glyph glyph-name="G" unicode="G" horiz-adv-x="690" 
d="M177 335q0 -123 43.5 -184.5t140.5 -61.5q87 0 125.5 41.5t38.5 107.5v36h-128v91h246v-111q0 -126 -74 -195t-209 -69q-306 0 -306 345q0 164 78.5 257t227.5 93q110 0 184 -50.5t74 -146.5q0 -8 -2 -20h-115q-3 53 -39.5 84t-102.5 31q-182 0 -182 -248z" />
    <glyph glyph-name="H" unicode="H" horiz-adv-x="697" 
d="M512 0v300h-328v-300h-120v676h120v-276h328v276h120v-676h-120z" />
    <glyph glyph-name="I" unicode="I" horiz-adv-x="280" 
d="M80 0v676h121v-676h-121z" />
    <glyph glyph-name="J" unicode="J" horiz-adv-x="575" 
d="M250 -8q-105 0 -168.5 44.5t-63.5 129.5q0 18 3 38h114q2 -110 117 -113q74 0 101 38t27 109v438h119v-448q0 -236 -249 -236z" />
    <glyph glyph-name="K" unicode="K" horiz-adv-x="612" 
d="M184 676v-268h73l213 268h139l-257 -316l266 -360h-148l-217 306h-69v-306h-120v676h120z" />
    <glyph glyph-name="L" unicode="L" horiz-adv-x="547" 
d="M66 0v676h121v-576h349v-100h-470z" />
    <glyph glyph-name="M" unicode="M" horiz-adv-x="840" 
d="M416 218h7q36 98 107 249l99 208h141v-675h-119v481h-5q-29 -74 -56 -132l-121 -253h-100l-111 229q-45 93 -67 155h-5v-480h-119q0 112 0.5 337t0.5 338h140l110 -229q48 -102 98 -228z" />
    <glyph glyph-name="N" unicode="N" horiz-adv-x="697" 
d="M508 196l7 1v479h119v-676h-109l-220 310q-82 116 -116 176l-5 -2v-484h-121v676h113l197 -276q68 -95 135 -204z" />
    <glyph glyph-name="O" unicode="O" horiz-adv-x="727" 
d="M367 683q86 0 148 -29t95 -80.5t48 -110.5t15 -131q0 -53 -9 -100t-31 -91.5t-56 -77t-88 -52t-123 -19.5q-87 0 -149 25t-97 72t-50.5 106t-15.5 136q0 161 76.5 256.5t236.5 95.5zM365 584q-101 0 -144 -66t-43 -186q0 -243 187 -243q86 0 134.5 61.5t48.5 181.5
q0 117 -44 184.5t-139 67.5z" />
    <glyph glyph-name="P" unicode="P" horiz-adv-x="612" 
d="M349 243h-165v-243h-120v676h291q116 0 177 -60.5t61 -158.5q0 -37 -12.5 -72.5t-39 -68.5t-76 -53t-116.5 -20zM346 577h-162v-235h160q53 0 91 28t38 87q0 56 -35.5 88t-91.5 32z" />
    <glyph glyph-name="Q" unicode="Q" horiz-adv-x="719" 
d="M365 683q86 0 148 -28.5t95 -79.5t47.5 -110.5t14.5 -132.5q0 -243 -165 -314q58 -23 160 -51l-36 -92q-162 48 -268 117q-168 1 -239 89.5t-71 249.5q0 163 77 257.5t237 94.5zM363 584q-188 0 -188 -252q0 -243 188 -243q85 0 133.5 62t48.5 181q0 116 -44 184t-138 68
z" />
    <glyph glyph-name="R" unicode="R" horiz-adv-x="620" 
d="M576 467q0 -69 -46 -128t-140 -72l197 -267h-141l-189 263h-72v-263h-120v676h274q116 0 176.5 -56.5t60.5 -152.5zM329 577h-145v-216h145q54 0 91 25t37 82q0 51 -36.5 80t-91.5 29z" />
    <glyph glyph-name="S" unicode="S" horiz-adv-x="650" 
d="M330 683q63 0 118 -18t93.5 -61t38.5 -103q0 -14 -2 -30h-116q-2 49 -38 79.5t-99 30.5q-66 0 -99.5 -25t-33.5 -64q0 -19 8 -32.5t18.5 -21.5t34.5 -15t43 -10.5t57 -9.5q131 -20 189.5 -68t58.5 -141q0 -87 -70 -145t-205 -58q-119 0 -198.5 50t-79.5 148q0 16 3 31
h114q2 -60 43.5 -95t120.5 -35q76 0 111.5 28.5t35.5 70.5q0 49 -36 74.5t-121 36.5q-45 5 -77.5 12t-67 20t-55.5 31.5t-35 48.5t-14 70q0 38 13 72t41.5 64t81.5 47.5t124 17.5z" />
    <glyph glyph-name="T" unicode="T" horiz-adv-x="595" 
d="M359 577v-577h-120v577h-224v99h565v-99h-221z" />
    <glyph glyph-name="U" unicode="U" horiz-adv-x="696" 
d="M631 676v-405q0 -279 -278 -279q-157 0 -223 70.5t-66 209.5v404h121v-408q0 -99 43.5 -139t125.5 -40q72 0 115 44t43 136v407h119z" />
    <glyph glyph-name="V" unicode="V" horiz-adv-x="640" 
d="M316 116h6q22 97 81 266l99 294h124l-241 -676h-135l-237 676h125l99 -297q64 -187 79 -263z" />
    <glyph glyph-name="W" unicode="W" horiz-adv-x="949" 
d="M683 141h5q28 139 58 265l63 270h129l-186 -676h-132l-86 296q-5 16 -16.5 56.5l-17 60t-13.5 52.5t-13 63h-4q-15 -82 -56 -228l-85 -300h-131l-187 676h128l60 -250l19.5 -81t25 -110t18.5 -95h5q13 57 74 286l69 250h127l75 -265q57 -207 71 -270z" />
    <glyph glyph-name="X" unicode="X" horiz-adv-x="618" 
d="M588 676l-211 -325l232 -351h-140l-161 270l-80.5 -135t-81.5 -135h-139l232 351l-212 325h136l145 -249l70 120.5l75 128.5h135z" />
    <glyph glyph-name="Y" unicode="Y" horiz-adv-x="606" 
d="M297 361h8q29 74 80 169l78 145h129l-233 -416v-259h-121v258l-231 417h132l80 -151q50 -94 78 -163z" />
    <glyph glyph-name="Z" unicode="Z" horiz-adv-x="611" 
d="M36 0v91l383 484h-362v101h508v-91l-382 -487h391v-98h-538z" />
    <glyph glyph-name="bracketleft" unicode="[" horiz-adv-x="313" 
d="M66 -112l-1 822h195v-83h-88v-656h88v-83h-194z" />
    <glyph glyph-name="backslash" unicode="\" horiz-adv-x="567" 
d="M553 -44h-104l-445 761h104z" />
    <glyph glyph-name="bracketright" unicode="]" horiz-adv-x="313" 
d="M245 710v-822h-195v83h89v656h-89v83h195z" />
    <glyph glyph-name="asciicircum" unicode="^" horiz-adv-x="630" 
d="M274 668h82l209 -431h-107l-145 309l-142 -309h-107z" />
    <glyph glyph-name="underscore" unicode="_" horiz-adv-x="514" 
d="M7 -116v82h500v-82h-500z" />
    <glyph glyph-name="grave" unicode="`" horiz-adv-x="561" 
d="M396 592l-55 -49l-163 147l83 74z" />
    <glyph glyph-name="a" unicode="a" horiz-adv-x="533" 
d="M475 324v-324h-93q-14 22 -15 67h-5q-25 -40 -68.5 -58t-88.5 -18q-78 0 -123.5 37t-45.5 110q0 162 234 162q35 0 89 -6v24q0 89 -94 89q-73 0 -87 -56h-104q-1 6 -1 16q0 46 32 76t73.5 41t88.5 11q115 0 161.5 -46t46.5 -125zM360 218q-38 7 -82 7q-125 0 -125 -82
q0 -29 22 -47t58 -18q60 0 93.5 33t33.5 76v31z" />
    <glyph glyph-name="b" unicode="b" horiz-adv-x="577" 
d="M318 -7q-47 0 -88 18t-60 54h-5q0 -42 -15 -65h-93v710h118v-198q0 -60 -11 -100h5q53 80 157 80q202 0 202 -250q0 -71 -19 -124.5t-67.5 -89t-123.5 -35.5zM293 403q-62 0 -91 -43.5t-29 -101.5v-48q0 -57 31 -93.5t86 -36.5q118 0 118 162q0 161 -115 161z" />
    <glyph glyph-name="c" unicode="c" horiz-adv-x="520" 
d="M279 493q85 0 141.5 -38.5t56.5 -109.5q0 -10 -2 -20h-107q-3 40 -30 57t-58 17q-114 0 -114 -158q0 -76 26.5 -116t88.5 -40q38 0 65.5 20t30.5 65h106q2 -14 2 -20q0 -75 -56.5 -116.5t-141.5 -41.5q-239 0 -239 244q0 122 59 189.5t172 67.5z" />
    <glyph glyph-name="d" unicode="d" horiz-adv-x="575" 
d="M251 -7q-203 0 -203 245q0 117 55.5 186.5t161.5 69.5q83 0 132 -47h4v263h116v-710h-93q-15 22 -15 67h-4q-48 -74 -154 -74zM285 81q53 0 85 36.5t32 93.5v69q0 48 -27 85.5t-89 37.5q-59 0 -89 -43.5t-30 -118.5q0 -160 118 -160z" />
    <glyph glyph-name="e" unicode="e" horiz-adv-x="544" 
d="M276 403q-48 0 -76 -28.5t-32 -79.5h211q-1 50 -27 79t-76 29zM278 493q108 0 162.5 -61t54.5 -155q0 -24 -5 -54h-326q0 -142 119 -142q91 0 101 74h106q1 -6 1 -17q0 -74 -60.5 -110t-148.5 -36q-234 0 -234 244q0 114 58 185.5t172 71.5z" />
    <glyph glyph-name="f" unicode="f" horiz-adv-x="384" 
d="M225 485h143v-81h-143v-404h-117v404h-78v66l78 14v68q0 87 40.5 126.5t129.5 39.5q48 0 92 -11l-1 -86q-48 6 -73 6q-40 0 -55.5 -17t-15.5 -64v-61z" />
    <glyph glyph-name="g" unicode="g" horiz-adv-x="588" 
d="M162 -72q0 -28 31.5 -46t92.5 -18t99 16.5t38 49.5q0 22 -22.5 37.5t-86.5 23.5l-99 12q-53 -31 -53 -75zM291 495q51 0 96 -12h172v-53q-27 -11 -69 -13l-2 -7q34 -38 34 -99q0 -80 -60.5 -130.5t-167.5 -50.5q-73 0 -118 17q-12 -12 -12 -23q0 -12 13 -21.5t35 -12.5
l168 -24q163 -22 163 -134q0 -78 -73 -115t-191 -37q-235 0 -235 141q0 66 69 110q-28 13 -43 35.5t-15 45.5q0 47 48 81q-44 44 -44 116q0 79 58 132.5t174 53.5zM291 409q-63 0 -91 -27.5t-28 -70.5t29 -70t90 -27q56 0 85.5 27.5t29.5 69.5t-27.5 70t-87.5 28z" />
    <glyph glyph-name="h" unicode="h" horiz-adv-x="564" 
d="M161 407h5q24 43 68.5 65t93.5 22q45 0 78 -11.5t52 -29.5t30.5 -45.5t15 -54.5t3.5 -61v-292h-119v284q0 60 -21 91.5t-77 31.5q-58 0 -86.5 -43.5t-28.5 -97.5v-266h-117v712h115v-196q0 -69 -12 -109z" />
    <glyph glyph-name="i" unicode="i" horiz-adv-x="279" 
d="M79 0v486h117v-486h-117zM71 618q0 29 20 49t48 20q29 0 49.5 -20t20.5 -49q0 -28 -20.5 -48t-49.5 -20q-28 0 -48 20t-20 48z" />
    <glyph glyph-name="j" unicode="j" horiz-adv-x="271" 
d="M71 -204h-64v94h20q30 0 40.5 14t10.5 45v537h118v-550q0 -67 -28 -103.5t-97 -36.5zM69 618q0 29 20 49t48 20q29 0 49.5 -20t20.5 -49q0 -28 -20.5 -48t-49.5 -20q-28 0 -48 20t-20 48z" />
    <glyph glyph-name="k" unicode="k" horiz-adv-x="521" 
d="M378 485h129l-181 -218l192 -267h-137l-151 221h-56v-221h-116v711h116v-398h65z" />
    <glyph glyph-name="l" unicode="l" horiz-adv-x="266" 
d="M68 114v597h115v-588q0 -25 9 -32t42 -8v-84q-36 -7 -64 -7q-62 0 -82 28t-20 94z" />
    <glyph glyph-name="m" unicode="m" horiz-adv-x="861" 
d="M595 407q-54 0 -80.5 -40t-26.5 -93v-274h-116v284q0 60 -19.5 91t-71.5 31q-54 0 -80 -41t-26 -95v-270h-117v486h96q17 -25 17 -71h4q24 41 64 60t79 19q111 0 148 -80q62 80 164 80t138 -51.5t36 -143.5v-299h-119v285q0 60 -19 91t-71 31z" />
    <glyph glyph-name="n" unicode="n" horiz-adv-x="564" 
d="M328 493q55 0 92 -16t55 -46.5t24.5 -63t6.5 -76.5v-291h-118v283q0 59 -22 91t-76 32q-57 0 -86 -42.5t-29 -95.5v-268h-118v486h94q20 -27 20 -71h4q27 40 70.5 59t82.5 19z" />
    <glyph glyph-name="o" unicode="o" horiz-adv-x="577" 
d="M290 494q53 0 94.5 -14.5t68 -38t44 -56.5t24.5 -68t7 -75q0 -48 -12 -90.5t-38 -79t-74.5 -58t-113.5 -21.5q-241 0 -241 248q0 113 60.5 183t180.5 70zM290 401q-124 0 -124 -160q0 -158 124 -158q57 0 88 40t31 119q0 159 -119 159z" />
    <glyph glyph-name="p" unicode="p" horiz-adv-x="575" 
d="M326 493q200 0 200 -245q0 -117 -54 -186.5t-155 -69.5q-97 0 -139 49h-4v-245h-116v690h94q17 -26 17 -73h5q24 41 65.5 60.5t86.5 19.5zM291 402q-54 0 -85.5 -36.5t-31.5 -93.5v-69q0 -48 26 -85.5t89 -37.5q59 0 88.5 43t29.5 119q0 82 -28.5 121t-87.5 39z" />
    <glyph glyph-name="q" unicode="q" horiz-adv-x="576" 
d="M48 243q0 108 51.5 179t155.5 71q107 0 152 -74h4q3 42 17 67h89v-691h-116v174q0 63 11 104h-4q-57 -80 -159 -80q-201 0 -201 250zM281 80q62 0 91 44t29 101v48q0 57 -31 94t-85 37q-118 0 -118 -165q0 -159 114 -159z" />
    <glyph glyph-name="r" unicode="r" horiz-adv-x="355" 
d="M349 496l7 -104q-95 -2 -136.5 -35.5t-41.5 -105.5v-251h-117v486h94q19 -38 19 -92h4q22 54 71 78t100 24z" />
    <glyph glyph-name="s" unicode="s" horiz-adv-x="499" 
d="M249 494q46 0 87.5 -11t73.5 -40.5t32 -73.5q0 -6 -2 -20h-109q-9 57 -84 57q-40 0 -60.5 -16t-20.5 -40q0 -28 21 -37.5t78 -18.5q104 -16 148 -49t44 -103q0 -63 -53 -106t-156 -43q-51 0 -96 11.5t-80 45t-35 84.5q0 6 2 22h109q6 -77 106 -77q43 0 65.5 18t22.5 42
q0 30 -22.5 44t-79.5 22q-38 5 -61.5 10t-50.5 15t-42.5 24t-25.5 37t-10 54q0 61 47.5 105t151.5 44z" />
    <glyph glyph-name="t" unicode="t" horiz-adv-x="396" 
d="M214 618v-132h140v-83h-140v-238q0 -50 19.5 -66t72.5 -16q29 0 66 5v-86q-46 -9 -102 -9q-92 0 -132 38t-40 133v239h-78v69q51 7 83 13l27 133h84z" />
    <glyph glyph-name="u" unicode="u" horiz-adv-x="553" 
d="M384 70h-4q-28 -41 -70.5 -59.5t-79.5 -18.5q-53 0 -89 15t-53 43.5t-23.5 58t-6.5 69.5v308h118v-285q0 -61 18.5 -90.5t74.5 -29.5q54 0 81.5 41t27.5 94v270h117v-486h-93q-18 26 -18 70z" />
    <glyph glyph-name="v" unicode="v" horiz-adv-x="523" 
d="M259 107h8q23 93 68 220l56 158h119l-188 -487h-123l-187 487h121l57 -161q42 -115 69 -217z" />
    <glyph glyph-name="w" unicode="w" horiz-adv-x="759" 
d="M529 121h8q9 57 45 193l44 171h122l-152 -486h-122l-56 187q-14 47 -36 154h-8q-21 -113 -34 -157l-55 -184h-122l-153 486h122l40 -147q44 -160 53 -217h8q19 99 39 166l58 198h102q63 -203 97 -364z" />
    <glyph glyph-name="x" unicode="x" horiz-adv-x="503" 
d="M361 0l-109 180l-111 -180h-133l173 253l-161 233h134l95 -158l97 158h134l-162 -233l176 -253h-133z" />
    <glyph glyph-name="y" unicode="y" horiz-adv-x="491" 
d="M236 86h8q9 35 52 175l69 224h114l-184 -544q-26 -74 -66 -111.5t-117 -37.5h-66v91h51q35 0 54.5 12.5t33.5 43.5l21 61q-29 0 -43 -1q-23 85 -48 164.5l-57.5 176l-48.5 145.5h120l63 -228q40 -151 44 -171z" />
    <glyph glyph-name="z" unicode="z" horiz-adv-x="474" 
d="M26 0v67l274 330h-255v88h396v-70l-273 -329h279v-86h-421z" />
    <glyph glyph-name="braceleft" unicode="{" horiz-adv-x="354" 
d="M159 285l-1 -6q65 -32 65 -132v-143q0 -39 41 -39h35v-79h-65q-51 0 -81.5 31.5t-30.5 82.5v144q0 47 -14.5 70.5t-53.5 34.5v65q37 10 52 34t15 70v167q0 121 103 121h75v-76h-35q-19 0 -29.5 -12t-10.5 -33v-165q0 -108 -65 -135z" />
    <glyph glyph-name="bar" unicode="|" horiz-adv-x="312" 
d="M103 -112v829h105v-829h-105z" />
    <glyph glyph-name="braceright" unicode="}" horiz-adv-x="354" 
d="M192 279v6q-66 27 -66 135v165q0 45 -39 45h-35v76h74q103 0 103 -121v-167q0 -46 15.5 -70t52.5 -34v-65q-40 -11 -54.5 -34.5t-14.5 -70.5v-144q0 -51 -30.5 -82.5t-81.5 -31.5h-64v79h35q40 0 40 39v143q0 100 65 132z" />
    <glyph glyph-name="asciitilde" unicode="~" horiz-adv-x="630" 
d="M424 203q-44 0 -113 25.5t-91 25.5q-38 0 -90 -53l-54 41q21 49 57.5 78t77.5 29q35 0 111 -25.5t102 -25.5q37 0 75 49l62 -37q-19 -48 -56.5 -77.5t-80.5 -29.5z" />
    <glyph glyph-name="exclamdown" unicode="&#xa1;" horiz-adv-x="322" 
d="M117 298h93l16 -494h-123zM94 423q0 29 20 48.5t49 19.5q30 0 50 -19.5t20 -48.5q0 -30 -20 -50t-50 -20q-29 0 -49 20t-20 50z" />
    <glyph glyph-name="cent" unicode="&#xa2;" horiz-adv-x="630" 
d="M297 -70v151q-198 18 -198 238q0 111 50.5 176t147.5 75v148h49v-148q75 -5 125 -41t50 -106v-16h-106q-4 61 -69 71v-306q73 7 78 82h104q1 -3 1 -17q0 -70 -52 -112t-131 -46v-149h-49zM212 324q0 -136 85 -151v304q-85 -20 -85 -153z" />
    <glyph glyph-name="sterling" unicode="&#xa3;" horiz-adv-x="630" 
d="M337 564q-56 0 -85.5 -27.5t-29.5 -75.5q0 -49 15 -80h189v-78h-166q6 -38 6 -77q0 -75 -34 -133h324v-93h-490v93h48q40 82 40 136q0 29 -12 74h-74v78h54q-13 52 -13 92q0 82 61.5 134t159.5 52q40 0 77 -8t71 -25t54.5 -47.5t20.5 -71.5q0 -14 -1 -21h-105
q-12 78 -110 78z" />
    <glyph glyph-name="currency" unicode="&#xa4;" horiz-adv-x="630" 
d="M103 299q0 58 32 112q-6 7 -18 19l-22 22.5l-18 19.5l67 64l56 -58q57 32 114 32q61 0 113 -34l57 58l36 -35.5l30 -29.5l-58 -60q31 -48 31 -110q0 -58 -31 -112q39 -39 59 -57q-23 -25 -67 -66l-57 56q-54 -32 -113 -32q-60 0 -114 32l-55 -57l-66 66l17.5 17.5l21 21
l17.5 17.5q-32 47 -32 114zM190 298q0 -50 36 -86t87 -36q50 0 85.5 36t35.5 86t-35.5 86.5t-85.5 36.5q-51 0 -87 -36t-36 -87z" />
    <glyph glyph-name="yen" unicode="&#xa5;" horiz-adv-x="630" 
d="M546 271h-458v54h127l-176 324h125l76 -145q59 -117 76 -163h9q23 64 77 169l75 139h124l-182 -324h127v-54zM88 230h458v-53h-171v-177h-117v177h-170v53z" />
    <glyph glyph-name="brokenbar" unicode="&#xa6;" horiz-adv-x="366" 
d="M123 283h111v-393h-111v393zM234 329h-111v374h111v-374z" />
    <glyph glyph-name="section" unicode="&#xa7;" horiz-adv-x="562" 
d="M181 297q0 -34 29.5 -53.5t88.5 -35.5q49 2 74 23t25 49q0 66 -129 94q-41 -3 -64.5 -25.5t-23.5 -51.5zM280 -110q-84 0 -144 34.5t-60 104.5q0 9 1 11h108q7 -34 35.5 -49t61.5 -15q52 0 77.5 19.5t25.5 46.5q0 24 -24.5 42t-79.5 36q-51 16 -80.5 27.5t-62 31.5
t-47.5 47.5t-15 65.5t19.5 71.5t57.5 52.5q-66 35 -66 107q0 63 48.5 110.5t157.5 47.5q81 0 137 -34.5t56 -104.5q0 -9 -1 -11h-103q-11 64 -92 64q-48 0 -71.5 -19.5t-23.5 -48.5q0 -23 26.5 -39.5t77.5 -32.5q49 -14 79.5 -26t62 -31.5t46.5 -47.5t15 -65q0 -85 -81 -123
q78 -45 78 -117q0 -61 -52 -108t-167 -47z" />
    <glyph glyph-name="dieresis" unicode="&#xa8;" horiz-adv-x="561" 
d="M122 627q0 25 17.5 42t41.5 17q25 0 42.5 -17t17.5 -42t-17.5 -42t-42.5 -17q-24 0 -41.5 17t-17.5 42zM312 627q0 25 17 42t42 17t42.5 -17t17.5 -42t-17.5 -42t-42.5 -17t-42 17t-17 42z" />
    <glyph glyph-name="copyright" unicode="&#xa9;" horiz-adv-x="825" 
d="M415 -13q-163 0 -260 103t-97 265q0 157 104 260.5t253 103.5t252.5 -103.5t103.5 -260.5q0 -158 -104 -263t-252 -105zM415 650q-120 0 -203 -86t-83 -209q0 -127 80.5 -213t205.5 -86q121 0 202 86.5t81 212.5q0 124 -81.5 209.5t-201.5 85.5zM301 344
q0 -78 24.5 -118.5t85.5 -40.5q47 0 73 24.5t26 63.5h81q0 -3 0.5 -8.5t0.5 -7.5q0 -65 -52 -102.5t-121 -37.5q-204 0 -204 227q0 108 52 171t149 63q71 0 120.5 -35.5t49.5 -97.5q0 -12 -1 -18h-81q-2 39 -25.5 61t-67.5 22q-110 0 -110 -166z" />
    <glyph glyph-name="ordfeminine" unicode="&#xaa;" horiz-adv-x="382" 
d="M169 340q38 0 59 20.5t21 47.5v18q-24 4 -53 4q-78 0 -78 -52q0 -17 14 -27.5t37 -10.5zM257 330h-5q-38 -55 -105 -55q-55 0 -87.5 25t-32.5 73q0 108 163 108q34 0 59 -3v14q0 52 -60 52q-48 0 -56 -36h-79q-1 4 -1 12q0 48 42.5 69.5t96.5 21.5q48 0 79 -11t45 -33
t19 -44t5 -54v-188h-73q-8 15 -10 49z" />
    <glyph glyph-name="guillemotleft" unicode="&#xab;" horiz-adv-x="529" 
d="M173 231l132 -180l-59 -47l-186 213v29l186 208l57 -43zM361 231l132 -180l-59 -47l-185 213v29l185 208l58 -43z" />
    <glyph glyph-name="logicalnot" unicode="&#xac;" horiz-adv-x="630" 
d="M525 315v-238h-103v152h-318v86h421z" />
    <glyph glyph-name="sfthyphen" unicode="&#xad;" horiz-adv-x="496" 
d="M93 210v94h309v-94h-309z" />
    <glyph glyph-name="registered" unicode="&#xae;" horiz-adv-x="580" 
d="M330 443l58 -116h-59l-52 110h-33v-110h-52v276h94q42 0 68 -21.5t26 -64.5q0 -51 -50 -74zM287 553h-43v-69h43q39 0 39 34q0 35 -39 35zM523 457q0 -100 -70.5 -170.5t-171.5 -70.5q-109 0 -175.5 69t-66.5 172q0 100 71.5 171t170.5 71q104 0 173 -70t69 -172z
M469 457q0 78 -55.5 134.5t-132.5 56.5q-80 0 -133.5 -56t-53.5 -135t52.5 -134.5t134.5 -55.5q78 0 133 56t55 134z" />
    <glyph glyph-name="macron" unicode="&#xaf;" horiz-adv-x="559" 
d="M128 598v83h319v-83h-319z" />
    <glyph glyph-name="degree" unicode="&#xb0;" horiz-adv-x="393" 
d="M196 374q-67 0 -111 43.5t-44 105.5t45 104t110 42q62 0 107 -42t45 -104q0 -61 -45 -105t-107 -44zM194 599q-32 0 -56 -22.5t-24 -53.5q0 -33 23 -56.5t57 -23.5q32 0 55.5 23.5t23.5 56.5q0 31 -23.5 53.5t-55.5 22.5z" />
    <glyph glyph-name="plusminus" unicode="&#xb1;" horiz-adv-x="630" 
d="M103 84h422v-84h-422v84zM366 257v-143h-102v143h-159v86h159v144h102v-144h159v-86h-159z" />
    <glyph glyph-name="twosuperior" unicode="&#xb2;" horiz-adv-x="382" 
d="M194 699q-30 0 -51.5 -16.5t-23.5 -53.5h-75q-2 8 -2 24q0 55 44 87t108 32q80 0 118 -32t38 -80q0 -71 -123 -138q-68 -37 -82 -52q-11 -11 -15 -24h224v-74h-327v35q1 58 34.5 93.5t110.5 77.5q27 15 39.5 23t27 24t14.5 31q0 19 -15.5 31t-43.5 12z" />
    <glyph glyph-name="threesuperior" unicode="&#xb3;" horiz-adv-x="376" 
d="M200 691l-2 5h-162v71h296v-61l-100 -80l2 -6q55 -7 85.5 -36t30.5 -78q0 -63 -49.5 -100t-128.5 -37q-68 0 -112 26t-44 76q0 14 2 25h78q6 -55 74 -55q35 0 60 17t25 48q0 59 -86 59q-15 0 -45 -4q-4 7 -8 15.5l-9 19t-8 15.5z" />
    <glyph glyph-name="acute" unicode="&#xb4;" horiz-adv-x="561" 
d="M263 544l-54 49l142 168l79 -74z" />
    <glyph glyph-name="mu" unicode="&#xb5;" horiz-adv-x="553" 
d="M59 -205q-1 94 -1 691h118v-294q0 -52 19.5 -82t72.5 -30q54 0 82 41.5t28 94.5v270h118v-486h-99q-15 22 -15 75h-4q-43 -68 -112 -74q-53 -8 -91 10v-216h-116z" />
    <glyph glyph-name="mu" unicode="&#x3bc;" horiz-adv-x="553" 
d="M59 -205q-1 94 -1 691h118v-294q0 -52 19.5 -82t72.5 -30q54 0 82 41.5t28 94.5v270h118v-486h-99q-15 22 -15 75h-4q-43 -68 -112 -74q-53 -8 -91 10v-216h-116z" />
    <glyph glyph-name="paragraph" unicode="&#xb6;" horiz-adv-x="562" 
d="M488 686v-671q0 -74 -39 -123t-131 -49q-19 0 -40 3l1 72q75 4 101.5 27t26.5 79v662h81zM352 297h-100q-85 0 -140.5 55.5t-55.5 138.5q0 81 56.5 138t139.5 57h100v-389z" />
    <glyph glyph-name="periodcentered" unicode="&#xb7;" horiz-adv-x="272" 
d="M58 272q0 33 22.5 56t55.5 23q34 0 56.5 -23t22.5 -56t-22.5 -56t-56.5 -23q-33 0 -55.5 23t-22.5 56z" />
    <glyph glyph-name="cedilla" unicode="&#xb8;" horiz-adv-x="534" 
d="M263 -228q-55 0 -111 19l15 50q45 -13 78 -13q30 0 48 11t18 30q0 38 -49 38q-27 0 -43 -10l-28 23l57 107h64l-38 -67q69 -1 97.5 -29.5t28.5 -61.5q0 -42 -34.5 -69t-102.5 -28z" />
    <glyph glyph-name="onesuperior" unicode="&#xb9;" horiz-adv-x="365" 
d="M337 443v-71h-309v71h105v237l-89 -11v64l109 35h76v-325h108z" />
    <glyph glyph-name="ordmasculine" unicode="&#xba;" horiz-adv-x="391" 
d="M197 612q86 0 125 -47t39 -120q0 -72 -39 -119.5t-125 -47.5q-168 0 -168 166q0 76 42.5 122t125.5 46zM196 540q-74 0 -74 -96q0 -95 74 -95q71 0 71 96q0 95 -71 95z" />
    <glyph glyph-name="guillemotright" unicode="&#xbb;" horiz-adv-x="529" 
d="M250 51l132 180l-131 180l58 43l185 -208v-29l-185 -213zM61 51l132 180l-131 180l58 43l186 -208v-29l-186 -213z" />
    <glyph glyph-name="onequarter" unicode="&#xbc;" horiz-adv-x="898" 
d="M697 395h82v-236h65v-71h-65v-88h-96v88h-205v60zM306 -28h-84l426 734h86zM357 353v-71h-309v71h105v237l-89 -11v64l109 35h76v-325h108zM585 159h98v113z" />
    <glyph glyph-name="onehalf" unicode="&#xbd;" horiz-adv-x="898" 
d="M697 327q-71 0 -75 -70h-75q-3 12 -3 24q0 55 44.5 87t107.5 32q80 0 118 -32t38 -80q0 -71 -122 -138q-69 -36 -84 -53q-10 -11 -13 -23h223v-74h-326v35q0 58 33.5 93.5t111.5 77.5q27 15 39.5 23t27 24t14.5 31q0 19 -15.5 31t-43.5 12zM271 -28h-84l426 734h86z
M340 353v-71h-309v71h105v237l-89 -11v64l109 35h76v-325h108z" />
    <glyph glyph-name="threequarters" unicode="&#xbe;" horiz-adv-x="898" 
d="M299 -28h-84l426 734h86zM233 601l-2 5h-162v71h296v-61l-100 -80l2 -6q55 -7 85.5 -36t30.5 -78q0 -63 -49.5 -100t-128.5 -37q-68 0 -112 26t-44 76q0 14 2 25h78q6 -55 74 -55q35 0 60 17t25 48q0 59 -86 59q-15 0 -45 -4q-4 7 -8 15.5l-9 19t-8 15.5zM701 395h82
v-236h65v-71h-65v-88h-96v88h-205v60zM589 159h98v113z" />
    <glyph glyph-name="questiondown" unicode="&#xbf;" horiz-adv-x="491" 
d="M262 -218q-105 1 -162 43t-57 125q0 77 97 167q31 29 47 46.5t31 49t15 65.5v31h106v-22q0 -123 -95 -206q-81 -72 -81 -126q0 -37 25.5 -58.5t72.5 -21.5q91 0 103 96h106q2 -16 2 -24q0 -55 -32.5 -94t-78 -55t-99.5 -16zM356 426q0 -29 -20 -49t-49 -20t-49 20t-20 49
t20 49t49 20t49 -20t20 -49z" />
    <glyph glyph-name="Agrave" unicode="&#xc0;" horiz-adv-x="657" 
d="M517 0l-58 163h-268l-58 -163h-125l257 678h126l254 -678h-128zM329 551h-6q-9 -35 -49 -155l-49 -139h201l-47 133q-42 129 -50 161zM376 778l-43 -60l-198 97l66 92z" />
    <glyph glyph-name="Aacute" unicode="&#xc1;" horiz-adv-x="657" 
d="M517 0l-58 163h-268l-58 -163h-125l257 678h126l254 -678h-128zM329 551h-6q-9 -35 -49 -155l-49 -139h201l-47 133q-42 129 -50 161zM318 722l-40 61l174 128l65 -92z" />
    <glyph glyph-name="Acircumflex" unicode="&#xc2;" horiz-adv-x="657" 
d="M517 0l-58 163h-268l-58 -163h-125l257 678h126l254 -678h-128zM329 551h-6q-9 -35 -49 -155l-49 -139h201l-47 133q-42 129 -50 161zM454 722l-129 103l-133 -103l-46 45l141 144h81l135 -144z" />
    <glyph glyph-name="Atilde" unicode="&#xc3;" horiz-adv-x="657" 
d="M517 0l-58 163h-268l-58 -163h-125l257 678h126l254 -678h-128zM329 551h-6q-9 -35 -49 -155l-49 -139h201l-47 133q-42 129 -50 161zM399 770q-26 0 -73.5 18t-68.5 18q-36 0 -72 -38l-49 38q16 41 46.5 64t67.5 23q22 0 67 -17.5t71 -17.5q37 0 71 36l50 -35
q-12 -40 -43.5 -64.5t-66.5 -24.5z" />
    <glyph glyph-name="Adieresis" unicode="&#xc4;" horiz-adv-x="657" 
d="M517 0l-58 163h-268l-58 -163h-125l257 678h126l254 -678h-128zM329 551h-6q-9 -35 -49 -155l-49 -139h201l-47 133q-42 129 -50 161zM170 807q0 25 17 42t42 17t42.5 -17t17.5 -42t-17.5 -42t-42.5 -17t-42 17t-17 42zM360 807q0 25 17 42t42 17t42.5 -17t17.5 -42
t-17.5 -42t-42.5 -17t-42 17t-17 42z" />
    <glyph glyph-name="Aring" unicode="&#xc5;" horiz-adv-x="657" 
d="M517 0l-58 163h-268l-58 -163h-125l257 678h126l254 -678h-128zM329 551h-6q-9 -35 -49 -155l-49 -139h201l-47 133q-42 129 -50 161zM325 708q-48 0 -80 32t-32 79t32 80t80 33t81.5 -33t33.5 -80q0 -48 -33.5 -79.5t-81.5 -31.5zM325 870q-19 0 -33 -15.5t-14 -35.5
t13 -35t34 -15q23 0 36 15t13 35q0 21 -13.5 36t-35.5 15z" />
    <glyph glyph-name="AE" unicode="&#xc6;" horiz-adv-x="983" 
d="M486 0v194h-239l-120 -194h-122l426 676h523v-92h-350v-188h319v-91h-319v-214h358v-91h-476zM486 571l-5 1q-34 -60 -104 -174l-69 -113h178v286z" />
    <glyph glyph-name="Ccedilla" unicode="&#xc7;" horiz-adv-x="654" 
d="M343 -231q-55 0 -111 19l15 50q45 -13 78 -13q30 0 48 11t18 30q0 38 -49 38q-27 0 -43 -10l-28 23l41 77q-135 13 -196.5 98.5t-61.5 242.5q0 164 78.5 255.5t225.5 91.5q106 0 180.5 -53t74.5 -148q0 -10 -2 -20h-116q-3 57 -39.5 89t-101.5 32q-176 0 -176 -247
q0 -119 42 -181.5t138 -62.5q70 0 107.5 36t38.5 95h116q2 -12 2 -23q0 -95 -71.5 -149.5t-176.5 -57.5l-20 -35q69 -1 97.5 -29.5t28.5 -61.5q0 -42 -34.5 -69t-102.5 -28z" />
    <glyph glyph-name="Egrave" unicode="&#xc8;" horiz-adv-x="584" 
d="M64 0v676h469v-99h-349v-177h318v-100h-318v-200h358v-100h-478zM378 778l-43 -60l-198 97l66 92z" />
    <glyph glyph-name="Eacute" unicode="&#xc9;" horiz-adv-x="582" 
d="M67 0v676h469v-99h-349v-177h318v-100h-318v-200h358v-100h-478zM274 722l-40 61l174 128l65 -92z" />
    <glyph glyph-name="Ecircumflex" unicode="&#xca;" horiz-adv-x="584" 
d="M64 0v676h469v-99h-349v-177h318v-100h-318v-200h358v-100h-478zM423 722l-129 103l-133 -103l-46 45l141 144h81l135 -144z" />
    <glyph glyph-name="Edieresis" unicode="&#xcb;" horiz-adv-x="584" 
d="M64 0v676h469v-99h-349v-177h318v-100h-318v-200h358v-100h-478zM149 807q0 25 17 42t42 17t42.5 -17t17.5 -42t-17.5 -42t-42.5 -17t-42 17t-17 42zM339 807q0 25 17 42t42 17t42.5 -17t17.5 -42t-17.5 -42t-42.5 -17t-42 17t-17 42z" />
    <glyph glyph-name="Igrave" unicode="&#xcc;" horiz-adv-x="280" 
d="M80 0v676h121v-676h-121zM197 778l-43 -60l-198 97l66 92z" />
    <glyph glyph-name="Iacute" unicode="&#xcd;" horiz-adv-x="280" 
d="M80 0v676h121v-676h-121zM123 722l-40 61l174 128l65 -92z" />
    <glyph glyph-name="Icircumflex" unicode="&#xce;" horiz-adv-x="280" 
d="M80 0v676h121v-676h-121zM270 722l-129 103l-133 -103l-46 45l141 144h81l135 -144z" />
    <glyph glyph-name="Idieresis" unicode="&#xcf;" horiz-adv-x="280" 
d="M80 0v676h121v-676h-121zM-16 807q0 25 17 42t42 17t42.5 -17t17.5 -42t-17.5 -42t-42.5 -17t-42 17t-17 42zM174 807q0 25 17 42t42 17t42.5 -17t17.5 -42t-17.5 -42t-42.5 -17t-42 17t-17 42z" />
    <glyph glyph-name="Eth" unicode="&#xd0;" horiz-adv-x="664" 
d="M64 381v295h220q51 0 96.5 -10t88.5 -35.5t74.5 -63.5t50.5 -97.5t19 -135.5q0 -155 -90 -244.5t-239 -89.5h-220v308h-57v73h57zM184 99h79q42 0 78.5 10t72 34t56.5 73.5t21 119.5q0 74 -22 125t-59 74.5t-72 32.5t-75 9h-79v-196h147v-73h-147v-209z" />
    <glyph glyph-name="Ntilde" unicode="&#xd1;" horiz-adv-x="697" 
d="M508 196l7 1v479h119v-676h-109l-220 310q-82 116 -116 176l-5 -2v-484h-121v676h113l197 -276q68 -95 135 -204zM418 752q-26 0 -73.5 18t-68.5 18q-36 0 -72 -38l-49 38q16 41 46.5 64t67.5 23q23 0 68 -17.5t70 -17.5q37 0 71 36l50 -35q-12 -40 -43.5 -64.5
t-66.5 -24.5z" />
    <glyph glyph-name="Ograve" unicode="&#xd2;" horiz-adv-x="727" 
d="M367 683q86 0 148 -29t95 -80.5t48 -110.5t15 -131q0 -53 -9 -100t-31 -91.5t-56 -77t-88 -52t-123 -19.5q-87 0 -149 25t-97 72t-50.5 106t-15.5 136q0 161 76.5 256.5t236.5 95.5zM365 584q-101 0 -144 -66t-43 -186q0 -243 187 -243q86 0 134.5 61.5t48.5 181.5
q0 117 -44 184.5t-139 67.5zM432 778l-43 -60l-198 97l66 92z" />
    <glyph glyph-name="Oacute" unicode="&#xd3;" horiz-adv-x="727" 
d="M367 683q86 0 148 -29t95 -80.5t48 -110.5t15 -131q0 -53 -9 -100t-31 -91.5t-56 -77t-88 -52t-123 -19.5q-87 0 -149 25t-97 72t-50.5 106t-15.5 136q0 161 76.5 256.5t236.5 95.5zM365 584q-101 0 -144 -66t-43 -186q0 -243 187 -243q86 0 134.5 61.5t48.5 181.5
q0 117 -44 184.5t-139 67.5zM308 722l-40 61l174 128l65 -92z" />
    <glyph glyph-name="Ocircumflex" unicode="&#xd4;" horiz-adv-x="727" 
d="M367 683q86 0 148 -29t95 -80.5t48 -110.5t15 -131q0 -53 -9 -100t-31 -91.5t-56 -77t-88 -52t-123 -19.5q-87 0 -149 25t-97 72t-50.5 106t-15.5 136q0 161 76.5 256.5t236.5 95.5zM365 584q-101 0 -144 -66t-43 -186q0 -243 187 -243q86 0 134.5 61.5t48.5 181.5
q0 117 -44 184.5t-139 67.5zM489 722l-129 103l-133 -103l-46 45l141 144h81l135 -144z" />
    <glyph glyph-name="Otilde" unicode="&#xd5;" horiz-adv-x="727" 
d="M367 683q86 0 148 -29t95 -80.5t48 -110.5t15 -131q0 -53 -9 -100t-31 -91.5t-56 -77t-88 -52t-123 -19.5q-87 0 -149 25t-97 72t-50.5 106t-15.5 136q0 161 76.5 256.5t236.5 95.5zM365 584q-101 0 -144 -66t-43 -186q0 -243 187 -243q86 0 134.5 61.5t48.5 181.5
q0 117 -44 184.5t-139 67.5zM439 761q-26 0 -73.5 18t-68.5 18q-36 0 -72 -38l-49 38q16 41 46.5 64t67.5 23q23 0 67.5 -17.5t70.5 -17.5q37 0 71 36l50 -35q-12 -40 -43.5 -64.5t-66.5 -24.5z" />
    <glyph glyph-name="Odieresis" unicode="&#xd6;" horiz-adv-x="727" 
d="M367 683q86 0 148 -29t95 -80.5t48 -110.5t15 -131q0 -53 -9 -100t-31 -91.5t-56 -77t-88 -52t-123 -19.5q-87 0 -149 25t-97 72t-50.5 106t-15.5 136q0 161 76.5 256.5t236.5 95.5zM365 584q-101 0 -144 -66t-43 -186q0 -243 187 -243q86 0 134.5 61.5t48.5 181.5
q0 117 -44 184.5t-139 67.5zM207 808q0 25 17 42t42 17t42.5 -17t17.5 -42t-17.5 -42t-42.5 -17t-42 17t-17 42zM397 808q0 25 17 42t42 17t42.5 -17t17.5 -42t-17.5 -42t-42.5 -17t-42 17t-17 42z" />
    <glyph glyph-name="multiply" unicode="&#xd7;" horiz-adv-x="630" 
d="M443 79l-128 128l-128 -128l-69 68l128 128l-128 128l69 69l128 -128l128 128l68 -68l-128 -129l128 -128z" />
    <glyph glyph-name="Oslash" unicode="&#xd8;" horiz-adv-x="727" 
d="M367 683q120 0 195 -59l51 60l51 -44l-56 -65q65 -91 65 -243q0 -53 -9 -100t-31 -91.5t-56 -77t-88 -52t-123 -19.5q-130 0 -206 57l-53 -62l-52 45l57 67q-58 83 -58 232q0 161 76.5 256.5t236.5 95.5zM548 332q0 89 -24 145l-289 -340q45 -48 130 -48q86 0 134.5 61.5
t48.5 181.5zM365 584q-101 0 -144 -66t-43 -186q0 -84 20 -134l288 339q-45 47 -121 47z" />
    <glyph glyph-name="Ugrave" unicode="&#xd9;" horiz-adv-x="696" 
d="M631 676v-405q0 -279 -278 -279q-157 0 -223 70.5t-66 209.5v404h121v-408q0 -99 43.5 -139t125.5 -40q72 0 115 44t43 136v407h119zM436 778l-43 -60l-198 97l66 92z" />
    <glyph glyph-name="Uacute" unicode="&#xda;" horiz-adv-x="696" 
d="M631 676v-405q0 -279 -278 -279q-157 0 -223 70.5t-66 209.5v404h121v-408q0 -99 43.5 -139t125.5 -40q72 0 115 44t43 136v407h119zM315 722l-40 61l174 128l65 -92z" />
    <glyph glyph-name="Ucircumflex" unicode="&#xdb;" horiz-adv-x="696" 
d="M631 676v-405q0 -279 -278 -279q-157 0 -223 70.5t-66 209.5v404h121v-408q0 -99 43.5 -139t125.5 -40q72 0 115 44t43 136v407h119zM481 722l-129 103l-133 -103l-46 45l141 144h81l135 -144z" />
    <glyph glyph-name="Udieresis" unicode="&#xdc;" horiz-adv-x="696" 
d="M631 676v-405q0 -279 -278 -279q-157 0 -223 70.5t-66 209.5v404h121v-408q0 -99 43.5 -139t125.5 -40q72 0 115 44t43 136v407h119zM196 807q0 25 17 42t42 17t42.5 -17t17.5 -42t-17.5 -42t-42.5 -17t-42 17t-17 42zM386 807q0 25 17 42t42 17t42.5 -17t17.5 -42
t-17.5 -42t-42.5 -17t-42 17t-17 42z" />
    <glyph glyph-name="Yacute" unicode="&#xdd;" horiz-adv-x="606" 
d="M297 361h8q29 74 80 169l78 145h129l-233 -416v-259h-121v258l-231 417h132l80 -151q50 -94 78 -163zM268 722l-40 61l174 128l65 -92z" />
    <glyph glyph-name="Thorn" unicode="&#xde;" horiz-adv-x="609" 
d="M70 0v677h118v-121h158q116 0 179.5 -60.5t63.5 -157.5q0 -37 -12.5 -72.5t-39 -69t-76 -53.5t-115.5 -20h-157v-123h-119zM342 470h-154v-260h154q54 0 92.5 31t38.5 98q0 61 -37 96t-94 35z" />
    <glyph glyph-name="germandbls" unicode="&#xdf;" horiz-adv-x="577" 
d="M278 714q100 0 154 -47t54 -128q0 -27 -16 -63t-53 -54v-5q53 -17 82 -69.5t29 -120.5q0 -96 -52 -165.5t-161 -69.5q-44 0 -68 8l16 85q17 -3 30 -3q57 0 86 42.5t31 109.5q0 137 -131 137v76q93 3 93 89q0 46 -25.5 69t-70.5 23q-39 0 -62.5 -26t-29.5 -54t-6 -60v-488
h-116v490q0 100 54.5 162t161.5 62z" />
    <glyph glyph-name="agrave" unicode="&#xe0;" horiz-adv-x="533" 
d="M475 324v-324h-93q-14 22 -15 67h-5q-25 -40 -68.5 -58t-88.5 -18q-78 0 -123.5 37t-45.5 110q0 162 234 162q35 0 89 -6v24q0 89 -94 89q-73 0 -87 -56h-104q-1 6 -1 16q0 46 32 76t73.5 41t88.5 11q115 0 161.5 -46t46.5 -125zM360 218q-38 7 -82 7q-125 0 -125 -82
q0 -29 22 -47t58 -18q60 0 93.5 33t33.5 76v31zM359 592l-55 -49l-163 147l83 74z" />
    <glyph glyph-name="aacute" unicode="&#xe1;" horiz-adv-x="533" 
d="M475 324v-324h-93q-14 22 -15 67h-5q-25 -40 -68.5 -58t-88.5 -18q-78 0 -123.5 37t-45.5 110q0 162 234 162q35 0 89 -6v24q0 89 -94 89q-73 0 -87 -56h-104q-1 6 -1 16q0 46 32 76t73.5 41t88.5 11q115 0 161.5 -46t46.5 -125zM360 218q-38 7 -82 7q-125 0 -125 -82
q0 -29 22 -47t58 -18q60 0 93.5 33t33.5 76v31zM254 544l-54 49l142 168l79 -74z" />
    <glyph glyph-name="acircumflex" unicode="&#xe2;" horiz-adv-x="533" 
d="M475 324v-324h-93q-14 22 -15 67h-5q-25 -40 -68.5 -58t-88.5 -18q-78 0 -123.5 37t-45.5 110q0 162 234 162q35 0 89 -6v24q0 89 -94 89q-73 0 -87 -56h-104q-1 6 -1 16q0 46 32 76t73.5 41t88.5 11q115 0 161.5 -46t46.5 -125zM360 218q-38 7 -82 7q-125 0 -125 -82
q0 -29 22 -47t58 -18q60 0 93.5 33t33.5 76v31zM401 546l-127 107l-134 -107l-46 45l141 150h81l137 -151z" />
    <glyph glyph-name="atilde" unicode="&#xe3;" horiz-adv-x="533" 
d="M475 324v-324h-93q-14 22 -15 67h-5q-25 -40 -68.5 -58t-88.5 -18q-78 0 -123.5 37t-45.5 110q0 162 234 162q35 0 89 -6v24q0 89 -94 89q-73 0 -87 -56h-104q-1 6 -1 16q0 46 32 76t73.5 41t88.5 11q115 0 161.5 -46t46.5 -125zM360 218q-38 7 -82 7q-125 0 -125 -82
q0 -29 22 -47t58 -18q60 0 93.5 33t33.5 76v31zM349 576q-26 0 -73.5 18t-68.5 18q-36 0 -72 -38l-49 38q16 41 46.5 64t67.5 23q22 0 67 -17.5t71 -17.5q37 0 71 36l50 -35q-12 -40 -43.5 -64.5t-66.5 -24.5z" />
    <glyph glyph-name="adieresis" unicode="&#xe4;" horiz-adv-x="533" 
d="M475 324v-324h-93q-14 22 -15 67h-5q-25 -40 -68.5 -58t-88.5 -18q-78 0 -123.5 37t-45.5 110q0 162 234 162q35 0 89 -6v24q0 89 -94 89q-73 0 -87 -56h-104q-1 6 -1 16q0 46 32 76t73.5 41t88.5 11q115 0 161.5 -46t46.5 -125zM360 218q-38 7 -82 7q-125 0 -125 -82
q0 -29 22 -47t58 -18q60 0 93.5 33t33.5 76v31zM112 627q0 25 17.5 42t41.5 17q25 0 42.5 -17t17.5 -42t-17.5 -42t-42.5 -17q-24 0 -41.5 17t-17.5 42zM302 627q0 25 17 42t42 17t42.5 -17t17.5 -42t-17.5 -42t-42.5 -17t-42 17t-17 42z" />
    <glyph glyph-name="aring" unicode="&#xe5;" horiz-adv-x="533" 
d="M475 324v-324h-93q-14 22 -15 67h-5q-25 -40 -68.5 -58t-88.5 -18q-78 0 -123.5 37t-45.5 110q0 162 234 162q35 0 89 -6v24q0 89 -94 89q-73 0 -87 -56h-104q-1 6 -1 16q0 46 32 76t73.5 41t88.5 11q115 0 161.5 -46t46.5 -125zM360 218q-38 7 -82 7q-125 0 -125 -82
q0 -29 22 -47t58 -18q60 0 93.5 33t33.5 76v31zM273 543q-48 0 -80 32t-32 79t32 80t80 33t81.5 -33t33.5 -80q0 -48 -33.5 -79.5t-81.5 -31.5zM273 705q-19 0 -33 -15.5t-14 -35.5t13 -35t34 -15q23 0 36 15t13 35q0 21 -13.5 36t-35.5 15z" />
    <glyph glyph-name="ae" unicode="&#xe6;" horiz-adv-x="867" 
d="M597 493q109 0 163.5 -59t54.5 -157q0 -30 -4 -55h-325q0 -70 26 -105.5t89 -35.5q93 0 104 74h106q1 -6 1 -17q0 -73 -61.5 -109.5t-149.5 -36.5q-144 0 -192 84q-86 -85 -206 -85q-77 0 -122.5 37t-45.5 106q0 158 245 158h85v21q0 42 -26.5 66.5t-74.5 24.5
q-74 0 -88 -55h-106q0 3 -0.5 8t-0.5 7q0 45 32.5 75t75 40.5t91.5 10.5q122 0 167 -60q58 63 162 63zM368 221h-104q-53 0 -81.5 -20.5t-28.5 -57.5q0 -30 22.5 -47.5t58.5 -17.5q83 0 143 64q-10 48 -10 79zM489 291h209q-2 112 -103 112q-48 0 -75 -30t-31 -82z" />
    <glyph glyph-name="ccedilla" unicode="&#xe7;" horiz-adv-x="524" 
d="M258 -228q-55 0 -111 19l15 50q46 -13 78 -13q30 0 48 11t18 30q0 38 -49 38q-27 0 -43 -10l-28 23l40 77q-178 27 -178 239q0 122 59 189.5t172 67.5q85 0 141.5 -38.5t56.5 -109.5q0 -10 -2 -20h-107q-3 40 -30 57t-58 17q-114 0 -114 -158q0 -76 26.5 -116t88.5 -40
q38 0 65.5 20t30.5 65h106q2 -14 2 -20q0 -74 -56 -115.5t-143 -42.5l-17 -32q69 -1 97.5 -29.5t28.5 -61.5q0 -42 -34.5 -69t-102.5 -28z" />
    <glyph glyph-name="egrave" unicode="&#xe8;" horiz-adv-x="548" 
d="M276 403q-48 0 -76 -28.5t-32 -79.5h211q-1 50 -27 79t-76 29zM278 493q108 0 162.5 -61t54.5 -155q0 -24 -5 -54h-326q0 -142 119 -142q91 0 101 74h106q1 -6 1 -17q0 -74 -60.5 -110t-148.5 -36q-234 0 -234 244q0 114 58 185.5t172 71.5zM357 592l-55 -49l-163 147
l83 74z" />
    <glyph glyph-name="eacute" unicode="&#xe9;" horiz-adv-x="548" 
d="M276 403q-48 0 -76 -28.5t-32 -79.5h211q-1 50 -27 79t-76 29zM278 493q108 0 162.5 -61t54.5 -155q0 -24 -5 -54h-326q0 -142 119 -142q91 0 101 74h106q1 -6 1 -17q0 -74 -60.5 -110t-148.5 -36q-234 0 -234 244q0 114 58 185.5t172 71.5zM273 544l-54 49l142 168
l79 -74z" />
    <glyph glyph-name="ecircumflex" unicode="&#xea;" horiz-adv-x="548" 
d="M276 403q-48 0 -76 -28.5t-32 -79.5h211q-1 50 -27 79t-76 29zM278 493q108 0 162.5 -61t54.5 -155q0 -24 -5 -54h-326q0 -142 119 -142q91 0 101 74h106q1 -6 1 -17q0 -74 -60.5 -110t-148.5 -36q-234 0 -234 244q0 114 58 185.5t172 71.5zM410 546l-127 107l-134 -107
l-46 45l141 150h81l137 -151z" />
    <glyph glyph-name="edieresis" unicode="&#xeb;" horiz-adv-x="548" 
d="M276 403q-48 0 -76 -28.5t-32 -79.5h211q-1 50 -27 79t-76 29zM278 493q108 0 162.5 -61t54.5 -155q0 -24 -5 -54h-326q0 -142 119 -142q91 0 101 74h106q1 -6 1 -17q0 -74 -60.5 -110t-148.5 -36q-234 0 -234 244q0 114 58 185.5t172 71.5zM129 627q0 25 17.5 42
t41.5 17q25 0 42.5 -17t17.5 -42t-17.5 -42t-42.5 -17q-24 0 -41.5 17t-17.5 42zM319 627q0 25 17 42t42 17t42.5 -17t17.5 -42t-17.5 -42t-42.5 -17t-42 17t-17 42z" />
    <glyph glyph-name="igrave" unicode="&#xec;" horiz-adv-x="279" 
d="M200 592l-55 -49l-163 147l83 74zM79 0v486h117v-486h-117z" />
    <glyph glyph-name="iacute" unicode="&#xed;" horiz-adv-x="279" 
d="M135 544l-54 49l142 168l79 -74zM79 0v486h117v-486h-117z" />
    <glyph glyph-name="icircumflex" unicode="&#xee;" horiz-adv-x="279" 
d="M79 0v486h117v-486h-117zM265 546l-127 107l-134 -107l-46 45l141 150h81l137 -151z" />
    <glyph glyph-name="idieresis" unicode="&#xef;" horiz-adv-x="279" 
d="M-16 627q0 25 17.5 42t41.5 17q25 0 42.5 -17t17.5 -42t-17.5 -42t-42.5 -17q-24 0 -41.5 17t-17.5 42zM174 627q0 25 17 42t42 17t42.5 -17t17.5 -42t-17.5 -42t-42.5 -17t-42 17t-17 42zM79 0v486h117v-486h-117z" />
    <glyph glyph-name="eth" unicode="&#xf0;" horiz-adv-x="573" 
d="M272 464q105 0 142 -64l5 1q-3 90 -51 148l-70 -53l-34 41l64 50q-53 40 -129 51l16 86q119 -16 192 -74l66 52l38 -42l-64 -49q79 -97 79 -309q0 -48 -6 -89t-22.5 -83t-43 -71t-70.5 -47.5t-101 -18.5q-122 0 -178 62.5t-56 169.5q0 105 57.5 172t165.5 67zM281 375
q-63 0 -92 -41.5t-29 -108.5q0 -145 121 -145q56 0 87 36.5t31 109.5q0 67 -28.5 108t-89.5 41z" />
    <glyph glyph-name="ntilde" unicode="&#xf1;" horiz-adv-x="564" 
d="M328 493q55 0 92 -16t55 -46.5t24.5 -63t6.5 -76.5v-291h-118v283q0 59 -22 91t-76 32q-57 0 -86 -42.5t-29 -95.5v-268h-118v486h94q20 -27 20 -71h4q27 40 70.5 59t82.5 19zM353 574q-26 0 -73.5 18t-68.5 18q-36 0 -72 -38l-49 38q16 41 46.5 64t67.5 23
q22 0 67 -17.5t71 -17.5q37 0 71 36l50 -35q-12 -40 -43.5 -64.5t-66.5 -24.5z" />
    <glyph glyph-name="ograve" unicode="&#xf2;" horiz-adv-x="577" 
d="M290 494q53 0 94.5 -14.5t68 -38t44 -56.5t24.5 -68t7 -75q0 -48 -12 -90.5t-38 -79t-74.5 -58t-113.5 -21.5q-241 0 -241 248q0 113 60.5 183t180.5 70zM290 401q-124 0 -124 -160q0 -158 124 -158q57 0 88 40t31 119q0 159 -119 159zM355 592l-55 -49l-163 147l83 74z
" />
    <glyph glyph-name="oacute" unicode="&#xf3;" horiz-adv-x="577" 
d="M290 494q53 0 94.5 -14.5t68 -38t44 -56.5t24.5 -68t7 -75q0 -48 -12 -90.5t-38 -79t-74.5 -58t-113.5 -21.5q-241 0 -241 248q0 113 60.5 183t180.5 70zM290 401q-124 0 -124 -160q0 -158 124 -158q57 0 88 40t31 119q0 159 -119 159zM285 544l-54 49l142 168l79 -74z
" />
    <glyph glyph-name="ocircumflex" unicode="&#xf4;" horiz-adv-x="577" 
d="M290 494q53 0 94.5 -14.5t68 -38t44 -56.5t24.5 -68t7 -75q0 -48 -12 -90.5t-38 -79t-74.5 -58t-113.5 -21.5q-241 0 -241 248q0 113 60.5 183t180.5 70zM290 401q-124 0 -124 -160q0 -158 124 -158q57 0 88 40t31 119q0 159 -119 159zM420 546l-127 107l-134 -107
l-46 45l141 150h81l137 -151z" />
    <glyph glyph-name="otilde" unicode="&#xf5;" horiz-adv-x="577" 
d="M290 494q53 0 94.5 -14.5t68 -38t44 -56.5t24.5 -68t7 -75q0 -48 -12 -90.5t-38 -79t-74.5 -58t-113.5 -21.5q-241 0 -241 248q0 113 60.5 183t180.5 70zM290 401q-124 0 -124 -160q0 -158 124 -158q57 0 88 40t31 119q0 159 -119 159zM360 574q-26 0 -73.5 18t-68.5 18
q-36 0 -72 -38l-49 38q16 41 46.5 64t67.5 23q23 0 68 -17.5t70 -17.5q37 0 71 36l50 -35q-12 -40 -43.5 -64.5t-66.5 -24.5z" />
    <glyph glyph-name="odieresis" unicode="&#xf6;" horiz-adv-x="577" 
d="M290 494q53 0 94.5 -14.5t68 -38t44 -56.5t24.5 -68t7 -75q0 -48 -12 -90.5t-38 -79t-74.5 -58t-113.5 -21.5q-241 0 -241 248q0 113 60.5 183t180.5 70zM290 401q-124 0 -124 -160q0 -158 124 -158q57 0 88 40t31 119q0 159 -119 159zM132 627q0 25 17.5 42t41.5 17
q25 0 42.5 -17t17.5 -42t-17.5 -42t-42.5 -17q-24 0 -41.5 17t-17.5 42zM322 627q0 25 17 42t42 17t42.5 -17t17.5 -42t-17.5 -42t-42.5 -17t-42 17t-17 42z" />
    <glyph glyph-name="divide" unicode="&#xf7;" horiz-adv-x="630" 
d="M525 222h-421v87h421v-87zM256 417q0 27 18.5 45.5t45.5 18.5q26 0 45 -18.5t19 -45.5q0 -26 -19 -45t-45 -19q-27 0 -45.5 19t-18.5 45zM256 112q0 27 18.5 46t45.5 19q26 0 45 -19t19 -46q0 -26 -19 -44.5t-45 -18.5q-27 0 -45.5 18.5t-18.5 44.5z" />
    <glyph glyph-name="oslash" unicode="&#xf8;" horiz-adv-x="577" 
d="M290 494q97 0 156 -49l49 49l42 -41l-51 -52q42 -63 42 -159q0 -48 -12 -90.5t-38 -79t-74.5 -58t-113.5 -21.5q-104 0 -162 47l-47 -46l-42 42l48 48q-38 59 -38 157q0 113 60.5 183t180.5 70zM409 242q0 42 -9 73l-197 -200q29 -32 87 -32q57 0 88 40t31 119zM290 401
q-124 0 -124 -160q0 -40 10 -69l196 198q-29 31 -82 31z" />
    <glyph glyph-name="ugrave" unicode="&#xf9;" horiz-adv-x="553" 
d="M384 70h-4q-28 -41 -70.5 -59.5t-79.5 -18.5q-53 0 -89 15t-53 43.5t-23.5 58t-6.5 69.5v308h118v-285q0 -61 18.5 -90.5t74.5 -29.5q54 0 81.5 41t27.5 94v270h117v-486h-93q-18 26 -18 70zM343 592l-55 -49l-163 147l83 74z" />
    <glyph glyph-name="uacute" unicode="&#xfa;" horiz-adv-x="553" 
d="M384 70h-4q-28 -41 -70.5 -59.5t-79.5 -18.5q-53 0 -89 15t-53 43.5t-23.5 58t-6.5 69.5v308h118v-285q0 -61 18.5 -90.5t74.5 -29.5q54 0 81.5 41t27.5 94v270h117v-486h-93q-18 26 -18 70zM269 544l-54 49l142 168l79 -74z" />
    <glyph glyph-name="ucircumflex" unicode="&#xfb;" horiz-adv-x="553" 
d="M384 70h-4q-28 -41 -70.5 -59.5t-79.5 -18.5q-53 0 -89 15t-53 43.5t-23.5 58t-6.5 69.5v308h118v-285q0 -61 18.5 -90.5t74.5 -29.5q54 0 81.5 41t27.5 94v270h117v-486h-93q-18 26 -18 70zM404 546l-127 107l-134 -107l-46 45l141 150h81l137 -151z" />
    <glyph glyph-name="udieresis" unicode="&#xfc;" horiz-adv-x="553" 
d="M384 70h-4q-28 -41 -70.5 -59.5t-79.5 -18.5q-53 0 -89 15t-53 43.5t-23.5 58t-6.5 69.5v308h118v-285q0 -61 18.5 -90.5t74.5 -29.5q54 0 81.5 41t27.5 94v270h117v-486h-93q-18 26 -18 70zM123 627q0 25 17.5 42t41.5 17q25 0 42.5 -17t17.5 -42t-17.5 -42t-42.5 -17
q-24 0 -41.5 17t-17.5 42zM313 627q0 25 17 42t42 17t42.5 -17t17.5 -42t-17.5 -42t-42.5 -17t-42 17t-17 42z" />
    <glyph glyph-name="yacute" unicode="&#xfd;" horiz-adv-x="491" 
d="M236 86h8q9 35 52 175l69 224h114l-184 -544q-26 -74 -66 -111.5t-117 -37.5h-66v91h51q35 0 54.5 12.5t33.5 43.5l21 61q-29 0 -43 -1q-23 85 -48 164.5l-57.5 176l-48.5 145.5h120l63 -228q40 -151 44 -171zM240 544l-54 49l142 168l79 -74z" />
    <glyph glyph-name="thorn" unicode="&#xfe;" horiz-adv-x="574" 
d="M322 493q204 0 204 -248q0 -116 -54.5 -184.5t-158.5 -68.5q-99 0 -135 50h-5v-246h-116v915h116v-173q0 -73 -9 -115h5q52 70 153 70zM290 402q-54 0 -85.5 -35.5t-31.5 -91.5v-55q0 -143 117 -143q115 0 115 165q0 82 -28 121t-87 39z" />
    <glyph glyph-name="ydieresis" unicode="&#xff;" horiz-adv-x="491" 
d="M236 86h8q9 35 52 175l69 224h114l-184 -544q-26 -74 -66 -111.5t-117 -37.5h-66v91h51q35 0 54.5 12.5t33.5 43.5l21 61q-29 0 -43 -1q-23 85 -48 164.5l-57.5 176l-48.5 145.5h120l63 -228q40 -151 44 -171zM89 627q0 25 17.5 42t41.5 17q25 0 42.5 -17t17.5 -42
t-17.5 -42t-42.5 -17q-24 0 -41.5 17t-17.5 42zM279 627q0 25 17 42t42 17t42.5 -17t17.5 -42t-17.5 -42t-42.5 -17t-42 17t-17 42z" />
    <glyph glyph-name="Amacron" unicode="&#x100;" horiz-adv-x="657" 
d="M517 0l-58 163h-268l-58 -163h-125l257 678h126l254 -678h-128zM329 551h-6q-9 -35 -49 -155l-49 -139h201l-47 133q-42 129 -50 161zM167 762v83h316v-83h-316z" />
    <glyph glyph-name="amacron" unicode="&#x101;" horiz-adv-x="533" 
d="M475 324v-324h-93q-14 22 -15 67h-5q-25 -40 -68.5 -58t-88.5 -18q-78 0 -123.5 37t-45.5 110q0 162 234 162q35 0 89 -6v24q0 89 -94 89q-73 0 -87 -56h-104q-1 6 -1 16q0 46 32 76t73.5 41t88.5 11q115 0 161.5 -46t46.5 -125zM360 218q-38 7 -82 7q-125 0 -125 -82
q0 -29 22 -47t58 -18q60 0 93.5 33t33.5 76v31zM106 598v83h319v-83h-319z" />
    <glyph glyph-name="Abreve" unicode="&#x102;" horiz-adv-x="657" 
d="M517 0l-58 163h-268l-58 -163h-125l257 678h126l254 -678h-128zM329 551h-6q-9 -35 -49 -155l-49 -139h201l-47 133q-42 129 -50 161zM325 728q-43 0 -76 17.5t-52 45.5t-29.5 56t-12.5 56h79q4 -38 26.5 -66t64.5 -28t64.5 28t26.5 66h79q-2 -28 -12.5 -56t-29.5 -56
t-52 -45.5t-76 -17.5z" />
    <glyph glyph-name="abreve" unicode="&#x103;" horiz-adv-x="533" 
d="M475 324v-324h-93q-14 22 -15 67h-5q-25 -40 -68.5 -58t-88.5 -18q-78 0 -123.5 37t-45.5 110q0 162 234 162q35 0 89 -6v24q0 89 -94 89q-73 0 -87 -56h-104q-1 6 -1 16q0 46 32 76t73.5 41t88.5 11q115 0 161.5 -46t46.5 -125zM360 218q-38 7 -82 7q-125 0 -125 -82
q0 -29 22 -47t58 -18q60 0 93.5 33t33.5 76v31zM278 549q-43 0 -76.5 16.5t-52.5 43t-29.5 53.5t-12.5 55h80q4 -37 26 -62t65 -25q42 0 64 25t26 62h80q-2 -28 -12.5 -55t-29.5 -53.5t-52 -43t-76 -16.5z" />
    <glyph glyph-name="Aogonek" unicode="&#x104;" horiz-adv-x="657" 
d="M645 0h-84q-48 -59 -48 -110q0 -53 70 -53q27 0 67 10l10 -42q-56 -28 -120 -28q-55 0 -85.5 21.5t-30.5 58.5q0 33 22.5 72.5t68.5 75.5l-56 158h-268l-58 -163h-125l257 678h126zM329 551h-6q-9 -35 -49 -155l-49 -139h201l-47 133q-42 129 -50 161z" />
    <glyph glyph-name="aogonek" unicode="&#x105;" horiz-adv-x="533" 
d="M475 324v-324h-56q-47 -58 -47 -109q0 -53 70 -53q29 0 67 10l10 -42q-56 -28 -120 -28q-55 0 -85 21.5t-30 58.5q0 79 93 150q-10 26 -10 59h-5q-25 -40 -68.5 -58t-88.5 -18q-78 0 -123.5 37t-45.5 110q0 162 234 162q35 0 89 -6v24q0 89 -94 89q-73 0 -87 -56h-104
q-1 6 -1 16q0 46 32 76t73.5 41t88.5 11q115 0 161.5 -46t46.5 -125zM360 218q-38 7 -82 7q-125 0 -125 -82q0 -29 22 -47t58 -18q60 0 93.5 33t33.5 76v31z" />
    <glyph glyph-name="Cacute" unicode="&#x106;" horiz-adv-x="654" 
d="M178 335q0 -119 42 -181.5t138 -62.5q70 0 107.5 36t38.5 95h116q2 -12 2 -23q0 -98 -75.5 -152.5t-184.5 -54.5q-161 0 -234.5 86.5t-73.5 256.5q0 164 78.5 255.5t225.5 91.5q106 0 180.5 -53t74.5 -148q0 -10 -2 -20h-116q-3 57 -39.5 89t-101.5 32q-176 0 -176 -247z
M308 722l-40 61l174 128l65 -92z" />
    <glyph glyph-name="cacute" unicode="&#x107;" horiz-adv-x="524" 
d="M279 493q85 0 141.5 -38.5t56.5 -109.5q0 -10 -2 -20h-107q-3 40 -30 57t-58 17q-114 0 -114 -158q0 -76 26.5 -116t88.5 -40q38 0 65.5 20t30.5 65h106q2 -14 2 -20q0 -75 -56.5 -116.5t-141.5 -41.5q-239 0 -239 244q0 122 59 189.5t172 67.5zM254 544l-54 49l142 168
l79 -74z" />
    <glyph glyph-name="Ccircumflex" unicode="&#x108;" horiz-adv-x="654" 
d="M178 335q0 -119 42 -181.5t138 -62.5q70 0 107.5 36t38.5 95h116q2 -12 2 -23q0 -98 -75.5 -152.5t-184.5 -54.5q-161 0 -234.5 86.5t-73.5 256.5q0 164 78.5 255.5t225.5 91.5q106 0 180.5 -53t74.5 -148q0 -10 -2 -20h-116q-3 57 -39.5 89t-101.5 32q-176 0 -176 -247z
M482 722l-129 103l-133 -103l-46 45l141 144h81l135 -144z" />
    <glyph glyph-name="ccircumflex" unicode="&#x109;" horiz-adv-x="524" 
d="M279 493q85 0 141.5 -38.5t56.5 -109.5q0 -10 -2 -20h-107q-3 40 -30 57t-58 17q-114 0 -114 -158q0 -76 26.5 -116t88.5 -40q38 0 65.5 20t30.5 65h106q2 -14 2 -20q0 -75 -56.5 -116.5t-141.5 -41.5q-239 0 -239 244q0 122 59 189.5t172 67.5zM398 546l-127 107
l-134 -107l-46 45l141 150h81l137 -151z" />
    <glyph glyph-name="Cdotaccent" unicode="&#x10a;" horiz-adv-x="654" 
d="M178 335q0 -119 42 -181.5t138 -62.5q70 0 107.5 36t38.5 95h116q2 -12 2 -23q0 -98 -75.5 -152.5t-184.5 -54.5q-161 0 -234.5 86.5t-73.5 256.5q0 164 78.5 255.5t225.5 91.5q106 0 180.5 -53t74.5 -148q0 -10 -2 -20h-116q-3 57 -39.5 89t-101.5 32q-176 0 -176 -247z
M289 809q0 26 18.5 45t44.5 19t45 -19t19 -45t-19 -45t-45 -19t-44.5 19t-18.5 45z" />
    <glyph glyph-name="cdotaccent" unicode="&#x10b;" horiz-adv-x="524" 
d="M279 493q85 0 141.5 -38.5t56.5 -109.5q0 -10 -2 -20h-107q-3 40 -30 57t-58 17q-114 0 -114 -158q0 -76 26.5 -116t88.5 -40q38 0 65.5 20t30.5 65h106q2 -14 2 -20q0 -75 -56.5 -116.5t-141.5 -41.5q-239 0 -239 244q0 122 59 189.5t172 67.5zM210 639q0 26 18.5 45
t44.5 19t45 -19t19 -45t-19 -45t-45 -19t-44.5 19t-18.5 45z" />
    <glyph glyph-name="Ccaron" unicode="&#x10c;" horiz-adv-x="654" 
d="M178 335q0 -119 42 -181.5t138 -62.5q70 0 107.5 36t38.5 95h116q2 -12 2 -23q0 -98 -75.5 -152.5t-184.5 -54.5q-161 0 -234.5 86.5t-73.5 256.5q0 164 78.5 255.5t225.5 91.5q106 0 180.5 -53t74.5 -148q0 -10 -2 -20h-116q-3 57 -39.5 89t-101.5 32q-176 0 -176 -247z
M349 813l128 101l52 -45l-138 -145h-81l-141 145l46 45z" />
    <glyph glyph-name="ccaron" unicode="&#x10d;" horiz-adv-x="524" 
d="M279 493q85 0 141.5 -38.5t56.5 -109.5q0 -10 -2 -20h-107q-3 40 -30 57t-58 17q-114 0 -114 -158q0 -76 26.5 -116t88.5 -40q38 0 65.5 20t30.5 65h106q2 -14 2 -20q0 -75 -56.5 -116.5t-141.5 -41.5q-239 0 -239 244q0 122 59 189.5t172 67.5zM279 637l127 102l50 -44
l-135 -146h-81l-141 145l46 45z" />
    <glyph glyph-name="Dcaron" unicode="&#x10e;" horiz-adv-x="664" 
d="M184 99h79q42 0 78.5 10t72 34t56.5 73.5t21 119.5q0 74 -22 125t-59 74.5t-72 32.5t-75 9h-79v-478zM64 0v676h220q51 0 96.5 -10t88.5 -35.5t74.5 -63.5t50.5 -97.5t19 -135.5q0 -155 -90 -244.5t-239 -89.5h-220zM292 813l128 101l52 -45l-138 -145h-81l-141 145
l46 45z" />
    <glyph glyph-name="dcaron" unicode="&#x10f;" horiz-adv-x="725" 
d="M251 -7q-203 0 -203 245q0 117 55.5 186.5t161.5 69.5q83 0 132 -47h4v263h116v-710h-93q-15 22 -15 67h-4q-48 -74 -154 -74zM285 81q53 0 85 36.5t32 93.5v69q0 48 -27 85.5t-89 37.5q-59 0 -89 -43.5t-30 -118.5q0 -160 118 -160zM589 653q0 27 18.5 45.5t44.5 18.5
q28 0 46 -17.5t18 -44.5q0 -17 -8 -36l-75 -144l-36 13l34 106q-19 5 -30.5 21.5t-11.5 37.5z" />
    <glyph glyph-name="Dcroat" unicode="&#x110;" horiz-adv-x="664" 
d="M64 381v295h220q51 0 96.5 -10t88.5 -35.5t74.5 -63.5t50.5 -97.5t19 -135.5q0 -155 -90 -244.5t-239 -89.5h-220v308h-57v73h57zM184 99h79q42 0 78.5 10t72 34t56.5 73.5t21 119.5q0 74 -22 125t-59 74.5t-72 32.5t-75 9h-79v-196h147v-73h-147v-209z" />
    <glyph glyph-name="dcroat" unicode="&#x111;" horiz-adv-x="575" 
d="M251 -7q-58 0 -99 18t-63 51.5t-31.5 74.5t-9.5 94q0 120 57 184.5t173 64.5q76 -3 119 -46h4v125h-151v64h151v87h116v-87h54v-64h-54v-559h-93q-15 22 -15 67h-4q-48 -74 -154 -74zM285 81q53 0 84.5 36t31.5 91v66q0 45 -27 80.5t-88 35.5q-57 0 -87 -41.5t-30 -113.5
q0 -81 28 -117.5t88 -36.5z" />
    <glyph glyph-name="Emacron" unicode="&#x112;" horiz-adv-x="584" 
d="M64 0v676h469v-99h-349v-177h318v-100h-318v-200h358v-100h-478zM139 769v83h316v-83h-316z" />
    <glyph glyph-name="emacron" unicode="&#x113;" horiz-adv-x="548" 
d="M276 403q-48 0 -76 -28.5t-32 -79.5h211q-1 50 -27 79t-76 29zM278 493q108 0 162.5 -61t54.5 -155q0 -24 -5 -54h-326q0 -142 119 -142q91 0 101 74h106q1 -6 1 -17q0 -74 -60.5 -110t-148.5 -36q-234 0 -234 244q0 114 58 185.5t172 71.5zM120 598v83h319v-83h-319z
" />
    <glyph glyph-name="Ebreve" unicode="&#x114;" horiz-adv-x="584" 
d="M64 0v676h469v-99h-349v-177h318v-100h-318v-200h358v-100h-478zM300 728q-43 0 -76 17.5t-52 45.5t-29.5 56t-12.5 56h79q4 -38 26.5 -66t64.5 -28t64.5 28t26.5 66h79q-2 -28 -12.5 -56t-29.5 -56t-52 -45.5t-76 -17.5z" />
    <glyph glyph-name="ebreve" unicode="&#x115;" horiz-adv-x="548" 
d="M276 403q-48 0 -76 -28.5t-32 -79.5h211q-1 50 -27 79t-76 29zM278 493q108 0 162.5 -61t54.5 -155q0 -24 -5 -54h-326q0 -142 119 -142q91 0 101 74h106q1 -6 1 -17q0 -74 -60.5 -110t-148.5 -36q-234 0 -234 244q0 114 58 185.5t172 71.5zM284 549q-43 0 -76.5 16.5
t-52.5 43t-29.5 53.5t-12.5 55h80q4 -37 26 -62t65 -25q42 0 64 25t26 62h80q-2 -28 -12.5 -55t-29.5 -53.5t-52 -43t-76 -16.5z" />
    <glyph glyph-name="Edotaccent" unicode="&#x116;" horiz-adv-x="584" 
d="M64 0v676h469v-99h-349v-177h318v-100h-318v-200h358v-100h-478zM247 809q0 26 18.5 45t44.5 19t45 -19t19 -45t-19 -45t-45 -19t-44.5 19t-18.5 45z" />
    <glyph glyph-name="edotaccent" unicode="&#x117;" horiz-adv-x="548" 
d="M276 403q-48 0 -76 -28.5t-32 -79.5h211q-1 50 -27 79t-76 29zM278 493q108 0 162.5 -61t54.5 -155q0 -24 -5 -54h-326q0 -142 119 -142q91 0 101 74h106q1 -6 1 -17q0 -74 -60.5 -110t-148.5 -36q-234 0 -234 244q0 114 58 185.5t172 71.5zM222 639q0 26 18.5 45
t44.5 19t45 -19t19 -45t-19 -45t-45 -19t-44.5 19t-18.5 45z" />
    <glyph glyph-name="Eogonek" unicode="&#x118;" horiz-adv-x="584" 
d="M64 0v676h469v-99h-349v-177h318v-100h-318v-200h358v-100h-33q-54 -62 -54 -116t70 -54q17 0 67 10l10 -41q-58 -29 -120 -29q-55 0 -85.5 21.5t-30.5 58.5q0 79 93 150h-395z" />
    <glyph glyph-name="eogonek" unicode="&#x119;" horiz-adv-x="548" 
d="M278 493q107 0 162.5 -60t55.5 -153q0 -28 -6 -57h-326q0 -135 131 -135q40 0 62.5 19t26.5 48h106q1 -6 1 -17q0 -78 -75 -119q-40 -51 -40 -95q0 -34 16.5 -46t51.5 -12q29 0 67 10l11 -42q-58 -28 -121 -28q-55 0 -85 21.5t-30 58.5q0 54 49 110q-34 -4 -53 -4
q-120 1 -177 61.5t-57 182.5q0 114 58 185.5t172 71.5zM276 403q-48 0 -76 -28.5t-32 -79.5h211q-1 50 -27 79t-76 29z" />
    <glyph glyph-name="Ecaron" unicode="&#x11a;" horiz-adv-x="584" 
d="M64 0v676h469v-99h-349v-177h318v-100h-318v-200h358v-100h-478zM303 813l128 101l52 -45l-138 -145h-81l-141 145l46 45z" />
    <glyph glyph-name="ecaron" unicode="&#x11b;" horiz-adv-x="548" 
d="M276 403q-48 0 -76 -28.5t-32 -79.5h211q-1 50 -27 79t-76 29zM278 493q108 0 162.5 -61t54.5 -155q0 -24 -5 -54h-326q0 -142 119 -142q91 0 101 74h106q1 -6 1 -17q0 -74 -60.5 -110t-148.5 -36q-234 0 -234 244q0 114 58 185.5t172 71.5zM277 637l127 102l50 -44
l-135 -146h-81l-141 145l46 45z" />
    <glyph glyph-name="Gcircumflex" unicode="&#x11c;" horiz-adv-x="690" 
d="M177 335q0 -123 43.5 -184.5t140.5 -61.5q87 0 125.5 41.5t38.5 107.5v36h-128v91h246v-111q0 -126 -74 -195t-209 -69q-306 0 -306 345q0 164 78.5 257t227.5 93q110 0 184 -50.5t74 -146.5q0 -8 -2 -20h-115q-3 53 -39.5 84t-102.5 31q-182 0 -182 -248zM483 722
l-129 103l-133 -103l-46 45l141 144h81l135 -144z" />
    <glyph glyph-name="gcircumflex" unicode="&#x11d;" horiz-adv-x="588" 
d="M162 -72q0 -28 31.5 -46t92.5 -18t99 16.5t38 49.5q0 22 -22.5 37.5t-86.5 23.5l-99 12q-53 -31 -53 -75zM291 495q51 0 96 -12h172v-53q-27 -11 -69 -13l-2 -7q34 -38 34 -99q0 -80 -60.5 -130.5t-167.5 -50.5q-73 0 -118 17q-12 -12 -12 -23q0 -12 13 -21.5t35 -12.5
l168 -24q163 -22 163 -134q0 -78 -73 -115t-191 -37q-235 0 -235 141q0 66 69 110q-28 13 -43 35.5t-15 45.5q0 47 48 81q-44 44 -44 116q0 79 58 132.5t174 53.5zM291 409q-63 0 -91 -27.5t-28 -70.5t29 -70t90 -27q56 0 85.5 27.5t29.5 69.5t-27.5 70t-87.5 28zM421 546
l-127 107l-134 -107l-46 45l141 150h81l137 -151z" />
    <glyph glyph-name="Gbreve" unicode="&#x11e;" horiz-adv-x="690" 
d="M177 335q0 -123 43.5 -184.5t140.5 -61.5q87 0 125.5 41.5t38.5 107.5v36h-128v91h246v-111q0 -126 -74 -195t-209 -69q-306 0 -306 345q0 164 78.5 257t227.5 93q110 0 184 -50.5t74 -146.5q0 -8 -2 -20h-115q-3 53 -39.5 84t-102.5 31q-182 0 -182 -248zM359 728
q-43 0 -76 17.5t-52 45.5t-29.5 56t-12.5 56h79q4 -38 26.5 -66t64.5 -28t64.5 28t26.5 66h79q-2 -28 -12.5 -56t-29.5 -56t-52 -45.5t-76 -17.5z" />
    <glyph glyph-name="gbreve" unicode="&#x11f;" horiz-adv-x="588" 
d="M162 -72q0 -28 31.5 -46t92.5 -18t99 16.5t38 49.5q0 22 -22.5 37.5t-86.5 23.5l-99 12q-53 -31 -53 -75zM291 495q51 0 96 -12h172v-53q-27 -11 -69 -13l-2 -7q34 -38 34 -99q0 -80 -60.5 -130.5t-167.5 -50.5q-73 0 -118 17q-12 -12 -12 -23q0 -12 13 -21.5t35 -12.5
l168 -24q163 -22 163 -134q0 -78 -73 -115t-191 -37q-235 0 -235 141q0 66 69 110q-28 13 -43 35.5t-15 45.5q0 47 48 81q-44 44 -44 116q0 79 58 132.5t174 53.5zM291 409q-63 0 -91 -27.5t-28 -70.5t29 -70t90 -27q56 0 85.5 27.5t29.5 69.5t-27.5 70t-87.5 28zM292 549
q-43 0 -76.5 16.5t-52.5 43t-29.5 53.5t-12.5 55h80q4 -37 26 -62t65 -25q42 0 64 25t26 62h80q-2 -28 -12.5 -55t-29.5 -53.5t-52 -43t-76 -16.5z" />
    <glyph glyph-name="Gdotaccent" unicode="&#x120;" horiz-adv-x="690" 
d="M177 335q0 -123 43.5 -184.5t140.5 -61.5q87 0 125.5 41.5t38.5 107.5v36h-128v91h246v-111q0 -126 -74 -195t-209 -69q-306 0 -306 345q0 164 78.5 257t227.5 93q110 0 184 -50.5t74 -146.5q0 -8 -2 -20h-115q-3 53 -39.5 84t-102.5 31q-182 0 -182 -248zM299 810
q0 26 18.5 45t44.5 19t45 -19t19 -45t-19 -45t-45 -19t-44.5 19t-18.5 45z" />
    <glyph glyph-name="gdotaccent" unicode="&#x121;" horiz-adv-x="588" 
d="M162 -72q0 -28 31.5 -46t92.5 -18t99 16.5t38 49.5q0 22 -22.5 37.5t-86.5 23.5l-99 12q-53 -31 -53 -75zM291 495q51 0 96 -12h172v-53q-27 -11 -69 -13l-2 -7q34 -38 34 -99q0 -80 -60.5 -130.5t-167.5 -50.5q-73 0 -118 17q-12 -12 -12 -23q0 -12 13 -21.5t35 -12.5
l168 -24q163 -22 163 -134q0 -78 -73 -115t-191 -37q-235 0 -235 141q0 66 69 110q-28 13 -43 35.5t-15 45.5q0 47 48 81q-44 44 -44 116q0 79 58 132.5t174 53.5zM291 409q-63 0 -91 -27.5t-28 -70.5t29 -70t90 -27q56 0 85.5 27.5t29.5 69.5t-27.5 70t-87.5 28zM233 639
q0 26 18.5 45t44.5 19t45 -19t19 -45t-19 -45t-45 -19t-44.5 19t-18.5 45z" />
    <glyph glyph-name="Gcommaaccent" unicode="&#x122;" horiz-adv-x="690" 
d="M177 335q0 -123 43.5 -184.5t140.5 -61.5q87 0 125.5 41.5t38.5 107.5v36h-128v91h246v-111q0 -126 -74 -195t-209 -69q-306 0 -306 345q0 164 78.5 257t227.5 93q110 0 184 -50.5t74 -146.5q0 -8 -2 -20h-115q-3 53 -39.5 84t-102.5 31q-182 0 -182 -248zM289 -109
q0 27 18.5 45.5t44.5 18.5q28 0 46 -17.5t18 -44.5q0 -17 -8 -36l-75 -144l-36 13l34 106q-19 5 -30.5 21.5t-11.5 37.5z" />
    <glyph glyph-name="gcommaaccent" unicode="&#x123;" horiz-adv-x="588" 
d="M349 607q0 -27 -18.5 -45.5t-44.5 -18.5q-28 0 -46 18t-18 44q0 17 8 36l74 138l36 -13l-33 -101q19 -5 30.5 -21.5t11.5 -36.5zM162 -72q0 -28 31.5 -46t92.5 -18t99 16.5t38 49.5q0 22 -22.5 37.5t-86.5 23.5l-99 12q-53 -31 -53 -75zM291 495q51 0 96 -12h172v-53
q-27 -11 -69 -13l-2 -7q34 -38 34 -99q0 -80 -60.5 -130.5t-167.5 -50.5q-73 0 -118 17q-12 -12 -12 -23q0 -12 13 -21.5t35 -12.5l168 -24q163 -22 163 -134q0 -78 -73 -115t-191 -37q-235 0 -235 141q0 66 69 110q-28 13 -43 35.5t-15 45.5q0 47 48 81q-44 44 -44 116
q0 79 58 132.5t174 53.5zM291 409q-63 0 -91 -27.5t-28 -70.5t29 -70t90 -27q56 0 85.5 27.5t29.5 69.5t-27.5 70t-87.5 28z" />
    <glyph glyph-name="Hcircumflex" unicode="&#x124;" horiz-adv-x="697" 
d="M512 0v300h-328v-300h-120v676h120v-276h328v276h120v-676h-120zM477 722l-129 103l-133 -103l-46 45l141 144h81l135 -144z" />
    <glyph glyph-name="hcircumflex" unicode="&#x125;" horiz-adv-x="564" 
d="M161 407h5q24 43 68.5 65t93.5 22q45 0 78 -11.5t52 -29.5t30.5 -45.5t15 -54.5t3.5 -61v-292h-119v284q0 60 -21 91.5t-77 31.5q-58 0 -86.5 -43.5t-28.5 -97.5v-266h-117v712h115v-196q0 -69 -12 -109zM245 727l-129 103l-133 -103l-46 45l141 144h81l135 -144z" />
    <glyph glyph-name="Hbar" unicode="&#x126;" horiz-adv-x="697" 
d="M513 0v300h-329v-300h-120v527h-46v70h46v79h120v-79h329v79h119v-79h51v-70h-51v-527h-119zM184 400h329v127h-329v-127z" />
    <glyph glyph-name="hbar" unicode="&#x127;" horiz-adv-x="564" 
d="M161 393h5q24 43 68.5 64.5t93.5 21.5q55 0 92.5 -16t55.5 -46.5t24.5 -63t6.5 -76.5v-277h-119v270q0 60 -21.5 91t-76.5 31q-58 0 -86.5 -43t-28.5 -97v-252h-117v556h-51v68h51v88h115v-88h220v-68h-220v-40q0 -84 -12 -123z" />
    <glyph glyph-name="Itilde" unicode="&#x128;" horiz-adv-x="280" 
d="M80 0v676h121v-676h-121zM212 744q-26 0 -73.5 18t-68.5 18q-36 0 -72 -38l-49 38q16 41 46.5 64t67.5 23q23 0 68 -17.5t70 -17.5q37 0 71 36l50 -35q-12 -40 -43.5 -64.5t-66.5 -24.5z" />
    <glyph glyph-name="itilde" unicode="&#x129;" horiz-adv-x="279" 
d="M210 574q-26 0 -73.5 18t-68.5 18q-36 0 -72 -38l-49 38q16 41 46.5 64t67.5 23q23 0 68 -17.5t70 -17.5q37 0 71 36l50 -35q-12 -40 -43.5 -64.5t-66.5 -24.5zM79 0v486h117v-486h-117z" />
    <glyph glyph-name="Imacron" unicode="&#x12a;" horiz-adv-x="280" 
d="M80 0v676h121v-676h-121zM-17 762v83h316v-83h-316z" />
    <glyph glyph-name="imacron" unicode="&#x12b;" horiz-adv-x="279" 
d="M-19 598v83h319v-83h-319zM79 0v486h117v-486h-117z" />
    <glyph glyph-name="Ibreve" unicode="&#x12c;" horiz-adv-x="282" 
d="M93 0v676h121v-676h-121zM153 728q-43 0 -76 17.5t-52 45.5t-29.5 56t-12.5 56h79q4 -38 26.5 -66t64.5 -28t64.5 28t26.5 66h79q-2 -28 -12.5 -56t-29.5 -56t-52 -45.5t-76 -17.5z" />
    <glyph glyph-name="ibreve" unicode="&#x12d;" horiz-adv-x="279" 
d="M139 555q-43 0 -76.5 16.5t-52.5 43t-29.5 53.5t-12.5 55h80q4 -37 26 -62t65 -25q42 0 64 25t26 62h80q-2 -28 -12.5 -55t-29.5 -53.5t-52 -43t-76 -16.5zM79 0v486h117v-486h-117z" />
    <glyph glyph-name="Iogonek" unicode="&#x12e;" horiz-adv-x="280" 
d="M200 0h-70q-49 -58 -49 -110q0 -53 70 -53q22 0 67 9l10 -41q-56 -28 -120 -28q-55 0 -85 21t-30 58q0 78 86 146v673h121v-675z" />
    <glyph glyph-name="iogonek" unicode="&#x12f;" horiz-adv-x="279" 
d="M196 0h-66q-46 -58 -46 -107q0 -54 70 -54q20 0 67 10l11 -41q-60 -29 -121 -29q-55 0 -85 21.5t-30 58.5q0 75 83 142v485h117v-486zM71 619q0 30 17.5 48t49.5 18q33 0 51 -18t18 -48q0 -68 -69 -68q-67 0 -67 68z" />
    <glyph glyph-name="Idotaccent" unicode="&#x130;" horiz-adv-x="280" 
d="M80 0v676h121v-676h-121zM76 809q0 26 18.5 45t44.5 19t45 -19t19 -45t-19 -45t-45 -19t-44.5 19t-18.5 45z" />
    <glyph glyph-name="dotlessi" unicode="&#x131;" horiz-adv-x="279" 
d="M79 0v486h117v-486h-117z" />
    <glyph glyph-name="IJ" unicode="&#x132;" horiz-adv-x="803" 
d="M76 0v676h121v-676h-121zM482 -8q-106 0 -169 44.5t-63 129.5q0 18 3 38h114q2 -110 117 -113q74 0 101 38t27 109v438h119v-448q0 -236 -249 -236z" />
    <glyph glyph-name="ij" unicode="&#x133;" horiz-adv-x="519" 
d="M79 0v486h117v-486h-117zM71 618q0 29 20 49t48 20q29 0 49.5 -20t20.5 -49q0 -28 -20.5 -48t-49.5 -20q-28 0 -48 20t-20 48zM320 -204h-64v94h20q30 0 40.5 14t10.5 45v537h118v-550q0 -67 -28 -103.5t-97 -36.5zM318 618q0 29 20 49t48 20q29 0 49.5 -20t20.5 -49
q0 -28 -20.5 -48t-49.5 -20q-28 0 -48 20t-20 48z" />
    <glyph glyph-name="Jcircumflex" unicode="&#x134;" horiz-adv-x="575" 
d="M250 -8q-105 0 -168.5 44.5t-63.5 129.5q0 18 3 38h114q2 -110 117 -113q74 0 101 38t27 109v438h119v-448q0 -236 -249 -236zM568 724l-129 103l-133 -103l-46 45l141 144h81l135 -144z" />
    <glyph glyph-name="jcircumflex" unicode="&#x135;" horiz-adv-x="257" 
d="M67 -193h-62v93h23q27 0 37 13.5t10 39.5v533h115v-541q0 -138 -123 -138zM260 546l-127 107l-134 -107l-46 45l141 150h81l137 -151z" />
    <glyph glyph-name="Kcommaaccent" unicode="&#x136;" horiz-adv-x="612" 
d="M184 676v-268h73l213 268h139l-257 -316l266 -360h-148l-217 306h-69v-306h-120v676h120zM238 -89q0 27 18.5 45.5t44.5 18.5q28 0 46 -17.5t18 -44.5q0 -17 -8 -36l-75 -144l-36 13l34 106q-19 5 -30.5 21.5t-11.5 37.5z" />
    <glyph glyph-name="kcommaaccent" unicode="&#x137;" horiz-adv-x="521" 
d="M378 485h129l-181 -218l192 -267h-137l-151 221h-56v-221h-116v711h116v-398h65zM193 -109q0 27 18.5 45.5t44.5 18.5q28 0 46 -17.5t18 -44.5q0 -17 -8 -36l-75 -144l-36 13l34 106q-19 5 -30.5 21.5t-11.5 37.5z" />
    <glyph glyph-name="kgreenlandic" unicode="&#x138;" horiz-adv-x="519" 
d="M173 486v-183h61l145 182h128l-180 -224l187 -261h-136l-144 211h-61v-211h-116v486h116z" />
    <glyph glyph-name="Lacute" unicode="&#x139;" horiz-adv-x="547" 
d="M66 0v676h121v-576h349v-100h-470zM114 722l-40 61l174 128l65 -92z" />
    <glyph glyph-name="lacute" unicode="&#x13a;" horiz-adv-x="266" 
d="M68 114v597h115v-588q0 -25 9 -32t42 -8v-84q-36 -7 -64 -7q-62 0 -82 28t-20 94zM119 758l-40 61l174 128l65 -92z" />
    <glyph glyph-name="Lcommaaccent" unicode="&#x13b;" horiz-adv-x="547" 
d="M66 0v676h121v-576h349v-100h-470zM208 -109q0 27 18.5 45.5t44.5 18.5q28 0 46 -17.5t18 -44.5q0 -17 -8 -36l-75 -144l-36 13l34 106q-19 5 -30.5 21.5t-11.5 37.5z" />
    <glyph glyph-name="lcommaaccent" unicode="&#x13c;" horiz-adv-x="266" 
d="M68 114v597h115v-588q0 -25 9 -32t42 -8v-84q-36 -7 -64 -7q-62 0 -82 28t-20 94zM81 -109q0 27 18.5 45.5t44.5 18.5q28 0 46 -17.5t18 -44.5q0 -17 -8 -36l-75 -144l-36 13l34 106q-19 5 -30.5 21.5t-11.5 37.5z" />
    <glyph glyph-name="Lcaron" unicode="&#x13d;" horiz-adv-x="547" 
d="M66 0v676h121v-576h349v-100h-470zM332 619q0 27 18.5 45.5t44.5 18.5q28 0 46 -17.5t18 -44.5q0 -17 -8 -36l-75 -144l-36 13l34 106q-19 5 -30.5 21.5t-11.5 37.5z" />
    <glyph glyph-name="lcaron" unicode="&#x13e;" horiz-adv-x="355" 
d="M54 114v597h115v-588q0 -25 9 -32t42 -8v-84q-36 -7 -64 -7q-62 0 -82 28t-20 94zM234 656q0 27 18.5 45.5t44.5 18.5q28 0 46 -17.5t18 -44.5q0 -17 -8 -36l-75 -144l-36 13l34 106q-19 5 -30.5 21.5t-11.5 37.5z" />
    <glyph glyph-name="Ldot" unicode="&#x13f;" horiz-adv-x="547" 
d="M66 0v676h121v-576h349v-100h-470zM320 393q0 26 18.5 45t44.5 19t45 -19t19 -45t-19 -45t-45 -19t-44.5 19t-18.5 45z" />
    <glyph glyph-name="ldot" unicode="&#x140;" horiz-adv-x="367" 
d="M61 114v597h115v-588q0 -25 9 -32t42 -8v-84q-36 -7 -64 -7q-62 0 -82 28t-20 94zM236 402q0 26 18.5 45t44.5 19t45 -19t19 -45t-19 -45t-45 -19t-44.5 19t-18.5 45z" />
    <glyph glyph-name="Lslash" unicode="&#x141;" horiz-adv-x="547" 
d="M66 0v224l-63 -33l-30 62l93 50v373h121v-310l158 87l32 -62l-190 -103v-188h349v-100h-470z" />
    <glyph glyph-name="lslash" unicode="&#x142;" horiz-adv-x="266" 
d="M68 114v127l-71 -41l-33 61l104 60v390h115v-323l79 46l33 -61l-112 -65v-185q0 -25 9 -32t42 -8v-84q-36 -7 -64 -7q-62 0 -82 28t-20 94z" />
    <glyph glyph-name="Nacute" unicode="&#x143;" horiz-adv-x="697" 
d="M508 196l7 1v479h119v-676h-109l-220 310q-82 116 -116 176l-5 -2v-484h-121v676h113l197 -276q68 -95 135 -204zM316 722l-40 61l174 128l65 -92z" />
    <glyph glyph-name="nacute" unicode="&#x144;" horiz-adv-x="564" 
d="M328 493q55 0 92 -16t55 -46.5t24.5 -63t6.5 -76.5v-291h-118v283q0 59 -22 91t-76 32q-57 0 -86 -42.5t-29 -95.5v-268h-118v486h94q20 -27 20 -71h4q27 40 70.5 59t82.5 19zM242 544l-54 49l142 168l79 -74z" />
    <glyph glyph-name="Ncommaaccent" unicode="&#x145;" horiz-adv-x="697" 
d="M508 196l7 1v479h119v-676h-109l-220 310q-82 116 -116 176l-5 -2v-484h-121v676h113l197 -276q68 -95 135 -204zM286 -89q0 27 18.5 45.5t44.5 18.5q28 0 46 -17.5t18 -44.5q0 -17 -8 -36l-75 -144l-36 13l34 106q-19 5 -30.5 21.5t-11.5 37.5z" />
    <glyph glyph-name="ncommaaccent" unicode="&#x146;" horiz-adv-x="564" 
d="M328 493q55 0 92 -16t55 -46.5t24.5 -63t6.5 -76.5v-291h-118v283q0 59 -22 91t-76 32q-57 0 -86 -42.5t-29 -95.5v-268h-118v486h94q20 -27 20 -71h4q27 40 70.5 59t82.5 19zM208 -109q0 27 18.5 45.5t44.5 18.5q28 0 46 -17.5t18 -44.5q0 -17 -8 -36l-75 -144l-36 13
l34 106q-19 5 -30.5 21.5t-11.5 37.5z" />
    <glyph glyph-name="Ncaron" unicode="&#x147;" horiz-adv-x="697" 
d="M508 196l7 1v479h119v-676h-109l-220 310q-82 116 -116 176l-5 -2v-484h-121v676h113l197 -276q68 -95 135 -204zM358 813l128 101l52 -45l-138 -145h-81l-141 145l46 45z" />
    <glyph glyph-name="ncaron" unicode="&#x148;" horiz-adv-x="564" 
d="M328 493q55 0 92 -16t55 -46.5t24.5 -63t6.5 -76.5v-291h-118v283q0 59 -22 91t-76 32q-57 0 -86 -42.5t-29 -95.5v-268h-118v486h94q20 -27 20 -71h4q27 40 70.5 59t82.5 19zM259 637l127 102l50 -44l-135 -146h-81l-141 145l46 45z" />
    <glyph glyph-name="napostrophe" unicode="&#x149;" horiz-adv-x="629" 
d="M393 493q55 0 92 -16t55 -46.5t24.5 -63t6.5 -76.5v-291h-118v283q0 59 -22 91t-76 32q-57 0 -86 -42.5t-29 -95.5v-268h-118v486h94q20 -27 20 -71h4q27 40 70.5 59t82.5 19zM3 635q0 27 18.5 45.5t44.5 18.5q28 0 46 -17.5t18 -44.5q0 -17 -8 -36l-75 -144l-36 13
l34 106q-19 5 -30.5 21.5t-11.5 37.5z" />
    <glyph glyph-name="Eng" unicode="&#x14a;" horiz-adv-x="697" 
d="M508 196l7 1v479h119v-756q0 -59 -36.5 -94.5t-107.5 -35.5q-50 0 -99 23l26 81q35 -10 55 -10q27 0 37 13t10 42v70l-214 301q-82 116 -116 176l-5 -2v-484h-121v676h113l197 -276q68 -95 135 -204z" />
    <glyph glyph-name="eng" unicode="&#x14b;" horiz-adv-x="564" 
d="M328 493q55 0 92 -17t55 -50t24.5 -68t6.5 -84v-346q0 -65 -36 -101t-111 -36q-56 0 -95 22q4 11 12.5 38.5t13.5 41.5q29 -8 55 -8t34.5 12t8.5 42v344q0 123 -98 123q-57 0 -86 -42.5t-29 -95.5v-268h-118v486h94q20 -27 20 -71h4q27 40 70.5 59t82.5 19z" />
    <glyph glyph-name="Omacron" unicode="&#x14c;" horiz-adv-x="727" 
d="M367 683q86 0 148 -29t95 -80.5t48 -110.5t15 -131q0 -53 -9 -100t-31 -91.5t-56 -77t-88 -52t-123 -19.5q-87 0 -149 25t-97 72t-50.5 106t-15.5 136q0 161 76.5 256.5t236.5 95.5zM365 584q-101 0 -144 -66t-43 -186q0 -243 187 -243q86 0 134.5 61.5t48.5 181.5
q0 117 -44 184.5t-139 67.5zM207 772v83h316v-83h-316z" />
    <glyph glyph-name="omacron" unicode="&#x14d;" horiz-adv-x="577" 
d="M290 494q53 0 94.5 -14.5t68 -38t44 -56.5t24.5 -68t7 -75q0 -48 -12 -90.5t-38 -79t-74.5 -58t-113.5 -21.5q-241 0 -241 248q0 113 60.5 183t180.5 70zM290 401q-124 0 -124 -160q0 -158 124 -158q57 0 88 40t31 119q0 159 -119 159zM130 598v83h319v-83h-319z" />
    <glyph glyph-name="Obreve" unicode="&#x14e;" horiz-adv-x="727" 
d="M367 683q86 0 148 -29t95 -80.5t48 -110.5t15 -131q0 -53 -9 -100t-31 -91.5t-56 -77t-88 -52t-123 -19.5q-87 0 -149 25t-97 72t-50.5 106t-15.5 136q0 161 76.5 256.5t236.5 95.5zM365 584q-101 0 -144 -66t-43 -186q0 -243 187 -243q86 0 134.5 61.5t48.5 181.5
q0 117 -44 184.5t-139 67.5zM367 735q-43 0 -76 17.5t-52 45.5t-29.5 56t-12.5 56h79q4 -38 26.5 -66t64.5 -28t64.5 28t26.5 66h79q-2 -28 -12.5 -56t-29.5 -56t-52 -45.5t-76 -17.5z" />
    <glyph glyph-name="obreve" unicode="&#x14f;" horiz-adv-x="577" 
d="M290 494q53 0 94.5 -14.5t68 -38t44 -56.5t24.5 -68t7 -75q0 -48 -12 -90.5t-38 -79t-74.5 -58t-113.5 -21.5q-241 0 -241 248q0 113 60.5 183t180.5 70zM290 401q-124 0 -124 -160q0 -158 124 -158q57 0 88 40t31 119q0 159 -119 159zM292 549q-43 0 -76.5 16.5
t-52.5 43t-29.5 53.5t-12.5 55h80q4 -37 26 -62t65 -25q42 0 64 25t26 62h80q-2 -28 -12.5 -55t-29.5 -53.5t-52 -43t-76 -16.5z" />
    <glyph glyph-name="Ohungarumlaut" unicode="&#x150;" horiz-adv-x="727" 
d="M367 683q86 0 148 -29t95 -80.5t48 -110.5t15 -131q0 -53 -9 -100t-31 -91.5t-56 -77t-88 -52t-123 -19.5q-87 0 -149 25t-97 72t-50.5 106t-15.5 136q0 161 76.5 256.5t236.5 95.5zM365 584q-101 0 -144 -66t-43 -186q0 -243 187 -243q86 0 134.5 61.5t48.5 181.5
q0 117 -44 184.5t-139 67.5zM260 717l-49 54l158 146l78 -81zM455 722l-45 57l167 135l72 -86z" />
    <glyph glyph-name="ohungarumlaut" unicode="&#x151;" horiz-adv-x="577" 
d="M290 494q53 0 94.5 -14.5t68 -38t44 -56.5t24.5 -68t7 -75q0 -48 -12 -90.5t-38 -79t-74.5 -58t-113.5 -21.5q-241 0 -241 248q0 113 60.5 183t180.5 70zM290 401q-124 0 -124 -160q0 -158 124 -158q57 0 88 40t31 119q0 159 -119 159zM187 550l-54 49l142 167l79 -74z
M361 550l-55 49l142 167l80 -74z" />
    <glyph glyph-name="OE" unicode="&#x152;" horiz-adv-x="922" 
d="M359 682q40 0 74 -6h460v-92h-350v-188h319v-92h-319v-213h358v-91h-461q-40 -8 -82 -8q-166 0 -237 89.5t-71 249.5q0 161 76 256t233 95zM357 82q37 0 68 12v485q-34 12 -68 12q-102 0 -144.5 -67.5t-42.5 -191.5q0 -250 187 -250z" />
    <glyph glyph-name="oe" unicode="&#x153;" horiz-adv-x="908" 
d="M290 494q121 0 180 -79q57 78 172 78q113 0 165.5 -62t52.5 -161q0 -36 -2 -48h-330q-2 -141 120 -141q90 0 102 75h107v-14q0 -76 -60 -113.5t-150 -36.5q-130 0 -182 74q-60 -73 -177 -73q-239 0 -239 248q0 113 60.5 183t180.5 70zM290 401q-124 0 -124 -160
q0 -158 124 -158q57 0 88 40t31 119q0 159 -119 159zM532 295h210q-2 108 -102 108q-48 0 -76 -28.5t-32 -79.5z" />
    <glyph glyph-name="Racute" unicode="&#x154;" horiz-adv-x="622" 
d="M576 467q0 -69 -46 -128t-140 -72l197 -267h-141l-189 263h-72v-263h-120v676h274q116 0 176.5 -56.5t60.5 -152.5zM329 577h-145v-216h145q54 0 91 25t37 82q0 51 -36.5 80t-91.5 29zM258 722l-40 61l174 128l65 -92z" />
    <glyph glyph-name="racute" unicode="&#x155;" horiz-adv-x="355" 
d="M349 496l7 -104q-95 -2 -136.5 -35.5t-41.5 -105.5v-251h-117v486h94q19 -38 19 -92h4q22 54 71 78t100 24zM156 544l-54 49l142 168l79 -74z" />
    <glyph glyph-name="Rcommaaccent" unicode="&#x156;" horiz-adv-x="622" 
d="M576 467q0 -69 -46 -128t-140 -72l197 -267h-141l-189 263h-72v-263h-120v676h274q116 0 176.5 -56.5t60.5 -152.5zM329 577h-145v-216h145q54 0 91 25t37 82q0 51 -36.5 80t-91.5 29zM241 -89q0 27 18.5 45.5t44.5 18.5q28 0 46 -17.5t18 -44.5q0 -17 -8 -36l-75 -144
l-36 13l34 106q-19 5 -30.5 21.5t-11.5 37.5z" />
    <glyph glyph-name="rcommaaccent" unicode="&#x157;" horiz-adv-x="355" 
d="M349 496l7 -104q-95 -2 -136.5 -35.5t-41.5 -105.5v-251h-117v486h94q19 -38 19 -92h4q22 54 71 78t100 24zM58 -109q0 27 18.5 45.5t44.5 18.5q28 0 46 -17.5t18 -44.5q0 -17 -8 -36l-75 -144l-36 13l34 106q-19 5 -30.5 21.5t-11.5 37.5z" />
    <glyph glyph-name="Rcaron" unicode="&#x158;" horiz-adv-x="622" 
d="M576 467q0 -69 -46 -128t-140 -72l197 -267h-141l-189 263h-72v-263h-120v676h274q116 0 176.5 -56.5t60.5 -152.5zM329 577h-145v-216h145q54 0 91 25t37 82q0 51 -36.5 80t-91.5 29zM276 813l128 101l52 -45l-138 -145h-81l-141 145l46 45z" />
    <glyph glyph-name="rcaron" unicode="&#x159;" horiz-adv-x="355" 
d="M349 496l7 -104q-95 -2 -136.5 -35.5t-41.5 -105.5v-251h-117v486h94q19 -38 19 -92h4q22 54 71 78t100 24zM173 637l127 102l50 -44l-135 -146h-81l-141 145l46 45z" />
    <glyph glyph-name="Sacute" unicode="&#x15a;" horiz-adv-x="650" 
d="M330 683q63 0 118 -18t93.5 -61t38.5 -103q0 -14 -2 -30h-116q-2 49 -38 79.5t-99 30.5q-66 0 -99.5 -25t-33.5 -64q0 -19 8 -32.5t18.5 -21.5t34.5 -15t43 -10.5t57 -9.5q131 -20 189.5 -68t58.5 -141q0 -87 -70 -145t-205 -58q-119 0 -198.5 50t-79.5 148q0 16 3 31
h114q2 -60 43.5 -95t120.5 -35q76 0 111.5 28.5t35.5 70.5q0 49 -36 74.5t-121 36.5q-45 5 -77.5 12t-67 20t-55.5 31.5t-35 48.5t-14 70q0 38 13 72t41.5 64t81.5 47.5t124 17.5zM284 722l-40 61l174 128l65 -92z" />
    <glyph glyph-name="sacute" unicode="&#x15b;" horiz-adv-x="503" 
d="M249 494q46 0 87.5 -11t73.5 -40.5t32 -73.5q0 -6 -2 -20h-109q-9 57 -84 57q-40 0 -60.5 -16t-20.5 -40q0 -28 21 -37.5t78 -18.5q104 -16 148 -49t44 -103q0 -63 -53 -106t-156 -43q-51 0 -96 11.5t-80 45t-35 84.5q0 6 2 22h109q6 -77 106 -77q43 0 65.5 18t22.5 42
q0 30 -22.5 44t-79.5 22q-38 5 -61.5 10t-50.5 15t-42.5 24t-25.5 37t-10 54q0 61 47.5 105t151.5 44zM233 544l-54 49l142 168l79 -74z" />
    <glyph glyph-name="Scircumflex" unicode="&#x15c;" horiz-adv-x="650" 
d="M330 683q63 0 118 -18t93.5 -61t38.5 -103q0 -14 -2 -30h-116q-2 49 -38 79.5t-99 30.5q-66 0 -99.5 -25t-33.5 -64q0 -19 8 -32.5t18.5 -21.5t34.5 -15t43 -10.5t57 -9.5q131 -20 189.5 -68t58.5 -141q0 -87 -70 -145t-205 -58q-119 0 -198.5 50t-79.5 148q0 16 3 31
h114q2 -60 43.5 -95t120.5 -35q76 0 111.5 28.5t35.5 70.5q0 49 -36 74.5t-121 36.5q-45 5 -77.5 12t-67 20t-55.5 31.5t-35 48.5t-14 70q0 38 13 72t41.5 64t81.5 47.5t124 17.5zM452 722l-129 103l-133 -103l-46 45l141 144h81l135 -144z" />
    <glyph glyph-name="scircumflex" unicode="&#x15d;" horiz-adv-x="503" 
d="M249 494q46 0 87.5 -11t73.5 -40.5t32 -73.5q0 -6 -2 -20h-109q-9 57 -84 57q-40 0 -60.5 -16t-20.5 -40q0 -28 21 -37.5t78 -18.5q104 -16 148 -49t44 -103q0 -63 -53 -106t-156 -43q-51 0 -96 11.5t-80 45t-35 84.5q0 6 2 22h109q6 -77 106 -77q43 0 65.5 18t22.5 42
q0 30 -22.5 44t-79.5 22q-38 5 -61.5 10t-50.5 15t-42.5 24t-25.5 37t-10 54q0 61 47.5 105t151.5 44zM373 546l-127 107l-134 -107l-46 45l141 150h81l137 -151z" />
    <glyph glyph-name="Scedilla" unicode="&#x15e;" horiz-adv-x="650" 
d="M330 683q63 0 118 -18t93.5 -61t38.5 -103q0 -14 -2 -30h-116q-2 49 -38 79.5t-99 30.5q-66 0 -99.5 -25t-33.5 -64q0 -19 8 -32.5t18.5 -21.5t34.5 -15t43 -10.5t57 -9.5q131 -20 189.5 -68t58.5 -141q0 -82 -62 -139t-183 -63l-16 -32q69 -1 97.5 -29.5t28.5 -61.5
q0 -42 -34.5 -69t-102.5 -28q-55 0 -111 19l15 50q45 -13 78 -13q30 0 48 11t18 30q0 38 -49 38q-27 0 -43 -10l-28 23l37 72q-108 6 -177 56t-69 141q0 21 2 31h115q2 -60 43.5 -95t120.5 -35q76 0 111.5 28.5t35.5 70.5q0 49 -36 74.5t-121 36.5q-45 5 -77.5 12t-67 20
t-55.5 31.5t-35 48.5t-14 70q0 38 13 72t41.5 64t81.5 47.5t124 17.5z" />
    <glyph glyph-name="scedilla" unicode="&#x15f;" horiz-adv-x="499" 
d="M243 -228q-55 0 -111 19l15 50q45 -13 78 -13q30 0 48 11t18 30q0 38 -49 38q-27 0 -43 -10l-28 23l40 75q-46 4 -83 17.5t-64 45t-27 76.5q0 6 2 22h109q6 -77 106 -77q43 0 65.5 18t22.5 42q0 30 -22.5 44t-79.5 22q-38 5 -61.5 10t-50.5 15t-42.5 24t-25.5 37t-10 54
q0 61 47.5 105t151.5 44q46 0 87.5 -11t73.5 -40.5t32 -73.5q0 -6 -2 -20h-109q-9 57 -84 57q-40 0 -60.5 -16t-20.5 -40q0 -28 21 -37.5t78 -18.5q105 -17 148.5 -49.5t43.5 -102.5q0 -60 -47 -101.5t-137 -46.5l-19 -34q69 -1 97.5 -29.5t28.5 -61.5q0 -42 -34.5 -69
t-102.5 -28z" />
    <glyph glyph-name="Scaron" unicode="&#x160;" horiz-adv-x="650" 
d="M330 683q63 0 118 -18t93.5 -61t38.5 -103q0 -14 -2 -30h-116q-2 49 -38 79.5t-99 30.5q-66 0 -99.5 -25t-33.5 -64q0 -19 8 -32.5t18.5 -21.5t34.5 -15t43 -10.5t57 -9.5q131 -20 189.5 -68t58.5 -141q0 -87 -70 -145t-205 -58q-119 0 -198.5 50t-79.5 148q0 16 3 31
h114q2 -60 43.5 -95t120.5 -35q76 0 111.5 28.5t35.5 70.5q0 49 -36 74.5t-121 36.5q-45 5 -77.5 12t-67 20t-55.5 31.5t-35 48.5t-14 70q0 38 13 72t41.5 64t81.5 47.5t124 17.5zM324 813l128 101l52 -45l-138 -145h-81l-141 145l46 45z" />
    <glyph glyph-name="scaron" unicode="&#x161;" horiz-adv-x="503" 
d="M249 494q46 0 87.5 -11t73.5 -40.5t32 -73.5q0 -6 -2 -20h-109q-9 57 -84 57q-40 0 -60.5 -16t-20.5 -40q0 -28 21 -37.5t78 -18.5q104 -16 148 -49t44 -103q0 -63 -53 -106t-156 -43q-51 0 -96 11.5t-80 45t-35 84.5q0 6 2 22h109q6 -77 106 -77q43 0 65.5 18t22.5 42
q0 30 -22.5 44t-79.5 22q-38 5 -61.5 10t-50.5 15t-42.5 24t-25.5 37t-10 54q0 61 47.5 105t151.5 44zM254 637l127 102l50 -44l-135 -146h-81l-141 145l46 45z" />
    <glyph glyph-name="Tcommaaccent" unicode="&#x162;" horiz-adv-x="595" 
d="M359 577v-577h-120v577h-224v99h565v-99h-221zM234 -109q0 27 18.5 45.5t44.5 18.5q28 0 46 -17.5t18 -44.5q0 -17 -8 -36l-75 -144l-36 13l34 106q-19 5 -30.5 21.5t-11.5 37.5z" />
    <glyph glyph-name="tcommaaccent" unicode="&#x163;" horiz-adv-x="396" 
d="M214 618v-132h140v-83h-140v-238q0 -50 19.5 -66t72.5 -16q29 0 66 5v-86q-46 -9 -102 -9q-92 0 -132 38t-40 133v239h-78v69q51 7 83 13l27 133h84zM134 -109q0 27 18.5 45.5t44.5 18.5q28 0 46 -17.5t18 -44.5q0 -17 -8 -36l-75 -144l-36 13l34 106q-19 5 -30.5 21.5
t-11.5 37.5z" />
    <glyph glyph-name="Tcaron" unicode="&#x164;" horiz-adv-x="595" 
d="M359 577v-577h-120v577h-224v99h565v-99h-221zM304 813l128 101l52 -45l-138 -145h-81l-141 145l46 45z" />
    <glyph glyph-name="tcaron" unicode="&#x165;" horiz-adv-x="418" 
d="M212 618v-132h140v-83h-140v-238q0 -50 19.5 -66t72.5 -16q29 0 66 5v-86q-46 -9 -102 -9q-92 0 -132 38t-40 133v239h-78v69q51 7 83 13l27 133h84zM301 713q0 27 18.5 45.5t44.5 18.5q28 0 46 -17.5t18 -44.5q0 -17 -8 -36l-75 -144l-36 13l34 106q-19 5 -30.5 21.5
t-11.5 37.5z" />
    <glyph glyph-name="Tbar" unicode="&#x166;" horiz-adv-x="595" 
d="M359 577v-170h158v-72h-158v-335h-120v335h-160v72h160v170h-224v99h565v-99h-221z" />
    <glyph glyph-name="tbar" unicode="&#x167;" horiz-adv-x="396" 
d="M214 618v-132h140v-83h-140v-92h128v-71h-128v-75q0 -50 19.5 -66t72.5 -16q29 0 66 5v-86q-46 -9 -102 -9q-97 0 -134.5 41t-37.5 152v54h-80v71h80v92h-78v69q51 7 83 13l27 133h84z" />
    <glyph glyph-name="Utilde" unicode="&#x168;" horiz-adv-x="696" 
d="M631 676v-405q0 -279 -278 -279q-157 0 -223 70.5t-66 209.5v404h121v-408q0 -99 43.5 -139t125.5 -40q72 0 115 44t43 136v407h119zM421 744q-26 0 -73.5 18t-68.5 18q-36 0 -72 -38l-49 38q16 41 46.5 64t67.5 23q23 0 67.5 -17.5t70.5 -17.5q37 0 71 36l50 -35
q-12 -40 -43.5 -64.5t-66.5 -24.5z" />
    <glyph glyph-name="utilde" unicode="&#x169;" horiz-adv-x="553" 
d="M384 70h-4q-28 -41 -70.5 -59.5t-79.5 -18.5q-53 0 -89 15t-53 43.5t-23.5 58t-6.5 69.5v308h118v-285q0 -61 18.5 -90.5t74.5 -29.5q54 0 81.5 41t27.5 94v270h117v-486h-93q-18 26 -18 70zM351 574q-26 0 -73.5 18t-68.5 18q-36 0 -72 -38l-49 38q16 41 46.5 64
t67.5 23q22 0 67 -17.5t71 -17.5q37 0 71 36l50 -35q-12 -40 -43.5 -64.5t-66.5 -24.5z" />
    <glyph glyph-name="Umacron" unicode="&#x16a;" horiz-adv-x="696" 
d="M631 676v-405q0 -279 -278 -279q-157 0 -223 70.5t-66 209.5v404h121v-408q0 -99 43.5 -139t125.5 -40q72 0 115 44t43 136v407h119zM184 762v83h316v-83h-316z" />
    <glyph glyph-name="umacron" unicode="&#x16b;" horiz-adv-x="553" 
d="M384 70h-4q-28 -41 -70.5 -59.5t-79.5 -18.5q-53 0 -89 15t-53 43.5t-23.5 58t-6.5 69.5v308h118v-285q0 -61 18.5 -90.5t74.5 -29.5q54 0 81.5 41t27.5 94v270h117v-486h-93q-18 26 -18 70zM120 598v83h319v-83h-319z" />
    <glyph glyph-name="Ubreve" unicode="&#x16c;" horiz-adv-x="696" 
d="M631 676v-405q0 -279 -278 -279q-157 0 -223 70.5t-66 209.5v404h121v-408q0 -99 43.5 -139t125.5 -40q72 0 115 44t43 136v407h119zM351 727q-43 0 -76 17.5t-52 45.5t-29.5 56t-12.5 56h79q4 -38 26.5 -66t64.5 -28t64.5 28t26.5 66h79q-2 -28 -12.5 -56t-29.5 -56
t-52 -45.5t-76 -17.5z" />
    <glyph glyph-name="ubreve" unicode="&#x16d;" horiz-adv-x="553" 
d="M384 70h-4q-28 -41 -70.5 -59.5t-79.5 -18.5q-53 0 -89 15t-53 43.5t-23.5 58t-6.5 69.5v308h118v-285q0 -61 18.5 -90.5t74.5 -29.5q54 0 81.5 41t27.5 94v270h117v-486h-93q-18 26 -18 70zM278 549q-43 0 -76.5 16.5t-52.5 43t-29.5 53.5t-12.5 55h80q4 -37 26 -62
t65 -25q42 0 64 25t26 62h80q-2 -28 -12.5 -55t-29.5 -53.5t-52 -43t-76 -16.5z" />
    <glyph glyph-name="Uring" unicode="&#x16e;" horiz-adv-x="696" 
d="M631 676v-405q0 -279 -278 -279q-157 0 -223 70.5t-66 209.5v404h121v-408q0 -99 43.5 -139t125.5 -40q72 0 115 44t43 136v407h119zM345 698q-48 0 -80 32t-32 79t32 80t80 33t81.5 -33t33.5 -80q0 -48 -33.5 -79.5t-81.5 -31.5zM345 860q-19 0 -33 -15.5t-14 -35.5
t13 -35t34 -15q23 0 36 15t13 35q0 21 -13.5 36t-35.5 15z" />
    <glyph glyph-name="uring" unicode="&#x16f;" horiz-adv-x="553" 
d="M384 70h-4q-28 -41 -70.5 -59.5t-79.5 -18.5q-53 0 -89 15t-53 43.5t-23.5 58t-6.5 69.5v308h118v-285q0 -61 18.5 -90.5t74.5 -29.5q54 0 81.5 41t27.5 94v270h117v-486h-93q-18 26 -18 70zM283 543q-48 0 -80 32t-32 79t32 80t80 33t81.5 -33t33.5 -80
q0 -48 -33.5 -79.5t-81.5 -31.5zM283 705q-19 0 -33 -15.5t-14 -35.5t13 -35t34 -15q23 0 36 15t13 35q0 21 -13.5 36t-35.5 15z" />
    <glyph glyph-name="Uhungarumlaut" unicode="&#x170;" horiz-adv-x="696" 
d="M631 676v-405q0 -279 -278 -279q-157 0 -223 70.5t-66 209.5v404h121v-408q0 -99 43.5 -139t125.5 -40q72 0 115 44t43 136v407h119zM250 717l-49 54l158 146l78 -81zM445 722l-45 57l167 135l72 -86z" />
    <glyph glyph-name="uhungarumlaut" unicode="&#x171;" horiz-adv-x="553" 
d="M384 70h-4q-28 -41 -70.5 -59.5t-79.5 -18.5q-53 0 -89 15t-53 43.5t-23.5 58t-6.5 69.5v308h118v-285q0 -61 18.5 -90.5t74.5 -29.5q54 0 81.5 41t27.5 94v270h117v-486h-93q-18 26 -18 70zM167 550l-54 49l142 167l79 -74zM341 550l-55 49l142 167l80 -74z" />
    <glyph glyph-name="Uogonek" unicode="&#x172;" horiz-adv-x="696" 
d="M631 676v-405q0 -268 -257 -278q-40 -56 -40 -100q0 -53 70 -53q24 0 67 9l10 -41q-56 -28 -120 -28q-55 0 -85 21t-30 58q0 70 73 135q-138 7 -196.5 77t-58.5 201v404h121v-408q0 -99 43.5 -139t125.5 -40q72 0 115 44t43 136v407h119z" />
    <glyph glyph-name="uogonek" unicode="&#x173;" horiz-adv-x="553" 
d="M384 70h-4q-28 -41 -70.5 -59.5t-79.5 -18.5q-53 0 -89 15t-53 43.5t-23.5 58t-6.5 69.5v308h118v-285q0 -61 18.5 -90.5t74.5 -29.5q54 0 81.5 41t27.5 94v270h117v-486h-58q-48 -58 -48 -110q0 -53 70 -53q29 0 67 10l10 -42q-56 -28 -120 -28q-55 0 -85 21.5t-30 58.5
q0 80 95 151q-12 22 -12 62z" />
    <glyph glyph-name="Wcircumflex" unicode="&#x174;" horiz-adv-x="949" 
d="M683 141h5q28 139 58 265l63 270h129l-186 -676h-132l-86 296q-5 16 -16.5 56.5l-17 60t-13.5 52.5t-13 63h-4q-15 -82 -56 -228l-85 -300h-131l-187 676h128l60 -250l19.5 -81t25 -110t18.5 -95h5q13 57 74 286l69 250h127l75 -265q57 -207 71 -270zM601 722l-129 103
l-133 -103l-46 45l141 144h81l135 -144z" />
    <glyph glyph-name="wcircumflex" unicode="&#x175;" horiz-adv-x="759" 
d="M529 121h8q9 57 45 193l44 171h122l-152 -486h-122l-56 187q-14 47 -36 154h-8q-21 -113 -34 -157l-55 -184h-122l-153 486h122l40 -147q44 -160 53 -217h8q19 99 39 166l58 198h102q63 -203 97 -364zM506 546l-127 107l-134 -107l-46 45l141 150h81l137 -151z" />
    <glyph glyph-name="Ycircumflex" unicode="&#x176;" horiz-adv-x="606" 
d="M297 361h8q29 74 80 169l78 145h129l-233 -416v-259h-121v258l-231 417h132l80 -151q50 -94 78 -163zM429 722l-129 103l-133 -103l-46 45l141 144h81l135 -144z" />
    <glyph glyph-name="ycircumflex" unicode="&#x177;" horiz-adv-x="491" 
d="M236 86h8q9 35 52 175l69 224h114l-184 -544q-26 -74 -66 -111.5t-117 -37.5h-66v91h51q35 0 54.5 12.5t33.5 43.5l21 61q-29 0 -43 -1q-23 85 -48 164.5l-57.5 176l-48.5 145.5h120l63 -228q40 -151 44 -171zM369 546l-127 107l-134 -107l-46 45l141 150h81l137 -151z
" />
    <glyph glyph-name="Ydieresis" unicode="&#x178;" horiz-adv-x="606" 
d="M297 361h8q29 74 80 169l78 145h129l-233 -416v-259h-121v258l-231 417h132l80 -151q50 -94 78 -163zM158 807q0 25 17 42t42 17t42.5 -17t17.5 -42t-17.5 -42t-42.5 -17t-42 17t-17 42zM348 807q0 25 17 42t42 17t42.5 -17t17.5 -42t-17.5 -42t-42.5 -17t-42 17t-17 42z
" />
    <glyph glyph-name="Zacute" unicode="&#x179;" horiz-adv-x="611" 
d="M36 0v91l383 484h-362v101h508v-91l-382 -487h391v-98h-538zM272 722l-40 61l174 128l65 -92z" />
    <glyph glyph-name="zacute" unicode="&#x17a;" horiz-adv-x="474" 
d="M26 0v67l274 330h-255v88h396v-70l-273 -329h279v-86h-421zM220 544l-54 49l142 168l79 -74z" />
    <glyph glyph-name="Zdotaccent" unicode="&#x17b;" horiz-adv-x="611" 
d="M36 0v91l383 484h-362v101h508v-91l-382 -487h391v-98h-538zM256 809q0 26 18.5 45t44.5 19t45 -19t19 -45t-19 -45t-45 -19t-44.5 19t-18.5 45z" />
    <glyph glyph-name="zdotaccent" unicode="&#x17c;" horiz-adv-x="474" 
d="M26 0v67l274 330h-255v88h396v-70l-273 -329h279v-86h-421zM191 639q0 26 18.5 45t44.5 19t45 -19t19 -45t-19 -45t-45 -19t-44.5 19t-18.5 45z" />
    <glyph glyph-name="Zcaron" unicode="&#x17d;" horiz-adv-x="611" 
d="M36 0v91l383 484h-362v101h508v-91l-382 -487h391v-98h-538zM304 813l128 101l52 -45l-138 -145h-81l-141 145l46 45z" />
    <glyph glyph-name="zcaron" unicode="&#x17e;" horiz-adv-x="474" 
d="M26 0v67l274 330h-255v88h396v-70l-273 -329h279v-86h-421zM241 637l127 102l50 -44l-135 -146h-81l-141 145l46 45z" />
    <glyph glyph-name="florin" unicode="&#x192;" horiz-adv-x="630" 
d="M162 312v76h101l10 78q12 96 50 142.5t126 46.5q49 0 98 -17l-22 -84q-40 9 -62 9q-43 0 -59.5 -26t-23.5 -88l-7 -61h99v-76h-109l-15 -130q-19 -164 -58.5 -230t-132.5 -66q-56 0 -102 19l24 88q41 -10 60 -10q51 0 69.5 50.5t36.5 201.5l9 77h-92z" />
    <glyph glyph-name="Ohorn" unicode="&#x1a0;" horiz-adv-x="736" 
d="M367 683q131 0 207 -71q45 1 62.5 23t17.5 66v73h87v-96q0 -125 -110 -139q42 -84 42 -207q0 -53 -9 -100t-31 -91.5t-56 -77t-88 -52t-123 -19.5q-87 0 -149 25t-97 72t-50.5 106t-15.5 136q0 161 76.5 256.5t236.5 95.5zM365 584q-101 0 -144 -66t-43 -186
q0 -243 187 -243q86 0 134.5 61.5t48.5 181.5q0 117 -44 184.5t-139 67.5z" />
    <glyph glyph-name="ohorn" unicode="&#x1a1;" horiz-adv-x="612" 
d="M290 494q112 0 173 -63q34 1 47 22t13 65v72h86v-95q0 -124 -100 -138q19 -53 19 -115q0 -48 -12 -90.5t-38 -79t-74.5 -58t-113.5 -21.5q-241 0 -241 248q0 113 60.5 183t180.5 70zM290 401q-124 0 -124 -160q0 -158 124 -158q57 0 88 40t31 119q0 159 -119 159z" />
    <glyph glyph-name="Uhorn" unicode="&#x1af;" horiz-adv-x="779" 
d="M631 676v-64h11q38 0 52 20.5t14 62.5v79h87v-96q0 -60 -31 -101t-101 -41h-32v-265q0 -279 -278 -279q-157 0 -223 70.5t-66 209.5v404h121v-408q0 -99 43.5 -139t125.5 -40q72 0 115 44t43 136v407h119z" />
    <glyph glyph-name="uhorn" unicode="&#x1b0;" horiz-adv-x="633" 
d="M384 70h-4q-28 -41 -70.5 -59.5t-79.5 -18.5q-53 0 -89 15t-53 43.5t-23.5 58t-6.5 69.5v308h118v-285q0 -61 18.5 -90.5t74.5 -29.5q54 0 81.5 41t27.5 94v270h117v-55h7q37 0 48.5 20.5t11.5 66.5v72h85v-95q0 -59 -30.5 -99t-98.5 -40h-23v-356h-93q-18 26 -18 70z
" />
    <glyph glyph-name="AEacute" unicode="&#x1fc;" horiz-adv-x="983" 
d="M486 0v194h-239l-120 -194h-122l426 676h523v-92h-350v-188h319v-91h-319v-214h358v-91h-476zM486 571l-5 1q-34 -60 -104 -174l-69 -113h178v286zM613 722l-40 61l174 128l65 -92z" />
    <glyph glyph-name="aeacute" unicode="&#x1fd;" horiz-adv-x="869" 
d="M593 493q109 0 163.5 -59t54.5 -157q0 -30 -4 -55h-325q0 -70 26 -105.5t89 -35.5q93 0 104 74h106q1 -6 1 -17q0 -73 -61.5 -109.5t-149.5 -36.5q-144 0 -192 84q-86 -85 -206 -85q-77 0 -122.5 37t-45.5 106q0 158 245 158h85v21q0 42 -26.5 66.5t-74.5 24.5
q-74 0 -88 -55h-106q0 3 -0.5 8t-0.5 7q0 45 32.5 75t75 40.5t91.5 10.5q122 0 167 -60q58 63 162 63zM364 221h-104q-53 0 -81.5 -20.5t-28.5 -57.5q0 -30 22.5 -47.5t58.5 -17.5q83 0 143 64q-10 48 -10 79zM485 291h209q-2 112 -103 112q-48 0 -75 -30t-31 -82zM427 544
l-54 49l142 168l79 -74z" />
    <glyph glyph-name="Oslashacute" unicode="&#x1fe;" horiz-adv-x="727" 
d="M326 722l-40 61l174 128l65 -92zM367 683q120 0 195 -59l51 60l51 -44l-56 -65q65 -91 65 -243q0 -53 -9 -100t-31 -91.5t-56 -77t-88 -52t-123 -19.5q-130 0 -206 57l-53 -62l-52 45l57 67q-58 83 -58 232q0 161 76.5 256.5t236.5 95.5zM548 332q0 89 -24 145l-289 -340
q45 -48 130 -48q86 0 134.5 61.5t48.5 181.5zM365 584q-101 0 -144 -66t-43 -186q0 -84 20 -134l288 339q-45 47 -121 47z" />
    <glyph glyph-name="oslashacute" unicode="&#x1ff;" horiz-adv-x="577" 
d="M286 544l-54 49l142 168l79 -74zM290 494q97 0 156 -49l49 49l42 -41l-51 -52q42 -63 42 -159q0 -48 -12 -90.5t-38 -79t-74.5 -58t-113.5 -21.5q-104 0 -162 47l-47 -46l-42 42l48 48q-38 59 -38 157q0 113 60.5 183t180.5 70zM409 242q0 42 -9 73l-197 -200
q29 -32 87 -32q57 0 88 40t31 119zM290 401q-124 0 -124 -160q0 -40 10 -69l196 198q-29 31 -82 31z" />
    <glyph glyph-name="Scommaaccent" unicode="&#x218;" horiz-adv-x="650" 
d="M330 683q63 0 118 -18t93.5 -61t38.5 -103q0 -14 -2 -30h-116q-2 49 -38 79.5t-99 30.5q-66 0 -99.5 -25t-33.5 -64q0 -19 8 -32.5t18.5 -21.5t34.5 -15t43 -10.5t57 -9.5q131 -20 189.5 -68t58.5 -141q0 -87 -70 -145t-205 -58q-119 0 -198.5 50t-79.5 148q0 16 3 31
h114q2 -60 43.5 -95t120.5 -35q76 0 111.5 28.5t35.5 70.5q0 49 -36 74.5t-121 36.5q-45 5 -77.5 12t-67 20t-55.5 31.5t-35 48.5t-14 70q0 38 13 72t41.5 64t81.5 47.5t124 17.5zM260 -109q0 27 18.5 45.5t44.5 18.5q28 0 46 -17.5t18 -44.5q0 -17 -8 -36l-75 -144l-36 13
l34 106q-19 5 -30.5 21.5t-11.5 37.5z" />
    <glyph glyph-name="scommaaccent" unicode="&#x219;" horiz-adv-x="503" 
d="M249 494q46 0 87.5 -11t73.5 -40.5t32 -73.5q0 -6 -2 -20h-109q-9 57 -84 57q-40 0 -60.5 -16t-20.5 -40q0 -28 21 -37.5t78 -18.5q104 -16 148 -49t44 -103q0 -63 -53 -106t-156 -43q-51 0 -96 11.5t-80 45t-35 84.5q0 6 2 22h109q6 -77 106 -77q43 0 65.5 18t22.5 42
q0 30 -22.5 44t-79.5 22q-38 5 -61.5 10t-50.5 15t-42.5 24t-25.5 37t-10 54q0 61 47.5 105t151.5 44zM199 -109q0 27 18.5 45.5t44.5 18.5q28 0 46 -17.5t18 -44.5q0 -17 -8 -36l-75 -144l-36 13l34 106q-19 5 -30.5 21.5t-11.5 37.5z" />
    <glyph glyph-name="schwa" unicode="&#x259;" horiz-adv-x="544" 
d="M269 81q48 0 76 28.5t32 79.5h-211q1 -50 26.5 -79t76.5 -29zM267 -8q-107 0 -163 59.5t-56 151.5q0 31 6 59h327q0 62 -28 101t-86 39q-92 0 -101 -73h-106q0 84 58.5 124t150.5 40q228 0 228 -249q0 -111 -58 -181.5t-172 -70.5z" />
    <glyph glyph-name="primemod" unicode="&#x2b9;" horiz-adv-x="249" 
d="M99 394l-68 30l117 298l113 -46z" />
    <glyph glyph-name="circumflex" unicode="&#x2c6;" horiz-adv-x="561" 
d="M404 546l-127 107l-134 -107l-46 45l141 150h81l137 -151z" />
    <glyph glyph-name="caron" unicode="&#x2c7;" horiz-adv-x="561" 
d="M280 637l127 102l50 -44l-135 -146h-81l-141 145l46 45z" />
    <glyph glyph-name="breve" unicode="&#x2d8;" horiz-adv-x="567" 
d="M283 549q-43 0 -76.5 16.5t-52.5 43t-29.5 53.5t-12.5 55h80q4 -37 26 -62t65 -25q42 0 64 25t26 62h80q-2 -28 -12.5 -55t-29.5 -53.5t-52 -43t-76 -16.5z" />
    <glyph glyph-name="dotaccent" unicode="&#x2d9;" horiz-adv-x="565" 
d="M233 639q0 26 18.5 45t44.5 19t45 -19t19 -45t-19 -45t-45 -19t-44.5 19t-18.5 45z" />
    <glyph glyph-name="ring" unicode="&#x2da;" horiz-adv-x="547" 
d="M290 543q-48 0 -80 32t-32 79t32 80t80 33t81.5 -33t33.5 -80q0 -48 -33.5 -79.5t-81.5 -31.5zM290 705q-19 0 -33 -15.5t-14 -35.5t13 -35t34 -15q23 0 36 15t13 35q0 21 -13.5 36t-35.5 15z" />
    <glyph glyph-name="ogonek" unicode="&#x2db;" horiz-adv-x="555" 
d="M460 30l20 -18q-27 -28 -43 -62t-16 -60q0 -53 70 -53q29 0 67 10l10 -42q-56 -28 -120 -28q-55 0 -85 21.5t-30 58.5q0 39 31 86.5t96 86.5z" />
    <glyph glyph-name="tilde" unicode="&#x2dc;" horiz-adv-x="547" 
d="M355 574q-26 0 -73.5 18t-68.5 18q-36 0 -72 -38l-49 38q16 41 46.5 64t67.5 23q22 0 67 -17.5t71 -17.5q37 0 71 36l50 -35q-12 -40 -43.5 -64.5t-66.5 -24.5z" />
    <glyph glyph-name="hungarumlaut" unicode="&#x2dd;" horiz-adv-x="573" 
d="M177 550l-54 49l142 167l79 -74zM351 550l-55 49l142 167l80 -74z" />
    <glyph glyph-name="tonos" unicode="&#x384;" horiz-adv-x="561" 
d="M281 533l-63 35l95 192l97 -51z" />
    <glyph glyph-name="dieresistonos" unicode="&#x385;" horiz-adv-x="561" 
d="M279 529l-68 28l76 200l106 -38zM85 611q0 24 17 41.5t42 17.5t42 -17.5t17 -41.5q0 -25 -17 -42.5t-42 -17.5t-42 17.5t-17 42.5zM365 611q0 24 17.5 41.5t42.5 17.5t42 -17.5t17 -41.5q0 -25 -17 -42.5t-42 -17.5t-42.5 17.5t-17.5 42.5z" />
    <glyph glyph-name="Alphatonos" unicode="&#x386;" horiz-adv-x="657" 
d="M517 0l-58 163h-268l-58 -163h-125l257 678h126l254 -678h-128zM329 551h-6q-9 -35 -49 -155l-49 -139h201l-47 133q-42 129 -50 161zM29 497l-63 35l95 192l97 -51z" />
    <glyph glyph-name="anoteleia" unicode="&#x387;" horiz-adv-x="270" 
d="M59 349q0 32 22 54t54 22t54 -22t22 -54t-22 -54t-54 -22t-54 22t-22 54z" />
    <glyph glyph-name="Epsilontonos" unicode="&#x388;" horiz-adv-x="587" 
d="M67 0v676h469v-99h-349v-177h318v-100h-318v-200h358v-100h-478zM-102 497l-63 35l95 192l97 -51z" />
    <glyph glyph-name="Etatonos" unicode="&#x389;" horiz-adv-x="697" 
d="M512 0v300h-328v-300h-120v676h120v-276h328v276h120v-676h-120zM-94 497l-63 35l95 192l97 -51z" />
    <glyph glyph-name="Iotatonos" unicode="&#x38a;" horiz-adv-x="280" 
d="M80 0v676h121v-676h-121zM-80 497l-63 35l95 192l97 -51z" />
    <glyph glyph-name="Omicrontonos" unicode="&#x38c;" horiz-adv-x="727" 
d="M367 683q86 0 148 -29t95 -80.5t48 -110.5t15 -131q0 -53 -9 -100t-31 -91.5t-56 -77t-88 -52t-123 -19.5q-87 0 -149 25t-97 72t-50.5 106t-15.5 136q0 161 76.5 256.5t236.5 95.5zM365 584q-101 0 -144 -66t-43 -186q0 -243 187 -243q86 0 134.5 61.5t48.5 181.5
q0 117 -44 184.5t-139 67.5zM-55 497l-63 35l95 192l97 -51z" />
    <glyph glyph-name="Upsilontonos" unicode="&#x38e;" horiz-adv-x="606" 
d="M297 361h8q29 74 80 169l78 145h129l-233 -416v-259h-121v258l-231 417h132l80 -151q50 -94 78 -163zM-142 497l-63 35l95 192l97 -51z" />
    <glyph glyph-name="Omegatonos" unicode="&#x38f;" horiz-adv-x="760" 
d="M379 585q-97 -1 -147 -65t-50 -176q0 -203 136 -244v-100h-284v98h109l3 4q-88 69 -88 235q0 70 19 131.5t57 110.5t102.5 77.5t147.5 28.5q84 0 147.5 -28.5t100 -78t54 -109t17.5 -127.5q0 -66 -22.5 -133.5t-68.5 -106.5l2 -4h107v-98h-280v98q137 47 137 249
q0 111 -52.5 174.5t-146.5 63.5zM-65 497l-63 35l95 192l97 -51z" />
    <glyph glyph-name="iotadieresistonos" unicode="&#x390;" horiz-adv-x="279" 
d="M81 0v486h117v-486h-117zM139 529l-68 28l76 200l106 -38zM-55 611q0 24 17 41.5t42 17.5t42 -17.5t17 -41.5q0 -25 -17 -42.5t-42 -17.5t-42 17.5t-17 42.5zM225 611q0 24 17.5 41.5t42.5 17.5t42 -17.5t17 -41.5q0 -25 -17 -42.5t-42 -17.5t-42.5 17.5t-17.5 42.5z" />
    <glyph glyph-name="Alpha" unicode="&#x391;" horiz-adv-x="657" 
d="M517 0l-58 163h-268l-58 -163h-125l257 678h126l254 -678h-128zM329 551h-6q-9 -35 -49 -155l-49 -139h201l-47 133q-42 129 -50 161z" />
    <glyph glyph-name="Beta" unicode="&#x392;" horiz-adv-x="641" 
d="M464 364v-6q59 -13 92.5 -57.5t33.5 -99.5q0 -95 -58.5 -148t-165.5 -53h-299v676h297q93 0 146 -43.5t53 -125.5q0 -43 -26.5 -84t-72.5 -59zM349 578h-163v-173h159q43 0 69.5 25t26.5 63q0 39 -24 62t-68 23zM346 308h-159v-209h160q118 0 118 105q0 49 -33.5 76.5
t-85.5 27.5z" />
    <glyph glyph-name="Gamma" unicode="&#x393;" horiz-adv-x="548" 
d="M64 0v676h473v-100h-353v-576h-120z" />
    <glyph glyph-name="Delta" unicode="&#x394;" horiz-adv-x="671" 
d="M656 0h-644l255 676h130zM334 553h-7q-19 -68 -69 -218l-81 -240h309l-80 237q-58 165 -72 221z" />
    <glyph glyph-name="Delta" unicode="&#x2206;" horiz-adv-x="671" 
d="M656 0h-644l255 676h130zM334 553h-7q-19 -68 -69 -218l-81 -240h309l-80 237q-58 165 -72 221z" />
    <glyph glyph-name="Epsilon" unicode="&#x395;" horiz-adv-x="584" 
d="M64 0v676h469v-99h-349v-177h318v-100h-318v-200h358v-100h-478z" />
    <glyph glyph-name="Zeta" unicode="&#x396;" horiz-adv-x="611" 
d="M36 0v91l383 484h-362v101h508v-91l-382 -487h391v-98h-538z" />
    <glyph glyph-name="Eta" unicode="&#x397;" horiz-adv-x="697" 
d="M512 0v300h-328v-300h-120v676h120v-276h328v276h120v-676h-120z" />
    <glyph glyph-name="Theta" unicode="&#x398;" horiz-adv-x="746" 
d="M236 301v92h273v-92h-273zM377 684q88 0 151.5 -29t98 -80.5t50 -111t15.5 -131.5q0 -67 -16 -124.5t-50.5 -107.5t-98.5 -79t-151 -29q-174 0 -248 89.5t-74 249.5q0 161 79 257t244 96zM375 584q-197 0 -197 -252q0 -243 197 -243q92 0 142 61.5t50 181.5
q0 252 -192 252z" />
    <glyph glyph-name="Iota" unicode="&#x399;" horiz-adv-x="280" 
d="M80 0v676h121v-676h-121z" />
    <glyph glyph-name="Kappa" unicode="&#x39a;" horiz-adv-x="612" 
d="M184 676v-268h73l213 268h139l-257 -316l266 -360h-148l-217 306h-69v-306h-120v676h120z" />
    <glyph glyph-name="Lambda" unicode="&#x39b;" horiz-adv-x="672" 
d="M335 549q-1 0 -3 -0.5t-3 -0.5q-21 -77 -65 -201l-125 -347h-126l257 676h126l261 -676h-128l-125 345q-54 148 -69 204z" />
    <glyph glyph-name="Mu" unicode="&#x39c;" horiz-adv-x="840" 
d="M416 218h7q36 98 107 249l99 208h141v-675h-119v481h-5q-29 -74 -56 -132l-121 -253h-100l-111 229q-45 93 -67 155h-5v-480h-119q0 112 0.5 337t0.5 338h140l110 -229q48 -102 98 -228z" />
    <glyph glyph-name="Nu" unicode="&#x39d;" horiz-adv-x="697" 
d="M508 196l7 1v479h119v-676h-109l-220 310q-82 116 -116 176l-5 -2v-484h-121v676h113l197 -276q68 -95 135 -204z" />
    <glyph glyph-name="Xi" unicode="&#x39e;" horiz-adv-x="593" 
d="M38 103h517v-103h-517v103zM88 401h416v-101h-416v101zM544 575h-495v101h495v-101z" />
    <glyph glyph-name="Omicron" unicode="&#x39f;" horiz-adv-x="727" 
d="M367 683q86 0 148 -29t95 -80.5t48 -110.5t15 -131q0 -53 -9 -100t-31 -91.5t-56 -77t-88 -52t-123 -19.5q-87 0 -149 25t-97 72t-50.5 106t-15.5 136q0 161 76.5 256.5t236.5 95.5zM365 584q-101 0 -144 -66t-43 -186q0 -243 187 -243q86 0 134.5 61.5t48.5 181.5
q0 117 -44 184.5t-139 67.5z" />
    <glyph glyph-name="Pi" unicode="&#x3a0;" horiz-adv-x="686" 
d="M502 0v577h-318v-577h-120v677h558v-677h-120z" />
    <glyph glyph-name="Rho" unicode="&#x3a1;" horiz-adv-x="612" 
d="M349 243h-165v-243h-120v676h291q116 0 177 -60.5t61 -158.5q0 -37 -12.5 -72.5t-39 -68.5t-76 -53t-116.5 -20zM346 577h-162v-235h160q53 0 91 28t38 87q0 56 -35.5 88t-91.5 32z" />
    <glyph glyph-name="Sigma" unicode="&#x3a3;" horiz-adv-x="593" 
d="M35 90l209 270l-206 226v91h511v-101h-362l196 -216l-202 -262h386v-98h-532v90z" />
    <glyph glyph-name="Tau" unicode="&#x3a4;" horiz-adv-x="595" 
d="M359 577v-577h-120v577h-224v99h565v-99h-221z" />
    <glyph glyph-name="Upsilon" unicode="&#x3a5;" horiz-adv-x="606" 
d="M297 361h8q29 74 80 169l78 145h129l-233 -416v-259h-121v258l-231 417h132l80 -151q50 -94 78 -163z" />
    <glyph glyph-name="Phi" unicode="&#x3a6;" horiz-adv-x="797" 
d="M458 676v-32q80 -6 138 -33t90 -69t46.5 -90t14.5 -104q0 -69 -28 -129t-95.5 -107t-165.5 -57v-55h-116v54q-150 14 -221 92t-71 199q0 123 75.5 205t216.5 94v32h116zM169 346q0 -176 173 -199v404q-86 -8 -129.5 -64t-43.5 -141zM625 348q0 187 -167 204v-404
q76 9 121.5 62.5t45.5 137.5z" />
    <glyph glyph-name="Chi" unicode="&#x3a7;" horiz-adv-x="618" 
d="M588 676l-211 -325l232 -351h-140l-161 270l-80.5 -135t-81.5 -135h-139l232 351l-212 325h136l145 -249l70 120.5l75 128.5h135z" />
    <glyph glyph-name="Psi" unicode="&#x3a8;" horiz-adv-x="755" 
d="M318 1v162q-134 11 -203 86.5t-69 200.5v227h120v-233q0 -166 152 -183v418h121v-418q69 10 109 55t40 129v232h119v-228q0 -119 -70.5 -196.5t-197.5 -89.5v-162h-121z" />
    <glyph glyph-name="Omega" unicode="&#x3a9;" horiz-adv-x="760" 
d="M379 585q-97 -1 -147 -65t-50 -176q0 -203 136 -244v-100h-284v98h109l3 4q-88 69 -88 235q0 70 19 131.5t57 110.5t102.5 77.5t147.5 28.5q84 0 147.5 -28.5t100 -78t54 -109t17.5 -127.5q0 -66 -22.5 -133.5t-68.5 -106.5l2 -4h107v-98h-280v98q137 47 137 249
q0 111 -52.5 174.5t-146.5 63.5z" />
    <glyph glyph-name="Iotadieresis" unicode="&#x3aa;" horiz-adv-x="280" 
d="M80 0v676h121v-676h-121zM-16 807q0 25 17 42t42 17t42.5 -17t17.5 -42t-17.5 -42t-42.5 -17t-42 17t-17 42zM174 807q0 25 17 42t42 17t42.5 -17t17.5 -42t-17.5 -42t-42.5 -17t-42 17t-17 42z" />
    <glyph glyph-name="Upsilondieresis" unicode="&#x3ab;" horiz-adv-x="606" 
d="M297 361h8q29 74 80 169l78 145h129l-233 -416v-259h-121v258l-231 417h132l80 -151q50 -94 78 -163zM147 807q0 25 17 42t42 17t42.5 -17t17.5 -42t-17.5 -42t-42.5 -17t-42 17t-17 42zM337 807q0 25 17 42t42 17t42.5 -17t17.5 -42t-17.5 -42t-42.5 -17t-42 17t-17 42z
" />
    <glyph glyph-name="alphatonos" unicode="&#x3ac;" horiz-adv-x="572" 
d="M256 494q102 0 147 -69h4q1 40 17 61h89v-486h-94q-15 22 -15 65h-5q-45 -73 -151 -73q-107 0 -153.5 64.5t-46.5 185.5q0 110 51.5 181t156.5 71zM280 80q60 0 89 43.5t29 100.5v53q0 57 -30.5 93t-84.5 36q-117 0 -117 -162q0 -164 114 -164zM287 533l-63 35l95 192
l97 -51z" />
    <glyph glyph-name="epsilontonos" unicode="&#x3ad;" horiz-adv-x="489" 
d="M260 -8q-107 0 -159.5 39t-52.5 105q0 81 76 110v5q-69 24 -69 94q0 65 51 107t148 42q84 0 139 -35.5t56 -104.5q0 -15 -1 -23h-103q-6 71 -95 71q-32 0 -53.5 -19.5t-21.5 -42.5q0 -48 59 -48h79v-81h-80q-31 0 -50.5 -19t-19.5 -44q0 -29 23 -48.5t67 -19.5
q45 0 74.5 22t31.5 68h104q2 -14 2 -21q0 -77 -57.5 -116.5t-147.5 -40.5zM250 533l-63 35l95 192l97 -51z" />
    <glyph glyph-name="etatonos" unicode="&#x3ae;" horiz-adv-x="564" 
d="M328 493q55 0 92 -16t55 -46.5t24.5 -63t6.5 -76.5v-291h-118v283q0 59 -22 91t-76 32q-57 0 -86 -42.5t-29 -95.5v-268h-118v486h94q20 -27 20 -71h4q27 40 70.5 59t82.5 19zM265 533l-63 35l95 192l97 -51z" />
    <glyph glyph-name="iotatonos" unicode="&#x3af;" horiz-adv-x="279" 
d="M146 533l-63 35l95 192l97 -51zM79 0v486h117v-486h-117z" />
    <glyph glyph-name="upsilondieresistonos" unicode="&#x3b0;" horiz-adv-x="553" 
d="M496 189q0 -97 -59 -146t-163 -49q-217 0 -217 195v297h118v-290q0 -57 27.5 -85.5t72.5 -28.5q105 0 105 114v290h116v-297zM276 529l-68 28l76 200l106 -38zM82 611q0 24 17 41.5t42 17.5t42 -17.5t17 -41.5q0 -25 -17 -42.5t-42 -17.5t-42 17.5t-17 42.5zM362 611
q0 24 17.5 41.5t42.5 17.5t42 -17.5t17 -41.5q0 -25 -17 -42.5t-42 -17.5t-42.5 17.5t-17.5 42.5z" />
    <glyph glyph-name="alpha" unicode="&#x3b1;" horiz-adv-x="572" 
d="M256 494q102 0 147 -69h4q1 40 17 61h89v-486h-94q-15 22 -15 65h-5q-45 -73 -151 -73q-107 0 -153.5 64.5t-46.5 185.5q0 110 51.5 181t156.5 71zM280 80q60 0 89 43.5t29 100.5v53q0 57 -30.5 93t-84.5 36q-117 0 -117 -162q0 -164 114 -164z" />
    <glyph glyph-name="beta" unicode="&#x3b2;" horiz-adv-x="573" 
d="M410 422q0 -1 0.5 -2.5t0.5 -2.5q117 -37 117 -192q0 -99 -54.5 -166t-165.5 -67q-90 0 -133 53h-5v-199h-113v644q0 100 55.5 162t159.5 62q101 0 156.5 -47t55.5 -127q0 -30 -17 -66.5t-57 -51.5zM275 627q-103 0 -103 -138v-278q0 -59 30 -96.5t90 -37.5q54 0 85.5 40
t31.5 109q0 140 -125 140h-47v85h47q38 0 60.5 26t22.5 61q0 40 -28 64.5t-64 24.5z" />
    <glyph glyph-name="gamma" unicode="&#x3b3;" horiz-adv-x="502" 
d="M258 140h6q13 74 45 168l61 177h123l-174 -458v-231h-117v204l-138 373q-7 19 -16 24t-35 5l-7 74q43 21 87 21q34 0 49.5 -20t30.5 -63l37 -106q36 -104 48 -168z" />
    <glyph glyph-name="delta" unicode="&#x3b4;" horiz-adv-x="577" 
d="M167 236q0 -76 32.5 -115t90.5 -39q54 0 86.5 40t32.5 110q0 100 -55 170q-23 4 -46 4q-77 0 -109 -44.5t-32 -125.5zM286 -7q-115 0 -176.5 60t-61.5 177q0 66 20 119.5t71.5 91t128.5 37.5h17q-72 65 -203 140v80h408v-90h-194l-2 -6q45 -33 71.5 -55t61.5 -57.5
t54 -68t32.5 -78.5t13.5 -98q0 -123 -64.5 -187.5t-176.5 -64.5z" />
    <glyph glyph-name="epsilon" unicode="&#x3b5;" horiz-adv-x="489" 
d="M260 -8q-107 0 -159.5 39t-52.5 105q0 81 76 110v5q-69 24 -69 94q0 65 51 107t148 42q84 0 139 -35.5t56 -104.5q0 -15 -1 -23h-103q-6 71 -95 71q-32 0 -53.5 -19.5t-21.5 -42.5q0 -48 59 -48h79v-81h-80q-31 0 -50.5 -19t-19.5 -44q0 -29 23 -48.5t67 -19.5
q45 0 74.5 22t31.5 68h104q2 -14 2 -21q0 -77 -57.5 -116.5t-147.5 -40.5z" />
    <glyph glyph-name="zeta" unicode="&#x3b6;" horiz-adv-x="453" 
d="M172 224q0 -41 31.5 -61.5t139.5 -61.5q14 -5 21 -8q54 -21 74.5 -44t20.5 -57q0 -24 -29 -73t-73 -96l-72 48q52 81 52 100q0 14 -34 28q-9 4 -48 19q-57 20 -89 35t-61 37.5t-41 52.5t-12 72q0 75 70 181.5t192 206.5l-1 5h-238v89h400v-80q-140 -112 -221.5 -218
t-81.5 -175z" />
    <glyph glyph-name="eta" unicode="&#x3b7;" horiz-adv-x="564" 
d="M328 493q55 0 92 -16t55 -46.5t24.5 -63t6.5 -76.5v-291h-118v283q0 59 -22 91t-76 32q-57 0 -86 -42.5t-29 -95.5v-268h-118v486h94q20 -27 20 -71h4q27 40 70.5 59t82.5 19z" />
    <glyph glyph-name="theta" unicode="&#x3b8;" horiz-adv-x="577" 
d="M289 713q73 0 122.5 -29.5t74 -84t33.5 -113t9 -136.5q0 -58 -5 -105t-20.5 -96t-41 -82t-69.5 -54t-103 -21q-69 0 -117 26t-74.5 76t-38 111.5t-11.5 142.5q0 365 241 365zM289 80q71 0 97 63t26 190h-247q0 -61 5 -104.5t18.5 -78.5t38.5 -52.5t62 -17.5zM289 626
q-34 0 -57.5 -16t-37 -46.5t-20 -66t-8.5 -82.5h245q-3 100 -30.5 155.5t-91.5 55.5z" />
    <glyph glyph-name="iota" unicode="&#x3b9;" horiz-adv-x="279" 
d="M81 0v486h117v-486h-117z" />
    <glyph glyph-name="kappa" unicode="&#x3ba;" horiz-adv-x="518" 
d="M173 486v-183h61l145 182h128l-180 -224l187 -261h-136l-144 211h-61v-211h-116v486h116z" />
    <glyph glyph-name="lambda" unicode="&#x3bb;" horiz-adv-x="494" 
d="M301 572l135 -463q6 -23 14 -28t33 -5q1 -22 5 -68q-38 -16 -87 -16q-26 0 -41.5 17.5t-29.5 65.5l-47 162q-28 95 -35 143h-6q-12 -60 -39 -141l-78 -239h-118l168 482l33 2l-28 87q-10 30 -24.5 39.5t-47.5 9.5h-31v89h61q80 0 110.5 -30.5t52.5 -106.5z" />
    <glyph glyph-name="nu" unicode="&#x3bd;" horiz-adv-x="523" 
d="M259 107h8q23 93 68 220l56 158h119l-188 -487h-123l-187 487h121l57 -161q42 -115 69 -217z" />
    <glyph glyph-name="xi" unicode="&#x3be;" horiz-adv-x="456" 
d="M269 712q82 0 139 -33t58 -100q0 -18 -1 -28h-104q-4 35 -29 52.5t-62 17.5q-45 0 -69.5 -28t-24.5 -65q0 -92 112 -92h98v-92h-103q-60 0 -89.5 -34.5t-29.5 -85.5q0 -24 9 -41t30.5 -30t42 -21.5t59.5 -22.5q15 -5 23 -8q77 -27 103 -53t26 -61q0 -57 -94 -164l-74 46
q47 77 47 96q0 13 -16.5 22.5t-58.5 23.5q-112 38 -162.5 83t-50.5 120q0 122 104 171v6q-46 16 -70 53t-24 86q0 73 54 127.5t157 54.5z" />
    <glyph glyph-name="omicron" unicode="&#x3bf;" horiz-adv-x="577" 
d="M290 494q53 0 94.5 -14.5t68 -38t44 -56.5t24.5 -68t7 -75q0 -48 -12 -90.5t-38 -79t-74.5 -58t-113.5 -21.5q-241 0 -241 248q0 113 60.5 183t180.5 70zM290 401q-124 0 -124 -160q0 -158 124 -158q57 0 88 40t31 119q0 159 -119 159z" />
    <glyph glyph-name="pi" unicode="&#x3c0;" horiz-adv-x="571" 
d="M395 395h-220v-395h-118v485h457v-485h-119v395z" />
    <glyph glyph-name="rho" unicode="&#x3c1;" horiz-adv-x="571" 
d="M291 494q116 0 173 -70t57 -180q0 -112 -51 -182t-156 -70q-97 0 -140 57h-5v-253h-116v432q0 126 61.5 196t176.5 70zM285 403q-55 0 -85.5 -38.5t-30.5 -95.5v-55q0 -59 29 -97t87 -38q118 0 118 163q0 161 -118 161z" />
    <glyph glyph-name="sigma1" unicode="&#x3c2;" horiz-adv-x="483" 
d="M274 400q-57 0 -84.5 -37t-27.5 -117q0 -57 27 -83t108 -58q84 -35 108 -60t24 -60q0 -52 -84 -155l-81 44q43 73 43 90q0 26 -66 51q-117 43 -156.5 89t-39.5 134q0 119 55 187.5t172 68.5q87 0 143.5 -37t56.5 -109q0 -4 -2 -22h-104q-5 74 -92 74z" />
    <glyph glyph-name="sigma" unicode="&#x3c3;" horiz-adv-x="582" 
d="M467 400l-3 -5q61 -51 61 -161q0 -42 -12.5 -82.5t-38 -77.5t-73 -59.5t-109.5 -22.5q-239 0 -239 247q0 111 60.5 179t178.5 68h261v-91h-33q-30 0 -53 5zM292 401q-123 0 -123 -161q0 -160 123 -160q55 0 86.5 45t31.5 116q0 160 -118 160z" />
    <glyph glyph-name="tau" unicode="&#x3c4;" horiz-adv-x="421" 
d="M21 485q61 0 183 0.5t183 0.5v-91h-147v-228q0 -48 18 -66t63 -18q42 0 72 5v-86q-44 -9 -99 -9q-90 0 -130 38t-40 133v231h-103v90z" />
    <glyph glyph-name="upsilon" unicode="&#x3c5;" horiz-adv-x="553" 
d="M496 189q0 -97 -59 -146t-163 -49q-217 0 -217 195v297h118v-290q0 -57 27.5 -85.5t72.5 -28.5q105 0 105 114v290h116v-297z" />
    <glyph glyph-name="phi" unicode="&#x3c6;" horiz-adv-x="706" 
d="M410 400v-319q63 5 99 47.5t36 113.5q0 73 -33 115t-102 43zM294 83v409h114q70 0 121 -21t77.5 -58t38.5 -79t12 -92q0 -97 -62.5 -169.5t-184.5 -77.5v-200h-116v199q-138 6 -191.5 71t-53.5 173q0 92 43.5 158.5t132.5 82.5q9 -35 23 -82q-86 -35 -86 -159
q0 -63 31 -106t101 -49z" />
    <glyph glyph-name="chi" unicode="&#x3c7;" horiz-adv-x="503" 
d="M361 0l-109 180l-111 -180h-133l173 253l-161 233h134l95 -158l97 158h134l-162 -233l176 -253h-133z" />
    <glyph glyph-name="psi" unicode="&#x3c8;" horiz-adv-x="682" 
d="M279 -205v199q-109 7 -167.5 60t-58.5 155v277h117v-276q0 -111 109 -125v401h116v-401q117 10 117 125v276h116v-277q0 -99 -62 -155.5t-171 -61.5v-197h-116z" />
    <glyph glyph-name="omega" unicode="&#x3c9;" horiz-adv-x="796" 
d="M747 242q0 -50 -10.5 -92.5t-34.5 -79t-67.5 -57.5t-103.5 -21q-44 0 -81 20.5t-55 57.5h-6q-48 -78 -147 -78q-193 0 -193 243q0 112 55.5 183.5t174.5 73.5v-92q-62 -3 -88 -44t-26 -116q0 -77 20 -117t73 -40q45 0 64.5 31t19.5 75v139h108v-139q0 -49 21 -77.5
t61 -28.5q98 0 98 157q0 155 -114 160v92q119 -2 175 -71.5t56 -178.5z" />
    <glyph glyph-name="iotadieresis" unicode="&#x3ca;" horiz-adv-x="279" 
d="M81 0v486h117v-486h-117zM-14 627q0 25 17.5 42t41.5 17q25 0 42.5 -17t17.5 -42t-17.5 -42t-42.5 -17q-24 0 -41.5 17t-17.5 42zM176 627q0 25 17 42t42 17t42.5 -17t17.5 -42t-17.5 -42t-42.5 -17t-42 17t-17 42z" />
    <glyph glyph-name="upsilondieresis" unicode="&#x3cb;" horiz-adv-x="553" 
d="M496 189q0 -97 -59 -146t-163 -49q-217 0 -217 195v297h118v-290q0 -57 27.5 -85.5t72.5 -28.5q105 0 105 114v290h116v-297zM122 627q0 25 17.5 42t41.5 17q25 0 42.5 -17t17.5 -42t-17.5 -42t-42.5 -17q-24 0 -41.5 17t-17.5 42zM312 627q0 25 17 42t42 17t42.5 -17
t17.5 -42t-17.5 -42t-42.5 -17t-42 17t-17 42z" />
    <glyph glyph-name="omicrontonos" unicode="&#x3cc;" horiz-adv-x="577" 
d="M290 494q53 0 94.5 -14.5t68 -38t44 -56.5t24.5 -68t7 -75q0 -48 -12 -90.5t-38 -79t-74.5 -58t-113.5 -21.5q-241 0 -241 248q0 113 60.5 183t180.5 70zM290 401q-124 0 -124 -160q0 -158 124 -158q57 0 88 40t31 119q0 159 -119 159zM300 533l-63 35l95 192l97 -51z
" />
    <glyph glyph-name="upsilontonos" unicode="&#x3cd;" horiz-adv-x="553" 
d="M286 533l-63 35l95 192l97 -51zM496 189q0 -97 -59 -146t-163 -49q-217 0 -217 195v297h118v-290q0 -57 27.5 -85.5t72.5 -28.5q105 0 105 114v290h116v-297z" />
    <glyph glyph-name="omegatonos" unicode="&#x3ce;" horiz-adv-x="796" 
d="M747 242q0 -50 -10.5 -92.5t-34.5 -79t-67.5 -57.5t-103.5 -21q-44 0 -81 20.5t-55 57.5h-6q-48 -78 -147 -78q-193 0 -193 243q0 112 55.5 183.5t174.5 73.5v-92q-62 -3 -88 -44t-26 -116q0 -77 20 -117t73 -40q45 0 64.5 31t19.5 75v139h108v-139q0 -49 21 -77.5
t61 -28.5q98 0 98 157q0 155 -114 160v92q119 -2 175 -71.5t56 -178.5zM405 533l-63 35l95 192l97 -51z" />
    <glyph glyph-name="Sampigreek" unicode="&#x3e0;" horiz-adv-x="670" 
d="M32 598l10 68q140 -7 249 -49.5t178 -113t104.5 -162t35.5 -200.5q0 -96 -32 -215l-80 12q16 95 16 163q0 75 -21 150q-105 -63 -273 -154l-46 70l292 158q-24 51 -48 79l-281 -156l-48 69l272 147q-103 108 -328 134z" />
    <glyph glyph-name="sampigreek" unicode="&#x3e1;" horiz-adv-x="587" 
d="M39 436l8 62q236 -11 360.5 -133t124.5 -311q0 -74 -28 -183l-75 11q14 75 14 140q0 59 -17 119q-11 -7 -116.5 -65.5l-112.5 -62.5l-40 63l246 134q-22 44 -38 63l-237 -132l-43 62l228 125q-87 87 -274 108z" />
    <glyph glyph-name="afii10023" unicode="&#x401;" horiz-adv-x="584" 
d="M64 0v676h469v-99h-349v-177h318v-100h-318v-200h358v-100h-478zM153 810q0 25 17 42t42 17t42.5 -17t17.5 -42t-17.5 -42t-42.5 -17t-42 17t-17 42zM343 810q0 25 17 42t42 17t42.5 -17t17.5 -42t-17.5 -42t-42.5 -17t-42 17t-17 42z" />
    <glyph glyph-name="afii10051" unicode="&#x402;" horiz-adv-x="808" 
d="M328 576v-181h4q87 66 203 66q111 0 165 -72t54 -188q0 -49 -10 -91t-32.5 -79.5t-65 -59.5t-100.5 -22q-23 0 -43 4v87q71 3 100 43t29 117q0 164 -138 164q-94 0 -166 -66v-298h-120v576h-198v99h600v-99h-282z" />
    <glyph glyph-name="afii10052" unicode="&#x403;" horiz-adv-x="554" 
d="M253 722l-40 61l174 128l65 -92zM67 0v676h473v-100h-353v-576h-120z" />
    <glyph glyph-name="afii10053" unicode="&#x404;" horiz-adv-x="646" 
d="M354 582q-158 0 -173 -185h265v-95h-268q3 -104 46 -157.5t134 -53.5q74 0 109 34t37 90h116q1 -8 1 -24q0 -96 -76.5 -147.5t-182.5 -51.5q-159 0 -233.5 86.5t-74.5 255.5q0 161 78.5 254.5t224.5 93.5q68 0 122.5 -19.5t89.5 -63t36 -104.5q0 -15 -1 -23h-114
q-3 51 -39.5 80.5t-96.5 29.5z" />
    <glyph glyph-name="afii10054" unicode="&#x405;" horiz-adv-x="650" 
d="M330 683q63 0 118 -18t93.5 -61t38.5 -103q0 -14 -2 -30h-116q-2 49 -38 79.5t-99 30.5q-66 0 -99.5 -25t-33.5 -64q0 -19 8 -32.5t18.5 -21.5t34.5 -15t43 -10.5t57 -9.5q131 -20 189.5 -68t58.5 -141q0 -87 -70 -145t-205 -58q-119 0 -198.5 50t-79.5 148q0 16 3 31
h114q2 -60 43.5 -95t120.5 -35q76 0 111.5 28.5t35.5 70.5q0 49 -36 74.5t-121 36.5q-45 5 -77.5 12t-67 20t-55.5 31.5t-35 48.5t-14 70q0 38 13 72t41.5 64t81.5 47.5t124 17.5z" />
    <glyph glyph-name="afii10055" unicode="&#x406;" horiz-adv-x="280" 
d="M80 0v676h121v-676h-121z" />
    <glyph glyph-name="afii10056" unicode="&#x407;" horiz-adv-x="280" 
d="M80 0v676h121v-676h-121zM-10 806q0 25 17.5 42t41.5 17q25 0 42.5 -17t17.5 -42t-17.5 -42t-42.5 -17q-24 0 -41.5 17t-17.5 42zM180 806q0 25 17 42t42 17t42.5 -17t17.5 -42t-17.5 -42t-42.5 -17t-42 17t-17 42z" />
    <glyph glyph-name="afii10057" unicode="&#x408;" horiz-adv-x="575" 
d="M250 -8q-105 0 -168.5 44.5t-63.5 129.5q0 18 3 38h114q2 -110 117 -113q74 0 101 38t27 109v438h119v-448q0 -236 -249 -236z" />
    <glyph glyph-name="afii10058" unicode="&#x409;" horiz-adv-x="1001" 
d="M564 675v-273h174q115 0 173 -58t58 -144q0 -98 -60.5 -149t-166.5 -51h-297v576h-192q-3 -49 -9 -137q-14 -242 -31 -314q-23 -99 -84 -125q-32 -13 -79 -13q-30 0 -45 5l3 87q27 3 42.5 7.5t29.5 20.5t20.5 35t13 63.5t10 93.5t7.5 136l12 240h421zM724 305h-160v-207
h168q48 0 81 25.5t33 77.5q0 54 -35 79t-87 25z" />
    <glyph glyph-name="afii10059" unicode="&#x40a;" horiz-adv-x="964" 
d="M545 402h159q69 0 118 -18t73.5 -49t35.5 -64t11 -71q0 -93 -59.5 -146.5t-179.5 -53.5h-278v302h-239v-302h-122v676h122v-274h239v274h120v-274zM544 99h153q52 0 87 24t35 76q0 56 -36 80t-89 24h-150v-204z" />
    <glyph glyph-name="afii10060" unicode="&#x40b;" horiz-adv-x="805" 
d="M328 576v-180q1 -1 4 -1q41 30 97 48t108 18q106 0 156 -57.5t50 -155.5v-248h-119v224q0 142 -129 142q-42 0 -89.5 -18.5t-77.5 -48.5v-299h-120v576h-198v99h599v-99h-281z" />
    <glyph glyph-name="afii10061" unicode="&#x40c;" horiz-adv-x="612" 
d="M263 725l-40 61l174 128l65 -92zM184 676v-268h73l213 268h139l-257 -316l266 -360h-148l-217 306h-69v-306h-120v676h120z" />
    <glyph glyph-name="afii10062" unicode="&#x40e;" horiz-adv-x="574" 
d="M296 703q-43 0 -76 17.5t-52 45.5t-29.5 56t-12.5 56h79q4 -38 26.5 -66t64.5 -28t64.5 28t26.5 66h79q-2 -28 -12.5 -56t-29.5 -56t-52 -45.5t-76 -17.5zM285 266h10l147 409h120l-200 -518q-34 -88 -79.5 -126.5t-124.5 -38.5h-50v95h37q42 0 63 14.5t37 50.5l12 28
l-45 -2l-205 497h122z" />
    <glyph glyph-name="afii10145" unicode="&#x40f;" horiz-adv-x="698" 
d="M406 0v-170h-114v170h-228v676h120v-576h330v576h119v-676h-227z" />
    <glyph glyph-name="afii10017" unicode="&#x410;" horiz-adv-x="657" 
d="M517 0l-58 163h-268l-58 -163h-125l257 678h126l254 -678h-128zM329 551h-6q-9 -35 -49 -155l-49 -139h201l-47 133q-42 129 -50 161z" />
    <glyph glyph-name="afii10018" unicode="&#x411;" horiz-adv-x="622" 
d="M519 576h-335q0 -29 0.5 -87t0.5 -87h174q115 0 172.5 -58t57.5 -144q0 -98 -60 -149t-166 -51h-299v676h455v-100zM345 305h-161v-207h168q48 0 81 25.5t33 77.5q0 54 -34.5 79t-86.5 25z" />
    <glyph glyph-name="afii10019" unicode="&#x412;" horiz-adv-x="641" 
d="M464 364v-6q59 -13 92.5 -57.5t33.5 -99.5q0 -95 -58.5 -148t-165.5 -53h-299v676h297q93 0 146 -43.5t53 -125.5q0 -43 -26.5 -84t-72.5 -59zM349 578h-163v-173h159q43 0 69.5 25t26.5 63q0 39 -24 62t-68 23zM346 308h-159v-209h160q118 0 118 105q0 49 -33.5 76.5
t-85.5 27.5z" />
    <glyph glyph-name="afii10020" unicode="&#x413;" horiz-adv-x="554" 
d="M67 0v676h473v-100h-353v-576h-120z" />
    <glyph glyph-name="afii10021" unicode="&#x414;" horiz-adv-x="703" 
d="M687 100v-257h-107v157h-466v-157h-106v257h63q32 58 48.5 129.5t26.5 204.5l19 242h447v-576h75zM491 576h-222l-11 -142q-9 -124 -22 -196.5t-43 -137.5h298v476z" />
    <glyph glyph-name="afii10022" unicode="&#x415;" horiz-adv-x="584" 
d="M64 0v676h469v-99h-349v-177h318v-100h-318v-200h358v-100h-478z" />
    <glyph glyph-name="afii10024" unicode="&#x416;" horiz-adv-x="952" 
d="M416 408v268h119v-268h62l200 268h139l-240 -316l249 -360h-146l-205 306h-59v-306h-119v306h-60l-206 -306h-144l248 360l-239 316h139l201 -268h61z" />
    <glyph glyph-name="afii10025" unicode="&#x417;" horiz-adv-x="622" 
d="M304 683q124 0 190.5 -52.5t66.5 -139.5q0 -37 -23.5 -76t-75.5 -59v-5q112 -35 112 -154q0 -92 -72 -149t-204 -57q-68 0 -126.5 17t-101.5 60.5t-43 108.5q0 20 4 37h112q4 -47 29.5 -77t58 -40t72.5 -10q71 0 107.5 33.5t36.5 79.5q0 47 -30 75t-81 28h-98v99h88
q47 0 78 19.5t31 63.5t-34.5 71t-96.5 27q-128 0 -142 -105l-114 1q-2 16 -2 24q0 86 75 133t183 47z" />
    <glyph glyph-name="afii10026" unicode="&#x418;" horiz-adv-x="699" 
d="M518 676h117v-676h-118v500h-5q-35 -61 -92 -144l-244 -356h-113v676h120v-487h6q36 61 78 123z" />
    <glyph glyph-name="afii10027" unicode="&#x419;" horiz-adv-x="699" 
d="M354 729q-43 0 -76.5 16.5t-52.5 43t-29.5 53.5t-12.5 55h80q4 -37 26 -62t65 -25q42 0 64 25t26 62h80q-2 -28 -12.5 -55t-29.5 -53.5t-52 -43t-76 -16.5zM518 676h117v-676h-118v500h-5q-35 -61 -92 -144l-244 -356h-113v676h120v-487h6q36 61 78 123z" />
    <glyph glyph-name="afii10028" unicode="&#x41a;" horiz-adv-x="612" 
d="M184 676v-268h73l213 268h139l-257 -316l266 -360h-148l-217 306h-69v-306h-120v676h120z" />
    <glyph glyph-name="afii10029" unicode="&#x41b;" horiz-adv-x="659" 
d="M595 0h-119v577h-222l-11 -204q-5 -93 -11 -148.5t-18 -106.5t-32.5 -76.5t-52 -40t-78.5 -14.5q-30 0 -45 4l2 88q27 3 42.5 8t30 20.5t21 35t13 63.5t10 94t7.5 136l12 241h451v-677z" />
    <glyph glyph-name="afii10030" unicode="&#x41c;" horiz-adv-x="831" 
d="M413 218h7q36 98 107 249l99 208h141v-675h-119v481h-5q-29 -74 -56 -132l-121 -253h-100l-111 229q-45 93 -67 155h-5v-480h-119q0 112 0.5 337t0.5 338h140l110 -229q48 -102 98 -228z" />
    <glyph glyph-name="afii10031" unicode="&#x41d;" horiz-adv-x="697" 
d="M512 0v300h-328v-300h-120v676h120v-276h328v276h120v-676h-120z" />
    <glyph glyph-name="afii10032" unicode="&#x41e;" horiz-adv-x="727" 
d="M367 683q86 0 148 -29t95 -80.5t48 -110.5t15 -131q0 -53 -9 -100t-31 -91.5t-56 -77t-88 -52t-123 -19.5q-87 0 -149 25t-97 72t-50.5 106t-15.5 136q0 161 76.5 256.5t236.5 95.5zM365 584q-101 0 -144 -66t-43 -186q0 -243 187 -243q86 0 134.5 61.5t48.5 181.5
q0 117 -44 184.5t-139 67.5z" />
    <glyph glyph-name="afii10033" unicode="&#x41f;" horiz-adv-x="686" 
d="M502 0v577h-318v-577h-120v677h558v-677h-120z" />
    <glyph glyph-name="afii10034" unicode="&#x420;" horiz-adv-x="612" 
d="M349 243h-165v-243h-120v676h291q116 0 177 -60.5t61 -158.5q0 -37 -12.5 -72.5t-39 -68.5t-76 -53t-116.5 -20zM346 577h-162v-235h160q53 0 91 28t38 87q0 56 -35.5 88t-91.5 32z" />
    <glyph glyph-name="afii10035" unicode="&#x421;" horiz-adv-x="654" 
d="M178 335q0 -119 42 -181.5t138 -62.5q70 0 107.5 36t38.5 95h116q2 -12 2 -23q0 -98 -75.5 -152.5t-184.5 -54.5q-161 0 -234.5 86.5t-73.5 256.5q0 164 78.5 255.5t225.5 91.5q106 0 180.5 -53t74.5 -148q0 -10 -2 -20h-116q-3 57 -39.5 89t-101.5 32q-176 0 -176 -247z
" />
    <glyph glyph-name="afii10036" unicode="&#x422;" horiz-adv-x="595" 
d="M359 577v-577h-120v577h-224v99h565v-99h-221z" />
    <glyph glyph-name="afii10037" unicode="&#x423;" horiz-adv-x="574" 
d="M285 266h10l147 409h120l-200 -518q-34 -88 -79.5 -126.5t-124.5 -38.5h-50v95h37q42 0 63 14.5t37 50.5l12 28l-45 -2l-205 497h122z" />
    <glyph glyph-name="afii10038" unicode="&#x424;" horiz-adv-x="797" 
d="M458 676v-32q80 -6 138 -33t90 -69t46.5 -90t14.5 -104q0 -69 -28 -129t-95.5 -107t-165.5 -57v-55h-116v54q-150 14 -221 92t-71 199q0 123 75.5 205t216.5 94v32h116zM169 346q0 -176 173 -199v404q-86 -8 -129.5 -64t-43.5 -141zM625 348q0 187 -167 204v-404
q76 9 121.5 62.5t45.5 137.5z" />
    <glyph glyph-name="afii10039" unicode="&#x425;" horiz-adv-x="618" 
d="M588 676l-211 -325l232 -351h-140l-161 270l-80.5 -135t-81.5 -135h-139l232 351l-212 325h136l145 -249l70 120.5l75 128.5h135z" />
    <glyph glyph-name="afii10040" unicode="&#x426;" horiz-adv-x="729" 
d="M719 100v-257h-109v157h-546v676h120v-576h329v576h120v-576h86z" />
    <glyph glyph-name="afii10041" unicode="&#x427;" horiz-adv-x="636" 
d="M40 676h121v-188q0 -79 37 -110.5t106 -31.5q75 0 148 17v313h121v-676h-122v268q-86 -19 -171 -19q-124 0 -182 53t-58 160v214z" />
    <glyph glyph-name="afii10042" unicode="&#x428;" horiz-adv-x="962" 
d="M778 101v576h120v-677h-835v677h121v-576h239v576h119v-576h236z" />
    <glyph glyph-name="afii10043" unicode="&#x429;" horiz-adv-x="992" 
d="M984 100v-257h-110v157h-811v676h121v-576h238v576h119v-576h237v576h120v-576h86z" />
    <glyph glyph-name="afii10044" unicode="&#x42a;" horiz-adv-x="779" 
d="M341 676v-274h175q114 0 172 -58t58 -144q0 -98 -60 -149t-166 -51h-299v576h-207v100h327zM502 305h-161v-207h168q48 0 81 25.5t33 77.5q0 54 -34.5 79t-86.5 25z" />
    <glyph glyph-name="afii10045" unicode="&#x42b;" horiz-adv-x="831" 
d="M66 675h120v-273h172q116 0 173 -59t57 -143q0 -98 -60 -149t-166 -51h-296v675zM343 305h-157v-207h165q48 0 81 25.5t33 77.5q0 54 -35 79t-87 25zM645 0v675h121v-675h-121z" />
    <glyph glyph-name="afii10046" unicode="&#x42c;" horiz-adv-x="620" 
d="M66 675h120v-273h172q116 0 173 -59t57 -143q0 -98 -60 -149t-166 -51h-296v675zM343 305h-157v-207h165q48 0 81 25.5t33 77.5q0 54 -35 79t-87 25z" />
    <glyph glyph-name="afii10047" unicode="&#x42d;" horiz-adv-x="658" 
d="M208 303v98h270q-2 78 -44 129.5t-119 51.5q-60 0 -100 -29t-47 -83h-114q0 2 -0.5 6.5t-0.5 6.5q0 95 74.5 147t184.5 52q292 0 292 -347q0 -163 -74 -253t-227 -90q-110 0 -187 50t-77 151q0 10 1 16h116q1 -54 42 -86t107 -32q172 0 174 212h-271z" />
    <glyph glyph-name="afii10048" unicode="&#x42e;" horiz-adv-x="957" 
d="M603 684q69 0 122.5 -20t86.5 -53t54 -80t29 -95t8 -104q0 -65 -15 -122t-47.5 -108t-93.5 -80.5t-145 -29.5q-290 0 -304 307h-114v-299h-120v677h120v-276h118q15 129 90.5 206t210.5 77zM602 584q-99 0 -140 -66t-41 -186q0 -243 181 -243q85 0 130.5 61.5t45.5 181.5
q0 252 -176 252z" />
    <glyph glyph-name="afii10049" unicode="&#x42f;" horiz-adv-x="638" 
d="M56 467q0 96 61 152.5t176 56.5h274v-676h-120v263h-72l-189 -263h-141l197 267q-94 13 -140 72t-46 128zM448 577h-145q-55 0 -91 -29t-36 -80q0 -57 36.5 -82t90.5 -25h145v216z" />
    <glyph glyph-name="afii10065" unicode="&#x430;" horiz-adv-x="533" 
d="M475 324v-324h-93q-14 22 -15 67h-5q-25 -40 -68.5 -58t-88.5 -18q-78 0 -123.5 37t-45.5 110q0 162 234 162q35 0 89 -6v24q0 89 -94 89q-73 0 -87 -56h-104q-1 6 -1 16q0 46 32 76t73.5 41t88.5 11q115 0 161.5 -46t46.5 -125zM360 218q-38 7 -82 7q-125 0 -125 -82
q0 -29 22 -47t58 -18q60 0 93.5 33t33.5 76v31z" />
    <glyph glyph-name="afii10066" unicode="&#x431;" horiz-adv-x="577" 
d="M290 81q58 0 90 39t32 116q0 78 -28 116.5t-93 38.5q-64 0 -93.5 -45t-29.5 -112q0 -71 30 -112t92 -41zM285 -8q-235 0 -235 271q0 128 22.5 213t86.5 132q28 21 69.5 39t73 28.5t89 27l83.5 24.5l28 -86q-182 -54 -226 -74q-72 -34 -95 -89q-11 -27 -15 -65h5
q48 68 152 68q109 0 157.5 -67t48.5 -177q0 -48 -12 -89.5t-38 -77.5t-75.5 -57t-118.5 -21z" />
    <glyph glyph-name="afii10067" unicode="&#x432;" horiz-adv-x="540" 
d="M419 258v-4q81 -25 81 -113q0 -58 -43.5 -99.5t-123.5 -41.5h-276v485h281q64 0 105 -33t41 -97q0 -72 -65 -97zM302 209h-129v-124h124q38 0 63 15t25 45q0 64 -83 64zM299 398h-126v-110h124q73 0 73 56q0 26 -19 40t-52 14z" />
    <glyph glyph-name="afii10068" unicode="&#x433;" horiz-adv-x="458" 
d="M58 0v485h394v-93h-276v-392h-118z" />
    <glyph glyph-name="afii10069" unicode="&#x434;" horiz-adv-x="578" 
d="M555 90v-223h-100v133h-347v-133h-102v223h61q37 66 50 221l14 174h361v-395h63zM374 396h-147l-8 -94q-5 -58 -8 -85.5t-11 -62.5t-21 -64h195v306z" />
    <glyph glyph-name="afii10070" unicode="&#x435;" horiz-adv-x="544" 
d="M276 403q-48 0 -76 -28.5t-32 -79.5h211q-1 50 -27 79t-76 29zM278 493q108 0 162.5 -61t54.5 -155q0 -24 -5 -54h-326q0 -142 119 -142q91 0 101 74h106q1 -6 1 -17q0 -74 -60.5 -110t-148.5 -36q-234 0 -234 244q0 114 58 185.5t172 71.5z" />
    <glyph glyph-name="afii10072" unicode="&#x436;" horiz-adv-x="767" 
d="M325 304v182h116v-182h55l135 181h126l-173 -221l181 -264h-134l-140 215h-50v-215h-116v215h-51l-141 -215h-133l179 262l-173 223h129l135 -181h55z" />
    <glyph glyph-name="afii10073" unicode="&#x437;" horiz-adv-x="489" 
d="M238 494q99 0 149.5 -40t50.5 -103q0 -69 -70 -100v-4q77 -28 77 -104q0 -66 -54.5 -108.5t-154.5 -42.5q-96 0 -154.5 38t-58.5 118q0 4 0.5 11t0.5 11h107q2 -47 31.5 -69.5t73.5 -22.5q45 0 68 20.5t23 49.5q0 26 -18 44.5t-52 18.5h-70v81h70q24 0 41 14t17 41
q0 25 -20.5 40.5t-53.5 15.5q-85 0 -93 -72h-105q-1 8 -1 23q1 69 56 104.5t140 35.5z" />
    <glyph glyph-name="afii10074" unicode="&#x438;" horiz-adv-x="576" 
d="M401 332h-7q-20 -38 -88 -135l-138 -197h-111v486h114v-320q4 0 6 -1q12 21 85 125l139 196h117v-486h-117v332z" />
    <glyph glyph-name="afii10075" unicode="&#x439;" horiz-adv-x="576" 
d="M291 547q-43 0 -76.5 16.5t-52.5 43t-29.5 53.5t-12.5 55h80q4 -37 26 -62t65 -25q42 0 64 25t26 62h80q-2 -28 -12.5 -55t-29.5 -53.5t-52 -43t-76 -16.5zM401 332h-7q-20 -38 -88 -135l-138 -197h-111v486h114v-320q4 0 6 -1q12 21 85 125l139 196h117v-486h-117v332z
" />
    <glyph glyph-name="afii10076" unicode="&#x43a;" horiz-adv-x="519" 
d="M173 486v-183h59l145 182h130l-180 -224l187 -261h-136l-144 211h-61v-211h-116v486h116z" />
    <glyph glyph-name="afii10077" unicode="&#x43b;" horiz-adv-x="531" 
d="M473 0h-117v396h-145l-8 -141q-8 -151 -39.5 -208t-113.5 -57q-18 0 -44 3l3 81q39 5 54 20t23.5 60.5t14.5 157.5l10 174h362v-486z" />
    <glyph glyph-name="afii10078" unicode="&#x43c;" horiz-adv-x="703" 
d="M396 67h-90l-74 134q-30 54 -50 100h-5v-301h-115v484h130l97 -172q35 -63 58 -128h9q33 75 70 145l84 155h130v-484h-115v308h-7q-12 -34 -45 -99z" />
    <glyph glyph-name="afii10079" unicode="&#x43d;" horiz-adv-x="574" 
d="M399 0v210h-223v-210h-118v485h118v-185h223v185h117v-485h-117z" />
    <glyph glyph-name="afii10080" unicode="&#x43e;" horiz-adv-x="577" 
d="M290 494q53 0 94.5 -14.5t68 -38t44 -56.5t24.5 -68t7 -75q0 -48 -12 -90.5t-38 -79t-74.5 -58t-113.5 -21.5q-241 0 -241 248q0 113 60.5 183t180.5 70zM290 401q-124 0 -124 -160q0 -158 124 -158q57 0 88 40t31 119q0 159 -119 159z" />
    <glyph glyph-name="afii10081" unicode="&#x43f;" horiz-adv-x="571" 
d="M395 395h-220v-395h-118v485h457v-485h-119v395z" />
    <glyph glyph-name="afii10082" unicode="&#x440;" horiz-adv-x="575" 
d="M326 493q200 0 200 -245q0 -117 -54 -186.5t-155 -69.5q-97 0 -139 49h-4v-245h-116v690h94q17 -26 17 -73h5q24 41 65.5 60.5t86.5 19.5zM291 402q-54 0 -85.5 -36.5t-31.5 -93.5v-69q0 -48 26 -85.5t89 -37.5q59 0 88.5 43t29.5 119q0 82 -28.5 121t-87.5 39z" />
    <glyph glyph-name="afii10083" unicode="&#x441;" horiz-adv-x="522" 
d="M279 493q85 0 141.5 -38.5t56.5 -109.5q0 -10 -2 -20h-107q-3 40 -30 57t-58 17q-114 0 -114 -158q0 -76 26.5 -116t88.5 -40q38 0 65.5 20t30.5 65h106q2 -14 2 -20q0 -75 -56.5 -116.5t-141.5 -41.5q-239 0 -239 244q0 122 59 189.5t172 67.5z" />
    <glyph glyph-name="afii10084" unicode="&#x442;" horiz-adv-x="477" 
d="M298 395v-395h-118v395h-171v90h458v-90h-169z" />
    <glyph glyph-name="afii10085" unicode="&#x443;" horiz-adv-x="491" 
d="M236 86h8q9 35 52 175l69 224h114l-184 -544q-26 -74 -66 -111.5t-117 -37.5h-66v91h51q35 0 54.5 12.5t33.5 43.5l21 61q-29 0 -43 -1q-23 85 -48 164.5l-57.5 176l-48.5 145.5h120l63 -228q40 -151 44 -171z" />
    <glyph glyph-name="afii10086" unicode="&#x444;" horiz-adv-x="713" 
d="M413 406v-327q63 7 99.5 48.5t36.5 113.5q0 154 -136 165zM299 79v327q-65 -8 -100.5 -52t-35.5 -113q0 -72 37 -113t99 -49zM299 492v219h113v-218q73 -4 125 -28t78 -62.5t37 -77.5t11 -83q0 -39 -14 -79t-41.5 -78t-78.5 -63.5t-116 -28.5v-198h-114v199
q-69 2 -119.5 25.5t-78 60.5t-40 77.5t-12.5 83.5q0 42 13.5 82.5t41 78t78 62t117.5 28.5z" />
    <glyph glyph-name="afii10087" unicode="&#x445;" horiz-adv-x="503" 
d="M361 0l-109 180l-111 -180h-133l173 253l-161 233h134l95 -158l97 158h134l-162 -233l176 -253h-133z" />
    <glyph glyph-name="afii10088" unicode="&#x446;" horiz-adv-x="592" 
d="M392 90v395h118v-395h71v-223h-101v133h-423v485h118v-395h217z" />
    <glyph glyph-name="afii10089" unicode="&#x447;" horiz-adv-x="515" 
d="M27 485h116v-150q0 -55 25.5 -76t76.5 -21q41 0 93 16l2 231h117v-485h-118v172q-64 -23 -134 -23q-93 0 -135.5 44.5t-42.5 130.5v161z" />
    <glyph glyph-name="afii10090" unicode="&#x448;" horiz-adv-x="799" 
d="M624 89v396h118v-485h-684v485h117v-396h163v396h118v-396h168z" />
    <glyph glyph-name="afii10091" unicode="&#x449;" horiz-adv-x="823" 
d="M456 89q28 0 84 0.5t83 0.5v395h118v-395h70v-223h-101v133h-653v485h118v-396h163v396h118v-396z" />
    <glyph glyph-name="afii10092" unicode="&#x44a;" horiz-adv-x="632" 
d="M161 0q0 66 0.5 198t0.5 199h-152v88h270v-178h155q86 0 130 -44t44 -110t-45 -109.5t-126 -43.5h-277zM278 85h133q39 0 60.5 18.5t21.5 49.5q0 34 -23 52t-60 18h-132v-138z" />
    <glyph glyph-name="afii10093" unicode="&#x44b;" horiz-adv-x="734" 
d="M676 0h-118v485h118v-485zM57 485h119v-178h155q87 0 131 -44t44 -110t-45 -109.5t-127 -43.5h-277v485zM175 85h133q39 0 60.5 18.5t21.5 49.5q0 34 -23.5 52t-60.5 18h-131v-138z" />
    <glyph glyph-name="afii10094" unicode="&#x44c;" horiz-adv-x="531" 
d="M57 485h119v-178h155q87 0 131 -44t44 -110t-45 -109.5t-127 -43.5h-277v485zM175 85h133q39 0 60.5 18.5t21.5 49.5q0 34 -23.5 52t-60.5 18h-131v-138z" />
    <glyph glyph-name="afii10095" unicode="&#x44d;" horiz-adv-x="516" 
d="M242 493q224 0 224 -258q0 -114 -57 -178.5t-176 -64.5q-85 0 -142.5 37.5t-57.5 114.5q0 12 1 18h104q9 -80 96 -80q106 0 113 123h-168v88h166q0 50 -25.5 78.5t-74.5 28.5q-34 0 -62 -17t-34 -52h-103q-1 4 -1 13q0 51 31.5 86t74 49t91.5 14z" />
    <glyph glyph-name="afii10096" unicode="&#x44e;" horiz-adv-x="765" 
d="M484 494q53 0 94 -15t66.5 -39.5t42 -58t23 -67.5t6.5 -72q0 -47 -11 -88.5t-36 -79t-72.5 -59.5t-112.5 -22q-116 0 -172 58.5t-63 157.5h-74v-209h-117v486h117v-189h77q13 88 71 142.5t161 54.5zM483 401q-118 0 -118 -160q0 -158 118 -158q114 0 114 159t-114 159z
" />
    <glyph glyph-name="afii10097" unicode="&#x44f;" horiz-adv-x="538" 
d="M45 332q0 69 47 111.5t130 42.5h258v-486h-117v183h-55l-144 -183h-129l148 186q-70 8 -104 49.5t-34 96.5zM364 400h-123q-35 0 -57.5 -18t-22.5 -49q0 -68 80 -68h123v135z" />
    <glyph glyph-name="afii10071" unicode="&#x451;" horiz-adv-x="544" 
d="M276 403q-48 0 -76 -28.5t-32 -79.5h211q-1 50 -27 79t-76 29zM278 493q108 0 162.5 -61t54.5 -155q0 -24 -5 -54h-326q0 -142 119 -142q91 0 101 74h106q1 -6 1 -17q0 -74 -60.5 -110t-148.5 -36q-234 0 -234 244q0 114 58 185.5t172 71.5zM124 634q0 25 17.5 42
t41.5 17q25 0 42.5 -17t17.5 -42t-17.5 -42t-42.5 -17q-24 0 -41.5 17t-17.5 42zM314 634q0 25 17 42t42 17t42.5 -17t17.5 -42t-17.5 -42t-42.5 -17t-42 17t-17 42z" />
    <glyph glyph-name="afii10099" unicode="&#x452;" horiz-adv-x="574" 
d="M328 477q196 0 196 -253q0 -44 -5.5 -81.5t-20 -74t-37.5 -62.5t-60.5 -42t-86.5 -16q-9 0 -29 2v88q69 4 96.5 50.5t27.5 135.5q0 78 -26 122t-90 44q-61 0 -87.5 -43t-26.5 -102v-245h-115v556h-51v68h51v87h114v-87h222v-68h-222v-59q0 -61 -15 -109h6q23 43 67.5 66
t91.5 23z" />
    <glyph glyph-name="afii10100" unicode="&#x453;" horiz-adv-x="458" 
d="M220 557l-54 49l142 168l79 -74zM58 0v485h394v-93h-276v-392h-118z" />
    <glyph glyph-name="afii10101" unicode="&#x454;" horiz-adv-x="518" 
d="M280 493q84 0 140 -37.5t57 -107.5q0 -6 -2 -20h-108q-3 38 -29.5 54.5t-57.5 16.5q-98 0 -110 -106h164v-88h-166q8 -121 113 -121q91 0 97 83h107q1 -7 1 -20q0 -72 -57 -114t-141 -42q-239 0 -239 244q0 121 59 189.5t172 68.5z" />
    <glyph glyph-name="afii10102" unicode="&#x455;" horiz-adv-x="503" 
d="M249 494q46 0 87.5 -11t73.5 -40.5t32 -73.5q0 -6 -2 -20h-109q-9 57 -84 57q-40 0 -60.5 -16t-20.5 -40q0 -28 21 -37.5t78 -18.5q104 -16 148 -49t44 -103q0 -63 -53 -106t-156 -43q-51 0 -96 11.5t-80 45t-35 84.5q0 6 2 22h109q6 -77 106 -77q43 0 65.5 18t22.5 42
q0 30 -22.5 44t-79.5 22q-38 5 -61.5 10t-50.5 15t-42.5 24t-25.5 37t-10 54q0 61 47.5 105t151.5 44z" />
    <glyph glyph-name="afii10103" unicode="&#x456;" horiz-adv-x="279" 
d="M79 0v486h117v-486h-117zM71 618q0 29 20 49t48 20q29 0 49.5 -20t20.5 -49q0 -28 -20.5 -48t-49.5 -20q-28 0 -48 20t-20 48z" />
    <glyph glyph-name="afii10104" unicode="&#x457;" horiz-adv-x="279" 
d="M-15 627q0 25 17.5 42t41.5 17q25 0 42.5 -17t17.5 -42t-17.5 -42t-42.5 -17q-24 0 -41.5 17t-17.5 42zM175 627q0 25 17 42t42 17t42.5 -17t17.5 -42t-17.5 -42t-42.5 -17t-42 17t-17 42zM79 0v486h117v-486h-117z" />
    <glyph glyph-name="afii10105" unicode="&#x458;" horiz-adv-x="271" 
d="M71 -204h-64v94h20q30 0 40.5 14t10.5 45v537h118v-550q0 -67 -28 -103.5t-97 -36.5zM69 618q0 29 20 49t48 20q29 0 49.5 -20t20.5 -49q0 -28 -20.5 -48t-49.5 -20q-28 0 -48 20t-20 48z" />
    <glyph glyph-name="afii10106" unicode="&#x459;" horiz-adv-x="810" 
d="M117 485h346v-178h147q87 0 131 -44t44 -110t-45 -109.5t-126 -43.5h-270v396h-128q-4 -89 -7 -140.5t-10.5 -103.5t-17.5 -78t-27.5 -48t-41 -29.5t-58.5 -7.5q-27 0 -42 3l3 82q25 3 38 8.5t23.5 20t15 40t8 70t7.5 108.5zM461 85h126q38 0 60 18.5t22 49.5
q0 34 -23.5 52t-59.5 18h-125v-138z" />
    <glyph glyph-name="afii10107" unicode="&#x45a;" horiz-adv-x="803" 
d="M339 485h119v-186h151q87 0 129.5 -41.5t42.5 -107.5t-43.5 -108t-125.5 -42h-273v213h-165v-213h-117v485h117v-186h165v186zM456 85h129q82 0 82 63q0 65 -83 65h-128v-128z" />
    <glyph glyph-name="afii10108" unicode="&#x45b;" horiz-adv-x="564" 
d="M161 393h5q24 43 68.5 64.5t93.5 21.5q55 0 92.5 -16t55.5 -46.5t24.5 -63t6.5 -76.5v-277h-119v270q0 60 -21.5 91t-76.5 31q-58 0 -86.5 -43t-28.5 -97v-252h-117v556h-51v68h51v88h115v-88h211v-68h-211v-40q0 -84 -12 -123z" />
    <glyph glyph-name="afii10109" unicode="&#x45c;" horiz-adv-x="513" 
d="M243 544l-54 49l142 168l79 -74zM173 486v-183h59l145 182h130l-180 -224l187 -261h-136l-144 211h-61v-211h-116v486h116z" />
    <glyph glyph-name="afii10110" unicode="&#x45e;" horiz-adv-x="491" 
d="M236 86h8q9 35 52 175l69 224h114l-184 -544q-26 -74 -66 -111.5t-117 -37.5h-66v91h51q35 0 54.5 12.5t33.5 43.5l21 61q-29 0 -43 -1q-23 85 -48 164.5l-57.5 176l-48.5 145.5h120l63 -228q40 -151 44 -171zM249 539q-81 0 -123 55.5t-48 119.5h80q4 -39 26 -66.5
t65 -27.5q42 0 64 28t26 66h80q-2 -28 -12.5 -56t-29.5 -56t-52.5 -45.5t-75.5 -17.5z" />
    <glyph glyph-name="afii10193" unicode="&#x45f;" horiz-adv-x="570" 
d="M340 0v-156h-104v156h-179v485h118v-396h219v396h118v-485h-172z" />
    <glyph glyph-name="afii10050" unicode="&#x490;" horiz-adv-x="554" 
d="M441 675v141h105v-240h-362v-576h-120v675h377z" />
    <glyph glyph-name="afii10098" unicode="&#x491;" horiz-adv-x="462" 
d="M351 484v135h100v-228h-276v-391h-118v484h294z" />
    <glyph glyph-name="schwacyrillic" unicode="&#x4d9;" horiz-adv-x="544" 
d="M269 81q48 0 76 28.5t32 79.5h-211q1 -50 26.5 -79t76.5 -29zM267 -8q-107 0 -163 59.5t-56 151.5q0 31 6 59h327q0 62 -28 101t-86 39q-92 0 -101 -73h-106q0 84 58.5 124t150.5 40q228 0 228 -249q0 -111 -58 -181.5t-172 -70.5z" />
    <glyph glyph-name="Wgrave" unicode="&#x1e80;" horiz-adv-x="949" 
d="M683 141h5q28 139 58 265l63 270h129l-186 -676h-132l-86 296q-5 16 -16.5 56.5l-17 60t-13.5 52.5t-13 63h-4q-15 -82 -56 -228l-85 -300h-131l-187 676h128l60 -250l19.5 -81t25 -110t18.5 -95h5q13 57 74 286l69 250h127l75 -265q57 -207 71 -270zM522 778l-43 -60
l-198 97l66 92z" />
    <glyph glyph-name="wgrave" unicode="&#x1e81;" horiz-adv-x="759" 
d="M529 121h8q9 57 45 193l44 171h122l-152 -486h-122l-56 187q-14 47 -36 154h-8q-21 -113 -34 -157l-55 -184h-122l-153 486h122l40 -147q44 -160 53 -217h8q19 99 39 166l58 198h102q63 -203 97 -364zM440 592l-55 -49l-163 147l83 74z" />
    <glyph glyph-name="Wacute" unicode="&#x1e82;" horiz-adv-x="949" 
d="M683 141h5q28 139 58 265l63 270h129l-186 -676h-132l-86 296q-5 16 -16.5 56.5l-17 60t-13.5 52.5t-13 63h-4q-15 -82 -56 -228l-85 -300h-131l-187 676h128l60 -250l19.5 -81t25 -110t18.5 -95h5q13 57 74 286l69 250h127l75 -265q57 -207 71 -270zM442 722l-40 61
l174 128l65 -92z" />
    <glyph glyph-name="wacute" unicode="&#x1e83;" horiz-adv-x="759" 
d="M529 121h8q9 57 45 193l44 171h122l-152 -486h-122l-56 187q-14 47 -36 154h-8q-21 -113 -34 -157l-55 -184h-122l-153 486h122l40 -147q44 -160 53 -217h8q19 99 39 166l58 198h102q63 -203 97 -364zM364 544l-54 49l142 168l79 -74z" />
    <glyph glyph-name="Wdieresis" unicode="&#x1e84;" horiz-adv-x="949" 
d="M683 141h5q28 139 58 265l63 270h129l-186 -676h-132l-86 296q-5 16 -16.5 56.5l-17 60t-13.5 52.5t-13 63h-4q-15 -82 -56 -228l-85 -300h-131l-187 676h128l60 -250l19.5 -81t25 -110t18.5 -95h5q13 57 74 286l69 250h127l75 -265q57 -207 71 -270zM318 821q0 25 17 42
t42 17t42.5 -17t17.5 -42t-17.5 -42t-42.5 -17t-42 17t-17 42zM508 821q0 25 17 42t42 17t42.5 -17t17.5 -42t-17.5 -42t-42.5 -17t-42 17t-17 42z" />
    <glyph glyph-name="wdieresis" unicode="&#x1e85;" horiz-adv-x="759" 
d="M529 121h8q9 57 45 193l44 171h122l-152 -486h-122l-56 187q-14 47 -36 154h-8q-21 -113 -34 -157l-55 -184h-122l-153 486h122l40 -147q44 -160 53 -217h8q19 99 39 166l58 198h102q63 -203 97 -364zM222 627q0 25 17.5 42t41.5 17q25 0 42.5 -17t17.5 -42t-17.5 -42
t-42.5 -17q-24 0 -41.5 17t-17.5 42zM412 627q0 25 17 42t42 17t42.5 -17t17.5 -42t-17.5 -42t-42.5 -17t-42 17t-17 42z" />
    <glyph glyph-name="Ygrave" unicode="&#x1ef2;" horiz-adv-x="606" 
d="M297 361h8q29 74 80 169l78 145h129l-233 -416v-259h-121v258l-231 417h132l80 -151q50 -94 78 -163zM376 778l-43 -60l-198 97l66 92z" />
    <glyph glyph-name="ygrave" unicode="&#x1ef3;" horiz-adv-x="491" 
d="M236 86h8q9 35 52 175l69 224h114l-184 -544q-26 -74 -66 -111.5t-117 -37.5h-66v91h51q35 0 54.5 12.5t33.5 43.5l21 61q-29 0 -43 -1q-23 85 -48 164.5l-57.5 176l-48.5 145.5h120l63 -228q40 -151 44 -171zM306 592l-55 -49l-163 147l83 74z" />
    <glyph glyph-name="uni1F00" unicode="&#x1f00;" horiz-adv-x="572" 
d="M256 494q102 0 147 -69h4q1 40 17 61h89v-486h-94q-15 22 -15 65h-5q-45 -73 -151 -73q-107 0 -153.5 64.5t-46.5 185.5q0 110 51.5 181t156.5 71zM280 80q60 0 89 43.5t29 100.5v53q0 57 -30.5 93t-84.5 36q-117 0 -117 -162q0 -164 114 -164zM298 538l-45 24
q32 46 32 85q0 22 -15 37.5t-52 28.5l35 95q124 -36 124 -133q0 -33 -21 -71.5t-58 -65.5z" />
    <glyph glyph-name="uni1F01" unicode="&#x1f01;" horiz-adv-x="572" 
d="M256 494q102 0 147 -69h4q1 40 17 61h89v-486h-94q-15 22 -15 65h-5q-45 -73 -151 -73q-107 0 -153.5 64.5t-46.5 185.5q0 110 51.5 181t156.5 71zM280 80q60 0 89 43.5t29 100.5v53q0 57 -30.5 93t-84.5 36q-117 0 -117 -162q0 -164 114 -164zM347 562l-45 -24
q-37 27 -58.5 65.5t-21.5 71.5q0 48 33 82t92 51l35 -95q-37 -13 -52 -28.5t-15 -37.5q0 -39 32 -85z" />
    <glyph glyph-name="uni1F02" unicode="&#x1f02;" horiz-adv-x="572" 
d="M256 494q102 0 147 -69h4q1 40 17 61h89v-486h-94q-15 22 -15 65h-5q-45 -73 -151 -73q-107 0 -153.5 64.5t-46.5 185.5q0 110 51.5 181t156.5 71zM280 80q60 0 89 43.5t29 100.5v53q0 57 -30.5 93t-84.5 36q-117 0 -117 -162q0 -164 114 -164zM189 537l-45 25
q32 45 32 86q0 21 -15 36t-53 29l32 99q128 -42 128 -139q0 -32 -22 -70.5t-57 -65.5zM468 580l-68 -30l-140 230l105 42z" />
    <glyph glyph-name="uni1F03" unicode="&#x1f03;" horiz-adv-x="572" 
d="M256 494q102 0 147 -69h4q1 40 17 61h89v-486h-94q-15 22 -15 65h-5q-45 -73 -151 -73q-107 0 -153.5 64.5t-46.5 185.5q0 110 51.5 181t156.5 71zM280 80q60 0 89 43.5t29 100.5v53q0 57 -30.5 93t-84.5 36q-117 0 -117 -162q0 -164 114 -164zM472 576l-67 -30l-140 231
l104 41zM226 562l-45 -25q-37 27 -58 65.5t-21 71.5q0 96 124 134l36 -96q-68 -23 -68 -65q0 -39 32 -85z" />
    <glyph glyph-name="uni1F04" unicode="&#x1f04;" horiz-adv-x="572" 
d="M256 494q102 0 147 -69h4q1 40 17 61h89v-486h-94q-15 22 -15 65h-5q-45 -73 -151 -73q-107 0 -153.5 64.5t-46.5 185.5q0 110 51.5 181t156.5 71zM280 80q60 0 89 43.5t29 100.5v53q0 57 -30.5 93t-84.5 36q-117 0 -117 -162q0 -164 114 -164zM376 539l-67 30l103 242
l104 -42zM222 542l-45 25q32 46 32 85q0 42 -68 66l36 95q124 -36 124 -134q0 -33 -21 -71.5t-58 -65.5z" />
    <glyph glyph-name="uni1F05" unicode="&#x1f05;" horiz-adv-x="572" 
d="M256 494q102 0 147 -69h4q1 40 17 61h89v-486h-94q-15 22 -15 65h-5q-45 -73 -151 -73q-107 0 -153.5 64.5t-46.5 185.5q0 110 51.5 181t156.5 71zM280 80q60 0 89 43.5t29 100.5v53q0 57 -30.5 93t-84.5 36q-117 0 -117 -162q0 -164 114 -164zM363 538l-67 30l103 242
l105 -42zM264 563l-45 -25q-37 27 -58 66t-21 71q0 98 124 134l36 -95q-68 -24 -68 -66q0 -39 32 -85z" />
    <glyph glyph-name="uni1F06" unicode="&#x1f06;" horiz-adv-x="572" 
d="M256 494q102 0 147 -69h4q1 40 17 61h89v-486h-94q-15 22 -15 65h-5q-45 -73 -151 -73q-107 0 -153.5 64.5t-46.5 185.5q0 110 51.5 181t156.5 71zM280 80q60 0 89 43.5t29 100.5v53q0 57 -30.5 93t-84.5 36q-117 0 -117 -162q0 -164 114 -164zM286 523l-49 23
q32 37 32 63q0 38 -65 43l32 83q124 -21 124 -105q0 -27 -20 -56.5t-54 -50.5zM354 752q-27 0 -74.5 18.5t-67.5 18.5q-36 0 -72 -38l-49 37q16 42 46.5 65t67.5 23q22 0 66.5 -17.5t70.5 -17.5q37 0 71 36l51 -35q-13 -40 -44 -65t-66 -25z" />
    <glyph glyph-name="uni1F07" unicode="&#x1f07;" horiz-adv-x="572" 
d="M256 494q102 0 147 -69h4q1 40 17 61h89v-486h-94q-15 22 -15 65h-5q-45 -73 -151 -73q-107 0 -153.5 64.5t-46.5 185.5q0 110 51.5 181t156.5 71zM280 80q60 0 89 43.5t29 100.5v53q0 57 -30.5 93t-84.5 36q-117 0 -117 -162q0 -164 114 -164zM336 554l-49 -22
q-34 21 -54 50.5t-20 56.5q0 82 124 105l32 -84q-65 -5 -65 -42q0 -27 32 -64zM378 763q-26 0 -73 17t-68 17q-38 0 -73 -37l-49 37q16 42 46.5 65t67.5 23q22 0 67 -18t71 -18q37 0 70 37l51 -36q-12 -40 -43.5 -63.5t-66.5 -23.5z" />
    <glyph glyph-name="uni1F08" unicode="&#x1f08;" horiz-adv-x="657" 
d="M517 0l-58 163h-268l-58 -163h-125l257 678h126l254 -678h-128zM329 551h-6q-9 -35 -49 -155l-49 -139h201l-47 133q-42 129 -50 161zM30 441l-45 24q32 46 32 85q0 22 -15 37.5t-52 28.5l35 95q124 -36 124 -133q0 -33 -21 -71.5t-58 -65.5z" />
    <glyph glyph-name="uni1F09" unicode="&#x1f09;" horiz-adv-x="657" 
d="M517 0l-58 163h-268l-58 -163h-125l257 678h126l254 -678h-128zM329 551h-6q-9 -35 -49 -155l-49 -139h201l-47 133q-42 129 -50 161zM74 468l-45 -24q-37 27 -58.5 65.5t-21.5 71.5q0 48 33 82t92 51l35 -95q-37 -13 -52 -28.5t-15 -37.5q0 -39 32 -85z" />
    <glyph glyph-name="uni1F0A" unicode="&#x1f0a;" horiz-adv-x="657" 
d="M517 0l-58 163h-268l-58 -163h-125l257 678h126l254 -678h-128zM329 551h-6q-9 -35 -49 -155l-49 -139h201l-47 133q-42 129 -50 161zM-148 433l-45 25q32 45 32 86q0 21 -15 36t-53 29l32 99q128 -42 128 -139q0 -32 -22 -70.5t-57 -65.5zM131 476l-68 -30l-140 230
l105 42z" />
    <glyph glyph-name="uni1F0B" unicode="&#x1f0b;" horiz-adv-x="657" 
d="M517 0l-58 163h-268l-58 -163h-125l257 678h126l254 -678h-128zM329 551h-6q-9 -35 -49 -155l-49 -139h201l-47 133q-42 129 -50 161zM133 479l-67 -30l-140 231l104 41zM-113 465l-45 -25q-37 27 -58 65.5t-21 71.5q0 96 124 134l36 -96q-68 -23 -68 -65q0 -39 32 -85z
" />
    <glyph glyph-name="uni1F0C" unicode="&#x1f0c;" horiz-adv-x="657" 
d="M517 0l-58 163h-268l-58 -163h-125l257 678h126l254 -678h-128zM329 551h-6q-9 -35 -49 -155l-49 -139h201l-47 133q-42 129 -50 161zM22 438l-67 30l103 242l104 -42zM-132 441l-45 25q32 46 32 85q0 42 -68 66l36 95q124 -36 124 -134q0 -33 -21 -71.5t-58 -65.5z" />
    <glyph glyph-name="uni1F0D" unicode="&#x1f0d;" horiz-adv-x="657" 
d="M517 0l-58 163h-268l-58 -163h-125l257 678h126l254 -678h-128zM329 551h-6q-9 -35 -49 -155l-49 -139h201l-47 133q-42 129 -50 161zM22 440l-67 30l103 242l105 -42zM-77 465l-45 -25q-37 27 -58 66t-21 71q0 98 124 134l36 -95q-68 -24 -68 -66q0 -39 32 -85z" />
    <glyph glyph-name="uni1F0E" unicode="&#x1f0e;" horiz-adv-x="657" 
d="M517 0l-58 163h-268l-58 -163h-125l257 678h126l254 -678h-128zM329 551h-6q-9 -35 -49 -155l-49 -139h201l-47 133q-42 129 -50 161zM-6 359l-49 23q32 37 32 63q0 38 -65 43l32 83q124 -21 124 -105q0 -27 -20 -56.5t-54 -50.5zM62 588q-27 0 -74.5 18.5t-67.5 18.5
q-36 0 -72 -38l-49 37q16 42 46.5 65t67.5 23q22 0 66.5 -17.5t70.5 -17.5q37 0 71 36l51 -35q-13 -40 -44 -65t-66 -25z" />
    <glyph glyph-name="uni1F0F" unicode="&#x1f0f;" horiz-adv-x="657" 
d="M517 0l-58 163h-268l-58 -163h-125l257 678h126l254 -678h-128zM329 551h-6q-9 -35 -49 -155l-49 -139h201l-47 133q-42 129 -50 161zM24 383l-49 -22q-34 21 -54 50.5t-20 56.5q0 82 124 105l32 -84q-65 -5 -65 -42q0 -27 32 -64zM66 592q-26 0 -73 17t-68 17
q-38 0 -73 -37l-49 37q16 42 46.5 65t67.5 23q22 0 67 -18t71 -18q37 0 70 37l51 -36q-12 -40 -43.5 -63.5t-66.5 -23.5z" />
    <glyph glyph-name="uni1F10" unicode="&#x1f10;" horiz-adv-x="489" 
d="M260 -8q-107 0 -159.5 39t-52.5 105q0 81 76 110v5q-69 24 -69 94q0 65 51 107t148 42q84 0 139 -35.5t56 -104.5q0 -15 -1 -23h-103q-6 71 -95 71q-32 0 -53.5 -19.5t-21.5 -42.5q0 -48 59 -48h79v-81h-80q-31 0 -50.5 -19t-19.5 -44q0 -29 23 -48.5t67 -19.5
q45 0 74.5 22t31.5 68h104q2 -14 2 -21q0 -77 -57.5 -116.5t-147.5 -40.5zM248 538l-45 24q32 46 32 85q0 22 -15 37.5t-52 28.5l35 95q124 -36 124 -133q0 -33 -21 -71.5t-58 -65.5z" />
    <glyph glyph-name="uni1F11" unicode="&#x1f11;" horiz-adv-x="489" 
d="M260 -8q-107 0 -159.5 39t-52.5 105q0 81 76 110v5q-69 24 -69 94q0 65 51 107t148 42q84 0 139 -35.5t56 -104.5q0 -15 -1 -23h-103q-6 71 -95 71q-32 0 -53.5 -19.5t-21.5 -42.5q0 -48 59 -48h79v-81h-80q-31 0 -50.5 -19t-19.5 -44q0 -29 23 -48.5t67 -19.5
q45 0 74.5 22t31.5 68h104q2 -14 2 -21q0 -77 -57.5 -116.5t-147.5 -40.5zM299 562l-45 -24q-37 27 -58.5 65.5t-21.5 71.5q0 48 33 82t92 51l35 -95q-37 -13 -52 -28.5t-15 -37.5q0 -39 32 -85z" />
    <glyph glyph-name="uni1F12" unicode="&#x1f12;" horiz-adv-x="489" 
d="M260 -8q-107 0 -159.5 39t-52.5 105q0 81 76 110v5q-69 24 -69 94q0 65 51 107t148 42q84 0 139 -35.5t56 -104.5q0 -15 -1 -23h-103q-6 71 -95 71q-32 0 -53.5 -19.5t-21.5 -42.5q0 -48 59 -48h79v-81h-80q-31 0 -50.5 -19t-19.5 -44q0 -29 23 -48.5t67 -19.5
q45 0 74.5 22t31.5 68h104q2 -14 2 -21q0 -77 -57.5 -116.5t-147.5 -40.5zM421 580l-68 -30l-140 230l105 42zM142 537l-45 25q32 45 32 86q0 21 -15 36t-53 29l32 99q128 -42 128 -139q0 -32 -22 -70.5t-57 -65.5z" />
    <glyph glyph-name="uni1F13" unicode="&#x1f13;" horiz-adv-x="489" 
d="M260 -8q-107 0 -159.5 39t-52.5 105q0 81 76 110v5q-69 24 -69 94q0 65 51 107t148 42q84 0 139 -35.5t56 -104.5q0 -15 -1 -23h-103q-6 71 -95 71q-32 0 -53.5 -19.5t-21.5 -42.5q0 -48 59 -48h79v-81h-80q-31 0 -50.5 -19t-19.5 -44q0 -29 23 -48.5t67 -19.5
q45 0 74.5 22t31.5 68h104q2 -14 2 -21q0 -77 -57.5 -116.5t-147.5 -40.5zM425 576l-67 -30l-140 231l104 41zM179 562l-45 -25q-37 27 -58 65.5t-21 71.5q0 96 124 134l36 -96q-68 -23 -68 -65q0 -39 32 -85z" />
    <glyph glyph-name="uni1F14" unicode="&#x1f14;" horiz-adv-x="489" 
d="M260 -8q-107 0 -159.5 39t-52.5 105q0 81 76 110v5q-69 24 -69 94q0 65 51 107t148 42q84 0 139 -35.5t56 -104.5q0 -15 -1 -23h-103q-6 71 -95 71q-32 0 -53.5 -19.5t-21.5 -42.5q0 -48 59 -48h79v-81h-80q-31 0 -50.5 -19t-19.5 -44q0 -29 23 -48.5t67 -19.5
q45 0 74.5 22t31.5 68h104q2 -14 2 -21q0 -77 -57.5 -116.5t-147.5 -40.5zM329 539l-67 30l103 242l104 -42zM175 542l-45 25q32 46 32 85q0 42 -68 66l36 95q124 -36 124 -134q0 -33 -21 -71.5t-58 -65.5z" />
    <glyph glyph-name="uni1F15" unicode="&#x1f15;" horiz-adv-x="489" 
d="M260 -8q-107 0 -159.5 39t-52.5 105q0 81 76 110v5q-69 24 -69 94q0 65 51 107t148 42q84 0 139 -35.5t56 -104.5q0 -15 -1 -23h-103q-6 71 -95 71q-32 0 -53.5 -19.5t-21.5 -42.5q0 -48 59 -48h79v-81h-80q-31 0 -50.5 -19t-19.5 -44q0 -29 23 -48.5t67 -19.5
q45 0 74.5 22t31.5 68h104q2 -14 2 -21q0 -77 -57.5 -116.5t-147.5 -40.5zM322 538l-67 30l103 242l105 -42zM223 563l-45 -25q-37 27 -58 66t-21 71q0 98 124 134l36 -95q-68 -24 -68 -66q0 -39 32 -85z" />
    <glyph glyph-name="uni1F18" unicode="&#x1f18;" horiz-adv-x="584" 
d="M64 0v676h469v-99h-349v-177h318v-100h-318v-200h358v-100h-478zM-83 432l-45 24q32 46 32 85q0 22 -15 37.5t-52 28.5l35 95q124 -36 124 -133q0 -33 -21 -71.5t-58 -65.5z" />
    <glyph glyph-name="uni1F19" unicode="&#x1f19;" horiz-adv-x="584" 
d="M64 0v676h469v-99h-349v-177h318v-100h-318v-200h358v-100h-478zM-38 460l-45 -24q-37 27 -58.5 65.5t-21.5 71.5q0 48 33 82t92 51l35 -95q-37 -13 -52 -28.5t-15 -37.5q0 -39 32 -85z" />
    <glyph glyph-name="uni1F1A" unicode="&#x1f1a;" horiz-adv-x="584" 
d="M64 0v676h469v-99h-349v-177h318v-100h-318v-200h358v-100h-478zM-249 436l-45 25q32 45 32 86q0 21 -15 36t-53 29l32 99q128 -42 128 -139q0 -32 -22 -70.5t-57 -65.5zM30 479l-68 -30l-140 230l105 42z" />
    <glyph glyph-name="uni1F1B" unicode="&#x1f1b;" horiz-adv-x="584" 
d="M64 0v676h469v-99h-349v-177h318v-100h-318v-200h358v-100h-478zM30 475l-67 -30l-140 231l104 41zM-216 461l-45 -25q-37 27 -58 65.5t-21 71.5q0 96 124 134l36 -96q-68 -23 -68 -65q0 -39 32 -85z" />
    <glyph glyph-name="uni1F1C" unicode="&#x1f1c;" horiz-adv-x="584" 
d="M64 0v676h469v-99h-349v-177h318v-100h-318v-200h358v-100h-478zM-112 436l-67 30l103 242l104 -42zM-266 439l-45 25q32 46 32 85q0 42 -68 66l36 95q124 -36 124 -134q0 -33 -21 -71.5t-58 -65.5z" />
    <glyph glyph-name="uni1F1D" unicode="&#x1f1d;" horiz-adv-x="584" 
d="M64 0v676h469v-99h-349v-177h318v-100h-318v-200h358v-100h-478zM-104 442l-67 30l103 242l105 -42zM-203 467l-45 -25q-37 27 -58 66t-21 71q0 98 124 134l36 -95q-68 -24 -68 -66q0 -39 32 -85z" />
    <glyph glyph-name="uni1F20" unicode="&#x1f20;" horiz-adv-x="564" 
d="M328 493q55 0 92 -16t55 -46.5t24.5 -63t6.5 -76.5v-291h-118v283q0 59 -22 91t-76 32q-57 0 -86 -42.5t-29 -95.5v-268h-118v486h94q20 -27 20 -71h4q27 40 70.5 59t82.5 19zM255 538l-45 24q32 46 32 85q0 22 -15 37.5t-52 28.5l35 95q124 -36 124 -133
q0 -33 -21 -71.5t-58 -65.5z" />
    <glyph glyph-name="uni1F21" unicode="&#x1f21;" horiz-adv-x="564" 
d="M328 493q55 0 92 -16t55 -46.5t24.5 -63t6.5 -76.5v-291h-118v283q0 59 -22 91t-76 32q-57 0 -86 -42.5t-29 -95.5v-268h-118v486h94q20 -27 20 -71h4q27 40 70.5 59t82.5 19zM318 562l-45 -24q-37 27 -58.5 65.5t-21.5 71.5q0 48 33 82t92 51l35 -95q-37 -13 -52 -28.5
t-15 -37.5q0 -39 32 -85z" />
    <glyph glyph-name="uni1F22" unicode="&#x1f22;" horiz-adv-x="564" 
d="M328 493q55 0 92 -16t55 -46.5t24.5 -63t6.5 -76.5v-291h-118v283q0 59 -22 91t-76 32q-57 0 -86 -42.5t-29 -95.5v-268h-118v486h94q20 -27 20 -71h4q27 40 70.5 59t82.5 19zM178 537l-45 25q32 45 32 86q0 21 -15 36t-53 29l32 99q128 -42 128 -139q0 -32 -22 -70.5
t-57 -65.5zM457 580l-68 -30l-140 230l105 42z" />
    <glyph glyph-name="uni1F23" unicode="&#x1f23;" horiz-adv-x="564" 
d="M328 493q55 0 92 -16t55 -46.5t24.5 -63t6.5 -76.5v-291h-118v283q0 59 -22 91t-76 32q-57 0 -86 -42.5t-29 -95.5v-268h-118v486h94q20 -27 20 -71h4q27 40 70.5 59t82.5 19zM461 576l-67 -30l-140 231l104 41zM215 562l-45 -25q-37 27 -58 65.5t-21 71.5q0 96 124 134
l36 -96q-68 -23 -68 -65q0 -39 32 -85z" />
    <glyph glyph-name="uni1F24" unicode="&#x1f24;" horiz-adv-x="564" 
d="M328 493q55 0 92 -16t55 -46.5t24.5 -63t6.5 -76.5v-291h-118v283q0 59 -22 91t-76 32q-57 0 -86 -42.5t-29 -95.5v-268h-118v486h94q20 -27 20 -71h4q27 40 70.5 59t82.5 19zM352 539l-67 30l103 242l104 -42zM198 542l-45 25q32 46 32 85q0 42 -68 66l36 95
q124 -36 124 -134q0 -33 -21 -71.5t-58 -65.5z" />
    <glyph glyph-name="uni1F25" unicode="&#x1f25;" horiz-adv-x="564" 
d="M328 493q55 0 92 -16t55 -46.5t24.5 -63t6.5 -76.5v-291h-118v283q0 59 -22 91t-76 32q-57 0 -86 -42.5t-29 -95.5v-268h-118v486h94q20 -27 20 -71h4q27 40 70.5 59t82.5 19zM339 538l-67 30l103 242l105 -42zM240 563l-45 -25q-37 27 -58 66t-21 71q0 98 124 134
l36 -95q-68 -24 -68 -66q0 -39 32 -85z" />
    <glyph glyph-name="uni1F26" unicode="&#x1f26;" horiz-adv-x="564" 
d="M328 493q55 0 92 -16t55 -46.5t24.5 -63t6.5 -76.5v-291h-118v283q0 59 -22 91t-76 32q-57 0 -86 -42.5t-29 -95.5v-268h-118v486h94q20 -27 20 -71h4q27 40 70.5 59t82.5 19zM270 523l-49 23q32 37 32 63q0 38 -65 43l32 83q124 -21 124 -105q0 -27 -20 -56.5t-54 -50.5
zM338 752q-27 0 -74.5 18.5t-67.5 18.5q-36 0 -72 -38l-49 37q16 42 46.5 65t67.5 23q22 0 66.5 -17.5t70.5 -17.5q37 0 71 36l51 -35q-13 -40 -44 -65t-66 -25z" />
    <glyph glyph-name="uni1F27" unicode="&#x1f27;" horiz-adv-x="564" 
d="M328 493q55 0 92 -16t55 -46.5t24.5 -63t6.5 -76.5v-291h-118v283q0 59 -22 91t-76 32q-57 0 -86 -42.5t-29 -95.5v-268h-118v486h94q20 -27 20 -71h4q27 40 70.5 59t82.5 19zM313 553l-49 -22q-34 21 -54 50.5t-20 56.5q0 82 124 105l32 -84q-65 -5 -65 -42
q0 -27 32 -64zM355 762q-26 0 -73 17t-68 17q-38 0 -73 -37l-49 37q16 42 46.5 65t67.5 23q22 0 67 -18t71 -18q37 0 70 37l51 -36q-12 -40 -43.5 -63.5t-66.5 -23.5z" />
    <glyph glyph-name="uni1F28" unicode="&#x1f28;" horiz-adv-x="697" 
d="M512 0v300h-328v-300h-120v676h120v-276h328v276h120v-676h-120zM-87 445l-45 24q32 46 32 85q0 22 -15 37.5t-52 28.5l35 95q124 -36 124 -133q0 -33 -21 -71.5t-58 -65.5z" />
    <glyph glyph-name="uni1F29" unicode="&#x1f29;" horiz-adv-x="697" 
d="M512 0v300h-328v-300h-120v676h120v-276h328v276h120v-676h-120zM-38 470l-45 -24q-37 27 -58.5 65.5t-21.5 71.5q0 48 33 82t92 51l35 -95q-37 -13 -52 -28.5t-15 -37.5q0 -39 32 -85z" />
    <glyph glyph-name="uni1F2A" unicode="&#x1f2a;" horiz-adv-x="697" 
d="M512 0v300h-328v-300h-120v676h120v-276h328v276h120v-676h-120zM-251 429l-45 25q32 45 32 86q0 21 -15 36t-53 29l32 99q128 -42 128 -139q0 -32 -22 -70.5t-57 -65.5zM28 472l-68 -30l-140 230l105 42z" />
    <glyph glyph-name="uni1F2B" unicode="&#x1f2b;" horiz-adv-x="697" 
d="M512 0v300h-328v-300h-120v676h120v-276h328v276h120v-676h-120zM28 478l-67 -30l-140 231l104 41zM-218 464l-45 -25q-37 27 -58 65.5t-21 71.5q0 96 124 134l36 -96q-68 -23 -68 -65q0 -39 32 -85z" />
    <glyph glyph-name="uni1F2C" unicode="&#x1f2c;" horiz-adv-x="697" 
d="M512 0v300h-328v-300h-120v676h120v-276h328v276h120v-676h-120zM-111 439l-67 30l103 242l104 -42zM-265 442l-45 25q32 46 32 85q0 42 -68 66l36 95q124 -36 124 -134q0 -33 -21 -71.5t-58 -65.5z" />
    <glyph glyph-name="uni1F2D" unicode="&#x1f2d;" horiz-adv-x="697" 
d="M512 0v300h-328v-300h-120v676h120v-276h328v276h120v-676h-120zM-114 437l-67 30l103 242l105 -42zM-213 462l-45 -25q-37 27 -58 66t-21 71q0 98 124 134l36 -95q-68 -24 -68 -66q0 -39 32 -85z" />
    <glyph glyph-name="uni1F2E" unicode="&#x1f2e;" horiz-adv-x="697" 
d="M512 0v300h-328v-300h-120v676h120v-276h328v276h120v-676h-120zM-173 367l-49 23q32 37 32 63q0 38 -65 43l32 83q124 -21 124 -105q0 -27 -20 -56.5t-54 -50.5zM-105 596q-27 0 -74.5 18.5t-67.5 18.5q-36 0 -72 -38l-49 37q16 42 46.5 65t67.5 23q22 0 66.5 -17.5
t70.5 -17.5q37 0 71 36l51 -35q-13 -40 -44 -65t-66 -25z" />
    <glyph glyph-name="uni1F2F" unicode="&#x1f2f;" horiz-adv-x="697" 
d="M512 0v300h-328v-300h-120v676h120v-276h328v276h120v-676h-120zM-146 391l-49 -22q-34 21 -54 50.5t-20 56.5q0 82 124 105l32 -84q-65 -5 -65 -42q0 -27 32 -64zM-104 600q-26 0 -73 17t-68 17q-38 0 -73 -37l-49 37q16 42 46.5 65t67.5 23q22 0 67 -18t71 -18
q37 0 70 37l51 -36q-12 -40 -43.5 -63.5t-66.5 -23.5z" />
    <glyph glyph-name="uni1F30" unicode="&#x1f30;" horiz-adv-x="279" 
d="M81 0v486h117v-486h-117zM141 538l-45 24q32 46 32 85q0 22 -15 37.5t-52 28.5l35 95q124 -36 124 -133q0 -33 -21 -71.5t-58 -65.5z" />
    <glyph glyph-name="uni1F31" unicode="&#x1f31;" horiz-adv-x="279" 
d="M81 0v486h117v-486h-117zM181 562l-45 -24q-37 27 -58.5 65.5t-21.5 71.5q0 48 33 82t92 51l35 -95q-37 -13 -52 -28.5t-15 -37.5q0 -39 32 -85z" />
    <glyph glyph-name="uni1F32" unicode="&#x1f32;" horiz-adv-x="279" 
d="M81 0v486h117v-486h-117zM36 537l-45 25q32 45 32 86q0 21 -15 36t-53 29l32 99q128 -42 128 -139q0 -32 -22 -70.5t-57 -65.5zM315 580l-68 -30l-140 230l105 42z" />
    <glyph glyph-name="uni1F33" unicode="&#x1f33;" horiz-adv-x="279" 
d="M81 0v486h117v-486h-117zM320 578l-67 -30l-140 231l104 41zM74 564l-45 -25q-37 27 -58 65.5t-21 71.5q0 96 124 134l36 -96q-68 -23 -68 -65q0 -39 32 -85z" />
    <glyph glyph-name="uni1F34" unicode="&#x1f34;" horiz-adv-x="279" 
d="M81 0v486h117v-486h-117zM231 539l-67 30l103 242l104 -42zM77 542l-45 25q32 46 32 85q0 42 -68 66l36 95q124 -36 124 -134q0 -33 -21 -71.5t-58 -65.5z" />
    <glyph glyph-name="uni1F35" unicode="&#x1f35;" horiz-adv-x="279" 
d="M81 0v486h117v-486h-117zM210 538l-67 30l103 242l105 -42zM111 563l-45 -25q-37 27 -58 66t-21 71q0 98 124 134l36 -95q-68 -24 -68 -66q0 -39 32 -85z" />
    <glyph glyph-name="uni1F36" unicode="&#x1f36;" horiz-adv-x="279" 
d="M81 0v486h117v-486h-117zM145 523l-49 23q32 37 32 63q0 38 -65 43l32 83q124 -21 124 -105q0 -27 -20 -56.5t-54 -50.5zM213 752q-27 0 -74.5 18.5t-67.5 18.5q-36 0 -72 -38l-49 37q16 42 46.5 65t67.5 23q22 0 66.5 -17.5t70.5 -17.5q37 0 71 36l51 -35
q-13 -40 -44 -65t-66 -25z" />
    <glyph glyph-name="uni1F37" unicode="&#x1f37;" horiz-adv-x="279" 
d="M81 0v486h117v-486h-117zM176 554l-49 -22q-34 21 -54 50.5t-20 56.5q0 82 124 105l32 -84q-65 -5 -65 -42q0 -27 32 -64zM218 763q-26 0 -73 17t-68 17q-38 0 -73 -37l-49 37q16 42 46.5 65t67.5 23q22 0 67 -18t71 -18q37 0 70 37l51 -36q-12 -40 -43.5 -63.5
t-66.5 -23.5z" />
    <glyph glyph-name="uni1F38" unicode="&#x1f38;" horiz-adv-x="280" 
d="M80 0v676h121v-676h-121zM-74 445l-45 24q32 46 32 85q0 22 -15 37.5t-52 28.5l35 95q124 -36 124 -133q0 -33 -21 -71.5t-58 -65.5z" />
    <glyph glyph-name="uni1F39" unicode="&#x1f39;" horiz-adv-x="280" 
d="M80 0v676h121v-676h-121zM-34 469l-45 -24q-37 27 -58.5 65.5t-21.5 71.5q0 48 33 82t92 51l35 -95q-37 -13 -52 -28.5t-15 -37.5q0 -39 32 -85z" />
    <glyph glyph-name="uni1F3A" unicode="&#x1f3a;" horiz-adv-x="280" 
d="M80 0v676h121v-676h-121zM-230 430l-45 25q32 45 32 86q0 21 -15 36t-53 29l32 99q128 -42 128 -139q0 -32 -22 -70.5t-57 -65.5zM49 473l-68 -30l-140 230l105 42z" />
    <glyph glyph-name="uni1F3B" unicode="&#x1f3b;" horiz-adv-x="280" 
d="M80 0v676h121v-676h-121zM49 477l-67 -30l-140 231l104 41zM-197 463l-45 -25q-37 27 -58 65.5t-21 71.5q0 96 124 134l36 -96q-68 -23 -68 -65q0 -39 32 -85z" />
    <glyph glyph-name="uni1F3C" unicode="&#x1f3c;" horiz-adv-x="280" 
d="M80 0v676h121v-676h-121zM-82 438l-67 30l103 242l104 -42zM-236 441l-45 25q32 46 32 85q0 42 -68 66l36 95q124 -36 124 -134q0 -33 -21 -71.5t-58 -65.5z" />
    <glyph glyph-name="uni1F3D" unicode="&#x1f3d;" horiz-adv-x="280" 
d="M80 0v676h121v-676h-121zM-91 434l-67 30l103 242l105 -42zM-190 459l-45 -25q-37 27 -58 66t-21 71q0 98 124 134l36 -95q-68 -24 -68 -66q0 -39 32 -85z" />
    <glyph glyph-name="uni1F3E" unicode="&#x1f3e;" horiz-adv-x="280" 
d="M80 0v676h121v-676h-121zM-143 368l-49 23q32 37 32 63q0 38 -65 43l32 83q124 -21 124 -105q0 -27 -20 -56.5t-54 -50.5zM-75 597q-27 0 -74.5 18.5t-67.5 18.5q-36 0 -72 -38l-49 37q16 42 46.5 65t67.5 23q22 0 66.5 -17.5t70.5 -17.5q37 0 71 36l51 -35
q-13 -40 -44 -65t-66 -25z" />
    <glyph glyph-name="uni1F3F" unicode="&#x1f3f;" horiz-adv-x="280" 
d="M80 0v676h121v-676h-121zM-112 387l-49 -22q-34 21 -54 50.5t-20 56.5q0 82 124 105l32 -84q-65 -5 -65 -42q0 -27 32 -64zM-70 596q-26 0 -73 17t-68 17q-38 0 -73 -37l-49 37q16 42 46.5 65t67.5 23q22 0 67 -18t71 -18q37 0 70 37l51 -36q-12 -40 -43.5 -63.5
t-66.5 -23.5z" />
    <glyph glyph-name="uni1F40" unicode="&#x1f40;" horiz-adv-x="577" 
d="M290 494q53 0 94.5 -14.5t68 -38t44 -56.5t24.5 -68t7 -75q0 -48 -12 -90.5t-38 -79t-74.5 -58t-113.5 -21.5q-241 0 -241 248q0 113 60.5 183t180.5 70zM290 401q-124 0 -124 -160q0 -158 124 -158q57 0 88 40t31 119q0 159 -119 159zM285 538l-45 24q32 46 32 85
q0 22 -15 37.5t-52 28.5l35 95q124 -36 124 -133q0 -33 -21 -71.5t-58 -65.5z" />
    <glyph glyph-name="uni1F41" unicode="&#x1f41;" horiz-adv-x="577" 
d="M290 494q53 0 94.5 -14.5t68 -38t44 -56.5t24.5 -68t7 -75q0 -48 -12 -90.5t-38 -79t-74.5 -58t-113.5 -21.5q-241 0 -241 248q0 113 60.5 183t180.5 70zM290 401q-124 0 -124 -160q0 -158 124 -158q57 0 88 40t31 119q0 159 -119 159zM335 562l-45 -24
q-37 27 -58.5 65.5t-21.5 71.5q0 48 33 82t92 51l35 -95q-37 -13 -52 -28.5t-15 -37.5q0 -39 32 -85z" />
    <glyph glyph-name="uni1F42" unicode="&#x1f42;" horiz-adv-x="577" 
d="M290 494q53 0 94.5 -14.5t68 -38t44 -56.5t24.5 -68t7 -75q0 -48 -12 -90.5t-38 -79t-74.5 -58t-113.5 -21.5q-241 0 -241 248q0 113 60.5 183t180.5 70zM290 401q-124 0 -124 -160q0 -158 124 -158q57 0 88 40t31 119q0 159 -119 159zM196 537l-45 25q32 45 32 86
q0 21 -15 36t-53 29l32 99q128 -42 128 -139q0 -32 -22 -70.5t-57 -65.5zM475 580l-68 -30l-140 230l105 42z" />
    <glyph glyph-name="uni1F43" unicode="&#x1f43;" horiz-adv-x="577" 
d="M290 494q53 0 94.5 -14.5t68 -38t44 -56.5t24.5 -68t7 -75q0 -48 -12 -90.5t-38 -79t-74.5 -58t-113.5 -21.5q-241 0 -241 248q0 113 60.5 183t180.5 70zM290 401q-124 0 -124 -160q0 -158 124 -158q57 0 88 40t31 119q0 159 -119 159zM476 576l-67 -30l-140 231l104 41z
M230 562l-45 -25q-37 27 -58 65.5t-21 71.5q0 96 124 134l36 -96q-68 -23 -68 -65q0 -39 32 -85z" />
    <glyph glyph-name="uni1F44" unicode="&#x1f44;" horiz-adv-x="577" 
d="M290 494q53 0 94.5 -14.5t68 -38t44 -56.5t24.5 -68t7 -75q0 -48 -12 -90.5t-38 -79t-74.5 -58t-113.5 -21.5q-241 0 -241 248q0 113 60.5 183t180.5 70zM290 401q-124 0 -124 -160q0 -158 124 -158q57 0 88 40t31 119q0 159 -119 159zM374 539l-67 30l103 242l104 -42z
M220 542l-45 25q32 46 32 85q0 42 -68 66l36 95q124 -36 124 -134q0 -33 -21 -71.5t-58 -65.5z" />
    <glyph glyph-name="uni1F45" unicode="&#x1f45;" horiz-adv-x="577" 
d="M290 494q53 0 94.5 -14.5t68 -38t44 -56.5t24.5 -68t7 -75q0 -48 -12 -90.5t-38 -79t-74.5 -58t-113.5 -21.5q-241 0 -241 248q0 113 60.5 183t180.5 70zM290 401q-124 0 -124 -160q0 -158 124 -158q57 0 88 40t31 119q0 159 -119 159zM372 538l-67 30l103 242l105 -42z
M273 563l-45 -25q-37 27 -58 66t-21 71q0 98 124 134l36 -95q-68 -24 -68 -66q0 -39 32 -85z" />
    <glyph glyph-name="uni1F48" unicode="&#x1f48;" horiz-adv-x="727" 
d="M367 683q86 0 148 -29t95 -80.5t48 -110.5t15 -131q0 -53 -9 -100t-31 -91.5t-56 -77t-88 -52t-123 -19.5q-87 0 -149 25t-97 72t-50.5 106t-15.5 136q0 161 76.5 256.5t236.5 95.5zM365 584q-101 0 -144 -66t-43 -186q0 -243 187 -243q86 0 134.5 61.5t48.5 181.5
q0 117 -44 184.5t-139 67.5zM-68 440l-45 24q32 46 32 85q0 22 -15 37.5t-52 28.5l35 95q124 -36 124 -133q0 -33 -21 -71.5t-58 -65.5z" />
    <glyph glyph-name="uni1F49" unicode="&#x1f49;" horiz-adv-x="727" 
d="M367 683q86 0 148 -29t95 -80.5t48 -110.5t15 -131q0 -53 -9 -100t-31 -91.5t-56 -77t-88 -52t-123 -19.5q-87 0 -149 25t-97 72t-50.5 106t-15.5 136q0 161 76.5 256.5t236.5 95.5zM365 584q-101 0 -144 -66t-43 -186q0 -243 187 -243q86 0 134.5 61.5t48.5 181.5
q0 117 -44 184.5t-139 67.5zM2 464l-45 -24q-37 27 -58.5 65.5t-21.5 71.5q0 48 33 82t92 51l35 -95q-37 -13 -52 -28.5t-15 -37.5q0 -39 32 -85z" />
    <glyph glyph-name="uni1F4A" unicode="&#x1f4a;" horiz-adv-x="727" 
d="M367 683q86 0 148 -29t95 -80.5t48 -110.5t15 -131q0 -53 -9 -100t-31 -91.5t-56 -77t-88 -52t-123 -19.5q-87 0 -149 25t-97 72t-50.5 106t-15.5 136q0 161 76.5 256.5t236.5 95.5zM365 584q-101 0 -144 -66t-43 -186q0 -243 187 -243q86 0 134.5 61.5t48.5 181.5
q0 117 -44 184.5t-139 67.5zM-245 426l-45 25q32 45 32 86q0 21 -15 36t-53 29l32 99q128 -42 128 -139q0 -32 -22 -70.5t-57 -65.5zM34 469l-68 -30l-140 230l105 42z" />
    <glyph glyph-name="uni1F4B" unicode="&#x1f4b;" horiz-adv-x="727" 
d="M367 683q86 0 148 -29t95 -80.5t48 -110.5t15 -131q0 -53 -9 -100t-31 -91.5t-56 -77t-88 -52t-123 -19.5q-87 0 -149 25t-97 72t-50.5 106t-15.5 136q0 161 76.5 256.5t236.5 95.5zM365 584q-101 0 -144 -66t-43 -186q0 -243 187 -243q86 0 134.5 61.5t48.5 181.5
q0 117 -44 184.5t-139 67.5zM33 476l-67 -30l-140 231l104 41zM-213 462l-45 -25q-37 27 -58 65.5t-21 71.5q0 96 124 134l36 -96q-68 -23 -68 -65q0 -39 32 -85z" />
    <glyph glyph-name="uni1F4C" unicode="&#x1f4c;" horiz-adv-x="727" 
d="M367 683q86 0 148 -29t95 -80.5t48 -110.5t15 -131q0 -53 -9 -100t-31 -91.5t-56 -77t-88 -52t-123 -19.5q-87 0 -149 25t-97 72t-50.5 106t-15.5 136q0 161 76.5 256.5t236.5 95.5zM365 584q-101 0 -144 -66t-43 -186q0 -243 187 -243q86 0 134.5 61.5t48.5 181.5
q0 117 -44 184.5t-139 67.5zM-54 439l-67 30l103 242l104 -42zM-208 442l-45 25q32 46 32 85q0 42 -68 66l36 95q124 -36 124 -134q0 -33 -21 -71.5t-58 -65.5z" />
    <glyph glyph-name="uni1F4D" unicode="&#x1f4d;" horiz-adv-x="727" 
d="M367 683q86 0 148 -29t95 -80.5t48 -110.5t15 -131q0 -53 -9 -100t-31 -91.5t-56 -77t-88 -52t-123 -19.5q-87 0 -149 25t-97 72t-50.5 106t-15.5 136q0 161 76.5 256.5t236.5 95.5zM365 584q-101 0 -144 -66t-43 -186q0 -243 187 -243q86 0 134.5 61.5t48.5 181.5
q0 117 -44 184.5t-139 67.5zM-53 437l-67 30l103 242l105 -42zM-152 462l-45 -25q-37 27 -58 66t-21 71q0 98 124 134l36 -95q-68 -24 -68 -66q0 -39 32 -85z" />
    <glyph glyph-name="uni1F50" unicode="&#x1f50;" horiz-adv-x="553" 
d="M281 538l-45 24q32 46 32 85q0 22 -15 37.5t-52 28.5l35 95q124 -36 124 -133q0 -33 -21 -71.5t-58 -65.5zM496 189q0 -97 -59 -146t-163 -49q-217 0 -217 195v297h118v-290q0 -57 27.5 -85.5t72.5 -28.5q105 0 105 114v290h116v-297z" />
    <glyph glyph-name="uni1F51" unicode="&#x1f51;" horiz-adv-x="553" 
d="M328 562l-45 -24q-37 27 -58.5 65.5t-21.5 71.5q0 48 33 82t92 51l35 -95q-37 -13 -52 -28.5t-15 -37.5q0 -39 32 -85zM496 189q0 -97 -59 -146t-163 -49q-217 0 -217 195v297h118v-290q0 -57 27.5 -85.5t72.5 -28.5q105 0 105 114v290h116v-297z" />
    <glyph glyph-name="uni1F52" unicode="&#x1f52;" horiz-adv-x="553" 
d="M177 537l-45 25q32 45 32 86q0 21 -15 36t-53 29l32 99q128 -42 128 -139q0 -32 -22 -70.5t-57 -65.5zM456 580l-68 -30l-140 230l105 42zM496 189q0 -97 -59 -146t-163 -49q-217 0 -217 195v297h118v-290q0 -57 27.5 -85.5t72.5 -28.5q105 0 105 114v290h116v-297z" />
    <glyph glyph-name="uni1F53" unicode="&#x1f53;" horiz-adv-x="553" 
d="M468 576l-67 -30l-140 231l104 41zM222 562l-45 -25q-37 27 -58 65.5t-21 71.5q0 96 124 134l36 -96q-68 -23 -68 -65q0 -39 32 -85zM496 189q0 -97 -59 -146t-163 -49q-217 0 -217 195v297h118v-290q0 -57 27.5 -85.5t72.5 -28.5q105 0 105 114v290h116v-297z" />
    <glyph glyph-name="uni1F54" unicode="&#x1f54;" horiz-adv-x="553" 
d="M358 539l-67 30l103 242l104 -42zM204 542l-45 25q32 46 32 85q0 42 -68 66l36 95q124 -36 124 -134q0 -33 -21 -71.5t-58 -65.5zM496 189q0 -97 -59 -146t-163 -49q-217 0 -217 195v297h118v-290q0 -57 27.5 -85.5t72.5 -28.5q105 0 105 114v290h116v-297z" />
    <glyph glyph-name="uni1F55" unicode="&#x1f55;" horiz-adv-x="553" 
d="M351 538l-67 30l103 242l105 -42zM252 563l-45 -25q-37 27 -58 66t-21 71q0 98 124 134l36 -95q-68 -24 -68 -66q0 -39 32 -85zM496 189q0 -97 -59 -146t-163 -49q-217 0 -217 195v297h118v-290q0 -57 27.5 -85.5t72.5 -28.5q105 0 105 114v290h116v-297z" />
    <glyph glyph-name="uni1F56" unicode="&#x1f56;" horiz-adv-x="553" 
d="M280 512l-49 23q32 37 32 63q0 38 -65 43l32 83q124 -21 124 -105q0 -27 -20 -56.5t-54 -50.5zM348 741q-27 0 -74.5 18.5t-67.5 18.5q-36 0 -72 -38l-49 37q16 42 46.5 65t67.5 23q22 0 66.5 -17.5t70.5 -17.5q37 0 71 36l51 -35q-13 -40 -44 -65t-66 -25zM496 189
q0 -97 -59 -146t-163 -49q-217 0 -217 195v297h118v-290q0 -57 27.5 -85.5t72.5 -28.5q105 0 105 114v290h116v-297z" />
    <glyph glyph-name="uni1F57" unicode="&#x1f57;" horiz-adv-x="553" 
d="M326 545l-49 -22q-34 21 -54 50.5t-20 56.5q0 82 124 105l32 -84q-65 -5 -65 -42q0 -27 32 -64zM368 754q-26 0 -73 17t-68 17q-38 0 -73 -37l-49 37q16 42 46.5 65t67.5 23q22 0 67 -18t71 -18q37 0 70 37l51 -36q-12 -40 -43.5 -63.5t-66.5 -23.5zM496 189
q0 -97 -59 -146t-163 -49q-217 0 -217 195v297h118v-290q0 -57 27.5 -85.5t72.5 -28.5q105 0 105 114v290h116v-297z" />
    <glyph glyph-name="uni1F59" unicode="&#x1f59;" horiz-adv-x="606" 
d="M297 361h8q29 74 80 169l78 145h129l-233 -416v-259h-121v258l-231 417h132l80 -151q50 -94 78 -163zM-54 464l-45 -24q-37 27 -58.5 65.5t-21.5 71.5q0 48 33 82t92 51l35 -95q-37 -13 -52 -28.5t-15 -37.5q0 -39 32 -85z" />
    <glyph glyph-name="uni1F5B" unicode="&#x1f5b;" horiz-adv-x="606" 
d="M297 361h8q29 74 80 169l78 145h129l-233 -416v-259h-121v258l-231 417h132l80 -151q50 -94 78 -163zM14 476l-67 -30l-140 231l104 41zM-232 462l-45 -25q-37 27 -58 65.5t-21 71.5q0 96 124 134l36 -96q-68 -23 -68 -65q0 -39 32 -85z" />
    <glyph glyph-name="uni1F5D" unicode="&#x1f5d;" horiz-adv-x="606" 
d="M297 361h8q29 74 80 169l78 145h129l-233 -416v-259h-121v258l-231 417h132l80 -151q50 -94 78 -163zM-141 436l-67 30l103 242l105 -42zM-240 461l-45 -25q-37 27 -58 66t-21 71q0 98 124 134l36 -95q-68 -24 -68 -66q0 -39 32 -85z" />
    <glyph glyph-name="uni1F5F" unicode="&#x1f5f;" horiz-adv-x="606" 
d="M297 361h8q29 74 80 169l78 145h129l-233 -416v-259h-121v258l-231 417h132l80 -151q50 -94 78 -163zM-174 378l-49 -22q-34 21 -54 50.5t-20 56.5q0 82 124 105l32 -84q-65 -5 -65 -42q0 -27 32 -64zM-132 587q-26 0 -73 17t-68 17q-38 0 -73 -37l-49 37q16 42 46.5 65
t67.5 23q22 0 67 -18t71 -18q37 0 70 37l51 -36q-12 -40 -43.5 -63.5t-66.5 -23.5z" />
    <glyph glyph-name="uni1F60" unicode="&#x1f60;" horiz-adv-x="796" 
d="M747 242q0 -50 -10.5 -92.5t-34.5 -79t-67.5 -57.5t-103.5 -21q-44 0 -81 20.5t-55 57.5h-6q-48 -78 -147 -78q-193 0 -193 243q0 112 55.5 183.5t174.5 73.5v-92q-62 -3 -88 -44t-26 -116q0 -77 20 -117t73 -40q45 0 64.5 31t19.5 75v139h108v-139q0 -49 21 -77.5
t61 -28.5q98 0 98 157q0 155 -114 160v92q119 -2 175 -71.5t56 -178.5zM386 533l-45 24q32 46 32 85q0 22 -15 37.5t-52 28.5l35 95q124 -36 124 -133q0 -33 -21 -71.5t-58 -65.5z" />
    <glyph glyph-name="uni1F61" unicode="&#x1f61;" horiz-adv-x="796" 
d="M747 242q0 -50 -10.5 -92.5t-34.5 -79t-67.5 -57.5t-103.5 -21q-44 0 -81 20.5t-55 57.5h-6q-48 -78 -147 -78q-193 0 -193 243q0 112 55.5 183.5t174.5 73.5v-92q-62 -3 -88 -44t-26 -116q0 -77 20 -117t73 -40q45 0 64.5 31t19.5 75v139h108v-139q0 -49 21 -77.5
t61 -28.5q98 0 98 157q0 155 -114 160v92q119 -2 175 -71.5t56 -178.5zM441 556l-45 -24q-37 27 -58.5 65.5t-21.5 71.5q0 48 33 82t92 51l35 -95q-37 -13 -52 -28.5t-15 -37.5q0 -39 32 -85z" />
    <glyph glyph-name="uni1F62" unicode="&#x1f62;" horiz-adv-x="796" 
d="M747 242q0 -50 -10.5 -92.5t-34.5 -79t-67.5 -57.5t-103.5 -21q-44 0 -81 20.5t-55 57.5h-6q-48 -78 -147 -78q-193 0 -193 243q0 112 55.5 183.5t174.5 73.5v-92q-62 -3 -88 -44t-26 -116q0 -77 20 -117t73 -40q45 0 64.5 31t19.5 75v139h108v-139q0 -49 21 -77.5
t61 -28.5q98 0 98 157q0 155 -114 160v92q119 -2 175 -71.5t56 -178.5zM297 537l-45 25q32 45 32 86q0 21 -15 36t-53 29l32 99q128 -42 128 -139q0 -32 -22 -70.5t-57 -65.5zM576 580l-68 -30l-140 230l105 42z" />
    <glyph glyph-name="uni1F63" unicode="&#x1f63;" horiz-adv-x="796" 
d="M747 242q0 -50 -10.5 -92.5t-34.5 -79t-67.5 -57.5t-103.5 -21q-44 0 -81 20.5t-55 57.5h-6q-48 -78 -147 -78q-193 0 -193 243q0 112 55.5 183.5t174.5 73.5v-92q-62 -3 -88 -44t-26 -116q0 -77 20 -117t73 -40q45 0 64.5 31t19.5 75v139h108v-139q0 -49 21 -77.5
t61 -28.5q98 0 98 157q0 155 -114 160v92q119 -2 175 -71.5t56 -178.5zM584 576l-67 -30l-140 231l104 41zM338 562l-45 -25q-37 27 -58 65.5t-21 71.5q0 96 124 134l36 -96q-68 -23 -68 -65q0 -39 32 -85z" />
    <glyph glyph-name="uni1F64" unicode="&#x1f64;" horiz-adv-x="796" 
d="M747 242q0 -50 -10.5 -92.5t-34.5 -79t-67.5 -57.5t-103.5 -21q-44 0 -81 20.5t-55 57.5h-6q-48 -78 -147 -78q-193 0 -193 243q0 112 55.5 183.5t174.5 73.5v-92q-62 -3 -88 -44t-26 -116q0 -77 20 -117t73 -40q45 0 64.5 31t19.5 75v139h108v-139q0 -49 21 -77.5
t61 -28.5q98 0 98 157q0 155 -114 160v92q119 -2 175 -71.5t56 -178.5zM449 539l-67 30l103 242l104 -42zM295 542l-45 25q32 46 32 85q0 42 -68 66l36 95q124 -36 124 -134q0 -33 -21 -71.5t-58 -65.5z" />
    <glyph glyph-name="uni1F65" unicode="&#x1f65;" horiz-adv-x="796" 
d="M747 242q0 -50 -10.5 -92.5t-34.5 -79t-67.5 -57.5t-103.5 -21q-44 0 -81 20.5t-55 57.5h-6q-48 -78 -147 -78q-193 0 -193 243q0 112 55.5 183.5t174.5 73.5v-92q-62 -3 -88 -44t-26 -116q0 -77 20 -117t73 -40q45 0 64.5 31t19.5 75v139h108v-139q0 -49 21 -77.5
t61 -28.5q98 0 98 157q0 155 -114 160v92q119 -2 175 -71.5t56 -178.5zM442 538l-67 30l103 242l105 -42zM343 563l-45 -25q-37 27 -58 66t-21 71q0 98 124 134l36 -95q-68 -24 -68 -66q0 -39 32 -85z" />
    <glyph glyph-name="uni1F66" unicode="&#x1f66;" horiz-adv-x="796" 
d="M747 242q0 -50 -10.5 -92.5t-34.5 -79t-67.5 -57.5t-103.5 -21q-44 0 -81 20.5t-55 57.5h-6q-48 -78 -147 -78q-193 0 -193 243q0 112 55.5 183.5t174.5 73.5v-92q-62 -3 -88 -44t-26 -116q0 -77 20 -117t73 -40q45 0 64.5 31t19.5 75v139h108v-139q0 -49 21 -77.5
t61 -28.5q98 0 98 157q0 155 -114 160v92q119 -2 175 -71.5t56 -178.5zM402 508l-49 23q32 37 32 63q0 38 -65 43l32 83q124 -21 124 -105q0 -27 -20 -56.5t-54 -50.5zM470 737q-27 0 -74.5 18.5t-67.5 18.5q-36 0 -72 -38l-49 37q16 42 46.5 65t67.5 23q22 0 66.5 -17.5
t70.5 -17.5q37 0 71 36l51 -35q-13 -40 -44 -65t-66 -25z" />
    <glyph glyph-name="uni1F67" unicode="&#x1f67;" horiz-adv-x="796" 
d="M747 242q0 -50 -10.5 -92.5t-34.5 -79t-67.5 -57.5t-103.5 -21q-44 0 -81 20.5t-55 57.5h-6q-48 -78 -147 -78q-193 0 -193 243q0 112 55.5 183.5t174.5 73.5v-92q-62 -3 -88 -44t-26 -116q0 -77 20 -117t73 -40q45 0 64.5 31t19.5 75v139h108v-139q0 -49 21 -77.5
t61 -28.5q98 0 98 157q0 155 -114 160v92q119 -2 175 -71.5t56 -178.5zM435 535l-49 -22q-34 21 -54 50.5t-20 56.5q0 82 124 105l32 -84q-65 -5 -65 -42q0 -27 32 -64zM477 744q-26 0 -73 17t-68 17q-38 0 -73 -37l-49 37q16 42 46.5 65t67.5 23q22 0 67 -18t71 -18
q37 0 70 37l51 -36q-12 -40 -43.5 -63.5t-66.5 -23.5z" />
    <glyph glyph-name="uni1F68" unicode="&#x1f68;" horiz-adv-x="760" 
d="M379 585q-97 -1 -147 -65t-50 -176q0 -203 136 -244v-100h-284v98h109l3 4q-88 69 -88 235q0 70 19 131.5t57 110.5t102.5 77.5t147.5 28.5q84 0 147.5 -28.5t100 -78t54 -109t17.5 -127.5q0 -66 -22.5 -133.5t-68.5 -106.5l2 -4h107v-98h-280v98q137 47 137 249
q0 111 -52.5 174.5t-146.5 63.5zM-45 446l-45 24q32 46 32 85q0 22 -15 37.5t-52 28.5l35 95q124 -36 124 -133q0 -33 -21 -71.5t-58 -65.5z" />
    <glyph glyph-name="uni1F69" unicode="&#x1f69;" horiz-adv-x="760" 
d="M379 585q-97 -1 -147 -65t-50 -176q0 -203 136 -244v-100h-284v98h109l3 4q-88 69 -88 235q0 70 19 131.5t57 110.5t102.5 77.5t147.5 28.5q84 0 147.5 -28.5t100 -78t54 -109t17.5 -127.5q0 -66 -22.5 -133.5t-68.5 -106.5l2 -4h107v-98h-280v98q137 47 137 249
q0 111 -52.5 174.5t-146.5 63.5zM12 470l-45 -24q-37 27 -58.5 65.5t-21.5 71.5q0 48 33 82t92 51l35 -95q-37 -13 -52 -28.5t-15 -37.5q0 -39 32 -85z" />
    <glyph glyph-name="uni1F6A" unicode="&#x1f6a;" horiz-adv-x="760" 
d="M379 585q-97 -1 -147 -65t-50 -176q0 -203 136 -244v-100h-284v98h109l3 4q-88 69 -88 235q0 70 19 131.5t57 110.5t102.5 77.5t147.5 28.5q84 0 147.5 -28.5t100 -78t54 -109t17.5 -127.5q0 -66 -22.5 -133.5t-68.5 -106.5l2 -4h107v-98h-280v98q137 47 137 249
q0 111 -52.5 174.5t-146.5 63.5zM-239 432l-45 25q32 45 32 86q0 21 -15 36t-53 29l32 99q128 -42 128 -139q0 -32 -22 -70.5t-57 -65.5zM40 475l-68 -30l-140 230l105 42z" />
    <glyph glyph-name="uni1F6B" unicode="&#x1f6b;" horiz-adv-x="760" 
d="M379 585q-97 -1 -147 -65t-50 -176q0 -203 136 -244v-100h-284v98h109l3 4q-88 69 -88 235q0 70 19 131.5t57 110.5t102.5 77.5t147.5 28.5q84 0 147.5 -28.5t100 -78t54 -109t17.5 -127.5q0 -66 -22.5 -133.5t-68.5 -106.5l2 -4h107v-98h-280v98q137 47 137 249
q0 111 -52.5 174.5t-146.5 63.5zM39 479l-67 -30l-140 231l104 41zM-207 465l-45 -25q-37 27 -58 65.5t-21 71.5q0 96 124 134l36 -96q-68 -23 -68 -65q0 -39 32 -85z" />
    <glyph glyph-name="uni1F6C" unicode="&#x1f6c;" horiz-adv-x="760" 
d="M379 585q-97 -1 -147 -65t-50 -176q0 -203 136 -244v-100h-284v98h109l3 4q-88 69 -88 235q0 70 19 131.5t57 110.5t102.5 77.5t147.5 28.5q84 0 147.5 -28.5t100 -78t54 -109t17.5 -127.5q0 -66 -22.5 -133.5t-68.5 -106.5l2 -4h107v-98h-280v98q137 47 137 249
q0 111 -52.5 174.5t-146.5 63.5zM-49 438l-67 30l103 242l104 -42zM-203 441l-45 25q32 46 32 85q0 42 -68 66l36 95q124 -36 124 -134q0 -33 -21 -71.5t-58 -65.5z" />
    <glyph glyph-name="uni1F6D" unicode="&#x1f6d;" horiz-adv-x="760" 
d="M379 585q-97 -1 -147 -65t-50 -176q0 -203 136 -244v-100h-284v98h109l3 4q-88 69 -88 235q0 70 19 131.5t57 110.5t102.5 77.5t147.5 28.5q84 0 147.5 -28.5t100 -78t54 -109t17.5 -127.5q0 -66 -22.5 -133.5t-68.5 -106.5l2 -4h107v-98h-280v98q137 47 137 249
q0 111 -52.5 174.5t-146.5 63.5zM-48 435l-67 30l103 242l105 -42zM-147 460l-45 -25q-37 27 -58 66t-21 71q0 98 124 134l36 -95q-68 -24 -68 -66q0 -39 32 -85z" />
    <glyph glyph-name="uni1F6E" unicode="&#x1f6e;" horiz-adv-x="760" 
d="M379 585q-97 -1 -147 -65t-50 -176q0 -203 136 -244v-100h-284v98h109l3 4q-88 69 -88 235q0 70 19 131.5t57 110.5t102.5 77.5t147.5 28.5q84 0 147.5 -28.5t100 -78t54 -109t17.5 -127.5q0 -66 -22.5 -133.5t-68.5 -106.5l2 -4h107v-98h-280v98q137 47 137 249
q0 111 -52.5 174.5t-146.5 63.5zM-102 363l-49 23q32 37 32 63q0 38 -65 43l32 83q124 -21 124 -105q0 -27 -20 -56.5t-54 -50.5zM-34 592q-27 0 -74.5 18.5t-67.5 18.5q-36 0 -72 -38l-49 37q16 42 46.5 65t67.5 23q22 0 66.5 -17.5t70.5 -17.5q37 0 71 36l51 -35
q-13 -40 -44 -65t-66 -25z" />
    <glyph glyph-name="uni1F6F" unicode="&#x1f6f;" horiz-adv-x="760" 
d="M379 585q-97 -1 -147 -65t-50 -176q0 -203 136 -244v-100h-284v98h109l3 4q-88 69 -88 235q0 70 19 131.5t57 110.5t102.5 77.5t147.5 28.5q84 0 147.5 -28.5t100 -78t54 -109t17.5 -127.5q0 -66 -22.5 -133.5t-68.5 -106.5l2 -4h107v-98h-280v98q137 47 137 249
q0 111 -52.5 174.5t-146.5 63.5zM-72 389l-49 -22q-34 21 -54 50.5t-20 56.5q0 82 124 105l32 -84q-65 -5 -65 -42q0 -27 32 -64zM-30 598q-26 0 -73 17t-68 17q-38 0 -73 -37l-49 37q16 42 46.5 65t67.5 23q22 0 67 -18t71 -18q37 0 70 37l51 -36q-12 -40 -43.5 -63.5
t-66.5 -23.5z" />
    <glyph glyph-name="uni1F70" unicode="&#x1f70;" horiz-adv-x="572" 
d="M256 494q102 0 147 -69h4q1 40 17 61h89v-486h-94q-15 22 -15 65h-5q-45 -73 -151 -73q-107 0 -153.5 64.5t-46.5 185.5q0 110 51.5 181t156.5 71zM280 80q60 0 89 43.5t29 100.5v53q0 57 -30.5 93t-84.5 36q-117 0 -117 -162q0 -164 114 -164zM350 567l-67 -30l-134 216
l105 42z" />
    <glyph glyph-name="uni1F71" unicode="&#x1f71;" horiz-adv-x="572" 
d="M256 494q102 0 147 -69h4q1 40 17 61h89v-486h-94q-15 22 -15 65h-5q-45 -73 -151 -73q-107 0 -153.5 64.5t-46.5 185.5q0 110 51.5 181t156.5 71zM280 80q60 0 89 43.5t29 100.5v53q0 57 -30.5 93t-84.5 36q-117 0 -117 -162q0 -164 114 -164zM306 537l-67 30l96 226
l104 -42z" />
    <glyph glyph-name="uni1F72" unicode="&#x1f72;" horiz-adv-x="489" 
d="M260 -8q-107 0 -159.5 39t-52.5 105q0 81 76 110v5q-69 24 -69 94q0 65 51 107t148 42q84 0 139 -35.5t56 -104.5q0 -15 -1 -23h-103q-6 71 -95 71q-32 0 -53.5 -19.5t-21.5 -42.5q0 -48 59 -48h79v-81h-80q-31 0 -50.5 -19t-19.5 -44q0 -29 23 -48.5t67 -19.5
q45 0 74.5 22t31.5 68h104q2 -14 2 -21q0 -77 -57.5 -116.5t-147.5 -40.5zM316 567l-67 -30l-134 216l105 42z" />
    <glyph glyph-name="uni1F73" unicode="&#x1f73;" horiz-adv-x="489" 
d="M260 -8q-107 0 -159.5 39t-52.5 105q0 81 76 110v5q-69 24 -69 94q0 65 51 107t148 42q84 0 139 -35.5t56 -104.5q0 -15 -1 -23h-103q-6 71 -95 71q-32 0 -53.5 -19.5t-21.5 -42.5q0 -48 59 -48h79v-81h-80q-31 0 -50.5 -19t-19.5 -44q0 -29 23 -48.5t67 -19.5
q45 0 74.5 22t31.5 68h104q2 -14 2 -21q0 -77 -57.5 -116.5t-147.5 -40.5zM273 537l-67 30l96 226l104 -42z" />
    <glyph glyph-name="uni1F74" unicode="&#x1f74;" horiz-adv-x="564" 
d="M328 493q55 0 92 -16t55 -46.5t24.5 -63t6.5 -76.5v-291h-118v283q0 59 -22 91t-76 32q-57 0 -86 -42.5t-29 -95.5v-268h-118v486h94q20 -27 20 -71h4q27 40 70.5 59t82.5 19zM309 567l-67 -30l-134 216l105 42z" />
    <glyph glyph-name="uni1F75" unicode="&#x1f75;" horiz-adv-x="564" 
d="M328 493q55 0 92 -16t55 -46.5t24.5 -63t6.5 -76.5v-291h-118v283q0 59 -22 91t-76 32q-57 0 -86 -42.5t-29 -95.5v-268h-118v486h94q20 -27 20 -71h4q27 40 70.5 59t82.5 19zM275 537l-67 30l96 226l104 -42z" />
    <glyph glyph-name="uni1F76" unicode="&#x1f76;" horiz-adv-x="279" 
d="M81 0v486h117v-486h-117zM174 567l-67 -30l-134 216l105 42z" />
    <glyph glyph-name="uni1F77" unicode="&#x1f77;" horiz-adv-x="279" 
d="M81 0v486h117v-486h-117zM158 537l-67 30l96 226l104 -42z" />
    <glyph glyph-name="uni1F78" unicode="&#x1f78;" horiz-adv-x="577" 
d="M290 494q53 0 94.5 -14.5t68 -38t44 -56.5t24.5 -68t7 -75q0 -48 -12 -90.5t-38 -79t-74.5 -58t-113.5 -21.5q-241 0 -241 248q0 113 60.5 183t180.5 70zM290 401q-124 0 -124 -160q0 -158 124 -158q57 0 88 40t31 119q0 159 -119 159zM346 567l-67 -30l-134 216l105 42z
" />
    <glyph glyph-name="uni1F79" unicode="&#x1f79;" horiz-adv-x="577" 
d="M290 494q53 0 94.5 -14.5t68 -38t44 -56.5t24.5 -68t7 -75q0 -48 -12 -90.5t-38 -79t-74.5 -58t-113.5 -21.5q-241 0 -241 248q0 113 60.5 183t180.5 70zM290 401q-124 0 -124 -160q0 -158 124 -158q57 0 88 40t31 119q0 159 -119 159zM320 537l-67 30l96 226l104 -42z
" />
    <glyph glyph-name="uni1F7A" unicode="&#x1f7a;" horiz-adv-x="553" 
d="M334 567l-67 -30l-134 216l105 42zM496 189q0 -97 -59 -146t-163 -49q-217 0 -217 195v297h118v-290q0 -57 27.5 -85.5t72.5 -28.5q105 0 105 114v290h116v-297z" />
    <glyph glyph-name="uni1F7B" unicode="&#x1f7b;" horiz-adv-x="553" 
d="M294 537l-67 30l96 226l104 -42zM496 189q0 -97 -59 -146t-163 -49q-217 0 -217 195v297h118v-290q0 -57 27.5 -85.5t72.5 -28.5q105 0 105 114v290h116v-297z" />
    <glyph glyph-name="uni1F7C" unicode="&#x1f7c;" horiz-adv-x="796" 
d="M747 242q0 -50 -10.5 -92.5t-34.5 -79t-67.5 -57.5t-103.5 -21q-44 0 -81 20.5t-55 57.5h-6q-48 -78 -147 -78q-193 0 -193 243q0 112 55.5 183.5t174.5 73.5v-92q-62 -3 -88 -44t-26 -116q0 -77 20 -117t73 -40q45 0 64.5 31t19.5 75v139h108v-139q0 -49 21 -77.5
t61 -28.5q98 0 98 157q0 155 -114 160v92q119 -2 175 -71.5t56 -178.5zM452 567l-67 -30l-134 216l105 42z" />
    <glyph glyph-name="uni1F7D" unicode="&#x1f7d;" horiz-adv-x="796" 
d="M747 242q0 -50 -10.5 -92.5t-34.5 -79t-67.5 -57.5t-103.5 -21q-44 0 -81 20.5t-55 57.5h-6q-48 -78 -147 -78q-193 0 -193 243q0 112 55.5 183.5t174.5 73.5v-92q-62 -3 -88 -44t-26 -116q0 -77 20 -117t73 -40q45 0 64.5 31t19.5 75v139h108v-139q0 -49 21 -77.5
t61 -28.5q98 0 98 157q0 155 -114 160v92q119 -2 175 -71.5t56 -178.5zM419 537l-67 30l96 226l104 -42z" />
    <glyph glyph-name="uni1F80" unicode="&#x1f80;" horiz-adv-x="572" 
d="M256 494q102 0 147 -69h4q1 40 17 61h89v-486h-94q-15 22 -15 65h-5q-45 -73 -151 -73q-107 0 -153.5 64.5t-46.5 185.5q0 110 51.5 181t156.5 71zM280 80q60 0 89 43.5t29 100.5v53q0 57 -30.5 93t-84.5 36q-117 0 -117 -162q0 -164 114 -164zM286 538l-45 24
q32 46 32 85q0 22 -15 37.5t-52 28.5l35 95q124 -36 124 -133q0 -33 -21 -71.5t-58 -65.5zM242 -62h90v-71q0 -31 12 -37.5t52 -7.5h7v-73q-18 -5 -47 -5q-71 0 -92.5 28.5t-21.5 86.5v79z" />
    <glyph glyph-name="uni1F81" unicode="&#x1f81;" horiz-adv-x="572" 
d="M256 494q102 0 147 -69h4q1 40 17 61h89v-486h-94q-15 22 -15 65h-5q-45 -73 -151 -73q-107 0 -153.5 64.5t-46.5 185.5q0 110 51.5 181t156.5 71zM280 80q60 0 89 43.5t29 100.5v53q0 57 -30.5 93t-84.5 36q-117 0 -117 -162q0 -164 114 -164zM246 -62h90v-71
q0 -31 12 -37.5t52 -7.5h7v-73q-18 -5 -47 -5q-71 0 -92.5 28.5t-21.5 86.5v79zM328 562l-45 -24q-37 27 -58.5 65.5t-21.5 71.5q0 48 33 82t92 51l35 -95q-37 -13 -52 -28.5t-15 -37.5q0 -39 32 -85z" />
    <glyph glyph-name="uni1F82" unicode="&#x1f82;" horiz-adv-x="572" 
d="M256 494q102 0 147 -69h4q1 40 17 61h89v-486h-94q-15 22 -15 65h-5q-45 -73 -151 -73q-107 0 -153.5 64.5t-46.5 185.5q0 110 51.5 181t156.5 71zM280 80q60 0 89 43.5t29 100.5v53q0 57 -30.5 93t-84.5 36q-117 0 -117 -162q0 -164 114 -164zM252 -62h90v-71
q0 -31 12 -37.5t52 -7.5h7v-73q-18 -5 -47 -5q-71 0 -92.5 28.5t-21.5 86.5v79zM189 537l-45 25q32 45 32 86q0 21 -15 36t-53 29l32 99q128 -42 128 -139q0 -32 -22 -70.5t-57 -65.5zM468 580l-68 -30l-140 230l105 42z" />
    <glyph glyph-name="uni1F83" unicode="&#x1f83;" horiz-adv-x="572" 
d="M256 494q102 0 147 -69h4q1 40 17 61h89v-486h-94q-15 22 -15 65h-5q-45 -73 -151 -73q-107 0 -153.5 64.5t-46.5 185.5q0 110 51.5 181t156.5 71zM280 80q60 0 89 43.5t29 100.5v53q0 57 -30.5 93t-84.5 36q-117 0 -117 -162q0 -164 114 -164zM252 -62h90v-71
q0 -31 12 -37.5t52 -7.5h7v-73q-18 -5 -47 -5q-71 0 -92.5 28.5t-21.5 86.5v79zM468 576l-67 -30l-140 231l104 41zM222 562l-45 -25q-37 27 -58 65.5t-21 71.5q0 96 124 134l36 -96q-68 -23 -68 -65q0 -39 32 -85z" />
    <glyph glyph-name="uni1F84" unicode="&#x1f84;" horiz-adv-x="572" 
d="M256 494q102 0 147 -69h4q1 40 17 61h89v-486h-94q-15 22 -15 65h-5q-45 -73 -151 -73q-107 0 -153.5 64.5t-46.5 185.5q0 110 51.5 181t156.5 71zM280 80q60 0 89 43.5t29 100.5v53q0 57 -30.5 93t-84.5 36q-117 0 -117 -162q0 -164 114 -164zM252 -62h90v-71
q0 -31 12 -37.5t52 -7.5h7v-73q-18 -5 -47 -5q-71 0 -92.5 28.5t-21.5 86.5v79zM379 539l-67 30l103 242l104 -42zM225 542l-45 25q32 46 32 85q0 42 -68 66l36 95q124 -36 124 -134q0 -33 -21 -71.5t-58 -65.5z" />
    <glyph glyph-name="uni1F85" unicode="&#x1f85;" horiz-adv-x="572" 
d="M256 494q102 0 147 -69h4q1 40 17 61h89v-486h-94q-15 22 -15 65h-5q-45 -73 -151 -73q-107 0 -153.5 64.5t-46.5 185.5q0 110 51.5 181t156.5 71zM280 80q60 0 89 43.5t29 100.5v53q0 57 -30.5 93t-84.5 36q-117 0 -117 -162q0 -164 114 -164zM252 -62h90v-71
q0 -31 12 -37.5t52 -7.5h7v-73q-18 -5 -47 -5q-71 0 -92.5 28.5t-21.5 86.5v79zM365 538l-67 30l103 242l105 -42zM266 563l-45 -25q-37 27 -58 66t-21 71q0 98 124 134l36 -95q-68 -24 -68 -66q0 -39 32 -85z" />
    <glyph glyph-name="uni1F86" unicode="&#x1f86;" horiz-adv-x="572" 
d="M256 494q102 0 147 -69h4q1 40 17 61h89v-486h-94q-15 22 -15 65h-5q-45 -73 -151 -73q-107 0 -153.5 64.5t-46.5 185.5q0 110 51.5 181t156.5 71zM280 80q60 0 89 43.5t29 100.5v53q0 57 -30.5 93t-84.5 36q-117 0 -117 -162q0 -164 114 -164zM252 -62h90v-71
q0 -31 12 -37.5t52 -7.5h7v-73q-18 -5 -47 -5q-71 0 -92.5 28.5t-21.5 86.5v79zM291 523l-49 23q32 37 32 63q0 38 -65 43l32 83q124 -21 124 -105q0 -27 -20 -56.5t-54 -50.5zM359 752q-27 0 -74.5 18.5t-67.5 18.5q-36 0 -72 -38l-49 37q16 42 46.5 65t67.5 23
q22 0 66.5 -17.5t70.5 -17.5q37 0 71 36l51 -35q-13 -40 -44 -65t-66 -25z" />
    <glyph glyph-name="uni1F87" unicode="&#x1f87;" horiz-adv-x="572" 
d="M256 494q102 0 147 -69h4q1 40 17 61h89v-486h-94q-15 22 -15 65h-5q-45 -73 -151 -73q-107 0 -153.5 64.5t-46.5 185.5q0 110 51.5 181t156.5 71zM280 80q60 0 89 43.5t29 100.5v53q0 57 -30.5 93t-84.5 36q-117 0 -117 -162q0 -164 114 -164zM252 -62h90v-71
q0 -31 12 -37.5t52 -7.5h7v-73q-18 -5 -47 -5q-71 0 -92.5 28.5t-21.5 86.5v79zM319 554l-49 -22q-34 21 -54 50.5t-20 56.5q0 82 124 105l32 -84q-65 -5 -65 -42q0 -27 32 -64zM361 763q-26 0 -73 17t-68 17q-38 0 -73 -37l-49 37q16 42 46.5 65t67.5 23q22 0 67 -18
t71 -18q37 0 70 37l51 -36q-12 -40 -43.5 -63.5t-66.5 -23.5z" />
    <glyph glyph-name="uni1F88" unicode="&#x1f88;" horiz-adv-x="894" 
d="M517 0l-58 163h-268l-58 -163h-125l257 678h126l254 -678h-128zM329 551h-6q-9 -35 -49 -155l-49 -139h201l-47 133q-42 129 -50 161zM25 437l-45 24q32 46 32 85q0 22 -15 37.5t-52 28.5l35 95q124 -36 124 -133q0 -33 -21 -71.5t-58 -65.5zM786 483v-328
q0 -35 16 -50.5t56 -15.5q10 0 26 2l3 -91q-30 -6 -61 -6q-84 0 -118 37.5t-34 126.5v325h112z" />
    <glyph glyph-name="uni1F89" unicode="&#x1f89;" horiz-adv-x="889" 
d="M517 0l-58 163h-268l-58 -163h-125l257 678h126l254 -678h-128zM329 551h-6q-9 -35 -49 -155l-49 -139h201l-47 133q-42 129 -50 161zM72 463l-45 -24q-37 27 -58.5 65.5t-21.5 71.5q0 48 33 82t92 51l35 -95q-37 -13 -52 -28.5t-15 -37.5q0 -39 32 -85zM782 483v-328
q0 -35 16 -50.5t56 -15.5q10 0 26 2l3 -91q-30 -6 -61 -6q-84 0 -118 37.5t-34 126.5v325h112z" />
    <glyph glyph-name="uni1F8A" unicode="&#x1f8a;" horiz-adv-x="889" 
d="M517 0l-58 163h-268l-58 -163h-125l257 678h126l254 -678h-128zM329 551h-6q-9 -35 -49 -155l-49 -139h201l-47 133q-42 129 -50 161zM-154 426l-45 25q32 45 32 86q0 21 -15 36t-53 29l32 99q128 -42 128 -139q0 -32 -22 -70.5t-57 -65.5zM125 469l-68 -30l-140 230
l105 42zM782 483v-328q0 -35 16 -50.5t56 -15.5q10 0 26 2l3 -91q-30 -6 -61 -6q-84 0 -118 37.5t-34 126.5v325h112z" />
    <glyph glyph-name="uni1F8B" unicode="&#x1f8b;" horiz-adv-x="889" 
d="M517 0l-58 163h-268l-58 -163h-125l257 678h126l254 -678h-128zM329 551h-6q-9 -35 -49 -155l-49 -139h201l-47 133q-42 129 -50 161zM124 471l-67 -30l-140 231l104 41zM-122 457l-45 -25q-37 27 -58 65.5t-21 71.5q0 96 124 134l36 -96q-68 -23 -68 -65q0 -39 32 -85z
M782 483v-328q0 -35 16 -50.5t56 -15.5q10 0 26 2l3 -91q-30 -6 -61 -6q-84 0 -118 37.5t-34 126.5v325h112z" />
    <glyph glyph-name="uni1F8C" unicode="&#x1f8c;" horiz-adv-x="889" 
d="M517 0l-58 163h-268l-58 -163h-125l257 678h126l254 -678h-128zM329 551h-6q-9 -35 -49 -155l-49 -139h201l-47 133q-42 129 -50 161zM16 433l-67 30l103 242l104 -42zM-138 436l-45 25q32 46 32 85q0 42 -68 66l36 95q124 -36 124 -134q0 -33 -21 -71.5t-58 -65.5z
M782 483v-328q0 -35 16 -50.5t56 -15.5q10 0 26 2l3 -91q-30 -6 -61 -6q-84 0 -118 37.5t-34 126.5v325h112z" />
    <glyph glyph-name="uni1F8D" unicode="&#x1f8d;" horiz-adv-x="889" 
d="M517 0l-58 163h-268l-58 -163h-125l257 678h126l254 -678h-128zM329 551h-6q-9 -35 -49 -155l-49 -139h201l-47 133q-42 129 -50 161zM18 433l-67 30l103 242l105 -42zM-81 458l-45 -25q-37 27 -58 66t-21 71q0 98 124 134l36 -95q-68 -24 -68 -66q0 -39 32 -85zM782 483
v-328q0 -35 16 -50.5t56 -15.5q10 0 26 2l3 -91q-30 -6 -61 -6q-84 0 -118 37.5t-34 126.5v325h112z" />
    <glyph glyph-name="uni1F8E" unicode="&#x1f8e;" horiz-adv-x="889" 
d="M517 0l-58 163h-268l-58 -163h-125l257 678h126l254 -678h-128zM329 551h-6q-9 -35 -49 -155l-49 -139h201l-47 133q-42 129 -50 161zM-29 362l-49 23q32 37 32 63q0 38 -65 43l32 83q124 -21 124 -105q0 -27 -20 -56.5t-54 -50.5zM39 591q-27 0 -74.5 18.5t-67.5 18.5
q-36 0 -72 -38l-49 37q16 42 46.5 65t67.5 23q22 0 66.5 -17.5t70.5 -17.5q37 0 71 36l51 -35q-13 -40 -44 -65t-66 -25zM782 483v-328q0 -35 16 -50.5t56 -15.5q10 0 26 2l3 -91q-30 -6 -61 -6q-84 0 -118 37.5t-34 126.5v325h112z" />
    </font>
</defs>
</svg>
