<svg xmlns="http://www.w3.org/2000/svg">
<defs>
<font id="MorenoRustTwo-XThin" horiz-adv-x="700" >
  <font-face 
    font-family="Moreno Rust 02 XThin"
    font-weight="100"
    font-stretch="normal"
    units-per-em="1000"
    panose-1="2 9 2 5 3 2 0 0 0 4"
    ascent="750"
    descent="-250"
    x-height="514"
    cap-height="701"
    bbox="-159 -313 2337 1126"
    underline-thickness="50"
    underline-position="-50"
    unicode-range="U+000D-U+1F369"
  />
<missing-glyph horiz-adv-x="735" 
d="M136 -58l-1 30l1 29l1 25l-3 33l-2 34v29l1 30v30l2 64l-3 29l3 29l-2 34l-1 27v62l-2 29l3 32l2 30v62l-2 29v35l13 45l27 34l43 10l39 -4l27 4l24 -1l31 -5h35l45 5l73 1l45 -2l34 -9l24 -20l6 -31l-1 -33l-2 -29l1 -32l6 -29l-5 -31v-28l1 -33v-31l2 -31l-3 -29
l-3 -32l2 -26l-1 -30l1 -48l3 -32l1 -46l-1 -33v-35l-5 -46l1 -38l4 -28l-1 -31l-9 -32l-20 -20l-31 -9h-28l-61 -1l-25 1l-31 1h-32l-25 -2l-28 1l-61 3l-26 -5l-32 2l-30 8l-21 24zM575 -5l-2 60l5 27l-5 31l1 29l1 32l-3 27l3 31l1 26l-2 34l2 31v22l1 36l-1 28v30l-3 31
l2 26l1 29l-2 29l-1 31v29l-3 21l-6 3l-15 -17l-15 -28l-18 -26l-13 -25l-15 -26l-11 -28l-26 -50l-13 -27l-16 -26l-14 -26l-11 -36l2 -41l12 -28l12 -29l15 -27l12 -28l16 -20l19 -39l21 -41l13 -30l13 -26l14 -27l17 -14l11 -1zM230 -94l41 2l79 -5l31 1l29 -3l32 3h45
l44 6l11 23l-25 50l-11 27l-13 25l-14 25l-13 30l-14 29l-15 24l-15 25l-15 30l-13 25l-17 17l-20 2l-19 -18l-16 -36l-23 -41l-22 -47l-25 -48l-30 -49l-24 -47l-5 -26l11 -21zM393 386l16 25l13 27l13 29l13 26l14 26l28 56l18 23l13 27l19 52l-16 24l-23 1l-32 4l-28 1
l-28 2l-70 -5l-52 1l-51 4l-35 -8l-14 -20l8 -30l13 -23l21 -35l21 -41l29 -58l15 -25l15 -29l13 -27l15 -25l18 -19l15 -4zM187 -13l11 26l18 27l14 34l19 41l19 34l15 20l15 29l16 29l12 25l10 30l1 42l-12 31l-14 29l-16 24l-14 29l-8 25l-20 27l-11 25l-12 23l-17 26
l-12 30l-14 27l-15 16h-9l-3 -24l-3 -29l1 -29l4 -32l-2 -27l1 -30l1 -29l-2 -37v-78l-2 -29l1 -33l-3 -28l2 -30v-57l1 -34v-27l-1 -40l-2 -39l7 -31l8 -2zM553 -87l3 -6h10l-1 4l1 7l-9 1zM551 651l6 -4l2 1l1 3l3 -2l6 2l-4 6l-7 1zM340 364l6 -7h10l-3 2l2 1l-7 7z

<glyph glyph-name="f_f" unicode="ff" horiz-adv-x="662" 
d="M131 34l2 32l-1 28v65l4 27l-4 30l-1 27l4 32l-4 41l1 38l3 39l-2 36l-7 30l-20 21l-31 15l-10 10l16 11l21 7l23 25l10 38l2 35l12 24l20 24l23 24l24 18l24 10l26 6l40 5l46 1l35 -7l32 -5l34 -12l40 3l27 9l25 13l40 3l48 3l40 -11l19 -14l-20 -7l-42 2l-49 1l-40 -9
l-20 -15l-26 -25l-10 -27l-6 -35l3 -47l23 -26l104 -12l13 -12l-19 -5l-32 -4l-32 1l-31 -12l-24 -21l-13 -34v-31l4 -29l-5 -30l1 -35l1 -29l1 -30l-3 -32l2 -28l4 -34v-27l-3 -35l1 -27l-3 -29l-12 -24l-15 -1l-6 27l-1 29l-1 34l-1 31l3 28l2 31l-1 30l-1 28l1 35l1 28
l-4 66v28l1 29l-7 30l-23 25l-42 7l-38 -1h-35l-35 -1l-29 2l-29 -4l-22 -29l-7 -31l1 -30l-2 -34l1 -28l2 -32l1 -30l-3 -28l-3 -30l2 -36v-28l1 -32l-3 -27l-2 -33l-1 -32l-12 -24l-12 3zM234 518l114 -1h27l31 8l22 32l9 40l3 41l-12 37l-18 15l-24 9l-37 7l-46 -5
l-35 -4l-29 -12l-24 -15l-20 -23l-16 -25l-9 -35l8 -42l21 -19zM453 675l4 -1l4 3l1 -2l6 -1v10h-6l-1 -5l-4 4h-6zM489 691l2 -6l7 -1l4 7l-3 4l-8 2zM127 478l5 -3h8l2 3l-6 6l-6 1zM478 511l4 -6l6 1l5 3l-3 5l-9 -1zM152 399v-4l8 -1l2 6l-2 3l-10 1zM150 549l2 -4l6 -1
l1 6l1 5h-8zM121 519l1 -4h4l7 4l-4 6h-5zM191 495l3 4l9 1l-3 4l-9 1l-4 -6zM151 460l1 -5l8 1l2 3l-4 4l-6 2zM459 670l3 -5l6 -1l2 6v2l-6 1zM451 180l1 -5l7 -1v4l1 5l-6 1zM139 529l4 -4l3 -1l5 5l-3 2l-7 2zM152 488v-3l5 -1l2 4l1 5l-7 1zM462 480v-5h8l1 3l-4 4
l-3 2zM440 698l3 -3l4 1l5 3l-3 2l-8 1zM148 379l5 -4l4 -1l3 5l-1 1l-2 1h-5zM172 528l1 -3l6 -1l3 4l-7 3l-4 2zM171 499l2 -4h2l6 3l-3 5h-3zM460 499l3 -4l2 -1l4 5v3h-8zM151 179l2 -4h6l2 2l-6 5l-4 -1v-2zM511 709l1 -4l4 -1l6 4l-5 2zM413 516l-1 -1h4l4 3l-4 5
l-6 -7h3zM452 127l1 -2l3 1l5 2l-4 3l-6 1zM460 547l3 -2l2 1l4 1l-2 3l-5 2zM161 569l1 -4l3 1l-1 9l-4 -1zM240 509l2 -4l4 -1l4 5h-10zM453 558v-3l4 1l4 2l-3 4l-3 -2zM442 488l1 -3l8 2l-6 4v1zM211 695l8 -1l2 6zM441 565l-1 -7l2 4zM440 555v3l-1 -3h1zM222 701v1
l-1 -2z" />
    <glyph glyph-name="f_i" unicode="fi" horiz-adv-x="637" 
d="M479 15l-15 34l-7 42l-2 37l-2 31l4 31v31l-4 32l3 26l3 30l-3 32l1 30v26l-3 32l-8 30l-22 21l-29 12l-24 2l-28 -4l-32 5l-28 -3l-30 1l-28 -3l-30 -6l-20 -24l-9 -33l-1 -30v-27l4 -32l-3 -28l3 -31l2 -36v-29l-6 -27l3 -37v-29l-1 -30l4 -28l-5 -32l-15 -22l-13 2
l-3 23l-4 31l2 32v32l2 30v27l-5 32l1 29l1 33l3 26l-4 32v28l3 32l-2 27l-8 32l-18 23l-30 12l-16 12l19 12l27 11l18 20l10 38l6 34l10 30l16 28l16 17l27 17l29 11l27 9l37 9l47 -1l41 -2l29 -11l30 -12l16 -18l-15 -5l-31 4l-33 7l-38 7l-47 3l-42 -13l-43 -19l-27 -29
l-16 -27l-1 -36l8 -40l19 -23l28 -3l26 -2l34 -3l28 -1l30 4l28 -1l30 1l30 2l32 -9l19 -23l10 -30l-2 -34l1 -29l-3 -35l1 -46v-40l2 -36l2 -47l-2 -35l-5 -25l3 -41l7 -36l24 -23l38 -12l20 -7l-24 -11h-48zM146 583h7l4 8l-4 7l-6 -2zM473 208l4 -5h4l5 2v4l-5 4h-6z
M142 548l5 -5l5 1l6 3l-6 6l-3 -1zM144 457l3 -4l5 1l6 5l-3 2l-10 2zM182 498l5 -5l3 1l3 -1l3 4l-3 4l-6 2zM202 507l5 -4l6 1l3 4l-4 5l-5 -2zM156 567l1 -4l6 -1v4l2 3l-4 3l-4 1zM146 488l1 -5h8l2 3l-5 4l-7 1zM455 476l2 -3l6 1l2 4l-3 4h-4zM466 116l1 -3l4 1l5 5
l-5 2l-3 2l-2 -4v-3zM165 526l3 -3h6l2 3l-6 4l-2 1zM185 682l-9 -9l7 1l7 5zM137 526l1 -3l6 1l3 3l-7 3l-3 1v-5zM144 376l4 -3l4 1l5 3l-5 2h-5zM155 505l3 -2l5 1l2 1l-3 4l-4 2zM141 332l2 1l4 6l-3 3h-4l1 -4v-6zM417 508l1 -5l5 1l4 3l-5 2h-5v-1zM136 497l2 -4h6
l2 3l-2 1l-8 2v-2zM146 175l2 -2l4 -1l2 5l-2 1l-6 1v-4zM467 177l1 -4h6l2 3l-3 2h-7zM385 725l3 -2l4 -1l3 4l-8 1v-1zM476 85l2 -2h6l-5 5zM483 32v1l2 5l-4 3h-1zM479 89v-1l1 1h-1z" />
    <glyph glyph-name="f_l" unicode="fl" horiz-adv-x="613" 
d="M455 17l-15 30l-4 42v34l2 29l-1 31l1 33l1 29l-1 26l-2 30l1 29l-4 28v34l4 25l4 33l-6 32l-1 27l-1 25l-1 33l5 29v31l-5 29l-21 31l-36 14l-36 6l-49 -1l-36 -6l-23 -10l-25 -23l-19 -20l-11 -28l-6 -37l2 -38l22 -17l33 -6l31 -1l40 -15l-14 -8l-31 -1l-28 -3l-30 -8
l-19 -25l-7 -34v-29l2 -32l-4 -30l1 -30l1 -29l2 -32l-2 -39l-3 -46l2 -39l-4 -31l6 -27l-4 -33l-11 -24l-16 8l-4 24l-2 30l1 26l-4 35l1 32l1 25v32l3 31l-1 28l1 31l-2 31l2 29l-5 31l-1 29l-4 33l-19 25l-29 10l-15 13l16 9l26 7l19 22l13 38l7 37l6 27l18 25l16 23
l22 15l29 13l30 10l37 -1h44l35 1l34 -9l32 -15l21 -37l6 -46l1 -38l1 -34l-1 -29l-1 -31l2 -30v-32l-1 -27v-28l-2 -41l-1 -59l1 -43l-2 -37l-2 -35l3 -31l2 -39l20 -45l46 -23l22 -12l-27 -11l-46 -1zM146 582l1 -1l9 -1l6 7v1l-3 8l-9 -1l-2 -8zM203 696l5 -5l8 -1l3 6
l-2 8l-9 -1l-4 -3zM497 15l2 -4h4l7 5l-3 5h-10v-6zM115 514l4 -3h8l3 3l-5 7l-4 -1zM483 36l5 -5l7 -1l2 5l-8 5zM146 547l3 -6l4 -1l7 5l-6 4l-3 1zM145 394l4 -3h8v3l-4 5l-6 1zM148 455l1 -4h8l1 6l-2 4l-6 -2zM146 486l3 -5h4l6 4l-2 4h-6zM184 683l-6 -12l10 1v5z
M366 714l3 2l-6 5l-4 1l-4 -7zM453 207l5 -6v1l5 12l-4 1zM445 186l4 -5l4 1l4 2l-3 6l-5 -2zM465 34l5 -3l3 -1l4 6l-4 1l-5 1zM446 585l4 -4l4 -1l5 4l-6 3h-2zM148 175l2 -4l6 1l2 2l-2 3l-6 1zM445 365l5 -4l2 -1l3 5l-3 3h-4zM147 376l3 -5l2 1l6 2l-3 5l-5 -2z
M448 123l2 -2h2l4 2v4l-8 1v-5zM165 526l5 -5l4 1l3 4l-1 1h-5zM138 523l2 -2h2l7 3l-7 4l-2 -1zM156 564l3 -3l2 1l1 8h-5zM420 703v-2h6v6h-8zM158 503l2 -2h2l6 3l-6 4zM136 494l4 -3h2l5 4l-4 2l-2 -2zM460 494v-3l3 -1v9l-5 -1zM449 675l1 -4l2 -1l4 4l-6 3v2zM150 610
l4 1l5 4l-5 2l1 2z" />
    <glyph glyph-name="f_f_i" unicode="ffi" horiz-adv-x="942" 
d="M783 16l-17 32l-7 44l2 37v26l3 30l-4 35l-2 32l1 29l-1 36l4 41l-1 26l1 43l-11 36l-24 23l-28 5l-27 1l-25 -4l-29 5l-30 -2l-29 -1l-30 -1l-27 -9l-23 -18l-5 -31l-1 -35l1 -26l-1 -29l-1 -47l1 -55l-2 -45l3 -46l-2 -46l-1 -44l-4 -29l-9 -24l-14 4l-5 26l-2 34l3 29
l-5 32l3 30l1 32v31l-4 24l1 32l2 29l-2 30l1 34v59l-8 29l-23 22l-29 9l-27 2l-30 -1l-40 -1l-40 1l-36 -8l-30 -22l-3 -28l-2 -34l-1 -33v-31l-1 -36l2 -48l1 -39l-1 -32l1 -35l1 -51l-2 -35l-1 -33l-17 -21l-11 3l-8 25l-1 35l5 26l1 32l-1 26l-3 35v29l1 39l-1 35l4 29
l-5 32l-1 37l3 36l-8 33l-16 23l-32 11l-17 16l16 9l30 8l21 26l10 42l10 38l17 30l16 23l22 20l29 13l30 13l39 7l45 -3l41 -5l30 -12l38 -11l46 6l43 15l27 8l35 5l49 -2l37 -4l34 -7l34 -10l14 -21l-22 -5l-31 3l-31 13l-40 4h-55l-47 -17l-34 -16l-17 -26l-16 -27
l-5 -35l8 -40l21 -24l25 -7h33l26 -2l28 2l31 1l31 -2l27 -1l32 4l29 -9l24 -24l4 -32l-1 -26v-31l3 -31l-1 -30l-2 -30l3 -47l-1 -42l2 -29l-3 -25l-1 -32l5 -37l4 -41l20 -23l39 -10l23 -8l-22 -14l-49 2zM227 518l32 2h31l27 -4l31 4h30l27 3l24 24l14 41l3 44l-14 35
l-29 16l-28 14l-34 3l-46 2l-34 -6l-22 -8l-27 -16l-22 -20l-9 -24l-8 -36l2 -41l23 -29zM773 248l3 -8l10 -1v3l-1 11l-1 1h-6zM768 472l1 -2l4 -1h-2l7 -9l4 -1l2 7l-4 10l-5 -2l-2 -1v2h-3zM144 582l2 -2l10 -1l4 7l-6 8h-3l-1 -2zM423 496l4 -6l7 1l6 5l-7 5l-6 1z
M482 684l5 -4h10l-1 4v6h-8zM114 515l4 -5h8l3 4l-6 6h-7zM774 324l4 -4l8 1h1l-4 7v1l2 4v2l-5 1l-1 -3l2 -3l-2 1zM354 716l4 -6l6 -1l3 5l-5 7l-5 -2zM184 494l4 -4l5 -1l6 7l-3 3l-8 -1zM517 704l1 -4h8l3 5l-5 3l-1 2l-8 -4zM144 485l4 -5h4l6 4l-3 5h-5zM467 685l1 -5
l6 1l4 3l-4 6h-6zM264 713l4 -3h4l6 4l-2 5l-7 -2zM147 455l1 -5h8l3 4l-7 5l-3 -1zM157 495l1 -5h8l2 4l-3 3l-9 2zM456 663l2 -3l4 -1l6 5l-6 4l-5 1zM205 505l3 -5l7 1l4 3l-6 4h-4zM477 504l1 -4h8v9h-6zM147 546l1 -6l8 -1l-1 7l1 3l-8 -1zM455 673l3 -3h4l3 5l-3 4h-6
zM314 724l4 -4l6 -1l4 5l-11 3zM132 470h2l3 3l-3 7v-2l-4 2l-1 -2l-3 -3zM177 484l1 -4h1l7 3v7l-6 -1zM486 666l1 -6l2 -1l5 10v3l-7 -2zM156 563l2 -3l8 1l-4 7l-4 2zM146 393l2 -3l6 -1v8l-8 1v-5zM206 693l1 -3l8 -1l2 8l-3 2l-2 -4zM453 206l4 -6l3 1v12h-1zM754 493
l5 -3h6l-1 4l-1 2l-4 2zM448 179l6 1l2 5v2h-8v-8zM155 504l4 -4l5 -1l1 5l-2 4l-2 -2zM771 211l3 -1l5 6l-7 4l-1 -1v-8zM435 695l4 -5l2 1l7 3l-4 2l-3 1zM166 525l3 -5h6l-2 6l-2 2zM313 710l3 4l-3 4l-3 -2l-4 -3l4 -3h3zM144 374l5 -4h6l-1 4l-1 2h-3zM447 124l2 -4
l3 1l2 1l1 5h-8v-3zM449 553v-3l6 -1l2 5l-2 3l-4 -2zM775 202l6 -3l2 4l-1 4h-4zM769 400h5l2 3v5l-5 -1zM776 182l3 -2h2l6 2l-6 5zM175 657l1 -6l1 -1l-1 1l7 7v2h-6l-1 -2zM138 522l1 -2l4 -1l1 4v5l-5 -2zM155 413l3 -3h3l-1 10l-3 -2zM418 504l1 -4h2l5 5l-3 1l-4 2z
M406 513l2 -3l4 -1l2 5l-2 5l-4 -7zM459 543v-3l4 -1l4 4l-6 3l-1 -1zM426 533l3 -3l6 1l-2 3l-1 3l-2 -1zM538 711l1 -1l5 -1l-2 3l1 2l-6 1zM418 702l1 -2l3 1l4 1l-4 1l-1 4z" />
    <glyph glyph-name="f_f_l" unicode="ffl" horiz-adv-x="878" 
d="M723 15l-15 30l-8 43l-3 38l2 29v28l3 33v40l-4 44l3 31l1 27l5 38l-4 40l1 40v36l-2 25l-2 29l3 32v29l-7 34l-25 29l-28 15l-37 1l-45 -1l-37 -3l-26 -13l-27 -14l-13 -24l-12 -27l-7 -38l1 -39l23 -26l29 -3l28 3l29 -9l16 -9l-21 -11l-44 1l-36 -7l-22 -27l-9 -28
l4 -30v-33l-3 -34l-3 -28l1 -30l3 -37l1 -48l1 -40l-5 -47l1 -44l-4 -29l-13 -25l-11 1l-9 25l3 32l-2 32l-1 29l1 34l2 30v29l1 39l-2 45l-2 37l1 32l1 26l2 35l-10 31l-22 20l-29 8l-27 1l-27 2l-29 -3h-31l-29 -9l-18 -22l-4 -29l-3 -35l1 -30l-2 -27l-1 -34v-28l3 -30
l-4 -66l1 -27l-2 -28l2 -34l1 -32l-1 -31l-16 -23l-10 5l-9 31l2 50l-2 33l1 32v33l-1 30l2 25l-1 30l1 35v29l-1 26l-4 66l-1 30l-22 22l-31 6l-14 13l14 15l29 13l21 28l11 46l6 39l10 25l16 29l20 14l27 11l41 7l43 2l36 -3l26 -4l28 -11l29 -10l29 1l32 10l26 11l26 3
l35 4l42 3l40 2l31 -8l26 -17l21 -31l11 -32l3 -30l1 -27l-1 -33l-2 -35l1 -30l-2 -29l-1 -29l2 -33l-5 -28l1 -29l3 -29l-1 -33l2 -29l-2 -33v-31l-2 -27l3 -32l-1 -40l22 -39l42 -25l25 -15l-23 -11l-45 -1zM233 520l51 1l51 -2l35 7l18 21l15 41l-2 43l-10 37l-19 14
l-28 13l-34 5l-41 1l-36 -7l-25 -15l-20 -17l-12 -24l-4 -38l4 -47l23 -27zM716 495l3 -4l8 -1l3 5l-2 8h-11zM145 365l5 -4l5 1l4 2l-1 6h-4l6 5l-7 4l-2 -2l-3 -1l3 -5v-1zM715 386l5 -5l8 -1v8l-2 4h-6zM415 166l4 -5h6l3 12h-7zM716 437l3 -6l10 1v1l-3 3l3 6l-10 -1z
M717 95l3 -4l6 -1l4 4l-3 2v4l-9 1zM427 495l2 -4l6 1l3 3l-1 8l-8 -2zM187 495l3 -4h8l1 4l-1 5h-10zM405 134l5 -3l7 1v2l-1 7l-8 -2zM147 457l3 -6h4l5 6l-1 3l-6 1zM418 477l2 -6h8l2 6l-4 2h-5zM115 515l5 -4h8l-1 5l-3 4zM386 514l4 -3l7 1v4l-1 5l-4 -1zM177 484
l3 -3l3 -1l2 8l1 3h-8zM409 222l1 -1l6 -1l2 4l-1 6l-7 -2l-1 -2v-4zM146 395l4 -4h4l6 5l-6 3l-4 -1zM720 315v-4l6 -1l4 6l-4 2l-8 1zM157 505l4 -4h6l2 2l-4 6l-6 -1zM155 566l5 -5h7l-5 9l-1 1zM718 574l2 -3h8v5l-3 2l-3 1zM417 664l4 -3l6 1l2 1l-3 6l-6 -2zM209 505
l1 -4l5 1l2 2v7l-5 -1zM716 215l5 -4l6 -1l2 4l-4 3h-2zM160 496v-5h8v3l-3 6l-4 -2zM169 524l2 -3l4 -1l2 4v4h-8v-4zM148 484l2 -3h8l-1 3l-3 6zM410 515v-4h4l4 3l-4 6h-3zM419 685l2 -4l4 -1l5 4l-7 4l-2 -1zM345 715l4 -4l8 -1l2 5h-14zM426 674l5 -3l2 -1l3 5l-2 2
l-4 2zM418 504l3 -3l5 -1v5l-3 3h-4zM135 472l1 -1l1 4l-1 5l-4 1l-1 -1l1 -1l-4 -2zM447 674l4 -3h2l4 5l-1 1l-7 1zM136 524l5 -3l5 -1v4l-1 3h-3zM710 361h5l5 4l-3 4h-2zM407 534l4 -3l4 -1l3 3l-3 4l-5 -2zM368 513l3 -2h2l7 3l-6 4l-4 -4zM427 534l4 -3h2l6 3l-6 4
l-1 -2zM718 133l3 -2h6l2 2l-6 4l-2 -1zM719 194l2 -3l3 -1l3 6l-2 1l-2 2zM720 114l1 -3h2l3 3l-2 5h-4v-5zM718 153l3 -2l2 -1l5 5l-5 2l-2 -1zM709 284l2 -3h6l2 3l-6 3v1l-2 -4h-2zM409 173l2 -2l6 -1l1 3l-5 4zM408 643l3 -2l4 1l1 2l-1 5l-2 -1zM390 685l1 -4h2l6 3
l-8 4zM424 558l5 -7l2 -1l-4 13zM411 104v-3l4 1l4 2l-4 4l-3 -2zM409 413l2 -2l2 1l2 2l2 4h-5zM171 493v-2l2 -1l6 4l-6 3v1zM409 653l2 -2h6l-2 2l-1 3l-5 1v-4zM451 503v-2l3 1l5 3l-4 1l-5 2zM711 441h4l5 2l-5 4v1zM412 553l-1 -2l3 1l4 1l-1 3h-8zM157 404l4 -4l2 10
zM136 481v-1h1zM131 480v1v-1z" />
    <glyph glyph-name="f_b" unicode="fb" horiz-adv-x="997" 
d="M607 -2l-29 10l-33 8l-30 17l-25 7l-23 -14l-15 -19l-12 3l-7 25l-1 27l1 31l-1 27l1 30l-4 32l5 28v34l2 26l-2 27l-2 31v58l4 30l-2 30l-2 29l1 30l1 33v38l1 39l-7 38l-26 32l-30 17l-41 3l-43 2l-43 -13l-38 -22l-23 -26l-12 -31l-6 -34l4 -36l21 -20l29 -7l30 1
l29 -6l12 -10l-15 -6l-23 -6l-27 1l-31 -8l-20 -24l-11 -30l2 -28l-1 -36l4 -58v-30l-2 -48l3 -45l-5 -31v-32l2 -30l2 -31l-7 -32l-9 -24l-15 5l-7 21l-2 33l1 31l1 30l2 28v33l-5 30l1 31v29l4 33l-6 27l-1 34l1 29l5 27l-10 34l-22 20l-24 11l-16 14l13 11l30 4l20 27
l9 35l4 37l8 23l17 25l18 20l19 21l27 16l48 7l62 1l26 -1l46 -2l31 -5l22 -15l8 -24v-62l2 -26v-65l-1 -47l2 -40l4 -25l8 -4l20 19l18 23l17 20l27 18l32 11l29 9l37 7l45 -4l37 -4l29 -9l29 -13l27 -18l25 -18l18 -22l17 -24l13 -31l10 -30l6 -30l5 -37l-3 -47l2 -37
l-11 -29l-13 -26l-12 -27l-12 -25l-18 -25l-23 -24l-18 -15l-29 -11l-30 -11l-28 -8l-38 -3l-48 -3zM730 28l55 24l24 16l20 20l18 23l30 53l4 28l4 41l1 44l-7 35l-3 32l-12 27l-10 29l-18 22l-23 19l-22 20l-37 23l-52 9l-46 -1l-36 -6l-24 -13l-27 -14l-25 -21l-20 -26
l-20 -22l-16 -23l-8 -29l-5 -32l-4 -35l-3 -45l-2 -38l1 -28l5 -37l18 -34l29 -22l28 -16l29 -11l29 -10l39 -5l48 1zM143 576l2 -4l8 1l4 1l-3 7l2 1l-3 3h-6l-3 -4l-4 -4zM875 386l2 -4h8l-1 5v5l-1 4l-2 2h-5l-3 -1l5 -6zM215 693l-9 1l-4 -5l1 -6l15 7zM142 537l5 -5h4
l7 5l-6 5l-6 -2zM752 494h6l1 -2h7v7l-9 2l-2 -2zM494 57l3 -5h8l-1 3l1 5l-8 1zM896 226l1 -4l6 -1l3 4l-5 6l-3 -1l-4 -2zM114 505l3 -3h8l-1 3l-1 7l-4 -1zM519 42h4l3 5l-3 4l-8 -2v-4l3 -2zM815 467l2 -5l6 -1l1 4l-2 3l-4 4h-2zM213 507l4 -5h8l1 5l1 1h-10zM145 477
l2 -5l4 -1l2 5v5l-8 -1v-3zM447 176v-4h8l-2 5v4l-8 -1zM646 7l1 -5l4 1l3 4l-1 4l-4 2zM154 485l3 -3l6 1v6h-8zM445 546l3 -4l6 -1l2 4l-2 3h-4zM433 686l5 -4h2l5 3l-3 5l-2 -1zM126 469l5 -3l1 -5l2 2l4 3l-7 4l-6 2zM444 115l4 -3h6v4l-2 2h-4zM484 56l4 -4h6l-1 2
l-1 6zM167 517l1 -5l4 1l4 2l-4 5l-5 -2v-1zM426 707l1 -5l4 1l3 4l1 3l-7 -1zM182 517l4 -5l6 -1l5 2l-12 4h-3zM885 364l3 -2l4 -1l2 3l-4 4h-4zM158 492l6 -1l-1 3l1 4l-6 2v-8zM257 716l1 -4h6v2l-3 5h2l-2 1v-1l-5 -1zM474 75l4 -3l6 1v1l-3 5l-3 -2zM99 494l-1 -2h6
l1 1l-1 5h-7zM385 714l3 -2h2l5 2l-2 4l-7 -2zM818 454v-2l6 2v4h-8zM445 154l3 -2l6 1l1 1l-1 3l-6 -1zM428 694v-2l4 -1l1 5l1 3h-4zM459 115l-1 -3l2 -1l5 4l-5 2l-3 1zM525 53l-11 3l2 -4zM405 714l4 -2l6 2l-5 1l1 2zM513 59v-2l1 -1z" />
    <glyph glyph-name="f_f_b" unicode="ffb" horiz-adv-x="1264" 
d="M871 1l-59 16l-28 17l-27 2l-20 -13l-16 -17l-12 4l-7 23l-3 32l4 30l-2 28l-1 27v39l-3 43l4 34l2 32v29l-2 34v53l1 33l-1 33l2 28l-1 28l-4 31l2 25l2 34l-9 31l-21 31l-32 16l-40 2l-48 1l-36 -9l-26 -14l-18 -20l-16 -23l-11 -22l-9 -32v-35l21 -28l32 -5h28l28 -1
l17 -15l-16 -6l-43 -2l-41 -7l-23 -28l-6 -30l-1 -32v-32l3 -31l-5 -29l3 -33l-1 -28l-1 -30l3 -29l-3 -32v-32l-1 -31l3 -33l-3 -31l-13 -21l-12 3l-9 23l1 35l3 27l-2 29v67l-1 34l4 38l-2 37l1 39l-2 30l2 30l-4 34l-9 27l-21 22l-29 9l-24 3h-62l-27 -5l-24 -6l-21 -21
l-10 -32l-3 -29l2 -29l4 -30l-1 -34v-31l-1 -28l-2 -32l-2 -33l1 -28v-33l1 -32l3 -29l-7 -33l-14 -22l-12 1l-2 26l-1 35v76l-3 38l-1 33l2 34v41l-1 32l1 47l-3 29v28l-6 35l-18 24l-29 9l-14 12l15 6l25 14l23 29l11 50l4 37l10 30l23 28l25 16l26 11l87 5l37 -8l33 -10
l38 -8l34 -1l34 13l51 16l60 1l84 -14l43 -13l12 -25l-2 -27l1 -30l1 -31l2 -26l-2 -39l-4 -44l5 -44l2 -23l8 -3l14 21l21 17l29 22l23 22l41 16l54 7l43 -1h40l29 -12l31 -17l22 -15l22 -17l22 -23l16 -30l12 -31l10 -25l7 -29l3 -37l1 -46l-2 -40l-6 -25l-12 -33l-10 -22
l-18 -26l-15 -25l-21 -22l-26 -16l-53 -24l-28 -2l-39 -8l-45 -1zM993 24l30 12l31 16l20 12l24 21l17 24l17 29l11 31l6 24l2 38v48l-2 36l-6 27l-10 28l-13 25l-16 27l-23 23l-22 19l-28 16l-25 9h-37l-47 3l-35 -6l-28 -9l-26 -16l-23 -21l-16 -26l-17 -22l-14 -32
l-15 -24l-5 -30l-6 -37l-3 -45l-2 -32v-33l9 -32l16 -37l28 -26l38 -19l47 -13l39 -9zM227 515l28 4h87l27 7l22 19l7 37l4 28l4 27l-14 35l-23 15l-25 10l-37 5h-40l-35 -8l-21 -13l-22 -24l-15 -23l-5 -35l4 -43l21 -31zM142 581l6 -7l9 -1l5 5l-4 6l1 5l-13 -1zM745 401
l4 -7l9 1l2 4l-3 6h-4l1 -1l-8 2zM724 412l5 -8h6l7 3l-9 5l-1 5h-1zM426 488l3 -4l9 -1v6l-2 5h-7zM175 671l4 -7h1l4 5l6 5l-5 2h-8zM716 378l4 -4l7 1v4l-2 6h-5zM715 88l5 -4h4l4 6l-3 3l-5 2zM865 497l5 -3l6 1l4 4l-3 4l-11 -3zM149 540l1 -6l6 -1l5 6l-5 3l-5 2z
M718 429l1 -5l8 1l2 2l-2 3l1 4h-7zM727 80l3 -6h8l-1 5l-1 4h-7zM145 359l5 -5l8 1v2l-4 6l-6 -1zM418 648l2 -4h8l1 4l-5 4l-6 1v-5zM274 718l6 -4l7 1l4 5l-5 1l-7 -1zM397 536l3 -2l6 -1l3 6l-3 2h-6l-2 -2zM387 509l3 -5h8l-1 4l-1 6zM417 468l3 -4l4 -1l4 7v3l-6 -1z
M410 218v-4l4 -1l6 6l-6 3h-6zM420 498l1 -4l6 -1l3 4l-3 4h-8zM718 488l1 -4l6 -1l-3 3l4 10l-8 -2v-6zM914 509l5 -5l9 -1v5l1 1h-15zM409 125l1 -1l6 1l1 3l1 6l-6 -2l-4 -4zM158 487l2 -3l6 1l3 2l-5 5l-4 1zM147 477l3 -3l6 -1v10l-6 -2zM996 509l5 -5h6l1 5l-4 2h-4z
M426 668l5 -4l6 -1l3 5l-7 2h-2zM417 539l4 -5l3 -1l5 4l-4 3l-6 2zM416 677l5 -3h6v2l-1 6l-6 -2zM137 518l4 -4h6l-1 3l1 4l-6 1zM168 519l3 -5h6l2 5l-6 2l-1 1zM447 669l4 -5l6 -1l1 6l-5 2zM477 698l4 -4l5 -1l3 4l-3 4zM157 497l4 -3l5 -1l3 4l-2 3h-5zM355 708l5 -4
l7 1l2 3l-14 2v-2zM297 509l3 -5l8 -1l2 5h-5l-5 1h-3zM766 407l5 -3h5l-1 5l1 1l-4 2zM440 688l1 -4h6l2 5l-5 3zM390 526l1 -2l6 -1l1 5l-5 3l-2 1zM729 366l2 -2l3 -1l4 3l-2 5h-4zM709 433l6 1l4 2l-4 6l-3 -2zM155 558l5 -4l3 -1l-3 11h-1zM410 504h4l2 3l2 4h-8v-7z
M370 507l1 -3l5 -1l3 5l-3 2h-3zM144 324h2l2 5v6l-5 -2zM727 346l4 -2h6v4l-4 2zM411 97v-3h6v6h-8l3 -2zM740 358l1 -4h6l-1 4l-3 2l-4 1zM720 536l1 -2l6 2l-1 3l-6 2v-5zM800 447l1 -3l5 3l2 2l-4 3l-1 -1zM474 683h-4l-5 -4l4 -3zM720 276l1 -2h6l1 2l-5 3v2zM421 657
v-3l6 1l-2 2l-1 3l-4 2zM416 625v-1l3 3l-1 5h-5zM259 718l2 -4h6l-2 2l1 2l-8 1zM171 486v-2h6l-2 3l1 5l-3 -2zM712 65l-1 -1l4 -1l3 3l-2 2h-6zM211 506v-2l6 1l2 2l-4 -1l-6 4zM414 610l-3 -6l6 1v1zM185 482l-5 1l-1 -5l-2 -3zM712 185l-1 -1l6 1l-2 1l2 3h-4l-1 -1v-3
zM135 551l-4 -7h2l4 4zM414 610l-1 1l-3 -1h4zM131 543v1v-1z" />
    <glyph glyph-name="f_f_h" unicode="ffh" horiz-adv-x="1273" 
d="M1127 15l-19 31l-4 45l1 43l-5 30l1 30v34l-1 28l4 39l-3 49l-7 35l-9 32l-14 26l-21 21l-30 17l-22 8l-35 10l-46 -2l-36 -6l-28 -8l-32 -20l-34 -32l-19 -26l-12 -31l-9 -29l-5 -35l-2 -42l-2 -34v-29l3 -27l-3 -29v-39l3 -41l-9 -37l-11 -21l-14 5l-8 24l-1 33l1 27
v31l3 27l-2 60l3 28l-1 29l-3 31l2 29l-1 30l1 28l4 30l-4 33l-2 26v34l2 49v37l-2 32l-7 31l-23 29l-27 14l-43 5l-44 -2l-36 -4l-27 -15l-23 -17l-17 -21l-10 -28l-4 -34l6 -39l23 -24l42 -5l35 -6l17 -11l-14 -7l-25 -4h-28l-32 -8l-23 -21l-7 -31l-2 -34l3 -30v-31
l4 -28l-5 -32l2 -31l1 -29l-4 -31l6 -33v-30l-5 -33l2 -30l-7 -30l-8 -21l-13 4l-9 35v43l3 38l-3 29l-1 45l2 46l-1 33l1 26l-3 35l-1 29l2 37l-9 43l-18 34l-29 7l-28 1l-46 -1l-60 -5l-30 -25l-8 -29l1 -35l2 -29l1 -32l-2 -30l2 -31l1 -34l-2 -28l-4 -30l5 -26l-3 -32
v-35l2 -28l-5 -33l-13 -22l-14 4l-8 21l4 31v87l-1 36l1 28l-2 32v61l1 30l1 31l-2 27l1 33l-11 32l-21 21l-25 12l-14 11l15 13l28 12l21 26l12 47l7 40l10 30l16 23l48 32l34 5l45 -2l32 -2l32 -6l27 -9l27 -11l36 5l33 10l29 13l35 4l59 1l62 -10l51 -15l16 -31l2 -33
l-4 -29l-2 -35l1 -32l4 -29l1 -30l-4 -31l2 -21l14 -8l36 36l22 21l27 10l23 11l30 11l34 2l46 -1l34 -5l27 -6l25 -12l22 -21l22 -20l11 -25l14 -27l9 -25l4 -37l4 -46l-3 -45l-2 -51l-1 -36l3 -32l1 -37l1 -39l27 -26l38 -8l20 -11l-21 -13h-45zM225 516l28 3l33 -3l26 3
l26 -1l30 6l24 24l11 40l-3 41l-9 37l-19 17l-31 12l-30 7h-46l-32 -6l-22 -13l-22 -23l-13 -26l-3 -35l2 -39l22 -33zM726 417l3 -8h6l7 6l-3 7h-12zM743 406l6 -7l8 1v2l1 3h1l-3 5l-9 1zM731 372v-3l3 -1h-2l-4 -4l2 -5l8 1l1 4l-2 4h-3l5 4l-6 4l-4 -1zM415 474l5 -5
l8 -1l3 7l-7 3l-2 1zM427 495l2 -6h10l1 4l-5 7l-4 -1zM716 495l3 -6l7 1l2 4l-1 5l-10 1zM718 385l2 -6l7 1l4 4l-3 5h-10v-4zM717 435l2 -6l6 1l5 1l-2 -1h7l-8 4l-1 4v3l-6 -2zM708 338l3 -9l4 1l7 4l-6 6zM148 453l2 -4l8 -1l1 7l-5 3h-6v-5zM177 675l2 -6l4 1l5 7v3h-9
zM407 119h7l7 6l-6 5l-6 -2l3 -1zM147 545l3 -6l4 -1l4 5l-2 6l-8 -1zM419 654l1 -5l5 -1l6 6l-3 3l-6 1zM119 513l1 -4h8l-1 5l-2 5h-7zM386 514l4 -5l6 1l3 2l-1 5h-6zM185 494l5 -5l2 -1l4 5l1 1l1 4l-8 -1zM406 512l4 -3l8 1l2 3l-6 4l-3 -1zM417 164l2 -5l6 1l-1 10
l-3 1zM412 630l-2 -1l6 -1v5l2 4l-8 1l-3 -3zM166 523l5 -4h6l3 4l-6 2l-5 1zM427 555l2 -6l4 -1l1 13h-3zM167 492l4 -3l6 1l1 1l-3 6h-5zM375 705l5 -6h8v5h-3l-8 2zM426 673l5 -4h2l7 4l-4 2l-5 2zM148 362l2 -3l8 1l-1 3l-3 5l-4 -1zM418 542l3 -3l5 -1l4 5l-6 2l-5 1z
M716 203l5 -4h2l4 3l-1 5h-5zM136 521l5 -2l4 -1l2 3l-1 4l-7 1zM275 712l3 1v5l-10 -1v-5l2 -1zM396 540l4 -1l8 1l3 3l-4 3l-3 1l-1 -4zM448 672l3 -3l5 1l1 2v4l-6 1zM150 483v-4h8l-2 4l2 5l-7 -2zM417 504l4 -5l4 1l2 6l-7 1zM156 493l4 -4l6 -1l-2 9l-3 -1zM696 692
l5 -3l4 1l5 2l-5 3l-2 1zM409 171l2 -2l3 -1l5 4l-3 4l-6 -2zM370 512l1 -3l4 1l5 2l-3 5l-2 -2l-8 -1zM346 714l3 -5l6 -1l4 5zM717 352l4 -3l5 -1l3 4l-6 3zM866 501l4 -2l8 -1l-1 6l-1 1zM418 112l3 -3h6l-1 5l-1 3l-4 -2zM418 683l3 -4l2 1l5 1l-3 6l-5 -2zM161 499
l5 -1l3 5l-2 2h-6v-6zM407 533l4 -4h2l6 3l-2 2l-5 1zM710 174l1 -5h6l2 3l-5 4zM710 361l1 -2l6 -1v4l-2 3h-2l-3 1v-5zM448 501l3 -2h6l2 3l-6 3l-1 -1zM407 412l4 -3h6l-1 2l-1 3l-6 1zM408 551l3 -2l4 -1v4l2 2l-8 1zM717 282l4 -3h6l-1 4l-3 2zM158 562l2 -3l5 -1
l-3 10l-1 -1zM729 351l2 -2h2l2 2l2 4h-8v-4zM808 471l3 -2h6l-2 3v2l-3 2zM708 189h3l4 -1l4 4l-4 1h-4v1zM718 541l3 -2h7l-5 4v2h-4zM431 533v-4l6 -1l1 3l-5 4l-3 -1zM122 500l-1 -1l4 -1l3 3l-1 3l-6 1zM407 652l4 -3l5 -1v3l-3 3v1zM708 210l3 -1h6l2 3l-6 2h-1v-3z
M400 461l1 -2h2l2 3l2 4l-7 -2v-3zM466 495l-5 1l-1 -4l8 2zM460 492l-3 -1h3v1z" />
    <glyph glyph-name="f_f_k" unicode="ffk" horiz-adv-x="1126" 
d="M1000 10l-20 18l-23 32l-25 37l-22 39l-13 28l-19 29l-18 31l-39 18l-46 -4l-32 -26l-7 -40l2 -48v-68l-3 -28l-14 -20h-12l-6 30l2 29l-6 30l4 30l-1 30v27l3 29v29l-3 30v28l-2 32l3 31l-3 27l2 38l2 50l-2 45l-2 33l2 38v30l-9 36l-21 28l-34 17l-83 -3l-39 -8
l-25 -10l-23 -17l-16 -26l-13 -22l-4 -34l7 -36l32 -27l41 -3l31 -3l15 -13l-12 -10l-31 -2l-31 2l-27 -11l-21 -22l-4 -32l-2 -29l1 -29l1 -33l-3 -29l3 -32l-1 -29l-2 -64l1 -27l-1 -30v-36l1 -28l-3 -35l-14 -24l-11 5l-7 25l1 34l-1 31v29l-3 30l1 30v28l2 35l-2 29
l2 31l-3 27l3 32v34l-3 30l-8 29l-19 21l-29 12h-28l-27 -1l-31 -3l-29 1l-29 -11l-20 -24l-2 -31l-4 -25l3 -30l1 -33l-3 -30v-33l-2 -29l3 -29l-1 -32l-2 -35v-30l5 -30v-29l-5 -29l-14 -23l-14 -3l-5 30l-3 30l-3 28l1 34l6 28l-1 28l1 32l-2 30l-1 29l-1 39l-1 43l2 38
v35l-2 29l-23 22l-47 25l16 9l31 9l22 34l5 43l11 39l9 30l16 25l20 17l28 14l37 7l42 -1l37 -3l28 -7l27 -11l30 -7l33 4l35 10l23 11l43 5l53 2l25 -3l28 -5l43 -5l24 -16l13 -32l1 -49l-5 -34l-2 -28v-33l-1 -29l7 -26v-29l-2 -35l2 -29l-4 -27l-2 -28l8 -29l27 -20
l23 -8l35 11l36 19l27 24l24 26l19 28l20 21l14 22l23 25l16 22l23 25l28 16l13 2l-9 -21l-16 -23l-17 -26l-18 -21l-18 -22l-18 -24l-18 -25l-21 -21l-18 -22l-11 -31l-6 -35l9 -33l22 -33l14 -26l16 -31l21 -43l24 -27l30 -15l39 -8l17 -11l-19 -14l-43 -2zM248 519l42 -2
l78 4l25 29l8 39l3 43l-7 37l-26 20l-28 6l-37 10l-39 -2l-36 -9l-23 -15l-18 -20l-14 -25l-5 -34l7 -44l29 -28zM712 433l5 -5h10l1 6l-2 4l-9 2zM712 493l5 -5l7 1l4 1l-3 9l-4 -1l2 3l-1 -1h-2l-1 1l-2 -2h-2zM733 245l4 -7l9 1l1 5v6l-11 -1zM425 492l2 -4l10 -1l2 7
l-4 6l-7 -2zM751 244l6 -6l9 6l-1 6l-10 1zM183 525l4 -7l8 -1l3 4l-10 9zM715 92l3 -4l8 -1l1 5l-5 7h-3zM805 263l2 -5h10l4 7l-3 2zM213 700h-6l-2 -6v-6l14 8zM153 562l5 -4l6 -1l4 3l-3 6l-5 1zM117 512l1 -4l6 -1l5 6l-5 3l-6 2zM207 502l1 -4l5 -1l1 2l5 4l-5 5
l-6 -2zM724 231l4 -3h8l2 4l-4 3l-5 2zM725 283l3 -5h8v3l-3 6h-7zM147 542l1 -4l8 1l2 5l-2 3h-6zM143 362l5 -4l6 1l3 2l-4 5l-3 1zM407 511l1 -3l7 1l3 3l-2 4l-8 1zM345 714l2 -6l8 -1l3 5l-12 4zM384 513l4 -5l7 -1v4l-3 5l-2 1zM164 522l5 -4l4 -1l3 6l-2 3l-7 -1z
M716 313l2 -5l7 -1l1 6l-4 3l-2 1zM407 136l1 -8l6 1l3 4l-1 4l-8 -1h-1zM417 473l1 -5l8 1v3l-2 4l-8 1zM213 512l5 -4h8l3 5l-5 -1l-5 3zM414 680l5 -2l3 -1l4 5l-5 4l-4 -1zM1018 462v-4h4l5 3l-1 5l-7 1zM139 329l5 -1l4 4l-4 5l-5 1v-9zM156 493l2 -5l4 -1l4 6l-4 3h-6
v-3zM716 573l2 -5h8l-1 8l-1 -1l-4 1zM477 500l10 3l-1 4h-10l-1 -5zM395 539l3 -1l6 -1l3 4l-5 5h-1zM915 339l3 -1l4 1l6 5l-6 3l-2 -1zM867 283l1 -5h4l7 4l-7 3l-3 2zM747 271l1 -3h8l-3 9l-6 -2v-4zM725 223l3 -5l8 -1l-1 5l-8 4zM716 211l3 -3l6 -1l1 4l-3 3l-4 2z
M416 660l3 -2l4 -1v4l2 5h-7zM186 487l2 2l6 2l3 3l-1 2h-6l-4 -4v-5zM414 542l5 -4l5 -1l2 4l-3 3h-4zM945 379l3 -1l5 1l4 2l-5 6zM698 692l1 -4l2 -1l6 3l-5 6h-3zM711 332l-1 -4h6l3 4l-6 5h-1zM406 690l3 -2l5 1l1 1l-3 6l-5 -1zM1035 481l4 -3h3l3 6h-3l-3 2zM146 170
l3 -2l5 1l3 2l-2 2l-8 1zM715 151l4 -3h6l-2 2l-2 5h-4zM726 260l3 -2l3 -1l3 5l-4 2h-4zM718 112l1 -4h6v5l-2 1l-3 2zM718 191l1 -3h2l5 3l-1 4l-7 -1v-3zM449 500v-2l4 -1l4 3l-3 3l-7 1zM149 610v-2h2l7 5l-7 2l-3 -1zM159 500v-2l5 1l2 3l-1 3l-7 -1zM426 530l3 -2l5 1
l-1 1v5l-6 -1zM941 372l-3 -4l5 1l5 5l-5 2l-4 -4h2zM410 550l-1 -2l4 -1l3 3l-1 3l-8 1zM116 499l3 -1h6l1 1l-5 4h-4zM425 554l2 -6l4 -1l-4 12v2zM715 351l4 -3h2l4 4l-4 3l-1 -2zM138 522l1 -4l4 1l3 3l-5 3v1zM977 409l2 -1l5 1l-1 5l-6 -1v-4zM889 211v-3l5 -1l-1 4
l2 3l-4 1zM417 230l2 -2h2v6h2l-6 2v-6zM367 509l2 -1l3 -1l6 3l-6 4l2 -3zM898 319v-1l6 1l1 4l-1 2zM410 100l-1 -2l3 -1l1 5l2 2l-5 -1h-1zM420 559l-1 -1l5 1l-2 1l3 4l-4 -1zM714 438l4 3l-5 3l1 -6h-1h1z" />
    <glyph glyph-name="f_h" unicode="fh" horiz-adv-x="1008" 
d="M855 16l-16 32l-3 41l1 42l2 30l-3 32l2 33l2 32l-5 37l-3 48l-4 37l-7 27l-17 26l-21 22l-22 22l-30 11l-36 6l-42 -2l-38 -5l-31 -9l-25 -13l-19 -23l-23 -21l-13 -23l-16 -27l-7 -32l-5 -38l-2 -41l-3 -35l-2 -25l4 -30l-4 -32l6 -28l-4 -27l3 -28l-2 -26l-16 -22
l-13 4l-5 24l-2 30l-2 27l3 32l-1 28l2 30l1 31l-1 30l-2 27l1 31l-2 28l3 29l2 30v29l-4 32l1 29v29l2 30l-2 32l-4 27l3 26l-4 33l-24 31l-42 19l-39 1l-41 -1l-36 -10l-25 -9l-23 -19l-14 -23l-11 -25l-8 -33l6 -40l19 -25l31 -1l33 -4l29 -2l11 -10l-16 -12l-30 -1
l-27 1l-30 -7l-21 -24l-8 -32l-1 -30l2 -32l1 -28l-1 -31l3 -33l1 -34l1 -30l-4 -27l2 -30l-3 -32l3 -31l-3 -31l-2 -29l-13 -24l-13 10l-4 45l-2 34l-2 45l4 36l-2 37v34l-2 28l4 33l1 29l-2 33l-3 25v33l-7 29l-20 25l-28 13l-14 8l17 12l24 6l22 23l11 35l1 37l10 27
l15 27l19 22l20 14l24 14l27 10l35 6l48 -1l30 -3l42 -6l34 -6l19 -15l10 -31l2 -27l-2 -32l1 -32l5 -30l-5 -30l3 -33l2 -29l2 -23l9 -6l21 12l19 24l21 19l21 15l24 7l33 5l37 3h41l40 -2l23 -7l28 -12l18 -21l21 -21l16 -19l11 -28l8 -30l2 -35v-46l1 -38l1 -32l-2 -31
l2 -29l3 -34l-4 -40l6 -38l27 -24l36 -5l22 -15l-26 -8l-46 -2zM145 581h2l12 1l2 3l-2 4l-4 6l-8 -1h1zM814 445l5 -4l8 1l1 -1l6 1l-4 5l-1 -1l-2 5l-10 -2zM148 546l1 -5l7 -1l4 5l-5 6h-5zM144 366l5 -5l7 -1l-1 4l3 1l-3 4l-6 2zM175 673l3 -2l10 -1v7l-2 5zM114 516
l5 -5l6 -1l2 6l-4 4l-4 1zM145 484l4 -3h4l6 3l-3 6h-6zM135 524l5 -3l5 -1l4 4l-3 5l-8 -1zM275 724l4 -3l7 1l5 4l-3 2zM145 395l4 -4l6 1l-1 6l-7 1zM146 616l4 -5l6 1l3 2l-5 3l-4 2zM447 256l3 -5l6 1l1 2l-1 4l-4 1zM847 363l3 -2l8 2l-4 5h-6zM167 495l3 -4h6l2 3
l-4 3l-2 1zM444 92l2 -1l4 4l-2 8h-3zM455 474l4 -3l4 1l2 -1l-2 7l-2 1zM801 450l3 1l5 3l-7 4l-1 1l-2 -5zM828 435l2 -4l6 -1v3l-2 5l-6 -2v-1zM788 464l3 -3h5l1 5l-3 1l-2 1zM426 705l4 -4l5 1l1 1l-3 5h-1zM848 283l2 -2l3 -1l5 4l-6 3zM449 653l1 -2l6 1l2 3l-2 2
l-6 -1zM439 695l1 -4h6l-1 4l-2 2l-5 1zM810 451l2 -1l3 3l1 6l-6 -2v-6zM850 141l4 -1v9h-4v-8zM156 392h-1v-1z" />
    <glyph glyph-name="f_k" unicode="fk" horiz-adv-x="861" 
d="M737 11l-21 16l-23 32l-26 40l-19 37l-12 25l-15 33l-23 30l-35 18l-34 1l-28 -8l-24 -24l-5 -29l2 -30l-1 -34l-2 -58l-5 -33l-9 -19l-15 1l-7 24l1 33l1 29l-1 31l1 31l-1 24v33l-2 33v23l2 29v32l1 29l-1 29l3 32l-4 28v27l2 31v31l3 28l1 33l-1 28l-12 34l-23 31
l-32 15l-36 4l-50 -7l-37 -4l-27 -15l-20 -14l-16 -24l-9 -29l-10 -31l11 -40l20 -26l24 -5l26 4l32 -5l18 -8l-20 -11l-28 -3l-25 -1l-31 -6l-19 -27l-7 -33v-39l1 -45l-2 -35l-3 -32l2 -30l2 -33v-29l1 -33l1 -27v-28l1 -33l-7 -36l-14 -22l-14 6l-6 28l-1 31l3 31l1 29
l-3 29l1 30v32l1 27l1 32l-2 27l3 33v29l-3 27l-2 31l-7 32l-18 23l-29 11l-15 11l13 11l31 10l21 20l12 39l2 33l6 27l13 27l18 21l26 15l21 15l25 7l41 9h44l40 -2l32 -7l29 -5l24 -17l14 -33l-3 -38l-2 -46l6 -52l1 -34v-30l-1 -32l-2 -52l1 -36l1 -29l4 -26l26 -20
l28 -3l36 8l34 21l24 23l22 26l16 21l20 21l19 28l22 25l17 25l24 22l29 14h12l-7 -20l-18 -22l-17 -24l-18 -22l-19 -23l-20 -23l-18 -24l-21 -23l-18 -18l-13 -31l-2 -39l5 -36l17 -27l18 -26l20 -34l20 -40l25 -32l33 -12l34 -8l20 -15l-22 -9l-37 -5zM744 452l4 -6l7 1
l2 3l3 1l-6 4l5 6l-6 8h-3l-3 -3l-5 -8l3 -3l5 2zM171 672l6 -6l9 1l5 4l-5 6h-9zM146 591l2 -11l1 -4h5l5 4l-4 7l-1 2zM445 671l4 -5h6l1 2l2 -2l5 1l-1 6l-6 1l-1 -2l-2 2l-6 -1zM128 467l6 -1l3 3l-1 5l-2 2l-2 1l-4 -1l-5 -4zM603 269l5 -3l8 1l3 3l-7 5l-5 -1z
M143 540l5 -4l6 -1l2 5l-4 6l-5 -2zM143 452l5 -6h4l3 5l1 4l-8 1zM369 725h-14l-3 -2l3 -3l13 -2v5zM144 390l4 -4h8l1 5l-4 2l-7 2zM677 112l1 -6h8l3 5l-7 4h-2zM656 152l1 -6l8 -1l1 2l-6 9h-3zM424 709l4 -3l6 1l2 4l1 1l-5 1l-6 1zM115 511l3 -5l7 1l1 2v5h-6z
M144 480l4 -4l6 1l1 2l1 5l-10 -1zM694 81l4 -5h6l-1 9l-6 -1zM157 561l1 -5h6l1 9l-6 1zM595 241l4 -5h6l3 3l-5 5l-4 -2zM212 505h-4l-3 -4l1 -4l11 2zM158 489v-3l7 1l1 4l-1 4l-8 -2zM446 170l2 -4l4 -1l4 6l-2 2l-4 1l-5 -4h1zM410 701l-1 1l-4 8h-7l-3 -2zM134 519
l5 -3l2 1l4 3v3l-6 1zM437 689l2 -3l6 1v2l-1 5h-6zM446 249l3 -3l4 -1l3 6l-5 1l-4 1zM672 124l4 -8l2 6l-1 9zM155 499l4 -3h6l-2 8l-2 -2zM445 648l4 -2l3 1l2 1l1 5l-8 -2zM484 270l5 -4l2 1l5 2l-4 3l-1 1zM449 356h2l5 5l-3 1l-5 2l-1 -4h2v-4zM117 497l2 -1l5 -1
l-1 4l1 3l-7 -1v-4zM153 399l5 -3v1l3 8h-3zM649 326l2 -1l3 5l-2 2l-5 2zM687 386h6l5 5l-3 2zM609 256h6l-2 2v3l-4 2v-7zM146 427l4 -1v-1l6 3l-4 2zM460 159l-1 -3h2l4 2l-4 2h1l-5 1z" />
    <glyph glyph-name=".notdef" horiz-adv-x="735" 
d="M136 -58l-1 30l1 29l1 25l-3 33l-2 34v29l1 30v30l2 64l-3 29l3 29l-2 34l-1 27v62l-2 29l3 32l2 30v62l-2 29v35l13 45l27 34l43 10l39 -4l27 4l24 -1l31 -5h35l45 5l73 1l45 -2l34 -9l24 -20l6 -31l-1 -33l-2 -29l1 -32l6 -29l-5 -31v-28l1 -33v-31l2 -31l-3 -29
l-3 -32l2 -26l-1 -30l1 -48l3 -32l1 -46l-1 -33v-35l-5 -46l1 -38l4 -28l-1 -31l-9 -32l-20 -20l-31 -9h-28l-61 -1l-25 1l-31 1h-32l-25 -2l-28 1l-61 3l-26 -5l-32 2l-30 8l-21 24zM575 -5l-2 60l5 27l-5 31l1 29l1 32l-3 27l3 31l1 26l-2 34l2 31v22l1 36l-1 28v30l-3 31
l2 26l1 29l-2 29l-1 31v29l-3 21l-6 3l-15 -17l-15 -28l-18 -26l-13 -25l-15 -26l-11 -28l-26 -50l-13 -27l-16 -26l-14 -26l-11 -36l2 -41l12 -28l12 -29l15 -27l12 -28l16 -20l19 -39l21 -41l13 -30l13 -26l14 -27l17 -14l11 -1zM230 -94l41 2l79 -5l31 1l29 -3l32 3h45
l44 6l11 23l-25 50l-11 27l-13 25l-14 25l-13 30l-14 29l-15 24l-15 25l-15 30l-13 25l-17 17l-20 2l-19 -18l-16 -36l-23 -41l-22 -47l-25 -48l-30 -49l-24 -47l-5 -26l11 -21zM393 386l16 25l13 27l13 29l13 26l14 26l28 56l18 23l13 27l19 52l-16 24l-23 1l-32 4l-28 1
l-28 2l-70 -5l-52 1l-51 4l-35 -8l-14 -20l8 -30l13 -23l21 -35l21 -41l29 -58l15 -25l15 -29l13 -27l15 -25l18 -19l15 -4zM187 -13l11 26l18 27l14 34l19 41l19 34l15 20l15 29l16 29l12 25l10 30l1 42l-12 31l-14 29l-16 24l-14 29l-8 25l-20 27l-11 25l-12 23l-17 26
l-12 30l-14 27l-15 16h-9l-3 -24l-3 -29l1 -29l4 -32l-2 -27l1 -30l1 -29l-2 -37v-78l-2 -29l1 -33l-3 -28l2 -30v-57l1 -34v-27l-1 -40l-2 -39l7 -31l8 -2zM553 -87l3 -6h10l-1 4l1 7l-9 1zM551 651l6 -4l2 1l1 3l3 -2l6 2l-4 6l-7 1zM340 364l6 -7h10l-3 2l2 1l-7 7z
M563 -60l4 -3l6 1l4 2l-2 5l-10 -1zM324 -111l9 -1l1 4v3l-7 1l-5 -5zM353 261l4 -4h4l5 3l-2 4h-7zM302 420l5 -3l7 -1l-7 9l-1 2zM576 -39l1 -4l6 1l4 4l-1 1h-13zM332 241l5 -4l9 7h-10zM555 711l3 -4l4 -1l4 4l-5 2l-1 1zM524 610l4 -3l1 -1l3 5l2 3h-6zM544 -41l4 -2
l5 1l2 3l-3 1l-2 1zM531 -18l6 -5l6 -1l-5 4l-2 5zM367 309l1 -2l5 -1l2 5l-5 2zM515 720l1 -3l8 -1v5zM358 310v-3l6 -1l-1 3l-1 5l-3 -2zM296 169l3 -3l5 7h-2l-2 1zM519 -4l3 1v3l1 5l-5 -2zM555 -71l4 -2l1 -1l5 3l-4 2zM449 468l-1 -1h2l3 2l-3 5h-3zM338 258l4 -1l4 3
l-4 2zM538 639v-2l4 1v4l-6 2l3 -3zM549 669l-1 -2h2l4 4l-4 2v2zM340 264l2 -2l1 2h-3z" />
    <glyph glyph-name=".null" horiz-adv-x="0" 
 />
    <glyph glyph-name="nonmarkingreturn" horiz-adv-x="333" 
 />
    <glyph glyph-name="CR" unicode="&#xd;" horiz-adv-x="316" 
 />
    <glyph glyph-name="space" unicode=" " horiz-adv-x="316" 
 />
    <glyph glyph-name="exclam" unicode="!" horiz-adv-x="303" 
d="M135 222l-1 30v42l1 42l-2 40l-2 32v33l4 26l-3 32l-2 31l4 58l-3 32l-2 28l1 34l5 31l11 23l16 -6l6 -21v-29l1 -33l4 -32l-2 -33l-2 -25l2 -29l-2 -32l-3 -30l-3 -34l1 -27l1 -31l-2 -31l2 -27l-1 -33l2 -31l-4 -26l-2 -34l-7 -21l-12 19zM131 2l1 39l39 -2l-4 -40z
M145 469h1l5 -1l5 7l-2 4l-8 -1v-1z" />
    <glyph glyph-name="quotedbl" unicode="&#x22;" horiz-adv-x="348" 
d="M93 544v31l2 28l2 34l4 29l9 26l12 -5l5 -21l3 -33v-32l-3 -31v-28l-10 -32l-10 -17l-10 18zM220 542l3 34l-3 30v31l5 34l13 20l11 -5l5 -26l-3 -30l3 -30l-3 -30v-32l-5 -30l-9 -12l-9 11zM114 597l5 -4l3 9l-2 1l-1 2zM112 665l-1 -2l3 1l5 1l-2 2h-2l-5 1z" />
    <glyph glyph-name="numbersign" unicode="#" horiz-adv-x="753" 
d="M166 33l9 28l2 26l5 28l2 28l-21 24l-25 8l-28 -2l-29 4l-17 12l19 8l38 2l42 9l32 21l12 31l6 28l8 29l2 27l4 32l7 25l7 29l-1 28l-18 22l-30 9l-27 1l-27 4l-15 7l15 10l28 5l33 2l29 6l24 24l11 29l7 26l4 35l9 28l18 25l16 1l-3 -25l-4 -33l-6 -28l-8 -32l4 -27
l17 -24l30 -9l28 2h25l39 1l44 6l31 22l16 35l4 28l4 30l10 31l15 23l15 -5l-2 -23l-5 -30l-4 -26l-4 -31v-30l18 -22l25 -8l33 -1l30 -1l18 -10l-18 -16l-31 -3l-30 1l-34 -7l-31 -19l-8 -32l-5 -28l-4 -27l-4 -32l-10 -26l-1 -27l-8 -30v-26l27 -25l43 -3l38 -5l12 -14
l-13 -9l-29 -3h-30l-32 -11l-24 -20l-12 -31l-11 -24l-6 -31l-8 -30l-16 -20l-13 2l-2 22l7 28l6 28l5 31v26l-16 22l-31 7l-29 -1h-30l-27 2l-31 1l-29 -10l-24 -21l-13 -31l-7 -28l-6 -27l-5 -30l-19 -24l-12 5v24zM288 203l40 -1l48 -1l27 1l31 6l25 23l13 26l7 31l4 27
l4 37l10 44l8 33l-6 27l-16 23l-42 9l-43 -1l-30 1l-28 -1l-32 -6l-25 -26l-13 -24l-4 -30l-4 -26l-8 -28l-3 -30l-4 -30l-7 -31l4 -26l16 -22zM453 211l7 -7l6 1l7 5l-3 7l-10 -1zM249 465l1 -2v-8l9 -2l2 6l-3 8h-6zM277 491l3 -7l8 -1l5 6l-7 5h-6zM275 579l5 -5l6 1l2 1
l2 8l-9 2zM271 567v-3l7 -1l1 2l3 -1l3 1l-1 4l4 1l-8 1l-1 2h-10zM281 603l7 1l5 4l-5 6h-6zM206 508l5 -4l4 -1l7 5l-5 5l-7 -2zM480 207l1 -3l7 -1l4 5l-5 4l-8 1zM447 189l4 -5l8 1l1 2l-2 6h-7zM552 654l-1 -10h4l8 5l-6 4zM507 198l4 -4l7 1l3 3l-6 4l-6 -1zM229 497
l2 -3l7 -1l1 4v4h-9zM219 497l2 -3l5 1l2 2l1 5l-7 1zM178 179l3 -5l6 1l4 3l-4 3h-6zM487 168l5 -4l4 -1l2 4l-2 3h-2l1 1l-1 1l3 2l-2 1h-3l2 -2v-1l-1 -1l1 -1h-3zM290 627l1 -3h5v5l3 3l-9 1v-6zM271 468l1 -4h6l3 4l-6 2l-4 2v-4zM278 547l4 -3l6 1v5l-6 1zM470 178
l2 -4l5 -1l3 4l-4 2l-6 1v-2zM240 507l1 -3l4 1l3 3l-2 4h-4zM222 275v-1h2l4 5l-4 1l-1 2l-4 -1zM253 416l-1 -2l5 -1l2 2l-3 5l-5 -2zM259 544h3l4 1l2 1l-5 5zM453 166l-1 -2h6l1 2l-5 3h-4zM482 264h4l3 4l-3 1zM484 271l2 -2l1 1z" />
    <glyph glyph-name="dollar" unicode="$" horiz-adv-x="581" 
d="M268 -32l-22 18l-28 9l-45 15l-47 16l-32 16l-11 19l15 11l26 -10l26 -13l27 -10l33 -7l29 -1l35 -3l43 -2l31 2l30 11l25 11l24 18l18 20l17 26l7 37l-4 44l-5 33l-18 26l-17 23l-25 21l-27 12l-32 9l-35 14l-42 15l-39 10l-30 9l-29 13l-23 16l-26 19l-20 24l-10 29
l-7 36l-6 46l6 38l15 27l18 28l20 17l26 15l27 14l32 6l31 11l24 22l7 28l7 16l14 -17l8 -22l20 -20l34 -15l28 -5l25 -6l28 -7l27 -18l13 -22l-18 -8l-28 11l-27 12l-33 8l-64 7l-46 -1l-37 -4l-29 -5l-26 -11l-23 -14l-16 -25l-14 -23l-4 -34l-4 -42l10 -35l14 -24l21 -21
l26 -20l43 -19l45 -11l47 -14l61 -19l22 -13l23 -16l31 -19l16 -19l15 -23l12 -27l7 -33l1 -49l-10 -39l-23 -39l-28 -30l-25 -21l-30 -10l-29 -9l-33 -10l-19 -21l-11 -28l-6 -19l-14 13zM417 49l4 -6h8l3 4l-6 5l2 2l-3 -2zM438 66l3 -3l5 -1l5 5l-3 3h-7zM126 436l5 -3
l6 1l3 2l-7 6zM310 697l1 -4l7 1l2 4l-2 2l-7 2zM370 674v3l-2 4l-6 2l-2 -5v-2zM307 686l5 -3l4 1l5 3l-7 3h-4zM287 716l5 -3h2l5 2l-4 4l-3 2zM279 -25l3 -2l4 -1l3 2l-3 5l-6 -1zM348 16l4 -3h6l-1 2l1 5l-6 -1l-1 -2zM230 14l2 -1l6 -1l1 4l-5 2l-3 1zM328 698l4 -5h6
l-1 4l-2 1l-3 2l1 -1zM321 7l1 -4h2l4 3v3l-8 1zM131 426l1 -3l3 -1l3 4v2h-8zM331 685l1 -2l5 1v1l-3 5l-4 -1zM282 17v-4h6l-2 3l2 1l-7 1zM430 56l-2 -2l3 2h-1z" />
    <glyph glyph-name="percent" unicode="%" horiz-adv-x="804" 
d="M142 385l-27 15l-20 19l-18 29l-13 25l-7 37l-3 45l9 42l9 23l16 22l13 21l23 20l22 13l36 6l42 4l35 -8l28 -15l19 -15l22 -25l11 -22l11 -25l5 -38l1 -44l-8 -41l-12 -27l-22 -25l-21 -22l-25 -15l-40 -11l-47 5zM534 6l-23 15l-23 19l-20 31l-11 26l-9 38l2 48l1 34
l12 25l15 27l19 18l18 18l25 11l36 5l42 2l33 -5l26 -11l23 -20l19 -19l12 -26l9 -27l8 -34l-2 -47l-10 -34l-12 -31l-18 -28l-20 -18l-28 -18l-41 -8l-42 2zM257 413l25 16l17 24l14 26l9 33l-1 48l-9 34l-11 27l-18 28l-24 14l-31 14l-44 -4l-33 -11l-23 -16l-17 -22
l-15 -28l-5 -39l-4 -44l7 -35l9 -24l24 -24l21 -20l37 -9l39 2zM652 36l21 20l22 22l13 25l3 30l3 47l-5 39l-13 24l-20 24l-25 17l-35 12l-43 1l-34 -13l-23 -15l-16 -25l-14 -28l-6 -36l4 -39l6 -37l9 -28l18 -27l25 -14l29 -6l43 1zM149 -7l10 24l37 54l17 26l14 22
l15 26l18 24l14 27l21 21l34 52l16 27l12 24l17 25l20 25l15 27l18 23l16 24l16 28l15 25l12 22l31 50l25 36l21 40l19 28l16 25l22 21l18 7l6 -20l-9 -28l-18 -24l-16 -26l-18 -25l-14 -22l-21 -30l-14 -22l-19 -25l-16 -31l-17 -20l-14 -26l-20 -22l-16 -28l-13 -24
l-19 -25l-14 -26l-15 -22l-15 -24l-15 -26l-19 -25l-33 -54l-18 -22l-14 -30l-13 -24l-19 -26l-14 -23l-15 -25l-20 -26l-21 -4zM605 677l5 -6h5l10 7l-7 7l-6 -1zM304 632l4 -1l5 6l-5 6l-10 -1l-1 -1zM282 662l6 -1l2 6l-5 6l-5 1l-2 -8zM687 56l4 -5l8 -1l1 4l-2 5h-7z
M616 705l5 -4h4l4 4l-4 6l-1 1zM71 480l6 1l4 4l-4 5h-7zM327 595l4 -4l7 1l3 3l-6 5l-2 -2zM707 84l5 -3l6 1l3 4l-3 2h-4l-6 -2zM500 275l1 -4l3 1l6 6l-5 3h-3zM468 233l4 -2l6 -1l3 5l-5 2h-3zM729 153l3 -2l6 1v6l-7 1zM722 192l5 -1l2 5l-2 3h-8zM561 620l6 1l5 6
l-6 3zM637 305l5 -4h2l7 4l-4 2h-6zM676 287l4 -6h10l-3 1l-8 8zM479 244l3 -3h6l1 3l-5 4l-1 1zM511 535l1 -4h6l3 3l-7 4l-1 1zM659 23l3 -2l-1 -1l4 1l4 2l-3 4h-6zM593 672l5 -1l3 5l-2 7zM698 253l4 -2h2l4 2v3l-8 1l-2 -3v-1zM499 43l4 -2h1l5 2l-5 4l-3 1l-3 -3z
M588 654l4 -3h6l-2 2l-2 5h-4zM341 521l5 -1l-2 9l-3 1v-9zM331 561h1l4 1l2 3v3h-4l-2 -3l1 -2zM545 579v2h-4l2 -1l-2 -4h6zM470 238l3 -1l1 1h-4z" />
    <glyph glyph-name="ampersand" unicode="&#x26;" horiz-adv-x="797" 
d="M654 10l-26 11l-28 15l-27 11l-34 8h-33l-32 -13l-28 -16l-32 -11l-56 -16l-35 -5l-38 1l-79 8l-27 10l-26 13l-28 18l-17 25l-20 28l-14 27l-4 34l2 50l5 37l10 28l22 25l26 25l23 17l21 28l14 33l-5 33l-7 31l-8 40v47l7 35l11 28l15 24l18 25l22 16l49 15l61 4l30 -11
l30 -8l25 -12l16 -22l14 -26l4 -37l3 -43l-7 -34l-12 -28l-19 -19l-25 -21l-24 -19l-58 -22l-27 -15l-19 -17l-13 -25l24 -52l23 -24l23 -18l20 -23l23 -20l22 -18l27 -18l26 -18l27 -10l30 8l23 21l15 30l10 25l4 30l10 30l10 33l29 24l46 14l38 -3l17 -16l-16 -11l-28 -3
l-34 -8l-22 -19l-9 -32l-11 -28l-8 -30l-6 -25l-17 -27l-8 -32l8 -31l24 -20l30 -13l44 -17l37 -23l8 -15l-28 -4zM359 27l43 14l44 18l15 22l-3 23l-23 24l-23 16l-22 19l-29 23l-21 20l-42 43l-18 25l-22 24l-26 27l-34 6l-28 -12l-25 -23l-17 -24l-16 -30l-11 -33l2 -44
l8 -36l14 -25l17 -21l20 -18l25 -18l23 -9l30 -10l39 -3l46 -4zM297 407l28 13l27 11l24 15l28 15l21 16l13 26l9 35l-3 45l-9 37l-22 21l-24 18l-32 3l-43 1l-37 -7l-27 -14l-20 -25l-13 -30l-8 -40l1 -46l2 -35l7 -26l16 -24l27 -11zM537 127v-3l7 -1l-1 4l6 -3h6l1 5
l-3 4l-8 -1v-4l-2 6l-6 -2l-5 -3l-2 1v1l-7 -3l3 -4h4zM513 99l3 -5h6l3 6l-3 5l-2 1h4l-2 3h-5l1 -3l-3 -1l3 -1zM215 369l2 -5h4l8 5l-4 6l-9 -2zM524 109l3 -5l7 -1l2 6l-4 5h-4zM223 379l4 -5l4 1l7 4l-3 4h-10zM472 109l5 -5h4l7 5l-7 4h-2zM595 289l2 -5l6 1l5 3l-4 6
l-5 -2zM502 87l5 -3h8l3 3l-6 4h-4zM602 298l5 -4h1l6 7h-2l2 3h-8zM514 79l3 -5l6 -1l3 6l-5 3h-2zM483 98l5 -4l4 1l5 3l-6 4h-3zM426 649l1 -5l7 1l1 5l-3 2l-6 2v-5zM256 378l1 -4h4l3 3l-1 6h-7v-5zM94 247l3 -3h6l2 4l-4 3l-2 1zM515 118l3 -4h6l3 2l-4 4h-7zM422 161
l4 -7l7 -1l3 1l-8 4l-2 5zM221 410l5 -6l8 1h3l-10 3l-1 6zM194 567l3 -3l6 1v6h-5zM265 319l2 -5l5 1l2 1l-5 7v1zM597 264l3 -1l3 1h1l-3 6l4 3l-8 -2v-7zM494 117l4 -3h6v2l-1 3l-7 1zM345 678l3 -4l4 1l2 1l-1 6l-5 -2zM287 678l1 -4l2 -1l5 4l-3 5l-4 -2zM194 357l4 -3
h2l4 4l-1 1l-5 2zM457 577l1 -3l2 -1l6 5l-6 3v1zM427 656l1 -2l4 1l3 3l-2 2l-5 2zM225 386l3 -2l5 1l1 3l-2 2h-4zM486 76l2 -2l5 1l2 3l-3 1l-4 2zM96 266l2 -2l5 1v3l1 3l-6 -2zM185 575l3 -1h2l4 2l-4 4v1zM178 344l5 -1l-1 5l-2 3l-2 1v-8zM80 144h3l4 4l-2 3l-2 1z
M206 385l2 -1l6 1l1 1l-3 2l-2 2zM580 253l3 1l5 5l-6 1zM197 375l1 -1l6 -1l-1 2l1 3l-4 1z" />
    <glyph glyph-name="quotesingle" unicode="'" horiz-adv-x="223" 
d="M97 543v29l-2 31l-2 32l5 34l14 23l15 -1l4 -24l-1 -34l-2 -39l-5 -51l-3 -37l-10 -13l-14 17zM102 617l3 -14v1l7 4l-6 7z" />
    <glyph glyph-name="parenleft" unicode="(" horiz-adv-x="336" 
d="M224 -130l-18 21l-20 27l-15 24l-17 23l-16 28l-12 23l-11 28l-9 29l-12 27l-5 29l-6 29l-6 33l-3 33v35l-1 45l2 34l3 33l4 27l7 31l5 29l11 28l11 26l10 27l14 31l31 49l14 25l18 24l15 25l26 17l31 12l5 -7l-14 -25l-19 -23l-20 -22l-14 -21l-17 -31l-19 -27l-10 -24
l-14 -24l-12 -31l-5 -27l-8 -29l-8 -31l-6 -30l-2 -30l-4 -38l-1 -46l3 -38l5 -30l8 -30l4 -27l7 -28l7 -29l13 -31l13 -24l20 -32l54 -88l25 -29l10 -22l-3 -10l-24 14zM86 314l4 -6l8 -1l3 4l-2 2l-1 5h-10zM135 524l4 -6h5l3 9l2 1l-8 1zM106 103l4 -5l5 1l5 2l-4 7
l-4 -1zM86 352l4 -4l7 1l-1 4v4l-8 -2zM103 164l6 -6l5 -1l-6 12zM99 411l1 -3l5 -1l4 4l-4 4h-4zM97 202l2 -4l4 1v11l-2 -1zM129 52l2 -4l5 1l3 3l-6 2zM87 211l4 -3l2 -1l5 3l-5 3zM117 90l4 -2l4 -1l-1 3v2l1 3l-2 -1zM105 108l4 3l-3 4h-4z" />
    <glyph glyph-name="parenright" unicode=")" horiz-adv-x="336" 
d="M112 692l18 -21l20 -27l15 -24l17 -23l16 -28l12 -23l11 -28l9 -29l12 -27l5 -29l6 -29l6 -33l3 -33v-35l1 -45l-2 -34l-3 -33l-4 -27l-7 -31l-5 -29l-11 -28l-11 -26l-10 -27l-14 -31l-31 -49l-14 -25l-18 -24l-15 -25l-26 -17l-31 -12l-5 7l14 25l19 23l20 22l14 21
l17 31l19 27l10 24l14 24l12 31l5 27l8 29l8 31l6 30l2 30l4 38l1 46l-3 38l-5 30l-8 30l-4 27l-7 28l-7 29l-13 31l-13 24l-20 32l-54 88l-25 29l-10 22l3 10l24 -14zM239 237l3 -7h10l1 1l-4 7l1 4l-6 -1zM219 434l5 -4l3 1l6 3l-7 3l-2 -1zM214 110l4 -1l4 4l-2 4l-6 -1
v-6zM224 133v-3l4 -1l4 3l-6 5l-1 -1z" />
    <glyph glyph-name="asterisk" unicode="*" horiz-adv-x="457" 
d="M197 437l2 33l-1 30l-11 21l-24 -4l-56 -19l-15 9l8 13l28 11l23 4l19 12l7 19l-13 23l-26 17l-19 21v20l17 -5l22 -18l19 -19l22 -12l19 14l9 40l6 31l15 9l11 -21l-7 -30l-3 -31l15 -14l23 -2l24 12l26 7l19 -10l-17 -13l-32 -15l-23 -12l-7 -20l11 -18l22 -21l18 -18
l6 -19l-20 2l-22 13l-19 20l-22 17l-19 -8l-8 -23l-4 -26l-8 -29l-15 -12v21zM208 588l1 -2l6 -1l2 6l-1 3zM217 518l3 -2l5 -1v5h1l-5 2zM311 476h4l-1 2l-5 4l2 2l-2 -1v-1l-2 -1z" />
    <glyph glyph-name="plus" unicode="+" horiz-adv-x="531" 
d="M252 194l-2 26l3 35l-12 29l-21 23l-42 12l-44 -1l-41 7l-16 6l17 11l38 4l49 -5l41 10l25 25l4 32l-2 38l8 52l6 27l9 -17l2 -36l5 -34l-2 -30l8 -35l24 -22l49 -8h47l33 -5l18 -12l-17 -8l-34 -2l-31 3l-34 -1l-32 -9l-24 -22l-9 -31l4 -68l-3 -33l-14 -16l-10 22v33z
" />
    <glyph glyph-name="comma" unicode="," horiz-adv-x="221" 
d="M90 -98l16 26l11 24l2 27l-12 14l-20 16l5 21l30 -1l19 -28l2 -40l-8 -32l-20 -24l-17 -18l-16 -1z" />
    <glyph glyph-name="hyphen" unicode="-" horiz-adv-x="520" 
d="M123 277l34 10l27 -2l29 2h31l30 -4h30l31 2l30 3l31 -9l14 -11l-20 -9l-43 -3l-45 1l-42 -3l-31 2l-29 -2l-44 -3l-31 8l-18 9zM353 274l2 -3h6l-2 3l2 3l-6 -2z" />
    <glyph glyph-name="period" unicode="." horiz-adv-x="226" 
d="M93 -2v44l41 -3v-40z" />
    <glyph glyph-name="slash" unicode="/" horiz-adv-x="516" 
d="M56 -116l15 39l18 44l11 25l12 30l16 30l8 26l10 25l13 31l15 27l11 26l10 28l11 28l12 27l11 31l18 28l10 29l13 27l10 26l11 29l12 28l11 25l15 28l11 31l14 26l11 28l9 30l10 26l16 24l14 29l12 29l11 29l17 15l11 -13l-2 -32l-16 -28l-15 -25l-11 -30l-9 -25l-14 -27
l-10 -26l-15 -35l-17 -46l-17 -37l-10 -23l-13 -29l-11 -27l-12 -28l-15 -32l-9 -24l-14 -30l-11 -27l-11 -26l-13 -30l-12 -27l-12 -29l-16 -28l-7 -29l-14 -32l-21 -41l-13 -35l-16 -38l-21 -44l-18 -29l-15 -13l-9 17zM200 188l2 -5l6 -1l1 9l4 3l-5 1h-4zM283 394l7 -1
l7 6l-9 7v-1zM300 436l3 -3h4l3 5l-3 3h-6zM301 418l2 -5h5l2 4l-1 4h-2l-5 -1zM392 654l1 -1l7 1v3l-3 6l-1 -2l-6 -4l5 1zM321 468l2 -5l3 -1l3 7l-6 3zM190 176l4 -3l2 -1l6 4l-5 2l-3 2zM343 516l1 -3l4 -1l2 6v2h-4zM264 336v-3l4 -1l2 3l-2 6l-2 -2zM305 453h4l4 4
l-5 2zM245 296l-1 -3h6l-3 2l1 4h-4z" />
    <glyph glyph-name="zero" unicode="0" horiz-adv-x="703" 
d="M275 8l-41 12l-23 17l-24 16l-24 22l-19 20l-10 27l-15 22l-19 55l-5 29l-5 32l-5 31l-3 39l-4 43l5 35l6 27l5 34l8 30l4 28l15 25l10 27l18 22l22 21l21 24l21 20l23 14l32 9l26 12l33 3l46 -2l34 -4l33 -5l27 -12l23 -21l25 -16l21 -17l15 -23l15 -25l13 -28l11 -31
l9 -24l10 -29l6 -26l5 -28l2 -37l-2 -47l-2 -41l-10 -25l-1 -32l-8 -26l-8 -32l-11 -23l-28 -56l-20 -19l-19 -21l-25 -16l-26 -14l-27 -12l-28 -10l-35 -7h-45zM411 32l25 11l27 14l25 19l14 20l18 25l22 26l10 27l13 30l3 26l7 30l6 31l-2 38l3 40l-4 37l-2 30l-3 29
l-9 31l-9 29l-16 30l-24 37l-27 32l-25 18l-26 14l-28 12l-37 5l-42 -2l-47 -7l-37 -18l-31 -25l-21 -22l-15 -25l-19 -21l-12 -28l-8 -27l-6 -28l-10 -29l-3 -33l-3 -35l2 -47l3 -33l2 -33l6 -28l4 -31l13 -28l14 -30l17 -26l15 -23l20 -20l23 -20l26 -13l30 -10l83 -9z
M159 583l4 -8l9 7l-2 -2l7 4l-2 5h-14zM521 100l3 -5h10l2 5l-3 7h-7zM121 172l3 -7l6 -1l6 8l-4 4l-8 2zM253 669l1 -4l9 1v9l-4 1l-7 -1zM531 110l4 -5h8l3 3l-7 7h-2zM102 321l3 -6h8l-2 11h-5zM563 160l2 -5h8l-2 2l5 4l-7 4l-3 1zM513 88l2 -3h4l6 3l-2 6l-6 -2z
M101 401l4 -6l5 -1v11l-7 -2zM573 206l6 -2l5 4l-4 5l-6 -2zM104 355l7 -1l-5 11l-4 2zM212 648l4 -3h2l4 2v5l-5 1zM582 256l3 -1l5 -1l2 7v4l-5 -2l-1 -6zM105 459l1 -4l3 1l6 1l-3 5l-5 1zM106 418v-3h6l-2 1l4 2l-2 3l-8 1zM433 679l3 -4h6l1 2l-5 4v1zM139 573l-3 -8
l3 1l7 4l-7 4v-1zM136 535h2l6 3l-8 4v-7zM556 138v-3h2l4 2l-4 5l-4 -1zM303 678v1l-5 3v1l-5 -5l1 -1zM139 574l1 1z" />
    <glyph glyph-name="one" unicode="1" horiz-adv-x="533" 
d="M86 24l86 6l34 1l27 2l25 32l2 37l4 38l3 38l1 25l-4 32l-1 26l4 64l-3 28v58l-1 31l5 31l-2 28l2 30l-3 29l-5 23l-21 7l-29 -6l-30 -5l-30 -2l-33 2l-20 9l9 10l32 8l30 5l32 6l24 11l26 21l17 22l14 14l14 -16l7 -28l-4 -29l1 -32v-31l3 -32l-4 -28v-31l3 -34l3 -28
l1 -32l-2 -29l-3 -29l-3 -40l-1 -45l4 -43v-29l1 -31v-32l4 -31l24 -20l28 -5l27 -1l34 -2l29 -2h30l17 -12l-18 -11h-90l-31 -2l-25 -1l-29 -3l-35 -1l-29 2l-32 1l-30 1l-25 3l-32 -1l-29 1l-19 11zM281 600l5 -5l2 -1l2 9l-1 11l-1 3v2h-1l1 -2v-1h-2l-5 -6l5 -3zM295 40
l2 -5l7 -1l5 6l-6 5h-8v-5zM274 557l3 -2l5 1l6 4l-4 5l-5 -1l-6 -3zM274 651l3 -6h8l3 5l-7 4l-4 1zM276 359l1 -4l6 1l5 3l-3 4l-8 -1zM282 480l4 -5h4v11l-4 -1zM222 597l4 3l-3 3l-7 2v-6l1 -4zM326 19l1 -4l4 -1l4 4l-2 6l-2 -1l-2 1zM287 58v-3l5 -1l3 2l-3 5l-1 2
l-3 -1zM275 40l3 -5l3 1l5 2l-3 3l-7 1zM274 88l4 -3h6l-1 4l-1 2l-6 -1zM285 640l2 -5l2 -1l3 4l-4 6v2zM237 617l1 -2l4 -1l2 5l-4 2l-4 1zM247 608l1 -3h2l7 4l-7 3zM226 607l2 -2h2l6 2l-6 4zM248 28v-3l4 1l2 1l-1 3l-7 1zM277 46l1 -1l4 1h3l-4 5l-3 -2zM287 622
l-1 -1l1 -2v3z" />
    <glyph glyph-name="two" unicode="2" horiz-adv-x="590" 
d="M87 38l53 44l25 16l19 22l26 20l21 20l22 18l25 21l23 17l29 26l28 31l30 27l22 23l18 28l11 28l13 25l8 31l4 33l4 46l-4 35l-12 27l-17 24l-15 25l-27 18l-22 15l-29 4l-34 7h-46l-31 -1l-29 -8l-27 -12l-24 -11l-25 -12l-26 -19h-18l7 26l17 22l28 13l30 12l32 6
l34 13l45 4l28 -2l47 -1l27 -13l29 -13l28 -17l22 -20l22 -24l10 -29l11 -29l6 -39l1 -46l-7 -34l-8 -31l-16 -36l-18 -40l-25 -29l-48 -51l-29 -31l-31 -23l-20 -21l-45 -36l-22 -20l-24 -16l-26 -19l-21 -21l-17 -15l13 -12l40 -6l44 3l44 -1l36 1l33 -3h31l34 2l48 -6
l27 -8l-26 -13l-44 -5h-40l-26 -1l-33 1l-30 2l-33 -3l-24 1l-33 -1l-28 4l-37 -1l-41 2l-25 13zM435 9h9l2 4l-5 5l-5 1l-3 -1l-3 -6zM352 8l3 4l-4 6h-3l-7 -6l6 -5zM282 9l3 2l-1 5h-10l-3 -6l4 -3zM382 7l4 5l-6 5l-3 -1l-4 -3l4 -6h5zM352 251l4 -4l4 1l4 2l-3 6h-3z
M472 470l4 -3l6 1v4l2 4l-10 -2l2 -2zM422 639l5 -2h6l1 2l-4 4l-5 1zM454 611l3 -4h2l5 2l-2 6l-7 -2zM425 634l1 -1l4 -5l4 -1l1 5l-3 2l-8 2zM302 678l2 3l-4 2l-1 1l-6 -2v-4h9zM146 651l1 -4v1l7 1l2 2l-5 4h-2zM473 540l4 -3l5 -1l1 5l-1 1l-3 1zM474 489l3 -2l4 1
l3 3l-2 2l-6 2l2 -3zM313 8v2l-1 5l-6 -2l1 -3v-1zM286 688l1 -1l3 -1l4 3l-1 1l-9 2z" />
    <glyph glyph-name="three" unicode="3" horiz-adv-x="601" 
d="M194 -4l-40 10l-26 9l-27 13l-15 19l11 7l29 -6l33 -10l88 -11l45 -1h37l57 20l27 16l34 31l29 35l4 34v46l-9 38l-12 20l-18 23l-22 19l-29 13l-25 8l-26 7l-41 5l-53 2l-24 10l25 13l48 2l43 8l29 13l23 15l25 13l18 28l16 25l7 40l-1 42l-10 36l-13 21l-20 21l-24 16
l-21 10l-26 12l-39 4h-61l-50 -10l-25 -6l-31 -11l-33 -17l-20 3l4 20l29 19l24 11l43 14l38 10l37 -1l43 -2h42l29 -7l31 -16l21 -15l26 -16l22 -25l15 -26l7 -37l-3 -47l-3 -41l-13 -24l-19 -26l-22 -22l-22 -17l-26 -19v-13l27 -14l40 -22l28 -27l16 -22l16 -26l6 -36
l-2 -44l-4 -34l-10 -28l-17 -25l-20 -22l-23 -14l-30 -11l-41 -16l-41 -14l-37 -3l-45 -3zM225 687l2 -7l11 2l-1 4v6l-10 1zM383 386l3 -6l2 -1l11 10l-4 4h-5l-6 -5zM304 355l4 -5h8v5l-1 2l-8 2zM286 3l1 1l-1 5h-6l-7 -5l3 -3zM183 684l5 -4h4l3 4l-2 5l-7 -4zM495 175
l4 -5h6v4l2 1l-3 3l-5 -2zM424 632l5 -2l4 1l5 2l-3 4h-4zM275 16l3 -6l12 6l-4 1l-9 -1h-2zM488 157l1 -7h6l2 3l-2 3zM469 490h6l2 3l-4 4l-4 -2v-5zM468 572l1 -2l4 1l5 2l-3 4l-4 -1zM487 105l1 -5l3 1l1 8l2 1h-6zM355 24l4 -4l6 -1l-4 8v-2l-5 -1h-1z" />
    <glyph glyph-name="four" unicode="4" horiz-adv-x="588" 
d="M411 56l1 34l1 30l-4 30l-25 22l-33 6l-63 -2h-28l-35 3l-32 1l-29 -1h-32l-28 -3l-30 7l-20 15l3 26l16 26l20 24l14 24l18 24l14 26l16 26l8 27l10 28l13 27l9 30l3 29l6 32l7 31l10 61l10 29l15 16l11 -17l-1 -29l-6 -29l-4 -28l-2 -30l-5 -27l-7 -31l-9 -31l-13 -30
l-5 -25l-15 -28l-11 -29l-21 -34l-23 -37l-19 -27l-11 -18l11 -22l24 -6l26 -3l40 1l40 5l40 -2l35 -1l33 2l29 6l21 24l9 31l1 27l-1 29l-3 28l4 31l4 33l15 16l12 -18l5 -31l-1 -25l-1 -32l-1 -31v-30l9 -31l21 -20l32 -16l17 -10l-14 -7l-35 -12l-21 -21l-9 -34l4 -27
l-2 -30l-2 -29l-16 -17l-12 15zM406 177l4 -5h6l6 7l-5 6l-6 -2zM447 219l3 -7l7 -1l5 5l-11 8zM437 195l4 -3l5 -1l3 4v6h-6zM418 157l3 -5h8l2 3l-5 4h-5zM440 187l1 -5h4l6 3l-4 6l-6 -2zM209 507l2 -5l8 -1l-2 5l1 3l-9 1v-3zM426 116l5 -4l6 -1l-2 2l2 5l-1 1h1l-1 1
v-1l-7 1zM228 624l4 -2l4 -1l5 5l-7 3zM423 303l4 -1l5 4l-5 4l-4 2v-9zM220 526l1 -4l5 1v1l5 1l-4 2l-2 4l-2 1zM158 364l4 -2l5 -1l3 5l-2 2h-4zM226 556l5 -4l3 -1v11l-3 -2zM228 615l4 -3l6 -1l2 5l-6 1v1zM459 186l3 -4h6l-1 4l1 3l-7 -2zM432 53v-1l4 -1l2 2l-1 5
l-7 -1zM458 176l4 -4h1l7 3l-3 2h-3zM441 175l1 -3h2l5 2l-3 4l-6 -1zM213 532h4l1 4l-3 6h-1zM419 63l3 -1h6l-2 3l-2 2v1zM240 662h1l6 -1l2 3l-2 3z" />
    <glyph glyph-name="five" unicode="5" horiz-adv-x="610" 
d="M220 -2h-26l-26 7l-27 8l-31 13l-9 14l14 9l32 -3l30 -11l32 -6l40 -6l48 3l36 6l28 4l28 9l27 16l26 16l23 20l14 26l15 28l1 38l2 44l-5 38l-11 25l-17 27l-25 20l-22 16l-47 16l-54 7l-43 3l-43 -3l-36 -14l-40 -24l-37 -3l-15 21l-4 31l-1 28l3 31v33l2 29l-4 32v30
l4 35l-3 27l10 30l18 25l28 7l27 3l33 -6h28l29 2l26 -1l31 3l32 -2l30 -3l56 4l30 -3l12 -13l-17 -13l-30 -1l-29 -2h-35l-68 1h-47l-28 3l-41 -4l-31 -11l-22 -21l-10 -28l4 -34l-3 -31v-27l3 -31l2 -30l-6 -32l9 -29l20 -12l25 9l29 9l30 11h38l42 4l41 -2l35 -9l52 -26
l39 -32l16 -24l14 -23l9 -32l8 -39v-42l-8 -36l-8 -28l-11 -23l-18 -26l-21 -19l-54 -31l-21 -12l-32 -6l-28 -7l-46 -3h-28zM499 131l4 -6l10 -1l2 4l-1 4l-4 5h-7zM119 359l4 -4h6l7 6l-3 5h-8zM160 681l3 -6l7 1l6 4l-5 5l-6 1zM473 89v-4h10l3 5l-7 6l-4 -1l-1 -7z
M129 380l4 -5l9 1l3 2l-13 7zM110 471l4 -6l6 -1l2 6l-4 5l-4 -1zM113 508l1 -3l5 1l4 2l-2 4l-6 2zM502 156l3 -1l6 -1l2 3l-2 5h-6v-4zM363 400l1 -5l4 -1l5 5l-11 4zM293 397l2 -2l5 -1l-1 4l1 5l-7 -2v-4zM442 67l3 -2h6l1 4l-1 1l-2 1zM123 399l1 -4l5 1l-4 7zM125 404
v-1l1 2z" />
    <glyph glyph-name="six" unicode="6" horiz-adv-x="649" 
d="M265 2l-40 16l-38 23l-20 19l-22 28l-18 29l-19 42l-7 36l-11 26l-7 25l2 29l-4 38l2 44v38l2 33l7 30l8 26l12 29l9 28l18 27l14 24l18 22l19 20l23 20l25 16l25 10l25 14l69 9l46 2l45 -4l43 -5l27 -12l17 -18l-36 -6l-33 5l-60 3l-48 1l-38 -3l-32 -7l-28 -10l-23 -17
l-22 -20l-19 -22l-20 -25l-16 -22l-12 -29l-11 -22l-6 -31l-8 -30l-5 -31l-3 -31l3 -46l4 -24l10 3l15 17l17 28l22 21l23 21l26 14l27 8l29 10l38 4l45 -2l37 -2l27 -5l24 -13l26 -14l24 -19l19 -18l19 -24l11 -26l7 -26l4 -41v-42l-4 -37l-9 -30l-13 -26l-21 -27l-19 -23
l-26 -14l-25 -18l-56 -18l-42 -9l-46 4zM403 29l27 11l25 15l25 16l21 26l14 27l12 29l5 38l3 46l-9 36l-9 32l-29 34l-39 32l-37 19l-42 5l-46 1l-36 -6l-28 -8l-25 -12l-24 -18l-20 -19l-19 -21l-12 -22l-13 -27l-6 -33l2 -51l12 -48l19 -35l24 -23l24 -18l28 -15l27 -12
l41 -5l45 -1zM163 579l3 -8l2 1l11 10l-1 3l-12 1zM94 336l4 -5h8l3 4l-5 6h-6zM533 102l4 2l-6 3h-4l-2 -3l3 -1v-2l-6 -4l4 -7l8 12h-1zM125 166l2 -5h6l2 1l-2 12h-5zM114 186l4 -5l4 1l5 2l-1 5l-10 1zM503 334l5 -3l7 1l4 4l-7 3l-2 1zM354 0l3 6l-2 4l-11 -3l2 -4z
M416 16l-1 6l-4 -1l-7 -1l4 -8zM106 246l2 -5l8 1l1 4l-3 4l-7 -2zM113 254l5 -3l5 1l4 2l-5 6l-3 -1zM104 453l5 -2l2 -1l5 5l-3 4h-5zM543 285l5 -4l6 -1l-1 2v9l-3 -2zM514 84l4 -3l7 6l-1 3h-7zM116 203l3 -2l6 -1l1 5l-3 3l-6 -1zM276 16l2 -5l7 -1l5 6l-2 -1l-14 2z
M105 264l4 -3l6 -1l-1 5v3l-7 -1zM126 145l3 -4h6l2 4l-9 3zM97 355l2 -4l6 -1v5l-4 3h-4v-3zM508 670l6 3l-1 3l-10 3l1 -2zM495 74l4 -3l4 -1l2 5l-2 1l-2 2zM385 14l4 -3l3 1l5 2l-5 4l-5 -3zM536 124l3 -3l4 1l3 4l-4 1h-3zM97 303l2 -2h6l-2 3l2 2l-6 2zM116 272l4 -1
l2 -1l4 3l-3 3h-4zM458 685l1 -4h6l-1 3l-2 3l-4 2v-4zM217 644l2 -3l5 -1l1 5l-4 1zM145 296l2 -4v-1h1l-1 1l6 9l-6 -2zM206 373l3 -2l4 -1v2l2 3l-4 1l-1 -2zM140 292l-1 -1l6 1l-4 4h-3l-2 -2zM544 190l-1 1l4 2l-2 4h-5l3 -6zM94 341l1 4l-1 4l-1 2zM221 647l-3 -2l3 1
v1z" />
    <glyph glyph-name="seven" unicode="7" horiz-adv-x="512" 
d="M156 58l4 31l1 29l9 25l4 31l8 30l8 27l10 27l9 27l24 56l14 26l12 29l12 26l15 29l14 24l13 24l16 25l18 25l18 19l14 29l21 21l8 28l-7 17l-25 5l-30 3l-32 -3h-38l-50 1l-38 1l-30 -1l-32 -1l-32 1l-29 2l-18 9l12 14l34 4l32 2l26 -4l55 1l54 4l41 1l30 -3l30 -4
l33 2h26l28 -4l17 -16l-7 -29l-19 -29l-16 -19l-18 -26l-18 -20l-16 -28l-13 -27l-17 -23l-19 -24l-14 -27l-9 -32l-17 -24l-11 -28l-13 -23l-11 -27l-9 -29l-10 -28l-6 -32l-7 -27l-8 -29l-9 -33v-28l-2 -26l-11 -28l-13 -21l-19 17zM244 330h8l2 4l-6 6h-6l-1 -4zM159 687
l4 -7l9 1l5 6l-12 -1zM222 685l1 -5h6l5 4l-2 4h-9zM220 284l4 -4l5 -1l3 6l-1 2l-7 2zM343 680l3 1l3 -2l5 6l-7 1l-4 1l1 -4zM314 684l1 -4h2l6 2l-3 5h-5zM331 513l4 -3l4 -1l4 5l-3 1h-6zM414 683l1 -3l4 1l4 2l-4 3l-4 2zM405 673l3 -1l1 -3l1 3l-1 4l-6 1z" />
    <glyph glyph-name="eight" unicode="8" horiz-adv-x="654" 
d="M268 -6l-30 7l-28 8l-26 14l-28 12l-24 14l-17 26l-15 23l-16 21l-2 36v45l4 32l12 29l11 25l25 16l19 23l28 15l21 14l24 12v15l-20 15l-27 17l-47 38l-11 24l-8 41v43l8 35l13 30l18 23l26 16l24 19l31 7l43 7l21 5l53 3l38 -9l30 -9l28 -10l29 -14l26 -17l19 -22
l12 -28l8 -40l1 -45l-8 -36l-16 -24l-20 -24l-23 -22l-27 -17l-20 -14v-20l21 -10l26 -14l21 -11l24 -19l18 -23l18 -22l10 -26l8 -38l-1 -41l-6 -36l-16 -28l-19 -26l-24 -18l-29 -17l-28 -14l-33 -9l-28 -4l-45 -4l-31 2zM380 26l28 5l30 10l26 12l23 18l20 22l12 23
l13 32l-3 46l-4 34l-13 23l-22 22l-22 18l-25 14l-29 15l-39 17l-48 7l-45 2l-36 -14l-28 -12l-29 -16l-27 -16l-24 -41l-18 -49l-5 -45l14 -32l14 -26l18 -22l23 -16l27 -11l29 -11l27 -9l35 -1l45 -1zM406 394l25 15l23 15l22 19l15 26l9 36v43l-5 37l-14 26l-23 19
l-19 21l-27 7l-38 9l-36 3l-53 -2l-53 -15l-27 -13l-25 -21l-17 -22l-12 -37v-47l8 -39l16 -21l27 -21l28 -17l42 -19l54 -13l43 2zM121 560l7 -7l8 1l5 7l-7 5l-6 1zM523 99l5 -6l7 -1l4 6l-5 6l-7 -1zM306 688l2 -5h6l7 7l-1 3l-13 -2zM544 129l5 -6l8 1v3l-1 6h-5z
M117 256l2 -3l8 -1l1 6l-3 3l-5 2zM266 366l3 -3l6 -1l2 4l-1 7l-5 -1zM113 93h3l1 5v7h-9zM536 108l3 -5h4l3 5l-2 5h-6zM134 567l5 -4l3 -1l5 10l-10 -1zM265 378l4 -5l6 1l5 2l-6 4l-4 2zM149 293h6l-2 3l6 1l-5 6l-7 -2zM417 18l2 -5h8l-2 3v6h-6zM91 144l4 -1l4 4l-4 3
l-5 1zM470 646v-3l8 2l-3 5h-7zM497 606l3 -3l3 -1l3 4l-1 3l-3 1zM289 377l1 -4h6l-2 3l2 4h-8zM149 626l1 -3h6l1 5l-2 1l-1 1zM357 354l3 -1h6l1 2l-4 2l-5 2zM249 367l1 -4h2l3 4l1 3h-8zM100 163l3 1l5 2l-4 3h-4v-6zM488 635l2 -2h2l1 2l-2 2l4 -1l2 2l-2 2l-5 -2z
M240 386v-3h2l3 4l1 3l-7 -1zM386 15l4 -2l2 1l4 1v4zM267 387l1 -4l9 -1l1 1l-9 4h-2zM537 195l3 -2h2l4 4l-3 1h-3zM457 655l4 -2l3 -1l3 2l-5 2l2 1h-2v-1h-1zM103 243h1l3 5l-5 2zM410 676v-3l6 -1l-2 5v-2l-7 2z" />
    <glyph glyph-name="nine" unicode="9" horiz-adv-x="650" 
d="M193 -2l-42 8l-27 12l-14 17l15 6l27 -5l28 -2l26 -8l33 -2l55 4l53 8l36 17l26 16l22 15l22 24l19 23l16 25l15 27l10 27l4 32l3 29l6 33l3 39l-2 39l-8 13l-14 -18l-19 -26l-23 -24l-27 -17l-21 -10l-30 -15l-32 -8l-43 -7l-31 2l-40 1l-28 10l-25 12l-25 16l-26 16
l-17 20l-21 27l-9 24l-9 31l-6 34v46l8 42l9 25l12 26l17 22l22 24l49 35l31 11l26 8l35 3l50 -4l39 -5l26 -7l24 -9l29 -18l27 -16l16 -24l13 -20l14 -29l17 -25l9 -27l9 -29l4 -31l2 -33l2 -30l2 -48l-1 -39l-1 -30l-7 -33l-4 -29l-12 -30l-8 -32l-17 -22l-15 -27l-17 -25
l-23 -20l-26 -23l-23 -14l-27 -12l-30 -9l-34 -6l-35 -6zM373 311l42 14l22 18l20 19l19 27l13 19l13 30l4 31l-3 51l-15 46l-19 35l-21 22l-20 15l-33 17l-26 11l-38 8l-47 3l-40 -8l-56 -27l-27 -16l-18 -24l-13 -22l-12 -32l-8 -39l3 -45l4 -40l15 -25l15 -27l17 -20
l24 -21l26 -15l29 -11l84 -4zM85 467l5 -4l5 1l7 4l-4 4l-7 2zM496 579l4 -6l7 1l3 1l-4 8l-6 -1zM527 237l3 -4h8v4l-2 5l-6 2zM276 4l3 3l-5 6l-6 -1l-3 -5l6 -4zM86 507l4 -4l8 1v4l-3 2l-4 2zM98 568l2 -5h8l1 3l-1 4l-6 1zM479 107l1 -4l4 1l6 4l-3 5l-7 -2zM327 16
l3 -3h4l3 4l1 6l-7 -2zM101 394l5 -1l5 5l-5 3l-4 1l-2 -2zM98 426l2 -3h4v1l4 7l-6 1zM240 287l1 -4l6 -1l1 3l-3 6h-4zM536 386l5 -3l4 -1l1 5l-2 2l-4 2zM138 628l3 -5h6v7h-4zM101 416v-3l6 1v6l-7 1zM109 596l2 -3l5 1l4 2l-5 5l-2 -2v-1zM294 4l3 2l-4 3l-3 1v-5
l-1 -2zM221 684h3l-4 -2l5 1l5 4z" />
    <glyph glyph-name="colon" unicode=":" horiz-adv-x="244" 
d="M101 389v41h43l-4 -43zM100 0v39l43 2l-1 -41h-42z" />
    <glyph glyph-name="semicolon" unicode=";" horiz-adv-x="288" 
d="M107 -121l19 25l20 21l12 26l2 42l-12 4l-29 3v40l49 -4l15 -24l-3 -56l-7 -27l-18 -21l-17 -19zM118 388l-3 43l41 -2v-39z" />
    <glyph glyph-name="less" unicode="&#x3c;" horiz-adv-x="629" 
d="M476 159l-59 19l-24 9l-29 15l-31 9l-42 18l-42 14l-27 10l-27 7l-28 10l-25 13l-31 16l-27 14l-13 21l12 18l28 14l29 10l26 12l26 15l26 13l31 7l30 11l27 11l28 11l27 11l29 8l31 10l30 14l24 10l27 7l19 -6l-12 -16l-25 -13l-60 -19l-29 -10l-25 -15l-26 -9l-30 -11
l-28 -11l-32 -11l-27 -11l-24 -12l-39 -8l-37 -18l-6 -19l22 -19l27 -8l30 -10l30 -12l57 -21l63 -25l39 -15l40 -9l28 -12l24 -9l29 -16l16 -15l-19 -9zM103 341l5 -4l6 1l1 3l-2 5l-7 -1z" />
    <glyph glyph-name="equal" unicode="=" horiz-adv-x="547" 
d="M126 417l30 6l31 -3l27 -2l28 4l78 4h34l28 -4l33 -6l14 -9l-14 -7h-28l-29 -3h-60l-28 1h-32l-47 -3h-37l-27 5l-18 7zM129 254l30 8h24l45 -3l42 3l29 1l35 -3l39 -3l35 2l25 -10l-19 -10l-55 -6l-28 4l-30 -4l-27 3l-30 1l-30 2l-30 -5h-25l-35 5l-13 5zM313 243l2 4
l-5 5l-6 -1l-3 -3l6 -5h6z" />
    <glyph glyph-name="greater" unicode="&#x3e;" horiz-adv-x="629" 
d="M114 170l26 16l28 8l31 13l71 26l24 6l46 18l29 15l28 9l27 11l28 13l31 8l20 9l-1 19l-20 15l-28 12l-29 10l-27 9l-30 8l-26 10l-27 13l-32 5l-26 12l-31 11l-25 11l-26 12l-32 10l-29 16l-11 16l19 5l42 -11l27 -13l44 -15l27 -10l28 -13l33 -9l27 -14l25 -10l29 -10
l28 -12l30 -5l23 -17l27 -9l32 -17l12 -22l-10 -24l-46 -16l-42 -13l-30 -13l-28 -10l-30 -14l-22 -8l-26 -10l-30 -10l-31 -12l-28 -9l-26 -16l-25 -8l-28 -10l-33 -10l-18 10zM515 349l5 -3l5 -1l5 3l-9 6zM510 310l1 -4l4 1l4 2l-2 3l-7 1v-3zM534 314l-3 -1l-5 -4l4 -1
l8 4zM161 489v-3l4 -1l2 5l-2 1h-6z" />
    <glyph glyph-name="question" unicode="?" horiz-adv-x="499" 
d="M214 209l-2 30l2 46l9 46l11 26l15 23l23 20l29 24l25 15l20 21l22 18l18 23l16 28v47l-3 41l-12 27l-22 25l-22 16l-28 14l-27 5l-42 1h-47l-28 -3l-24 -7l-31 -13l-25 -8l-31 -10l-9 18l37 32l43 13l33 6l34 9l41 -1l46 -3l30 -5l26 -12l29 -10l23 -18l20 -23l18 -35
l10 -58l-3 -46l-9 -28l-20 -25l-45 -45l-25 -14l-37 -30l-34 -35l-10 -25l-8 -46l-5 -46l5 -29l-12 -33l-17 1zM212 1l-1 38l41 2l-1 -39zM364 685l4 -4l4 -1l2 5v5l-8 -1zM226 274l2 -3l7 -1l1 6l-2 2h-7zM397 646l2 -5l3 1l4 1l-1 4l-6 2z" />
    <glyph glyph-name="at" unicode="@" horiz-adv-x="985" 
d="M401 -111l-64 17l-50 8l-33 15l-26 16l-24 14l-24 20l-21 24l-16 24l-16 25l-16 29l-12 26l-8 28l-10 26l-2 34l-4 34l2 47v36l7 30l4 31l11 29l10 25l8 28l12 27l19 25l19 20l18 23l19 27l21 19l24 17l27 13l27 12l26 11l31 15l30 6l30 11l30 4l26 -1l38 7l45 1l38 -5
l31 -6l31 -3l29 -10l27 -11l27 -8l30 -14l27 -20l24 -14l20 -19l22 -27l12 -26l14 -24l13 -33l9 -25l6 -31l4 -36v-47l-5 -35l-4 -27l-7 -29l-12 -30l-12 -24l-15 -27l-17 -19l-26 -22l-22 -13l-26 -12l-36 -5l-44 2l-36 14l-23 19l-17 19l-21 5l-22 -16l-35 -24l-54 -15
h-52l-36 7l-27 11l-45 31l-15 21l-11 30l-11 29l-2 37l-1 43l5 38l9 23l10 27l19 26l17 26l20 16l25 11l28 15l33 5l47 -1l36 -2l26 -15l26 -11l20 -22l21 -10l20 7l11 23l12 13l7 -10l-3 -29l-4 -29v-27l-8 -31l-5 -28l-5 -26l-6 -29l-4 -40l-1 -41l3 -34l21 -22l31 -8
l41 1l42 4l26 16l24 20l17 24l12 24l15 27l9 30l10 32l2 39l-1 42l-1 40l-11 26l-10 31l-11 28l-13 25l-17 28l-16 23l-27 18l-23 17l-30 9l-23 13l-31 11l-58 11l-32 7l-36 2l-103 -5l-48 -11l-55 -19l-46 -20l-33 -17l-26 -19l-23 -19l-18 -19l-26 -22l-17 -25l-14 -28
l-11 -26l-14 -29l-11 -31l-5 -29l-5 -32v-35l-5 -44l3 -41l9 -29l6 -30l7 -27l11 -27l16 -28l19 -24l19 -23l22 -19l26 -17l23 -14l30 -14l27 -8l39 -14l45 -11l88 1h42l27 2l31 13l58 16l35 3l16 -1l-15 -14l-33 -15l-30 -10l-32 -7l-32 1l-28 -7l-48 -2l-34 -2zM524 125
l23 19l27 19l20 23l12 24l11 41l14 45l2 51l-14 43l-23 38l-44 23l-44 13l-44 -3l-43 -5l-27 -16l-24 -19l-17 -26l-16 -27l-13 -29l-2 -37l-3 -47l7 -38l10 -30l18 -25l21 -19l31 -17l36 -6l47 -4zM617 173l5 -5h4l6 6l-2 3l-7 2zM303 228h6l3 7l-5 4l-7 -1zM129 461l3 -3
l5 1l3 5l-1 4l-8 -1zM609 191l3 -3h4l5 3l-5 6l-6 -1zM299 250l3 -2l6 1l1 1v5l-1 2l-4 -1l-6 -4zM229 587l-8 -9h10l3 7zM602 178h4l7 3l-5 5h-3zM882 480l2 -3l1 -9l4 1l1 4l-3 6zM269 611l4 -3l2 1l3 1l1 6l-1 -1l-8 -1zM629 261l4 -3l2 -1l2 4l2 2l-6 2zM496 473l14 1
l-4 4l-2 1zM341 412l2 -4l6 -1l-2 5v3h-3zM585 157l-4 -2v-1l3 -6l5 7zM609 -79l4 -3l8 2l-1 4l-7 -3h-4zM191 537l8 8v-2l2 4v2l-3 -1l-7 -9v-2zM874 189v4l2 -2l-2 3l1 1l-1 1v-2l-5 -3z" />
    <glyph glyph-name="A" unicode="A" horiz-adv-x="724" 
d="M55 29l11 29l16 28l8 30l12 28l12 30l12 24l10 26l12 31l16 27l10 29l11 28l13 29l12 25l8 27l14 29l27 56l11 28l12 31l10 29l10 24l14 26l17 31l23 21h21l21 -26l9 -25l12 -30l14 -29l14 -35l17 -40l16 -34l9 -28l13 -29l10 -28l14 -26l12 -28l14 -26l6 -31l10 -28
l16 -26l13 -29l12 -26l8 -25l10 -33l15 -23l6 -31l12 -28l6 -21l-11 -2l-26 22l-15 23l-11 28l-11 29l-14 26l-16 34l-33 20l-30 7h-28l-35 -4l-27 5l-31 1l-41 -1l-36 -3l-41 2l-68 -9l-31 -20l-18 -30l-9 -25l-16 -32l-26 -60l-24 -18l-10 7zM244 226l44 2l42 -2l31 -1h31
l29 -2l31 1l30 3l29 6l11 20l-3 29l-10 25l-11 28l-10 29l-15 29l-12 30l-10 26l-10 28l-12 26l-12 31l-9 23l-12 28l-12 32l-13 27l-12 13l-10 -13l-12 -28l-13 -29l-8 -26l-11 -32l-11 -26l-11 -27l-15 -28l-7 -27l-15 -30l-10 -29l-13 -33l-19 -40l-7 -32l14 -25z
M540 219l1 -6h6l2 2l4 -3l3 2l6 3l-6 4h-3l-1 -3l-1 6l-4 1l5 3l-7 2l-6 -2l1 -5v-4zM532 252l7 1l6 7l-4 6h-8l-5 -2zM451 214h-2l-1 -4v-7l11 3l4 5l-4 2zM181 247l1 -4l7 -1v10l-7 2zM591 167l1 -4l4 1l1 2l4 4l-3 3h-6zM158 246l5 -3h6v3l-2 5h-5zM551 248l1 -5l5 -1
l3 5v2l-3 2h-4zM369 666l3 -3l6 1l1 3l-3 4h-6zM290 548l3 -5l4 -1l5 5l-4 2l-3 2zM218 377l5 -4l4 1l5 3l-6 4l-1 -1zM350 675l3 -2l6 -1l1 4l-5 4h-3zM568 218l4 -5h6l-3 7l-5 1zM529 227l4 -4l6 -1v5l-4 2h-4zM309 615l3 -2l6 1l2 5l-3 2zM299 576l4 -3l4 1l3 3l-1 2h-8z
M244 454l5 -1l5 5l-2 5zM512 355l1 -2h2l5 2l-3 5l-2 -1zM542 237l1 -4l6 1l-2 2l2 3l-7 -1v-1zM164 255l-1 -2l5 -1l-2 4l3 3h-7zM290 564l3 -1l6 1l-2 1l-1 3zM316 622l1 -1l1 1h-2z" />
    <glyph glyph-name="B" unicode="B" horiz-adv-x="736" 
d="M146 37l1 34l1 29l2 28l-4 28v32l3 39l1 46l-2 36l2 31v61l-2 30l-4 28l3 27v32l-1 34l3 25l-2 28l-11 28l-21 24l-35 14l-19 14l28 12l43 4l32 -4l32 3l29 -1l32 1l34 1l47 1l70 -4l51 -1l35 -6l26 -9l29 -16l21 -16l18 -24l14 -24l12 -24l4 -35l4 -49l-6 -35l-15 -28
l-20 -30l-26 -15l-15 -20l3 -15l22 -18l24 -12l17 -25l22 -29l9 -27l5 -37l6 -43l-8 -36l-13 -31l-14 -22l-17 -24l-22 -19l-30 -12l-24 -10l-40 -7l-42 -4l-60 2l-65 1l-34 -1l-31 -1l-33 2l-34 3l-22 10zM259 30l47 -4l26 4l33 -2l53 -1l61 5l33 8l26 12l26 19l21 24
l18 27l4 37l-5 42l-4 40l-11 24l-17 22l-20 15l-25 17l-27 11l-32 8l-55 -1l-69 1l-41 2h-27l-31 1l-26 -14l-23 -21l-8 -28v-32l-4 -30l3 -33l-1 -30l-1 -32v-28l11 -31l26 -24zM270 366l45 -1l49 4h47l47 8l38 1l24 15l25 19l18 19l10 29l6 36l1 46l-4 33l-16 26l-18 24
l-24 20l-26 14l-36 7l-48 1l-35 -1l-31 3l-31 -1h-34l-29 -1l-33 -7l-18 -25l-12 -27l-1 -29l3 -33v-25l-1 -30v-32l2 -32l8 -29l27 -22zM122 679l5 -4l10 -1l3 7l-3 5l-11 -1zM174 652l3 -7l10 -1l2 8l-2 4l-9 -1zM175 670l2 -5h10l1 5l-2 6h-8zM172 401l5 -6l8 -1l1 2
l-1 10l-7 -1zM616 179l2 -4l8 -1l3 7l-4 3l-1 2h-3v1l-2 -2h-1zM163 631l5 -6l5 -1l3 6l-3 4l2 2l-4 1l-2 2l2 -4l-1 -1l-4 2zM156 555h2l8 1l2 4l-2 4h-10l2 -2zM175 381l3 -6l6 1l5 3l-7 6l-4 -2zM615 99l-1 6l-6 -1l-3 -3l5 -5l2 1l3 1v-2l3 1h2v6zM166 458l2 -3h4l4 2
l-2 4l2 3l-8 1zM482 680l5 -5l7 -1l3 4l-3 2l-11 2zM198 335l6 1l1 3l1 4l-10 2zM605 270l3 -5h4l5 2l-6 8l-2 -2zM627 170l1 -5l7 -1l1 3v2l-2 4h-6zM588 478v-3l8 -1l1 4l-5 6l-6 -1l3 -1zM186 328l2 -3h8l1 5l-3 2l-4 1zM253 19l5 -4h8l3 5h-15zM166 347l3 -2h2l5 2l-1 5
l-8 1zM159 406l5 -1l5 4l-7 5l-3 1v-9zM618 158v-3h8l-2 4l2 4l-9 1l2 -4zM165 487l4 -2h2l4 2l-3 6h-5zM586 80l3 -5l4 -1l2 4v4h-8zM166 238l3 -3h2l5 1l-2 5l-1 2h-3zM547 647l2 -2l6 1l2 3l-2 -1l-6 4h-2v-5zM157 425h2l6 1l2 2l-6 3h-4l2 -3zM206 690l1 -5h6l3 4z
M437 19l2 -4l3 -1l5 4l-3 2zM515 348l4 -3l4 1v2l2 3h-4zM166 307l3 -2l5 1h2l-5 5zM168 687v-2l6 -1l2 5zM170 426l-1 -1l6 -1l-1 2l-3 4l-3 1zM618 185l1 1zM622 189l-1 -2l1 1v1z" />
    <glyph glyph-name="C" unicode="C" horiz-adv-x="737" 
d="M390 -4l-30 5l-31 5l-29 10l-28 11l-29 12l-21 20l-27 14l-32 33l-28 35l-18 27l-11 21l-11 32l-9 28l-4 33l-1 37l-5 49l6 38l5 27l6 29l6 26l12 29l16 27l15 28l18 19l24 22l23 15l21 19l22 14l31 13l28 11l25 8l27 5l88 4l40 -4l29 -4l28 -7l41 -12l40 -14l26 -18
l14 -24l-16 -5l-28 7l-30 12l-26 12l-27 10l-32 3l-27 7l-37 2l-46 -1l-38 -2l-28 -3l-28 -10l-25 -15l-26 -12l-23 -21l-22 -21l-21 -20l-15 -25l-20 -24l-12 -25l-4 -25l-12 -31l-4 -29v-35l-1 -44l-1 -35l7 -34l9 -27l13 -30l9 -22l20 -23l18 -27l19 -20l19 -19l22 -13
l25 -17l43 -15l52 -10l49 -6h53l40 2l34 9l29 5l28 9l31 8l20 -8l-13 -18l-26 -16l-31 -6l-29 -6l-25 -7l-25 -3l-38 -1l-40 3zM499 678l3 -4h10l1 4l-3 6h-10zM128 188l5 -4l7 -1l1 3l-1 7h-7zM161 576v-2l12 1l2 5l-6 6l-3 -2l2 -1zM589 28l4 -4h4l6 4l-6 4l-6 -1zM92 338
l1 -4l8 1l2 2l-3 5l-5 1zM590 656l4 -2h6l1 4l-3 3h-5zM100 427l3 -3l4 1l4 4l-2 4l-6 -2zM420 686l4 -2l6 -1l1 3l-1 6l-5 -2zM103 408v-4l7 1l-2 1l5 2l-6 5l-5 -2zM231 637l2 -3l6 -1l3 4l-5 6l-3 -5zM103 455l1 -1l4 -1l4 5l-4 2h-6zM103 244l5 -1l1 4l-2 5l-4 1v-9z
M449 687l5 -3l2 1l4 4l-1 3l-3 -1zM92 396l2 -2l4 1l4 2l-5 5l-1 -1zM273 658l1 -4h2l7 4l-7 2l1 1h-1v-1l-2 -1zM94 356v-2l5 1l3 3l-6 2h-4zM221 616l3 -2l1 -1l5 3l-2 1l-2 3l-2 1zM94 297v-3h2l6 3l-5 5l-1 -2zM384 14l5 1l3 2l-8 4v-7zM104 264l6 1l2 2l-6 2l-2 2v-7z
M181 596l3 -2h6l-3 2l1 4l-6 -1l3 -2zM114 497v-3h6l1 2l-4 2l-5 1zM121 476l3 -2l5 1l-2 2l3 2l-5 -1z" />
    <glyph glyph-name="D" unicode="D" horiz-adv-x="806" 
d="M151 38l-3 29v32l3 29l1 29l-5 31l-1 27l-2 36v29l3 26l2 38v38l1 35l-5 37l3 33v31l3 29l-4 33v25l-8 33l-25 25l-36 11l-18 12l18 8l30 5h93l29 -2l32 3l91 -3l42 2l46 -1l56 -14l53 -20l40 -22l29 -24l22 -19l17 -25l20 -23l11 -31l14 -27l9 -29l5 -26l6 -27l3 -38
l2 -48l-2 -34l-7 -32l-10 -30l-5 -27l-14 -26l-10 -27l-19 -25l-18 -22l-22 -24l-30 -24l-42 -19l-35 -17l-34 -12l-40 -5l-40 1l-52 -3l-44 -1l-30 2l-31 -2l-29 -3l-28 3l-28 11zM241 31l29 -4l27 1l26 1l30 1l39 -2l39 3l35 7l27 4l42 18l39 29l35 31l24 25l17 25l12 28
l8 32l8 27l5 30l3 36l-4 47l-2 43l-6 30l-4 30l-12 28l-17 29l-17 30l-19 22l-31 25l-40 25l-36 17l-26 11l-37 5l-44 4l-42 -2l-36 3l-30 -2l-35 -3l-32 -4l-22 -20l-9 -33v-31l1 -34l-1 -30v-26l3 -30l-4 -31v-31l3 -31l-1 -28l4 -32l-5 -35l4 -28l-1 -32l-3 -29l4 -29
l-4 -31l2 -32l7 -29l19 -19zM690 260l6 -5h6l7 7l-7 4l-6 1zM673 491l3 -6l7 -1l7 7l-8 5h-8zM655 149l1 -4h10l-1 5l-1 7h-2l-1 -1l3 5l-8 -1l-1 -3h4l-1 -1zM701 331l6 -6l7 -1l5 7l-6 5l-5 -2zM641 560l6 -5l7 -1l5 6l-6 2v4l-6 -2zM174 671l2 -6h6l4 6l-4 7l-4 -2z
M548 634l5 1l5 4l-3 6l-8 -1l-2 -5v-1zM125 680l1 -5l6 1l5 5l-4 6l-7 -2zM464 681l3 -6h8l1 5l-11 3zM617 99v-4h3l2 2l5 3l-3 4l-9 -1zM164 368l4 -3h2l6 2l-2 4l-6 1zM687 459l1 -4l4 -1l4 4l-6 4h-4zM168 349v-4l2 -1l5 5l-1 4l-4 -1zM165 427l3 -2l5 -1l2 3l-1 3l-7 -1
zM161 395h2l4 5l-4 4l-3 -2zM574 78l4 -3h6l2 2l-6 3zM448 15l4 -1l2 3l-3 5h-3v-7zM697 297l1 -2l5 1l3 2l-2 2l-5 1zM166 689l1 -4l7 -1v5h-8zM393 18l4 -3l5 1l5 3zM692 386v-1l5 4l-3 3l-4 -1zM466 26l2 -1l5 1l1 4l-8 -3h1z" />
    <glyph glyph-name="E" unicode="E" horiz-adv-x="686" 
d="M146 38l1 32l-2 27l3 32l-1 32v56l5 31v28l-1 30l-4 32l1 31l-1 31l3 31l-2 26l-2 31l5 29l-2 27l-2 30l2 33l-10 31l-26 24l-37 10l-16 12l18 12h30l88 5l46 -1l45 -2h30l30 -2h31l31 2h61l60 1l28 -2l34 -5l13 -9l-16 -8l-29 -4h-37l-36 -2l-48 -3l-36 -1l-34 -1l-27 3
l-51 2l-44 -1l-31 -5l-20 -25l-10 -29l-2 -34l1 -32l4 -29l-1 -37l-1 -28l-3 -29l6 -35l30 -22l47 -11l81 -1l39 1l41 2l43 -1l50 -1l23 -14l-14 -10l-31 -4h-43l-47 -2l-46 2l-46 -1l-37 1l-34 2l-28 -6l-23 -26l-10 -31v-27l1 -30v-28l-1 -30l3 -31l-4 -28l10 -30l20 -24
l39 -6l47 1l39 -1l27 1l29 2l95 -2l26 -2l28 2l30 2l34 -8l19 -10l-20 -7l-31 -10l-62 6l-35 -6l-49 -1l-53 1h-27l-28 -1l-46 1l-33 -3l-26 3l-34 2l-24 8zM174 670l2 -6l8 1l6 5l-5 5l-7 1zM171 650l5 -6l8 1l5 5l-6 4h-5zM155 404h8l5 4l-7 6l-5 -1zM484 339l3 -5l5 1
l6 4l-5 4l-8 -1zM200 689l6 -5l7 1l5 4l-3 2l-4 -1l-7 1zM195 337l2 -3h4l4 3l-3 7h-5zM162 688l5 -4h8l3 3l-2 2h-13zM185 329l2 -5l6 -1v5l2 3l-10 1v-3zM175 378l2 -4h8l1 1l-7 4l1 5h-5v-6zM397 18v-4l8 1v4l-4 4h-2zM165 486l3 -2l3 1l5 2l-3 3l-3 1zM157 386l1 -2
l4 -1l4 4l-4 1l-5 2l-2 -2zM167 216l1 -2l6 -1l-1 3l1 4l-4 1zM155 494h9l-2 4l2 3l-4 -1zM167 346l1 -2l2 1l2 2v5h-5v-6zM368 16v-2l5 1v3l1 3l-8 -2zM485 687l2 -3l6 1l5 2h-13z" />
    <glyph glyph-name="F" unicode="F" horiz-adv-x="658" 
d="M150 32l-4 31l4 35l2 27l-1 28l-4 30l2 31l-3 27l2 33l-1 41v47l-4 37l3 28l-1 28l-2 33l4 31l1 26l2 33l-4 26l-10 33l-24 21l-38 15l-16 11l19 11l29 6l29 -2l26 1l32 -3l32 4l30 -2h32l25 2l36 -4l30 2l29 1l45 -3h30l29 4l45 -3l33 -5l17 -9l-18 -12l-32 -3l-31 -2
l-28 -2l-41 2h-141l-38 -1l-30 3l-30 -12l-21 -21l-8 -25l-5 -32v-28l2 -28v-29l1 -26l-2 -30l2 -34l4 -24l25 -21l34 -9l33 -1h33l29 -1l28 3h28l33 -4l39 3l45 -4l25 -15l-18 -13l-33 -1l-26 2l-34 2h-26l-35 -1h-32l-32 -3l-27 -1l-31 6l-29 -12l-23 -23l-7 -25l1 -31
l-2 -41l-1 -47l-2 -28l-1 -31l2 -30l-7 -28l-13 -19l-11 1zM170 682l4 -5l9 1l2 10l-11 1zM173 663l1 -6h6l7 6l-5 6l-6 -2zM182 340l3 -3h4l6 4l-3 5h-9zM163 641l2 -4l6 1l2 3l-4 6l2 -1l-1 3v2h-2v-3l-5 -2v-5zM154 407h1l4 -1l7 5l-3 4l-8 1v-3zM190 350l5 -3l6 1l3 4
l-1 3h-8zM156 427l-1 -10l6 -1l3 4l-4 7h-4zM455 682v-5l8 1l2 2l-2 5l-6 1zM181 311l4 -4l6 -1v6l2 3h-6zM305 677l7 1l2 2l-2 4h-7v-7zM154 497h9l-2 4l-2 3l-4 2zM163 359l3 -2l5 -1v5l-1 4h-2zM423 682l3 -5l3 1l6 3l-4 2l-3 1zM164 250l2 -3l4 -1l3 6l-2 1l-3 1z
M153 506l3 1h2l4 2l-2 6l-2 -1zM165 460l1 -3h6l1 2l-5 5zM163 388l3 -1h6l-3 1l3 3l-8 1zM465 340l-1 -3h6l5 2zM552 679l-1 1l1 3l-4 -1l-1 -3l-4 -1z" />
    <glyph glyph-name="G" unicode="G" horiz-adv-x="801" 
d="M353 5l-30 5l-25 12l-55 22l-27 19l-19 20l-21 16l-25 27l-19 23l-14 28l-12 27l-12 28l-6 32l-9 27l-2 37l2 44l6 39l3 31l4 33l9 26l14 30l19 24l14 24l19 19l19 22l23 16l29 18l30 15l27 11l43 13l83 9l42 -2l38 1l30 -1l35 -7l28 -8l43 -17l42 -21l9 -19l-17 -10
l-28 7l-28 16l-27 12l-28 5l-61 15l-36 -1l-40 2l-74 -6l-43 -16l-43 -17l-22 -20l-25 -17l-19 -21l-22 -24l-17 -24l-13 -30l-11 -26l-6 -31l-7 -28l-1 -35v-83l6 -31l5 -26l11 -26l17 -27l13 -24l13 -27l23 -18l20 -20l25 -21l26 -14l28 -16l27 -4l26 -9l28 -4l38 -3l86 6
h27l30 5l27 9l27 7l32 22l18 33l7 44l1 43l-4 38l-6 35l-22 18l-29 11l-32 -4h-30l-34 5l-19 9l18 10l30 4l30 -1l34 1l29 -1l33 -3l25 -22l8 -35v-29l-2 -25l1 -27l-1 -36v-47l-11 -34l-21 -22l-27 -13l-32 -8l-29 -9l-25 -8l-32 -2l-27 -5l-36 -2l-47 4l-28 -2zM99 357
l4 -4h9l-3 10l-8 1zM142 167l1 -4l10 1l-1 3l-3 7l-7 1v-8zM674 83h4l4 5l-1 5h-7v-10zM103 246l1 -3l8 1l-1 2l1 6l-10 -2zM99 319l5 -6h4v10l-5 -1zM104 456l1 -3h6l2 2l-3 6h-7zM102 399l2 -6l8 1l-4 6v2l-4 1zM672 286l2 -3l8 1l-2 3l2 4h-6zM661 307l4 -4l4 -1l5 4
l-2 2h-11v-1zM111 256l3 -3h2l1 10h-5zM141 546l4 -3h6v4l-4 2h-4zM93 305l2 -2h6l2 3l-4 4h-2zM454 17l1 -4l4 -1l3 3v3l-9 1zM91 366l4 -3l5 1l3 2l-2 2l-8 -1zM104 265l1 -2l2 -1l6 4l-6 3zM116 208h-1l3 -6l3 1l2 4l-4 1l-6 2zM606 35l-1 -2h6l1 4h-3l-2 2l-2 -1z
M206 96l-1 -3l5 -1l2 4l-2 1l-7 1zM88 314l1 -1l4 4l-6 1l-1 2zM691 292l-7 4v-3zM684 297l-2 1l2 -2v1z" />
    <glyph glyph-name="H" unicode="H" horiz-adv-x="816" 
d="M147 34l-1 32l-1 27l3 31l2 30l-3 28l2 31v33l-1 30v61l-2 31l-2 28l3 28l2 31l-1 34l1 27l-3 29l2 31l-1 32l-7 29l-29 24l-33 11l-18 14l14 8l25 5l31 -1l26 -2l18 -7l11 -24l-1 -34l-2 -28v-33l1 -27l5 -28l-3 -33l2 -33l-3 -29l12 -31l19 -17l28 -12l32 3l33 -3l40 1
h69l37 -2l39 3l30 1l29 -2l33 1l28 9l27 21l3 30l3 29l-3 33l1 30l-1 28v32l-1 31l-2 30l6 34l19 21l13 3l10 -25l-3 -35l1 -29l-4 -32l-1 -35l5 -47l-2 -40l-4 -29l-2 -27l3 -31l4 -44l-2 -34v-72l-1 -28l2 -33l-1 -29l-5 -32l3 -33l-4 -31l-17 -18l-10 26l-6 46l1 37
l-1 29l-1 31v31l3 30l1 31l-13 31l-21 23l-30 6l-29 -2l-42 3l-46 2l-37 -3h-28l-35 -1l-27 -2l-28 1l-38 2l-51 -9l-31 -24l-8 -25l1 -30v-34l2 -28l-2 -30v-27l2 -34l2 -29l-5 -34l-15 -18l-16 2zM636 323l1 -5l7 -1l3 4l3 -3h4l1 4l-4 2l-5 1l-1 -3l-4 6h-4zM632 372
l5 -4l4 1l6 2l1 -3h6l-2 2l2 3l-7 1v-1l-4 3l-6 2zM652 131l5 -3l6 1l5 3l-3 5l-8 1l-5 -4v-3zM635 343l2 -5l8 1l-1 1l4 -2l5 -1v6l-1 3l-2 -2l-7 -3v1v5l-7 -2zM214 354l2 -6h10l1 7h-2l-7 4v1zM654 194l3 -6l8 1l3 3l-4 7l-6 -2zM653 303l4 -5h8v8l-8 1zM165 473l2 -5h8
l1 4l1 1l-4 5l-5 -2zM194 353l3 -5h8l1 5l-5 4l-2 1zM645 354l2 -6l6 -1l4 5l-6 5l-2 1zM155 411l2 -3l4 -1l7 6l-7 4l-4 -2zM157 419v-1h8v5l-4 5h-3l-2 -4zM622 362l5 -4l5 -1l3 9l-8 -1zM183 332l5 -4h2l7 4l-5 4l-6 -1zM235 338h-8l-4 -6v-1l13 2zM176 394l1 -6l7 1
l-1 2v7h-6zM654 450l3 -2l4 1l3 3l-1 4l-6 2l-2 -4l2 -4h-3zM187 342v-4l7 -1l3 4l-4 4h-4zM665 281l2 -3l6 -1l1 8l-5 1zM667 312v-4l5 -1l2 3v3l-3 3l-6 -1zM163 533l5 -5l2 -1l4 5l1 1l-4 1l-1 1zM655 230l3 -2l6 1l-1 3l1 2l-4 1l-5 -2v-3zM168 360v-2l4 -1l2 5l-3 4h-5
zM658 381v-3l6 -1l2 4l-2 2l-7 1zM167 502l1 -4h6v4l-2 2l-4 2zM634 361l4 -3l3 1l4 1l-3 4l-6 -1zM615 340l3 -2l4 1l3 1l-1 4l-7 -2zM166 321l2 -3h6l-1 1l1 4h-8v-2zM167 399l1 -1l5 -1l-1 2l2 4h-8zM654 279l4 5l-7 7zM283 351l3 -3h6l5 3h-14zM156 380l2 -2l5 1l-1 2
l2 1l-8 1v-3z" />
    <glyph glyph-name="I" unicode="I" horiz-adv-x="319" 
d="M150 36l-1 28v28l-1 30l3 30v41l-3 38l-1 34v40l-1 28l3 28l-2 68l-2 25v30l2 31l-1 29l2 30l-2 34l-10 27l-22 22l-37 15l-16 12l14 10l26 7l29 3l23 -7l20 -9l12 -26l4 -28l-3 -29l1 -32l2 -33l-3 -29l-2 -29v-31l-1 -31l5 -31l-1 -31l-3 -26l1 -29v-61l-3 -33v-30
l1 -31l2 -31l2 -28v-28l-2 -32l-14 -23h-11zM158 407v-1l8 -1l1 4l-1 5l-7 -1h-4zM158 496l6 -1l4 5l-5 3l-5 2v-9zM165 471l3 -5l5 1l2 7h-8zM155 438l4 -2l4 -1l1 5l-1 1l-5 2zM168 250l1 -4h2l5 3l-2 1l-4 4zM167 397l2 -1l4 1h3l-5 4l-4 1v-5zM160 377l-1 -1l5 -1l-1 5
l-4 2l-1 -1z" />
    <glyph glyph-name="J" unicode="J" horiz-adv-x="508" 
d="M118 -1l-26 8l-25 8l-14 20l14 9l32 -5l47 -9h48l41 1l23 9l28 15l21 23l15 28l14 27l8 40l1 41l-3 41l2 27l2 30l-2 30l3 33l-5 27v26l4 34l-1 28l3 33l-3 41l-2 48l-3 27l-21 23l-31 8h-62l-31 2l-32 4l-14 10l16 12l29 -1l31 3l30 1l29 -1l32 3l32 -2l26 -13l11 -38
l3 -46l-7 -36l3 -34l3 -31l-5 -37l2 -44l-1 -43l1 -26l1 -31l-2 -32l2 -31v-40l-1 -43l-7 -39l-8 -30l-14 -25l-18 -22l-24 -21l-20 -18l-29 -12l-28 -9l-36 -4l-43 -1zM275 38l5 -3h8l2 4l-2 6zM357 621l3 -6l6 -1l2 7l-4 3h-6zM346 110l4 -5l8 1l-1 3l-1 5h-6zM359 639
l2 -4h6l2 3l-4 5l-6 -1v-3zM366 190l4 -5h6l-2 10l-3 -2zM369 587l2 -2l5 -1l1 7v1l-8 1v-6zM354 625h2l5 5l-3 5l-5 -1zM350 668l1 -3l4 -1l5 4l-3 4l-5 -1zM308 67l2 -2h4l4 6l-4 1zM357 597l4 -2l3 -1l3 5l-4 1l-2 1zM321 677v-2h6v5l-8 1zM370 629l1 -4l4 -1l-1 4h2l1 3
l-6 1zM350 146l1 -1h6l1 2l-1 3h-6zM357 128l4 -3l1 -1l5 7l-6 -1z" />
    <glyph glyph-name="K" unicode="K" horiz-adv-x="738" 
d="M575 6l-30 5l-24 16l-24 17l-25 22l-15 26l-35 47l-10 27l-15 24l-7 28l-10 27l-15 28l-25 19l-33 5l-34 -3l-31 -7l-27 -4l-22 -19l-9 -32l3 -27l-1 -33l-3 -26l1 -32l1 -30l1 -25l-4 -34l-14 -22l-16 4l-6 28l3 29l-2 45l1 44l-4 31v32l4 30l-2 31l1 38l2 43l-3 37
l2 27l-4 32l3 30l1 29l-2 30l5 30l-2 33l-7 34l-30 19l-37 12l-17 11l14 18h26l30 1l29 -1l18 -14l12 -26l1 -36l-4 -46l1 -41l-2 -31l2 -29l2 -31v-33l3 -29l1 -32l25 -23l27 -8l31 2l27 3l31 6l22 3l29 10l28 15l25 14l27 15l26 16l18 16l15 25l18 21l14 27l11 28l15 29
l9 27l5 30l3 31l3 30l15 21l15 2l2 -58l-4 -28l-6 -26l-10 -34l-10 -26l-7 -26l-15 -29l-17 -22l-17 -23l-20 -20l-24 -20l-20 -21l-27 -18l-23 -20l-17 -30v-28l13 -30l10 -28l10 -33l17 -26l13 -26l40 -48l25 -16l26 -14l40 -6l30 -1l42 -6l14 -11l-10 -11l-34 -8l-40 3z
M161 452l5 -3h2l4 1v-2l7 1l-1 12l-2 1l-7 -7l-2 2zM123 684l1 -5l9 1v3l-2 8h-7zM181 302l4 -3l8 1v4l-1 2l-9 1zM401 222l4 -3l6 -1l2 4l-2 4l-4 1zM183 332l2 -3h8l2 4l-3 3h-6zM501 59l2 3l-2 4l-4 1l-3 -3l-2 -5h9zM603 25l2 -6h8l-1 5l-2 1l-1 2h-4zM183 324l3 -5
l3 -1l6 5l-7 3v1zM464 114l1 -5h4l4 3l-3 1l-2 6l-5 -2zM158 410l3 -1l5 4l-7 5l-3 -1zM395 241l1 -2l4 1l3 1l-3 6l-2 -1zM157 430l3 -1l2 2v4h-8zM166 219h6v6l-6 -1v-5zM167 311l-1 -2h6l-3 2l2 4l-7 -1zM167 381l-1 -2l2 -1l2 4l2 2l-8 1zM422 171l-1 -1l3 -9l2 5l-4 4
v1zM475 103l1 -4h3l-3 8zM481 100l-2 -1z" />
    <glyph glyph-name="L" unicode="L" horiz-adv-x="608" 
d="M149 32l-1 33l2 33v26l-5 28l2 34l2 30l-4 28l2 30l-1 33l1 27l3 29l-1 32l-3 28l-1 33l1 27l2 31l-2 31l-2 33l1 29l-5 26l-27 30l-35 9l-20 11l14 18l36 1l40 -2l29 -14l8 -22l-2 -31l3 -32l-1 -27v-31l1 -29l-3 -32l2 -31l1 -26v-35l2 -28v-61l-4 -39l-1 -44l5 -35
v-33l-3 -34l-2 -29l11 -27l22 -25l28 -8h29l33 3l58 3l32 1l28 -3l34 2l27 -5l30 2l32 -4l16 -13l-16 -9l-31 -7l-33 -1l-29 1l-31 -2l-27 3l-35 3l-48 -1l-40 -4l-29 2l-32 4l-32 -6l-19 11zM160 459l5 -4h8l3 4l-3 6h-7zM169 401l5 -6h4v11l-4 1zM383 20l1 -5h6l3 5l-2 4
l-8 -1v-3zM161 519l5 -4l4 -1l2 6l-3 3l-1 -2zM163 240l3 -5l6 1v2l-2 5l-2 -1zM412 19l4 -4l5 1l3 1l-6 4v1zM173 379l2 -4h4l-3 10l-3 -1v-5zM158 485h3l3 3l-2 4h-5zM166 367v-2l5 -1l1 3v3h-7zM159 404v-8l-2 -2l2 1l6 5l-4 4h-2zM163 597l3 -2h6l-3 2l-1 3l-4 1z
M326 18v-3h6l-3 1l2 5l-3 -1zM167 427l-1 -2h6l-1 1l-2 3l-5 1zM167 388l-1 -3h2l1 2l3 3h-8zM167 307l-1 -2h6l-3 2l1 2l-6 1z" />
    <glyph glyph-name="M" unicode="M" horiz-adv-x="949" 
d="M148 31l-2 33l2 30l-1 31l-4 32l5 26l1 33l-3 32l-2 25l1 29l4 35v27l-2 31l2 41l-6 41l1 41l3 28l1 33v29l-12 28l-22 26l-34 12l-19 11l11 11l26 3h27l33 -8l33 -18l21 -28l20 -24l14 -27l17 -28l18 -23l18 -30l14 -26l21 -33l27 -41l21 -33l19 -24l16 -31l11 -24
l21 -26l16 -28l17 -11l14 12l15 30l19 21l20 27l13 26l18 29l23 32l26 39l19 33l14 27l16 31l20 22l16 26l14 25l17 29l26 29l24 9l14 -15l5 -31l-2 -30l2 -33l3 -37l-4 -44l1 -37l-1 -30l-3 -34l6 -27l-2 -32l-2 -29l2 -32v-31l1 -30l-1 -27l-2 -32l4 -29l-2 -28v-31
l-8 -32l-10 -22l-14 17l-5 28v29l-1 30l2 28l-2 26l1 30l-2 37l1 43l2 34v57l-1 32l3 26l1 31l-4 32l4 56l1 28l-4 33l-4 14l-8 -12l-19 -24l-15 -25l-19 -30l-17 -24l-15 -23l-17 -28l-15 -23l-15 -24l-12 -27l-22 -32l-27 -39l-22 -31l-15 -25l-18 -24l-15 -24l-23 -16
l-25 12l-15 25l-16 25l-15 24l-17 27l-17 23l-16 31l-16 22l-17 27l-14 24l-14 30l-21 19l-17 27l-25 42l-21 35l-17 23l-10 11l-10 -15v-32l3 -26l-2 -31v-28l6 -28l-2 -31l-2 -27l1 -30l-1 -33v-35l2 -56l2 -48l-2 -39l3 -30v-34l-4 -34l-4 -27l-11 -25l-14 -3zM175 662
l2 -7h10v5l-1 4l-3 1l-4 1zM495 229l4 -4l6 -1l1 3l-1 4l-7 1zM158 423v-8h4l4 5v4zM791 476l3 -1l5 5l-4 5l-4 -1v-8zM158 498v-3h4l3 3l-1 6l-7 -2zM777 651l-2 -3h3l2 -4l4 2v3l1 4zM787 511l2 -6l4 -1l2 6v2zM514 251l4 -6l4 8l3 3l-5 -1zM165 457l4 -2l4 -1v1l-2 5l4 2
h-8zM675 501l2 -6l1 1l5 10h-4zM235 577l4 -2h6l1 2l-2 4l-3 -1zM138 666l1 -1l4 1l3 2l-2 3h-7zM785 237l4 -2l4 1v7l-2 -1zM249 545l3 -1l3 5l-2 4l-2 -1l-2 -4v-3zM156 267l3 -2l5 -1v4l-1 3l-3 -2zM796 497l3 -2l4 1l2 2h1l-5 3zM169 225l4 1h-2l4 4l-4 1l-2 -1v-5z" />
    <glyph glyph-name="N" unicode="N" horiz-adv-x="800" 
d="M145 34v27l-1 31l1 36l3 28v26l2 32l-3 28l-3 33l3 30l-3 31l4 32l-2 27l-2 26l4 34l1 27l-2 37l3 27v34l-10 48l-26 31l-38 14l-17 11l16 10l30 6l23 1l34 -9l33 -19l28 -25l18 -24l16 -23l16 -30l19 -21l17 -28l18 -25l14 -24l20 -24l16 -27l34 -47l68 -104l15 -24
l20 -25l18 -26l20 -31l44 -72l22 -25l15 -9l3 20l2 33l-3 30l-2 26l-2 35l-2 39v178l-2 38l1 48l3 37l2 28l-5 32l-3 30l6 35l17 25l15 -6l6 -24l1 -40l-1 -44l-2 -47l-3 -43l1 -36l3 -31v-28l-4 -33l-1 -40l2 -47l2 -36v-26l-5 -29l3 -30l3 -35l-4 -32l2 -27l-6 -29
l-18 -19l-29 12l-29 33l-50 73l-26 39l-21 27l-18 29l-18 27l-24 38l-21 35l-20 30l-23 29l-25 40l-27 32l-21 38l-24 32l-15 24l-23 24l-17 28l-15 28l-9 9l-5 -16l-5 -32l1 -28l5 -34l2 -28v-41l2 -43l-1 -38l1 -43l-2 -46l-1 -30l4 -28l-3 -31l2 -25l-3 -30l-3 -28l3 -28
l1 -31l-7 -32l-7 -20l-16 2zM639 283l6 -7l8 -1l2 4l-3 8l-1 1h-8zM643 51l2 -5l9 -1l1 11v3l-12 -1v-7zM550 120l5 -4l8 1l5 4l-6 7l-5 -2zM171 661l4 -5h7l-3 1h5l4 5l-5 4h-6zM164 641l2 -5l8 1v9h-6l1 1l3 2l-2 -1h-4l2 -1h-4v-6zM304 485l8 1l3 5l-2 4l-5 -1l-5 -4z
M154 419l2 -3l7 -1v5l1 5l-7 -1l-3 -3v-2zM164 469l2 -3l8 -1l-1 5l-2 6l-5 -2zM256 562l-1 -1l5 -6l2 2l4 2l-4 6l-8 -1zM646 76l4 -1l5 4l-1 5l-8 -1v-7zM353 421l3 -5h4l4 3v5l-6 -1zM656 242l-5 4l-2 1l-7 -4l6 -3l5 -1zM642 340l5 -4l4 -1v3l2 1l-3 3h-3zM506 199v-3h4
l5 5l-3 2h-4zM163 229l4 -3l3 1l4 3l-1 2l-4 1zM165 418l2 -2h6l-1 4l1 2h-8v-4zM645 368l2 -2l5 -1l2 3l-2 4l-6 -2zM165 251l2 -5l4 1l3 4l-4 1l-3 2zM640 317l2 -1l4 4l-3 6l-2 -1zM157 436l3 1l5 3l-2 2l-6 -1v-5zM287 529v-3l3 1l4 1l-4 3l-4 2zM577 89v-3l2 1l6 2
l-6 2l-3 2zM167 607v-1l1 -1l4 6l-7 1zM166 397l1 -1l4 -1l-1 4l3 2l-7 -1v-3zM145 677l3 -1v1h6l-4 3z" />
    <glyph glyph-name="O" unicode="O" horiz-adv-x="865" 
d="M372 -2l-28 6l-35 4l-22 10l-29 13l-26 11l-25 13l-22 22l-19 21l-21 24l-17 25l-13 23l-14 29l-7 28l-10 30l-5 35l-4 35l1 42l6 36l3 28l7 31l7 30l12 25l16 26l18 30l22 19l19 22l20 23l33 20l40 18l35 13l28 5l37 10l38 -2h35l38 -2l30 -6l29 -7l32 -8l26 -11l22 -18
l29 -13l21 -21l20 -24l24 -18l16 -24l10 -28l9 -29l13 -29l7 -33l4 -29l-2 -36l6 -40l-5 -40l-5 -32l-10 -28l-5 -27l-14 -28l-15 -25l-13 -24l-26 -30l-31 -30l-43 -30l-42 -13l-25 -11l-31 -9l-33 -7h-80zM494 29l30 8l29 5l21 12l31 9l24 22l25 22l33 36l20 26l11 28
l10 28l9 30l5 31l1 37l2 47l-5 36l-2 31l-8 28l-11 28l-13 27l-16 28l-18 24l-22 22l-23 19l-25 14l-26 17l-26 12l-26 7l-32 7l-38 4l-49 -3l-28 -4l-62 -13l-30 -13l-26 -12l-22 -20l-24 -19l-20 -19l-18 -22l-16 -25l-16 -31l-12 -27l-5 -27l-6 -31l-2 -37l1 -46l2 -37
l7 -33l7 -27l10 -27l15 -29l14 -25l18 -24l20 -17l37 -27l37 -26l27 -12l30 -5l29 -8l35 -1l47 -2zM682 121l8 -8l6 -1l7 9l1 3l-4 4h-11zM756 370l5 -7l9 -1l1 1l-2 3l1 6l1 3l-10 1zM138 167l3 -4l8 -1l4 5l-3 2l-1 -1v6h-10zM186 591l4 -8l6 6l8 3l-6 5h-6zM206 608l6 -5
l-1 -1l12 7l-6 5l-7 -1zM428 7l3 -4l8 1l4 5l-6 5l-4 -1zM227 637l5 -4l8 -1l-1 5v6h-7zM217 67l5 -4l7 1l4 3l-7 5l-4 1zM735 483h4l2 6l-4 5l-8 1l1 -4zM101 397l1 -4l6 -1l3 3l-1 6v1l-7 -1zM651 88l1 -5l4 -1l6 5l-4 5h-5zM757 347l5 -4l5 -1l3 4v5l-7 -1zM751 438l1 -5
l8 -1l2 5l-3 3h-6zM318 677l5 -4l4 -1l3 4l-1 4l-6 1zM90 338l2 -5l6 1l1 3l-1 6l-8 -2v-3zM102 247v-4h8l2 4l-6 4l-3 1zM398 18l3 -5l8 -1l3 6h-14zM741 218l1 -5h4l5 3l-4 5h-6v-3zM729 186l4 -3l6 -1l1 4l-3 3l-6 1zM729 206l4 -3l4 1l3 2l-1 4l-4 1l-3 -1zM752 334
l6 -1l4 3l-4 6h-3zM670 106l2 -3h4l4 3l-1 4h-7zM84 352l1 -9l3 -1l5 6l-5 3zM141 547l2 -4l6 -1l2 4l-2 2l-5 2zM721 167l2 -4h6l2 2l-2 4h-8v-2zM593 656v-3l4 -1l4 4l-4 4h-5zM99 416l4 -3l2 -1l5 5l-5 4v-1zM330 671h-8l-3 -3v-2h9zM759 268l3 -5l4 1l3 7l-1 -1h-5z
M110 495l3 -2l6 -1l1 4l-1 2l-7 -1zM755 352l2 1l4 4l-6 3l-3 1zM631 627l2 -4l3 -1l5 4l-2 1l-8 1v-1zM89 306l4 -3l4 1l4 2l-6 3v-1zM671 93l-2 -6v-3l9 9h-7zM760 447l2 -4h1l2 10l-5 -1v-5zM343 673l5 1l3 3l-2 2l-6 -1v-5zM750 478l2 -5h6l-6 7l-2 1v-3zM280 665l3 -2
l5 -1l-2 3l2 2l-3 1zM364 686l-1 -3l4 -1l3 4l-4 1l-4 2z" />
    <glyph glyph-name="P" unicode="P" horiz-adv-x="728" 
d="M148 33l2 31l1 27l-3 32l1 31v62l1 32l-4 35l3 42v69l2 31l1 40l-3 43v55l-1 43l-9 29l-29 26l-30 14l-19 11l10 10l33 5l27 -1l28 1l62 -5l24 4l64 -3l29 1l29 2l27 -1l37 4l49 -2l38 -8l26 -16l31 -14l22 -15l22 -22l16 -24l17 -28l9 -32l8 -36l-2 -44l-4 -39l-9 -28
l-15 -30l-19 -23l-22 -22l-23 -17l-27 -14l-28 -9l-40 -3l-45 -6l-37 -3h-32l-35 4l-28 -2l-28 2l-27 -2l-32 -10l-21 -19l-10 -34l-1 -30l1 -29l2 -28v-32l-4 -34l-3 -28l-11 -22l-15 2zM252 300l44 -1h35l31 2l46 2l58 3l37 4l31 10l21 14l23 21l19 23l16 23l9 26l6 35
l-2 45l-5 35l-13 23l-10 25l-18 24l-25 18l-21 18l-32 11l-30 4l-47 5l-35 -2h-26l-32 -3l-32 2l-23 -3l-32 1l-28 -5l-23 -26l-10 -31l1 -31l2 -24l-3 -35l3 -30l-2 -28l-1 -34l3 -37l7 -43l17 -34zM174 659l3 -5h6l3 7l1 3l-11 2zM615 601l2 -7h10v1l-3 1l4 2l-9 8z
M593 337l5 -3l7 6l-3 3l-5 1zM123 690l4 -6h6l7 5l-5 1h-6l-5 -1zM416 686l3 -2h6l3 3l-3 4l-5 1zM506 299l2 -5l5 1l2 3l1 3l-4 2l-5 -2h-3zM165 247l4 -3h6l2 5l-6 2l-2 -1zM587 348l2 -4l5 -1l2 5l-2 3h-3zM162 414h2l2 3v6h-7zM618 387v-3l6 -1v5l-1 3l-3 2zM256 680
l-3 4l-6 1l-1 -5l4 -2l4 2h2zM160 493l4 1v4l-1 5l-5 -2zM165 226l4 -2l4 1l2 3l-6 3zM389 684h6l-2 4v2h-7zM617 376l2 -2l5 1l-1 2l1 4l-6 -2zM167 385l2 -1h6l-3 2l3 3h-8v-4zM197 287l2 -3h6l-3 1l2 5l-7 -1v-2zM140 666l-1 -2l6 -1l-3 3l2 4l-5 -2z" />
    <glyph glyph-name="Q" unicode="Q" horiz-adv-x="879" 
d="M376 -5l-33 11l-86 24l-25 13l-25 15l-21 22l-22 21l-18 22l-14 22l-15 30l-11 27l-14 26l-5 28l-9 72l-2 42l4 38l4 30l11 31l6 26l15 27l13 25l19 33l32 32l41 33l37 22l59 21l26 6l38 5l25 4l45 1l36 -5l31 -2l32 -12l33 -9l23 -6l40 -24l32 -31l21 -16l22 -28l28 -50
l13 -27l8 -28l9 -29l5 -29l1 -42l1 -43l-5 -35l-5 -32l-11 -28l-5 -32l-11 -29l-16 -20l-8 -29l9 -29l21 -22l24 -17l62 -22l9 -19l-16 -3l-39 3l-40 18l-34 13l-32 9l-36 4l-31 -10l-24 -13l-24 -11l-28 -10l-28 -6l-62 -8l-46 1zM705 165l12 26l12 34l9 29l2 29l6 41l1 46
l-4 39l-6 26l-8 32l-11 25l-11 28l-19 28l-19 24l-21 24l-22 16l-22 17l-40 18l-43 18l-30 4l-34 1l-52 -1l-24 -2l-39 -3l-25 -7l-41 -23l-43 -20l-19 -22l-21 -22l-24 -25l-15 -23l-9 -30l-13 -25l-9 -26l-3 -32v-40l-2 -46l2 -37l6 -33l6 -24l28 -60l19 -22h29l34 11
l24 18l28 11l29 10l28 14l41 2h45l39 -7l31 -8l29 -8l27 -9l26 -14l28 -19l27 -9l37 7zM501 25l44 15l44 16l16 24l3 23l-18 24l-24 19l-32 15l-29 6l-30 10l-43 5l-45 1l-37 -9l-30 -10l-30 -16l-27 -16l-20 -18l-1 -30l20 -20l26 -15l26 -8l29 -6l30 -4l39 -3l48 -1z
M685 124l6 -9h8l8 7l-4 3l-3 5h-9zM707 100l5 -5h6l5 2l-5 11l-8 -1zM757 400l5 -5l6 -1l4 7l-3 5l-1 2h-3l2 1l-2 -1l-3 -2h-1zM161 576v-1h12v7l-1 8l-9 -7zM101 359l1 -4h9l1 10l-11 2v-8zM668 119l5 -4l6 -1l5 5l-6 4l-3 1h1l-2 1l-3 -2zM98 319l5 -4h7v10l-7 1z
M662 129v-1l-4 2l-7 -1h-2l4 -4h8l1 2l2 -2l4 -1l4 4l-4 4l-6 -1v-2zM261 651l2 -6h4l7 4l-6 5l-4 2zM611 118l2 -3h4l3 4v6h-8zM598 141l4 -6l6 1l4 2v1l-12 6zM669 110l4 -5l8 1l2 3l-2 4l-8 -1zM708 79l5 -4l5 1l6 3l-6 4h-4zM672 88l1 -3l5 -1l4 6l-1 4h-6zM741 220
l2 -5h4l6 3l-6 7l-2 -1zM651 90l2 -5l5 -1l2 10h-8zM642 109l1 -4l7 1l3 2l-3 6l-7 -2zM98 400l5 -5l5 1l1 5l2 3l-8 -1zM659 69l4 -4l5 1l4 2l-3 4h-7zM753 439v-4h8l2 4l-2 3h-7zM692 110l1 -5l5 1l5 3l-5 4h-5zM762 350l1 -5l8 1l-1 2l1 5l-9 -1v-2zM762 270l1 -5h6l1 8
h-5zM181 597l3 -2h6l1 2l-3 4h-6zM591 659l3 -4h6l2 3l-8 4zM102 458l2 -3h2l5 2l-1 6l-7 -2h2zM722 169l2 -4l4 -1l4 5l-4 3zM269 660l5 -5l4 -1l2 4l-3 3h-3zM758 449l5 -4l3 -1l-1 11zM633 99v-4l5 -1l1 6v2h-7zM769 369l4 -4l1 1v-1l3 8l-6 1zM742 469l2 -4l4 1l4 2
l-2 3h-8v-2zM100 268l4 -3l2 -1l2 5l2 3h-6zM734 205h2l7 4l-7 4l-2 -2v-6zM201 98l3 -3h6v2l-1 4h-4zM739 189l5 -4l1 -1l3 9h-3zM102 417l2 -2l5 1l-1 1l2 5l-8 -1v-4zM473 687l1 -2h2l5 2l-1 3l-7 1v-4zM380 18l4 -3l5 -1v5h2l-6 1zM725 67l-1 -2l4 -1l3 3l-4 4h-4z
M753 480v-5h6l-5 7h-3z" />
    <glyph glyph-name="R" unicode="R" horiz-adv-x="775" 
d="M632 6l-32 12l-23 12l-22 17l-22 24l-20 25l-13 25l-11 27l-11 30l-10 32l-5 28l-13 26l-27 24l-31 10l-88 -5l-30 -2l-27 3l-31 -10l-20 -20l-10 -26l-3 -33l3 -25l-2 -32l3 -30l-2 -26l2 -31l-1 -35l-14 -21l-15 6l-5 24l-2 28l-2 31l1 30l4 29l-3 28v34l-1 32l-1 27
l1 29l3 32l-2 29l-1 31l-2 26v34l2 29l1 32l-1 30l-4 31l3 31l-7 27l-29 24l-34 9l-19 12l17 12l27 3l32 1l40 3l41 1l41 -3l33 -1l27 5l34 -4l63 -3l42 4l80 -11l30 -16l24 -15l25 -18l17 -28l17 -25l10 -25l4 -38l3 -46l-5 -38l-9 -24l-12 -28l-19 -25l-23 -25l-35 -20
l-36 -24l-28 -26l-2 -30l9 -31l9 -32l13 -25l13 -27l17 -26l20 -22l28 -17l29 -10l35 -9l39 -7l16 -16l-25 -13l-36 -3zM270 326l40 1l33 -4l29 4h30l87 5l48 15l41 19l20 22l13 24l10 25l7 40l1 39l-6 38l-13 28l-15 22l-20 23l-25 19l-27 11l-45 7l-26 2l-45 3l-34 -4
l-37 4l-45 -4l-43 1l-31 -4l-24 -25l-8 -34l1 -32l2 -30l-3 -31l4 -33v-36l-3 -44l8 -40l31 -20zM172 655l3 -7l8 -1l4 6l-2 6l-10 1zM169 675l6 -7l6 1l5 4l-2 8l-8 -2zM612 595l6 -7l4 1l5 6l-6 6l-8 -1zM161 634l5 -6h8l2 6l-2 4l-6 -1l3 1l-1 2v1l-4 -2l-1 -2zM523 122
l2 -4h4l-1 10l-5 1l3 4l-7 3l-4 -1l1 -4l1 -3h6v-6zM162 461l4 -3l5 1l6 4l-5 5h-8zM562 654l4 -6h8l3 6l-10 5v-2zM461 683l5 -5l6 -1l3 7l-5 2l-6 2zM124 683l1 -5h6l7 5l-2 3h-15zM221 322l5 -4l7 -1l3 5l1 1l-13 2zM170 455l5 -7h2l2 14l-2 -1zM501 292l5 -4l2 1l4 4
l-2 4h-6zM516 109l6 -1l1 3l-2 5l-7 1l-1 -4zM481 682l4 -4l7 1l3 4l-13 2zM155 558h7l3 3l-5 5h-4zM272 682l5 -4l3 1l4 4l-2 3l-7 -1zM164 241l3 -3l4 -1l3 6l-1 2h-8zM159 407l3 1l1 4v4l-8 2zM476 261l1 -3l4 -1l5 5l-3 3l-6 -1zM185 333l1 -5l4 -1l2 6l2 2h-10z
M166 220l1 -2l3 -1l5 4l-2 3l-5 1zM340 679l3 2l-4 4l-4 1l-2 -6l5 -1h2zM182 321l5 -3l5 1v3l-1 2h-4zM185 301l1 -3h4l2 4l-2 4l-2 1zM304 681l3 -3l4 1l4 4l-6 2v-1zM203 331l4 -3l5 1l2 3h-1l-5 1l-3 1zM485 280l2 -2l4 1l2 3l-1 3l-7 -2v-3zM257 308h6v2l-4 6h-2v-8z
M164 310l3 -2h6l1 3l-1 2l-5 -1zM627 19l4 -1v3l2 3l-6 -1l-4 -3l3 -1h1zM194 341l2 -3l5 -1l1 1l-8 7v-4zM544 90l3 -2h6l-2 2l-2 3zM161 487l1 1v3l-1 6l-2 -2z" />
    <glyph glyph-name="S" unicode="S" horiz-adv-x="641" 
d="M265 -4l-26 3l-31 6l-26 6l-26 9l-28 9l-31 14l-8 21l17 8l31 -6l29 -14l45 -13l56 -13h83l37 5l28 4l28 14l30 13l18 24l20 28l9 35v43l-9 34l-13 27l-18 16l-25 19l-30 14l-22 13l-27 5l-35 14l-47 10l-35 7l-28 11l-81 39l-28 17l-20 21l-8 24l-10 38l4 49l2 37l16 26
l19 24l22 20l20 19l29 9l30 5l31 7l41 5l46 -1l33 -2l36 -1l28 -10l32 -2l28 -13l25 -17l12 -20l-15 -5l-29 6l-54 18l-29 8l-44 7l-26 1l-43 3l-40 -7l-28 -7l-31 -9l-25 -16l-23 -23l-15 -25l-12 -34l-1 -44l9 -32l13 -25l36 -29l37 -23l29 -4l26 -9l45 -12l26 -5l46 -18
l29 -6l66 -37l37 -21l21 -26l11 -29l8 -37l-1 -47l-4 -34l-13 -26l-19 -28l-26 -21l-24 -16l-27 -12l-59 -16l-37 -4h-47zM240 384l2 -2h-1l-5 -5l5 -5l4 1l5 4l-1 4h-3l4 4l-5 2l-3 -2zM529 99l1 -7h2l4 2l1 7v1l-1 2h2l-4 4l-2 -1l-3 -3v-1l1 -1zM349 6l2 -4h8l3 5l-6 4
h-7v-5zM308 357l3 -5h8l2 4l-3 3l-5 1zM180 406l1 -4l8 -1l2 4l-11 7v-6zM270 366l1 -4h4l7 4l-5 4l-4 1zM109 565l2 -3h4l4 3l-2 4l-8 1v-5zM468 667l4 -5l3 -1l5 4l-6 4l-2 1zM421 26l1 -4l6 -1l2 3l-3 5l-6 -1h-2zM498 74l4 -2l6 -1l2 4l-3 4l-3 -2zM199 397l1 -5l6 1h4
l-10 8zM540 127l2 -5h2l6 2v1l-3 3h-5zM532 112l3 -1l5 5l-5 2h-5zM528 135l4 -3l4 1l2 6h-4zM512 272l4 -1l4 3l-4 5l-4 -2v-5zM257 363l2 3l-5 4h-1l-4 -3l3 -3zM308 6l4 -4l5 -1l-1 4l-2 5l-2 -2zM339 17l2 -5l7 1l4 3zM132 442h2l6 3h-5l-2 4l-3 -1zM221 383l1 -1h2l5 1
l-5 4l-1 1z" />
    <glyph glyph-name="T" unicode="T" horiz-adv-x="606" 
d="M285 32l-3 32l-1 33l3 27l-1 29l-1 31v31l-3 31l-1 31l-1 32l6 28v32l3 26l1 32l-3 36l-1 47l3 38l-2 28l2 32l-11 28l-35 21l-54 9l-59 2l-26 -1l-43 8l-13 10l13 8l72 8l25 -1l46 1l39 -5l29 -2l92 6h35l27 -1l44 3l47 -3l31 -4l18 -11l-22 -16l-32 1l-35 -2l-59 1
l-55 -6l-35 -24l-6 -34l2 -37l-3 -42l4 -41v-61l-2 -28l2 -34v-26l-2 -30l-1 -31l-1 -33l-2 -33l2 -35l2 -42l4 -42l-6 -33l-3 -28l-7 -21l-19 1zM286 673l5 -6l10 1v4l-4 7l2 -2l3 5l-4 4l-5 -2l-3 -4l2 -1zM155 682l6 -5l9 -1l5 7l-8 6h-4zM299 81l3 -4h8l3 5l-4 5h-6z
M278 644l5 -2l1 -6h6l-1 5l1 6h-6zM301 612l1 -5h8l-1 2l1 3l-3 4l-7 -1zM301 622l1 -5l8 1l3 3l-5 4h-5zM290 632l2 -5l8 -1l-1 6l-3 3l-6 -1v-2zM301 450l1 -3l8 1l-1 3l-1 6l-6 -2zM321 662l1 -5l5 1l5 2l-4 4l-8 1zM435 677l5 4l-5 4h-4l-1 -3l3 -6zM309 681l4 -4l4 -1
l4 4l-3 2l-3 1zM293 87h2l4 5v2h-8v-1zM300 570l3 -3l5 1v3l-3 2l-1 2zM451 691l1 -4l6 1l3 4zM304 589l-1 -2h6l-2 4l2 1h-8zM303 649v-2l4 -1l-1 4l2 3l-7 -1z" />
    <glyph glyph-name="U" unicode="U" horiz-adv-x="782" 
d="M281 13l-30 17l-23 14l-21 18l-22 27l-20 27l-11 26l-10 28l-5 38l-3 43l2 38v29l2 26v29l-2 33l2 26v32l-5 30l-1 29l3 28l1 29l2 28l-9 33l-28 19l-34 9l-21 14l17 14l28 1l25 4l28 -1l23 -10l6 -25l-1 -31l-2 -30l-1 -37l4 -38l-2 -38l5 -32v-30l1 -32l-1 -29l-2 -28
l-1 -30l-1 -26l4 -39l5 -43l1 -36l12 -32l18 -26l22 -21l21 -17l24 -18l28 -16l27 -5l39 -7h46l38 5l31 10l30 12l23 18l20 20l23 22l14 27l9 27l12 39l1 45l5 33l-2 32l-1 30v26l1 34l-2 27l-1 32l-3 29l4 31l-1 30l-2 26l-4 30l2 31l7 29l15 21l17 -4l4 -26l1 -27l1 -28
l-3 -32l-2 -40l-6 -43l4 -41v-66l1 -32l-1 -30l-1 -28l2 -37l-5 -49v-40l-9 -27l-16 -29l-17 -25l-31 -32l-36 -26l-23 -13l-31 -9l-29 -10l-38 -5l-42 2l-34 2zM605 96l-4 6l-5 1l-6 -6l3 -4h6zM636 275l-2 -13l10 1v5l-4 6zM621 177l4 -5l6 -1l5 6l-7 4h-2l-2 -4h-4z
M161 166l4 -4h4l6 4l-6 5h-4zM635 334v-2l6 1l6 4l-6 4l-7 2l2 -2zM634 167l1 -5l4 -1l5 8h-1l-8 2zM643 230l-3 2h-2l-7 -3l5 -5l6 2zM634 307l2 -5h6l3 2l-4 6l-3 -1zM151 445l5 -3h2l5 2l-4 4l-5 2zM151 236l5 -4l5 -1l1 4l-4 3l-1 2zM144 489l3 -7l4 1l4 3l-3 3h-8z
M152 515l4 -3l3 -1l3 6l-4 1v1zM163 399l1 -7l4 1l-1 10h-1zM633 485l3 -3h2l5 3l-3 3l-6 -1zM471 23l3 -1l6 -1l7 6zM617 164v-2l4 1l3 2l-2 7v-1zM153 424l3 -2h6l-3 2v2l-3 2z" />
    <glyph glyph-name="V" unicode="V" horiz-adv-x="728" 
d="M347 32l-18 33l-17 41l-15 37l-7 26l-13 27l-12 28l-6 25l-20 56l-12 32l-15 28l-6 27l-14 26l-8 31l-16 25l-9 25l-12 30l-9 27l-13 27l-7 28l-21 29l-31 21l-43 8l-16 12l15 15l35 3l34 -5l35 -24l20 -29l12 -30l7 -26l11 -32l12 -26l13 -32l10 -29l12 -25l8 -32
l14 -23l9 -31l10 -29l9 -26l12 -30l13 -26l14 -35l14 -45l11 -34l12 -25l11 -24l8 -25l10 -17l10 13l10 32l10 26l10 19l15 38l14 39l16 34l10 33l16 35l16 44l14 30l8 32l9 29l16 26l11 32l9 26l9 28l11 30l12 25l11 33l15 29l22 18l12 1l-2 -25l-10 -26l-13 -30l-12 -28
l-8 -28l-15 -29l-10 -24l-8 -30l-14 -29l-11 -29l-8 -23l-12 -28l-11 -32l-12 -30l-8 -26l-12 -27l-12 -24l-8 -30l-14 -30l-8 -24l-7 -30l-12 -25l-13 -29l-15 -28l-26 -24l-22 3zM191 459l2 -6l9 1l1 2l-1 3v6h-11v-6zM112 633h8l4 6l-4 5h-7l-1 -7v-4zM497 299l6 -6l2 -1
l5 10l-2 4l-3 -1zM170 496l4 -3l7 -1l1 4v6l-10 -2zM161 526l3 -3l8 1l1 2l-5 7l-6 -1zM340 79l4 -6l6 1h2l-2 8h-4zM381 27l4 -4l4 -1l3 3l-1 6h-6zM420 107l5 -4l2 -1l6 4l-2 4l-8 -1zM135 585l2 -1l5 -1l2 3l-6 5h-6zM532 395l3 -2l6 -1l1 4l-1 2l-6 1zM312 135l3 -2l3 1
l2 1l1 4l-7 1zM187 462l2 1l2 3l-3 3h-3l-4 -1zM134 594l2 6l-2 7l-4 -1zM506 323h4v9l-5 -2zM151 567l4 -4l4 -1v4l-1 1h2l-6 2zM361 26l4 -3l4 -1v4l2 2h-4zM421 87l4 -4l3 -1l-2 6l3 2h-3z" />
    <glyph glyph-name="W" unicode="W" horiz-adv-x="1037" 
d="M284 30l-10 28l-9 32l-7 31l-6 26l-7 30l-12 29l-12 25l-5 32l-8 31l-10 25l-6 31l-12 27l-7 33l-8 26l-8 31l-12 29l-7 26l-12 26l-8 30l-9 34l-13 28l-28 21l-27 7l-30 4l-10 10l18 12l34 6l38 -8l31 -22l18 -30l9 -34l9 -37l9 -36l12 -33l7 -28l10 -23l8 -27l10 -28
l10 -30l8 -27l6 -27l9 -36l12 -46l14 -34l9 -26l6 -29l8 -26l3 -26l12 -30l6 -9l9 15l10 31l11 30l8 34l7 25l12 40l17 47l7 37l11 31l9 30l7 28l6 30l11 30l7 31l8 29l8 30l12 29l11 31l6 28l13 29l28 15l23 -12l15 -31l10 -31l8 -34l7 -26l6 -27l10 -29l11 -30l8 -33
l7 -29l9 -33l7 -25l9 -31l10 -37l16 -48l9 -35l12 -29l5 -33l9 -34l7 -29l13 -11l10 11l9 33l10 30l18 58l10 35l11 45l13 39l7 30l11 26l9 37l12 43l11 36l4 26l9 31l10 28l11 25l8 29l6 27l14 29l20 19l14 -1l-2 -19l-8 -28l-10 -32l-8 -31l-7 -28l-14 -26l-5 -31l-6 -30
l-10 -28l-7 -32l-13 -28l-6 -27l-7 -32l-10 -28l-13 -25l-9 -35l-4 -27l-8 -31l-10 -26l-10 -30l-11 -30l-7 -27l-12 -28l-31 -13l-26 15l-16 30l-12 25l-4 32l-8 27l-10 29l-6 33l-8 30l-6 28l-11 33l-10 26l-9 29l-9 39l-13 44l-10 41l-13 29l-6 28l-8 31l-8 30l-11 31
l-10 16l-7 -17l-7 -30l-8 -33l-14 -28l-11 -36l-10 -55l-18 -54l-12 -38l-2 -27l-10 -29l-8 -31l-11 -26l-15 -46l-10 -45l-8 -29l-9 -32l-8 -31l-15 -26l-23 -19l-25 -3zM677 176h8l3 7l-4 5l2 -1v1l-1 4l-8 2l-3 -3l1 -3h5l-3 -2v-10zM185 396h2l7 -1l4 6l-2 7h-8l-2 -6z
M280 66h5l6 6l-7 6l-3 -1l2 2h-1l-1 2l-3 -1zM498 597l-1 -1h6l7 4l-3 7l-8 1l1 -4zM855 352l3 -6l6 1l4 5l-4 5h-6zM559 609l3 -13l2 -1l5 8l-2 6h-8zM125 595l7 7l-4 8h-6zM324 39l4 -3h8v5l-4 3h-2zM154 500l4 -4h8l-2 4l2 5l-7 -2zM601 457l3 -1l5 4l-7 6h-5zM213 340
l5 -4h5l-2 9l-1 1zM827 267l1 -1l4 1l6 3l-4 3l-6 2zM189 384l1 -5l-1 -2l7 -1l2 5l-4 3h-5zM838 299v-3h4l3 3l-1 6l-8 -1h3zM368 150v-4l6 1v4l-2 4l-6 -1zM887 450l2 -4h6l-1 4v2l-4 2zM925 547l3 4l2 10l-4 -2l-2 -6zM355 89l4 -3l5 4l-1 4h-3zM151 506h3l5 5l-4 3h-3z
M916 569l3 -3l6 -1l1 4l-4 3l-1 -2zM226 289l2 -3l5 1l-4 7h-3v-5zM267 159l2 -3l6 -1v6h-4zM879 438l-1 -2l4 1l3 4l-1 4l-3 -1zM897 529l3 -1l-1 -3l6 1l-3 1v5h-3zM934 626l4 4l-2 5z" />
    <glyph glyph-name="X" unicode="X" horiz-adv-x="748" 
d="M609 16l-35 31l-36 40l-29 37l-19 32l-16 24l-18 21l-18 25l-20 28l-18 21l-22 17l-23 3l-21 -20l-16 -23l-18 -24l-19 -23l-20 -21l-14 -25l-21 -23l-16 -22l-21 -22l-15 -25l-21 -21l-19 -23l-28 -19l-19 3l9 19l29 36l26 36l24 33l27 35l21 24l18 22l26 37l27 36
l18 23l11 26l4 38l-16 28l-11 26l-18 22l-18 28l-22 23l-18 25l-16 21l-15 25l-18 25l-20 26l-23 24l-31 14l-63 16l-10 8l16 10l36 6l34 -6l38 -17l28 -29l14 -22l20 -27l18 -23l19 -26l21 -25l16 -24l21 -27l17 -23l15 -26l21 -24l31 1l24 16l16 23l16 24l17 29l27 35
l26 32l16 24l23 31l29 33l17 30l28 15l20 -5l-7 -22l-20 -20l-18 -25l-17 -23l-18 -21l-15 -23l-19 -28l-15 -20l-23 -24l-14 -21l-23 -34l-26 -31l-17 -38l1 -34l16 -30l17 -27l17 -24l38 -53l13 -21l21 -35l30 -36l23 -26l17 -22l35 -12l42 -8l22 -14l-23 -16l-50 4z
M331 397l2 -7l12 -1l1 7l-3 9h-9zM143 656l1 -6l10 -1l3 7l-3 5l-8 -1zM395 290h6l2 6l-4 3h-2l-7 -3l1 -3zM271 485l4 -5l4 -1l3 4l1 4l-10 1zM89 684l5 -4l7 1l1 4l-12 1zM513 145l3 -5l5 1l2 2l-4 5l-5 -1zM325 414v-4l6 1l1 2l1 6l-7 -2zM303 444l3 -4l3 -1l2 4v3l-5 2z
M182 613l4 -3l4 -1l1 3l-2 5h-2zM496 174v-4h2l5 2l-2 5l-7 -1zM595 40h5v3l2 3h-8v-2zM222 544l4 -4l5 1l-1 2l2 2h-4zM547 571l-1 -1h6l-1 3l-3 2l-3 1z" />
    <glyph glyph-name="Y" unicode="Y" horiz-adv-x="676" 
d="M334 31l2 35l-3 33v25l2 30l-1 30l-1 35l-3 39l-11 39l-16 36l-16 23l-18 29l-14 27l-16 22l-15 29l-14 23l-16 25l-14 25l-18 30l-25 36l-29 36l-41 23l-53 22l15 12l35 5l31 -9l36 -21l21 -24l17 -24l17 -23l12 -26l17 -25l17 -26l12 -24l15 -27l17 -26l14 -29l19 -21
l16 -27l18 -17h26l25 35l23 30l16 30l16 21l9 28l17 24l14 25l16 26l14 27l18 27l12 21l18 28l30 19l14 -7l-7 -24l-14 -25l-19 -22l-17 -26l-17 -24l-11 -25l-16 -27l-14 -23l-15 -29l-15 -24l-18 -24l-17 -24l-11 -28l-15 -26l-17 -31l-12 -42l-1 -34v-27l-3 -31l2 -29
l-5 -27l3 -30l1 -26l-6 -27l-9 -25h-20zM349 80l2 -5l6 -1l4 5l-3 7h-6zM224 491l6 -6l8 1l-1 8l-2 2l-5 -1zM187 548l4 -3l6 -1l1 4l1 6l-6 1zM345 24l3 1l4 4l-3 8l-4 -2l-3 -3zM197 538l4 -3l5 -1l5 5l-6 4l-5 -1zM147 619l4 -4l5 1l4 3l-6 5h-5zM157 609l4 -4l7 -1l-2 3
l-2 7l-4 1zM347 159l4 -4l4 -1l2 5l-2 4l-5 -1zM359 230l2 -5h6l-4 8h-4v-3zM351 247l1 -2h2l2 2l2 5h-4zM280 409l1 -4l6 -1l-4 3l-1 6z" />
    <glyph glyph-name="Z" unicode="Z" horiz-adv-x="628" 
d="M66 48l17 26l21 23l15 26l19 26l16 20l21 24l17 23l18 26l19 27l30 39l31 43l20 32l21 24l17 22l20 28l15 23l20 23l18 25l13 22l19 27l24 27l20 35l-5 19l-24 10l-36 2l-29 2l-35 -1l-31 -2l-29 -2l-34 1l-31 -3l-28 3l-29 2l-34 -1l-26 -3l-32 3l-20 14l20 13l26 1
l58 -2l28 3h30l31 -2l34 1l29 -1l29 1l32 -1h31l35 3l41 -1l36 1l29 -9l6 -14l-15 -27l-21 -30l-15 -21l-20 -20l-18 -25l-13 -30l-20 -22l-18 -23l-18 -20l-19 -25l-15 -28l-23 -20l-15 -27l-18 -23l-14 -20l-18 -23l-23 -32l-28 -35l-21 -33l-18 -21l-17 -23l-19 -23
l-18 -25l-19 -23l-7 -27l4 -17l25 -8l33 2l29 1l33 2l38 -1l38 2l74 -3l25 3l29 -1l30 -2l36 4l30 -4l11 -12l-12 -14l-46 -2l-32 -3l-48 3h-61l-33 -5l-28 4l-28 2h-32l-30 -4h-31l-31 2l-35 -1l-31 5l-19 16zM482 680l1 -5l10 1l1 3l-1 6l-9 2zM174 169v-4l4 -1l4 4l-2 6
l-8 -2zM310 20l4 -5h8l3 4l-5 1l1 1l-8 -1h-3zM251 21l3 -6h8l1 5zM412 497l3 -2l3 1l4 2l-1 4l-7 -1zM515 658v-3l3 1l5 1l-2 5h-5zM433 17l2 -2l6 -1l-2 4l-1 1l-6 1zM451 688l4 -3l2 -1l4 5h-2zM471 581l-6 -6l5 -1l2 5zM458 690l1 -1l1 1h-2zM465 574v1v-1z" />
    <glyph glyph-name="bracketleft" unicode="[" horiz-adv-x="340" 
d="M135 -109l-4 30v28l2 31l-1 27l3 32v29l1 29l-2 42v41l-1 41v59l-1 31l2 27v32l1 28l-2 33l-1 28l1 32l1 29l2 29l-2 37l2 47l1 37l6 35l17 21l28 8l24 -2l30 -4l11 -15l-15 -15l-33 -8l-28 -23l-8 -30l1 -28l-2 -32l1 -30l1 -32l4 -31l-1 -28v-28l-1 -27v-35l-2 -27
l1 -32l2 -29l-2 -29v-31l-1 -29l1 -31v-25l3 -30l1 -33l-3 -27l-1 -34l-3 -29l2 -24l-1 -32l13 -31l22 -21l30 -15l19 -10l-8 -12l-28 -6l-30 -1l-29 11l-22 19zM141 -50v-12l4 1l5 4l-4 7h-5zM147 173l1 -5l5 -1l4 4l-5 6h-6zM155 403l3 -5l4 1l2 8l-8 -1zM154 242l4 -4
l5 1l-1 6l-4 2zM144 82l5 -4h2l7 5l-5 1h-2zM149 128l2 -1l6 4l-2 3l-6 2v-8zM146 192l3 -4l2 -1l5 5l-5 1l-3 2zM145 -49l4 -3l5 1v3l1 1l-4 1zM148 289l1 -1l3 1h4l-3 5l-6 -1zM141 -20l1 -1v-1h1l-1 1l6 3l-2 5h-2zM149 250v-2l8 2l-5 5l-1 -1z" />
    <glyph glyph-name="backslash" unicode="\" horiz-adv-x="514" 
d="M426 -118l-16 31l-9 25l-11 29l-12 26l-13 34l-13 23l-13 31l-14 27l-10 25l-9 29l-11 26l-11 29l-14 29l-13 27l-26 52l-11 30l-9 27l-15 30l-10 28l-12 29l-11 26l-10 28l-13 33l-13 24l-11 26l-10 26l-11 29l-13 28l-17 27l-12 27l-9 29l10 12l16 -11l18 -29l15 -31
l7 -25l12 -25l10 -28l12 -26l13 -29l12 -28l11 -28l18 -27l13 -31l7 -26l11 -31l12 -28l15 -28l9 -26l14 -24l11 -30l10 -27l12 -27l14 -30l10 -26l12 -28l14 -27l13 -30l9 -25l12 -30l11 -28l15 -28l11 -26l13 -29l9 -31l10 -27l-8 -13l-12 16zM420 -90l6 1l2 2l-2 4l-2 -1
l-6 -2zM252 302l4 -1l1 3l1 5l-8 -2h3z" />
    <glyph glyph-name="bracketright" unicode="]" horiz-adv-x="340" 
d="M205 671l4 -30v-28l-2 -31l1 -27l-3 -32v-29l-1 -29l2 -42v-41l1 -41v-59l1 -31l-2 -27v-32l-1 -28l2 -33l1 -28l-1 -32l-1 -29l-2 -29l2 -37l-2 -47l-1 -37l-6 -35l-17 -21l-28 -8l-24 2l-30 4l-11 15l15 15l33 8l28 23l8 30l-1 28l2 32l-1 30l-1 32l-4 31l1 28v28l1 27
v35l2 27l-1 32l-2 29l2 29v31l1 29l-1 31v25l-3 30l-1 33l3 27l1 34l3 29l-2 24l1 32l-13 31l-22 21l-30 15l-19 10l8 12l28 6l30 1l29 -11l22 -19zM179 232l5 -4l7 -1l4 4l-5 4h-7zM183 321l1 -3h8v3l-1 4h-7zM181 261l4 -3l3 1l4 1l-1 4l-5 -1zM181 200l4 -2l4 -1l1 5l1 1
l-4 -1z" />
    <glyph glyph-name="asciicircum" unicode="^" horiz-adv-x="518" 
d="M95 425l10 24l16 33l18 21l17 26l12 27l19 32l10 27l12 31l21 25l24 18l29 -14l23 -28l20 -46l21 -41l16 -28l10 -26l17 -30l13 -28l18 -24l11 -29l-8 -13l-15 15l-14 25l-12 22l-19 25l-12 28l-13 28l-28 53l-13 25l-13 29l-16 15l-20 1l-19 -20l-26 -50l-14 -30
l-14 -26l-8 -21l-17 -28l-27 -54l-15 -26l-19 -14l-3 16z" />
    <glyph glyph-name="underscore" unicode="_" horiz-adv-x="527" 
d="M76 -104l28 2l25 5l30 -5l27 -2l30 -1l31 3l32 -2l25 4l37 -2h47l38 -1l26 -3l14 -9l-15 -14l-29 -4l-35 5l-41 -3l-40 2l-26 3l-31 -1l-32 -3l-28 -2l-30 5h-87l-13 13zM413 -120l10 -3l4 4l-3 7l-8 -1l-6 -4zM325 -120h8l2 3l-1 4l-6 -1l-5 -5zM353 -119l1 -1l-3 5h-5
l-2 -6l2 1z" />
    <glyph glyph-name="grave" unicode="`" horiz-adv-x="234" 
d="M115 649l-13 22l-11 23l-11 27l1 24l22 -9l12 -26l15 -25l10 -27l10 -28l-6 -17l-14 12z" />
    <glyph glyph-name="a" unicode="a" horiz-adv-x="649" 
d="M190 3l-45 14l-34 23l-22 22l-11 27l-9 38l3 41l8 40l11 23l20 19l26 20l29 14l40 4l49 10l51 3l34 -2l32 -3l39 -9l44 -6l20 31l6 41l-9 40l-9 29l-17 23l-23 22l-29 13l-25 8l-40 9l-48 -5l-40 -1l-26 -3l-34 -9l-28 -6l-29 -11l-20 3l8 15l25 18l28 9l29 3l25 6l29 8
l36 -2l48 1l37 -4l28 -10l24 -10l28 -14l20 -19l22 -22l9 -26l9 -28l5 -36l1 -43l-1 -36l3 -34l1 -28l-1 -26l-3 -28v-27l3 -39l6 -41l22 -21l48 -8l22 -8l-27 -13h-52l-36 14l-15 28l-9 39l-7 4l-23 -16l-21 -21l-24 -21l-25 -13l-29 -9l-28 -11l-85 -3zM321 28l28 8l26 16
l25 11l21 18l20 21l18 27l11 27l3 33l-5 30l-15 22l-26 9l-26 7l-31 7l-31 4l-34 5l-48 1l-66 -15l-29 -14l-23 -13l-20 -27l-13 -33l3 -41l11 -36l16 -25l18 -21l25 -11l29 -10l34 -5l44 3zM481 94l1 -1l4 6l-5 5l3 5l-2 2l-4 1l-5 -5l2 -3l-4 -5v-4zM94 98l1 -5l6 -1l5 5
l-3 8h-8zM481 197l5 -4l6 -1l3 6l-5 5l-2 -1zM512 39l4 -6l5 -1l3 4l-4 7zM235 507l1 -4l5 1l3 2v7h-3l-5 -4zM486 256l1 -3h6l3 3l-7 5l-3 -2v-3zM91 149l5 -6l2 -1l1 11l-4 -1zM83 115l4 -2h2l6 4l-6 2h-4zM444 93h8l1 4l-2 5zM474 144l3 -1h6l1 3l-5 2h-4l1 -1zM497 146
v-3h6l1 4l-3 3l-2 -1zM82 143l4 4l-4 5l-4 -1zM164 495l3 -2l4 1l1 1l1 3h-9v-3z" />
    <glyph glyph-name="b" unicode="b" horiz-adv-x="681" 
d="M285 0l-51 15l-26 14l-34 8l-24 -8l-18 -22l-8 1l-4 24l-2 34v26l-5 32l3 30v30l5 30l-5 32l2 28v30l1 40l-2 39l-2 40l-1 36l2 28l4 30l-1 33l-2 30l1 29v27l-8 34l-26 23l-34 11l-20 14l19 10l33 6l34 2l28 -15l11 -34l-1 -47l-1 -40l1 -29l-5 -33l4 -48l-3 -40l5 -30
l10 -4l16 18l23 25l33 28l38 22l70 9h48l43 -4l52 -20l26 -16l24 -20l18 -23l15 -28l13 -25l12 -30l7 -31l3 -41l1 -42l-3 -37l-8 -27l-10 -28l-15 -29l-16 -29l-16 -23l-22 -15l-24 -19l-28 -17l-41 -13l-44 -10l-50 2zM410 29l30 6l27 15l49 37l19 22l13 25l10 29l5 33
l8 37l1 46l-8 38l-5 27l-9 27l-15 26l-18 25l-20 24l-22 18l-24 12l-30 10l-34 5l-47 -2l-38 -4l-28 -14l-24 -14l-23 -20l-19 -21l-16 -23l-14 -26l-16 -33l-5 -27l-9 -39l1 -43l2 -43l8 -50l14 -41l26 -27l25 -15l33 -8l33 -11l37 -9l43 2zM244 477l2 -6l7 -1l7 7l-4 4
l-6 2l6 1l-5 1l-10 -6zM141 397l5 -6l8 -1l3 8l-1 3h-11zM541 407l6 -6l4 -1l6 7l-6 4h-2zM94 716l3 -5h4l7 5l-6 5h-6zM218 441l1 4l8 4l-5 4l-6 1l-3 -8zM126 391h1l6 1l5 4l-3 4l-10 -1l-1 -2zM128 402l-1 -1l6 1l2 2l-3 7h-7l1 -4zM497 61l-11 -10l8 1l7 6zM125 382
l3 -1l4 -1l4 4l-5 3l-5 -1l-1 -1v-3zM132 455l5 -4l5 -1l-4 10v1zM446 24l1 -3h4l7 4l-6 3zM444 497l3 -6h8l-1 4l-9 3zM126 482l1 -1h4l2 4l-1 5l-4 -2l-3 -2zM153 403l5 -2l5 1v1l1 4l-6 1v-1zM333 505l5 -4l4 1l5 1l-5 3l-7 1zM487 41h4l2 4v3l-6 2v-9zM175 413l3 -2h6v3
l-3 1l-5 1l-1 -2v-1zM387 13l1 -2l6 -1l-2 3l-1 4l-6 -1zM135 372l3 -1h6l-3 3l1 3l-5 -2zM234 34l4 -3h2l4 1l-10 5v-3zM128 424v-3l5 -1l-1 5l1 3l-4 -2zM135 382l3 -1l2 -1l1 4l3 2l-4 1zM568 144v-3l4 1h-1l3 5l-8 -2zM451 29l1 -1l1 1h-2z" />
    <glyph glyph-name="c" unicode="c" horiz-adv-x="592" 
d="M286 1l-31 7l-29 6l-30 17l-47 35l-19 20l-20 28l-15 28l-13 28l-8 30l-5 36l2 47l5 37l5 32l11 30l13 23l17 26l21 18l38 28l39 22l24 8l34 9l40 4l38 -1l35 -2l35 -6l45 -13l33 -16l7 -22l-19 -9l-24 15l-24 12l-27 6l-49 5l-59 4l-38 -8l-30 -7l-28 -15l-21 -16
l-24 -21l-15 -24l-16 -23l-14 -28l-5 -32l-6 -36l3 -42l1 -39l5 -32l12 -21l17 -29l15 -20l22 -19l23 -20l27 -16l29 -7l28 -9l40 -5l43 -2l37 6l32 9l30 10l32 5l16 -6l-12 -17l-30 -13l-27 -7l-25 -10l-25 -4l-39 -3l-44 2zM333 2l9 1l5 5l-3 4l-7 -1l-5 -5zM133 406l3 -4
l7 1l1 6l-2 4l-2 -2l-1 2l3 2h-6l1 -3l2 -1h-1zM362 6l4 -4l4 1l4 4v5h-6zM241 495l5 -3h4l7 4l-4 4l-9 -3zM305 501l3 2l6 -1l1 5l-3 3l-6 -1l-3 -2zM79 232l2 1l6 6l-2 5l-6 -2v-10zM186 466l1 -4l6 -1l2 4l-2 4l-8 -1zM83 304l4 -2l3 -1l5 4l-2 4l-7 -2zM103 317l2 -5
l1 -1l4 10l-1 -2l1 5h-3zM246 26l1 -4h6l1 2l-1 4l-4 1zM224 485l2 -3l7 5l1 3l-7 -1l-1 -1zM115 403l2 -1l5 -1l2 3l-3 5zM113 145l4 -3l6 2l-2 5zM86 247l1 -5l3 1l4 4l-5 2h-4z" />
    <glyph glyph-name="d" unicode="d" horiz-adv-x="703" 
d="M263 -1l-41 13l-38 14l-28 23l-19 17l-21 20l-15 26l-10 32l-9 29l-5 28l-5 37v43l2 36l9 29l11 27l12 26l17 24l18 23l22 26l21 17l27 12l29 9l31 5l36 5l43 5l40 -5l30 -10l33 -12l24 -9l26 -7l20 6l6 26v66l4 29l-5 30l-9 30l-23 25l-55 20l16 15l39 3l32 -1l27 -10
l10 -34l-1 -43l1 -37l-2 -29l3 -32l2 -31l-4 -31l-1 -26v-30l2 -26l3 -36l-3 -28l-1 -26v-32l-1 -30l4 -30l-3 -37l-1 -47l5 -42l23 -46l41 -25l23 -9l-26 -11l-44 -3l-36 14l-13 30l-6 43l-7 21h-5l-19 -23l-21 -24l-19 -18l-23 -21l-27 -17l-31 -6l-38 -4l-44 -2zM383 34
l40 20l28 22l23 22l18 28l18 40l9 36l5 31l4 37l2 46l2 36l-9 37l-19 35l-22 26l-31 19l-25 10l-34 7l-37 7h-44l-41 -9l-29 -7l-29 -16l-21 -14l-23 -21l-19 -19l-14 -29l-10 -26l-9 -31l-4 -36v-44l10 -67l9 -30l25 -41l26 -34l25 -15l27 -14l29 -8l32 -9l47 1zM537 119
l1 -6h10l1 6l-5 5h-1l5 5l-4 4h-5l-3 -4v1h-8l-3 -3l7 -4l6 2h2zM517 698l2 -5h8l1 -1l6 2l3 5l-1 4l-5 -2l-7 -3l3 2l-7 2zM116 387l3 -4h8l3 4l-6 4h-7zM81 237l1 -4l6 -1v7l-1 6h-7zM247 498l2 -5l8 1l1 4l-5 4h-6v-4zM397 28l2 -5l4 -1l5 4l-3 6l-4 -1zM95 317l4 -4h3
l2 10l-1 1l-6 -1zM188 476l1 -3h4l6 3l-5 5l-8 -1v-2zM546 250l2 -7h4l-1 5l2 7l-7 1v-6zM545 617l4 -4l6 -1l-3 10l-5 -1zM535 388l5 -5l4 1l5 2l-4 3l-6 2zM296 6l4 -3l4 -1l4 4l-3 3l-7 1zM87 307l3 -4h6l2 3l-3 4h-4zM536 167l4 -4l4 1l4 2l-4 4h-4zM546 366l4 -3h6v2
l-2 4l-3 2zM508 142l7 1l4 4l-3 4zM309 507v-4l7 1l-1 3l2 3l-9 -1zM529 197l1 -4h6l1 4l-3 3l-2 -1zM497 115l3 -2h2l6 3l-6 4zM528 155l2 -2l5 -1l2 5l-5 2v1zM546 216l4 -3l4 -1l2 5v1h-6zM539 177l1 -4l4 1l2 6h-8zM83 272l1 1l4 5l-2 1l-6 1z" />
    <glyph glyph-name="e" unicode="e" horiz-adv-x="630" 
d="M285 -3l-33 8l-30 8l-28 17l-31 22l-36 32l-23 28l-13 28l-13 42l-11 51l3 48l4 37l9 30l9 25l14 28l16 25l29 33l37 29l22 10l30 10l26 11l38 1l48 5l38 -5l32 -10l36 -13l37 -24l24 -22l14 -27l14 -26l12 -35v-28l3 -27l-9 -36l-27 -23l-34 -3h-30l-28 -4h-27l-32 -2
l-26 4l-40 -2l-46 1l-39 4l-23 -1l-31 -3l-32 -6l-19 -23l2 -30l6 -31l12 -29l16 -24l22 -19l21 -20l29 -15l57 -19l40 -4l45 -2l41 3l28 11l30 11l30 7l21 -6l-13 -23l-35 -12l-26 -9l-33 -5l-40 -3l-50 1zM166 275l84 -3l39 2l25 -2l27 -3l33 1h28l32 -1l29 4l30 6l23 24
l10 29l-5 27l-5 28l-13 25l-15 22l-21 24l-24 10l-25 14l-32 7l-34 3l-54 -3l-47 -7l-34 -14l-25 -19l-23 -19l-16 -26l-15 -20l-8 -26l-9 -31l-3 -26l18 -20zM101 321l2 -6l7 -1v8l1 8l3 3l-4 2l-5 1l-6 -5l4 -6zM80 249l5 -4h6l1 1l2 -1l7 -1l2 4l-3 6h-8l-1 -3l-2 2
l-6 -1zM428 491l5 -6l9 -1l4 6l-1 2l-13 4zM131 409l3 -4l5 1l5 3l-2 6h-6zM170 458l4 -3l7 1l3 4l-2 4l-7 -1zM105 374l6 1l4 5l-6 8l-1 -1zM103 259l1 -4h8l1 5l-5 4l-2 1zM151 446l3 -1h8l1 6l-2 1l-4 1zM94 354l7 1l3 4l-5 7zM321 509l4 -4h6l2 3l-4 4l-4 -2zM100 299
l4 -4l3 -1l1 5l1 4l-7 -1zM359 4l3 4l-3 2l-4 2l-3 -3l2 -3zM91 268l4 -3h2l5 4l-3 3l-5 -2zM490 268l5 -3l5 1l3 2l-1 2h-5zM92 217l3 -2l5 -1l2 5l-2 2l-3 -1zM85 299v-4l4 -1v4l1 5h-7zM484 37l1 -2h6v2l-2 4l-4 -1l-3 -1zM244 497v-2l6 1l5 4h-6l-8 -2zM85 307v-2h2l5 4
l-1 2h-8zM302 508l2 -3h4l2 5v1l-7 -2zM99 367v-1l1 1h-1z" />
    <glyph glyph-name="f" unicode="f" horiz-adv-x="357" 
d="M135 37l-3 28l2 31l-3 29v61l3 29l-3 30l-1 30l4 30l-3 33l2 58l2 30l-12 34l-19 23l-27 12l-15 11l12 11l28 7l23 31l6 44l7 36l14 31l17 22l22 21l29 14l22 8l40 8l45 2l44 -12l12 -13l-17 -8h-39l-48 -1l-39 -6l-26 -18l-21 -22l-13 -26l-13 -39l7 -45l26 -24l35 -9
l31 -2l29 -6l18 -8l-13 -5l-33 -4l-31 -2l-32 -8l-28 -23l-8 -30l-1 -29l2 -31l-2 -32l1 -33v-58l-3 -34l1 -31l3 -27l-3 -35l-1 -31v-60l-13 -24l-14 1zM184 500l5 -5l8 1l3 3l-3 5l-7 1zM127 478l2 -3l6 1l2 4v5h-1l-3 1l-4 -1h3l-3 -2zM147 551l2 -6l6 1l5 4l-3 3l-6 1z
M176 490l3 -5l5 1l4 2l-1 5l-6 1zM117 520l2 -5l4 1l7 3l-5 4h-7zM156 507l4 -2h2l6 3l-2 5h-6zM146 459l3 -4l6 1l3 3l-3 4h-5zM155 499l4 -4h4l4 5l-4 3l-5 -1zM173 474h-4l-4 -6l5 -2l8 5zM205 508l4 -3l7 1v3l-5 5zM168 530l2 -5h6l3 4l-5 2l-4 2zM146 380l4 -5l5 1l1 4
l-1 1l-4 2zM139 528l1 -3h6v4l-3 2l-5 1zM149 399v-4l4 1l4 4l-3 2l-3 1zM135 454l2 5l-1 5l-6 -1zM138 499l2 -4h2l6 3l-2 2h-8v-1z" />
    <glyph glyph-name="g" unicode="g" horiz-adv-x="610" 
d="M212 -216l-27 5l-30 4l-31 10l-26 16l-25 20l-11 19l-11 34v46l9 36l15 30l25 21l23 23l9 38l5 50l8 38l-2 29l-20 21l-19 23l-14 22l-8 23l-11 36l2 38l7 38l9 29l21 20l19 24l36 24l42 15l31 2l35 6h45l33 -7l40 -5l46 -1l32 1l27 9l31 2l20 -8l-10 -13l-30 -9l-25 -4
l-8 -19l12 -16l13 -23l14 -27l1 -36l-5 -39l-4 -36l-8 -29l-15 -22l-16 -20l-29 -20l-27 -13l-26 -12l-28 -4l-38 1l-43 -2l-45 -2l-36 -9l-17 -25l3 -40l21 -27l23 -6l39 -5l50 1h48l43 -3l33 -4l28 -5l26 -10l25 -15l16 -21l8 -30l-1 -46l-7 -35l-11 -24l-19 -24l-25 -14
l-26 -11l-28 -10l-32 -12l-25 -5l-35 -6h-37l-43 -2zM385 214l27 13l24 20l15 19l18 30l6 32l3 42l-11 39l-16 25l-18 21l-23 17l-27 12l-29 2l-40 9l-42 1l-38 -6l-28 -7l-27 -15l-24 -16l-19 -18l-16 -26l-7 -35v-46l5 -40l14 -23l20 -21l29 -17l24 -10l27 -10l40 -2l58 3
zM331 -184l31 1l29 10l29 7l30 17l23 20l20 25l9 35l-4 43l-11 26l-23 16l-31 7l-35 5h-73l-35 4l-50 1l-29 -3l-46 -1l-31 -13l-21 -21l-17 -24l-6 -31l1 -45l12 -33l20 -19l25 -14l29 -10l72 -9l45 3zM200 199l7 -7l9 1l6 6l-5 1l-11 4zM92 350l5 -8l5 1l3 13l-10 -1z
M162 187l5 -5l6 -1l3 7l-3 5l-4 -1zM153 476l5 -4l5 -1l5 6l-4 3l-8 2zM72 -113l5 -5l7 -1l1 1l-2 11l-4 -1zM165 166l3 -4l4 1l7 3l-3 5l-9 1zM505 -105l3 -3h8l3 5l-6 5l-3 -1zM497 -117v-1l8 -1l3 8l-5 4h-2v-1zM517 -82l1 -6l5 1l2 4l1 5h-9v-4zM494 -135l4 -3l5 1l2 3
l1 5h-6zM454 466l4 -4l6 1l3 2l-6 2l5 4l-10 -1zM416 495l2 -3l8 -1l-2 5l-1 3l-6 2zM114 257l4 -5l8 1l2 2l-6 2l-3 3v1l-2 -1h2zM486 352h2l4 -1l3 4l-1 4l-7 1zM394 496l5 -4l6 -1l1 6l-4 1l-1 1zM133 237l5 -5l8 1l-3 1l-3 6v1zM451 452h3l2 5l-4 3l-3 1l-1 -5zM348 196
v-4h4l2 4l2 3l-9 1zM524 512l-6 -1l-3 -6l12 3zM458 486l1 -4l5 -1l3 5l-4 2h-3zM66 -44l3 -4l4 -1l4 4l-6 2l-2 1zM505 -16l4 -2h2l5 2l-5 4l-2 1zM479 -158l2 -1l4 4l-3 5l-3 -2v-6zM473 446l4 -4l6 1l-8 6l-1 2zM89 382l4 1l2 2l-4 5l-1 -2h-3zM273 -208l2 3l-4 4l-6 -3
l5 -2zM158 173l1 -1l5 1h1l-1 5h-3zM306 -195l2 -3l5 1l5 3zM486 -155h-1l1 -1v1z" />
    <glyph glyph-name="h" unicode="h" horiz-adv-x="691" 
d="M543 13l-16 32l-2 47l-3 38l-2 33l2 30l-1 33l1 34v39l-2 41l-6 36l-10 30l-14 24l-20 23l-24 21l-25 10l-40 10l-81 -9l-23 -10l-22 -17l-23 -22l-15 -24l-14 -27l-15 -27l-8 -29l-10 -27l-4 -26l-5 -33l-5 -31l-1 -37l-2 -45l3 -37v-30l-3 -34l-11 -23h-14l-8 25l1 34
v29l-3 30v34l4 28l-5 30l2 32l3 27l-2 32v59l-3 32l3 32l-2 29l2 29l-1 29l2 29l-1 33l1 28l-3 33l-9 29l-24 24l-35 11l-17 11l20 13l30 4l35 2l28 -15l10 -24v-31l-2 -29l1 -28v-65l1 -45l2 -35l-3 -29l-3 -28l4 -30l4 -16l5 16l16 28l9 24l16 25l26 20l25 17l22 15l27 14
l41 4h40l38 -8l24 -9l23 -14l22 -13l23 -19l15 -27l16 -30l3 -25l1 -34l3 -46l3 -38l-4 -35l2 -32v-56l-1 -42l4 -38l27 -25l39 -9l23 -9l-24 -15h-50zM137 461l3 -3l8 -1l-1 4l-1 3l-2 3h-6zM539 263l1 -5h8v4l-3 3l2 3l-9 -1zM128 400l2 -2h4l4 3l-2 6l-8 -1l-1 -4z
M529 308h7l4 3l-2 5l-7 -1zM158 331l2 -3l8 1l-2 4l2 2l-8 2zM130 496v-8l6 -1l4 5l-3 3h-6zM548 31l2 -3l5 1l1 3v3l-8 1v-5zM136 243l5 -5l2 1l5 2l-1 4l-8 -1zM95 721l5 -3h8l2 3l-2 2zM359 512l1 -4l8 -1l2 6zM178 374l2 -6l3 -1l1 10v2l-4 -2zM538 172l3 -4l3 -1l1 1
l3 4l-5 2zM141 351v-3l2 1l4 3l-2 4l-6 -1zM138 521l3 -3l4 -1l-2 2l3 4v1h-6zM139 220l2 -2l4 -1v4l-1 4h-2zM140 309l1 -1l4 1l-1 1l3 3h-8zM217 441l4 -3l1 -1l1 6l4 2l-4 -1z" />
    <glyph glyph-name="i" unicode="i" horiz-adv-x="320" 
d="M160 15l-16 31l-4 43l-3 42v29l-1 29v28l3 29l-1 31l-3 33l3 24v32l2 33l1 29l-10 30l-26 20l-34 14l-14 15l16 7l31 5l32 2l31 -8l4 -30l2 -27l4 -29v-29l-5 -35l3 -28l-1 -26l2 -34v-28l-5 -25l4 -33l1 -32l2 -30l-5 -35l10 -35l21 -27l38 -6l23 -8l-25 -12l-49 -6z
M124 659l-1 51h54l1 -54zM149 403l5 -5l5 -1l6 5l-6 3l-5 2zM146 447l4 1l3 6l-2 2h-8l-1 -2zM142 481l2 -3l5 1l3 4l-4 3l-4 1zM154 421l1 -3l5 1l-2 1l3 4l-6 -2z" />
    <glyph glyph-name="j" unicode="j" horiz-adv-x="298" 
d="M19 -212l-27 11l-1 16h30l36 3l38 4l21 22l14 23l8 26l5 29l2 42v43l1 30l-3 30l1 27l-4 28l3 28l2 31l-3 43l-2 45v30l6 32l-1 27l-1 29l-5 29l2 29l-14 28l-38 18l-33 10l-4 13l38 5l33 1l34 -4l16 -16l4 -32l4 -64l-1 -25v-33l-2 -32l1 -32l-2 -28l2 -46l-1 -48l1 -31
l1 -27l-2 -30l-2 -32l2 -32l-1 -43l-2 -44l-6 -36l-9 -28l-9 -25l-21 -24l-25 -17l-41 -5zM125 657v52l52 3l1 -54zM137 480v-4l9 -1l4 6l-7 7l-5 1l-4 -8l-2 -1h5zM152 112l6 -6l6 1l2 4l-2 4h-6zM155 79l4 -3l6 -1l-1 5l-1 2l-6 2zM147 426h7l3 3l-3 5l-2 1zM150 265l4 1
l4 3l-2 4l-4 2zM151 296l4 -1l2 6l-5 5zM150 -122l-1 -2h2l4 3v2h-8z" />
    <glyph glyph-name="k" unicode="k" horiz-adv-x="577" 
d="M432 9l-23 10l-27 18l-24 24l-19 26l-14 31l-13 26l-10 29l-14 31l-24 16l-24 3l-29 -6l-28 -5l-20 -24l-6 -35l2 -26l-5 -34v-28l-2 -36l-14 -21h-13l-2 28v29l-4 60v34l3 36l-3 42v67l1 29l3 33l1 32l-3 28l1 33l-2 33l-4 24l2 30l-1 30l2 31l-3 31l-8 31l-28 26
l-32 12l-19 12l18 9l33 5l35 -2l29 -10l9 -24l4 -30l-1 -33l-3 -28l1 -32l2 -27v-32l1 -27l-2 -29l1 -34l2 -27l-3 -44v-46l8 -33l21 -21l33 -6l27 1l28 6l50 22l24 12l25 23l23 16l22 22l14 25l15 28l10 24l3 33l10 30l13 23l13 -1v-29l-2 -31l-11 -31l-9 -25l-10 -31
l-23 -29l-30 -37l-32 -25l-22 -22l-19 -34v-32l9 -31l12 -30l17 -26l15 -26l22 -19l28 -15l37 -6l41 -9l18 -9l-21 -15h-45zM151 245l5 -5h8l1 6l-5 3h-3zM134 245l3 -5l4 1l5 3l-6 2l-5 1zM113 713l4 -3l6 -1l2 4l-4 1l-6 1zM134 224l3 -4l4 -1l4 4l-6 3l-1 -1zM136 454
l1 -4l4 1l5 1l-3 4h-6zM129 497l1 -4v-4l4 1l1 3l-3 6zM138 311l-1 -1l3 -1l4 3l-3 4l-6 -1zM135 523l2 -3l2 -1l5 4l-5 3v1zM317 192v-2h6l-1 4l1 2h-4zM143 657l2 -7l3 1l-3 9zM138 382l-1 -2l5 -1l-2 4l3 2l-5 1v-4zM145 661v-1l2 2z" />
    <glyph glyph-name="l" unicode="l" horiz-adv-x="299" 
d="M143 14l-12 30l-8 45l1 39l-1 29l-2 33l4 27l-4 32l-1 29l1 31l2 32l-2 32v53l2 32l-1 32l-2 28l1 27l4 34l1 32l-5 25l-8 33l-22 23l-39 11l-15 14l17 13l31 1l37 -1l24 -8l12 -32v-45l1 -38v-33l1 -28v-28l2 -30l-2 -30l1 -29l-2 -30l-3 -32v-31l-1 -28l1 -30l2 -30
l-2 -27l4 -26l-4 -30l-1 -35l5 -34l8 -43l22 -22l40 -7l16 -8l-23 -15l-48 -2zM133 492l1 -3l8 -1v9l-9 1v-6zM142 462l2 -3l6 -1v10l2 1l-10 -1v-6zM133 412l1 -3l5 -1l2 5l-2 4h-6v-5zM140 243l5 -4h4l-1 8h-4zM142 522l3 -3l4 1l2 -1l-1 7l-2 -1l-1 1zM141 692l3 -3h5
l-7 9zM113 684h1l-1 6l-5 -1z" />
    <glyph glyph-name="m" unicode="m" horiz-adv-x="1011" 
d="M858 13l-13 32l-4 43l-1 40l-4 26v26l4 30l-2 26l2 31l-2 39l-3 42l-2 35l-6 29l-13 23l-19 22l-19 18l-27 12l-44 6l-29 -5l-43 -4l-26 -19l-23 -19l-17 -27l-12 -26l-12 -31l-7 -28l-7 -32l1 -37l-3 -44l2 -41v-27l-1 -31l-1 -33l-2 -27l-3 -32l-17 -26l-11 4l-3 26
l2 30l-1 28l-5 29l3 30v32l2 29l-1 32l1 29l-3 38l-3 49l-2 31l-13 30l-18 24l-17 19l-27 19l-34 6l-44 1l-31 -3l-26 -17l-23 -17l-19 -19l-19 -21l-13 -27l-9 -31l-7 -27l-3 -28l-4 -39v-43l1 -35l-4 -31l3 -31v-34l-1 -31l-2 -30l-17 -17h-15l-5 27v38l4 40l-1 42l1 29
l-2 30l-1 33l-2 30l4 30l3 27l-4 30l-1 31v31l-4 30l-28 24l-31 13l-16 10l11 10l38 7l34 2l26 -15l9 -25v-34l-4 -30l7 -16l11 12l13 31l15 25l26 19l23 17l28 6l38 5l41 2l36 -6l31 -14l23 -18l20 -21l15 -26l15 -24l15 -2l10 17l16 25l16 19l25 20l26 16l28 10l32 4l43 5
l35 -6l27 -15l23 -16l20 -19l19 -26l9 -27l8 -29l5 -43l1 -46l2 -36l1 -35l1 -28l-1 -34l-1 -32v-40l7 -38l20 -25l41 -5l23 -11l-24 -8l-49 -6zM143 451l3 -1h8l1 4l-1 5l-9 -1l-3 -2zM843 338l3 -8l7 -1v5l-1 6l-8 -1zM144 483l2 -3l5 1l5 2l-2 5l-8 1zM503 195l3 -5h8
l-2 4l-1 5l-6 -2zM523 393l4 -3h6l2 5l-2 2h-4zM505 294l1 -4l6 -1l3 4l-3 4h-5zM175 384l1 -4h4l6 6l-6 3l-4 -5l-3 4zM505 45l1 -5l4 -1l2 3l-1 5l1 1l-8 1zM848 210h4l5 5l-4 6l-2 -1zM823 445l4 -5h6l1 3l-2 3l-3 1zM503 74l4 -4l5 1l3 2l-2 3h-4zM854 304l3 -4l8 4
l-4 4l-4 -2zM155 404l1 -4l6 1l1 3l-3 4h-2zM421 496l4 -6l6 1h2l-10 7zM147 389l5 1l1 3l1 4h-6zM135 471v3l-4 6v-1h-6v-1h-1zM214 442l3 -2h6l1 1l-5 5h-2zM149 370v-4l3 -6l2 -1l1 6l-5 5h-1zM514 244l2 -4l1 1l4 8l-3 2zM850 230h2l1 3l-3 6l-1 1l-2 -3zM517 352v-2h2
l6 3l-2 3h-4zM166 391l1 -1l5 1l1 2l-2 3h-4zM856 321l1 -1l6 -1l1 3l-5 3l-2 -1zM163 353l4 -3l2 1l4 6l-4 -1zM838 423l-1 -3l6 -1l-3 4l3 2l-7 1zM224 462l3 -2l2 1l5 3l-5 3l2 -2z" />
    <glyph glyph-name="n" unicode="n" horiz-adv-x="712" 
d="M563 15l-18 35l-6 45l2 34l1 42l-2 44l2 41l2 40l-3 47l-9 38l-7 25l-26 34l-31 34l-26 14l-35 3h-48l-35 -6l-26 -10l-24 -20l-19 -18l-17 -25l-15 -25l-15 -27l-12 -28l-7 -29l-5 -32v-27l-1 -32l-3 -36l1 -43l-6 -49l-6 -47l-11 -30h-10l-5 25v32l-5 32l1 29l3 29v32
l-2 30l-2 29l1 26l4 34l-1 27l-3 32l2 37l-8 51l-29 34l-33 7l-18 13l20 11l34 1l34 -1l25 -9l9 -18l-2 -30l4 -29l-1 -29l-5 -28l6 -10l12 10l10 31l17 26l14 21l47 40l22 16l50 10l61 5l36 -4l27 -10l23 -11l25 -22l17 -22l16 -20l12 -24l8 -34l2 -35l-1 -48l3 -36l-1 -29
l-2 -35l3 -31l-2 -31l3 -38l5 -39l25 -26l35 -7l22 -5l-24 -15l-47 -2zM147 416l3 -7l6 -1l4 6l-5 5l-7 -2zM548 108l9 1l1 6l-2 4l-5 2zM178 334l2 -5l5 -1l3 6l1 1l-5 2l-3 1zM556 143l4 -4l4 1l3 1l-2 3v4l-3 -1zM551 148l5 1l1 5l-1 4h-5v-10zM143 458v-10l5 1v6l-2 4z
M201 370l-1 -1l3 -1l2 9l2 3h-6v-10zM140 483v-4h4l3 5l-3 3l-3 -1zM560 122l1 -3l5 -1l-1 2v5l-5 2v-5zM129 491l2 -2l3 1l4 3l-3 2h-5zM438 501l3 -2h2l4 4l-6 3zM337 502l4 -3l6 -1l-2 4v2h-4z" />
    <glyph glyph-name="o" unicode="o" horiz-adv-x="666" 
d="M272 -1l-28 6l-28 13l-32 12l-19 17l-25 18l-20 27l-14 21l-16 29l-8 26l-7 32l-2 33v89l9 24l9 30l16 26l12 27l21 25l22 18l27 18l25 11l54 19l42 1l46 2l34 -5l32 -6l26 -11l26 -12l27 -18l24 -23l15 -20l34 -54l8 -29l6 -32l4 -35l1 -44l-3 -35l-10 -31l-12 -26
l-13 -30l-13 -23l-19 -24l-22 -20l-28 -15l-25 -12l-28 -14l-34 -6l-29 -4l-45 1zM390 31l30 7l25 11l25 21l24 18l20 24l14 27l10 29l10 28l3 40l2 47l-6 39l-6 25l-14 26l-16 28l-19 26l-21 19l-24 20l-24 13l-31 12l-35 3l-48 -3l-37 -6l-30 -8l-27 -14l-28 -14l-22 -22
l-14 -27l-15 -24l-13 -28l-7 -34l-5 -36v-45l5 -35l2 -29l17 -32l17 -24l17 -23l20 -22l28 -16l34 -14l54 -13l51 -1zM567 290l2 -6l8 -1l1 7l4 1l-3 6l-10 -2zM556 204h3l9 -1l3 8l-6 3h-7zM434 488l5 -4l8 -1l1 6l-3 2l-7 4zM342 4h1l3 -1l4 7l-6 4h-6l-1 -6zM95 318l5 -4
h7l-2 2l2 5l-3 3l-1 -1l2 4l1 1l-5 1l1 -2l-1 -4zM247 497l3 -3h4l6 3l-2 6l-8 -1zM265 20l5 -6h4l8 4l-6 3l-5 1zM99 145l1 -1l6 -1l2 6l-3 4l-7 2l1 -4v-6zM157 448l3 -4l6 1l1 4l-3 4l-6 1zM566 319l4 -5l8 -1l1 3l-5 6l-4 -1zM507 87l3 -3l5 1l3 4v3h-10zM81 234h6l2 5
l-4 5l-4 1v-11zM527 109l3 -5h4l3 5l-3 4l-4 -1zM82 214h5l2 6l-1 5h-4zM127 409l4 -5l2 1l5 2l-1 3l-6 2zM89 336l1 -2l7 -1v4l-3 7l-1 -2zM140 436v-2h4l5 3l-5 6v1zM507 77l4 -3l4 -1l2 3l-4 4h-4zM88 308l3 -4h6l1 2l-1 4l-5 -1zM538 387l3 -3l4 -1l1 5l-1 4l-2 -1z
M89 249l2 -5h6l-1 4l-2 2l-4 2zM558 185l3 -1l6 -1l-1 2l1 4h-8zM177 455l4 2l4 3l1 4l-6 -2l-4 -5zM364 6l4 1l-5 3l-3 2l-2 -6l4 -2zM310 509v-5l5 1l1 2l-1 3l-7 1h-1zM472 47l-1 -3l4 -1l3 3l-3 2l-6 2zM550 131l-2 -3l1 -5l6 9zM531 125l4 -1l5 4l-6 1z" />
    <glyph glyph-name="p" unicode="p" horiz-adv-x="707" 
d="M140 -182v33l1 31l-3 31v27l5 30l-2 31l3 31l-1 46l-3 46l2 31l-1 31l-1 29l3 31l-2 28l2 29l-4 31v32l-1 34l1 27l-8 32l-21 23l-34 14l-18 8l16 11l31 5l32 1l29 -12l7 -28l3 -26l5 -21l12 -5l15 19l18 20l21 15l24 16l24 10l33 11l38 1h39l51 -8l44 -16l45 -30l20 -16
l19 -26l15 -26l28 -54l7 -28l1 -34l-2 -48l-3 -37l-9 -31l-4 -29l-15 -25l-18 -27l-18 -17l-23 -20l-25 -19l-27 -14l-27 -10l-28 -9l-39 -1l-85 5l-25 8l-34 8l-24 12l-29 9l-19 -10l-5 -27v-32l1 -26l2 -46l-4 -27l-2 -46l-11 -36l-12 6zM435 28l29 10l29 8l22 19l23 23
l18 26l12 24l15 26l5 33l7 37v46l-8 39l-9 31l-10 28l-12 24l-18 22l-22 23l-22 18l-27 12l-28 8l-36 9l-48 -5l-39 -1l-28 -9l-23 -17l-23 -19l-19 -21l-14 -22l-18 -27l-10 -27l-4 -38l2 -47l-1 -35l-4 -32l-1 -27l7 -35l15 -40l30 -28l30 -15l29 -12l25 -11l40 -2h47z
M576 385l7 -7l8 -1l5 4l-7 12l-4 1zM544 434l1 -3v-3l6 1l4 3l-2 6h-1l-2 3l-1 5l-5 -1l-2 -4l4 -4l-3 2zM550 83l4 -5l6 -1l3 5l1 3l-2 6l-7 -2zM253 28l2 5l-2 6l-10 -1l-4 -5zM490 478h1l5 4l-3 4l-8 -1l-2 -2l-1 -4zM151 367l2 1l2 7l-2 6h-7zM230 460l4 -2l8 1l1 4
l-3 4zM605 182v-4l7 -1l1 6v3h-6zM153 283l2 -5h4l4 3l-2 6l-4 -1zM161 31l5 -3h6l-2 4v2l-2 2zM133 469l2 4l-4 7h-6zM152 222l4 -4l4 -1l4 4l-6 3zM142 501l4 -3l6 -1v3l-2 4l-6 -1zM174 372l2 -4l5 1l2 4l-2 2h-4zM206 418h4l3 5l-1 2h-6v-7zM432 501l4 -3l5 1l3 2l-5 2
l-1 1zM164 389l4 -2l3 2l1 3l-5 2zM603 249l3 -1h6l1 2l-4 3l-3 2l1 -4zM543 72l3 -4l2 1l6 1l-6 3v1zM585 130l1 -2h6l-2 3l2 3l-6 -1zM149 327l2 1l1 6l-1 2l-3 2l1 -4v-7zM267 479l-1 -1h6l-3 2l3 2l-6 2zM165 310v-1h1l-1 1l2 6l-3 -1zM169 308l-3 1v-1h3z" />
    <glyph glyph-name="q" unicode="q" horiz-adv-x="685" 
d="M525 -181l-2 30l3 30l-1 28l2 42l-1 47l-1 36l-1 30l-3 24l-13 4l-15 -17l-20 -22l-19 -16l-38 -21l-41 -12l-39 -6l-42 1l-36 3l-24 6l-31 8l-26 13l-21 18l-21 25l-16 21l-15 25l-15 31l-7 27l-8 24l-4 38l-1 45l4 34l16 62l16 26l17 32l29 33l29 21l26 11l31 9l30 11
l33 2l47 -1l25 -1l43 -7l30 -12l33 -15l35 -15l22 19l10 20l14 -4l7 -21v-30l-2 -29l1 -31l2 -43l-2 -44l-6 -36l2 -27l-2 -34l4 -30l1 -32l-2 -28l1 -31l-2 -28l1 -31l2 -36l2 -60l-1 -28l-4 -35l1 -30l-7 -27l-10 -25l-14 5zM386 30l30 16l23 11l24 25l22 24l32 74l6 44
l5 46l1 34l-7 24l4 32l-6 30l-17 38l-23 26l-27 14l-34 12l-30 9l-38 5l-63 -5l-49 -8l-31 -12l-24 -18l-19 -20l-19 -25l-10 -24l-11 -31l-9 -30l-4 -41l-2 -45l5 -37l7 -30l7 -28l18 -27l40 -44l24 -14l27 -14l31 -12l34 -2h42zM117 117l7 -7l8 -1l3 4l-5 6l-3 5l-2 2z
M533 -80l2 -10l8 -1l5 6l-6 7zM498 449l5 1l3 6l-2 6l-7 -1l-5 -6zM223 491l-7 1h-2l-2 -7l4 -4l12 5zM531 85l5 -5h8l1 3l-4 7h-6zM135 93l1 -3l7 1l4 3l-3 6h-9v-7zM543 -77l3 -3l8 -1l2 6l-2 3l-10 -1zM542 414l4 -4l5 1l5 2l-3 6l-9 -1zM371 502l5 3l-2 6l-6 -2l-5 -3
l1 -3zM98 149l5 1l2 4l-3 6h-5zM134 425l3 -5l6 -1l1 6l-5 3h-1zM274 503l2 -3h4l2 4v5l-6 -2zM86 191l5 -1l4 3l-6 5l-4 -1l1 -2v-4zM85 214l2 -4l6 -1l2 4l-6 3h-4v-2zM96 204v-4l6 1l2 4l-4 4l-2 -2zM94 223l2 -3l6 1l-2 8l-2 -1zM544 14l3 -4h2l6 3l-6 3l-2 -1zM526 96
l-4 4l-6 1l-4 -3zM84 253l3 -3h6l-3 3l3 1l-4 2zM109 131l3 -10l2 4l-2 7zM487 462l1 -1l5 -1l-2 4v1l-6 1l2 -3v-1zM113 120h-1h1z" />
    <glyph glyph-name="r" unicode="r" horiz-adv-x="397" 
d="M132 36l-1 33l-2 39l-2 44v32l3 29l2 60l-1 36l-2 29l-2 32v36l-3 45l-23 28l-24 14l-12 10l11 14l29 2l28 -2l22 -11l7 -20l3 -32l3 -16l13 12l14 24l21 22l29 15l33 10l48 -3l20 -15l-20 -6l-45 -7l-34 -8l-27 -15l-18 -28l-17 -26l-7 -29l-10 -24v-37l-1 -49l-3 -35
l-1 -32l5 -28l1 -27v-30l-1 -32l-5 -31l1 -30l-11 -23l-19 3zM129 479l3 -3h4l4 3v5l-5 1l3 2l-5 -2h1zM148 400l4 -4h4l2 4l-1 3l-7 2zM151 379l2 -3h6l1 5l-3 3l-6 -1v-4zM133 457l5 -1l2 5v3h-6l-4 -5zM159 419l3 -3l8 -1l-1 5l-2 3l-7 -5l2 6zM153 179v-3l5 1l1 -1l1 3
l-2 2h-4zM133 485l-1 1z" />
    <glyph glyph-name="s" unicode="s" horiz-adv-x="543" 
d="M200 1l-56 7l-45 17l-20 21l15 6l28 -8l75 -15l53 -6l46 1l39 4l27 8l26 19l27 18l9 34v40l-10 39l-19 19l-21 14l-29 11l-30 3l-32 8l-45 11l-34 10l-26 5l-55 29l-17 22l-19 24l-6 31l2 41l7 32l10 25l24 19l24 13l28 10l31 6l34 4l48 -3h34l31 -1l26 -9l29 -7l31 -14
l18 -23l-20 -9l-31 8l-30 14l-29 9l-29 5h-35l-47 -1l-35 -4l-29 -8l-19 -10l-25 -25l-10 -32l-1 -40l7 -28l46 -34l27 -12l30 -7l31 -10l45 -7l36 -8l27 -11l29 -12l25 -17l20 -19l15 -25l10 -30l1 -42l-12 -41l-14 -22l-28 -16l-22 -16l-24 -12l-37 -7l-33 -7l-47 2z
M432 154l3 -4h10v11l-12 1l-1 -6v-2zM113 327l1 -3l5 -4h6l2 4l-2 6l-12 1v-4zM101 354l4 -4l9 -1l-5 11l-4 2zM333 13l3 -3l6 1l1 4l-1 5l-3 -1l1 -1l-7 -1v-4zM254 263l2 -3l7 -1v6l-3 3h-2zM433 73l4 -3l4 -1l2 5l-4 3l-4 1zM443 95l3 -5l6 1v7l1 1l-7 -2zM104 452l3 -2
l2 -1l4 3v5l-6 -1zM294 2l3 -2h5l3 4l-3 1l-7 1zM106 424v-4l5 -1l1 7l-1 1l-7 1zM414 53l3 -3l4 -1l3 2l-1 4l-6 1zM124 473l3 -3l3 -1l4 2l-5 4h-4zM416 60l7 -1l1 6v3zM96 362l1 -2h6l-2 2l2 2l-8 2zM233 500v3l-3 2l-2 2l-3 -3l1 -2z" />
    <glyph glyph-name="t" unicode="t" horiz-adv-x="406" 
d="M205 6l-23 9l-18 17l-20 29l-6 27l-6 36l-4 46l2 40l3 30l-5 34l2 28l-1 32l-1 31l2 30l1 28l-7 31l-19 27l-28 13l-17 13l15 10l30 9l21 22l8 37l5 48l9 21l16 -15l2 -27l-3 -34l7 -31l24 -19l26 -11l45 4l45 1l28 -9l14 -10l-14 -10h-27l-39 1l-42 -4l-34 -5l-21 -21
l-9 -29l3 -28v-31l-2 -27l-1 -28l-1 -33v-29l1 -28l3 -30l-1 -34l6 -46l4 -39l11 -25l28 -21l34 -10l39 -1l35 3h29l19 -11l-16 -13l-32 -7l-34 -2l-46 3zM144 539l3 -4l8 -1l1 5l-1 5l-8 1zM146 359l1 -4l8 -1v6l-1 3l-9 1zM130 466l3 -1l5 5l-4 3h-3l1 1l-4 2l1 -1l-4 -6z
M180 521l6 -6h6l5 1l-16 8zM153 489l4 -4h4l2 4v3l-6 2zM115 510l2 -5l5 1l3 4l-10 5v-5zM133 518l5 -3l3 -1l5 5l-6 2l-2 2zM139 336v-2l-1 -8l7 -1v5l-4 5zM147 478v-3h4l2 5l2 2l-10 1zM156 497l2 -2l4 -1l2 5l-2 2l-3 2zM137 487l1 -2l4 -1l2 3l-1 4h-6v-4zM167 519
l1 -4l5 -1v5l-1 2l-4 2zM316 18l1 -3l7 -1l3 4h-11zM117 498l1 -3h6l-3 2l2 4l-7 -2zM100 496l2 -1v3l2 2h-4l-3 -2l3 -4v2z" />
    <glyph glyph-name="u" unicode="u" horiz-adv-x="709" 
d="M254 3l-33 7l-32 31l-33 36l-15 30l-10 29l-2 39l-3 45v35l1 31v28l1 27l1 28l3 32l-1 27l-8 28l-21 25l-34 11l-16 13l15 13l28 5l34 -1l23 -10l10 -30l2 -26l2 -27l-1 -29l-4 -28l5 -29l-3 -28l-1 -32l2 -34l4 -32l-3 -44l9 -36l8 -27l10 -23l23 -23l22 -17l25 -14
l38 -5l43 3l39 4l27 11l23 18l24 22l17 23l12 28l26 61l7 25l2 31l2 40l2 46l2 38l3 24l1 31l-2 26l4 30l13 21l13 -4l8 -21v-33l2 -28l-4 -29l-4 -37l3 -46l3 -35l-3 -31v-25l-3 -31l1 -29l5 -31v-35l3 -41l22 -25l42 -7l21 -4l-26 -17l-45 -1l-36 12l-14 35l-6 44l-5 32
l-4 5l-13 -16l-14 -26l-16 -25l-22 -20l-22 -16l-28 -15l-28 -9l-42 -4l-44 2zM537 162l2 -5l3 -1h-5l1 -5l1 -4l4 1l3 1l2 -1l5 -2l-2 12l-3 -2v-4l-1 4l4 6l-6 6h-7zM536 214l2 -7h10l3 5l-5 7l-10 -1l1 3l-5 3v-1l-5 -4l3 -2h6v-3zM534 121l5 -4l7 -1l2 -9h6l4 10l-12 1
v2l1 6l-8 -2zM529 253v-6l8 -1l5 7l-6 6l-8 1zM544 292l4 -5l6 -1l2 13l-9 1zM245 23l4 -6h4l5 4l1 3l-5 3h-3zM388 20l1 -3l6 1l4 3l-5 5h-4zM146 402l3 -5l5 -1l1 6l-2 3l-6 1zM605 11h13l4 1l-1 1l-13 3l-4 -4zM516 182l4 -5l5 -1v9h-3zM546 312l3 -5l6 -1l-1 10z
M525 191l4 -4l5 1l2 8l-6 -2zM139 480v-3l7 1l2 2l-5 5l-6 -1zM525 132l7 -5l3 1l2 2l-4 5h-2zM568 32l1 -5h4l5 2l-5 5l-6 1zM466 80l4 -3l4 -1l4 4l-3 4l-3 -2zM495 140l5 -3l4 1l3 4l-1 1l-5 2l-2 -5h-4zM139 167h1l4 1l4 2l-4 4l-5 -2h-1zM547 70l3 -3l4 -1l2 3l-1 4h-4
zM508 161l2 -4l4 1l4 2l-6 4l-4 -1v-2zM517 169l3 -2h6l-2 3l-1 4l-5 -1zM230 30v-3h6l-2 4l2 3h-5zM111 498l-1 -1l5 -1l2 3l-4 2l-5 1z" />
    <glyph glyph-name="v" unicode="v" horiz-adv-x="604" 
d="M297 34l-14 26l-8 27l-11 26l-10 30l-18 26l-10 27l-10 35l-11 29l-12 28l-14 27l-10 33l-14 28l-7 25l-14 31l-19 30l-33 19l-32 12l-14 13l10 10l35 3l25 1l27 -9l17 -25l13 -25l12 -28l9 -32l14 -27l9 -26l12 -30l12 -27l10 -31l10 -25l7 -27l12 -27l12 -28l10 -29
l13 -28l13 -19h21l13 24l16 47l9 24l14 40l13 28l13 25l9 30l14 24l8 28l14 28l9 31l15 28l7 31l17 25l21 23l12 -4l-4 -24l-20 -54l-12 -28l-11 -27l-7 -26l-14 -23l-12 -36l-19 -39l-10 -34l-14 -27l-12 -29l-14 -27l-6 -30l-10 -23l-11 -30l-13 -27l-23 -20l-20 5z
M217 251l6 -6l8 -1l1 5l-5 6h-6zM139 459l5 -4h2l6 2l1 -3h2l1 2l-5 8l-4 -3h-3zM288 81l5 -6h8l-1 5l1 4l-8 -1zM123 489v-4l6 1l4 3l-2 5l-10 -1zM187 352l5 -7l6 -1l-6 14l-2 -2zM371 110l3 -5l1 1l4 2l1 -1l1 4h-2l-3 1zM204 309v-4l5 -1l2 3l-3 3l-6 1zM378 139l5 -4
l-1 2l4 8h-4zM140 470l3 -5h4l-3 9zM163 418l1 -3h5l-2 6l-3 2zM313 37l1 -2h6l-2 2l2 3l-4 1zM364 88v-3h6l-2 4l-2 1l-4 1zM312 65l10 1h-11zM306 71l5 -5l-3 5h-2zM144 475v-1l1 1h-1z" />
    <glyph glyph-name="w" unicode="w" horiz-adv-x="922" 
d="M279 55l-10 30l-9 29l-15 30l-8 29l-10 26l-12 32l-9 27l-11 27l-8 30l-15 30l-9 27l-12 29l-10 28l-21 30l-32 20l-37 15l-16 11l22 9l46 4l38 -7l17 -27l13 -30l7 -23l12 -27l10 -27l11 -31l9 -31l9 -28l9 -27l10 -22l8 -29l12 -30l6 -24l10 -30l10 -25l10 -30l12 -16
l11 16l8 31l12 26l11 34l17 43l6 37l6 27l17 42l13 40l13 26l12 31l5 30l6 29l17 24l19 17l24 -14l12 -31l7 -27l11 -30l5 -29l12 -28l11 -28l7 -27l12 -28l11 -24l7 -29l11 -33l7 -22l13 -31l10 -25l7 -31l11 -15l11 13l12 32l7 27l11 30l7 28l11 29l12 25l10 28l6 28
l12 25l13 28l13 35l10 43l10 37l16 30l16 17l11 1v-26l-11 -33l-7 -31l-14 -27l-5 -28l-8 -29l-14 -23l-11 -32l-11 -31l-10 -27l-10 -26l-14 -30l-7 -27l-5 -29l-14 -29l-7 -32l-16 -25l-28 -15l-24 15l-14 32l-8 30l-12 30l-9 25l-10 31l-11 30l-8 30l-11 29l-5 26l-12 25
l-12 31l-9 30l-13 29l-5 28l-9 13l-13 -12l-14 -31l-5 -25l-9 -30l-12 -30l-7 -28l-10 -28l-13 -30l-8 -28l-9 -33l-9 -30l-13 -25l-8 -37l-18 -43l-30 -25l-21 15zM216 256l6 -6l7 -1l3 5l-6 6l-6 -1zM599 195l2 -5h2l-2 -7l1 -3h8l-5 8l-2 2h3l-3 10zM187 357l4 -7l6 1
l-4 12l-4 -2zM370 165l2 -5h7v7l1 1l-10 1v-4zM608 143l4 -3h4l6 4l-6 4h-2zM148 466l3 -6l4 -1l-1 14l-2 1zM402 274v-4l6 1l3 2l-3 6l-8 -1zM176 385l6 -5l6 -1l-4 10h-2zM826 445l5 -5l4 11h-6zM274 99l4 1l1 4l-3 5h-5zM602 164v-4l5 1l3 2l-4 5h-6zM578 234l5 -4l3 1
l5 2l-6 3l-1 2zM108 480l1 4l-2 6l-4 -2l-2 -5zM632 100h4l1 8h-7zM741 202l1 -2h1h-1l5 2l1 5h-5zM793 351v-1l3 1l2 3l1 2h-5z" />
    <glyph glyph-name="x" unicode="x" horiz-adv-x="575" 
d="M460 10l-28 19l-22 27l-25 37l-22 33l-15 25l-15 21l-17 18l-22 17l-25 -2l-36 -29l-20 -22l-25 -38l-17 -22l-22 -25l-19 -22l-26 -28l-29 -19l-10 9l6 21l17 23l22 25l19 25l19 23l18 24l23 23l17 23l20 21l12 30v37l-13 34l-18 25l-17 20l-17 28l-20 22l-17 25l-24 23
l-37 19l-33 13l-7 10l15 11l41 -3l37 -17l24 -21l15 -25l16 -24l22 -22l17 -27l17 -21l18 -24l19 -18l26 3l27 17l19 25l16 20l20 21l18 24l19 29l15 20l23 24l34 17l10 -4l-11 -20l-16 -24l-21 -22l-18 -24l-16 -22l-20 -26l-36 -46l-19 -19l-15 -30l-4 -32l12 -31l20 -25
l18 -22l17 -24l22 -33l23 -34l27 -29l27 -15l36 -9l18 -12l-18 -11h-39zM379 124l3 -6l6 -1l3 5l-1 6h-10zM229 327l4 -3l2 -7l5 1l4 5l-7 4l-5 2zM144 454l7 -6l7 -1l-7 13zM260 281l2 -3l8 1l2 2l-6 5l-2 1zM451 31l1 -3h8l-1 5l-1 2l-6 2zM309 253l3 -5l6 -1l-2 8h2l-4 1
zM388 112l5 -4h2l7 3l-7 4v-1zM193 388l4 -1l4 4l-2 4l-6 -1v-6zM401 102l1 -4l6 1l4 1l-7 5h-2zM121 483l1 -5h8l-6 7zM370 151l2 -3l6 -1l-4 8zM74 500l-1 -2h2l3 3l1 2l-8 -1z" />
    <glyph glyph-name="y" unicode="y" horiz-adv-x="632" 
d="M253 -188l12 27l10 28l9 27l12 28l12 21l12 33l1 43l-12 29l-12 32l-13 27l-13 26l-12 25l-10 33l-12 23l-10 26l-16 32l-10 23l-11 29l-15 23l-8 28l-12 30l-15 28l-19 26l-30 23l-38 11l-18 14l21 9l52 -4l38 -20l21 -30l12 -25l9 -27l24 -53l13 -27l11 -25l17 -34
l14 -42l13 -34l12 -24l22 -54l12 -29l8 -25l13 -14l11 14l11 31l11 25l13 24l13 26l9 29l14 31l17 41l12 34l12 24l9 30l15 26l7 26l13 30l12 26l9 24l20 21l10 -2l-1 -26l-10 -30l-10 -27l-9 -29l-14 -23l-12 -32l-11 -28l-9 -25l-11 -27l-13 -29l-19 -45l-19 -44l-9 -23
l-11 -31l-12 -28l-10 -28l-7 -29l-15 -23l-12 -30l-15 -29l-9 -26l-10 -29l-13 -30l-15 -26l-21 -23l-19 3zM519 430l3 -1h8l2 6l-6 3l-1 2v-3zM509 410l3 -1l4 -1l6 4l-2 6l-4 -1zM238 253l5 -4h6l-2 1l-2 6l-1 1zM147 464l4 -5h3l-4 11zM201 320l2 -1h6v3l-6 3zM371 31
l2 -2l1 2l4 5h-7v-5z" />
    <glyph glyph-name="z" unicode="z" horiz-adv-x="524" 
d="M70 47l19 29l19 25l17 21l21 22l17 22l18 26l30 34l29 31l18 26l20 21l17 26l18 23l22 25l31 30l29 37l8 27l-13 16l-20 3l-30 4l-37 -5l-54 3h-55l-38 -4l-35 2l-29 3l-19 11l10 10l28 5l33 -3l30 1l26 1l40 -3h43l35 2l32 -1h26l29 3l32 -1l20 -5l6 -15l-11 -31
l-18 -26l-33 -32l-27 -39l-18 -19l-23 -27l-19 -23l-16 -22l-23 -23l-26 -33l-29 -37l-20 -26l-17 -19l-16 -23l-21 -24l-19 -21l-11 -23l10 -20l39 -3h54l44 -1l43 4l43 1l38 -5l47 -5l22 -10l-19 -9l-28 -5l-30 -1l-31 4l-31 -1l-29 -4l-31 -1h-29l-28 6l-45 -4l-77 5
l-20 16zM410 468l5 -3l6 -1l5 6l-5 5h-6l-1 -4zM212 210l3 -5l6 -1l5 5l-6 4l-3 1zM433 477l3 -2l4 -1l3 3l-1 5h-8zM415 499l1 -4l4 -1l3 6l-2 1h-7zM295 507v-2l5 -1l4 3h-9z" />
    <glyph glyph-name="braceleft" unicode="{" horiz-adv-x="346" 
d="M237 -168l-32 5l-28 14l-23 21l-12 24l-8 38l-1 45l1 40l5 29l4 30l2 33l2 40l-2 43l-8 33l-15 23l-30 12l-26 5l-13 13l13 10l26 10l23 7l22 21l10 32l2 47l-5 41l-5 30l-1 32l-3 29l-2 42v44l8 36l15 29l21 17l58 20l33 -1l15 -15l-14 -13l-35 -4l-28 -7l-22 -26
l-7 -35l-2 -46l-1 -43l1 -32l6 -60l4 -39l-2 -48l-5 -34l-18 -22l-20 -16v-15l17 -16l17 -24l13 -30v-47l-4 -37l-1 -34l-3 -28l-9 -33v-40l5 -49l8 -37l21 -25l30 -9l32 -6l13 -13l-10 -8zM165 428l3 -6l6 1v13h-8l1 2h-4l-1 -4l-1 -2h4v-4zM156 356l5 -4h6l3 3l-3 4h-8z
M145 237l5 -5l4 -1l4 5l-5 3l-5 1zM117 275l3 -3l4 1l3 3l-3 6l-4 -2zM148 325l2 -3h4l6 3l-4 4h-4zM137 316l3 -4l6 -1v5l-2 4l-1 -1zM157 525l3 -3l3 1l3 7h-7zM99 286l2 -4l2 1l7 2l-7 4l-4 -1v-2zM161 72l5 -1l1 6l-2 1h-6zM148 332h3l4 -1v3l-2 4l-4 1zM168 394l3 -2
l3 -1l2 8h-4zM161 185v-3l3 -1l3 5v4l-5 -2zM161 56v-4l3 -1l1 4l2 3l-7 1zM150 563l1 -1l5 -1l-2 4l1 3l-6 -2zM77 283l4 -1l2 1l3 3zM88 287l-2 -1h1z" />
    <glyph glyph-name="bar" unicode="|" horiz-adv-x="301" 
d="M136 -104l-4 27l2 30l-3 29l1 34l3 26l-5 33l5 26v29l1 30l-4 31l4 30l-3 28l4 30l-2 32l-1 28l-1 38l-1 37l2 31l-3 34l1 34l2 29l-3 32l1 32l2 29l4 31l-3 27l-2 32l1 26l13 15l14 -14l4 -28l-3 -29v-61l3 -33v-25l-1 -33l1 -30l1 -27l1 -29l-6 -29l5 -31v-26l-2 -37
l-3 -44l-1 -43l2 -32l4 -26l-3 -28l1 -32l1 -29v-26l5 -32l-5 -29l-1 -32l2 -28l2 -29l-5 -31l-1 -31l-11 -15l-13 15zM142 321l5 -4l8 -1l-1 10h-6l-2 -2zM146 21l2 -4h2l6 3l-2 1l-7 2zM139 -3h4l1 3l-1 4zM143 6v-2l1 1zM154 327v-1h1z" />
    <glyph glyph-name="braceright" unicode="}" horiz-adv-x="346" 
d="M109 -168l-32 3l-10 8l13 13l32 6l30 9l21 25l8 37l5 49v40l-9 33l-3 28l-1 34l-4 37v47l13 30l17 24l17 16v15l-20 16l-18 22l-5 34l-2 48l4 39l6 60l1 32l-1 43l-2 46l-7 35l-22 26l-28 7l-35 4l-14 13l15 15l33 1l58 -20l21 -17l15 -29l8 -36v-44l-2 -42l-3 -29
l-1 -24l-4 3v1l-2 -5v-3l5 -1l1 3v-6l-5 -30l-5 -40l-3 2l-2 1l-2 -6v-3l6 1l1 1l2 -44l10 -32l10 -10l-3 -1l4 -5h4v1l7 -6l23 -7l26 -10l13 -10l-13 -13l-26 -5l-30 -12l-15 -23l-8 -33l-2 -43l2 -40l2 -33l4 -30l5 -29l1 -40l-1 -45l-8 -38l-12 -24l-23 -21l-28 -14z
M233 288l5 -6l10 1l4 7l-5 5l-2 3l-5 2l-1 -5zM173 508l6 -6l7 1l6 4l-7 6l-6 2zM175 217l5 -5l4 1l3 4v5l-5 -1zM187 165l3 -3l7 -1l1 6l-3 4l-4 -2zM168 466l2 -4l4 1l5 5l-3 3h-4zM188 366l3 -4h2l5 2l-3 6l-6 -1zM168 186l3 -4l5 1l2 3l-3 4h-3zM177 585l4 -3l5 -1l1 3
l-1 3l-3 2zM168 83l3 -1h6l1 2l-1 3h-8zM188 554l3 -2h6l-1 1l-1 5h-4zM179 416l2 -4l5 -1v3l1 4l-6 -1zM171 205v-3l4 1l4 2l-4 4l-5 -2zM180 563l1 -1l5 -1l-2 4l3 2l-8 1zM231 296v-4l5 1l2 3l-5 2h-4zM189 105l2 -3l6 -1l-3 3l1 4h-3zM210 253l1 -1l5 -1l-2 3l3 2l-4 2z
" />
    <glyph glyph-name="exclamdown" unicode="&#xa1;" horiz-adv-x="273" 
d="M120 294l6 32l12 19l7 -21l2 -34l4 -26l-2 -31l1 -33l-2 -27l2 -31l-1 -31v-4l-2 2l-8 1l-4 -4l6 -6l4 -1l3 4v-19l3 -34l3 -30l2 -32l-2 -29l2 -25l2 -33l-4 -32l-1 -33v-29l-6 -21l-16 -6l-11 23l-5 31l-1 34l2 28l3 32l-4 58l2 31l3 32l-4 26v33l2 32l2 40l-1 42v42z
M116 514l36 3l4 -40l-39 -2zM135 -115l5 -5l9 -1v6l-2 5h-6zM129 295l2 -5l7 1l-1 3l1 5l-9 -1v-3zM128 -97l4 -3l2 -1l6 3l-2 4h-8zM137 194l4 -4h4l2 4l-2 5l-3 -2zM131 84l1 -4h2l5 2l-1 5l-5 1zM128 203l4 -3l6 -1l-1 5l1 2l-5 -1zM129 144l3 -4h2l4 2v5l-4 -1z" />
    <glyph glyph-name="cent" unicode="&#xa2;" horiz-adv-x="613" 
d="M313 50l-25 22l-29 16l-31 11l-24 12l-26 16l-28 19l-20 25l-16 24l-19 26l-8 31l-8 26l-6 38v49l2 39l12 31l10 29l13 24l20 26l24 19l21 20l27 21l29 7l25 13l33 12l23 23l10 27l10 18l8 -15l12 -28l22 -24l23 -8l28 -2l27 -8l31 -13l22 -15l8 -21l-14 -2l-28 11
l-25 10l-23 6l-28 5l-35 2l-48 -2l-36 -6l-27 -6l-25 -16l-26 -15l-25 -22l-16 -25l-18 -23l-13 -25l-9 -28l-1 -43l2 -42l1 -39l6 -24l10 -25l17 -27l18 -27l22 -17l27 -17l20 -15l29 -12l29 -10l38 -3l45 1l41 6l28 9l33 4l29 12l19 -6l-16 -16l-23 -18l-38 -7l-45 -11
l-34 -7l-19 -20l-9 -29l-16 -17l-8 16zM89 406l2 -2l4 1l3 1l2 -2l7 -1l-1 5l3 2l-1 2h-9l-1 -4v-1l-5 4l-1 -1zM328 618l2 -4h8l3 5l-3 4l-10 1v-6zM94 330l6 -6l6 -1v8l-1 4l-7 -1zM328 80l2 -6l8 -1l3 6l-4 3l-9 1v-3zM326 598l4 -4l7 1l2 2l-3 4l-7 2zM118 456l3 -2
l2 -1l5 5l-2 4l-7 -1zM100 417v-3l6 1v8l-8 -1zM279 588l2 -4h6l2 3l-2 4h-4zM100 258v-4l8 1l1 2l-4 4h-7zM266 578l5 -4h2l3 4l1 4l-7 -2zM318 624h8l2 5l-2 4l-2 -2zM310 597l1 -3h2l7 4l-3 3h-4zM90 308l1 -4h6v4l-4 3l-2 1zM89 368l2 -4l5 -1v6l-7 2v-3zM101 426v-2
l6 1v1l-4 6l-4 -1zM351 597v-3l4 -1v4l1 5l-3 -1zM103 455l2 -1l5 4l-7 2v-5zM441 105l-1 -1l8 1l1 4l-1 -2z" />
    <glyph glyph-name="sterling" unicode="&#xa3;" horiz-adv-x="592" 
d="M89 33l19 14l23 17l17 26l15 23l9 25l4 38l1 50l-1 34l-15 31l-31 23l-28 11l-16 10l14 3l21 9l12 26l2 25l-8 26l-7 41l3 41l5 39l18 62l17 24l23 21l25 15l28 17l39 10l48 6l49 3l42 -3l27 -8l36 -13l11 -19l-16 -8l-30 5l-28 8l-41 6l-56 -2l-53 -10l-33 -17l-21 -18
l-23 -25l-15 -28l-12 -25l-4 -38l1 -45l3 -37l5 -30l17 -27l28 -24l36 -1l28 -5l31 4l28 4h32l29 -3l28 -2l17 -10l-22 -12l-47 -3l-34 1l-28 2h-29l-29 3l-27 -8l-16 -22l-1 -30l8 -37l-5 -46l-2 -36l-7 -29l-13 -26l-20 -22l-13 -23l3 -14l24 -4l31 2l28 -2l28 4h32l28 -1
l35 -2l58 2l37 -3l49 -2l12 -8l-10 -12l-35 -6l-27 3l-28 -3l-31 -3l-30 2l-37 2l-53 1l-72 -2l-43 3l-27 -1l-35 2l-15 13zM143 396l2 -1h6l5 4l-1 3l-2 5l-10 -1l2 -2l-2 -4v-4zM152 329l4 -4l7 1l1 4v6l-10 -2zM164 360l2 -5l6 -1l4 4l-5 7l-7 -2v-3zM203 330l3 -5l5 1
l2 4l-3 3h-2zM183 347l4 -2l4 -1l4 5l-2 1l-2 2l-2 -1zM153 348l4 -3h6l1 4l-5 2l-2 1zM204 318l3 -3h6l1 5l-2 1l-3 1zM331 19l5 -4l6 -1l3 5h-14zM145 448l1 -3h3l3 9h-5zM142 468l4 -3l4 1l-1 7l-1 1zM136 339l1 -4l5 -1l1 3l-2 5l-6 -2zM196 646l-1 -1l10 -1l-1 7l2 2z
M186 236l1 -1h6v5l-4 2l-2 -2zM138 497l-1 -2l4 1l3 1l-3 4l-6 -1zM215 657l2 -2l4 1l2 1l-2 4l-2 -2h-4l2 -1zM305 686v-1l6 1l6 3z" />
    <glyph glyph-name="currency" unicode="&#xa4;" horiz-adv-x="759" 
d="M98 108l19 25l21 21l19 25l4 38l-7 30l-12 30l-5 46l2 50l2 43l8 29l12 33l-1 36l-20 25l-22 23l-17 18l-4 21l18 -3l22 -16l19 -21l24 -14h32l26 11l25 9l26 11l31 8l36 1l77 1l25 -12l29 -10l29 -9l27 -12l29 -2l28 16l41 41l18 7l-5 -21l-18 -22l-23 -21l-16 -26
l-2 -41l8 -34l6 -33l4 -40l-2 -45l-3 -39l-10 -36l-2 -33l4 -32l26 -38l29 -35l2 -18l-13 2l-24 18l-21 19l-23 16l-35 -2l-26 -10l-28 -10l-23 -11l-31 -6l-35 -2h-39l-39 1l-29 7l-25 8l-24 16l-27 12l-35 -3l-24 -15l-21 -18l-19 -17l-19 -3zM440 137l30 13l24 10l25 18
l21 22l17 26l14 25l9 34l4 39l3 48l-3 39l-9 27l-16 30l-17 26l-23 22l-27 19l-27 16l-25 3l-41 6l-55 -3l-52 -10l-32 -16l-25 -15l-25 -24l-14 -24l-13 -31l-8 -29l-7 -40l1 -47l5 -38l6 -28l16 -29l14 -22l26 -25l49 -28l26 -9l38 -10l49 2zM569 224l-4 -1l5 1l2 3l1 -3
l9 -1l-1 5l1 3h-6l-4 -2l-4 2zM220 537l4 -4h8l-2 4l2 4h-10zM541 176l3 -3h8l-1 4l-3 5h-5zM182 486l2 -3l7 -1l1 6l-4 3l-4 1zM160 267l3 -4l4 -1v12l-4 -1zM551 203h11l1 3l-4 5h-1zM597 382l4 1l-2 1l1 10l-5 2zM564 487l1 -4h2l7 3l-5 5l-2 -2zM584 185l1 -2l5 1h1
l-1 5h-6v-4z" />
    <glyph glyph-name="yen" unicode="&#xa5;" horiz-adv-x="694" 
d="M253 165l28 3l33 -3l33 3l22 -1v17l-1 35l-1 15h-29l-28 -2l-28 3l-27 2l-17 11l12 6l41 4l40 -2h34v2l-11 39l-16 36l-16 23l-18 29l-14 27l-16 22l-15 29l-14 23l-16 25l-14 25l-18 30l-25 36l-29 36l-41 23l-53 22l15 12l35 5l31 -9l36 -21l21 -24l17 -24l17 -23
l12 -26l17 -25l17 -26l12 -24l15 -27l17 -26l14 -29l19 -21l16 -27l18 -17h26l25 35l23 30l16 30l16 21l9 28l17 24l14 25l16 26l14 27l18 27l12 21l18 28l30 19l14 -7l-7 -24l-14 -25l-19 -22l-17 -26l-17 -24l-11 -25l-16 -27l-14 -23l-15 -29l-15 -24l-18 -24l-17 -24
l-11 -28l-15 -26l-17 -31l-12 -42v-5l14 -1h36l43 -1l24 -6l-13 -13l-32 1l-31 -1l-25 2h-17v-37l-3 -31v-2l19 1l31 1l27 -2h30l12 -13l-13 -5l-25 -7l-44 1l-35 -3l-5 -27l3 -30l1 -26l-6 -27l-9 -25h-20l-4 26l2 35l-3 33v25l1 19l-27 1l-31 -1l-29 1l-32 3l-16 10z
M569 601l5 -6l7 1l5 7l-2 6l-12 2zM262 490l3 -5h10l1 2l-6 9h-7zM221 549l5 -4l6 -1l2 6l-4 4h-2zM181 619l5 -4l4 1l6 2l-8 7zM433 368l4 -3l3 1l4 2l-3 5h-3zM386 160v-5l5 -1l2 6v2h-9zM392 140l3 -5h1h-1l6 8l-6 2zM385 249l2 -4h6l2 3l-6 3v1zM313 409l3 -4h7l-3 3
l-6 4zM379 235h3v4l2 5l-6 -2zM329 366l2 -1v3l2 2h-8l-1 -2z" />
    <glyph glyph-name="section" unicode="&#xa7;" horiz-adv-x="620" 
d="M263 -168l-60 10l-27 2l-28 6l-25 18l-9 21l15 8l41 -10l48 -14l42 -8l41 -5l38 1l39 -1l26 9l24 10l25 12l19 23l10 33l4 37l-13 31l-19 23l-26 18l-24 12l-29 13l-30 6l-25 9l-38 9l-45 14l-30 16l-31 13l-22 12l-29 15l-20 20l-18 30l-10 36l3 46l5 32l14 26l16 21
l22 23l18 16l2 19l-39 39l-18 25l-10 37l2 42l7 32l13 22l18 16l39 18l43 18l28 2l38 7l44 -1l33 -6l29 -4l25 -2l26 -4l31 -11l30 -11l10 -21l-20 -6l-30 7l-34 11l-30 6l-28 3l-40 4l-59 -3l-50 -6l-30 -10l-23 -15l-19 -15l-11 -37l-5 -37l12 -34l21 -21l26 -16l29 -10
l24 -13l25 -13l32 -10l38 -8l42 -10l43 -18l37 -22l35 -18l22 -20l15 -27l8 -36l1 -45l-4 -34l-11 -25l-20 -23l-23 -19l-17 -17l-5 -19l21 -18l17 -24l19 -24l11 -33l-1 -40l-4 -34l-19 -23l-20 -21l-24 -16l-22 -9l-31 -6l-30 -5h-34l-40 -4zM465 137l16 22l14 28l7 35
l-2 42l-10 37l-19 17l-19 20l-26 11l-25 16l-39 9l-42 16l-39 12l-28 7l-32 2l-42 -10l-41 -27l-15 -32l-8 -34l2 -41l9 -32l14 -26l23 -17l30 -18l25 -14l32 -8l45 -13l46 -12l46 -11l48 4zM186 426l6 -7l10 1l6 5l-4 9l-12 -2zM158 414l4 -5l10 -1l4 7l-2 8h-11v-2z
M475 30l6 -1l4 6l-4 8l-10 -1l-2 -4zM111 215l2 -6l7 -1l3 7l-1 5l-11 1v-6zM208 445l6 -6l6 -1l2 6l-3 6l-7 -1zM219 434l5 -5l7 -1v7l-2 2h-5zM101 235l3 -6l4 1l7 4l-7 5l-3 -2zM281 -160l2 3l-2 6l-9 -1v-6h2zM259 426l4 -7h10l-2 4l-7 2l-1 2zM503 -6l2 -5l3 -1l6 5
l-3 4l-5 -2zM350 -156h3l-3 6h-6l-2 -7l-3 -1zM142 484l3 -5l2 -1l7 4l-7 3l-4 2zM412 673l3 -4h6l1 2l-5 5h-4zM341 403l4 -4l6 -1l1 5l-5 1l-4 1zM251 418l1 5l-3 2h-6l1 -2v-3zM351 683l2 -4h6l2 3l-11 4v-2zM491 -68l4 -3h6l-1 4l-1 2h-3zM419 -148l3 1l-2 5l-4 -1
l-3 -5l-2 -2zM501 -48l4 -3l4 1l4 3l-4 3l-2 -2zM104 259h6l-3 6l2 2l-5 1v-9zM372 -152v-4l2 -1l7 2l-3 4zM313 681l2 -2h2l6 3l-2 2h-8v-3zM415 -138v-3l2 -1l6 3l-3 5zM432 63l2 1l6 -5l1 2l-2 6l-6 -1zM95 260v-1h2l3 1l1 4h-8zM307 -160l4 2l-1 3l-3 2l-2 -5l-3 -2h5z
M168 438l1 1l3 5l-1 3h-3v-9zM429 360v-1l2 2l-4 3h-4v-3zM371 -156l1 -1v1h-1z" />
    <glyph glyph-name="dieresis" unicode="&#xa8;" horiz-adv-x="436" 
d="M284 641l1 50l44 -2l4 -45zM102 645l4 47l44 -1l-1 -49zM303 653l5 2l-1 5h-10l-1 -6l1 -3z" />
    <glyph glyph-name="copyright" unicode="&#xa9;" horiz-adv-x="871" 
d="M371 -2l-28 8l-25 2l-30 14l-28 10l-24 14l-32 24l-35 31l-22 29l-17 22l-16 21l-11 26l-8 32l-9 28l-7 26l-1 38l-5 46l5 39l4 26l12 30l8 29l16 28l10 28l19 21l18 19l24 25l21 17l29 15l25 16l23 13l28 12l29 7l30 6l37 3l45 -2l38 -3l27 -2l30 -11l27 -6l31 -16
l26 -15l23 -17l21 -19l22 -17l18 -25l19 -23l12 -23l15 -27l11 -31l6 -30l5 -31l1 -37l4 -44l-3 -38l-9 -27l-4 -30l-10 -27l-31 -52l-16 -21l-18 -26l-18 -21l-26 -23l-24 -12l-29 -14l-25 -10l-27 -15l-28 -7l-31 -5l-39 -1l-44 -2zM488 12l33 10l29 11l24 9l28 12l24 15
l25 22l28 18l21 23l30 45l10 26l8 26l11 30l7 26l2 39l1 44l-5 39l-5 25l-8 27l-12 30l-14 23l-14 28l-19 24l-17 23l-23 22l-25 18l-23 16l-28 13l-28 5l-25 11l-29 8l-36 3h-46l-41 -3l-46 -16l-54 -20l-30 -19l-28 -16l-19 -20l-19 -22l-17 -22l-20 -28l-12 -25l-11 -30
l-9 -28l-7 -30l-2 -34l1 -50l3 -32l6 -27l6 -32l12 -26l15 -29l16 -21l15 -24l20 -21l26 -21l20 -18l24 -15l26 -11l29 -9l28 -11l31 -6l77 -7zM385 185l-29 11l-24 17l-19 20l-24 25l-10 32l-7 36l-2 43l10 41l11 26l21 27l18 24l26 17l31 7l37 6l49 4l37 -12l18 -12
l-16 -1h-49l-27 2l-48 -8l-27 -12l-23 -19l-16 -23l-11 -28l-10 -33l-3 -47l10 -36l14 -30l18 -23l23 -17l25 -15l41 -5l42 3l40 2l18 -6l-14 -12l-42 -10l-48 -1zM278 354l8 -1l4 5l-6 3l-6 -1v-6zM760 226v-3l4 -1v8l4 1h-10l-2 -2zM301 426v-3l6 -1l2 4l-6 3v1zM751 496
v-3h6l-4 1l2 3l-5 2zM101 461v-6l4 4zM101 455l-1 -1l1 -1v2z" />
    <glyph glyph-name="ordfeminine" unicode="&#xaa;" horiz-adv-x="589" 
d="M172 357l-29 15l-22 17l-11 38l2 42l9 37l19 15l26 17l29 13l38 4l77 -7l23 -8l30 3l17 22l-3 35l-7 36l-20 24l-24 12l-37 11l-43 -2l-53 -7l-46 -3l-16 -2l14 13l30 13l31 6l40 2l46 2l41 -7l30 -12l20 -22l17 -28l7 -35l3 -51l1 -51l3 -27l3 -54l14 -34l33 -18l14 -10
l-18 -5l-37 3l-26 20l-15 26h-11l-19 -20l-35 -19l-52 -12l-53 2zM300 373l27 18l25 18l16 24l16 34l-4 28l-19 18l-23 10l-28 4l-38 2l-41 4l-35 -7l-24 -11l-24 -18l-11 -28v-45l14 -28l25 -20l38 -9h49zM133 239l32 1l28 1l30 -1l47 -3l41 4l29 -2l30 -1l60 3l31 -5
l18 -12l-15 -10l-33 -3l-31 -3l-30 5l-26 1l-33 -1l-28 -3l-31 1h-27l-27 3l-31 -3l-34 3l-14 15zM124 459l-3 -11h1l5 3l2 3z" />
    <glyph glyph-name="guillemotleft" unicode="&#xab;" horiz-adv-x="459" 
d="M196 448l-11 -30l-11 -27l-19 -23l-16 -30l-16 -27l-9 -31l-1 -42l14 -33l15 -23l15 -26l14 -24l11 -27l16 -30l10 -23l-15 -1l-24 20l-15 22l-16 31l-11 27l-16 26l-15 31l-9 32l-2 44l11 31l16 29l12 25l15 28l16 30l17 28l23 18l10 -5zM371 443l-16 -25l-14 -26
l-16 -24l-12 -26l-11 -26l-13 -36v-38l12 -32l11 -27l22 -40l24 -41l14 -29l7 -22h-11l-20 19l-17 25l-18 29l-12 28l-14 27l-15 26l-9 36l-3 40l11 37l15 29l15 28l13 26l16 26l14 29l24 20l13 -4zM143 381l6 -1l-3 3l2 2l-3 2zM133 361h6l-2 3l-2 2v-1l-3 -1zM132 364v2
l-1 -2h1z" />
    <glyph glyph-name="registered" unicode="&#xae;" horiz-adv-x="871" 
d="M372 0l-26 4l-36 12l-44 10l-29 17l-24 21l-27 17l-18 24l-21 17l-13 25l-15 28l-18 29l-8 28l-11 27l-3 29l-4 40l2 41l3 39l4 26l8 32l12 26l11 28l16 28l18 25l16 20l19 23l24 15l25 20l30 11l27 13l26 13l30 2l29 10l34 3l44 2l35 -2l34 -10l29 -5l28 -14l26 -9
l29 -15l22 -19l20 -19l22 -21l20 -23l17 -24l15 -26l17 -25l7 -28l6 -25l10 -34l1 -37l2 -47l-8 -37l-3 -29l-7 -27l-9 -31l-14 -22l-15 -26l-20 -26l-14 -23l-21 -18l-24 -20l-26 -17l-25 -15l-24 -11l-30 -12l-32 -6l-63 -9l-44 3zM491 15l32 4l31 10l48 24l29 16l20 20
l24 16l20 24l18 20l13 24l16 27l12 32l9 27l3 27l-1 37l4 45l-3 40l-7 28l-4 29l-13 26l-14 26l-23 31l-29 33l-24 29l-49 35l-25 13l-26 10l-33 9l-27 3l-44 3l-28 3l-46 1l-30 -10l-31 -11l-24 -12l-34 -16l-38 -24l-27 -28l-18 -23l-18 -24l-14 -23l-25 -50l-8 -28
l-8 -32l2 -38l1 -43l2 -39l5 -28l11 -27l12 -26l11 -28l12 -29l18 -20l21 -22l21 -19l50 -32l24 -15l28 -7l27 -13l31 -6l34 -4l45 1zM532 192l-19 20l-17 28l-14 23l-17 27l-35 26l-48 2l-31 -20l-6 -30l-4 -27l1 -32l-8 -25h-10l-4 29l-1 37l3 39v40l-1 30l1 28l-2 27
l2 30l-8 29l-16 25l-11 16l16 7l30 1l35 3l98 -1l40 -4l29 -18l24 -21l14 -34l-1 -44l-9 -38l-23 -16l-22 -24l-12 -30v-29l12 -25l16 -21l27 -16l29 -7l14 -9l-10 -6l-31 2zM397 341l33 4h37l37 7l29 15l12 34l4 43l-13 34l-34 19l-45 8l-30 4l-28 -4l-30 -7l-20 -26
l-8 -32l5 -35l6 -32l21 -25zM477 330l4 -7l7 1l4 6l-3 3l-10 1zM500 338l2 -5l8 1v6l-6 2zM312 506v-3l6 1l4 2l-2 4l-6 1zM330 507l3 -4h6l-1 4l1 2l-5 1zM320 496l3 -3l5 -1l-2 4l3 2l-5 1zM353 506v-3l5 1l3 2l-5 2h-4zM222 71h-1l8 -8l-1 3z" />
    <glyph glyph-name="macron" unicode="&#xaf;" horiz-adv-x="493" 
d="M130 672l30 4l56 -1l32 -4h53l31 1l28 -1l13 -7l-13 -9l-28 -3l-32 1l-30 -2l-26 2l-28 -3l-31 -1l-26 -1l-33 5l-15 7z" />
    <glyph glyph-name="degree" unicode="&#xb0;" horiz-adv-x="461" 
d="M172 421l-32 14l-25 19l-20 21l-11 24l-7 35l1 47l9 35l8 30l21 23l25 15l28 16l37 7l45 -6l35 -2l31 -15l23 -18l21 -23l13 -29l6 -33l4 -46l-10 -33l-14 -24l-19 -27l-26 -17l-27 -15l-35 -7l-45 2zM279 445l28 13l20 21l12 26l13 32v43l-10 29l-16 30l-19 18l-23 14
l-33 8l-41 -1l-32 -7l-28 -13l-21 -18l-11 -26l-9 -33v-43l4 -35l17 -27l27 -19l45 -13l44 -2zM91 585l4 -3l6 -1v6l-3 -1h-4zM274 433v-1l5 -1l6 5l-6 -1z" />
    <glyph glyph-name="plusminus" unicode="&#xb1;" horiz-adv-x="599" 
d="M286 202l-2 33l4 30l-9 27l-26 23l-30 5h-33l-31 -1l-32 4l-21 8l21 11l31 1l32 2l34 -2l30 10l20 20l7 29l2 26l2 33l2 28l10 13l12 -16v-30l2 -28l-1 -27l9 -30l24 -19l29 -9l67 1l33 -5l15 -6l-12 -11l-35 -2l-31 -4l-34 2l-32 -6l-25 -22l-9 -32l1 -24l1 -29l-2 -30
l-12 -14l-6 13zM126 86l48 6l37 -1l32 2l25 2l27 -4l32 -1l29 4l30 -1l29 1l32 -4l29 -3l15 -6l-18 -10l-27 -5l-31 1l-28 1l-28 -3h-30l-30 2h-30l-30 -2l-32 2l-41 -3l-41 6l-16 7zM288 308l5 -4l7 1l1 3v6l-9 -1zM280 339l3 -5h4l4 8l-10 -1zM294 460v-6l5 -1l-2 12
l-1 -1z" />
    <glyph glyph-name="two.sups" unicode="&#xb2;" horiz-adv-x="333" 
d="M68 523l31 18l22 18l29 28l35 34l29 27l16 28l10 33l3 44l-11 31l-23 21l-31 10l-41 -5l-36 -7l-31 -14l-22 2l7 20l23 20l25 7l34 3l47 1l36 -10l28 -12l22 -28l7 -38l-1 -44l-4 -35l-15 -24l-21 -26l-19 -23l-26 -17l-26 -20l-23 -23l-18 -15l-3 -16l19 -4l35 1l28 -5
l27 4l30 -1l14 -15l-19 -7l-31 -6l-30 -1h-30l-31 1h-28l-31 1l-16 18zM81 813l3 -6h4l5 4v2l-3 5h-4zM102 820l4 -3l4 1v2l2 4l-8 -1zM243 802l2 -5l6 1l-1 1l-7 8v-5z" />
    <glyph glyph-name="three.sups" unicode="&#xb3;" horiz-adv-x="332" 
d="M94 482l-28 12l-11 14l17 7l20 -6l36 -2l38 -5l37 12l19 14l13 32l-6 42l-19 24l-33 15l-41 5l-16 12l16 12l41 11l30 15l16 32l-2 41l-14 34l-30 10l-42 5l-34 -12l-30 -11l-12 6l6 16l28 20l35 9l46 -5l36 -4l21 -11l24 -22l9 -33v-40l-15 -35l-13 -22l4 -22l20 -18
l16 -34l1 -48l-14 -31l-24 -23l-27 -14l-40 -7l-42 -1zM236 721l6 -5l4 -1l4 7l-4 5l-3 -2zM233 754l-1 -8l5 -1l3 4l-1 6h-5zM210 688l2 -2l8 -1l-1 5l-1 6l-3 -2l-1 -4zM243 549v-3h6l2 3l-2 3h-8zM134 827l1 1l3 -2v4l1 2l-7 -1v-1zM235 511l-2 1l-4 -3l5 -3z" />
    <glyph glyph-name="acute" unicode="&#xb4;" horiz-adv-x="234" 
d="M83 629l11 28l11 27l7 23l16 26l20 11l4 -21l-12 -26l-15 -22l-8 -28l-17 -20l-18 -10z" />
    <glyph glyph-name="paragraph" unicode="&#xb6;" horiz-adv-x="518" 
d="M184 -292l23 19l21 22l12 35l5 46l-2 36l2 29l1 31l-1 28l-1 33v29l-1 27l4 29l-5 32l-20 23l-34 13l-34 9l-24 6l-28 22l-15 21l-15 22l-14 26l-11 23v40l-1 43l3 35l12 26l12 27l17 24l22 19l27 19l51 11l50 -1l29 -21l8 -32l2 -27l-1 -31l-5 -30l3 -33v-25l1 -32
l1 -31v-58l-4 -28l1 -30l-1 -27l2 -32l2 -28l2 -30l-2 -29l-3 -26l-3 -33l5 -26l-2 -30v-41l1 -47l-12 -40l-20 -25l-21 -18l-33 -15l-19 2zM375 -209l-1 26l-2 33l-3 28l-1 31l1 31l2 29l-1 36l1 26l3 38l-4 49l-1 47l-1 43v38l4 32l3 31l-2 27v31l-1 28v29l-2 35l7 28
l9 15l11 -15l8 -25l-2 -32l1 -37l-2 -45l2 -46l-3 -27v-30l-2 -31l-1 -32l1 -29l3 -31l-1 -28l3 -28l-1 -30l2 -34l-3 -31l3 -31l1 -27l-2 -32l-2 -29v-33l-3 -29l-1 -30l-11 -20l-12 20v31zM98 261l1 -1l-6 1l-6 -8l5 -6l6 -1l5 8l-1 3h1h8l-1 6l1 3l-7 1zM129 273l2 -6h12
l2 6l-6 9l-10 -1v-8zM155 283l6 -6l9 1l3 6l-4 7l-7 -1zM199 200l4 -3l5 -1l1 3l2 -2l10 1l1 4l-1 4l-8 -1l-4 -3l-2 4h-2zM170 212l2 -5l10 1v11l-3 -1l2 3l-5 3l-4 -1v-4h2zM190 200l4 -3h-3l-1 -5l3 -5l6 -1l5 4l-5 7h-3l2 3l2 3h-8zM384 387h6l6 6l-4 7l-12 -1l2 -5z
M227 144l5 -7h6l8 6l-7 5l-5 1zM188 384l4 -7h6l6 7l-3 4l-7 1zM227 282l5 -5l8 1l3 6l-2 3l-5 1h3l-1 4l-3 -2h-3l2 -1v-2zM107 371l5 -4l10 -1l-1 6l1 6h-8zM219 361l3 -4h10l1 4l-1 7l-11 -1zM157 344l5 -7l7 1l4 4l-3 7l-10 -2zM202 182l1 -5h4l3 2l3 -2l6 -1v10l-7 -4
l-1 3l-9 1v-4zM157 362l5 -5l7 -1l3 8l-3 4h-6zM178 471l4 -4h6l3 6l-2 6h-8zM251 259l4 -2l1 -1l-3 1l-4 -6l4 -4h8l3 5l-5 3l-3 1l5 2l-5 2l1 1h-2l1 -1zM150 323l3 -6l8 -1l2 5l-2 6l-4 2l2 1l-5 1l1 -2l1 -1l-1 -1zM180 303l3 -6l5 -1l7 6l-7 6h-6zM232 231l2 -4l4 -1
h-4l-4 -6l3 -3l4 1l3 3l-1 5h-1l4 4l-3 5l-3 -1zM206 453l6 -6h6l4 5l-4 6l-6 -1zM218 191l5 -4l7 1l4 2l-3 6l-10 1zM261 292l1 -5h3v12l1 13l2 6l-5 -2l1 -2v-1l-4 -3l4 -4l-3 -4v-10zM168 182l5 -5l7 1l4 4l-6 5l-7 -1zM203 327l7 -1l4 5l-4 6l-9 -2zM227 342l6 -5l5 -1
l5 5l-6 6zM150 380l3 -3l8 1l2 2l-3 7h-7zM129 171l4 -4h8l2 3l-4 6h-6zM239 242l4 -5l6 -1l4 6l-2 3h-10zM218 232l5 -5h4l3 3l1 5l-10 2zM112 410l1 -3l6 -1l5 5l-4 4l-8 2v-7zM199 210l4 -3h4l3 4l-1 6h-7zM138 252l5 -5l6 -1l1 5l-1 6l-4 -1zM256 173l6 -6h4l-3 8l4 10
l-5 -1v-3l-1 -4zM250 343l3 -6l6 1l5 5l-5 2l-8 1zM248 222l5 -5h8l-1 5l-2 5zM98 200l5 -3h8l-1 4v4l-5 1zM192 292l1 -5l7 1l2 3l-1 4l-10 1zM79 290l5 -3l5 -1l4 5l-3 4l-4 -1zM201 242l2 -5l5 1l3 4l-4 5l-6 -1v-4zM130 233l3 -6h4l5 6l-5 3h-2zM211 282l3 -5h2l7 3
l-3 5l-8 -1zM151 212l3 -5l5 1l4 3l-3 3l-5 1zM71 260l2 -3h8l-1 5l-3 4l-2 -1zM261 262l1 -5l4 -1l2 13l-4 -1zM239 260l5 -3l4 -1l1 5l-3 4h-3zM109 321l5 -4l4 1l5 3l-3 4l-4 -2zM249 151l5 -4h6l3 3l-7 4v-1zM240 350l4 -3h6l-1 3l1 5h-4zM253 397l7 -1l1 4l-4 5l-4 -1
v-7zM240 410l4 -3l4 -1v4l2 4h-8zM119 210l5 -3l6 1l-1 2l-1 3l-3 2zM201 170l2 -3l7 1l-1 3l1 3l-5 1zM143 180v-3l6 -1v4l2 5l-7 -1zM219 300l5 -3l3 1l2 3l1 2l-8 1zM162 161l2 -4l6 -1l2 4l-2 2l-4 1zM173 257l4 1l4 2l-4 5l-4 1v-9zM233 389l1 -2l4 -1l3 5l-3 3h-4z
M236 126l2 1l2 4l-4 2l-4 1l-2 -3zM150 179l4 -2l2 1l6 2l-2 3l-4 1zM183 341l1 -4h6l2 3l-5 3l-5 1zM380 149l4 -2l5 1l2 3l-3 1l-6 1zM223 151l1 -4l3 1l6 3l-3 3h-4zM113 341l1 -4l4 -1l3 4l-5 5zM202 159l2 -2l2 -1l6 4l-4 2l-6 1v-4zM173 270v-3l7 1l-1 2l-1 6l-3 -1z
M182 331l2 -4l2 -1l4 5l-2 4l-4 -2zM194 320v-3l5 -1l1 3v4h-8zM194 251v-4l4 -1l4 3l-2 3l-5 1zM160 270l4 -3h2l4 2l-2 5zM253 271l1 -4l4 -1l4 5l-5 1l-1 2zM130 400l4 -3h2l5 4h-2l-7 2zM202 228l2 -1l4 1l3 1l-4 4h-4zM90 300l4 -3l5 -1l-1 4v2l-2 1zM181 349l3 -2l2 1
l5 1l-1 2l-7 2zM385 328l-1 -1h6l-2 2l2 6h-6l1 -3v-4zM264 227l5 -1l-1 8h-4v-7zM143 420l1 -3l2 1h5l-3 5h-5v-3zM171 409l3 -2h2l5 1l-1 4l-5 -1zM163 441l1 -4h2l6 3l-5 2l-5 1zM164 249v-2l6 1l1 3l-1 3l-4 -2zM241 449l3 -2h6l-3 3v1l-4 2zM242 329l2 -2h6l-2 3l1 1
l-7 1v-3zM245 169l-1 -2h2l4 1v4h-8zM123 289l1 -2h6l-2 3l-2 4v-1zM386 -205l-1 -1l-1 -6h7l-4 4zM75 310l-1 -3h6l1 2l-5 2l-4 1z" />
    <glyph glyph-name="periodcentered" unicode="&#xb7;" horiz-adv-x="244" 
d="M100 278l3 41l40 -3v-39z" />
    <glyph glyph-name="cedilla" unicode="&#xb8;" horiz-adv-x="230" 
d="M95 -129l-3 27l6 29l10 26l5 30l8 13l10 -15l1 -28l-5 -28v-27l-6 -31l-13 -13z" />
    <glyph glyph-name="one.sups" unicode="&#xb9;" horiz-adv-x="224" 
d="M121 541l1 30v29l-3 31l2 31l2 30l-3 31l-7 25l-24 15l-29 10l-12 8l12 13l32 6l24 21l20 10l17 -15l5 -33l-1 -30l-1 -31l-3 -28l3 -32v-34l-1 -29l-2 -31l2 -32l-3 -27l-12 -16l-15 16z" />
    <glyph glyph-name="ordmasculine" unicode="&#xba;" horiz-adv-x="568" 
d="M226 348l-26 9l-27 13l-20 20l-13 24l-18 27l-10 23l-3 39l-2 41l5 34l12 30l15 24l17 17l22 17l29 19l47 11l55 -1l48 -10l31 -12l19 -22l22 -18l11 -25l19 -62v-44l-8 -37l-13 -28l-10 -20l-19 -23l-20 -22l-28 -13l-46 -12l-54 -2zM341 376l30 15l24 16l14 27l13 25
l9 40v47l-8 34l-14 30l-20 24l-21 24l-26 10l-37 12h-44l-38 -8l-29 -19l-23 -21l-13 -24l-16 -27l-9 -37l1 -45l10 -37l11 -32l19 -21l24 -19l25 -14l39 -6l44 -3zM135 238l29 -3l35 1l82 -1l31 -2l30 2l35 4l47 -7l24 -7l-24 -9l-51 -5l-52 -1l-40 1l-27 3l-32 -2l-32 -1
l-26 -2l-32 7l-11 11zM372 220l9 1l1 4l-4 3l-2 1h-4l-3 -5zM135 610l5 -1l5 5l-5 4zM161 402l3 -3h8l-9 3l2 3z" />
    <glyph glyph-name="guillemotright" unicode="&#xbb;" horiz-adv-x="459" 
d="M263 72l11 30l11 27l19 23l16 30l16 27l9 31l1 42l-14 33l-15 23l-15 26l-14 24l-11 27l-16 30l-10 23l15 1l24 -20l15 -22l16 -31l11 -27l16 -26l15 -31l9 -32l2 -44l-11 -31l-16 -29l-12 -25l-15 -28l-16 -30l-17 -28l-23 -18l-10 5zM88 77l16 25l14 26l16 24l12 26
l11 26l13 36v38l-12 32l-11 27l-22 40l-24 41l-14 29l-7 22h11l20 -19l17 -25l18 -29l12 -28l14 -27l15 -26l9 -36l3 -40l-11 -37l-15 -29l-15 -28l-13 -26l-16 -26l-14 -29l-24 -20l-13 4zM336 186v-2l4 1l4 3l-6 3h-3zM304 128l2 -4h1l6 5l-3 3z" />
    <glyph glyph-name="questiondown" unicode="&#xbf;" horiz-adv-x="496" 
d="M283 310l2 -30l-2 -46l-9 -46l-11 -26l-15 -23l-23 -20l-29 -24l-25 -15l-20 -21l-22 -18l-18 -23l-16 -28v-47l3 -41l12 -27l22 -25l22 -16l28 -14l27 -5l42 -1h47l28 3l24 7l31 13l25 8l31 10l9 -18l-37 -32l-43 -13l-33 -6l-34 -9l-41 1l-46 3l-30 5l-26 12l-29 10
l-23 18l-20 23l-18 35l-10 58l3 46l9 28l20 25l45 45l25 14l37 30l34 35l10 25l8 46l5 46l-5 29l12 33l17 -1zM285 518l1 -38l-41 -2l1 39zM242 168v-1l10 -1l3 7l-6 6l-6 -2zM119 60l4 -3h8l2 3l-4 7h-1zM247 -199l6 -4h8l1 6h-3l-7 1zM312 -198l1 -5l5 1l6 3l-7 6h2h-2
l-6 -2zM280 -209l4 -4l5 1v7l-5 -2z" />
    <glyph glyph-name="Agrave" unicode="&#xc0;" horiz-adv-x="724" 
d="M55 29l11 29l16 28l8 30l12 28l12 30l12 24l10 26l12 31l16 27l10 29l11 28l13 29l12 25l8 27l14 29l27 56l11 28l12 31l10 29l10 24l14 26l17 31l23 21h21l21 -26l9 -25l12 -30l14 -29l14 -35l17 -40l16 -34l9 -28l13 -29l10 -28l14 -26l12 -28l14 -26l6 -31l10 -28
l16 -26l13 -29l12 -26l8 -25l10 -33l15 -23l6 -31l12 -28l6 -21l-11 -2l-26 22l-15 23l-11 28l-11 29l-14 26l-16 34l-33 20l-30 7h-28l-35 -4l-27 5l-31 1l-41 -1l-36 -3l-41 2l-68 -9l-31 -20l-18 -30l-9 -25l-16 -32l-26 -60l-24 -18l-10 7zM244 226l44 2l42 -2l31 -1h31
l29 -2l31 1l30 3l29 6l11 20l-3 29l-10 25l-11 28l-10 29l-15 29l-12 30l-10 26l-10 28l-12 26l-12 31l-9 23l-12 28l-12 32l-13 27l-12 13l-10 -13l-12 -28l-13 -29l-8 -26l-11 -32l-11 -26l-11 -27l-15 -28l-7 -27l-15 -30l-10 -29l-13 -33l-19 -40l-7 -32l14 -25z
M331 847l-9 29l1 18l20 -8l14 -29l9 -32l1 -16l-17 9zM536 219l5 -6l7 1v2l4 -4l7 1l1 3l-4 3l-5 2l-1 -3l-1 5l-1 2v2l-2 2l-5 1l3 -6l-4 1zM453 215l-4 -1l-3 -3l2 -8l15 3l3 5l-8 3zM534 252l5 1l5 5l-6 9l-7 -2h1zM177 248l5 -5l6 1l4 4l-6 4l-4 2zM367 666l5 -3l5 -1
l5 4l-5 4h-6zM589 167l3 -4h4l5 5l-4 3l-6 2zM158 247l5 -4l6 -1l-1 5l1 3l-5 1zM243 454l6 -1l6 5l-7 5zM568 216l4 -3l7 1v1l-3 7h-2zM529 225l4 -2l4 -1l3 5l-4 3h-4zM548 249l4 -6l4 1l3 1l-2 3l-1 3h-5zM220 378l3 -5l4 -1l5 4l-6 3l-5 1zM140 177l3 -4l2 -1l3 3l1 5
h-7zM273 496v-3l4 1l4 2l-2 5l-7 -2zM302 577l1 -4h6v2l-2 5h-6zM313 614l-1 -1l5 1l4 3l-3 4l-2 2zM513 357v-4l4 1l2 1v4l-7 1zM539 285l4 -2l5 -1l-1 3v3l-2 1zM293 565v-2l6 -1v6l-3 1zM619 96l4 -3l5 -1l-5 8zM182 274l1 -1l6 1h-3l-1 3l-4 2zM340 645l1 5l5 4l-5 -1
l-3 -5z" />
    <glyph glyph-name="Aacute" unicode="&#xc1;" horiz-adv-x="724" 
d="M55 29l11 29l16 28l8 30l12 28l12 30l12 24l10 26l12 31l16 27l10 29l11 28l13 29l12 25l8 27l14 29l27 56l11 28l12 31l10 29l10 24l14 26l17 31l23 21h21l21 -26l9 -25l12 -30l14 -29l14 -35l17 -40l16 -34l9 -28l13 -29l10 -28l14 -26l12 -28l14 -26l6 -31l10 -28
l16 -26l13 -29l12 -26l8 -25l10 -33l15 -23l6 -31l12 -28l6 -21l-11 -2l-26 22l-15 23l-11 28l-11 29l-14 26l-16 34l-33 20l-30 7h-28l-35 -4l-27 5l-31 1l-41 -1l-36 -3l-41 2l-68 -9l-31 -20l-18 -30l-9 -25l-16 -32l-26 -60l-24 -18l-10 7zM244 226l44 2l42 -2l31 -1h31
l29 -2l31 1l30 3l29 6l11 20l-3 29l-10 25l-11 28l-10 29l-15 29l-12 30l-10 26l-10 28l-12 26l-12 31l-9 23l-12 28l-12 32l-13 27l-12 13l-10 -13l-12 -28l-13 -29l-8 -26l-11 -32l-11 -26l-11 -27l-15 -28l-7 -27l-15 -30l-10 -29l-13 -33l-19 -40l-7 -32l14 -25z
M365 815l11 32l13 28l22 12l1 -21l-9 -30l-14 -27l-19 -12zM538 220l3 -7h6l2 4l2 -5l6 2l4 2l-2 4h-7l-5 4l1 1l4 2l-3 3h-8l-3 -2l6 -4h-5zM534 252l5 1l3 5l-2 9h-10l-1 -3zM455 215l-6 -1l-3 -5l6 -4l10 2v2l-2 6h-5zM179 249l3 -6h8v5l-3 4l-3 1zM369 666l3 -3l6 -1
l1 5l-3 4h-6zM311 615l1 -2l4 1l6 5l-2 3h-6zM288 547l5 -4l5 1v3l1 3l-8 1zM539 236l4 -3l5 -1l3 4l-8 4zM551 247l1 -4l4 1l5 3h-3l-1 6l-3 -1zM162 247l1 -4h2l7 4l-4 4l-5 -2zM591 168l1 -5h4l1 3v3l-1 2l-6 1zM271 495l2 -2h6l1 4l-3 2h-3zM510 355l3 -2l6 -1l-2 4l1 2
l-7 1zM139 176l4 -3l6 1l-1 1l1 4l-7 -1zM182 274l1 -1l2 -1l3 4v3l-7 -1zM247 454l2 -1l6 6l-3 4zM302 575l1 -2h2l2 3l2 4h-6zM572 217v-4h8l-4 1l-3 8l-3 -2zM605 102l2 1l2 2l-2 5l-6 -1l3 -1zM160 225l3 -2l2 1l5 1l-5 4v-1z" />
    <glyph glyph-name="Acircumflex" unicode="&#xc2;" horiz-adv-x="724" 
d="M55 29l11 29l16 28l8 30l12 28l12 30l12 24l10 26l12 31l16 27l10 29l11 28l13 29l12 25l8 27l14 29l27 56l11 28l12 31l10 29l10 24l14 26l17 31l23 21h21l21 -26l9 -25l12 -30l14 -29l14 -35l17 -40l16 -34l9 -28l13 -29l10 -28l14 -26l12 -28l14 -26l6 -31l10 -28
l16 -26l13 -29l12 -26l8 -25l10 -33l15 -23l6 -31l12 -28l6 -21l-11 -2l-26 22l-15 23l-11 28l-11 29l-14 26l-16 34l-33 20l-30 7h-28l-35 -4l-27 5l-31 1l-41 -1l-36 -3l-41 2l-68 -9l-31 -20l-18 -30l-9 -25l-16 -32l-26 -60l-24 -18l-10 7zM244 226l44 2l42 -2l31 -1h31
l29 -2l31 1l30 3l29 6l11 20l-3 29l-10 25l-11 28l-10 29l-15 29l-12 30l-10 26l-10 28l-12 26l-12 31l-9 23l-12 28l-12 32l-13 27l-12 13l-10 -13l-12 -28l-13 -29l-8 -26l-11 -32l-11 -26l-11 -27l-15 -28l-7 -27l-15 -30l-10 -29l-13 -33l-19 -40l-7 -32l14 -25z
M263 799l20 22l21 24l23 16l34 16l37 -14l25 -21l21 -18l15 -23l1 -15l-27 9l-26 27l-25 17l-34 5l-23 -16l-31 -27l-34 -15zM538 220l3 -7h6l3 2l1 -2l8 -1l3 6l-7 1l-4 1l1 -2l-5 6h2l1 2l-1 5l-7 -2l-2 -1l2 -5zM534 253h5l6 6l-4 7h-12l-1 -1zM449 214l-5 -4l6 -5l9 1
l3 4l-4 4h-9zM179 249l3 -6h8v5l-2 6h-5zM568 218l4 -5h8l-3 9h-6zM587 168l5 -5l4 -1l1 4l3 2l-5 4l-3 1zM371 667l1 -4h8v3l-3 6h-6v-5zM158 247l5 -4h6l1 5l-2 3l-7 -1zM388 846l5 -3l5 1l4 2l-3 4h-8zM550 247l2 -4l6 1v2l1 1l-3 6l-6 -2v-4zM244 454l5 -1l6 5l-7 4z
M222 378l1 -5l4 -1l3 4l-1 4l-6 -1zM270 497l3 -4l5 1l1 1v5h-4zM289 546l4 -3l4 -1l1 4l-2 5l-3 -2zM350 675l3 -2l3 -1l2 4l-2 5h-2zM531 225l2 -2l8 2l-2 3l-8 1v-4zM313 615l-1 -2l8 1l1 5l-4 2zM291 565l2 -2l2 -1l5 3l-1 4h-3zM511 355l2 -2l3 1l3 3l-3 3l-5 -2v-3z
M635 49l6 -6l4 -1l-7 10zM316 622l1 -1l1 1h-2z" />
    <glyph glyph-name="Atilde" unicode="&#xc3;" horiz-adv-x="724" 
d="M55 29l11 29l16 28l8 30l12 28l12 30l12 24l10 26l12 31l16 27l10 29l11 28l13 29l12 25l8 27l14 29l27 56l11 28l12 31l10 29l10 24l14 26l17 31l23 21h21l21 -26l9 -25l12 -30l14 -29l14 -35l17 -40l16 -34l9 -28l13 -29l10 -28l14 -26l12 -28l14 -26l6 -31l10 -28
l16 -26l13 -29l12 -26l8 -25l10 -33l15 -23l6 -31l12 -28l6 -21l-11 -2l-26 22l-15 23l-11 28l-11 29l-14 26l-16 34l-33 20l-30 7h-28l-35 -4l-27 5l-31 1l-41 -1l-36 -3l-41 2l-68 -9l-31 -20l-18 -30l-9 -25l-16 -32l-26 -60l-24 -18l-10 7zM244 226l44 2l42 -2l31 -1h31
l29 -2l31 1l30 3l29 6l11 20l-3 29l-10 25l-11 28l-10 29l-15 29l-12 30l-10 26l-10 28l-12 26l-12 31l-9 23l-12 28l-12 32l-13 27l-12 13l-10 -13l-12 -28l-13 -29l-8 -26l-11 -32l-11 -26l-11 -27l-15 -28l-7 -27l-15 -30l-10 -29l-13 -33l-19 -40l-7 -32l14 -25z
M376 829l-49 17l-60 -5l-35 -5l2 13l15 22l26 14l42 -1l39 -11l53 -13l56 -1l33 9l2 -13l-10 -24l-34 -9l-39 -4zM539 218l2 -5l8 1l1 3l2 -3l3 -1l3 4v4l-6 -1l-3 3l-2 2l3 3l-4 3l-2 -2l-4 -1l1 -3l-2 -1v-6zM532 254l7 -1l3 5l-1 8h-12l-1 -1zM451 215l-2 -1l-1 -4v-6
l11 2l7 4l-8 4zM178 249l4 -6l7 -1l3 5l-7 6l-2 1zM547 247l5 -4l7 -1l2 5h-4l-1 6l-6 -1zM371 666l1 -3h8l2 5l-4 4l-4 -1zM290 548l3 -5h6l3 3l-3 4l-7 1zM587 168l5 -5h4l1 3l1 2l-2 5l-4 -2zM419 836l4 -3h6l2 2l-3 5h-5zM219 376l4 -3h6v5l-1 1l-7 1zM440 848l1 -5l7 1
l4 5h-16zM635 50l6 -7h5l-7 11zM540 235l3 -2l5 -1l3 4l-8 4zM352 677l1 -4l4 -1l3 6l-1 2l-5 1zM529 226l4 -3l5 1l1 3v1l-7 2zM313 614l-1 -1l4 1l5 3l-5 6l-2 -2zM181 276l2 -3l6 -1l1 2l-3 5l-6 -1v-2zM271 495l2 -2h2l5 4l-1 3l-4 1zM572 218v-5l6 1h2l-3 6l-3 1z
M160 246l3 -3l2 1l5 4l-4 1l-3 2zM289 856l4 -3h2l6 3l-3 3zM246 454l3 -1l4 5l-5 5zM292 563h3l6 4l-6 2h-3v-6zM159 226l4 -3l4 1l1 3v3l-5 -2zM604 104l3 -1l3 2l-3 3h-7zM621 95l2 -2l6 1l-4 6zM374 855l-1 -2l2 1h3v4l-4 1l-3 -1zM341 647v3l5 4h-3l-7 -5z" />
    <glyph glyph-name="Adieresis" unicode="&#xc4;" horiz-adv-x="724" 
d="M55 29l11 29l16 28l8 30l12 28l12 30l12 24l10 26l12 31l16 27l10 29l11 28l13 29l12 25l8 27l14 29l27 56l11 28l12 31l10 29l10 24l14 26l17 31l23 21h21l21 -26l9 -25l12 -30l14 -29l14 -35l17 -40l16 -34l9 -28l13 -29l10 -28l14 -26l12 -28l14 -26l6 -31l10 -28
l16 -26l13 -29l12 -26l8 -25l10 -33l15 -23l6 -31l12 -28l6 -21l-11 -2l-26 22l-15 23l-11 28l-11 29l-14 26l-16 34l-33 20l-30 7h-28l-35 -4l-27 5l-31 1l-41 -1l-36 -3l-41 2l-68 -9l-31 -20l-18 -30l-9 -25l-16 -32l-26 -60l-24 -18l-10 7zM244 226l44 2l42 -2l31 -1h31
l29 -2l31 1l30 3l29 6l11 20l-3 29l-10 25l-11 28l-10 29l-15 29l-12 30l-10 26l-10 28l-12 26l-12 31l-9 23l-12 28l-12 32l-13 27l-12 13l-10 -13l-12 -28l-13 -29l-8 -26l-11 -32l-11 -26l-11 -27l-15 -28l-7 -27l-15 -30l-10 -29l-13 -33l-19 -40l-7 -32l14 -25z
M430 813l-1 49l47 1v-49zM246 815l3 49l45 -2v-47h-48zM537 220l4 -7h6l2 4l2 -3l4 -1l4 3l-3 5h-4v-1l-3 4l1 4l-1 2h-8l-3 -2l2 -4l2 1zM530 253h9l5 7l-5 7l-10 -2l-1 1zM451 214h-2l-5 -3l8 -7l10 1l3 4l-7 4zM369 666l3 -3h4l4 3l-3 6l-7 -2zM180 247l2 -4l4 1l5 4
l-6 5l-2 1zM309 613h11l3 5l-5 3v1zM547 249l5 -6l5 -1l1 4l1 1l-2 4zM449 838l3 -5l5 -1l2 6l-6 4zM218 376l5 -3l2 -1l3 4l1 4l-4 1zM568 217l4 -4l4 1l3 1l-4 5l-5 1zM589 169l3 -6l5 1l2 3l-4 4h-3zM348 676l5 -3h2l3 4l-1 4h-4zM288 547l5 -4l2 -1l3 5l1 4l-4 -2z
M141 177l2 -4l4 -1l3 3l-3 3l-4 2zM247 452l2 1l5 5l-6 6zM301 575l2 -2h6l2 3l-6 4v-1zM453 843l4 -1l1 5l-3 3l-4 1zM162 247l1 -4l4 1l2 6l-6 1zM162 256l1 -3h6v6h-6zM161 227l2 -4h2l2 3l2 4l-8 -1v-2zM290 564l3 -1l5 1l-2 4v2z" />
    <glyph glyph-name="Aring" unicode="&#xc5;" horiz-adv-x="724" 
d="M55 29l11 29l16 28l8 30l12 28l12 30l12 24l10 26l12 31l16 27l10 29l11 28l13 29l12 25l8 27l14 29l27 56l11 28l12 31l10 29l10 24l14 26l17 31l23 21h21l21 -26l9 -25l12 -30l14 -29l14 -35l17 -40l16 -34l9 -28l13 -29l10 -28l14 -26l12 -28l14 -26l6 -31l10 -28
l16 -26l13 -29l12 -26l8 -25l10 -33l15 -23l6 -31l12 -28l6 -21l-11 -2l-26 22l-15 23l-11 28l-11 29l-14 26l-16 34l-33 20l-30 7h-28l-35 -4l-27 5l-31 1l-41 -1l-36 -3l-41 2l-68 -9l-31 -20l-18 -30l-9 -25l-16 -32l-26 -60l-24 -18l-10 7zM244 226l44 2l42 -2l31 -1h31
l29 -2l31 1l30 3l29 6l11 20l-3 29l-10 25l-11 28l-10 29l-15 29l-12 30l-10 26l-10 28l-12 26l-12 31l-9 23l-12 28l-12 32l-13 27l-12 13l-10 -13l-12 -28l-13 -29l-8 -26l-11 -32l-11 -26l-11 -27l-15 -28l-7 -27l-15 -30l-10 -29l-13 -33l-19 -40l-7 -32l14 -25z
M306 788l-20 22l-9 30l-2 44l9 34l20 19l35 9h45l35 -10l20 -17l8 -31l1 -44l-11 -35l-21 -16l-34 -12l-43 2zM416 841l-2 42l-30 31l-48 1l-32 -29l1 -45l33 -26l46 -4zM529 227l4 -4h2l2 2l1 2l3 -2l2 -1l-4 -6l2 -5l6 -1l3 3l3 -3l2 2l7 4l-4 3h-3l-3 -3l-1 6l-2 1l3 2
l-4 2l-7 1l-3 -3l1 3l-7 -2zM401 813h-1l-2 -4l4 -6l4 -1l5 7l-3 4h-2l5 4l-1 3zM453 213l-4 1l-1 -3l2 -8l13 4l3 2l-7 4h-6zM534 253h5l3 5l-3 9h-9l2 -3zM587 167l5 -4l4 -1l3 3l-2 4l2 3h-5zM177 248l5 -5l5 1l2 2l-4 7l-3 -1zM372 670v-7h8l1 5l-1 4zM548 249l4 -6h4
l2 3l-1 2l-2 3l-1 1zM311 613h5l5 6l-3 2l-4 1zM292 546l1 -3l6 -1l2 4l-6 4l-2 1zM222 376l1 -3h6l3 4l-7 3l-2 -1zM160 248l3 -5l6 1l1 2l-1 4l-6 -1zM270 497l3 -4h2l2 2l2 5l-6 1zM160 227l3 -4l6 1l2 2l-3 2l-4 2zM541 235l2 -2h6l-2 3l1 4l-7 -1v-4zM290 563h3l3 -1
l3 3l-1 3l-3 2zM509 355l4 -2l5 1v1l-3 5h-1zM300 575l3 -2h2l6 2l-6 4l-2 -1zM603 102l4 1l4 3l-6 4h-2l1 -2zM142 175l1 -2l2 1l2 2l2 4h-8zM403 916v-3l6 1l2 2l-4 4l-2 -1zM572 217v-4l7 1h1l-7 6zM639 50l2 -7l4 -1l-5 12zM422 817l1 -4l3 2l4 1l-5 3l-4 1zM341 646v4
l5 5h-5l-3 -7zM573 221v-1l1 2z" />
    <glyph glyph-name="AE" unicode="&#xc6;" horiz-adv-x="1006" 
d="M24 29l20 23l13 25l13 31l15 27l17 21l18 29l17 25l16 29l16 21l13 23l19 32l28 50l17 25l16 26l17 24l16 27l18 26l16 24l15 25l21 29l17 30l12 20l11 29l25 26l34 15l33 7l32 -1l28 1h58l33 2l26 -2h31l28 -1l45 1l42 2l33 -3l30 -2l27 -1l17 -13l-17 -10h-35l-29 -4
l-26 -3l-37 4l-59 2h-38l-48 -2l-36 -1l-33 -1l-30 -3l-24 -29l-10 -29l3 -32l1 -31l-2 -31l1 -33l-3 -26l1 -33l7 -32l25 -29l30 -6l31 -1l31 1l29 3h62l33 -1l31 2l33 -2l32 -3l14 -11l-18 -13l-30 -7h-33l-27 2l-29 1l-42 -4l-57 4l-50 1l-38 -7l-26 -21l-9 -31v-30
l3 -27v-35l-5 -25l2 -30l2 -26l6 -35l20 -24l40 -5l136 -1l34 3l33 -2l31 -1h30l47 2l45 -4l15 -10l-18 -13l-31 -5l-26 3l-33 -2l-35 3l-28 -5l-28 1l-29 4h-31l-31 -5l-31 3h-31l-30 -1l-31 -1l-32 4l-25 8l-11 27l2 31v27l-3 31l3 35l-8 32l-27 13l-57 6l-49 -4h-44
l-42 3l-33 -7l-36 -21l-23 -29l-16 -24l-21 -23l-16 -31l-14 -28l-18 -22l-30 -19l-13 4zM281 236h49l54 3l53 9l21 20l14 31l-1 32l-1 33l-1 29l-2 38l-2 35l-2 39l3 42l2 29l-1 29l1 30l-8 17l-11 -8l-18 -27l-17 -27l-15 -25l-14 -25l-16 -24l-13 -25l-15 -25l-21 -24
l-13 -25l-18 -30l-16 -21l-12 -25l-15 -29l-19 -26l-11 -19l16 -21zM474 68v-12l8 -1l5 9l-4 6l-8 -2h-1zM586 9v3l-5 7l-5 -1l-4 -6l-2 -5zM530 680l5 -4h4l7 3l-3 7h-10zM471 242l4 -6l7 -1l2 5l-1 6l-8 1zM202 240l3 -4l7 -1l1 6l-3 4l-7 1zM511 321l4 -5l6 -1l2 6l-4 3
l-5 1zM484 290l1 -4l6 1l3 2l-3 7l-8 -1zM484 131l1 -5l5 -1l6 6l-5 3l-4 1zM511 21l4 -5l5 -1l3 6l-4 4h-2zM232 332l3 -6l8 -1v5l-3 4h-5zM613 8l1 3l-3 6l-4 -1l-7 -5l2 -1zM212 317l3 -1h4l4 5v5l-6 -1zM473 106h10l-1 3v5h-6l-3 -3v-5zM191 270l4 -4h8v3l-4 4l-3 2z
M473 50l2 -4l5 1l4 2l-3 4l-4 1l-6 -3zM481 181l5 -5l6 -1l1 6l-5 1h-1zM135 170v-4l8 1l-2 3l2 4l-9 -1zM355 538v-2l5 -1l4 4l-2 6zM452 219l4 -3l3 -1l4 3l-1 4l-7 -1zM422 639l4 -3l3 -1l1 4l2 3l-6 1zM492 189l3 -3l4 -1v8l-2 1zM502 648l4 -2h2l4 4v2h-6zM554 678
l2 -2h6v4l-4 2h-2zM503 669l3 -3l6 1l-1 3v2l-7 -1zM496 370v-4l5 -1l1 3l-2 4l-2 2zM216 309v-3l6 2l-1 4l-7 1zM477 159l-1 -3l5 1l-1 2l2 4h-7l2 -3v-1zM486 166h6v2l-4 3l-2 2v-7zM471 186v4l2 4l-5 -1z" />
    <glyph glyph-name="Ccedilla" unicode="&#xc7;" horiz-adv-x="737" 
d="M390 -4l-30 5l-31 5l-29 10l-28 11l-29 12l-21 20l-27 14l-32 33l-28 35l-18 27l-11 21l-11 32l-9 28l-4 33l-1 37l-5 49l6 38l5 27l6 29l6 26l12 29l16 27l15 28l18 19l24 22l23 15l21 19l22 14l31 13l28 11l25 8l27 5l88 4l40 -4l29 -4l28 -7l41 -12l40 -14l26 -18
l14 -24l-16 -5l-28 7l-30 12l-26 12l-27 10l-32 3l-27 7l-37 2l-46 -1l-38 -2l-28 -3l-28 -10l-25 -15l-26 -12l-23 -21l-22 -21l-21 -20l-15 -25l-20 -24l-12 -25l-4 -25l-12 -31l-4 -29v-35l-1 -44l-1 -35l7 -34l9 -27l13 -30l9 -22l20 -23l18 -27l19 -20l19 -19l22 -13
l25 -17l43 -15l52 -10l49 -6h53l40 2l34 9l29 5l28 9l31 8l20 -8l-13 -18l-26 -16l-31 -6l-29 -6l-25 -7l-25 -3l-38 -1l-40 3zM390 -129l-3 27l6 29l10 26l5 30l8 13l10 -15l1 -28l-5 -28v-27l-6 -31l-13 -13zM137 539l5 -5l8 1l2 3v7h-12zM106 239l6 -5l8 1h3l-8 11l-3 1z
M310 670l2 -6l10 4v2l-1 7l-5 -1l-3 -1zM103 428v-4h8l2 4l-2 3l-10 1zM101 267l2 -3h8l2 4l-8 4zM101 276l3 -2l5 1l1 3l-3 4h-5zM403 -116l5 1l1 6l2 2h-8v-9zM103 287v-3l7 -1l-1 3l-3 6l-1 1zM101 307l3 -3h2l2 7l-1 1h-4zM363 688l1 -4l4 -1l5 5l-3 1zM131 186l3 -2
l6 1l-1 2l1 2l-6 1zM562 669l1 -5l6 1l4 3h-5l-8 3zM532 679l1 -5l7 -1l-1 4l-9 4zM92 315l2 -1h6l1 2l-4 4zM620 646l4 -2l6 -1v4l-5 1zM185 106l-1 -2l6 1l-1 2l1 1l-8 1z" />
    <glyph glyph-name="Egrave" unicode="&#xc8;" horiz-adv-x="686" 
d="M146 38l1 32l-2 27l3 32l-1 32v56l5 31v28l-1 30l-4 32l1 31l-1 31l3 31l-2 26l-2 31l5 29l-2 27l-2 30l2 33l-10 31l-26 24l-37 10l-16 12l18 12h30l88 5l46 -1l45 -2h30l30 -2h31l31 2h61l60 1l28 -2l34 -5l13 -9l-16 -8l-29 -4h-37l-36 -2l-48 -3l-36 -1l-34 -1l-27 3
l-51 2l-44 -1l-31 -5l-20 -25l-10 -29l-2 -34l1 -32l4 -29l-1 -37l-1 -28l-3 -29l6 -35l30 -22l47 -11l81 -1l39 1l41 2l43 -1l50 -1l23 -14l-14 -10l-31 -4h-43l-47 -2l-46 2l-46 -1l-37 1l-34 2l-28 -6l-23 -26l-10 -31v-27l1 -30v-28l-1 -30l3 -31l-4 -28l10 -30l20 -24
l39 -6l47 1l39 -1l27 1l29 2l95 -2l26 -2l28 2l30 2l34 -8l19 -10l-20 -7l-31 -10l-62 6l-35 -6l-49 -1l-53 1h-27l-28 -1l-46 1l-33 -3l-26 3l-34 2l-24 8zM352 847l-9 29l1 18l20 -8l14 -29l9 -32l1 -16l-17 9zM174 670l2 -6l9 1l5 5l-8 6l-8 1v-7zM174 651l2 -7h10l3 6
l-5 6l-6 -1zM200 691l6 -7l10 -1l3 6l-4 2h-7l-6 -1zM192 338l5 -4h8l-1 3l1 6l-7 -1zM482 338l5 -4l6 1l3 4l-4 4h-4zM163 446l5 -2l4 -1l5 4l-5 5l-6 -1zM164 689l3 -5h8l3 4l-4 3l-9 -1zM183 328l4 -4l6 1l2 2l-1 4l-6 2zM185 317l3 -3l5 -1l4 5l-7 4l-4 -1zM159 404h4
l3 5l-3 3l-7 2zM172 379l5 -5l6 -1l-1 4l-1 1l-3 5zM165 486l3 -2l6 -1l-2 4l2 5l-8 -1zM396 17l1 -3h8l-2 3l-2 5l-3 1zM168 217v-3l6 -1v7h-8zM156 369l2 -5l4 -1l4 4l-2 2h-8zM486 688l1 -4l6 -1l1 6zM166 307l2 -3h6v3l-4 2l-4 1v-3zM159 385l-1 -1l2 -1l6 3l-4 4h-6
l3 -1v-4zM159 495l-1 -1l5 -1v3l-1 4l-5 2zM168 347v-3l5 1v3l1 3l-4 1zM165 245l3 -1l4 1l-1 1l3 2l-5 2zM458 687v-3l4 1l4 2l-1 1l-9 1z" />
    <glyph glyph-name="Eacute" unicode="&#xc9;" horiz-adv-x="686" 
d="M146 38l1 32l-2 27l3 32l-1 32v56l5 31v28l-1 30l-4 32l1 31l-1 31l3 31l-2 26l-2 31l5 29l-2 27l-2 30l2 33l-10 31l-26 24l-37 10l-16 12l18 12h30l88 5l46 -1l45 -2h30l30 -2h31l31 2h61l60 1l28 -2l34 -5l13 -9l-16 -8l-29 -4h-37l-36 -2l-48 -3l-36 -1l-34 -1l-27 3
l-51 2l-44 -1l-31 -5l-20 -25l-10 -29l-2 -34l1 -32l4 -29l-1 -37l-1 -28l-3 -29l6 -35l30 -22l47 -11l81 -1l39 1l41 2l43 -1l50 -1l23 -14l-14 -10l-31 -4h-43l-47 -2l-46 2l-46 -1l-37 1l-34 2l-28 -6l-23 -26l-10 -31v-27l1 -30v-28l-1 -30l3 -31l-4 -28l10 -30l20 -24
l39 -6l47 1l39 -1l27 1l29 2l95 -2l26 -2l28 2l30 2l34 -8l19 -10l-20 -7l-31 -10l-62 6l-35 -6l-49 -1l-53 1h-27l-28 -1l-46 1l-33 -3l-26 3l-34 2l-24 8zM376 815l11 32l13 28l22 12l1 -21l-9 -30l-14 -27l-19 -12zM173 649l3 -5l10 1l3 5l-4 4l-11 1zM171 669l5 -5l6 1
l4 5v6l-8 -1zM192 338l5 -4l4 -1l3 6l1 5h-7zM394 19l3 -5h8l2 3l-5 6l-7 -1zM203 689l3 -5h10l4 6l-1 1l-10 -2l-9 2zM486 338l1 -4l6 -1l2 4l-1 6h-5zM158 403l5 1l2 3l-4 6h-5zM166 348l2 -4l6 -1l2 4l-6 4l-4 1v-4zM163 689l4 -5l6 1l4 2l-5 3h-7zM185 329l2 -5l4 -1
l2 5v3l-4 2zM174 380l3 -6l6 -1l-1 4l-3 2l1 3l-5 1zM165 375l3 -1l6 -1l-1 2l-1 5l-6 -1zM185 358l3 -4h6l-2 4l-1 3h-2zM164 368l4 -4l4 -1v8l-6 -2zM165 446l3 -2l5 1l1 3l-4 3l-2 -1zM395 838l3 -4l1 -1l5 6l-4 3l-1 -2zM367 16l1 -2h6l-2 2l2 4l-6 1zM158 494h6v7h-4z
M159 384l5 1v4h-8v-2zM168 247v-3h2l4 1l-1 5h-6zM486 687l1 -3l5 -1l5 4h-11zM307 17l1 -3l4 -1l-1 3l3 4h-4z" />
    <glyph glyph-name="Ecircumflex" unicode="&#xca;" horiz-adv-x="686" 
d="M146 38l1 32l-2 27l3 32l-1 32v56l5 31v28l-1 30l-4 32l1 31l-1 31l3 31l-2 26l-2 31l5 29l-2 27l-2 30l2 33l-10 31l-26 24l-37 10l-16 12l18 12h30l88 5l46 -1l45 -2h30l30 -2h31l31 2h61l60 1l28 -2l34 -5l13 -9l-16 -8l-29 -4h-37l-36 -2l-48 -3l-36 -1l-34 -1l-27 3
l-51 2l-44 -1l-31 -5l-20 -25l-10 -29l-2 -34l1 -32l4 -29l-1 -37l-1 -28l-3 -29l6 -35l30 -22l47 -11l81 -1l39 1l41 2l43 -1l50 -1l23 -14l-14 -10l-31 -4h-43l-47 -2l-46 2l-46 -1l-37 1l-34 2l-28 -6l-23 -26l-10 -31v-27l1 -30v-28l-1 -30l3 -31l-4 -28l10 -30l20 -24
l39 -6l47 1l39 -1l27 1l29 2l95 -2l26 -2l28 2l30 2l34 -8l19 -10l-20 -7l-31 -10l-62 6l-35 -6l-49 -1l-53 1h-27l-28 -1l-46 1l-33 -3l-26 3l-34 2l-24 8zM276 799l20 22l21 24l23 16l34 16l37 -14l25 -21l21 -18l15 -23l1 -15l-27 9l-26 27l-25 17l-34 5l-23 -16l-31 -27
l-34 -15zM171 650l5 -6h10l1 7l-1 5l-9 -2zM174 671l2 -7h10v11l-10 2zM200 690l6 -6l9 -1l3 8l-3 -1l-6 1l-5 1zM483 339l4 -5l7 1l1 2l-2 6h-6zM196 338l1 -4l4 -1l4 4l-1 5l-9 2zM159 404h4l5 4l-7 5h-5zM393 17l4 -3l7 -1l-2 10l-5 -2zM183 327l4 -3h4l6 4l-5 3l-3 1z
M483 689l4 -5l6 -1l5 5zM164 366l4 -2l3 1l4 1l-3 5h-5zM162 688l5 -4l6 1l4 4h-14zM165 446l3 -2l2 1l7 3l-7 4l-2 -2zM174 378l3 -4l4 1l2 2l-3 1l2 5h-3zM186 358l2 -4l3 -1l5 4l-6 3l-1 1zM186 319l2 -5l2 1l7 4l-3 2l-6 -1zM368 17v-3l6 -1v3l-1 5h-4zM167 488l1 -4
l4 -1l3 3l-5 6v-2zM305 16l3 -2l3 1l4 1l-4 4l-5 -1zM165 376l3 -2l4 1l2 5h-6zM157 496l1 -2l4 1l4 2l-4 3h-4zM394 848l3 1l7 -4v4l-3 3h-3zM158 386v-2l3 -1l1 4v3l-2 -2h-5z" />
    <glyph glyph-name="Edieresis" unicode="&#xcb;" horiz-adv-x="686" 
d="M146 38l1 32l-2 27l3 32l-1 32v56l5 31v28l-1 30l-4 32l1 31l-1 31l3 31l-2 26l-2 31l5 29l-2 27l-2 30l2 33l-10 31l-26 24l-37 10l-16 12l18 12h30l88 5l46 -1l45 -2h30l30 -2h31l31 2h61l60 1l28 -2l34 -5l13 -9l-16 -8l-29 -4h-37l-36 -2l-48 -3l-36 -1l-34 -1l-27 3
l-51 2l-44 -1l-31 -5l-20 -25l-10 -29l-2 -34l1 -32l4 -29l-1 -37l-1 -28l-3 -29l6 -35l30 -22l47 -11l81 -1l39 1l41 2l43 -1l50 -1l23 -14l-14 -10l-31 -4h-43l-47 -2l-46 2l-46 -1l-37 1l-34 2l-28 -6l-23 -26l-10 -31v-27l1 -30v-28l-1 -30l3 -31l-4 -28l10 -30l20 -24
l39 -6l47 1l39 -1l27 1l29 2l95 -2l26 -2l28 2l30 2l34 -8l19 -10l-20 -7l-31 -10l-62 6l-35 -6l-49 -1l-53 1h-27l-28 -1l-46 1l-33 -3l-26 3l-34 2l-24 8zM461 813l-1 49l47 1v-49zM277 815l3 49l45 -2v-47h-48zM172 669l4 -5l10 -1l2 8l-4 6l-8 -2zM173 649l3 -5l7 -1
l6 7l-4 4h-9zM200 690l6 -6h10l4 6l-4 1l-8 -2l-4 2zM194 337l3 -3l7 -1l1 6l-4 5l-6 -1zM484 339l3 -5l6 -1l5 5l-5 3l-6 2zM393 18l4 -4l7 -1v4l-1 4h-8zM186 327l1 -3l8 1v4l-4 2l-6 1zM165 486l3 -2h2l5 4l-3 4h-5zM482 688l5 -4l8 -1l3 5h-16zM185 317l3 -3l4 -1l3 6
l-1 2l-7 -1zM175 378l2 -4l5 -1l1 2v5l-4 2zM159 405l4 -1l1 4l-2 6l-6 -2zM186 356l2 -2l5 -1l3 4l-6 3h-4v-4zM164 346l4 -2l6 -1l-2 5l2 4l-4 -1zM158 494l4 -1l4 4l-2 5l-4 -1zM364 17l4 -3l4 -1l2 3l-4 4v1zM172 690l-9 -2l4 -4h4l3 4zM167 447l1 -3h6l1 2l-2 4h-5z
M485 828l3 -4l4 -1l1 5l1 2h-4zM167 597l1 -3h2l5 2l-2 4h-5zM456 686l2 -2l4 -1l4 4l-3 2l-7 -2v-1zM164 367l4 -3l2 1l6 1l-6 4zM155 385l3 -1l2 1l6 1l-6 2l-2 2l-3 -2v-3zM309 15l-1 -1l6 -1l-2 4v1l-6 1z" />
    <glyph glyph-name="Igrave" unicode="&#xcc;" horiz-adv-x="319" 
d="M150 36l-1 28v28l-1 30l3 30v41l-3 38l-1 34v40l-1 28l3 28l-2 68l-2 25v30l2 31l-1 29l2 30l-2 34l-10 27l-22 22l-37 15l-16 12l14 10l26 7l29 3l23 -7l20 -9l12 -26l4 -28l-3 -29l1 -32l2 -33l-3 -29l-2 -29v-31l-1 -31l5 -31l-1 -31l-3 -26l1 -29v-61l-3 -33v-30
l1 -31l2 -31l2 -28v-28l-2 -32l-14 -23h-11zM107 847l-9 29l1 18l20 -8l14 -29l9 -32l1 -16l-17 9zM165 471l3 -5h8l-4 9l-5 1zM154 500l4 -4l6 -1l4 5l-6 3h-3zM157 405l1 1l6 -1l2 4l-4 4h-7zM156 440l3 -4l6 1l1 3l-1 2l-6 -1zM166 249l3 -3l2 -1l3 2l-1 4l1 1h-4z
M166 398l3 -2l4 1l-1 1l3 3h-8z" />
    <glyph glyph-name="Iacute" unicode="&#xcd;" horiz-adv-x="319" 
d="M150 36l-1 28v28l-1 30l3 30v41l-3 38l-1 34v40l-1 28l3 28l-2 68l-2 25v30l2 31l-1 29l2 30l-2 34l-10 27l-22 22l-37 15l-16 12l14 10l26 7l29 3l23 -7l20 -9l12 -26l4 -28l-3 -29l1 -32l2 -33l-3 -29l-2 -29v-31l-1 -31l5 -31l-1 -31l-3 -26l1 -29v-61l-3 -33v-30
l1 -31l2 -31l2 -28v-28l-2 -32l-14 -23h-11zM141 815l11 32l13 28l22 12l1 -21l-9 -30l-14 -27l-19 -12zM163 471l5 -5l4 -1l4 9h-8zM156 499l2 -3h8v5l-3 4l-3 -1zM157 407l1 -1l7 1v2l-3 4l-2 1l-5 -1zM166 249l3 -3l4 1l2 2l1 3h-1l-6 2zM156 440l3 -4l2 1l5 3l-1 2h-8z
M139 667v-1h6l-1 3l1 1l-8 2z" />
    <glyph glyph-name="Icircumflex" unicode="&#xce;" horiz-adv-x="319" 
d="M150 36l-1 28v28l-1 30l3 30v41l-3 38l-1 34v40l-1 28l3 28l-2 68l-2 25v30l2 31l-1 29l2 30l-2 34l-10 27l-22 22l-37 15l-16 12l14 10l26 7l29 3l23 -7l20 -9l12 -26l4 -28l-3 -29l1 -32l2 -33l-3 -29l-2 -29v-31l-1 -31l5 -31l-1 -31l-3 -26l1 -29v-61l-3 -33v-30
l1 -31l2 -31l2 -28v-28l-2 -32l-14 -23h-11zM39 799l20 22l21 24l23 16l34 16l37 -14l25 -21l21 -18l15 -23l1 -15l-27 9l-26 27l-25 17l-34 5l-23 -16l-31 -27l-34 -15zM156 532l6 -6h10v6l-2 7l-10 -1zM147 681l5 -5h10v6l-13 5zM161 250l2 -4l8 1l3 3l-5 7l-8 -2v-5z
M158 501l5 -5l4 -1l7 6l-3 4l-9 -1zM159 340l4 -4l6 -1l3 6l-1 3l-7 -1zM99 691l3 -5l10 1l3 5l-2 1l-9 -2h-5zM169 620l4 -4l6 -1l-3 10l-5 1zM161 311l2 -5h4l4 5l-3 2l-7 2v-4zM168 351l5 -5l3 -1v9h-3zM164 480v-4h6l1 3l-1 3h-7zM163 589v-3h4l2 4l1 3l-5 1zM157 486h2
l1 3l1 7l-4 -1v-9zM164 279v-3l4 -1l3 3l-3 2l-5 2zM119 666h-1l1 3l1 2l-6 1l-3 -3l7 -3h1z" />
    <glyph glyph-name="Idieresis" unicode="&#xcf;" horiz-adv-x="319" 
d="M150 36l-1 28v28l-1 30l3 30v41l-3 38l-1 34v40l-1 28l3 28l-2 68l-2 25v30l2 31l-1 29l2 30l-2 34l-10 27l-22 22l-37 15l-16 12l14 10l26 7l29 3l23 -7l20 -9l12 -26l4 -28l-3 -29l1 -32l2 -33l-3 -29l-2 -29v-31l-1 -31l5 -31l-1 -31l-3 -26l1 -29v-61l-3 -33v-30
l1 -31l2 -31l2 -28v-28l-2 -32l-14 -23h-11zM206 813l-1 49l47 1v-49zM22 815l3 49l45 -2v-47h-48zM134 663l4 -7h6l3 5l1 6l-12 1zM163 382l6 -6l7 1v5l-2 3l-7 1zM156 649l4 -3l8 4l-6 3h-4zM168 520l2 -4l5 1l3 1l-5 5l-5 -2v-1zM158 660l2 -4l3 1l5 2l-5 3h-3zM170 638
v-2l5 1l1 1v4l-8 -1zM170 300v-4l3 -1l2 3l-2 2l1 4h-3z" />
    <glyph glyph-name="Eth" unicode="&#xd0;" horiz-adv-x="807" 
d="M152 38l-3 29v32l3 29l1 29l-5 31l-1 27l-2 36v29l3 26l1 30l-20 2l-31 -2l-19 12l16 9l30 6l25 -5v24l1 35l-5 37l3 33v31l3 29l-4 33v25l-8 33l-25 25l-36 11l-18 12l18 8l30 5h93l29 -2l32 3l91 -3l42 2l46 -1l56 -14l53 -20l40 -22l29 -24l22 -19l17 -25l20 -23
l11 -31l14 -27l9 -29l5 -26l6 -27l3 -38l2 -48l-2 -34l-7 -32l-10 -30l-5 -27l-14 -26l-10 -27l-19 -25l-18 -22l-22 -24l-30 -24l-42 -19l-35 -17l-34 -12l-40 -5l-40 1l-52 -3l-44 -1l-30 2l-31 -2l-29 -3l-28 3l-28 11zM242 31l29 -4l27 1l26 1l30 1l39 -2l39 3l35 7
l27 4l42 18l39 29l35 31l24 25l17 25l12 28l8 32l8 27l5 30l3 36l-4 47l-2 43l-6 30l-4 30l-12 28l-17 29l-17 30l-19 22l-31 25l-40 25l-36 17l-26 11l-37 5l-44 4l-42 -2l-36 3l-30 -2l-35 -3l-32 -4l-22 -20l-9 -33v-31l1 -34l-1 -30v-26l3 -30l-4 -31v-31l3 -31l-1 -7h1
l28 2h32l29 -1h47l42 -3l15 -6l-11 -8l-28 -1l-34 -4l-29 3l-31 -1l-32 1l-29 -1v-2l4 -32l-5 -35l4 -28l-1 -32l-3 -29l4 -29l-4 -31l2 -32l7 -29l19 -19zM653 149l4 -4l7 1l6 3l-3 8h-5l2 4l-3 -1l-5 -3l2 -2l-3 1zM614 586l2 1l3 -3l6 2l3 6l-4 6l-9 -1l-2 -5zM171 671
l6 -6h6l8 6l-8 6l-4 -1zM176 652l1 -7h10v7l-4 4l-7 -1v-3zM126 680l1 -5h6l4 6v5h-8zM548 634l6 1l2 5l-4 5h-2l-7 -6l5 -2v-3zM167 459l1 -4l7 1l4 3l-7 5h-6zM614 100l4 -5l6 -1v8h-7zM463 680l5 -5l6 -1v5l-8 4zM166 447l3 -2l4 1l3 3l-1 3h-8zM164 519l5 -4h2l3 4v4
l-7 -1zM586 78l3 -3l5 -1l4 6l-6 1h-2zM696 328l3 -3l2 -1l3 4l-1 5h-5l-2 -4v-1zM515 658l4 -3l3 -1l3 5v2l-4 1zM285 688l2 -3l10 -1l-2 5zM407 689l2 -4l5 -1l3 4l-1 1l-8 1zM157 256l2 -1l5 -1l2 3l-1 3l-5 -1zM692 386l1 -1l5 3l-3 5l-3 -2v-5zM466 28l3 -3l5 1l2 4
l-9 -3l3 2zM168 306l1 -1h6l-3 2v2l-5 1z" />
    <glyph glyph-name="Ntilde" unicode="&#xd1;" horiz-adv-x="800" 
d="M145 34v27l-1 31l1 36l3 28v26l2 32l-3 28l-3 33l3 30l-3 31l4 32l-2 27l-2 26l4 34l1 27l-2 37l3 27v34l-10 48l-26 31l-38 14l-17 11l16 10l30 6l23 1l34 -9l33 -19l28 -25l18 -24l16 -23l16 -30l19 -21l17 -28l18 -25l14 -24l20 -24l16 -27l34 -47l68 -104l15 -24
l20 -25l18 -26l20 -31l44 -72l22 -25l15 -9l3 20l2 33l-3 30l-2 26l-2 35l-2 39v178l-2 38l1 48l3 37l2 28l-5 32l-3 30l6 35l17 25l15 -6l6 -24l1 -40l-1 -44l-2 -47l-3 -43l1 -36l3 -31v-28l-4 -33l-1 -40l2 -47l2 -36v-26l-5 -29l3 -30l3 -35l-4 -32l2 -27l-6 -29
l-18 -19l-29 12l-29 33l-50 73l-26 39l-21 27l-18 29l-18 27l-24 38l-21 35l-20 30l-23 29l-25 40l-27 32l-21 38l-24 32l-15 24l-23 24l-17 28l-15 28l-9 9l-5 -16l-5 -32l1 -28l5 -34l2 -28v-41l2 -43l-1 -38l1 -43l-2 -46l-1 -30l4 -28l-3 -31l2 -25l-3 -30l-3 -28l3 -28
l1 -31l-7 -32l-7 -20l-16 2zM433 829l-49 17l-60 -5l-35 -5l2 13l15 22l26 14l42 -1l39 -11l53 -13l56 -1l33 9l2 -13l-10 -24l-34 -9l-39 -4zM640 49l5 -3l8 1v8l2 3l-10 2l-5 -5v-6zM640 281l5 -5l8 -1l1 4l1 6l-3 4h-6zM333 860l2 -4h6l7 5l-6 7l-8 -2zM170 662l5 -6h5
l2 -1l2 7l1 5l-9 -1zM550 121l5 -5l6 1l3 4l-1 5l-10 1zM164 640l2 -4l5 1l7 4l-7 6l-3 -1l2 4l-4 -1l2 -2zM153 417l3 -1l5 -1l3 4v7l-6 -1l-6 -2l4 -2zM161 470l5 -4l4 1l5 2l-4 7l-5 -2zM254 563l1 -2l4 -6h5l1 4l-2 4l-9 2v-2zM452 839l4 -3l5 -1l2 6l-3 2l-4 2zM644 77
l2 -1l8 1v6h-10v-6zM356 420v-4h4l6 4l-4 5l-5 -2zM307 487l5 -1l3 3l-3 4l-4 1l-5 -3zM639 317l3 -1l4 4l-2 5h-7zM452 850l5 -4h6l-1 5l-8 2zM496 829l-5 4l-3 1l-6 -4l1 -2zM647 117l4 -1l3 5l-3 3l-6 -1zM506 196h4l2 4l1 5l-7 -2v-7zM165 378l2 -2h6l2 2l-4 5l-4 -2z
M164 398l3 -2l5 -1l2 3l-4 4zM497 206l6 -1l1 3l-3 4h-4v-6zM396 860l1 -4l6 -1l-1 5v2h-5zM537 150v-4l3 1l5 2l-6 4h-3zM569 95l2 1l1 5l-2 1h-5l1 -2zM644 341l3 -5l2 1l6 2h-4l-1 3h-1zM157 438v-2l5 1l1 1l-4 4l-5 -1zM166 228l1 -2l5 -1v5l-3 1v2zM526 180l1 -4l6 -1
l-3 1l-1 7v-1z" />
    <glyph glyph-name="Ograve" unicode="&#xd2;" horiz-adv-x="865" 
d="M372 -2l-28 6l-35 4l-22 10l-29 13l-26 11l-25 13l-22 22l-19 21l-21 24l-17 25l-13 23l-14 29l-7 28l-10 30l-5 35l-4 35l1 42l6 36l3 28l7 31l7 30l12 25l16 26l18 30l22 19l19 22l20 23l33 20l40 18l35 13l28 5l37 10l38 -2h35l38 -2l30 -6l29 -7l32 -8l26 -11l22 -18
l29 -13l21 -21l20 -24l24 -18l16 -24l10 -28l9 -29l13 -29l7 -33l4 -29l-2 -36l6 -40l-5 -40l-5 -32l-10 -28l-5 -27l-14 -28l-15 -25l-13 -24l-26 -30l-31 -30l-43 -30l-42 -13l-25 -11l-31 -9l-33 -7h-80zM494 29l30 8l29 5l21 12l31 9l24 22l25 22l33 36l20 26l11 28
l10 28l9 30l5 31l1 37l2 47l-5 36l-2 31l-8 28l-11 28l-13 27l-16 28l-18 24l-22 22l-23 19l-25 14l-26 17l-26 12l-26 7l-32 7l-38 4l-49 -3l-28 -4l-62 -13l-30 -13l-26 -12l-22 -20l-24 -19l-20 -19l-18 -22l-16 -25l-16 -31l-12 -27l-5 -27l-6 -31l-2 -37l1 -46l2 -37
l7 -33l7 -27l10 -27l15 -29l14 -25l18 -24l20 -17l37 -27l37 -26l27 -12l30 -5l29 -8l35 -1l47 -2zM402 847l-9 29l1 18l20 -8l14 -29l9 -32l1 -16l-17 9zM691 113h8l8 8l-4 3l-5 5h-6l-7 -7l5 -9h1l-2 -5l-1 -3l10 7zM755 369l6 -6l7 -1l3 1l1 3l-2 6l-3 3l-4 -1zM138 167
l3 -4h6l6 3l-3 1h3l-4 7h-6zM429 7l2 -4l9 1l2 5l-2 6l-8 -2zM188 590l2 -7l6 4l6 5l-4 4h-7zM737 217l5 -4h4l5 5l-2 5h-8zM227 637l5 -4l5 -1l5 4l-4 5l-8 1zM735 483h4l5 6l-7 5l-8 1l3 -4zM90 336l2 -3h8l1 3l-1 5l-8 2zM219 66l3 -3l4 1l3 3l-3 6h-5zM756 448l6 -5
l5 -1l-4 12l-2 -2zM732 204l1 -1l5 -1l2 6l-3 3h-3l-4 -2zM99 397l3 -4l8 1l-3 1l1 4v4l-6 -2zM209 609l3 -6v1l9 4l-4 4l-3 1zM396 17l5 -4l10 -1l-1 6zM758 348l4 -5l5 1l2 3l-2 5l-5 -2zM668 107l4 -4l6 1l2 4l-4 3zM751 438l1 -5l7 -1v6l-1 2h-7v-2zM319 676l4 -3h6l1 3
l-4 5h-1zM729 188l4 -5h2l7 4l-3 3l-6 -1zM102 415l1 -2h2l6 3l-3 5l-6 -2v-4zM409 7l4 -4l5 1l2 3l-1 1l-4 2zM651 86l1 -3l7 1v2l-3 4h-5v-4zM720 167l3 -4l2 -1l5 3l-3 5l-5 -2zM101 248l1 -5h4l2 5l1 2l-5 1zM219 616l4 -3l4 1l3 1l-3 2l1 1l-5 2zM754 352l3 1l5 2l-5 4
l-4 2zM330 672l-8 -1l-2 -3l-1 -2l11 2v4zM280 665l3 -2l4 1h2v5l-8 -1zM132 536l1 -3l2 1l5 3l-1 3l-7 -1v-3zM754 332l4 1l1 4v3h-5v-8zM379 16l4 -3l5 1v3l-6 1zM633 625v-2l6 1l2 2l-6 2h-4z" />
    <glyph glyph-name="Oacute" unicode="&#xd3;" horiz-adv-x="865" 
d="M372 -2l-28 6l-35 4l-22 10l-29 13l-26 11l-25 13l-22 22l-19 21l-21 24l-17 25l-13 23l-14 29l-7 28l-10 30l-5 35l-4 35l1 42l6 36l3 28l7 31l7 30l12 25l16 26l18 30l22 19l19 22l20 23l33 20l40 18l35 13l28 5l37 10l38 -2h35l38 -2l30 -6l29 -7l32 -8l26 -11l22 -18
l29 -13l21 -21l20 -24l24 -18l16 -24l10 -28l9 -29l13 -29l7 -33l4 -29l-2 -36l6 -40l-5 -40l-5 -32l-10 -28l-5 -27l-14 -28l-15 -25l-13 -24l-26 -30l-31 -30l-43 -30l-42 -13l-25 -11l-31 -9l-33 -7h-80zM494 29l30 8l29 5l21 12l31 9l24 22l25 22l33 36l20 26l11 28
l10 28l9 30l5 31l1 37l2 47l-5 36l-2 31l-8 28l-11 28l-13 27l-16 28l-18 24l-22 22l-23 19l-25 14l-26 17l-26 12l-26 7l-32 7l-38 4l-49 -3l-28 -4l-62 -13l-30 -13l-26 -12l-22 -20l-24 -19l-20 -19l-18 -22l-16 -25l-16 -31l-12 -27l-5 -27l-6 -31l-2 -37l1 -46l2 -37
l7 -33l7 -27l10 -27l15 -29l14 -25l18 -24l20 -17l37 -27l37 -26l27 -12l30 -5l29 -8l35 -1l47 -2zM426 815l11 32l13 28l22 12l1 -21l-9 -30l-14 -27l-19 -12zM682 122l8 -9h5l11 7l-4 2l-2 6h-8zM184 590l6 -7l5 6l7 5v3l-10 1zM759 369l2 -6l6 -1l1 1l3 1l-3 9l2 3l-9 -2
zM206 609l6 -6h3l8 6l-6 5l-7 -1zM429 9l2 -6l9 1v4l-3 6h-8v-5zM732 484l7 -1l3 6l-1 4l-12 1l2 -1zM140 169l1 -6h6l3 3l2 1l-2 1l-1 7l-6 -2zM648 87l4 -4l6 -1l2 4l-3 6h-5zM220 66l2 -3h8v9l-6 1zM89 338l3 -5l7 1l2 4l-3 3l-8 1zM227 638l5 -5h8l-2 8h-4zM752 437v-4
h8l2 3l-4 6h-4zM737 217l5 -4l6 -1l1 5l-3 5l-2 -1zM101 397l1 -4l4 -1l1 3l4 4l-5 2l-6 1zM758 268l4 -5l5 -1l1 9h-2l-6 -1zM760 346l2 -3l5 1l6 4l-5 2h-6zM99 246l3 -3l4 1l5 2l-5 6l-2 -2zM729 206l4 -3l4 -1l5 5l-3 2h-4zM101 417l2 -4l4 -1l4 4l-4 3l-3 2zM322 677
l1 -4l5 -1l2 6l-5 3zM220 617l3 -4l2 -1l4 1l2 4l-6 1l-4 1zM397 18l4 -5l7 -1l3 4zM729 186l4 -3h6l-1 4l-3 4v-1zM589 656l4 -3h6l-1 4v3l-6 -2zM131 536l2 -3h2l4 2v4l-4 1zM760 448l2 -5h5l-4 9l1 2zM379 15l4 -2l2 1l5 1l-4 3l-6 -1zM751 478l1 -5h6l-5 7l-1 2z
M341 675l2 -2l4 -1v4l2 3l-5 -1zM755 332l3 1l1 4v3l-3 2z" />
    <glyph glyph-name="Ocircumflex" unicode="&#xd4;" horiz-adv-x="865" 
d="M372 -2l-28 6l-35 4l-22 10l-29 13l-26 11l-25 13l-22 22l-19 21l-21 24l-17 25l-13 23l-14 29l-7 28l-10 30l-5 35l-4 35l1 42l6 36l3 28l7 31l7 30l12 25l16 26l18 30l22 19l19 22l20 23l33 20l40 18l35 13l28 5l37 10l38 -2h35l38 -2l30 -6l29 -7l32 -8l26 -11l22 -18
l29 -13l21 -21l20 -24l24 -18l16 -24l10 -28l9 -29l13 -29l7 -33l4 -29l-2 -36l6 -40l-5 -40l-5 -32l-10 -28l-5 -27l-14 -28l-15 -25l-13 -24l-26 -30l-31 -30l-43 -30l-42 -13l-25 -11l-31 -9l-33 -7h-80zM494 29l30 8l29 5l21 12l31 9l24 22l25 22l33 36l20 26l11 28
l10 28l9 30l5 31l1 37l2 47l-5 36l-2 31l-8 28l-11 28l-13 27l-16 28l-18 24l-22 22l-23 19l-25 14l-26 17l-26 12l-26 7l-32 7l-38 4l-49 -3l-28 -4l-62 -13l-30 -13l-26 -12l-22 -20l-24 -19l-20 -19l-18 -22l-16 -25l-16 -31l-12 -27l-5 -27l-6 -31l-2 -37l1 -46l2 -37
l7 -33l7 -27l10 -27l15 -29l14 -25l18 -24l20 -17l37 -27l37 -26l27 -12l30 -5l29 -8l35 -1l47 -2zM334 799l20 22l21 24l23 16l34 16l37 -14l25 -21l21 -18l15 -23l1 -15l-27 9l-26 27l-25 17l-34 5l-23 -16l-31 -27l-34 -15zM682 121l8 -8h9l6 9l-6 6l-11 1zM184 589l6 -6
l10 10v5l-11 -2zM734 482l5 1l4 6l-2 5h-12l1 -3zM428 7l3 -4h6l5 6l-3 4l-8 2zM218 66l4 -3h8l3 4l-3 5l-9 1zM759 370l2 -7h10v2l-2 -1v8l-2 3l-6 -1zM227 637l5 -4l4 -1l7 5l-6 6l-6 -2zM138 169l3 -6l7 -1l1 4l3 3l-3 -2v-1l-4 8l-5 1zM87 336l5 -3h8l3 4l-7 5l-2 1z
M208 609l4 -6l2 1l9 5l-5 3l-8 1zM737 216l5 -3h8v8h-6zM672 107v-4l4 -1l6 5l-4 5h-7zM758 346l4 -3l8 1l1 2l-3 4l-8 1zM649 86l3 -3l6 -1l3 6l-2 2l-5 1zM750 438l2 -5h8l-2 4l1 3l-7 2zM758 267l4 -4l5 1l1 5l1 1l-9 1zM589 656l4 -3l4 -1l4 4l-2 3h-8zM759 447l3 -4
l5 1l-3 10h-3zM728 187l5 -4h6l-1 3v3l-5 2zM101 398l1 -5l6 -1l-1 4l2 3l1 2h-8zM100 248l2 -5l4 -1l2 6l-1 2l-7 2v-4zM754 334l4 -1l4 3l-2 5l-7 -1zM320 678l3 -5l2 1l7 2l-4 5l-5 -2zM339 675l4 -2l2 1l6 2l-5 4h-3zM93 348l-6 4l-2 -9l3 -1zM379 16l4 -3l3 -1l5 3
l-1 2h-10zM412 5l1 -2h6l1 4l-1 2h-4zM631 627l2 -4h6l2 2l-2 2l-8 1v-1zM754 352l3 1l5 2l-6 4l-2 2v-9zM114 495l-1 -2h6l1 2l-1 3h-8zM400 16l1 -3l8 1l2 4zM723 163l5 1l3 2l-8 4v-7zM220 615l3 -2h5l2 1l-2 1l-2 3h-3zM733 205v-2l3 1l3 2l-4 3h-5zM103 415v-2h2l4 2
l-3 4l-1 2zM459 14l8 -2l4 5zM364 686l-1 -3h6l-1 2l-3 3h-4zM87 353h-1l1 -1v1z" />
    <glyph glyph-name="Otilde" unicode="&#xd5;" horiz-adv-x="865" 
d="M372 -2l-28 6l-35 4l-22 10l-29 13l-26 11l-25 13l-22 22l-19 21l-21 24l-17 25l-13 23l-14 29l-7 28l-10 30l-5 35l-4 35l1 42l6 36l3 28l7 31l7 30l12 25l16 26l18 30l22 19l19 22l20 23l33 20l40 18l35 13l28 5l37 10l38 -2h35l38 -2l30 -6l29 -7l32 -8l26 -11l22 -18
l29 -13l21 -21l20 -24l24 -18l16 -24l10 -28l9 -29l13 -29l7 -33l4 -29l-2 -36l6 -40l-5 -40l-5 -32l-10 -28l-5 -27l-14 -28l-15 -25l-13 -24l-26 -30l-31 -30l-43 -30l-42 -13l-25 -11l-31 -9l-33 -7h-80zM494 29l30 8l29 5l21 12l31 9l24 22l25 22l33 36l20 26l11 28
l10 28l9 30l5 31l1 37l2 47l-5 36l-2 31l-8 28l-11 28l-13 27l-16 28l-18 24l-22 22l-23 19l-25 14l-26 17l-26 12l-26 7l-32 7l-38 4l-49 -3l-28 -4l-62 -13l-30 -13l-26 -12l-22 -20l-24 -19l-20 -19l-18 -22l-16 -25l-16 -31l-12 -27l-5 -27l-6 -31l-2 -37l1 -46l2 -37
l7 -33l7 -27l10 -27l15 -29l14 -25l18 -24l20 -17l37 -27l37 -26l27 -12l30 -5l29 -8l35 -1l47 -2zM447 829l-49 17l-60 -5l-35 -5l2 13l15 22l26 14l42 -1l39 -11l53 -13l56 -1l33 9l2 -13l-10 -24l-34 -9l-39 -4zM686 121l4 -8l9 1l8 7l-4 3l-4 6l-9 -2zM186 589l4 -6l8 5
l4 6l-3 2h-9zM430 7l1 -4l10 1l1 5l-4 6h-9zM758 370l3 -7l8 -1l3 2h-4l2 8l-2 2l-7 2zM741 217l1 -4l6 -1l3 4l-1 7h-9v-6zM137 169l4 -6l8 1v3h2l-2 1l-3 5l-3 1zM734 482l5 1l2 10h-12zM759 346l3 -3h8l1 3l-3 6h-5zM219 66l3 -3h4l7 4l-6 4h-7zM90 336l2 -3l8 -1l-1 4
l1 6h-6zM648 87l4 -4l8 1l1 4l-1 3l-8 -1zM507 848l5 -5h8l3 6h-11zM750 438l2 -5h8l-1 5v4l-8 -2zM231 637l1 -4h4l3 4l1 5l-9 -1v-4zM101 399l1 -6l7 -1l-1 4v3l2 3l-8 -1zM671 108l1 -5l8 1v7l-9 -1v-2zM318 677l5 -4h6l2 3l-6 5l-1 -2zM756 448l6 -5l3 1l-2 10h-1z
M531 847l2 -4h6l2 3l-4 4h-5zM733 205v-2h6l3 4l-4 2h-8zM760 266l2 -3l6 1l2 6h-6zM730 186l3 -3h2l7 5l-7 1l-4 1zM99 415l4 -2l5 1v3l-3 3h-4zM102 243h4l4 3l-4 5l-4 -1v-7zM209 607l3 -4v1l7 6l-1 2h-5zM755 333h3l5 4l-3 4h-4zM479 837l4 -4h6l-2 3l2 3h-8zM592 655
l1 -2l4 -1l2 5v2l-7 1v-5zM90 357l3 -4l2 -1l6 3l-2 3h-8zM221 617l2 -4l5 1l1 1l-2 1l2 3l-5 1zM690 112l-1 -4l3 -3l6 8zM721 167l2 -4l4 1l4 2l-10 4v-3zM397 16l4 -3l7 1l1 4zM93 366v-3l6 -1l2 4l-10 2zM748 477l4 -4l3 1l-2 7zM326 670l-4 1v-4l1 -1l9 1zM342 675
l1 -2l5 1l-1 3l2 1h-8zM461 16l2 -3l6 -1l-1 5zM383 16v-3l6 -1l-2 5l-5 -1h1zM753 482v-1l1 1h-1z" />
    <glyph glyph-name="Odieresis" unicode="&#xd6;" horiz-adv-x="865" 
d="M372 -2l-28 6l-35 4l-22 10l-29 13l-26 11l-25 13l-22 22l-19 21l-21 24l-17 25l-13 23l-14 29l-7 28l-10 30l-5 35l-4 35l1 42l6 36l3 28l7 31l7 30l12 25l16 26l18 30l22 19l19 22l20 23l33 20l40 18l35 13l28 5l37 10l38 -2h35l38 -2l30 -6l29 -7l32 -8l26 -11l22 -18
l29 -13l21 -21l20 -24l24 -18l16 -24l10 -28l9 -29l13 -29l7 -33l4 -29l-2 -36l6 -40l-5 -40l-5 -32l-10 -28l-5 -27l-14 -28l-15 -25l-13 -24l-26 -30l-31 -30l-43 -30l-42 -13l-25 -11l-31 -9l-33 -7h-80zM494 29l30 8l29 5l21 12l31 9l24 22l25 22l33 36l20 26l11 28
l10 28l9 30l5 31l1 37l2 47l-5 36l-2 31l-8 28l-11 28l-13 27l-16 28l-18 24l-22 22l-23 19l-25 14l-26 17l-26 12l-26 7l-32 7l-38 4l-49 -3l-28 -4l-62 -13l-30 -13l-26 -12l-22 -20l-24 -19l-20 -19l-18 -22l-16 -25l-16 -31l-12 -27l-5 -27l-6 -31l-2 -37l1 -46l2 -37
l7 -33l7 -27l10 -27l15 -29l14 -25l18 -24l20 -17l37 -27l37 -26l27 -12l30 -5l29 -8l35 -1l47 -2zM501 813l-1 49l47 1v-49zM317 815l3 49l45 -2v-47h-48zM682 121l8 -8h5l10 9h-1l-2 7h-14zM755 369l6 -6l8 -1l-1 3l2 1l1 8h-12zM731 483h8l3 4l-1 8l-8 -1l-5 -2zM186 589
l4 -6l8 5l3 4l-3 5l-8 -1zM426 8l5 -5l6 1l6 5l-2 5l-10 -1zM206 609l6 -6l2 1l7 4l-3 6l-4 -1zM227 637l5 -4l6 -1l3 4l-4 7l-3 -1zM221 67l1 -4l4 -1l5 4l-2 7l-9 -1zM87 337l5 -4h8l-1 3l1 6h-6zM140 169l1 -6l10 1v3l-2 -1l-4 8l-6 -1zM648 88l4 -5h8l2 5l-3 2l-5 1z
M758 348l4 -5l6 1l4 4l-6 2l-6 1zM98 246l4 -3h4l6 5l-5 2l-3 1zM98 399l4 -6l4 1l1 1l2 4l-3 4zM759 268l3 -5l5 -1l1 9h-8zM739 218l3 -5h4l3 4l-1 4l-4 1zM752 438v-5l6 -1l3 4l-5 5l-2 1zM320 676l3 -3h2l7 4l-3 3l-5 1zM674 111l-2 -8l6 -1l3 4l-5 6zM755 333h3l5 4
l-3 3l-8 1zM756 449l6 -6l2 -1l1 12l-1 -1zM410 7l3 -4l6 -1l1 3l-3 5l-5 -2zM730 186l3 -3h2l6 3l-2 4l-5 -1zM330 671h-8v-4l-3 -1h12zM219 616l4 -3l3 -1l4 2l-2 1l-3 3l-3 2zM720 167l3 -4h2l6 4l-6 2l-4 -1zM101 417l2 -4l4 1l4 2l-6 4l-1 -1zM754 354l3 -1l5 3l-7 4
l-2 1zM733 203l3 1l3 2l-2 5h-4v-8zM591 655l2 -2h6l-1 4v3l-4 -2zM523 845v-2l3 1l1 2v5l-6 -1zM114 495l-1 -2l2 -1l5 3l-1 4l-7 -2zM134 535l-1 -2h6l-2 3l2 3h-7zM283 655v-2h6l1 3l-3 1l-6 1zM671 93l-2 -6l-1 -1l10 7h-7zM151 168v-1l2 1h-2z" />
    <glyph glyph-name="multiply" unicode="&#xd7;" horiz-adv-x="537" 
d="M103 187l25 27l27 32l29 24l22 20l16 24l-3 33l-14 26l-29 30l-20 21l-32 27l-15 26l-7 20l20 -3l27 -20l17 -22l27 -32l34 -31l22 -16l33 1l30 17l17 21l17 20l22 21l18 22l23 20h19l-2 -18l-18 -22l-21 -21l-21 -24l-42 -37l-11 -27v-32l14 -22l21 -23l20 -24l18 -17
l23 -19l22 -24l1 -17l-18 5l-26 19l-17 19l-19 19l-23 19l-22 22l-24 16h-34l-35 -30l-32 -29l-17 -20l-19 -21l-26 -16l-22 -5zM332 261l4 -5l7 -1l-2 3l-2 6l-3 2l-1 -2zM348 247l2 -1l3 1l-3 6h-6l-1 -2zM351 242l8 -5l3 -1l-2 -1l3 1v1l-7 7zM204 387l2 -1l2 1l4 3l-3 1
l-4 2l-3 -4z" />
    <glyph glyph-name="Oslash" unicode="&#xd8;" horiz-adv-x="865" 
d="M372 -2l-28 6l-35 4l-22 10l-29 13l-13 5l-15 -24l-19 -26l-19 -6l1 20l13 23l16 24l-15 8l-22 22l-19 21l-21 24l-17 25l-13 23l-14 29l-7 28l-10 30l-5 35l-4 35l1 42l6 36l3 28l7 31l7 30l12 25l16 26l18 30l22 19l19 22l20 23l33 20l40 18l35 13l28 5l37 10l38 -2h35
l38 -2l30 -6l29 -7l32 -8l26 -11l10 -9l19 24l15 23l16 4l5 -15l-16 -28l-15 -23l17 -7l21 -21l20 -24l24 -18l16 -24l10 -28l9 -29l13 -29l7 -33l4 -29l-2 -36l6 -40l-5 -40l-5 -32l-10 -28l-5 -27l-14 -28l-15 -25l-13 -24l-26 -30l-31 -30l-43 -30l-42 -13l-25 -11
l-31 -9l-33 -7h-80zM568 581l18 27l14 20l-24 16l-26 12l-26 7l-32 7l-38 4l-49 -3l-28 -4l-62 -13l-30 -13l-26 -12l-22 -20l-24 -19l-20 -19l-18 -22l-16 -25l-16 -31l-12 -27l-5 -27l-6 -31l-2 -37l1 -46l2 -37l7 -33l7 -27l10 -27l15 -29l14 -25l18 -24l20 -17l32 -24
l12 16l17 28l19 25l14 24l15 25l19 23l18 28l16 30l15 22l18 27l15 25l16 27l20 24l13 25l14 25l21 25l30 54l17 24zM494 29l30 8l29 5l21 12l31 9l24 22l25 22l33 36l20 26l11 28l10 28l9 30l5 31l1 37l2 47l-5 36l-2 31l-8 28l-11 28l-13 27l-16 28l-18 24l-22 22l-23 19
l-7 4l-15 -22l-16 -24l-15 -27l-18 -25l-19 -29l-13 -21l-17 -27l-18 -28l-12 -25l-15 -21l-19 -27l-18 -26l-14 -27l-17 -24l-16 -24l-17 -27l-17 -23l-17 -30l-16 -23l-34 -48l-13 -21l22 -15l27 -12l30 -5l29 -8l35 -1l47 -2zM498 16l3 -6h10l1 6l-1 5h-12zM699 115l-9 1
l-8 -7l8 -7l5 6zM758 355l3 -5h10l-2 5l2 3l-2 3l-7 2zM232 632l1 -2l1 -1l-6 -4l4 -5l1 -1l5 6l-2 4l4 3l-1 5l-6 -1zM98 304l4 -4l6 -1v3l3 4l-3 3l-8 2zM749 227l2 -7l5 1l2 6v6l-9 -1v-5zM140 155l1 -5l8 1l1 4l-1 7l-8 -2zM108 245l4 -5l6 1l1 3h1v5h-10zM127 173l5 -3
l6 1l5 4l-6 2l-7 2zM100 345l1 -5h5l4 11l-10 -1v-5zM296 675l5 -5l10 1v7zM667 104l5 -4l6 1l3 2l-4 5h-7zM761 335l1 -5l4 -1l7 5l-6 3l-7 1zM751 425l1 -5l8 -1l-2 6v4h-5zM209 623l4 -3l6 1l2 3l-6 4h-3zM741 205l1 -5l5 1l4 2l-3 5l-4 1zM102 393v-3h4l5 2l-2 4l1 3
l-6 -1zM102 414v-4h4l2 3l-1 6h-6zM662 94l1 -4h6l2 3l-2 4l-5 -1zM489 683l4 -3l2 -1l6 3l-5 5l-2 -2zM733 180h6l-1 5l-3 3h-4zM760 253l2 -3h4l3 8l-4 -1l1 2l-2 -1zM753 327v-7l4 1l4 4l-1 3zM728 174l5 -4l5 4v2l-5 2zM101 435l2 -5l5 1l3 4l-6 1l-1 2zM129 523l4 -3
l6 -1v3l-4 4zM482 13l1 -3l3 1l3 4v2h-8zM229 617l-6 -1l-4 -4l5 -2l5 5v2zM423 13v-3l3 -1l3 5v2h-8zM89 352l4 -2l3 1l3 3v1h-8zM760 434l2 -4l4 1l-2 9zM271 657l-4 3l-6 -3l-1 -1l5 -1l1 -1zM643 73v-3l4 -1v4l1 4l-6 -2zM587 664l5 -4l5 1l-9 4z" />
    <glyph glyph-name="Ugrave" unicode="&#xd9;" horiz-adv-x="782" 
d="M281 13l-30 17l-23 14l-21 18l-22 27l-20 27l-11 26l-10 28l-5 38l-3 43l2 38v29l2 26v29l-2 33l2 26v32l-5 30l-1 29l3 28l1 29l2 28l-9 33l-28 19l-34 9l-21 14l17 14l28 1l25 4l28 -1l23 -10l6 -25l-1 -31l-2 -30l-1 -37l4 -38l-2 -38l5 -32v-30l1 -32l-1 -29l-2 -28
l-1 -30l-1 -26l4 -39l5 -43l1 -36l12 -32l18 -26l22 -21l21 -17l24 -18l28 -16l27 -5l39 -7h46l38 5l31 10l30 12l23 18l20 20l23 22l14 27l9 27l12 39l1 45l5 33l-2 32l-1 30v26l1 34l-2 27l-1 32l-3 29l4 31l-1 30l-2 26l-4 30l2 31l7 29l15 21l17 -4l4 -26l1 -27l1 -28
l-3 -32l-2 -40l-6 -43l4 -41v-66l1 -32l-1 -30l-1 -28l2 -37l-5 -49v-40l-9 -27l-16 -29l-17 -25l-31 -32l-36 -26l-23 -13l-31 -9l-29 -10l-38 -5l-42 2l-34 2zM369 847l-9 29l1 18l20 -8l14 -29l9 -32l1 -16l-17 9zM636 273l-2 -11h10l4 5l-8 7zM622 177l3 -5h8l3 5l-4 5
l-9 -1l-2 -2zM634 334l1 -2l6 -1l6 5l-5 5h-5l-4 -1zM602 97l-1 5l-7 1l-4 -6l5 -3h8zM153 446l3 -4l3 -1l6 4l-3 4h-4zM633 165l2 -3l6 1l2 7l-3 1l-3 -1zM165 166v-4l8 -1l-2 4l2 5l-9 -1zM151 235l5 -3l6 1l1 2l-2 3l-3 2zM161 397l3 -5l5 1l-1 11zM636 307v-5h6l2 2
l-2 5l-7 1zM148 391l3 1l5 4l-6 5h-2v-10zM146 489l1 -7h6l-1 5l-2 4zM562 75l4 -3l4 1l1 1l-1 5h-4zM162 376l3 -4l2 1l2 7l-4 2zM152 405l4 -3l4 -1l1 5l-1 2l-6 -1zM153 424l3 -2l5 1l2 1l-3 4l-4 -2zM471 23l3 -1l6 -1l3 6zM150 686l5 -4l7 -1l1 2l-10 3h-3zM619 164
l-2 -2l3 -1l2 5l-1 4l-3 2z" />
    <glyph glyph-name="Uacute" unicode="&#xda;" horiz-adv-x="782" 
d="M281 13l-30 17l-23 14l-21 18l-22 27l-20 27l-11 26l-10 28l-5 38l-3 43l2 38v29l2 26v29l-2 33l2 26v32l-5 30l-1 29l3 28l1 29l2 28l-9 33l-28 19l-34 9l-21 14l17 14l28 1l25 4l28 -1l23 -10l6 -25l-1 -31l-2 -30l-1 -37l4 -38l-2 -38l5 -32v-30l1 -32l-1 -29l-2 -28
l-1 -30l-1 -26l4 -39l5 -43l1 -36l12 -32l18 -26l22 -21l21 -17l24 -18l28 -16l27 -5l39 -7h46l38 5l31 10l30 12l23 18l20 20l23 22l14 27l9 27l12 39l1 45l5 33l-2 32l-1 30v26l1 34l-2 27l-1 32l-3 29l4 31l-1 30l-2 26l-4 30l2 31l7 29l15 21l17 -4l4 -26l1 -27l1 -28
l-3 -32l-2 -40l-6 -43l4 -41v-66l1 -32l-1 -30l-1 -28l2 -37l-5 -49v-40l-9 -27l-16 -29l-17 -25l-31 -32l-36 -26l-23 -13l-31 -9l-29 -10l-38 -5l-42 2l-34 2zM383 815l11 32l13 28l22 12l1 -21l-9 -30l-14 -27l-19 -12zM634 274v-12h10l2 7l-4 4zM632 333l3 -1l8 -1v6
l-1 6h-5l-5 -3v-7zM602 97l-1 5h-4l-6 -6l4 -4l4 2zM163 167l2 -5l8 1l1 4l-3 2l-4 1zM152 345l4 -3h6l2 2l-2 4l-8 1zM630 166l5 -4h3l2 7l-1 1l-6 1zM620 176l5 -4h4l3 5l-2 3h-3l-3 -3zM643 228l-3 4l-3 -1l-2 -2v-5l7 1zM152 515l4 -3l2 1l5 2l-4 5h-1zM153 235l3 -3
l6 -1v6l-2 1h-3zM163 397l1 -5l5 1l-2 11l-1 -1zM634 307l2 -5l2 1l7 2l-4 3l-7 1v-2zM151 444l5 -2l2 1l5 1l-5 5zM151 685l4 -3l6 -1l1 2l-11 5v-3zM566 74v-2l6 -1v3l-2 5l-2 -1zM156 406v-4l3 -1l5 5h-4l-6 2zM634 483l2 -1l6 -1l-1 2v3l-3 1zM617 162h2l5 5l-3 3v2z
M153 423l3 -1h6l-2 1l-1 5l-3 -2zM474 22h6l6 4z" />
    <glyph glyph-name="Ucircumflex" unicode="&#xdb;" horiz-adv-x="782" 
d="M281 13l-30 17l-23 14l-21 18l-22 27l-20 27l-11 26l-10 28l-5 38l-3 43l2 38v29l2 26v29l-2 33l2 26v32l-5 30l-1 29l3 28l1 29l2 28l-9 33l-28 19l-34 9l-21 14l17 14l28 1l25 4l28 -1l23 -10l6 -25l-1 -31l-2 -30l-1 -37l4 -38l-2 -38l5 -32v-30l1 -32l-1 -29l-2 -28
l-1 -30l-1 -26l4 -39l5 -43l1 -36l12 -32l18 -26l22 -21l21 -17l24 -18l28 -16l27 -5l39 -7h46l38 5l31 10l30 12l23 18l20 20l23 22l14 27l9 27l12 39l1 45l5 33l-2 32l-1 30v26l1 34l-2 27l-1 32l-3 29l4 31l-1 30l-2 26l-4 30l2 31l7 29l15 21l17 -4l4 -26l1 -27l1 -28
l-3 -32l-2 -40l-6 -43l4 -41v-66l1 -32l-1 -30l-1 -28l2 -37l-5 -49v-40l-9 -27l-16 -29l-17 -25l-31 -32l-36 -26l-23 -13l-31 -9l-29 -10l-38 -5l-42 2l-34 2zM301 799l20 22l21 24l23 16l34 16l37 -14l25 -21l21 -18l15 -23l1 -15l-27 9l-26 27l-25 17l-34 5l-23 -16
l-31 -27l-34 -15zM160 399l4 -7l6 1l-3 10h-4l1 1l-2 3l-4 -1h-4l2 -4h5zM636 273l-2 -11l8 1l3 6l-3 6zM636 334l-1 -2h4l8 4l-6 5l-8 1zM630 166l5 -4h7l-2 8l2 1h-6zM644 230l-4 2l-5 1l-4 -5l3 -3l5 -1zM604 98l-3 4l-4 1l-3 -6l3 -4h6zM621 177l4 -5l7 1v5l-2 2l-3 1
l-4 -2zM162 165l3 -3h8l-1 3l-3 4l-2 1zM153 235l3 -3h6l1 5l-3 1l-6 1zM563 74l3 -2l5 -1l3 4l-2 2l-8 1zM154 517l2 -5l3 -1l4 4l-1 4l-7 -1zM152 215l4 -3l2 -1l6 3l-5 3l-5 1zM154 344l2 -2h6v7h-4zM152 366l4 -4l4 -1l3 3l-3 3l-2 1zM153 446l3 -4l5 -1v4l-3 4l-1 1z
M617 164v-2l4 -1l2 4v6h-1zM164 377l1 -5l4 -1l-2 11l-3 -2v-3zM633 484l3 -2l2 1h3l1 4l-6 1zM150 391l6 6l-3 4l-3 -1v-9zM422 15l4 -3l2 -1l6 4l-5 1zM205 85l1 -3l5 -1l2 3l-5 4v-2zM150 687l5 -5h8l-3 1l-5 4h-5zM445 831l1 1l3 -1l1 4l-2 5l-1 -2l-2 -2v-5zM333 821
l3 1l4 -1l2 6l1 2z" />
    <glyph glyph-name="Udieresis" unicode="&#xdc;" horiz-adv-x="782" 
d="M281 13l-30 17l-23 14l-21 18l-22 27l-20 27l-11 26l-10 28l-5 38l-3 43l2 38v29l2 26v29l-2 33l2 26v32l-5 30l-1 29l3 28l1 29l2 28l-9 33l-28 19l-34 9l-21 14l17 14l28 1l25 4l28 -1l23 -10l6 -25l-1 -31l-2 -30l-1 -37l4 -38l-2 -38l5 -32v-30l1 -32l-1 -29l-2 -28
l-1 -30l-1 -26l4 -39l5 -43l1 -36l12 -32l18 -26l22 -21l21 -17l24 -18l28 -16l27 -5l39 -7h46l38 5l31 10l30 12l23 18l20 20l23 22l14 27l9 27l12 39l1 45l5 33l-2 32l-1 30v26l1 34l-2 27l-1 32l-3 29l4 31l-1 30l-2 26l-4 30l2 31l7 29l15 21l17 -4l4 -26l1 -27l1 -28
l-3 -32l-2 -40l-6 -43l4 -41v-66l1 -32l-1 -30l-1 -28l2 -37l-5 -49v-40l-9 -27l-16 -29l-17 -25l-31 -32l-36 -26l-23 -13l-31 -9l-29 -10l-38 -5l-42 2l-34 2zM468 813l-1 49l47 1v-49zM284 815l3 49l45 -2v-47h-48zM638 273l-4 -11h6l8 6l-4 6zM636 333l-1 -1l8 -1l4 6
l-6 6h-8l3 -2v-8zM161 167l4 -5l7 -1l3 5l-5 3h-6zM604 98l-3 4l-4 -1l-5 -5l4 -2l5 -2zM624 176l1 -4l4 -1l5 7l-3 2l-6 2v-4zM630 166l5 -4h7v6l-2 1l-3 1zM143 490l4 -8l5 -1v4l1 6zM643 230l-3 2l-5 -1l-4 -3l5 -4h4zM163 397l1 -5l3 -1l3 11l-6 2zM152 235l4 -3l3 1
l3 4l-2 3h-6zM152 345l4 -3l4 -1l3 3l-1 6zM151 516l5 -4h6l-1 3l1 4h-4zM634 309l2 -7h6l1 4l-5 3l-3 1zM152 364l4 -2h6l-1 2l-1 5l-6 -1zM152 215l4 -3l2 -1l3 5l-1 3h-6zM564 74l2 -2h6l2 4l-2 1l-8 1v-4zM153 444l3 -2l4 1l2 3l-2 2l-4 2zM164 377l1 -5l4 -1l-1 9l-5 1
zM496 845v-3l5 1l1 3l-4 3h-4zM619 172v-10l7 3zM473 24l1 -2l8 1l5 4zM151 687l4 -5l7 1l-7 4h-4zM156 405v-3l6 1l-2 3v2l-6 -1zM619 162h-2h2z" />
    <glyph glyph-name="Yacute" unicode="&#xdd;" horiz-adv-x="676" 
d="M334 31l2 35l-3 33v25l2 30l-1 30l-1 35l-3 39l-11 39l-16 36l-16 23l-18 29l-14 27l-16 22l-15 29l-14 23l-16 25l-14 25l-18 30l-25 36l-29 36l-41 23l-53 22l15 12l35 5l31 -9l36 -21l21 -24l17 -24l17 -23l12 -26l17 -25l17 -26l12 -24l15 -27l17 -26l14 -29l19 -21
l16 -27l18 -17h26l25 35l23 30l16 30l16 21l9 28l17 24l14 25l16 26l14 27l18 27l12 21l18 28l30 19l14 -7l-7 -24l-14 -25l-19 -22l-17 -26l-17 -24l-11 -25l-16 -27l-14 -23l-15 -29l-15 -24l-18 -24l-17 -24l-11 -28l-15 -26l-17 -31l-12 -42l-1 -34v-27l-3 -31l2 -29
l-5 -27l3 -30l1 -26l-6 -27l-9 -25h-20zM337 815l11 32l13 28l22 12l1 -21l-9 -30l-14 -27l-19 -12zM224 491l6 -6h10l-1 2l-2 6l-6 3h-3zM346 81l5 -6l5 -1l5 7l-2 3l-6 2zM145 620l6 -5l6 1v2l-2 8l-6 -1zM198 540l3 -5l6 1l5 2l-5 6l-4 -1zM349 158l2 -3l7 1l3 3l-6 4
l-5 1zM186 549l5 -4l4 1l3 2l-3 6l-6 -1zM345 26l3 -1l4 6l-2 6h-8l4 -5zM156 609l5 -4l6 -1l-1 1l-3 10l-4 -1zM348 248l4 -3l6 -1l2 3l-3 4l-7 1zM359 228l2 -3l4 -1v8l-4 2zM253 447l-1 -2h6l1 2l-5 3l-3 -1z" />
    </font>
</defs>
</svg>
